<?xml version="1.0" standalone="no"?>
<!DOCTYPE svg PUBLIC "-//W3C//DTD SVG 1.1//EN" "http://www.w3.org/Graphics/SVG/1.1/DTD/svg11.dtd" >
<svg>
<metadata>
Created by FontForge 20120731 at Tue Apr  9 04:37:05 2019
 By www-data
(c) 1999-2012 Typodermic Fonts Inc. See attached license agreement. If agreement is missing visit typodermicfonts.com for more info.
</metadata>
<defs>
<font id="FailedAttempt-Regular" horiz-adv-x="481" >
  <font-face 
    font-family="Failed Attempt"
    font-weight="400"
    font-stretch="normal"
    units-per-em="1000"
    panose-1="2 0 4 0 0 0 0 0 0 0"
    ascent="726"
    descent="-274"
    x-height="526"
    cap-height="709"
    bbox="-81 -274 1454 926"
    underline-thickness="20"
    underline-position="-123"
    unicode-range="U+0017-2265"
  />
<missing-glyph horiz-adv-x="534" 
d="M138 -171q-88 0 -88 76v727q0 77 88 77h266q89 0 89 -77v-727q0 -76 -88 -76h-267zM465 519l-53 10l-10 -53l51 -10zM396 532l-53 11l-11 -53l54 -10zM451 448l-52 11l-9 -52l50 -10zM325 546l-52 10l-11 -52l54 -11zM436 379l-51 10l-11 -52l52 -10zM256 560l-52 10
l-11 -52l52 -11zM423 309l-52 10l-11 -51l52 -11zM409 239l-53 10l-9 -51l51 -11zM395 169l-51 11l-12 -53l53 -10zM325 183l-53 11l-10 -53l52 -10zM257 198l-54 10l-10 -52l52 -11zM187 210l-54 11l-9 -53l51 -9zM158 72l-51 9l-11 -51l51 -11z" />
    <glyph glyph-name="copyright" unicode="&#x28;C&#x29;" horiz-adv-x="658" 
d="M567 640l15 69h69l-15 -69h-69zM475 640l16 69h68l-15 -69h-69zM384 640l15 69h69l-15 -69h-69zM292 640l16 69h68l-15 -69h-69zM437 457l15 69h68l-15 -69h-68zM345 457l16 69h68l-15 -69h-69zM326 366l15 68h69l-16 -68h-68zM307 274l15 69h69l-16 -69h-68zM379 183
l14 68h69l-15 -68h-68zM287 183l15 68h69l-15 -68h-69zM432 0l14 68h68l-13 -68h-69zM341 0l13 68h69l-14 -68h-68zM249 0l14 68h68l-13 -68h-69zM158 0l13 68h69l-14 -68h-68zM187 549l15 68h67l-14 -68h-68zM166 457l14 69h68l-15 -69h-67zM146 366l15 68h68l-15 -68h-68z
M127 274l15 69h68l-14 -69h-69zM108 183l15 68h68l-15 -68h-68zM87 91l17 68h67l-15 -68h-69zM638 549l15 68h68l-14 -68h-69zM616 457l15 69h69l-15 -69h-69zM598 366l14 68h68l-14 -68h-68zM579 274l16 69h68l-16 -69h-68zM559 183l16 68h68l-15 -68h-69zM539 91l15 68h69
l-16 -68h-68z" />
    <glyph glyph-name="registered" unicode="&#x28;R&#x29;" horiz-adv-x="658" 
d="M567 640l15 69h69l-15 -69h-69zM475 640l16 69h68l-15 -69h-69zM384 640l15 69h69l-15 -69h-69zM292 640l16 69h68l-15 -69h-69zM437 457l15 69h68l-15 -69h-68zM345 457l16 69h68l-15 -69h-69zM326 366l15 68h69l-16 -68h-68zM307 274l15 69h69l-16 -69h-68zM287 183
l15 68h69l-15 -68h-69zM432 0l14 68h68l-13 -68h-69zM341 0l13 68h69l-14 -68h-68zM249 0l14 68h68l-13 -68h-69zM158 0l13 68h69l-14 -68h-68zM187 549l15 68h67l-14 -68h-68zM166 457l14 69h68l-15 -69h-67zM146 366l15 68h68l-15 -68h-68zM127 274l15 69h68l-14 -69h-69z
M108 183l15 68h68l-15 -68h-68zM87 91l17 68h67l-15 -68h-69zM638 549l15 68h68l-14 -68h-69zM616 457l15 69h69l-15 -69h-69zM598 366l14 68h68l-14 -68h-68zM579 274l16 69h68l-16 -69h-68zM559 183l16 68h68l-15 -68h-69zM539 91l15 68h69l-16 -68h-68z" />
    <glyph glyph-name=".notdef" horiz-adv-x="534" 
d="M138 -171q-88 0 -88 76v727q0 77 88 77h266q89 0 89 -77v-727q0 -76 -88 -76h-267zM465 519l-53 10l-10 -53l51 -10zM396 532l-53 11l-11 -53l54 -10zM451 448l-52 11l-9 -52l50 -10zM325 546l-52 10l-11 -52l54 -11zM436 379l-51 10l-11 -52l52 -10zM256 560l-52 10
l-11 -52l52 -11zM423 309l-52 10l-11 -51l52 -11zM409 239l-53 10l-9 -51l51 -11zM395 169l-51 11l-12 -53l53 -10zM325 183l-53 11l-10 -53l52 -10zM257 198l-54 10l-10 -52l52 -11zM187 210l-54 11l-9 -53l51 -9zM158 72l-51 9l-11 -51l51 -11z" />
    <glyph glyph-name="uni0017" horiz-adv-x="225" 
 />
    <glyph glyph-name="space" unicode=" " horiz-adv-x="225" 
 />
    <glyph glyph-name="exclam" unicode="!" horiz-adv-x="206" 
d="M204 640l15 69h68l-15 -69h-68zM185 549l15 68h69l-15 -68h-69zM165 457l14 69h70l-16 -69h-68zM146 366l14 68h69l-15 -68h-68zM126 274l16 69h68l-15 -69h-69zM107 183l14 68h69l-15 -68h-68zM68 0l15 68h68l-14 -68h-69z" />
    <glyph glyph-name="quotedbl" unicode="&#x22;" horiz-adv-x="389" 
d="M387 640l15 69h69l-16 -69h-68zM368 549l15 68h69l-15 -68h-69zM204 640l15 69h68l-15 -69h-68zM185 549l15 68h69l-15 -68h-69z" />
    <glyph glyph-name="numbersign" unicode="#" 
d="M348 457l14 69h70l-16 -69h-68zM420 366l15 68h68l-14 -68h-69zM257 457l14 69h69l-15 -69h-68zM329 366l14 68h69l-15 -68h-68zM401 274l15 69h69l-16 -69h-68zM237 366l15 68h68l-14 -68h-69zM309 274l16 69h68l-15 -69h-69zM146 366l14 68h69l-15 -68h-68zM218 274
l15 69h69l-16 -69h-68zM290 183l14 68h69l-15 -68h-68zM126 274l16 69h68l-15 -69h-69zM198 183l15 68h68l-14 -68h-69z" />
    <glyph glyph-name="dollar" unicode="$" 
d="M387 640l15 69h69l-16 -69h-68zM460 549l14 68h70l-16 -68h-68zM295 640l15 69h69l-15 -69h-69zM368 549l15 68h69l-15 -68h-69zM277 549l14 68h70l-16 -68h-68zM185 549l15 68h69l-15 -68h-69zM401 274l15 69h69l-16 -69h-68zM165 457l14 69h70l-16 -69h-68zM309 274
l16 69h68l-15 -69h-69zM381 183l15 68h68l-14 -68h-69zM146 366l14 68h69l-15 -68h-68zM218 274l15 69h69l-16 -69h-68zM361 91l16 68h69l-15 -68h-70zM126 274l16 69h68l-15 -69h-69zM270 91l16 68h68l-15 -68h-69zM178 91l16 68h69l-15 -68h-70zM251 0l15 68h68l-14 -68
h-69zM87 91l16 68h68l-15 -68h-69zM160 0l14 68h68l-13 -68h-69z" />
    <glyph glyph-name="percent" unicode="%" 
d="M478 640l15 69h69l-15 -69h-69zM460 549l14 68h70l-16 -68h-68zM295 640l15 69h69l-15 -69h-69zM204 640l15 69h68l-15 -69h-68zM277 549l14 68h70l-16 -68h-68zM348 457l14 69h70l-16 -69h-68zM185 549l15 68h69l-15 -68h-69zM329 366l14 68h69l-15 -68h-68zM218 274
l15 69h69l-16 -69h-68zM361 91l16 68h69l-15 -68h-70zM198 183l15 68h68l-14 -68h-69zM270 91l16 68h68l-15 -68h-69zM343 0l14 68h69l-14 -68h-69zM251 0l15 68h68l-14 -68h-69zM87 91l16 68h68l-15 -68h-69zM68 0l15 68h68l-14 -68h-69z" />
    <glyph glyph-name="ampersand" unicode="&#x26;" 
d="M387 640l15 69h69l-16 -69h-68zM295 640l15 69h69l-15 -69h-69zM368 549l15 68h69l-15 -68h-69zM204 640l15 69h68l-15 -69h-68zM348 457l14 69h70l-16 -69h-68zM185 549l15 68h69l-15 -68h-69zM329 366l14 68h69l-15 -68h-68zM165 457l14 69h70l-16 -69h-68zM309 274
l16 69h68l-15 -69h-69zM381 183l15 68h68l-14 -68h-69zM146 366l14 68h69l-15 -68h-68zM290 183l14 68h69l-15 -68h-68zM361 91l16 68h69l-15 -68h-70zM126 274l16 69h68l-15 -69h-69zM198 183l15 68h68l-14 -68h-69zM343 0l14 68h69l-14 -68h-69zM107 183l14 68h69l-15 -68
h-68zM251 0l15 68h68l-14 -68h-69zM87 91l16 68h68l-15 -68h-69zM160 0l14 68h68l-13 -68h-69zM68 0l15 68h68l-14 -68h-69z" />
    <glyph glyph-name="quotesingle" unicode="'" horiz-adv-x="206" 
d="M204 640l15 69h68l-15 -69h-68zM185 549l15 68h69l-15 -68h-69z" />
    <glyph glyph-name="parenleft" unicode="(" horiz-adv-x="297" 
d="M295 640l15 69h69l-15 -69h-69zM185 549l15 68h69l-15 -68h-69zM165 457l14 69h70l-16 -69h-68zM146 366l14 68h69l-15 -68h-68zM126 274l16 69h68l-15 -69h-69zM107 183l14 68h69l-15 -68h-68zM87 91l16 68h68l-15 -68h-69zM160 0l14 68h68l-13 -68h-69z" />
    <glyph glyph-name="parenright" unicode=")" horiz-adv-x="298" 
d="M204 640l15 69h68l-15 -69h-68zM277 549l14 68h70l-16 -68h-68zM257 457l14 69h69l-15 -69h-68zM237 366l15 68h68l-14 -68h-69zM218 274l15 69h69l-16 -69h-68zM198 183l15 68h68l-14 -68h-69zM178 91l16 68h69l-15 -68h-70zM68 0l15 68h68l-14 -68h-69z" />
    <glyph glyph-name="asterisk" unicode="*" horiz-adv-x="389" 
d="M348 457l14 69h70l-16 -69h-68zM165 457l14 69h70l-16 -69h-68zM237 366l15 68h68l-14 -68h-69zM309 274l16 69h68l-15 -69h-69zM126 274l16 69h68l-15 -69h-69z" />
    <glyph glyph-name="plus" unicode="+" horiz-adv-x="389" 
d="M237 366l15 68h68l-14 -68h-69zM309 274l16 69h68l-15 -69h-69zM218 274l15 69h69l-16 -69h-68zM126 274l16 69h68l-15 -69h-69zM198 183l15 68h68l-14 -68h-69z" />
    <glyph glyph-name="comma" unicode="," horiz-adv-x="298" 
d="M218 274l15 69h69l-16 -69h-68zM126 274l16 69h68l-15 -69h-69zM198 183l15 68h68l-14 -68h-69zM107 183l14 68h69l-15 -68h-68zM178 91l16 68h69l-15 -68h-70zM160 0l14 68h68l-13 -68h-69zM68 0l15 68h68l-14 -68h-69z" />
    <glyph glyph-name="hyphen" unicode="-" horiz-adv-x="298" 
d="M218 274l15 69h69l-16 -69h-68zM126 274l16 69h68l-15 -69h-69z" />
    <glyph glyph-name="period" unicode="." horiz-adv-x="298" 
d="M178 91l16 68h69l-15 -68h-70zM87 91l16 68h68l-15 -68h-69zM160 0l14 68h68l-13 -68h-69zM68 0l15 68h68l-14 -68h-69z" />
    <glyph glyph-name="slash" unicode="/" 
d="M478 640l15 69h69l-15 -69h-69zM460 549l14 68h70l-16 -68h-68zM348 457l14 69h70l-16 -69h-68zM329 366l14 68h69l-15 -68h-68zM218 274l15 69h69l-16 -69h-68zM198 183l15 68h68l-14 -68h-69zM87 91l16 68h68l-15 -68h-69zM68 0l15 68h68l-14 -68h-69z" />
    <glyph glyph-name="zero" unicode="0" 
d="M478 640l15 69h69l-15 -69h-69zM387 640l15 69h69l-16 -69h-68zM460 549l14 68h70l-16 -68h-68zM295 640l15 69h69l-15 -69h-69zM440 457l14 69h69l-15 -69h-68zM204 640l15 69h68l-15 -69h-68zM420 366l15 68h68l-14 -68h-69zM185 549l15 68h69l-15 -68h-69zM401 274
l15 69h69l-16 -69h-68zM165 457l14 69h70l-16 -69h-68zM381 183l15 68h68l-14 -68h-69zM146 366l14 68h69l-15 -68h-68zM361 91l16 68h69l-15 -68h-70zM126 274l16 69h68l-15 -69h-69zM343 0l14 68h69l-14 -68h-69zM107 183l14 68h69l-15 -68h-68zM251 0l15 68h68l-14 -68
h-69zM87 91l16 68h68l-15 -68h-69zM160 0l14 68h68l-13 -68h-69zM68 0l15 68h68l-14 -68h-69z" />
    <glyph glyph-name="one" unicode="1" horiz-adv-x="298" 
d="M295 640l15 69h69l-15 -69h-69zM204 640l15 69h68l-15 -69h-68zM277 549l14 68h70l-16 -68h-68zM257 457l14 69h69l-15 -69h-68zM237 366l15 68h68l-14 -68h-69zM218 274l15 69h69l-16 -69h-68zM198 183l15 68h68l-14 -68h-69zM178 91l16 68h69l-15 -68h-70zM160 0l14 68
h68l-13 -68h-69z" />
    <glyph glyph-name="two" unicode="2" 
d="M478 640l15 69h69l-15 -69h-69zM387 640l15 69h69l-16 -69h-68zM460 549l14 68h70l-16 -68h-68zM295 640l15 69h69l-15 -69h-69zM440 457l14 69h69l-15 -69h-68zM204 640l15 69h68l-15 -69h-68zM420 366l15 68h68l-14 -68h-69zM401 274l15 69h69l-16 -69h-68zM381 183
l15 68h68l-14 -68h-69zM290 183l14 68h69l-15 -68h-68zM198 183l15 68h68l-14 -68h-69zM343 0l14 68h69l-14 -68h-69zM107 183l14 68h69l-15 -68h-68zM251 0l15 68h68l-14 -68h-69zM87 91l16 68h68l-15 -68h-69zM160 0l14 68h68l-13 -68h-69zM68 0l15 68h68l-14 -68h-69z
" />
    <glyph glyph-name="three" unicode="3" 
d="M478 640l15 69h69l-15 -69h-69zM387 640l15 69h69l-16 -69h-68zM460 549l14 68h70l-16 -68h-68zM295 640l15 69h69l-15 -69h-69zM440 457l14 69h69l-15 -69h-68zM204 640l15 69h68l-15 -69h-68zM420 366l15 68h68l-14 -68h-69zM401 274l15 69h69l-16 -69h-68zM381 183
l15 68h68l-14 -68h-69zM290 183l14 68h69l-15 -68h-68zM361 91l16 68h69l-15 -68h-70zM198 183l15 68h68l-14 -68h-69zM343 0l14 68h69l-14 -68h-69zM107 183l14 68h69l-15 -68h-68zM251 0l15 68h68l-14 -68h-69zM160 0l14 68h68l-13 -68h-69zM68 0l15 68h68l-14 -68h-69z
" />
    <glyph glyph-name="four" unicode="4" horiz-adv-x="442" 
d="M387 640l15 69h69l-16 -69h-68zM368 549l15 68h69l-15 -68h-69zM204 640l15 69h68l-15 -69h-68zM348 457l14 69h70l-16 -69h-68zM185 549l15 68h69l-15 -68h-69zM329 366l14 68h69l-15 -68h-68zM165 457l14 69h70l-16 -69h-68zM309 274l16 69h68l-15 -69h-69zM146 366
l14 68h69l-15 -68h-68zM290 183l14 68h69l-15 -68h-68zM361 91l16 68h69l-15 -68h-70zM126 274l16 69h68l-15 -69h-69zM270 91l16 68h68l-15 -68h-69zM107 183l14 68h69l-15 -68h-68zM178 91l16 68h69l-15 -68h-70zM251 0l15 68h68l-14 -68h-69zM87 91l16 68h68l-15 -68h-69
z" />
    <glyph glyph-name="five" unicode="5" 
d="M478 640l15 69h69l-15 -69h-69zM387 640l15 69h69l-16 -69h-68zM295 640l15 69h69l-15 -69h-69zM204 640l15 69h68l-15 -69h-68zM185 549l15 68h69l-15 -68h-69zM165 457l14 69h70l-16 -69h-68zM381 183l15 68h68l-14 -68h-69zM146 366l14 68h69l-15 -68h-68zM290 183
l14 68h69l-15 -68h-68zM361 91l16 68h69l-15 -68h-70zM126 274l16 69h68l-15 -69h-69zM198 183l15 68h68l-14 -68h-69zM343 0l14 68h69l-14 -68h-69zM107 183l14 68h69l-15 -68h-68zM251 0l15 68h68l-14 -68h-69zM160 0l14 68h68l-13 -68h-69zM68 0l15 68h68l-14 -68h-69z
" />
    <glyph glyph-name="six" unicode="6" 
d="M478 640l15 69h69l-15 -69h-69zM387 640l15 69h69l-16 -69h-68zM295 640l15 69h69l-15 -69h-69zM204 640l15 69h68l-15 -69h-68zM185 549l15 68h69l-15 -68h-69zM165 457l14 69h70l-16 -69h-68zM381 183l15 68h68l-14 -68h-69zM146 366l14 68h69l-15 -68h-68zM290 183
l14 68h69l-15 -68h-68zM361 91l16 68h69l-15 -68h-70zM126 274l16 69h68l-15 -69h-69zM198 183l15 68h68l-14 -68h-69zM343 0l14 68h69l-14 -68h-69zM107 183l14 68h69l-15 -68h-68zM251 0l15 68h68l-14 -68h-69zM87 91l16 68h68l-15 -68h-69zM160 0l14 68h68l-13 -68h-69z
M68 0l15 68h68l-14 -68h-69z" />
    <glyph glyph-name="seven" unicode="7" horiz-adv-x="407" 
d="M353 640l15 69h69l-15 -69h-69zM261 640l16 69h68l-14 -69h-70zM334 549l16 68h68l-15 -68h-69zM170 640l15 69h68l-14 -69h-69zM314 457l15 69h69l-16 -69h-68zM386 366l16 68h68l-15 -68h-69zM295 366l15 68h68l-15 -68h-68zM203 366l16 68h68l-15 -68h-69zM275 274
l16 69h69l-16 -69h-69zM256 183l14 68h70l-16 -68h-68zM237 91l15 68h68l-15 -68h-68zM218 0l14 68h68l-13 -68h-69z" />
    <glyph glyph-name="eight" unicode="8" 
d="M478 640l15 69h69l-15 -69h-69zM387 640l15 69h69l-16 -69h-68zM460 549l14 68h70l-16 -68h-68zM295 640l15 69h69l-15 -69h-69zM440 457l14 69h69l-15 -69h-68zM204 640l15 69h68l-15 -69h-68zM420 366l15 68h68l-14 -68h-69zM185 549l15 68h69l-15 -68h-69zM401 274
l15 69h69l-16 -69h-68zM165 457l14 69h70l-16 -69h-68zM381 183l15 68h68l-14 -68h-69zM146 366l14 68h69l-15 -68h-68zM290 183l14 68h69l-15 -68h-68zM361 91l16 68h69l-15 -68h-70zM126 274l16 69h68l-15 -69h-69zM198 183l15 68h68l-14 -68h-69zM343 0l14 68h69l-14 -68
h-69zM107 183l14 68h69l-15 -68h-68zM251 0l15 68h68l-14 -68h-69zM87 91l16 68h68l-15 -68h-69zM160 0l14 68h68l-13 -68h-69zM68 0l15 68h68l-14 -68h-69z" />
    <glyph glyph-name="nine" unicode="9" 
d="M478 640l15 69h69l-15 -69h-69zM387 640l15 69h69l-16 -69h-68zM460 549l14 68h70l-16 -68h-68zM295 640l15 69h69l-15 -69h-69zM440 457l14 69h69l-15 -69h-68zM204 640l15 69h68l-15 -69h-68zM420 366l15 68h68l-14 -68h-69zM185 549l15 68h69l-15 -68h-69zM401 274
l15 69h69l-16 -69h-68zM165 457l14 69h70l-16 -69h-68zM381 183l15 68h68l-14 -68h-69zM146 366l14 68h69l-15 -68h-68zM290 183l14 68h69l-15 -68h-68zM361 91l16 68h69l-15 -68h-70zM126 274l16 69h68l-15 -69h-69zM198 183l15 68h68l-14 -68h-69zM343 0l14 68h69l-14 -68
h-69zM107 183l14 68h69l-15 -68h-68zM251 0l15 68h68l-14 -68h-69zM160 0l14 68h68l-13 -68h-69zM68 0l15 68h68l-14 -68h-69z" />
    <glyph glyph-name="colon" unicode=":" horiz-adv-x="298" 
d="M237 366l15 68h68l-14 -68h-69zM146 366l14 68h69l-15 -68h-68zM218 274l15 69h69l-16 -69h-68zM126 274l16 69h68l-15 -69h-69zM178 91l18 68h67l-15 -68h-70zM87 91l16 68h68l-15 -68h-69zM160 0l14 68h68l-13 -68h-69zM68 0l15 68h68l-14 -68h-69z" />
    <glyph glyph-name="semicolon" unicode=";" horiz-adv-x="298" 
d="M277 549l14 68h70l-16 -68h-68zM185 549l15 68h69l-15 -68h-69zM257 457l14 69h69l-15 -69h-68zM165 457l14 69h70l-16 -69h-68zM218 274l16 69h68l-16 -69h-68zM126 274l16 69h68l-15 -69h-69zM198 183l15 68h68l-14 -68h-69zM107 183l14 68h69l-15 -68h-68zM178 91
l16 68h69l-15 -68h-70zM160 0l14 68h68l-13 -68h-69zM68 0l15 68h68l-14 -68h-69z" />
    <glyph glyph-name="less" unicode="&#x3c;" 
d="M460 549l14 68h70l-16 -68h-68zM348 457l14 69h70l-16 -69h-68zM237 366l15 68h68l-14 -68h-69zM126 274l16 69h68l-15 -69h-69zM198 183l15 68h68l-14 -68h-69zM270 91l16 68h68l-15 -68h-69zM343 0l14 68h69l-14 -68h-69z" />
    <glyph glyph-name="equal" unicode="=" horiz-adv-x="480" 
d="M420 366l15 68h68l-14 -68h-69zM329 366l14 68h69l-15 -68h-68zM237 366l15 68h68l-14 -68h-69zM381 183l15 68h68l-14 -68h-69zM146 366l14 68h69l-15 -68h-68zM290 183l14 68h69l-15 -68h-68zM198 183l15 68h68l-14 -68h-69zM107 183l14 68h69l-15 -68h-68z" />
    <glyph glyph-name="greater" unicode="&#x3e;" 
d="M185 549l15 68h69l-15 -68h-69zM257 457l14 69h69l-15 -69h-68zM329 366l14 68h69l-15 -68h-68zM401 274l15 69h69l-16 -69h-68zM290 183l14 68h69l-15 -68h-68zM178 91l16 68h69l-15 -68h-70zM68 0l15 68h68l-14 -68h-69z" />
    <glyph glyph-name="question" unicode="?" 
d="M478 640l15 69h69l-15 -69h-69zM387 640l15 69h69l-16 -69h-68zM460 549l14 68h70l-16 -68h-68zM295 640l15 69h69l-15 -69h-69zM440 457l14 69h69l-15 -69h-68zM204 640l15 69h68l-15 -69h-68zM420 366l15 68h68l-14 -68h-69zM401 274l15 69h69l-16 -69h-68zM381 183
l15 68h68l-14 -68h-69zM290 183l14 68h69l-15 -68h-68zM198 183l15 68h68l-14 -68h-69zM107 183l14 68h69l-15 -68h-68zM68 0l15 68h68l-14 -68h-69z" />
    <glyph glyph-name="at" unicode="@" 
d="M478 640l15 69h69l-15 -69h-69zM387 640l15 69h69l-16 -69h-68zM460 549l14 68h70l-16 -68h-68zM295 640l15 69h69l-15 -69h-69zM440 457l14 69h69l-15 -69h-68zM204 640l15 69h68l-15 -69h-68zM348 457l14 69h70l-16 -69h-68zM420 366l15 68h68l-14 -68h-69zM186 551
l14 69h69l-15 -69h-68zM329 366l14 68h69l-15 -68h-68zM401 274l15 69h69l-16 -69h-68zM165 457l14 69h70l-16 -69h-68zM309 274l16 69h68l-15 -69h-69zM381 183l15 68h68l-14 -68h-69zM146 366l14 68h69l-15 -68h-68zM290 183l14 68h69l-15 -68h-68zM126 274l16 69h68
l-15 -69h-69zM343 0l14 68h69l-14 -68h-69zM107 183l14 68h69l-15 -68h-68zM251 0l15 68h68l-14 -68h-69zM87 91l16 68h68l-15 -68h-69zM160 0l14 68h68l-13 -68h-69zM68 0l15 68h68l-14 -68h-69z" />
    <glyph glyph-name="A" unicode="A" 
d="M478 640l15 69h69l-15 -69h-69zM387 640l15 69h69l-16 -69h-68zM460 549l14 68h70l-16 -68h-68zM295 640l15 69h69l-15 -69h-69zM440 457l14 69h69l-15 -69h-68zM204 640l15 69h68l-15 -69h-68zM420 366l15 68h68l-14 -68h-69zM185 549l15 68h69l-15 -68h-69zM401 274
l15 69h69l-16 -69h-68zM165 457l14 69h70l-16 -69h-68zM381 183l15 68h68l-14 -68h-69zM146 366l14 68h69l-15 -68h-68zM361 91l16 68h69l-15 -68h-70zM126 274l16 69h68l-15 -69h-69zM270 91l16 68h68l-15 -68h-69zM343 0l14 68h69l-14 -68h-69zM107 183l14 68h69l-15 -68
h-68zM178 91l16 68h69l-15 -68h-70zM87 91l16 68h68l-15 -68h-69zM68 0l15 68h68l-14 -68h-69z" />
    <glyph glyph-name="B" unicode="B" 
d="M478 640l15 69h69l-15 -69h-69zM387 640l15 69h69l-16 -69h-68zM460 549l14 68h70l-16 -68h-68zM295 640l15 69h69l-15 -69h-69zM440 457l14 69h69l-15 -69h-68zM204 640l15 69h68l-15 -69h-68zM348 457l14 69h70l-16 -69h-68zM185 549l15 68h69l-15 -68h-69zM257 457
l14 69h69l-15 -69h-68zM401 274l15 69h69l-16 -69h-68zM165 457l14 69h70l-16 -69h-68zM309 274l16 69h68l-15 -69h-69zM381 183l15 68h68l-14 -68h-69zM146 366l14 68h69l-15 -68h-68zM218 274l15 69h69l-16 -69h-68zM361 91l16 68h69l-15 -68h-70zM126 274l16 69h68
l-15 -69h-69zM343 0l14 68h69l-14 -68h-69zM107 183l14 68h69l-15 -68h-68zM251 0l15 68h68l-14 -68h-69zM87 91l16 68h68l-15 -68h-69zM160 0l14 68h68l-13 -68h-69zM68 0l15 68h68l-14 -68h-69z" />
    <glyph glyph-name="C" unicode="C" 
d="M478 640l15 69h69l-15 -69h-69zM387 640l15 69h69l-16 -69h-68zM295 640l15 69h69l-15 -69h-69zM204 640l15 69h68l-15 -69h-68zM185 549l15 68h69l-15 -68h-69zM165 457l14 69h70l-16 -69h-68zM146 366l14 68h69l-15 -68h-68zM126 274l16 69h68l-15 -69h-69zM343 0
l14 68h69l-14 -68h-69zM107 183l14 68h69l-15 -68h-68zM251 0l15 68h68l-14 -68h-69zM87 91l16 68h68l-15 -68h-69zM160 0l14 68h68l-13 -68h-69zM68 0l15 68h68l-14 -68h-69z" />
    <glyph glyph-name="D" unicode="D" 
d="M478 640l15 69h69l-15 -69h-69zM387 640l15 69h69l-16 -69h-68zM460 549l14 68h70l-16 -68h-68zM295 640l15 69h69l-15 -69h-69zM440 457l14 69h69l-15 -69h-68zM204 640l15 69h68l-15 -69h-68zM277 549l14 68h70l-16 -68h-68zM420 366l15 68h68l-14 -68h-69zM257 457
l14 69h69l-15 -69h-68zM401 274l15 69h69l-16 -69h-68zM237 366l15 68h68l-14 -68h-69zM381 183l15 68h68l-14 -68h-69zM218 274l15 69h69l-16 -69h-68zM361 91l16 68h69l-15 -68h-70zM198 183l15 68h68l-14 -68h-69zM343 0l14 68h69l-14 -68h-69zM178 91l16 68h69l-15 -68
h-70zM251 0l15 68h68l-14 -68h-69zM160 0l14 68h68l-13 -68h-69zM68 0l15 68h68l-14 -68h-69z" />
    <glyph glyph-name="E" unicode="E" 
d="M478 640l15 69h69l-15 -69h-69zM387 640l15 69h69l-16 -69h-68zM295 640l15 69h69l-15 -69h-69zM204 640l15 69h68l-15 -69h-68zM185 549l15 68h69l-15 -68h-69zM165 457l14 69h70l-16 -69h-68zM381 183l15 68h68l-14 -68h-69zM146 366l14 68h69l-15 -68h-68zM290 183
l14 68h69l-15 -68h-68zM126 274l16 69h68l-15 -69h-69zM198 183l15 68h68l-14 -68h-69zM343 0l14 68h69l-14 -68h-69zM107 183l14 68h69l-15 -68h-68zM251 0l15 68h68l-14 -68h-69zM87 91l16 68h68l-15 -68h-69zM160 0l14 68h68l-13 -68h-69zM68 0l15 68h68l-14 -68h-69z
" />
    <glyph glyph-name="F" unicode="F" horiz-adv-x="442" 
d="M478 640l15 69h69l-15 -69h-69zM387 640l15 69h69l-16 -69h-68zM295 640l15 69h69l-15 -69h-69zM440 457l14 69h69l-15 -69h-68zM204 640l15 69h68l-15 -69h-68zM348 457l14 69h70l-16 -69h-68zM185 549l15 68h69l-15 -68h-69zM257 457l14 69h69l-15 -69h-68zM165 457
l14 69h70l-16 -69h-68zM146 366l14 68h69l-15 -68h-68zM126 274l16 69h68l-15 -69h-69zM107 183l14 68h69l-15 -68h-68zM87 91l16 68h68l-15 -68h-69zM68 0l15 68h68l-14 -68h-69z" />
    <glyph glyph-name="G" unicode="G" 
d="M478 640l15 69h69l-15 -69h-69zM387 640l15 69h69l-16 -69h-68zM295 640l15 69h69l-15 -69h-69zM440 457l14 69h69l-15 -69h-68zM204 640l15 69h68l-15 -69h-68zM348 457l14 69h70l-16 -69h-68zM420 366l15 68h68l-14 -68h-69zM185 549l15 68h69l-15 -68h-69zM401 274
l15 69h69l-16 -69h-68zM165 457l14 69h70l-16 -69h-68zM381 183l15 68h68l-14 -68h-69zM146 366l14 68h69l-15 -68h-68zM361 91l16 68h69l-15 -68h-70zM126 274l16 69h68l-15 -69h-69zM343 0l14 68h69l-14 -68h-69zM107 183l14 68h69l-15 -68h-68zM251 0l15 68h68l-14 -68
h-69zM87 91l16 68h68l-15 -68h-69zM160 0l14 68h68l-13 -68h-69zM68 0l15 68h68l-14 -68h-69z" />
    <glyph glyph-name="H" unicode="H" 
d="M478 640l15 69h69l-15 -69h-69zM460 549l14 68h70l-16 -68h-68zM440 457l14 69h69l-15 -69h-68zM204 640l15 69h68l-15 -69h-68zM420 366l15 68h68l-14 -68h-69zM185 549l15 68h69l-15 -68h-69zM401 274l15 69h69l-16 -69h-68zM165 457l14 69h70l-16 -69h-68zM381 183
l15 68h68l-14 -68h-69zM146 366l14 68h69l-15 -68h-68zM361 91l16 68h69l-15 -68h-70zM126 274l16 69h68l-15 -69h-69zM270 91l16 68h68l-15 -68h-69zM343 0l14 68h69l-14 -68h-69zM107 183l14 68h69l-15 -68h-68zM178 91l16 68h69l-15 -68h-70zM87 91l16 68h68l-15 -68h-69
zM68 0l15 68h68l-14 -68h-69z" />
    <glyph glyph-name="I" unicode="I" horiz-adv-x="346" 
d="M363 640l15 69h69l-15 -69h-69zM271 640l16 69h68l-14 -69h-70zM180 640l15 69h68l-14 -69h-69zM253 549l15 68h69l-16 -68h-68zM233 457l15 69h68l-15 -69h-68zM213 366l16 68h68l-15 -68h-69zM194 274l15 69h70l-17 -69h-68zM174 183l15 68h69l-15 -68h-69zM155 91
l15 68h69l-15 -68h-69zM228 0l14 68h68l-13 -68h-69zM137 0l13 68h69l-14 -68h-68zM45 0l14 68h68l-13 -68h-69z" />
    <glyph glyph-name="J" unicode="J" horiz-adv-x="453" 
d="M451 640l15 69h68l-14 -69h-69zM432 549l15 68h69l-15 -68h-69zM412 457l15 69h68l-14 -69h-69zM392 366l16 68h68l-14 -68h-70zM373 274l16 69h69l-16 -69h-69zM354 183l15 68h68l-15 -68h-68zM334 91l16 68h69l-16 -68h-69zM316 0l14 68h69l-15 -68h-68zM224 0l15 68
h68l-14 -68h-69zM133 0l14 68h68l-14 -68h-68zM41 0l15 68h68l-14 -68h-69z" />
    <glyph glyph-name="K" unicode="K" 
d="M478 640l15 69h69l-15 -69h-69zM460 549l14 68h70l-16 -68h-68zM440 457l14 69h69l-15 -69h-68zM204 640l15 69h68l-15 -69h-68zM348 457l14 69h70l-16 -69h-68zM185 549l15 68h69l-15 -68h-69zM257 457l14 69h69l-15 -69h-68zM401 274l15 69h69l-16 -69h-68zM165 457
l14 69h70l-16 -69h-68zM309 274l16 69h68l-15 -69h-69zM381 183l15 68h68l-14 -68h-69zM146 366l14 68h69l-15 -68h-68zM218 274l15 69h69l-16 -69h-68zM361 91l16 68h69l-15 -68h-70zM126 274l16 69h68l-15 -69h-69zM343 0l14 68h69l-14 -68h-69zM107 183l14 68h69l-15 -68
h-68zM87 91l16 68h68l-15 -68h-69zM68 0l15 68h68l-14 -68h-69z" />
    <glyph glyph-name="L" unicode="L" horiz-adv-x="439" 
d="M204 640l15 69h68l-15 -69h-68zM185 549l15 68h69l-15 -68h-69zM165 457l14 69h70l-16 -69h-68zM146 366l14 68h69l-15 -68h-68zM126 274l16 69h68l-15 -69h-69zM343 0l14 68h69l-14 -68h-69zM107 183l14 68h69l-15 -68h-68zM251 0l15 68h68l-14 -68h-69zM87 91l16 68h68
l-15 -68h-69zM160 0l14 68h68l-13 -68h-69zM68 0l15 68h68l-14 -68h-69z" />
    <glyph glyph-name="M" unicode="M" horiz-adv-x="573" 
d="M478 640l15 69h69l-15 -69h-69zM387 640l15 69h69l-16 -69h-68zM295 640l15 69h69l-15 -69h-69zM368 549l15 68h69l-15 -68h-69zM204 640l15 69h68l-15 -69h-68zM348 457l14 69h70l-16 -69h-68zM185 549l15 68h69l-15 -68h-69zM329 366l14 68h69l-15 -68h-68zM165 457
l14 69h70l-16 -69h-68zM309 274l16 69h68l-15 -69h-69zM146 366l14 68h69l-15 -68h-68zM290 183l14 68h69l-15 -68h-68zM126 274l16 69h68l-15 -69h-69zM270 91l16 68h68l-15 -68h-69zM107 183l14 68h69l-15 -68h-68zM251 0l15 68h68l-14 -68h-69zM87 91l16 68h68l-15 -68
h-69zM68 0l15 68h68l-14 -68h-69zM571 640l14 69h70l-16 -69h-68zM553 549l14 68h69l-15 -68h-68zM532 457l13 69h70l-14 -69h-69zM513 366l14 68h69l-15 -68h-68zM493 274l16 69h68l-15 -69h-69zM473 183l16 68h68l-14 -68h-70zM454 91l15 68h68l-14 -68h-69zM436 0l14 68
h68l-14 -68h-68z" />
    <glyph glyph-name="N" unicode="N" 
d="M478 640l15 69h69l-15 -69h-69zM387 640l15 69h69l-16 -69h-68zM460 549l14 68h70l-16 -68h-68zM295 640l15 69h69l-15 -69h-69zM440 457l14 69h69l-15 -69h-68zM204 640l15 69h68l-15 -69h-68zM420 366l15 68h68l-14 -68h-69zM185 549l15 68h69l-15 -68h-69zM401 274
l15 69h69l-16 -69h-68zM165 457l14 69h70l-16 -69h-68zM381 183l15 68h68l-14 -68h-69zM146 366l14 68h69l-15 -68h-68zM361 91l16 68h69l-15 -68h-70zM126 274l16 69h68l-15 -69h-69zM343 0l14 68h69l-14 -68h-69zM107 183l14 68h69l-15 -68h-68zM87 91l16 68h68l-15 -68
h-69zM68 0l15 68h68l-14 -68h-69z" />
    <glyph glyph-name="O" unicode="O" 
d="M478 640l15 69h69l-15 -69h-69zM387 640l15 69h69l-16 -69h-68zM460 549l14 68h70l-16 -68h-68zM295 640l15 69h69l-15 -69h-69zM440 457l14 69h69l-15 -69h-68zM204 640l15 69h68l-15 -69h-68zM420 366l15 68h68l-14 -68h-69zM185 549l15 68h69l-15 -68h-69zM401 274
l15 69h69l-16 -69h-68zM165 457l14 69h70l-16 -69h-68zM381 183l15 68h68l-14 -68h-69zM146 366l14 68h69l-15 -68h-68zM361 91l16 68h69l-15 -68h-70zM126 274l16 69h68l-15 -69h-69zM343 0l14 68h69l-14 -68h-69zM107 183l14 68h69l-15 -68h-68zM251 0l15 68h68l-14 -68
h-69zM87 91l16 68h68l-15 -68h-69zM160 0l14 68h68l-13 -68h-69zM68 0l15 68h68l-14 -68h-69z" />
    <glyph glyph-name="P" unicode="P" horiz-adv-x="464" 
d="M478 640l15 69h69l-15 -69h-69zM387 640l15 69h69l-16 -69h-68zM460 549l14 68h70l-16 -68h-68zM295 640l15 69h69l-15 -69h-69zM440 457l14 69h69l-15 -69h-68zM204 640l15 69h68l-15 -69h-68zM420 366l15 68h68l-14 -68h-69zM185 549l15 68h69l-15 -68h-69zM401 274
l15 69h69l-16 -69h-68zM165 457l14 69h70l-16 -69h-68zM381 183l15 68h68l-14 -68h-69zM146 366l14 68h69l-15 -68h-68zM361 91l16 68h69l-15 -68h-70zM126 274l16 69h68l-15 -69h-69zM270 91l16 68h68l-15 -68h-69zM107 183l14 68h69l-15 -68h-68zM178 91l16 68h69l-15 -68
h-70zM87 91l16 68h68l-15 -68h-69zM68 0l15 68h68l-14 -68h-69z" />
    <glyph glyph-name="Q" unicode="Q" 
d="M478 640l15 69h69l-15 -69h-69zM387 640l15 69h69l-16 -69h-68zM460 549l14 68h70l-16 -68h-68zM295 640l15 69h69l-15 -69h-69zM440 457l14 69h69l-15 -69h-68zM204 640l15 69h68l-15 -69h-68zM420 366l15 68h68l-14 -68h-69zM185 549l15 68h69l-15 -68h-69zM401 274
l15 69h69l-16 -69h-68zM165 457l14 69h70l-16 -69h-68zM381 183l15 68h68l-14 -68h-69zM146 366l14 68h69l-15 -68h-68zM361 91l16 68h69l-15 -68h-70zM126 274l16 69h68l-15 -69h-69zM270 91l16 68h68l-15 -68h-69zM343 0l14 68h69l-14 -68h-69zM107 183l14 68h69l-15 -68
h-68zM178 91l16 68h69l-15 -68h-70zM87 91l16 68h68l-15 -68h-69z" />
    <glyph glyph-name="R" unicode="R" 
d="M478 640l15 69h69l-15 -69h-69zM387 640l15 69h69l-16 -69h-68zM460 549l14 68h70l-16 -68h-68zM295 640l15 69h69l-15 -69h-69zM440 457l14 69h69l-15 -69h-68zM204 640l15 69h68l-15 -69h-68zM348 457l14 69h70l-16 -69h-68zM185 549l15 68h69l-15 -68h-69zM257 457
l14 69h69l-15 -69h-68zM401 274l15 69h69l-16 -69h-68zM165 457l14 69h70l-16 -69h-68zM309 274l16 69h68l-15 -69h-69zM381 183l15 68h68l-14 -68h-69zM146 366l14 68h69l-15 -68h-68zM218 274l15 69h69l-16 -69h-68zM361 91l16 68h69l-15 -68h-70zM126 274l16 69h68
l-15 -69h-69zM343 0l14 68h69l-14 -68h-69zM107 183l14 68h69l-15 -68h-68zM87 91l16 68h68l-15 -68h-69zM68 0l15 68h68l-14 -68h-69z" />
    <glyph glyph-name="S" unicode="S" 
d="M478 640l15 69h69l-15 -69h-69zM387 640l15 69h69l-16 -69h-68zM295 640l15 69h69l-15 -69h-69zM204 640l15 69h68l-15 -69h-68zM185 549l15 68h69l-15 -68h-69zM165 457l14 69h70l-16 -69h-68zM381 183l15 68h68l-14 -68h-69zM146 366l14 68h69l-15 -68h-68zM290 183
l14 68h69l-15 -68h-68zM361 91l16 68h69l-15 -68h-70zM126 274l16 69h68l-15 -69h-69zM198 183l15 68h68l-14 -68h-69zM343 0l14 68h69l-14 -68h-69zM107 183l14 68h69l-15 -68h-68zM251 0l15 68h68l-14 -68h-69zM160 0l14 68h68l-13 -68h-69zM68 0l15 68h68l-14 -68h-69z
" />
    <glyph glyph-name="T" unicode="T" horiz-adv-x="327" 
d="M351 640l15 69h69l-15 -69h-69zM259 640l16 69h68l-14 -69h-70zM168 640l15 69h68l-14 -69h-69zM241 549l15 68h69l-15 -68h-69zM221 457l15 69h68l-14 -69h-69zM201 366l16 68h68l-15 -68h-69zM182 274l16 69h69l-17 -69h-68zM162 183l16 68h68l-15 -68h-69zM143 91
l15 68h70l-16 -68h-69zM125 0l13 68h69l-14 -68h-68z" />
    <glyph glyph-name="U" unicode="U" 
d="M478 640l15 69h69l-15 -69h-69zM460 549l14 68h70l-16 -68h-68zM440 457l14 69h69l-15 -69h-68zM204 640l15 69h68l-15 -69h-68zM420 366l15 68h68l-14 -68h-69zM185 549l15 68h69l-15 -68h-69zM401 274l15 69h69l-16 -69h-68zM165 457l14 69h70l-16 -69h-68zM381 183
l15 68h68l-14 -68h-69zM146 366l14 68h69l-15 -68h-68zM361 91l16 68h69l-15 -68h-70zM126 274l16 69h68l-15 -69h-69zM343 0l14 68h69l-14 -68h-69zM107 183l14 68h69l-15 -68h-68zM251 0l15 68h68l-14 -68h-69zM87 91l16 68h68l-15 -68h-69zM160 0l14 68h68l-13 -68h-69z
M68 0l15 68h68l-14 -68h-69z" />
    <glyph glyph-name="V" unicode="V" horiz-adv-x="463" 
d="M461 640l15 69h68l-14 -69h-69zM442 549l15 68h69l-15 -68h-69zM422 457l15 69h68l-14 -69h-69zM187 640l14 69h68l-14 -69h-68zM402 366l16 68h68l-14 -68h-70zM168 549l15 68h68l-14 -68h-69zM383 274l16 69h69l-16 -69h-69zM147 457l15 69h69l-15 -69h-69zM364 183
l15 68h68l-15 -68h-68zM128 366l15 68h68l-14 -68h-69zM344 91l16 68h69l-16 -68h-69zM108 274l17 69h68l-15 -69h-70zM180 183l16 68h68l-15 -68h-69zM253 91l16 68h68l-16 -68h-68zM326 0l14 68h69l-15 -68h-68z" />
    <glyph glyph-name="W" unicode="W" horiz-adv-x="573" 
d="M387 640l15 69h69l-16 -69h-68zM368 549l15 68h69l-15 -68h-69zM204 640l15 69h68l-15 -69h-68zM348 457l14 69h70l-16 -69h-68zM185 549l15 68h69l-15 -68h-69zM329 366l14 68h69l-15 -68h-68zM165 457l14 69h70l-16 -69h-68zM309 274l16 69h68l-15 -69h-69zM146 366
l14 68h69l-15 -68h-68zM290 183l14 68h69l-15 -68h-68zM126 274l16 69h68l-15 -69h-69zM270 91l16 68h68l-15 -68h-69zM343 0l14 68h69l-14 -68h-69zM107 183l14 68h69l-15 -68h-68zM251 0l15 68h68l-14 -68h-69zM87 91l16 68h68l-15 -68h-69zM160 0l14 68h68l-13 -68h-69z
M68 0l15 68h68l-14 -68h-69zM571 640l14 69h70l-16 -69h-68zM553 549l14 68h69l-15 -68h-68zM532 457l13 69h70l-14 -69h-69zM513 366l14 68h69l-15 -68h-68zM493 274l16 69h68l-15 -69h-69zM473 183l16 68h68l-14 -68h-70zM454 91l15 68h68l-14 -68h-69zM436 0l14 68h68
l-14 -68h-68z" />
    <glyph glyph-name="X" unicode="X" 
d="M478 640l15 69h69l-15 -69h-69zM460 549l14 68h70l-16 -68h-68zM440 457l14 69h69l-15 -69h-68zM204 640l15 69h68l-15 -69h-68zM185 549l15 68h69l-15 -68h-69zM329 366l14 68h69l-15 -68h-68zM401 274l15 69h69l-16 -69h-68zM165 457l14 69h70l-16 -69h-68zM237 366
l15 68h68l-14 -68h-69zM381 183l15 68h68l-14 -68h-69zM361 91l16 68h69l-15 -68h-70zM126 274l16 69h68l-15 -69h-69zM343 0l14 68h69l-14 -68h-69zM107 183l14 68h69l-15 -68h-68zM87 91l16 68h68l-15 -68h-69zM68 0l15 68h68l-14 -68h-69z" />
    <glyph glyph-name="Y" unicode="Y" 
d="M478 640l15 69h69l-15 -69h-69zM460 549l14 68h70l-16 -68h-68zM440 457l14 69h69l-15 -69h-68zM204 640l15 69h68l-15 -69h-68zM420 366l15 68h68l-14 -68h-69zM185 549l15 68h69l-15 -68h-69zM401 274l15 69h69l-16 -69h-68zM165 457l14 69h70l-16 -69h-68zM381 183
l15 68h68l-14 -68h-69zM146 366l14 68h69l-15 -68h-68zM290 183l14 68h69l-15 -68h-68zM361 91l16 68h69l-15 -68h-70zM126 274l16 69h68l-15 -69h-69zM198 183l15 68h68l-14 -68h-69zM343 0l14 68h69l-14 -68h-69zM107 183l14 68h69l-15 -68h-68zM251 0l15 68h68l-14 -68
h-69zM160 0l14 68h68l-13 -68h-69zM68 0l15 68h68l-14 -68h-69z" />
    <glyph glyph-name="Z" unicode="Z" 
d="M478 640l15 69h69l-15 -69h-69zM387 640l15 69h69l-16 -69h-68zM460 549l14 68h70l-16 -68h-68zM295 640l15 69h69l-15 -69h-69zM440 457l14 69h69l-15 -69h-68zM204 640l15 69h68l-15 -69h-68zM420 366l15 68h68l-14 -68h-69zM401 274l15 69h69l-16 -69h-68zM381 183
l15 68h68l-14 -68h-69zM290 183l14 68h69l-15 -68h-68zM198 183l15 68h68l-14 -68h-69zM343 0l14 68h69l-14 -68h-69zM107 183l14 68h69l-15 -68h-68zM251 0l15 68h68l-14 -68h-69zM87 91l16 68h68l-15 -68h-69zM160 0l14 68h68l-13 -68h-69zM68 0l15 68h68l-14 -68h-69z
" />
    <glyph glyph-name="bracketleft" unicode="[" horiz-adv-x="297" 
d="M295 640l15 69h69l-15 -69h-69zM204 640l15 69h68l-15 -69h-68zM185 549l15 68h69l-15 -68h-69zM165 457l14 69h70l-16 -69h-68zM146 366l14 68h69l-15 -68h-68zM126 274l16 69h68l-15 -69h-69zM107 183l14 68h69l-15 -68h-68zM87 91l16 68h68l-15 -68h-69zM160 0l14 68
h68l-13 -68h-69zM68 0l15 68h68l-14 -68h-69z" />
    <glyph glyph-name="backslash" unicode="\" 
d="M204 640l15 69h68l-15 -69h-68zM277 549l14 68h70l-16 -68h-68zM257 457l14 69h69l-15 -69h-68zM237 366l15 68h68l-14 -68h-69zM309 274l16 69h68l-15 -69h-69zM290 183l14 68h69l-15 -68h-68zM270 91l16 68h68l-15 -68h-69zM343 0l14 68h69l-14 -68h-69z" />
    <glyph glyph-name="bracketright" unicode="]" horiz-adv-x="298" 
d="M295 640l15 69h69l-15 -69h-69zM204 640l15 69h68l-15 -69h-68zM277 549l14 68h70l-16 -68h-68zM257 457l14 69h69l-15 -69h-68zM237 366l15 68h68l-14 -68h-69zM218 274l15 69h69l-16 -69h-68zM198 183l15 68h68l-14 -68h-69zM178 91l16 68h69l-15 -68h-70zM160 0l14 68
h68l-13 -68h-69zM68 0l15 68h68l-14 -68h-69z" />
    <glyph glyph-name="asciicircum" unicode="^" horiz-adv-x="389" 
d="M295 640l15 69h69l-15 -69h-69zM368 549l15 68h69l-15 -68h-69zM185 549l15 68h69l-15 -68h-69z" />
    <glyph glyph-name="underscore" unicode="_" horiz-adv-x="388" 
d="M259 -172l14 68h69l-15 -68h-68zM167 -172l15 68h68l-14 -68h-69zM76 -172l14 68h68l-14 -68h-68zM-15 -172l15 68h67l-14 -68h-68z" />
    <glyph glyph-name="grave" unicode="`" horiz-adv-x="296" 
d="M208 663l16 69h67l-14 -69h-69zM280 572l15 68h68l-14 -68h-69z" />
    <glyph glyph-name="a" unicode="a" 
d="M440 457l14 69h69l-15 -69h-68zM348 457l14 69h70l-16 -69h-68zM420 366l15 68h68l-14 -68h-69zM257 457l14 69h69l-15 -69h-68zM401 274l15 69h69l-16 -69h-68zM165 457l14 69h70l-16 -69h-68zM381 183l15 68h68l-14 -68h-69zM290 183l14 68h69l-15 -68h-68zM361 91
l16 68h69l-15 -68h-70zM198 183l15 68h68l-14 -68h-69zM343 0l14 68h69l-14 -68h-69zM107 183l14 68h69l-15 -68h-68zM251 0l15 68h68l-14 -68h-69zM87 91l16 68h68l-15 -68h-69zM160 0l14 68h68l-13 -68h-69zM68 0l15 68h68l-14 -68h-69z" />
    <glyph glyph-name="b" unicode="b" 
d="M440 457l14 69h69l-15 -69h-68zM204 640l15 69h68l-15 -69h-68zM348 457l14 69h70l-16 -69h-68zM420 366l15 68h68l-14 -68h-69zM185 549l15 68h69l-15 -68h-69zM257 457l14 69h69l-15 -69h-68zM401 274l15 69h69l-16 -69h-68zM165 457l14 69h70l-16 -69h-68zM381 183
l15 68h68l-14 -68h-69zM146 366l14 68h69l-15 -68h-68zM361 91l16 68h69l-15 -68h-70zM126 274l16 69h68l-15 -69h-69zM343 0l14 68h69l-14 -68h-69zM107 183l14 68h69l-15 -68h-68zM251 0l15 68h68l-14 -68h-69zM87 91l16 68h68l-15 -68h-69zM160 0l14 68h68l-13 -68h-69z
M68 0l15 68h68l-14 -68h-69z" />
    <glyph glyph-name="c" unicode="c" 
d="M440 457l14 69h69l-15 -69h-68zM348 457l14 69h70l-16 -69h-68zM257 457l14 69h69l-15 -69h-68zM165 457l14 69h70l-16 -69h-68zM146 366l14 68h69l-15 -68h-68zM126 274l16 69h68l-15 -69h-69zM343 0l14 68h69l-14 -68h-69zM107 183l14 68h69l-15 -68h-68zM251 0l15 68
h68l-14 -68h-69zM87 91l16 68h68l-15 -68h-69zM160 0l14 68h68l-13 -68h-69zM68 0l15 68h68l-14 -68h-69z" />
    <glyph glyph-name="d" unicode="d" 
d="M478 640l15 69h69l-15 -69h-69zM460 549l14 68h70l-16 -68h-68zM440 457l14 69h69l-15 -69h-68zM348 457l14 69h70l-16 -69h-68zM420 366l15 68h68l-14 -68h-69zM257 457l14 69h69l-15 -69h-68zM401 274l15 69h69l-16 -69h-68zM165 457l14 69h70l-16 -69h-68zM381 183
l15 68h68l-14 -68h-69zM146 366l14 68h69l-15 -68h-68zM361 91l16 68h69l-15 -68h-70zM126 274l16 69h68l-15 -69h-69zM343 0l14 68h69l-14 -68h-69zM107 183l14 68h69l-15 -68h-68zM251 0l15 68h68l-14 -68h-69zM87 91l16 68h68l-15 -68h-69zM160 0l14 68h68l-13 -68h-69z
M68 0l15 68h68l-14 -68h-69z" />
    <glyph glyph-name="e" unicode="e" 
d="M440 457l14 69h69l-15 -69h-68zM348 457l14 69h70l-16 -69h-68zM420 366l15 68h68l-14 -68h-69zM257 457l14 69h69l-15 -69h-68zM401 274l15 69h69l-16 -69h-68zM165 457l14 69h70l-16 -69h-68zM381 183l15 68h68l-14 -68h-69zM146 366l14 68h69l-15 -68h-68zM290 183
l14 68h69l-15 -68h-68zM126 274l16 69h68l-15 -69h-69zM198 183l15 68h68l-14 -68h-69zM343 0l14 68h69l-14 -68h-69zM107 183l14 68h69l-15 -68h-68zM251 0l15 68h68l-14 -68h-69zM87 91l16 68h68l-15 -68h-69zM160 0l14 68h68l-13 -68h-69zM68 0l15 68h68l-14 -68h-69z
" />
    <glyph glyph-name="f" unicode="f" horiz-adv-x="442" 
d="M478 640l15 69h69l-15 -69h-69zM387 640l15 69h69l-16 -69h-68zM295 640l15 69h69l-15 -69h-69zM440 457l14 69h69l-15 -69h-68zM204 640l15 69h68l-15 -69h-68zM348 457l14 69h70l-16 -69h-68zM185 549l15 68h69l-15 -68h-69zM257 457l14 69h69l-15 -69h-68zM165 457
l14 69h70l-16 -69h-68zM146 366l14 68h69l-15 -68h-68zM126 274l16 69h68l-15 -69h-69zM107 183l14 68h69l-15 -68h-68zM87 91l16 68h68l-15 -68h-69zM68 0l15 68h68l-14 -68h-69z" />
    <glyph glyph-name="g" unicode="g" 
d="M440 457l14 69h69l-15 -69h-68zM348 457l14 69h70l-16 -69h-68zM420 366l15 68h68l-14 -68h-69zM257 457l14 69h69l-15 -69h-68zM401 274l15 69h69l-16 -69h-68zM165 457l14 69h70l-16 -69h-68zM381 183l15 68h68l-14 -68h-69zM146 366l14 68h69l-15 -68h-68zM290 183
l14 68h69l-15 -68h-68zM361 91l16 68h69l-15 -68h-70zM126 274l16 69h68l-15 -69h-69zM198 183l15 68h68l-14 -68h-69zM343 0l14 68h69l-14 -68h-69zM107 183l14 68h69l-15 -68h-68zM251 0l15 68h68l-14 -68h-69zM160 0l14 68h68l-13 -68h-69zM68 0l15 68h68l-14 -68h-69z
" />
    <glyph glyph-name="h" unicode="h" 
d="M440 457l14 69h69l-15 -69h-68zM204 640l15 69h68l-15 -69h-68zM348 457l14 69h70l-16 -69h-68zM420 366l15 68h68l-14 -68h-69zM185 549l15 68h69l-15 -68h-69zM257 457l14 69h69l-15 -69h-68zM401 274l15 69h69l-16 -69h-68zM165 457l14 69h70l-16 -69h-68zM381 183
l15 68h68l-14 -68h-69zM146 366l14 68h69l-15 -68h-68zM361 91l16 68h69l-15 -68h-70zM126 274l16 69h68l-15 -69h-69zM343 0l14 68h69l-14 -68h-69zM107 183l14 68h69l-15 -68h-68zM87 91l16 68h68l-15 -68h-69zM68 0l15 68h68l-14 -68h-69z" />
    <glyph glyph-name="i" unicode="i" horiz-adv-x="264" 
d="M261 640l16 69h68l-14 -69h-70zM223 457l15 69h68l-15 -69h-68zM131 457l15 69h69l-16 -69h-68zM203 366l16 68h68l-15 -68h-69zM184 274l15 69h70l-17 -69h-68zM164 183l15 68h69l-15 -68h-69zM145 91l15 68h69l-15 -68h-69zM127 0l13 68h68l-13 -68h-68z" />
    <glyph glyph-name="j" unicode="j" horiz-adv-x="260" 
d="M258 640l15 69h68l-14 -69h-69zM219 457l15 69h68l-14 -69h-69zM199 366l16 68h68l-14 -68h-70zM180 274l16 69h69l-16 -69h-69zM160 183l16 68h68l-15 -68h-69zM141 91l16 68h69l-16 -68h-69zM123 0l14 68h68l-14 -68h-68zM31 0l15 68h68l-14 -68h-69z" />
    <glyph glyph-name="k" unicode="k" horiz-adv-x="482" 
d="M440 457l15 69h69l-15 -69h-69zM205 640l14 69h69l-15 -69h-68zM421 366l14 68h69l-15 -68h-68zM186 549l15 68h68l-14 -68h-69zM330 366l14 68h68l-14 -68h-68zM166 457l14 69h69l-15 -69h-68zM238 366l14 68h69l-15 -68h-68zM381 183l16 68h68l-14 -68h-70zM146 366
l15 68h68l-14 -68h-69zM290 183l15 68h69l-15 -68h-69zM362 91l16 68h69l-16 -68h-69zM127 274l15 69h69l-15 -69h-69zM198 183l16 68h68l-14 -68h-70zM344 0l14 68h68l-14 -68h-68zM107 183l15 68h68l-14 -68h-69zM87 91l17 68h68l-15 -68h-70zM69 0l14 68h69l-15 -68h-68z
" />
    <glyph glyph-name="l" unicode="l" horiz-adv-x="206" 
d="M204 640l15 69h68l-15 -69h-68zM185 549l15 68h69l-15 -68h-69zM165 457l14 69h70l-16 -69h-68zM146 366l14 68h69l-15 -68h-68zM126 274l16 69h68l-15 -69h-69zM107 183l14 68h69l-15 -68h-68zM87 91l16 68h68l-15 -68h-69zM68 0l15 68h68l-14 -68h-69z" />
    <glyph glyph-name="m" unicode="m" horiz-adv-x="573" 
d="M440 457l14 69h69l-15 -69h-68zM348 457l14 69h70l-16 -69h-68zM257 457l14 69h69l-15 -69h-68zM329 366l14 68h69l-15 -68h-68zM165 457l14 69h70l-16 -69h-68zM309 274l16 69h68l-15 -69h-69zM146 366l14 68h69l-15 -68h-68zM290 183l14 68h69l-15 -68h-68zM126 274
l16 69h68l-15 -69h-69zM270 91l16 68h68l-15 -68h-69zM107 183l14 68h69l-15 -68h-68zM251 0l15 68h68l-14 -68h-69zM87 91l16 68h68l-15 -68h-69zM68 0l15 68h68l-14 -68h-69zM532 457l13 69h70l-14 -69h-69zM513 366l14 68h69l-15 -68h-68zM493 274l16 69h68l-15 -69h-69z
M473 183l16 68h68l-14 -68h-70zM454 91l15 68h68l-14 -68h-69zM436 0l14 68h68l-14 -68h-68z" />
    <glyph glyph-name="n" unicode="n" 
d="M440 457l14 69h69l-15 -69h-68zM348 457l14 69h70l-16 -69h-68zM420 366l15 68h68l-14 -68h-69zM257 457l14 69h69l-15 -69h-68zM401 274l15 69h69l-16 -69h-68zM165 457l14 69h70l-16 -69h-68zM381 183l15 68h68l-14 -68h-69zM146 366l14 68h69l-15 -68h-68zM361 91
l16 68h69l-15 -68h-70zM126 274l16 69h68l-15 -69h-69zM343 0l14 68h69l-14 -68h-69zM107 183l14 68h69l-15 -68h-68zM87 91l16 68h68l-15 -68h-69zM68 0l15 68h68l-14 -68h-69z" />
    <glyph glyph-name="o" unicode="o" 
d="M440 457l14 69h69l-15 -69h-68zM348 457l14 69h70l-16 -69h-68zM420 366l15 68h68l-14 -68h-69zM257 457l14 69h69l-15 -69h-68zM401 274l15 69h69l-16 -69h-68zM165 457l14 69h70l-16 -69h-68zM381 183l15 68h68l-14 -68h-69zM146 366l14 68h69l-15 -68h-68zM361 91
l16 68h69l-15 -68h-70zM126 274l16 69h68l-15 -69h-69zM343 0l14 68h69l-14 -68h-69zM107 183l14 68h69l-15 -68h-68zM251 0l15 68h68l-14 -68h-69zM87 91l16 68h68l-15 -68h-69zM160 0l14 68h68l-13 -68h-69zM68 0l15 68h68l-14 -68h-69z" />
    <glyph glyph-name="p" unicode="p" 
d="M440 457l14 69h69l-15 -69h-68zM348 457l14 69h70l-16 -69h-68zM420 366l15 68h68l-14 -68h-69zM257 457l14 69h69l-15 -69h-68zM401 274l15 69h69l-16 -69h-68zM165 457l14 69h70l-16 -69h-68zM381 183l15 68h68l-14 -68h-69zM146 366l14 68h69l-15 -68h-68zM361 91
l16 68h69l-15 -68h-70zM126 274l16 69h68l-15 -69h-69zM270 91l16 68h68l-15 -68h-69zM107 183l14 68h69l-15 -68h-68zM178 91l16 68h69l-15 -68h-70zM87 91l16 68h68l-15 -68h-69zM68 0l15 68h68l-14 -68h-69z" />
    <glyph glyph-name="q" unicode="q" 
d="M440 457l14 69h69l-15 -69h-68zM348 457l14 69h70l-16 -69h-68zM420 366l15 68h68l-14 -68h-69zM257 457l14 69h69l-15 -69h-68zM401 274l15 69h69l-16 -69h-68zM165 457l14 69h70l-16 -69h-68zM381 183l15 68h68l-14 -68h-69zM146 366l14 68h69l-15 -68h-68zM361 91
l16 68h69l-15 -68h-70zM126 274l16 69h68l-15 -69h-69zM270 91l16 68h68l-15 -68h-69zM343 0l14 68h69l-14 -68h-69zM107 183l14 68h69l-15 -68h-68zM178 91l16 68h69l-15 -68h-70zM87 91l16 68h68l-15 -68h-69z" />
    <glyph glyph-name="r" unicode="r" horiz-adv-x="456" 
d="M440 457l14 69h69l-15 -69h-68zM348 457l14 69h70l-16 -69h-68zM257 457l14 69h69l-15 -69h-68zM165 457l14 69h70l-16 -69h-68zM146 366l14 68h69l-15 -68h-68zM126 274l16 69h68l-15 -69h-69zM107 183l14 68h69l-15 -68h-68zM87 91l16 68h68l-15 -68h-69zM68 0l15 68
h68l-14 -68h-69z" />
    <glyph glyph-name="s" unicode="s" 
d="M440 457l14 69h69l-15 -69h-68zM348 457l14 69h70l-16 -69h-68zM257 457l14 69h69l-15 -69h-68zM165 457l14 69h70l-16 -69h-68zM381 183l15 68h68l-14 -68h-69zM146 366l14 68h69l-15 -68h-68zM290 183l14 68h69l-15 -68h-68zM361 91l16 68h69l-15 -68h-70zM126 274
l16 69h68l-15 -69h-69zM198 183l15 68h68l-14 -68h-69zM343 0l14 68h69l-14 -68h-69zM107 183l14 68h69l-15 -68h-68zM251 0l15 68h68l-14 -68h-69zM160 0l14 68h68l-13 -68h-69zM68 0l15 68h68l-14 -68h-69z" />
    <glyph glyph-name="t" unicode="t" horiz-adv-x="421" 
d="M263 640l16 69h68l-15 -69h-69zM408 457l14 69h69l-15 -69h-68zM245 549l14 68h70l-16 -68h-68zM316 457l15 69h69l-16 -69h-68zM225 457l14 69h69l-15 -69h-68zM133 457l14 69h70l-16 -69h-68zM205 366l15 68h69l-15 -68h-69zM186 274l15 69h69l-16 -69h-68zM166 183
l15 68h68l-14 -68h-69zM311 0l14 68h69l-14 -68h-69zM147 91l15 68h69l-15 -68h-69zM219 0l15 68h68l-13 -68h-70zM128 0l14 68h68l-13 -68h-69z" />
    <glyph glyph-name="u" unicode="u" 
d="M440 457l14 69h69l-15 -69h-68zM420 366l15 68h68l-14 -68h-69zM401 274l15 69h69l-16 -69h-68zM165 457l14 69h70l-16 -69h-68zM381 183l15 68h68l-14 -68h-69zM146 366l14 68h69l-15 -68h-68zM361 91l16 68h69l-15 -68h-70zM126 274l16 69h68l-15 -69h-69zM343 0l14 68
h69l-14 -68h-69zM107 183l14 68h69l-15 -68h-68zM251 0l15 68h68l-14 -68h-69zM87 91l16 68h68l-15 -68h-69zM160 0l14 68h68l-13 -68h-69zM68 0l15 68h68l-14 -68h-69z" />
    <glyph glyph-name="v" unicode="v" horiz-adv-x="465" 
d="M424 457l15 69h68l-14 -69h-69zM404 366l16 68h68l-15 -68h-69zM385 274l16 69h69l-17 -69h-68zM149 457l15 69h69l-15 -69h-69zM366 183l15 68h68l-15 -68h-68zM130 366l15 68h68l-15 -68h-68zM346 91l15 68h70l-16 -68h-69zM110 274l17 69h68l-16 -69h-69zM182 183
l16 68h68l-15 -68h-69zM255 91l15 68h69l-16 -68h-68zM328 0l13 68h70l-15 -68h-68z" />
    <glyph glyph-name="w" unicode="w" horiz-adv-x="573" 
d="M348 457l14 69h70l-16 -69h-68zM329 366l14 68h69l-15 -68h-68zM165 457l14 69h70l-16 -69h-68zM309 274l16 69h68l-15 -69h-69zM146 366l14 68h69l-15 -68h-68zM290 183l14 68h69l-15 -68h-68zM126 274l16 69h68l-15 -69h-69zM270 91l16 68h68l-15 -68h-69zM343 0l14 68
h69l-14 -68h-69zM107 183l14 68h69l-15 -68h-68zM251 0l15 68h68l-14 -68h-69zM87 91l16 68h68l-15 -68h-69zM160 0l14 68h68l-13 -68h-69zM68 0l15 68h68l-14 -68h-69zM532 457l13 69h70l-14 -69h-69zM513 366l14 68h69l-15 -68h-68zM493 274l16 69h68l-15 -69h-69z
M473 183l16 68h68l-14 -68h-70zM454 91l15 68h68l-14 -68h-69zM436 0l14 68h68l-14 -68h-68z" />
    <glyph glyph-name="x" unicode="x" 
d="M440 457l14 69h69l-15 -69h-68zM420 366l15 68h68l-14 -68h-69zM165 457l14 69h70l-16 -69h-68zM309 274l16 69h68l-15 -69h-69zM381 183l15 68h68l-14 -68h-69zM146 366l14 68h69l-15 -68h-68zM218 274l15 69h69l-16 -69h-68zM361 91l16 68h69l-15 -68h-70zM343 0l14 68
h69l-14 -68h-69zM107 183l14 68h69l-15 -68h-68zM87 91l16 68h68l-15 -68h-69zM68 0l15 68h68l-14 -68h-69z" />
    <glyph glyph-name="y" unicode="y" 
d="M440 457l14 69h69l-15 -69h-68zM420 366l15 68h68l-14 -68h-69zM401 274l15 69h69l-16 -69h-68zM165 457l14 69h70l-16 -69h-68zM381 183l15 68h68l-14 -68h-69zM146 366l14 68h69l-15 -68h-68zM290 183l14 68h69l-15 -68h-68zM361 91l16 68h69l-15 -68h-70zM126 274
l16 69h68l-15 -69h-69zM198 183l15 68h68l-14 -68h-69zM343 0l14 68h69l-14 -68h-69zM107 183l14 68h69l-15 -68h-68zM251 0l15 68h68l-14 -68h-69zM160 0l14 68h68l-13 -68h-69zM68 0l15 68h68l-14 -68h-69z" />
    <glyph glyph-name="z" unicode="z" 
d="M440 457l14 69h69l-15 -69h-68zM348 457l14 69h70l-16 -69h-68zM420 366l15 68h68l-14 -68h-69zM257 457l14 69h69l-15 -69h-68zM401 274l15 69h69l-16 -69h-68zM165 457l14 69h70l-16 -69h-68zM381 183l15 68h68l-14 -68h-69zM290 183l14 68h69l-15 -68h-68zM198 183
l15 68h68l-14 -68h-69zM343 0l14 68h69l-14 -68h-69zM107 183l14 68h69l-15 -68h-68zM251 0l15 68h68l-14 -68h-69zM87 91l16 68h68l-15 -68h-69zM160 0l14 68h68l-13 -68h-69zM68 0l15 68h68l-14 -68h-69z" />
    <glyph glyph-name="braceleft" unicode="{" horiz-adv-x="388" 
d="M386 640l16 69h68l-15 -69h-69zM276 549l15 68h69l-15 -68h-69zM256 457l14 69h70l-16 -69h-68zM146 366l14 68h69l-15 -68h-68zM126 274l16 69h68l-15 -69h-69zM198 183l14 68h69l-15 -68h-68zM178 91l16 68h68l-15 -68h-69zM251 0l14 68h68l-13 -68h-69z" />
    <glyph glyph-name="bar" unicode="|" horiz-adv-x="389" 
d="M295 640l15 69h69l-15 -69h-69zM277 549l14 68h70l-16 -68h-68zM257 457l14 69h69l-15 -69h-68zM237 366l15 68h68l-14 -68h-69zM218 274l15 69h69l-16 -69h-68zM198 183l15 68h68l-14 -68h-69zM178 91l16 68h69l-15 -68h-70zM160 0l14 68h68l-13 -68h-69zM314 732l17 69
h68l-16 -69h-69zM140 -91l15 68h68l-15 -68h-68z" />
    <glyph glyph-name="braceright" unicode="}" horiz-adv-x="388" 
d="M68 0l14 68h68l-13 -68h-69zM179 91l14 68h68l-13 -68h-69zM198 183l14 68h69l-14 -68h-69zM308 274l15 69h69l-15 -69h-69zM329 366l14 68h69l-15 -68h-68zM257 457l13 69h70l-15 -69h-68zM276 549l14 68h69l-14 -68h-69zM204 640l15 69h68l-14 -69h-69z" />
    <glyph glyph-name="asciitilde" unicode="~" horiz-adv-x="480" 
d="M420 365l15 69h68l-14 -69h-69zM237 365l15 69h68l-14 -69h-69zM309 274l15 68h68l-14 -68h-69zM126 274l15 68h68l-14 -68h-69z" />
    <glyph glyph-name="nonbreakingspace" unicode="&#xa0;" horiz-adv-x="225" 
 />
    <glyph glyph-name="exclamdown" unicode="&#xa1;" horiz-adv-x="206" 
d="M204 640l15 69h68l-15 -69h-68zM185 549l15 68h69l-15 -68h-69zM165 457l14 69h70l-16 -69h-68zM146 366l14 68h69l-15 -68h-68zM126 274l16 69h68l-15 -69h-69zM107 183l14 68h69l-15 -68h-68zM68 0l15 68h68l-14 -68h-69z" />
    <glyph glyph-name="cent" unicode="&#xa2;" 
d="M388 640l14 68h70l-16 -68h-68zM348 457l15 68h69l-15 -68h-69zM330 365l14 69h69l-15 -69h-68zM309 274l15 68h68l-14 -68h-69zM290 182l15 68h69l-15 -68h-69zM252 0l14 68h68l-14 -68h-68zM459 548l15 69h69l-16 -69h-68zM367 548l15 69h70l-17 -69h-68zM276 548
l15 69h69l-16 -69h-68zM184 548l15 69h70l-17 -69h-68zM165 457l14 68h69l-15 -68h-68zM146 365l15 69h68l-14 -69h-69zM362 91l15 68h69l-15 -68h-69zM126 274l14 68h69l-15 -68h-68zM270 91l16 68h68l-14 -68h-70zM107 182l15 68h68l-15 -68h-68zM179 91l15 68h68l-14 -68
h-69zM87 91l16 68h68l-14 -68h-70z" />
    <glyph glyph-name="yen" unicode="&#xa5;" horiz-adv-x="392" 
d="M389 640l15 69h69l-15 -69h-69zM371 549l14 68h69l-15 -68h-68zM351 457l14 69h68l-14 -69h-68zM206 640l14 69h69l-15 -69h-68zM187 549l15 68h68l-14 -68h-69zM167 457l14 69h69l-15 -69h-68zM239 366l15 68h68l-14 -68h-69zM292 183l15 68h68l-14 -68h-69zM107 183
l15 68h69l-15 -68h-69zM218 274l16 69h68l-15 -69h-69zM198 183l15 68h69l-15 -68h-69zM179 91l16 68h68l-15 -68h-69zM160 0l15 68h68l-14 -68h-69z" />
    <glyph glyph-name="brokenbar" unicode="&#xa6;" horiz-adv-x="389" 
d="M295 640l15 69h69l-15 -69h-69zM277 549l14 68h70l-16 -68h-68zM257 457l14 69h69l-15 -69h-68zM198 183l15 68h68l-14 -68h-69zM178 91l16 68h69l-15 -68h-70zM160 0l14 68h68l-13 -68h-69zM314 732l17 69h68l-16 -69h-69zM140 -91l15 68h68l-15 -68h-68z" />
    <glyph glyph-name="dieresis" unicode="&#xa8;" horiz-adv-x="479" 
d="M477 640l16 69h68l-15 -69h-69zM204 640l15 69h67l-15 -69h-67z" />
    <glyph glyph-name="ordfeminine" unicode="&#xaa;" 
d="M440 457l14 69h69l-15 -69h-68zM348 457l14 69h70l-16 -69h-68zM420 366l15 68h68l-14 -68h-69zM257 457l14 69h69l-15 -69h-68zM401 274l15 69h69l-16 -69h-68zM165 457l14 69h70l-16 -69h-68zM381 183l15 68h68l-14 -68h-69zM290 183l14 68h69l-15 -68h-68zM361 91
l16 68h69l-15 -68h-70zM198 183l15 68h68l-14 -68h-69zM343 0l14 68h69l-14 -68h-69zM107 183l14 68h69l-15 -68h-68zM251 0l15 68h68l-14 -68h-69zM87 91l16 68h68l-15 -68h-69zM160 0l14 68h68l-13 -68h-69zM68 0l15 68h68l-14 -68h-69z" />
    <glyph glyph-name="guillemotleft" unicode="&#xab;" horiz-adv-x="778" 
d="M348 457l14 69h70l-16 -69h-68zM237 366l15 68h68l-14 -68h-69zM126 274l16 69h68l-15 -69h-69zM198 183l15 68h68l-14 -68h-69zM270 91l16 68h68l-15 -68h-69zM737 457l14 69h70l-16 -69h-68zM626 366l15 68h68l-14 -68h-69zM515 274l16 69h68l-15 -69h-69zM587 183
l15 68h68l-14 -68h-69zM659 91l16 68h68l-15 -68h-69z" />
    <glyph glyph-name="macron" unicode="&#xaf;" horiz-adv-x="479" 
d="M373 583l15 69h68l-14 -69h-69zM465 583l16 69h68l-15 -69h-69zM281 583l15 69h69l-15 -69h-69zM192 583l15 69h68l-15 -69h-68z" />
    <glyph glyph-name="degree" unicode="&#xb0;" horiz-adv-x="479" 
d="M385 640l16 69h68l-15 -69h-69zM458 549l15 68h69l-15 -68h-69zM294 640l15 69h68l-15 -69h-68zM347 457l15 69h68l-15 -69h-68zM185 549l14 68h69l-16 -68h-67zM255 457l14 69h70l-16 -69h-68z" />
    <glyph glyph-name="plusminus" unicode="&#xb1;" horiz-adv-x="389" 
d="M237 366l15 68h68l-14 -68h-69zM309 274l16 69h68l-15 -69h-69zM218 274l15 69h69l-16 -69h-68zM126 274l16 69h68l-15 -69h-69zM198 183l15 68h68l-14 -68h-69zM253 1l16 69h68l-15 -69h-69zM162 1l15 69h69l-16 -69h-68zM70 1l16 69h68l-15 -69h-69z" />
    <glyph glyph-name="twosuperior" unicode="&#xb2;" horiz-adv-x="291" 
d="M113 317l32 146h147l42 199h-148l10 47h196l-62 -293h-148l-12 -52h148l-10 -47h-195z" />
    <glyph glyph-name="threesuperior" unicode="&#xb3;" horiz-adv-x="291" 
d="M114 317l10 47h146l12 52h-147l10 47h147l42 199h-148l10 47h196l-84 -392h-194z" />
    <glyph glyph-name="acute" unicode="&#xb4;" horiz-adv-x="297" 
d="M300 663l15 69h68l-14 -69h-69zM189 572l16 68h67l-14 -68h-69z" />
    <glyph glyph-name="periodcentered" unicode="&#xb7;" horiz-adv-x="298" 
d="M178 91l16 68h69l-15 -68h-70zM87 91l16 68h68l-15 -68h-69zM160 0l14 68h68l-13 -68h-69zM68 0l15 68h68l-14 -68h-69z" />
    <glyph glyph-name="cedilla" unicode="&#xb8;" horiz-adv-x="298" 
d="M139 -91l16 68h68l-15 -68h-69zM120 -183l16 68h69l-16 -68h-69zM102 -274l14 68h68l-14 -68h-68zM10 -274l15 68h68l-14 -68h-69z" />
    <glyph glyph-name="onesuperior" unicode="&#xb9;" horiz-adv-x="191" 
d="M162 317l74 345h-50l10 47h97l-84 -392h-47z" />
    <glyph glyph-name="ordmasculine" unicode="&#xba;" 
d="M440 457l14 69h69l-15 -69h-68zM348 457l14 69h70l-16 -69h-68zM420 366l15 68h68l-14 -68h-69zM257 457l14 69h69l-15 -69h-68zM401 274l15 69h69l-16 -69h-68zM165 457l14 69h70l-16 -69h-68zM381 183l15 68h68l-14 -68h-69zM146 366l14 68h69l-15 -68h-68zM361 91
l16 68h69l-15 -68h-70zM126 274l16 69h68l-15 -69h-69zM343 0l14 68h69l-14 -68h-69zM107 183l14 68h69l-15 -68h-68zM251 0l15 68h68l-14 -68h-69zM87 91l16 68h68l-15 -68h-69zM160 0l14 68h68l-13 -68h-69zM68 0l15 68h68l-14 -68h-69z" />
    <glyph glyph-name="guillemotright" unicode="&#xbb;" horiz-adv-x="778" 
d="M88 91l14 68h68l-13 -68h-69zM198 183l15 68h68l-13 -68h-70zM309 274l15 69h68l-14 -69h-69zM238 366l14 68h68l-13 -68h-69zM166 457l13 69h70l-15 -69h-68zM477 91l14 68h68l-13 -68h-69zM587 183l15 68h68l-13 -68h-70zM698 274l15 69h68l-14 -69h-69zM627 366l14 68
h68l-13 -68h-69zM555 457l13 69h70l-15 -69h-68z" />
    <glyph glyph-name="onequarter" unicode="&#xbc;" horiz-adv-x="711" 
d="M185 317l74 345h-50l10 47h97l-84 -392h-47zM538 640l15 69h69l-15 -69h-69zM520 549l14 68h70l-16 -68h-68zM408 457l14 69h70l-16 -69h-68zM389 366l14 68h69l-15 -68h-68zM278 274l15 69h69l-16 -69h-68zM258 183l15 68h68l-14 -68h-69zM147 91l16 68h68l-15 -68h-69z
M128 0l15 68h68l-14 -68h-69zM602 41l-11 -50h-47l11 50h-99l72 342h48l-63 -296h52l63 296h46l-63 -296h50l-10 -46h-49z" />
    <glyph glyph-name="onehalf" unicode="&#xbd;" horiz-adv-x="697" 
d="M185 317l74 345h-50l10 47h97l-84 -392h-47zM539 640l15 69h69l-15 -69h-69zM521 549l14 68h70l-16 -68h-68zM409 457l14 69h70l-16 -69h-68zM390 366l14 68h69l-15 -68h-68zM279 274l15 69h69l-16 -69h-68zM259 183l15 68h68l-14 -68h-69zM148 91l16 68h68l-15 -68h-69z
M129 0l15 68h68l-14 -68h-69zM430 -9l32 146h147l42 199h-148l10 47h196l-62 -293h-148l-12 -52h148l-10 -47h-195z" />
    <glyph glyph-name="threequarters" unicode="&#xbe;" horiz-adv-x="812" 
d="M136 317l10 47h146l12 52h-147l10 47h147l42 199h-148l10 47h196l-84 -392h-194zM635 640l15 69h69l-15 -69h-69zM617 549l14 68h70l-16 -68h-68zM505 457l14 69h70l-16 -69h-68zM486 366l14 68h69l-15 -68h-68zM375 274l15 69h69l-16 -69h-68zM355 183l15 68h68l-14 -68
h-69zM244 91l16 68h68l-15 -68h-69zM225 0l15 68h68l-14 -68h-69zM703 41l-11 -50h-47l11 50h-99l72 342h48l-63 -296h52l63 296h46l-63 -296h50l-10 -46h-49z" />
    <glyph glyph-name="questiondown" unicode="&#xbf;" 
d="M478 640l15 69h69l-15 -69h-69zM387 640l15 69h69l-16 -69h-68zM460 549l14 68h70l-16 -68h-68zM295 640l15 69h69l-15 -69h-69zM440 457l14 69h69l-15 -69h-68zM204 640l15 69h68l-15 -69h-68zM420 366l15 68h68l-14 -68h-69zM401 274l15 69h69l-16 -69h-68zM381 183
l15 68h68l-14 -68h-69zM290 183l14 68h69l-15 -68h-68zM198 183l15 68h68l-14 -68h-69zM107 183l14 68h69l-15 -68h-68zM68 0l15 68h68l-14 -68h-69z" />
    <glyph glyph-name="Agrave" unicode="&#xc0;" 
d="M478 640l15 69h69l-15 -69h-69zM387 640l15 69h69l-16 -69h-68zM460 549l14 68h70l-16 -68h-68zM295 640l15 69h69l-15 -69h-69zM440 457l14 69h69l-15 -69h-68zM204 640l15 69h68l-15 -69h-68zM420 366l15 68h68l-14 -68h-69zM185 549l15 68h69l-15 -68h-69zM401 274
l15 69h69l-16 -69h-68zM165 457l14 69h70l-16 -69h-68zM381 183l15 68h68l-14 -68h-69zM146 366l14 68h69l-15 -68h-68zM361 91l16 68h69l-15 -68h-70zM126 274l16 69h68l-15 -69h-69zM270 91l16 68h68l-15 -68h-69zM343 0l14 68h69l-14 -68h-69zM107 183l14 68h69l-15 -68
h-68zM178 91l16 68h69l-15 -68h-70zM87 91l16 68h68l-15 -68h-69zM68 0l15 68h68l-14 -68h-69zM338 846l16 69h67l-14 -69h-69zM410 755l15 68h68l-14 -68h-69z" />
    <glyph glyph-name="Aacute" unicode="&#xc1;" 
d="M478 640l15 69h69l-15 -69h-69zM387 640l15 69h69l-16 -69h-68zM460 549l14 68h70l-16 -68h-68zM295 640l15 69h69l-15 -69h-69zM440 457l14 69h69l-15 -69h-68zM204 640l15 69h68l-15 -69h-68zM420 366l15 68h68l-14 -68h-69zM185 549l15 68h69l-15 -68h-69zM401 274
l15 69h69l-16 -69h-68zM165 457l14 69h70l-16 -69h-68zM381 183l15 68h68l-14 -68h-69zM146 366l14 68h69l-15 -68h-68zM361 91l16 68h69l-15 -68h-70zM126 274l16 69h68l-15 -69h-69zM270 91l16 68h68l-15 -68h-69zM343 0l14 68h69l-14 -68h-69zM107 183l14 68h69l-15 -68
h-68zM178 91l16 68h69l-15 -68h-70zM87 91l16 68h68l-15 -68h-69zM68 0l15 68h68l-14 -68h-69zM430 846l15 69h68l-14 -69h-69zM319 755l16 68h67l-14 -68h-69z" />
    <glyph glyph-name="Acircumflex" unicode="&#xc2;" 
d="M478 640l15 69h69l-15 -69h-69zM387 640l15 69h69l-16 -69h-68zM460 549l14 68h70l-16 -68h-68zM295 640l15 69h69l-15 -69h-69zM440 457l14 69h69l-15 -69h-68zM204 640l15 69h68l-15 -69h-68zM420 366l15 68h68l-14 -68h-69zM185 549l15 68h69l-15 -68h-69zM401 274
l15 69h69l-16 -69h-68zM165 457l14 69h70l-16 -69h-68zM381 183l15 68h68l-14 -68h-69zM146 366l14 68h69l-15 -68h-68zM361 91l16 68h69l-15 -68h-70zM126 274l16 69h68l-15 -69h-69zM270 91l16 68h68l-15 -68h-69zM343 0l14 68h69l-14 -68h-69zM107 183l14 68h69l-15 -68
h-68zM178 91l16 68h69l-15 -68h-70zM87 91l16 68h68l-15 -68h-69zM68 0l15 68h68l-14 -68h-69zM431 858l15 68h69l-14 -68h-70zM504 766l16 69h68l-15 -69h-69zM340 858l15 68h68l-14 -68h-69zM231 766l15 69h68l-15 -69h-68z" />
    <glyph glyph-name="Atilde" unicode="&#xc3;" 
d="M478 640l15 69h69l-15 -69h-69zM387 640l15 69h69l-16 -69h-68zM460 549l14 68h70l-16 -68h-68zM295 640l15 69h69l-15 -69h-69zM440 457l14 69h69l-15 -69h-68zM204 640l15 69h68l-15 -69h-68zM420 366l15 68h68l-14 -68h-69zM185 549l15 68h69l-15 -68h-69zM401 274
l15 69h69l-16 -69h-68zM165 457l14 69h70l-16 -69h-68zM381 183l15 68h68l-14 -68h-69zM146 366l14 68h69l-15 -68h-68zM361 91l16 68h69l-15 -68h-70zM126 274l16 69h68l-15 -69h-69zM270 91l16 68h68l-15 -68h-69zM343 0l14 68h69l-14 -68h-69zM107 183l14 68h69l-15 -68
h-68zM178 91l16 68h69l-15 -68h-70zM87 91l16 68h68l-15 -68h-69zM68 0l15 68h68l-14 -68h-69zM412 766l15 69h68l-14 -69h-69zM504 766l16 69h68l-15 -69h-69zM320 766l15 69h69l-15 -69h-69zM231 766l15 69h68l-15 -69h-68z" />
    <glyph glyph-name="Adieresis" unicode="&#xc4;" 
d="M478 640l15 69h69l-15 -69h-69zM387 640l15 69h69l-16 -69h-68zM460 549l14 68h70l-16 -68h-68zM295 640l15 69h69l-15 -69h-69zM440 457l14 69h69l-15 -69h-68zM204 640l15 69h68l-15 -69h-68zM420 366l15 68h68l-14 -68h-69zM185 549l15 68h69l-15 -68h-69zM401 274
l15 69h69l-16 -69h-68zM165 457l14 69h70l-16 -69h-68zM381 183l15 68h68l-14 -68h-69zM146 366l14 68h69l-15 -68h-68zM361 91l16 68h69l-15 -68h-70zM126 274l16 69h68l-15 -69h-69zM270 91l16 68h68l-15 -68h-69zM343 0l14 68h69l-14 -68h-69zM107 183l14 68h69l-15 -68
h-68zM178 91l16 68h69l-15 -68h-70zM87 91l16 68h68l-15 -68h-69zM68 0l15 68h68l-14 -68h-69zM516 823l16 69h68l-15 -69h-69zM243 823l15 69h67l-15 -69h-67z" />
    <glyph glyph-name="Aring" unicode="&#xc5;" 
d="M478 640l15 69h69l-15 -69h-69zM387 640l15 69h69l-16 -69h-68zM460 549l14 68h70l-16 -68h-68zM295 640l15 69h69l-15 -69h-69zM440 457l14 69h69l-15 -69h-68zM204 640l15 69h68l-15 -69h-68zM420 366l15 68h68l-14 -68h-69zM185 549l15 68h69l-15 -68h-69zM401 274
l15 69h69l-16 -69h-68zM165 457l14 69h70l-16 -69h-68zM381 183l15 68h68l-14 -68h-69zM146 366l14 68h69l-15 -68h-68zM361 91l16 68h69l-15 -68h-70zM126 274l16 69h68l-15 -69h-69zM270 91l16 68h68l-15 -68h-69zM343 0l14 68h69l-14 -68h-69zM107 183l14 68h69l-15 -68
h-68zM178 91l16 68h69l-15 -68h-70zM87 91l16 68h68l-15 -68h-69zM68 0l15 68h68l-14 -68h-69zM321 766l14 68h69l-14 -68h-69zM341 857l15 69h69l-16 -69h-68zM413 766l14 68h68l-14 -68h-68zM433 857l15 69h68l-15 -69h-68z" />
    <glyph glyph-name="AE" unicode="&#xc6;" horiz-adv-x="755" 
d="M479 640l14 69h69l-15 -69h-68zM435 0l14 68h68l-14 -68h-68zM526 0l15 68h68l-14 -68h-69zM618 0l14 68h68l-14 -68h-68zM473 183l15 68h68l-14 -68h-69zM564 183l15 68h69l-15 -68h-69zM656 183l15 68h68l-14 -68h-69zM460 549l15 68h69l-15 -68h-69zM570 640l15 69h69
l-15 -69h-69zM662 640l14 69h69l-15 -69h-68zM753 640l15 69h69l-15 -69h-69zM69 0l14 68h68l-14 -68h-68zM87 91l16 68h69l-16 -68h-69zM179 91l16 68h68l-15 -68h-69zM107 183l15 68h68l-14 -68h-69zM343 0l15 68h68l-14 -68h-69zM270 91l16 68h69l-16 -68h-69zM127 274
l15 69h68l-15 -69h-68zM362 91l16 68h68l-15 -68h-69zM146 366l14 68h69l-15 -68h-68zM381 183l15 68h69l-15 -68h-69zM165 457l15 69h69l-15 -69h-69zM401 274l16 69h68l-15 -69h-69zM186 549l14 68h69l-15 -68h-68zM421 366l14 68h68l-14 -68h-68zM204 640l15 69h69
l-15 -69h-69zM440 457l14 69h70l-16 -69h-68zM296 640l14 69h69l-15 -69h-68zM387 640l15 69h69l-15 -69h-69z" />
    <glyph glyph-name="Ccedilla" unicode="&#xc7;" 
d="M478 640l15 69h69l-15 -69h-69zM387 640l15 69h69l-16 -69h-68zM295 640l15 69h69l-15 -69h-69zM204 640l15 69h68l-15 -69h-68zM185 549l15 68h69l-15 -68h-69zM165 457l14 69h70l-16 -69h-68zM146 366l14 68h69l-15 -68h-68zM126 274l16 69h68l-15 -69h-69zM343 0
l14 68h69l-14 -68h-69zM107 183l14 68h69l-15 -68h-68zM251 0l15 68h68l-14 -68h-69zM87 91l16 68h68l-15 -68h-69zM160 0l14 68h68l-13 -68h-69zM68 0l15 68h68l-14 -68h-69zM230 -91l16 68h68l-15 -68h-69zM211 -183l16 68h69l-16 -68h-69zM193 -274l14 68h68l-14 -68h-68
zM101 -274l15 68h68l-14 -68h-69z" />
    <glyph glyph-name="Egrave" unicode="&#xc8;" 
d="M478 640l15 69h69l-15 -69h-69zM387 640l15 69h69l-16 -69h-68zM295 640l15 69h69l-15 -69h-69zM204 640l15 69h68l-15 -69h-68zM185 549l15 68h69l-15 -68h-69zM165 457l14 69h70l-16 -69h-68zM381 183l15 68h68l-14 -68h-69zM146 366l14 68h69l-15 -68h-68zM290 183
l14 68h69l-15 -68h-68zM126 274l16 69h68l-15 -69h-69zM198 183l15 68h68l-14 -68h-69zM343 0l14 68h69l-14 -68h-69zM107 183l14 68h69l-15 -68h-68zM251 0l15 68h68l-14 -68h-69zM87 91l16 68h68l-15 -68h-69zM160 0l14 68h68l-13 -68h-69zM68 0l15 68h68l-14 -68h-69z
M338 846l16 69h67l-14 -69h-69zM410 755l15 68h68l-14 -68h-69z" />
    <glyph glyph-name="Eacute" unicode="&#xc9;" 
d="M478 640l15 69h69l-15 -69h-69zM387 640l15 69h69l-16 -69h-68zM295 640l15 69h69l-15 -69h-69zM204 640l15 69h68l-15 -69h-68zM185 549l15 68h69l-15 -68h-69zM165 457l14 69h70l-16 -69h-68zM381 183l15 68h68l-14 -68h-69zM146 366l14 68h69l-15 -68h-68zM290 183
l14 68h69l-15 -68h-68zM126 274l16 69h68l-15 -69h-69zM198 183l15 68h68l-14 -68h-69zM343 0l14 68h69l-14 -68h-69zM107 183l14 68h69l-15 -68h-68zM251 0l15 68h68l-14 -68h-69zM87 91l16 68h68l-15 -68h-69zM160 0l14 68h68l-13 -68h-69zM68 0l15 68h68l-14 -68h-69z
M430 846l15 69h68l-14 -69h-69zM319 755l16 68h67l-14 -68h-69z" />
    <glyph glyph-name="Ecircumflex" unicode="&#xca;" 
d="M478 640l15 69h69l-15 -69h-69zM387 640l15 69h69l-16 -69h-68zM295 640l15 69h69l-15 -69h-69zM204 640l15 69h68l-15 -69h-68zM185 549l15 68h69l-15 -68h-69zM165 457l14 69h70l-16 -69h-68zM381 183l15 68h68l-14 -68h-69zM146 366l14 68h69l-15 -68h-68zM290 183
l14 68h69l-15 -68h-68zM126 274l16 69h68l-15 -69h-69zM198 183l15 68h68l-14 -68h-69zM343 0l14 68h69l-14 -68h-69zM107 183l14 68h69l-15 -68h-68zM251 0l15 68h68l-14 -68h-69zM87 91l16 68h68l-15 -68h-69zM160 0l14 68h68l-13 -68h-69zM68 0l15 68h68l-14 -68h-69z
M431 858l15 68h69l-14 -68h-70zM504 766l16 69h68l-15 -69h-69zM340 858l15 68h68l-14 -68h-69zM231 766l15 69h68l-15 -69h-68z" />
    <glyph glyph-name="Edieresis" unicode="&#xcb;" 
d="M478 640l15 69h69l-15 -69h-69zM387 640l15 69h69l-16 -69h-68zM295 640l15 69h69l-15 -69h-69zM204 640l15 69h68l-15 -69h-68zM185 549l15 68h69l-15 -68h-69zM165 457l14 69h70l-16 -69h-68zM381 183l15 68h68l-14 -68h-69zM146 366l14 68h69l-15 -68h-68zM290 183
l14 68h69l-15 -68h-68zM126 274l16 69h68l-15 -69h-69zM198 183l15 68h68l-14 -68h-69zM343 0l14 68h69l-14 -68h-69zM107 183l14 68h69l-15 -68h-68zM251 0l15 68h68l-14 -68h-69zM87 91l16 68h68l-15 -68h-69zM160 0l14 68h68l-13 -68h-69zM68 0l15 68h68l-14 -68h-69z
M516 823l16 69h68l-15 -69h-69zM243 823l15 69h67l-15 -69h-67z" />
    <glyph glyph-name="Igrave" unicode="&#xcc;" horiz-adv-x="346" 
d="M363 640l15 69h69l-15 -69h-69zM271 640l16 69h68l-14 -69h-70zM180 640l15 69h68l-14 -69h-69zM253 549l15 68h69l-16 -68h-68zM233 457l15 69h68l-15 -69h-68zM213 366l16 68h68l-15 -68h-69zM194 274l15 69h70l-17 -69h-68zM174 183l15 68h69l-15 -68h-69zM155 91
l15 68h69l-15 -68h-69zM228 0l14 68h68l-13 -68h-69zM137 0l13 68h69l-14 -68h-68zM45 0l14 68h68l-13 -68h-69zM271 846l16 69h67l-14 -69h-69zM343 755l15 68h68l-14 -68h-69z" />
    <glyph glyph-name="Iacute" unicode="&#xcd;" horiz-adv-x="346" 
d="M363 640l15 69h69l-15 -69h-69zM271 640l16 69h68l-14 -69h-70zM180 640l15 69h68l-14 -69h-69zM253 549l15 68h69l-16 -68h-68zM233 457l15 69h68l-15 -69h-68zM213 366l16 68h68l-15 -68h-69zM194 274l15 69h70l-17 -69h-68zM174 183l15 68h69l-15 -68h-69zM155 91
l15 68h69l-15 -68h-69zM228 0l14 68h68l-13 -68h-69zM137 0l13 68h69l-14 -68h-68zM45 0l14 68h68l-13 -68h-69zM363 846l15 69h68l-14 -69h-69zM252 755l16 68h67l-14 -68h-69z" />
    <glyph glyph-name="Icircumflex" unicode="&#xce;" horiz-adv-x="346" 
d="M363 640l15 69h69l-15 -69h-69zM271 640l16 69h68l-14 -69h-70zM180 640l15 69h68l-14 -69h-69zM253 549l15 68h69l-16 -68h-68zM233 457l15 69h68l-15 -69h-68zM213 366l16 68h68l-15 -68h-69zM194 274l15 69h70l-17 -69h-68zM174 183l15 68h69l-15 -68h-69zM155 91
l15 68h69l-15 -68h-69zM228 0l14 68h68l-13 -68h-69zM137 0l13 68h69l-14 -68h-68zM45 0l14 68h68l-13 -68h-69zM366 858l15 68h69l-14 -68h-70zM439 766l16 69h68l-15 -69h-69zM275 858l15 68h68l-14 -68h-69zM166 766l15 69h68l-15 -69h-68z" />
    <glyph glyph-name="Idieresis" unicode="&#xcf;" horiz-adv-x="346" 
d="M363 640l15 69h69l-15 -69h-69zM271 640l16 69h68l-14 -69h-70zM180 640l15 69h68l-14 -69h-69zM253 549l15 68h69l-16 -68h-68zM233 457l15 69h68l-15 -69h-68zM213 366l16 68h68l-15 -68h-69zM194 274l15 69h70l-17 -69h-68zM174 183l15 68h69l-15 -68h-69zM155 91
l15 68h69l-15 -68h-69zM228 0l14 68h68l-13 -68h-69zM137 0l13 68h69l-14 -68h-68zM45 0l14 68h68l-13 -68h-69zM451 823l16 69h68l-15 -69h-69zM178 823l15 69h67l-15 -69h-67z" />
    <glyph glyph-name="Eth" unicode="&#xd0;" 
d="M478 640l15 69h69l-15 -69h-69zM387 640l15 69h69l-16 -69h-68zM460 549l14 68h70l-16 -68h-68zM295 640l15 69h69l-15 -69h-69zM440 457l14 69h69l-15 -69h-68zM204 640l15 69h68l-15 -69h-68zM277 549l14 68h70l-16 -68h-68zM420 366l15 68h68l-14 -68h-69zM257 457
l14 69h69l-15 -69h-68zM401 274l15 69h69l-16 -69h-68zM237 366l15 68h68l-14 -68h-69zM381 183l15 68h68l-14 -68h-69zM218 274l15 69h69l-16 -69h-68zM361 91l16 68h69l-15 -68h-70zM198 183l15 68h68l-14 -68h-69zM343 0l14 68h69l-14 -68h-69zM178 91l16 68h69l-15 -68
h-70zM251 0l15 68h68l-14 -68h-69zM160 0l14 68h68l-13 -68h-69zM68 0l15 68h68l-14 -68h-69zM106 183l15 68h68l-14 -68h-69z" />
    <glyph glyph-name="Ntilde" unicode="&#xd1;" 
d="M478 640l15 69h69l-15 -69h-69zM387 640l15 69h69l-16 -69h-68zM460 549l14 68h70l-16 -68h-68zM295 640l15 69h69l-15 -69h-69zM440 457l14 69h69l-15 -69h-68zM204 640l15 69h68l-15 -69h-68zM420 366l15 68h68l-14 -68h-69zM185 549l15 68h69l-15 -68h-69zM401 274
l15 69h69l-16 -69h-68zM165 457l14 69h70l-16 -69h-68zM381 183l15 68h68l-14 -68h-69zM146 366l14 68h69l-15 -68h-68zM361 91l16 68h69l-15 -68h-70zM126 274l16 69h68l-15 -69h-69zM343 0l14 68h69l-14 -68h-69zM107 183l14 68h69l-15 -68h-68zM87 91l16 68h68l-15 -68
h-69zM68 0l15 68h68l-14 -68h-69zM412 766l15 69h68l-14 -69h-69zM504 766l16 69h68l-15 -69h-69zM320 766l15 69h69l-15 -69h-69zM231 766l15 69h68l-15 -69h-68z" />
    <glyph glyph-name="Ograve" unicode="&#xd2;" 
d="M478 640l15 69h69l-15 -69h-69zM387 640l15 69h69l-16 -69h-68zM460 549l14 68h70l-16 -68h-68zM295 640l15 69h69l-15 -69h-69zM440 457l14 69h69l-15 -69h-68zM204 640l15 69h68l-15 -69h-68zM420 366l15 68h68l-14 -68h-69zM185 549l15 68h69l-15 -68h-69zM401 274
l15 69h69l-16 -69h-68zM165 457l14 69h70l-16 -69h-68zM381 183l15 68h68l-14 -68h-69zM146 366l14 68h69l-15 -68h-68zM361 91l16 68h69l-15 -68h-70zM126 274l16 69h68l-15 -69h-69zM343 0l14 68h69l-14 -68h-69zM107 183l14 68h69l-15 -68h-68zM251 0l15 68h68l-14 -68
h-69zM87 91l16 68h68l-15 -68h-69zM160 0l14 68h68l-13 -68h-69zM68 0l15 68h68l-14 -68h-69zM338 846l16 69h67l-14 -69h-69zM410 755l15 68h68l-14 -68h-69z" />
    <glyph glyph-name="Oacute" unicode="&#xd3;" 
d="M478 640l15 69h69l-15 -69h-69zM387 640l15 69h69l-16 -69h-68zM460 549l14 68h70l-16 -68h-68zM295 640l15 69h69l-15 -69h-69zM440 457l14 69h69l-15 -69h-68zM204 640l15 69h68l-15 -69h-68zM420 366l15 68h68l-14 -68h-69zM185 549l15 68h69l-15 -68h-69zM401 274
l15 69h69l-16 -69h-68zM165 457l14 69h70l-16 -69h-68zM381 183l15 68h68l-14 -68h-69zM146 366l14 68h69l-15 -68h-68zM361 91l16 68h69l-15 -68h-70zM126 274l16 69h68l-15 -69h-69zM343 0l14 68h69l-14 -68h-69zM107 183l14 68h69l-15 -68h-68zM251 0l15 68h68l-14 -68
h-69zM87 91l16 68h68l-15 -68h-69zM160 0l14 68h68l-13 -68h-69zM68 0l15 68h68l-14 -68h-69zM430 846l15 69h68l-14 -69h-69zM319 755l16 68h67l-14 -68h-69z" />
    <glyph glyph-name="Ocircumflex" unicode="&#xd4;" 
d="M478 640l15 69h69l-15 -69h-69zM387 640l15 69h69l-16 -69h-68zM460 549l14 68h70l-16 -68h-68zM295 640l15 69h69l-15 -69h-69zM440 457l14 69h69l-15 -69h-68zM204 640l15 69h68l-15 -69h-68zM420 366l15 68h68l-14 -68h-69zM185 549l15 68h69l-15 -68h-69zM401 274
l15 69h69l-16 -69h-68zM165 457l14 69h70l-16 -69h-68zM381 183l15 68h68l-14 -68h-69zM146 366l14 68h69l-15 -68h-68zM361 91l16 68h69l-15 -68h-70zM126 274l16 69h68l-15 -69h-69zM343 0l14 68h69l-14 -68h-69zM107 183l14 68h69l-15 -68h-68zM251 0l15 68h68l-14 -68
h-69zM87 91l16 68h68l-15 -68h-69zM160 0l14 68h68l-13 -68h-69zM68 0l15 68h68l-14 -68h-69zM431 858l15 68h69l-14 -68h-70zM504 766l16 69h68l-15 -69h-69zM340 858l15 68h68l-14 -68h-69zM231 766l15 69h68l-15 -69h-68z" />
    <glyph glyph-name="Otilde" unicode="&#xd5;" 
d="M478 640l15 69h69l-15 -69h-69zM387 640l15 69h69l-16 -69h-68zM460 549l14 68h70l-16 -68h-68zM295 640l15 69h69l-15 -69h-69zM440 457l14 69h69l-15 -69h-68zM204 640l15 69h68l-15 -69h-68zM420 366l15 68h68l-14 -68h-69zM185 549l15 68h69l-15 -68h-69zM401 274
l15 69h69l-16 -69h-68zM165 457l14 69h70l-16 -69h-68zM381 183l15 68h68l-14 -68h-69zM146 366l14 68h69l-15 -68h-68zM361 91l16 68h69l-15 -68h-70zM126 274l16 69h68l-15 -69h-69zM343 0l14 68h69l-14 -68h-69zM107 183l14 68h69l-15 -68h-68zM251 0l15 68h68l-14 -68
h-69zM87 91l16 68h68l-15 -68h-69zM160 0l14 68h68l-13 -68h-69zM68 0l15 68h68l-14 -68h-69zM412 766l15 69h68l-14 -69h-69zM504 766l16 69h68l-15 -69h-69zM320 766l15 69h69l-15 -69h-69zM231 766l15 69h68l-15 -69h-68z" />
    <glyph glyph-name="Odieresis" unicode="&#xd6;" 
d="M478 640l15 69h69l-15 -69h-69zM387 640l15 69h69l-16 -69h-68zM460 549l14 68h70l-16 -68h-68zM295 640l15 69h69l-15 -69h-69zM440 457l14 69h69l-15 -69h-68zM204 640l15 69h68l-15 -69h-68zM420 366l15 68h68l-14 -68h-69zM185 549l15 68h69l-15 -68h-69zM401 274
l15 69h69l-16 -69h-68zM165 457l14 69h70l-16 -69h-68zM381 183l15 68h68l-14 -68h-69zM146 366l14 68h69l-15 -68h-68zM361 91l16 68h69l-15 -68h-70zM126 274l16 69h68l-15 -69h-69zM343 0l14 68h69l-14 -68h-69zM107 183l14 68h69l-15 -68h-68zM251 0l15 68h68l-14 -68
h-69zM87 91l16 68h68l-15 -68h-69zM160 0l14 68h68l-13 -68h-69zM68 0l15 68h68l-14 -68h-69zM516 823l16 69h68l-15 -69h-69zM243 823l15 69h67l-15 -69h-67z" />
    <glyph glyph-name="multiply" unicode="&#xd7;" horiz-adv-x="389" 
d="M237 366l15 68h68l-14 -68h-69zM309 274l16 69h68l-15 -69h-69zM218 274l15 69h69l-16 -69h-68zM126 274l16 69h68l-15 -69h-69zM198 183l15 68h68l-14 -68h-69z" />
    <glyph glyph-name="Oslash" unicode="&#xd8;" 
d="M387 640l15 69h69l-15 -69h-69zM296 640l14 69h69l-15 -69h-68zM440 457l14 69h70l-16 -69h-68zM204 640l15 69h69l-16 -69h-68zM421 366l14 68h68l-14 -68h-68zM186 549l14 68h69l-15 -68h-68zM401 274l16 69h68l-15 -69h-69zM165 457l15 69h69l-15 -69h-69zM381 183
l15 68h69l-15 -68h-69zM146 366l14 68h69l-15 -68h-68zM361 91l17 68h68l-15 -68h-70zM127 274l15 69h68l-15 -69h-68zM343 0l14 68h69l-14 -68h-69zM107 183l15 68h68l-14 -68h-69zM252 0l14 68h68l-14 -68h-68zM160 0l14 68h69l-14 -68h-69zM479 640l14 69h69l-15 -69h-68
zM460 549l15 68h69l-15 -68h-69zM348 457l15 69h69l-15 -69h-69zM329 366l14 68h69l-15 -68h-68zM218 274l16 69h68l-15 -69h-69zM198 183l15 68h69l-15 -68h-69zM87 91l16 68h69l-16 -68h-69zM69 0l14 68h68l-14 -68h-68z" />
    <glyph glyph-name="Ugrave" unicode="&#xd9;" 
d="M478 640l15 69h69l-15 -69h-69zM460 549l14 68h70l-16 -68h-68zM440 457l14 69h69l-15 -69h-68zM204 640l15 69h68l-15 -69h-68zM420 366l15 68h68l-14 -68h-69zM185 549l15 68h69l-15 -68h-69zM401 274l15 69h69l-16 -69h-68zM165 457l14 69h70l-16 -69h-68zM381 183
l15 68h68l-14 -68h-69zM146 366l14 68h69l-15 -68h-68zM361 91l16 68h69l-15 -68h-70zM126 274l16 69h68l-15 -69h-69zM343 0l14 68h69l-14 -68h-69zM107 183l14 68h69l-15 -68h-68zM251 0l15 68h68l-14 -68h-69zM87 91l16 68h68l-15 -68h-69zM160 0l14 68h68l-13 -68h-69z
M68 0l15 68h68l-14 -68h-69zM338 846l16 69h67l-14 -69h-69zM410 755l15 68h68l-14 -68h-69z" />
    <glyph glyph-name="Uacute" unicode="&#xda;" 
d="M478 640l15 69h69l-15 -69h-69zM460 549l14 68h70l-16 -68h-68zM440 457l14 69h69l-15 -69h-68zM204 640l15 69h68l-15 -69h-68zM420 366l15 68h68l-14 -68h-69zM185 549l15 68h69l-15 -68h-69zM401 274l15 69h69l-16 -69h-68zM165 457l14 69h70l-16 -69h-68zM381 183
l15 68h68l-14 -68h-69zM146 366l14 68h69l-15 -68h-68zM361 91l16 68h69l-15 -68h-70zM126 274l16 69h68l-15 -69h-69zM343 0l14 68h69l-14 -68h-69zM107 183l14 68h69l-15 -68h-68zM251 0l15 68h68l-14 -68h-69zM87 91l16 68h68l-15 -68h-69zM160 0l14 68h68l-13 -68h-69z
M68 0l15 68h68l-14 -68h-69zM430 846l15 69h68l-14 -69h-69zM319 755l16 68h67l-14 -68h-69z" />
    <glyph glyph-name="Ucircumflex" unicode="&#xdb;" 
d="M478 640l15 69h69l-15 -69h-69zM460 549l14 68h70l-16 -68h-68zM440 457l14 69h69l-15 -69h-68zM204 640l15 69h68l-15 -69h-68zM420 366l15 68h68l-14 -68h-69zM185 549l15 68h69l-15 -68h-69zM401 274l15 69h69l-16 -69h-68zM165 457l14 69h70l-16 -69h-68zM381 183
l15 68h68l-14 -68h-69zM146 366l14 68h69l-15 -68h-68zM361 91l16 68h69l-15 -68h-70zM126 274l16 69h68l-15 -69h-69zM343 0l14 68h69l-14 -68h-69zM107 183l14 68h69l-15 -68h-68zM251 0l15 68h68l-14 -68h-69zM87 91l16 68h68l-15 -68h-69zM160 0l14 68h68l-13 -68h-69z
M68 0l15 68h68l-14 -68h-69zM431 858l15 68h69l-14 -68h-70zM504 766l16 69h68l-15 -69h-69zM340 858l15 68h68l-14 -68h-69zM231 766l15 69h68l-15 -69h-68z" />
    <glyph glyph-name="Udieresis" unicode="&#xdc;" 
d="M478 640l15 69h69l-15 -69h-69zM460 549l14 68h70l-16 -68h-68zM440 457l14 69h69l-15 -69h-68zM204 640l15 69h68l-15 -69h-68zM420 366l15 68h68l-14 -68h-69zM185 549l15 68h69l-15 -68h-69zM401 274l15 69h69l-16 -69h-68zM165 457l14 69h70l-16 -69h-68zM381 183
l15 68h68l-14 -68h-69zM146 366l14 68h69l-15 -68h-68zM361 91l16 68h69l-15 -68h-70zM126 274l16 69h68l-15 -69h-69zM343 0l14 68h69l-14 -68h-69zM107 183l14 68h69l-15 -68h-68zM251 0l15 68h68l-14 -68h-69zM87 91l16 68h68l-15 -68h-69zM160 0l14 68h68l-13 -68h-69z
M68 0l15 68h68l-14 -68h-69zM516 823l16 69h68l-15 -69h-69zM243 823l15 69h67l-15 -69h-67z" />
    <glyph glyph-name="Yacute" unicode="&#xdd;" 
d="M478 640l15 69h69l-15 -69h-69zM460 549l14 68h70l-16 -68h-68zM440 457l14 69h69l-15 -69h-68zM204 640l15 69h68l-15 -69h-68zM420 366l15 68h68l-14 -68h-69zM185 549l15 68h69l-15 -68h-69zM401 274l15 69h69l-16 -69h-68zM165 457l14 69h70l-16 -69h-68zM381 183
l15 68h68l-14 -68h-69zM146 366l14 68h69l-15 -68h-68zM290 183l14 68h69l-15 -68h-68zM361 91l16 68h69l-15 -68h-70zM126 274l16 69h68l-15 -69h-69zM198 183l15 68h68l-14 -68h-69zM343 0l14 68h69l-14 -68h-69zM107 183l14 68h69l-15 -68h-68zM251 0l15 68h68l-14 -68
h-69zM160 0l14 68h68l-13 -68h-69zM68 0l15 68h68l-14 -68h-69zM430 846l15 69h68l-14 -69h-69zM319 755l16 68h67l-14 -68h-69z" />
    <glyph glyph-name="Thorn" unicode="&#xde;" 
d="M367 548l15 69h70l-17 -69h-68zM460 549l14 68h70l-16 -68h-68zM275 548l16 69h69l-16 -69h-69zM440 457l14 69h69l-15 -69h-68zM204 640l15 69h68l-15 -69h-68zM420 366l15 68h68l-14 -68h-69zM185 549l15 68h69l-15 -68h-69zM401 274l15 69h69l-16 -69h-68zM165 457
l14 69h70l-16 -69h-68zM381 183l15 68h68l-14 -68h-69zM146 366l14 68h69l-15 -68h-68zM361 91l16 68h69l-15 -68h-70zM126 274l16 69h68l-15 -69h-69zM270 91l16 68h68l-15 -68h-69zM107 183l14 68h69l-15 -68h-68zM178 91l16 68h69l-15 -68h-70zM87 91l16 68h68l-15 -68
h-69zM68 0l15 68h68l-14 -68h-69z" />
    <glyph glyph-name="germandbls" unicode="&#xdf;" 
d="M387 640l15 69h69l-16 -69h-68zM460 549l14 68h70l-16 -68h-68zM295 640l15 69h69l-15 -69h-69zM440 457l14 69h69l-15 -69h-68zM204 640l15 69h68l-15 -69h-68zM420 366l15 68h68l-14 -68h-69zM185 549l15 68h69l-15 -68h-69zM401 274l15 69h69l-16 -69h-68zM165 457
l14 69h70l-16 -69h-68zM146 366l14 68h69l-15 -68h-68zM290 183l14 68h69l-15 -68h-68zM361 91l16 68h69l-15 -68h-70zM126 274l16 69h68l-15 -69h-69zM343 0l14 68h69l-14 -68h-69zM107 183l14 68h69l-15 -68h-68zM251 0l15 68h68l-14 -68h-69zM87 91l16 68h68l-15 -68h-69
zM68 0l15 68h68l-14 -68h-69z" />
    <glyph glyph-name="agrave" unicode="&#xe0;" 
d="M440 457l14 69h69l-15 -69h-68zM348 457l14 69h70l-16 -69h-68zM420 366l15 68h68l-14 -68h-69zM257 457l14 69h69l-15 -69h-68zM401 274l15 69h69l-16 -69h-68zM165 457l14 69h70l-16 -69h-68zM381 183l15 68h68l-14 -68h-69zM290 183l14 68h69l-15 -68h-68zM361 91
l16 68h69l-15 -68h-70zM198 183l15 68h68l-14 -68h-69zM343 0l14 68h69l-14 -68h-69zM107 183l14 68h69l-15 -68h-68zM251 0l15 68h68l-14 -68h-69zM87 91l16 68h68l-15 -68h-69zM160 0l14 68h68l-13 -68h-69zM68 0l15 68h68l-14 -68h-69zM300 663l16 69h67l-14 -69h-69z
M372 572l15 68h68l-14 -68h-69z" />
    <glyph glyph-name="aacute" unicode="&#xe1;" 
d="M440 457l14 69h69l-15 -69h-68zM348 457l14 69h70l-16 -69h-68zM420 366l15 68h68l-14 -68h-69zM257 457l14 69h69l-15 -69h-68zM401 274l15 69h69l-16 -69h-68zM165 457l14 69h70l-16 -69h-68zM381 183l15 68h68l-14 -68h-69zM290 183l14 68h69l-15 -68h-68zM361 91
l16 68h69l-15 -68h-70zM198 183l15 68h68l-14 -68h-69zM343 0l14 68h69l-14 -68h-69zM107 183l14 68h69l-15 -68h-68zM251 0l15 68h68l-14 -68h-69zM87 91l16 68h68l-15 -68h-69zM160 0l14 68h68l-13 -68h-69zM68 0l15 68h68l-14 -68h-69zM392 663l15 69h68l-14 -69h-69z
M281 572l16 68h67l-14 -68h-69z" />
    <glyph glyph-name="acircumflex" unicode="&#xe2;" 
d="M440 457l14 69h69l-15 -69h-68zM348 457l14 69h70l-16 -69h-68zM420 366l15 68h68l-14 -68h-69zM257 457l14 69h69l-15 -69h-68zM401 274l15 69h69l-16 -69h-68zM165 457l14 69h70l-16 -69h-68zM381 183l15 68h68l-14 -68h-69zM290 183l14 68h69l-15 -68h-68zM361 91
l16 68h69l-15 -68h-70zM198 183l15 68h68l-14 -68h-69zM343 0l14 68h69l-14 -68h-69zM107 183l14 68h69l-15 -68h-68zM251 0l15 68h68l-14 -68h-69zM87 91l16 68h68l-15 -68h-69zM160 0l14 68h68l-13 -68h-69zM68 0l15 68h68l-14 -68h-69zM393 675l15 68h69l-14 -68h-70z
M466 583l16 69h68l-15 -69h-69zM302 675l15 68h68l-14 -68h-69zM193 583l15 69h68l-15 -69h-68z" />
    <glyph glyph-name="atilde" unicode="&#xe3;" 
d="M440 457l14 69h69l-15 -69h-68zM348 457l14 69h70l-16 -69h-68zM420 366l15 68h68l-14 -68h-69zM257 457l14 69h69l-15 -69h-68zM401 274l15 69h69l-16 -69h-68zM165 457l14 69h70l-16 -69h-68zM381 183l15 68h68l-14 -68h-69zM290 183l14 68h69l-15 -68h-68zM361 91
l16 68h69l-15 -68h-70zM198 183l15 68h68l-14 -68h-69zM343 0l14 68h69l-14 -68h-69zM107 183l14 68h69l-15 -68h-68zM251 0l15 68h68l-14 -68h-69zM87 91l16 68h68l-15 -68h-69zM160 0l14 68h68l-13 -68h-69zM68 0l15 68h68l-14 -68h-69zM374 583l15 69h68l-14 -69h-69z
M466 583l16 69h68l-15 -69h-69zM282 583l15 69h69l-15 -69h-69zM193 583l15 69h68l-15 -69h-68z" />
    <glyph glyph-name="adieresis" unicode="&#xe4;" 
d="M440 457l14 69h69l-15 -69h-68zM348 457l14 69h70l-16 -69h-68zM420 366l15 68h68l-14 -68h-69zM257 457l14 69h69l-15 -69h-68zM401 274l15 69h69l-16 -69h-68zM165 457l14 69h70l-16 -69h-68zM381 183l15 68h68l-14 -68h-69zM290 183l14 68h69l-15 -68h-68zM361 91
l16 68h69l-15 -68h-70zM198 183l15 68h68l-14 -68h-69zM343 0l14 68h69l-14 -68h-69zM107 183l14 68h69l-15 -68h-68zM251 0l15 68h68l-14 -68h-69zM87 91l16 68h68l-15 -68h-69zM160 0l14 68h68l-13 -68h-69zM68 0l15 68h68l-14 -68h-69zM478 640l16 69h68l-15 -69h-69z
M205 640l15 69h67l-15 -69h-67z" />
    <glyph glyph-name="aring" unicode="&#xe5;" 
d="M440 457l14 69h69l-15 -69h-68zM348 457l14 69h70l-16 -69h-68zM420 366l15 68h68l-14 -68h-69zM257 457l14 69h69l-15 -69h-68zM401 274l15 69h69l-16 -69h-68zM165 457l14 69h70l-16 -69h-68zM381 183l15 68h68l-14 -68h-69zM290 183l14 68h69l-15 -68h-68zM361 91
l16 68h69l-15 -68h-70zM198 183l15 68h68l-14 -68h-69zM343 0l14 68h69l-14 -68h-69zM107 183l14 68h69l-15 -68h-68zM251 0l15 68h68l-14 -68h-69zM87 91l16 68h68l-15 -68h-69zM160 0l14 68h68l-13 -68h-69zM68 0l15 68h68l-14 -68h-69zM283 583l14 68h69l-14 -68h-69z
M303 674l15 69h69l-16 -69h-68zM375 583l14 68h68l-14 -68h-68zM395 674l15 69h68l-15 -69h-68z" />
    <glyph glyph-name="ae" unicode="&#xe6;" horiz-adv-x="755" 
d="M714 457l14 69h69l-15 -69h-68zM622 457l14 69h70l-16 -69h-68zM694 366l15 68h69l-15 -68h-69zM531 457l14 69h69l-15 -69h-68zM675 274l15 69h69l-16 -69h-68zM655 183l15 68h68l-14 -68h-69zM564 183l14 68h69l-15 -68h-68zM472 183l15 68h68l-14 -68h-69zM617 0
l14 68h68l-13 -68h-69zM525 0l15 68h68l-13 -68h-70zM434 0l14 68h68l-13 -68h-69zM440 457l15 69h69l-15 -69h-69zM349 457l14 69h69l-15 -69h-68zM421 366l14 68h69l-15 -68h-68zM257 457l15 69h69l-15 -69h-69zM402 274l15 69h68l-15 -69h-68zM166 457l14 69h69l-15 -69
h-68zM381 183l16 68h68l-14 -68h-70zM290 183l15 68h68l-14 -68h-69zM362 91l16 68h69l-16 -68h-69zM198 183l15 68h69l-14 -68h-70zM343 0l15 68h68l-14 -68h-69zM107 183l15 68h68l-14 -68h-69zM252 0l14 68h69l-15 -68h-68zM87 91l17 68h68l-15 -68h-70zM160 0l15 68h68
l-14 -68h-69zM69 0l14 68h69l-15 -68h-68z" />
    <glyph glyph-name="ccedilla" unicode="&#xe7;" 
d="M440 457l14 69h69l-15 -69h-68zM348 457l14 69h70l-16 -69h-68zM257 457l14 69h69l-15 -69h-68zM165 457l14 69h70l-16 -69h-68zM146 366l14 68h69l-15 -68h-68zM126 274l16 69h68l-15 -69h-69zM343 0l14 68h69l-14 -68h-69zM107 183l14 68h69l-15 -68h-68zM251 0l15 68
h68l-14 -68h-69zM87 91l16 68h68l-15 -68h-69zM160 0l14 68h68l-13 -68h-69zM68 0l15 68h68l-14 -68h-69zM230 -91l16 68h68l-15 -68h-69zM211 -183l16 68h69l-16 -68h-69zM193 -274l14 68h68l-14 -68h-68zM101 -274l15 68h68l-14 -68h-69z" />
    <glyph glyph-name="egrave" unicode="&#xe8;" 
d="M440 457l14 69h69l-15 -69h-68zM348 457l14 69h70l-16 -69h-68zM420 366l15 68h68l-14 -68h-69zM257 457l14 69h69l-15 -69h-68zM401 274l15 69h69l-16 -69h-68zM165 457l14 69h70l-16 -69h-68zM381 183l15 68h68l-14 -68h-69zM146 366l14 68h69l-15 -68h-68zM290 183
l14 68h69l-15 -68h-68zM126 274l16 69h68l-15 -69h-69zM198 183l15 68h68l-14 -68h-69zM343 0l14 68h69l-14 -68h-69zM107 183l14 68h69l-15 -68h-68zM251 0l15 68h68l-14 -68h-69zM87 91l16 68h68l-15 -68h-69zM160 0l14 68h68l-13 -68h-69zM68 0l15 68h68l-14 -68h-69z
M300 663l16 69h67l-14 -69h-69zM372 572l15 68h68l-14 -68h-69z" />
    <glyph glyph-name="eacute" unicode="&#xe9;" 
d="M440 457l14 69h69l-15 -69h-68zM348 457l14 69h70l-16 -69h-68zM420 366l15 68h68l-14 -68h-69zM257 457l14 69h69l-15 -69h-68zM401 274l15 69h69l-16 -69h-68zM165 457l14 69h70l-16 -69h-68zM381 183l15 68h68l-14 -68h-69zM146 366l14 68h69l-15 -68h-68zM290 183
l14 68h69l-15 -68h-68zM126 274l16 69h68l-15 -69h-69zM198 183l15 68h68l-14 -68h-69zM343 0l14 68h69l-14 -68h-69zM107 183l14 68h69l-15 -68h-68zM251 0l15 68h68l-14 -68h-69zM87 91l16 68h68l-15 -68h-69zM160 0l14 68h68l-13 -68h-69zM68 0l15 68h68l-14 -68h-69z
M392 663l15 69h68l-14 -69h-69zM281 572l16 68h67l-14 -68h-69z" />
    <glyph glyph-name="ecircumflex" unicode="&#xea;" 
d="M440 457l14 69h69l-15 -69h-68zM348 457l14 69h70l-16 -69h-68zM420 366l15 68h68l-14 -68h-69zM257 457l14 69h69l-15 -69h-68zM401 274l15 69h69l-16 -69h-68zM165 457l14 69h70l-16 -69h-68zM381 183l15 68h68l-14 -68h-69zM146 366l14 68h69l-15 -68h-68zM290 183
l14 68h69l-15 -68h-68zM126 274l16 69h68l-15 -69h-69zM198 183l15 68h68l-14 -68h-69zM343 0l14 68h69l-14 -68h-69zM107 183l14 68h69l-15 -68h-68zM251 0l15 68h68l-14 -68h-69zM87 91l16 68h68l-15 -68h-69zM160 0l14 68h68l-13 -68h-69zM68 0l15 68h68l-14 -68h-69z
M393 675l15 68h69l-14 -68h-70zM466 583l16 69h68l-15 -69h-69zM302 675l15 68h68l-14 -68h-69zM193 583l15 69h68l-15 -69h-68z" />
    <glyph glyph-name="edieresis" unicode="&#xeb;" 
d="M440 457l14 69h69l-15 -69h-68zM348 457l14 69h70l-16 -69h-68zM420 366l15 68h68l-14 -68h-69zM257 457l14 69h69l-15 -69h-68zM401 274l15 69h69l-16 -69h-68zM165 457l14 69h70l-16 -69h-68zM381 183l15 68h68l-14 -68h-69zM146 366l14 68h69l-15 -68h-68zM290 183
l14 68h69l-15 -68h-68zM126 274l16 69h68l-15 -69h-69zM198 183l15 68h68l-14 -68h-69zM343 0l14 68h69l-14 -68h-69zM107 183l14 68h69l-15 -68h-68zM251 0l15 68h68l-14 -68h-69zM87 91l16 68h68l-15 -68h-69zM160 0l14 68h68l-13 -68h-69zM68 0l15 68h68l-14 -68h-69z
M478 640l16 69h68l-15 -69h-69zM205 640l15 69h67l-15 -69h-67z" />
    <glyph glyph-name="igrave" unicode="&#xec;" horiz-adv-x="264" 
d="M223 457l15 69h68l-15 -69h-68zM131 457l15 69h69l-16 -69h-68zM203 366l16 68h68l-15 -68h-69zM184 274l15 69h70l-17 -69h-68zM164 183l15 68h69l-15 -68h-69zM145 91l15 68h69l-15 -68h-69zM127 0l13 68h68l-13 -68h-68zM177 663l16 69h67l-14 -69h-69zM249 572l15 68
h68l-14 -68h-69z" />
    <glyph glyph-name="iacute" unicode="&#xed;" horiz-adv-x="264" 
d="M223 457l15 69h68l-15 -69h-68zM131 457l15 69h69l-16 -69h-68zM203 366l16 68h68l-15 -68h-69zM184 274l15 69h70l-17 -69h-68zM164 183l15 68h69l-15 -68h-69zM145 91l15 68h69l-15 -68h-69zM127 0l13 68h68l-13 -68h-68zM267 663l15 69h68l-14 -69h-69zM156 572l16 68
h67l-14 -68h-69z" />
    <glyph glyph-name="icircumflex" unicode="&#xee;" horiz-adv-x="264" 
d="M223 457l15 69h68l-15 -69h-68zM131 457l15 69h69l-16 -69h-68zM203 366l16 68h68l-15 -68h-69zM184 274l15 69h70l-17 -69h-68zM164 183l15 68h69l-15 -68h-69zM145 91l15 68h69l-15 -68h-69zM127 0l13 68h68l-13 -68h-68zM269 675l15 68h69l-14 -68h-70zM342 583l16 69
h68l-15 -69h-69zM178 675l15 68h68l-14 -68h-69zM69 583l15 69h68l-15 -69h-68z" />
    <glyph glyph-name="idieresis" unicode="&#xef;" horiz-adv-x="264" 
d="M223 457l15 69h68l-15 -69h-68zM131 457l15 69h69l-16 -69h-68zM203 366l16 68h68l-15 -68h-69zM184 274l15 69h70l-17 -69h-68zM164 183l15 68h69l-15 -68h-69zM145 91l15 68h69l-15 -68h-69zM127 0l13 68h68l-13 -68h-68zM351 640l16 69h68l-15 -69h-69zM78 640l15 69
h67l-15 -69h-67z" />
    <glyph glyph-name="eth" unicode="&#xf0;" 
d="M388 640l15 69h69l-15 -69h-69zM460 549l14 68h70l-16 -68h-68zM440 457l14 69h69l-15 -69h-68zM329 366l14 69h69l-15 -69h-68zM420 366l15 68h68l-14 -68h-69zM238 366l14 69h68l-14 -69h-68zM401 274l15 69h69l-16 -69h-68zM381 183l15 68h68l-14 -68h-69zM146 366
l14 68h69l-15 -68h-68zM361 91l16 68h69l-15 -68h-70zM126 274l16 69h68l-15 -69h-69zM343 0l14 68h69l-14 -68h-69zM107 183l14 68h69l-15 -68h-68zM251 0l15 68h68l-14 -68h-69zM87 91l16 68h68l-15 -68h-69zM160 0l14 68h68l-13 -68h-69zM68 0l15 68h68l-14 -68h-69z" />
    <glyph glyph-name="ntilde" unicode="&#xf1;" 
d="M440 457l14 69h69l-15 -69h-68zM348 457l14 69h70l-16 -69h-68zM420 366l15 68h68l-14 -68h-69zM257 457l14 69h69l-15 -69h-68zM401 274l15 69h69l-16 -69h-68zM165 457l14 69h70l-16 -69h-68zM381 183l15 68h68l-14 -68h-69zM146 366l14 68h69l-15 -68h-68zM361 91
l16 68h69l-15 -68h-70zM126 274l16 69h68l-15 -69h-69zM343 0l14 68h69l-14 -68h-69zM107 183l14 68h69l-15 -68h-68zM87 91l16 68h68l-15 -68h-69zM68 0l15 68h68l-14 -68h-69zM374 583l15 69h68l-14 -69h-69zM466 583l16 69h68l-15 -69h-69zM282 583l15 69h69l-15 -69h-69
zM193 583l15 69h68l-15 -69h-68z" />
    <glyph glyph-name="ograve" unicode="&#xf2;" 
d="M440 457l14 69h69l-15 -69h-68zM348 457l14 69h70l-16 -69h-68zM420 366l15 68h68l-14 -68h-69zM257 457l14 69h69l-15 -69h-68zM401 274l15 69h69l-16 -69h-68zM165 457l14 69h70l-16 -69h-68zM381 183l15 68h68l-14 -68h-69zM146 366l14 68h69l-15 -68h-68zM361 91
l16 68h69l-15 -68h-70zM126 274l16 69h68l-15 -69h-69zM343 0l14 68h69l-14 -68h-69zM107 183l14 68h69l-15 -68h-68zM251 0l15 68h68l-14 -68h-69zM87 91l16 68h68l-15 -68h-69zM160 0l14 68h68l-13 -68h-69zM68 0l15 68h68l-14 -68h-69zM300 663l16 69h67l-14 -69h-69z
M372 572l15 68h68l-14 -68h-69z" />
    <glyph glyph-name="oacute" unicode="&#xf3;" 
d="M440 457l14 69h69l-15 -69h-68zM348 457l14 69h70l-16 -69h-68zM420 366l15 68h68l-14 -68h-69zM257 457l14 69h69l-15 -69h-68zM401 274l15 69h69l-16 -69h-68zM165 457l14 69h70l-16 -69h-68zM381 183l15 68h68l-14 -68h-69zM146 366l14 68h69l-15 -68h-68zM361 91
l16 68h69l-15 -68h-70zM126 274l16 69h68l-15 -69h-69zM343 0l14 68h69l-14 -68h-69zM107 183l14 68h69l-15 -68h-68zM251 0l15 68h68l-14 -68h-69zM87 91l16 68h68l-15 -68h-69zM160 0l14 68h68l-13 -68h-69zM68 0l15 68h68l-14 -68h-69zM392 663l15 69h68l-14 -69h-69z
M281 572l16 68h67l-14 -68h-69z" />
    <glyph glyph-name="ocircumflex" unicode="&#xf4;" 
d="M440 457l14 69h69l-15 -69h-68zM348 457l14 69h70l-16 -69h-68zM420 366l15 68h68l-14 -68h-69zM257 457l14 69h69l-15 -69h-68zM401 274l15 69h69l-16 -69h-68zM165 457l14 69h70l-16 -69h-68zM381 183l15 68h68l-14 -68h-69zM146 366l14 68h69l-15 -68h-68zM361 91
l16 68h69l-15 -68h-70zM126 274l16 69h68l-15 -69h-69zM343 0l14 68h69l-14 -68h-69zM107 183l14 68h69l-15 -68h-68zM251 0l15 68h68l-14 -68h-69zM87 91l16 68h68l-15 -68h-69zM160 0l14 68h68l-13 -68h-69zM68 0l15 68h68l-14 -68h-69zM393 675l15 68h69l-14 -68h-70z
M466 583l16 69h68l-15 -69h-69zM302 675l15 68h68l-14 -68h-69zM193 583l15 69h68l-15 -69h-68z" />
    <glyph glyph-name="otilde" unicode="&#xf5;" 
d="M440 457l14 69h69l-15 -69h-68zM348 457l14 69h70l-16 -69h-68zM420 366l15 68h68l-14 -68h-69zM257 457l14 69h69l-15 -69h-68zM401 274l15 69h69l-16 -69h-68zM165 457l14 69h70l-16 -69h-68zM381 183l15 68h68l-14 -68h-69zM146 366l14 68h69l-15 -68h-68zM361 91
l16 68h69l-15 -68h-70zM126 274l16 69h68l-15 -69h-69zM343 0l14 68h69l-14 -68h-69zM107 183l14 68h69l-15 -68h-68zM251 0l15 68h68l-14 -68h-69zM87 91l16 68h68l-15 -68h-69zM160 0l14 68h68l-13 -68h-69zM68 0l15 68h68l-14 -68h-69zM374 583l15 69h68l-14 -69h-69z
M466 583l16 69h68l-15 -69h-69zM282 583l15 69h69l-15 -69h-69zM193 583l15 69h68l-15 -69h-68z" />
    <glyph glyph-name="odieresis" unicode="&#xf6;" 
d="M440 457l14 69h69l-15 -69h-68zM348 457l14 69h70l-16 -69h-68zM420 366l15 68h68l-14 -68h-69zM257 457l14 69h69l-15 -69h-68zM401 274l15 69h69l-16 -69h-68zM165 457l14 69h70l-16 -69h-68zM381 183l15 68h68l-14 -68h-69zM146 366l14 68h69l-15 -68h-68zM361 91
l16 68h69l-15 -68h-70zM126 274l16 69h68l-15 -69h-69zM343 0l14 68h69l-14 -68h-69zM107 183l14 68h69l-15 -68h-68zM251 0l15 68h68l-14 -68h-69zM87 91l16 68h68l-15 -68h-69zM160 0l14 68h68l-13 -68h-69zM68 0l15 68h68l-14 -68h-69zM478 640l16 69h68l-15 -69h-69z
M205 640l15 69h67l-15 -69h-67z" />
    <glyph glyph-name="divide" unicode="&#xf7;" horiz-adv-x="389" 
d="M309 274l16 69h68l-15 -69h-69zM218 274l15 69h69l-16 -69h-68zM126 274l16 69h68l-15 -69h-69zM321 554l16 68h69l-15 -68h-70zM230 554l16 68h68l-15 -68h-69zM303 463l14 68h68l-13 -68h-69zM211 463l15 68h68l-14 -68h-69zM224 91l16 68h69l-15 -68h-70zM133 91
l16 68h68l-15 -68h-69zM206 0l14 68h68l-13 -68h-69zM114 0l15 68h68l-14 -68h-69z" />
    <glyph glyph-name="oslash" unicode="&#xf8;" horiz-adv-x="483" 
d="M441 457l15 69h68l-14 -69h-69zM350 457l14 69h68l-14 -69h-68zM422 366l14 68h69l-15 -68h-68zM258 457l14 69h69l-14 -69h-69zM402 274l16 69h68l-15 -69h-69zM167 457l14 69h68l-14 -69h-68zM383 183l14 68h69l-13 -68h-70zM147 366l15 68h68l-14 -68h-69zM363 91
l16 68h68l-15 -68h-69zM127 274l16 69h69l-16 -69h-69zM344 0l15 68h68l-14 -68h-69zM109 183l14 68h68l-13 -68h-69zM253 0l14 68h69l-15 -68h-68zM88 91l17 68h68l-15 -68h-70zM161 0l15 68h68l-14 -68h-69zM70 0l14 68h69l-15 -68h-68zM463 554l15 68h69l-15 -68h-69z
M332 369l14 70h68l-13 -70h-69zM311 278l16 68h68l-14 -68h-70zM199 186l15 69h69l-14 -69h-70zM180 94l15 68h70l-16 -68h-69zM49 -89l16 68h68l-15 -68h-69z" />
    <glyph glyph-name="ugrave" unicode="&#xf9;" 
d="M440 457l14 69h69l-15 -69h-68zM420 366l15 68h68l-14 -68h-69zM401 274l15 69h69l-16 -69h-68zM165 457l14 69h70l-16 -69h-68zM381 183l15 68h68l-14 -68h-69zM146 366l14 68h69l-15 -68h-68zM361 91l16 68h69l-15 -68h-70zM126 274l16 69h68l-15 -69h-69zM343 0l14 68
h69l-14 -68h-69zM107 183l14 68h69l-15 -68h-68zM251 0l15 68h68l-14 -68h-69zM87 91l16 68h68l-15 -68h-69zM160 0l14 68h68l-13 -68h-69zM68 0l15 68h68l-14 -68h-69zM300 663l16 69h67l-14 -69h-69zM372 572l15 68h68l-14 -68h-69z" />
    <glyph glyph-name="uacute" unicode="&#xfa;" 
d="M440 457l14 69h69l-15 -69h-68zM420 366l15 68h68l-14 -68h-69zM401 274l15 69h69l-16 -69h-68zM165 457l14 69h70l-16 -69h-68zM381 183l15 68h68l-14 -68h-69zM146 366l14 68h69l-15 -68h-68zM361 91l16 68h69l-15 -68h-70zM126 274l16 69h68l-15 -69h-69zM343 0l14 68
h69l-14 -68h-69zM107 183l14 68h69l-15 -68h-68zM251 0l15 68h68l-14 -68h-69zM87 91l16 68h68l-15 -68h-69zM160 0l14 68h68l-13 -68h-69zM68 0l15 68h68l-14 -68h-69zM392 663l15 69h68l-14 -69h-69zM281 572l16 68h67l-14 -68h-69z" />
    <glyph glyph-name="ucircumflex" unicode="&#xfb;" 
d="M440 457l14 69h69l-15 -69h-68zM420 366l15 68h68l-14 -68h-69zM401 274l15 69h69l-16 -69h-68zM165 457l14 69h70l-16 -69h-68zM381 183l15 68h68l-14 -68h-69zM146 366l14 68h69l-15 -68h-68zM361 91l16 68h69l-15 -68h-70zM126 274l16 69h68l-15 -69h-69zM343 0l14 68
h69l-14 -68h-69zM107 183l14 68h69l-15 -68h-68zM251 0l15 68h68l-14 -68h-69zM87 91l16 68h68l-15 -68h-69zM160 0l14 68h68l-13 -68h-69zM68 0l15 68h68l-14 -68h-69zM393 675l15 68h69l-14 -68h-70zM466 583l16 69h68l-15 -69h-69zM302 675l15 68h68l-14 -68h-69z
M193 583l15 69h68l-15 -69h-68z" />
    <glyph glyph-name="udieresis" unicode="&#xfc;" 
d="M440 457l14 69h69l-15 -69h-68zM420 366l15 68h68l-14 -68h-69zM401 274l15 69h69l-16 -69h-68zM165 457l14 69h70l-16 -69h-68zM381 183l15 68h68l-14 -68h-69zM146 366l14 68h69l-15 -68h-68zM361 91l16 68h69l-15 -68h-70zM126 274l16 69h68l-15 -69h-69zM343 0l14 68
h69l-14 -68h-69zM107 183l14 68h69l-15 -68h-68zM251 0l15 68h68l-14 -68h-69zM87 91l16 68h68l-15 -68h-69zM160 0l14 68h68l-13 -68h-69zM68 0l15 68h68l-14 -68h-69zM478 640l16 69h68l-15 -69h-69zM205 640l15 69h67l-15 -69h-67z" />
    <glyph glyph-name="yacute" unicode="&#xfd;" 
d="M440 457l14 69h69l-15 -69h-68zM420 366l15 68h68l-14 -68h-69zM401 274l15 69h69l-16 -69h-68zM165 457l14 69h70l-16 -69h-68zM381 183l15 68h68l-14 -68h-69zM146 366l14 68h69l-15 -68h-68zM290 183l14 68h69l-15 -68h-68zM361 91l16 68h69l-15 -68h-70zM126 274
l16 69h68l-15 -69h-69zM198 183l15 68h68l-14 -68h-69zM343 0l14 68h69l-14 -68h-69zM107 183l14 68h69l-15 -68h-68zM251 0l15 68h68l-14 -68h-69zM160 0l14 68h68l-13 -68h-69zM68 0l15 68h68l-14 -68h-69zM392 663l15 69h68l-14 -69h-69zM281 572l16 68h67l-14 -68h-69z
" />
    <glyph glyph-name="thorn" unicode="&#xfe;" 
d="M440 457l14 69h69l-15 -69h-68zM204 640l15 69h68l-15 -69h-68zM348 457l14 69h70l-16 -69h-68zM420 366l15 68h68l-14 -68h-69zM185 549l15 68h69l-15 -68h-69zM257 457l14 69h69l-15 -69h-68zM401 274l15 69h69l-16 -69h-68zM165 457l14 69h70l-16 -69h-68zM381 183
l15 68h68l-14 -68h-69zM146 366l14 68h69l-15 -68h-68zM361 91l16 68h69l-15 -68h-70zM126 274l16 69h68l-15 -69h-69zM107 183l14 68h69l-15 -68h-68zM270 91l16 68h68l-14 -68h-70zM87 91l16 68h68l-15 -68h-69zM179 91l15 68h68l-14 -68h-69zM68 0l15 68h68l-14 -68h-69z
" />
    <glyph glyph-name="ydieresis" unicode="&#xff;" 
d="M436 434l14 69h69l-15 -69h-68zM416 343l15 68h68l-14 -68h-69zM397 251l15 69h69l-16 -69h-68zM161 434l14 69h70l-16 -69h-68zM377 160l15 68h68l-14 -68h-69zM142 343l14 68h69l-15 -68h-68zM286 160l14 68h69l-15 -68h-68zM357 68l16 68h69l-15 -68h-70zM122 251
l16 69h68l-15 -69h-69zM194 160l15 68h68l-14 -68h-69zM339 -23l14 68h69l-14 -68h-69zM103 160l14 68h69l-15 -68h-68zM247 -23l15 68h68l-14 -68h-69zM156 -23l14 68h68l-13 -68h-69zM64 -23l15 68h68l-14 -68h-69zM478 647l16 69h68l-15 -69h-69zM205 647l15 69h67
l-15 -69h-67z" />
    <glyph glyph-name="Amacron" unicode="&#x100;" 
d="M478 640l15 69h69l-15 -69h-69zM387 640l15 69h69l-16 -69h-68zM460 549l14 68h70l-16 -68h-68zM295 640l15 69h69l-15 -69h-69zM440 457l14 69h69l-15 -69h-68zM204 640l15 69h68l-15 -69h-68zM420 366l15 68h68l-14 -68h-69zM185 549l15 68h69l-15 -68h-69zM401 274
l15 69h69l-16 -69h-68zM165 457l14 69h70l-16 -69h-68zM381 183l15 68h68l-14 -68h-69zM146 366l14 68h69l-15 -68h-68zM361 91l16 68h69l-15 -68h-70zM126 274l16 69h68l-15 -69h-69zM270 91l16 68h68l-15 -68h-69zM343 0l14 68h69l-14 -68h-69zM107 183l14 68h69l-15 -68
h-68zM178 91l16 68h69l-15 -68h-70zM87 91l16 68h68l-15 -68h-69zM68 0l15 68h68l-14 -68h-69zM412 766l15 69h68l-14 -69h-69zM504 766l16 69h68l-15 -69h-69zM320 766l15 69h69l-15 -69h-69zM231 766l15 69h68l-15 -69h-68z" />
    <glyph glyph-name="amacron" unicode="&#x101;" 
d="M440 457l14 69h69l-15 -69h-68zM348 457l14 69h70l-16 -69h-68zM420 366l15 68h68l-14 -68h-69zM257 457l14 69h69l-15 -69h-68zM401 274l15 69h69l-16 -69h-68zM165 457l14 69h70l-16 -69h-68zM381 183l15 68h68l-14 -68h-69zM290 183l14 68h69l-15 -68h-68zM361 91
l16 68h69l-15 -68h-70zM198 183l15 68h68l-14 -68h-69zM343 0l14 68h69l-14 -68h-69zM107 183l14 68h69l-15 -68h-68zM251 0l15 68h68l-14 -68h-69zM87 91l16 68h68l-15 -68h-69zM160 0l14 68h68l-13 -68h-69zM68 0l15 68h68l-14 -68h-69zM374 583l15 69h68l-14 -69h-69z
M466 583l16 69h68l-15 -69h-69zM282 583l15 69h69l-15 -69h-69zM193 583l15 69h68l-15 -69h-68z" />
    <glyph glyph-name="Abreve" unicode="&#x102;" 
d="M478 640l15 69h69l-15 -69h-69zM387 640l15 69h69l-16 -69h-68zM460 549l14 68h70l-16 -68h-68zM295 640l15 69h69l-15 -69h-69zM440 457l14 69h69l-15 -69h-68zM204 640l15 69h68l-15 -69h-68zM420 366l15 68h68l-14 -68h-69zM185 549l15 68h69l-15 -68h-69zM401 274
l15 69h69l-16 -69h-68zM165 457l14 69h70l-16 -69h-68zM381 183l15 68h68l-14 -68h-69zM146 366l14 68h69l-15 -68h-68zM361 91l16 68h69l-15 -68h-70zM126 274l16 69h68l-15 -69h-69zM270 91l16 68h68l-15 -68h-69zM343 0l14 68h69l-14 -68h-69zM107 183l14 68h69l-15 -68
h-68zM178 91l16 68h69l-15 -68h-70zM87 91l16 68h68l-15 -68h-69zM68 0l15 68h68l-14 -68h-69zM323 766l14 68h69l-14 -68h-69zM250 857l15 69h69l-15 -69h-69zM415 766l14 68h68l-14 -68h-68zM524 857l15 69h68l-14 -69h-69zM231 766l15 69h69l-16 -69h-68zM505 766l15 69
h68l-15 -69h-68z" />
    <glyph glyph-name="abreve" unicode="&#x103;" 
d="M440 457l14 69h69l-15 -69h-68zM348 457l14 69h70l-16 -69h-68zM420 366l15 68h68l-14 -68h-69zM257 457l14 69h69l-15 -69h-68zM401 274l15 69h69l-16 -69h-68zM165 457l14 69h70l-16 -69h-68zM381 183l15 68h68l-14 -68h-69zM290 183l14 68h69l-15 -68h-68zM361 91
l16 68h69l-15 -68h-70zM198 183l15 68h68l-14 -68h-69zM343 0l14 68h69l-14 -68h-69zM107 183l14 68h69l-15 -68h-68zM251 0l15 68h68l-14 -68h-69zM87 91l16 68h68l-15 -68h-69zM160 0l14 68h68l-13 -68h-69zM68 0l15 68h68l-14 -68h-69zM285 583l14 68h69l-14 -68h-69z
M212 674l15 69h69l-15 -69h-69zM377 583l14 68h68l-14 -68h-68zM486 674l15 69h68l-14 -69h-69zM193 583l15 69h69l-16 -69h-68zM467 583l15 69h68l-15 -69h-68z" />
    <glyph glyph-name="Aogonek" unicode="&#x104;" 
d="M478 640l15 69h69l-15 -69h-69zM387 640l15 69h69l-16 -69h-68zM460 549l14 68h70l-16 -68h-68zM295 640l15 69h69l-15 -69h-69zM440 457l14 69h69l-15 -69h-68zM204 640l15 69h68l-15 -69h-68zM420 366l15 68h68l-14 -68h-69zM185 549l15 68h69l-15 -68h-69zM401 274
l15 69h69l-16 -69h-68zM165 457l14 69h70l-16 -69h-68zM381 183l15 68h68l-14 -68h-69zM146 366l14 68h69l-15 -68h-68zM361 91l16 68h69l-15 -68h-70zM126 274l16 69h68l-15 -69h-69zM270 91l16 68h68l-15 -68h-69zM343 0l14 68h69l-14 -68h-69zM107 183l14 68h69l-15 -68
h-68zM178 91l16 68h69l-15 -68h-70zM87 91l16 68h68l-15 -68h-69zM68 0l15 68h68l-14 -68h-69zM285 -274l14 68h68l-13 -68h-69zM194 -274l14 68h68l-14 -68h-68zM213 -183l14 68h69l-14 -68h-69zM324 -91l14 68h69l-15 -68h-68z" />
    <glyph glyph-name="aogonek" unicode="&#x105;" 
d="M440 457l14 69h69l-15 -69h-68zM348 457l14 69h70l-16 -69h-68zM420 366l15 68h68l-14 -68h-69zM257 457l14 69h69l-15 -69h-68zM401 274l15 69h69l-16 -69h-68zM165 457l14 69h70l-16 -69h-68zM381 183l15 68h68l-14 -68h-69zM290 183l14 68h69l-15 -68h-68zM361 91
l16 68h69l-15 -68h-70zM198 183l15 68h68l-14 -68h-69zM343 0l14 68h69l-14 -68h-69zM107 183l14 68h69l-15 -68h-68zM251 0l15 68h68l-14 -68h-69zM87 91l16 68h68l-15 -68h-69zM160 0l14 68h68l-13 -68h-69zM68 0l15 68h68l-14 -68h-69zM285 -274l14 68h68l-13 -68h-69z
M194 -274l14 68h68l-14 -68h-68zM213 -183l14 68h69l-14 -68h-69zM324 -91l14 68h69l-15 -68h-68z" />
    <glyph glyph-name="Cacute" unicode="&#x106;" 
d="M478 640l15 69h69l-15 -69h-69zM387 640l15 69h69l-16 -69h-68zM295 640l15 69h69l-15 -69h-69zM204 640l15 69h68l-15 -69h-68zM185 549l15 68h69l-15 -68h-69zM165 457l14 69h70l-16 -69h-68zM146 366l14 68h69l-15 -68h-68zM126 274l16 69h68l-15 -69h-69zM343 0
l14 68h69l-14 -68h-69zM107 183l14 68h69l-15 -68h-68zM251 0l15 68h68l-14 -68h-69zM87 91l16 68h68l-15 -68h-69zM160 0l14 68h68l-13 -68h-69zM68 0l15 68h68l-14 -68h-69zM430 846l15 69h68l-14 -69h-69zM319 755l16 68h67l-14 -68h-69z" />
    <glyph glyph-name="cacute" unicode="&#x107;" 
d="M440 457l14 69h69l-15 -69h-68zM348 457l14 69h70l-16 -69h-68zM257 457l14 69h69l-15 -69h-68zM165 457l14 69h70l-16 -69h-68zM146 366l14 68h69l-15 -68h-68zM126 274l16 69h68l-15 -69h-69zM343 0l14 68h69l-14 -68h-69zM107 183l14 68h69l-15 -68h-68zM251 0l15 68
h68l-14 -68h-69zM87 91l16 68h68l-15 -68h-69zM160 0l14 68h68l-13 -68h-69zM68 0l15 68h68l-14 -68h-69zM392 663l15 69h68l-14 -69h-69zM281 572l16 68h67l-14 -68h-69z" />
    <glyph glyph-name="Cdotaccent" unicode="&#x10a;" 
d="M478 640l15 69h69l-15 -69h-69zM387 640l15 69h69l-16 -69h-68zM295 640l15 69h69l-15 -69h-69zM204 640l15 69h68l-15 -69h-68zM185 549l15 68h69l-15 -68h-69zM165 457l14 69h70l-16 -69h-68zM146 366l14 68h69l-15 -68h-68zM126 274l16 69h68l-15 -69h-69zM343 0
l14 68h69l-14 -68h-69zM107 183l14 68h69l-15 -68h-68zM251 0l15 68h68l-14 -68h-69zM87 91l16 68h68l-15 -68h-69zM160 0l14 68h68l-13 -68h-69zM68 0l15 68h68l-14 -68h-69zM381 823l15 69h67l-15 -69h-67z" />
    <glyph glyph-name="cdotaccent" unicode="&#x10b;" 
d="M440 457l14 69h69l-15 -69h-68zM348 457l14 69h70l-16 -69h-68zM257 457l14 69h69l-15 -69h-68zM165 457l14 69h70l-16 -69h-68zM146 366l14 68h69l-15 -68h-68zM126 274l16 69h68l-15 -69h-69zM343 0l14 68h69l-14 -68h-69zM107 183l14 68h69l-15 -68h-68zM251 0l15 68
h68l-14 -68h-69zM87 91l16 68h68l-15 -68h-69zM160 0l14 68h68l-13 -68h-69zM68 0l15 68h68l-14 -68h-69zM342 640l15 69h67l-15 -69h-67z" />
    <glyph glyph-name="Ccaron" unicode="&#x10c;" 
d="M478 640l15 69h69l-15 -69h-69zM387 640l15 69h69l-16 -69h-68zM295 640l15 69h69l-15 -69h-69zM204 640l15 69h68l-15 -69h-68zM185 549l15 68h69l-15 -68h-69zM165 457l14 69h70l-16 -69h-68zM146 366l14 68h69l-15 -68h-68zM126 274l16 69h68l-15 -69h-69zM343 0
l14 68h69l-14 -68h-69zM107 183l14 68h69l-15 -68h-68zM251 0l15 68h68l-14 -68h-69zM87 91l16 68h68l-15 -68h-69zM160 0l14 68h68l-13 -68h-69zM68 0l15 68h68l-14 -68h-69zM323 766l14 68h69l-14 -68h-69zM250 857l15 69h69l-15 -69h-69zM415 766l14 68h68l-14 -68h-68z
M524 857l15 69h68l-14 -69h-69z" />
    <glyph glyph-name="ccaron" unicode="&#x10d;" 
d="M440 457l14 69h69l-15 -69h-68zM348 457l14 69h70l-16 -69h-68zM257 457l14 69h69l-15 -69h-68zM165 457l14 69h70l-16 -69h-68zM146 366l14 68h69l-15 -68h-68zM126 274l16 69h68l-15 -69h-69zM343 0l14 68h69l-14 -68h-69zM107 183l14 68h69l-15 -68h-68zM251 0l15 68
h68l-14 -68h-69zM87 91l16 68h68l-15 -68h-69zM160 0l14 68h68l-13 -68h-69zM68 0l15 68h68l-14 -68h-69zM285 583l14 68h69l-14 -68h-69zM212 674l15 69h69l-15 -69h-69zM377 583l14 68h68l-14 -68h-68zM486 674l15 69h68l-14 -69h-69z" />
    <glyph glyph-name="Dcaron" unicode="&#x10e;" 
d="M478 640l15 69h69l-15 -69h-69zM387 640l15 69h69l-16 -69h-68zM460 549l14 68h70l-16 -68h-68zM295 640l15 69h69l-15 -69h-69zM440 457l14 69h69l-15 -69h-68zM204 640l15 69h68l-15 -69h-68zM277 549l14 68h70l-16 -68h-68zM420 366l15 68h68l-14 -68h-69zM257 457
l14 69h69l-15 -69h-68zM401 274l15 69h69l-16 -69h-68zM237 366l15 68h68l-14 -68h-69zM381 183l15 68h68l-14 -68h-69zM218 274l15 69h69l-16 -69h-68zM361 91l16 68h69l-15 -68h-70zM198 183l15 68h68l-14 -68h-69zM343 0l14 68h69l-14 -68h-69zM178 91l16 68h69l-15 -68
h-70zM251 0l15 68h68l-14 -68h-69zM160 0l14 68h68l-13 -68h-69zM68 0l15 68h68l-14 -68h-69zM323 766l14 68h69l-14 -68h-69zM250 857l15 69h69l-15 -69h-69zM415 766l14 68h68l-14 -68h-68zM524 857l15 69h68l-14 -69h-69z" />
    <glyph glyph-name="dcaron" unicode="&#x10f;" horiz-adv-x="570" 
d="M478 640l15 69h69l-15 -69h-69zM460 549l14 68h70l-16 -68h-68zM440 457l14 69h69l-15 -69h-68zM348 457l14 69h70l-16 -69h-68zM420 366l15 68h68l-14 -68h-69zM257 457l14 69h69l-15 -69h-68zM401 274l15 69h69l-16 -69h-68zM165 457l14 69h70l-16 -69h-68zM381 183
l15 68h68l-14 -68h-69zM146 366l14 68h69l-15 -68h-68zM361 91l16 68h69l-15 -68h-70zM126 274l16 69h68l-15 -69h-69zM343 0l14 68h69l-14 -68h-69zM107 183l14 68h69l-15 -68h-68zM251 0l15 68h68l-14 -68h-69zM87 91l16 68h68l-15 -68h-69zM160 0l14 68h68l-13 -68h-69z
M68 0l15 68h68l-14 -68h-69zM551 550l14 68h69l-14 -68h-69zM637 641l15 69h68l-14 -69h-69z" />
    <glyph glyph-name="Dcroat" unicode="&#x110;" 
d="M478 640l15 69h69l-15 -69h-69zM387 640l15 69h69l-16 -69h-68zM460 549l14 68h70l-16 -68h-68zM295 640l15 69h69l-15 -69h-69zM440 457l14 69h69l-15 -69h-68zM204 640l15 69h68l-15 -69h-68zM277 549l14 68h70l-16 -68h-68zM420 366l15 68h68l-14 -68h-69zM257 457
l14 69h69l-15 -69h-68zM401 274l15 69h69l-16 -69h-68zM237 366l15 68h68l-14 -68h-69zM381 183l15 68h68l-14 -68h-69zM218 274l15 69h69l-16 -69h-68zM361 91l16 68h69l-15 -68h-70zM198 183l15 68h68l-14 -68h-69zM343 0l14 68h69l-14 -68h-69zM178 91l16 68h69l-15 -68
h-70zM251 0l15 68h68l-14 -68h-69zM160 0l14 68h68l-13 -68h-69zM68 0l15 68h68l-14 -68h-69zM106 183l15 68h68l-14 -68h-69z" />
    <glyph glyph-name="dcroat" unicode="&#x111;" 
d="M460 549l14 68h70l-16 -68h-68zM440 457l14 69h69l-15 -69h-68zM348 457l14 69h70l-16 -69h-68zM420 366l15 68h68l-14 -68h-69zM257 457l14 69h69l-15 -69h-68zM401 274l15 69h69l-16 -69h-68zM165 457l14 69h70l-16 -69h-68zM381 183l15 68h68l-14 -68h-69zM146 366
l14 68h69l-15 -68h-68zM361 91l16 68h69l-15 -68h-70zM126 274l16 69h68l-15 -69h-69zM343 0l14 68h69l-14 -68h-69zM107 183l14 68h69l-15 -68h-68zM251 0l15 68h68l-14 -68h-69zM87 91l16 68h68l-15 -68h-69zM160 0l14 68h68l-13 -68h-69zM68 0l15 68h68l-14 -68h-69z
M478 640l15 69h68l-15 -69h-68zM570 640l15 69h69l-15 -69h-69zM386 640l15 69h69l-16 -69h-68zM297 640l14 69h69l-15 -69h-68z" />
    <glyph glyph-name="Emacron" unicode="&#x112;" 
d="M478 640l15 69h69l-15 -69h-69zM387 640l15 69h69l-16 -69h-68zM295 640l15 69h69l-15 -69h-69zM204 640l15 69h68l-15 -69h-68zM185 549l15 68h69l-15 -68h-69zM165 457l14 69h70l-16 -69h-68zM381 183l15 68h68l-14 -68h-69zM146 366l14 68h69l-15 -68h-68zM290 183
l14 68h69l-15 -68h-68zM126 274l16 69h68l-15 -69h-69zM198 183l15 68h68l-14 -68h-69zM343 0l14 68h69l-14 -68h-69zM107 183l14 68h69l-15 -68h-68zM251 0l15 68h68l-14 -68h-69zM87 91l16 68h68l-15 -68h-69zM160 0l14 68h68l-13 -68h-69zM68 0l15 68h68l-14 -68h-69z
M412 766l15 69h68l-14 -69h-69zM504 766l16 69h68l-15 -69h-69zM320 766l15 69h69l-15 -69h-69zM231 766l15 69h68l-15 -69h-68z" />
    <glyph glyph-name="emacron" unicode="&#x113;" 
d="M440 457l14 69h69l-15 -69h-68zM348 457l14 69h70l-16 -69h-68zM420 366l15 68h68l-14 -68h-69zM257 457l14 69h69l-15 -69h-68zM401 274l15 69h69l-16 -69h-68zM165 457l14 69h70l-16 -69h-68zM381 183l15 68h68l-14 -68h-69zM146 366l14 68h69l-15 -68h-68zM290 183
l14 68h69l-15 -68h-68zM126 274l16 69h68l-15 -69h-69zM198 183l15 68h68l-14 -68h-69zM343 0l14 68h69l-14 -68h-69zM107 183l14 68h69l-15 -68h-68zM251 0l15 68h68l-14 -68h-69zM87 91l16 68h68l-15 -68h-69zM160 0l14 68h68l-13 -68h-69zM68 0l15 68h68l-14 -68h-69z
M374 583l15 69h68l-14 -69h-69zM466 583l16 69h68l-15 -69h-69zM282 583l15 69h69l-15 -69h-69zM193 583l15 69h68l-15 -69h-68z" />
    <glyph glyph-name="Ebreve" unicode="&#x114;" 
d="M478 640l15 69h69l-15 -69h-69zM387 640l15 69h69l-16 -69h-68zM295 640l15 69h69l-15 -69h-69zM204 640l15 69h68l-15 -69h-68zM185 549l15 68h69l-15 -68h-69zM165 457l14 69h70l-16 -69h-68zM381 183l15 68h68l-14 -68h-69zM146 366l14 68h69l-15 -68h-68zM290 183
l14 68h69l-15 -68h-68zM126 274l16 69h68l-15 -69h-69zM198 183l15 68h68l-14 -68h-69zM343 0l14 68h69l-14 -68h-69zM107 183l14 68h69l-15 -68h-68zM251 0l15 68h68l-14 -68h-69zM87 91l16 68h68l-15 -68h-69zM160 0l14 68h68l-13 -68h-69zM68 0l15 68h68l-14 -68h-69z
M323 766l14 68h69l-14 -68h-69zM250 857l15 69h69l-15 -69h-69zM415 766l14 68h68l-14 -68h-68zM524 857l15 69h68l-14 -69h-69zM231 766l15 69h69l-16 -69h-68zM505 766l15 69h68l-15 -69h-68z" />
    <glyph glyph-name="ebreve" unicode="&#x115;" 
d="M440 457l14 69h69l-15 -69h-68zM348 457l14 69h70l-16 -69h-68zM420 366l15 68h68l-14 -68h-69zM257 457l14 69h69l-15 -69h-68zM401 274l15 69h69l-16 -69h-68zM165 457l14 69h70l-16 -69h-68zM381 183l15 68h68l-14 -68h-69zM146 366l14 68h69l-15 -68h-68zM290 183
l14 68h69l-15 -68h-68zM126 274l16 69h68l-15 -69h-69zM198 183l15 68h68l-14 -68h-69zM343 0l14 68h69l-14 -68h-69zM107 183l14 68h69l-15 -68h-68zM251 0l15 68h68l-14 -68h-69zM87 91l16 68h68l-15 -68h-69zM160 0l14 68h68l-13 -68h-69zM68 0l15 68h68l-14 -68h-69z
M285 583l14 68h69l-14 -68h-69zM212 674l15 69h69l-15 -69h-69zM377 583l14 68h68l-14 -68h-68zM486 674l15 69h68l-14 -69h-69zM193 583l15 69h69l-16 -69h-68zM467 583l15 69h68l-15 -69h-68z" />
    <glyph glyph-name="Edotaccent" unicode="&#x116;" 
d="M478 640l15 69h69l-15 -69h-69zM387 640l15 69h69l-16 -69h-68zM295 640l15 69h69l-15 -69h-69zM204 640l15 69h68l-15 -69h-68zM185 549l15 68h69l-15 -68h-69zM165 457l14 69h70l-16 -69h-68zM381 183l15 68h68l-14 -68h-69zM146 366l14 68h69l-15 -68h-68zM290 183
l14 68h69l-15 -68h-68zM126 274l16 69h68l-15 -69h-69zM198 183l15 68h68l-14 -68h-69zM343 0l14 68h69l-14 -68h-69zM107 183l14 68h69l-15 -68h-68zM251 0l15 68h68l-14 -68h-69zM87 91l16 68h68l-15 -68h-69zM160 0l14 68h68l-13 -68h-69zM68 0l15 68h68l-14 -68h-69z
M381 823l15 69h67l-15 -69h-67z" />
    <glyph glyph-name="edotaccent" unicode="&#x117;" 
d="M440 457l14 69h69l-15 -69h-68zM348 457l14 69h70l-16 -69h-68zM420 366l15 68h68l-14 -68h-69zM257 457l14 69h69l-15 -69h-68zM401 274l15 69h69l-16 -69h-68zM165 457l14 69h70l-16 -69h-68zM381 183l15 68h68l-14 -68h-69zM146 366l14 68h69l-15 -68h-68zM290 183
l14 68h69l-15 -68h-68zM126 274l16 69h68l-15 -69h-69zM198 183l15 68h68l-14 -68h-69zM343 0l14 68h69l-14 -68h-69zM107 183l14 68h69l-15 -68h-68zM251 0l15 68h68l-14 -68h-69zM87 91l16 68h68l-15 -68h-69zM160 0l14 68h68l-13 -68h-69zM68 0l15 68h68l-14 -68h-69z
M342 640l15 69h67l-15 -69h-67z" />
    <glyph glyph-name="Eogonek" unicode="&#x118;" 
d="M478 640l15 69h69l-15 -69h-69zM387 640l15 69h69l-16 -69h-68zM295 640l15 69h69l-15 -69h-69zM204 640l15 69h68l-15 -69h-68zM185 549l15 68h69l-15 -68h-69zM165 457l14 69h70l-16 -69h-68zM381 183l15 68h68l-14 -68h-69zM146 366l14 68h69l-15 -68h-68zM290 183
l14 68h69l-15 -68h-68zM126 274l16 69h68l-15 -69h-69zM198 183l15 68h68l-14 -68h-69zM343 0l14 68h69l-14 -68h-69zM107 183l14 68h69l-15 -68h-68zM251 0l15 68h68l-14 -68h-69zM87 91l16 68h68l-15 -68h-69zM160 0l14 68h68l-13 -68h-69zM68 0l15 68h68l-14 -68h-69z
M285 -274l14 68h68l-13 -68h-69zM194 -274l14 68h68l-14 -68h-68zM213 -183l14 68h69l-14 -68h-69zM324 -91l14 68h69l-15 -68h-68z" />
    <glyph glyph-name="eogonek" unicode="&#x119;" 
d="M440 457l14 69h69l-15 -69h-68zM348 457l14 69h70l-16 -69h-68zM420 366l15 68h68l-14 -68h-69zM257 457l14 69h69l-15 -69h-68zM401 274l15 69h69l-16 -69h-68zM165 457l14 69h70l-16 -69h-68zM381 183l15 68h68l-14 -68h-69zM146 366l14 68h69l-15 -68h-68zM290 183
l14 68h69l-15 -68h-68zM126 274l16 69h68l-15 -69h-69zM198 183l15 68h68l-14 -68h-69zM343 0l14 68h69l-14 -68h-69zM107 183l14 68h69l-15 -68h-68zM251 0l15 68h68l-14 -68h-69zM87 91l16 68h68l-15 -68h-69zM160 0l14 68h68l-13 -68h-69zM68 0l15 68h68l-14 -68h-69z
M285 -274l14 68h68l-13 -68h-69zM194 -274l14 68h68l-14 -68h-68zM213 -183l14 68h69l-14 -68h-69zM324 -91l14 68h69l-15 -68h-68z" />
    <glyph glyph-name="Ecaron" unicode="&#x11a;" 
d="M478 640l15 69h69l-15 -69h-69zM387 640l15 69h69l-16 -69h-68zM295 640l15 69h69l-15 -69h-69zM204 640l15 69h68l-15 -69h-68zM185 549l15 68h69l-15 -68h-69zM165 457l14 69h70l-16 -69h-68zM381 183l15 68h68l-14 -68h-69zM146 366l14 68h69l-15 -68h-68zM290 183
l14 68h69l-15 -68h-68zM126 274l16 69h68l-15 -69h-69zM198 183l15 68h68l-14 -68h-69zM343 0l14 68h69l-14 -68h-69zM107 183l14 68h69l-15 -68h-68zM251 0l15 68h68l-14 -68h-69zM87 91l16 68h68l-15 -68h-69zM160 0l14 68h68l-13 -68h-69zM68 0l15 68h68l-14 -68h-69z
M323 766l14 68h69l-14 -68h-69zM250 857l15 69h69l-15 -69h-69zM415 766l14 68h68l-14 -68h-68zM524 857l15 69h68l-14 -69h-69z" />
    <glyph glyph-name="ecaron" unicode="&#x11b;" 
d="M440 457l14 69h69l-15 -69h-68zM348 457l14 69h70l-16 -69h-68zM420 366l15 68h68l-14 -68h-69zM257 457l14 69h69l-15 -69h-68zM401 274l15 69h69l-16 -69h-68zM165 457l14 69h70l-16 -69h-68zM381 183l15 68h68l-14 -68h-69zM146 366l14 68h69l-15 -68h-68zM290 183
l14 68h69l-15 -68h-68zM126 274l16 69h68l-15 -69h-69zM198 183l15 68h68l-14 -68h-69zM343 0l14 68h69l-14 -68h-69zM107 183l14 68h69l-15 -68h-68zM251 0l15 68h68l-14 -68h-69zM87 91l16 68h68l-15 -68h-69zM160 0l14 68h68l-13 -68h-69zM68 0l15 68h68l-14 -68h-69z
M285 583l14 68h69l-14 -68h-69zM212 674l15 69h69l-15 -69h-69zM377 583l14 68h68l-14 -68h-68zM486 674l15 69h68l-14 -69h-69z" />
    <glyph glyph-name="Gbreve" unicode="&#x11e;" 
d="M478 640l15 69h69l-15 -69h-69zM387 640l15 69h69l-16 -69h-68zM295 640l15 69h69l-15 -69h-69zM440 457l14 69h69l-15 -69h-68zM204 640l15 69h68l-15 -69h-68zM348 457l14 69h70l-16 -69h-68zM420 366l15 68h68l-14 -68h-69zM185 549l15 68h69l-15 -68h-69zM401 274
l15 69h69l-16 -69h-68zM165 457l14 69h70l-16 -69h-68zM381 183l15 68h68l-14 -68h-69zM146 366l14 68h69l-15 -68h-68zM361 91l16 68h69l-15 -68h-70zM126 274l16 69h68l-15 -69h-69zM343 0l14 68h69l-14 -68h-69zM107 183l14 68h69l-15 -68h-68zM251 0l15 68h68l-14 -68
h-69zM87 91l16 68h68l-15 -68h-69zM160 0l14 68h68l-13 -68h-69zM68 0l15 68h68l-14 -68h-69zM323 766l14 68h69l-14 -68h-69zM250 857l15 69h69l-15 -69h-69zM415 766l14 68h68l-14 -68h-68zM524 857l15 69h68l-14 -69h-69zM231 766l15 69h69l-16 -69h-68zM505 766l15 69
h68l-15 -69h-68z" />
    <glyph glyph-name="gbreve" unicode="&#x11f;" 
d="M440 457l14 69h69l-15 -69h-68zM348 457l14 69h70l-16 -69h-68zM420 366l15 68h68l-14 -68h-69zM257 457l14 69h69l-15 -69h-68zM401 274l15 69h69l-16 -69h-68zM165 457l14 69h70l-16 -69h-68zM381 183l15 68h68l-14 -68h-69zM146 366l14 68h69l-15 -68h-68zM290 183
l14 68h69l-15 -68h-68zM361 91l16 68h69l-15 -68h-70zM126 274l16 69h68l-15 -69h-69zM198 183l15 68h68l-14 -68h-69zM343 0l14 68h69l-14 -68h-69zM107 183l14 68h69l-15 -68h-68zM251 0l15 68h68l-14 -68h-69zM160 0l14 68h68l-13 -68h-69zM68 0l15 68h68l-14 -68h-69z
M285 583l14 68h69l-14 -68h-69zM212 674l15 69h69l-15 -69h-69zM377 583l14 68h68l-14 -68h-68zM486 674l15 69h68l-14 -69h-69zM193 583l15 69h69l-16 -69h-68zM467 583l15 69h68l-15 -69h-68z" />
    <glyph glyph-name="Gdotaccent" unicode="&#x120;" 
d="M478 640l15 69h69l-15 -69h-69zM387 640l15 69h69l-16 -69h-68zM295 640l15 69h69l-15 -69h-69zM440 457l14 69h69l-15 -69h-68zM204 640l15 69h68l-15 -69h-68zM348 457l14 69h70l-16 -69h-68zM420 366l15 68h68l-14 -68h-69zM185 549l15 68h69l-15 -68h-69zM401 274
l15 69h69l-16 -69h-68zM165 457l14 69h70l-16 -69h-68zM381 183l15 68h68l-14 -68h-69zM146 366l14 68h69l-15 -68h-68zM361 91l16 68h69l-15 -68h-70zM126 274l16 69h68l-15 -69h-69zM343 0l14 68h69l-14 -68h-69zM107 183l14 68h69l-15 -68h-68zM251 0l15 68h68l-14 -68
h-69zM87 91l16 68h68l-15 -68h-69zM160 0l14 68h68l-13 -68h-69zM68 0l15 68h68l-14 -68h-69zM381 823l15 69h67l-15 -69h-67z" />
    <glyph glyph-name="gdotaccent" unicode="&#x121;" 
d="M440 457l14 69h69l-15 -69h-68zM348 457l14 69h70l-16 -69h-68zM420 366l15 68h68l-14 -68h-69zM257 457l14 69h69l-15 -69h-68zM401 274l15 69h69l-16 -69h-68zM165 457l14 69h70l-16 -69h-68zM381 183l15 68h68l-14 -68h-69zM146 366l14 68h69l-15 -68h-68zM290 183
l14 68h69l-15 -68h-68zM361 91l16 68h69l-15 -68h-70zM126 274l16 69h68l-15 -69h-69zM198 183l15 68h68l-14 -68h-69zM343 0l14 68h69l-14 -68h-69zM107 183l14 68h69l-15 -68h-68zM251 0l15 68h68l-14 -68h-69zM160 0l14 68h68l-13 -68h-69zM68 0l15 68h68l-14 -68h-69z
M342 640l15 69h67l-15 -69h-67z" />
    <glyph glyph-name="Gcommaaccent" unicode="&#x122;" 
d="M478 640l15 69h69l-15 -69h-69zM387 640l15 69h69l-16 -69h-68zM295 640l15 69h69l-15 -69h-69zM440 457l14 69h69l-15 -69h-68zM204 640l15 69h68l-15 -69h-68zM348 457l14 69h70l-16 -69h-68zM420 366l15 68h68l-14 -68h-69zM185 549l15 68h69l-15 -68h-69zM401 274
l15 69h69l-16 -69h-68zM165 457l14 69h70l-16 -69h-68zM381 183l15 68h68l-14 -68h-69zM146 366l14 68h69l-15 -68h-68zM361 91l16 68h69l-15 -68h-70zM126 274l16 69h68l-15 -69h-69zM343 0l14 68h69l-14 -68h-69zM107 183l14 68h69l-15 -68h-68zM251 0l15 68h68l-14 -68
h-69zM87 91l16 68h68l-15 -68h-69zM160 0l14 68h68l-13 -68h-69zM68 0l15 68h68l-14 -68h-69zM230 -91l16 68h68l-15 -68h-69zM211 -183l16 68h69l-16 -68h-69zM193 -274l14 68h68l-14 -68h-68zM101 -274l15 68h68l-14 -68h-69z" />
    <glyph glyph-name="gcommaaccent" unicode="&#x123;" 
d="M440 457l14 69h69l-15 -69h-68zM348 457l14 69h70l-16 -69h-68zM420 366l15 68h68l-14 -68h-69zM257 457l14 69h69l-15 -69h-68zM401 274l15 69h69l-16 -69h-68zM165 457l14 69h70l-16 -69h-68zM381 183l15 68h68l-14 -68h-69zM146 366l14 68h69l-15 -68h-68zM290 183
l14 68h69l-15 -68h-68zM361 91l16 68h69l-15 -68h-70zM126 274l16 69h68l-15 -69h-69zM198 183l15 68h68l-14 -68h-69zM343 0l14 68h69l-14 -68h-69zM107 183l14 68h69l-15 -68h-68zM251 0l15 68h68l-14 -68h-69zM160 0l14 68h68l-13 -68h-69zM68 0l15 68h68l-14 -68h-69z
M361.009 616.994l-15.999 -67.9951h-67.9961l14.999 67.9951h68.9961zM380.008 708.989l-16 -67.9961h-68.9951l15.999 67.9961h68.9961zM398.006 799.983l-13.999 -67.9961h-67.9951l13.999 67.9961h67.9951zM490.001 799.983l-14.999 -67.9961h-67.9961l13.999 67.9961
h68.9961z" />
    <glyph glyph-name="Hbar" unicode="&#x126;" 
d="M478 640l15 69h69l-15 -69h-69zM460 549l14 68h70l-16 -68h-68zM440 457l14 69h69l-15 -69h-68zM204 640l15 69h68l-15 -69h-68zM420 366l15 68h68l-14 -68h-69zM185 549l15 68h69l-15 -68h-69zM401 274l15 69h69l-16 -69h-68zM165 457l14 69h70l-16 -69h-68zM381 183
l15 68h68l-14 -68h-69zM146 366l14 68h69l-15 -68h-68zM361 91l16 68h69l-15 -68h-70zM126 274l16 69h68l-15 -69h-69zM270 91l16 68h68l-15 -68h-69zM343 0l14 68h69l-14 -68h-69zM107 183l14 68h69l-15 -68h-68zM178 91l16 68h69l-15 -68h-70zM87 91l16 68h68l-15 -68h-69
zM68 0l15 68h68l-14 -68h-69zM347 457l14 69h69l-15 -69h-68zM255 457l14 69h70l-16 -69h-68z" />
    <glyph glyph-name="hbar" unicode="&#x127;" 
d="M440 457l14 69h69l-15 -69h-68zM348 457l14 69h70l-16 -69h-68zM420 366l15 68h68l-14 -68h-69zM185 549l15 68h69l-15 -68h-69zM257 457l14 69h69l-15 -69h-68zM401 274l15 69h69l-16 -69h-68zM165 457l14 69h70l-16 -69h-68zM381 183l15 68h68l-14 -68h-69zM146 366
l14 68h69l-15 -68h-68zM361 91l16 68h69l-15 -68h-70zM126 274l16 69h68l-15 -69h-69zM343 0l14 68h69l-14 -68h-69zM107 183l14 68h69l-15 -68h-68zM87 91l16 68h68l-15 -68h-69zM68 0l15 68h68l-14 -68h-69zM295 640l15 69h68l-15 -69h-68zM387 640l15 69h69l-15 -69h-69z
M203 640l15 69h69l-16 -69h-68zM114 640l14 69h69l-15 -69h-68z" />
    <glyph glyph-name="uni012A" unicode="&#x12a;" horiz-adv-x="346" 
d="M363 640l15 69h69l-15 -69h-69zM271 640l16 69h68l-14 -69h-70zM180 640l15 69h68l-14 -69h-69zM253 549l15 68h69l-16 -68h-68zM233 457l15 69h68l-15 -69h-68zM213 366l16 68h68l-15 -68h-69zM194 274l15 69h70l-17 -69h-68zM174 183l15 68h69l-15 -68h-69zM155 91
l15 68h69l-15 -68h-69zM228 0l14 68h68l-13 -68h-69zM137 0l13 68h69l-14 -68h-68zM45 0l14 68h68l-13 -68h-69zM347 766l15 69h68l-14 -69h-69zM439 766l16 69h68l-15 -69h-69zM255 766l15 69h69l-15 -69h-69zM166 766l15 69h68l-15 -69h-68z" />
    <glyph glyph-name="imacron" unicode="&#x12b;" horiz-adv-x="264" 
d="M223 457l15 69h68l-15 -69h-68zM131 457l15 69h69l-16 -69h-68zM203 366l16 68h68l-15 -68h-69zM184 274l15 69h70l-17 -69h-68zM164 183l15 68h69l-15 -68h-69zM145 91l15 68h69l-15 -68h-69zM127 0l13 68h68l-13 -68h-68zM252 583l15 69h68l-14 -69h-69zM344 583l16 69
h68l-15 -69h-69zM160 583l15 69h69l-15 -69h-69zM71 583l15 69h68l-15 -69h-68z" />
    <glyph glyph-name="Ibreve" unicode="&#x12c;" horiz-adv-x="346" 
d="M363 640l15 69h69l-15 -69h-69zM271 640l16 69h68l-14 -69h-70zM180 640l15 69h68l-14 -69h-69zM253 549l15 68h69l-16 -68h-68zM233 457l15 69h68l-15 -69h-68zM213 366l16 68h68l-15 -68h-69zM194 274l15 69h70l-17 -69h-68zM174 183l15 68h69l-15 -68h-69zM155 91
l15 68h69l-15 -68h-69zM228 0l14 68h68l-13 -68h-69zM137 0l13 68h69l-14 -68h-68zM45 0l14 68h68l-13 -68h-69zM258 766l14 68h69l-14 -68h-69zM185 857l15 69h69l-15 -69h-69zM350 766l14 68h68l-14 -68h-68zM459 857l15 69h68l-14 -69h-69zM166 766l15 69h69l-16 -69h-68
zM440 766l15 69h68l-15 -69h-68z" />
    <glyph glyph-name="ibreve" unicode="&#x12d;" horiz-adv-x="264" 
d="M223 457l15 69h68l-15 -69h-68zM131 457l15 69h69l-16 -69h-68zM203 366l16 68h68l-15 -68h-69zM184 274l15 69h70l-17 -69h-68zM164 183l15 68h69l-15 -68h-69zM145 91l15 68h69l-15 -68h-69zM127 0l13 68h68l-13 -68h-68zM157 583l14 68h69l-14 -68h-69zM84 674l15 69
h69l-15 -69h-69zM249 583l14 68h68l-14 -68h-68zM358 674l15 69h68l-14 -69h-69zM65 583l15 69h69l-16 -69h-68zM339 583l15 69h68l-15 -69h-68z" />
    <glyph glyph-name="Iogonek" unicode="&#x12e;" horiz-adv-x="346" 
d="M363 640l15 69h69l-15 -69h-69zM271 640l16 69h68l-14 -69h-70zM180 640l15 69h68l-14 -69h-69zM253 549l15 68h69l-16 -68h-68zM233 457l15 69h68l-15 -69h-68zM213 366l16 68h68l-15 -68h-69zM194 274l15 69h70l-17 -69h-68zM174 183l15 68h69l-15 -68h-69zM155 91
l15 68h69l-15 -68h-69zM228 0l14 68h68l-13 -68h-69zM137 0l13 68h69l-14 -68h-68zM45 0l14 68h68l-13 -68h-69zM76 -274l14 68h68l-12 -68h-70zM-14 -274l14 68h67l-13 -68h-68zM5 -183l13 68h69l-13 -68h-69zM116 -91l13 68h69l-14 -68h-68z" />
    <glyph glyph-name="iogonek" unicode="&#x12f;" horiz-adv-x="264" 
d="M261 640l16 69h68l-14 -69h-70zM223 457l15 69h68l-15 -69h-68zM131 457l15 69h69l-16 -69h-68zM203 366l16 68h68l-15 -68h-69zM184 274l15 69h70l-17 -69h-68zM164 183l15 68h69l-15 -68h-69zM145 91l15 68h69l-15 -68h-69zM127 0l13 68h68l-13 -68h-68zM68 -274l14 68
h68l-13 -68h-69zM-22 -274l14 68h67l-13 -68h-68zM-3 -183l13 68h69l-13 -68h-69zM107 -91l14 68h69l-14 -68h-69z" />
    <glyph glyph-name="Idotaccent" unicode="&#x130;" horiz-adv-x="346" 
d="M363 640l15 69h69l-15 -69h-69zM271 640l16 69h68l-14 -69h-70zM180 640l15 69h68l-14 -69h-69zM253 549l15 68h69l-16 -68h-68zM233 457l15 69h68l-15 -69h-68zM213 366l16 68h68l-15 -68h-69zM194 274l15 69h70l-17 -69h-68zM174 183l15 68h69l-15 -68h-69zM155 91
l15 68h69l-15 -68h-69zM228 0l14 68h68l-13 -68h-69zM137 0l13 68h69l-14 -68h-68zM45 0l14 68h68l-13 -68h-69zM313 823l15 69h67l-15 -69h-67z" />
    <glyph glyph-name="dotlessi" unicode="&#x131;" horiz-adv-x="264" 
d="M223 457l15 69h68l-15 -69h-68zM131 457l15 69h69l-16 -69h-68zM203 366l16 68h68l-15 -68h-69zM184 274l15 69h70l-17 -69h-68zM164 183l15 68h69l-15 -68h-69zM145 91l15 68h69l-15 -68h-69zM127 0l13 68h68l-13 -68h-68z" />
    <glyph glyph-name="IJ" unicode="&#x132;" horiz-adv-x="799" 
d="M363 640l15 69h69l-15 -69h-69zM271 640l16 69h68l-14 -69h-70zM180 640l15 69h68l-14 -69h-69zM253 549l15 68h69l-16 -68h-68zM233 457l15 69h68l-15 -69h-68zM213 366l16 68h68l-15 -68h-69zM194 274l15 69h70l-17 -69h-68zM174 183l15 68h69l-15 -68h-69zM155 91
l15 68h69l-15 -68h-69zM228 0l14 68h68l-13 -68h-69zM137 0l13 68h69l-14 -68h-68zM45 0l14 68h68l-13 -68h-69zM797 640l15 69h68l-14 -69h-69zM778 549l15 68h69l-15 -68h-69zM758 457l15 69h68l-14 -69h-69zM738 366l16 68h68l-14 -68h-70zM719 274l16 69h69l-16 -69h-69
zM700 183l15 68h68l-15 -68h-68zM680 91l16 68h69l-16 -68h-69zM662 0l14 68h69l-15 -68h-68zM570 0l15 68h68l-14 -68h-69zM479 0l14 68h68l-14 -68h-68zM387 0l15 68h68l-14 -68h-69z" />
    <glyph glyph-name="ij" unicode="&#x133;" horiz-adv-x="524" 
d="M261 640l16 69h68l-14 -69h-70zM223 457l15 69h68l-15 -69h-68zM131 457l15 69h69l-16 -69h-68zM203 366l16 68h68l-15 -68h-69zM184 274l15 69h70l-17 -69h-68zM164 183l15 68h69l-15 -68h-69zM145 91l15 68h69l-15 -68h-69zM127 0l13 68h68l-13 -68h-68zM522 640l15 69
h68l-14 -69h-69zM483 457l15 69h68l-14 -69h-69zM463 366l16 68h68l-14 -68h-70zM444 274l16 69h69l-16 -69h-69zM424 183l16 68h68l-15 -68h-69zM405 91l16 68h69l-16 -68h-69zM387 0l14 68h68l-14 -68h-68zM295 0l15 68h68l-14 -68h-69z" />
    <glyph glyph-name="Kcommaaccent" unicode="&#x136;" 
d="M478 640l15 69h69l-15 -69h-69zM460 549l14 68h70l-16 -68h-68zM440 457l14 69h69l-15 -69h-68zM204 640l15 69h68l-15 -69h-68zM348 457l14 69h70l-16 -69h-68zM185 549l15 68h69l-15 -68h-69zM257 457l14 69h69l-15 -69h-68zM401 274l15 69h69l-16 -69h-68zM165 457
l14 69h70l-16 -69h-68zM309 274l16 69h68l-15 -69h-69zM381 183l15 68h68l-14 -68h-69zM146 366l14 68h69l-15 -68h-68zM218 274l15 69h69l-16 -69h-68zM361 91l16 68h69l-15 -68h-70zM126 274l16 69h68l-15 -69h-69zM343 0l14 68h69l-14 -68h-69zM107 183l14 68h69l-15 -68
h-68zM87 91l16 68h68l-15 -68h-69zM68 0l15 68h68l-14 -68h-69zM230 -91l16 68h68l-15 -68h-69zM211 -183l16 68h69l-16 -68h-69zM193 -274l14 68h68l-14 -68h-68zM101 -274l15 68h68l-14 -68h-69z" />
    <glyph glyph-name="kcommaaccent" unicode="&#x137;" horiz-adv-x="482" 
d="M440 457l15 69h69l-15 -69h-69zM205 640l14 69h69l-15 -69h-68zM421 366l14 68h69l-15 -68h-68zM186 549l15 68h68l-14 -68h-69zM330 366l14 68h68l-14 -68h-68zM166 457l14 69h69l-15 -69h-68zM238 366l14 68h69l-15 -68h-68zM381 183l16 68h68l-14 -68h-70zM146 366
l15 68h68l-14 -68h-69zM290 183l15 68h69l-15 -68h-69zM362 91l16 68h69l-16 -68h-69zM127 274l15 69h69l-15 -69h-69zM198 183l16 68h68l-14 -68h-70zM344 0l14 68h68l-14 -68h-68zM107 183l15 68h68l-14 -68h-69zM87 91l17 68h68l-15 -68h-70zM69 0l14 68h69l-15 -68h-68z
M231 -91l16 68h68l-15 -68h-69zM212 -183l16 68h69l-16 -68h-69zM194 -274l14 68h68l-14 -68h-68zM102 -274l15 68h68l-14 -68h-69z" />
    <glyph glyph-name="Lacute" unicode="&#x139;" horiz-adv-x="439" 
d="M204 640l15 69h68l-15 -69h-68zM185 549l15 68h69l-15 -68h-69zM165 457l14 69h70l-16 -69h-68zM146 366l14 68h69l-15 -68h-68zM126 274l16 69h68l-15 -69h-69zM343 0l14 68h69l-14 -68h-69zM107 183l14 68h69l-15 -68h-68zM251 0l15 68h68l-14 -68h-69zM87 91l16 68h68
l-15 -68h-69zM160 0l14 68h68l-13 -68h-69zM68 0l15 68h68l-14 -68h-69zM340 846l15 69h68l-14 -69h-69zM229 755l16 68h67l-14 -68h-69z" />
    <glyph glyph-name="lacute" unicode="&#x13a;" horiz-adv-x="206" 
d="M204 640l15 69h68l-15 -69h-68zM185 549l15 68h69l-15 -68h-69zM165 457l14 69h70l-16 -69h-68zM146 366l14 68h69l-15 -68h-68zM126 274l16 69h68l-15 -69h-69zM107 183l14 68h69l-15 -68h-68zM87 91l16 68h68l-15 -68h-69zM68 0l15 68h68l-14 -68h-69zM340 846l15 69
h68l-14 -69h-69zM229 755l16 68h67l-14 -68h-69z" />
    <glyph glyph-name="Lcommaaccent" unicode="&#x13b;" horiz-adv-x="439" 
d="M204 640l15 69h68l-15 -69h-68zM185 549l15 68h69l-15 -68h-69zM165 457l14 69h70l-16 -69h-68zM146 366l14 68h69l-15 -68h-68zM126 274l16 69h68l-15 -69h-69zM343 0l14 68h69l-14 -68h-69zM107 183l14 68h69l-15 -68h-68zM251 0l15 68h68l-14 -68h-69zM87 91l16 68h68
l-15 -68h-69zM160 0l14 68h68l-13 -68h-69zM68 0l15 68h68l-14 -68h-69zM209 -91l16 68h68l-15 -68h-69zM190 -183l16 68h69l-16 -68h-69zM172 -274l14 68h68l-14 -68h-68zM80 -274l15 68h68l-14 -68h-69z" />
    <glyph glyph-name="lcommaaccent" unicode="&#x13c;" horiz-adv-x="206" 
d="M204 640l15 69h68l-15 -69h-68zM185 549l15 68h69l-15 -68h-69zM165 457l14 69h70l-16 -69h-68zM146 366l14 68h69l-15 -68h-68zM126 274l16 69h68l-15 -69h-69zM107 183l14 68h69l-15 -68h-68zM87 91l16 68h68l-15 -68h-69zM68 0l15 68h68l-14 -68h-69zM49 -91l16 68h68
l-15 -68h-69zM30 -183l16 68h69l-16 -68h-69zM12 -274l14 68h68l-14 -68h-68zM-80 -274l15 68h68l-14 -68h-69z" />
    <glyph glyph-name="Lcaron" unicode="&#x13d;" horiz-adv-x="439" 
d="M204 640l15 69h68l-15 -69h-68zM185 549l15 68h69l-15 -68h-69zM165 457l14 69h70l-16 -69h-68zM146 366l14 68h69l-15 -68h-68zM126 274l16 69h68l-15 -69h-69zM343 0l14 68h69l-14 -68h-69zM107 183l14 68h69l-15 -68h-68zM251 0l15 68h68l-14 -68h-69zM87 91l16 68h68
l-15 -68h-69zM160 0l14 68h68l-13 -68h-69zM68 0l15 68h68l-14 -68h-69zM367 550l14 68h69l-14 -68h-69zM453 641l15 69h68l-14 -69h-69z" />
    <glyph glyph-name="lcaron" unicode="&#x13e;" horiz-adv-x="302" 
d="M204 640l15 69h68l-15 -69h-68zM185 549l15 68h69l-15 -68h-69zM165 457l14 69h70l-16 -69h-68zM146 366l14 68h69l-15 -68h-68zM126 274l16 69h68l-15 -69h-69zM107 183l14 68h69l-15 -68h-68zM87 91l16 68h68l-15 -68h-69zM68 0l15 68h68l-14 -68h-69zM283 550l14 68
h69l-14 -68h-69zM369 641l15 69h68l-14 -69h-69z" />
    <glyph glyph-name="Ldot" unicode="&#x13f;" horiz-adv-x="439" 
d="M204 640l15 69h68l-15 -69h-68zM185 549l15 68h69l-15 -68h-69zM165 457l14 69h70l-16 -69h-68zM146 366l14 68h69l-15 -68h-68zM126 274l16 69h68l-15 -69h-69zM343 0l14 68h69l-14 -68h-69zM107 183l14 68h69l-15 -68h-68zM251 0l15 68h68l-14 -68h-69zM87 91l16 68h68
l-15 -68h-69zM160 0l14 68h68l-13 -68h-69zM68 0l15 68h68l-14 -68h-69zM306 271l15 69h67l-15 -69h-67z" />
    <glyph glyph-name="ldot" unicode="&#x140;" horiz-adv-x="275" 
d="M204 640l15 69h68l-15 -69h-68zM185 549l15 68h69l-15 -68h-69zM165 457l14 69h70l-16 -69h-68zM146 366l14 68h69l-15 -68h-68zM126 274l16 69h68l-15 -69h-69zM107 183l14 68h69l-15 -68h-68zM87 91l16 68h68l-15 -68h-69zM68 0l15 68h68l-14 -68h-69zM262 274l15 69
h67l-15 -69h-67z" />
    <glyph glyph-name="Lslash" unicode="&#x141;" 
d="M204 640l15 69h68l-15 -69h-68zM185 549l15 68h69l-15 -68h-69zM165 457l14 69h70l-16 -69h-68zM146 366l14 68h69l-15 -68h-68zM126 274l16 69h68l-15 -69h-69zM343 0l14 68h69l-14 -68h-69zM107 183l14 68h69l-15 -68h-68zM251 0l15 68h68l-14 -68h-69zM87 91l16 68h68
l-15 -68h-69zM160 0l14 68h68l-13 -68h-69zM68 0l15 68h68l-14 -68h-69zM238 365l14 69h69l-15 -69h-68zM35 274l14 68h68l-14 -68h-68z" />
    <glyph glyph-name="lslash" unicode="&#x142;" horiz-adv-x="206" 
d="M204 640l15 69h68l-15 -69h-68zM185 549l15 68h69l-15 -68h-69zM165 457l14 69h70l-16 -69h-68zM146 366l14 68h69l-15 -68h-68zM126 274l16 69h68l-15 -69h-69zM107 183l14 68h69l-15 -68h-68zM87 91l16 68h68l-15 -68h-69zM68 0l15 68h68l-14 -68h-69zM238 365l14 69
h69l-15 -69h-68zM35 274l14 68h68l-14 -68h-68z" />
    <glyph glyph-name="Nacute" unicode="&#x143;" 
d="M478 640l15 69h69l-15 -69h-69zM387 640l15 69h69l-16 -69h-68zM460 549l14 68h70l-16 -68h-68zM295 640l15 69h69l-15 -69h-69zM440 457l14 69h69l-15 -69h-68zM204 640l15 69h68l-15 -69h-68zM420 366l15 68h68l-14 -68h-69zM185 549l15 68h69l-15 -68h-69zM401 274
l15 69h69l-16 -69h-68zM165 457l14 69h70l-16 -69h-68zM381 183l15 68h68l-14 -68h-69zM146 366l14 68h69l-15 -68h-68zM361 91l16 68h69l-15 -68h-70zM126 274l16 69h68l-15 -69h-69zM343 0l14 68h69l-14 -68h-69zM107 183l14 68h69l-15 -68h-68zM87 91l16 68h68l-15 -68
h-69zM68 0l15 68h68l-14 -68h-69zM430 846l15 69h68l-14 -69h-69zM319 755l16 68h67l-14 -68h-69z" />
    <glyph glyph-name="nacute" unicode="&#x144;" 
d="M440 457l14 69h69l-15 -69h-68zM348 457l14 69h70l-16 -69h-68zM420 366l15 68h68l-14 -68h-69zM257 457l14 69h69l-15 -69h-68zM401 274l15 69h69l-16 -69h-68zM165 457l14 69h70l-16 -69h-68zM381 183l15 68h68l-14 -68h-69zM146 366l14 68h69l-15 -68h-68zM361 91
l16 68h69l-15 -68h-70zM126 274l16 69h68l-15 -69h-69zM343 0l14 68h69l-14 -68h-69zM107 183l14 68h69l-15 -68h-68zM87 91l16 68h68l-15 -68h-69zM68 0l15 68h68l-14 -68h-69zM392 663l15 69h68l-14 -69h-69zM281 572l16 68h67l-14 -68h-69z" />
    <glyph glyph-name="Ncommaaccent" unicode="&#x145;" 
d="M478 640l15 69h69l-15 -69h-69zM387 640l15 69h69l-16 -69h-68zM460 549l14 68h70l-16 -68h-68zM295 640l15 69h69l-15 -69h-69zM440 457l14 69h69l-15 -69h-68zM204 640l15 69h68l-15 -69h-68zM420 366l15 68h68l-14 -68h-69zM185 549l15 68h69l-15 -68h-69zM401 274
l15 69h69l-16 -69h-68zM165 457l14 69h70l-16 -69h-68zM381 183l15 68h68l-14 -68h-69zM146 366l14 68h69l-15 -68h-68zM361 91l16 68h69l-15 -68h-70zM126 274l16 69h68l-15 -69h-69zM343 0l14 68h69l-14 -68h-69zM107 183l14 68h69l-15 -68h-68zM87 91l16 68h68l-15 -68
h-69zM68 0l15 68h68l-14 -68h-69zM230 -91l16 68h68l-15 -68h-69zM211 -183l16 68h69l-16 -68h-69zM193 -274l14 68h68l-14 -68h-68zM101 -274l15 68h68l-14 -68h-69z" />
    <glyph glyph-name="ncommaaccent" unicode="&#x146;" 
d="M440 457l14 69h69l-15 -69h-68zM348 457l14 69h70l-16 -69h-68zM420 366l15 68h68l-14 -68h-69zM257 457l14 69h69l-15 -69h-68zM401 274l15 69h69l-16 -69h-68zM165 457l14 69h70l-16 -69h-68zM381 183l15 68h68l-14 -68h-69zM146 366l14 68h69l-15 -68h-68zM361 91
l16 68h69l-15 -68h-70zM126 274l16 69h68l-15 -69h-69zM343 0l14 68h69l-14 -68h-69zM107 183l14 68h69l-15 -68h-68zM87 91l16 68h68l-15 -68h-69zM68 0l15 68h68l-14 -68h-69zM230 -91l16 68h68l-15 -68h-69zM211 -183l16 68h69l-16 -68h-69zM193 -274l14 68h68l-14 -68
h-68zM101 -274l15 68h68l-14 -68h-69z" />
    <glyph glyph-name="Ncaron" unicode="&#x147;" 
d="M478 640l15 69h69l-15 -69h-69zM387 640l15 69h69l-16 -69h-68zM460 549l14 68h70l-16 -68h-68zM295 640l15 69h69l-15 -69h-69zM440 457l14 69h69l-15 -69h-68zM204 640l15 69h68l-15 -69h-68zM420 366l15 68h68l-14 -68h-69zM185 549l15 68h69l-15 -68h-69zM401 274
l15 69h69l-16 -69h-68zM165 457l14 69h70l-16 -69h-68zM381 183l15 68h68l-14 -68h-69zM146 366l14 68h69l-15 -68h-68zM361 91l16 68h69l-15 -68h-70zM126 274l16 69h68l-15 -69h-69zM343 0l14 68h69l-14 -68h-69zM107 183l14 68h69l-15 -68h-68zM87 91l16 68h68l-15 -68
h-69zM68 0l15 68h68l-14 -68h-69zM323 766l14 68h69l-14 -68h-69zM250 857l15 69h69l-15 -69h-69zM415 766l14 68h68l-14 -68h-68zM524 857l15 69h68l-14 -69h-69z" />
    <glyph glyph-name="ncaron" unicode="&#x148;" 
d="M440 457l14 69h69l-15 -69h-68zM348 457l14 69h70l-16 -69h-68zM420 366l15 68h68l-14 -68h-69zM257 457l14 69h69l-15 -69h-68zM401 274l15 69h69l-16 -69h-68zM165 457l14 69h70l-16 -69h-68zM381 183l15 68h68l-14 -68h-69zM146 366l14 68h69l-15 -68h-68zM361 91
l16 68h69l-15 -68h-70zM126 274l16 69h68l-15 -69h-69zM343 0l14 68h69l-14 -68h-69zM107 183l14 68h69l-15 -68h-68zM87 91l16 68h68l-15 -68h-69zM68 0l15 68h68l-14 -68h-69zM285 583l14 68h69l-14 -68h-69zM212 674l15 69h69l-15 -69h-69zM377 583l14 68h68l-14 -68h-68
zM486 674l15 69h68l-14 -69h-69z" />
    <glyph glyph-name="Eng" unicode="&#x14a;" 
d="M361 91l16 69h69l-15 -69h-70zM478 640l15 69h69l-15 -69h-69zM295 640l15 69h69l-15 -69h-69zM126 274l16 69h68l-15 -69h-69zM387 640l15 69h69l-16 -69h-68zM401 274l15 69h69l-16 -69h-68zM165 457l14 69h70l-16 -69h-68zM322 -92l16 68h69l-15 -68h-70zM440 457
l14 69h69l-15 -69h-68zM204 640l15 69h68l-15 -69h-68zM304 -183l15 68h69l-16 -68h-68zM68 0l15 68h68l-14 -68h-69zM420 366l15 68h68l-14 -68h-69zM381 183l15 68h68l-14 -68h-69zM107 183l14 68h69l-15 -68h-68zM185 549l15 68h69l-15 -68h-69zM212 -183l16 68h68
l-15 -68h-69zM460 549l14 68h70l-16 -68h-68zM87 91l16 68h68l-15 -68h-69zM343 0l14 68h68l-13 -68h-69zM146 366l14 68h69l-15 -68h-68z" />
    <glyph glyph-name="eng" unicode="&#x14b;" 
d="M348 457l14 69h70l-16 -69h-68zM401 274l15 69h69l-16 -69h-68zM165 457l14 69h70l-16 -69h-68zM126 274l16 69h68l-15 -69h-69zM440 457l14 69h69l-15 -69h-68zM361 91l16 68h69l-15 -68h-70zM257 457l14 69h69l-15 -69h-68zM322 -92l16 68h69l-15 -68h-70zM420 366
l15 68h68l-14 -68h-69zM107 183l14 68h69l-15 -68h-68zM212 -183l16 68h68l-15 -68h-69zM68 0l15 68h68l-14 -68h-69zM381 183l15 68h68l-14 -68h-69zM304 -183l15 68h69l-16 -68h-68zM87 91l16 68h68l-15 -68h-69zM343 0l14 68h68l-13 -68h-69zM146 366l14 68h69l-15 -68
h-68z" />
    <glyph glyph-name="Omacron" unicode="&#x14c;" 
d="M478 640l15 69h69l-15 -69h-69zM387 640l15 69h69l-16 -69h-68zM460 549l14 68h70l-16 -68h-68zM295 640l15 69h69l-15 -69h-69zM440 457l14 69h69l-15 -69h-68zM204 640l15 69h68l-15 -69h-68zM420 366l15 68h68l-14 -68h-69zM185 549l15 68h69l-15 -68h-69zM401 274
l15 69h69l-16 -69h-68zM165 457l14 69h70l-16 -69h-68zM381 183l15 68h68l-14 -68h-69zM146 366l14 68h69l-15 -68h-68zM361 91l16 68h69l-15 -68h-70zM126 274l16 69h68l-15 -69h-69zM343 0l14 68h69l-14 -68h-69zM107 183l14 68h69l-15 -68h-68zM251 0l15 68h68l-14 -68
h-69zM87 91l16 68h68l-15 -68h-69zM160 0l14 68h68l-13 -68h-69zM68 0l15 68h68l-14 -68h-69zM412 766l15 69h68l-14 -69h-69zM504 766l16 69h68l-15 -69h-69zM320 766l15 69h69l-15 -69h-69zM231 766l15 69h68l-15 -69h-68z" />
    <glyph glyph-name="omacron" unicode="&#x14d;" 
d="M440 457l14 69h69l-15 -69h-68zM348 457l14 69h70l-16 -69h-68zM420 366l15 68h68l-14 -68h-69zM257 457l14 69h69l-15 -69h-68zM401 274l15 69h69l-16 -69h-68zM165 457l14 69h70l-16 -69h-68zM381 183l15 68h68l-14 -68h-69zM146 366l14 68h69l-15 -68h-68zM361 91
l16 68h69l-15 -68h-70zM126 274l16 69h68l-15 -69h-69zM343 0l14 68h69l-14 -68h-69zM107 183l14 68h69l-15 -68h-68zM251 0l15 68h68l-14 -68h-69zM87 91l16 68h68l-15 -68h-69zM160 0l14 68h68l-13 -68h-69zM68 0l15 68h68l-14 -68h-69zM374 583l15 69h68l-14 -69h-69z
M466 583l16 69h68l-15 -69h-69zM282 583l15 69h69l-15 -69h-69zM193 583l15 69h68l-15 -69h-68z" />
    <glyph glyph-name="Obreve" unicode="&#x14e;" 
d="M478 640l15 69h69l-15 -69h-69zM387 640l15 69h69l-16 -69h-68zM460 549l14 68h70l-16 -68h-68zM295 640l15 69h69l-15 -69h-69zM440 457l14 69h69l-15 -69h-68zM204 640l15 69h68l-15 -69h-68zM420 366l15 68h68l-14 -68h-69zM185 549l15 68h69l-15 -68h-69zM401 274
l15 69h69l-16 -69h-68zM165 457l14 69h70l-16 -69h-68zM381 183l15 68h68l-14 -68h-69zM146 366l14 68h69l-15 -68h-68zM361 91l16 68h69l-15 -68h-70zM126 274l16 69h68l-15 -69h-69zM343 0l14 68h69l-14 -68h-69zM107 183l14 68h69l-15 -68h-68zM251 0l15 68h68l-14 -68
h-69zM87 91l16 68h68l-15 -68h-69zM160 0l14 68h68l-13 -68h-69zM68 0l15 68h68l-14 -68h-69zM323 766l14 68h69l-14 -68h-69zM250 857l15 69h69l-15 -69h-69zM415 766l14 68h68l-14 -68h-68zM524 857l15 69h68l-14 -69h-69zM231 766l15 69h69l-16 -69h-68zM505 766l15 69
h68l-15 -69h-68z" />
    <glyph glyph-name="obreve" unicode="&#x14f;" 
d="M440 457l14 69h69l-15 -69h-68zM348 457l14 69h70l-16 -69h-68zM420 366l15 68h68l-14 -68h-69zM257 457l14 69h69l-15 -69h-68zM401 274l15 69h69l-16 -69h-68zM165 457l14 69h70l-16 -69h-68zM381 183l15 68h68l-14 -68h-69zM146 366l14 68h69l-15 -68h-68zM361 91
l16 68h69l-15 -68h-70zM126 274l16 69h68l-15 -69h-69zM343 0l14 68h69l-14 -68h-69zM107 183l14 68h69l-15 -68h-68zM251 0l15 68h68l-14 -68h-69zM87 91l16 68h68l-15 -68h-69zM160 0l14 68h68l-13 -68h-69zM68 0l15 68h68l-14 -68h-69zM285 583l14 68h69l-14 -68h-69z
M212 674l15 69h69l-15 -69h-69zM377 583l14 68h68l-14 -68h-68zM486 674l15 69h68l-14 -69h-69zM193 583l15 69h69l-16 -69h-68zM467 583l15 69h68l-15 -69h-68z" />
    <glyph glyph-name="Ohungarumlaut" unicode="&#x150;" 
d="M478 640l15 69h69l-15 -69h-69zM387 640l15 69h69l-16 -69h-68zM460 549l14 68h70l-16 -68h-68zM295 640l15 69h69l-15 -69h-69zM440 457l14 69h69l-15 -69h-68zM204 640l15 69h68l-15 -69h-68zM420 366l15 68h68l-14 -68h-69zM185 549l15 68h69l-15 -68h-69zM401 274
l15 69h69l-16 -69h-68zM165 457l14 69h70l-16 -69h-68zM381 183l15 68h68l-14 -68h-69zM146 366l14 68h69l-15 -68h-68zM361 91l16 68h69l-15 -68h-70zM126 274l16 69h68l-15 -69h-69zM343 0l14 68h69l-14 -68h-69zM107 183l14 68h69l-15 -68h-68zM251 0l15 68h68l-14 -68
h-69zM87 91l16 68h68l-15 -68h-69zM160 0l14 68h68l-13 -68h-69zM68 0l15 68h68l-14 -68h-69zM546 858l14 68h70l-15 -68h-69zM436 766l15 69h68l-14 -69h-69zM317 858l15 68h68l-14 -68h-69zM208 766l15 69h68l-15 -69h-68z" />
    <glyph glyph-name="ohungarumlaut" unicode="&#x151;" 
d="M440 457l14 69h69l-15 -69h-68zM348 457l14 69h70l-16 -69h-68zM420 366l15 68h68l-14 -68h-69zM257 457l14 69h69l-15 -69h-68zM401 274l15 69h69l-16 -69h-68zM165 457l14 69h70l-16 -69h-68zM381 183l15 68h68l-14 -68h-69zM146 366l14 68h69l-15 -68h-68zM361 91
l16 68h69l-15 -68h-70zM126 274l16 69h68l-15 -69h-69zM343 0l14 68h69l-14 -68h-69zM107 183l14 68h69l-15 -68h-68zM251 0l15 68h68l-14 -68h-69zM87 91l16 68h68l-15 -68h-69zM160 0l14 68h68l-13 -68h-69zM68 0l15 68h68l-14 -68h-69zM509 675l14 68h70l-15 -68h-69z
M399 583l15 69h68l-14 -69h-69zM280 675l15 68h68l-14 -68h-69zM171 583l15 69h68l-15 -69h-68z" />
    <glyph glyph-name="OE" unicode="&#x152;" horiz-adv-x="756" 
d="M753 640l15 69h69l-15 -69h-69zM662 640l14 69h70l-16 -69h-68zM570 640l15 69h69l-15 -69h-69zM656 183l15 68h68l-14 -68h-69zM564 183l15 68h69l-15 -68h-69zM473 183l15 68h68l-14 -68h-69zM618 0l14 68h69l-15 -68h-68zM526 0l15 68h68l-14 -68h-69zM435 0l14 68h69
l-15 -68h-68zM479 640l24 69h60l-16 -69h-68zM387 640l15 69h69l-15 -69h-69zM460 549l15 68h69l-15 -68h-69zM296 640l14 69h69l-15 -69h-68zM440 457l14 69h70l-16 -69h-68zM204 640l15 69h69l-15 -69h-69zM421 366l14 68h68l-14 -68h-68zM186 549l14 68h69l-15 -68h-68z
M401 274l16 69h68l-15 -69h-69zM166 457l14 69h69l-15 -69h-68zM381 183l15 68h69l-15 -68h-69zM146 366l14 68h69l-14 -68h-69zM362 91l16 68h68l-15 -68h-69zM127 274l15 69h69l-16 -69h-68zM343 0l15 68h68l-14 -68h-69zM107 183l15 68h68l-14 -68h-69zM252 0l14 68h68
l-14 -68h-68zM87 91l16 68h69l-16 -68h-69zM160 0l15 68h68l-14 -68h-69zM69 0l14 68h68l-14 -68h-68z" />
    <glyph glyph-name="oe" unicode="&#x153;" horiz-adv-x="756" 
d="M440 457l14 69h70l-15 -69h-69zM420 366l15 68h69l-14 -68h-70zM343 0l14 68h70l-15 -68h-69zM381 183l15 68h69l-14 -68h-70zM401 274l15 69h70l-16 -69h-69zM361 91l16 68h70l-15 -68h-71zM619 0l14 68h68l-14 -68h-68zM676 274l11 69h73l-15 -69h-69zM532 457l15 69
h68l-14 -69h-69zM696 366l14 68h69l-15 -68h-68zM624 457l14 69h69l-15 -69h-68zM715 457l15 69h68l-14 -69h-69zM436 0l14 68h68l-14 -68h-68zM165 457l14 69h70l-16 -69h-68zM527 0l14 68h69l-15 -68h-68zM107 183l14 68h69l-15 -68h-68zM251 0l15 68h68l-14 -68h-69z
M87 91l16 68h68l-15 -68h-69zM160 0l14 68h68l-13 -68h-69zM126 274l16 69h68l-15 -69h-69zM656 183l16 68h68l-14 -68h-70zM257 457l14 69h69l-15 -69h-68zM146 366l14 68h69l-15 -68h-68zM68 0l15 68h63l-9 -68h-69zM565 183l15 68h69l-15 -68h-69zM473 183l16 68h68
l-14 -68h-70zM348 457l14 69h70l-16 -69h-68z" />
    <glyph glyph-name="Racute" unicode="&#x154;" 
d="M478 640l15 69h69l-15 -69h-69zM387 640l15 69h69l-16 -69h-68zM460 549l14 68h70l-16 -68h-68zM295 640l15 69h69l-15 -69h-69zM440 457l14 69h69l-15 -69h-68zM204 640l15 69h68l-15 -69h-68zM348 457l14 69h70l-16 -69h-68zM185 549l15 68h69l-15 -68h-69zM257 457
l14 69h69l-15 -69h-68zM401 274l15 69h69l-16 -69h-68zM165 457l14 69h70l-16 -69h-68zM309 274l16 69h68l-15 -69h-69zM381 183l15 68h68l-14 -68h-69zM146 366l14 68h69l-15 -68h-68zM218 274l15 69h69l-16 -69h-68zM361 91l16 68h69l-15 -68h-70zM126 274l16 69h68
l-15 -69h-69zM343 0l14 68h69l-14 -68h-69zM107 183l14 68h69l-15 -68h-68zM87 91l16 68h68l-15 -68h-69zM68 0l15 68h68l-14 -68h-69zM430 846l15 69h68l-14 -69h-69zM319 755l16 68h67l-14 -68h-69z" />
    <glyph glyph-name="racute" unicode="&#x155;" horiz-adv-x="456" 
d="M440 457l14 69h69l-15 -69h-68zM348 457l14 69h70l-16 -69h-68zM257 457l14 69h69l-15 -69h-68zM165 457l14 69h70l-16 -69h-68zM146 366l14 68h69l-15 -68h-68zM126 274l16 69h68l-15 -69h-69zM107 183l14 68h69l-15 -68h-68zM87 91l16 68h68l-15 -68h-69zM68 0l15 68
h68l-14 -68h-69zM379 663l15 69h68l-14 -69h-69zM268 572l16 68h67l-14 -68h-69z" />
    <glyph glyph-name="Rcommaaccent" unicode="&#x156;" 
d="M478 640l15 69h69l-15 -69h-69zM387 640l15 69h69l-16 -69h-68zM460 549l14 68h70l-16 -68h-68zM295 640l15 69h69l-15 -69h-69zM440 457l14 69h69l-15 -69h-68zM204 640l15 69h68l-15 -69h-68zM348 457l14 69h70l-16 -69h-68zM185 549l15 68h69l-15 -68h-69zM257 457
l14 69h69l-15 -69h-68zM401 274l15 69h69l-16 -69h-68zM165 457l14 69h70l-16 -69h-68zM309 274l16 69h68l-15 -69h-69zM381 183l15 68h68l-14 -68h-69zM146 366l14 68h69l-15 -68h-68zM218 274l15 69h69l-16 -69h-68zM361 91l16 68h69l-15 -68h-70zM126 274l16 69h68
l-15 -69h-69zM343 0l14 68h69l-14 -68h-69zM107 183l14 68h69l-15 -68h-68zM87 91l16 68h68l-15 -68h-69zM68 0l15 68h68l-14 -68h-69zM230 -91l16 68h68l-15 -68h-69zM211 -183l16 68h69l-16 -68h-69zM193 -274l14 68h68l-14 -68h-68zM101 -274l15 68h68l-14 -68h-69z" />
    <glyph glyph-name="rcommaaccent" unicode="&#x157;" horiz-adv-x="456" 
d="M440 457l14 69h69l-15 -69h-68zM348 457l14 69h70l-16 -69h-68zM257 457l14 69h69l-15 -69h-68zM165 457l14 69h70l-16 -69h-68zM146 366l14 68h69l-15 -68h-68zM126 274l16 69h68l-15 -69h-69zM107 183l14 68h69l-15 -68h-68zM87 91l16 68h68l-15 -68h-69zM68 0l15 68
h68l-14 -68h-69zM48 -91l16 68h68l-15 -68h-69zM29 -183l16 68h69l-16 -68h-69zM11 -274l14 68h68l-14 -68h-68zM-81 -274l15 68h68l-14 -68h-69z" />
    <glyph glyph-name="Rcaron" unicode="&#x158;" 
d="M478 640l15 69h69l-15 -69h-69zM387 640l15 69h69l-16 -69h-68zM460 549l14 68h70l-16 -68h-68zM295 640l15 69h69l-15 -69h-69zM440 457l14 69h69l-15 -69h-68zM204 640l15 69h68l-15 -69h-68zM348 457l14 69h70l-16 -69h-68zM185 549l15 68h69l-15 -68h-69zM257 457
l14 69h69l-15 -69h-68zM401 274l15 69h69l-16 -69h-68zM165 457l14 69h70l-16 -69h-68zM309 274l16 69h68l-15 -69h-69zM381 183l15 68h68l-14 -68h-69zM146 366l14 68h69l-15 -68h-68zM218 274l15 69h69l-16 -69h-68zM361 91l16 68h69l-15 -68h-70zM126 274l16 69h68
l-15 -69h-69zM343 0l14 68h69l-14 -68h-69zM107 183l14 68h69l-15 -68h-68zM87 91l16 68h68l-15 -68h-69zM68 0l15 68h68l-14 -68h-69zM323 766l14 68h69l-14 -68h-69zM250 857l15 69h69l-15 -69h-69zM415 766l14 68h68l-14 -68h-68zM524 857l15 69h68l-14 -69h-69z" />
    <glyph glyph-name="rcaron" unicode="&#x159;" horiz-adv-x="456" 
d="M440 457l14 69h69l-15 -69h-68zM348 457l14 69h70l-16 -69h-68zM257 457l14 69h69l-15 -69h-68zM165 457l14 69h70l-16 -69h-68zM146 366l14 68h69l-15 -68h-68zM126 274l16 69h68l-15 -69h-69zM107 183l14 68h69l-15 -68h-68zM87 91l16 68h68l-15 -68h-69zM68 0l15 68
h68l-14 -68h-69zM274 583l14 68h69l-14 -68h-69zM201 674l15 69h69l-15 -69h-69zM366 583l14 68h68l-14 -68h-68zM475 674l15 69h68l-14 -69h-69z" />
    <glyph glyph-name="Sacute" unicode="&#x15a;" 
d="M478 640l15 69h69l-15 -69h-69zM387 640l15 69h69l-16 -69h-68zM295 640l15 69h69l-15 -69h-69zM204 640l15 69h68l-15 -69h-68zM185 549l15 68h69l-15 -68h-69zM165 457l14 69h70l-16 -69h-68zM381 183l15 68h68l-14 -68h-69zM146 366l14 68h69l-15 -68h-68zM290 183
l14 68h69l-15 -68h-68zM361 91l16 68h69l-15 -68h-70zM126 274l16 69h68l-15 -69h-69zM198 183l15 68h68l-14 -68h-69zM343 0l14 68h69l-14 -68h-69zM107 183l14 68h69l-15 -68h-68zM251 0l15 68h68l-14 -68h-69zM160 0l14 68h68l-13 -68h-69zM68 0l15 68h68l-14 -68h-69z
M430 846l15 69h68l-14 -69h-69zM319 755l16 68h67l-14 -68h-69z" />
    <glyph glyph-name="sacute" unicode="&#x15b;" 
d="M440 457l14 69h69l-15 -69h-68zM348 457l14 69h70l-16 -69h-68zM257 457l14 69h69l-15 -69h-68zM165 457l14 69h70l-16 -69h-68zM381 183l15 68h68l-14 -68h-69zM146 366l14 68h69l-15 -68h-68zM290 183l14 68h69l-15 -68h-68zM361 91l16 68h69l-15 -68h-70zM126 274
l16 69h68l-15 -69h-69zM198 183l15 68h68l-14 -68h-69zM343 0l14 68h69l-14 -68h-69zM107 183l14 68h69l-15 -68h-68zM251 0l15 68h68l-14 -68h-69zM160 0l14 68h68l-13 -68h-69zM68 0l15 68h68l-14 -68h-69zM392 663l15 69h68l-14 -69h-69zM281 572l16 68h67l-14 -68h-69z
" />
    <glyph glyph-name="Scedilla" unicode="&#x15e;" 
d="M478 640l15 69h69l-15 -69h-69zM387 640l15 69h69l-16 -69h-68zM295 640l15 69h69l-15 -69h-69zM204 640l15 69h68l-15 -69h-68zM185 549l15 68h69l-15 -68h-69zM165 457l14 69h70l-16 -69h-68zM381 183l15 68h68l-14 -68h-69zM146 366l14 68h69l-15 -68h-68zM290 183
l14 68h69l-15 -68h-68zM361 91l16 68h69l-15 -68h-70zM126 274l16 69h68l-15 -69h-69zM198 183l15 68h68l-14 -68h-69zM343 0l14 68h69l-14 -68h-69zM107 183l14 68h69l-15 -68h-68zM251 0l15 68h68l-14 -68h-69zM160 0l14 68h68l-13 -68h-69zM68 0l15 68h68l-14 -68h-69z
M230 -91l16 68h68l-15 -68h-69zM211 -183l16 68h69l-16 -68h-69zM193 -274l14 68h68l-14 -68h-68zM101 -274l15 68h68l-14 -68h-69z" />
    <glyph glyph-name="scedilla" unicode="&#x15f;" 
d="M440 457l14 69h69l-15 -69h-68zM348 457l14 69h70l-16 -69h-68zM257 457l14 69h69l-15 -69h-68zM165 457l14 69h70l-16 -69h-68zM381 183l15 68h68l-14 -68h-69zM146 366l14 68h69l-15 -68h-68zM290 183l14 68h69l-15 -68h-68zM361 91l16 68h69l-15 -68h-70zM126 274
l16 69h68l-15 -69h-69zM198 183l15 68h68l-14 -68h-69zM343 0l14 68h69l-14 -68h-69zM107 183l14 68h69l-15 -68h-68zM251 0l15 68h68l-14 -68h-69zM160 0l14 68h68l-13 -68h-69zM68 0l15 68h68l-14 -68h-69zM230 -91l16 68h68l-15 -68h-69zM211 -183l16 68h69l-16 -68h-69z
M193 -274l14 68h68l-14 -68h-68zM101 -274l15 68h68l-14 -68h-69z" />
    <glyph glyph-name="Scaron" unicode="&#x160;" 
d="M478 640l15 69h69l-15 -69h-69zM387 640l15 69h69l-16 -69h-68zM295 640l15 69h69l-15 -69h-69zM204 640l15 69h68l-15 -69h-68zM185 549l15 68h69l-15 -68h-69zM165 457l14 69h70l-16 -69h-68zM381 183l15 68h68l-14 -68h-69zM146 366l14 68h69l-15 -68h-68zM290 183
l14 68h69l-15 -68h-68zM361 91l16 68h69l-15 -68h-70zM126 274l16 69h68l-15 -69h-69zM198 183l15 68h68l-14 -68h-69zM343 0l14 68h69l-14 -68h-69zM107 183l14 68h69l-15 -68h-68zM251 0l15 68h68l-14 -68h-69zM160 0l14 68h68l-13 -68h-69zM68 0l15 68h68l-14 -68h-69z
M323 766l14 68h69l-14 -68h-69zM250 857l15 69h69l-15 -69h-69zM415 766l14 68h68l-14 -68h-68zM524 857l15 69h68l-14 -69h-69z" />
    <glyph glyph-name="scaron" unicode="&#x161;" 
d="M440 457l14 69h69l-15 -69h-68zM348 457l14 69h70l-16 -69h-68zM257 457l14 69h69l-15 -69h-68zM165 457l14 69h70l-16 -69h-68zM381 183l15 68h68l-14 -68h-69zM146 366l14 68h69l-15 -68h-68zM290 183l14 68h69l-15 -68h-68zM361 91l16 68h69l-15 -68h-70zM126 274
l16 69h68l-15 -69h-69zM198 183l15 68h68l-14 -68h-69zM343 0l14 68h69l-14 -68h-69zM107 183l14 68h69l-15 -68h-68zM251 0l15 68h68l-14 -68h-69zM160 0l14 68h68l-13 -68h-69zM68 0l15 68h68l-14 -68h-69zM285 583l14 68h69l-14 -68h-69zM212 674l15 69h69l-15 -69h-69z
M377 583l14 68h68l-14 -68h-68zM486 674l15 69h68l-14 -69h-69z" />
    <glyph glyph-name="Tcommaaccent" unicode="&#x162;" horiz-adv-x="327" 
d="M351 640l15 69h69l-15 -69h-69zM259 640l16 69h68l-14 -69h-70zM168 640l15 69h68l-14 -69h-69zM241 549l15 68h69l-15 -68h-69zM221 457l15 69h68l-14 -69h-69zM201 366l16 68h68l-15 -68h-69zM182 274l16 69h69l-17 -69h-68zM162 183l16 68h68l-15 -68h-69zM143 91
l15 68h70l-16 -68h-69zM125 0l13 68h69l-14 -68h-68zM104 -91l16 68h68l-15 -68h-69zM85 -183l16 68h69l-16 -68h-69zM67 -274l14 68h68l-14 -68h-68zM-25 -274l15 68h68l-14 -68h-69z" />
    <glyph glyph-name="tcommaaccent" unicode="&#x163;" horiz-adv-x="421" 
d="M263 640l16 69h68l-15 -69h-69zM408 457l14 69h69l-15 -69h-68zM245 549l14 68h70l-16 -68h-68zM316 457l15 69h69l-16 -69h-68zM225 457l14 69h69l-15 -69h-68zM133 457l14 69h70l-16 -69h-68zM205 366l15 68h69l-15 -68h-69zM186 274l15 69h69l-16 -69h-68zM166 183
l15 68h68l-14 -68h-69zM311 0l14 68h69l-14 -68h-69zM147 91l15 68h69l-15 -68h-69zM219 0l15 68h68l-13 -68h-70zM128 0l14 68h68l-13 -68h-69zM200 -91l16 68h68l-15 -68h-69zM181 -183l16 68h69l-16 -68h-69zM163 -274l14 68h68l-14 -68h-68zM71 -274l15 68h68l-14 -68
h-69z" />
    <glyph glyph-name="Tcaron" unicode="&#x164;" horiz-adv-x="327" 
d="M351 640l15 69h69l-15 -69h-69zM259 640l16 69h68l-14 -69h-70zM168 640l15 69h68l-14 -69h-69zM241 549l15 68h69l-15 -68h-69zM221 457l15 69h68l-14 -69h-69zM201 366l16 68h68l-15 -68h-69zM182 274l16 69h69l-17 -69h-68zM162 183l16 68h68l-15 -68h-69zM143 91
l15 68h70l-16 -68h-69zM125 0l13 68h69l-14 -68h-68zM249 766l14 68h69l-14 -68h-69zM176 857l15 69h69l-15 -69h-69zM341 766l14 68h68l-14 -68h-68zM450 857l15 69h68l-14 -69h-69z" />
    <glyph glyph-name="tcaron" unicode="&#x165;" horiz-adv-x="421" 
d="M263 640l16 69h68l-15 -69h-69zM408 457l14 69h69l-15 -69h-68zM245 549l14 68h70l-16 -68h-68zM316 457l15 69h69l-16 -69h-68zM225 457l14 69h69l-15 -69h-68zM133 457l14 69h70l-16 -69h-68zM205 366l15 68h69l-15 -68h-69zM186 274l15 69h69l-16 -69h-68zM166 183
l15 68h68l-14 -68h-69zM311 0l14 68h69l-14 -68h-69zM147 91l15 68h69l-15 -68h-69zM219 0l15 68h68l-13 -68h-70zM128 0l14 68h68l-13 -68h-69zM428 550l14 68h69l-14 -68h-69zM514 641l15 69h68l-14 -69h-69z" />
    <glyph glyph-name="Tbar" unicode="&#x166;" horiz-adv-x="327" 
d="M351 640l15 69h69l-15 -69h-69zM259 640l16 69h68l-14 -69h-70zM168 640l15 69h68l-14 -69h-69zM241 549l15 68h69l-15 -68h-69zM221 457l15 69h68l-14 -69h-69zM201 366l16 68h68l-15 -68h-69zM89 274l16 69h69l-16 -69h-69zM162 183l16 68h68l-15 -68h-69zM143 91
l15 68h70l-16 -68h-69zM125 0l13 68h69l-14 -68h-68zM273 274l16 69h69l-17 -69h-68zM181 274l17 69h68l-16 -69h-69z" />
    <glyph glyph-name="tbar" unicode="&#x167;" horiz-adv-x="421" 
d="M263 640l16 69h68l-15 -69h-69zM408 457l14 69h69l-15 -69h-68zM245 549l14 68h70l-16 -68h-68zM316 457l15 69h69l-16 -69h-68zM225 457l14 69h69l-15 -69h-68zM133 457l14 69h70l-16 -69h-68zM205 366l15 68h69l-15 -68h-69zM95 274l15 69h69l-16 -69h-68zM166 183
l15 68h68l-14 -68h-69zM311 0l14 68h69l-14 -68h-69zM147 91l15 68h69l-15 -68h-69zM219 0l15 68h68l-13 -68h-70zM128 0l14 68h68l-13 -68h-69zM279 274l15 69h69l-16 -69h-68zM187 274l16 69h68l-15 -69h-69z" />
    <glyph glyph-name="Utilde" unicode="&#x168;" 
d="M478 640l15 69h69l-15 -69h-69zM460 549l14 68h70l-16 -68h-68zM440 457l14 69h69l-15 -69h-68zM204 640l15 69h68l-15 -69h-68zM420 366l15 68h68l-14 -68h-69zM185 549l15 68h69l-15 -68h-69zM401 274l15 69h69l-16 -69h-68zM165 457l14 69h70l-16 -69h-68zM381 183
l15 68h68l-14 -68h-69zM146 366l14 68h69l-15 -68h-68zM361 91l16 68h69l-15 -68h-70zM126 274l16 69h68l-15 -69h-69zM343 0l14 68h69l-14 -68h-69zM107 183l14 68h69l-15 -68h-68zM251 0l15 68h68l-14 -68h-69zM87 91l16 68h68l-15 -68h-69zM160 0l14 68h68l-13 -68h-69z
M68 0l15 68h68l-14 -68h-69zM412 766l15 69h68l-14 -69h-69zM504 766l16 69h68l-15 -69h-69zM320 766l15 69h69l-15 -69h-69zM231 766l15 69h68l-15 -69h-68z" />
    <glyph glyph-name="utilde" unicode="&#x169;" 
d="M440 457l14 69h69l-15 -69h-68zM420 366l15 68h68l-14 -68h-69zM401 274l15 69h69l-16 -69h-68zM165 457l14 69h70l-16 -69h-68zM381 183l15 68h68l-14 -68h-69zM146 366l14 68h69l-15 -68h-68zM361 91l16 68h69l-15 -68h-70zM126 274l16 69h68l-15 -69h-69zM343 0l14 68
h69l-14 -68h-69zM107 183l14 68h69l-15 -68h-68zM251 0l15 68h68l-14 -68h-69zM87 91l16 68h68l-15 -68h-69zM160 0l14 68h68l-13 -68h-69zM68 0l15 68h68l-14 -68h-69zM374 583l15 69h68l-14 -69h-69zM466 583l16 69h68l-15 -69h-69zM282 583l15 69h69l-15 -69h-69z
M193 583l15 69h68l-15 -69h-68z" />
    <glyph glyph-name="Umacron" unicode="&#x16a;" 
d="M478 640l15 69h69l-15 -69h-69zM460 549l14 68h70l-16 -68h-68zM440 457l14 69h69l-15 -69h-68zM204 640l15 69h68l-15 -69h-68zM420 366l15 68h68l-14 -68h-69zM185 549l15 68h69l-15 -68h-69zM401 274l15 69h69l-16 -69h-68zM165 457l14 69h70l-16 -69h-68zM381 183
l15 68h68l-14 -68h-69zM146 366l14 68h69l-15 -68h-68zM361 91l16 68h69l-15 -68h-70zM126 274l16 69h68l-15 -69h-69zM343 0l14 68h69l-14 -68h-69zM107 183l14 68h69l-15 -68h-68zM251 0l15 68h68l-14 -68h-69zM87 91l16 68h68l-15 -68h-69zM160 0l14 68h68l-13 -68h-69z
M68 0l15 68h68l-14 -68h-69zM412 766l15 69h68l-14 -69h-69zM504 766l16 69h68l-15 -69h-69zM320 766l15 69h69l-15 -69h-69zM231 766l15 69h68l-15 -69h-68z" />
    <glyph glyph-name="umacron" unicode="&#x16b;" 
d="M440 457l14 69h69l-15 -69h-68zM420 366l15 68h68l-14 -68h-69zM401 274l15 69h69l-16 -69h-68zM165 457l14 69h70l-16 -69h-68zM381 183l15 68h68l-14 -68h-69zM146 366l14 68h69l-15 -68h-68zM361 91l16 68h69l-15 -68h-70zM126 274l16 69h68l-15 -69h-69zM343 0l14 68
h69l-14 -68h-69zM107 183l14 68h69l-15 -68h-68zM251 0l15 68h68l-14 -68h-69zM87 91l16 68h68l-15 -68h-69zM160 0l14 68h68l-13 -68h-69zM68 0l15 68h68l-14 -68h-69zM374 583l15 69h68l-14 -69h-69zM466 583l16 69h68l-15 -69h-69zM282 583l15 69h69l-15 -69h-69z
M193 583l15 69h68l-15 -69h-68z" />
    <glyph glyph-name="Ubreve" unicode="&#x16c;" 
d="M478 640l15 69h69l-15 -69h-69zM460 549l14 68h70l-16 -68h-68zM440 457l14 69h69l-15 -69h-68zM204 640l15 69h68l-15 -69h-68zM420 366l15 68h68l-14 -68h-69zM185 549l15 68h69l-15 -68h-69zM401 274l15 69h69l-16 -69h-68zM165 457l14 69h70l-16 -69h-68zM381 183
l15 68h68l-14 -68h-69zM146 366l14 68h69l-15 -68h-68zM361 91l16 68h69l-15 -68h-70zM126 274l16 69h68l-15 -69h-69zM343 0l14 68h69l-14 -68h-69zM107 183l14 68h69l-15 -68h-68zM251 0l15 68h68l-14 -68h-69zM87 91l16 68h68l-15 -68h-69zM160 0l14 68h68l-13 -68h-69z
M68 0l15 68h68l-14 -68h-69zM323 766l14 68h69l-14 -68h-69zM250 857l15 69h69l-15 -69h-69zM415 766l14 68h68l-14 -68h-68zM524 857l15 69h68l-14 -69h-69zM231 766l15 69h69l-16 -69h-68zM505 766l15 69h68l-15 -69h-68z" />
    <glyph glyph-name="ubreve" unicode="&#x16d;" 
d="M440 457l14 69h69l-15 -69h-68zM420 366l15 68h68l-14 -68h-69zM401 274l15 69h69l-16 -69h-68zM165 457l14 69h70l-16 -69h-68zM381 183l15 68h68l-14 -68h-69zM146 366l14 68h69l-15 -68h-68zM361 91l16 68h69l-15 -68h-70zM126 274l16 69h68l-15 -69h-69zM343 0l14 68
h69l-14 -68h-69zM107 183l14 68h69l-15 -68h-68zM251 0l15 68h68l-14 -68h-69zM87 91l16 68h68l-15 -68h-69zM160 0l14 68h68l-13 -68h-69zM68 0l15 68h68l-14 -68h-69zM285 583l14 68h69l-14 -68h-69zM212 674l15 69h69l-15 -69h-69zM377 583l14 68h68l-14 -68h-68z
M486 674l15 69h68l-14 -69h-69zM193 583l15 69h69l-16 -69h-68zM467 583l15 69h68l-15 -69h-68z" />
    <glyph glyph-name="Uring" unicode="&#x16e;" 
d="M478 640l15 69h69l-15 -69h-69zM460 549l14 68h70l-16 -68h-68zM440 457l14 69h69l-15 -69h-68zM204 640l15 69h68l-15 -69h-68zM420 366l15 68h68l-14 -68h-69zM185 549l15 68h69l-15 -68h-69zM401 274l15 69h69l-16 -69h-68zM165 457l14 69h70l-16 -69h-68zM381 183
l15 68h68l-14 -68h-69zM146 366l14 68h69l-15 -68h-68zM361 91l16 68h69l-15 -68h-70zM126 274l16 69h68l-15 -69h-69zM343 0l14 68h69l-14 -68h-69zM107 183l14 68h69l-15 -68h-68zM251 0l15 68h68l-14 -68h-69zM87 91l16 68h68l-15 -68h-69zM160 0l14 68h68l-13 -68h-69z
M68 0l15 68h68l-14 -68h-69zM321 766l14 68h69l-14 -68h-69zM341 857l15 69h69l-16 -69h-68zM413 766l14 68h68l-14 -68h-68zM433 857l15 69h68l-15 -69h-68z" />
    <glyph glyph-name="uring" unicode="&#x16f;" 
d="M440 457l14 69h69l-15 -69h-68zM420 366l15 68h68l-14 -68h-69zM401 274l15 69h69l-16 -69h-68zM165 457l14 69h70l-16 -69h-68zM381 183l15 68h68l-14 -68h-69zM146 366l14 68h69l-15 -68h-68zM361 91l16 68h69l-15 -68h-70zM126 274l16 69h68l-15 -69h-69zM343 0l14 68
h69l-14 -68h-69zM107 183l14 68h69l-15 -68h-68zM251 0l15 68h68l-14 -68h-69zM87 91l16 68h68l-15 -68h-69zM160 0l14 68h68l-13 -68h-69zM68 0l15 68h68l-14 -68h-69zM283 583l14 68h69l-14 -68h-69zM303 674l15 69h69l-16 -69h-68zM375 583l14 68h68l-14 -68h-68z
M395 674l15 69h68l-15 -69h-68z" />
    <glyph glyph-name="Uhungarumlaut" unicode="&#x170;" 
d="M478 640l15 69h69l-15 -69h-69zM460 549l14 68h70l-16 -68h-68zM440 457l14 69h69l-15 -69h-68zM204 640l15 69h68l-15 -69h-68zM420 366l15 68h68l-14 -68h-69zM185 549l15 68h69l-15 -68h-69zM401 274l15 69h69l-16 -69h-68zM165 457l14 69h70l-16 -69h-68zM381 183
l15 68h68l-14 -68h-69zM146 366l14 68h69l-15 -68h-68zM361 91l16 68h69l-15 -68h-70zM126 274l16 69h68l-15 -69h-69zM343 0l14 68h69l-14 -68h-69zM107 183l14 68h69l-15 -68h-68zM251 0l15 68h68l-14 -68h-69zM87 91l16 68h68l-15 -68h-69zM160 0l14 68h68l-13 -68h-69z
M68 0l15 68h68l-14 -68h-69zM546 858l14 68h70l-15 -68h-69zM436 766l15 69h68l-14 -69h-69zM317 858l15 68h68l-14 -68h-69zM208 766l15 69h68l-15 -69h-68z" />
    <glyph glyph-name="uhungarumlaut" unicode="&#x171;" 
d="M440 457l14 69h69l-15 -69h-68zM420 366l15 68h68l-14 -68h-69zM401 274l15 69h69l-16 -69h-68zM165 457l14 69h70l-16 -69h-68zM381 183l15 68h68l-14 -68h-69zM146 366l14 68h69l-15 -68h-68zM361 91l16 68h69l-15 -68h-70zM126 274l16 69h68l-15 -69h-69zM343 0l14 68
h69l-14 -68h-69zM107 183l14 68h69l-15 -68h-68zM251 0l15 68h68l-14 -68h-69zM87 91l16 68h68l-15 -68h-69zM160 0l14 68h68l-13 -68h-69zM68 0l15 68h68l-14 -68h-69zM509 675l14 68h70l-15 -68h-69zM399 583l15 69h68l-14 -69h-69zM280 675l15 68h68l-14 -68h-69z
M171 583l15 69h68l-15 -69h-68z" />
    <glyph glyph-name="Uogonek" unicode="&#x172;" 
d="M478 640l15 69h69l-15 -69h-69zM460 549l14 68h70l-16 -68h-68zM440 457l14 69h69l-15 -69h-68zM204 640l15 69h68l-15 -69h-68zM420 366l15 68h68l-14 -68h-69zM185 549l15 68h69l-15 -68h-69zM401 274l15 69h69l-16 -69h-68zM165 457l14 69h70l-16 -69h-68zM381 183
l15 68h68l-14 -68h-69zM146 366l14 68h69l-15 -68h-68zM361 91l16 68h69l-15 -68h-70zM126 274l16 69h68l-15 -69h-69zM343 0l14 68h69l-14 -68h-69zM107 183l14 68h69l-15 -68h-68zM251 0l15 68h68l-14 -68h-69zM87 91l16 68h68l-15 -68h-69zM160 0l14 68h68l-13 -68h-69z
M68 0l15 68h68l-14 -68h-69zM193 -274l14 68h68l-13 -68h-69zM102 -274l14 68h68l-14 -68h-68zM121 -183l14 68h69l-14 -68h-69zM232 -91l14 68h69l-15 -68h-68z" />
    <glyph glyph-name="uogonek" unicode="&#x173;" 
d="M440 457l14 69h69l-15 -69h-68zM420 366l15 68h68l-14 -68h-69zM401 274l15 69h69l-16 -69h-68zM165 457l14 69h70l-16 -69h-68zM381 183l15 68h68l-14 -68h-69zM146 366l14 68h69l-15 -68h-68zM361 91l16 68h69l-15 -68h-70zM126 274l16 69h68l-15 -69h-69zM343 0l14 68
h69l-14 -68h-69zM107 183l14 68h69l-15 -68h-68zM251 0l15 68h68l-14 -68h-69zM87 91l16 68h68l-15 -68h-69zM160 0l14 68h68l-13 -68h-69zM68 0l15 68h68l-14 -68h-69zM285 -274l14 68h68l-13 -68h-69zM194 -274l14 68h68l-14 -68h-68zM213 -183l14 68h69l-14 -68h-69z
M324 -91l14 68h69l-15 -68h-68z" />
    <glyph glyph-name="Wcircumflex" unicode="&#x174;" horiz-adv-x="573" 
d="M387 640l15 69h69l-16 -69h-68zM368 549l15 68h69l-15 -68h-69zM204 640l15 69h68l-15 -69h-68zM348 457l14 69h70l-16 -69h-68zM185 549l15 68h69l-15 -68h-69zM329 366l14 68h69l-15 -68h-68zM165 457l14 69h70l-16 -69h-68zM309 274l16 69h68l-15 -69h-69zM146 366
l14 68h69l-15 -68h-68zM290 183l14 68h69l-15 -68h-68zM126 274l16 69h68l-15 -69h-69zM270 91l16 68h68l-15 -68h-69zM343 0l14 68h69l-14 -68h-69zM107 183l14 68h69l-15 -68h-68zM251 0l15 68h68l-14 -68h-69zM87 91l16 68h68l-15 -68h-69zM160 0l14 68h68l-13 -68h-69z
M68 0l15 68h68l-14 -68h-69zM571 640l14 69h70l-16 -69h-68zM553 549l14 68h69l-15 -68h-68zM532 457l13 69h70l-14 -69h-69zM513 366l14 68h69l-15 -68h-68zM493 274l16 69h68l-15 -69h-69zM473 183l16 68h68l-14 -68h-70zM454 91l15 68h68l-14 -68h-69zM436 0l14 68h68
l-14 -68h-68zM477 858l15 68h69l-14 -68h-70zM550 766l16 69h68l-15 -69h-69zM386 858l15 68h68l-14 -68h-69zM277 766l15 69h68l-15 -69h-68z" />
    <glyph glyph-name="wcircumflex" unicode="&#x175;" horiz-adv-x="573" 
d="M348 457l14 69h70l-16 -69h-68zM329 366l14 68h69l-15 -68h-68zM165 457l14 69h70l-16 -69h-68zM309 274l16 69h68l-15 -69h-69zM146 366l14 68h69l-15 -68h-68zM290 183l14 68h69l-15 -68h-68zM126 274l16 69h68l-15 -69h-69zM270 91l16 68h68l-15 -68h-69zM343 0l14 68
h69l-14 -68h-69zM107 183l14 68h69l-15 -68h-68zM251 0l15 68h68l-14 -68h-69zM87 91l16 68h68l-15 -68h-69zM160 0l14 68h68l-13 -68h-69zM68 0l15 68h68l-14 -68h-69zM532 457l13 69h70l-14 -69h-69zM513 366l14 68h69l-15 -68h-68zM493 274l16 69h68l-15 -69h-69z
M473 183l16 68h68l-14 -68h-70zM454 91l15 68h68l-14 -68h-69zM436 0l14 68h68l-14 -68h-68zM438 675l15 68h69l-14 -68h-70zM511 583l16 69h68l-15 -69h-69zM347 675l15 68h68l-14 -68h-69zM238 583l15 69h68l-15 -69h-68z" />
    <glyph glyph-name="Ycircumflex" unicode="&#x176;" 
d="M478 640l15 69h69l-15 -69h-69zM460 549l14 68h70l-16 -68h-68zM440 457l14 69h69l-15 -69h-68zM204 640l15 69h68l-15 -69h-68zM420 366l15 68h68l-14 -68h-69zM185 549l15 68h69l-15 -68h-69zM401 274l15 69h69l-16 -69h-68zM165 457l14 69h70l-16 -69h-68zM381 183
l15 68h68l-14 -68h-69zM146 366l14 68h69l-15 -68h-68zM290 183l14 68h69l-15 -68h-68zM361 91l16 68h69l-15 -68h-70zM126 274l16 69h68l-15 -69h-69zM198 183l15 68h68l-14 -68h-69zM343 0l14 68h69l-14 -68h-69zM107 183l14 68h69l-15 -68h-68zM251 0l15 68h68l-14 -68
h-69zM160 0l14 68h68l-13 -68h-69zM68 0l15 68h68l-14 -68h-69zM431 858l15 68h69l-14 -68h-70zM504 766l16 69h68l-15 -69h-69zM340 858l15 68h68l-14 -68h-69zM231 766l15 69h68l-15 -69h-68z" />
    <glyph glyph-name="ycircumflex" unicode="&#x177;" 
d="M440 457l14 69h69l-15 -69h-68zM420 366l15 68h68l-14 -68h-69zM401 274l15 69h69l-16 -69h-68zM165 457l14 69h70l-16 -69h-68zM381 183l15 68h68l-14 -68h-69zM146 366l14 68h69l-15 -68h-68zM290 183l14 68h69l-15 -68h-68zM361 91l16 68h69l-15 -68h-70zM126 274
l16 69h68l-15 -69h-69zM198 183l15 68h68l-14 -68h-69zM343 0l14 68h69l-14 -68h-69zM107 183l14 68h69l-15 -68h-68zM251 0l15 68h68l-14 -68h-69zM160 0l14 68h68l-13 -68h-69zM68 0l15 68h68l-14 -68h-69zM393 675l15 68h69l-14 -68h-70zM466 583l16 69h68l-15 -69h-69z
M302 675l15 68h68l-14 -68h-69zM193 583l15 69h68l-15 -69h-68z" />
    <glyph glyph-name="Ydieresis" unicode="&#x178;" horiz-adv-x="482" 
d="M475 617l15 69h69l-15 -69h-69zM457 526l14 68h70l-16 -68h-68zM437 434l14 69h69l-15 -69h-68zM201 617l15 69h68l-15 -69h-68zM417 343l15 68h68l-14 -68h-69zM182 526l15 68h69l-15 -68h-69zM398 251l15 69h69l-16 -69h-68zM162 434l14 69h70l-16 -69h-68zM378 160
l15 68h68l-14 -68h-69zM143 343l14 68h69l-15 -68h-68zM287 160l14 68h69l-15 -68h-68zM358 68l16 68h69l-15 -68h-70zM123 251l16 69h68l-15 -69h-69zM195 160l15 68h68l-14 -68h-69zM340 -23l14 68h69l-14 -68h-69zM104 160l14 68h69l-15 -68h-68zM248 -23l15 68h68
l-14 -68h-69zM157 -23l14 68h68l-13 -68h-69zM65 -23l15 68h68l-14 -68h-69zM511 800l16 69h68l-15 -69h-69zM238 800l15 69h67l-15 -69h-67z" />
    <glyph glyph-name="Zacute" unicode="&#x179;" 
d="M478 640l15 69h69l-15 -69h-69zM387 640l15 69h69l-16 -69h-68zM460 549l14 68h70l-16 -68h-68zM295 640l15 69h69l-15 -69h-69zM440 457l14 69h69l-15 -69h-68zM204 640l15 69h68l-15 -69h-68zM420 366l15 68h68l-14 -68h-69zM401 274l15 69h69l-16 -69h-68zM381 183
l15 68h68l-14 -68h-69zM290 183l14 68h69l-15 -68h-68zM198 183l15 68h68l-14 -68h-69zM343 0l14 68h69l-14 -68h-69zM107 183l14 68h69l-15 -68h-68zM251 0l15 68h68l-14 -68h-69zM87 91l16 68h68l-15 -68h-69zM160 0l14 68h68l-13 -68h-69zM68 0l15 68h68l-14 -68h-69z
M430 846l15 69h68l-14 -69h-69zM319 755l16 68h67l-14 -68h-69z" />
    <glyph glyph-name="zacute" unicode="&#x17a;" 
d="M440 457l14 69h69l-15 -69h-68zM348 457l14 69h70l-16 -69h-68zM420 366l15 68h68l-14 -68h-69zM257 457l14 69h69l-15 -69h-68zM401 274l15 69h69l-16 -69h-68zM165 457l14 69h70l-16 -69h-68zM381 183l15 68h68l-14 -68h-69zM290 183l14 68h69l-15 -68h-68zM198 183
l15 68h68l-14 -68h-69zM343 0l14 68h69l-14 -68h-69zM107 183l14 68h69l-15 -68h-68zM251 0l15 68h68l-14 -68h-69zM87 91l16 68h68l-15 -68h-69zM160 0l14 68h68l-13 -68h-69zM68 0l15 68h68l-14 -68h-69zM392 663l15 69h68l-14 -69h-69zM281 572l16 68h67l-14 -68h-69z
" />
    <glyph glyph-name="Zdotaccent" unicode="&#x17b;" 
d="M478 640l15 69h69l-15 -69h-69zM387 640l15 69h69l-16 -69h-68zM460 549l14 68h70l-16 -68h-68zM295 640l15 69h69l-15 -69h-69zM440 457l14 69h69l-15 -69h-68zM204 640l15 69h68l-15 -69h-68zM420 366l15 68h68l-14 -68h-69zM401 274l15 69h69l-16 -69h-68zM381 183
l15 68h68l-14 -68h-69zM290 183l14 68h69l-15 -68h-68zM198 183l15 68h68l-14 -68h-69zM343 0l14 68h69l-14 -68h-69zM107 183l14 68h69l-15 -68h-68zM251 0l15 68h68l-14 -68h-69zM87 91l16 68h68l-15 -68h-69zM160 0l14 68h68l-13 -68h-69zM68 0l15 68h68l-14 -68h-69z
M381 823l15 69h67l-15 -69h-67z" />
    <glyph glyph-name="zdotaccent" unicode="&#x17c;" 
d="M440 457l14 69h69l-15 -69h-68zM348 457l14 69h70l-16 -69h-68zM420 366l15 68h68l-14 -68h-69zM257 457l14 69h69l-15 -69h-68zM401 274l15 69h69l-16 -69h-68zM165 457l14 69h70l-16 -69h-68zM381 183l15 68h68l-14 -68h-69zM290 183l14 68h69l-15 -68h-68zM198 183
l15 68h68l-14 -68h-69zM343 0l14 68h69l-14 -68h-69zM107 183l14 68h69l-15 -68h-68zM251 0l15 68h68l-14 -68h-69zM87 91l16 68h68l-15 -68h-69zM160 0l14 68h68l-13 -68h-69zM68 0l15 68h68l-14 -68h-69zM342 640l15 69h67l-15 -69h-67z" />
    <glyph glyph-name="Zcaron" unicode="&#x17d;" 
d="M478 640l15 69h69l-15 -69h-69zM387 640l15 69h69l-16 -69h-68zM460 549l14 68h70l-16 -68h-68zM295 640l15 69h69l-15 -69h-69zM440 457l14 69h69l-15 -69h-68zM204 640l15 69h68l-15 -69h-68zM420 366l15 68h68l-14 -68h-69zM401 274l15 69h69l-16 -69h-68zM381 183
l15 68h68l-14 -68h-69zM290 183l14 68h69l-15 -68h-68zM198 183l15 68h68l-14 -68h-69zM343 0l14 68h69l-14 -68h-69zM107 183l14 68h69l-15 -68h-68zM251 0l15 68h68l-14 -68h-69zM87 91l16 68h68l-15 -68h-69zM160 0l14 68h68l-13 -68h-69zM68 0l15 68h68l-14 -68h-69z
M323 766l14 68h69l-14 -68h-69zM250 857l15 69h69l-15 -69h-69zM415 766l14 68h68l-14 -68h-68zM524 857l15 69h68l-14 -69h-69z" />
    <glyph glyph-name="zcaron" unicode="&#x17e;" 
d="M440 457l14 69h69l-15 -69h-68zM348 457l14 69h70l-16 -69h-68zM420 366l15 68h68l-14 -68h-69zM257 457l14 69h69l-15 -69h-68zM401 274l15 69h69l-16 -69h-68zM165 457l14 69h70l-16 -69h-68zM381 183l15 68h68l-14 -68h-69zM290 183l14 68h69l-15 -68h-68zM198 183
l15 68h68l-14 -68h-69zM343 0l14 68h69l-14 -68h-69zM107 183l14 68h69l-15 -68h-68zM251 0l15 68h68l-14 -68h-69zM87 91l16 68h68l-15 -68h-69zM160 0l14 68h68l-13 -68h-69zM68 0l15 68h68l-14 -68h-69zM285 583l14 68h69l-14 -68h-69zM212 674l15 69h69l-15 -69h-69z
M377 583l14 68h68l-14 -68h-68zM486 674l15 69h68l-14 -69h-69z" />
    <glyph glyph-name="Scommaaccent" unicode="&#x218;" 
d="M478 640l15 69h69l-15 -69h-69zM387 640l15 69h69l-16 -69h-68zM295 640l15 69h69l-15 -69h-69zM204 640l15 69h68l-15 -69h-68zM185 549l15 68h69l-15 -68h-69zM165 457l14 69h70l-16 -69h-68zM381 183l15 68h68l-14 -68h-69zM146 366l14 68h69l-15 -68h-68zM290 183
l14 68h69l-15 -68h-68zM361 91l16 68h69l-15 -68h-70zM126 274l16 69h68l-15 -69h-69zM198 183l15 68h68l-14 -68h-69zM343 0l14 68h69l-14 -68h-69zM107 183l14 68h69l-15 -68h-68zM251 0l15 68h68l-14 -68h-69zM160 0l14 68h68l-13 -68h-69zM68 0l15 68h68l-14 -68h-69z
M230 -91l16 68h68l-15 -68h-69zM211 -183l16 68h69l-16 -68h-69zM193 -274l14 68h68l-14 -68h-68zM101 -274l15 68h68l-14 -68h-69z" />
    <glyph glyph-name="scommaaccent" unicode="&#x219;" 
d="M440 457l14 69h69l-15 -69h-68zM348 457l14 69h70l-16 -69h-68zM257 457l14 69h69l-15 -69h-68zM165 457l14 69h70l-16 -69h-68zM381 183l15 68h68l-14 -68h-69zM146 366l14 68h69l-15 -68h-68zM290 183l14 68h69l-15 -68h-68zM361 91l16 68h69l-15 -68h-70zM126 274
l16 69h68l-15 -69h-69zM198 183l15 68h68l-14 -68h-69zM343 0l14 68h69l-14 -68h-69zM107 183l14 68h69l-15 -68h-68zM251 0l15 68h68l-14 -68h-69zM160 0l14 68h68l-13 -68h-69zM68 0l15 68h68l-14 -68h-69zM230 -91l16 68h68l-15 -68h-69zM211 -183l16 68h69l-16 -68h-69z
M193 -274l14 68h68l-14 -68h-68zM101 -274l15 68h68l-14 -68h-69z" />
    <glyph glyph-name="uni021A" unicode="&#x21a;" horiz-adv-x="327" 
d="M351 640l15 69h69l-15 -69h-69zM259 640l16 69h68l-14 -69h-70zM168 640l15 69h68l-14 -69h-69zM241 549l15 68h69l-15 -68h-69zM221 457l15 69h68l-14 -69h-69zM201 366l16 68h68l-15 -68h-69zM182 274l16 69h69l-17 -69h-68zM162 183l16 68h68l-15 -68h-69zM143 91
l15 68h70l-16 -68h-69zM125 0l13 68h69l-14 -68h-68zM104 -91l16 68h68l-15 -68h-69zM85 -183l16 68h69l-16 -68h-69zM67 -274l14 68h68l-14 -68h-68zM-25 -274l15 68h68l-14 -68h-69z" />
    <glyph glyph-name="uni021B" unicode="&#x21b;" horiz-adv-x="421" 
d="M263 640l16 69h68l-15 -69h-69zM408 457l14 69h69l-15 -69h-68zM245 549l14 68h70l-16 -68h-68zM316 457l15 69h69l-16 -69h-68zM225 457l14 69h69l-15 -69h-68zM133 457l14 69h70l-16 -69h-68zM205 366l15 68h69l-15 -68h-69zM186 274l15 69h69l-16 -69h-68zM166 183
l15 68h68l-14 -68h-69zM311 0l14 68h69l-14 -68h-69zM147 91l15 68h69l-15 -68h-69zM219 0l15 68h68l-13 -68h-70zM128 0l14 68h68l-13 -68h-69zM200 -91l16 68h68l-15 -68h-69zM181 -183l16 68h69l-16 -68h-69zM163 -274l14 68h68l-14 -68h-68zM71 -274l15 68h68l-14 -68
h-69z" />
    <glyph glyph-name="circumflex" unicode="&#x2c6;" horiz-adv-x="479" 
d="M392 675l15 68h69l-14 -68h-70zM465 583l16 69h68l-15 -69h-69zM301 675l15 68h68l-14 -68h-69zM192 583l15 69h68l-15 -69h-68z" />
    <glyph glyph-name="caron" unicode="&#x2c7;" horiz-adv-x="479" 
d="M284 583l14 68h69l-14 -68h-69zM211 674l15 69h69l-15 -69h-69zM376 583l14 68h68l-14 -68h-68zM485 674l15 69h68l-14 -69h-69z" />
    <glyph glyph-name="breve" unicode="&#x2d8;" horiz-adv-x="479" 
d="M284 583l14 68h69l-14 -68h-69zM211 674l15 69h69l-15 -69h-69zM376 583l14 68h68l-14 -68h-68zM485 674l15 69h68l-14 -69h-69zM192 583l15 69h69l-16 -69h-68zM466 583l15 69h68l-15 -69h-68z" />
    <glyph glyph-name="dotaccent" unicode="&#x2d9;" horiz-adv-x="204" 
d="M204 640l15 69h67l-15 -69h-67z" />
    <glyph glyph-name="ring" unicode="&#x2da;" horiz-adv-x="298" 
d="M192 583l14 68h69l-14 -68h-69zM212 674l15 69h69l-16 -69h-68zM284 583l14 68h68l-14 -68h-68zM304 674l15 69h68l-15 -69h-68z" />
    <glyph glyph-name="ogonek" unicode="&#x2db;" horiz-adv-x="298" 
d="M102 -274l14 68h68l-13 -68h-69zM11 -274l14 68h68l-14 -68h-68zM30 -183l14 68h69l-14 -68h-69zM141 -91l14 68h69l-15 -68h-68z" />
    <glyph glyph-name="tilde" unicode="&#x2dc;" horiz-adv-x="479" 
d="M373 583l15 69h68l-14 -69h-69zM465 583l16 69h68l-15 -69h-69zM281 583l15 69h69l-15 -69h-69zM192 583l15 69h68l-15 -69h-68z" />
    <glyph glyph-name="hungarumlaut" unicode="&#x2dd;" horiz-adv-x="524" 
d="M530 675l14 68h70l-15 -68h-69zM420 583l15 69h68l-14 -69h-69zM301 675l15 68h68l-14 -68h-69zM192 583l15 69h68l-15 -69h-68z" />
    <glyph glyph-name="Wgrave" unicode="&#x1e80;" horiz-adv-x="573" 
d="M387 640l15 69h69l-16 -69h-68zM368 549l15 68h69l-15 -68h-69zM204 640l15 69h68l-15 -69h-68zM348 457l14 69h70l-16 -69h-68zM185 549l15 68h69l-15 -68h-69zM329 366l14 68h69l-15 -68h-68zM165 457l14 69h70l-16 -69h-68zM309 274l16 69h68l-15 -69h-69zM146 366
l14 68h69l-15 -68h-68zM290 183l14 68h69l-15 -68h-68zM126 274l16 69h68l-15 -69h-69zM270 91l16 68h68l-15 -68h-69zM343 0l14 68h69l-14 -68h-69zM107 183l14 68h69l-15 -68h-68zM251 0l15 68h68l-14 -68h-69zM87 91l16 68h68l-15 -68h-69zM160 0l14 68h68l-13 -68h-69z
M68 0l15 68h68l-14 -68h-69zM571 640l14 69h70l-16 -69h-68zM553 549l14 68h69l-15 -68h-68zM532 457l13 69h70l-14 -69h-69zM513 366l14 68h69l-15 -68h-68zM493 274l16 69h68l-15 -69h-69zM473 183l16 68h68l-14 -68h-70zM454 91l15 68h68l-14 -68h-69zM436 0l14 68h68
l-14 -68h-68zM327 846l16 69h67l-14 -69h-69zM399 755l15 68h68l-14 -68h-69z" />
    <glyph glyph-name="wgrave" unicode="&#x1e81;" horiz-adv-x="573" 
d="M348 457l14 69h70l-16 -69h-68zM329 366l14 68h69l-15 -68h-68zM165 457l14 69h70l-16 -69h-68zM309 274l16 69h68l-15 -69h-69zM146 366l14 68h69l-15 -68h-68zM290 183l14 68h69l-15 -68h-68zM126 274l16 69h68l-15 -69h-69zM270 91l16 68h68l-15 -68h-69zM343 0l14 68
h69l-14 -68h-69zM107 183l14 68h69l-15 -68h-68zM251 0l15 68h68l-14 -68h-69zM87 91l16 68h68l-15 -68h-69zM160 0l14 68h68l-13 -68h-69zM68 0l15 68h68l-14 -68h-69zM532 457l13 69h70l-14 -69h-69zM513 366l14 68h69l-15 -68h-68zM493 274l16 69h68l-15 -69h-69z
M473 183l16 68h68l-14 -68h-70zM454 91l15 68h68l-14 -68h-69zM436 0l14 68h68l-14 -68h-68zM299 663l16 69h67l-14 -69h-69zM371 572l15 68h68l-14 -68h-69z" />
    <glyph glyph-name="Wacute" unicode="&#x1e82;" horiz-adv-x="573" 
d="M387 640l15 69h69l-16 -69h-68zM368 549l15 68h69l-15 -68h-69zM204 640l15 69h68l-15 -69h-68zM348 457l14 69h70l-16 -69h-68zM185 549l15 68h69l-15 -68h-69zM329 366l14 68h69l-15 -68h-68zM165 457l14 69h70l-16 -69h-68zM309 274l16 69h68l-15 -69h-69zM146 366
l14 68h69l-15 -68h-68zM290 183l14 68h69l-15 -68h-68zM126 274l16 69h68l-15 -69h-69zM270 91l16 68h68l-15 -68h-69zM343 0l14 68h69l-14 -68h-69zM107 183l14 68h69l-15 -68h-68zM251 0l15 68h68l-14 -68h-69zM87 91l16 68h68l-15 -68h-69zM160 0l14 68h68l-13 -68h-69z
M68 0l15 68h68l-14 -68h-69zM571 640l14 69h70l-16 -69h-68zM553 549l14 68h69l-15 -68h-68zM532 457l13 69h70l-14 -69h-69zM513 366l14 68h69l-15 -68h-68zM493 274l16 69h68l-15 -69h-69zM473 183l16 68h68l-14 -68h-70zM454 91l15 68h68l-14 -68h-69zM436 0l14 68h68
l-14 -68h-68zM515 846l15 69h68l-14 -69h-69zM404 755l16 68h67l-14 -68h-69z" />
    <glyph glyph-name="wacute" unicode="&#x1e83;" horiz-adv-x="573" 
d="M348 457l14 69h70l-16 -69h-68zM329 366l14 68h69l-15 -68h-68zM165 457l14 69h70l-16 -69h-68zM309 274l16 69h68l-15 -69h-69zM146 366l14 68h69l-15 -68h-68zM290 183l14 68h69l-15 -68h-68zM126 274l16 69h68l-15 -69h-69zM270 91l16 68h68l-15 -68h-69zM343 0l14 68
h69l-14 -68h-69zM107 183l14 68h69l-15 -68h-68zM251 0l15 68h68l-14 -68h-69zM87 91l16 68h68l-15 -68h-69zM160 0l14 68h68l-13 -68h-69zM68 0l15 68h68l-14 -68h-69zM532 457l13 69h70l-14 -69h-69zM513 366l14 68h69l-15 -68h-68zM493 274l16 69h68l-15 -69h-69z
M473 183l16 68h68l-14 -68h-70zM454 91l15 68h68l-14 -68h-69zM436 0l14 68h68l-14 -68h-68zM477 663l15 69h68l-14 -69h-69zM366 572l16 68h67l-14 -68h-69z" />
    <glyph glyph-name="Wdieresis" unicode="&#x1e84;" horiz-adv-x="573" 
d="M387 640l15 69h69l-16 -69h-68zM368 549l15 68h69l-15 -68h-69zM204 640l15 69h68l-15 -69h-68zM348 457l14 69h70l-16 -69h-68zM185 549l15 68h69l-15 -68h-69zM329 366l14 68h69l-15 -68h-68zM165 457l14 69h70l-16 -69h-68zM309 274l16 69h68l-15 -69h-69zM146 366
l14 68h69l-15 -68h-68zM290 183l14 68h69l-15 -68h-68zM126 274l16 69h68l-15 -69h-69zM270 91l16 68h68l-15 -68h-69zM343 0l14 68h69l-14 -68h-69zM107 183l14 68h69l-15 -68h-68zM251 0l15 68h68l-14 -68h-69zM87 91l16 68h68l-15 -68h-69zM160 0l14 68h68l-13 -68h-69z
M68 0l15 68h68l-14 -68h-69zM571 640l14 69h70l-16 -69h-68zM553 549l14 68h69l-15 -68h-68zM532 457l13 69h70l-14 -69h-69zM513 366l14 68h69l-15 -68h-68zM493 274l16 69h68l-15 -69h-69zM473 183l16 68h68l-14 -68h-70zM454 91l15 68h68l-14 -68h-69zM436 0l14 68h68
l-14 -68h-68zM562 823l16 69h68l-15 -69h-69zM289 823l15 69h67l-15 -69h-67z" />
    <glyph glyph-name="wdieresis" unicode="&#x1e85;" horiz-adv-x="573" 
d="M348 457l14 69h70l-16 -69h-68zM329 366l14 68h69l-15 -68h-68zM165 457l14 69h70l-16 -69h-68zM309 274l16 69h68l-15 -69h-69zM146 366l14 68h69l-15 -68h-68zM290 183l14 68h69l-15 -68h-68zM126 274l16 69h68l-15 -69h-69zM270 91l16 68h68l-15 -68h-69zM343 0l14 68
h69l-14 -68h-69zM107 183l14 68h69l-15 -68h-68zM251 0l15 68h68l-14 -68h-69zM87 91l16 68h68l-15 -68h-69zM160 0l14 68h68l-13 -68h-69zM68 0l15 68h68l-14 -68h-69zM532 457l13 69h70l-14 -69h-69zM513 366l14 68h69l-15 -68h-68zM493 274l16 69h68l-15 -69h-69z
M473 183l16 68h68l-14 -68h-70zM454 91l15 68h68l-14 -68h-69zM436 0l14 68h68l-14 -68h-68zM523 640l16 69h68l-15 -69h-69zM250 640l15 69h67l-15 -69h-67z" />
    <glyph glyph-name="Ygrave" unicode="&#x1ef2;" 
d="M478 640l15 69h69l-15 -69h-69zM460 549l14 68h70l-16 -68h-68zM440 457l14 69h69l-15 -69h-68zM204 640l15 69h68l-15 -69h-68zM420 366l15 68h68l-14 -68h-69zM185 549l15 68h69l-15 -68h-69zM401 274l15 69h69l-16 -69h-68zM165 457l14 69h70l-16 -69h-68zM381 183
l15 68h68l-14 -68h-69zM146 366l14 68h69l-15 -68h-68zM290 183l14 68h69l-15 -68h-68zM361 91l16 68h69l-15 -68h-70zM126 274l16 69h68l-15 -69h-69zM198 183l15 68h68l-14 -68h-69zM343 0l14 68h69l-14 -68h-69zM107 183l14 68h69l-15 -68h-68zM251 0l15 68h68l-14 -68
h-69zM160 0l14 68h68l-13 -68h-69zM68 0l15 68h68l-14 -68h-69zM338 846l16 69h67l-14 -69h-69zM410 755l15 68h68l-14 -68h-69z" />
    <glyph glyph-name="ygrave" unicode="&#x1ef3;" 
d="M440 457l14 69h69l-15 -69h-68zM420 366l15 68h68l-14 -68h-69zM401 274l15 69h69l-16 -69h-68zM165 457l14 69h70l-16 -69h-68zM381 183l15 68h68l-14 -68h-69zM146 366l14 68h69l-15 -68h-68zM290 183l14 68h69l-15 -68h-68zM361 91l16 68h69l-15 -68h-70zM126 274
l16 69h68l-15 -69h-69zM198 183l15 68h68l-14 -68h-69zM343 0l14 68h69l-14 -68h-69zM107 183l14 68h69l-15 -68h-68zM251 0l15 68h68l-14 -68h-69zM160 0l14 68h68l-13 -68h-69zM68 0l15 68h68l-14 -68h-69zM300 663l16 69h67l-14 -69h-69zM372 572l15 68h68l-14 -68h-69z
" />
    <glyph glyph-name="endash" unicode="&#x2013;" horiz-adv-x="479" 
d="M399 274l16 69h68l-15 -69h-69zM126 274l16 69h68l-15 -69h-69zM309 274l15 69h69l-16 -69h-68zM217 274l16 69h68l-15 -69h-69z" />
    <glyph glyph-name="emdash" unicode="&#x2014;" horiz-adv-x="571" 
d="M491 274l15 69h69l-16 -69h-68zM399 274l16 69h68l-15 -69h-69zM126 274l16 69h68l-15 -69h-69zM309 274l15 69h69l-16 -69h-68zM217 274l16 69h68l-15 -69h-69z" />
    <glyph glyph-name="quoteleft" unicode="&#x2018;" horiz-adv-x="272" 
d="M204 641l15 69h68l-15 -69h-68zM251 550l16 68h68l-15 -68h-69z" />
    <glyph glyph-name="quoteright" unicode="&#x2019;" horiz-adv-x="272" 
d="M185 550l14 68h69l-14 -68h-69zM271 641l15 69h68l-14 -69h-69z" />
    <glyph glyph-name="quotesinglbase" unicode="&#x201a;" horiz-adv-x="272" 
d="M48 -91l15 68h68l-14 -68h-69zM136 0l14 69h69l-15 -69h-68z" />
    <glyph glyph-name="quotedblleft" unicode="&#x201c;" horiz-adv-x="544" 
d="M204 641l15 69h68l-15 -69h-68zM251 550l16 68h68l-15 -68h-69zM476 641l15 69h68l-15 -69h-68zM523 550l16 68h68l-15 -68h-69z" />
    <glyph glyph-name="quotedblright" unicode="&#x201d;" horiz-adv-x="544" 
d="M185 550l14 68h69l-14 -68h-69zM271 641l15 69h68l-14 -69h-69zM457 550l14 68h69l-14 -68h-69zM543 641l15 69h68l-14 -69h-69z" />
    <glyph glyph-name="quotedblbase" unicode="&#x201e;" horiz-adv-x="544" 
d="M48 -91l15 68h68l-14 -68h-69zM136 0l14 69h69l-15 -69h-68zM320 -91l15 68h68l-14 -68h-69zM408 0l14 69h69l-15 -69h-68z" />
    <glyph glyph-name="ellipsis" unicode="&#x2026;" horiz-adv-x="1489" 
d="M178 91l16 68h69l-15 -68h-70zM87 91l16 68h68l-15 -68h-69zM160 0l14 68h68l-13 -68h-69zM68 0l15 68h68l-14 -68h-69zM773 91l16 68h69l-15 -68h-70zM682 91l16 68h68l-15 -68h-69zM755 0l14 68h68l-13 -68h-69zM663 0l15 68h68l-14 -68h-69zM1369 91l16 68h69l-15 -68
h-70zM1278 91l16 68h68l-15 -68h-69zM1351 0l14 68h68l-13 -68h-69zM1259 0l15 68h68l-14 -68h-69z" />
    <glyph glyph-name="guilsinglleft" unicode="&#x2039;" horiz-adv-x="389" 
d="M348 457l14 69h70l-16 -69h-68zM237 366l15 68h68l-14 -68h-69zM126 274l16 69h68l-15 -69h-69zM198 183l15 68h68l-14 -68h-69zM270 91l16 68h68l-15 -68h-69z" />
    <glyph glyph-name="guilsinglright" unicode="&#x203a;" horiz-adv-x="389" 
d="M88 91l14 68h68l-13 -68h-69zM198 183l15 68h68l-13 -68h-70zM309 274l15 69h68l-14 -69h-69zM238 366l14 68h68l-13 -68h-69zM166 457l13 69h70l-15 -69h-68z" />
    <glyph glyph-name="fraction" unicode="&#x2044;" 
d="M478 640l15 69h69l-15 -69h-69zM460 549l14 68h70l-16 -68h-68zM348 457l14 69h70l-16 -69h-68zM329 366l14 68h69l-15 -68h-68zM218 274l15 69h69l-16 -69h-68zM198 183l15 68h68l-14 -68h-69zM87 91l16 68h68l-15 -68h-69zM68 0l15 68h68l-14 -68h-69z" />
    <glyph glyph-name="zerosuperior" unicode="&#x2070;" horiz-adv-x="291" 
d="M113 317l83 392h196l-84 -392h-195zM334 662h-100l-64 -298h100z" />
    <glyph glyph-name="foursuperior" unicode="&#x2074;" horiz-adv-x="270" 
d="M270 367l-11 -50h-47l11 50h-99l72 342h48l-63 -296h52l63 296h46l-63 -296h50l-10 -46h-49z" />
    <glyph glyph-name="fivesuperior" unicode="&#x2075;" horiz-adv-x="291" 
d="M114 317l10 47h146l12 52h-147l61 293h196l-10 -47h-148l1 -2l-42 -197h147l-32 -146h-194z" />
    <glyph glyph-name="sixsuperior" unicode="&#x2076;" horiz-adv-x="291" 
d="M113 317l83 392h196l-10 -47h-148l1 -2l-42 -197h147l-32 -146h-195zM282 416l-100 1l-12 -53h100z" />
    <glyph glyph-name="sevensuperior" unicode="&#x2077;" horiz-adv-x="251" 
d="M194 317l42 197h-50l10 47h50l21 99v2h-99l10 47h147l-32 -148h49l-10 -47h-49l-42 -197h-47z" />
    <glyph glyph-name="eightsuperior" unicode="&#x2078;" horiz-adv-x="291" 
d="M113 317l83 392h196l-84 -392h-195zM334 662h-100l-42 -199h100zM282 416h-100l-12 -52h100z" />
    <glyph glyph-name="ninesuperior" unicode="&#x2079;" horiz-adv-x="291" 
d="M114 317l10 47h146l12 52h-147l61 293h196l-84 -392h-194zM334 662h-100l-42 -199h100z" />
    <glyph glyph-name="zeroinferior" unicode="&#x2080;" horiz-adv-x="291" 
d="M44 -9l83 392h196l-84 -392h-195zM265 336h-100l-64 -298h100z" />
    <glyph glyph-name="oneinferior" unicode="&#x2081;" horiz-adv-x="191" 
d="M93 -9l74 345h-50l10 47h97l-84 -392h-47z" />
    <glyph glyph-name="twoinferior" unicode="&#x2082;" horiz-adv-x="291" 
d="M44 -9l32 146h147l42 199h-148l10 47h196l-62 -293h-148l-12 -52h148l-10 -47h-195z" />
    <glyph glyph-name="threeinferior" unicode="&#x2083;" horiz-adv-x="291" 
d="M45 -9l10 47h146l12 52h-147l10 47h147l42 199h-148l10 47h196l-84 -392h-194z" />
    <glyph glyph-name="fourinferior" unicode="&#x2084;" horiz-adv-x="270" 
d="M201 41l-11 -50h-47l11 50h-99l72 342h48l-63 -296h52l63 296h46l-63 -296h50l-10 -46h-49z" />
    <glyph glyph-name="fiveinferior" unicode="&#x2085;" horiz-adv-x="291" 
d="M45 -9l10 47h146l12 52h-147l61 293h196l-10 -47h-148l1 -2l-42 -197h147l-32 -146h-194z" />
    <glyph glyph-name="sixinferior" unicode="&#x2086;" horiz-adv-x="291" 
d="M44 -9l83 392h196l-10 -47h-148l1 -2l-42 -197h147l-32 -146h-195zM213 90l-100 1l-12 -53h100z" />
    <glyph glyph-name="seveninferior" unicode="&#x2087;" horiz-adv-x="251" 
d="M125 -9l42 197h-50l10 47h50l21 99v2h-99l10 47h147l-32 -148h49l-10 -47h-49l-42 -197h-47z" />
    <glyph glyph-name="eightinferior" unicode="&#x2088;" horiz-adv-x="291" 
d="M44 -9l83 392h196l-84 -392h-195zM265 336h-100l-42 -199h100zM213 90h-100l-12 -52h100z" />
    <glyph glyph-name="nineinferior" unicode="&#x2089;" horiz-adv-x="291" 
d="M45 -9l10 47h146l12 52h-147l61 293h196l-84 -392h-194zM265 336h-100l-42 -199h100z" />
    <glyph glyph-name="Euro" unicode="&#x20ac;" 
d="M478 640l15 69h69l-15 -69h-69zM387 640l15 69h69l-16 -69h-68zM295 640l15 69h69l-15 -69h-69zM204 640l15 69h68l-15 -69h-68zM185 549l15 68h69l-15 -68h-69zM165 457l14 69h70l-16 -69h-68zM146 366l14 68h69l-15 -68h-68zM126 274l16 69h68l-15 -69h-69zM198 183
l15 68h68l-14 -68h-69zM343 0l14 68h69l-14 -68h-69zM107 183l14 68h69l-15 -68h-68zM251 0l15 68h68l-14 -68h-69zM87 91l16 68h68l-15 -68h-69zM160 0l14 68h68l-13 -68h-69zM68 0l15 68h68l-14 -68h-69zM329 366l14 68h69l-15 -68h-68zM237 366l15 68h68l-14 -68h-69z
" />
    <glyph glyph-name="onethird" unicode="&#x2153;" horiz-adv-x="722" 
d="M185 317l74 345h-50l10 47h97l-84 -392h-47zM538 640l15 69h69l-15 -69h-69zM520 549l14 68h70l-16 -68h-68zM408 457l14 69h70l-16 -69h-68zM389 366l14 68h69l-15 -68h-68zM278 274l15 69h69l-16 -69h-68zM258 183l15 68h68l-14 -68h-69zM147 91l16 68h68l-15 -68h-69z
M128 0l15 68h68l-14 -68h-69zM457 -9l10 47h146l12 52h-147l10 47h147l42 199h-148l10 47h196l-84 -392h-194z" />
    <glyph glyph-name="twothirds" unicode="&#x2154;" horiz-adv-x="805" 
d="M135 317l32 146h147l42 199h-148l10 47h196l-62 -293h-148l-12 -52h148l-10 -47h-195zM638 640l15 69h69l-15 -69h-69zM620 549l14 68h70l-16 -68h-68zM508 457l14 69h70l-16 -69h-68zM489 366l14 68h69l-15 -68h-68zM378 274l15 69h69l-16 -69h-68zM358 183l15 68h68
l-14 -68h-69zM247 91l16 68h68l-15 -68h-69zM228 0l15 68h68l-14 -68h-69zM539 -9l10 47h146l12 52h-147l10 47h147l42 199h-148l10 47h196l-84 -392h-194z" />
    <glyph glyph-name="oneeighth" unicode="&#x215b;" horiz-adv-x="747" 
d="M185 317l74 345h-50l10 47h97l-84 -392h-47zM572 640l15 69h69l-15 -69h-69zM554 549l14 68h70l-16 -68h-68zM442 457l14 69h70l-16 -69h-68zM423 366l14 68h69l-15 -68h-68zM312 274l15 69h69l-16 -69h-68zM292 183l15 68h68l-14 -68h-69zM181 91l16 68h68l-15 -68h-69z
M162 0l15 68h68l-14 -68h-69zM480 -9l83 392h196l-84 -392h-195zM701 336h-100l-42 -199h100zM649 90h-100l-12 -52h100z" />
    <glyph glyph-name="threeeighths" unicode="&#x215c;" horiz-adv-x="852" 
d="M136 317l10 47h146l12 52h-147l10 47h147l42 199h-148l10 47h196l-84 -392h-194zM670 640l15 69h69l-15 -69h-69zM652 549l14 68h70l-16 -68h-68zM540 457l14 69h70l-16 -69h-68zM521 366l14 68h69l-15 -68h-68zM410 274l15 69h69l-16 -69h-68zM390 183l15 68h68l-14 -68
h-69zM279 91l16 68h68l-15 -68h-69zM260 0l15 68h68l-14 -68h-69zM586 -9l83 392h196l-84 -392h-195zM807 336h-100l-42 -199h100zM755 90h-100l-12 -52h100z" />
    <glyph glyph-name="fiveeighths" unicode="&#x215d;" horiz-adv-x="829" 
d="M136 317l10 47h146l12 52h-147l61 293h196l-10 -47h-148l1 -2l-42 -197h147l-32 -146h-194zM629 640l15 69h69l-15 -69h-69zM611 549l14 68h70l-16 -68h-68zM499 457l14 69h70l-16 -69h-68zM480 366l14 68h69l-15 -68h-68zM369 274l15 69h69l-16 -69h-68zM349 183l15 68
h68l-14 -68h-69zM238 91l16 68h68l-15 -68h-69zM219 0l15 68h68l-14 -68h-69zM562 -9l83 392h196l-84 -392h-195zM783 336h-100l-42 -199h100zM731 90h-100l-12 -52h100z" />
    <glyph glyph-name="seveneighths" unicode="&#x215e;" horiz-adv-x="792" 
d="M234 317l42 197h-50l10 47h50l21 99v2h-99l10 47h147l-32 -148h49l-10 -47h-49l-42 -197h-47zM613 640l15 69h69l-15 -69h-69zM595 549l14 68h70l-16 -68h-68zM483 457l14 69h70l-16 -69h-68zM464 366l14 68h69l-15 -68h-68zM353 274l15 69h69l-16 -69h-68zM333 183
l15 68h68l-14 -68h-69zM222 91l16 68h68l-15 -68h-69zM203 0l15 68h68l-14 -68h-69zM526 -9l83 392h196l-84 -392h-195zM747 336h-100l-42 -199h100zM695 90h-100l-12 -52h100z" />
    <glyph glyph-name="minus" unicode="&#x2212;" horiz-adv-x="389" 
d="M309 274l16 69h68l-15 -69h-69zM218 274l15 69h69l-16 -69h-68zM126 274l16 69h68l-15 -69h-69z" />
    <glyph glyph-name="approxequal" unicode="&#x2248;" horiz-adv-x="480" 
d="M420 365l15 69h68l-14 -69h-69zM237 365l15 69h68l-14 -69h-69zM309 274l15 68h68l-14 -68h-69zM126 274l15 68h68l-14 -68h-69zM420 365l15 69h68l-14 -69h-69zM237 365l15 69h68l-14 -69h-69zM309 274l15 68h68l-14 -68h-69zM126 274l15 68h68l-14 -68h-69z" />
    <glyph glyph-name="notequal" unicode="&#x2260;" horiz-adv-x="480" 
d="M348 457l14 69h70l-16 -69h-68zM237 366l15 68h68l-14 -68h-69zM198 183l15 68h68l-14 -68h-69zM107 183l14 68h69l-15 -68h-68zM460 549l14 68h70l-16 -68h-68zM420 366l15 68h68l-14 -68h-69zM290 183l14 68h69l-15 -68h-68zM68 0l15 68h68l-14 -68h-69zM329 366l14 68
h69l-15 -68h-68zM146 366l14 68h69l-15 -68h-68zM178 91l15 68h68l-15 -68h-68zM381 183l15 68h68l-14 -68h-69z" />
    <glyph glyph-name="lessequal" unicode="&#x2264;" 
d="M479 641l14 68h70l-16 -68h-68zM367 549l14 69h70l-16 -69h-68zM256 458l15 68h68l-14 -68h-69zM145 366l16 69h68l-15 -69h-69zM217 275l15 68h68l-14 -68h-69zM289 183l16 68h68l-15 -68h-69zM362 92l14 68h69l-14 -68h-69zM237 -68l16 69h68l-15 -69h-69zM146 -68
l15 69h69l-16 -69h-68zM54 -68l16 69h68l-15 -69h-69z" />
    <glyph glyph-name="greaterequal" unicode="&#x2265;" 
d="M204 641l15 68h69l-15 -68h-69zM276 549l14 69h69l-15 -69h-68zM348 458l14 68h69l-15 -68h-68zM420 366l15 69h69l-16 -69h-68zM309 275l14 68h69l-15 -68h-68zM197 183l16 68h69l-15 -68h-70zM87 92l15 68h68l-14 -68h-69zM237 -68l16 69h68l-15 -69h-69zM146 -68
l15 69h69l-16 -69h-68zM54 -68l16 69h68l-15 -69h-69z" />
    <glyph glyph-name=".null" horiz-adv-x="0" 
 />
    <glyph glyph-name="nonmarkingreturn" horiz-adv-x="161" 
 />
    <glyph glyph-name="sterling" unicode="&#xa3;" 
d="M478 640l15 69h69l-15 -69h-69zM387 640l15 69h69l-16 -69h-68zM460 549l14 68h70l-16 -68h-68zM295 640l15 69h69l-15 -69h-69zM204 640l15 69h68l-15 -69h-68zM185 549l15 68h69l-15 -68h-69zM165 457l14 69h70l-16 -69h-68zM146 366l14 68h69l-15 -68h-68zM290 183
l14 68h69l-15 -68h-68zM217 274l16 69h68l-15 -69h-69zM198 183l15 68h68l-14 -68h-69zM343 0l14 68h69l-14 -68h-69zM107 183l14 68h69l-15 -68h-68zM251 0l15 68h68l-14 -68h-69zM178 91l16 68h68l-15 -68h-69zM160 0l14 68h68l-13 -68h-69zM68 0l15 68h68l-14 -68h-69z
" />
    </font>
</defs>
</svg>
