{
  "accessors": [
    {
      "bufferView": 2,
      "componentType": 5126,
      "count": 15642,
      "max": [
        7.7464742660522461,
        11.728013038635254,
        6.1613254547119141
      ],
      "min": [
        -7.7464742660522461,
        -11.728012084960938,
        -6.1613254547119141
      ],
      "type": "VEC3"
    },
    {
      "bufferView": 2,
      "byteOffset": 187704,
      "componentType": 5126,
      "count": 15642,
      "max": [
        0.99998891353607178,
        0.99999916553497314,
        0.99997836351394653
      ],
      "min": [
        -0.99998879432678223,
        -0.9998658299446106,
        -0.99990946054458618
      ],
      "type": "VEC3"
    },
    {
      "bufferView": 3,
      "componentType": 5126,
      "count": 15642,
      "max": [
        0.99997943639755249,
        0.99999529123306274,
        0.9999956488609314,
        1
      ],
      "min": [
        -0.9999701976776123,
        -0.99946749210357666,
        -0.99997520446777344,
        1
      ],
      "type": "VEC4"
    },
    {
      "bufferView": 1,
      "componentType": 5126,
      "count": 15642,
      "max": [
        0.99799996614456177,
        0.99722671508789062
      ],
      "min": [
        0.0020000000949949026,
        0.0020000000949949026
      ],
      "type": "VEC2"
    },
    {
      "bufferView": 0,
      "componentType": 5125,
      "count": 90036,
      "max": [
        15641
      ],
      "min": [
        0
      ],
      "type": "SCALAR"
    }
  ],
  "asset": {
    "extras": {
      "author": "3dhdscan (https://sketchfab.com/3dhdscan)",
      "license": "CC-BY-4.0 (http://creativecommons.org/licenses/by/4.0/)",
      "source": "https://sketchfab.com/models/ee74b091f16241c29f06037c66019efa",
      "title": "Ceramic vase"
    },
    "generator": "Sketchfab-3.19.6",
    "version": "2.0"
  },
  "bufferViews": [
    {
      "buffer": 0,
      "byteLength": 360144,
      "byteOffset": 0,
      "name": "floatBufferViews",
      "target": 34963
    },
    {
      "buffer": 0,
      "byteLength": 125136,
      "byteOffset": 360144,
      "byteStride": 8,
      "name": "floatBufferViews",
      "target": 34962
    },
    {
      "buffer": 0,
      "byteLength": 375408,
      "byteOffset": 485280,
      "byteStride": 12,
      "name": "floatBufferViews",
      "target": 34962
    },
    {
      "buffer": 0,
      "byteLength": 250272,
      "byteOffset": 860688,
      "byteStride": 16,
      "name": "floatBufferViews",
      "target": 34962
    }
  ],
  "buffers": [
    {
      "byteLength": 1110960,
      "uri": "scene.bin"
    }
  ],
  "images": [
    {
      "uri": "textures/vaza_metallicRoughness.png"
    },
    {
      "uri": "textures/vaza_normal.jpeg"
    },
    {
      "uri": "textures/vaza_baseColor.jpeg"
    }
  ],
  "materials": [
    {
      "doubleSided": true,
      "emissiveFactor": [
        0,
        0,
        0
      ],
      "name": "vaza",
      "normalTexture": {
        "index": 1,
        "scale": 1,
        "texCoord": 0
      },
      "occlusionTexture": {
        "index": 0,
        "strength": 1,
        "texCoord": 0
      },
      "pbrMetallicRoughness": {
        "baseColorFactor": [
          1,
          1,
          1,
          1
        ],
        "baseColorTexture": {
          "index": 2,
          "texCoord": 0
        },
        "metallicFactor": 0,
        "roughnessFactor": 0.35804115849999996
      }
    }
  ],
  "meshes": [
    {
      "name": "vaza_vaza_0",
      "primitives": [
        {
          "attributes": {
            "NORMAL": 1,
            "POSITION": 0,
            "TANGENT": 2,
            "TEXCOORD_0": 3
          },
          "indices": 4,
          "material": 0,
          "mode": 4
        }
      ]
    }
  ],
  "nodes": [
    {
      "children": [
        1
      ],
      "name": "RootNode (gltf orientation matrix)",
      "rotation": [
        -0.70710678118654746,
        -0,
        -0,
        0.70710678118654757
      ]
    },
    {
      "children": [
        2
      ],
      "matrix": [
        1,
        0,
        0,
        0,
        0,
        -1,
        0,
        0,
        0,
        0,
        -1,
        0,
        0,
        -0.37705284357070923,
        -12.6009521484375,
        1
      ],
      "name": "RootNode (model correction matrix)"
    },
    {
      "children": [
        3
      ],
      "matrix": [
        1,
        0,
        0,
        0,
        0,
        -1,
        0,
        0,
        0,
        0,
        -1,
        0,
        0,
        0,
        0,
        1
      ],
      "name": "vaza.FBX"
    },
    {
      "children": [
        4
      ],
      "name": "RootNode"
    },
    {
      "children": [
        5
      ],
      "matrix": [
        1,
        0,
        0,
        0,
        -0,
        -4.3711388064693324e-08,
        -0.999999999999999,
        0,
        0,
        0.999999999999999,
        -4.3711388064693324e-08,
        0,
        -1.7217659950256348,
        0.18852996826171875,
        6.3004903793334961,
        1
      ],
      "name": "vaza"
    },
    {
      "mesh": 0,
      "name": "vaza_vaza_0"
    }
  ],
  "samplers": [
    {
      "magFilter": 9729,
      "minFilter": 9987,
      "wrapS": 10497,
      "wrapT": 10497
    }
  ],
  "scene": 0,
  "scenes": [
    {
      "name": "OSG_Scene",
      "nodes": [
        0
      ]
    }
  ],
  "textures": [
    {
      "sampler": 0,
      "source": 0
    },
    {
      "sampler": 0,
      "source": 1
    },
    {
      "sampler": 0,
      "source": 2
    }
  ]
}

