{
  "title" : "",
  "description" : "",
  "author" : "",
  "targetLoudness" : -18.0,
  "shouldApplyLoudnessNormalization" : true,
  "videoFormatFrameRate" : 30,
  "audioFormatSampleRate" : 44100,
  "width" : 1920.0,
  "height" : 1080.0,
  "version" : "3.0",
  "editRate" : 30,
  "authoringClientName" :  {
    "name" : "Camtasia",
    "platform" : "Windows",
    "version" : "19.0"
  },
  "sourceBin" : [
    {
      "id" : 1,
      "src" : "C:\\Users\\Ding\\Documents\\Camtasia\\Rec 02-10-20_003.trec",
      "rect" : [0, 0, 1920, 1080],
      "lastMod" : "20200210T073240",
      "sourceTracks" : [
        {
          "range" : [0, 5480],
          "type" : 0,
          "editRate" : 30,
          "trackRect" : [0, 0, 1920, 1080],
          "sampleRate" : 0,
          "bitDepth" : 0,
          "numChannels" : 0,
          "integratedLUFS" : 100.0,
          "peakLevel" : -1.0,
          "metaData" : "2b7b6a00-7a1f-11e2-83d0-0017f200be7f;2b7b6aef-7a1f-11e2-83d0-0017f200be7f;2b7b6af0-7a1f-11e2-83d0-0017f200be7f;2b7b6af1-7a1f-11e2-83d0-0017f200be7f;2b7b6af2-7a1f-11e2-83d0-0017f200be7f;2b7b6af3-7a1f-11e2-83d0-0017f200be7f;2b7b6af5-7a1f-11e2-83d0-0017f200be7f;2b7b6af6-7a1f-11e2-83d0-0017f200be7f;2b7b6af7-7a1f-11e2-83d0-0017f200be7f;2b7b6af8-7a1f-11e2-83d0-0017f200be7f;2b7b6af9-7a1f-11e2-83d0-0017f200be7f;2b7b6afa-7a1f-11e2-83d0-0017f200be7f;"
        },
        {
          "range" : [0, 8049664],
          "type" : 2,
          "editRate" : 44100,
          "trackRect" : [0, 0, 0, 0],
          "sampleRate" : 44100,
          "bitDepth" : 16,
          "numChannels" : 2,
          "integratedLUFS" : -15.024798680752,
          "peakLevel" : 1.0,
          "metaData" : ""
        }
      ]
    },
    {
      "id" : 2,
      "src" : "C:\\Users\\Ding\\Documents\\Camtasia\\Rec 02-10-20_004.trec",
      "rect" : [0, 0, 1920, 1080],
      "lastMod" : "20200210T083808",
      "sourceTracks" : [
        {
          "range" : [0, 7369],
          "type" : 0,
          "editRate" : 30,
          "trackRect" : [0, 0, 1920, 1080],
          "sampleRate" : 0,
          "bitDepth" : 0,
          "numChannels" : 0,
          "integratedLUFS" : 100.0,
          "peakLevel" : -1.0,
          "metaData" : "2b7b6a00-7a1f-11e2-83d0-0017f200be7f;2b7b6aef-7a1f-11e2-83d0-0017f200be7f;2b7b6af0-7a1f-11e2-83d0-0017f200be7f;2b7b6af1-7a1f-11e2-83d0-0017f200be7f;2b7b6af2-7a1f-11e2-83d0-0017f200be7f;2b7b6af3-7a1f-11e2-83d0-0017f200be7f;2b7b6af5-7a1f-11e2-83d0-0017f200be7f;2b7b6af6-7a1f-11e2-83d0-0017f200be7f;2b7b6af7-7a1f-11e2-83d0-0017f200be7f;2b7b6af8-7a1f-11e2-83d0-0017f200be7f;2b7b6af9-7a1f-11e2-83d0-0017f200be7f;2b7b6afa-7a1f-11e2-83d0-0017f200be7f;"
        },
        {
          "range" : [0, 10827776],
          "type" : 2,
          "editRate" : 44100,
          "trackRect" : [0, 0, 0, 0],
          "sampleRate" : 44100,
          "bitDepth" : 16,
          "numChannels" : 2,
          "integratedLUFS" : -16.4062685322851,
          "peakLevel" : 1.0,
          "metaData" : ""
        }
      ]
    }
  ],
  "timeline" : {
    "id" : 3,
    "sceneTrack" : {
      "scenes" : [
        {
          "duration" : 113.566666666667,
          "title" : "",
          "type" : "",
          "csml" : {
            "tracks" : [
              {
                "trackIndex" : 0,
                "medias" : [
                  {
                    "id" : 4,
                    "_type" : "Group",
                    "parameters" : {
                      "volume" : 1.0
                    },
                    "tracks" : [
                      {
                        "trackIndex" : 0,
                        "medias" : [
                          {
                            "id" : 5,
                            "_type" : "UnifiedMedia",
                            "video" : 
                                {
                                  "id" : 6,
                                  "_type" : "ScreenVMFile",
                                  "src" : 1,
                                  "trackNumber" : 0,
                                  "attributes" : {
                                    "ident" : "Rec 02-10-20_003"
                                  },
                                  "parameters" : {
                                    "cursorScale" : {
                                      "type" : "double",
                                      "defaultValue" : 1.0,
                                      "interp" : "linr"
                                    },
                                    "cursorOpacity" : {
                                      "type" : "double",
                                      "defaultValue" : 1.0,
                                      "interp" : "linr"
                                    }
                                  },
                                  "effects" : [

                                  ],
                                  "start" : 0,
                                  "duration" : 3043,
                                  "mediaStart" : 0,
                                  "mediaDuration" : 5476,
                                  "scalar" : "3043/5476",
                                  "animationTracks" : {

                                  }
                                },
                            "audio" : 
                                {
                                  "id" : 7,
                                  "_type" : "AMFile",
                                  "src" : 1,
                                  "trackNumber" : 1,
                                  "attributes" : {
                                    "ident" : "",
                                    "sampleRate" : 44100,
                                    "bitDepth" : 16,
                                    "gain" : 1.0,
                                    "mixToMono" : false
                                  },
                                    "channelNumber" : "0,1",
                                  "parameters" : {
                                    "volume" : {
                                      "type" : "double",
                                      "keyframes" : [
                                        {
                                          "endTime" : -1,
                                          "time" : -1,
                                          "value" : 1.0,
                                          "duration" : 0
                                        },
                                        {
                                          "endTime" : 0,
                                          "time" : 0,
                                          "value" : 0.0,
                                          "duration" : 0
                                        },
                                        {
                                          "endTime" : 5476,
                                          "time" : 5476,
                                          "value" : 0.0,
                                          "duration" : 0
                                        },
                                        {
                                          "endTime" : 5477,
                                          "time" : 5477,
                                          "value" : 1.0,
                                          "duration" : 0
                                        }
                                      ]
                                    }
                                  },
                                  "effects" : [

                                  ],
                                  "start" : 0,
                                  "duration" : 3043,
                                  "mediaStart" : 0,
                                  "mediaDuration" : 5476,
                                  "scalar" : "3043/5476",
                                  "animationTracks" : {

                                  }
                                }
,
                            "start" : 0,
                            "duration" : 3043,
                            "mediaStart" : 0,
                            "mediaDuration" : 5476,
                            "scalar" : "3043/5476",
                            "metadata" : {
                              "AutoAppliedSmartFocus" : "False",
                              "WinSubProjectDisplayName" : "",
                              "clipSpeedAttribute" : true,
                              "default-scale0" : 1.0,
                              "default-scale1" : 1.0
                            }
                          }
                        ],
                          "ident" : "",
                          "audioMuted" : true,
                          "videoHidden" : true,
                          "magnetic" : false,
                          "metadata" : {
                            "IsLocked" : "False",
                            "WinTrackHeight" : "0"
                          }
                      },
                      {
                        "trackIndex" : 1,
                        "medias" : [
                          {
                            "id" : 8,
                            "_type" : "Callout",
                            "def" : {
                              "kind" : "TypeWinBlur",
                              "shape" : "",
                              "style" : "",
                              "blur-invert" : 0.0,
                              "height" : 270.0,
                              "intensity" : 1.0,
                              "width" : 480.0,
                              "filename" : "C:\\Program Files\\TechSmith\\Camtasia 2019\\Media\\Studio\\Callouts\\blur_100x100.xml",
                              "name" : "Blur",
                              "xmlContent" : "﻿<?xml version=\"1.0\"?>\n\n<Overlay version=\"1.0.1\">\n\n<Overlay_Filename>blur_100x100.png</Overlay_Filename>\n<Overlay_Name>Blur</Overlay_Name>\n<Text_Top>0</Text_Top>\n<Text_Left>0</Text_Left>\n<Text_Bottom>0</Text_Bottom>\n<Text_Right>0</Text_Right>\n<Fill_Color>0</Fill_Color>\n<Border_Color>0</Border_Color>\n</Overlay>"
                            },
                            "attributes" : {
                              "autoRotateText" : true
                            },
                            "parameters" : {
                              "translation0" : 238.043478262155,
                              "translation1" : 157.60869565188,
                              "scale0" : 1.31250000000205,
                              "scale1" : 1.36231884058067
                            },
                            "effects" : [

                            ],
                            "start" : 552,
                            "duration" : 30,
                            "mediaStart" : 0,
                            "mediaDuration" : 30,
                            "scalar" : 1,
                            "metadata" : {
                              "WinSubProjectDisplayName" : "",
                              "clipSpeedAttribute" : false,
                              "default-scale0" : 1.0,
                              "default-scale1" : 1.0,
                              "default-translation0" : 0.0,
                              "default-translation1" : 0.0
                            },
                            "animationTracks" : {

                            }
                          },
                          {
                            "id" : 9,
                            "_type" : "Callout",
                            "def" : {
                              "kind" : "TypeWinBlur",
                              "shape" : "",
                              "style" : "",
                              "blur-invert" : 0.0,
                              "height" : 270.0,
                              "intensity" : 1.0,
                              "width" : 480.0,
                              "filename" : "C:\\Program Files\\TechSmith\\Camtasia 2019\\Media\\Studio\\Callouts\\blur_100x100.xml",
                              "name" : "Blur",
                              "xmlContent" : "﻿<?xml version=\"1.0\"?>\n\n<Overlay version=\"1.0.1\">\n\n<Overlay_Filename>blur_100x100.png</Overlay_Filename>\n<Overlay_Name>Blur</Overlay_Name>\n<Text_Top>0</Text_Top>\n<Text_Left>0</Text_Left>\n<Text_Bottom>0</Text_Bottom>\n<Text_Right>0</Text_Right>\n<Fill_Color>0</Fill_Color>\n<Border_Color>0</Border_Color>\n</Overlay>"
                            },
                            "attributes" : {
                              "autoRotateText" : true
                            },
                            "parameters" : {
                              "translation0" : -302.173913043283,
                              "translation1" : 153.260869565126,
                              "scale0" : 0.461050724638653,
                              "scale1" : 1.6199677938819
                            },
                            "effects" : [

                            ],
                            "start" : 755,
                            "duration" : 2,
                            "mediaStart" : 0,
                            "mediaDuration" : 2,
                            "scalar" : 1,
                            "metadata" : {
                              "WinSubProjectDisplayName" : "",
                              "clipSpeedAttribute" : false,
                              "default-scale0" : 1.0,
                              "default-scale1" : 1.0,
                              "default-translation0" : 0.0,
                              "default-translation1" : 0.0
                            },
                            "animationTracks" : {

                            }
                          },
                          {
                            "id" : 10,
                            "_type" : "Callout",
                            "def" : {
                              "kind" : "TypeWinBlur",
                              "shape" : "",
                              "style" : "",
                              "blur-invert" : 0.0,
                              "height" : {
                                "type" : "double",
                                "defaultValue" : 270.0,
                                "interp" : "linr"
                              },
                              "intensity" : {
                                "type" : "double",
                                "defaultValue" : 1.0,
                                "interp" : "linr"
                              },
                              "width" : {
                                "type" : "double",
                                "defaultValue" : 480.0,
                                "interp" : "linr"
                              },
                              "filename" : "C:\\Program Files\\TechSmith\\Camtasia 2019\\Media\\Studio\\Callouts\\blur_100x100.xml",
                              "name" : "Blur",
                              "xmlContent" : "﻿<?xml version=\"1.0\"?>\n\n<Overlay version=\"1.0.1\">\n\n<Overlay_Filename>blur_100x100.png</Overlay_Filename>\n<Overlay_Name>Blur</Overlay_Name>\n<Text_Top>0</Text_Top>\n<Text_Left>0</Text_Left>\n<Text_Bottom>0</Text_Bottom>\n<Text_Right>0</Text_Right>\n<Fill_Color>0</Fill_Color>\n<Border_Color>0</Border_Color>\n</Overlay>"
                            },
                            "attributes" : {
                              "autoRotateText" : true
                            },
                            "parameters" : {
                              "translation0" : {
                                "type" : "double",
                                "defaultValue" : -313.04347826096,
                                "interp" : "eioe"
                              },
                              "translation1" : {
                                "type" : "double",
                                "defaultValue" : 185.978260869626,
                                "interp" : "eioe"
                              },
                              "scale0" : {
                                "type" : "double",
                                "defaultValue" : 0.415760869564999,
                                "interp" : "eioe"
                              },
                              "scale1" : {
                                "type" : "double",
                                "defaultValue" : 1.3776167471819,
                                "interp" : "eioe"
                              }
                            },
                            "effects" : [

                            ],
                            "start" : 758,
                            "duration" : 98,
                            "mediaStart" : 2,
                            "mediaDuration" : 98,
                            "scalar" : 1,
                            "metadata" : {
                              "WinSubProjectDisplayName" : "",
                              "clipSpeedAttribute" : false,
                              "default-scale0" : 1.0,
                              "default-scale1" : 1.0,
                              "default-translation0" : 0.0,
                              "default-translation1" : 0.0
                            },
                            "animationTracks" : {

                            }
                          }
                        ],
                          "ident" : "",
                          "audioMuted" : true,
                          "videoHidden" : true,
                          "magnetic" : false,
                          "metadata" : {
                            "IsLocked" : "False",
                            "WinTrackHeight" : "5.85890414707734e-313"
                          }
                      },
                      {
                        "trackIndex" : 2,
                        "medias" : [
                          {
                            "id" : 11,
                            "_type" : "Callout",
                            "def" : {
                              "kind" : "TypeWinBlur",
                              "shape" : "",
                              "style" : "",
                              "blur-invert" : 0.0,
                              "height" : {
                                "type" : "double",
                                "defaultValue" : 270.0,
                                "interp" : "linr"
                              },
                              "intensity" : {
                                "type" : "double",
                                "defaultValue" : 1.0,
                                "interp" : "linr"
                              },
                              "width" : {
                                "type" : "double",
                                "defaultValue" : 480.0,
                                "interp" : "linr"
                              },
                              "filename" : "C:\\Program Files\\TechSmith\\Camtasia 2019\\Media\\Studio\\Callouts\\blur_100x100.xml",
                              "name" : "Blur",
                              "xmlContent" : "﻿<?xml version=\"1.0\"?>\n\n<Overlay version=\"1.0.1\">\n\n<Overlay_Filename>blur_100x100.png</Overlay_Filename>\n<Overlay_Name>Blur</Overlay_Name>\n<Text_Top>0</Text_Top>\n<Text_Left>0</Text_Left>\n<Text_Bottom>0</Text_Bottom>\n<Text_Right>0</Text_Right>\n<Fill_Color>0</Fill_Color>\n<Border_Color>0</Border_Color>\n</Overlay>"
                            },
                            "attributes" : {
                              "autoRotateText" : true
                            },
                            "parameters" : {
                              "translation0" : {
                                "type" : "double",
                                "defaultValue" : -268.478260868982,
                                "interp" : "eioe"
                              },
                              "translation1" : {
                                "type" : "double",
                                "defaultValue" : 149.456521739094,
                                "interp" : "eioe"
                              },
                              "scale0" : {
                                "type" : "double",
                                "defaultValue" : 0.587862318841295,
                                "interp" : "eioe"
                              },
                              "scale1" : {
                                "type" : "double",
                                "defaultValue" : 1.66425120772996,
                                "interp" : "eioe"
                              }
                            },
                            "effects" : [

                            ],
                            "start" : 518,
                            "duration" : 2,
                            "mediaStart" : 0,
                            "mediaDuration" : 2,
                            "scalar" : 1,
                            "metadata" : {
                              "WinSubProjectDisplayName" : "",
                              "clipSpeedAttribute" : false,
                              "default-scale0" : 1.0,
                              "default-scale1" : 1.0,
                              "default-translation0" : 0.0,
                              "default-translation1" : 0.0
                            },
                            "animationTracks" : {

                            }
                          },
                          {
                            "id" : 12,
                            "_type" : "Callout",
                            "def" : {
                              "kind" : "TypeWinBlur",
                              "shape" : "",
                              "style" : "",
                              "blur-invert" : 0.0,
                              "height" : {
                                "type" : "double",
                                "defaultValue" : 270.0,
                                "interp" : "linr"
                              },
                              "intensity" : {
                                "type" : "double",
                                "defaultValue" : 1.0,
                                "interp" : "linr"
                              },
                              "width" : {
                                "type" : "double",
                                "defaultValue" : 480.0,
                                "interp" : "linr"
                              },
                              "filename" : "C:\\Program Files\\TechSmith\\Camtasia 2019\\Media\\Studio\\Callouts\\blur_100x100.xml",
                              "name" : "Blur",
                              "xmlContent" : "﻿<?xml version=\"1.0\"?>\n\n<Overlay version=\"1.0.1\">\n\n<Overlay_Filename>blur_100x100.png</Overlay_Filename>\n<Overlay_Name>Blur</Overlay_Name>\n<Text_Top>0</Text_Top>\n<Text_Left>0</Text_Left>\n<Text_Bottom>0</Text_Bottom>\n<Text_Right>0</Text_Right>\n<Fill_Color>0</Fill_Color>\n<Border_Color>0</Border_Color>\n</Overlay>"
                            },
                            "attributes" : {
                              "autoRotateText" : true
                            },
                            "parameters" : {
                              "translation0" : {
                                "type" : "double",
                                "defaultValue" : -272.282608694738,
                                "interp" : "eioe"
                              },
                              "translation1" : {
                                "type" : "double",
                                "defaultValue" : 202.17391304345,
                                "interp" : "eioe"
                              },
                              "scale0" : {
                                "type" : "double",
                                "defaultValue" : 0.572010869567309,
                                "interp" : "eioe"
                              },
                              "scale1" : {
                                "type" : "double",
                                "defaultValue" : 1.27375201288288,
                                "interp" : "eioe"
                              }
                            },
                            "effects" : [

                            ],
                            "start" : 521,
                            "duration" : 61,
                            "mediaStart" : 2,
                            "mediaDuration" : 61,
                            "scalar" : 1,
                            "metadata" : {
                              "WinSubProjectDisplayName" : "",
                              "clipSpeedAttribute" : false,
                              "default-scale0" : 1.0,
                              "default-scale1" : 1.0,
                              "default-translation0" : 0.0,
                              "default-translation1" : 0.0
                            },
                            "animationTracks" : {

                            }
                          },
                          {
                            "id" : 13,
                            "_type" : "Callout",
                            "def" : {
                              "kind" : "TypeWinBlur",
                              "shape" : "",
                              "style" : "",
                              "blur-invert" : 0.0,
                              "height" : 270.0,
                              "intensity" : 1.0,
                              "width" : 480.0,
                              "filename" : "C:\\Program Files\\TechSmith\\Camtasia 2019\\Media\\Studio\\Callouts\\blur_100x100.xml",
                              "name" : "Blur",
                              "xmlContent" : "﻿<?xml version=\"1.0\"?>\n\n<Overlay version=\"1.0.1\">\n\n<Overlay_Filename>blur_100x100.png</Overlay_Filename>\n<Overlay_Name>Blur</Overlay_Name>\n<Text_Top>0</Text_Top>\n<Text_Left>0</Text_Left>\n<Text_Bottom>0</Text_Bottom>\n<Text_Right>0</Text_Right>\n<Fill_Color>0</Fill_Color>\n<Border_Color>0</Border_Color>\n</Overlay>"
                            },
                            "attributes" : {
                              "autoRotateText" : true
                            },
                            "parameters" : {
                              "translation0" : 176.630434782964,
                              "translation1" : 14.8840579710274,
                              "scale0" : 1.48233695652316,
                              "scale1" : 2.46784755770288
                            },
                            "effects" : [

                            ],
                            "start" : 756,
                            "duration" : 52,
                            "mediaStart" : 0,
                            "mediaDuration" : 52,
                            "scalar" : 1,
                            "metadata" : {
                              "WinSubProjectDisplayName" : "",
                              "clipSpeedAttribute" : false,
                              "default-scale0" : 1.0,
                              "default-scale1" : 1.0,
                              "default-translation0" : 0.0,
                              "default-translation1" : 0.0
                            },
                            "animationTracks" : {

                            }
                          },
                          {
                            "id" : 14,
                            "_type" : "Callout",
                            "def" : {
                              "kind" : "TypeWinBlur",
                              "shape" : "",
                              "style" : "",
                              "blur-invert" : 0.0,
                              "height" : {
                                "type" : "double",
                                "defaultValue" : 270.0,
                                "interp" : "linr"
                              },
                              "intensity" : {
                                "type" : "double",
                                "defaultValue" : 1.0,
                                "interp" : "linr"
                              },
                              "width" : {
                                "type" : "double",
                                "defaultValue" : 480.0,
                                "interp" : "linr"
                              },
                              "filename" : "C:\\Program Files\\TechSmith\\Camtasia 2019\\Media\\Studio\\Callouts\\blur_100x100.xml",
                              "name" : "Blur",
                              "xmlContent" : "﻿<?xml version=\"1.0\"?>\n\n<Overlay version=\"1.0.1\">\n\n<Overlay_Filename>blur_100x100.png</Overlay_Filename>\n<Overlay_Name>Blur</Overlay_Name>\n<Text_Top>0</Text_Top>\n<Text_Left>0</Text_Left>\n<Text_Bottom>0</Text_Bottom>\n<Text_Right>0</Text_Right>\n<Fill_Color>0</Fill_Color>\n<Border_Color>0</Border_Color>\n</Overlay>"
                            },
                            "attributes" : {
                              "autoRotateText" : true
                            },
                            "parameters" : {
                              "translation0" : {
                                "type" : "double",
                                "defaultValue" : 176.630434783054,
                                "interp" : "eioe"
                              },
                              "translation1" : {
                                "type" : "double",
                                "defaultValue" : 30.4347826088274,
                                "interp" : "eioe"
                              },
                              "scale0" : {
                                "type" : "double",
                                "defaultValue" : 1.48233695652354,
                                "interp" : "eioe"
                              },
                              "scale1" : {
                                "type" : "double",
                                "defaultValue" : 2.35265700483029,
                                "interp" : "eioe"
                              }
                            },
                            "effects" : [

                            ],
                            "start" : 808,
                            "duration" : 48,
                            "mediaStart" : 52,
                            "mediaDuration" : 48,
                            "scalar" : 1,
                            "metadata" : {
                              "WinSubProjectDisplayName" : "",
                              "clipSpeedAttribute" : false,
                              "default-scale0" : 1.0,
                              "default-scale1" : 1.0,
                              "default-translation0" : 0.0,
                              "default-translation1" : 0.0
                            },
                            "animationTracks" : {

                            }
                          }
                        ],
                          "ident" : "",
                          "audioMuted" : true,
                          "videoHidden" : true,
                          "magnetic" : false,
                          "metadata" : {
                            "IsLocked" : "False",
                            "WinTrackHeight" : "5.85890414707734e-313"
                          }
                      },
                      {
                        "trackIndex" : 3,
                        "medias" : [
                          {
                            "id" : 15,
                            "_type" : "Callout",
                            "def" : {
                              "kind" : "TypeWinBlur",
                              "shape" : "",
                              "style" : "",
                              "blur-invert" : 0.0,
                              "height" : {
                                "type" : "double",
                                "defaultValue" : 270.0,
                                "interp" : "linr"
                              },
                              "intensity" : {
                                "type" : "double",
                                "defaultValue" : 1.0,
                                "interp" : "linr"
                              },
                              "width" : {
                                "type" : "double",
                                "defaultValue" : 480.0,
                                "interp" : "linr"
                              },
                              "filename" : "C:\\Program Files\\TechSmith\\Camtasia 2019\\Media\\Studio\\Callouts\\blur_100x100.xml",
                              "name" : "Blur",
                              "xmlContent" : "﻿<?xml version=\"1.0\"?>\n\n<Overlay version=\"1.0.1\">\n\n<Overlay_Filename>blur_100x100.png</Overlay_Filename>\n<Overlay_Name>Blur</Overlay_Name>\n<Text_Top>0</Text_Top>\n<Text_Left>0</Text_Left>\n<Text_Bottom>0</Text_Bottom>\n<Text_Right>0</Text_Right>\n<Fill_Color>0</Fill_Color>\n<Border_Color>0</Border_Color>\n</Overlay>"
                            },
                            "attributes" : {
                              "autoRotateText" : true
                            },
                            "parameters" : {
                              "translation0" : {
                                "type" : "double",
                                "defaultValue" : 354.51086956577,
                                "interp" : "eioe"
                              },
                              "translation1" : {
                                "type" : "double",
                                "defaultValue" : -294.724637681003,
                                "interp" : "eioe"
                              },
                              "scale0" : {
                                "type" : "double",
                                "defaultValue" : 0.741168478262219,
                                "interp" : "eioe"
                              },
                              "scale1" : {
                                "type" : "double",
                                "defaultValue" : 0.174449812132543,
                                "interp" : "eioe"
                              }
                            },
                            "effects" : [

                            ],
                            "start" : 808,
                            "duration" : 48,
                            "mediaStart" : 52,
                            "mediaDuration" : 48,
                            "scalar" : 1,
                            "metadata" : {
                              "WinSubProjectDisplayName" : "",
                              "clipSpeedAttribute" : false,
                              "default-scale0" : 1.0,
                              "default-scale1" : 1.0,
                              "default-translation0" : 0.0,
                              "default-translation1" : 0.0
                            },
                            "animationTracks" : {

                            }
                          }
                        ],
                          "ident" : "",
                          "audioMuted" : true,
                          "videoHidden" : true,
                          "magnetic" : false,
                          "metadata" : {
                            "IsLocked" : "False",
                            "WinTrackHeight" : "5.85890414707734e-313"
                          }
                      }
                    ],
                    "attributes" : {
                      "ident" : "Group 1",
                      "gain" : 1.0,
                      "mixToMono" : false
                    },
                    "effects" : [

                    ],
                    "start" : 0,
                    "duration" : 3043,
                    "mediaStart" : 0.0,
                    "mediaDuration" : 3043.0,
                    "scalar" : 1,
                    "metadata" : {
                      "IsGroupExpanded" : "False",
                      "WinSubProjectDisplayName" : ""
                    },
                    "animationTracks" : {

                    }
                  }
                ]
              },
              {
                "trackIndex" : 1,
                "medias" : [
                  {
                    "id" : 16,
                    "_type" : "Group",
                    "parameters" : {
                      "volume" : 1.0
                    },
                    "tracks" : [
                      {
                        "trackIndex" : 0,
                        "medias" : [
                          {
                            "id" : 17,
                            "_type" : "StitchedMedia",
                            "minMediaStart" : 0,
                            "attributes" : {
                              "ident" : "Rec 02-10-20_004",
                              "gain" : 1.0,
                              "mixToMono" : false
                            },
                            "parameters" : {
                              "volume" : {
                                "type" : "double",
                                "keyframes" : [
                                  {
                                    "endTime" : 0,
                                    "time" : 0,
                                    "value" : 1.0,
                                    "duration" : 0
                                  },
                                  {
                                    "endTime" : 489,
                                    "time" : 489,
                                    "value" : 1.0,
                                    "duration" : 0
                                  },
                                  {
                                    "endTime" : 490,
                                    "time" : 490,
                                    "value" : 0.0,
                                    "duration" : 0
                                  },
                                  {
                                    "endTime" : "1875767/263",
                                    "time" : "1875767/263",
                                    "value" : 0.0,
                                    "duration" : 0
                                  },
                                  {
                                    "endTime" : "1876030/263",
                                    "time" : "1876030/263",
                                    "value" : 1.0,
                                    "duration" : 0
                                  }
                                ]
                              },
                              "cursorOpacity" : 1.0,
                              "cursorScale" : 1.0
                            },
                            "medias" : [
                                {
                                  "id" : 18,
                                  "_type" : "UnifiedMedia",
                                  "video" : 
                                      {
                                        "id" : 19,
                                        "_type" : "ScreenVMFile",
                                        "src" : 2,
                                        "trackNumber" : 0,
                                        "attributes" : {
                                          "ident" : "Rec 02-10-20_004"
                                        },
                                        "parameters" : {
                                          "cursorScale" : {
                                            "type" : "double",
                                            "defaultValue" : 0.0,
                                            "interp" : "linr"
                                          },
                                          "cursorOpacity" : {
                                            "type" : "double",
                                            "defaultValue" : 0.0,
                                            "interp" : "linr"
                                          }
                                        },
                                        "effects" : [

                                        ],
                                        "start" : 0,
                                        "duration" : 887,
                                        "mediaStart" : 0,
                                        "mediaDuration" : 887,
                                        "scalar" : 1,
                                        "animationTracks" : {

                                        }
                                      },
                                  "audio" : 
                                      {
                                        "id" : 20,
                                        "_type" : "AMFile",
                                        "src" : 2,
                                        "trackNumber" : 1,
                                        "attributes" : {
                                          "ident" : "",
                                          "sampleRate" : 44100,
                                          "bitDepth" : 16,
                                          "gain" : 1.0,
                                          "mixToMono" : false
                                        },
                                          "channelNumber" : "0,1",
                                        "effects" : [

                                        ],
                                        "start" : 0,
                                        "duration" : 887,
                                        "mediaStart" : 0,
                                        "mediaDuration" : 887,
                                        "scalar" : 1,
                                        "animationTracks" : {

                                        }
                                      }
,
                                  "start" : 0,
                                  "duration" : 887,
                                  "mediaStart" : 0,
                                  "mediaDuration" : 7366,
                                  "scalar" : 1,
                                  "metadata" : {
                                    "AutoAppliedSmartFocus" : "False",
                                    "WinSubProjectDisplayName" : "",
                                    "clipSpeedAttribute" : false
                                  }
                                },
                                {
                                  "id" : 21,
                                  "_type" : "UnifiedMedia",
                                  "video" : 
                                      {
                                        "id" : 22,
                                        "_type" : "ScreenVMFile",
                                        "src" : 2,
                                        "trackNumber" : 0,
                                        "attributes" : {
                                          "ident" : "Rec 02-10-20_004"
                                        },
                                        "parameters" : {
                                          "cursorScale" : {
                                            "type" : "double",
                                            "defaultValue" : 0.0,
                                            "interp" : "linr"
                                          },
                                          "cursorOpacity" : {
                                            "type" : "double",
                                            "defaultValue" : 0.0,
                                            "interp" : "linr"
                                          }
                                        },
                                        "effects" : [

                                        ],
                                        "start" : 887,
                                        "duration" : 168,
                                        "mediaStart" : 976,
                                        "mediaDuration" : 168,
                                        "scalar" : 1,
                                        "animationTracks" : {

                                        }
                                      },
                                  "audio" : 
                                      {
                                        "id" : 23,
                                        "_type" : "AMFile",
                                        "src" : 2,
                                        "trackNumber" : 1,
                                        "attributes" : {
                                          "ident" : "",
                                          "sampleRate" : 44100,
                                          "bitDepth" : 16,
                                          "gain" : 1.0,
                                          "mixToMono" : false
                                        },
                                          "channelNumber" : "0,1",
                                        "effects" : [

                                        ],
                                        "start" : 887,
                                        "duration" : 168,
                                        "mediaStart" : 976,
                                        "mediaDuration" : 168,
                                        "scalar" : 1,
                                        "animationTracks" : {

                                        }
                                      }
,
                                  "start" : 887,
                                  "duration" : 168,
                                  "mediaStart" : 0,
                                  "mediaDuration" : 7366,
                                  "scalar" : 1,
                                  "metadata" : {
                                    "AutoAppliedSmartFocus" : "False",
                                    "WinSubProjectDisplayName" : "",
                                    "clipSpeedAttribute" : false
                                  }
                                },
                                {
                                  "id" : 24,
                                  "_type" : "UnifiedMedia",
                                  "video" : 
                                      {
                                        "id" : 25,
                                        "_type" : "ScreenVMFile",
                                        "src" : 2,
                                        "trackNumber" : 0,
                                        "attributes" : {
                                          "ident" : "Rec 02-10-20_004"
                                        },
                                        "parameters" : {
                                          "cursorScale" : {
                                            "type" : "double",
                                            "defaultValue" : 0.0,
                                            "interp" : "linr"
                                          },
                                          "cursorOpacity" : {
                                            "type" : "double",
                                            "defaultValue" : 0.0,
                                            "interp" : "linr"
                                          }
                                        },
                                        "effects" : [

                                        ],
                                        "start" : 1055,
                                        "duration" : 223,
                                        "mediaStart" : 1186,
                                        "mediaDuration" : 223,
                                        "scalar" : 1,
                                        "animationTracks" : {

                                        }
                                      },
                                  "audio" : 
                                      {
                                        "id" : 26,
                                        "_type" : "AMFile",
                                        "src" : 2,
                                        "trackNumber" : 1,
                                        "attributes" : {
                                          "ident" : "",
                                          "sampleRate" : 44100,
                                          "bitDepth" : 16,
                                          "gain" : 1.0,
                                          "mixToMono" : false
                                        },
                                          "channelNumber" : "0,1",
                                        "effects" : [

                                        ],
                                        "start" : 1055,
                                        "duration" : 223,
                                        "mediaStart" : 1186,
                                        "mediaDuration" : 223,
                                        "scalar" : 1,
                                        "animationTracks" : {

                                        }
                                      }
,
                                  "start" : 1055,
                                  "duration" : 223,
                                  "mediaStart" : 0,
                                  "mediaDuration" : 7366,
                                  "scalar" : 1,
                                  "metadata" : {
                                    "AutoAppliedSmartFocus" : "False",
                                    "WinSubProjectDisplayName" : "",
                                    "clipSpeedAttribute" : false
                                  }
                                },
                                {
                                  "id" : 27,
                                  "_type" : "UnifiedMedia",
                                  "video" : 
                                      {
                                        "id" : 28,
                                        "_type" : "ScreenVMFile",
                                        "src" : 2,
                                        "trackNumber" : 0,
                                        "attributes" : {
                                          "ident" : "Rec 02-10-20_004"
                                        },
                                        "parameters" : {
                                          "cursorScale" : {
                                            "type" : "double",
                                            "defaultValue" : 0.0,
                                            "interp" : "linr"
                                          },
                                          "cursorOpacity" : {
                                            "type" : "double",
                                            "defaultValue" : 0.0,
                                            "interp" : "linr"
                                          }
                                        },
                                        "effects" : [

                                        ],
                                        "start" : 1278,
                                        "duration" : 883,
                                        "mediaStart" : 1419,
                                        "mediaDuration" : 883,
                                        "scalar" : 1,
                                        "animationTracks" : {

                                        }
                                      },
                                  "audio" : 
                                      {
                                        "id" : 29,
                                        "_type" : "AMFile",
                                        "src" : 2,
                                        "trackNumber" : 1,
                                        "attributes" : {
                                          "ident" : "",
                                          "sampleRate" : 44100,
                                          "bitDepth" : 16,
                                          "gain" : 1.0,
                                          "mixToMono" : false
                                        },
                                          "channelNumber" : "0,1",
                                        "effects" : [

                                        ],
                                        "start" : 1278,
                                        "duration" : 883,
                                        "mediaStart" : 1419,
                                        "mediaDuration" : 883,
                                        "scalar" : 1,
                                        "animationTracks" : {

                                        }
                                      }
,
                                  "start" : 1278,
                                  "duration" : 883,
                                  "mediaStart" : 0,
                                  "mediaDuration" : 7366,
                                  "scalar" : 1,
                                  "metadata" : {
                                    "AutoAppliedSmartFocus" : "False",
                                    "WinSubProjectDisplayName" : "",
                                    "clipSpeedAttribute" : false
                                  }
                                },
                                {
                                  "id" : 30,
                                  "_type" : "UnifiedMedia",
                                  "video" : 
                                      {
                                        "id" : 31,
                                        "_type" : "ScreenVMFile",
                                        "src" : 2,
                                        "trackNumber" : 0,
                                        "attributes" : {
                                          "ident" : "Rec 02-10-20_004"
                                        },
                                        "parameters" : {
                                          "cursorScale" : {
                                            "type" : "double",
                                            "defaultValue" : 0.0,
                                            "interp" : "linr"
                                          },
                                          "cursorOpacity" : {
                                            "type" : "double",
                                            "defaultValue" : 0.0,
                                            "interp" : "linr"
                                          }
                                        },
                                        "effects" : [

                                        ],
                                        "start" : 2161,
                                        "duration" : 37,
                                        "mediaStart" : 2360,
                                        "mediaDuration" : 37,
                                        "scalar" : 1,
                                        "animationTracks" : {

                                        }
                                      },
                                  "audio" : 
                                      {
                                        "id" : 32,
                                        "_type" : "AMFile",
                                        "src" : 2,
                                        "trackNumber" : 1,
                                        "attributes" : {
                                          "ident" : "",
                                          "sampleRate" : 44100,
                                          "bitDepth" : 16,
                                          "gain" : 1.0,
                                          "mixToMono" : false
                                        },
                                          "channelNumber" : "0,1",
                                        "effects" : [

                                        ],
                                        "start" : 2161,
                                        "duration" : 37,
                                        "mediaStart" : 2360,
                                        "mediaDuration" : 37,
                                        "scalar" : 1,
                                        "animationTracks" : {

                                        }
                                      }
,
                                  "start" : 2161,
                                  "duration" : 37,
                                  "mediaStart" : 0,
                                  "mediaDuration" : 7366,
                                  "scalar" : 1,
                                  "metadata" : {
                                    "AutoAppliedSmartFocus" : "False",
                                    "WinSubProjectDisplayName" : "",
                                    "clipSpeedAttribute" : false
                                  }
                                },
                                {
                                  "id" : 33,
                                  "_type" : "UnifiedMedia",
                                  "video" : 
                                      {
                                        "id" : 34,
                                        "_type" : "ScreenVMFile",
                                        "src" : 2,
                                        "trackNumber" : 0,
                                        "attributes" : {
                                          "ident" : "Rec 02-10-20_004"
                                        },
                                        "parameters" : {
                                          "cursorScale" : {
                                            "type" : "double",
                                            "defaultValue" : 0.0,
                                            "interp" : "linr"
                                          },
                                          "cursorOpacity" : {
                                            "type" : "double",
                                            "defaultValue" : 0.0,
                                            "interp" : "linr"
                                          }
                                        },
                                        "effects" : [

                                        ],
                                        "start" : 2198,
                                        "duration" : 4935,
                                        "mediaStart" : 2431,
                                        "mediaDuration" : 4935,
                                        "scalar" : 1,
                                        "animationTracks" : {

                                        }
                                      },
                                  "audio" : 
                                      {
                                        "id" : 35,
                                        "_type" : "AMFile",
                                        "src" : 2,
                                        "trackNumber" : 1,
                                        "attributes" : {
                                          "ident" : "",
                                          "sampleRate" : 44100,
                                          "bitDepth" : 16,
                                          "gain" : 1.0,
                                          "mixToMono" : false
                                        },
                                          "channelNumber" : "0,1",
                                        "effects" : [

                                        ],
                                        "start" : 2198,
                                        "duration" : 4935,
                                        "mediaStart" : 2431,
                                        "mediaDuration" : 4935,
                                        "scalar" : 1,
                                        "animationTracks" : {

                                        }
                                      }
,
                                  "start" : 2198,
                                  "duration" : 4935,
                                  "mediaStart" : 0,
                                  "mediaDuration" : 7366,
                                  "scalar" : 1,
                                  "metadata" : {
                                    "AutoAppliedSmartFocus" : "False",
                                    "WinSubProjectDisplayName" : "",
                                    "clipSpeedAttribute" : false
                                  }
                                }
                            ],
                            "effects" : [

                            ],
                            "start" : 0,
                            "duration" : 1002,
                            "mediaStart" : 490,
                            "mediaDuration" : "474793/263",
                            "scalar" : "263526/474793",
                            "metadata" : {
                              "AutoAppliedSmartFocus" : "False",
                              "WinSubProjectDisplayName" : "",
                              "clipSpeedAttribute" : true
                            },
                            "animationTracks" : {

                            }
                          },
                          {
                            "id" : 36,
                            "_type" : "StitchedMedia",
                            "minMediaStart" : 0,
                            "attributes" : {
                              "ident" : "Rec 02-10-20_004",
                              "gain" : 1.0,
                              "mixToMono" : false
                            },
                            "parameters" : {
                              "volume" : {
                                "type" : "double",
                                "keyframes" : [
                                  {
                                    "endTime" : 0,
                                    "time" : 0,
                                    "value" : 1.0,
                                    "duration" : 0
                                  },
                                  {
                                    "endTime" : 489,
                                    "time" : 489,
                                    "value" : 1.0,
                                    "duration" : 0
                                  },
                                  {
                                    "endTime" : 490,
                                    "time" : 490,
                                    "value" : 0.0,
                                    "duration" : 0
                                  },
                                  {
                                    "endTime" : 6806,
                                    "time" : 6806,
                                    "value" : 0.0,
                                    "duration" : 0
                                  },
                                  {
                                    "endTime" : 6807,
                                    "time" : 6807,
                                    "value" : 1.0,
                                    "duration" : 0
                                  }
                                ]
                              },
                              "cursorOpacity" : 1.0,
                              "cursorScale" : 1.0
                            },
                            "medias" : [
                                {
                                  "id" : 37,
                                  "_type" : "UnifiedMedia",
                                  "video" : 
                                      {
                                        "id" : 38,
                                        "_type" : "ScreenVMFile",
                                        "src" : 2,
                                        "trackNumber" : 0,
                                        "attributes" : {
                                          "ident" : "Rec 02-10-20_004"
                                        },
                                        "parameters" : {
                                          "cursorScale" : {
                                            "type" : "double",
                                            "defaultValue" : 0.0,
                                            "interp" : "linr"
                                          },
                                          "cursorOpacity" : {
                                            "type" : "double",
                                            "defaultValue" : 0.0,
                                            "interp" : "linr"
                                          }
                                        },
                                        "effects" : [

                                        ],
                                        "start" : 0,
                                        "duration" : 1144,
                                        "mediaStart" : 0,
                                        "mediaDuration" : 1144,
                                        "scalar" : 1,
                                        "animationTracks" : {

                                        }
                                      },
                                  "audio" : 
                                      {
                                        "id" : 39,
                                        "_type" : "AMFile",
                                        "src" : 2,
                                        "trackNumber" : 1,
                                        "attributes" : {
                                          "ident" : "",
                                          "sampleRate" : 44100,
                                          "bitDepth" : 16,
                                          "gain" : 1.0,
                                          "mixToMono" : false
                                        },
                                          "channelNumber" : "0,1",
                                        "effects" : [

                                        ],
                                        "start" : 0,
                                        "duration" : 1144,
                                        "mediaStart" : 0,
                                        "mediaDuration" : 1144,
                                        "scalar" : 1,
                                        "animationTracks" : {

                                        }
                                      }
,
                                  "start" : 0,
                                  "duration" : 1144,
                                  "mediaStart" : 0,
                                  "mediaDuration" : 7366,
                                  "scalar" : 1,
                                  "metadata" : {
                                    "AutoAppliedSmartFocus" : "False",
                                    "WinSubProjectDisplayName" : "",
                                    "clipSpeedAttribute" : false
                                  }
                                },
                                {
                                  "id" : 40,
                                  "_type" : "UnifiedMedia",
                                  "video" : 
                                      {
                                        "id" : 41,
                                        "_type" : "ScreenVMFile",
                                        "src" : 2,
                                        "trackNumber" : 0,
                                        "attributes" : {
                                          "ident" : "Rec 02-10-20_004"
                                        },
                                        "parameters" : {
                                          "cursorScale" : {
                                            "type" : "double",
                                            "defaultValue" : 0.0,
                                            "interp" : "linr"
                                          },
                                          "cursorOpacity" : {
                                            "type" : "double",
                                            "defaultValue" : 0.0,
                                            "interp" : "linr"
                                          }
                                        },
                                        "effects" : [

                                        ],
                                        "start" : 1144,
                                        "duration" : 223,
                                        "mediaStart" : 1186,
                                        "mediaDuration" : 223,
                                        "scalar" : 1,
                                        "animationTracks" : {

                                        }
                                      },
                                  "audio" : 
                                      {
                                        "id" : 42,
                                        "_type" : "AMFile",
                                        "src" : 2,
                                        "trackNumber" : 1,
                                        "attributes" : {
                                          "ident" : "",
                                          "sampleRate" : 44100,
                                          "bitDepth" : 16,
                                          "gain" : 1.0,
                                          "mixToMono" : false
                                        },
                                          "channelNumber" : "0,1",
                                        "effects" : [

                                        ],
                                        "start" : 1144,
                                        "duration" : 223,
                                        "mediaStart" : 1186,
                                        "mediaDuration" : 223,
                                        "scalar" : 1,
                                        "animationTracks" : {

                                        }
                                      }
,
                                  "start" : 1144,
                                  "duration" : 223,
                                  "mediaStart" : 0,
                                  "mediaDuration" : 7366,
                                  "scalar" : 1,
                                  "metadata" : {
                                    "AutoAppliedSmartFocus" : "False",
                                    "WinSubProjectDisplayName" : "",
                                    "clipSpeedAttribute" : false
                                  }
                                },
                                {
                                  "id" : 43,
                                  "_type" : "UnifiedMedia",
                                  "video" : 
                                      {
                                        "id" : 44,
                                        "_type" : "ScreenVMFile",
                                        "src" : 2,
                                        "trackNumber" : 0,
                                        "attributes" : {
                                          "ident" : "Rec 02-10-20_004"
                                        },
                                        "parameters" : {
                                          "cursorScale" : {
                                            "type" : "double",
                                            "defaultValue" : 0.0,
                                            "interp" : "linr"
                                          },
                                          "cursorOpacity" : {
                                            "type" : "double",
                                            "defaultValue" : 0.0,
                                            "interp" : "linr"
                                          }
                                        },
                                        "effects" : [

                                        ],
                                        "start" : 1367,
                                        "duration" : 883,
                                        "mediaStart" : 1419,
                                        "mediaDuration" : 883,
                                        "scalar" : 1,
                                        "animationTracks" : {

                                        }
                                      },
                                  "audio" : 
                                      {
                                        "id" : 45,
                                        "_type" : "AMFile",
                                        "src" : 2,
                                        "trackNumber" : 1,
                                        "attributes" : {
                                          "ident" : "",
                                          "sampleRate" : 44100,
                                          "bitDepth" : 16,
                                          "gain" : 1.0,
                                          "mixToMono" : false
                                        },
                                          "channelNumber" : "0,1",
                                        "effects" : [

                                        ],
                                        "start" : 1367,
                                        "duration" : 883,
                                        "mediaStart" : 1419,
                                        "mediaDuration" : 883,
                                        "scalar" : 1,
                                        "animationTracks" : {

                                        }
                                      }
,
                                  "start" : 1367,
                                  "duration" : 883,
                                  "mediaStart" : 0,
                                  "mediaDuration" : 7366,
                                  "scalar" : 1,
                                  "metadata" : {
                                    "AutoAppliedSmartFocus" : "False",
                                    "WinSubProjectDisplayName" : "",
                                    "clipSpeedAttribute" : false
                                  }
                                },
                                {
                                  "id" : 46,
                                  "_type" : "UnifiedMedia",
                                  "video" : 
                                      {
                                        "id" : 47,
                                        "_type" : "ScreenVMFile",
                                        "src" : 2,
                                        "trackNumber" : 0,
                                        "attributes" : {
                                          "ident" : "Rec 02-10-20_004"
                                        },
                                        "parameters" : {
                                          "cursorScale" : {
                                            "type" : "double",
                                            "defaultValue" : 0.0,
                                            "interp" : "linr"
                                          },
                                          "cursorOpacity" : {
                                            "type" : "double",
                                            "defaultValue" : 0.0,
                                            "interp" : "linr"
                                          }
                                        },
                                        "effects" : [

                                        ],
                                        "start" : 2250,
                                        "duration" : 37,
                                        "mediaStart" : 2360,
                                        "mediaDuration" : 37,
                                        "scalar" : 1,
                                        "animationTracks" : {

                                        }
                                      },
                                  "audio" : 
                                      {
                                        "id" : 48,
                                        "_type" : "AMFile",
                                        "src" : 2,
                                        "trackNumber" : 1,
                                        "attributes" : {
                                          "ident" : "",
                                          "sampleRate" : 44100,
                                          "bitDepth" : 16,
                                          "gain" : 1.0,
                                          "mixToMono" : false
                                        },
                                          "channelNumber" : "0,1",
                                        "effects" : [

                                        ],
                                        "start" : 2250,
                                        "duration" : 37,
                                        "mediaStart" : 2360,
                                        "mediaDuration" : 37,
                                        "scalar" : 1,
                                        "animationTracks" : {

                                        }
                                      }
,
                                  "start" : 2250,
                                  "duration" : 37,
                                  "mediaStart" : 0,
                                  "mediaDuration" : 7366,
                                  "scalar" : 1,
                                  "metadata" : {
                                    "AutoAppliedSmartFocus" : "False",
                                    "WinSubProjectDisplayName" : "",
                                    "clipSpeedAttribute" : false
                                  }
                                },
                                {
                                  "id" : 49,
                                  "_type" : "UnifiedMedia",
                                  "video" : 
                                      {
                                        "id" : 50,
                                        "_type" : "ScreenVMFile",
                                        "src" : 2,
                                        "trackNumber" : 0,
                                        "attributes" : {
                                          "ident" : "Rec 02-10-20_004"
                                        },
                                        "parameters" : {
                                          "cursorScale" : {
                                            "type" : "double",
                                            "defaultValue" : 0.0,
                                            "interp" : "linr"
                                          },
                                          "cursorOpacity" : {
                                            "type" : "double",
                                            "defaultValue" : 0.0,
                                            "interp" : "linr"
                                          }
                                        },
                                        "effects" : [

                                        ],
                                        "start" : 2287,
                                        "duration" : 430,
                                        "mediaStart" : 2431,
                                        "mediaDuration" : 430,
                                        "scalar" : 1,
                                        "animationTracks" : {

                                        }
                                      },
                                  "audio" : 
                                      {
                                        "id" : 51,
                                        "_type" : "AMFile",
                                        "src" : 2,
                                        "trackNumber" : 1,
                                        "attributes" : {
                                          "ident" : "",
                                          "sampleRate" : 44100,
                                          "bitDepth" : 16,
                                          "gain" : 1.0,
                                          "mixToMono" : false
                                        },
                                          "channelNumber" : "0,1",
                                        "effects" : [

                                        ],
                                        "start" : 2287,
                                        "duration" : 430,
                                        "mediaStart" : 2431,
                                        "mediaDuration" : 430,
                                        "scalar" : 1,
                                        "animationTracks" : {

                                        }
                                      }
,
                                  "start" : 2287,
                                  "duration" : 430,
                                  "mediaStart" : 0,
                                  "mediaDuration" : 7366,
                                  "scalar" : 1,
                                  "metadata" : {
                                    "AutoAppliedSmartFocus" : "False",
                                    "WinSubProjectDisplayName" : "",
                                    "clipSpeedAttribute" : false
                                  }
                                },
                                {
                                  "id" : 52,
                                  "_type" : "UnifiedMedia",
                                  "video" : 
                                      {
                                        "id" : 53,
                                        "_type" : "ScreenVMFile",
                                        "src" : 2,
                                        "trackNumber" : 0,
                                        "attributes" : {
                                          "ident" : "Rec 02-10-20_004"
                                        },
                                        "parameters" : {
                                          "cursorScale" : {
                                            "type" : "double",
                                            "defaultValue" : 0.0,
                                            "interp" : "linr"
                                          },
                                          "cursorOpacity" : {
                                            "type" : "double",
                                            "defaultValue" : 0.0,
                                            "interp" : "linr"
                                          }
                                        },
                                        "effects" : [

                                        ],
                                        "start" : 2717,
                                        "duration" : 4089,
                                        "mediaStart" : 3277,
                                        "mediaDuration" : 4089,
                                        "scalar" : 1,
                                        "animationTracks" : {

                                        }
                                      },
                                  "audio" : 
                                      {
                                        "id" : 54,
                                        "_type" : "AMFile",
                                        "src" : 2,
                                        "trackNumber" : 1,
                                        "attributes" : {
                                          "ident" : "",
                                          "sampleRate" : 44100,
                                          "bitDepth" : 16,
                                          "gain" : 1.0,
                                          "mixToMono" : false
                                        },
                                          "channelNumber" : "0,1",
                                        "effects" : [

                                        ],
                                        "start" : 2717,
                                        "duration" : 4089,
                                        "mediaStart" : 3277,
                                        "mediaDuration" : 4089,
                                        "scalar" : 1,
                                        "animationTracks" : {

                                        }
                                      }
,
                                  "start" : 2717,
                                  "duration" : 4089,
                                  "mediaStart" : 0,
                                  "mediaDuration" : 7366,
                                  "scalar" : 1,
                                  "metadata" : {
                                    "AutoAppliedSmartFocus" : "False",
                                    "WinSubProjectDisplayName" : "",
                                    "clipSpeedAttribute" : false
                                  }
                                }
                            ],
                            "effects" : [

                            ],
                            "start" : 1002,
                            "duration" : 263,
                            "mediaStart" : 2384,
                            "mediaDuration" : "387662/819",
                            "scalar" : "819/1474",
                            "metadata" : {
                              "AutoAppliedSmartFocus" : "False",
                              "WinSubProjectDisplayName" : "",
                              "clipSpeedAttribute" : true
                            },
                            "animationTracks" : {

                            }
                          },
                          {
                            "id" : 55,
                            "_type" : "StitchedMedia",
                            "minMediaStart" : 0,
                            "attributes" : {
                              "ident" : "Rec 02-10-20_004",
                              "gain" : 1.0,
                              "mixToMono" : false
                            },
                            "parameters" : {
                              "volume" : {
                                "type" : "double",
                                "keyframes" : [
                                  {
                                    "endTime" : 0,
                                    "time" : 0,
                                    "value" : 1.0,
                                    "duration" : 0
                                  },
                                  {
                                    "endTime" : 489,
                                    "time" : 489,
                                    "value" : 1.0,
                                    "duration" : 0
                                  },
                                  {
                                    "endTime" : 490,
                                    "time" : 490,
                                    "value" : 0.0,
                                    "duration" : 0
                                  },
                                  {
                                    "endTime" : "5497684/819",
                                    "time" : "5497684/819",
                                    "value" : 0.0,
                                    "duration" : 0
                                  },
                                  {
                                    "endTime" : "5498503/819",
                                    "time" : "5498503/819",
                                    "value" : 1.0,
                                    "duration" : 0
                                  }
                                ]
                              },
                              "cursorOpacity" : 1.0,
                              "cursorScale" : 1.0
                            },
                            "medias" : [
                                {
                                  "id" : 56,
                                  "_type" : "UnifiedMedia",
                                  "video" : 
                                      {
                                        "id" : 57,
                                        "_type" : "ScreenVMFile",
                                        "src" : 2,
                                        "trackNumber" : 0,
                                        "attributes" : {
                                          "ident" : "Rec 02-10-20_004"
                                        },
                                        "parameters" : {
                                          "cursorScale" : {
                                            "type" : "double",
                                            "defaultValue" : 0.0,
                                            "interp" : "linr"
                                          },
                                          "cursorOpacity" : {
                                            "type" : "double",
                                            "defaultValue" : 0.0,
                                            "interp" : "linr"
                                          }
                                        },
                                        "effects" : [

                                        ],
                                        "start" : 0,
                                        "duration" : 1144,
                                        "mediaStart" : 0,
                                        "mediaDuration" : 1144,
                                        "scalar" : 1,
                                        "animationTracks" : {

                                        }
                                      },
                                  "audio" : 
                                      {
                                        "id" : 58,
                                        "_type" : "AMFile",
                                        "src" : 2,
                                        "trackNumber" : 1,
                                        "attributes" : {
                                          "ident" : "",
                                          "sampleRate" : 44100,
                                          "bitDepth" : 16,
                                          "gain" : 1.0,
                                          "mixToMono" : false
                                        },
                                          "channelNumber" : "0,1",
                                        "effects" : [

                                        ],
                                        "start" : 0,
                                        "duration" : 1144,
                                        "mediaStart" : 0,
                                        "mediaDuration" : 1144,
                                        "scalar" : 1,
                                        "animationTracks" : {

                                        }
                                      }
,
                                  "start" : 0,
                                  "duration" : 1144,
                                  "mediaStart" : 0,
                                  "mediaDuration" : 7366,
                                  "scalar" : 1,
                                  "metadata" : {
                                    "AutoAppliedSmartFocus" : "False",
                                    "WinSubProjectDisplayName" : "",
                                    "clipSpeedAttribute" : false
                                  }
                                },
                                {
                                  "id" : 59,
                                  "_type" : "UnifiedMedia",
                                  "video" : 
                                      {
                                        "id" : 60,
                                        "_type" : "ScreenVMFile",
                                        "src" : 2,
                                        "trackNumber" : 0,
                                        "attributes" : {
                                          "ident" : "Rec 02-10-20_004"
                                        },
                                        "parameters" : {
                                          "cursorScale" : {
                                            "type" : "double",
                                            "defaultValue" : 0.0,
                                            "interp" : "linr"
                                          },
                                          "cursorOpacity" : {
                                            "type" : "double",
                                            "defaultValue" : 0.0,
                                            "interp" : "linr"
                                          }
                                        },
                                        "effects" : [

                                        ],
                                        "start" : 1144,
                                        "duration" : 223,
                                        "mediaStart" : 1186,
                                        "mediaDuration" : 223,
                                        "scalar" : 1,
                                        "animationTracks" : {

                                        }
                                      },
                                  "audio" : 
                                      {
                                        "id" : 61,
                                        "_type" : "AMFile",
                                        "src" : 2,
                                        "trackNumber" : 1,
                                        "attributes" : {
                                          "ident" : "",
                                          "sampleRate" : 44100,
                                          "bitDepth" : 16,
                                          "gain" : 1.0,
                                          "mixToMono" : false
                                        },
                                          "channelNumber" : "0,1",
                                        "effects" : [

                                        ],
                                        "start" : 1144,
                                        "duration" : 223,
                                        "mediaStart" : 1186,
                                        "mediaDuration" : 223,
                                        "scalar" : 1,
                                        "animationTracks" : {

                                        }
                                      }
,
                                  "start" : 1144,
                                  "duration" : 223,
                                  "mediaStart" : 0,
                                  "mediaDuration" : 7366,
                                  "scalar" : 1,
                                  "metadata" : {
                                    "AutoAppliedSmartFocus" : "False",
                                    "WinSubProjectDisplayName" : "",
                                    "clipSpeedAttribute" : false
                                  }
                                },
                                {
                                  "id" : 62,
                                  "_type" : "UnifiedMedia",
                                  "video" : 
                                      {
                                        "id" : 63,
                                        "_type" : "ScreenVMFile",
                                        "src" : 2,
                                        "trackNumber" : 0,
                                        "attributes" : {
                                          "ident" : "Rec 02-10-20_004"
                                        },
                                        "parameters" : {
                                          "cursorScale" : {
                                            "type" : "double",
                                            "defaultValue" : 0.0,
                                            "interp" : "linr"
                                          },
                                          "cursorOpacity" : {
                                            "type" : "double",
                                            "defaultValue" : 0.0,
                                            "interp" : "linr"
                                          }
                                        },
                                        "effects" : [

                                        ],
                                        "start" : 1367,
                                        "duration" : 883,
                                        "mediaStart" : 1419,
                                        "mediaDuration" : 883,
                                        "scalar" : 1,
                                        "animationTracks" : {

                                        }
                                      },
                                  "audio" : 
                                      {
                                        "id" : 64,
                                        "_type" : "AMFile",
                                        "src" : 2,
                                        "trackNumber" : 1,
                                        "attributes" : {
                                          "ident" : "",
                                          "sampleRate" : 44100,
                                          "bitDepth" : 16,
                                          "gain" : 1.0,
                                          "mixToMono" : false
                                        },
                                          "channelNumber" : "0,1",
                                        "effects" : [

                                        ],
                                        "start" : 1367,
                                        "duration" : 883,
                                        "mediaStart" : 1419,
                                        "mediaDuration" : 883,
                                        "scalar" : 1,
                                        "animationTracks" : {

                                        }
                                      }
,
                                  "start" : 1367,
                                  "duration" : 883,
                                  "mediaStart" : 0,
                                  "mediaDuration" : 7366,
                                  "scalar" : 1,
                                  "metadata" : {
                                    "AutoAppliedSmartFocus" : "False",
                                    "WinSubProjectDisplayName" : "",
                                    "clipSpeedAttribute" : false
                                  }
                                },
                                {
                                  "id" : 65,
                                  "_type" : "UnifiedMedia",
                                  "video" : 
                                      {
                                        "id" : 66,
                                        "_type" : "ScreenVMFile",
                                        "src" : 2,
                                        "trackNumber" : 0,
                                        "attributes" : {
                                          "ident" : "Rec 02-10-20_004"
                                        },
                                        "parameters" : {
                                          "cursorScale" : {
                                            "type" : "double",
                                            "defaultValue" : 0.0,
                                            "interp" : "linr"
                                          },
                                          "cursorOpacity" : {
                                            "type" : "double",
                                            "defaultValue" : 0.0,
                                            "interp" : "linr"
                                          }
                                        },
                                        "effects" : [

                                        ],
                                        "start" : 2250,
                                        "duration" : 37,
                                        "mediaStart" : 2360,
                                        "mediaDuration" : 37,
                                        "scalar" : 1,
                                        "animationTracks" : {

                                        }
                                      },
                                  "audio" : 
                                      {
                                        "id" : 67,
                                        "_type" : "AMFile",
                                        "src" : 2,
                                        "trackNumber" : 1,
                                        "attributes" : {
                                          "ident" : "",
                                          "sampleRate" : 44100,
                                          "bitDepth" : 16,
                                          "gain" : 1.0,
                                          "mixToMono" : false
                                        },
                                          "channelNumber" : "0,1",
                                        "effects" : [

                                        ],
                                        "start" : 2250,
                                        "duration" : 37,
                                        "mediaStart" : 2360,
                                        "mediaDuration" : 37,
                                        "scalar" : 1,
                                        "animationTracks" : {

                                        }
                                      }
,
                                  "start" : 2250,
                                  "duration" : 37,
                                  "mediaStart" : 0,
                                  "mediaDuration" : 7366,
                                  "scalar" : 1,
                                  "metadata" : {
                                    "AutoAppliedSmartFocus" : "False",
                                    "WinSubProjectDisplayName" : "",
                                    "clipSpeedAttribute" : false
                                  }
                                },
                                {
                                  "id" : 68,
                                  "_type" : "UnifiedMedia",
                                  "video" : 
                                      {
                                        "id" : 69,
                                        "_type" : "ScreenVMFile",
                                        "src" : 2,
                                        "trackNumber" : 0,
                                        "attributes" : {
                                          "ident" : "Rec 02-10-20_004"
                                        },
                                        "parameters" : {
                                          "cursorScale" : {
                                            "type" : "double",
                                            "defaultValue" : 0.0,
                                            "interp" : "linr"
                                          },
                                          "cursorOpacity" : {
                                            "type" : "double",
                                            "defaultValue" : 0.0,
                                            "interp" : "linr"
                                          }
                                        },
                                        "effects" : [

                                        ],
                                        "start" : 2287,
                                        "duration" : 430,
                                        "mediaStart" : 2431,
                                        "mediaDuration" : 430,
                                        "scalar" : 1,
                                        "animationTracks" : {

                                        }
                                      },
                                  "audio" : 
                                      {
                                        "id" : 70,
                                        "_type" : "AMFile",
                                        "src" : 2,
                                        "trackNumber" : 1,
                                        "attributes" : {
                                          "ident" : "",
                                          "sampleRate" : 44100,
                                          "bitDepth" : 16,
                                          "gain" : 1.0,
                                          "mixToMono" : false
                                        },
                                          "channelNumber" : "0,1",
                                        "effects" : [

                                        ],
                                        "start" : 2287,
                                        "duration" : 430,
                                        "mediaStart" : 2431,
                                        "mediaDuration" : 430,
                                        "scalar" : 1,
                                        "animationTracks" : {

                                        }
                                      }
,
                                  "start" : 2287,
                                  "duration" : 430,
                                  "mediaStart" : 0,
                                  "mediaDuration" : 7366,
                                  "scalar" : 1,
                                  "metadata" : {
                                    "AutoAppliedSmartFocus" : "False",
                                    "WinSubProjectDisplayName" : "",
                                    "clipSpeedAttribute" : false
                                  }
                                },
                                {
                                  "id" : 71,
                                  "_type" : "UnifiedMedia",
                                  "video" : 
                                      {
                                        "id" : 72,
                                        "_type" : "ScreenVMFile",
                                        "src" : 2,
                                        "trackNumber" : 0,
                                        "attributes" : {
                                          "ident" : "Rec 02-10-20_004"
                                        },
                                        "parameters" : {
                                          "cursorScale" : {
                                            "type" : "double",
                                            "defaultValue" : 0.0,
                                            "interp" : "linr"
                                          },
                                          "cursorOpacity" : {
                                            "type" : "double",
                                            "defaultValue" : 0.0,
                                            "interp" : "linr"
                                          }
                                        },
                                        "effects" : [

                                        ],
                                        "start" : 2717,
                                        "duration" : 721,
                                        "mediaStart" : 3277,
                                        "mediaDuration" : 721,
                                        "scalar" : 1,
                                        "animationTracks" : {

                                        }
                                      },
                                  "audio" : 
                                      {
                                        "id" : 73,
                                        "_type" : "AMFile",
                                        "src" : 2,
                                        "trackNumber" : 1,
                                        "attributes" : {
                                          "ident" : "",
                                          "sampleRate" : 44100,
                                          "bitDepth" : 16,
                                          "gain" : 1.0,
                                          "mixToMono" : false
                                        },
                                          "channelNumber" : "0,1",
                                        "effects" : [

                                        ],
                                        "start" : 2717,
                                        "duration" : 721,
                                        "mediaStart" : 3277,
                                        "mediaDuration" : 721,
                                        "scalar" : 1,
                                        "animationTracks" : {

                                        }
                                      }
,
                                  "start" : 2717,
                                  "duration" : 721,
                                  "mediaStart" : 0,
                                  "mediaDuration" : 7366,
                                  "scalar" : 1,
                                  "metadata" : {
                                    "AutoAppliedSmartFocus" : "False",
                                    "WinSubProjectDisplayName" : "",
                                    "clipSpeedAttribute" : false
                                  }
                                },
                                {
                                  "id" : 74,
                                  "_type" : "UnifiedMedia",
                                  "video" : 
                                      {
                                        "id" : 75,
                                        "_type" : "ScreenVMFile",
                                        "src" : 2,
                                        "trackNumber" : 0,
                                        "attributes" : {
                                          "ident" : "Rec 02-10-20_004"
                                        },
                                        "parameters" : {
                                          "cursorScale" : {
                                            "type" : "double",
                                            "defaultValue" : 0.0,
                                            "interp" : "linr"
                                          },
                                          "cursorOpacity" : {
                                            "type" : "double",
                                            "defaultValue" : 0.0,
                                            "interp" : "linr"
                                          }
                                        },
                                        "effects" : [

                                        ],
                                        "start" : 3438,
                                        "duration" : 3277,
                                        "mediaStart" : 4089,
                                        "mediaDuration" : 3277,
                                        "scalar" : 1,
                                        "animationTracks" : {

                                        }
                                      },
                                  "audio" : 
                                      {
                                        "id" : 76,
                                        "_type" : "AMFile",
                                        "src" : 2,
                                        "trackNumber" : 1,
                                        "attributes" : {
                                          "ident" : "",
                                          "sampleRate" : 44100,
                                          "bitDepth" : 16,
                                          "gain" : 1.0,
                                          "mixToMono" : false
                                        },
                                          "channelNumber" : "0,1",
                                        "effects" : [

                                        ],
                                        "start" : 3438,
                                        "duration" : 3277,
                                        "mediaStart" : 4089,
                                        "mediaDuration" : 3277,
                                        "scalar" : 1,
                                        "animationTracks" : {

                                        }
                                      }
,
                                  "start" : 3438,
                                  "duration" : 3277,
                                  "mediaStart" : 0,
                                  "mediaDuration" : 7366,
                                  "scalar" : 1,
                                  "metadata" : {
                                    "AutoAppliedSmartFocus" : "False",
                                    "WinSubProjectDisplayName" : "",
                                    "clipSpeedAttribute" : false
                                  }
                                }
                            ],
                            "effects" : [

                            ],
                            "start" : 1265,
                            "duration" : 2142,
                            "mediaStart" : "2340158/819",
                            "mediaDuration" : "1052630/273",
                            "scalar" : "292383/526315",
                            "metadata" : {
                              "AutoAppliedSmartFocus" : "False",
                              "WinSubProjectDisplayName" : "",
                              "clipSpeedAttribute" : true
                            },
                            "animationTracks" : {

                            }
                          }
                        ],
                          "ident" : "",
                          "audioMuted" : false,
                          "videoHidden" : false,
                          "magnetic" : false,
                          "metadata" : {
                            "IsLocked" : "False",
                            "WinTrackHeight" : "0"
                          }
                      },
                      {
                        "trackIndex" : 1,
                        "medias" : [
                          {
                            "id" : 77,
                            "_type" : "Callout",
                            "def" : {
                              "kind" : "remix",
                              "shape" : "text-rectangle",
                              "style" : "basic",
                              "fill-color-blue" : 1.0,
                              "fill-color-green" : 1.0,
                              "fill-color-opacity" : 1.0,
                              "fill-color-red" : 1.0,
                              "height" : 150.0,
                              "line-spacing" : 0.0,
                              "stroke-color-blue" : 0.56078431372549,
                              "stroke-color-green" : 0.686274509803922,
                              "stroke-color-opacity" : 1.0,
                              "stroke-color-red" : 0.0196078431372549,
                              "stroke-width" : 2.0,
                              "tail-x" : -194.705882353064,
                              "tail-y" : -20.0,
                              "width" : 1650.00000000043,
                              "word-wrap" : 1.0,
                              "fill-style" : "solid",
                              "horizontal-alignment" : "center",
                              "resize-behavior" : "resizeText",
                              "stroke-style" : "solid",
                              "text" : "Make sure to look for black and white images",
                              "vertical-alignment" : "center",
                              "font" : {
                                "color-blue" : 0.266666666666667,
                                "color-green" : 0.231372549019608,
                                "color-opacity" : 1.0,
                                "color-red" : 0.184313725490196,
                                "size" : 64.0,
                                "tracking" : 0.0,
                                "name" : "Montserrat",
                                "weight" : "Regular"
                              },
                              "textAttributes" : {
                                "type" : "textAttributeList",
                                "keyframes" : [
                                  {
                                    "endTime" : 0,
                                    "time" : 0,
                                    "value" : [{"name":"fgColor","rangeEnd":44,"rangeStart":0,"value":"(47,59,68,255)","valueType":"color"},{"name":"fontSize","rangeEnd":44,"rangeStart":0,"value":64,"valueType":"double"},{"name":"kerning","rangeEnd":44,"rangeStart":0,"value":0,"valueType":"double"},{"name":"fontItalic","rangeEnd":44,"rangeStart":0,"value":0,"valueType":"int"},{"name":"fontWeight","rangeEnd":44,"rangeStart":0,"value":400,"valueType":"int"},{"name":"underline","rangeEnd":44,"rangeStart":0,"value":0,"valueType":"int"},{"name":"fontName","rangeEnd":44,"rangeStart":0,"value":"Montserrat","valueType":"string"},{"name":"strikethrough","rangeEnd":44,"rangeStart":0,"value":0,"valueType":"int"}],
                                    "duration" : 0
                                  }
                                ]
                              }
                            },
                            "attributes" : {
                              "autoRotateText" : true
                            },
                            "parameters" : {
                              "translation0" : 8.00000066192297e-11,
                              "translation1" : -425.294117647431
                            },
                            "effects" : [

                            ],
                            "start" : 146,
                            "duration" : 100,
                            "mediaStart" : 0,
                            "mediaDuration" : 100,
                            "scalar" : 1,
                            "metadata" : {
                              "WinSubProjectDisplayName" : "",
                              "clipSpeedAttribute" : false,
                              "default-HAlign" : "center",
                              "default-LineSpace" : 0.0,
                              "default-VAlign" : "center",
                              "default-text-attributes" : null,
                              "default-translation0" : 0.0,
                              "default-translation1" : 0.0
                            },
                            "animationTracks" : {

                            }
                          },
                          {
                            "id" : 78,
                            "_type" : "Callout",
                            "def" : {
                              "kind" : "remix",
                              "shape" : "text-rectangle",
                              "style" : "basic",
                              "fill-color-blue" : {
                                "type" : "double",
                                "defaultValue" : 1.0,
                                "interp" : "linr"
                              },
                              "fill-color-green" : {
                                "type" : "double",
                                "defaultValue" : 1.0,
                                "interp" : "linr"
                              },
                              "fill-color-opacity" : {
                                "type" : "double",
                                "defaultValue" : 1.0,
                                "interp" : "linr"
                              },
                              "fill-color-red" : {
                                "type" : "double",
                                "defaultValue" : 1.0,
                                "interp" : "linr"
                              },
                              "height" : {
                                "type" : "double",
                                "defaultValue" : 150.0,
                                "interp" : "linr"
                              },
                              "line-spacing" : {
                                "type" : "double",
                                "defaultValue" : 0.0,
                                "interp" : "linr"
                              },
                              "stroke-color-blue" : {
                                "type" : "double",
                                "defaultValue" : 0.56078431372549,
                                "interp" : "linr"
                              },
                              "stroke-color-green" : {
                                "type" : "double",
                                "defaultValue" : 0.686274509803922,
                                "interp" : "linr"
                              },
                              "stroke-color-opacity" : {
                                "type" : "double",
                                "defaultValue" : 1.0,
                                "interp" : "linr"
                              },
                              "stroke-color-red" : {
                                "type" : "double",
                                "defaultValue" : 0.0196078431372549,
                                "interp" : "linr"
                              },
                              "stroke-width" : {
                                "type" : "double",
                                "defaultValue" : 2.0,
                                "interp" : "linr"
                              },
                              "tail-x" : {
                                "type" : "double",
                                "defaultValue" : -506.470588235553,
                                "interp" : "linr"
                              },
                              "tail-y" : {
                                "type" : "double",
                                "defaultValue" : -20.0,
                                "interp" : "linr"
                              },
                              "width" : {
                                "type" : "double",
                                "defaultValue" : 1565.29411764783,
                                "interp" : "linr"
                              },
                              "word-wrap" : {
                                "type" : "double",
                                "defaultValue" : 1.0,
                                "interp" : "linr"
                              },
                              "fill-style" : "solid",
                              "horizontal-alignment" : "center",
                              "resize-behavior" : "resizeText",
                              "stroke-style" : "solid",
                              "text" : "Right click and select \"Open image in New Tab\"",
                              "vertical-alignment" : "center",
                              "font" : {
                                "color-blue" : {
                                  "type" : "double",
                                  "defaultValue" : 0.266666666666667,
                                  "interp" : "linr"
                                },
                                "color-green" : {
                                  "type" : "double",
                                  "defaultValue" : 0.231372549019608,
                                  "interp" : "linr"
                                },
                                "color-opacity" : {
                                  "type" : "double",
                                  "defaultValue" : 1.0,
                                  "interp" : "linr"
                                },
                                "color-red" : {
                                  "type" : "double",
                                  "defaultValue" : 0.184313725490196,
                                  "interp" : "linr"
                                },
                                "size" : {
                                  "type" : "double",
                                  "defaultValue" : 64.0,
                                  "interp" : "linr"
                                },
                                "tracking" : {
                                  "type" : "double",
                                  "defaultValue" : 0.0,
                                  "interp" : "linr"
                                },
                                "name" : "Montserrat",
                                "weight" : "Regular"
                              },
                              "textAttributes" : {
                                "type" : "textAttributeList",
                                "keyframes" : [
                                  {
                                    "endTime" : 0,
                                    "time" : 0,
                                    "value" : [{"name":"fontSize","rangeEnd":46,"rangeStart":0,"value":64,"valueType":"double"},{"name":"underline","rangeEnd":46,"rangeStart":0,"value":0,"valueType":"int"},{"name":"kerning","rangeEnd":46,"rangeStart":0,"value":0,"valueType":"double"},{"name":"fontWeight","rangeEnd":46,"rangeStart":0,"value":400,"valueType":"int"},{"name":"strikethrough","rangeEnd":46,"rangeStart":0,"value":0,"valueType":"int"},{"name":"fgColor","rangeEnd":46,"rangeStart":0,"value":"(47,59,68,255)","valueType":"color"},{"name":"fontName","rangeEnd":46,"rangeStart":0,"value":"Montserrat","valueType":"string"},{"name":"fontItalic","rangeEnd":46,"rangeStart":0,"value":0,"valueType":"int"}],
                                    "duration" : 0
                                  }
                                ]
                              }
                            },
                            "attributes" : {
                              "autoRotateText" : true
                            },
                            "parameters" : {
                              "translation0" : {
                                "type" : "double",
                                "defaultValue" : 1.38072664412903e-10,
                                "interp" : "eioe"
                              },
                              "translation1" : {
                                "type" : "double",
                                "defaultValue" : -431.176470588808,
                                "interp" : "eioe"
                              }
                            },
                            "effects" : [

                            ],
                            "start" : 277,
                            "duration" : 74,
                            "mediaStart" : 100,
                            "mediaDuration" : 74,
                            "scalar" : 1,
                            "metadata" : {
                              "WinSubProjectDisplayName" : "",
                              "clipSpeedAttribute" : false,
                              "default-HAlign" : "center",
                              "default-LineSpace" : 0.0,
                              "default-VAlign" : "center",
                              "default-text-attributes" : null,
                              "default-translation0" : 0.0,
                              "default-translation1" : 0.0
                            },
                            "animationTracks" : {

                            }
                          },
                          {
                            "id" : 79,
                            "_type" : "Callout",
                            "def" : {
                              "kind" : "remix",
                              "shape" : "text-rectangle",
                              "style" : "basic",
                              "fill-color-blue" : {
                                "type" : "double",
                                "defaultValue" : 1.0,
                                "interp" : "linr"
                              },
                              "fill-color-green" : {
                                "type" : "double",
                                "defaultValue" : 1.0,
                                "interp" : "linr"
                              },
                              "fill-color-opacity" : {
                                "type" : "double",
                                "defaultValue" : 1.0,
                                "interp" : "linr"
                              },
                              "fill-color-red" : {
                                "type" : "double",
                                "defaultValue" : 1.0,
                                "interp" : "linr"
                              },
                              "height" : {
                                "type" : "double",
                                "defaultValue" : 150.0,
                                "interp" : "linr"
                              },
                              "line-spacing" : {
                                "type" : "double",
                                "defaultValue" : 0.0,
                                "interp" : "linr"
                              },
                              "stroke-color-blue" : {
                                "type" : "double",
                                "defaultValue" : 0.56078431372549,
                                "interp" : "linr"
                              },
                              "stroke-color-green" : {
                                "type" : "double",
                                "defaultValue" : 0.686274509803922,
                                "interp" : "linr"
                              },
                              "stroke-color-opacity" : {
                                "type" : "double",
                                "defaultValue" : 1.0,
                                "interp" : "linr"
                              },
                              "stroke-color-red" : {
                                "type" : "double",
                                "defaultValue" : 0.0196078431372549,
                                "interp" : "linr"
                              },
                              "stroke-width" : {
                                "type" : "double",
                                "defaultValue" : 2.0,
                                "interp" : "linr"
                              },
                              "tail-x" : {
                                "type" : "double",
                                "defaultValue" : -506.470588235553,
                                "interp" : "linr"
                              },
                              "tail-y" : {
                                "type" : "double",
                                "defaultValue" : -20.0,
                                "interp" : "linr"
                              },
                              "width" : {
                                "type" : "double",
                                "defaultValue" : 1565.29411764783,
                                "interp" : "linr"
                              },
                              "word-wrap" : {
                                "type" : "double",
                                "defaultValue" : 1.0,
                                "interp" : "linr"
                              },
                              "fill-style" : "solid",
                              "horizontal-alignment" : "center",
                              "resize-behavior" : "resizeText",
                              "stroke-style" : "solid",
                              "text" : "Right click and select \"Copy image address\"",
                              "vertical-alignment" : "center",
                              "font" : {
                                "color-blue" : {
                                  "type" : "double",
                                  "defaultValue" : 0.266666666666667,
                                  "interp" : "linr"
                                },
                                "color-green" : {
                                  "type" : "double",
                                  "defaultValue" : 0.231372549019608,
                                  "interp" : "linr"
                                },
                                "color-opacity" : {
                                  "type" : "double",
                                  "defaultValue" : 1.0,
                                  "interp" : "linr"
                                },
                                "color-red" : {
                                  "type" : "double",
                                  "defaultValue" : 0.184313725490196,
                                  "interp" : "linr"
                                },
                                "size" : {
                                  "type" : "double",
                                  "defaultValue" : 64.0,
                                  "interp" : "linr"
                                },
                                "tracking" : {
                                  "type" : "double",
                                  "defaultValue" : 0.0,
                                  "interp" : "linr"
                                },
                                "name" : "Montserrat",
                                "weight" : "Regular"
                              },
                              "textAttributes" : {
                                "type" : "textAttributeList",
                                "keyframes" : [
                                  {
                                    "endTime" : 0,
                                    "time" : 0,
                                    "value" : [{"name":"fontItalic","rangeEnd":43,"rangeStart":0,"value":0,"valueType":"int"},{"name":"fontName","rangeEnd":43,"rangeStart":0,"value":"Montserrat","valueType":"string"},{"name":"fontSize","rangeEnd":43,"rangeStart":0,"value":64,"valueType":"double"},{"name":"fontWeight","rangeEnd":43,"rangeStart":0,"value":400,"valueType":"int"},{"name":"fgColor","rangeEnd":43,"rangeStart":0,"value":"(47,59,68,255)","valueType":"color"},{"name":"underline","rangeEnd":43,"rangeStart":0,"value":0,"valueType":"int"},{"name":"strikethrough","rangeEnd":43,"rangeStart":0,"value":0,"valueType":"int"},{"name":"kerning","rangeEnd":43,"rangeStart":0,"value":0,"valueType":"double"}],
                                    "duration" : 0
                                  }
                                ]
                              }
                            },
                            "attributes" : {
                              "autoRotateText" : true
                            },
                            "parameters" : {
                              "translation0" : {
                                "type" : "double",
                                "defaultValue" : 1.38072664412903e-10,
                                "interp" : "eioe"
                              },
                              "translation1" : {
                                "type" : "double",
                                "defaultValue" : -431.176470588808,
                                "interp" : "eioe"
                              }
                            },
                            "effects" : [

                            ],
                            "start" : 393,
                            "duration" : 74,
                            "mediaStart" : 100,
                            "mediaDuration" : 74,
                            "scalar" : 1,
                            "metadata" : {
                              "WinSubProjectDisplayName" : "",
                              "clipSpeedAttribute" : false,
                              "default-HAlign" : "center",
                              "default-LineSpace" : 0.0,
                              "default-VAlign" : "center",
                              "default-text-attributes" : null,
                              "default-translation0" : 0.0,
                              "default-translation1" : 0.0
                            },
                            "animationTracks" : {

                            }
                          },
                          {
                            "id" : 80,
                            "_type" : "Callout",
                            "def" : {
                              "kind" : "remix",
                              "shape" : "text-rectangle",
                              "style" : "basic",
                              "fill-color-blue" : {
                                "type" : "double",
                                "defaultValue" : 1.0,
                                "interp" : "linr"
                              },
                              "fill-color-green" : {
                                "type" : "double",
                                "defaultValue" : 1.0,
                                "interp" : "linr"
                              },
                              "fill-color-opacity" : {
                                "type" : "double",
                                "defaultValue" : 1.0,
                                "interp" : "linr"
                              },
                              "fill-color-red" : {
                                "type" : "double",
                                "defaultValue" : 1.0,
                                "interp" : "linr"
                              },
                              "height" : {
                                "type" : "double",
                                "defaultValue" : 150.0,
                                "interp" : "linr"
                              },
                              "line-spacing" : {
                                "type" : "double",
                                "defaultValue" : 0.0,
                                "interp" : "linr"
                              },
                              "stroke-color-blue" : {
                                "type" : "double",
                                "defaultValue" : 0.56078431372549,
                                "interp" : "linr"
                              },
                              "stroke-color-green" : {
                                "type" : "double",
                                "defaultValue" : 0.686274509803922,
                                "interp" : "linr"
                              },
                              "stroke-color-opacity" : {
                                "type" : "double",
                                "defaultValue" : 1.0,
                                "interp" : "linr"
                              },
                              "stroke-color-red" : {
                                "type" : "double",
                                "defaultValue" : 0.0196078431372549,
                                "interp" : "linr"
                              },
                              "stroke-width" : {
                                "type" : "double",
                                "defaultValue" : 2.0,
                                "interp" : "linr"
                              },
                              "tail-x" : {
                                "type" : "double",
                                "defaultValue" : -506.470588235553,
                                "interp" : "linr"
                              },
                              "tail-y" : {
                                "type" : "double",
                                "defaultValue" : -20.0,
                                "interp" : "linr"
                              },
                              "width" : {
                                "type" : "double",
                                "defaultValue" : 1565.29411764783,
                                "interp" : "linr"
                              },
                              "word-wrap" : {
                                "type" : "double",
                                "defaultValue" : 1.0,
                                "interp" : "linr"
                              },
                              "fill-style" : "solid",
                              "horizontal-alignment" : "center",
                              "resize-behavior" : "resizeText",
                              "stroke-style" : "solid",
                              "text" : "Paste the link into the image converter site",
                              "vertical-alignment" : "center",
                              "font" : {
                                "color-blue" : {
                                  "type" : "double",
                                  "defaultValue" : 0.266666666666667,
                                  "interp" : "linr"
                                },
                                "color-green" : {
                                  "type" : "double",
                                  "defaultValue" : 0.231372549019608,
                                  "interp" : "linr"
                                },
                                "color-opacity" : {
                                  "type" : "double",
                                  "defaultValue" : 1.0,
                                  "interp" : "linr"
                                },
                                "color-red" : {
                                  "type" : "double",
                                  "defaultValue" : 0.184313725490196,
                                  "interp" : "linr"
                                },
                                "size" : {
                                  "type" : "double",
                                  "defaultValue" : 64.0,
                                  "interp" : "linr"
                                },
                                "tracking" : {
                                  "type" : "double",
                                  "defaultValue" : 0.0,
                                  "interp" : "linr"
                                },
                                "name" : "Montserrat",
                                "weight" : "Regular"
                              },
                              "textAttributes" : {
                                "type" : "textAttributeList",
                                "keyframes" : [
                                  {
                                    "endTime" : 0,
                                    "time" : 0,
                                    "value" : [{"name":"fontName","rangeEnd":44,"rangeStart":0,"value":"Montserrat","valueType":"string"},{"name":"fontWeight","rangeEnd":44,"rangeStart":0,"value":400,"valueType":"int"},{"name":"kerning","rangeEnd":44,"rangeStart":0,"value":0,"valueType":"double"},{"name":"fontSize","rangeEnd":44,"rangeStart":0,"value":64,"valueType":"double"},{"name":"underline","rangeEnd":44,"rangeStart":0,"value":0,"valueType":"int"},{"name":"fontItalic","rangeEnd":44,"rangeStart":0,"value":0,"valueType":"int"},{"name":"fgColor","rangeEnd":44,"rangeStart":0,"value":"(47,59,68,255)","valueType":"color"},{"name":"strikethrough","rangeEnd":44,"rangeStart":0,"value":0,"valueType":"int"}],
                                    "duration" : 0
                                  }
                                ]
                              }
                            },
                            "attributes" : {
                              "autoRotateText" : true
                            },
                            "parameters" : {
                              "translation0" : {
                                "type" : "double",
                                "defaultValue" : 1.38072664412903e-10,
                                "interp" : "eioe"
                              },
                              "translation1" : {
                                "type" : "double",
                                "defaultValue" : -431.176470588808,
                                "interp" : "eioe"
                              }
                            },
                            "effects" : [

                            ],
                            "start" : 520,
                            "duration" : 88,
                            "mediaStart" : 100,
                            "mediaDuration" : 88,
                            "scalar" : 1,
                            "metadata" : {
                              "WinSubProjectDisplayName" : "",
                              "clipSpeedAttribute" : false,
                              "default-HAlign" : "center",
                              "default-LineSpace" : 0.0,
                              "default-VAlign" : "center",
                              "default-text-attributes" : null,
                              "default-translation0" : 0.0,
                              "default-translation1" : 0.0
                            },
                            "animationTracks" : {

                            }
                          },
                          {
                            "id" : 81,
                            "_type" : "Callout",
                            "def" : {
                              "kind" : "remix",
                              "shape" : "text-rectangle",
                              "style" : "basic",
                              "fill-color-blue" : {
                                "type" : "double",
                                "defaultValue" : 1.0,
                                "interp" : "linr"
                              },
                              "fill-color-green" : {
                                "type" : "double",
                                "defaultValue" : 1.0,
                                "interp" : "linr"
                              },
                              "fill-color-opacity" : {
                                "type" : "double",
                                "defaultValue" : 1.0,
                                "interp" : "linr"
                              },
                              "fill-color-red" : {
                                "type" : "double",
                                "defaultValue" : 1.0,
                                "interp" : "linr"
                              },
                              "height" : {
                                "type" : "double",
                                "defaultValue" : 150.0,
                                "interp" : "linr"
                              },
                              "line-spacing" : {
                                "type" : "double",
                                "defaultValue" : 0.0,
                                "interp" : "linr"
                              },
                              "stroke-color-blue" : {
                                "type" : "double",
                                "defaultValue" : 0.56078431372549,
                                "interp" : "linr"
                              },
                              "stroke-color-green" : {
                                "type" : "double",
                                "defaultValue" : 0.686274509803922,
                                "interp" : "linr"
                              },
                              "stroke-color-opacity" : {
                                "type" : "double",
                                "defaultValue" : 1.0,
                                "interp" : "linr"
                              },
                              "stroke-color-red" : {
                                "type" : "double",
                                "defaultValue" : 0.0196078431372549,
                                "interp" : "linr"
                              },
                              "stroke-width" : {
                                "type" : "double",
                                "defaultValue" : 2.0,
                                "interp" : "linr"
                              },
                              "tail-x" : {
                                "type" : "double",
                                "defaultValue" : -506.470588235553,
                                "interp" : "linr"
                              },
                              "tail-y" : {
                                "type" : "double",
                                "defaultValue" : -20.0,
                                "interp" : "linr"
                              },
                              "width" : {
                                "type" : "double",
                                "defaultValue" : 1565.29411764783,
                                "interp" : "linr"
                              },
                              "word-wrap" : {
                                "type" : "double",
                                "defaultValue" : 1.0,
                                "interp" : "linr"
                              },
                              "fill-style" : "solid",
                              "horizontal-alignment" : "center",
                              "resize-behavior" : "resizeText",
                              "stroke-style" : "solid",
                              "text" : "Click \"Add URL\"",
                              "vertical-alignment" : "center",
                              "font" : {
                                "color-blue" : {
                                  "type" : "double",
                                  "defaultValue" : 0.266666666666667,
                                  "interp" : "linr"
                                },
                                "color-green" : {
                                  "type" : "double",
                                  "defaultValue" : 0.231372549019608,
                                  "interp" : "linr"
                                },
                                "color-opacity" : {
                                  "type" : "double",
                                  "defaultValue" : 1.0,
                                  "interp" : "linr"
                                },
                                "color-red" : {
                                  "type" : "double",
                                  "defaultValue" : 0.184313725490196,
                                  "interp" : "linr"
                                },
                                "size" : {
                                  "type" : "double",
                                  "defaultValue" : 64.0,
                                  "interp" : "linr"
                                },
                                "tracking" : {
                                  "type" : "double",
                                  "defaultValue" : 0.0,
                                  "interp" : "linr"
                                },
                                "name" : "Montserrat",
                                "weight" : "Regular"
                              },
                              "textAttributes" : {
                                "type" : "textAttributeList",
                                "keyframes" : [
                                  {
                                    "endTime" : 0,
                                    "time" : 0,
                                    "value" : [{"name":"kerning","rangeEnd":15,"rangeStart":0,"value":0,"valueType":"double"},{"name":"fgColor","rangeEnd":15,"rangeStart":0,"value":"(47,59,68,255)","valueType":"color"},{"name":"fontWeight","rangeEnd":15,"rangeStart":0,"value":400,"valueType":"int"},{"name":"fontItalic","rangeEnd":15,"rangeStart":0,"value":0,"valueType":"int"},{"name":"fontSize","rangeEnd":15,"rangeStart":0,"value":64,"valueType":"double"},{"name":"underline","rangeEnd":15,"rangeStart":0,"value":0,"valueType":"int"},{"name":"fontName","rangeEnd":15,"rangeStart":0,"value":"Montserrat","valueType":"string"},{"name":"strikethrough","rangeEnd":15,"rangeStart":0,"value":0,"valueType":"int"}],
                                    "duration" : 0
                                  }
                                ]
                              }
                            },
                            "attributes" : {
                              "autoRotateText" : true
                            },
                            "parameters" : {
                              "translation0" : {
                                "type" : "double",
                                "defaultValue" : 1.38072664412903e-10,
                                "interp" : "eioe"
                              },
                              "translation1" : {
                                "type" : "double",
                                "defaultValue" : -431.176470588808,
                                "interp" : "eioe"
                              }
                            },
                            "effects" : [

                            ],
                            "start" : 608,
                            "duration" : 74,
                            "mediaStart" : 100,
                            "mediaDuration" : 74,
                            "scalar" : 1,
                            "metadata" : {
                              "WinSubProjectDisplayName" : "",
                              "clipSpeedAttribute" : false,
                              "default-HAlign" : "center",
                              "default-LineSpace" : 0.0,
                              "default-VAlign" : "center",
                              "default-text-attributes" : null,
                              "default-translation0" : 0.0,
                              "default-translation1" : 0.0
                            },
                            "animationTracks" : {

                            }
                          },
                          {
                            "id" : 82,
                            "_type" : "Callout",
                            "def" : {
                              "kind" : "remix",
                              "shape" : "text-rectangle",
                              "style" : "basic",
                              "fill-color-blue" : {
                                "type" : "double",
                                "defaultValue" : 1.0,
                                "interp" : "linr"
                              },
                              "fill-color-green" : {
                                "type" : "double",
                                "defaultValue" : 1.0,
                                "interp" : "linr"
                              },
                              "fill-color-opacity" : {
                                "type" : "double",
                                "defaultValue" : 1.0,
                                "interp" : "linr"
                              },
                              "fill-color-red" : {
                                "type" : "double",
                                "defaultValue" : 1.0,
                                "interp" : "linr"
                              },
                              "height" : {
                                "type" : "double",
                                "defaultValue" : 150.0,
                                "interp" : "linr"
                              },
                              "line-spacing" : {
                                "type" : "double",
                                "defaultValue" : 0.0,
                                "interp" : "linr"
                              },
                              "stroke-color-blue" : {
                                "type" : "double",
                                "defaultValue" : 0.56078431372549,
                                "interp" : "linr"
                              },
                              "stroke-color-green" : {
                                "type" : "double",
                                "defaultValue" : 0.686274509803922,
                                "interp" : "linr"
                              },
                              "stroke-color-opacity" : {
                                "type" : "double",
                                "defaultValue" : 1.0,
                                "interp" : "linr"
                              },
                              "stroke-color-red" : {
                                "type" : "double",
                                "defaultValue" : 0.0196078431372549,
                                "interp" : "linr"
                              },
                              "stroke-width" : {
                                "type" : "double",
                                "defaultValue" : 2.0,
                                "interp" : "linr"
                              },
                              "tail-x" : {
                                "type" : "double",
                                "defaultValue" : -506.470588235553,
                                "interp" : "linr"
                              },
                              "tail-y" : {
                                "type" : "double",
                                "defaultValue" : -20.0,
                                "interp" : "linr"
                              },
                              "width" : {
                                "type" : "double",
                                "defaultValue" : 1565.29411764783,
                                "interp" : "linr"
                              },
                              "word-wrap" : {
                                "type" : "double",
                                "defaultValue" : 1.0,
                                "interp" : "linr"
                              },
                              "fill-style" : "solid",
                              "horizontal-alignment" : "center",
                              "resize-behavior" : "resizeText",
                              "stroke-style" : "solid",
                              "text" : "Choose \"Monochrome\" and enable \"Enhance\"",
                              "vertical-alignment" : "center",
                              "font" : {
                                "color-blue" : {
                                  "type" : "double",
                                  "defaultValue" : 0.266666666666667,
                                  "interp" : "linr"
                                },
                                "color-green" : {
                                  "type" : "double",
                                  "defaultValue" : 0.231372549019608,
                                  "interp" : "linr"
                                },
                                "color-opacity" : {
                                  "type" : "double",
                                  "defaultValue" : 1.0,
                                  "interp" : "linr"
                                },
                                "color-red" : {
                                  "type" : "double",
                                  "defaultValue" : 0.184313725490196,
                                  "interp" : "linr"
                                },
                                "size" : {
                                  "type" : "double",
                                  "defaultValue" : 64.0,
                                  "interp" : "linr"
                                },
                                "tracking" : {
                                  "type" : "double",
                                  "defaultValue" : 0.0,
                                  "interp" : "linr"
                                },
                                "name" : "Montserrat",
                                "weight" : "Regular"
                              },
                              "textAttributes" : {
                                "type" : "textAttributeList",
                                "keyframes" : [
                                  {
                                    "endTime" : 0,
                                    "time" : 0,
                                    "value" : [{"name":"fgColor","rangeEnd":40,"rangeStart":0,"value":"(47,59,68,255)","valueType":"color"},{"name":"fontWeight","rangeEnd":40,"rangeStart":0,"value":400,"valueType":"int"},{"name":"fontSize","rangeEnd":40,"rangeStart":0,"value":64,"valueType":"double"},{"name":"fontItalic","rangeEnd":40,"rangeStart":0,"value":0,"valueType":"int"},{"name":"fontName","rangeEnd":40,"rangeStart":0,"value":"Montserrat","valueType":"string"},{"name":"kerning","rangeEnd":40,"rangeStart":0,"value":0,"valueType":"double"},{"name":"strikethrough","rangeEnd":40,"rangeStart":0,"value":0,"valueType":"int"},{"name":"underline","rangeEnd":40,"rangeStart":0,"value":0,"valueType":"int"}],
                                    "duration" : 0
                                  }
                                ]
                              }
                            },
                            "attributes" : {
                              "autoRotateText" : true
                            },
                            "parameters" : {
                              "translation0" : {
                                "type" : "double",
                                "defaultValue" : 1.38072664412903e-10,
                                "interp" : "eioe"
                              },
                              "translation1" : {
                                "type" : "double",
                                "defaultValue" : -431.176470588808,
                                "interp" : "eioe"
                              }
                            },
                            "effects" : [

                            ],
                            "start" : 736,
                            "duration" : 77,
                            "mediaStart" : 100,
                            "mediaDuration" : 77,
                            "scalar" : 1,
                            "metadata" : {
                              "WinSubProjectDisplayName" : "",
                              "clipSpeedAttribute" : false,
                              "default-HAlign" : "center",
                              "default-LineSpace" : 0.0,
                              "default-VAlign" : "center",
                              "default-text-attributes" : null,
                              "default-translation0" : 0.0,
                              "default-translation1" : 0.0
                            },
                            "animationTracks" : {

                            }
                          },
                          {
                            "id" : 83,
                            "_type" : "Callout",
                            "def" : {
                              "kind" : "remix",
                              "shape" : "text-rectangle",
                              "style" : "basic",
                              "fill-color-blue" : {
                                "type" : "double",
                                "defaultValue" : 1.0,
                                "interp" : "linr"
                              },
                              "fill-color-green" : {
                                "type" : "double",
                                "defaultValue" : 1.0,
                                "interp" : "linr"
                              },
                              "fill-color-opacity" : {
                                "type" : "double",
                                "defaultValue" : 1.0,
                                "interp" : "linr"
                              },
                              "fill-color-red" : {
                                "type" : "double",
                                "defaultValue" : 1.0,
                                "interp" : "linr"
                              },
                              "height" : {
                                "type" : "double",
                                "defaultValue" : 150.0,
                                "interp" : "linr"
                              },
                              "line-spacing" : {
                                "type" : "double",
                                "defaultValue" : 0.0,
                                "interp" : "linr"
                              },
                              "stroke-color-blue" : {
                                "type" : "double",
                                "defaultValue" : 0.56078431372549,
                                "interp" : "linr"
                              },
                              "stroke-color-green" : {
                                "type" : "double",
                                "defaultValue" : 0.686274509803922,
                                "interp" : "linr"
                              },
                              "stroke-color-opacity" : {
                                "type" : "double",
                                "defaultValue" : 1.0,
                                "interp" : "linr"
                              },
                              "stroke-color-red" : {
                                "type" : "double",
                                "defaultValue" : 0.0196078431372549,
                                "interp" : "linr"
                              },
                              "stroke-width" : {
                                "type" : "double",
                                "defaultValue" : 2.0,
                                "interp" : "linr"
                              },
                              "tail-x" : {
                                "type" : "double",
                                "defaultValue" : -506.470588235553,
                                "interp" : "linr"
                              },
                              "tail-y" : {
                                "type" : "double",
                                "defaultValue" : -20.0,
                                "interp" : "linr"
                              },
                              "width" : {
                                "type" : "double",
                                "defaultValue" : 1565.29411764783,
                                "interp" : "linr"
                              },
                              "word-wrap" : {
                                "type" : "double",
                                "defaultValue" : 1.0,
                                "interp" : "linr"
                              },
                              "fill-style" : "solid",
                              "horizontal-alignment" : "center",
                              "resize-behavior" : "resizeText",
                              "stroke-style" : "solid",
                              "text" : "Click \"Start conversion\"",
                              "vertical-alignment" : "center",
                              "font" : {
                                "color-blue" : {
                                  "type" : "double",
                                  "defaultValue" : 0.266666666666667,
                                  "interp" : "linr"
                                },
                                "color-green" : {
                                  "type" : "double",
                                  "defaultValue" : 0.231372549019608,
                                  "interp" : "linr"
                                },
                                "color-opacity" : {
                                  "type" : "double",
                                  "defaultValue" : 1.0,
                                  "interp" : "linr"
                                },
                                "color-red" : {
                                  "type" : "double",
                                  "defaultValue" : 0.184313725490196,
                                  "interp" : "linr"
                                },
                                "size" : {
                                  "type" : "double",
                                  "defaultValue" : 64.0,
                                  "interp" : "linr"
                                },
                                "tracking" : {
                                  "type" : "double",
                                  "defaultValue" : 0.0,
                                  "interp" : "linr"
                                },
                                "name" : "Montserrat",
                                "weight" : "Regular"
                              },
                              "textAttributes" : {
                                "type" : "textAttributeList",
                                "keyframes" : [
                                  {
                                    "endTime" : 0,
                                    "time" : 0,
                                    "value" : [{"name":"strikethrough","rangeEnd":24,"rangeStart":0,"value":0,"valueType":"int"},{"name":"fontWeight","rangeEnd":24,"rangeStart":0,"value":400,"valueType":"int"},{"name":"underline","rangeEnd":24,"rangeStart":0,"value":0,"valueType":"int"},{"name":"fontItalic","rangeEnd":24,"rangeStart":0,"value":0,"valueType":"int"},{"name":"fontName","rangeEnd":24,"rangeStart":0,"value":"Montserrat","valueType":"string"},{"name":"fontSize","rangeEnd":24,"rangeStart":0,"value":64,"valueType":"double"},{"name":"fgColor","rangeEnd":24,"rangeStart":0,"value":"(47,59,68,255)","valueType":"color"},{"name":"kerning","rangeEnd":24,"rangeStart":0,"value":0,"valueType":"double"}],
                                    "duration" : 0
                                  }
                                ]
                              }
                            },
                            "attributes" : {
                              "autoRotateText" : true
                            },
                            "parameters" : {
                              "translation0" : {
                                "type" : "double",
                                "defaultValue" : 1.38072664412903e-10,
                                "interp" : "eioe"
                              },
                              "translation1" : {
                                "type" : "double",
                                "defaultValue" : -431.176470588808,
                                "interp" : "eioe"
                              }
                            },
                            "effects" : [

                            ],
                            "start" : 813,
                            "duration" : 77,
                            "mediaStart" : 100,
                            "mediaDuration" : 77,
                            "scalar" : 1,
                            "metadata" : {
                              "WinSubProjectDisplayName" : "",
                              "clipSpeedAttribute" : false,
                              "default-HAlign" : "center",
                              "default-LineSpace" : 0.0,
                              "default-VAlign" : "center",
                              "default-text-attributes" : null,
                              "default-translation0" : 0.0,
                              "default-translation1" : 0.0
                            },
                            "animationTracks" : {

                            }
                          },
                          {
                            "id" : 84,
                            "_type" : "Callout",
                            "def" : {
                              "kind" : "TypeWinBlur",
                              "shape" : "",
                              "style" : "",
                              "blur-invert" : 0.0,
                              "height" : 270.0,
                              "intensity" : 1.0,
                              "width" : 480.0,
                              "filename" : "C:\\Program Files\\TechSmith\\Camtasia 2019\\Media\\Studio\\Callouts\\blur_100x100.xml",
                              "name" : "Blur",
                              "xmlContent" : "﻿<?xml version=\"1.0\"?>\n\n<Overlay version=\"1.0.1\">\n\n<Overlay_Filename>blur_100x100.png</Overlay_Filename>\n<Overlay_Name>Blur</Overlay_Name>\n<Text_Top>0</Text_Top>\n<Text_Left>0</Text_Left>\n<Text_Bottom>0</Text_Bottom>\n<Text_Right>0</Text_Right>\n<Fill_Color>0</Fill_Color>\n<Border_Color>0</Border_Color>\n</Overlay>"
                            },
                            "attributes" : {
                              "autoRotateText" : true
                            },
                            "parameters" : {
                              "translation0" : -262.99999999995,
                              "translation1" : 147.000000000028,
                              "scale0" : 0.625000000000284,
                              "scale1" : 1.62962962962961
                            },
                            "effects" : [

                            ],
                            "start" : 1002,
                            "duration" : 3,
                            "mediaStart" : 0,
                            "mediaDuration" : 3,
                            "scalar" : 1,
                            "metadata" : {
                              "WinSubProjectDisplayName" : "",
                              "clipSpeedAttribute" : false,
                              "default-scale0" : 1.0,
                              "default-scale1" : 1.0,
                              "default-translation0" : 0.0,
                              "default-translation1" : 0.0
                            },
                            "animationTracks" : {

                            }
                          },
                          {
                            "id" : 85,
                            "_type" : "Callout",
                            "def" : {
                              "kind" : "TypeWinBlur",
                              "shape" : "",
                              "style" : "",
                              "blur-invert" : 0.0,
                              "height" : {
                                "type" : "double",
                                "defaultValue" : 270.0,
                                "interp" : "linr"
                              },
                              "intensity" : {
                                "type" : "double",
                                "defaultValue" : 1.0,
                                "interp" : "linr"
                              },
                              "width" : {
                                "type" : "double",
                                "defaultValue" : 480.0,
                                "interp" : "linr"
                              },
                              "filename" : "C:\\Program Files\\TechSmith\\Camtasia 2019\\Media\\Studio\\Callouts\\blur_100x100.xml",
                              "name" : "Blur",
                              "xmlContent" : "﻿<?xml version=\"1.0\"?>\n\n<Overlay version=\"1.0.1\">\n\n<Overlay_Filename>blur_100x100.png</Overlay_Filename>\n<Overlay_Name>Blur</Overlay_Name>\n<Text_Top>0</Text_Top>\n<Text_Left>0</Text_Left>\n<Text_Bottom>0</Text_Bottom>\n<Text_Right>0</Text_Right>\n<Fill_Color>0</Fill_Color>\n<Border_Color>0</Border_Color>\n</Overlay>"
                            },
                            "attributes" : {
                              "autoRotateText" : true
                            },
                            "parameters" : {
                              "translation0" : {
                                "type" : "double",
                                "defaultValue" : -271.00000000005,
                                "interp" : "eioe"
                              },
                              "translation1" : {
                                "type" : "double",
                                "defaultValue" : 205.500000000112,
                                "interp" : "eioe"
                              },
                              "scale0" : {
                                "type" : "double",
                                "defaultValue" : 0.591666666666534,
                                "interp" : "eioe"
                              },
                              "scale1" : {
                                "type" : "double",
                                "defaultValue" : 1.25555555555506,
                                "interp" : "eioe"
                              }
                            },
                            "effects" : [

                            ],
                            "start" : 1008,
                            "duration" : 130,
                            "mediaStart" : 10,
                            "mediaDuration" : 130,
                            "scalar" : 1,
                            "metadata" : {
                              "WinSubProjectDisplayName" : "",
                              "clipSpeedAttribute" : false,
                              "default-scale0" : 1.0,
                              "default-scale1" : 1.0,
                              "default-translation0" : 0.0,
                              "default-translation1" : 0.0
                            },
                            "animationTracks" : {

                            }
                          },
                          {
                            "id" : 86,
                            "_type" : "Callout",
                            "def" : {
                              "kind" : "TypeWinBlur",
                              "shape" : "",
                              "style" : "",
                              "blur-invert" : 0.0,
                              "height" : 270.0,
                              "intensity" : 1.0,
                              "width" : 480.0,
                              "filename" : "C:\\Program Files\\TechSmith\\Camtasia 2019\\Media\\Studio\\Callouts\\blur_100x100.xml",
                              "name" : "Blur",
                              "xmlContent" : "﻿<?xml version=\"1.0\"?>\n\n<Overlay version=\"1.0.1\">\n\n<Overlay_Filename>blur_100x100.png</Overlay_Filename>\n<Overlay_Name>Blur</Overlay_Name>\n<Text_Top>0</Text_Top>\n<Text_Left>0</Text_Left>\n<Text_Bottom>0</Text_Bottom>\n<Text_Right>0</Text_Right>\n<Fill_Color>0</Fill_Color>\n<Border_Color>0</Border_Color>\n</Overlay>"
                            },
                            "attributes" : {
                              "autoRotateText" : true
                            },
                            "parameters" : {
                              "translation0" : -310.071428571455,
                              "translation1" : 188.500000000009,
                              "scale0" : 0.408035714285679,
                              "scale1" : 1.39629629629646
                            },
                            "effects" : [

                            ],
                            "start" : 1265,
                            "duration" : 84,
                            "mediaStart" : 0,
                            "mediaDuration" : 84,
                            "scalar" : 1,
                            "metadata" : {
                              "WinSubProjectDisplayName" : "",
                              "clipSpeedAttribute" : false,
                              "default-scale0" : 1.0,
                              "default-scale1" : 1.0,
                              "default-translation0" : 0.0,
                              "default-translation1" : 0.0
                            },
                            "animationTracks" : {

                            }
                          }
                        ],
                          "ident" : "",
                          "audioMuted" : false,
                          "videoHidden" : false,
                          "magnetic" : false,
                          "metadata" : {
                            "IsLocked" : "False",
                            "WinTrackHeight" : "5.85890400399593e-313"
                          }
                      },
                      {
                        "trackIndex" : 2,
                        "medias" : [
                          {
                            "id" : 87,
                            "_type" : "Callout",
                            "def" : {
                              "kind" : "TypeWinBlur",
                              "shape" : "",
                              "style" : "",
                              "blur-invert" : 0.0,
                              "height" : {
                                "type" : "double",
                                "defaultValue" : 270.0,
                                "interp" : "linr"
                              },
                              "intensity" : {
                                "type" : "double",
                                "defaultValue" : 1.0,
                                "interp" : "linr"
                              },
                              "width" : {
                                "type" : "double",
                                "defaultValue" : 480.0,
                                "interp" : "linr"
                              },
                              "filename" : "C:\\Program Files\\TechSmith\\Camtasia 2019\\Media\\Studio\\Callouts\\blur_100x100.xml",
                              "name" : "Blur",
                              "xmlContent" : "﻿<?xml version=\"1.0\"?>\n\n<Overlay version=\"1.0.1\">\n\n<Overlay_Filename>blur_100x100.png</Overlay_Filename>\n<Overlay_Name>Blur</Overlay_Name>\n<Text_Top>0</Text_Top>\n<Text_Left>0</Text_Left>\n<Text_Bottom>0</Text_Bottom>\n<Text_Right>0</Text_Right>\n<Fill_Color>0</Fill_Color>\n<Border_Color>0</Border_Color>\n</Overlay>"
                            },
                            "attributes" : {
                              "autoRotateText" : true
                            },
                            "parameters" : {
                              "translation0" : {
                                "type" : "double",
                                "defaultValue" : 245.000000000316,
                                "interp" : "eioe"
                              },
                              "translation1" : {
                                "type" : "double",
                                "defaultValue" : 167.999999999899,
                                "interp" : "eioe"
                              },
                              "scale0" : {
                                "type" : "double",
                                "defaultValue" : 1.29583333333431,
                                "interp" : "eioe"
                              },
                              "scale1" : {
                                "type" : "double",
                                "defaultValue" : 1.33333333333164,
                                "interp" : "eioe"
                              }
                            },
                            "effects" : [

                            ],
                            "start" : 1008,
                            "duration" : 130,
                            "mediaStart" : 10,
                            "mediaDuration" : 130,
                            "scalar" : 1,
                            "metadata" : {
                              "WinSubProjectDisplayName" : "",
                              "clipSpeedAttribute" : false,
                              "default-scale0" : 1.0,
                              "default-scale1" : 1.0,
                              "default-translation0" : 0.0,
                              "default-translation1" : 0.0
                            },
                            "animationTracks" : {

                            }
                          },
                          {
                            "id" : 88,
                            "_type" : "Callout",
                            "def" : {
                              "kind" : "TypeWinBlur",
                              "shape" : "",
                              "style" : "",
                              "blur-invert" : 0.0,
                              "height" : {
                                "type" : "double",
                                "defaultValue" : 270.0,
                                "interp" : "linr"
                              },
                              "intensity" : {
                                "type" : "double",
                                "defaultValue" : 1.0,
                                "interp" : "linr"
                              },
                              "width" : {
                                "type" : "double",
                                "defaultValue" : 480.0,
                                "interp" : "linr"
                              },
                              "filename" : "C:\\Program Files\\TechSmith\\Camtasia 2019\\Media\\Studio\\Callouts\\blur_100x100.xml",
                              "name" : "Blur",
                              "xmlContent" : "﻿<?xml version=\"1.0\"?>\n\n<Overlay version=\"1.0.1\">\n\n<Overlay_Filename>blur_100x100.png</Overlay_Filename>\n<Overlay_Name>Blur</Overlay_Name>\n<Text_Top>0</Text_Top>\n<Text_Left>0</Text_Left>\n<Text_Bottom>0</Text_Bottom>\n<Text_Right>0</Text_Right>\n<Fill_Color>0</Fill_Color>\n<Border_Color>0</Border_Color>\n</Overlay>"
                            },
                            "attributes" : {
                              "autoRotateText" : true
                            },
                            "parameters" : {
                              "translation0" : {
                                "type" : "double",
                                "defaultValue" : 179.428571428926,
                                "interp" : "eioe"
                              },
                              "translation1" : {
                                "type" : "double",
                                "defaultValue" : 10.9999999999912,
                                "interp" : "eioe"
                              },
                              "scale0" : {
                                "type" : "double",
                                "defaultValue" : 1.50595238095379,
                                "interp" : "eioe"
                              },
                              "scale1" : {
                                "type" : "double",
                                "defaultValue" : 2.43703703703726,
                                "interp" : "eioe"
                              }
                            },
                            "effects" : [

                            ],
                            "start" : 1269,
                            "duration" : 35,
                            "mediaStart" : 84,
                            "mediaDuration" : 35,
                            "scalar" : 1,
                            "metadata" : {
                              "WinSubProjectDisplayName" : "",
                              "clipSpeedAttribute" : false,
                              "default-scale0" : 1.0,
                              "default-scale1" : 1.0,
                              "default-translation0" : 0.0,
                              "default-translation1" : 0.0
                            },
                            "animationTracks" : {

                            }
                          },
                          {
                            "id" : 89,
                            "_type" : "Callout",
                            "def" : {
                              "kind" : "TypeWinBlur",
                              "shape" : "",
                              "style" : "",
                              "blur-invert" : 0.0,
                              "height" : {
                                "type" : "double",
                                "defaultValue" : 270.0,
                                "interp" : "linr"
                              },
                              "intensity" : {
                                "type" : "double",
                                "defaultValue" : 1.0,
                                "interp" : "linr"
                              },
                              "width" : {
                                "type" : "double",
                                "defaultValue" : 480.0,
                                "interp" : "linr"
                              },
                              "filename" : "C:\\Program Files\\TechSmith\\Camtasia 2019\\Media\\Studio\\Callouts\\blur_100x100.xml",
                              "name" : "Blur",
                              "xmlContent" : "﻿<?xml version=\"1.0\"?>\n\n<Overlay version=\"1.0.1\">\n\n<Overlay_Filename>blur_100x100.png</Overlay_Filename>\n<Overlay_Name>Blur</Overlay_Name>\n<Text_Top>0</Text_Top>\n<Text_Left>0</Text_Left>\n<Text_Bottom>0</Text_Bottom>\n<Text_Right>0</Text_Right>\n<Fill_Color>0</Fill_Color>\n<Border_Color>0</Border_Color>\n</Overlay>"
                            },
                            "attributes" : {
                              "autoRotateText" : true
                            },
                            "parameters" : {
                              "translation0" : {
                                "type" : "double",
                                "defaultValue" : 179.428571428926,
                                "interp" : "eioe"
                              },
                              "translation1" : {
                                "type" : "double",
                                "defaultValue" : 24.6666666666001,
                                "interp" : "eioe"
                              },
                              "scale0" : {
                                "type" : "double",
                                "defaultValue" : 1.50595238095379,
                                "interp" : "eioe"
                              },
                              "scale1" : {
                                "type" : "double",
                                "defaultValue" : 2.33580246913646,
                                "interp" : "eioe"
                              }
                            },
                            "effects" : [

                            ],
                            "start" : 1304,
                            "duration" : 45,
                            "mediaStart" : 119,
                            "mediaDuration" : 45,
                            "scalar" : 1,
                            "metadata" : {
                              "WinSubProjectDisplayName" : "",
                              "clipSpeedAttribute" : false,
                              "default-scale0" : 1.0,
                              "default-scale1" : 1.0,
                              "default-translation0" : 0.0,
                              "default-translation1" : 0.0
                            },
                            "animationTracks" : {

                            }
                          }
                        ],
                          "ident" : "",
                          "audioMuted" : false,
                          "videoHidden" : false,
                          "magnetic" : false,
                          "metadata" : {
                            "IsLocked" : "False",
                            "WinTrackHeight" : "5.85890400399593e-313"
                          }
                      },
                      {
                        "trackIndex" : 3,
                        "medias" : [
                          {
                            "id" : 90,
                            "_type" : "Callout",
                            "def" : {
                              "kind" : "TypeWinBlur",
                              "shape" : "",
                              "style" : "",
                              "blur-invert" : 0.0,
                              "height" : {
                                "type" : "double",
                                "defaultValue" : 270.0,
                                "interp" : "linr"
                              },
                              "intensity" : {
                                "type" : "double",
                                "defaultValue" : 1.0,
                                "interp" : "linr"
                              },
                              "width" : {
                                "type" : "double",
                                "defaultValue" : 480.0,
                                "interp" : "linr"
                              },
                              "filename" : "C:\\Program Files\\TechSmith\\Camtasia 2019\\Media\\Studio\\Callouts\\blur_100x100.xml",
                              "name" : "Blur",
                              "xmlContent" : "﻿<?xml version=\"1.0\"?>\n\n<Overlay version=\"1.0.1\">\n\n<Overlay_Filename>blur_100x100.png</Overlay_Filename>\n<Overlay_Name>Blur</Overlay_Name>\n<Text_Top>0</Text_Top>\n<Text_Left>0</Text_Left>\n<Text_Bottom>0</Text_Bottom>\n<Text_Right>0</Text_Right>\n<Fill_Color>0</Fill_Color>\n<Border_Color>0</Border_Color>\n</Overlay>"
                            },
                            "attributes" : {
                              "autoRotateText" : true
                            },
                            "parameters" : {
                              "translation0" : {
                                "type" : "double",
                                "defaultValue" : 400.500000000428,
                                "interp" : "eioe"
                              },
                              "translation1" : {
                                "type" : "double",
                                "defaultValue" : -26.4999999997895,
                                "interp" : "eioe"
                              },
                              "scale0" : {
                                "type" : "double",
                                "defaultValue" : 0.647916666667176,
                                "interp" : "eioe"
                              },
                              "scale1" : {
                                "type" : "double",
                                "defaultValue" : 0.196296296295325,
                                "interp" : "eioe"
                              }
                            },
                            "effects" : [

                            ],
                            "start" : 1008,
                            "duration" : 130,
                            "mediaStart" : 10,
                            "mediaDuration" : 130,
                            "scalar" : 1,
                            "metadata" : {
                              "WinSubProjectDisplayName" : "",
                              "clipSpeedAttribute" : false,
                              "default-scale0" : 1.0,
                              "default-scale1" : 1.0,
                              "default-translation0" : 0.0,
                              "default-translation1" : 0.0
                            },
                            "animationTracks" : {

                            }
                          },
                          {
                            "id" : 91,
                            "_type" : "Callout",
                            "def" : {
                              "kind" : "TypeWinBlur",
                              "shape" : "",
                              "style" : "",
                              "blur-invert" : 0.0,
                              "height" : {
                                "type" : "double",
                                "defaultValue" : 270.0,
                                "interp" : "linr"
                              },
                              "intensity" : {
                                "type" : "double",
                                "defaultValue" : 1.0,
                                "interp" : "linr"
                              },
                              "width" : {
                                "type" : "double",
                                "defaultValue" : 480.0,
                                "interp" : "linr"
                              },
                              "filename" : "C:\\Program Files\\TechSmith\\Camtasia 2019\\Media\\Studio\\Callouts\\blur_100x100.xml",
                              "name" : "Blur",
                              "xmlContent" : "﻿<?xml version=\"1.0\"?>\n\n<Overlay version=\"1.0.1\">\n\n<Overlay_Filename>blur_100x100.png</Overlay_Filename>\n<Overlay_Name>Blur</Overlay_Name>\n<Text_Top>0</Text_Top>\n<Text_Left>0</Text_Left>\n<Text_Bottom>0</Text_Bottom>\n<Text_Right>0</Text_Right>\n<Fill_Color>0</Fill_Color>\n<Border_Color>0</Border_Color>\n</Overlay>"
                            },
                            "attributes" : {
                              "autoRotateText" : true
                            },
                            "parameters" : {
                              "translation0" : {
                                "type" : "double",
                                "defaultValue" : 304.857142857523,
                                "interp" : "eioe"
                              },
                              "translation1" : {
                                "type" : "double",
                                "defaultValue" : -298.599999999928,
                                "interp" : "eioe"
                              },
                              "scale0" : {
                                "type" : "double",
                                "defaultValue" : 0.983333333334643,
                                "interp" : "eioe"
                              },
                              "scale1" : {
                                "type" : "double",
                                "defaultValue" : 0.143703703704417,
                                "interp" : "eioe"
                              }
                            },
                            "effects" : [

                            ],
                            "start" : 1304,
                            "duration" : 45,
                            "mediaStart" : 119,
                            "mediaDuration" : 45,
                            "scalar" : 1,
                            "metadata" : {
                              "WinSubProjectDisplayName" : "",
                              "clipSpeedAttribute" : false,
                              "default-scale0" : 1.0,
                              "default-scale1" : 1.0,
                              "default-translation0" : 0.0,
                              "default-translation1" : 0.0
                            },
                            "animationTracks" : {

                            }
                          }
                        ],
                          "ident" : "",
                          "audioMuted" : false,
                          "videoHidden" : false,
                          "magnetic" : false,
                          "metadata" : {
                            "IsLocked" : "False",
                            "WinTrackHeight" : "5.85890400399593e-313"
                          }
                      },
                      {
                        "trackIndex" : 4,
                        "medias" : [
                          {
                            "id" : 92,
                            "_type" : "Callout",
                            "def" : {
                              "kind" : "remix",
                              "shape" : "text-rectangle",
                              "style" : "basic",
                              "fill-color-blue" : {
                                "type" : "double",
                                "defaultValue" : 1.0,
                                "interp" : "linr"
                              },
                              "fill-color-green" : {
                                "type" : "double",
                                "defaultValue" : 1.0,
                                "interp" : "linr"
                              },
                              "fill-color-opacity" : {
                                "type" : "double",
                                "defaultValue" : 1.0,
                                "interp" : "linr"
                              },
                              "fill-color-red" : {
                                "type" : "double",
                                "defaultValue" : 1.0,
                                "interp" : "linr"
                              },
                              "height" : {
                                "type" : "double",
                                "defaultValue" : 113.529411764565,
                                "interp" : "linr"
                              },
                              "line-spacing" : {
                                "type" : "double",
                                "defaultValue" : 0.0,
                                "interp" : "linr"
                              },
                              "stroke-color-blue" : {
                                "type" : "double",
                                "defaultValue" : 0.56078431372549,
                                "interp" : "linr"
                              },
                              "stroke-color-green" : {
                                "type" : "double",
                                "defaultValue" : 0.686274509803922,
                                "interp" : "linr"
                              },
                              "stroke-color-opacity" : {
                                "type" : "double",
                                "defaultValue" : 1.0,
                                "interp" : "linr"
                              },
                              "stroke-color-red" : {
                                "type" : "double",
                                "defaultValue" : 0.0196078431372549,
                                "interp" : "linr"
                              },
                              "stroke-width" : {
                                "type" : "double",
                                "defaultValue" : 2.0,
                                "interp" : "linr"
                              },
                              "tail-x" : {
                                "type" : "double",
                                "defaultValue" : -237.647058823752,
                                "interp" : "linr"
                              },
                              "tail-y" : {
                                "type" : "double",
                                "defaultValue" : -1.76470588228253,
                                "interp" : "linr"
                              },
                              "width" : {
                                "type" : "double",
                                "defaultValue" : 1027.64705882423,
                                "interp" : "linr"
                              },
                              "word-wrap" : {
                                "type" : "double",
                                "defaultValue" : 1.0,
                                "interp" : "linr"
                              },
                              "fill-style" : "solid",
                              "horizontal-alignment" : "center",
                              "resize-behavior" : "resizeText",
                              "stroke-style" : "solid",
                              "text" : "Save it to your desktop",
                              "vertical-alignment" : "center",
                              "font" : {
                                "color-blue" : {
                                  "type" : "double",
                                  "defaultValue" : 0.266666666666667,
                                  "interp" : "linr"
                                },
                                "color-green" : {
                                  "type" : "double",
                                  "defaultValue" : 0.231372549019608,
                                  "interp" : "linr"
                                },
                                "color-opacity" : {
                                  "type" : "double",
                                  "defaultValue" : 1.0,
                                  "interp" : "linr"
                                },
                                "color-red" : {
                                  "type" : "double",
                                  "defaultValue" : 0.184313725490196,
                                  "interp" : "linr"
                                },
                                "size" : {
                                  "type" : "double",
                                  "defaultValue" : 64.0,
                                  "interp" : "linr"
                                },
                                "tracking" : {
                                  "type" : "double",
                                  "defaultValue" : 0.0,
                                  "interp" : "linr"
                                },
                                "name" : "Montserrat",
                                "weight" : "Regular"
                              },
                              "textAttributes" : {
                                "type" : "textAttributeList",
                                "keyframes" : [
                                  {
                                    "endTime" : 0,
                                    "time" : 0,
                                    "value" : [{"name":"fgColor","rangeEnd":23,"rangeStart":0,"value":"(47,59,68,255)","valueType":"color"},{"name":"strikethrough","rangeEnd":23,"rangeStart":0,"value":0,"valueType":"int"},{"name":"fontItalic","rangeEnd":23,"rangeStart":0,"value":0,"valueType":"int"},{"name":"underline","rangeEnd":23,"rangeStart":0,"value":0,"valueType":"int"},{"name":"fontSize","rangeEnd":23,"rangeStart":0,"value":64,"valueType":"double"},{"name":"fontName","rangeEnd":23,"rangeStart":0,"value":"Montserrat","valueType":"string"},{"name":"fontWeight","rangeEnd":23,"rangeStart":0,"value":400,"valueType":"int"},{"name":"kerning","rangeEnd":23,"rangeStart":0,"value":0,"valueType":"double"}],
                                    "duration" : 0
                                  }
                                ]
                              }
                            },
                            "attributes" : {
                              "autoRotateText" : true
                            },
                            "parameters" : {
                              "translation0" : {
                                "type" : "double",
                                "defaultValue" : -415.882352941143,
                                "interp" : "eioe"
                              },
                              "translation1" : {
                                "type" : "double",
                                "defaultValue" : -448.235294118291,
                                "interp" : "eioe"
                              }
                            },
                            "effects" : [

                            ],
                            "start" : 945,
                            "duration" : 193,
                            "mediaStart" : 100,
                            "mediaDuration" : 193,
                            "scalar" : 1,
                            "metadata" : {
                              "WinSubProjectDisplayName" : "",
                              "clipSpeedAttribute" : false,
                              "default-HAlign" : "center",
                              "default-LineSpace" : 0.0,
                              "default-VAlign" : "center",
                              "default-text-attributes" : null,
                              "default-translation0" : 0.0,
                              "default-translation1" : 0.0
                            },
                            "animationTracks" : {

                            }
                          },
                          {
                            "id" : 93,
                            "_type" : "Callout",
                            "def" : {
                              "kind" : "remix",
                              "shape" : "text-rectangle",
                              "style" : "basic",
                              "fill-color-blue" : {
                                "type" : "double",
                                "defaultValue" : 1.0,
                                "interp" : "linr"
                              },
                              "fill-color-green" : {
                                "type" : "double",
                                "defaultValue" : 1.0,
                                "interp" : "linr"
                              },
                              "fill-color-opacity" : {
                                "type" : "double",
                                "defaultValue" : 1.0,
                                "interp" : "linr"
                              },
                              "fill-color-red" : {
                                "type" : "double",
                                "defaultValue" : 1.0,
                                "interp" : "linr"
                              },
                              "height" : {
                                "type" : "double",
                                "defaultValue" : 150.0,
                                "interp" : "linr"
                              },
                              "line-spacing" : {
                                "type" : "double",
                                "defaultValue" : 0.0,
                                "interp" : "linr"
                              },
                              "stroke-color-blue" : {
                                "type" : "double",
                                "defaultValue" : 0.56078431372549,
                                "interp" : "linr"
                              },
                              "stroke-color-green" : {
                                "type" : "double",
                                "defaultValue" : 0.686274509803922,
                                "interp" : "linr"
                              },
                              "stroke-color-opacity" : {
                                "type" : "double",
                                "defaultValue" : 1.0,
                                "interp" : "linr"
                              },
                              "stroke-color-red" : {
                                "type" : "double",
                                "defaultValue" : 0.0196078431372549,
                                "interp" : "linr"
                              },
                              "stroke-width" : {
                                "type" : "double",
                                "defaultValue" : 2.0,
                                "interp" : "linr"
                              },
                              "tail-x" : {
                                "type" : "double",
                                "defaultValue" : -506.470588235553,
                                "interp" : "linr"
                              },
                              "tail-y" : {
                                "type" : "double",
                                "defaultValue" : -20.0,
                                "interp" : "linr"
                              },
                              "width" : {
                                "type" : "double",
                                "defaultValue" : 1565.29411764783,
                                "interp" : "linr"
                              },
                              "word-wrap" : {
                                "type" : "double",
                                "defaultValue" : 1.0,
                                "interp" : "linr"
                              },
                              "fill-style" : "solid",
                              "horizontal-alignment" : "center",
                              "resize-behavior" : "resizeText",
                              "stroke-style" : "solid",
                              "text" : "Tinkercad can't import images bigger than 1000px",
                              "vertical-alignment" : "center",
                              "font" : {
                                "color-blue" : {
                                  "type" : "double",
                                  "defaultValue" : 0.266666666666667,
                                  "interp" : "linr"
                                },
                                "color-green" : {
                                  "type" : "double",
                                  "defaultValue" : 0.231372549019608,
                                  "interp" : "linr"
                                },
                                "color-opacity" : {
                                  "type" : "double",
                                  "defaultValue" : 1.0,
                                  "interp" : "linr"
                                },
                                "color-red" : {
                                  "type" : "double",
                                  "defaultValue" : 0.184313725490196,
                                  "interp" : "linr"
                                },
                                "size" : {
                                  "type" : "double",
                                  "defaultValue" : 64.0,
                                  "interp" : "linr"
                                },
                                "tracking" : {
                                  "type" : "double",
                                  "defaultValue" : 0.0,
                                  "interp" : "linr"
                                },
                                "name" : "Montserrat",
                                "weight" : "Regular"
                              },
                              "textAttributes" : {
                                "type" : "textAttributeList",
                                "keyframes" : [
                                  {
                                    "endTime" : 0,
                                    "time" : 0,
                                    "value" : [{"name":"fontItalic","rangeEnd":48,"rangeStart":0,"value":0,"valueType":"int"},{"name":"strikethrough","rangeEnd":48,"rangeStart":0,"value":0,"valueType":"int"},{"name":"fontWeight","rangeEnd":48,"rangeStart":0,"value":400,"valueType":"int"},{"name":"fontSize","rangeEnd":48,"rangeStart":0,"value":64,"valueType":"double"},{"name":"underline","rangeEnd":48,"rangeStart":0,"value":0,"valueType":"int"},{"name":"fgColor","rangeEnd":48,"rangeStart":0,"value":"(47,59,68,255)","valueType":"color"},{"name":"kerning","rangeEnd":48,"rangeStart":0,"value":0,"valueType":"double"},{"name":"fontName","rangeEnd":48,"rangeStart":0,"value":"Montserrat","valueType":"string"}],
                                    "duration" : 0
                                  }
                                ]
                              }
                            },
                            "attributes" : {
                              "autoRotateText" : true
                            },
                            "parameters" : {
                              "translation0" : {
                                "type" : "double",
                                "defaultValue" : 1.38072664412903e-10,
                                "interp" : "eioe"
                              },
                              "translation1" : {
                                "type" : "double",
                                "defaultValue" : -430.000000000634,
                                "interp" : "eioe"
                              }
                            },
                            "effects" : [

                            ],
                            "start" : 1349,
                            "duration" : 51,
                            "mediaStart" : 100,
                            "mediaDuration" : 51,
                            "scalar" : 1,
                            "metadata" : {
                              "WinSubProjectDisplayName" : "",
                              "clipSpeedAttribute" : false,
                              "default-HAlign" : "center",
                              "default-LineSpace" : 0.0,
                              "default-VAlign" : "center",
                              "default-text-attributes" : null,
                              "default-translation0" : 0.0,
                              "default-translation1" : 0.0
                            },
                            "animationTracks" : {

                            }
                          },
                          {
                            "id" : 94,
                            "_type" : "Callout",
                            "def" : {
                              "kind" : "remix",
                              "shape" : "text-rectangle",
                              "style" : "basic",
                              "fill-color-blue" : {
                                "type" : "double",
                                "defaultValue" : 1.0,
                                "interp" : "linr"
                              },
                              "fill-color-green" : {
                                "type" : "double",
                                "defaultValue" : 1.0,
                                "interp" : "linr"
                              },
                              "fill-color-opacity" : {
                                "type" : "double",
                                "defaultValue" : 1.0,
                                "interp" : "linr"
                              },
                              "fill-color-red" : {
                                "type" : "double",
                                "defaultValue" : 1.0,
                                "interp" : "linr"
                              },
                              "height" : {
                                "type" : "double",
                                "defaultValue" : 150.0,
                                "interp" : "linr"
                              },
                              "line-spacing" : {
                                "type" : "double",
                                "defaultValue" : 0.0,
                                "interp" : "linr"
                              },
                              "stroke-color-blue" : {
                                "type" : "double",
                                "defaultValue" : 0.56078431372549,
                                "interp" : "linr"
                              },
                              "stroke-color-green" : {
                                "type" : "double",
                                "defaultValue" : 0.686274509803922,
                                "interp" : "linr"
                              },
                              "stroke-color-opacity" : {
                                "type" : "double",
                                "defaultValue" : 1.0,
                                "interp" : "linr"
                              },
                              "stroke-color-red" : {
                                "type" : "double",
                                "defaultValue" : 0.0196078431372549,
                                "interp" : "linr"
                              },
                              "stroke-width" : {
                                "type" : "double",
                                "defaultValue" : 2.0,
                                "interp" : "linr"
                              },
                              "tail-x" : {
                                "type" : "double",
                                "defaultValue" : -506.470588235553,
                                "interp" : "linr"
                              },
                              "tail-y" : {
                                "type" : "double",
                                "defaultValue" : -20.0,
                                "interp" : "linr"
                              },
                              "width" : {
                                "type" : "double",
                                "defaultValue" : 1565.29411764783,
                                "interp" : "linr"
                              },
                              "word-wrap" : {
                                "type" : "double",
                                "defaultValue" : 1.0,
                                "interp" : "linr"
                              },
                              "fill-style" : "solid",
                              "horizontal-alignment" : "center",
                              "resize-behavior" : "resizeText",
                              "stroke-style" : "solid",
                              "text" : "Use the \"Scale\" option to make it smaller",
                              "vertical-alignment" : "center",
                              "font" : {
                                "color-blue" : {
                                  "type" : "double",
                                  "defaultValue" : 0.266666666666667,
                                  "interp" : "linr"
                                },
                                "color-green" : {
                                  "type" : "double",
                                  "defaultValue" : 0.231372549019608,
                                  "interp" : "linr"
                                },
                                "color-opacity" : {
                                  "type" : "double",
                                  "defaultValue" : 1.0,
                                  "interp" : "linr"
                                },
                                "color-red" : {
                                  "type" : "double",
                                  "defaultValue" : 0.184313725490196,
                                  "interp" : "linr"
                                },
                                "size" : {
                                  "type" : "double",
                                  "defaultValue" : 64.0,
                                  "interp" : "linr"
                                },
                                "tracking" : {
                                  "type" : "double",
                                  "defaultValue" : 0.0,
                                  "interp" : "linr"
                                },
                                "name" : "Montserrat",
                                "weight" : "Regular"
                              },
                              "textAttributes" : {
                                "type" : "textAttributeList",
                                "keyframes" : [
                                  {
                                    "endTime" : 0,
                                    "time" : 0,
                                    "value" : [{"name":"underline","rangeEnd":41,"rangeStart":0,"value":0,"valueType":"int"},{"name":"fontSize","rangeEnd":41,"rangeStart":0,"value":64,"valueType":"double"},{"name":"fgColor","rangeEnd":41,"rangeStart":0,"value":"(47,59,68,255)","valueType":"color"},{"name":"fontWeight","rangeEnd":41,"rangeStart":0,"value":400,"valueType":"int"},{"name":"strikethrough","rangeEnd":41,"rangeStart":0,"value":0,"valueType":"int"},{"name":"kerning","rangeEnd":41,"rangeStart":0,"value":0,"valueType":"double"},{"name":"fontName","rangeEnd":41,"rangeStart":0,"value":"Montserrat","valueType":"string"},{"name":"fontItalic","rangeEnd":41,"rangeStart":0,"value":0,"valueType":"int"}],
                                    "duration" : 0
                                  }
                                ]
                              }
                            },
                            "attributes" : {
                              "autoRotateText" : true
                            },
                            "parameters" : {
                              "translation0" : {
                                "type" : "double",
                                "defaultValue" : 1.38072664412903e-10,
                                "interp" : "eioe"
                              },
                              "translation1" : {
                                "type" : "double",
                                "defaultValue" : -430.000000000634,
                                "interp" : "eioe"
                              }
                            },
                            "effects" : [

                            ],
                            "start" : 1400,
                            "duration" : 100,
                            "mediaStart" : 151,
                            "mediaDuration" : 100,
                            "scalar" : 1,
                            "metadata" : {
                              "WinSubProjectDisplayName" : "",
                              "clipSpeedAttribute" : false,
                              "default-HAlign" : "center",
                              "default-LineSpace" : 0.0,
                              "default-VAlign" : "center",
                              "default-text-attributes" : null,
                              "default-translation0" : 0.0,
                              "default-translation1" : 0.0
                            },
                            "animationTracks" : {

                            }
                          }
                        ],
                          "ident" : "",
                          "audioMuted" : false,
                          "videoHidden" : false,
                          "magnetic" : false,
                          "metadata" : {
                            "IsLocked" : "False",
                            "WinTrackHeight" : "5.85890400399593e-313"
                          }
                      }
                    ],
                    "attributes" : {
                      "ident" : "Group 3",
                      "gain" : 1.0,
                      "mixToMono" : false
                    },
                    "effects" : [

                    ],
                    "start" : 0,
                    "duration" : 3407,
                    "mediaStart" : 0.0,
                    "mediaDuration" : 3407.0,
                    "scalar" : 1,
                    "metadata" : {
                      "IsGroupExpanded" : "False",
                      "WinSubProjectDisplayName" : ""
                    },
                    "animationTracks" : {

                    }
                  }
                ]
              },
              {
                "trackIndex" : 2,
                "medias" : [
                ]
              },
              {
                "trackIndex" : 3,
                "medias" : [
                ]
              },
              {
                "trackIndex" : 4,
                "medias" : [
                ]
              },
              {
                "trackIndex" : 5,
                "medias" : [
                ]
              },
              {
                "trackIndex" : 6,
                "medias" : [
                ]
              }
            ]
          }
        }
      ]
    },
    "trackAttributes" : [
      {
        "ident" : "",
        "audioMuted" : true,
        "videoHidden" : true,
        "magnetic" : false,
        "metadata" : {
          "IsLocked" : "False",
          "WinTrackHeight" : "56"
        }
      },
      {
        "ident" : "",
        "audioMuted" : false,
        "videoHidden" : false,
        "magnetic" : false,
        "metadata" : {
          "IsLocked" : "False",
          "WinTrackHeight" : "56"
        }
      },
      {
        "ident" : "",
        "audioMuted" : false,
        "videoHidden" : false,
        "magnetic" : false,
        "metadata" : {
          "IsLocked" : "False",
          "WinTrackHeight" : "56"
        }
      },
      {
        "ident" : "",
        "audioMuted" : false,
        "videoHidden" : false,
        "magnetic" : false,
        "metadata" : {
          "IsLocked" : "False",
          "WinTrackHeight" : "56"
        }
      },
      {
        "ident" : "",
        "audioMuted" : false,
        "videoHidden" : false,
        "magnetic" : false,
        "metadata" : {
          "IsLocked" : "False",
          "WinTrackHeight" : "56"
        }
      },
      {
        "ident" : "",
        "audioMuted" : false,
        "videoHidden" : false,
        "magnetic" : false,
        "metadata" : {
          "IsLocked" : "False",
          "WinTrackHeight" : "56"
        }
      },
      {
        "ident" : "",
        "audioMuted" : false,
        "videoHidden" : false,
        "magnetic" : false,
        "metadata" : {
          "IsLocked" : "False",
          "WinTrackHeight" : "56"
        }
      }
    ],
    "captionAttributes" : {
      "enabled" : true,
      "fontName" : "Arial",
      "fontSize" : 64,
      "backgroundColor" : [ 0, 0, 0, 191],
      "foregroundColor" : [ 255, 255, 255, 255],
      "lang" : "en",
      "alignment" : 0,
      "defaultFontSize" : true,
      "opacity" : 0.5,
      "backgroundEnabled" : true,
      "backgroundOnlyAroundText" : true
    },
    "backgroundColor" : [ 0, 0, 0, 255]
  },
  "metadata" : {
    "AutoSaveFile" : "C:\\Users\\Ding\\AppData\\Local\\TechSmith\\Camtasia Studio\\19.0\\Auto-Saves\\Untitled Project1648127e.autosave.tscproj",
    "CanvasZoom" : 85,
    "Date" : "2020-02-10 06:06:27 AM",
    "Fit" : 0,
    "IsAutoSave" : "0",
    "Language" : "ENU",
    "ProfileName" : "MP4 only (up to 1080p)",
    "ProjectDimensionsChanged" : "1",
    "Title" : "stamps",
    "audioNarrationNotes" : "",
    "calloutStyle" : "Basic",
    "canvasDetached" : "False",
    "canvasPositionHeight" : "0",
    "canvasPositionLeft" : "0",
    "canvasPositionTop" : "0",
    "canvasPositionWidth" : "0"
  }
}
