{
  "title" : "",
  "description" : "",
  "author" : "",
  "targetLoudness" : -18.0,
  "shouldApplyLoudnessNormalization" : true,
  "videoFormatFrameRate" : 30,
  "audioFormatSampleRate" : 44100,
  "width" : 1920.0,
  "height" : 1080.0,
  "version" : "3.0",
  "editRate" : 30,
  "authoringClientName" :  {
    "name" : "Camtasia",
    "platform" : "Windows",
    "version" : "19.0"
  },
  "sourceBin" : [
    {
      "id" : 1,
      "src" : "E:\\Document\\Camtasia\\tower-columns-01.trec",
      "rect" : [0, 0, 1920, 1080],
      "lastMod" : "20200203T123902",
      "sourceTracks" : [
        {
          "range" : [0, 11424],
          "type" : 0,
          "editRate" : 30,
          "trackRect" : [0, 0, 1920, 1080],
          "sampleRate" : 0,
          "bitDepth" : 0,
          "numChannels" : 0,
          "integratedLUFS" : 100.0,
          "peakLevel" : -1.0,
          "metaData" : "2b7b6a00-7a1f-11e2-83d0-0017f200be7f;2b7b6aef-7a1f-11e2-83d0-0017f200be7f;2b7b6af0-7a1f-11e2-83d0-0017f200be7f;2b7b6af1-7a1f-11e2-83d0-0017f200be7f;2b7b6af2-7a1f-11e2-83d0-0017f200be7f;2b7b6af3-7a1f-11e2-83d0-0017f200be7f;2b7b6af5-7a1f-11e2-83d0-0017f200be7f;2b7b6af6-7a1f-11e2-83d0-0017f200be7f;2b7b6af7-7a1f-11e2-83d0-0017f200be7f;2b7b6af8-7a1f-11e2-83d0-0017f200be7f;2b7b6af9-7a1f-11e2-83d0-0017f200be7f;2b7b6afa-7a1f-11e2-83d0-0017f200be7f;"
        },
        {
          "range" : [0, 16781312],
          "type" : 2,
          "editRate" : 44100,
          "trackRect" : [0, 0, 0, 0],
          "sampleRate" : 44100,
          "bitDepth" : 16,
          "numChannels" : 2,
          "integratedLUFS" : -10.2414272704466,
          "peakLevel" : 1.0,
          "metaData" : ""
        }
      ]
    },
    {
      "id" : 2,
      "src" : "E:\\Document\\Camtasia\\tower-columns-02.trec",
      "rect" : [0, 0, 1920, 1080],
      "lastMod" : "20200203T131450",
      "sourceTracks" : [
        {
          "range" : [0, 17303],
          "type" : 0,
          "editRate" : 30,
          "trackRect" : [0, 0, 1920, 1080],
          "sampleRate" : 0,
          "bitDepth" : 0,
          "numChannels" : 0,
          "integratedLUFS" : 100.0,
          "peakLevel" : -1.0,
          "metaData" : "2b7b6a00-7a1f-11e2-83d0-0017f200be7f;2b7b6aef-7a1f-11e2-83d0-0017f200be7f;2b7b6af0-7a1f-11e2-83d0-0017f200be7f;2b7b6af1-7a1f-11e2-83d0-0017f200be7f;2b7b6af2-7a1f-11e2-83d0-0017f200be7f;2b7b6af3-7a1f-11e2-83d0-0017f200be7f;2b7b6af5-7a1f-11e2-83d0-0017f200be7f;2b7b6af6-7a1f-11e2-83d0-0017f200be7f;2b7b6af7-7a1f-11e2-83d0-0017f200be7f;2b7b6af8-7a1f-11e2-83d0-0017f200be7f;2b7b6af9-7a1f-11e2-83d0-0017f200be7f;2b7b6afa-7a1f-11e2-83d0-0017f200be7f;"
        },
        {
          "range" : [0, 25424896],
          "type" : 2,
          "editRate" : 44100,
          "trackRect" : [0, 0, 0, 0],
          "sampleRate" : 44100,
          "bitDepth" : 16,
          "numChannels" : 2,
          "integratedLUFS" : -10.6855523329492,
          "peakLevel" : 1.0,
          "metaData" : ""
        }
      ]
    },
    {
      "id" : 3,
      "src" : "E:\\Document\\Camtasia\\tower-columns-03.trec",
      "rect" : [0, 0, 1920, 1080],
      "lastMod" : "20200203T140910",
      "sourceTracks" : [
        {
          "range" : [0, 8863],
          "type" : 0,
          "editRate" : 30,
          "trackRect" : [0, 0, 1920, 1080],
          "sampleRate" : 0,
          "bitDepth" : 0,
          "numChannels" : 0,
          "integratedLUFS" : 100.0,
          "peakLevel" : -1.0,
          "metaData" : "2b7b6a00-7a1f-11e2-83d0-0017f200be7f;2b7b6aef-7a1f-11e2-83d0-0017f200be7f;2b7b6af0-7a1f-11e2-83d0-0017f200be7f;2b7b6af1-7a1f-11e2-83d0-0017f200be7f;2b7b6af2-7a1f-11e2-83d0-0017f200be7f;2b7b6af3-7a1f-11e2-83d0-0017f200be7f;2b7b6af5-7a1f-11e2-83d0-0017f200be7f;2b7b6af6-7a1f-11e2-83d0-0017f200be7f;2b7b6af7-7a1f-11e2-83d0-0017f200be7f;2b7b6af8-7a1f-11e2-83d0-0017f200be7f;2b7b6af9-7a1f-11e2-83d0-0017f200be7f;2b7b6afa-7a1f-11e2-83d0-0017f200be7f;"
        },
        {
          "range" : [0, 13033472],
          "type" : 2,
          "editRate" : 44100,
          "trackRect" : [0, 0, 0, 0],
          "sampleRate" : 44100,
          "bitDepth" : 16,
          "numChannels" : 2,
          "integratedLUFS" : -11.9582673822977,
          "peakLevel" : 1.0,
          "metaData" : ""
        }
      ]
    }
  ],
  "timeline" : {
    "id" : 4,
    "sceneTrack" : {
      "scenes" : [
        {
          "duration" : 321.5,
          "title" : "",
          "type" : "",
          "csml" : {
            "tracks" : [
              {
                "trackIndex" : 0,
                "medias" : [
                ]
              },
              {
                "trackIndex" : 1,
                "medias" : [
                  {
                    "id" : 5,
                    "_type" : "StitchedMedia",
                    "minMediaStart" : 0,
                    "attributes" : {
                      "ident" : "tower-columns-01",
                      "gain" : 1.0,
                      "mixToMono" : false
                    },
                    "parameters" : {
                      "cursorOpacity" : 1.0,
                      "cursorScale" : 1.0
                    },
                    "medias" : [
                        {
                          "id" : 6,
                          "_type" : "ScreenVMFile",
                          "src" : 1,
                          "trackNumber" : 0,
                          "attributes" : {
                            "ident" : "Rec 02-03-20_007"
                          },
                          "parameters" : {
                            "cursorScale" : {
                              "type" : "double",
                              "defaultValue" : 0.0,
                              "interp" : "linr"
                            },
                            "cursorOpacity" : {
                              "type" : "double",
                              "defaultValue" : 0.0,
                              "interp" : "linr"
                            }
                          },
                          "effects" : [

                          ],
                          "start" : 0,
                          "duration" : 1232,
                          "mediaStart" : 0,
                          "mediaDuration" : 1232,
                          "scalar" : 1,
                          "metadata" : {
                            "AutoAppliedSmartFocus" : "False",
                            "WinSubProjectDisplayName" : "",
                            "clipSpeedAttribute" : false
                          },
                          "animationTracks" : {

                          }
                        },
                        {
                          "id" : 7,
                          "_type" : "ScreenIMFile",
                          "src" : 1,
                          "trackNumber" : 0,
                          "trimStartSum" : 0,
                          "attributes" : {
                            "ident" : "Rec 02-03-20_007"
                          },
                          "parameters" : {
                            "cursorOpacity" : 0.0,
                            "cursorScale" : 0.0
                          },
                          "effects" : [

                          ],
                          "start" : 1232,
                          "duration" : 30,
                          "mediaStart" : 1231,
                          "mediaDuration" : 1,
                          "scalar" : 1,
                          "metadata" : {
                            "AutoAppliedSmartFocus" : "False",
                            "WinSubProjectDisplayName" : ""
                          },
                          "animationTracks" : {

                          }
                        },
                        {
                          "id" : 8,
                          "_type" : "ScreenVMFile",
                          "src" : 1,
                          "trackNumber" : 0,
                          "attributes" : {
                            "ident" : "Rec 02-03-20_007"
                          },
                          "parameters" : {
                            "cursorScale" : {
                              "type" : "double",
                              "defaultValue" : 0.0,
                              "interp" : "linr"
                            },
                            "cursorOpacity" : {
                              "type" : "double",
                              "defaultValue" : 0.0,
                              "interp" : "linr"
                            }
                          },
                          "effects" : [

                          ],
                          "start" : 1262,
                          "duration" : 10,
                          "mediaStart" : 1232,
                          "mediaDuration" : 10,
                          "scalar" : 1,
                          "metadata" : {
                            "AutoAppliedSmartFocus" : "False",
                            "WinSubProjectDisplayName" : "",
                            "clipSpeedAttribute" : false
                          },
                          "animationTracks" : {

                          }
                        },
                        {
                          "id" : 9,
                          "_type" : "ScreenIMFile",
                          "src" : 1,
                          "trackNumber" : 0,
                          "trimStartSum" : 0,
                          "attributes" : {
                            "ident" : "Rec 02-03-20_007"
                          },
                          "parameters" : {
                            "cursorOpacity" : 0.0,
                            "cursorScale" : 0.0
                          },
                          "effects" : [

                          ],
                          "start" : 1272,
                          "duration" : 270,
                          "mediaStart" : 1242,
                          "mediaDuration" : 1,
                          "scalar" : 1,
                          "metadata" : {
                            "AutoAppliedSmartFocus" : "False",
                            "WinSubProjectDisplayName" : ""
                          },
                          "animationTracks" : {

                          }
                        },
                        {
                          "id" : 10,
                          "_type" : "ScreenVMFile",
                          "src" : 1,
                          "trackNumber" : 0,
                          "attributes" : {
                            "ident" : "Rec 02-03-20_007"
                          },
                          "parameters" : {
                            "cursorScale" : {
                              "type" : "double",
                              "defaultValue" : 0.0,
                              "interp" : "linr"
                            },
                            "cursorOpacity" : {
                              "type" : "double",
                              "defaultValue" : 0.0,
                              "interp" : "linr"
                            }
                          },
                          "effects" : [

                          ],
                          "start" : 1542,
                          "duration" : 10182,
                          "mediaStart" : 1242,
                          "mediaDuration" : 10182,
                          "scalar" : 1,
                          "metadata" : {
                            "AutoAppliedSmartFocus" : "False",
                            "WinSubProjectDisplayName" : "",
                            "clipSpeedAttribute" : false
                          },
                          "animationTracks" : {

                          }
                        }
                    ],
                    "effects" : [

                    ],
                    "start" : 0,
                    "duration" : 327,
                    "mediaStart" : 1217,
                    "mediaDuration" : 327,
                    "scalar" : 1,
                    "metadata" : {
                      "AutoAppliedSmartFocus" : "False",
                      "WinSubProjectDisplayName" : "",
                      "clipSpeedAttribute" : false
                    },
                    "animationTracks" : {

                    }
                  },
                  {
                    "id" : 11,
                    "_type" : "ScreenVMFile",
                    "src" : 1,
                    "trackNumber" : 0,
                    "attributes" : {
                      "ident" : "tower-columns-01"
                    },
                    "parameters" : {
                      "cursorScale" : {
                        "type" : "double",
                        "defaultValue" : 1.0,
                        "interp" : "linr"
                      },
                      "cursorOpacity" : {
                        "type" : "double",
                        "defaultValue" : 1.0,
                        "interp" : "linr"
                      }
                    },
                    "effects" : [

                    ],
                    "start" : 327,
                    "duration" : 246,
                    "mediaStart" : 1244,
                    "mediaDuration" : 369,
                    "scalar" : "2/3",
                    "metadata" : {
                      "AutoAppliedSmartFocus" : "False",
                      "WinSubProjectDisplayName" : "",
                      "clipSpeedAttribute" : true
                    },
                    "animationTracks" : {

                    }
                  },
                  {
                    "id" : 12,
                    "_type" : "ScreenVMFile",
                    "src" : 1,
                    "trackNumber" : 0,
                    "attributes" : {
                      "ident" : "tower-columns-01"
                    },
                    "parameters" : {
                      "cursorScale" : {
                        "type" : "double",
                        "defaultValue" : 1.0,
                        "interp" : "linr"
                      },
                      "cursorOpacity" : {
                        "type" : "double",
                        "defaultValue" : 1.0,
                        "interp" : "linr"
                      }
                    },
                    "effects" : [

                    ],
                    "start" : 573,
                    "duration" : 362,
                    "mediaStart" : 2727,
                    "mediaDuration" : 362,
                    "scalar" : 1,
                    "metadata" : {
                      "AutoAppliedSmartFocus" : "False",
                      "WinSubProjectDisplayName" : "",
                      "clipSpeedAttribute" : false
                    },
                    "animationTracks" : {

                    }
                  },
                  {
                    "id" : 13,
                    "_type" : "ScreenVMFile",
                    "src" : 1,
                    "trackNumber" : 0,
                    "attributes" : {
                      "ident" : "tower-columns-01"
                    },
                    "parameters" : {
                      "cursorScale" : {
                        "type" : "double",
                        "defaultValue" : 1.0,
                        "interp" : "linr"
                      },
                      "cursorOpacity" : {
                        "type" : "double",
                        "defaultValue" : 1.0,
                        "interp" : "linr"
                      }
                    },
                    "effects" : [

                    ],
                    "start" : 935,
                    "duration" : 215,
                    "mediaStart" : 3521,
                    "mediaDuration" : 323,
                    "scalar" : "215/323",
                    "metadata" : {
                      "AutoAppliedSmartFocus" : "False",
                      "WinSubProjectDisplayName" : "",
                      "clipSpeedAttribute" : true
                    },
                    "animationTracks" : {

                    }
                  },
                  {
                    "id" : 14,
                    "_type" : "ScreenVMFile",
                    "src" : 1,
                    "trackNumber" : 0,
                    "attributes" : {
                      "ident" : "tower-columns-01"
                    },
                    "parameters" : {
                      "cursorScale" : {
                        "type" : "double",
                        "defaultValue" : 1.0,
                        "interp" : "linr"
                      },
                      "cursorOpacity" : {
                        "type" : "double",
                        "defaultValue" : 1.0,
                        "interp" : "linr"
                      }
                    },
                    "effects" : [

                    ],
                    "start" : 1150,
                    "duration" : 479,
                    "mediaStart" : 4431,
                    "mediaDuration" : "251954/351",
                    "scalar" : "351/526",
                    "metadata" : {
                      "AutoAppliedSmartFocus" : "False",
                      "WinSubProjectDisplayName" : "",
                      "clipSpeedAttribute" : true
                    },
                    "animationTracks" : {

                    }
                  },
                  {
                    "id" : 15,
                    "_type" : "ScreenVMFile",
                    "src" : 1,
                    "trackNumber" : 0,
                    "attributes" : {
                      "ident" : "tower-columns-01"
                    },
                    "parameters" : {
                      "cursorScale" : {
                        "type" : "double",
                        "defaultValue" : 1.0,
                        "interp" : "linr"
                      },
                      "cursorOpacity" : {
                        "type" : "double",
                        "defaultValue" : 1.0,
                        "interp" : "linr"
                      }
                    },
                    "effects" : [

                    ],
                    "start" : 1629,
                    "duration" : 150,
                    "mediaStart" : 5559,
                    "mediaDuration" : 225,
                    "scalar" : "2/3",
                    "metadata" : {
                      "AutoAppliedSmartFocus" : "False",
                      "WinSubProjectDisplayName" : "",
                      "clipSpeedAttribute" : true
                    },
                    "animationTracks" : {

                    }
                  },
                  {
                    "id" : 16,
                    "_type" : "ScreenVMFile",
                    "src" : 1,
                    "trackNumber" : 0,
                    "attributes" : {
                      "ident" : "tower-columns-01"
                    },
                    "parameters" : {
                      "cursorScale" : {
                        "type" : "double",
                        "defaultValue" : 1.0,
                        "interp" : "linr"
                      },
                      "cursorOpacity" : {
                        "type" : "double",
                        "defaultValue" : 1.0,
                        "interp" : "linr"
                      }
                    },
                    "effects" : [

                    ],
                    "start" : 1779,
                    "duration" : 357,
                    "mediaStart" : 6459,
                    "mediaDuration" : 357,
                    "scalar" : 1,
                    "metadata" : {
                      "AutoAppliedSmartFocus" : "False",
                      "WinSubProjectDisplayName" : "",
                      "clipSpeedAttribute" : false
                    },
                    "animationTracks" : {

                    }
                  },
                  {
                    "id" : 17,
                    "_type" : "ScreenVMFile",
                    "src" : 1,
                    "trackNumber" : 0,
                    "attributes" : {
                      "ident" : "tower-columns-01"
                    },
                    "parameters" : {
                      "cursorScale" : {
                        "type" : "double",
                        "defaultValue" : 1.0,
                        "interp" : "linr"
                      },
                      "cursorOpacity" : {
                        "type" : "double",
                        "defaultValue" : 1.0,
                        "interp" : "linr"
                      }
                    },
                    "effects" : [

                    ],
                    "start" : 2136,
                    "duration" : 128,
                    "mediaStart" : 7116,
                    "mediaDuration" : 128,
                    "scalar" : 1,
                    "metadata" : {
                      "AutoAppliedSmartFocus" : "False",
                      "WinSubProjectDisplayName" : "",
                      "clipSpeedAttribute" : false
                    },
                    "animationTracks" : {

                    }
                  },
                  {
                    "id" : 18,
                    "_type" : "ScreenVMFile",
                    "src" : 1,
                    "trackNumber" : 0,
                    "attributes" : {
                      "ident" : "tower-columns-01"
                    },
                    "parameters" : {
                      "cursorScale" : {
                        "type" : "double",
                        "defaultValue" : 1.0,
                        "interp" : "linr"
                      },
                      "cursorOpacity" : {
                        "type" : "double",
                        "defaultValue" : 1.0,
                        "interp" : "linr"
                      }
                    },
                    "effects" : [

                    ],
                    "start" : 2264,
                    "duration" : 268,
                    "mediaStart" : 7370,
                    "mediaDuration" : 268,
                    "scalar" : 1,
                    "metadata" : {
                      "AutoAppliedSmartFocus" : "False",
                      "WinSubProjectDisplayName" : "",
                      "clipSpeedAttribute" : false
                    },
                    "animationTracks" : {

                    }
                  },
                  {
                    "id" : 19,
                    "_type" : "ScreenVMFile",
                    "src" : 1,
                    "trackNumber" : 0,
                    "attributes" : {
                      "ident" : "tower-columns-01"
                    },
                    "parameters" : {
                      "cursorScale" : {
                        "type" : "double",
                        "defaultValue" : 1.0,
                        "interp" : "linr"
                      },
                      "cursorOpacity" : {
                        "type" : "double",
                        "defaultValue" : 1.0,
                        "interp" : "linr"
                      }
                    },
                    "effects" : [

                    ],
                    "start" : 2532,
                    "duration" : 246,
                    "mediaStart" : 8999,
                    "mediaDuration" : 246,
                    "scalar" : 1,
                    "metadata" : {
                      "AutoAppliedSmartFocus" : "False",
                      "WinSubProjectDisplayName" : "",
                      "clipSpeedAttribute" : false
                    },
                    "animationTracks" : {

                    }
                  },
                  {
                    "id" : 20,
                    "_type" : "ScreenVMFile",
                    "src" : 1,
                    "trackNumber" : 0,
                    "attributes" : {
                      "ident" : "tower-columns-01"
                    },
                    "parameters" : {
                      "cursorScale" : {
                        "type" : "double",
                        "defaultValue" : 1.0,
                        "interp" : "linr"
                      },
                      "cursorOpacity" : {
                        "type" : "double",
                        "defaultValue" : 1.0,
                        "interp" : "linr"
                      }
                    },
                    "effects" : [

                    ],
                    "start" : 2778,
                    "duration" : 274,
                    "mediaStart" : 9536,
                    "mediaDuration" : 419,
                    "scalar" : "274/419",
                    "metadata" : {
                      "AutoAppliedSmartFocus" : "False",
                      "WinSubProjectDisplayName" : "",
                      "clipSpeedAttribute" : true
                    },
                    "animationTracks" : {

                    }
                  },
                  {
                    "id" : 21,
                    "_type" : "ScreenVMFile",
                    "src" : 1,
                    "trackNumber" : 0,
                    "attributes" : {
                      "ident" : "tower-columns-01"
                    },
                    "parameters" : {
                      "cursorScale" : {
                        "type" : "double",
                        "defaultValue" : 1.0,
                        "interp" : "linr"
                      },
                      "cursorOpacity" : {
                        "type" : "double",
                        "defaultValue" : 1.0,
                        "interp" : "linr"
                      }
                    },
                    "effects" : [

                    ],
                    "start" : 3052,
                    "duration" : 15,
                    "mediaStart" : 10524,
                    "mediaDuration" : 23,
                    "scalar" : "15/23",
                    "metadata" : {
                      "AutoAppliedSmartFocus" : "False",
                      "WinSubProjectDisplayName" : "",
                      "clipSpeedAttribute" : true
                    },
                    "animationTracks" : {

                    }
                  },
                  {
                    "id" : 22,
                    "_type" : "ScreenVMFile",
                    "src" : 1,
                    "trackNumber" : 0,
                    "attributes" : {
                      "ident" : "tower-columns-01"
                    },
                    "parameters" : {
                      "cursorScale" : {
                        "type" : "double",
                        "defaultValue" : 1.0,
                        "interp" : "linr"
                      },
                      "cursorOpacity" : {
                        "type" : "double",
                        "defaultValue" : 1.0,
                        "interp" : "linr"
                      }
                    },
                    "effects" : [

                    ],
                    "start" : 3067,
                    "duration" : 120,
                    "mediaStart" : 10547,
                    "mediaDuration" : 120,
                    "scalar" : 1,
                    "metadata" : {
                      "AutoAppliedSmartFocus" : "False",
                      "WinSubProjectDisplayName" : "",
                      "clipSpeedAttribute" : false
                    },
                    "animationTracks" : {

                    }
                  },
                  {
                    "id" : 23,
                    "_type" : "ScreenVMFile",
                    "src" : 2,
                    "trackNumber" : 0,
                    "attributes" : {
                      "ident" : "tower-columns-02"
                    },
                    "parameters" : {
                      "cursorScale" : {
                        "type" : "double",
                        "defaultValue" : 1.0,
                        "interp" : "linr"
                      },
                      "cursorOpacity" : {
                        "type" : "double",
                        "defaultValue" : 1.0,
                        "interp" : "linr"
                      }
                    },
                    "effects" : [

                    ],
                    "start" : 3187,
                    "duration" : 271,
                    "mediaStart" : 9595,
                    "mediaDuration" : 271,
                    "scalar" : 1,
                    "metadata" : {
                      "AutoAppliedSmartFocus" : "False",
                      "WinSubProjectDisplayName" : "",
                      "clipSpeedAttribute" : false
                    },
                    "animationTracks" : {

                    }
                  },
                  {
                    "id" : 24,
                    "_type" : "StitchedMedia",
                    "minMediaStart" : 0,
                    "attributes" : {
                      "ident" : "tower-columns-02",
                      "gain" : 1.0,
                      "mixToMono" : false
                    },
                    "parameters" : {
                      "cursorOpacity" : 1.0,
                      "cursorScale" : 1.0
                    },
                    "medias" : [
                        {
                          "id" : 25,
                          "_type" : "ScreenVMFile",
                          "src" : 2,
                          "trackNumber" : 0,
                          "attributes" : {
                            "ident" : "Rec 02-03-20_008"
                          },
                          "parameters" : {
                            "cursorScale" : {
                              "type" : "double",
                              "defaultValue" : 0.0,
                              "interp" : "linr"
                            },
                            "cursorOpacity" : {
                              "type" : "double",
                              "defaultValue" : 0.0,
                              "interp" : "linr"
                            }
                          },
                          "effects" : [

                          ],
                          "start" : 0,
                          "duration" : 10292,
                          "mediaStart" : 0,
                          "mediaDuration" : 10292,
                          "scalar" : 1,
                          "metadata" : {
                            "AutoAppliedSmartFocus" : "False",
                            "WinSubProjectDisplayName" : "",
                            "clipSpeedAttribute" : false
                          },
                          "animationTracks" : {

                          }
                        },
                        {
                          "id" : 26,
                          "_type" : "ScreenVMFile",
                          "src" : 2,
                          "trackNumber" : 0,
                          "attributes" : {
                            "ident" : "Rec 02-03-20_008"
                          },
                          "parameters" : {
                            "cursorScale" : {
                              "type" : "double",
                              "defaultValue" : 0.0,
                              "interp" : "linr"
                            },
                            "cursorOpacity" : {
                              "type" : "double",
                              "defaultValue" : 0.0,
                              "interp" : "linr"
                            }
                          },
                          "effects" : [

                          ],
                          "start" : 10292,
                          "duration" : 36,
                          "mediaStart" : 10326,
                          "mediaDuration" : 36,
                          "scalar" : 1,
                          "metadata" : {
                            "AutoAppliedSmartFocus" : "False",
                            "WinSubProjectDisplayName" : "",
                            "clipSpeedAttribute" : false
                          },
                          "animationTracks" : {

                          }
                        },
                        {
                          "id" : 27,
                          "_type" : "ScreenVMFile",
                          "src" : 2,
                          "trackNumber" : 0,
                          "attributes" : {
                            "ident" : "Rec 02-03-20_008"
                          },
                          "parameters" : {
                            "cursorScale" : {
                              "type" : "double",
                              "defaultValue" : 0.0,
                              "interp" : "linr"
                            },
                            "cursorOpacity" : {
                              "type" : "double",
                              "defaultValue" : 0.0,
                              "interp" : "linr"
                            }
                          },
                          "effects" : [

                          ],
                          "start" : 10328,
                          "duration" : 6874,
                          "mediaStart" : 10429,
                          "mediaDuration" : 6874,
                          "scalar" : 1,
                          "metadata" : {
                            "AutoAppliedSmartFocus" : "False",
                            "WinSubProjectDisplayName" : "",
                            "clipSpeedAttribute" : false
                          },
                          "animationTracks" : {

                          }
                        }
                    ],
                    "effects" : [

                    ],
                    "start" : 3458,
                    "duration" : 287,
                    "mediaStart" : 10052,
                    "mediaDuration" : 287,
                    "scalar" : 1,
                    "metadata" : {
                      "AutoAppliedSmartFocus" : "False",
                      "WinSubProjectDisplayName" : "",
                      "clipSpeedAttribute" : false
                    },
                    "animationTracks" : {

                    }
                  },
                  {
                    "id" : 28,
                    "_type" : "StitchedMedia",
                    "minMediaStart" : 0,
                    "attributes" : {
                      "ident" : "tower-columns-02",
                      "gain" : 1.0,
                      "mixToMono" : false
                    },
                    "parameters" : {
                      "cursorOpacity" : 1.0,
                      "cursorScale" : 1.0
                    },
                    "medias" : [
                        {
                          "id" : 29,
                          "_type" : "ScreenVMFile",
                          "src" : 2,
                          "trackNumber" : 0,
                          "attributes" : {
                            "ident" : "Rec 02-03-20_008"
                          },
                          "parameters" : {
                            "cursorScale" : {
                              "type" : "double",
                              "defaultValue" : 0.0,
                              "interp" : "linr"
                            },
                            "cursorOpacity" : {
                              "type" : "double",
                              "defaultValue" : 0.0,
                              "interp" : "linr"
                            }
                          },
                          "effects" : [

                          ],
                          "start" : 0,
                          "duration" : 10292,
                          "mediaStart" : 0,
                          "mediaDuration" : 10292,
                          "scalar" : 1,
                          "metadata" : {
                            "AutoAppliedSmartFocus" : "False",
                            "WinSubProjectDisplayName" : "",
                            "clipSpeedAttribute" : false
                          },
                          "animationTracks" : {

                          }
                        },
                        {
                          "id" : 30,
                          "_type" : "ScreenVMFile",
                          "src" : 2,
                          "trackNumber" : 0,
                          "attributes" : {
                            "ident" : "Rec 02-03-20_008"
                          },
                          "parameters" : {
                            "cursorScale" : {
                              "type" : "double",
                              "defaultValue" : 0.0,
                              "interp" : "linr"
                            },
                            "cursorOpacity" : {
                              "type" : "double",
                              "defaultValue" : 0.0,
                              "interp" : "linr"
                            }
                          },
                          "effects" : [

                          ],
                          "start" : 10292,
                          "duration" : 36,
                          "mediaStart" : 10326,
                          "mediaDuration" : 36,
                          "scalar" : 1,
                          "metadata" : {
                            "AutoAppliedSmartFocus" : "False",
                            "WinSubProjectDisplayName" : "",
                            "clipSpeedAttribute" : false
                          },
                          "animationTracks" : {

                          }
                        },
                        {
                          "id" : 31,
                          "_type" : "ScreenVMFile",
                          "src" : 2,
                          "trackNumber" : 0,
                          "attributes" : {
                            "ident" : "Rec 02-03-20_008"
                          },
                          "parameters" : {
                            "cursorScale" : {
                              "type" : "double",
                              "defaultValue" : 0.0,
                              "interp" : "linr"
                            },
                            "cursorOpacity" : {
                              "type" : "double",
                              "defaultValue" : 0.0,
                              "interp" : "linr"
                            }
                          },
                          "effects" : [

                          ],
                          "start" : 10328,
                          "duration" : 6874,
                          "mediaStart" : 10429,
                          "mediaDuration" : 6874,
                          "scalar" : 1,
                          "metadata" : {
                            "AutoAppliedSmartFocus" : "False",
                            "WinSubProjectDisplayName" : "",
                            "clipSpeedAttribute" : false
                          },
                          "animationTracks" : {

                          }
                        }
                    ],
                    "effects" : [

                    ],
                    "start" : 3745,
                    "duration" : 165,
                    "mediaStart" : 10339,
                    "mediaDuration" : 329,
                    "scalar" : "165/329",
                    "metadata" : {
                      "AutoAppliedSmartFocus" : "False",
                      "WinSubProjectDisplayName" : "",
                      "clipSpeedAttribute" : true
                    },
                    "animationTracks" : {

                    }
                  },
                  {
                    "id" : 32,
                    "_type" : "StitchedMedia",
                    "minMediaStart" : 0,
                    "attributes" : {
                      "ident" : "tower-columns-02",
                      "gain" : 1.0,
                      "mixToMono" : false
                    },
                    "parameters" : {
                      "cursorOpacity" : 1.0,
                      "cursorScale" : 1.0
                    },
                    "medias" : [
                        {
                          "id" : 33,
                          "_type" : "ScreenVMFile",
                          "src" : 2,
                          "trackNumber" : 0,
                          "attributes" : {
                            "ident" : "Rec 02-03-20_008"
                          },
                          "parameters" : {
                            "cursorScale" : {
                              "type" : "double",
                              "defaultValue" : 0.0,
                              "interp" : "linr"
                            },
                            "cursorOpacity" : {
                              "type" : "double",
                              "defaultValue" : 0.0,
                              "interp" : "linr"
                            }
                          },
                          "effects" : [

                          ],
                          "start" : 0,
                          "duration" : 10292,
                          "mediaStart" : 0,
                          "mediaDuration" : 10292,
                          "scalar" : 1,
                          "metadata" : {
                            "AutoAppliedSmartFocus" : "False",
                            "WinSubProjectDisplayName" : "",
                            "clipSpeedAttribute" : false
                          },
                          "animationTracks" : {

                          }
                        },
                        {
                          "id" : 34,
                          "_type" : "ScreenVMFile",
                          "src" : 2,
                          "trackNumber" : 0,
                          "attributes" : {
                            "ident" : "Rec 02-03-20_008"
                          },
                          "parameters" : {
                            "cursorScale" : {
                              "type" : "double",
                              "defaultValue" : 0.0,
                              "interp" : "linr"
                            },
                            "cursorOpacity" : {
                              "type" : "double",
                              "defaultValue" : 0.0,
                              "interp" : "linr"
                            }
                          },
                          "effects" : [

                          ],
                          "start" : 10292,
                          "duration" : 36,
                          "mediaStart" : 10326,
                          "mediaDuration" : 36,
                          "scalar" : 1,
                          "metadata" : {
                            "AutoAppliedSmartFocus" : "False",
                            "WinSubProjectDisplayName" : "",
                            "clipSpeedAttribute" : false
                          },
                          "animationTracks" : {

                          }
                        },
                        {
                          "id" : 35,
                          "_type" : "ScreenVMFile",
                          "src" : 2,
                          "trackNumber" : 0,
                          "attributes" : {
                            "ident" : "Rec 02-03-20_008"
                          },
                          "parameters" : {
                            "cursorScale" : {
                              "type" : "double",
                              "defaultValue" : 0.0,
                              "interp" : "linr"
                            },
                            "cursorOpacity" : {
                              "type" : "double",
                              "defaultValue" : 0.0,
                              "interp" : "linr"
                            }
                          },
                          "effects" : [

                          ],
                          "start" : 10328,
                          "duration" : 6874,
                          "mediaStart" : 10429,
                          "mediaDuration" : 6874,
                          "scalar" : 1,
                          "metadata" : {
                            "AutoAppliedSmartFocus" : "False",
                            "WinSubProjectDisplayName" : "",
                            "clipSpeedAttribute" : false
                          },
                          "animationTracks" : {

                          }
                        }
                    ],
                    "effects" : [

                    ],
                    "start" : 3910,
                    "duration" : 283,
                    "mediaStart" : 10668,
                    "mediaDuration" : 283,
                    "scalar" : 1,
                    "metadata" : {
                      "AutoAppliedSmartFocus" : "False",
                      "WinSubProjectDisplayName" : "",
                      "clipSpeedAttribute" : false
                    },
                    "animationTracks" : {

                    }
                  },
                  {
                    "id" : 36,
                    "_type" : "StitchedMedia",
                    "minMediaStart" : 0,
                    "attributes" : {
                      "ident" : "tower-columns-02",
                      "gain" : 1.0,
                      "mixToMono" : false
                    },
                    "parameters" : {
                      "cursorOpacity" : 1.0,
                      "cursorScale" : 1.0
                    },
                    "medias" : [
                        {
                          "id" : 37,
                          "_type" : "ScreenVMFile",
                          "src" : 2,
                          "trackNumber" : 0,
                          "attributes" : {
                            "ident" : "Rec 02-03-20_008"
                          },
                          "parameters" : {
                            "cursorScale" : {
                              "type" : "double",
                              "defaultValue" : 0.0,
                              "interp" : "linr"
                            },
                            "cursorOpacity" : {
                              "type" : "double",
                              "defaultValue" : 0.0,
                              "interp" : "linr"
                            }
                          },
                          "effects" : [

                          ],
                          "start" : 0,
                          "duration" : 10292,
                          "mediaStart" : 0,
                          "mediaDuration" : 10292,
                          "scalar" : 1,
                          "metadata" : {
                            "AutoAppliedSmartFocus" : "False",
                            "WinSubProjectDisplayName" : "",
                            "clipSpeedAttribute" : false
                          },
                          "animationTracks" : {

                          }
                        },
                        {
                          "id" : 38,
                          "_type" : "ScreenVMFile",
                          "src" : 2,
                          "trackNumber" : 0,
                          "attributes" : {
                            "ident" : "Rec 02-03-20_008"
                          },
                          "parameters" : {
                            "cursorScale" : {
                              "type" : "double",
                              "defaultValue" : 0.0,
                              "interp" : "linr"
                            },
                            "cursorOpacity" : {
                              "type" : "double",
                              "defaultValue" : 0.0,
                              "interp" : "linr"
                            }
                          },
                          "effects" : [

                          ],
                          "start" : 10292,
                          "duration" : 36,
                          "mediaStart" : 10326,
                          "mediaDuration" : 36,
                          "scalar" : 1,
                          "metadata" : {
                            "AutoAppliedSmartFocus" : "False",
                            "WinSubProjectDisplayName" : "",
                            "clipSpeedAttribute" : false
                          },
                          "animationTracks" : {

                          }
                        },
                        {
                          "id" : 39,
                          "_type" : "ScreenVMFile",
                          "src" : 2,
                          "trackNumber" : 0,
                          "attributes" : {
                            "ident" : "Rec 02-03-20_008"
                          },
                          "parameters" : {
                            "cursorScale" : {
                              "type" : "double",
                              "defaultValue" : 0.0,
                              "interp" : "linr"
                            },
                            "cursorOpacity" : {
                              "type" : "double",
                              "defaultValue" : 0.0,
                              "interp" : "linr"
                            }
                          },
                          "effects" : [

                          ],
                          "start" : 10328,
                          "duration" : 6874,
                          "mediaStart" : 10429,
                          "mediaDuration" : 6874,
                          "scalar" : 1,
                          "metadata" : {
                            "AutoAppliedSmartFocus" : "False",
                            "WinSubProjectDisplayName" : "",
                            "clipSpeedAttribute" : false
                          },
                          "animationTracks" : {

                          }
                        }
                    ],
                    "effects" : [

                    ],
                    "start" : 4193,
                    "duration" : 180,
                    "mediaStart" : 10967,
                    "mediaDuration" : 180,
                    "scalar" : 1,
                    "metadata" : {
                      "AutoAppliedSmartFocus" : "False",
                      "WinSubProjectDisplayName" : "",
                      "clipSpeedAttribute" : false
                    },
                    "animationTracks" : {

                    }
                  },
                  {
                    "id" : 40,
                    "_type" : "StitchedMedia",
                    "minMediaStart" : 0,
                    "attributes" : {
                      "ident" : "tower-columns-02",
                      "gain" : 1.0,
                      "mixToMono" : false
                    },
                    "parameters" : {
                      "translation0" : {
                        "type" : "double",
                        "defaultValue" : 0.0,
                        "keyframes" : [
                          {
                            "endTime" : 11248,
                            "time" : 11233,
                            "value" : -1008.52420384802,
                            "duration" : 15
                          },
                          {
                            "endTime" : 11355,
                            "time" : 11340,
                            "value" : -2.00316208065487e-10,
                            "duration" : 15
                          }
                        ]
                      },
                      "translation1" : {
                        "type" : "double",
                        "defaultValue" : 0.0,
                        "keyframes" : [
                          {
                            "endTime" : 11248,
                            "time" : 11233,
                            "value" : 263.621492731671,
                            "duration" : 15
                          },
                          {
                            "endTime" : 11355,
                            "time" : 11340,
                            "value" : -2.89901436190121e-12,
                            "duration" : 15
                          }
                        ]
                      },
                      "scale0" : {
                        "type" : "double",
                        "defaultValue" : 1.0,
                        "keyframes" : [
                          {
                            "endTime" : 11248,
                            "time" : 11233,
                            "value" : 2.05054604567503,
                            "duration" : 15
                          },
                          {
                            "endTime" : 11355,
                            "time" : 11340,
                            "value" : 1.0,
                            "duration" : 15
                          }
                        ]
                      },
                      "scale1" : {
                        "type" : "double",
                        "defaultValue" : 1.0,
                        "keyframes" : [
                          {
                            "endTime" : 11248,
                            "time" : 11233,
                            "value" : 2.05054604567503,
                            "duration" : 15
                          },
                          {
                            "endTime" : 11355,
                            "time" : 11340,
                            "value" : 1.0,
                            "duration" : 15
                          }
                        ]
                      },
                      "cursorOpacity" : 1.0,
                      "cursorScale" : 1.0
                    },
                    "medias" : [
                        {
                          "id" : 41,
                          "_type" : "ScreenVMFile",
                          "src" : 2,
                          "trackNumber" : 0,
                          "attributes" : {
                            "ident" : "Rec 02-03-20_008"
                          },
                          "parameters" : {
                            "cursorScale" : {
                              "type" : "double",
                              "defaultValue" : 0.0,
                              "interp" : "linr"
                            },
                            "cursorOpacity" : {
                              "type" : "double",
                              "defaultValue" : 0.0,
                              "interp" : "linr"
                            }
                          },
                          "effects" : [

                          ],
                          "start" : 0,
                          "duration" : 10292,
                          "mediaStart" : 0,
                          "mediaDuration" : 10292,
                          "scalar" : 1,
                          "metadata" : {
                            "AutoAppliedSmartFocus" : "False",
                            "WinSubProjectDisplayName" : "",
                            "clipSpeedAttribute" : false
                          },
                          "animationTracks" : {

                          }
                        },
                        {
                          "id" : 42,
                          "_type" : "ScreenVMFile",
                          "src" : 2,
                          "trackNumber" : 0,
                          "attributes" : {
                            "ident" : "Rec 02-03-20_008"
                          },
                          "parameters" : {
                            "cursorScale" : {
                              "type" : "double",
                              "defaultValue" : 0.0,
                              "interp" : "linr"
                            },
                            "cursorOpacity" : {
                              "type" : "double",
                              "defaultValue" : 0.0,
                              "interp" : "linr"
                            }
                          },
                          "effects" : [

                          ],
                          "start" : 10292,
                          "duration" : 36,
                          "mediaStart" : 10326,
                          "mediaDuration" : 36,
                          "scalar" : 1,
                          "metadata" : {
                            "AutoAppliedSmartFocus" : "False",
                            "WinSubProjectDisplayName" : "",
                            "clipSpeedAttribute" : false
                          },
                          "animationTracks" : {

                          }
                        },
                        {
                          "id" : 43,
                          "_type" : "ScreenVMFile",
                          "src" : 2,
                          "trackNumber" : 0,
                          "attributes" : {
                            "ident" : "Rec 02-03-20_008"
                          },
                          "parameters" : {
                            "cursorScale" : {
                              "type" : "double",
                              "defaultValue" : 0.0,
                              "interp" : "linr"
                            },
                            "cursorOpacity" : {
                              "type" : "double",
                              "defaultValue" : 0.0,
                              "interp" : "linr"
                            }
                          },
                          "effects" : [

                          ],
                          "start" : 10328,
                          "duration" : 6874,
                          "mediaStart" : 10429,
                          "mediaDuration" : 6874,
                          "scalar" : 1,
                          "metadata" : {
                            "AutoAppliedSmartFocus" : "False",
                            "WinSubProjectDisplayName" : "",
                            "clipSpeedAttribute" : false
                          },
                          "animationTracks" : {

                          }
                        }
                    ],
                    "effects" : [

                    ],
                    "start" : 4373,
                    "duration" : 129,
                    "mediaStart" : 11233,
                    "mediaDuration" : 129,
                    "scalar" : 1,
                    "metadata" : {
                      "AutoAppliedSmartFocus" : "False",
                      "WinSubProjectDisplayName" : "",
                      "clipSpeedAttribute" : false,
                      "default-scale0" : 1.0,
                      "default-scale1" : 1.0,
                      "default-translation0" : 0.0,
                      "default-translation1" : 0.0
                    },
                    "animationTracks" : {
                      "visual" : [
                        {
                          "endTime" : 11248,
                          "duration" : 15,
                          "range" : [ 11233, 15]
                        },
                        {
                          "endTime" : 11355,
                          "duration" : 15,
                          "range" : [ 11340, 15]
                        }
                      ]
                    }
                  },
                  {
                    "id" : 44,
                    "_type" : "StitchedMedia",
                    "minMediaStart" : 0,
                    "attributes" : {
                      "ident" : "tower-columns-02",
                      "gain" : 1.0,
                      "mixToMono" : false
                    },
                    "parameters" : {
                      "translation0" : {
                        "type" : "double",
                        "defaultValue" : 0.0,
                        "keyframes" : [
                          {
                            "endTime" : 11248,
                            "time" : 11233,
                            "value" : -1008.52420384802,
                            "duration" : 15
                          },
                          {
                            "endTime" : 11355,
                            "time" : 11340,
                            "value" : -2.00316208065487e-10,
                            "duration" : 15
                          }
                        ]
                      },
                      "translation1" : {
                        "type" : "double",
                        "defaultValue" : 0.0,
                        "keyframes" : [
                          {
                            "endTime" : 11248,
                            "time" : 11233,
                            "value" : 263.621492731671,
                            "duration" : 15
                          },
                          {
                            "endTime" : 11355,
                            "time" : 11340,
                            "value" : -2.89901436190121e-12,
                            "duration" : 15
                          }
                        ]
                      },
                      "scale0" : {
                        "type" : "double",
                        "defaultValue" : 1.0,
                        "keyframes" : [
                          {
                            "endTime" : 11248,
                            "time" : 11233,
                            "value" : 2.05054604567503,
                            "duration" : 15
                          },
                          {
                            "endTime" : 11355,
                            "time" : 11340,
                            "value" : 1.0,
                            "duration" : 15
                          }
                        ]
                      },
                      "scale1" : {
                        "type" : "double",
                        "defaultValue" : 1.0,
                        "keyframes" : [
                          {
                            "endTime" : 11248,
                            "time" : 11233,
                            "value" : 2.05054604567503,
                            "duration" : 15
                          },
                          {
                            "endTime" : 11355,
                            "time" : 11340,
                            "value" : 1.0,
                            "duration" : 15
                          }
                        ]
                      },
                      "cursorOpacity" : 1.0,
                      "cursorScale" : 1.0
                    },
                    "medias" : [
                        {
                          "id" : 45,
                          "_type" : "ScreenVMFile",
                          "src" : 2,
                          "trackNumber" : 0,
                          "attributes" : {
                            "ident" : "Rec 02-03-20_008"
                          },
                          "parameters" : {
                            "cursorScale" : {
                              "type" : "double",
                              "defaultValue" : 0.0,
                              "interp" : "linr"
                            },
                            "cursorOpacity" : {
                              "type" : "double",
                              "defaultValue" : 0.0,
                              "interp" : "linr"
                            }
                          },
                          "effects" : [

                          ],
                          "start" : 0,
                          "duration" : 10292,
                          "mediaStart" : 0,
                          "mediaDuration" : 10292,
                          "scalar" : 1,
                          "metadata" : {
                            "AutoAppliedSmartFocus" : "False",
                            "WinSubProjectDisplayName" : "",
                            "clipSpeedAttribute" : false
                          },
                          "animationTracks" : {

                          }
                        },
                        {
                          "id" : 46,
                          "_type" : "ScreenVMFile",
                          "src" : 2,
                          "trackNumber" : 0,
                          "attributes" : {
                            "ident" : "Rec 02-03-20_008"
                          },
                          "parameters" : {
                            "cursorScale" : {
                              "type" : "double",
                              "defaultValue" : 0.0,
                              "interp" : "linr"
                            },
                            "cursorOpacity" : {
                              "type" : "double",
                              "defaultValue" : 0.0,
                              "interp" : "linr"
                            }
                          },
                          "effects" : [

                          ],
                          "start" : 10292,
                          "duration" : 36,
                          "mediaStart" : 10326,
                          "mediaDuration" : 36,
                          "scalar" : 1,
                          "metadata" : {
                            "AutoAppliedSmartFocus" : "False",
                            "WinSubProjectDisplayName" : "",
                            "clipSpeedAttribute" : false
                          },
                          "animationTracks" : {

                          }
                        },
                        {
                          "id" : 47,
                          "_type" : "ScreenVMFile",
                          "src" : 2,
                          "trackNumber" : 0,
                          "attributes" : {
                            "ident" : "Rec 02-03-20_008"
                          },
                          "parameters" : {
                            "cursorScale" : {
                              "type" : "double",
                              "defaultValue" : 0.0,
                              "interp" : "linr"
                            },
                            "cursorOpacity" : {
                              "type" : "double",
                              "defaultValue" : 0.0,
                              "interp" : "linr"
                            }
                          },
                          "effects" : [

                          ],
                          "start" : 10328,
                          "duration" : 6874,
                          "mediaStart" : 10429,
                          "mediaDuration" : 6874,
                          "scalar" : 1,
                          "metadata" : {
                            "AutoAppliedSmartFocus" : "False",
                            "WinSubProjectDisplayName" : "",
                            "clipSpeedAttribute" : false
                          },
                          "animationTracks" : {

                          }
                        }
                    ],
                    "effects" : [

                    ],
                    "start" : 4502,
                    "duration" : 148,
                    "mediaStart" : 11561,
                    "mediaDuration" : 148,
                    "scalar" : 1,
                    "metadata" : {
                      "AutoAppliedSmartFocus" : "False",
                      "WinSubProjectDisplayName" : "",
                      "clipSpeedAttribute" : false,
                      "default-scale0" : 1.0,
                      "default-scale1" : 1.0,
                      "default-translation0" : 0.0,
                      "default-translation1" : 0.0
                    },
                    "animationTracks" : {
                      "visual" : [
                        {
                          "endTime" : 11248,
                          "duration" : 15,
                          "range" : [ 11233, 15]
                        },
                        {
                          "endTime" : 11355,
                          "duration" : 15,
                          "range" : [ 11340, 15]
                        }
                      ]
                    }
                  },
                  {
                    "id" : 48,
                    "_type" : "ScreenVMFile",
                    "src" : 3,
                    "trackNumber" : 0,
                    "attributes" : {
                      "ident" : "tower-columns-03"
                    },
                    "parameters" : {
                      "cursorScale" : {
                        "type" : "double",
                        "defaultValue" : 1.0,
                        "interp" : "linr"
                      },
                      "cursorOpacity" : {
                        "type" : "double",
                        "defaultValue" : 1.0,
                        "interp" : "linr"
                      }
                    },
                    "effects" : [

                    ],
                    "start" : 4650,
                    "duration" : 1075,
                    "mediaStart" : 366,
                    "mediaDuration" : 1075,
                    "scalar" : 1,
                    "metadata" : {
                      "AutoAppliedSmartFocus" : "False",
                      "WinSubProjectDisplayName" : "",
                      "clipSpeedAttribute" : false
                    },
                    "animationTracks" : {

                    }
                  },
                  {
                    "id" : 49,
                    "_type" : "ScreenVMFile",
                    "src" : 3,
                    "trackNumber" : 0,
                    "attributes" : {
                      "ident" : "tower-columns-03"
                    },
                    "parameters" : {
                      "cursorScale" : {
                        "type" : "double",
                        "defaultValue" : 1.0,
                        "interp" : "linr"
                      },
                      "cursorOpacity" : {
                        "type" : "double",
                        "defaultValue" : 1.0,
                        "interp" : "linr"
                      }
                    },
                    "effects" : [

                    ],
                    "start" : 5725,
                    "duration" : 32,
                    "mediaStart" : 1441,
                    "mediaDuration" : 32,
                    "scalar" : 1,
                    "metadata" : {
                      "AutoAppliedSmartFocus" : "False",
                      "WinSubProjectDisplayName" : "",
                      "clipSpeedAttribute" : false
                    },
                    "animationTracks" : {

                    }
                  },
                  {
                    "id" : 50,
                    "_type" : "ScreenVMFile",
                    "src" : 3,
                    "trackNumber" : 0,
                    "attributes" : {
                      "ident" : "tower-columns-03"
                    },
                    "parameters" : {
                      "cursorScale" : {
                        "type" : "double",
                        "defaultValue" : 1.0,
                        "interp" : "linr"
                      },
                      "cursorOpacity" : {
                        "type" : "double",
                        "defaultValue" : 1.0,
                        "interp" : "linr"
                      }
                    },
                    "effects" : [

                    ],
                    "start" : 5757,
                    "duration" : 645,
                    "mediaStart" : 1473,
                    "mediaDuration" : 967,
                    "scalar" : "645/967",
                    "metadata" : {
                      "AutoAppliedSmartFocus" : "False",
                      "WinSubProjectDisplayName" : "",
                      "clipSpeedAttribute" : true
                    },
                    "animationTracks" : {

                    }
                  },
                  {
                    "id" : 51,
                    "_type" : "ScreenVMFile",
                    "src" : 3,
                    "trackNumber" : 0,
                    "attributes" : {
                      "ident" : "tower-columns-03"
                    },
                    "parameters" : {
                      "cursorScale" : {
                        "type" : "double",
                        "defaultValue" : 1.0,
                        "interp" : "linr"
                      },
                      "cursorOpacity" : {
                        "type" : "double",
                        "defaultValue" : 1.0,
                        "interp" : "linr"
                      }
                    },
                    "effects" : [

                    ],
                    "start" : 6402,
                    "duration" : 442,
                    "mediaStart" : 2440,
                    "mediaDuration" : 442,
                    "scalar" : 1,
                    "metadata" : {
                      "AutoAppliedSmartFocus" : "False",
                      "WinSubProjectDisplayName" : "",
                      "clipSpeedAttribute" : false
                    },
                    "animationTracks" : {

                    }
                  },
                  {
                    "id" : 52,
                    "_type" : "ScreenVMFile",
                    "src" : 3,
                    "trackNumber" : 0,
                    "attributes" : {
                      "ident" : "tower-columns-03"
                    },
                    "parameters" : {
                      "cursorScale" : {
                        "type" : "double",
                        "defaultValue" : 1.0,
                        "interp" : "linr"
                      },
                      "cursorOpacity" : {
                        "type" : "double",
                        "defaultValue" : 1.0,
                        "interp" : "linr"
                      }
                    },
                    "effects" : [

                    ],
                    "start" : 6844,
                    "duration" : 211,
                    "mediaStart" : 3111,
                    "mediaDuration" : 211,
                    "scalar" : 1,
                    "metadata" : {
                      "AutoAppliedSmartFocus" : "False",
                      "WinSubProjectDisplayName" : "",
                      "clipSpeedAttribute" : false
                    },
                    "animationTracks" : {

                    }
                  },
                  {
                    "id" : 53,
                    "_type" : "ScreenVMFile",
                    "src" : 3,
                    "trackNumber" : 0,
                    "attributes" : {
                      "ident" : "tower-columns-03"
                    },
                    "parameters" : {
                      "cursorScale" : {
                        "type" : "double",
                        "defaultValue" : 1.0,
                        "interp" : "linr"
                      },
                      "cursorOpacity" : {
                        "type" : "double",
                        "defaultValue" : 1.0,
                        "interp" : "linr"
                      }
                    },
                    "effects" : [

                    ],
                    "start" : 7055,
                    "duration" : 274,
                    "mediaStart" : 3735,
                    "mediaDuration" : 274,
                    "scalar" : 1,
                    "metadata" : {
                      "AutoAppliedSmartFocus" : "False",
                      "WinSubProjectDisplayName" : "",
                      "clipSpeedAttribute" : false
                    },
                    "animationTracks" : {

                    }
                  },
                  {
                    "id" : 54,
                    "_type" : "ScreenVMFile",
                    "src" : 3,
                    "trackNumber" : 0,
                    "attributes" : {
                      "ident" : "tower-columns-03"
                    },
                    "parameters" : {
                      "cursorScale" : {
                        "type" : "double",
                        "defaultValue" : 1.0,
                        "interp" : "linr"
                      },
                      "cursorOpacity" : {
                        "type" : "double",
                        "defaultValue" : 1.0,
                        "interp" : "linr"
                      }
                    },
                    "effects" : [

                    ],
                    "start" : 7329,
                    "duration" : 82,
                    "mediaStart" : 4165,
                    "mediaDuration" : 82,
                    "scalar" : 1,
                    "metadata" : {
                      "AutoAppliedSmartFocus" : "False",
                      "WinSubProjectDisplayName" : "",
                      "clipSpeedAttribute" : false
                    },
                    "animationTracks" : {

                    }
                  },
                  {
                    "id" : 55,
                    "_type" : "ScreenVMFile",
                    "src" : 3,
                    "trackNumber" : 0,
                    "attributes" : {
                      "ident" : "tower-columns-03"
                    },
                    "parameters" : {
                      "cursorScale" : {
                        "type" : "double",
                        "defaultValue" : 1.0,
                        "interp" : "linr"
                      },
                      "cursorOpacity" : {
                        "type" : "double",
                        "defaultValue" : 1.0,
                        "interp" : "linr"
                      }
                    },
                    "effects" : [

                    ],
                    "start" : 7411,
                    "duration" : 190,
                    "mediaStart" : 4387,
                    "mediaDuration" : 190,
                    "scalar" : 1,
                    "metadata" : {
                      "AutoAppliedSmartFocus" : "False",
                      "WinSubProjectDisplayName" : "",
                      "clipSpeedAttribute" : false
                    },
                    "animationTracks" : {

                    }
                  },
                  {
                    "id" : 56,
                    "_type" : "ScreenVMFile",
                    "src" : 3,
                    "trackNumber" : 0,
                    "attributes" : {
                      "ident" : "tower-columns-03"
                    },
                    "parameters" : {
                      "cursorScale" : {
                        "type" : "double",
                        "defaultValue" : 1.0,
                        "interp" : "linr"
                      },
                      "cursorOpacity" : {
                        "type" : "double",
                        "defaultValue" : 1.0,
                        "interp" : "linr"
                      }
                    },
                    "effects" : [

                    ],
                    "start" : 7601,
                    "duration" : 324,
                    "mediaStart" : 4916,
                    "mediaDuration" : 324,
                    "scalar" : 1,
                    "metadata" : {
                      "AutoAppliedSmartFocus" : "False",
                      "WinSubProjectDisplayName" : "",
                      "clipSpeedAttribute" : false
                    },
                    "animationTracks" : {

                    }
                  },
                  {
                    "id" : 57,
                    "_type" : "StitchedMedia",
                    "minMediaStart" : 0,
                    "attributes" : {
                      "ident" : "tower-columns-03",
                      "gain" : 1.0,
                      "mixToMono" : false
                    },
                    "parameters" : {
                      "cursorOpacity" : 1.0,
                      "cursorScale" : 1.0
                    },
                    "medias" : [
                        {
                          "id" : 58,
                          "_type" : "ScreenVMFile",
                          "src" : 3,
                          "trackNumber" : 0,
                          "attributes" : {
                            "ident" : "Rec 02-03-20_010"
                          },
                          "parameters" : {
                            "cursorScale" : {
                              "type" : "double",
                              "defaultValue" : 0.0,
                              "interp" : "linr"
                            },
                            "cursorOpacity" : {
                              "type" : "double",
                              "defaultValue" : 0.0,
                              "interp" : "linr"
                            }
                          },
                          "effects" : [

                          ],
                          "start" : 0,
                          "duration" : 6583,
                          "mediaStart" : 0,
                          "mediaDuration" : 6583,
                          "scalar" : 1,
                          "metadata" : {
                            "AutoAppliedSmartFocus" : "False",
                            "WinSubProjectDisplayName" : "",
                            "clipSpeedAttribute" : false
                          },
                          "animationTracks" : {

                          }
                        },
                        {
                          "id" : 59,
                          "_type" : "ScreenVMFile",
                          "src" : 3,
                          "trackNumber" : 0,
                          "attributes" : {
                            "ident" : "Rec 02-03-20_010"
                          },
                          "parameters" : {
                            "cursorScale" : {
                              "type" : "double",
                              "defaultValue" : 0.0,
                              "interp" : "linr"
                            },
                            "cursorOpacity" : {
                              "type" : "double",
                              "defaultValue" : 0.0,
                              "interp" : "linr"
                            }
                          },
                          "effects" : [

                          ],
                          "start" : 6583,
                          "duration" : 1956,
                          "mediaStart" : 6907,
                          "mediaDuration" : 1956,
                          "scalar" : 1,
                          "metadata" : {
                            "AutoAppliedSmartFocus" : "False",
                            "WinSubProjectDisplayName" : "",
                            "clipSpeedAttribute" : false
                          },
                          "animationTracks" : {

                          }
                        }
                    ],
                    "effects" : [

                    ],
                    "start" : 7925,
                    "duration" : 792,
                    "mediaStart" : 5852,
                    "mediaDuration" : 792,
                    "scalar" : 1,
                    "metadata" : {
                      "AutoAppliedSmartFocus" : "False",
                      "WinSubProjectDisplayName" : "",
                      "clipSpeedAttribute" : false
                    },
                    "animationTracks" : {

                    }
                  },
                  {
                    "id" : 60,
                    "_type" : "StitchedMedia",
                    "minMediaStart" : 0,
                    "attributes" : {
                      "ident" : "tower-columns-03",
                      "gain" : 1.0,
                      "mixToMono" : false
                    },
                    "parameters" : {
                      "cursorOpacity" : 1.0,
                      "cursorScale" : 1.0
                    },
                    "medias" : [
                        {
                          "id" : 61,
                          "_type" : "ScreenVMFile",
                          "src" : 3,
                          "trackNumber" : 0,
                          "attributes" : {
                            "ident" : "Rec 02-03-20_010"
                          },
                          "parameters" : {
                            "cursorScale" : {
                              "type" : "double",
                              "defaultValue" : 0.0,
                              "interp" : "linr"
                            },
                            "cursorOpacity" : {
                              "type" : "double",
                              "defaultValue" : 0.0,
                              "interp" : "linr"
                            }
                          },
                          "effects" : [

                          ],
                          "start" : 0,
                          "duration" : 6583,
                          "mediaStart" : 0,
                          "mediaDuration" : 6583,
                          "scalar" : 1,
                          "metadata" : {
                            "AutoAppliedSmartFocus" : "False",
                            "WinSubProjectDisplayName" : "",
                            "clipSpeedAttribute" : false
                          },
                          "animationTracks" : {

                          }
                        },
                        {
                          "id" : 62,
                          "_type" : "ScreenVMFile",
                          "src" : 3,
                          "trackNumber" : 0,
                          "attributes" : {
                            "ident" : "Rec 02-03-20_010"
                          },
                          "parameters" : {
                            "cursorScale" : {
                              "type" : "double",
                              "defaultValue" : 0.0,
                              "interp" : "linr"
                            },
                            "cursorOpacity" : {
                              "type" : "double",
                              "defaultValue" : 0.0,
                              "interp" : "linr"
                            }
                          },
                          "effects" : [

                          ],
                          "start" : 6583,
                          "duration" : 1956,
                          "mediaStart" : 6907,
                          "mediaDuration" : 1956,
                          "scalar" : 1,
                          "metadata" : {
                            "AutoAppliedSmartFocus" : "False",
                            "WinSubProjectDisplayName" : "",
                            "clipSpeedAttribute" : false
                          },
                          "animationTracks" : {

                          }
                        }
                    ],
                    "effects" : [

                    ],
                    "start" : 8717,
                    "duration" : 495,
                    "mediaStart" : 6644,
                    "mediaDuration" : 990,
                    "scalar" : "1/2",
                    "metadata" : {
                      "AutoAppliedSmartFocus" : "False",
                      "WinSubProjectDisplayName" : "",
                      "clipSpeedAttribute" : true
                    },
                    "animationTracks" : {

                    }
                  },
                  {
                    "id" : 63,
                    "_type" : "StitchedMedia",
                    "minMediaStart" : 0,
                    "attributes" : {
                      "ident" : "tower-columns-03",
                      "gain" : 1.0,
                      "mixToMono" : false
                    },
                    "parameters" : {
                      "cursorOpacity" : 1.0,
                      "cursorScale" : 1.0
                    },
                    "medias" : [
                        {
                          "id" : 64,
                          "_type" : "ScreenVMFile",
                          "src" : 3,
                          "trackNumber" : 0,
                          "attributes" : {
                            "ident" : "Rec 02-03-20_010"
                          },
                          "parameters" : {
                            "cursorScale" : {
                              "type" : "double",
                              "defaultValue" : 0.0,
                              "interp" : "linr"
                            },
                            "cursorOpacity" : {
                              "type" : "double",
                              "defaultValue" : 0.0,
                              "interp" : "linr"
                            }
                          },
                          "effects" : [

                          ],
                          "start" : 0,
                          "duration" : 6583,
                          "mediaStart" : 0,
                          "mediaDuration" : 6583,
                          "scalar" : 1,
                          "metadata" : {
                            "AutoAppliedSmartFocus" : "False",
                            "WinSubProjectDisplayName" : "",
                            "clipSpeedAttribute" : false
                          },
                          "animationTracks" : {

                          }
                        },
                        {
                          "id" : 65,
                          "_type" : "ScreenVMFile",
                          "src" : 3,
                          "trackNumber" : 0,
                          "attributes" : {
                            "ident" : "Rec 02-03-20_010"
                          },
                          "parameters" : {
                            "cursorScale" : {
                              "type" : "double",
                              "defaultValue" : 0.0,
                              "interp" : "linr"
                            },
                            "cursorOpacity" : {
                              "type" : "double",
                              "defaultValue" : 0.0,
                              "interp" : "linr"
                            }
                          },
                          "effects" : [

                          ],
                          "start" : 6583,
                          "duration" : 1243,
                          "mediaStart" : 6907,
                          "mediaDuration" : 1243,
                          "scalar" : 1,
                          "metadata" : {
                            "AutoAppliedSmartFocus" : "False",
                            "WinSubProjectDisplayName" : "",
                            "clipSpeedAttribute" : false
                          },
                          "animationTracks" : {

                          }
                        },
                        {
                          "id" : 66,
                          "_type" : "ScreenVMFile",
                          "src" : 3,
                          "trackNumber" : 0,
                          "attributes" : {
                            "ident" : "Rec 02-03-20_010"
                          },
                          "parameters" : {
                            "cursorScale" : {
                              "type" : "double",
                              "defaultValue" : 0.0,
                              "interp" : "linr"
                            },
                            "cursorOpacity" : {
                              "type" : "double",
                              "defaultValue" : 0.0,
                              "interp" : "linr"
                            }
                          },
                          "effects" : [

                          ],
                          "start" : 7826,
                          "duration" : 241,
                          "mediaStart" : 8622,
                          "mediaDuration" : 241,
                          "scalar" : 1,
                          "metadata" : {
                            "AutoAppliedSmartFocus" : "False",
                            "WinSubProjectDisplayName" : "",
                            "clipSpeedAttribute" : false
                          },
                          "animationTracks" : {

                          }
                        }
                    ],
                    "effects" : [

                    ],
                    "start" : 9212,
                    "duration" : 433,
                    "mediaStart" : 7634,
                    "mediaDuration" : 433,
                    "scalar" : 1,
                    "metadata" : {
                      "AutoAppliedSmartFocus" : "False",
                      "WinSubProjectDisplayName" : "",
                      "clipSpeedAttribute" : false
                    },
                    "animationTracks" : {

                    }
                  }
                ],
                "transitions" : [
                  {
                    "name" : "Fade",
                    "duration" : 7,
                    "trivial" : false,
                    "useAudioPreRoll" : true,
                    "useVisualPreRoll" : true,
                    "leftMedia" : 22,
                    "rightMedia" : 23
                  },
                  {
                    "name" : "Fade",
                    "duration" : 7,
                    "trivial" : false,
                    "useAudioPreRoll" : true,
                    "useVisualPreRoll" : true,
                    "leftMedia" : 23,
                    "rightMedia" : 24
                  },
                  {
                    "name" : "Fade",
                    "duration" : 7,
                    "trivial" : false,
                    "useAudioPreRoll" : true,
                    "useVisualPreRoll" : true,
                    "leftMedia" : 52,
                    "rightMedia" : 53
                  }
                ]
              },
              {
                "trackIndex" : 2,
                "medias" : [
                  {
                    "id" : 67,
                    "_type" : "AMFile",
                    "src" : 1,
                    "trackNumber" : 1,
                    "attributes" : {
                      "ident" : "tower-columns-01",
                      "sampleRate" : 44100,
                      "bitDepth" : 16,
                      "gain" : 1.0,
                      "mixToMono" : false
                    },
                      "channelNumber" : "0,1",
                    "effects" : [
                        {
                          "effectName" : "NoiseReduction",
                          "category" : "categoryAudioEffects",
                          "parameters" : {
                            "denoiserAmount" : 20.0,
                            "denoiserThreshold" : 0.0,
                            "noiseProfile" : "EMxRPtIrnUDesoA+IOwHP+YO4D9WV91AOxaTQBwHK0BhVvQ/HktXPycvMj9PZz8/4ihoP54wfT9G\r\nUcQ+rrIOPk5lQT6NLQ0+zlWIPk6IhT477Ts+2O8GP1Tooz9uV44/4pD8P0MGJD9+F8A+bT6xP0eA\r\nmD9sM4dAyKR4QerrMkG4jk1BXsIgQsCZXEHbUqRBqOCNQYt8hECOLVVAqh8AQCjj3D+3jqs/d0DN\r\nP64eqT/GBoZAdSoMQATZyj8y5oo/rKNWQNP/oUCWmodAPBOoP47Jqz9PsBo/klUSP+wyYj5Z7aA+\r\naOqoP8J3kj4Uhwo/IoigPqqr5j8IO6k/+vwLP1caPEDBpjA/dzamP1Lxa0GOidg/zXuwP+WsBT8s\r\nQGg/uCNSPw/bAkCbD4E/HgqrP2Dnzj6ZK8s/tvYFP06V+D4+bhA+W9/lPdxZoT45yc497kYNPpaP\r\niT5VnHE+zUe6PqhLuT7afSU/tR8SPk43jT6cEnA+ED+FPhb0Kj+zw4U+9UKEPQYMaj1CuhU+38pX\r\nPRZWij01lI09j17oPlIkTT7EXVY9R0apPThL0D59BSA+ojg/PtEfWT2OOTI/5t9pPn9ELD9merg9\r\nYlxqPhnIjT3w1jQ+llX8PZQvgj+C/sM/fZWhP9BAC0AdtBBAKBybPuA2mj/SDxc/2+UmPgCiAj6a\r\n3VE/ZFaoPviGvz6j1L8+C3RYPhnZDD4E95w9/G13PVYBND5s4YY9u3txPqZIKj6d3DM+awgAPiT7\r\nPz57AZo+ftD2PZX8lz7lD3w+QvfBPnMC2j/Hess+i8SbPXtEPT7pBLs9WPmIPU7QQD7aYCE+CFDq\r\nPxEwjkCiX2lAxOiXP9AQgj8bPFg/PeEhPmLS7z1Fs7Q++5kMP0zuIz8Uyy0/Y5PoPoo6aj5Bnjc/\r\nNes9P+STKT9JktQ/WK4AQFpiCD/AIEg/Tr8yQIOoaj70wPQ8ENFyPQjLEj2nVkw+r0gEPuNyoz1s\r\nZ3c9BfSlPRsZ0T3ATgE/FqLnPszXPD+1NeQ+HmWTPzVWED516V0+LHr+PWyLeT04C6U96o3pPVuk\r\ntD39Rx0+spThPbi+hD7T0pY+QeKQPvbjpD8UmZg/U3MEP3Zuiz7lJVQ/2rp7P3TlHUB/I6A/lF1y\r\nP0ldVj+6yqk/C06+QA0CoD/60ABB15KzQAJZiD/u6K0/RscMQLgX7z+iIuE/XfZAQP4ezkDr50dA\r\nEeIbQPwy5EBYAmY/yXQ4Pwb0+D+V3dY/qyE2P3cgxkC6hAJBw/rlP+xlBUBk3x1A9c+wPzZn8T8y\r\nY7RAZgu6QFblxEBQoYlAveOPP3l83j7ooQw/mEqgPwl4TUACr2A/CUb+P/ZZRUGakARA5RZ+QCXu\r\nL0AoWe8/sOpYPxtGaz+qCTRAcn6nP8YJIj8gDo1A3D0EQb7VuD9qGxBBCq6uQTjpKUAiZWJB/tpK\r\nQCE6nUBtxKo/pLPOPmjAcT/0iGU+M59YPkUHIz5cW1E+gHgTPVhaqT39L6k+wKs2Pw5vEj6EdCE+\r\n+ZRwPn9NBT6Pq9s+zGGlP9m4qT/BQtw//A4hP1ilNz7uEfs9eN4NPUxROD4qJm4/+aTLP7QYNz95\r\nflA/mOItQEATVz8A4JE/iaj/P4FGrT/xUek/SErqPie6/D4noOI/lx9UP5BgXT/XTFQ/EJOBQKki\r\nMkDwW1VAlr2ePxv110AIWoo+yoEgPvWj6j6kRE4+tOz8Pdji9jznf+k9ZRqZPmmPQj5TJps+wlqb\r\nPVEdfz16OjI+Okb4Pi7x/D1ikTs+KjtZPQAHxTxLaTU9+AUsPvnihD3lLZY9c0BvPktOCz2FIA0+\r\nEamrPSz+cTwPPdE9QlugPUd7RD6061E+JYAAPhw0ST6CH+498Lg1Peo8YDv/3AE9UkCjPHTAqDzn\r\nE3I8duR/OzS+DjzO4iw8FNWkOzOkyzusnAk8s0IBO1dSozvwf+Q7RfSgO+RByzuEg4E7WHOUO/CU\r\ngjtgY5M76kq2Oy/JgzvyPXY7Gj9vOwIfVju+6lY7gBZ5O/CZXDsvehU7e5EAOwbaUDsMQzE7hzov\r\nO5+v0Toa+CY7CmUuO+Q25DrE9CE7upoHO5xMDjsf/tg6ZFVOO0ysRTscyQA7RhYbO3uPCzspk+w6\r\n4FPYOkAX3Dot1fA6nYgEO6Zi/zoXz9g6r/rWOojbzTrOn8s6GbDVOsQxzjpY5806mmrQOh5AwzoK\r\nWMQ6Hji9Oty4uzp6bqw64dyuOlRwrjp+gK86KgKwOtnEsTr7K646Hs2rOp3epToy06k6LkiSOqDE\r\ngjrnz6865j7KOrZzljrEPnc6P2mXOgjJqzrgBqQ62cacOpGjlzrfkpc6A9uUOmunkjp+BH46fjlx\r\nOqeuhDq6tYY6DnCKOktcjTouxIE6euyFOk1YfTqq7oE6dl2DOi5dbDru+nw6FFJ6OmTScjoBom46\r\nVv12OqjbbDqq12w6XER5OtYMbjo+GGo6bNBkOtpnYDq0QV86FgRdOugfYzrYq1I6/+5dOnKIPTol\r\npzc6MQ86OsJwbTqkFW46l8IcOg4yPTpdxjw6VIyCOloxLTpWrYU67MFpOgycbDpAqWk6yH9UOtiF\r\nUDrtCEc6aLpFOm/4PTq0nUY6dDw+Ooo/YDpazCY6bigsOh3nNTpqY0I6gG1EOu53JzqwkSk6602H\r\nOqS7GToKVQY6i7lzOny/MTqOlUI6mcbsOSICQjpMWUs6aiRHOhp8Nzrw+yE62rscOghsHjogTBo6\r\nQ38vOoc/BTrkJBQ6AVwbOpKYEzor1i46Ab0rOm7CGTpVjCE64iUYOm8JJDo4YhQ6L0wWOiiaFzr0\r\nByA6RIMVOjDBAToYvhY6V+kIOuORJDpOHSE6nWcZOpNU/zkg4hE6V9kfOkYWCToqAgU6pdgVOl4N\r\nDjp6oQY6OPUJOuhxDjp2cAg6EJ0HOoReCDpuIQY6DxH9OebZBjoxrf85Kpj7OcFeCDpXfgQ6kLz+\r\nOfgaBTqMyAU62rv6OVCU+TkkQPg5iob6OWgY+TlEV/Y55GwBOuCX9Dn4i/k5Abn4OUpc8jlC5vQ5\r\nNKX2Od599Dl0TPE5ukvwOUIu7DncP/c5Pc3vOSCx7znhZOQ5QjDqOYTt4zly2OQ5kG/hObcv4jka\r\nYuQ5tpHmObZ04DlYjPQ5XUvhOXN84zlr+NQ5sD3dOa+P3DkWyN45LGnhOUaA3zk4y945parXOWtU\r\n0jnLoc45+ynTOVJ13zmEINE5AKbbOQ/gzTkMgs052zfMOTGZ1TnPvtM5tJjIOWOXxjma0ck5TBfK\r\nOZlw0jnqUtA5ZRHMOdZ7zDkDK9E58ZjJOUaX0DnaGcw5cJjPOYNXyjnLQ745eG2+OX8lvjkEn705\r\nZLvIOcpsvDkwdbg5CMS7OQOMsTl/WLg5e+u5OcW9vDmRMr05nVWvOdEDszkmCMk5jze7ORzctznG\r\nR605+pS6OagasjmBOrY5QHKwOdD7uTlMwro5oaa0OTJIszkZT7E5tSasOS/CsDm8QbU5JbSnOZRp\r\nrjkf76s5YSixOXh4rTmep6o5LdCsOfpGtDleHas59h60OUUOrDlTm685B3OrOWRqrTn4jaA5Poaz\r\nOZVMrTl3d685PKavOedopjlUQ6g5yWulOeXsrDly8qA5EkusOctCqTmnJaA5AuCkOeCVmjmgQaQ5\r\nyJqfOaY9pjlyb585bH6hOQhEnTn1sac5nAOfOQz9qjl/9545qAueOXwfnDlM/Z45gpmaOVEvnDkI\r\n4pc5VmGmOcd4oznTGaE5enaaOTAmkjn/yKI5opuXOWe0lzl7rpc5dvuaObZYkjmq+pY5aXebOVpM\r\nmTk2Wps5gICYORvIjTns8Js5Hq2UOeqOjTkBxpc5/dmZOZxSmzkGD5g5BQGROdHrkDk6Uog5uzed\r\nObcUkTlUooc5NySSOUlakjk/5pY5+IePOYFgmDl3F5Q54smLOYSiijkKRI05V5yROZuykDl4UYw5\r\nG9COOZwVjjlx0Y05HL+LOZhNlTloB4k5cFWOOfAXjzm51Y45qFuDOUJmjTl0TYo5fMeLObzehzly\r\nkYk5eKKJOd5xgTnqzJM5wuKEOTzvizk+mIE5XgOFOW5CgTmSl445fLCBOYXGiDkWt4g5ToaROcSH\r\nhTly2oU5LSOFOb91iTlcFIM5e2+COYFohjkVBn05ammEOXUOgDlC/Xc5S/V/OWEpgTm6D385YPuF\r\nOQ+HgTnYdYI5flaAOXV5gDksRYc5ko2COTjVdjneSHU53peBOdiueDlUeIM53kR/OfIEhjnO5Ho5\r\nv3R6Oa2EhDnEH345MnF/OUdUgDkWR4M5fPl7OcFTezmVNoA5chSAORNofznfH3451r5uOW0AiDkp\r\nD4E5fBZvOcN6bTlwCXo5b11vOaYUfzn35WY5nlB2Oa5EYzmL8IA5IkZ5ORIudjknnHM5l3ptOZM8\r\nbTl3p3g5cXRuOe5hejn6Pms57o9zOfdDdjmC1nk52GBfOSGDfDl98G85XOpnOUXUazmZNmQ5bbt3\r\nOegBYzmy+mk5WQNhOdwbcDnrNmE5XfxqOWPTbDn0NWE5pYtyOdX+Yjl+snI5vO5tOcsnYzl/d2Y5\r\nDvBmOcdcbjlITWw5YbplObzwgjngfmw5XOFtOUSBaDk4LmI5TPh0OeOwZDkaR3U56n5uOXpyazle\r\nt3Q5f5xqOfo0ZDkYtHE57hNuOZ04ZTkzFm056RZhOV6mZzl1AGQ5+jNcOT+8YDnpYGE5er5jOV6q\r\nVjmgXWA5NXljOWAZaDlrWGM5G09bOQkxZjl97Fc5B+pbOcMtbznYTVk5fo9mOV11ZDk5KVg5rGRq\r\nOcudWzm5kW85RQhYOWU2XjkvxlU5I95gOaGrVjmHoVY5gHdnOaSdTzlTKVU5ihdnOXYUXTkbr1s5\r\nVH5ZOQJRTTl0oVQ595xWOcvfdDnoe2I5Dc9kOQYXWDn+tks54CFnOWJPUDmPdVw5q5deOR1NVjns\r\nyE05Yk1nORGDUznBnGw5TB1cOdb4YTk290058AhrOYoBXTmS/1k5JuxkOb87Ujl0U1I5cS1kOfqW\r\nUTmFSGY5fuVTOZUMUTlLNVc5zo5iOUwvYDmVq1s5SBNPOXfvWDnk0ls5TydfOadBTDkePEo5/XVZ\r\nOdnSYznalVQ5JJpYOZcXVjn4M045u3tTOdDsWzmZHFI5sntbOWaIYDmiDVg5t2ZWOV+2Xzn8uFM5\r\nxu9WOe4fYjl0/U45FkRWOW94WzlIJlM57gZjOWIOUzmeaVw5dwxXOc3mUTnKn1o5b1RROQYOXznp\r\nX1g5LDJdOWYFajktEl05xyhUOahISzlPS1A5WnhZOTSKajmUhFo5lcFVOZq4WTmUQlA5xPBQOc8v\r\nWDlumlQ53YxEOYjeWjmLz1Y5jWtTOT0JWzmlLGE5PMpNOVFwSzlnHlw5oI9ZOXlFUzkGmEQ5VExo\r\nOVTsXjkLn1c5vadPOfT8VDmvVEM5YbFZOVx9XTnTM185yilbObJDVTlfkkg5/DxZOQARVDkQzFE+\r\n0iudQN6ygD4g7Ac/5g7gP1ZX3UA7FpNAHAcrQGFW9D8eS1c/Jy8yP09nPz/iKGg/njB9P0ZRxD6u\r\nsg4+TmVBPo0tDT7OVYg+ToiFPjvtOz7Y7wY/VOijP25Xjj/ikPw/QwYkP34XwD5tPrE/R4CYP2wz\r\nh0DIpHhB6usyQbiOTUFewiBCwJlcQdtSpEGo4I1Bi3yEQI4tVUCqHwBAKOPcP7eOqz93QM0/rh6p\r\nP8YGhkB1KgxABNnKPzLmij+so1ZA0/+hQJaah0A8E6g/jsmrP0+wGj+SVRI/7DJiPlntoD5o6qg/\r\nwneSPhSHCj8iiKA+qqvmPwg7qT/6/As/Vxo8QMGmMD93NqY/UvFrQY6J2D/Ne7A/5awFPyxAaD+4\r\nI1I/D9sCQJsPgT8eCqs/YOfOPpkryz+29gU/TpX4Pj5uED5b3+U93FmhPjnJzj3uRg0+lo+JPlWc\r\ncT7NR7o+qEu5Ptp9JT+1HxI+TjeNPpwScD4QP4U+FvQqP7PDhT71QoQ9BgxqPUK6FT7fylc9FlaK\r\nPTWUjT2PXug+UiRNPsRdVj1HRqk9OEvQPn0FID6iOD8+0R9ZPY45Mj/m32k+f0QsP2Z6uD1iXGo+\r\nGciNPfDWND6WVfw9lC+CP4L+wz99laE/0EALQB20EEAoHJs+4DaaP9IPFz/b5SY+AKICPprdUT9k\r\nVqg++Ia/PqPUvz4LdFg+GdkMPgT3nD38bXc9VgE0Pmzhhj27e3E+pkgqPp3cMz5rCAA+JPs/PnsB\r\nmj5+0PY9lfyXPuUPfD5C98E+cwLaP8d6yz6LxJs9e0Q9PukEuz1Y+Yg9TtBAPtpgIT4IUOo/ETCO\r\nQKJfaUDE6Jc/0BCCPxs8WD894SE+YtLvPUWztD77mQw/TO4jPxTLLT9jk+g+ijpqPkGeNz816z0/\r\n5JMpP0mS1D9YrgBAWmIIP8AgSD9OvzJAg6hqPvTA9DwQ0XI9CMsSPadWTD6vSAQ+43KjPWxndz0F\r\n9KU9GxnRPcBOAT8Wouc+zNc8P7U15D4eZZM/NVYQPnXpXT4sev49bIt5PTgLpT3qjek9W6S0Pf1H\r\nHT6ylOE9uL6EPtPSlj5B4pA+9uOkPxSZmD9TcwQ/dm6LPuUlVD/auns/dOUdQH8joD+UXXI/SV1W\r\nP7rKqT8LTr5ADQKgP/rQAEHXkrNAAlmIP+7orT9GxwxAuBfvP6Ii4T9d9kBA/h7OQOvnR0AR4htA\r\n/DLkQFgCZj/JdDg/BvT4P5Xd1j+rITY/dyDGQLqEAkHD+uU/7GUFQGTfHUD1z7A/NmfxPzJjtEBm\r\nC7pAVuXEQFChiUC9448/eXzePuihDD+YSqA/CXhNQAKvYD8JRv4/9llFQZqQBEDlFn5AJe4vQChZ\r\n7z+w6lg/G0ZrP6oJNEByfqc/xgkiPyAOjUDcPQRBvtW4P2obEEEKrq5BOOkpQCJlYkH+2kpAITqd\r\nQG3Eqj+ks84+aMBxP/SIZT4zn1g+RQcjPlxbUT6AeBM9WFqpPf0vqT7AqzY/Dm8SPoR0IT75lHA+\r\nf00FPo+r2z7MYaU/2bipP8FC3D/8DiE/WKU3Pu4R+z143g09TFE4Piombj/5pMs/tBg3P3l+UD+Y\r\n4i1AQBNXPwDgkT+JqP8/gUatP/FR6T9ISuo+J7r8Pieg4j+XH1Q/kGBdP9dMVD8Qk4FAqSIyQPBb\r\nVUCWvZ4/G/XXQAhaij7KgSA+9aPqPqRETj607Pw92OL2POd/6T1lGpk+aY9CPlMmmz7CWps9UR1/\r\nPXo6Mj46Rvg+LvH8PWKROz4qO1k9AAfFPEtpNT34BSw++eKEPeUtlj1zQG8+S04LPYUgDT4Rqas9\r\nLP5xPA890T1CW6A9R3tEPrTrUT4lgAA+HDRJPoIf7j3wuDU96jxgO//cAT1SQKM8dMCoPOcTcjx2\r\n5H87NL4OPM7iLDwU1aQ7M6TLO6ycCTyzQgE7V1KjO/B/5DtF9KA75EHLO4SDgTtYc5Q78JSCO2Bj\r\nkzvqSrY7L8mDO/I9djsaP287Ah9WO77qVjuAFnk78JlcOy96FTt7kQA7BtpQOwxDMTuHOi87n6/R\r\nOhr4JjsKZS475DbkOsT0ITu6mgc7nEwOOx/+2DpkVU47TKxFOxzJADtGFhs7e48LOymT7DrgU9g6\r\nQBfcOi3V8DqdiAQ7pmL/OhfP2Dqv+tY6iNvNOs6fyzoZsNU6xDHOOljnzTqaatA6HkDDOgpYxDoe\r\nOL063Li7OnpurDrh3K46VHCuOn6ArzoqArA62cSxOvsrrjoezas6nd6lOjLTqTouSJI6oMSCOufP\r\nrzrmPso6tnOWOsQ+dzo/aZc6CMmrOuAGpDrZxpw6kaOXOt+SlzoD25Q6a6eSOn4Efjp+OXE6p66E\r\nOrq1hjoOcIo6S1yNOi7EgTp67IU6TVh9OqrugTp2XYM6Ll1sOu76fDoUUno6ZNJyOgGibjpW/XY6\r\nqNtsOqrXbDpcRHk61gxuOj4Yajps0GQ62mdgOrRBXzoWBF066B9jOtirUjr/7l06cog9OiWnNzox\r\nDzo6wnBtOqQVbjqXwhw6DjI9Ol3GPDpUjII6WjEtOlathTrswWk6DJxsOkCpaTrIf1Q62IVQOu0I\r\nRzpoukU6b/g9OrSdRjp0PD46ij9gOlrMJjpuKCw6Hec1OmpjQjqAbUQ67ncnOrCRKTrrTYc6pLsZ\r\nOgpVBjqLuXM6fL8xOo6VQjqZxuw5IgJCOkxZSzpqJEc6Gnw3OvD7ITrauxw6CGweOiBMGjpDfy86\r\nhz8FOuQkFDoBXBs6kpgTOivWLjoBvSs6bsIZOlWMITriJRg6bwkkOjhiFDovTBY6KJoXOvQHIDpE\r\ngxU6MMEBOhi+FjpX6Qg645EkOk4dITqdZxk6k1T/OSDiETpX2R86RhYJOioCBTql2BU6Xg0OOnqh\r\nBjo49Qk66HEOOnZwCDoQnQc6hF4IOm4hBjoPEf055tkGOjGt/zkqmPs5wV4IOld+BDqQvP45+BoF\r\nOozIBTrau/o5UJT5OSRA+DmKhvo5aBj5OURX9jnkbAE64Jf0OfiL+TkBufg5SlzyOULm9Dk0pfY5\r\n3n30OXRM8Tm6S/A5Qi7sOdw/9zk9ze85ILHvOeFk5DlCMOo5hO3jOXLY5DmQb+E5ty/iORpi5Dm2\r\nkeY5tnTgOViM9DldS+E5c3zjOWv41DmwPd05r4/cORbI3jksaeE5RoDfOTjL3jmlqtc5a1TSOcuh\r\nzjn7KdM5UnXfOYQg0TkApts5D+DNOQyCzTnbN8w5MZnVOc++0zm0mMg5Y5fGOZrRyTlMF8o5mXDS\r\nOepS0DllEcw51nvMOQMr0TnxmMk5RpfQOdoZzDlwmM85g1fKOctDvjl4bb45fyW+OQSfvTlku8g5\r\nymy8OTB1uDkIxLs5A4yxOX9YuDl767k5xb28OZEyvTmdVa850QOzOSYIyTmPN7s5HNy3OcZHrTn6\r\nlLo5qBqyOYE6tjlAcrA50Pu5OUzCujmhprQ5MkizORlPsTm1Jqw5L8KwObxBtTkltKc5lGmuOR/v\r\nqzlhKLE5eHitOZ6nqjkt0Kw5+ka0OV4dqzn2HrQ5RQ6sOVObrzkHc6s5ZGqtOfiNoDk+hrM5lUyt\r\nOXd3rzk8pq8552imOVRDqDnJa6U55eysOXLyoDkSS6w5y0KpOacloDkC4KQ54JWaOaBBpDnImp85\r\npj2mOXJvnzlsfqE5CESdOfWxpzmcA585DP2qOX/3njmoC545fB+cOUz9njmCmZo5US+cOQjilzlW\r\nYaY5x3ijOdMZoTl6dpo5MCaSOf/Iojmim5c5Z7SXOXuulzl2+5o5tliSOar6ljlpd5s5WkyZOTZa\r\nmzmAgJg5G8iNOezwmzkerZQ56o6NOQHGlzn92Zk5nFKbOQYPmDkFAZE50euQOTpSiDm7N505txSR\r\nOVSihzk3JJI5SVqSOT/mljn4h485gWCYOXcXlDniyYs5hKKKOQpEjTlXnJE5m7KQOXhRjDkb0I45\r\nnBWOOXHRjTkcv4s5mE2VOWgHiTlwVY458BePObnVjjmoW4M5QmaNOXRNijl8x4s5vN6HOXKRiTl4\r\nook53nGBOerMkznC4oQ5PO+LOT6YgTleA4U5bkKBOZKXjjl8sIE5hcaIORa3iDlOhpE5xIeFOXLa\r\nhTktI4U5v3WJOVwUgzl7b4I5gWiGORUGfTlqaYQ5dQ6AOUL9dzlL9X85YSmBOboPfzlg+4U5D4eB\r\nOdh1gjl+VoA5dXmAOSxFhzmSjYI5ONV2Od5IdTnel4E52K54OVR4gzneRH858gSGOc7kejm/dHo5\r\nrYSEOcQffjkycX85R1SAORZHgzl8+Xs5wVN7OZU2gDlyFIA5E2h/Od8ffjnWvm45bQCIOSkPgTl8\r\nFm85w3ptOXAJejlvXW85phR/OfflZjmeUHY5rkRjOYvwgDkiRnk5Ei52OSecczmXem05kzxtOXen\r\neDlxdG457mF6Ofo+aznuj3M590N2OYLWeTnYYF85IYN8OX3wbzlc6mc5RdRrOZk2ZDltu3c56AFj\r\nObL6aTlZA2E53BtwOes2YTld/Go5Y9NsOfQ1YTmli3I51f5iOX6ycjm87m05yydjOX93ZjkO8GY5\r\nx1xuOUhNbDlhumU5vPCCOeB+bDlc4W05RIFoOTguYjlM+HQ547BkORpHdTnqfm45enJrOV63dDl/\r\nnGo5+jRkORi0cTnuE245nThlOTMWbTnpFmE5XqZnOXUAZDn6M1w5P7xgOelgYTl6vmM5XqpWOaBd\r\nYDk1eWM5YBloOWtYYzkbT1s5CTFmOX3sVzkH6ls5wy1vOdhNWTl+j2Y5XXVkOTkpWDmsZGo5y51b\r\nObmRbzlFCFg5ZTZeOS/GVTkj3mA5oatWOYehVjmAd2c5pJ1POVMpVTmKF2c5dhRdORuvWzlUflk5\r\nAlFNOXShVDn3nFY5y990Oeh7YjkNz2Q5BhdYOf62SzngIWc5Yk9QOY91XDmrl145HU1WOezITTli\r\nTWc5EYNTOcGcbDlMHVw51vhhOTb3TTnwCGs5igFdOZL/WTkm7GQ5vztSOXRTUjlxLWQ5+pZROYVI\r\nZjl+5VM5lQxROUs1VznOjmI5TC9gOZWrWzlIE085d+9YOeTSWzlPJ185p0FMOR48Sjn9dVk52dJj\r\nOdqVVDkkmlg5lxdWOfgzTjm7e1M50OxbOZkcUjmye1s5ZohgOaINWDm3ZlY5X7ZfOfy4UznG71Y5\r\n7h9iOXT9TjkWRFY5b3hbOUgmUznuBmM5Yg5TOZ5pXDl3DFc5zeZROcqfWjlvVFE5Bg5fOelfWDks\r\nMl05ZgVqOS0SXTnHKFQ5qEhLOU9LUDlaeFk5NIpqOZSEWjmVwVU5mrhZOZRCUDnE8FA5zy9YOW6a\r\nVDndjEQ5iN5aOYvPVjmNa1M5PQlbOaUsYTk8yk05UXBLOWceXDmgj1k5eUVTOQaYRDlUTGg5VOxe\r\nOQufVzm9p0859PxUOa9UQzlhsVk5XH1dOdMzXznKKVs5skNVOV+SSDn8PFk5ABFUOQ==",
                            "noiseTrainingType" : "default"
                          }
                        }
                    ],
                    "start" : 0,
                    "duration" : 178,
                    "mediaStart" : 358,
                    "mediaDuration" : 178,
                    "scalar" : 1,
                    "metadata" : {
                      "WinSubProjectDisplayName" : "",
                      "clipSpeedAttribute" : false
                    },
                    "animationTracks" : {

                    }
                  },
                  {
                    "id" : 68,
                    "_type" : "AMFile",
                    "src" : 1,
                    "trackNumber" : 1,
                    "attributes" : {
                      "ident" : "tower-columns-01",
                      "sampleRate" : 44100,
                      "bitDepth" : 16,
                      "gain" : 1.0,
                      "mixToMono" : false
                    },
                      "channelNumber" : "0,1",
                    "effects" : [
                        {
                          "effectName" : "NoiseReduction",
                          "category" : "categoryAudioEffects",
                          "parameters" : {
                            "denoiserAmount" : 20.0,
                            "denoiserThreshold" : 0.0,
                            "noiseProfile" : "EMxRPtIrnUDesoA+IOwHP+YO4D9WV91AOxaTQBwHK0BhVvQ/HktXPycvMj9PZz8/4ihoP54wfT9G\r\nUcQ+rrIOPk5lQT6NLQ0+zlWIPk6IhT477Ts+2O8GP1Tooz9uV44/4pD8P0MGJD9+F8A+bT6xP0eA\r\nmD9sM4dAyKR4QerrMkG4jk1BXsIgQsCZXEHbUqRBqOCNQYt8hECOLVVAqh8AQCjj3D+3jqs/d0DN\r\nP64eqT/GBoZAdSoMQATZyj8y5oo/rKNWQNP/oUCWmodAPBOoP47Jqz9PsBo/klUSP+wyYj5Z7aA+\r\naOqoP8J3kj4Uhwo/IoigPqqr5j8IO6k/+vwLP1caPEDBpjA/dzamP1Lxa0GOidg/zXuwP+WsBT8s\r\nQGg/uCNSPw/bAkCbD4E/HgqrP2Dnzj6ZK8s/tvYFP06V+D4+bhA+W9/lPdxZoT45yc497kYNPpaP\r\niT5VnHE+zUe6PqhLuT7afSU/tR8SPk43jT6cEnA+ED+FPhb0Kj+zw4U+9UKEPQYMaj1CuhU+38pX\r\nPRZWij01lI09j17oPlIkTT7EXVY9R0apPThL0D59BSA+ojg/PtEfWT2OOTI/5t9pPn9ELD9merg9\r\nYlxqPhnIjT3w1jQ+llX8PZQvgj+C/sM/fZWhP9BAC0AdtBBAKBybPuA2mj/SDxc/2+UmPgCiAj6a\r\n3VE/ZFaoPviGvz6j1L8+C3RYPhnZDD4E95w9/G13PVYBND5s4YY9u3txPqZIKj6d3DM+awgAPiT7\r\nPz57AZo+ftD2PZX8lz7lD3w+QvfBPnMC2j/Hess+i8SbPXtEPT7pBLs9WPmIPU7QQD7aYCE+CFDq\r\nPxEwjkCiX2lAxOiXP9AQgj8bPFg/PeEhPmLS7z1Fs7Q++5kMP0zuIz8Uyy0/Y5PoPoo6aj5Bnjc/\r\nNes9P+STKT9JktQ/WK4AQFpiCD/AIEg/Tr8yQIOoaj70wPQ8ENFyPQjLEj2nVkw+r0gEPuNyoz1s\r\nZ3c9BfSlPRsZ0T3ATgE/FqLnPszXPD+1NeQ+HmWTPzVWED516V0+LHr+PWyLeT04C6U96o3pPVuk\r\ntD39Rx0+spThPbi+hD7T0pY+QeKQPvbjpD8UmZg/U3MEP3Zuiz7lJVQ/2rp7P3TlHUB/I6A/lF1y\r\nP0ldVj+6yqk/C06+QA0CoD/60ABB15KzQAJZiD/u6K0/RscMQLgX7z+iIuE/XfZAQP4ezkDr50dA\r\nEeIbQPwy5EBYAmY/yXQ4Pwb0+D+V3dY/qyE2P3cgxkC6hAJBw/rlP+xlBUBk3x1A9c+wPzZn8T8y\r\nY7RAZgu6QFblxEBQoYlAveOPP3l83j7ooQw/mEqgPwl4TUACr2A/CUb+P/ZZRUGakARA5RZ+QCXu\r\nL0AoWe8/sOpYPxtGaz+qCTRAcn6nP8YJIj8gDo1A3D0EQb7VuD9qGxBBCq6uQTjpKUAiZWJB/tpK\r\nQCE6nUBtxKo/pLPOPmjAcT/0iGU+M59YPkUHIz5cW1E+gHgTPVhaqT39L6k+wKs2Pw5vEj6EdCE+\r\n+ZRwPn9NBT6Pq9s+zGGlP9m4qT/BQtw//A4hP1ilNz7uEfs9eN4NPUxROD4qJm4/+aTLP7QYNz95\r\nflA/mOItQEATVz8A4JE/iaj/P4FGrT/xUek/SErqPie6/D4noOI/lx9UP5BgXT/XTFQ/EJOBQKki\r\nMkDwW1VAlr2ePxv110AIWoo+yoEgPvWj6j6kRE4+tOz8Pdji9jznf+k9ZRqZPmmPQj5TJps+wlqb\r\nPVEdfz16OjI+Okb4Pi7x/D1ikTs+KjtZPQAHxTxLaTU9+AUsPvnihD3lLZY9c0BvPktOCz2FIA0+\r\nEamrPSz+cTwPPdE9QlugPUd7RD6061E+JYAAPhw0ST6CH+498Lg1Peo8YDv/3AE9UkCjPHTAqDzn\r\nE3I8duR/OzS+DjzO4iw8FNWkOzOkyzusnAk8s0IBO1dSozvwf+Q7RfSgO+RByzuEg4E7WHOUO/CU\r\ngjtgY5M76kq2Oy/JgzvyPXY7Gj9vOwIfVju+6lY7gBZ5O/CZXDsvehU7e5EAOwbaUDsMQzE7hzov\r\nO5+v0Toa+CY7CmUuO+Q25DrE9CE7upoHO5xMDjsf/tg6ZFVOO0ysRTscyQA7RhYbO3uPCzspk+w6\r\n4FPYOkAX3Dot1fA6nYgEO6Zi/zoXz9g6r/rWOojbzTrOn8s6GbDVOsQxzjpY5806mmrQOh5AwzoK\r\nWMQ6Hji9Oty4uzp6bqw64dyuOlRwrjp+gK86KgKwOtnEsTr7K646Hs2rOp3epToy06k6LkiSOqDE\r\ngjrnz6865j7KOrZzljrEPnc6P2mXOgjJqzrgBqQ62cacOpGjlzrfkpc6A9uUOmunkjp+BH46fjlx\r\nOqeuhDq6tYY6DnCKOktcjTouxIE6euyFOk1YfTqq7oE6dl2DOi5dbDru+nw6FFJ6OmTScjoBom46\r\nVv12OqjbbDqq12w6XER5OtYMbjo+GGo6bNBkOtpnYDq0QV86FgRdOugfYzrYq1I6/+5dOnKIPTol\r\npzc6MQ86OsJwbTqkFW46l8IcOg4yPTpdxjw6VIyCOloxLTpWrYU67MFpOgycbDpAqWk6yH9UOtiF\r\nUDrtCEc6aLpFOm/4PTq0nUY6dDw+Ooo/YDpazCY6bigsOh3nNTpqY0I6gG1EOu53JzqwkSk6602H\r\nOqS7GToKVQY6i7lzOny/MTqOlUI6mcbsOSICQjpMWUs6aiRHOhp8Nzrw+yE62rscOghsHjogTBo6\r\nQ38vOoc/BTrkJBQ6AVwbOpKYEzor1i46Ab0rOm7CGTpVjCE64iUYOm8JJDo4YhQ6L0wWOiiaFzr0\r\nByA6RIMVOjDBAToYvhY6V+kIOuORJDpOHSE6nWcZOpNU/zkg4hE6V9kfOkYWCToqAgU6pdgVOl4N\r\nDjp6oQY6OPUJOuhxDjp2cAg6EJ0HOoReCDpuIQY6DxH9OebZBjoxrf85Kpj7OcFeCDpXfgQ6kLz+\r\nOfgaBTqMyAU62rv6OVCU+TkkQPg5iob6OWgY+TlEV/Y55GwBOuCX9Dn4i/k5Abn4OUpc8jlC5vQ5\r\nNKX2Od599Dl0TPE5ukvwOUIu7DncP/c5Pc3vOSCx7znhZOQ5QjDqOYTt4zly2OQ5kG/hObcv4jka\r\nYuQ5tpHmObZ04DlYjPQ5XUvhOXN84zlr+NQ5sD3dOa+P3DkWyN45LGnhOUaA3zk4y945parXOWtU\r\n0jnLoc45+ynTOVJ13zmEINE5AKbbOQ/gzTkMgs052zfMOTGZ1TnPvtM5tJjIOWOXxjma0ck5TBfK\r\nOZlw0jnqUtA5ZRHMOdZ7zDkDK9E58ZjJOUaX0DnaGcw5cJjPOYNXyjnLQ745eG2+OX8lvjkEn705\r\nZLvIOcpsvDkwdbg5CMS7OQOMsTl/WLg5e+u5OcW9vDmRMr05nVWvOdEDszkmCMk5jze7ORzctznG\r\nR605+pS6OagasjmBOrY5QHKwOdD7uTlMwro5oaa0OTJIszkZT7E5tSasOS/CsDm8QbU5JbSnOZRp\r\nrjkf76s5YSixOXh4rTmep6o5LdCsOfpGtDleHas59h60OUUOrDlTm685B3OrOWRqrTn4jaA5Poaz\r\nOZVMrTl3d685PKavOedopjlUQ6g5yWulOeXsrDly8qA5EkusOctCqTmnJaA5AuCkOeCVmjmgQaQ5\r\nyJqfOaY9pjlyb585bH6hOQhEnTn1sac5nAOfOQz9qjl/9545qAueOXwfnDlM/Z45gpmaOVEvnDkI\r\n4pc5VmGmOcd4oznTGaE5enaaOTAmkjn/yKI5opuXOWe0lzl7rpc5dvuaObZYkjmq+pY5aXebOVpM\r\nmTk2Wps5gICYORvIjTns8Js5Hq2UOeqOjTkBxpc5/dmZOZxSmzkGD5g5BQGROdHrkDk6Uog5uzed\r\nObcUkTlUooc5NySSOUlakjk/5pY5+IePOYFgmDl3F5Q54smLOYSiijkKRI05V5yROZuykDl4UYw5\r\nG9COOZwVjjlx0Y05HL+LOZhNlTloB4k5cFWOOfAXjzm51Y45qFuDOUJmjTl0TYo5fMeLObzehzly\r\nkYk5eKKJOd5xgTnqzJM5wuKEOTzvizk+mIE5XgOFOW5CgTmSl445fLCBOYXGiDkWt4g5ToaROcSH\r\nhTly2oU5LSOFOb91iTlcFIM5e2+COYFohjkVBn05ammEOXUOgDlC/Xc5S/V/OWEpgTm6D385YPuF\r\nOQ+HgTnYdYI5flaAOXV5gDksRYc5ko2COTjVdjneSHU53peBOdiueDlUeIM53kR/OfIEhjnO5Ho5\r\nv3R6Oa2EhDnEH345MnF/OUdUgDkWR4M5fPl7OcFTezmVNoA5chSAORNofznfH3451r5uOW0AiDkp\r\nD4E5fBZvOcN6bTlwCXo5b11vOaYUfzn35WY5nlB2Oa5EYzmL8IA5IkZ5ORIudjknnHM5l3ptOZM8\r\nbTl3p3g5cXRuOe5hejn6Pms57o9zOfdDdjmC1nk52GBfOSGDfDl98G85XOpnOUXUazmZNmQ5bbt3\r\nOegBYzmy+mk5WQNhOdwbcDnrNmE5XfxqOWPTbDn0NWE5pYtyOdX+Yjl+snI5vO5tOcsnYzl/d2Y5\r\nDvBmOcdcbjlITWw5YbplObzwgjngfmw5XOFtOUSBaDk4LmI5TPh0OeOwZDkaR3U56n5uOXpyazle\r\nt3Q5f5xqOfo0ZDkYtHE57hNuOZ04ZTkzFm056RZhOV6mZzl1AGQ5+jNcOT+8YDnpYGE5er5jOV6q\r\nVjmgXWA5NXljOWAZaDlrWGM5G09bOQkxZjl97Fc5B+pbOcMtbznYTVk5fo9mOV11ZDk5KVg5rGRq\r\nOcudWzm5kW85RQhYOWU2XjkvxlU5I95gOaGrVjmHoVY5gHdnOaSdTzlTKVU5ihdnOXYUXTkbr1s5\r\nVH5ZOQJRTTl0oVQ595xWOcvfdDnoe2I5Dc9kOQYXWDn+tks54CFnOWJPUDmPdVw5q5deOR1NVjns\r\nyE05Yk1nORGDUznBnGw5TB1cOdb4YTk290058AhrOYoBXTmS/1k5JuxkOb87Ujl0U1I5cS1kOfqW\r\nUTmFSGY5fuVTOZUMUTlLNVc5zo5iOUwvYDmVq1s5SBNPOXfvWDnk0ls5TydfOadBTDkePEo5/XVZ\r\nOdnSYznalVQ5JJpYOZcXVjn4M045u3tTOdDsWzmZHFI5sntbOWaIYDmiDVg5t2ZWOV+2Xzn8uFM5\r\nxu9WOe4fYjl0/U45FkRWOW94WzlIJlM57gZjOWIOUzmeaVw5dwxXOc3mUTnKn1o5b1RROQYOXznp\r\nX1g5LDJdOWYFajktEl05xyhUOahISzlPS1A5WnhZOTSKajmUhFo5lcFVOZq4WTmUQlA5xPBQOc8v\r\nWDlumlQ53YxEOYjeWjmLz1Y5jWtTOT0JWzmlLGE5PMpNOVFwSzlnHlw5oI9ZOXlFUzkGmEQ5VExo\r\nOVTsXjkLn1c5vadPOfT8VDmvVEM5YbFZOVx9XTnTM185yilbObJDVTlfkkg5/DxZOQARVDkQzFE+\r\n0iudQN6ygD4g7Ac/5g7gP1ZX3UA7FpNAHAcrQGFW9D8eS1c/Jy8yP09nPz/iKGg/njB9P0ZRxD6u\r\nsg4+TmVBPo0tDT7OVYg+ToiFPjvtOz7Y7wY/VOijP25Xjj/ikPw/QwYkP34XwD5tPrE/R4CYP2wz\r\nh0DIpHhB6usyQbiOTUFewiBCwJlcQdtSpEGo4I1Bi3yEQI4tVUCqHwBAKOPcP7eOqz93QM0/rh6p\r\nP8YGhkB1KgxABNnKPzLmij+so1ZA0/+hQJaah0A8E6g/jsmrP0+wGj+SVRI/7DJiPlntoD5o6qg/\r\nwneSPhSHCj8iiKA+qqvmPwg7qT/6/As/Vxo8QMGmMD93NqY/UvFrQY6J2D/Ne7A/5awFPyxAaD+4\r\nI1I/D9sCQJsPgT8eCqs/YOfOPpkryz+29gU/TpX4Pj5uED5b3+U93FmhPjnJzj3uRg0+lo+JPlWc\r\ncT7NR7o+qEu5Ptp9JT+1HxI+TjeNPpwScD4QP4U+FvQqP7PDhT71QoQ9BgxqPUK6FT7fylc9FlaK\r\nPTWUjT2PXug+UiRNPsRdVj1HRqk9OEvQPn0FID6iOD8+0R9ZPY45Mj/m32k+f0QsP2Z6uD1iXGo+\r\nGciNPfDWND6WVfw9lC+CP4L+wz99laE/0EALQB20EEAoHJs+4DaaP9IPFz/b5SY+AKICPprdUT9k\r\nVqg++Ia/PqPUvz4LdFg+GdkMPgT3nD38bXc9VgE0Pmzhhj27e3E+pkgqPp3cMz5rCAA+JPs/PnsB\r\nmj5+0PY9lfyXPuUPfD5C98E+cwLaP8d6yz6LxJs9e0Q9PukEuz1Y+Yg9TtBAPtpgIT4IUOo/ETCO\r\nQKJfaUDE6Jc/0BCCPxs8WD894SE+YtLvPUWztD77mQw/TO4jPxTLLT9jk+g+ijpqPkGeNz816z0/\r\n5JMpP0mS1D9YrgBAWmIIP8AgSD9OvzJAg6hqPvTA9DwQ0XI9CMsSPadWTD6vSAQ+43KjPWxndz0F\r\n9KU9GxnRPcBOAT8Wouc+zNc8P7U15D4eZZM/NVYQPnXpXT4sev49bIt5PTgLpT3qjek9W6S0Pf1H\r\nHT6ylOE9uL6EPtPSlj5B4pA+9uOkPxSZmD9TcwQ/dm6LPuUlVD/auns/dOUdQH8joD+UXXI/SV1W\r\nP7rKqT8LTr5ADQKgP/rQAEHXkrNAAlmIP+7orT9GxwxAuBfvP6Ii4T9d9kBA/h7OQOvnR0AR4htA\r\n/DLkQFgCZj/JdDg/BvT4P5Xd1j+rITY/dyDGQLqEAkHD+uU/7GUFQGTfHUD1z7A/NmfxPzJjtEBm\r\nC7pAVuXEQFChiUC9448/eXzePuihDD+YSqA/CXhNQAKvYD8JRv4/9llFQZqQBEDlFn5AJe4vQChZ\r\n7z+w6lg/G0ZrP6oJNEByfqc/xgkiPyAOjUDcPQRBvtW4P2obEEEKrq5BOOkpQCJlYkH+2kpAITqd\r\nQG3Eqj+ks84+aMBxP/SIZT4zn1g+RQcjPlxbUT6AeBM9WFqpPf0vqT7AqzY/Dm8SPoR0IT75lHA+\r\nf00FPo+r2z7MYaU/2bipP8FC3D/8DiE/WKU3Pu4R+z143g09TFE4Piombj/5pMs/tBg3P3l+UD+Y\r\n4i1AQBNXPwDgkT+JqP8/gUatP/FR6T9ISuo+J7r8Pieg4j+XH1Q/kGBdP9dMVD8Qk4FAqSIyQPBb\r\nVUCWvZ4/G/XXQAhaij7KgSA+9aPqPqRETj607Pw92OL2POd/6T1lGpk+aY9CPlMmmz7CWps9UR1/\r\nPXo6Mj46Rvg+LvH8PWKROz4qO1k9AAfFPEtpNT34BSw++eKEPeUtlj1zQG8+S04LPYUgDT4Rqas9\r\nLP5xPA890T1CW6A9R3tEPrTrUT4lgAA+HDRJPoIf7j3wuDU96jxgO//cAT1SQKM8dMCoPOcTcjx2\r\n5H87NL4OPM7iLDwU1aQ7M6TLO6ycCTyzQgE7V1KjO/B/5DtF9KA75EHLO4SDgTtYc5Q78JSCO2Bj\r\nkzvqSrY7L8mDO/I9djsaP287Ah9WO77qVjuAFnk78JlcOy96FTt7kQA7BtpQOwxDMTuHOi87n6/R\r\nOhr4JjsKZS475DbkOsT0ITu6mgc7nEwOOx/+2DpkVU47TKxFOxzJADtGFhs7e48LOymT7DrgU9g6\r\nQBfcOi3V8DqdiAQ7pmL/OhfP2Dqv+tY6iNvNOs6fyzoZsNU6xDHOOljnzTqaatA6HkDDOgpYxDoe\r\nOL063Li7OnpurDrh3K46VHCuOn6ArzoqArA62cSxOvsrrjoezas6nd6lOjLTqTouSJI6oMSCOufP\r\nrzrmPso6tnOWOsQ+dzo/aZc6CMmrOuAGpDrZxpw6kaOXOt+SlzoD25Q6a6eSOn4Efjp+OXE6p66E\r\nOrq1hjoOcIo6S1yNOi7EgTp67IU6TVh9OqrugTp2XYM6Ll1sOu76fDoUUno6ZNJyOgGibjpW/XY6\r\nqNtsOqrXbDpcRHk61gxuOj4Yajps0GQ62mdgOrRBXzoWBF066B9jOtirUjr/7l06cog9OiWnNzox\r\nDzo6wnBtOqQVbjqXwhw6DjI9Ol3GPDpUjII6WjEtOlathTrswWk6DJxsOkCpaTrIf1Q62IVQOu0I\r\nRzpoukU6b/g9OrSdRjp0PD46ij9gOlrMJjpuKCw6Hec1OmpjQjqAbUQ67ncnOrCRKTrrTYc6pLsZ\r\nOgpVBjqLuXM6fL8xOo6VQjqZxuw5IgJCOkxZSzpqJEc6Gnw3OvD7ITrauxw6CGweOiBMGjpDfy86\r\nhz8FOuQkFDoBXBs6kpgTOivWLjoBvSs6bsIZOlWMITriJRg6bwkkOjhiFDovTBY6KJoXOvQHIDpE\r\ngxU6MMEBOhi+FjpX6Qg645EkOk4dITqdZxk6k1T/OSDiETpX2R86RhYJOioCBTql2BU6Xg0OOnqh\r\nBjo49Qk66HEOOnZwCDoQnQc6hF4IOm4hBjoPEf055tkGOjGt/zkqmPs5wV4IOld+BDqQvP45+BoF\r\nOozIBTrau/o5UJT5OSRA+DmKhvo5aBj5OURX9jnkbAE64Jf0OfiL+TkBufg5SlzyOULm9Dk0pfY5\r\n3n30OXRM8Tm6S/A5Qi7sOdw/9zk9ze85ILHvOeFk5DlCMOo5hO3jOXLY5DmQb+E5ty/iORpi5Dm2\r\nkeY5tnTgOViM9DldS+E5c3zjOWv41DmwPd05r4/cORbI3jksaeE5RoDfOTjL3jmlqtc5a1TSOcuh\r\nzjn7KdM5UnXfOYQg0TkApts5D+DNOQyCzTnbN8w5MZnVOc++0zm0mMg5Y5fGOZrRyTlMF8o5mXDS\r\nOepS0DllEcw51nvMOQMr0TnxmMk5RpfQOdoZzDlwmM85g1fKOctDvjl4bb45fyW+OQSfvTlku8g5\r\nymy8OTB1uDkIxLs5A4yxOX9YuDl767k5xb28OZEyvTmdVa850QOzOSYIyTmPN7s5HNy3OcZHrTn6\r\nlLo5qBqyOYE6tjlAcrA50Pu5OUzCujmhprQ5MkizORlPsTm1Jqw5L8KwObxBtTkltKc5lGmuOR/v\r\nqzlhKLE5eHitOZ6nqjkt0Kw5+ka0OV4dqzn2HrQ5RQ6sOVObrzkHc6s5ZGqtOfiNoDk+hrM5lUyt\r\nOXd3rzk8pq8552imOVRDqDnJa6U55eysOXLyoDkSS6w5y0KpOacloDkC4KQ54JWaOaBBpDnImp85\r\npj2mOXJvnzlsfqE5CESdOfWxpzmcA585DP2qOX/3njmoC545fB+cOUz9njmCmZo5US+cOQjilzlW\r\nYaY5x3ijOdMZoTl6dpo5MCaSOf/Iojmim5c5Z7SXOXuulzl2+5o5tliSOar6ljlpd5s5WkyZOTZa\r\nmzmAgJg5G8iNOezwmzkerZQ56o6NOQHGlzn92Zk5nFKbOQYPmDkFAZE50euQOTpSiDm7N505txSR\r\nOVSihzk3JJI5SVqSOT/mljn4h485gWCYOXcXlDniyYs5hKKKOQpEjTlXnJE5m7KQOXhRjDkb0I45\r\nnBWOOXHRjTkcv4s5mE2VOWgHiTlwVY458BePObnVjjmoW4M5QmaNOXRNijl8x4s5vN6HOXKRiTl4\r\nook53nGBOerMkznC4oQ5PO+LOT6YgTleA4U5bkKBOZKXjjl8sIE5hcaIORa3iDlOhpE5xIeFOXLa\r\nhTktI4U5v3WJOVwUgzl7b4I5gWiGORUGfTlqaYQ5dQ6AOUL9dzlL9X85YSmBOboPfzlg+4U5D4eB\r\nOdh1gjl+VoA5dXmAOSxFhzmSjYI5ONV2Od5IdTnel4E52K54OVR4gzneRH858gSGOc7kejm/dHo5\r\nrYSEOcQffjkycX85R1SAORZHgzl8+Xs5wVN7OZU2gDlyFIA5E2h/Od8ffjnWvm45bQCIOSkPgTl8\r\nFm85w3ptOXAJejlvXW85phR/OfflZjmeUHY5rkRjOYvwgDkiRnk5Ei52OSecczmXem05kzxtOXen\r\neDlxdG457mF6Ofo+aznuj3M590N2OYLWeTnYYF85IYN8OX3wbzlc6mc5RdRrOZk2ZDltu3c56AFj\r\nObL6aTlZA2E53BtwOes2YTld/Go5Y9NsOfQ1YTmli3I51f5iOX6ycjm87m05yydjOX93ZjkO8GY5\r\nx1xuOUhNbDlhumU5vPCCOeB+bDlc4W05RIFoOTguYjlM+HQ547BkORpHdTnqfm45enJrOV63dDl/\r\nnGo5+jRkORi0cTnuE245nThlOTMWbTnpFmE5XqZnOXUAZDn6M1w5P7xgOelgYTl6vmM5XqpWOaBd\r\nYDk1eWM5YBloOWtYYzkbT1s5CTFmOX3sVzkH6ls5wy1vOdhNWTl+j2Y5XXVkOTkpWDmsZGo5y51b\r\nObmRbzlFCFg5ZTZeOS/GVTkj3mA5oatWOYehVjmAd2c5pJ1POVMpVTmKF2c5dhRdORuvWzlUflk5\r\nAlFNOXShVDn3nFY5y990Oeh7YjkNz2Q5BhdYOf62SzngIWc5Yk9QOY91XDmrl145HU1WOezITTli\r\nTWc5EYNTOcGcbDlMHVw51vhhOTb3TTnwCGs5igFdOZL/WTkm7GQ5vztSOXRTUjlxLWQ5+pZROYVI\r\nZjl+5VM5lQxROUs1VznOjmI5TC9gOZWrWzlIE085d+9YOeTSWzlPJ185p0FMOR48Sjn9dVk52dJj\r\nOdqVVDkkmlg5lxdWOfgzTjm7e1M50OxbOZkcUjmye1s5ZohgOaINWDm3ZlY5X7ZfOfy4UznG71Y5\r\n7h9iOXT9TjkWRFY5b3hbOUgmUznuBmM5Yg5TOZ5pXDl3DFc5zeZROcqfWjlvVFE5Bg5fOelfWDks\r\nMl05ZgVqOS0SXTnHKFQ5qEhLOU9LUDlaeFk5NIpqOZSEWjmVwVU5mrhZOZRCUDnE8FA5zy9YOW6a\r\nVDndjEQ5iN5aOYvPVjmNa1M5PQlbOaUsYTk8yk05UXBLOWceXDmgj1k5eUVTOQaYRDlUTGg5VOxe\r\nOQufVzm9p0859PxUOa9UQzlhsVk5XH1dOdMzXznKKVs5skNVOV+SSDn8PFk5ABFUOQ==",
                            "noiseTrainingType" : "default"
                          }
                        }
                    ],
                    "start" : 178,
                    "duration" : 149,
                    "mediaStart" : 673,
                    "mediaDuration" : 149,
                    "scalar" : 1,
                    "metadata" : {
                      "WinSubProjectDisplayName" : "",
                      "clipSpeedAttribute" : false
                    },
                    "animationTracks" : {

                    }
                  },
                  {
                    "id" : 69,
                    "_type" : "AMFile",
                    "src" : 1,
                    "trackNumber" : 1,
                    "attributes" : {
                      "ident" : "tower-columns-01",
                      "sampleRate" : 44100,
                      "bitDepth" : 16,
                      "gain" : 1.0,
                      "mixToMono" : false
                    },
                      "channelNumber" : "0,1",
                    "effects" : [
                        {
                          "effectName" : "NoiseReduction",
                          "category" : "categoryAudioEffects",
                          "parameters" : {
                            "denoiserAmount" : 20.0,
                            "denoiserThreshold" : 0.0,
                            "noiseProfile" : "EMxRPtIrnUDesoA+IOwHP+YO4D9WV91AOxaTQBwHK0BhVvQ/HktXPycvMj9PZz8/4ihoP54wfT9G\r\nUcQ+rrIOPk5lQT6NLQ0+zlWIPk6IhT477Ts+2O8GP1Tooz9uV44/4pD8P0MGJD9+F8A+bT6xP0eA\r\nmD9sM4dAyKR4QerrMkG4jk1BXsIgQsCZXEHbUqRBqOCNQYt8hECOLVVAqh8AQCjj3D+3jqs/d0DN\r\nP64eqT/GBoZAdSoMQATZyj8y5oo/rKNWQNP/oUCWmodAPBOoP47Jqz9PsBo/klUSP+wyYj5Z7aA+\r\naOqoP8J3kj4Uhwo/IoigPqqr5j8IO6k/+vwLP1caPEDBpjA/dzamP1Lxa0GOidg/zXuwP+WsBT8s\r\nQGg/uCNSPw/bAkCbD4E/HgqrP2Dnzj6ZK8s/tvYFP06V+D4+bhA+W9/lPdxZoT45yc497kYNPpaP\r\niT5VnHE+zUe6PqhLuT7afSU/tR8SPk43jT6cEnA+ED+FPhb0Kj+zw4U+9UKEPQYMaj1CuhU+38pX\r\nPRZWij01lI09j17oPlIkTT7EXVY9R0apPThL0D59BSA+ojg/PtEfWT2OOTI/5t9pPn9ELD9merg9\r\nYlxqPhnIjT3w1jQ+llX8PZQvgj+C/sM/fZWhP9BAC0AdtBBAKBybPuA2mj/SDxc/2+UmPgCiAj6a\r\n3VE/ZFaoPviGvz6j1L8+C3RYPhnZDD4E95w9/G13PVYBND5s4YY9u3txPqZIKj6d3DM+awgAPiT7\r\nPz57AZo+ftD2PZX8lz7lD3w+QvfBPnMC2j/Hess+i8SbPXtEPT7pBLs9WPmIPU7QQD7aYCE+CFDq\r\nPxEwjkCiX2lAxOiXP9AQgj8bPFg/PeEhPmLS7z1Fs7Q++5kMP0zuIz8Uyy0/Y5PoPoo6aj5Bnjc/\r\nNes9P+STKT9JktQ/WK4AQFpiCD/AIEg/Tr8yQIOoaj70wPQ8ENFyPQjLEj2nVkw+r0gEPuNyoz1s\r\nZ3c9BfSlPRsZ0T3ATgE/FqLnPszXPD+1NeQ+HmWTPzVWED516V0+LHr+PWyLeT04C6U96o3pPVuk\r\ntD39Rx0+spThPbi+hD7T0pY+QeKQPvbjpD8UmZg/U3MEP3Zuiz7lJVQ/2rp7P3TlHUB/I6A/lF1y\r\nP0ldVj+6yqk/C06+QA0CoD/60ABB15KzQAJZiD/u6K0/RscMQLgX7z+iIuE/XfZAQP4ezkDr50dA\r\nEeIbQPwy5EBYAmY/yXQ4Pwb0+D+V3dY/qyE2P3cgxkC6hAJBw/rlP+xlBUBk3x1A9c+wPzZn8T8y\r\nY7RAZgu6QFblxEBQoYlAveOPP3l83j7ooQw/mEqgPwl4TUACr2A/CUb+P/ZZRUGakARA5RZ+QCXu\r\nL0AoWe8/sOpYPxtGaz+qCTRAcn6nP8YJIj8gDo1A3D0EQb7VuD9qGxBBCq6uQTjpKUAiZWJB/tpK\r\nQCE6nUBtxKo/pLPOPmjAcT/0iGU+M59YPkUHIz5cW1E+gHgTPVhaqT39L6k+wKs2Pw5vEj6EdCE+\r\n+ZRwPn9NBT6Pq9s+zGGlP9m4qT/BQtw//A4hP1ilNz7uEfs9eN4NPUxROD4qJm4/+aTLP7QYNz95\r\nflA/mOItQEATVz8A4JE/iaj/P4FGrT/xUek/SErqPie6/D4noOI/lx9UP5BgXT/XTFQ/EJOBQKki\r\nMkDwW1VAlr2ePxv110AIWoo+yoEgPvWj6j6kRE4+tOz8Pdji9jznf+k9ZRqZPmmPQj5TJps+wlqb\r\nPVEdfz16OjI+Okb4Pi7x/D1ikTs+KjtZPQAHxTxLaTU9+AUsPvnihD3lLZY9c0BvPktOCz2FIA0+\r\nEamrPSz+cTwPPdE9QlugPUd7RD6061E+JYAAPhw0ST6CH+498Lg1Peo8YDv/3AE9UkCjPHTAqDzn\r\nE3I8duR/OzS+DjzO4iw8FNWkOzOkyzusnAk8s0IBO1dSozvwf+Q7RfSgO+RByzuEg4E7WHOUO/CU\r\ngjtgY5M76kq2Oy/JgzvyPXY7Gj9vOwIfVju+6lY7gBZ5O/CZXDsvehU7e5EAOwbaUDsMQzE7hzov\r\nO5+v0Toa+CY7CmUuO+Q25DrE9CE7upoHO5xMDjsf/tg6ZFVOO0ysRTscyQA7RhYbO3uPCzspk+w6\r\n4FPYOkAX3Dot1fA6nYgEO6Zi/zoXz9g6r/rWOojbzTrOn8s6GbDVOsQxzjpY5806mmrQOh5AwzoK\r\nWMQ6Hji9Oty4uzp6bqw64dyuOlRwrjp+gK86KgKwOtnEsTr7K646Hs2rOp3epToy06k6LkiSOqDE\r\ngjrnz6865j7KOrZzljrEPnc6P2mXOgjJqzrgBqQ62cacOpGjlzrfkpc6A9uUOmunkjp+BH46fjlx\r\nOqeuhDq6tYY6DnCKOktcjTouxIE6euyFOk1YfTqq7oE6dl2DOi5dbDru+nw6FFJ6OmTScjoBom46\r\nVv12OqjbbDqq12w6XER5OtYMbjo+GGo6bNBkOtpnYDq0QV86FgRdOugfYzrYq1I6/+5dOnKIPTol\r\npzc6MQ86OsJwbTqkFW46l8IcOg4yPTpdxjw6VIyCOloxLTpWrYU67MFpOgycbDpAqWk6yH9UOtiF\r\nUDrtCEc6aLpFOm/4PTq0nUY6dDw+Ooo/YDpazCY6bigsOh3nNTpqY0I6gG1EOu53JzqwkSk6602H\r\nOqS7GToKVQY6i7lzOny/MTqOlUI6mcbsOSICQjpMWUs6aiRHOhp8Nzrw+yE62rscOghsHjogTBo6\r\nQ38vOoc/BTrkJBQ6AVwbOpKYEzor1i46Ab0rOm7CGTpVjCE64iUYOm8JJDo4YhQ6L0wWOiiaFzr0\r\nByA6RIMVOjDBAToYvhY6V+kIOuORJDpOHSE6nWcZOpNU/zkg4hE6V9kfOkYWCToqAgU6pdgVOl4N\r\nDjp6oQY6OPUJOuhxDjp2cAg6EJ0HOoReCDpuIQY6DxH9OebZBjoxrf85Kpj7OcFeCDpXfgQ6kLz+\r\nOfgaBTqMyAU62rv6OVCU+TkkQPg5iob6OWgY+TlEV/Y55GwBOuCX9Dn4i/k5Abn4OUpc8jlC5vQ5\r\nNKX2Od599Dl0TPE5ukvwOUIu7DncP/c5Pc3vOSCx7znhZOQ5QjDqOYTt4zly2OQ5kG/hObcv4jka\r\nYuQ5tpHmObZ04DlYjPQ5XUvhOXN84zlr+NQ5sD3dOa+P3DkWyN45LGnhOUaA3zk4y945parXOWtU\r\n0jnLoc45+ynTOVJ13zmEINE5AKbbOQ/gzTkMgs052zfMOTGZ1TnPvtM5tJjIOWOXxjma0ck5TBfK\r\nOZlw0jnqUtA5ZRHMOdZ7zDkDK9E58ZjJOUaX0DnaGcw5cJjPOYNXyjnLQ745eG2+OX8lvjkEn705\r\nZLvIOcpsvDkwdbg5CMS7OQOMsTl/WLg5e+u5OcW9vDmRMr05nVWvOdEDszkmCMk5jze7ORzctznG\r\nR605+pS6OagasjmBOrY5QHKwOdD7uTlMwro5oaa0OTJIszkZT7E5tSasOS/CsDm8QbU5JbSnOZRp\r\nrjkf76s5YSixOXh4rTmep6o5LdCsOfpGtDleHas59h60OUUOrDlTm685B3OrOWRqrTn4jaA5Poaz\r\nOZVMrTl3d685PKavOedopjlUQ6g5yWulOeXsrDly8qA5EkusOctCqTmnJaA5AuCkOeCVmjmgQaQ5\r\nyJqfOaY9pjlyb585bH6hOQhEnTn1sac5nAOfOQz9qjl/9545qAueOXwfnDlM/Z45gpmaOVEvnDkI\r\n4pc5VmGmOcd4oznTGaE5enaaOTAmkjn/yKI5opuXOWe0lzl7rpc5dvuaObZYkjmq+pY5aXebOVpM\r\nmTk2Wps5gICYORvIjTns8Js5Hq2UOeqOjTkBxpc5/dmZOZxSmzkGD5g5BQGROdHrkDk6Uog5uzed\r\nObcUkTlUooc5NySSOUlakjk/5pY5+IePOYFgmDl3F5Q54smLOYSiijkKRI05V5yROZuykDl4UYw5\r\nG9COOZwVjjlx0Y05HL+LOZhNlTloB4k5cFWOOfAXjzm51Y45qFuDOUJmjTl0TYo5fMeLObzehzly\r\nkYk5eKKJOd5xgTnqzJM5wuKEOTzvizk+mIE5XgOFOW5CgTmSl445fLCBOYXGiDkWt4g5ToaROcSH\r\nhTly2oU5LSOFOb91iTlcFIM5e2+COYFohjkVBn05ammEOXUOgDlC/Xc5S/V/OWEpgTm6D385YPuF\r\nOQ+HgTnYdYI5flaAOXV5gDksRYc5ko2COTjVdjneSHU53peBOdiueDlUeIM53kR/OfIEhjnO5Ho5\r\nv3R6Oa2EhDnEH345MnF/OUdUgDkWR4M5fPl7OcFTezmVNoA5chSAORNofznfH3451r5uOW0AiDkp\r\nD4E5fBZvOcN6bTlwCXo5b11vOaYUfzn35WY5nlB2Oa5EYzmL8IA5IkZ5ORIudjknnHM5l3ptOZM8\r\nbTl3p3g5cXRuOe5hejn6Pms57o9zOfdDdjmC1nk52GBfOSGDfDl98G85XOpnOUXUazmZNmQ5bbt3\r\nOegBYzmy+mk5WQNhOdwbcDnrNmE5XfxqOWPTbDn0NWE5pYtyOdX+Yjl+snI5vO5tOcsnYzl/d2Y5\r\nDvBmOcdcbjlITWw5YbplObzwgjngfmw5XOFtOUSBaDk4LmI5TPh0OeOwZDkaR3U56n5uOXpyazle\r\nt3Q5f5xqOfo0ZDkYtHE57hNuOZ04ZTkzFm056RZhOV6mZzl1AGQ5+jNcOT+8YDnpYGE5er5jOV6q\r\nVjmgXWA5NXljOWAZaDlrWGM5G09bOQkxZjl97Fc5B+pbOcMtbznYTVk5fo9mOV11ZDk5KVg5rGRq\r\nOcudWzm5kW85RQhYOWU2XjkvxlU5I95gOaGrVjmHoVY5gHdnOaSdTzlTKVU5ihdnOXYUXTkbr1s5\r\nVH5ZOQJRTTl0oVQ595xWOcvfdDnoe2I5Dc9kOQYXWDn+tks54CFnOWJPUDmPdVw5q5deOR1NVjns\r\nyE05Yk1nORGDUznBnGw5TB1cOdb4YTk290058AhrOYoBXTmS/1k5JuxkOb87Ujl0U1I5cS1kOfqW\r\nUTmFSGY5fuVTOZUMUTlLNVc5zo5iOUwvYDmVq1s5SBNPOXfvWDnk0ls5TydfOadBTDkePEo5/XVZ\r\nOdnSYznalVQ5JJpYOZcXVjn4M045u3tTOdDsWzmZHFI5sntbOWaIYDmiDVg5t2ZWOV+2Xzn8uFM5\r\nxu9WOe4fYjl0/U45FkRWOW94WzlIJlM57gZjOWIOUzmeaVw5dwxXOc3mUTnKn1o5b1RROQYOXznp\r\nX1g5LDJdOWYFajktEl05xyhUOahISzlPS1A5WnhZOTSKajmUhFo5lcFVOZq4WTmUQlA5xPBQOc8v\r\nWDlumlQ53YxEOYjeWjmLz1Y5jWtTOT0JWzmlLGE5PMpNOVFwSzlnHlw5oI9ZOXlFUzkGmEQ5VExo\r\nOVTsXjkLn1c5vadPOfT8VDmvVEM5YbFZOVx9XTnTM185yilbObJDVTlfkkg5/DxZOQARVDkQzFE+\r\n0iudQN6ygD4g7Ac/5g7gP1ZX3UA7FpNAHAcrQGFW9D8eS1c/Jy8yP09nPz/iKGg/njB9P0ZRxD6u\r\nsg4+TmVBPo0tDT7OVYg+ToiFPjvtOz7Y7wY/VOijP25Xjj/ikPw/QwYkP34XwD5tPrE/R4CYP2wz\r\nh0DIpHhB6usyQbiOTUFewiBCwJlcQdtSpEGo4I1Bi3yEQI4tVUCqHwBAKOPcP7eOqz93QM0/rh6p\r\nP8YGhkB1KgxABNnKPzLmij+so1ZA0/+hQJaah0A8E6g/jsmrP0+wGj+SVRI/7DJiPlntoD5o6qg/\r\nwneSPhSHCj8iiKA+qqvmPwg7qT/6/As/Vxo8QMGmMD93NqY/UvFrQY6J2D/Ne7A/5awFPyxAaD+4\r\nI1I/D9sCQJsPgT8eCqs/YOfOPpkryz+29gU/TpX4Pj5uED5b3+U93FmhPjnJzj3uRg0+lo+JPlWc\r\ncT7NR7o+qEu5Ptp9JT+1HxI+TjeNPpwScD4QP4U+FvQqP7PDhT71QoQ9BgxqPUK6FT7fylc9FlaK\r\nPTWUjT2PXug+UiRNPsRdVj1HRqk9OEvQPn0FID6iOD8+0R9ZPY45Mj/m32k+f0QsP2Z6uD1iXGo+\r\nGciNPfDWND6WVfw9lC+CP4L+wz99laE/0EALQB20EEAoHJs+4DaaP9IPFz/b5SY+AKICPprdUT9k\r\nVqg++Ia/PqPUvz4LdFg+GdkMPgT3nD38bXc9VgE0Pmzhhj27e3E+pkgqPp3cMz5rCAA+JPs/PnsB\r\nmj5+0PY9lfyXPuUPfD5C98E+cwLaP8d6yz6LxJs9e0Q9PukEuz1Y+Yg9TtBAPtpgIT4IUOo/ETCO\r\nQKJfaUDE6Jc/0BCCPxs8WD894SE+YtLvPUWztD77mQw/TO4jPxTLLT9jk+g+ijpqPkGeNz816z0/\r\n5JMpP0mS1D9YrgBAWmIIP8AgSD9OvzJAg6hqPvTA9DwQ0XI9CMsSPadWTD6vSAQ+43KjPWxndz0F\r\n9KU9GxnRPcBOAT8Wouc+zNc8P7U15D4eZZM/NVYQPnXpXT4sev49bIt5PTgLpT3qjek9W6S0Pf1H\r\nHT6ylOE9uL6EPtPSlj5B4pA+9uOkPxSZmD9TcwQ/dm6LPuUlVD/auns/dOUdQH8joD+UXXI/SV1W\r\nP7rKqT8LTr5ADQKgP/rQAEHXkrNAAlmIP+7orT9GxwxAuBfvP6Ii4T9d9kBA/h7OQOvnR0AR4htA\r\n/DLkQFgCZj/JdDg/BvT4P5Xd1j+rITY/dyDGQLqEAkHD+uU/7GUFQGTfHUD1z7A/NmfxPzJjtEBm\r\nC7pAVuXEQFChiUC9448/eXzePuihDD+YSqA/CXhNQAKvYD8JRv4/9llFQZqQBEDlFn5AJe4vQChZ\r\n7z+w6lg/G0ZrP6oJNEByfqc/xgkiPyAOjUDcPQRBvtW4P2obEEEKrq5BOOkpQCJlYkH+2kpAITqd\r\nQG3Eqj+ks84+aMBxP/SIZT4zn1g+RQcjPlxbUT6AeBM9WFqpPf0vqT7AqzY/Dm8SPoR0IT75lHA+\r\nf00FPo+r2z7MYaU/2bipP8FC3D/8DiE/WKU3Pu4R+z143g09TFE4Piombj/5pMs/tBg3P3l+UD+Y\r\n4i1AQBNXPwDgkT+JqP8/gUatP/FR6T9ISuo+J7r8Pieg4j+XH1Q/kGBdP9dMVD8Qk4FAqSIyQPBb\r\nVUCWvZ4/G/XXQAhaij7KgSA+9aPqPqRETj607Pw92OL2POd/6T1lGpk+aY9CPlMmmz7CWps9UR1/\r\nPXo6Mj46Rvg+LvH8PWKROz4qO1k9AAfFPEtpNT34BSw++eKEPeUtlj1zQG8+S04LPYUgDT4Rqas9\r\nLP5xPA890T1CW6A9R3tEPrTrUT4lgAA+HDRJPoIf7j3wuDU96jxgO//cAT1SQKM8dMCoPOcTcjx2\r\n5H87NL4OPM7iLDwU1aQ7M6TLO6ycCTyzQgE7V1KjO/B/5DtF9KA75EHLO4SDgTtYc5Q78JSCO2Bj\r\nkzvqSrY7L8mDO/I9djsaP287Ah9WO77qVjuAFnk78JlcOy96FTt7kQA7BtpQOwxDMTuHOi87n6/R\r\nOhr4JjsKZS475DbkOsT0ITu6mgc7nEwOOx/+2DpkVU47TKxFOxzJADtGFhs7e48LOymT7DrgU9g6\r\nQBfcOi3V8DqdiAQ7pmL/OhfP2Dqv+tY6iNvNOs6fyzoZsNU6xDHOOljnzTqaatA6HkDDOgpYxDoe\r\nOL063Li7OnpurDrh3K46VHCuOn6ArzoqArA62cSxOvsrrjoezas6nd6lOjLTqTouSJI6oMSCOufP\r\nrzrmPso6tnOWOsQ+dzo/aZc6CMmrOuAGpDrZxpw6kaOXOt+SlzoD25Q6a6eSOn4Efjp+OXE6p66E\r\nOrq1hjoOcIo6S1yNOi7EgTp67IU6TVh9OqrugTp2XYM6Ll1sOu76fDoUUno6ZNJyOgGibjpW/XY6\r\nqNtsOqrXbDpcRHk61gxuOj4Yajps0GQ62mdgOrRBXzoWBF066B9jOtirUjr/7l06cog9OiWnNzox\r\nDzo6wnBtOqQVbjqXwhw6DjI9Ol3GPDpUjII6WjEtOlathTrswWk6DJxsOkCpaTrIf1Q62IVQOu0I\r\nRzpoukU6b/g9OrSdRjp0PD46ij9gOlrMJjpuKCw6Hec1OmpjQjqAbUQ67ncnOrCRKTrrTYc6pLsZ\r\nOgpVBjqLuXM6fL8xOo6VQjqZxuw5IgJCOkxZSzpqJEc6Gnw3OvD7ITrauxw6CGweOiBMGjpDfy86\r\nhz8FOuQkFDoBXBs6kpgTOivWLjoBvSs6bsIZOlWMITriJRg6bwkkOjhiFDovTBY6KJoXOvQHIDpE\r\ngxU6MMEBOhi+FjpX6Qg645EkOk4dITqdZxk6k1T/OSDiETpX2R86RhYJOioCBTql2BU6Xg0OOnqh\r\nBjo49Qk66HEOOnZwCDoQnQc6hF4IOm4hBjoPEf055tkGOjGt/zkqmPs5wV4IOld+BDqQvP45+BoF\r\nOozIBTrau/o5UJT5OSRA+DmKhvo5aBj5OURX9jnkbAE64Jf0OfiL+TkBufg5SlzyOULm9Dk0pfY5\r\n3n30OXRM8Tm6S/A5Qi7sOdw/9zk9ze85ILHvOeFk5DlCMOo5hO3jOXLY5DmQb+E5ty/iORpi5Dm2\r\nkeY5tnTgOViM9DldS+E5c3zjOWv41DmwPd05r4/cORbI3jksaeE5RoDfOTjL3jmlqtc5a1TSOcuh\r\nzjn7KdM5UnXfOYQg0TkApts5D+DNOQyCzTnbN8w5MZnVOc++0zm0mMg5Y5fGOZrRyTlMF8o5mXDS\r\nOepS0DllEcw51nvMOQMr0TnxmMk5RpfQOdoZzDlwmM85g1fKOctDvjl4bb45fyW+OQSfvTlku8g5\r\nymy8OTB1uDkIxLs5A4yxOX9YuDl767k5xb28OZEyvTmdVa850QOzOSYIyTmPN7s5HNy3OcZHrTn6\r\nlLo5qBqyOYE6tjlAcrA50Pu5OUzCujmhprQ5MkizORlPsTm1Jqw5L8KwObxBtTkltKc5lGmuOR/v\r\nqzlhKLE5eHitOZ6nqjkt0Kw5+ka0OV4dqzn2HrQ5RQ6sOVObrzkHc6s5ZGqtOfiNoDk+hrM5lUyt\r\nOXd3rzk8pq8552imOVRDqDnJa6U55eysOXLyoDkSS6w5y0KpOacloDkC4KQ54JWaOaBBpDnImp85\r\npj2mOXJvnzlsfqE5CESdOfWxpzmcA585DP2qOX/3njmoC545fB+cOUz9njmCmZo5US+cOQjilzlW\r\nYaY5x3ijOdMZoTl6dpo5MCaSOf/Iojmim5c5Z7SXOXuulzl2+5o5tliSOar6ljlpd5s5WkyZOTZa\r\nmzmAgJg5G8iNOezwmzkerZQ56o6NOQHGlzn92Zk5nFKbOQYPmDkFAZE50euQOTpSiDm7N505txSR\r\nOVSihzk3JJI5SVqSOT/mljn4h485gWCYOXcXlDniyYs5hKKKOQpEjTlXnJE5m7KQOXhRjDkb0I45\r\nnBWOOXHRjTkcv4s5mE2VOWgHiTlwVY458BePObnVjjmoW4M5QmaNOXRNijl8x4s5vN6HOXKRiTl4\r\nook53nGBOerMkznC4oQ5PO+LOT6YgTleA4U5bkKBOZKXjjl8sIE5hcaIORa3iDlOhpE5xIeFOXLa\r\nhTktI4U5v3WJOVwUgzl7b4I5gWiGORUGfTlqaYQ5dQ6AOUL9dzlL9X85YSmBOboPfzlg+4U5D4eB\r\nOdh1gjl+VoA5dXmAOSxFhzmSjYI5ONV2Od5IdTnel4E52K54OVR4gzneRH858gSGOc7kejm/dHo5\r\nrYSEOcQffjkycX85R1SAORZHgzl8+Xs5wVN7OZU2gDlyFIA5E2h/Od8ffjnWvm45bQCIOSkPgTl8\r\nFm85w3ptOXAJejlvXW85phR/OfflZjmeUHY5rkRjOYvwgDkiRnk5Ei52OSecczmXem05kzxtOXen\r\neDlxdG457mF6Ofo+aznuj3M590N2OYLWeTnYYF85IYN8OX3wbzlc6mc5RdRrOZk2ZDltu3c56AFj\r\nObL6aTlZA2E53BtwOes2YTld/Go5Y9NsOfQ1YTmli3I51f5iOX6ycjm87m05yydjOX93ZjkO8GY5\r\nx1xuOUhNbDlhumU5vPCCOeB+bDlc4W05RIFoOTguYjlM+HQ547BkORpHdTnqfm45enJrOV63dDl/\r\nnGo5+jRkORi0cTnuE245nThlOTMWbTnpFmE5XqZnOXUAZDn6M1w5P7xgOelgYTl6vmM5XqpWOaBd\r\nYDk1eWM5YBloOWtYYzkbT1s5CTFmOX3sVzkH6ls5wy1vOdhNWTl+j2Y5XXVkOTkpWDmsZGo5y51b\r\nObmRbzlFCFg5ZTZeOS/GVTkj3mA5oatWOYehVjmAd2c5pJ1POVMpVTmKF2c5dhRdORuvWzlUflk5\r\nAlFNOXShVDn3nFY5y990Oeh7YjkNz2Q5BhdYOf62SzngIWc5Yk9QOY91XDmrl145HU1WOezITTli\r\nTWc5EYNTOcGcbDlMHVw51vhhOTb3TTnwCGs5igFdOZL/WTkm7GQ5vztSOXRTUjlxLWQ5+pZROYVI\r\nZjl+5VM5lQxROUs1VznOjmI5TC9gOZWrWzlIE085d+9YOeTSWzlPJ185p0FMOR48Sjn9dVk52dJj\r\nOdqVVDkkmlg5lxdWOfgzTjm7e1M50OxbOZkcUjmye1s5ZohgOaINWDm3ZlY5X7ZfOfy4UznG71Y5\r\n7h9iOXT9TjkWRFY5b3hbOUgmUznuBmM5Yg5TOZ5pXDl3DFc5zeZROcqfWjlvVFE5Bg5fOelfWDks\r\nMl05ZgVqOS0SXTnHKFQ5qEhLOU9LUDlaeFk5NIpqOZSEWjmVwVU5mrhZOZRCUDnE8FA5zy9YOW6a\r\nVDndjEQ5iN5aOYvPVjmNa1M5PQlbOaUsYTk8yk05UXBLOWceXDmgj1k5eUVTOQaYRDlUTGg5VOxe\r\nOQufVzm9p0859PxUOa9UQzlhsVk5XH1dOdMzXznKKVs5skNVOV+SSDn8PFk5ABFUOQ==",
                            "noiseTrainingType" : "default"
                          }
                        }
                    ],
                    "start" : 327,
                    "duration" : 246,
                    "mediaStart" : 926,
                    "mediaDuration" : 246,
                    "scalar" : 1,
                    "metadata" : {
                      "WinSubProjectDisplayName" : "",
                      "clipSpeedAttribute" : false
                    },
                    "animationTracks" : {

                    }
                  },
                  {
                    "id" : 70,
                    "_type" : "AMFile",
                    "src" : 1,
                    "trackNumber" : 1,
                    "attributes" : {
                      "ident" : "tower-columns-01",
                      "sampleRate" : 44100,
                      "bitDepth" : 16,
                      "gain" : 1.0,
                      "mixToMono" : false
                    },
                      "channelNumber" : "0,1",
                    "effects" : [
                        {
                          "effectName" : "NoiseReduction",
                          "category" : "categoryAudioEffects",
                          "parameters" : {
                            "denoiserAmount" : 20.0,
                            "denoiserThreshold" : 0.0,
                            "noiseProfile" : "EMxRPtIrnUDesoA+IOwHP+YO4D9WV91AOxaTQBwHK0BhVvQ/HktXPycvMj9PZz8/4ihoP54wfT9G\r\nUcQ+rrIOPk5lQT6NLQ0+zlWIPk6IhT477Ts+2O8GP1Tooz9uV44/4pD8P0MGJD9+F8A+bT6xP0eA\r\nmD9sM4dAyKR4QerrMkG4jk1BXsIgQsCZXEHbUqRBqOCNQYt8hECOLVVAqh8AQCjj3D+3jqs/d0DN\r\nP64eqT/GBoZAdSoMQATZyj8y5oo/rKNWQNP/oUCWmodAPBOoP47Jqz9PsBo/klUSP+wyYj5Z7aA+\r\naOqoP8J3kj4Uhwo/IoigPqqr5j8IO6k/+vwLP1caPEDBpjA/dzamP1Lxa0GOidg/zXuwP+WsBT8s\r\nQGg/uCNSPw/bAkCbD4E/HgqrP2Dnzj6ZK8s/tvYFP06V+D4+bhA+W9/lPdxZoT45yc497kYNPpaP\r\niT5VnHE+zUe6PqhLuT7afSU/tR8SPk43jT6cEnA+ED+FPhb0Kj+zw4U+9UKEPQYMaj1CuhU+38pX\r\nPRZWij01lI09j17oPlIkTT7EXVY9R0apPThL0D59BSA+ojg/PtEfWT2OOTI/5t9pPn9ELD9merg9\r\nYlxqPhnIjT3w1jQ+llX8PZQvgj+C/sM/fZWhP9BAC0AdtBBAKBybPuA2mj/SDxc/2+UmPgCiAj6a\r\n3VE/ZFaoPviGvz6j1L8+C3RYPhnZDD4E95w9/G13PVYBND5s4YY9u3txPqZIKj6d3DM+awgAPiT7\r\nPz57AZo+ftD2PZX8lz7lD3w+QvfBPnMC2j/Hess+i8SbPXtEPT7pBLs9WPmIPU7QQD7aYCE+CFDq\r\nPxEwjkCiX2lAxOiXP9AQgj8bPFg/PeEhPmLS7z1Fs7Q++5kMP0zuIz8Uyy0/Y5PoPoo6aj5Bnjc/\r\nNes9P+STKT9JktQ/WK4AQFpiCD/AIEg/Tr8yQIOoaj70wPQ8ENFyPQjLEj2nVkw+r0gEPuNyoz1s\r\nZ3c9BfSlPRsZ0T3ATgE/FqLnPszXPD+1NeQ+HmWTPzVWED516V0+LHr+PWyLeT04C6U96o3pPVuk\r\ntD39Rx0+spThPbi+hD7T0pY+QeKQPvbjpD8UmZg/U3MEP3Zuiz7lJVQ/2rp7P3TlHUB/I6A/lF1y\r\nP0ldVj+6yqk/C06+QA0CoD/60ABB15KzQAJZiD/u6K0/RscMQLgX7z+iIuE/XfZAQP4ezkDr50dA\r\nEeIbQPwy5EBYAmY/yXQ4Pwb0+D+V3dY/qyE2P3cgxkC6hAJBw/rlP+xlBUBk3x1A9c+wPzZn8T8y\r\nY7RAZgu6QFblxEBQoYlAveOPP3l83j7ooQw/mEqgPwl4TUACr2A/CUb+P/ZZRUGakARA5RZ+QCXu\r\nL0AoWe8/sOpYPxtGaz+qCTRAcn6nP8YJIj8gDo1A3D0EQb7VuD9qGxBBCq6uQTjpKUAiZWJB/tpK\r\nQCE6nUBtxKo/pLPOPmjAcT/0iGU+M59YPkUHIz5cW1E+gHgTPVhaqT39L6k+wKs2Pw5vEj6EdCE+\r\n+ZRwPn9NBT6Pq9s+zGGlP9m4qT/BQtw//A4hP1ilNz7uEfs9eN4NPUxROD4qJm4/+aTLP7QYNz95\r\nflA/mOItQEATVz8A4JE/iaj/P4FGrT/xUek/SErqPie6/D4noOI/lx9UP5BgXT/XTFQ/EJOBQKki\r\nMkDwW1VAlr2ePxv110AIWoo+yoEgPvWj6j6kRE4+tOz8Pdji9jznf+k9ZRqZPmmPQj5TJps+wlqb\r\nPVEdfz16OjI+Okb4Pi7x/D1ikTs+KjtZPQAHxTxLaTU9+AUsPvnihD3lLZY9c0BvPktOCz2FIA0+\r\nEamrPSz+cTwPPdE9QlugPUd7RD6061E+JYAAPhw0ST6CH+498Lg1Peo8YDv/3AE9UkCjPHTAqDzn\r\nE3I8duR/OzS+DjzO4iw8FNWkOzOkyzusnAk8s0IBO1dSozvwf+Q7RfSgO+RByzuEg4E7WHOUO/CU\r\ngjtgY5M76kq2Oy/JgzvyPXY7Gj9vOwIfVju+6lY7gBZ5O/CZXDsvehU7e5EAOwbaUDsMQzE7hzov\r\nO5+v0Toa+CY7CmUuO+Q25DrE9CE7upoHO5xMDjsf/tg6ZFVOO0ysRTscyQA7RhYbO3uPCzspk+w6\r\n4FPYOkAX3Dot1fA6nYgEO6Zi/zoXz9g6r/rWOojbzTrOn8s6GbDVOsQxzjpY5806mmrQOh5AwzoK\r\nWMQ6Hji9Oty4uzp6bqw64dyuOlRwrjp+gK86KgKwOtnEsTr7K646Hs2rOp3epToy06k6LkiSOqDE\r\ngjrnz6865j7KOrZzljrEPnc6P2mXOgjJqzrgBqQ62cacOpGjlzrfkpc6A9uUOmunkjp+BH46fjlx\r\nOqeuhDq6tYY6DnCKOktcjTouxIE6euyFOk1YfTqq7oE6dl2DOi5dbDru+nw6FFJ6OmTScjoBom46\r\nVv12OqjbbDqq12w6XER5OtYMbjo+GGo6bNBkOtpnYDq0QV86FgRdOugfYzrYq1I6/+5dOnKIPTol\r\npzc6MQ86OsJwbTqkFW46l8IcOg4yPTpdxjw6VIyCOloxLTpWrYU67MFpOgycbDpAqWk6yH9UOtiF\r\nUDrtCEc6aLpFOm/4PTq0nUY6dDw+Ooo/YDpazCY6bigsOh3nNTpqY0I6gG1EOu53JzqwkSk6602H\r\nOqS7GToKVQY6i7lzOny/MTqOlUI6mcbsOSICQjpMWUs6aiRHOhp8Nzrw+yE62rscOghsHjogTBo6\r\nQ38vOoc/BTrkJBQ6AVwbOpKYEzor1i46Ab0rOm7CGTpVjCE64iUYOm8JJDo4YhQ6L0wWOiiaFzr0\r\nByA6RIMVOjDBAToYvhY6V+kIOuORJDpOHSE6nWcZOpNU/zkg4hE6V9kfOkYWCToqAgU6pdgVOl4N\r\nDjp6oQY6OPUJOuhxDjp2cAg6EJ0HOoReCDpuIQY6DxH9OebZBjoxrf85Kpj7OcFeCDpXfgQ6kLz+\r\nOfgaBTqMyAU62rv6OVCU+TkkQPg5iob6OWgY+TlEV/Y55GwBOuCX9Dn4i/k5Abn4OUpc8jlC5vQ5\r\nNKX2Od599Dl0TPE5ukvwOUIu7DncP/c5Pc3vOSCx7znhZOQ5QjDqOYTt4zly2OQ5kG/hObcv4jka\r\nYuQ5tpHmObZ04DlYjPQ5XUvhOXN84zlr+NQ5sD3dOa+P3DkWyN45LGnhOUaA3zk4y945parXOWtU\r\n0jnLoc45+ynTOVJ13zmEINE5AKbbOQ/gzTkMgs052zfMOTGZ1TnPvtM5tJjIOWOXxjma0ck5TBfK\r\nOZlw0jnqUtA5ZRHMOdZ7zDkDK9E58ZjJOUaX0DnaGcw5cJjPOYNXyjnLQ745eG2+OX8lvjkEn705\r\nZLvIOcpsvDkwdbg5CMS7OQOMsTl/WLg5e+u5OcW9vDmRMr05nVWvOdEDszkmCMk5jze7ORzctznG\r\nR605+pS6OagasjmBOrY5QHKwOdD7uTlMwro5oaa0OTJIszkZT7E5tSasOS/CsDm8QbU5JbSnOZRp\r\nrjkf76s5YSixOXh4rTmep6o5LdCsOfpGtDleHas59h60OUUOrDlTm685B3OrOWRqrTn4jaA5Poaz\r\nOZVMrTl3d685PKavOedopjlUQ6g5yWulOeXsrDly8qA5EkusOctCqTmnJaA5AuCkOeCVmjmgQaQ5\r\nyJqfOaY9pjlyb585bH6hOQhEnTn1sac5nAOfOQz9qjl/9545qAueOXwfnDlM/Z45gpmaOVEvnDkI\r\n4pc5VmGmOcd4oznTGaE5enaaOTAmkjn/yKI5opuXOWe0lzl7rpc5dvuaObZYkjmq+pY5aXebOVpM\r\nmTk2Wps5gICYORvIjTns8Js5Hq2UOeqOjTkBxpc5/dmZOZxSmzkGD5g5BQGROdHrkDk6Uog5uzed\r\nObcUkTlUooc5NySSOUlakjk/5pY5+IePOYFgmDl3F5Q54smLOYSiijkKRI05V5yROZuykDl4UYw5\r\nG9COOZwVjjlx0Y05HL+LOZhNlTloB4k5cFWOOfAXjzm51Y45qFuDOUJmjTl0TYo5fMeLObzehzly\r\nkYk5eKKJOd5xgTnqzJM5wuKEOTzvizk+mIE5XgOFOW5CgTmSl445fLCBOYXGiDkWt4g5ToaROcSH\r\nhTly2oU5LSOFOb91iTlcFIM5e2+COYFohjkVBn05ammEOXUOgDlC/Xc5S/V/OWEpgTm6D385YPuF\r\nOQ+HgTnYdYI5flaAOXV5gDksRYc5ko2COTjVdjneSHU53peBOdiueDlUeIM53kR/OfIEhjnO5Ho5\r\nv3R6Oa2EhDnEH345MnF/OUdUgDkWR4M5fPl7OcFTezmVNoA5chSAORNofznfH3451r5uOW0AiDkp\r\nD4E5fBZvOcN6bTlwCXo5b11vOaYUfzn35WY5nlB2Oa5EYzmL8IA5IkZ5ORIudjknnHM5l3ptOZM8\r\nbTl3p3g5cXRuOe5hejn6Pms57o9zOfdDdjmC1nk52GBfOSGDfDl98G85XOpnOUXUazmZNmQ5bbt3\r\nOegBYzmy+mk5WQNhOdwbcDnrNmE5XfxqOWPTbDn0NWE5pYtyOdX+Yjl+snI5vO5tOcsnYzl/d2Y5\r\nDvBmOcdcbjlITWw5YbplObzwgjngfmw5XOFtOUSBaDk4LmI5TPh0OeOwZDkaR3U56n5uOXpyazle\r\nt3Q5f5xqOfo0ZDkYtHE57hNuOZ04ZTkzFm056RZhOV6mZzl1AGQ5+jNcOT+8YDnpYGE5er5jOV6q\r\nVjmgXWA5NXljOWAZaDlrWGM5G09bOQkxZjl97Fc5B+pbOcMtbznYTVk5fo9mOV11ZDk5KVg5rGRq\r\nOcudWzm5kW85RQhYOWU2XjkvxlU5I95gOaGrVjmHoVY5gHdnOaSdTzlTKVU5ihdnOXYUXTkbr1s5\r\nVH5ZOQJRTTl0oVQ595xWOcvfdDnoe2I5Dc9kOQYXWDn+tks54CFnOWJPUDmPdVw5q5deOR1NVjns\r\nyE05Yk1nORGDUznBnGw5TB1cOdb4YTk290058AhrOYoBXTmS/1k5JuxkOb87Ujl0U1I5cS1kOfqW\r\nUTmFSGY5fuVTOZUMUTlLNVc5zo5iOUwvYDmVq1s5SBNPOXfvWDnk0ls5TydfOadBTDkePEo5/XVZ\r\nOdnSYznalVQ5JJpYOZcXVjn4M045u3tTOdDsWzmZHFI5sntbOWaIYDmiDVg5t2ZWOV+2Xzn8uFM5\r\nxu9WOe4fYjl0/U45FkRWOW94WzlIJlM57gZjOWIOUzmeaVw5dwxXOc3mUTnKn1o5b1RROQYOXznp\r\nX1g5LDJdOWYFajktEl05xyhUOahISzlPS1A5WnhZOTSKajmUhFo5lcFVOZq4WTmUQlA5xPBQOc8v\r\nWDlumlQ53YxEOYjeWjmLz1Y5jWtTOT0JWzmlLGE5PMpNOVFwSzlnHlw5oI9ZOXlFUzkGmEQ5VExo\r\nOVTsXjkLn1c5vadPOfT8VDmvVEM5YbFZOVx9XTnTM185yilbObJDVTlfkkg5/DxZOQARVDkQzFE+\r\n0iudQN6ygD4g7Ac/5g7gP1ZX3UA7FpNAHAcrQGFW9D8eS1c/Jy8yP09nPz/iKGg/njB9P0ZRxD6u\r\nsg4+TmVBPo0tDT7OVYg+ToiFPjvtOz7Y7wY/VOijP25Xjj/ikPw/QwYkP34XwD5tPrE/R4CYP2wz\r\nh0DIpHhB6usyQbiOTUFewiBCwJlcQdtSpEGo4I1Bi3yEQI4tVUCqHwBAKOPcP7eOqz93QM0/rh6p\r\nP8YGhkB1KgxABNnKPzLmij+so1ZA0/+hQJaah0A8E6g/jsmrP0+wGj+SVRI/7DJiPlntoD5o6qg/\r\nwneSPhSHCj8iiKA+qqvmPwg7qT/6/As/Vxo8QMGmMD93NqY/UvFrQY6J2D/Ne7A/5awFPyxAaD+4\r\nI1I/D9sCQJsPgT8eCqs/YOfOPpkryz+29gU/TpX4Pj5uED5b3+U93FmhPjnJzj3uRg0+lo+JPlWc\r\ncT7NR7o+qEu5Ptp9JT+1HxI+TjeNPpwScD4QP4U+FvQqP7PDhT71QoQ9BgxqPUK6FT7fylc9FlaK\r\nPTWUjT2PXug+UiRNPsRdVj1HRqk9OEvQPn0FID6iOD8+0R9ZPY45Mj/m32k+f0QsP2Z6uD1iXGo+\r\nGciNPfDWND6WVfw9lC+CP4L+wz99laE/0EALQB20EEAoHJs+4DaaP9IPFz/b5SY+AKICPprdUT9k\r\nVqg++Ia/PqPUvz4LdFg+GdkMPgT3nD38bXc9VgE0Pmzhhj27e3E+pkgqPp3cMz5rCAA+JPs/PnsB\r\nmj5+0PY9lfyXPuUPfD5C98E+cwLaP8d6yz6LxJs9e0Q9PukEuz1Y+Yg9TtBAPtpgIT4IUOo/ETCO\r\nQKJfaUDE6Jc/0BCCPxs8WD894SE+YtLvPUWztD77mQw/TO4jPxTLLT9jk+g+ijpqPkGeNz816z0/\r\n5JMpP0mS1D9YrgBAWmIIP8AgSD9OvzJAg6hqPvTA9DwQ0XI9CMsSPadWTD6vSAQ+43KjPWxndz0F\r\n9KU9GxnRPcBOAT8Wouc+zNc8P7U15D4eZZM/NVYQPnXpXT4sev49bIt5PTgLpT3qjek9W6S0Pf1H\r\nHT6ylOE9uL6EPtPSlj5B4pA+9uOkPxSZmD9TcwQ/dm6LPuUlVD/auns/dOUdQH8joD+UXXI/SV1W\r\nP7rKqT8LTr5ADQKgP/rQAEHXkrNAAlmIP+7orT9GxwxAuBfvP6Ii4T9d9kBA/h7OQOvnR0AR4htA\r\n/DLkQFgCZj/JdDg/BvT4P5Xd1j+rITY/dyDGQLqEAkHD+uU/7GUFQGTfHUD1z7A/NmfxPzJjtEBm\r\nC7pAVuXEQFChiUC9448/eXzePuihDD+YSqA/CXhNQAKvYD8JRv4/9llFQZqQBEDlFn5AJe4vQChZ\r\n7z+w6lg/G0ZrP6oJNEByfqc/xgkiPyAOjUDcPQRBvtW4P2obEEEKrq5BOOkpQCJlYkH+2kpAITqd\r\nQG3Eqj+ks84+aMBxP/SIZT4zn1g+RQcjPlxbUT6AeBM9WFqpPf0vqT7AqzY/Dm8SPoR0IT75lHA+\r\nf00FPo+r2z7MYaU/2bipP8FC3D/8DiE/WKU3Pu4R+z143g09TFE4Piombj/5pMs/tBg3P3l+UD+Y\r\n4i1AQBNXPwDgkT+JqP8/gUatP/FR6T9ISuo+J7r8Pieg4j+XH1Q/kGBdP9dMVD8Qk4FAqSIyQPBb\r\nVUCWvZ4/G/XXQAhaij7KgSA+9aPqPqRETj607Pw92OL2POd/6T1lGpk+aY9CPlMmmz7CWps9UR1/\r\nPXo6Mj46Rvg+LvH8PWKROz4qO1k9AAfFPEtpNT34BSw++eKEPeUtlj1zQG8+S04LPYUgDT4Rqas9\r\nLP5xPA890T1CW6A9R3tEPrTrUT4lgAA+HDRJPoIf7j3wuDU96jxgO//cAT1SQKM8dMCoPOcTcjx2\r\n5H87NL4OPM7iLDwU1aQ7M6TLO6ycCTyzQgE7V1KjO/B/5DtF9KA75EHLO4SDgTtYc5Q78JSCO2Bj\r\nkzvqSrY7L8mDO/I9djsaP287Ah9WO77qVjuAFnk78JlcOy96FTt7kQA7BtpQOwxDMTuHOi87n6/R\r\nOhr4JjsKZS475DbkOsT0ITu6mgc7nEwOOx/+2DpkVU47TKxFOxzJADtGFhs7e48LOymT7DrgU9g6\r\nQBfcOi3V8DqdiAQ7pmL/OhfP2Dqv+tY6iNvNOs6fyzoZsNU6xDHOOljnzTqaatA6HkDDOgpYxDoe\r\nOL063Li7OnpurDrh3K46VHCuOn6ArzoqArA62cSxOvsrrjoezas6nd6lOjLTqTouSJI6oMSCOufP\r\nrzrmPso6tnOWOsQ+dzo/aZc6CMmrOuAGpDrZxpw6kaOXOt+SlzoD25Q6a6eSOn4Efjp+OXE6p66E\r\nOrq1hjoOcIo6S1yNOi7EgTp67IU6TVh9OqrugTp2XYM6Ll1sOu76fDoUUno6ZNJyOgGibjpW/XY6\r\nqNtsOqrXbDpcRHk61gxuOj4Yajps0GQ62mdgOrRBXzoWBF066B9jOtirUjr/7l06cog9OiWnNzox\r\nDzo6wnBtOqQVbjqXwhw6DjI9Ol3GPDpUjII6WjEtOlathTrswWk6DJxsOkCpaTrIf1Q62IVQOu0I\r\nRzpoukU6b/g9OrSdRjp0PD46ij9gOlrMJjpuKCw6Hec1OmpjQjqAbUQ67ncnOrCRKTrrTYc6pLsZ\r\nOgpVBjqLuXM6fL8xOo6VQjqZxuw5IgJCOkxZSzpqJEc6Gnw3OvD7ITrauxw6CGweOiBMGjpDfy86\r\nhz8FOuQkFDoBXBs6kpgTOivWLjoBvSs6bsIZOlWMITriJRg6bwkkOjhiFDovTBY6KJoXOvQHIDpE\r\ngxU6MMEBOhi+FjpX6Qg645EkOk4dITqdZxk6k1T/OSDiETpX2R86RhYJOioCBTql2BU6Xg0OOnqh\r\nBjo49Qk66HEOOnZwCDoQnQc6hF4IOm4hBjoPEf055tkGOjGt/zkqmPs5wV4IOld+BDqQvP45+BoF\r\nOozIBTrau/o5UJT5OSRA+DmKhvo5aBj5OURX9jnkbAE64Jf0OfiL+TkBufg5SlzyOULm9Dk0pfY5\r\n3n30OXRM8Tm6S/A5Qi7sOdw/9zk9ze85ILHvOeFk5DlCMOo5hO3jOXLY5DmQb+E5ty/iORpi5Dm2\r\nkeY5tnTgOViM9DldS+E5c3zjOWv41DmwPd05r4/cORbI3jksaeE5RoDfOTjL3jmlqtc5a1TSOcuh\r\nzjn7KdM5UnXfOYQg0TkApts5D+DNOQyCzTnbN8w5MZnVOc++0zm0mMg5Y5fGOZrRyTlMF8o5mXDS\r\nOepS0DllEcw51nvMOQMr0TnxmMk5RpfQOdoZzDlwmM85g1fKOctDvjl4bb45fyW+OQSfvTlku8g5\r\nymy8OTB1uDkIxLs5A4yxOX9YuDl767k5xb28OZEyvTmdVa850QOzOSYIyTmPN7s5HNy3OcZHrTn6\r\nlLo5qBqyOYE6tjlAcrA50Pu5OUzCujmhprQ5MkizORlPsTm1Jqw5L8KwObxBtTkltKc5lGmuOR/v\r\nqzlhKLE5eHitOZ6nqjkt0Kw5+ka0OV4dqzn2HrQ5RQ6sOVObrzkHc6s5ZGqtOfiNoDk+hrM5lUyt\r\nOXd3rzk8pq8552imOVRDqDnJa6U55eysOXLyoDkSS6w5y0KpOacloDkC4KQ54JWaOaBBpDnImp85\r\npj2mOXJvnzlsfqE5CESdOfWxpzmcA585DP2qOX/3njmoC545fB+cOUz9njmCmZo5US+cOQjilzlW\r\nYaY5x3ijOdMZoTl6dpo5MCaSOf/Iojmim5c5Z7SXOXuulzl2+5o5tliSOar6ljlpd5s5WkyZOTZa\r\nmzmAgJg5G8iNOezwmzkerZQ56o6NOQHGlzn92Zk5nFKbOQYPmDkFAZE50euQOTpSiDm7N505txSR\r\nOVSihzk3JJI5SVqSOT/mljn4h485gWCYOXcXlDniyYs5hKKKOQpEjTlXnJE5m7KQOXhRjDkb0I45\r\nnBWOOXHRjTkcv4s5mE2VOWgHiTlwVY458BePObnVjjmoW4M5QmaNOXRNijl8x4s5vN6HOXKRiTl4\r\nook53nGBOerMkznC4oQ5PO+LOT6YgTleA4U5bkKBOZKXjjl8sIE5hcaIORa3iDlOhpE5xIeFOXLa\r\nhTktI4U5v3WJOVwUgzl7b4I5gWiGORUGfTlqaYQ5dQ6AOUL9dzlL9X85YSmBOboPfzlg+4U5D4eB\r\nOdh1gjl+VoA5dXmAOSxFhzmSjYI5ONV2Od5IdTnel4E52K54OVR4gzneRH858gSGOc7kejm/dHo5\r\nrYSEOcQffjkycX85R1SAORZHgzl8+Xs5wVN7OZU2gDlyFIA5E2h/Od8ffjnWvm45bQCIOSkPgTl8\r\nFm85w3ptOXAJejlvXW85phR/OfflZjmeUHY5rkRjOYvwgDkiRnk5Ei52OSecczmXem05kzxtOXen\r\neDlxdG457mF6Ofo+aznuj3M590N2OYLWeTnYYF85IYN8OX3wbzlc6mc5RdRrOZk2ZDltu3c56AFj\r\nObL6aTlZA2E53BtwOes2YTld/Go5Y9NsOfQ1YTmli3I51f5iOX6ycjm87m05yydjOX93ZjkO8GY5\r\nx1xuOUhNbDlhumU5vPCCOeB+bDlc4W05RIFoOTguYjlM+HQ547BkORpHdTnqfm45enJrOV63dDl/\r\nnGo5+jRkORi0cTnuE245nThlOTMWbTnpFmE5XqZnOXUAZDn6M1w5P7xgOelgYTl6vmM5XqpWOaBd\r\nYDk1eWM5YBloOWtYYzkbT1s5CTFmOX3sVzkH6ls5wy1vOdhNWTl+j2Y5XXVkOTkpWDmsZGo5y51b\r\nObmRbzlFCFg5ZTZeOS/GVTkj3mA5oatWOYehVjmAd2c5pJ1POVMpVTmKF2c5dhRdORuvWzlUflk5\r\nAlFNOXShVDn3nFY5y990Oeh7YjkNz2Q5BhdYOf62SzngIWc5Yk9QOY91XDmrl145HU1WOezITTli\r\nTWc5EYNTOcGcbDlMHVw51vhhOTb3TTnwCGs5igFdOZL/WTkm7GQ5vztSOXRTUjlxLWQ5+pZROYVI\r\nZjl+5VM5lQxROUs1VznOjmI5TC9gOZWrWzlIE085d+9YOeTSWzlPJ185p0FMOR48Sjn9dVk52dJj\r\nOdqVVDkkmlg5lxdWOfgzTjm7e1M50OxbOZkcUjmye1s5ZohgOaINWDm3ZlY5X7ZfOfy4UznG71Y5\r\n7h9iOXT9TjkWRFY5b3hbOUgmUznuBmM5Yg5TOZ5pXDl3DFc5zeZROcqfWjlvVFE5Bg5fOelfWDks\r\nMl05ZgVqOS0SXTnHKFQ5qEhLOU9LUDlaeFk5NIpqOZSEWjmVwVU5mrhZOZRCUDnE8FA5zy9YOW6a\r\nVDndjEQ5iN5aOYvPVjmNa1M5PQlbOaUsYTk8yk05UXBLOWceXDmgj1k5eUVTOQaYRDlUTGg5VOxe\r\nOQufVzm9p0859PxUOa9UQzlhsVk5XH1dOdMzXznKKVs5skNVOV+SSDn8PFk5ABFUOQ==",
                            "noiseTrainingType" : "default"
                          }
                        }
                    ],
                    "start" : 573,
                    "duration" : 362,
                    "mediaStart" : 2417,
                    "mediaDuration" : 362,
                    "scalar" : 1,
                    "metadata" : {
                      "WinSubProjectDisplayName" : "",
                      "clipSpeedAttribute" : false
                    },
                    "animationTracks" : {

                    }
                  },
                  {
                    "id" : 71,
                    "_type" : "AMFile",
                    "src" : 1,
                    "trackNumber" : 1,
                    "attributes" : {
                      "ident" : "tower-columns-01",
                      "sampleRate" : 44100,
                      "bitDepth" : 16,
                      "gain" : 1.0,
                      "mixToMono" : false
                    },
                      "channelNumber" : "0,1",
                    "effects" : [
                        {
                          "effectName" : "NoiseReduction",
                          "category" : "categoryAudioEffects",
                          "parameters" : {
                            "denoiserAmount" : 20.0,
                            "denoiserThreshold" : 0.0,
                            "noiseProfile" : "EMxRPtIrnUDesoA+IOwHP+YO4D9WV91AOxaTQBwHK0BhVvQ/HktXPycvMj9PZz8/4ihoP54wfT9G\r\nUcQ+rrIOPk5lQT6NLQ0+zlWIPk6IhT477Ts+2O8GP1Tooz9uV44/4pD8P0MGJD9+F8A+bT6xP0eA\r\nmD9sM4dAyKR4QerrMkG4jk1BXsIgQsCZXEHbUqRBqOCNQYt8hECOLVVAqh8AQCjj3D+3jqs/d0DN\r\nP64eqT/GBoZAdSoMQATZyj8y5oo/rKNWQNP/oUCWmodAPBOoP47Jqz9PsBo/klUSP+wyYj5Z7aA+\r\naOqoP8J3kj4Uhwo/IoigPqqr5j8IO6k/+vwLP1caPEDBpjA/dzamP1Lxa0GOidg/zXuwP+WsBT8s\r\nQGg/uCNSPw/bAkCbD4E/HgqrP2Dnzj6ZK8s/tvYFP06V+D4+bhA+W9/lPdxZoT45yc497kYNPpaP\r\niT5VnHE+zUe6PqhLuT7afSU/tR8SPk43jT6cEnA+ED+FPhb0Kj+zw4U+9UKEPQYMaj1CuhU+38pX\r\nPRZWij01lI09j17oPlIkTT7EXVY9R0apPThL0D59BSA+ojg/PtEfWT2OOTI/5t9pPn9ELD9merg9\r\nYlxqPhnIjT3w1jQ+llX8PZQvgj+C/sM/fZWhP9BAC0AdtBBAKBybPuA2mj/SDxc/2+UmPgCiAj6a\r\n3VE/ZFaoPviGvz6j1L8+C3RYPhnZDD4E95w9/G13PVYBND5s4YY9u3txPqZIKj6d3DM+awgAPiT7\r\nPz57AZo+ftD2PZX8lz7lD3w+QvfBPnMC2j/Hess+i8SbPXtEPT7pBLs9WPmIPU7QQD7aYCE+CFDq\r\nPxEwjkCiX2lAxOiXP9AQgj8bPFg/PeEhPmLS7z1Fs7Q++5kMP0zuIz8Uyy0/Y5PoPoo6aj5Bnjc/\r\nNes9P+STKT9JktQ/WK4AQFpiCD/AIEg/Tr8yQIOoaj70wPQ8ENFyPQjLEj2nVkw+r0gEPuNyoz1s\r\nZ3c9BfSlPRsZ0T3ATgE/FqLnPszXPD+1NeQ+HmWTPzVWED516V0+LHr+PWyLeT04C6U96o3pPVuk\r\ntD39Rx0+spThPbi+hD7T0pY+QeKQPvbjpD8UmZg/U3MEP3Zuiz7lJVQ/2rp7P3TlHUB/I6A/lF1y\r\nP0ldVj+6yqk/C06+QA0CoD/60ABB15KzQAJZiD/u6K0/RscMQLgX7z+iIuE/XfZAQP4ezkDr50dA\r\nEeIbQPwy5EBYAmY/yXQ4Pwb0+D+V3dY/qyE2P3cgxkC6hAJBw/rlP+xlBUBk3x1A9c+wPzZn8T8y\r\nY7RAZgu6QFblxEBQoYlAveOPP3l83j7ooQw/mEqgPwl4TUACr2A/CUb+P/ZZRUGakARA5RZ+QCXu\r\nL0AoWe8/sOpYPxtGaz+qCTRAcn6nP8YJIj8gDo1A3D0EQb7VuD9qGxBBCq6uQTjpKUAiZWJB/tpK\r\nQCE6nUBtxKo/pLPOPmjAcT/0iGU+M59YPkUHIz5cW1E+gHgTPVhaqT39L6k+wKs2Pw5vEj6EdCE+\r\n+ZRwPn9NBT6Pq9s+zGGlP9m4qT/BQtw//A4hP1ilNz7uEfs9eN4NPUxROD4qJm4/+aTLP7QYNz95\r\nflA/mOItQEATVz8A4JE/iaj/P4FGrT/xUek/SErqPie6/D4noOI/lx9UP5BgXT/XTFQ/EJOBQKki\r\nMkDwW1VAlr2ePxv110AIWoo+yoEgPvWj6j6kRE4+tOz8Pdji9jznf+k9ZRqZPmmPQj5TJps+wlqb\r\nPVEdfz16OjI+Okb4Pi7x/D1ikTs+KjtZPQAHxTxLaTU9+AUsPvnihD3lLZY9c0BvPktOCz2FIA0+\r\nEamrPSz+cTwPPdE9QlugPUd7RD6061E+JYAAPhw0ST6CH+498Lg1Peo8YDv/3AE9UkCjPHTAqDzn\r\nE3I8duR/OzS+DjzO4iw8FNWkOzOkyzusnAk8s0IBO1dSozvwf+Q7RfSgO+RByzuEg4E7WHOUO/CU\r\ngjtgY5M76kq2Oy/JgzvyPXY7Gj9vOwIfVju+6lY7gBZ5O/CZXDsvehU7e5EAOwbaUDsMQzE7hzov\r\nO5+v0Toa+CY7CmUuO+Q25DrE9CE7upoHO5xMDjsf/tg6ZFVOO0ysRTscyQA7RhYbO3uPCzspk+w6\r\n4FPYOkAX3Dot1fA6nYgEO6Zi/zoXz9g6r/rWOojbzTrOn8s6GbDVOsQxzjpY5806mmrQOh5AwzoK\r\nWMQ6Hji9Oty4uzp6bqw64dyuOlRwrjp+gK86KgKwOtnEsTr7K646Hs2rOp3epToy06k6LkiSOqDE\r\ngjrnz6865j7KOrZzljrEPnc6P2mXOgjJqzrgBqQ62cacOpGjlzrfkpc6A9uUOmunkjp+BH46fjlx\r\nOqeuhDq6tYY6DnCKOktcjTouxIE6euyFOk1YfTqq7oE6dl2DOi5dbDru+nw6FFJ6OmTScjoBom46\r\nVv12OqjbbDqq12w6XER5OtYMbjo+GGo6bNBkOtpnYDq0QV86FgRdOugfYzrYq1I6/+5dOnKIPTol\r\npzc6MQ86OsJwbTqkFW46l8IcOg4yPTpdxjw6VIyCOloxLTpWrYU67MFpOgycbDpAqWk6yH9UOtiF\r\nUDrtCEc6aLpFOm/4PTq0nUY6dDw+Ooo/YDpazCY6bigsOh3nNTpqY0I6gG1EOu53JzqwkSk6602H\r\nOqS7GToKVQY6i7lzOny/MTqOlUI6mcbsOSICQjpMWUs6aiRHOhp8Nzrw+yE62rscOghsHjogTBo6\r\nQ38vOoc/BTrkJBQ6AVwbOpKYEzor1i46Ab0rOm7CGTpVjCE64iUYOm8JJDo4YhQ6L0wWOiiaFzr0\r\nByA6RIMVOjDBAToYvhY6V+kIOuORJDpOHSE6nWcZOpNU/zkg4hE6V9kfOkYWCToqAgU6pdgVOl4N\r\nDjp6oQY6OPUJOuhxDjp2cAg6EJ0HOoReCDpuIQY6DxH9OebZBjoxrf85Kpj7OcFeCDpXfgQ6kLz+\r\nOfgaBTqMyAU62rv6OVCU+TkkQPg5iob6OWgY+TlEV/Y55GwBOuCX9Dn4i/k5Abn4OUpc8jlC5vQ5\r\nNKX2Od599Dl0TPE5ukvwOUIu7DncP/c5Pc3vOSCx7znhZOQ5QjDqOYTt4zly2OQ5kG/hObcv4jka\r\nYuQ5tpHmObZ04DlYjPQ5XUvhOXN84zlr+NQ5sD3dOa+P3DkWyN45LGnhOUaA3zk4y945parXOWtU\r\n0jnLoc45+ynTOVJ13zmEINE5AKbbOQ/gzTkMgs052zfMOTGZ1TnPvtM5tJjIOWOXxjma0ck5TBfK\r\nOZlw0jnqUtA5ZRHMOdZ7zDkDK9E58ZjJOUaX0DnaGcw5cJjPOYNXyjnLQ745eG2+OX8lvjkEn705\r\nZLvIOcpsvDkwdbg5CMS7OQOMsTl/WLg5e+u5OcW9vDmRMr05nVWvOdEDszkmCMk5jze7ORzctznG\r\nR605+pS6OagasjmBOrY5QHKwOdD7uTlMwro5oaa0OTJIszkZT7E5tSasOS/CsDm8QbU5JbSnOZRp\r\nrjkf76s5YSixOXh4rTmep6o5LdCsOfpGtDleHas59h60OUUOrDlTm685B3OrOWRqrTn4jaA5Poaz\r\nOZVMrTl3d685PKavOedopjlUQ6g5yWulOeXsrDly8qA5EkusOctCqTmnJaA5AuCkOeCVmjmgQaQ5\r\nyJqfOaY9pjlyb585bH6hOQhEnTn1sac5nAOfOQz9qjl/9545qAueOXwfnDlM/Z45gpmaOVEvnDkI\r\n4pc5VmGmOcd4oznTGaE5enaaOTAmkjn/yKI5opuXOWe0lzl7rpc5dvuaObZYkjmq+pY5aXebOVpM\r\nmTk2Wps5gICYORvIjTns8Js5Hq2UOeqOjTkBxpc5/dmZOZxSmzkGD5g5BQGROdHrkDk6Uog5uzed\r\nObcUkTlUooc5NySSOUlakjk/5pY5+IePOYFgmDl3F5Q54smLOYSiijkKRI05V5yROZuykDl4UYw5\r\nG9COOZwVjjlx0Y05HL+LOZhNlTloB4k5cFWOOfAXjzm51Y45qFuDOUJmjTl0TYo5fMeLObzehzly\r\nkYk5eKKJOd5xgTnqzJM5wuKEOTzvizk+mIE5XgOFOW5CgTmSl445fLCBOYXGiDkWt4g5ToaROcSH\r\nhTly2oU5LSOFOb91iTlcFIM5e2+COYFohjkVBn05ammEOXUOgDlC/Xc5S/V/OWEpgTm6D385YPuF\r\nOQ+HgTnYdYI5flaAOXV5gDksRYc5ko2COTjVdjneSHU53peBOdiueDlUeIM53kR/OfIEhjnO5Ho5\r\nv3R6Oa2EhDnEH345MnF/OUdUgDkWR4M5fPl7OcFTezmVNoA5chSAORNofznfH3451r5uOW0AiDkp\r\nD4E5fBZvOcN6bTlwCXo5b11vOaYUfzn35WY5nlB2Oa5EYzmL8IA5IkZ5ORIudjknnHM5l3ptOZM8\r\nbTl3p3g5cXRuOe5hejn6Pms57o9zOfdDdjmC1nk52GBfOSGDfDl98G85XOpnOUXUazmZNmQ5bbt3\r\nOegBYzmy+mk5WQNhOdwbcDnrNmE5XfxqOWPTbDn0NWE5pYtyOdX+Yjl+snI5vO5tOcsnYzl/d2Y5\r\nDvBmOcdcbjlITWw5YbplObzwgjngfmw5XOFtOUSBaDk4LmI5TPh0OeOwZDkaR3U56n5uOXpyazle\r\nt3Q5f5xqOfo0ZDkYtHE57hNuOZ04ZTkzFm056RZhOV6mZzl1AGQ5+jNcOT+8YDnpYGE5er5jOV6q\r\nVjmgXWA5NXljOWAZaDlrWGM5G09bOQkxZjl97Fc5B+pbOcMtbznYTVk5fo9mOV11ZDk5KVg5rGRq\r\nOcudWzm5kW85RQhYOWU2XjkvxlU5I95gOaGrVjmHoVY5gHdnOaSdTzlTKVU5ihdnOXYUXTkbr1s5\r\nVH5ZOQJRTTl0oVQ595xWOcvfdDnoe2I5Dc9kOQYXWDn+tks54CFnOWJPUDmPdVw5q5deOR1NVjns\r\nyE05Yk1nORGDUznBnGw5TB1cOdb4YTk290058AhrOYoBXTmS/1k5JuxkOb87Ujl0U1I5cS1kOfqW\r\nUTmFSGY5fuVTOZUMUTlLNVc5zo5iOUwvYDmVq1s5SBNPOXfvWDnk0ls5TydfOadBTDkePEo5/XVZ\r\nOdnSYznalVQ5JJpYOZcXVjn4M045u3tTOdDsWzmZHFI5sntbOWaIYDmiDVg5t2ZWOV+2Xzn8uFM5\r\nxu9WOe4fYjl0/U45FkRWOW94WzlIJlM57gZjOWIOUzmeaVw5dwxXOc3mUTnKn1o5b1RROQYOXznp\r\nX1g5LDJdOWYFajktEl05xyhUOahISzlPS1A5WnhZOTSKajmUhFo5lcFVOZq4WTmUQlA5xPBQOc8v\r\nWDlumlQ53YxEOYjeWjmLz1Y5jWtTOT0JWzmlLGE5PMpNOVFwSzlnHlw5oI9ZOXlFUzkGmEQ5VExo\r\nOVTsXjkLn1c5vadPOfT8VDmvVEM5YbFZOVx9XTnTM185yilbObJDVTlfkkg5/DxZOQARVDkQzFE+\r\n0iudQN6ygD4g7Ac/5g7gP1ZX3UA7FpNAHAcrQGFW9D8eS1c/Jy8yP09nPz/iKGg/njB9P0ZRxD6u\r\nsg4+TmVBPo0tDT7OVYg+ToiFPjvtOz7Y7wY/VOijP25Xjj/ikPw/QwYkP34XwD5tPrE/R4CYP2wz\r\nh0DIpHhB6usyQbiOTUFewiBCwJlcQdtSpEGo4I1Bi3yEQI4tVUCqHwBAKOPcP7eOqz93QM0/rh6p\r\nP8YGhkB1KgxABNnKPzLmij+so1ZA0/+hQJaah0A8E6g/jsmrP0+wGj+SVRI/7DJiPlntoD5o6qg/\r\nwneSPhSHCj8iiKA+qqvmPwg7qT/6/As/Vxo8QMGmMD93NqY/UvFrQY6J2D/Ne7A/5awFPyxAaD+4\r\nI1I/D9sCQJsPgT8eCqs/YOfOPpkryz+29gU/TpX4Pj5uED5b3+U93FmhPjnJzj3uRg0+lo+JPlWc\r\ncT7NR7o+qEu5Ptp9JT+1HxI+TjeNPpwScD4QP4U+FvQqP7PDhT71QoQ9BgxqPUK6FT7fylc9FlaK\r\nPTWUjT2PXug+UiRNPsRdVj1HRqk9OEvQPn0FID6iOD8+0R9ZPY45Mj/m32k+f0QsP2Z6uD1iXGo+\r\nGciNPfDWND6WVfw9lC+CP4L+wz99laE/0EALQB20EEAoHJs+4DaaP9IPFz/b5SY+AKICPprdUT9k\r\nVqg++Ia/PqPUvz4LdFg+GdkMPgT3nD38bXc9VgE0Pmzhhj27e3E+pkgqPp3cMz5rCAA+JPs/PnsB\r\nmj5+0PY9lfyXPuUPfD5C98E+cwLaP8d6yz6LxJs9e0Q9PukEuz1Y+Yg9TtBAPtpgIT4IUOo/ETCO\r\nQKJfaUDE6Jc/0BCCPxs8WD894SE+YtLvPUWztD77mQw/TO4jPxTLLT9jk+g+ijpqPkGeNz816z0/\r\n5JMpP0mS1D9YrgBAWmIIP8AgSD9OvzJAg6hqPvTA9DwQ0XI9CMsSPadWTD6vSAQ+43KjPWxndz0F\r\n9KU9GxnRPcBOAT8Wouc+zNc8P7U15D4eZZM/NVYQPnXpXT4sev49bIt5PTgLpT3qjek9W6S0Pf1H\r\nHT6ylOE9uL6EPtPSlj5B4pA+9uOkPxSZmD9TcwQ/dm6LPuUlVD/auns/dOUdQH8joD+UXXI/SV1W\r\nP7rKqT8LTr5ADQKgP/rQAEHXkrNAAlmIP+7orT9GxwxAuBfvP6Ii4T9d9kBA/h7OQOvnR0AR4htA\r\n/DLkQFgCZj/JdDg/BvT4P5Xd1j+rITY/dyDGQLqEAkHD+uU/7GUFQGTfHUD1z7A/NmfxPzJjtEBm\r\nC7pAVuXEQFChiUC9448/eXzePuihDD+YSqA/CXhNQAKvYD8JRv4/9llFQZqQBEDlFn5AJe4vQChZ\r\n7z+w6lg/G0ZrP6oJNEByfqc/xgkiPyAOjUDcPQRBvtW4P2obEEEKrq5BOOkpQCJlYkH+2kpAITqd\r\nQG3Eqj+ks84+aMBxP/SIZT4zn1g+RQcjPlxbUT6AeBM9WFqpPf0vqT7AqzY/Dm8SPoR0IT75lHA+\r\nf00FPo+r2z7MYaU/2bipP8FC3D/8DiE/WKU3Pu4R+z143g09TFE4Piombj/5pMs/tBg3P3l+UD+Y\r\n4i1AQBNXPwDgkT+JqP8/gUatP/FR6T9ISuo+J7r8Pieg4j+XH1Q/kGBdP9dMVD8Qk4FAqSIyQPBb\r\nVUCWvZ4/G/XXQAhaij7KgSA+9aPqPqRETj607Pw92OL2POd/6T1lGpk+aY9CPlMmmz7CWps9UR1/\r\nPXo6Mj46Rvg+LvH8PWKROz4qO1k9AAfFPEtpNT34BSw++eKEPeUtlj1zQG8+S04LPYUgDT4Rqas9\r\nLP5xPA890T1CW6A9R3tEPrTrUT4lgAA+HDRJPoIf7j3wuDU96jxgO//cAT1SQKM8dMCoPOcTcjx2\r\n5H87NL4OPM7iLDwU1aQ7M6TLO6ycCTyzQgE7V1KjO/B/5DtF9KA75EHLO4SDgTtYc5Q78JSCO2Bj\r\nkzvqSrY7L8mDO/I9djsaP287Ah9WO77qVjuAFnk78JlcOy96FTt7kQA7BtpQOwxDMTuHOi87n6/R\r\nOhr4JjsKZS475DbkOsT0ITu6mgc7nEwOOx/+2DpkVU47TKxFOxzJADtGFhs7e48LOymT7DrgU9g6\r\nQBfcOi3V8DqdiAQ7pmL/OhfP2Dqv+tY6iNvNOs6fyzoZsNU6xDHOOljnzTqaatA6HkDDOgpYxDoe\r\nOL063Li7OnpurDrh3K46VHCuOn6ArzoqArA62cSxOvsrrjoezas6nd6lOjLTqTouSJI6oMSCOufP\r\nrzrmPso6tnOWOsQ+dzo/aZc6CMmrOuAGpDrZxpw6kaOXOt+SlzoD25Q6a6eSOn4Efjp+OXE6p66E\r\nOrq1hjoOcIo6S1yNOi7EgTp67IU6TVh9OqrugTp2XYM6Ll1sOu76fDoUUno6ZNJyOgGibjpW/XY6\r\nqNtsOqrXbDpcRHk61gxuOj4Yajps0GQ62mdgOrRBXzoWBF066B9jOtirUjr/7l06cog9OiWnNzox\r\nDzo6wnBtOqQVbjqXwhw6DjI9Ol3GPDpUjII6WjEtOlathTrswWk6DJxsOkCpaTrIf1Q62IVQOu0I\r\nRzpoukU6b/g9OrSdRjp0PD46ij9gOlrMJjpuKCw6Hec1OmpjQjqAbUQ67ncnOrCRKTrrTYc6pLsZ\r\nOgpVBjqLuXM6fL8xOo6VQjqZxuw5IgJCOkxZSzpqJEc6Gnw3OvD7ITrauxw6CGweOiBMGjpDfy86\r\nhz8FOuQkFDoBXBs6kpgTOivWLjoBvSs6bsIZOlWMITriJRg6bwkkOjhiFDovTBY6KJoXOvQHIDpE\r\ngxU6MMEBOhi+FjpX6Qg645EkOk4dITqdZxk6k1T/OSDiETpX2R86RhYJOioCBTql2BU6Xg0OOnqh\r\nBjo49Qk66HEOOnZwCDoQnQc6hF4IOm4hBjoPEf055tkGOjGt/zkqmPs5wV4IOld+BDqQvP45+BoF\r\nOozIBTrau/o5UJT5OSRA+DmKhvo5aBj5OURX9jnkbAE64Jf0OfiL+TkBufg5SlzyOULm9Dk0pfY5\r\n3n30OXRM8Tm6S/A5Qi7sOdw/9zk9ze85ILHvOeFk5DlCMOo5hO3jOXLY5DmQb+E5ty/iORpi5Dm2\r\nkeY5tnTgOViM9DldS+E5c3zjOWv41DmwPd05r4/cORbI3jksaeE5RoDfOTjL3jmlqtc5a1TSOcuh\r\nzjn7KdM5UnXfOYQg0TkApts5D+DNOQyCzTnbN8w5MZnVOc++0zm0mMg5Y5fGOZrRyTlMF8o5mXDS\r\nOepS0DllEcw51nvMOQMr0TnxmMk5RpfQOdoZzDlwmM85g1fKOctDvjl4bb45fyW+OQSfvTlku8g5\r\nymy8OTB1uDkIxLs5A4yxOX9YuDl767k5xb28OZEyvTmdVa850QOzOSYIyTmPN7s5HNy3OcZHrTn6\r\nlLo5qBqyOYE6tjlAcrA50Pu5OUzCujmhprQ5MkizORlPsTm1Jqw5L8KwObxBtTkltKc5lGmuOR/v\r\nqzlhKLE5eHitOZ6nqjkt0Kw5+ka0OV4dqzn2HrQ5RQ6sOVObrzkHc6s5ZGqtOfiNoDk+hrM5lUyt\r\nOXd3rzk8pq8552imOVRDqDnJa6U55eysOXLyoDkSS6w5y0KpOacloDkC4KQ54JWaOaBBpDnImp85\r\npj2mOXJvnzlsfqE5CESdOfWxpzmcA585DP2qOX/3njmoC545fB+cOUz9njmCmZo5US+cOQjilzlW\r\nYaY5x3ijOdMZoTl6dpo5MCaSOf/Iojmim5c5Z7SXOXuulzl2+5o5tliSOar6ljlpd5s5WkyZOTZa\r\nmzmAgJg5G8iNOezwmzkerZQ56o6NOQHGlzn92Zk5nFKbOQYPmDkFAZE50euQOTpSiDm7N505txSR\r\nOVSihzk3JJI5SVqSOT/mljn4h485gWCYOXcXlDniyYs5hKKKOQpEjTlXnJE5m7KQOXhRjDkb0I45\r\nnBWOOXHRjTkcv4s5mE2VOWgHiTlwVY458BePObnVjjmoW4M5QmaNOXRNijl8x4s5vN6HOXKRiTl4\r\nook53nGBOerMkznC4oQ5PO+LOT6YgTleA4U5bkKBOZKXjjl8sIE5hcaIORa3iDlOhpE5xIeFOXLa\r\nhTktI4U5v3WJOVwUgzl7b4I5gWiGORUGfTlqaYQ5dQ6AOUL9dzlL9X85YSmBOboPfzlg+4U5D4eB\r\nOdh1gjl+VoA5dXmAOSxFhzmSjYI5ONV2Od5IdTnel4E52K54OVR4gzneRH858gSGOc7kejm/dHo5\r\nrYSEOcQffjkycX85R1SAORZHgzl8+Xs5wVN7OZU2gDlyFIA5E2h/Od8ffjnWvm45bQCIOSkPgTl8\r\nFm85w3ptOXAJejlvXW85phR/OfflZjmeUHY5rkRjOYvwgDkiRnk5Ei52OSecczmXem05kzxtOXen\r\neDlxdG457mF6Ofo+aznuj3M590N2OYLWeTnYYF85IYN8OX3wbzlc6mc5RdRrOZk2ZDltu3c56AFj\r\nObL6aTlZA2E53BtwOes2YTld/Go5Y9NsOfQ1YTmli3I51f5iOX6ycjm87m05yydjOX93ZjkO8GY5\r\nx1xuOUhNbDlhumU5vPCCOeB+bDlc4W05RIFoOTguYjlM+HQ547BkORpHdTnqfm45enJrOV63dDl/\r\nnGo5+jRkORi0cTnuE245nThlOTMWbTnpFmE5XqZnOXUAZDn6M1w5P7xgOelgYTl6vmM5XqpWOaBd\r\nYDk1eWM5YBloOWtYYzkbT1s5CTFmOX3sVzkH6ls5wy1vOdhNWTl+j2Y5XXVkOTkpWDmsZGo5y51b\r\nObmRbzlFCFg5ZTZeOS/GVTkj3mA5oatWOYehVjmAd2c5pJ1POVMpVTmKF2c5dhRdORuvWzlUflk5\r\nAlFNOXShVDn3nFY5y990Oeh7YjkNz2Q5BhdYOf62SzngIWc5Yk9QOY91XDmrl145HU1WOezITTli\r\nTWc5EYNTOcGcbDlMHVw51vhhOTb3TTnwCGs5igFdOZL/WTkm7GQ5vztSOXRTUjlxLWQ5+pZROYVI\r\nZjl+5VM5lQxROUs1VznOjmI5TC9gOZWrWzlIE085d+9YOeTSWzlPJ185p0FMOR48Sjn9dVk52dJj\r\nOdqVVDkkmlg5lxdWOfgzTjm7e1M50OxbOZkcUjmye1s5ZohgOaINWDm3ZlY5X7ZfOfy4UznG71Y5\r\n7h9iOXT9TjkWRFY5b3hbOUgmUznuBmM5Yg5TOZ5pXDl3DFc5zeZROcqfWjlvVFE5Bg5fOelfWDks\r\nMl05ZgVqOS0SXTnHKFQ5qEhLOU9LUDlaeFk5NIpqOZSEWjmVwVU5mrhZOZRCUDnE8FA5zy9YOW6a\r\nVDndjEQ5iN5aOYvPVjmNa1M5PQlbOaUsYTk8yk05UXBLOWceXDmgj1k5eUVTOQaYRDlUTGg5VOxe\r\nOQufVzm9p0859PxUOa9UQzlhsVk5XH1dOdMzXznKKVs5skNVOV+SSDn8PFk5ABFUOQ==",
                            "noiseTrainingType" : "default"
                          }
                        }
                    ],
                    "start" : 935,
                    "duration" : 215,
                    "mediaStart" : 3378,
                    "mediaDuration" : 215,
                    "scalar" : 1,
                    "metadata" : {
                      "WinSubProjectDisplayName" : "",
                      "clipSpeedAttribute" : false
                    },
                    "animationTracks" : {

                    }
                  },
                  {
                    "id" : 72,
                    "_type" : "AMFile",
                    "src" : 1,
                    "trackNumber" : 1,
                    "attributes" : {
                      "ident" : "tower-columns-01",
                      "sampleRate" : 44100,
                      "bitDepth" : 16,
                      "gain" : 1.0,
                      "mixToMono" : false
                    },
                      "channelNumber" : "0,1",
                    "effects" : [
                        {
                          "effectName" : "NoiseReduction",
                          "category" : "categoryAudioEffects",
                          "parameters" : {
                            "denoiserAmount" : 20.0,
                            "denoiserThreshold" : 0.0,
                            "noiseProfile" : "EMxRPtIrnUDesoA+IOwHP+YO4D9WV91AOxaTQBwHK0BhVvQ/HktXPycvMj9PZz8/4ihoP54wfT9G\r\nUcQ+rrIOPk5lQT6NLQ0+zlWIPk6IhT477Ts+2O8GP1Tooz9uV44/4pD8P0MGJD9+F8A+bT6xP0eA\r\nmD9sM4dAyKR4QerrMkG4jk1BXsIgQsCZXEHbUqRBqOCNQYt8hECOLVVAqh8AQCjj3D+3jqs/d0DN\r\nP64eqT/GBoZAdSoMQATZyj8y5oo/rKNWQNP/oUCWmodAPBOoP47Jqz9PsBo/klUSP+wyYj5Z7aA+\r\naOqoP8J3kj4Uhwo/IoigPqqr5j8IO6k/+vwLP1caPEDBpjA/dzamP1Lxa0GOidg/zXuwP+WsBT8s\r\nQGg/uCNSPw/bAkCbD4E/HgqrP2Dnzj6ZK8s/tvYFP06V+D4+bhA+W9/lPdxZoT45yc497kYNPpaP\r\niT5VnHE+zUe6PqhLuT7afSU/tR8SPk43jT6cEnA+ED+FPhb0Kj+zw4U+9UKEPQYMaj1CuhU+38pX\r\nPRZWij01lI09j17oPlIkTT7EXVY9R0apPThL0D59BSA+ojg/PtEfWT2OOTI/5t9pPn9ELD9merg9\r\nYlxqPhnIjT3w1jQ+llX8PZQvgj+C/sM/fZWhP9BAC0AdtBBAKBybPuA2mj/SDxc/2+UmPgCiAj6a\r\n3VE/ZFaoPviGvz6j1L8+C3RYPhnZDD4E95w9/G13PVYBND5s4YY9u3txPqZIKj6d3DM+awgAPiT7\r\nPz57AZo+ftD2PZX8lz7lD3w+QvfBPnMC2j/Hess+i8SbPXtEPT7pBLs9WPmIPU7QQD7aYCE+CFDq\r\nPxEwjkCiX2lAxOiXP9AQgj8bPFg/PeEhPmLS7z1Fs7Q++5kMP0zuIz8Uyy0/Y5PoPoo6aj5Bnjc/\r\nNes9P+STKT9JktQ/WK4AQFpiCD/AIEg/Tr8yQIOoaj70wPQ8ENFyPQjLEj2nVkw+r0gEPuNyoz1s\r\nZ3c9BfSlPRsZ0T3ATgE/FqLnPszXPD+1NeQ+HmWTPzVWED516V0+LHr+PWyLeT04C6U96o3pPVuk\r\ntD39Rx0+spThPbi+hD7T0pY+QeKQPvbjpD8UmZg/U3MEP3Zuiz7lJVQ/2rp7P3TlHUB/I6A/lF1y\r\nP0ldVj+6yqk/C06+QA0CoD/60ABB15KzQAJZiD/u6K0/RscMQLgX7z+iIuE/XfZAQP4ezkDr50dA\r\nEeIbQPwy5EBYAmY/yXQ4Pwb0+D+V3dY/qyE2P3cgxkC6hAJBw/rlP+xlBUBk3x1A9c+wPzZn8T8y\r\nY7RAZgu6QFblxEBQoYlAveOPP3l83j7ooQw/mEqgPwl4TUACr2A/CUb+P/ZZRUGakARA5RZ+QCXu\r\nL0AoWe8/sOpYPxtGaz+qCTRAcn6nP8YJIj8gDo1A3D0EQb7VuD9qGxBBCq6uQTjpKUAiZWJB/tpK\r\nQCE6nUBtxKo/pLPOPmjAcT/0iGU+M59YPkUHIz5cW1E+gHgTPVhaqT39L6k+wKs2Pw5vEj6EdCE+\r\n+ZRwPn9NBT6Pq9s+zGGlP9m4qT/BQtw//A4hP1ilNz7uEfs9eN4NPUxROD4qJm4/+aTLP7QYNz95\r\nflA/mOItQEATVz8A4JE/iaj/P4FGrT/xUek/SErqPie6/D4noOI/lx9UP5BgXT/XTFQ/EJOBQKki\r\nMkDwW1VAlr2ePxv110AIWoo+yoEgPvWj6j6kRE4+tOz8Pdji9jznf+k9ZRqZPmmPQj5TJps+wlqb\r\nPVEdfz16OjI+Okb4Pi7x/D1ikTs+KjtZPQAHxTxLaTU9+AUsPvnihD3lLZY9c0BvPktOCz2FIA0+\r\nEamrPSz+cTwPPdE9QlugPUd7RD6061E+JYAAPhw0ST6CH+498Lg1Peo8YDv/3AE9UkCjPHTAqDzn\r\nE3I8duR/OzS+DjzO4iw8FNWkOzOkyzusnAk8s0IBO1dSozvwf+Q7RfSgO+RByzuEg4E7WHOUO/CU\r\ngjtgY5M76kq2Oy/JgzvyPXY7Gj9vOwIfVju+6lY7gBZ5O/CZXDsvehU7e5EAOwbaUDsMQzE7hzov\r\nO5+v0Toa+CY7CmUuO+Q25DrE9CE7upoHO5xMDjsf/tg6ZFVOO0ysRTscyQA7RhYbO3uPCzspk+w6\r\n4FPYOkAX3Dot1fA6nYgEO6Zi/zoXz9g6r/rWOojbzTrOn8s6GbDVOsQxzjpY5806mmrQOh5AwzoK\r\nWMQ6Hji9Oty4uzp6bqw64dyuOlRwrjp+gK86KgKwOtnEsTr7K646Hs2rOp3epToy06k6LkiSOqDE\r\ngjrnz6865j7KOrZzljrEPnc6P2mXOgjJqzrgBqQ62cacOpGjlzrfkpc6A9uUOmunkjp+BH46fjlx\r\nOqeuhDq6tYY6DnCKOktcjTouxIE6euyFOk1YfTqq7oE6dl2DOi5dbDru+nw6FFJ6OmTScjoBom46\r\nVv12OqjbbDqq12w6XER5OtYMbjo+GGo6bNBkOtpnYDq0QV86FgRdOugfYzrYq1I6/+5dOnKIPTol\r\npzc6MQ86OsJwbTqkFW46l8IcOg4yPTpdxjw6VIyCOloxLTpWrYU67MFpOgycbDpAqWk6yH9UOtiF\r\nUDrtCEc6aLpFOm/4PTq0nUY6dDw+Ooo/YDpazCY6bigsOh3nNTpqY0I6gG1EOu53JzqwkSk6602H\r\nOqS7GToKVQY6i7lzOny/MTqOlUI6mcbsOSICQjpMWUs6aiRHOhp8Nzrw+yE62rscOghsHjogTBo6\r\nQ38vOoc/BTrkJBQ6AVwbOpKYEzor1i46Ab0rOm7CGTpVjCE64iUYOm8JJDo4YhQ6L0wWOiiaFzr0\r\nByA6RIMVOjDBAToYvhY6V+kIOuORJDpOHSE6nWcZOpNU/zkg4hE6V9kfOkYWCToqAgU6pdgVOl4N\r\nDjp6oQY6OPUJOuhxDjp2cAg6EJ0HOoReCDpuIQY6DxH9OebZBjoxrf85Kpj7OcFeCDpXfgQ6kLz+\r\nOfgaBTqMyAU62rv6OVCU+TkkQPg5iob6OWgY+TlEV/Y55GwBOuCX9Dn4i/k5Abn4OUpc8jlC5vQ5\r\nNKX2Od599Dl0TPE5ukvwOUIu7DncP/c5Pc3vOSCx7znhZOQ5QjDqOYTt4zly2OQ5kG/hObcv4jka\r\nYuQ5tpHmObZ04DlYjPQ5XUvhOXN84zlr+NQ5sD3dOa+P3DkWyN45LGnhOUaA3zk4y945parXOWtU\r\n0jnLoc45+ynTOVJ13zmEINE5AKbbOQ/gzTkMgs052zfMOTGZ1TnPvtM5tJjIOWOXxjma0ck5TBfK\r\nOZlw0jnqUtA5ZRHMOdZ7zDkDK9E58ZjJOUaX0DnaGcw5cJjPOYNXyjnLQ745eG2+OX8lvjkEn705\r\nZLvIOcpsvDkwdbg5CMS7OQOMsTl/WLg5e+u5OcW9vDmRMr05nVWvOdEDszkmCMk5jze7ORzctznG\r\nR605+pS6OagasjmBOrY5QHKwOdD7uTlMwro5oaa0OTJIszkZT7E5tSasOS/CsDm8QbU5JbSnOZRp\r\nrjkf76s5YSixOXh4rTmep6o5LdCsOfpGtDleHas59h60OUUOrDlTm685B3OrOWRqrTn4jaA5Poaz\r\nOZVMrTl3d685PKavOedopjlUQ6g5yWulOeXsrDly8qA5EkusOctCqTmnJaA5AuCkOeCVmjmgQaQ5\r\nyJqfOaY9pjlyb585bH6hOQhEnTn1sac5nAOfOQz9qjl/9545qAueOXwfnDlM/Z45gpmaOVEvnDkI\r\n4pc5VmGmOcd4oznTGaE5enaaOTAmkjn/yKI5opuXOWe0lzl7rpc5dvuaObZYkjmq+pY5aXebOVpM\r\nmTk2Wps5gICYORvIjTns8Js5Hq2UOeqOjTkBxpc5/dmZOZxSmzkGD5g5BQGROdHrkDk6Uog5uzed\r\nObcUkTlUooc5NySSOUlakjk/5pY5+IePOYFgmDl3F5Q54smLOYSiijkKRI05V5yROZuykDl4UYw5\r\nG9COOZwVjjlx0Y05HL+LOZhNlTloB4k5cFWOOfAXjzm51Y45qFuDOUJmjTl0TYo5fMeLObzehzly\r\nkYk5eKKJOd5xgTnqzJM5wuKEOTzvizk+mIE5XgOFOW5CgTmSl445fLCBOYXGiDkWt4g5ToaROcSH\r\nhTly2oU5LSOFOb91iTlcFIM5e2+COYFohjkVBn05ammEOXUOgDlC/Xc5S/V/OWEpgTm6D385YPuF\r\nOQ+HgTnYdYI5flaAOXV5gDksRYc5ko2COTjVdjneSHU53peBOdiueDlUeIM53kR/OfIEhjnO5Ho5\r\nv3R6Oa2EhDnEH345MnF/OUdUgDkWR4M5fPl7OcFTezmVNoA5chSAORNofznfH3451r5uOW0AiDkp\r\nD4E5fBZvOcN6bTlwCXo5b11vOaYUfzn35WY5nlB2Oa5EYzmL8IA5IkZ5ORIudjknnHM5l3ptOZM8\r\nbTl3p3g5cXRuOe5hejn6Pms57o9zOfdDdjmC1nk52GBfOSGDfDl98G85XOpnOUXUazmZNmQ5bbt3\r\nOegBYzmy+mk5WQNhOdwbcDnrNmE5XfxqOWPTbDn0NWE5pYtyOdX+Yjl+snI5vO5tOcsnYzl/d2Y5\r\nDvBmOcdcbjlITWw5YbplObzwgjngfmw5XOFtOUSBaDk4LmI5TPh0OeOwZDkaR3U56n5uOXpyazle\r\nt3Q5f5xqOfo0ZDkYtHE57hNuOZ04ZTkzFm056RZhOV6mZzl1AGQ5+jNcOT+8YDnpYGE5er5jOV6q\r\nVjmgXWA5NXljOWAZaDlrWGM5G09bOQkxZjl97Fc5B+pbOcMtbznYTVk5fo9mOV11ZDk5KVg5rGRq\r\nOcudWzm5kW85RQhYOWU2XjkvxlU5I95gOaGrVjmHoVY5gHdnOaSdTzlTKVU5ihdnOXYUXTkbr1s5\r\nVH5ZOQJRTTl0oVQ595xWOcvfdDnoe2I5Dc9kOQYXWDn+tks54CFnOWJPUDmPdVw5q5deOR1NVjns\r\nyE05Yk1nORGDUznBnGw5TB1cOdb4YTk290058AhrOYoBXTmS/1k5JuxkOb87Ujl0U1I5cS1kOfqW\r\nUTmFSGY5fuVTOZUMUTlLNVc5zo5iOUwvYDmVq1s5SBNPOXfvWDnk0ls5TydfOadBTDkePEo5/XVZ\r\nOdnSYznalVQ5JJpYOZcXVjn4M045u3tTOdDsWzmZHFI5sntbOWaIYDmiDVg5t2ZWOV+2Xzn8uFM5\r\nxu9WOe4fYjl0/U45FkRWOW94WzlIJlM57gZjOWIOUzmeaVw5dwxXOc3mUTnKn1o5b1RROQYOXznp\r\nX1g5LDJdOWYFajktEl05xyhUOahISzlPS1A5WnhZOTSKajmUhFo5lcFVOZq4WTmUQlA5xPBQOc8v\r\nWDlumlQ53YxEOYjeWjmLz1Y5jWtTOT0JWzmlLGE5PMpNOVFwSzlnHlw5oI9ZOXlFUzkGmEQ5VExo\r\nOVTsXjkLn1c5vadPOfT8VDmvVEM5YbFZOVx9XTnTM185yilbObJDVTlfkkg5/DxZOQARVDkQzFE+\r\n0iudQN6ygD4g7Ac/5g7gP1ZX3UA7FpNAHAcrQGFW9D8eS1c/Jy8yP09nPz/iKGg/njB9P0ZRxD6u\r\nsg4+TmVBPo0tDT7OVYg+ToiFPjvtOz7Y7wY/VOijP25Xjj/ikPw/QwYkP34XwD5tPrE/R4CYP2wz\r\nh0DIpHhB6usyQbiOTUFewiBCwJlcQdtSpEGo4I1Bi3yEQI4tVUCqHwBAKOPcP7eOqz93QM0/rh6p\r\nP8YGhkB1KgxABNnKPzLmij+so1ZA0/+hQJaah0A8E6g/jsmrP0+wGj+SVRI/7DJiPlntoD5o6qg/\r\nwneSPhSHCj8iiKA+qqvmPwg7qT/6/As/Vxo8QMGmMD93NqY/UvFrQY6J2D/Ne7A/5awFPyxAaD+4\r\nI1I/D9sCQJsPgT8eCqs/YOfOPpkryz+29gU/TpX4Pj5uED5b3+U93FmhPjnJzj3uRg0+lo+JPlWc\r\ncT7NR7o+qEu5Ptp9JT+1HxI+TjeNPpwScD4QP4U+FvQqP7PDhT71QoQ9BgxqPUK6FT7fylc9FlaK\r\nPTWUjT2PXug+UiRNPsRdVj1HRqk9OEvQPn0FID6iOD8+0R9ZPY45Mj/m32k+f0QsP2Z6uD1iXGo+\r\nGciNPfDWND6WVfw9lC+CP4L+wz99laE/0EALQB20EEAoHJs+4DaaP9IPFz/b5SY+AKICPprdUT9k\r\nVqg++Ia/PqPUvz4LdFg+GdkMPgT3nD38bXc9VgE0Pmzhhj27e3E+pkgqPp3cMz5rCAA+JPs/PnsB\r\nmj5+0PY9lfyXPuUPfD5C98E+cwLaP8d6yz6LxJs9e0Q9PukEuz1Y+Yg9TtBAPtpgIT4IUOo/ETCO\r\nQKJfaUDE6Jc/0BCCPxs8WD894SE+YtLvPUWztD77mQw/TO4jPxTLLT9jk+g+ijpqPkGeNz816z0/\r\n5JMpP0mS1D9YrgBAWmIIP8AgSD9OvzJAg6hqPvTA9DwQ0XI9CMsSPadWTD6vSAQ+43KjPWxndz0F\r\n9KU9GxnRPcBOAT8Wouc+zNc8P7U15D4eZZM/NVYQPnXpXT4sev49bIt5PTgLpT3qjek9W6S0Pf1H\r\nHT6ylOE9uL6EPtPSlj5B4pA+9uOkPxSZmD9TcwQ/dm6LPuUlVD/auns/dOUdQH8joD+UXXI/SV1W\r\nP7rKqT8LTr5ADQKgP/rQAEHXkrNAAlmIP+7orT9GxwxAuBfvP6Ii4T9d9kBA/h7OQOvnR0AR4htA\r\n/DLkQFgCZj/JdDg/BvT4P5Xd1j+rITY/dyDGQLqEAkHD+uU/7GUFQGTfHUD1z7A/NmfxPzJjtEBm\r\nC7pAVuXEQFChiUC9448/eXzePuihDD+YSqA/CXhNQAKvYD8JRv4/9llFQZqQBEDlFn5AJe4vQChZ\r\n7z+w6lg/G0ZrP6oJNEByfqc/xgkiPyAOjUDcPQRBvtW4P2obEEEKrq5BOOkpQCJlYkH+2kpAITqd\r\nQG3Eqj+ks84+aMBxP/SIZT4zn1g+RQcjPlxbUT6AeBM9WFqpPf0vqT7AqzY/Dm8SPoR0IT75lHA+\r\nf00FPo+r2z7MYaU/2bipP8FC3D/8DiE/WKU3Pu4R+z143g09TFE4Piombj/5pMs/tBg3P3l+UD+Y\r\n4i1AQBNXPwDgkT+JqP8/gUatP/FR6T9ISuo+J7r8Pieg4j+XH1Q/kGBdP9dMVD8Qk4FAqSIyQPBb\r\nVUCWvZ4/G/XXQAhaij7KgSA+9aPqPqRETj607Pw92OL2POd/6T1lGpk+aY9CPlMmmz7CWps9UR1/\r\nPXo6Mj46Rvg+LvH8PWKROz4qO1k9AAfFPEtpNT34BSw++eKEPeUtlj1zQG8+S04LPYUgDT4Rqas9\r\nLP5xPA890T1CW6A9R3tEPrTrUT4lgAA+HDRJPoIf7j3wuDU96jxgO//cAT1SQKM8dMCoPOcTcjx2\r\n5H87NL4OPM7iLDwU1aQ7M6TLO6ycCTyzQgE7V1KjO/B/5DtF9KA75EHLO4SDgTtYc5Q78JSCO2Bj\r\nkzvqSrY7L8mDO/I9djsaP287Ah9WO77qVjuAFnk78JlcOy96FTt7kQA7BtpQOwxDMTuHOi87n6/R\r\nOhr4JjsKZS475DbkOsT0ITu6mgc7nEwOOx/+2DpkVU47TKxFOxzJADtGFhs7e48LOymT7DrgU9g6\r\nQBfcOi3V8DqdiAQ7pmL/OhfP2Dqv+tY6iNvNOs6fyzoZsNU6xDHOOljnzTqaatA6HkDDOgpYxDoe\r\nOL063Li7OnpurDrh3K46VHCuOn6ArzoqArA62cSxOvsrrjoezas6nd6lOjLTqTouSJI6oMSCOufP\r\nrzrmPso6tnOWOsQ+dzo/aZc6CMmrOuAGpDrZxpw6kaOXOt+SlzoD25Q6a6eSOn4Efjp+OXE6p66E\r\nOrq1hjoOcIo6S1yNOi7EgTp67IU6TVh9OqrugTp2XYM6Ll1sOu76fDoUUno6ZNJyOgGibjpW/XY6\r\nqNtsOqrXbDpcRHk61gxuOj4Yajps0GQ62mdgOrRBXzoWBF066B9jOtirUjr/7l06cog9OiWnNzox\r\nDzo6wnBtOqQVbjqXwhw6DjI9Ol3GPDpUjII6WjEtOlathTrswWk6DJxsOkCpaTrIf1Q62IVQOu0I\r\nRzpoukU6b/g9OrSdRjp0PD46ij9gOlrMJjpuKCw6Hec1OmpjQjqAbUQ67ncnOrCRKTrrTYc6pLsZ\r\nOgpVBjqLuXM6fL8xOo6VQjqZxuw5IgJCOkxZSzpqJEc6Gnw3OvD7ITrauxw6CGweOiBMGjpDfy86\r\nhz8FOuQkFDoBXBs6kpgTOivWLjoBvSs6bsIZOlWMITriJRg6bwkkOjhiFDovTBY6KJoXOvQHIDpE\r\ngxU6MMEBOhi+FjpX6Qg645EkOk4dITqdZxk6k1T/OSDiETpX2R86RhYJOioCBTql2BU6Xg0OOnqh\r\nBjo49Qk66HEOOnZwCDoQnQc6hF4IOm4hBjoPEf055tkGOjGt/zkqmPs5wV4IOld+BDqQvP45+BoF\r\nOozIBTrau/o5UJT5OSRA+DmKhvo5aBj5OURX9jnkbAE64Jf0OfiL+TkBufg5SlzyOULm9Dk0pfY5\r\n3n30OXRM8Tm6S/A5Qi7sOdw/9zk9ze85ILHvOeFk5DlCMOo5hO3jOXLY5DmQb+E5ty/iORpi5Dm2\r\nkeY5tnTgOViM9DldS+E5c3zjOWv41DmwPd05r4/cORbI3jksaeE5RoDfOTjL3jmlqtc5a1TSOcuh\r\nzjn7KdM5UnXfOYQg0TkApts5D+DNOQyCzTnbN8w5MZnVOc++0zm0mMg5Y5fGOZrRyTlMF8o5mXDS\r\nOepS0DllEcw51nvMOQMr0TnxmMk5RpfQOdoZzDlwmM85g1fKOctDvjl4bb45fyW+OQSfvTlku8g5\r\nymy8OTB1uDkIxLs5A4yxOX9YuDl767k5xb28OZEyvTmdVa850QOzOSYIyTmPN7s5HNy3OcZHrTn6\r\nlLo5qBqyOYE6tjlAcrA50Pu5OUzCujmhprQ5MkizORlPsTm1Jqw5L8KwObxBtTkltKc5lGmuOR/v\r\nqzlhKLE5eHitOZ6nqjkt0Kw5+ka0OV4dqzn2HrQ5RQ6sOVObrzkHc6s5ZGqtOfiNoDk+hrM5lUyt\r\nOXd3rzk8pq8552imOVRDqDnJa6U55eysOXLyoDkSS6w5y0KpOacloDkC4KQ54JWaOaBBpDnImp85\r\npj2mOXJvnzlsfqE5CESdOfWxpzmcA585DP2qOX/3njmoC545fB+cOUz9njmCmZo5US+cOQjilzlW\r\nYaY5x3ijOdMZoTl6dpo5MCaSOf/Iojmim5c5Z7SXOXuulzl2+5o5tliSOar6ljlpd5s5WkyZOTZa\r\nmzmAgJg5G8iNOezwmzkerZQ56o6NOQHGlzn92Zk5nFKbOQYPmDkFAZE50euQOTpSiDm7N505txSR\r\nOVSihzk3JJI5SVqSOT/mljn4h485gWCYOXcXlDniyYs5hKKKOQpEjTlXnJE5m7KQOXhRjDkb0I45\r\nnBWOOXHRjTkcv4s5mE2VOWgHiTlwVY458BePObnVjjmoW4M5QmaNOXRNijl8x4s5vN6HOXKRiTl4\r\nook53nGBOerMkznC4oQ5PO+LOT6YgTleA4U5bkKBOZKXjjl8sIE5hcaIORa3iDlOhpE5xIeFOXLa\r\nhTktI4U5v3WJOVwUgzl7b4I5gWiGORUGfTlqaYQ5dQ6AOUL9dzlL9X85YSmBOboPfzlg+4U5D4eB\r\nOdh1gjl+VoA5dXmAOSxFhzmSjYI5ONV2Od5IdTnel4E52K54OVR4gzneRH858gSGOc7kejm/dHo5\r\nrYSEOcQffjkycX85R1SAORZHgzl8+Xs5wVN7OZU2gDlyFIA5E2h/Od8ffjnWvm45bQCIOSkPgTl8\r\nFm85w3ptOXAJejlvXW85phR/OfflZjmeUHY5rkRjOYvwgDkiRnk5Ei52OSecczmXem05kzxtOXen\r\neDlxdG457mF6Ofo+aznuj3M590N2OYLWeTnYYF85IYN8OX3wbzlc6mc5RdRrOZk2ZDltu3c56AFj\r\nObL6aTlZA2E53BtwOes2YTld/Go5Y9NsOfQ1YTmli3I51f5iOX6ycjm87m05yydjOX93ZjkO8GY5\r\nx1xuOUhNbDlhumU5vPCCOeB+bDlc4W05RIFoOTguYjlM+HQ547BkORpHdTnqfm45enJrOV63dDl/\r\nnGo5+jRkORi0cTnuE245nThlOTMWbTnpFmE5XqZnOXUAZDn6M1w5P7xgOelgYTl6vmM5XqpWOaBd\r\nYDk1eWM5YBloOWtYYzkbT1s5CTFmOX3sVzkH6ls5wy1vOdhNWTl+j2Y5XXVkOTkpWDmsZGo5y51b\r\nObmRbzlFCFg5ZTZeOS/GVTkj3mA5oatWOYehVjmAd2c5pJ1POVMpVTmKF2c5dhRdORuvWzlUflk5\r\nAlFNOXShVDn3nFY5y990Oeh7YjkNz2Q5BhdYOf62SzngIWc5Yk9QOY91XDmrl145HU1WOezITTli\r\nTWc5EYNTOcGcbDlMHVw51vhhOTb3TTnwCGs5igFdOZL/WTkm7GQ5vztSOXRTUjlxLWQ5+pZROYVI\r\nZjl+5VM5lQxROUs1VznOjmI5TC9gOZWrWzlIE085d+9YOeTSWzlPJ185p0FMOR48Sjn9dVk52dJj\r\nOdqVVDkkmlg5lxdWOfgzTjm7e1M50OxbOZkcUjmye1s5ZohgOaINWDm3ZlY5X7ZfOfy4UznG71Y5\r\n7h9iOXT9TjkWRFY5b3hbOUgmUznuBmM5Yg5TOZ5pXDl3DFc5zeZROcqfWjlvVFE5Bg5fOelfWDks\r\nMl05ZgVqOS0SXTnHKFQ5qEhLOU9LUDlaeFk5NIpqOZSEWjmVwVU5mrhZOZRCUDnE8FA5zy9YOW6a\r\nVDndjEQ5iN5aOYvPVjmNa1M5PQlbOaUsYTk8yk05UXBLOWceXDmgj1k5eUVTOQaYRDlUTGg5VOxe\r\nOQufVzm9p0859PxUOa9UQzlhsVk5XH1dOdMzXznKKVs5skNVOV+SSDn8PFk5ABFUOQ==",
                            "noiseTrainingType" : "default"
                          }
                        }
                    ],
                    "start" : 1150,
                    "duration" : 351,
                    "mediaStart" : 4072,
                    "mediaDuration" : 351,
                    "scalar" : 1,
                    "metadata" : {
                      "WinSubProjectDisplayName" : "",
                      "clipSpeedAttribute" : false
                    },
                    "animationTracks" : {

                    }
                  },
                  {
                    "id" : 73,
                    "_type" : "AMFile",
                    "src" : 1,
                    "trackNumber" : 1,
                    "attributes" : {
                      "ident" : "tower-columns-01",
                      "sampleRate" : 44100,
                      "bitDepth" : 16,
                      "gain" : 1.0,
                      "mixToMono" : false
                    },
                      "channelNumber" : "0,1",
                    "effects" : [
                        {
                          "effectName" : "NoiseReduction",
                          "category" : "categoryAudioEffects",
                          "parameters" : {
                            "denoiserAmount" : 20.0,
                            "denoiserThreshold" : 0.0,
                            "noiseProfile" : "EMxRPtIrnUDesoA+IOwHP+YO4D9WV91AOxaTQBwHK0BhVvQ/HktXPycvMj9PZz8/4ihoP54wfT9G\r\nUcQ+rrIOPk5lQT6NLQ0+zlWIPk6IhT477Ts+2O8GP1Tooz9uV44/4pD8P0MGJD9+F8A+bT6xP0eA\r\nmD9sM4dAyKR4QerrMkG4jk1BXsIgQsCZXEHbUqRBqOCNQYt8hECOLVVAqh8AQCjj3D+3jqs/d0DN\r\nP64eqT/GBoZAdSoMQATZyj8y5oo/rKNWQNP/oUCWmodAPBOoP47Jqz9PsBo/klUSP+wyYj5Z7aA+\r\naOqoP8J3kj4Uhwo/IoigPqqr5j8IO6k/+vwLP1caPEDBpjA/dzamP1Lxa0GOidg/zXuwP+WsBT8s\r\nQGg/uCNSPw/bAkCbD4E/HgqrP2Dnzj6ZK8s/tvYFP06V+D4+bhA+W9/lPdxZoT45yc497kYNPpaP\r\niT5VnHE+zUe6PqhLuT7afSU/tR8SPk43jT6cEnA+ED+FPhb0Kj+zw4U+9UKEPQYMaj1CuhU+38pX\r\nPRZWij01lI09j17oPlIkTT7EXVY9R0apPThL0D59BSA+ojg/PtEfWT2OOTI/5t9pPn9ELD9merg9\r\nYlxqPhnIjT3w1jQ+llX8PZQvgj+C/sM/fZWhP9BAC0AdtBBAKBybPuA2mj/SDxc/2+UmPgCiAj6a\r\n3VE/ZFaoPviGvz6j1L8+C3RYPhnZDD4E95w9/G13PVYBND5s4YY9u3txPqZIKj6d3DM+awgAPiT7\r\nPz57AZo+ftD2PZX8lz7lD3w+QvfBPnMC2j/Hess+i8SbPXtEPT7pBLs9WPmIPU7QQD7aYCE+CFDq\r\nPxEwjkCiX2lAxOiXP9AQgj8bPFg/PeEhPmLS7z1Fs7Q++5kMP0zuIz8Uyy0/Y5PoPoo6aj5Bnjc/\r\nNes9P+STKT9JktQ/WK4AQFpiCD/AIEg/Tr8yQIOoaj70wPQ8ENFyPQjLEj2nVkw+r0gEPuNyoz1s\r\nZ3c9BfSlPRsZ0T3ATgE/FqLnPszXPD+1NeQ+HmWTPzVWED516V0+LHr+PWyLeT04C6U96o3pPVuk\r\ntD39Rx0+spThPbi+hD7T0pY+QeKQPvbjpD8UmZg/U3MEP3Zuiz7lJVQ/2rp7P3TlHUB/I6A/lF1y\r\nP0ldVj+6yqk/C06+QA0CoD/60ABB15KzQAJZiD/u6K0/RscMQLgX7z+iIuE/XfZAQP4ezkDr50dA\r\nEeIbQPwy5EBYAmY/yXQ4Pwb0+D+V3dY/qyE2P3cgxkC6hAJBw/rlP+xlBUBk3x1A9c+wPzZn8T8y\r\nY7RAZgu6QFblxEBQoYlAveOPP3l83j7ooQw/mEqgPwl4TUACr2A/CUb+P/ZZRUGakARA5RZ+QCXu\r\nL0AoWe8/sOpYPxtGaz+qCTRAcn6nP8YJIj8gDo1A3D0EQb7VuD9qGxBBCq6uQTjpKUAiZWJB/tpK\r\nQCE6nUBtxKo/pLPOPmjAcT/0iGU+M59YPkUHIz5cW1E+gHgTPVhaqT39L6k+wKs2Pw5vEj6EdCE+\r\n+ZRwPn9NBT6Pq9s+zGGlP9m4qT/BQtw//A4hP1ilNz7uEfs9eN4NPUxROD4qJm4/+aTLP7QYNz95\r\nflA/mOItQEATVz8A4JE/iaj/P4FGrT/xUek/SErqPie6/D4noOI/lx9UP5BgXT/XTFQ/EJOBQKki\r\nMkDwW1VAlr2ePxv110AIWoo+yoEgPvWj6j6kRE4+tOz8Pdji9jznf+k9ZRqZPmmPQj5TJps+wlqb\r\nPVEdfz16OjI+Okb4Pi7x/D1ikTs+KjtZPQAHxTxLaTU9+AUsPvnihD3lLZY9c0BvPktOCz2FIA0+\r\nEamrPSz+cTwPPdE9QlugPUd7RD6061E+JYAAPhw0ST6CH+498Lg1Peo8YDv/3AE9UkCjPHTAqDzn\r\nE3I8duR/OzS+DjzO4iw8FNWkOzOkyzusnAk8s0IBO1dSozvwf+Q7RfSgO+RByzuEg4E7WHOUO/CU\r\ngjtgY5M76kq2Oy/JgzvyPXY7Gj9vOwIfVju+6lY7gBZ5O/CZXDsvehU7e5EAOwbaUDsMQzE7hzov\r\nO5+v0Toa+CY7CmUuO+Q25DrE9CE7upoHO5xMDjsf/tg6ZFVOO0ysRTscyQA7RhYbO3uPCzspk+w6\r\n4FPYOkAX3Dot1fA6nYgEO6Zi/zoXz9g6r/rWOojbzTrOn8s6GbDVOsQxzjpY5806mmrQOh5AwzoK\r\nWMQ6Hji9Oty4uzp6bqw64dyuOlRwrjp+gK86KgKwOtnEsTr7K646Hs2rOp3epToy06k6LkiSOqDE\r\ngjrnz6865j7KOrZzljrEPnc6P2mXOgjJqzrgBqQ62cacOpGjlzrfkpc6A9uUOmunkjp+BH46fjlx\r\nOqeuhDq6tYY6DnCKOktcjTouxIE6euyFOk1YfTqq7oE6dl2DOi5dbDru+nw6FFJ6OmTScjoBom46\r\nVv12OqjbbDqq12w6XER5OtYMbjo+GGo6bNBkOtpnYDq0QV86FgRdOugfYzrYq1I6/+5dOnKIPTol\r\npzc6MQ86OsJwbTqkFW46l8IcOg4yPTpdxjw6VIyCOloxLTpWrYU67MFpOgycbDpAqWk6yH9UOtiF\r\nUDrtCEc6aLpFOm/4PTq0nUY6dDw+Ooo/YDpazCY6bigsOh3nNTpqY0I6gG1EOu53JzqwkSk6602H\r\nOqS7GToKVQY6i7lzOny/MTqOlUI6mcbsOSICQjpMWUs6aiRHOhp8Nzrw+yE62rscOghsHjogTBo6\r\nQ38vOoc/BTrkJBQ6AVwbOpKYEzor1i46Ab0rOm7CGTpVjCE64iUYOm8JJDo4YhQ6L0wWOiiaFzr0\r\nByA6RIMVOjDBAToYvhY6V+kIOuORJDpOHSE6nWcZOpNU/zkg4hE6V9kfOkYWCToqAgU6pdgVOl4N\r\nDjp6oQY6OPUJOuhxDjp2cAg6EJ0HOoReCDpuIQY6DxH9OebZBjoxrf85Kpj7OcFeCDpXfgQ6kLz+\r\nOfgaBTqMyAU62rv6OVCU+TkkQPg5iob6OWgY+TlEV/Y55GwBOuCX9Dn4i/k5Abn4OUpc8jlC5vQ5\r\nNKX2Od599Dl0TPE5ukvwOUIu7DncP/c5Pc3vOSCx7znhZOQ5QjDqOYTt4zly2OQ5kG/hObcv4jka\r\nYuQ5tpHmObZ04DlYjPQ5XUvhOXN84zlr+NQ5sD3dOa+P3DkWyN45LGnhOUaA3zk4y945parXOWtU\r\n0jnLoc45+ynTOVJ13zmEINE5AKbbOQ/gzTkMgs052zfMOTGZ1TnPvtM5tJjIOWOXxjma0ck5TBfK\r\nOZlw0jnqUtA5ZRHMOdZ7zDkDK9E58ZjJOUaX0DnaGcw5cJjPOYNXyjnLQ745eG2+OX8lvjkEn705\r\nZLvIOcpsvDkwdbg5CMS7OQOMsTl/WLg5e+u5OcW9vDmRMr05nVWvOdEDszkmCMk5jze7ORzctznG\r\nR605+pS6OagasjmBOrY5QHKwOdD7uTlMwro5oaa0OTJIszkZT7E5tSasOS/CsDm8QbU5JbSnOZRp\r\nrjkf76s5YSixOXh4rTmep6o5LdCsOfpGtDleHas59h60OUUOrDlTm685B3OrOWRqrTn4jaA5Poaz\r\nOZVMrTl3d685PKavOedopjlUQ6g5yWulOeXsrDly8qA5EkusOctCqTmnJaA5AuCkOeCVmjmgQaQ5\r\nyJqfOaY9pjlyb585bH6hOQhEnTn1sac5nAOfOQz9qjl/9545qAueOXwfnDlM/Z45gpmaOVEvnDkI\r\n4pc5VmGmOcd4oznTGaE5enaaOTAmkjn/yKI5opuXOWe0lzl7rpc5dvuaObZYkjmq+pY5aXebOVpM\r\nmTk2Wps5gICYORvIjTns8Js5Hq2UOeqOjTkBxpc5/dmZOZxSmzkGD5g5BQGROdHrkDk6Uog5uzed\r\nObcUkTlUooc5NySSOUlakjk/5pY5+IePOYFgmDl3F5Q54smLOYSiijkKRI05V5yROZuykDl4UYw5\r\nG9COOZwVjjlx0Y05HL+LOZhNlTloB4k5cFWOOfAXjzm51Y45qFuDOUJmjTl0TYo5fMeLObzehzly\r\nkYk5eKKJOd5xgTnqzJM5wuKEOTzvizk+mIE5XgOFOW5CgTmSl445fLCBOYXGiDkWt4g5ToaROcSH\r\nhTly2oU5LSOFOb91iTlcFIM5e2+COYFohjkVBn05ammEOXUOgDlC/Xc5S/V/OWEpgTm6D385YPuF\r\nOQ+HgTnYdYI5flaAOXV5gDksRYc5ko2COTjVdjneSHU53peBOdiueDlUeIM53kR/OfIEhjnO5Ho5\r\nv3R6Oa2EhDnEH345MnF/OUdUgDkWR4M5fPl7OcFTezmVNoA5chSAORNofznfH3451r5uOW0AiDkp\r\nD4E5fBZvOcN6bTlwCXo5b11vOaYUfzn35WY5nlB2Oa5EYzmL8IA5IkZ5ORIudjknnHM5l3ptOZM8\r\nbTl3p3g5cXRuOe5hejn6Pms57o9zOfdDdjmC1nk52GBfOSGDfDl98G85XOpnOUXUazmZNmQ5bbt3\r\nOegBYzmy+mk5WQNhOdwbcDnrNmE5XfxqOWPTbDn0NWE5pYtyOdX+Yjl+snI5vO5tOcsnYzl/d2Y5\r\nDvBmOcdcbjlITWw5YbplObzwgjngfmw5XOFtOUSBaDk4LmI5TPh0OeOwZDkaR3U56n5uOXpyazle\r\nt3Q5f5xqOfo0ZDkYtHE57hNuOZ04ZTkzFm056RZhOV6mZzl1AGQ5+jNcOT+8YDnpYGE5er5jOV6q\r\nVjmgXWA5NXljOWAZaDlrWGM5G09bOQkxZjl97Fc5B+pbOcMtbznYTVk5fo9mOV11ZDk5KVg5rGRq\r\nOcudWzm5kW85RQhYOWU2XjkvxlU5I95gOaGrVjmHoVY5gHdnOaSdTzlTKVU5ihdnOXYUXTkbr1s5\r\nVH5ZOQJRTTl0oVQ595xWOcvfdDnoe2I5Dc9kOQYXWDn+tks54CFnOWJPUDmPdVw5q5deOR1NVjns\r\nyE05Yk1nORGDUznBnGw5TB1cOdb4YTk290058AhrOYoBXTmS/1k5JuxkOb87Ujl0U1I5cS1kOfqW\r\nUTmFSGY5fuVTOZUMUTlLNVc5zo5iOUwvYDmVq1s5SBNPOXfvWDnk0ls5TydfOadBTDkePEo5/XVZ\r\nOdnSYznalVQ5JJpYOZcXVjn4M045u3tTOdDsWzmZHFI5sntbOWaIYDmiDVg5t2ZWOV+2Xzn8uFM5\r\nxu9WOe4fYjl0/U45FkRWOW94WzlIJlM57gZjOWIOUzmeaVw5dwxXOc3mUTnKn1o5b1RROQYOXznp\r\nX1g5LDJdOWYFajktEl05xyhUOahISzlPS1A5WnhZOTSKajmUhFo5lcFVOZq4WTmUQlA5xPBQOc8v\r\nWDlumlQ53YxEOYjeWjmLz1Y5jWtTOT0JWzmlLGE5PMpNOVFwSzlnHlw5oI9ZOXlFUzkGmEQ5VExo\r\nOVTsXjkLn1c5vadPOfT8VDmvVEM5YbFZOVx9XTnTM185yilbObJDVTlfkkg5/DxZOQARVDkQzFE+\r\n0iudQN6ygD4g7Ac/5g7gP1ZX3UA7FpNAHAcrQGFW9D8eS1c/Jy8yP09nPz/iKGg/njB9P0ZRxD6u\r\nsg4+TmVBPo0tDT7OVYg+ToiFPjvtOz7Y7wY/VOijP25Xjj/ikPw/QwYkP34XwD5tPrE/R4CYP2wz\r\nh0DIpHhB6usyQbiOTUFewiBCwJlcQdtSpEGo4I1Bi3yEQI4tVUCqHwBAKOPcP7eOqz93QM0/rh6p\r\nP8YGhkB1KgxABNnKPzLmij+so1ZA0/+hQJaah0A8E6g/jsmrP0+wGj+SVRI/7DJiPlntoD5o6qg/\r\nwneSPhSHCj8iiKA+qqvmPwg7qT/6/As/Vxo8QMGmMD93NqY/UvFrQY6J2D/Ne7A/5awFPyxAaD+4\r\nI1I/D9sCQJsPgT8eCqs/YOfOPpkryz+29gU/TpX4Pj5uED5b3+U93FmhPjnJzj3uRg0+lo+JPlWc\r\ncT7NR7o+qEu5Ptp9JT+1HxI+TjeNPpwScD4QP4U+FvQqP7PDhT71QoQ9BgxqPUK6FT7fylc9FlaK\r\nPTWUjT2PXug+UiRNPsRdVj1HRqk9OEvQPn0FID6iOD8+0R9ZPY45Mj/m32k+f0QsP2Z6uD1iXGo+\r\nGciNPfDWND6WVfw9lC+CP4L+wz99laE/0EALQB20EEAoHJs+4DaaP9IPFz/b5SY+AKICPprdUT9k\r\nVqg++Ia/PqPUvz4LdFg+GdkMPgT3nD38bXc9VgE0Pmzhhj27e3E+pkgqPp3cMz5rCAA+JPs/PnsB\r\nmj5+0PY9lfyXPuUPfD5C98E+cwLaP8d6yz6LxJs9e0Q9PukEuz1Y+Yg9TtBAPtpgIT4IUOo/ETCO\r\nQKJfaUDE6Jc/0BCCPxs8WD894SE+YtLvPUWztD77mQw/TO4jPxTLLT9jk+g+ijpqPkGeNz816z0/\r\n5JMpP0mS1D9YrgBAWmIIP8AgSD9OvzJAg6hqPvTA9DwQ0XI9CMsSPadWTD6vSAQ+43KjPWxndz0F\r\n9KU9GxnRPcBOAT8Wouc+zNc8P7U15D4eZZM/NVYQPnXpXT4sev49bIt5PTgLpT3qjek9W6S0Pf1H\r\nHT6ylOE9uL6EPtPSlj5B4pA+9uOkPxSZmD9TcwQ/dm6LPuUlVD/auns/dOUdQH8joD+UXXI/SV1W\r\nP7rKqT8LTr5ADQKgP/rQAEHXkrNAAlmIP+7orT9GxwxAuBfvP6Ii4T9d9kBA/h7OQOvnR0AR4htA\r\n/DLkQFgCZj/JdDg/BvT4P5Xd1j+rITY/dyDGQLqEAkHD+uU/7GUFQGTfHUD1z7A/NmfxPzJjtEBm\r\nC7pAVuXEQFChiUC9448/eXzePuihDD+YSqA/CXhNQAKvYD8JRv4/9llFQZqQBEDlFn5AJe4vQChZ\r\n7z+w6lg/G0ZrP6oJNEByfqc/xgkiPyAOjUDcPQRBvtW4P2obEEEKrq5BOOkpQCJlYkH+2kpAITqd\r\nQG3Eqj+ks84+aMBxP/SIZT4zn1g+RQcjPlxbUT6AeBM9WFqpPf0vqT7AqzY/Dm8SPoR0IT75lHA+\r\nf00FPo+r2z7MYaU/2bipP8FC3D/8DiE/WKU3Pu4R+z143g09TFE4Piombj/5pMs/tBg3P3l+UD+Y\r\n4i1AQBNXPwDgkT+JqP8/gUatP/FR6T9ISuo+J7r8Pieg4j+XH1Q/kGBdP9dMVD8Qk4FAqSIyQPBb\r\nVUCWvZ4/G/XXQAhaij7KgSA+9aPqPqRETj607Pw92OL2POd/6T1lGpk+aY9CPlMmmz7CWps9UR1/\r\nPXo6Mj46Rvg+LvH8PWKROz4qO1k9AAfFPEtpNT34BSw++eKEPeUtlj1zQG8+S04LPYUgDT4Rqas9\r\nLP5xPA890T1CW6A9R3tEPrTrUT4lgAA+HDRJPoIf7j3wuDU96jxgO//cAT1SQKM8dMCoPOcTcjx2\r\n5H87NL4OPM7iLDwU1aQ7M6TLO6ycCTyzQgE7V1KjO/B/5DtF9KA75EHLO4SDgTtYc5Q78JSCO2Bj\r\nkzvqSrY7L8mDO/I9djsaP287Ah9WO77qVjuAFnk78JlcOy96FTt7kQA7BtpQOwxDMTuHOi87n6/R\r\nOhr4JjsKZS475DbkOsT0ITu6mgc7nEwOOx/+2DpkVU47TKxFOxzJADtGFhs7e48LOymT7DrgU9g6\r\nQBfcOi3V8DqdiAQ7pmL/OhfP2Dqv+tY6iNvNOs6fyzoZsNU6xDHOOljnzTqaatA6HkDDOgpYxDoe\r\nOL063Li7OnpurDrh3K46VHCuOn6ArzoqArA62cSxOvsrrjoezas6nd6lOjLTqTouSJI6oMSCOufP\r\nrzrmPso6tnOWOsQ+dzo/aZc6CMmrOuAGpDrZxpw6kaOXOt+SlzoD25Q6a6eSOn4Efjp+OXE6p66E\r\nOrq1hjoOcIo6S1yNOi7EgTp67IU6TVh9OqrugTp2XYM6Ll1sOu76fDoUUno6ZNJyOgGibjpW/XY6\r\nqNtsOqrXbDpcRHk61gxuOj4Yajps0GQ62mdgOrRBXzoWBF066B9jOtirUjr/7l06cog9OiWnNzox\r\nDzo6wnBtOqQVbjqXwhw6DjI9Ol3GPDpUjII6WjEtOlathTrswWk6DJxsOkCpaTrIf1Q62IVQOu0I\r\nRzpoukU6b/g9OrSdRjp0PD46ij9gOlrMJjpuKCw6Hec1OmpjQjqAbUQ67ncnOrCRKTrrTYc6pLsZ\r\nOgpVBjqLuXM6fL8xOo6VQjqZxuw5IgJCOkxZSzpqJEc6Gnw3OvD7ITrauxw6CGweOiBMGjpDfy86\r\nhz8FOuQkFDoBXBs6kpgTOivWLjoBvSs6bsIZOlWMITriJRg6bwkkOjhiFDovTBY6KJoXOvQHIDpE\r\ngxU6MMEBOhi+FjpX6Qg645EkOk4dITqdZxk6k1T/OSDiETpX2R86RhYJOioCBTql2BU6Xg0OOnqh\r\nBjo49Qk66HEOOnZwCDoQnQc6hF4IOm4hBjoPEf055tkGOjGt/zkqmPs5wV4IOld+BDqQvP45+BoF\r\nOozIBTrau/o5UJT5OSRA+DmKhvo5aBj5OURX9jnkbAE64Jf0OfiL+TkBufg5SlzyOULm9Dk0pfY5\r\n3n30OXRM8Tm6S/A5Qi7sOdw/9zk9ze85ILHvOeFk5DlCMOo5hO3jOXLY5DmQb+E5ty/iORpi5Dm2\r\nkeY5tnTgOViM9DldS+E5c3zjOWv41DmwPd05r4/cORbI3jksaeE5RoDfOTjL3jmlqtc5a1TSOcuh\r\nzjn7KdM5UnXfOYQg0TkApts5D+DNOQyCzTnbN8w5MZnVOc++0zm0mMg5Y5fGOZrRyTlMF8o5mXDS\r\nOepS0DllEcw51nvMOQMr0TnxmMk5RpfQOdoZzDlwmM85g1fKOctDvjl4bb45fyW+OQSfvTlku8g5\r\nymy8OTB1uDkIxLs5A4yxOX9YuDl767k5xb28OZEyvTmdVa850QOzOSYIyTmPN7s5HNy3OcZHrTn6\r\nlLo5qBqyOYE6tjlAcrA50Pu5OUzCujmhprQ5MkizORlPsTm1Jqw5L8KwObxBtTkltKc5lGmuOR/v\r\nqzlhKLE5eHitOZ6nqjkt0Kw5+ka0OV4dqzn2HrQ5RQ6sOVObrzkHc6s5ZGqtOfiNoDk+hrM5lUyt\r\nOXd3rzk8pq8552imOVRDqDnJa6U55eysOXLyoDkSS6w5y0KpOacloDkC4KQ54JWaOaBBpDnImp85\r\npj2mOXJvnzlsfqE5CESdOfWxpzmcA585DP2qOX/3njmoC545fB+cOUz9njmCmZo5US+cOQjilzlW\r\nYaY5x3ijOdMZoTl6dpo5MCaSOf/Iojmim5c5Z7SXOXuulzl2+5o5tliSOar6ljlpd5s5WkyZOTZa\r\nmzmAgJg5G8iNOezwmzkerZQ56o6NOQHGlzn92Zk5nFKbOQYPmDkFAZE50euQOTpSiDm7N505txSR\r\nOVSihzk3JJI5SVqSOT/mljn4h485gWCYOXcXlDniyYs5hKKKOQpEjTlXnJE5m7KQOXhRjDkb0I45\r\nnBWOOXHRjTkcv4s5mE2VOWgHiTlwVY458BePObnVjjmoW4M5QmaNOXRNijl8x4s5vN6HOXKRiTl4\r\nook53nGBOerMkznC4oQ5PO+LOT6YgTleA4U5bkKBOZKXjjl8sIE5hcaIORa3iDlOhpE5xIeFOXLa\r\nhTktI4U5v3WJOVwUgzl7b4I5gWiGORUGfTlqaYQ5dQ6AOUL9dzlL9X85YSmBOboPfzlg+4U5D4eB\r\nOdh1gjl+VoA5dXmAOSxFhzmSjYI5ONV2Od5IdTnel4E52K54OVR4gzneRH858gSGOc7kejm/dHo5\r\nrYSEOcQffjkycX85R1SAORZHgzl8+Xs5wVN7OZU2gDlyFIA5E2h/Od8ffjnWvm45bQCIOSkPgTl8\r\nFm85w3ptOXAJejlvXW85phR/OfflZjmeUHY5rkRjOYvwgDkiRnk5Ei52OSecczmXem05kzxtOXen\r\neDlxdG457mF6Ofo+aznuj3M590N2OYLWeTnYYF85IYN8OX3wbzlc6mc5RdRrOZk2ZDltu3c56AFj\r\nObL6aTlZA2E53BtwOes2YTld/Go5Y9NsOfQ1YTmli3I51f5iOX6ycjm87m05yydjOX93ZjkO8GY5\r\nx1xuOUhNbDlhumU5vPCCOeB+bDlc4W05RIFoOTguYjlM+HQ547BkORpHdTnqfm45enJrOV63dDl/\r\nnGo5+jRkORi0cTnuE245nThlOTMWbTnpFmE5XqZnOXUAZDn6M1w5P7xgOelgYTl6vmM5XqpWOaBd\r\nYDk1eWM5YBloOWtYYzkbT1s5CTFmOX3sVzkH6ls5wy1vOdhNWTl+j2Y5XXVkOTkpWDmsZGo5y51b\r\nObmRbzlFCFg5ZTZeOS/GVTkj3mA5oatWOYehVjmAd2c5pJ1POVMpVTmKF2c5dhRdORuvWzlUflk5\r\nAlFNOXShVDn3nFY5y990Oeh7YjkNz2Q5BhdYOf62SzngIWc5Yk9QOY91XDmrl145HU1WOezITTli\r\nTWc5EYNTOcGcbDlMHVw51vhhOTb3TTnwCGs5igFdOZL/WTkm7GQ5vztSOXRTUjlxLWQ5+pZROYVI\r\nZjl+5VM5lQxROUs1VznOjmI5TC9gOZWrWzlIE085d+9YOeTSWzlPJ185p0FMOR48Sjn9dVk52dJj\r\nOdqVVDkkmlg5lxdWOfgzTjm7e1M50OxbOZkcUjmye1s5ZohgOaINWDm3ZlY5X7ZfOfy4UznG71Y5\r\n7h9iOXT9TjkWRFY5b3hbOUgmUznuBmM5Yg5TOZ5pXDl3DFc5zeZROcqfWjlvVFE5Bg5fOelfWDks\r\nMl05ZgVqOS0SXTnHKFQ5qEhLOU9LUDlaeFk5NIpqOZSEWjmVwVU5mrhZOZRCUDnE8FA5zy9YOW6a\r\nVDndjEQ5iN5aOYvPVjmNa1M5PQlbOaUsYTk8yk05UXBLOWceXDmgj1k5eUVTOQaYRDlUTGg5VOxe\r\nOQufVzm9p0859PxUOa9UQzlhsVk5XH1dOdMzXznKKVs5skNVOV+SSDn8PFk5ABFUOQ==",
                            "noiseTrainingType" : "default"
                          }
                        }
                    ],
                    "start" : 1501,
                    "duration" : 278,
                    "mediaStart" : 5270,
                    "mediaDuration" : 278,
                    "scalar" : 1,
                    "metadata" : {
                      "WinSubProjectDisplayName" : "",
                      "clipSpeedAttribute" : false
                    },
                    "animationTracks" : {

                    }
                  },
                  {
                    "id" : 74,
                    "_type" : "AMFile",
                    "src" : 1,
                    "trackNumber" : 1,
                    "attributes" : {
                      "ident" : "tower-columns-01",
                      "sampleRate" : 44100,
                      "bitDepth" : 16,
                      "gain" : 1.0,
                      "mixToMono" : false
                    },
                      "channelNumber" : "0,1",
                    "effects" : [
                        {
                          "effectName" : "NoiseReduction",
                          "category" : "categoryAudioEffects",
                          "parameters" : {
                            "denoiserAmount" : 20.0,
                            "denoiserThreshold" : 0.0,
                            "noiseProfile" : "EMxRPtIrnUDesoA+IOwHP+YO4D9WV91AOxaTQBwHK0BhVvQ/HktXPycvMj9PZz8/4ihoP54wfT9G\r\nUcQ+rrIOPk5lQT6NLQ0+zlWIPk6IhT477Ts+2O8GP1Tooz9uV44/4pD8P0MGJD9+F8A+bT6xP0eA\r\nmD9sM4dAyKR4QerrMkG4jk1BXsIgQsCZXEHbUqRBqOCNQYt8hECOLVVAqh8AQCjj3D+3jqs/d0DN\r\nP64eqT/GBoZAdSoMQATZyj8y5oo/rKNWQNP/oUCWmodAPBOoP47Jqz9PsBo/klUSP+wyYj5Z7aA+\r\naOqoP8J3kj4Uhwo/IoigPqqr5j8IO6k/+vwLP1caPEDBpjA/dzamP1Lxa0GOidg/zXuwP+WsBT8s\r\nQGg/uCNSPw/bAkCbD4E/HgqrP2Dnzj6ZK8s/tvYFP06V+D4+bhA+W9/lPdxZoT45yc497kYNPpaP\r\niT5VnHE+zUe6PqhLuT7afSU/tR8SPk43jT6cEnA+ED+FPhb0Kj+zw4U+9UKEPQYMaj1CuhU+38pX\r\nPRZWij01lI09j17oPlIkTT7EXVY9R0apPThL0D59BSA+ojg/PtEfWT2OOTI/5t9pPn9ELD9merg9\r\nYlxqPhnIjT3w1jQ+llX8PZQvgj+C/sM/fZWhP9BAC0AdtBBAKBybPuA2mj/SDxc/2+UmPgCiAj6a\r\n3VE/ZFaoPviGvz6j1L8+C3RYPhnZDD4E95w9/G13PVYBND5s4YY9u3txPqZIKj6d3DM+awgAPiT7\r\nPz57AZo+ftD2PZX8lz7lD3w+QvfBPnMC2j/Hess+i8SbPXtEPT7pBLs9WPmIPU7QQD7aYCE+CFDq\r\nPxEwjkCiX2lAxOiXP9AQgj8bPFg/PeEhPmLS7z1Fs7Q++5kMP0zuIz8Uyy0/Y5PoPoo6aj5Bnjc/\r\nNes9P+STKT9JktQ/WK4AQFpiCD/AIEg/Tr8yQIOoaj70wPQ8ENFyPQjLEj2nVkw+r0gEPuNyoz1s\r\nZ3c9BfSlPRsZ0T3ATgE/FqLnPszXPD+1NeQ+HmWTPzVWED516V0+LHr+PWyLeT04C6U96o3pPVuk\r\ntD39Rx0+spThPbi+hD7T0pY+QeKQPvbjpD8UmZg/U3MEP3Zuiz7lJVQ/2rp7P3TlHUB/I6A/lF1y\r\nP0ldVj+6yqk/C06+QA0CoD/60ABB15KzQAJZiD/u6K0/RscMQLgX7z+iIuE/XfZAQP4ezkDr50dA\r\nEeIbQPwy5EBYAmY/yXQ4Pwb0+D+V3dY/qyE2P3cgxkC6hAJBw/rlP+xlBUBk3x1A9c+wPzZn8T8y\r\nY7RAZgu6QFblxEBQoYlAveOPP3l83j7ooQw/mEqgPwl4TUACr2A/CUb+P/ZZRUGakARA5RZ+QCXu\r\nL0AoWe8/sOpYPxtGaz+qCTRAcn6nP8YJIj8gDo1A3D0EQb7VuD9qGxBBCq6uQTjpKUAiZWJB/tpK\r\nQCE6nUBtxKo/pLPOPmjAcT/0iGU+M59YPkUHIz5cW1E+gHgTPVhaqT39L6k+wKs2Pw5vEj6EdCE+\r\n+ZRwPn9NBT6Pq9s+zGGlP9m4qT/BQtw//A4hP1ilNz7uEfs9eN4NPUxROD4qJm4/+aTLP7QYNz95\r\nflA/mOItQEATVz8A4JE/iaj/P4FGrT/xUek/SErqPie6/D4noOI/lx9UP5BgXT/XTFQ/EJOBQKki\r\nMkDwW1VAlr2ePxv110AIWoo+yoEgPvWj6j6kRE4+tOz8Pdji9jznf+k9ZRqZPmmPQj5TJps+wlqb\r\nPVEdfz16OjI+Okb4Pi7x/D1ikTs+KjtZPQAHxTxLaTU9+AUsPvnihD3lLZY9c0BvPktOCz2FIA0+\r\nEamrPSz+cTwPPdE9QlugPUd7RD6061E+JYAAPhw0ST6CH+498Lg1Peo8YDv/3AE9UkCjPHTAqDzn\r\nE3I8duR/OzS+DjzO4iw8FNWkOzOkyzusnAk8s0IBO1dSozvwf+Q7RfSgO+RByzuEg4E7WHOUO/CU\r\ngjtgY5M76kq2Oy/JgzvyPXY7Gj9vOwIfVju+6lY7gBZ5O/CZXDsvehU7e5EAOwbaUDsMQzE7hzov\r\nO5+v0Toa+CY7CmUuO+Q25DrE9CE7upoHO5xMDjsf/tg6ZFVOO0ysRTscyQA7RhYbO3uPCzspk+w6\r\n4FPYOkAX3Dot1fA6nYgEO6Zi/zoXz9g6r/rWOojbzTrOn8s6GbDVOsQxzjpY5806mmrQOh5AwzoK\r\nWMQ6Hji9Oty4uzp6bqw64dyuOlRwrjp+gK86KgKwOtnEsTr7K646Hs2rOp3epToy06k6LkiSOqDE\r\ngjrnz6865j7KOrZzljrEPnc6P2mXOgjJqzrgBqQ62cacOpGjlzrfkpc6A9uUOmunkjp+BH46fjlx\r\nOqeuhDq6tYY6DnCKOktcjTouxIE6euyFOk1YfTqq7oE6dl2DOi5dbDru+nw6FFJ6OmTScjoBom46\r\nVv12OqjbbDqq12w6XER5OtYMbjo+GGo6bNBkOtpnYDq0QV86FgRdOugfYzrYq1I6/+5dOnKIPTol\r\npzc6MQ86OsJwbTqkFW46l8IcOg4yPTpdxjw6VIyCOloxLTpWrYU67MFpOgycbDpAqWk6yH9UOtiF\r\nUDrtCEc6aLpFOm/4PTq0nUY6dDw+Ooo/YDpazCY6bigsOh3nNTpqY0I6gG1EOu53JzqwkSk6602H\r\nOqS7GToKVQY6i7lzOny/MTqOlUI6mcbsOSICQjpMWUs6aiRHOhp8Nzrw+yE62rscOghsHjogTBo6\r\nQ38vOoc/BTrkJBQ6AVwbOpKYEzor1i46Ab0rOm7CGTpVjCE64iUYOm8JJDo4YhQ6L0wWOiiaFzr0\r\nByA6RIMVOjDBAToYvhY6V+kIOuORJDpOHSE6nWcZOpNU/zkg4hE6V9kfOkYWCToqAgU6pdgVOl4N\r\nDjp6oQY6OPUJOuhxDjp2cAg6EJ0HOoReCDpuIQY6DxH9OebZBjoxrf85Kpj7OcFeCDpXfgQ6kLz+\r\nOfgaBTqMyAU62rv6OVCU+TkkQPg5iob6OWgY+TlEV/Y55GwBOuCX9Dn4i/k5Abn4OUpc8jlC5vQ5\r\nNKX2Od599Dl0TPE5ukvwOUIu7DncP/c5Pc3vOSCx7znhZOQ5QjDqOYTt4zly2OQ5kG/hObcv4jka\r\nYuQ5tpHmObZ04DlYjPQ5XUvhOXN84zlr+NQ5sD3dOa+P3DkWyN45LGnhOUaA3zk4y945parXOWtU\r\n0jnLoc45+ynTOVJ13zmEINE5AKbbOQ/gzTkMgs052zfMOTGZ1TnPvtM5tJjIOWOXxjma0ck5TBfK\r\nOZlw0jnqUtA5ZRHMOdZ7zDkDK9E58ZjJOUaX0DnaGcw5cJjPOYNXyjnLQ745eG2+OX8lvjkEn705\r\nZLvIOcpsvDkwdbg5CMS7OQOMsTl/WLg5e+u5OcW9vDmRMr05nVWvOdEDszkmCMk5jze7ORzctznG\r\nR605+pS6OagasjmBOrY5QHKwOdD7uTlMwro5oaa0OTJIszkZT7E5tSasOS/CsDm8QbU5JbSnOZRp\r\nrjkf76s5YSixOXh4rTmep6o5LdCsOfpGtDleHas59h60OUUOrDlTm685B3OrOWRqrTn4jaA5Poaz\r\nOZVMrTl3d685PKavOedopjlUQ6g5yWulOeXsrDly8qA5EkusOctCqTmnJaA5AuCkOeCVmjmgQaQ5\r\nyJqfOaY9pjlyb585bH6hOQhEnTn1sac5nAOfOQz9qjl/9545qAueOXwfnDlM/Z45gpmaOVEvnDkI\r\n4pc5VmGmOcd4oznTGaE5enaaOTAmkjn/yKI5opuXOWe0lzl7rpc5dvuaObZYkjmq+pY5aXebOVpM\r\nmTk2Wps5gICYORvIjTns8Js5Hq2UOeqOjTkBxpc5/dmZOZxSmzkGD5g5BQGROdHrkDk6Uog5uzed\r\nObcUkTlUooc5NySSOUlakjk/5pY5+IePOYFgmDl3F5Q54smLOYSiijkKRI05V5yROZuykDl4UYw5\r\nG9COOZwVjjlx0Y05HL+LOZhNlTloB4k5cFWOOfAXjzm51Y45qFuDOUJmjTl0TYo5fMeLObzehzly\r\nkYk5eKKJOd5xgTnqzJM5wuKEOTzvizk+mIE5XgOFOW5CgTmSl445fLCBOYXGiDkWt4g5ToaROcSH\r\nhTly2oU5LSOFOb91iTlcFIM5e2+COYFohjkVBn05ammEOXUOgDlC/Xc5S/V/OWEpgTm6D385YPuF\r\nOQ+HgTnYdYI5flaAOXV5gDksRYc5ko2COTjVdjneSHU53peBOdiueDlUeIM53kR/OfIEhjnO5Ho5\r\nv3R6Oa2EhDnEH345MnF/OUdUgDkWR4M5fPl7OcFTezmVNoA5chSAORNofznfH3451r5uOW0AiDkp\r\nD4E5fBZvOcN6bTlwCXo5b11vOaYUfzn35WY5nlB2Oa5EYzmL8IA5IkZ5ORIudjknnHM5l3ptOZM8\r\nbTl3p3g5cXRuOe5hejn6Pms57o9zOfdDdjmC1nk52GBfOSGDfDl98G85XOpnOUXUazmZNmQ5bbt3\r\nOegBYzmy+mk5WQNhOdwbcDnrNmE5XfxqOWPTbDn0NWE5pYtyOdX+Yjl+snI5vO5tOcsnYzl/d2Y5\r\nDvBmOcdcbjlITWw5YbplObzwgjngfmw5XOFtOUSBaDk4LmI5TPh0OeOwZDkaR3U56n5uOXpyazle\r\nt3Q5f5xqOfo0ZDkYtHE57hNuOZ04ZTkzFm056RZhOV6mZzl1AGQ5+jNcOT+8YDnpYGE5er5jOV6q\r\nVjmgXWA5NXljOWAZaDlrWGM5G09bOQkxZjl97Fc5B+pbOcMtbznYTVk5fo9mOV11ZDk5KVg5rGRq\r\nOcudWzm5kW85RQhYOWU2XjkvxlU5I95gOaGrVjmHoVY5gHdnOaSdTzlTKVU5ihdnOXYUXTkbr1s5\r\nVH5ZOQJRTTl0oVQ595xWOcvfdDnoe2I5Dc9kOQYXWDn+tks54CFnOWJPUDmPdVw5q5deOR1NVjns\r\nyE05Yk1nORGDUznBnGw5TB1cOdb4YTk290058AhrOYoBXTmS/1k5JuxkOb87Ujl0U1I5cS1kOfqW\r\nUTmFSGY5fuVTOZUMUTlLNVc5zo5iOUwvYDmVq1s5SBNPOXfvWDnk0ls5TydfOadBTDkePEo5/XVZ\r\nOdnSYznalVQ5JJpYOZcXVjn4M045u3tTOdDsWzmZHFI5sntbOWaIYDmiDVg5t2ZWOV+2Xzn8uFM5\r\nxu9WOe4fYjl0/U45FkRWOW94WzlIJlM57gZjOWIOUzmeaVw5dwxXOc3mUTnKn1o5b1RROQYOXznp\r\nX1g5LDJdOWYFajktEl05xyhUOahISzlPS1A5WnhZOTSKajmUhFo5lcFVOZq4WTmUQlA5xPBQOc8v\r\nWDlumlQ53YxEOYjeWjmLz1Y5jWtTOT0JWzmlLGE5PMpNOVFwSzlnHlw5oI9ZOXlFUzkGmEQ5VExo\r\nOVTsXjkLn1c5vadPOfT8VDmvVEM5YbFZOVx9XTnTM185yilbObJDVTlfkkg5/DxZOQARVDkQzFE+\r\n0iudQN6ygD4g7Ac/5g7gP1ZX3UA7FpNAHAcrQGFW9D8eS1c/Jy8yP09nPz/iKGg/njB9P0ZRxD6u\r\nsg4+TmVBPo0tDT7OVYg+ToiFPjvtOz7Y7wY/VOijP25Xjj/ikPw/QwYkP34XwD5tPrE/R4CYP2wz\r\nh0DIpHhB6usyQbiOTUFewiBCwJlcQdtSpEGo4I1Bi3yEQI4tVUCqHwBAKOPcP7eOqz93QM0/rh6p\r\nP8YGhkB1KgxABNnKPzLmij+so1ZA0/+hQJaah0A8E6g/jsmrP0+wGj+SVRI/7DJiPlntoD5o6qg/\r\nwneSPhSHCj8iiKA+qqvmPwg7qT/6/As/Vxo8QMGmMD93NqY/UvFrQY6J2D/Ne7A/5awFPyxAaD+4\r\nI1I/D9sCQJsPgT8eCqs/YOfOPpkryz+29gU/TpX4Pj5uED5b3+U93FmhPjnJzj3uRg0+lo+JPlWc\r\ncT7NR7o+qEu5Ptp9JT+1HxI+TjeNPpwScD4QP4U+FvQqP7PDhT71QoQ9BgxqPUK6FT7fylc9FlaK\r\nPTWUjT2PXug+UiRNPsRdVj1HRqk9OEvQPn0FID6iOD8+0R9ZPY45Mj/m32k+f0QsP2Z6uD1iXGo+\r\nGciNPfDWND6WVfw9lC+CP4L+wz99laE/0EALQB20EEAoHJs+4DaaP9IPFz/b5SY+AKICPprdUT9k\r\nVqg++Ia/PqPUvz4LdFg+GdkMPgT3nD38bXc9VgE0Pmzhhj27e3E+pkgqPp3cMz5rCAA+JPs/PnsB\r\nmj5+0PY9lfyXPuUPfD5C98E+cwLaP8d6yz6LxJs9e0Q9PukEuz1Y+Yg9TtBAPtpgIT4IUOo/ETCO\r\nQKJfaUDE6Jc/0BCCPxs8WD894SE+YtLvPUWztD77mQw/TO4jPxTLLT9jk+g+ijpqPkGeNz816z0/\r\n5JMpP0mS1D9YrgBAWmIIP8AgSD9OvzJAg6hqPvTA9DwQ0XI9CMsSPadWTD6vSAQ+43KjPWxndz0F\r\n9KU9GxnRPcBOAT8Wouc+zNc8P7U15D4eZZM/NVYQPnXpXT4sev49bIt5PTgLpT3qjek9W6S0Pf1H\r\nHT6ylOE9uL6EPtPSlj5B4pA+9uOkPxSZmD9TcwQ/dm6LPuUlVD/auns/dOUdQH8joD+UXXI/SV1W\r\nP7rKqT8LTr5ADQKgP/rQAEHXkrNAAlmIP+7orT9GxwxAuBfvP6Ii4T9d9kBA/h7OQOvnR0AR4htA\r\n/DLkQFgCZj/JdDg/BvT4P5Xd1j+rITY/dyDGQLqEAkHD+uU/7GUFQGTfHUD1z7A/NmfxPzJjtEBm\r\nC7pAVuXEQFChiUC9448/eXzePuihDD+YSqA/CXhNQAKvYD8JRv4/9llFQZqQBEDlFn5AJe4vQChZ\r\n7z+w6lg/G0ZrP6oJNEByfqc/xgkiPyAOjUDcPQRBvtW4P2obEEEKrq5BOOkpQCJlYkH+2kpAITqd\r\nQG3Eqj+ks84+aMBxP/SIZT4zn1g+RQcjPlxbUT6AeBM9WFqpPf0vqT7AqzY/Dm8SPoR0IT75lHA+\r\nf00FPo+r2z7MYaU/2bipP8FC3D/8DiE/WKU3Pu4R+z143g09TFE4Piombj/5pMs/tBg3P3l+UD+Y\r\n4i1AQBNXPwDgkT+JqP8/gUatP/FR6T9ISuo+J7r8Pieg4j+XH1Q/kGBdP9dMVD8Qk4FAqSIyQPBb\r\nVUCWvZ4/G/XXQAhaij7KgSA+9aPqPqRETj607Pw92OL2POd/6T1lGpk+aY9CPlMmmz7CWps9UR1/\r\nPXo6Mj46Rvg+LvH8PWKROz4qO1k9AAfFPEtpNT34BSw++eKEPeUtlj1zQG8+S04LPYUgDT4Rqas9\r\nLP5xPA890T1CW6A9R3tEPrTrUT4lgAA+HDRJPoIf7j3wuDU96jxgO//cAT1SQKM8dMCoPOcTcjx2\r\n5H87NL4OPM7iLDwU1aQ7M6TLO6ycCTyzQgE7V1KjO/B/5DtF9KA75EHLO4SDgTtYc5Q78JSCO2Bj\r\nkzvqSrY7L8mDO/I9djsaP287Ah9WO77qVjuAFnk78JlcOy96FTt7kQA7BtpQOwxDMTuHOi87n6/R\r\nOhr4JjsKZS475DbkOsT0ITu6mgc7nEwOOx/+2DpkVU47TKxFOxzJADtGFhs7e48LOymT7DrgU9g6\r\nQBfcOi3V8DqdiAQ7pmL/OhfP2Dqv+tY6iNvNOs6fyzoZsNU6xDHOOljnzTqaatA6HkDDOgpYxDoe\r\nOL063Li7OnpurDrh3K46VHCuOn6ArzoqArA62cSxOvsrrjoezas6nd6lOjLTqTouSJI6oMSCOufP\r\nrzrmPso6tnOWOsQ+dzo/aZc6CMmrOuAGpDrZxpw6kaOXOt+SlzoD25Q6a6eSOn4Efjp+OXE6p66E\r\nOrq1hjoOcIo6S1yNOi7EgTp67IU6TVh9OqrugTp2XYM6Ll1sOu76fDoUUno6ZNJyOgGibjpW/XY6\r\nqNtsOqrXbDpcRHk61gxuOj4Yajps0GQ62mdgOrRBXzoWBF066B9jOtirUjr/7l06cog9OiWnNzox\r\nDzo6wnBtOqQVbjqXwhw6DjI9Ol3GPDpUjII6WjEtOlathTrswWk6DJxsOkCpaTrIf1Q62IVQOu0I\r\nRzpoukU6b/g9OrSdRjp0PD46ij9gOlrMJjpuKCw6Hec1OmpjQjqAbUQ67ncnOrCRKTrrTYc6pLsZ\r\nOgpVBjqLuXM6fL8xOo6VQjqZxuw5IgJCOkxZSzpqJEc6Gnw3OvD7ITrauxw6CGweOiBMGjpDfy86\r\nhz8FOuQkFDoBXBs6kpgTOivWLjoBvSs6bsIZOlWMITriJRg6bwkkOjhiFDovTBY6KJoXOvQHIDpE\r\ngxU6MMEBOhi+FjpX6Qg645EkOk4dITqdZxk6k1T/OSDiETpX2R86RhYJOioCBTql2BU6Xg0OOnqh\r\nBjo49Qk66HEOOnZwCDoQnQc6hF4IOm4hBjoPEf055tkGOjGt/zkqmPs5wV4IOld+BDqQvP45+BoF\r\nOozIBTrau/o5UJT5OSRA+DmKhvo5aBj5OURX9jnkbAE64Jf0OfiL+TkBufg5SlzyOULm9Dk0pfY5\r\n3n30OXRM8Tm6S/A5Qi7sOdw/9zk9ze85ILHvOeFk5DlCMOo5hO3jOXLY5DmQb+E5ty/iORpi5Dm2\r\nkeY5tnTgOViM9DldS+E5c3zjOWv41DmwPd05r4/cORbI3jksaeE5RoDfOTjL3jmlqtc5a1TSOcuh\r\nzjn7KdM5UnXfOYQg0TkApts5D+DNOQyCzTnbN8w5MZnVOc++0zm0mMg5Y5fGOZrRyTlMF8o5mXDS\r\nOepS0DllEcw51nvMOQMr0TnxmMk5RpfQOdoZzDlwmM85g1fKOctDvjl4bb45fyW+OQSfvTlku8g5\r\nymy8OTB1uDkIxLs5A4yxOX9YuDl767k5xb28OZEyvTmdVa850QOzOSYIyTmPN7s5HNy3OcZHrTn6\r\nlLo5qBqyOYE6tjlAcrA50Pu5OUzCujmhprQ5MkizORlPsTm1Jqw5L8KwObxBtTkltKc5lGmuOR/v\r\nqzlhKLE5eHitOZ6nqjkt0Kw5+ka0OV4dqzn2HrQ5RQ6sOVObrzkHc6s5ZGqtOfiNoDk+hrM5lUyt\r\nOXd3rzk8pq8552imOVRDqDnJa6U55eysOXLyoDkSS6w5y0KpOacloDkC4KQ54JWaOaBBpDnImp85\r\npj2mOXJvnzlsfqE5CESdOfWxpzmcA585DP2qOX/3njmoC545fB+cOUz9njmCmZo5US+cOQjilzlW\r\nYaY5x3ijOdMZoTl6dpo5MCaSOf/Iojmim5c5Z7SXOXuulzl2+5o5tliSOar6ljlpd5s5WkyZOTZa\r\nmzmAgJg5G8iNOezwmzkerZQ56o6NOQHGlzn92Zk5nFKbOQYPmDkFAZE50euQOTpSiDm7N505txSR\r\nOVSihzk3JJI5SVqSOT/mljn4h485gWCYOXcXlDniyYs5hKKKOQpEjTlXnJE5m7KQOXhRjDkb0I45\r\nnBWOOXHRjTkcv4s5mE2VOWgHiTlwVY458BePObnVjjmoW4M5QmaNOXRNijl8x4s5vN6HOXKRiTl4\r\nook53nGBOerMkznC4oQ5PO+LOT6YgTleA4U5bkKBOZKXjjl8sIE5hcaIORa3iDlOhpE5xIeFOXLa\r\nhTktI4U5v3WJOVwUgzl7b4I5gWiGORUGfTlqaYQ5dQ6AOUL9dzlL9X85YSmBOboPfzlg+4U5D4eB\r\nOdh1gjl+VoA5dXmAOSxFhzmSjYI5ONV2Od5IdTnel4E52K54OVR4gzneRH858gSGOc7kejm/dHo5\r\nrYSEOcQffjkycX85R1SAORZHgzl8+Xs5wVN7OZU2gDlyFIA5E2h/Od8ffjnWvm45bQCIOSkPgTl8\r\nFm85w3ptOXAJejlvXW85phR/OfflZjmeUHY5rkRjOYvwgDkiRnk5Ei52OSecczmXem05kzxtOXen\r\neDlxdG457mF6Ofo+aznuj3M590N2OYLWeTnYYF85IYN8OX3wbzlc6mc5RdRrOZk2ZDltu3c56AFj\r\nObL6aTlZA2E53BtwOes2YTld/Go5Y9NsOfQ1YTmli3I51f5iOX6ycjm87m05yydjOX93ZjkO8GY5\r\nx1xuOUhNbDlhumU5vPCCOeB+bDlc4W05RIFoOTguYjlM+HQ547BkORpHdTnqfm45enJrOV63dDl/\r\nnGo5+jRkORi0cTnuE245nThlOTMWbTnpFmE5XqZnOXUAZDn6M1w5P7xgOelgYTl6vmM5XqpWOaBd\r\nYDk1eWM5YBloOWtYYzkbT1s5CTFmOX3sVzkH6ls5wy1vOdhNWTl+j2Y5XXVkOTkpWDmsZGo5y51b\r\nObmRbzlFCFg5ZTZeOS/GVTkj3mA5oatWOYehVjmAd2c5pJ1POVMpVTmKF2c5dhRdORuvWzlUflk5\r\nAlFNOXShVDn3nFY5y990Oeh7YjkNz2Q5BhdYOf62SzngIWc5Yk9QOY91XDmrl145HU1WOezITTli\r\nTWc5EYNTOcGcbDlMHVw51vhhOTb3TTnwCGs5igFdOZL/WTkm7GQ5vztSOXRTUjlxLWQ5+pZROYVI\r\nZjl+5VM5lQxROUs1VznOjmI5TC9gOZWrWzlIE085d+9YOeTSWzlPJ185p0FMOR48Sjn9dVk52dJj\r\nOdqVVDkkmlg5lxdWOfgzTjm7e1M50OxbOZkcUjmye1s5ZohgOaINWDm3ZlY5X7ZfOfy4UznG71Y5\r\n7h9iOXT9TjkWRFY5b3hbOUgmUznuBmM5Yg5TOZ5pXDl3DFc5zeZROcqfWjlvVFE5Bg5fOelfWDks\r\nMl05ZgVqOS0SXTnHKFQ5qEhLOU9LUDlaeFk5NIpqOZSEWjmVwVU5mrhZOZRCUDnE8FA5zy9YOW6a\r\nVDndjEQ5iN5aOYvPVjmNa1M5PQlbOaUsYTk8yk05UXBLOWceXDmgj1k5eUVTOQaYRDlUTGg5VOxe\r\nOQufVzm9p0859PxUOa9UQzlhsVk5XH1dOdMzXznKKVs5skNVOV+SSDn8PFk5ABFUOQ==",
                            "noiseTrainingType" : "default"
                          }
                        }
                    ],
                    "start" : 1779,
                    "duration" : 357,
                    "mediaStart" : 6066,
                    "mediaDuration" : 357,
                    "scalar" : 1,
                    "metadata" : {
                      "WinSubProjectDisplayName" : "",
                      "clipSpeedAttribute" : false
                    },
                    "animationTracks" : {

                    }
                  },
                  {
                    "id" : 75,
                    "_type" : "AMFile",
                    "src" : 1,
                    "trackNumber" : 1,
                    "attributes" : {
                      "ident" : "tower-columns-01",
                      "sampleRate" : 44100,
                      "bitDepth" : 16,
                      "gain" : 1.0,
                      "mixToMono" : false
                    },
                      "channelNumber" : "0,1",
                    "effects" : [
                        {
                          "effectName" : "NoiseReduction",
                          "category" : "categoryAudioEffects",
                          "parameters" : {
                            "denoiserAmount" : 20.0,
                            "denoiserThreshold" : 0.0,
                            "noiseProfile" : "EMxRPtIrnUDesoA+IOwHP+YO4D9WV91AOxaTQBwHK0BhVvQ/HktXPycvMj9PZz8/4ihoP54wfT9G\r\nUcQ+rrIOPk5lQT6NLQ0+zlWIPk6IhT477Ts+2O8GP1Tooz9uV44/4pD8P0MGJD9+F8A+bT6xP0eA\r\nmD9sM4dAyKR4QerrMkG4jk1BXsIgQsCZXEHbUqRBqOCNQYt8hECOLVVAqh8AQCjj3D+3jqs/d0DN\r\nP64eqT/GBoZAdSoMQATZyj8y5oo/rKNWQNP/oUCWmodAPBOoP47Jqz9PsBo/klUSP+wyYj5Z7aA+\r\naOqoP8J3kj4Uhwo/IoigPqqr5j8IO6k/+vwLP1caPEDBpjA/dzamP1Lxa0GOidg/zXuwP+WsBT8s\r\nQGg/uCNSPw/bAkCbD4E/HgqrP2Dnzj6ZK8s/tvYFP06V+D4+bhA+W9/lPdxZoT45yc497kYNPpaP\r\niT5VnHE+zUe6PqhLuT7afSU/tR8SPk43jT6cEnA+ED+FPhb0Kj+zw4U+9UKEPQYMaj1CuhU+38pX\r\nPRZWij01lI09j17oPlIkTT7EXVY9R0apPThL0D59BSA+ojg/PtEfWT2OOTI/5t9pPn9ELD9merg9\r\nYlxqPhnIjT3w1jQ+llX8PZQvgj+C/sM/fZWhP9BAC0AdtBBAKBybPuA2mj/SDxc/2+UmPgCiAj6a\r\n3VE/ZFaoPviGvz6j1L8+C3RYPhnZDD4E95w9/G13PVYBND5s4YY9u3txPqZIKj6d3DM+awgAPiT7\r\nPz57AZo+ftD2PZX8lz7lD3w+QvfBPnMC2j/Hess+i8SbPXtEPT7pBLs9WPmIPU7QQD7aYCE+CFDq\r\nPxEwjkCiX2lAxOiXP9AQgj8bPFg/PeEhPmLS7z1Fs7Q++5kMP0zuIz8Uyy0/Y5PoPoo6aj5Bnjc/\r\nNes9P+STKT9JktQ/WK4AQFpiCD/AIEg/Tr8yQIOoaj70wPQ8ENFyPQjLEj2nVkw+r0gEPuNyoz1s\r\nZ3c9BfSlPRsZ0T3ATgE/FqLnPszXPD+1NeQ+HmWTPzVWED516V0+LHr+PWyLeT04C6U96o3pPVuk\r\ntD39Rx0+spThPbi+hD7T0pY+QeKQPvbjpD8UmZg/U3MEP3Zuiz7lJVQ/2rp7P3TlHUB/I6A/lF1y\r\nP0ldVj+6yqk/C06+QA0CoD/60ABB15KzQAJZiD/u6K0/RscMQLgX7z+iIuE/XfZAQP4ezkDr50dA\r\nEeIbQPwy5EBYAmY/yXQ4Pwb0+D+V3dY/qyE2P3cgxkC6hAJBw/rlP+xlBUBk3x1A9c+wPzZn8T8y\r\nY7RAZgu6QFblxEBQoYlAveOPP3l83j7ooQw/mEqgPwl4TUACr2A/CUb+P/ZZRUGakARA5RZ+QCXu\r\nL0AoWe8/sOpYPxtGaz+qCTRAcn6nP8YJIj8gDo1A3D0EQb7VuD9qGxBBCq6uQTjpKUAiZWJB/tpK\r\nQCE6nUBtxKo/pLPOPmjAcT/0iGU+M59YPkUHIz5cW1E+gHgTPVhaqT39L6k+wKs2Pw5vEj6EdCE+\r\n+ZRwPn9NBT6Pq9s+zGGlP9m4qT/BQtw//A4hP1ilNz7uEfs9eN4NPUxROD4qJm4/+aTLP7QYNz95\r\nflA/mOItQEATVz8A4JE/iaj/P4FGrT/xUek/SErqPie6/D4noOI/lx9UP5BgXT/XTFQ/EJOBQKki\r\nMkDwW1VAlr2ePxv110AIWoo+yoEgPvWj6j6kRE4+tOz8Pdji9jznf+k9ZRqZPmmPQj5TJps+wlqb\r\nPVEdfz16OjI+Okb4Pi7x/D1ikTs+KjtZPQAHxTxLaTU9+AUsPvnihD3lLZY9c0BvPktOCz2FIA0+\r\nEamrPSz+cTwPPdE9QlugPUd7RD6061E+JYAAPhw0ST6CH+498Lg1Peo8YDv/3AE9UkCjPHTAqDzn\r\nE3I8duR/OzS+DjzO4iw8FNWkOzOkyzusnAk8s0IBO1dSozvwf+Q7RfSgO+RByzuEg4E7WHOUO/CU\r\ngjtgY5M76kq2Oy/JgzvyPXY7Gj9vOwIfVju+6lY7gBZ5O/CZXDsvehU7e5EAOwbaUDsMQzE7hzov\r\nO5+v0Toa+CY7CmUuO+Q25DrE9CE7upoHO5xMDjsf/tg6ZFVOO0ysRTscyQA7RhYbO3uPCzspk+w6\r\n4FPYOkAX3Dot1fA6nYgEO6Zi/zoXz9g6r/rWOojbzTrOn8s6GbDVOsQxzjpY5806mmrQOh5AwzoK\r\nWMQ6Hji9Oty4uzp6bqw64dyuOlRwrjp+gK86KgKwOtnEsTr7K646Hs2rOp3epToy06k6LkiSOqDE\r\ngjrnz6865j7KOrZzljrEPnc6P2mXOgjJqzrgBqQ62cacOpGjlzrfkpc6A9uUOmunkjp+BH46fjlx\r\nOqeuhDq6tYY6DnCKOktcjTouxIE6euyFOk1YfTqq7oE6dl2DOi5dbDru+nw6FFJ6OmTScjoBom46\r\nVv12OqjbbDqq12w6XER5OtYMbjo+GGo6bNBkOtpnYDq0QV86FgRdOugfYzrYq1I6/+5dOnKIPTol\r\npzc6MQ86OsJwbTqkFW46l8IcOg4yPTpdxjw6VIyCOloxLTpWrYU67MFpOgycbDpAqWk6yH9UOtiF\r\nUDrtCEc6aLpFOm/4PTq0nUY6dDw+Ooo/YDpazCY6bigsOh3nNTpqY0I6gG1EOu53JzqwkSk6602H\r\nOqS7GToKVQY6i7lzOny/MTqOlUI6mcbsOSICQjpMWUs6aiRHOhp8Nzrw+yE62rscOghsHjogTBo6\r\nQ38vOoc/BTrkJBQ6AVwbOpKYEzor1i46Ab0rOm7CGTpVjCE64iUYOm8JJDo4YhQ6L0wWOiiaFzr0\r\nByA6RIMVOjDBAToYvhY6V+kIOuORJDpOHSE6nWcZOpNU/zkg4hE6V9kfOkYWCToqAgU6pdgVOl4N\r\nDjp6oQY6OPUJOuhxDjp2cAg6EJ0HOoReCDpuIQY6DxH9OebZBjoxrf85Kpj7OcFeCDpXfgQ6kLz+\r\nOfgaBTqMyAU62rv6OVCU+TkkQPg5iob6OWgY+TlEV/Y55GwBOuCX9Dn4i/k5Abn4OUpc8jlC5vQ5\r\nNKX2Od599Dl0TPE5ukvwOUIu7DncP/c5Pc3vOSCx7znhZOQ5QjDqOYTt4zly2OQ5kG/hObcv4jka\r\nYuQ5tpHmObZ04DlYjPQ5XUvhOXN84zlr+NQ5sD3dOa+P3DkWyN45LGnhOUaA3zk4y945parXOWtU\r\n0jnLoc45+ynTOVJ13zmEINE5AKbbOQ/gzTkMgs052zfMOTGZ1TnPvtM5tJjIOWOXxjma0ck5TBfK\r\nOZlw0jnqUtA5ZRHMOdZ7zDkDK9E58ZjJOUaX0DnaGcw5cJjPOYNXyjnLQ745eG2+OX8lvjkEn705\r\nZLvIOcpsvDkwdbg5CMS7OQOMsTl/WLg5e+u5OcW9vDmRMr05nVWvOdEDszkmCMk5jze7ORzctznG\r\nR605+pS6OagasjmBOrY5QHKwOdD7uTlMwro5oaa0OTJIszkZT7E5tSasOS/CsDm8QbU5JbSnOZRp\r\nrjkf76s5YSixOXh4rTmep6o5LdCsOfpGtDleHas59h60OUUOrDlTm685B3OrOWRqrTn4jaA5Poaz\r\nOZVMrTl3d685PKavOedopjlUQ6g5yWulOeXsrDly8qA5EkusOctCqTmnJaA5AuCkOeCVmjmgQaQ5\r\nyJqfOaY9pjlyb585bH6hOQhEnTn1sac5nAOfOQz9qjl/9545qAueOXwfnDlM/Z45gpmaOVEvnDkI\r\n4pc5VmGmOcd4oznTGaE5enaaOTAmkjn/yKI5opuXOWe0lzl7rpc5dvuaObZYkjmq+pY5aXebOVpM\r\nmTk2Wps5gICYORvIjTns8Js5Hq2UOeqOjTkBxpc5/dmZOZxSmzkGD5g5BQGROdHrkDk6Uog5uzed\r\nObcUkTlUooc5NySSOUlakjk/5pY5+IePOYFgmDl3F5Q54smLOYSiijkKRI05V5yROZuykDl4UYw5\r\nG9COOZwVjjlx0Y05HL+LOZhNlTloB4k5cFWOOfAXjzm51Y45qFuDOUJmjTl0TYo5fMeLObzehzly\r\nkYk5eKKJOd5xgTnqzJM5wuKEOTzvizk+mIE5XgOFOW5CgTmSl445fLCBOYXGiDkWt4g5ToaROcSH\r\nhTly2oU5LSOFOb91iTlcFIM5e2+COYFohjkVBn05ammEOXUOgDlC/Xc5S/V/OWEpgTm6D385YPuF\r\nOQ+HgTnYdYI5flaAOXV5gDksRYc5ko2COTjVdjneSHU53peBOdiueDlUeIM53kR/OfIEhjnO5Ho5\r\nv3R6Oa2EhDnEH345MnF/OUdUgDkWR4M5fPl7OcFTezmVNoA5chSAORNofznfH3451r5uOW0AiDkp\r\nD4E5fBZvOcN6bTlwCXo5b11vOaYUfzn35WY5nlB2Oa5EYzmL8IA5IkZ5ORIudjknnHM5l3ptOZM8\r\nbTl3p3g5cXRuOe5hejn6Pms57o9zOfdDdjmC1nk52GBfOSGDfDl98G85XOpnOUXUazmZNmQ5bbt3\r\nOegBYzmy+mk5WQNhOdwbcDnrNmE5XfxqOWPTbDn0NWE5pYtyOdX+Yjl+snI5vO5tOcsnYzl/d2Y5\r\nDvBmOcdcbjlITWw5YbplObzwgjngfmw5XOFtOUSBaDk4LmI5TPh0OeOwZDkaR3U56n5uOXpyazle\r\nt3Q5f5xqOfo0ZDkYtHE57hNuOZ04ZTkzFm056RZhOV6mZzl1AGQ5+jNcOT+8YDnpYGE5er5jOV6q\r\nVjmgXWA5NXljOWAZaDlrWGM5G09bOQkxZjl97Fc5B+pbOcMtbznYTVk5fo9mOV11ZDk5KVg5rGRq\r\nOcudWzm5kW85RQhYOWU2XjkvxlU5I95gOaGrVjmHoVY5gHdnOaSdTzlTKVU5ihdnOXYUXTkbr1s5\r\nVH5ZOQJRTTl0oVQ595xWOcvfdDnoe2I5Dc9kOQYXWDn+tks54CFnOWJPUDmPdVw5q5deOR1NVjns\r\nyE05Yk1nORGDUznBnGw5TB1cOdb4YTk290058AhrOYoBXTmS/1k5JuxkOb87Ujl0U1I5cS1kOfqW\r\nUTmFSGY5fuVTOZUMUTlLNVc5zo5iOUwvYDmVq1s5SBNPOXfvWDnk0ls5TydfOadBTDkePEo5/XVZ\r\nOdnSYznalVQ5JJpYOZcXVjn4M045u3tTOdDsWzmZHFI5sntbOWaIYDmiDVg5t2ZWOV+2Xzn8uFM5\r\nxu9WOe4fYjl0/U45FkRWOW94WzlIJlM57gZjOWIOUzmeaVw5dwxXOc3mUTnKn1o5b1RROQYOXznp\r\nX1g5LDJdOWYFajktEl05xyhUOahISzlPS1A5WnhZOTSKajmUhFo5lcFVOZq4WTmUQlA5xPBQOc8v\r\nWDlumlQ53YxEOYjeWjmLz1Y5jWtTOT0JWzmlLGE5PMpNOVFwSzlnHlw5oI9ZOXlFUzkGmEQ5VExo\r\nOVTsXjkLn1c5vadPOfT8VDmvVEM5YbFZOVx9XTnTM185yilbObJDVTlfkkg5/DxZOQARVDkQzFE+\r\n0iudQN6ygD4g7Ac/5g7gP1ZX3UA7FpNAHAcrQGFW9D8eS1c/Jy8yP09nPz/iKGg/njB9P0ZRxD6u\r\nsg4+TmVBPo0tDT7OVYg+ToiFPjvtOz7Y7wY/VOijP25Xjj/ikPw/QwYkP34XwD5tPrE/R4CYP2wz\r\nh0DIpHhB6usyQbiOTUFewiBCwJlcQdtSpEGo4I1Bi3yEQI4tVUCqHwBAKOPcP7eOqz93QM0/rh6p\r\nP8YGhkB1KgxABNnKPzLmij+so1ZA0/+hQJaah0A8E6g/jsmrP0+wGj+SVRI/7DJiPlntoD5o6qg/\r\nwneSPhSHCj8iiKA+qqvmPwg7qT/6/As/Vxo8QMGmMD93NqY/UvFrQY6J2D/Ne7A/5awFPyxAaD+4\r\nI1I/D9sCQJsPgT8eCqs/YOfOPpkryz+29gU/TpX4Pj5uED5b3+U93FmhPjnJzj3uRg0+lo+JPlWc\r\ncT7NR7o+qEu5Ptp9JT+1HxI+TjeNPpwScD4QP4U+FvQqP7PDhT71QoQ9BgxqPUK6FT7fylc9FlaK\r\nPTWUjT2PXug+UiRNPsRdVj1HRqk9OEvQPn0FID6iOD8+0R9ZPY45Mj/m32k+f0QsP2Z6uD1iXGo+\r\nGciNPfDWND6WVfw9lC+CP4L+wz99laE/0EALQB20EEAoHJs+4DaaP9IPFz/b5SY+AKICPprdUT9k\r\nVqg++Ia/PqPUvz4LdFg+GdkMPgT3nD38bXc9VgE0Pmzhhj27e3E+pkgqPp3cMz5rCAA+JPs/PnsB\r\nmj5+0PY9lfyXPuUPfD5C98E+cwLaP8d6yz6LxJs9e0Q9PukEuz1Y+Yg9TtBAPtpgIT4IUOo/ETCO\r\nQKJfaUDE6Jc/0BCCPxs8WD894SE+YtLvPUWztD77mQw/TO4jPxTLLT9jk+g+ijpqPkGeNz816z0/\r\n5JMpP0mS1D9YrgBAWmIIP8AgSD9OvzJAg6hqPvTA9DwQ0XI9CMsSPadWTD6vSAQ+43KjPWxndz0F\r\n9KU9GxnRPcBOAT8Wouc+zNc8P7U15D4eZZM/NVYQPnXpXT4sev49bIt5PTgLpT3qjek9W6S0Pf1H\r\nHT6ylOE9uL6EPtPSlj5B4pA+9uOkPxSZmD9TcwQ/dm6LPuUlVD/auns/dOUdQH8joD+UXXI/SV1W\r\nP7rKqT8LTr5ADQKgP/rQAEHXkrNAAlmIP+7orT9GxwxAuBfvP6Ii4T9d9kBA/h7OQOvnR0AR4htA\r\n/DLkQFgCZj/JdDg/BvT4P5Xd1j+rITY/dyDGQLqEAkHD+uU/7GUFQGTfHUD1z7A/NmfxPzJjtEBm\r\nC7pAVuXEQFChiUC9448/eXzePuihDD+YSqA/CXhNQAKvYD8JRv4/9llFQZqQBEDlFn5AJe4vQChZ\r\n7z+w6lg/G0ZrP6oJNEByfqc/xgkiPyAOjUDcPQRBvtW4P2obEEEKrq5BOOkpQCJlYkH+2kpAITqd\r\nQG3Eqj+ks84+aMBxP/SIZT4zn1g+RQcjPlxbUT6AeBM9WFqpPf0vqT7AqzY/Dm8SPoR0IT75lHA+\r\nf00FPo+r2z7MYaU/2bipP8FC3D/8DiE/WKU3Pu4R+z143g09TFE4Piombj/5pMs/tBg3P3l+UD+Y\r\n4i1AQBNXPwDgkT+JqP8/gUatP/FR6T9ISuo+J7r8Pieg4j+XH1Q/kGBdP9dMVD8Qk4FAqSIyQPBb\r\nVUCWvZ4/G/XXQAhaij7KgSA+9aPqPqRETj607Pw92OL2POd/6T1lGpk+aY9CPlMmmz7CWps9UR1/\r\nPXo6Mj46Rvg+LvH8PWKROz4qO1k9AAfFPEtpNT34BSw++eKEPeUtlj1zQG8+S04LPYUgDT4Rqas9\r\nLP5xPA890T1CW6A9R3tEPrTrUT4lgAA+HDRJPoIf7j3wuDU96jxgO//cAT1SQKM8dMCoPOcTcjx2\r\n5H87NL4OPM7iLDwU1aQ7M6TLO6ycCTyzQgE7V1KjO/B/5DtF9KA75EHLO4SDgTtYc5Q78JSCO2Bj\r\nkzvqSrY7L8mDO/I9djsaP287Ah9WO77qVjuAFnk78JlcOy96FTt7kQA7BtpQOwxDMTuHOi87n6/R\r\nOhr4JjsKZS475DbkOsT0ITu6mgc7nEwOOx/+2DpkVU47TKxFOxzJADtGFhs7e48LOymT7DrgU9g6\r\nQBfcOi3V8DqdiAQ7pmL/OhfP2Dqv+tY6iNvNOs6fyzoZsNU6xDHOOljnzTqaatA6HkDDOgpYxDoe\r\nOL063Li7OnpurDrh3K46VHCuOn6ArzoqArA62cSxOvsrrjoezas6nd6lOjLTqTouSJI6oMSCOufP\r\nrzrmPso6tnOWOsQ+dzo/aZc6CMmrOuAGpDrZxpw6kaOXOt+SlzoD25Q6a6eSOn4Efjp+OXE6p66E\r\nOrq1hjoOcIo6S1yNOi7EgTp67IU6TVh9OqrugTp2XYM6Ll1sOu76fDoUUno6ZNJyOgGibjpW/XY6\r\nqNtsOqrXbDpcRHk61gxuOj4Yajps0GQ62mdgOrRBXzoWBF066B9jOtirUjr/7l06cog9OiWnNzox\r\nDzo6wnBtOqQVbjqXwhw6DjI9Ol3GPDpUjII6WjEtOlathTrswWk6DJxsOkCpaTrIf1Q62IVQOu0I\r\nRzpoukU6b/g9OrSdRjp0PD46ij9gOlrMJjpuKCw6Hec1OmpjQjqAbUQ67ncnOrCRKTrrTYc6pLsZ\r\nOgpVBjqLuXM6fL8xOo6VQjqZxuw5IgJCOkxZSzpqJEc6Gnw3OvD7ITrauxw6CGweOiBMGjpDfy86\r\nhz8FOuQkFDoBXBs6kpgTOivWLjoBvSs6bsIZOlWMITriJRg6bwkkOjhiFDovTBY6KJoXOvQHIDpE\r\ngxU6MMEBOhi+FjpX6Qg645EkOk4dITqdZxk6k1T/OSDiETpX2R86RhYJOioCBTql2BU6Xg0OOnqh\r\nBjo49Qk66HEOOnZwCDoQnQc6hF4IOm4hBjoPEf055tkGOjGt/zkqmPs5wV4IOld+BDqQvP45+BoF\r\nOozIBTrau/o5UJT5OSRA+DmKhvo5aBj5OURX9jnkbAE64Jf0OfiL+TkBufg5SlzyOULm9Dk0pfY5\r\n3n30OXRM8Tm6S/A5Qi7sOdw/9zk9ze85ILHvOeFk5DlCMOo5hO3jOXLY5DmQb+E5ty/iORpi5Dm2\r\nkeY5tnTgOViM9DldS+E5c3zjOWv41DmwPd05r4/cORbI3jksaeE5RoDfOTjL3jmlqtc5a1TSOcuh\r\nzjn7KdM5UnXfOYQg0TkApts5D+DNOQyCzTnbN8w5MZnVOc++0zm0mMg5Y5fGOZrRyTlMF8o5mXDS\r\nOepS0DllEcw51nvMOQMr0TnxmMk5RpfQOdoZzDlwmM85g1fKOctDvjl4bb45fyW+OQSfvTlku8g5\r\nymy8OTB1uDkIxLs5A4yxOX9YuDl767k5xb28OZEyvTmdVa850QOzOSYIyTmPN7s5HNy3OcZHrTn6\r\nlLo5qBqyOYE6tjlAcrA50Pu5OUzCujmhprQ5MkizORlPsTm1Jqw5L8KwObxBtTkltKc5lGmuOR/v\r\nqzlhKLE5eHitOZ6nqjkt0Kw5+ka0OV4dqzn2HrQ5RQ6sOVObrzkHc6s5ZGqtOfiNoDk+hrM5lUyt\r\nOXd3rzk8pq8552imOVRDqDnJa6U55eysOXLyoDkSS6w5y0KpOacloDkC4KQ54JWaOaBBpDnImp85\r\npj2mOXJvnzlsfqE5CESdOfWxpzmcA585DP2qOX/3njmoC545fB+cOUz9njmCmZo5US+cOQjilzlW\r\nYaY5x3ijOdMZoTl6dpo5MCaSOf/Iojmim5c5Z7SXOXuulzl2+5o5tliSOar6ljlpd5s5WkyZOTZa\r\nmzmAgJg5G8iNOezwmzkerZQ56o6NOQHGlzn92Zk5nFKbOQYPmDkFAZE50euQOTpSiDm7N505txSR\r\nOVSihzk3JJI5SVqSOT/mljn4h485gWCYOXcXlDniyYs5hKKKOQpEjTlXnJE5m7KQOXhRjDkb0I45\r\nnBWOOXHRjTkcv4s5mE2VOWgHiTlwVY458BePObnVjjmoW4M5QmaNOXRNijl8x4s5vN6HOXKRiTl4\r\nook53nGBOerMkznC4oQ5PO+LOT6YgTleA4U5bkKBOZKXjjl8sIE5hcaIORa3iDlOhpE5xIeFOXLa\r\nhTktI4U5v3WJOVwUgzl7b4I5gWiGORUGfTlqaYQ5dQ6AOUL9dzlL9X85YSmBOboPfzlg+4U5D4eB\r\nOdh1gjl+VoA5dXmAOSxFhzmSjYI5ONV2Od5IdTnel4E52K54OVR4gzneRH858gSGOc7kejm/dHo5\r\nrYSEOcQffjkycX85R1SAORZHgzl8+Xs5wVN7OZU2gDlyFIA5E2h/Od8ffjnWvm45bQCIOSkPgTl8\r\nFm85w3ptOXAJejlvXW85phR/OfflZjmeUHY5rkRjOYvwgDkiRnk5Ei52OSecczmXem05kzxtOXen\r\neDlxdG457mF6Ofo+aznuj3M590N2OYLWeTnYYF85IYN8OX3wbzlc6mc5RdRrOZk2ZDltu3c56AFj\r\nObL6aTlZA2E53BtwOes2YTld/Go5Y9NsOfQ1YTmli3I51f5iOX6ycjm87m05yydjOX93ZjkO8GY5\r\nx1xuOUhNbDlhumU5vPCCOeB+bDlc4W05RIFoOTguYjlM+HQ547BkORpHdTnqfm45enJrOV63dDl/\r\nnGo5+jRkORi0cTnuE245nThlOTMWbTnpFmE5XqZnOXUAZDn6M1w5P7xgOelgYTl6vmM5XqpWOaBd\r\nYDk1eWM5YBloOWtYYzkbT1s5CTFmOX3sVzkH6ls5wy1vOdhNWTl+j2Y5XXVkOTkpWDmsZGo5y51b\r\nObmRbzlFCFg5ZTZeOS/GVTkj3mA5oatWOYehVjmAd2c5pJ1POVMpVTmKF2c5dhRdORuvWzlUflk5\r\nAlFNOXShVDn3nFY5y990Oeh7YjkNz2Q5BhdYOf62SzngIWc5Yk9QOY91XDmrl145HU1WOezITTli\r\nTWc5EYNTOcGcbDlMHVw51vhhOTb3TTnwCGs5igFdOZL/WTkm7GQ5vztSOXRTUjlxLWQ5+pZROYVI\r\nZjl+5VM5lQxROUs1VznOjmI5TC9gOZWrWzlIE085d+9YOeTSWzlPJ185p0FMOR48Sjn9dVk52dJj\r\nOdqVVDkkmlg5lxdWOfgzTjm7e1M50OxbOZkcUjmye1s5ZohgOaINWDm3ZlY5X7ZfOfy4UznG71Y5\r\n7h9iOXT9TjkWRFY5b3hbOUgmUznuBmM5Yg5TOZ5pXDl3DFc5zeZROcqfWjlvVFE5Bg5fOelfWDks\r\nMl05ZgVqOS0SXTnHKFQ5qEhLOU9LUDlaeFk5NIpqOZSEWjmVwVU5mrhZOZRCUDnE8FA5zy9YOW6a\r\nVDndjEQ5iN5aOYvPVjmNa1M5PQlbOaUsYTk8yk05UXBLOWceXDmgj1k5eUVTOQaYRDlUTGg5VOxe\r\nOQufVzm9p0859PxUOa9UQzlhsVk5XH1dOdMzXznKKVs5skNVOV+SSDn8PFk5ABFUOQ==",
                            "noiseTrainingType" : "default"
                          }
                        }
                    ],
                    "start" : 2136,
                    "duration" : 102,
                    "mediaStart" : 7014,
                    "mediaDuration" : 102,
                    "scalar" : 1,
                    "metadata" : {
                      "WinSubProjectDisplayName" : "",
                      "clipSpeedAttribute" : false
                    },
                    "animationTracks" : {

                    }
                  },
                  {
                    "id" : 76,
                    "_type" : "AMFile",
                    "src" : 1,
                    "trackNumber" : 1,
                    "attributes" : {
                      "ident" : "tower-columns-01",
                      "sampleRate" : 44100,
                      "bitDepth" : 16,
                      "gain" : 1.0,
                      "mixToMono" : false
                    },
                      "channelNumber" : "0,1",
                    "effects" : [
                        {
                          "effectName" : "NoiseReduction",
                          "category" : "categoryAudioEffects",
                          "parameters" : {
                            "denoiserAmount" : 20.0,
                            "denoiserThreshold" : 0.0,
                            "noiseProfile" : "EMxRPtIrnUDesoA+IOwHP+YO4D9WV91AOxaTQBwHK0BhVvQ/HktXPycvMj9PZz8/4ihoP54wfT9G\r\nUcQ+rrIOPk5lQT6NLQ0+zlWIPk6IhT477Ts+2O8GP1Tooz9uV44/4pD8P0MGJD9+F8A+bT6xP0eA\r\nmD9sM4dAyKR4QerrMkG4jk1BXsIgQsCZXEHbUqRBqOCNQYt8hECOLVVAqh8AQCjj3D+3jqs/d0DN\r\nP64eqT/GBoZAdSoMQATZyj8y5oo/rKNWQNP/oUCWmodAPBOoP47Jqz9PsBo/klUSP+wyYj5Z7aA+\r\naOqoP8J3kj4Uhwo/IoigPqqr5j8IO6k/+vwLP1caPEDBpjA/dzamP1Lxa0GOidg/zXuwP+WsBT8s\r\nQGg/uCNSPw/bAkCbD4E/HgqrP2Dnzj6ZK8s/tvYFP06V+D4+bhA+W9/lPdxZoT45yc497kYNPpaP\r\niT5VnHE+zUe6PqhLuT7afSU/tR8SPk43jT6cEnA+ED+FPhb0Kj+zw4U+9UKEPQYMaj1CuhU+38pX\r\nPRZWij01lI09j17oPlIkTT7EXVY9R0apPThL0D59BSA+ojg/PtEfWT2OOTI/5t9pPn9ELD9merg9\r\nYlxqPhnIjT3w1jQ+llX8PZQvgj+C/sM/fZWhP9BAC0AdtBBAKBybPuA2mj/SDxc/2+UmPgCiAj6a\r\n3VE/ZFaoPviGvz6j1L8+C3RYPhnZDD4E95w9/G13PVYBND5s4YY9u3txPqZIKj6d3DM+awgAPiT7\r\nPz57AZo+ftD2PZX8lz7lD3w+QvfBPnMC2j/Hess+i8SbPXtEPT7pBLs9WPmIPU7QQD7aYCE+CFDq\r\nPxEwjkCiX2lAxOiXP9AQgj8bPFg/PeEhPmLS7z1Fs7Q++5kMP0zuIz8Uyy0/Y5PoPoo6aj5Bnjc/\r\nNes9P+STKT9JktQ/WK4AQFpiCD/AIEg/Tr8yQIOoaj70wPQ8ENFyPQjLEj2nVkw+r0gEPuNyoz1s\r\nZ3c9BfSlPRsZ0T3ATgE/FqLnPszXPD+1NeQ+HmWTPzVWED516V0+LHr+PWyLeT04C6U96o3pPVuk\r\ntD39Rx0+spThPbi+hD7T0pY+QeKQPvbjpD8UmZg/U3MEP3Zuiz7lJVQ/2rp7P3TlHUB/I6A/lF1y\r\nP0ldVj+6yqk/C06+QA0CoD/60ABB15KzQAJZiD/u6K0/RscMQLgX7z+iIuE/XfZAQP4ezkDr50dA\r\nEeIbQPwy5EBYAmY/yXQ4Pwb0+D+V3dY/qyE2P3cgxkC6hAJBw/rlP+xlBUBk3x1A9c+wPzZn8T8y\r\nY7RAZgu6QFblxEBQoYlAveOPP3l83j7ooQw/mEqgPwl4TUACr2A/CUb+P/ZZRUGakARA5RZ+QCXu\r\nL0AoWe8/sOpYPxtGaz+qCTRAcn6nP8YJIj8gDo1A3D0EQb7VuD9qGxBBCq6uQTjpKUAiZWJB/tpK\r\nQCE6nUBtxKo/pLPOPmjAcT/0iGU+M59YPkUHIz5cW1E+gHgTPVhaqT39L6k+wKs2Pw5vEj6EdCE+\r\n+ZRwPn9NBT6Pq9s+zGGlP9m4qT/BQtw//A4hP1ilNz7uEfs9eN4NPUxROD4qJm4/+aTLP7QYNz95\r\nflA/mOItQEATVz8A4JE/iaj/P4FGrT/xUek/SErqPie6/D4noOI/lx9UP5BgXT/XTFQ/EJOBQKki\r\nMkDwW1VAlr2ePxv110AIWoo+yoEgPvWj6j6kRE4+tOz8Pdji9jznf+k9ZRqZPmmPQj5TJps+wlqb\r\nPVEdfz16OjI+Okb4Pi7x/D1ikTs+KjtZPQAHxTxLaTU9+AUsPvnihD3lLZY9c0BvPktOCz2FIA0+\r\nEamrPSz+cTwPPdE9QlugPUd7RD6061E+JYAAPhw0ST6CH+498Lg1Peo8YDv/3AE9UkCjPHTAqDzn\r\nE3I8duR/OzS+DjzO4iw8FNWkOzOkyzusnAk8s0IBO1dSozvwf+Q7RfSgO+RByzuEg4E7WHOUO/CU\r\ngjtgY5M76kq2Oy/JgzvyPXY7Gj9vOwIfVju+6lY7gBZ5O/CZXDsvehU7e5EAOwbaUDsMQzE7hzov\r\nO5+v0Toa+CY7CmUuO+Q25DrE9CE7upoHO5xMDjsf/tg6ZFVOO0ysRTscyQA7RhYbO3uPCzspk+w6\r\n4FPYOkAX3Dot1fA6nYgEO6Zi/zoXz9g6r/rWOojbzTrOn8s6GbDVOsQxzjpY5806mmrQOh5AwzoK\r\nWMQ6Hji9Oty4uzp6bqw64dyuOlRwrjp+gK86KgKwOtnEsTr7K646Hs2rOp3epToy06k6LkiSOqDE\r\ngjrnz6865j7KOrZzljrEPnc6P2mXOgjJqzrgBqQ62cacOpGjlzrfkpc6A9uUOmunkjp+BH46fjlx\r\nOqeuhDq6tYY6DnCKOktcjTouxIE6euyFOk1YfTqq7oE6dl2DOi5dbDru+nw6FFJ6OmTScjoBom46\r\nVv12OqjbbDqq12w6XER5OtYMbjo+GGo6bNBkOtpnYDq0QV86FgRdOugfYzrYq1I6/+5dOnKIPTol\r\npzc6MQ86OsJwbTqkFW46l8IcOg4yPTpdxjw6VIyCOloxLTpWrYU67MFpOgycbDpAqWk6yH9UOtiF\r\nUDrtCEc6aLpFOm/4PTq0nUY6dDw+Ooo/YDpazCY6bigsOh3nNTpqY0I6gG1EOu53JzqwkSk6602H\r\nOqS7GToKVQY6i7lzOny/MTqOlUI6mcbsOSICQjpMWUs6aiRHOhp8Nzrw+yE62rscOghsHjogTBo6\r\nQ38vOoc/BTrkJBQ6AVwbOpKYEzor1i46Ab0rOm7CGTpVjCE64iUYOm8JJDo4YhQ6L0wWOiiaFzr0\r\nByA6RIMVOjDBAToYvhY6V+kIOuORJDpOHSE6nWcZOpNU/zkg4hE6V9kfOkYWCToqAgU6pdgVOl4N\r\nDjp6oQY6OPUJOuhxDjp2cAg6EJ0HOoReCDpuIQY6DxH9OebZBjoxrf85Kpj7OcFeCDpXfgQ6kLz+\r\nOfgaBTqMyAU62rv6OVCU+TkkQPg5iob6OWgY+TlEV/Y55GwBOuCX9Dn4i/k5Abn4OUpc8jlC5vQ5\r\nNKX2Od599Dl0TPE5ukvwOUIu7DncP/c5Pc3vOSCx7znhZOQ5QjDqOYTt4zly2OQ5kG/hObcv4jka\r\nYuQ5tpHmObZ04DlYjPQ5XUvhOXN84zlr+NQ5sD3dOa+P3DkWyN45LGnhOUaA3zk4y945parXOWtU\r\n0jnLoc45+ynTOVJ13zmEINE5AKbbOQ/gzTkMgs052zfMOTGZ1TnPvtM5tJjIOWOXxjma0ck5TBfK\r\nOZlw0jnqUtA5ZRHMOdZ7zDkDK9E58ZjJOUaX0DnaGcw5cJjPOYNXyjnLQ745eG2+OX8lvjkEn705\r\nZLvIOcpsvDkwdbg5CMS7OQOMsTl/WLg5e+u5OcW9vDmRMr05nVWvOdEDszkmCMk5jze7ORzctznG\r\nR605+pS6OagasjmBOrY5QHKwOdD7uTlMwro5oaa0OTJIszkZT7E5tSasOS/CsDm8QbU5JbSnOZRp\r\nrjkf76s5YSixOXh4rTmep6o5LdCsOfpGtDleHas59h60OUUOrDlTm685B3OrOWRqrTn4jaA5Poaz\r\nOZVMrTl3d685PKavOedopjlUQ6g5yWulOeXsrDly8qA5EkusOctCqTmnJaA5AuCkOeCVmjmgQaQ5\r\nyJqfOaY9pjlyb585bH6hOQhEnTn1sac5nAOfOQz9qjl/9545qAueOXwfnDlM/Z45gpmaOVEvnDkI\r\n4pc5VmGmOcd4oznTGaE5enaaOTAmkjn/yKI5opuXOWe0lzl7rpc5dvuaObZYkjmq+pY5aXebOVpM\r\nmTk2Wps5gICYORvIjTns8Js5Hq2UOeqOjTkBxpc5/dmZOZxSmzkGD5g5BQGROdHrkDk6Uog5uzed\r\nObcUkTlUooc5NySSOUlakjk/5pY5+IePOYFgmDl3F5Q54smLOYSiijkKRI05V5yROZuykDl4UYw5\r\nG9COOZwVjjlx0Y05HL+LOZhNlTloB4k5cFWOOfAXjzm51Y45qFuDOUJmjTl0TYo5fMeLObzehzly\r\nkYk5eKKJOd5xgTnqzJM5wuKEOTzvizk+mIE5XgOFOW5CgTmSl445fLCBOYXGiDkWt4g5ToaROcSH\r\nhTly2oU5LSOFOb91iTlcFIM5e2+COYFohjkVBn05ammEOXUOgDlC/Xc5S/V/OWEpgTm6D385YPuF\r\nOQ+HgTnYdYI5flaAOXV5gDksRYc5ko2COTjVdjneSHU53peBOdiueDlUeIM53kR/OfIEhjnO5Ho5\r\nv3R6Oa2EhDnEH345MnF/OUdUgDkWR4M5fPl7OcFTezmVNoA5chSAORNofznfH3451r5uOW0AiDkp\r\nD4E5fBZvOcN6bTlwCXo5b11vOaYUfzn35WY5nlB2Oa5EYzmL8IA5IkZ5ORIudjknnHM5l3ptOZM8\r\nbTl3p3g5cXRuOe5hejn6Pms57o9zOfdDdjmC1nk52GBfOSGDfDl98G85XOpnOUXUazmZNmQ5bbt3\r\nOegBYzmy+mk5WQNhOdwbcDnrNmE5XfxqOWPTbDn0NWE5pYtyOdX+Yjl+snI5vO5tOcsnYzl/d2Y5\r\nDvBmOcdcbjlITWw5YbplObzwgjngfmw5XOFtOUSBaDk4LmI5TPh0OeOwZDkaR3U56n5uOXpyazle\r\nt3Q5f5xqOfo0ZDkYtHE57hNuOZ04ZTkzFm056RZhOV6mZzl1AGQ5+jNcOT+8YDnpYGE5er5jOV6q\r\nVjmgXWA5NXljOWAZaDlrWGM5G09bOQkxZjl97Fc5B+pbOcMtbznYTVk5fo9mOV11ZDk5KVg5rGRq\r\nOcudWzm5kW85RQhYOWU2XjkvxlU5I95gOaGrVjmHoVY5gHdnOaSdTzlTKVU5ihdnOXYUXTkbr1s5\r\nVH5ZOQJRTTl0oVQ595xWOcvfdDnoe2I5Dc9kOQYXWDn+tks54CFnOWJPUDmPdVw5q5deOR1NVjns\r\nyE05Yk1nORGDUznBnGw5TB1cOdb4YTk290058AhrOYoBXTmS/1k5JuxkOb87Ujl0U1I5cS1kOfqW\r\nUTmFSGY5fuVTOZUMUTlLNVc5zo5iOUwvYDmVq1s5SBNPOXfvWDnk0ls5TydfOadBTDkePEo5/XVZ\r\nOdnSYznalVQ5JJpYOZcXVjn4M045u3tTOdDsWzmZHFI5sntbOWaIYDmiDVg5t2ZWOV+2Xzn8uFM5\r\nxu9WOe4fYjl0/U45FkRWOW94WzlIJlM57gZjOWIOUzmeaVw5dwxXOc3mUTnKn1o5b1RROQYOXznp\r\nX1g5LDJdOWYFajktEl05xyhUOahISzlPS1A5WnhZOTSKajmUhFo5lcFVOZq4WTmUQlA5xPBQOc8v\r\nWDlumlQ53YxEOYjeWjmLz1Y5jWtTOT0JWzmlLGE5PMpNOVFwSzlnHlw5oI9ZOXlFUzkGmEQ5VExo\r\nOVTsXjkLn1c5vadPOfT8VDmvVEM5YbFZOVx9XTnTM185yilbObJDVTlfkkg5/DxZOQARVDkQzFE+\r\n0iudQN6ygD4g7Ac/5g7gP1ZX3UA7FpNAHAcrQGFW9D8eS1c/Jy8yP09nPz/iKGg/njB9P0ZRxD6u\r\nsg4+TmVBPo0tDT7OVYg+ToiFPjvtOz7Y7wY/VOijP25Xjj/ikPw/QwYkP34XwD5tPrE/R4CYP2wz\r\nh0DIpHhB6usyQbiOTUFewiBCwJlcQdtSpEGo4I1Bi3yEQI4tVUCqHwBAKOPcP7eOqz93QM0/rh6p\r\nP8YGhkB1KgxABNnKPzLmij+so1ZA0/+hQJaah0A8E6g/jsmrP0+wGj+SVRI/7DJiPlntoD5o6qg/\r\nwneSPhSHCj8iiKA+qqvmPwg7qT/6/As/Vxo8QMGmMD93NqY/UvFrQY6J2D/Ne7A/5awFPyxAaD+4\r\nI1I/D9sCQJsPgT8eCqs/YOfOPpkryz+29gU/TpX4Pj5uED5b3+U93FmhPjnJzj3uRg0+lo+JPlWc\r\ncT7NR7o+qEu5Ptp9JT+1HxI+TjeNPpwScD4QP4U+FvQqP7PDhT71QoQ9BgxqPUK6FT7fylc9FlaK\r\nPTWUjT2PXug+UiRNPsRdVj1HRqk9OEvQPn0FID6iOD8+0R9ZPY45Mj/m32k+f0QsP2Z6uD1iXGo+\r\nGciNPfDWND6WVfw9lC+CP4L+wz99laE/0EALQB20EEAoHJs+4DaaP9IPFz/b5SY+AKICPprdUT9k\r\nVqg++Ia/PqPUvz4LdFg+GdkMPgT3nD38bXc9VgE0Pmzhhj27e3E+pkgqPp3cMz5rCAA+JPs/PnsB\r\nmj5+0PY9lfyXPuUPfD5C98E+cwLaP8d6yz6LxJs9e0Q9PukEuz1Y+Yg9TtBAPtpgIT4IUOo/ETCO\r\nQKJfaUDE6Jc/0BCCPxs8WD894SE+YtLvPUWztD77mQw/TO4jPxTLLT9jk+g+ijpqPkGeNz816z0/\r\n5JMpP0mS1D9YrgBAWmIIP8AgSD9OvzJAg6hqPvTA9DwQ0XI9CMsSPadWTD6vSAQ+43KjPWxndz0F\r\n9KU9GxnRPcBOAT8Wouc+zNc8P7U15D4eZZM/NVYQPnXpXT4sev49bIt5PTgLpT3qjek9W6S0Pf1H\r\nHT6ylOE9uL6EPtPSlj5B4pA+9uOkPxSZmD9TcwQ/dm6LPuUlVD/auns/dOUdQH8joD+UXXI/SV1W\r\nP7rKqT8LTr5ADQKgP/rQAEHXkrNAAlmIP+7orT9GxwxAuBfvP6Ii4T9d9kBA/h7OQOvnR0AR4htA\r\n/DLkQFgCZj/JdDg/BvT4P5Xd1j+rITY/dyDGQLqEAkHD+uU/7GUFQGTfHUD1z7A/NmfxPzJjtEBm\r\nC7pAVuXEQFChiUC9448/eXzePuihDD+YSqA/CXhNQAKvYD8JRv4/9llFQZqQBEDlFn5AJe4vQChZ\r\n7z+w6lg/G0ZrP6oJNEByfqc/xgkiPyAOjUDcPQRBvtW4P2obEEEKrq5BOOkpQCJlYkH+2kpAITqd\r\nQG3Eqj+ks84+aMBxP/SIZT4zn1g+RQcjPlxbUT6AeBM9WFqpPf0vqT7AqzY/Dm8SPoR0IT75lHA+\r\nf00FPo+r2z7MYaU/2bipP8FC3D/8DiE/WKU3Pu4R+z143g09TFE4Piombj/5pMs/tBg3P3l+UD+Y\r\n4i1AQBNXPwDgkT+JqP8/gUatP/FR6T9ISuo+J7r8Pieg4j+XH1Q/kGBdP9dMVD8Qk4FAqSIyQPBb\r\nVUCWvZ4/G/XXQAhaij7KgSA+9aPqPqRETj607Pw92OL2POd/6T1lGpk+aY9CPlMmmz7CWps9UR1/\r\nPXo6Mj46Rvg+LvH8PWKROz4qO1k9AAfFPEtpNT34BSw++eKEPeUtlj1zQG8+S04LPYUgDT4Rqas9\r\nLP5xPA890T1CW6A9R3tEPrTrUT4lgAA+HDRJPoIf7j3wuDU96jxgO//cAT1SQKM8dMCoPOcTcjx2\r\n5H87NL4OPM7iLDwU1aQ7M6TLO6ycCTyzQgE7V1KjO/B/5DtF9KA75EHLO4SDgTtYc5Q78JSCO2Bj\r\nkzvqSrY7L8mDO/I9djsaP287Ah9WO77qVjuAFnk78JlcOy96FTt7kQA7BtpQOwxDMTuHOi87n6/R\r\nOhr4JjsKZS475DbkOsT0ITu6mgc7nEwOOx/+2DpkVU47TKxFOxzJADtGFhs7e48LOymT7DrgU9g6\r\nQBfcOi3V8DqdiAQ7pmL/OhfP2Dqv+tY6iNvNOs6fyzoZsNU6xDHOOljnzTqaatA6HkDDOgpYxDoe\r\nOL063Li7OnpurDrh3K46VHCuOn6ArzoqArA62cSxOvsrrjoezas6nd6lOjLTqTouSJI6oMSCOufP\r\nrzrmPso6tnOWOsQ+dzo/aZc6CMmrOuAGpDrZxpw6kaOXOt+SlzoD25Q6a6eSOn4Efjp+OXE6p66E\r\nOrq1hjoOcIo6S1yNOi7EgTp67IU6TVh9OqrugTp2XYM6Ll1sOu76fDoUUno6ZNJyOgGibjpW/XY6\r\nqNtsOqrXbDpcRHk61gxuOj4Yajps0GQ62mdgOrRBXzoWBF066B9jOtirUjr/7l06cog9OiWnNzox\r\nDzo6wnBtOqQVbjqXwhw6DjI9Ol3GPDpUjII6WjEtOlathTrswWk6DJxsOkCpaTrIf1Q62IVQOu0I\r\nRzpoukU6b/g9OrSdRjp0PD46ij9gOlrMJjpuKCw6Hec1OmpjQjqAbUQ67ncnOrCRKTrrTYc6pLsZ\r\nOgpVBjqLuXM6fL8xOo6VQjqZxuw5IgJCOkxZSzpqJEc6Gnw3OvD7ITrauxw6CGweOiBMGjpDfy86\r\nhz8FOuQkFDoBXBs6kpgTOivWLjoBvSs6bsIZOlWMITriJRg6bwkkOjhiFDovTBY6KJoXOvQHIDpE\r\ngxU6MMEBOhi+FjpX6Qg645EkOk4dITqdZxk6k1T/OSDiETpX2R86RhYJOioCBTql2BU6Xg0OOnqh\r\nBjo49Qk66HEOOnZwCDoQnQc6hF4IOm4hBjoPEf055tkGOjGt/zkqmPs5wV4IOld+BDqQvP45+BoF\r\nOozIBTrau/o5UJT5OSRA+DmKhvo5aBj5OURX9jnkbAE64Jf0OfiL+TkBufg5SlzyOULm9Dk0pfY5\r\n3n30OXRM8Tm6S/A5Qi7sOdw/9zk9ze85ILHvOeFk5DlCMOo5hO3jOXLY5DmQb+E5ty/iORpi5Dm2\r\nkeY5tnTgOViM9DldS+E5c3zjOWv41DmwPd05r4/cORbI3jksaeE5RoDfOTjL3jmlqtc5a1TSOcuh\r\nzjn7KdM5UnXfOYQg0TkApts5D+DNOQyCzTnbN8w5MZnVOc++0zm0mMg5Y5fGOZrRyTlMF8o5mXDS\r\nOepS0DllEcw51nvMOQMr0TnxmMk5RpfQOdoZzDlwmM85g1fKOctDvjl4bb45fyW+OQSfvTlku8g5\r\nymy8OTB1uDkIxLs5A4yxOX9YuDl767k5xb28OZEyvTmdVa850QOzOSYIyTmPN7s5HNy3OcZHrTn6\r\nlLo5qBqyOYE6tjlAcrA50Pu5OUzCujmhprQ5MkizORlPsTm1Jqw5L8KwObxBtTkltKc5lGmuOR/v\r\nqzlhKLE5eHitOZ6nqjkt0Kw5+ka0OV4dqzn2HrQ5RQ6sOVObrzkHc6s5ZGqtOfiNoDk+hrM5lUyt\r\nOXd3rzk8pq8552imOVRDqDnJa6U55eysOXLyoDkSS6w5y0KpOacloDkC4KQ54JWaOaBBpDnImp85\r\npj2mOXJvnzlsfqE5CESdOfWxpzmcA585DP2qOX/3njmoC545fB+cOUz9njmCmZo5US+cOQjilzlW\r\nYaY5x3ijOdMZoTl6dpo5MCaSOf/Iojmim5c5Z7SXOXuulzl2+5o5tliSOar6ljlpd5s5WkyZOTZa\r\nmzmAgJg5G8iNOezwmzkerZQ56o6NOQHGlzn92Zk5nFKbOQYPmDkFAZE50euQOTpSiDm7N505txSR\r\nOVSihzk3JJI5SVqSOT/mljn4h485gWCYOXcXlDniyYs5hKKKOQpEjTlXnJE5m7KQOXhRjDkb0I45\r\nnBWOOXHRjTkcv4s5mE2VOWgHiTlwVY458BePObnVjjmoW4M5QmaNOXRNijl8x4s5vN6HOXKRiTl4\r\nook53nGBOerMkznC4oQ5PO+LOT6YgTleA4U5bkKBOZKXjjl8sIE5hcaIORa3iDlOhpE5xIeFOXLa\r\nhTktI4U5v3WJOVwUgzl7b4I5gWiGORUGfTlqaYQ5dQ6AOUL9dzlL9X85YSmBOboPfzlg+4U5D4eB\r\nOdh1gjl+VoA5dXmAOSxFhzmSjYI5ONV2Od5IdTnel4E52K54OVR4gzneRH858gSGOc7kejm/dHo5\r\nrYSEOcQffjkycX85R1SAORZHgzl8+Xs5wVN7OZU2gDlyFIA5E2h/Od8ffjnWvm45bQCIOSkPgTl8\r\nFm85w3ptOXAJejlvXW85phR/OfflZjmeUHY5rkRjOYvwgDkiRnk5Ei52OSecczmXem05kzxtOXen\r\neDlxdG457mF6Ofo+aznuj3M590N2OYLWeTnYYF85IYN8OX3wbzlc6mc5RdRrOZk2ZDltu3c56AFj\r\nObL6aTlZA2E53BtwOes2YTld/Go5Y9NsOfQ1YTmli3I51f5iOX6ycjm87m05yydjOX93ZjkO8GY5\r\nx1xuOUhNbDlhumU5vPCCOeB+bDlc4W05RIFoOTguYjlM+HQ547BkORpHdTnqfm45enJrOV63dDl/\r\nnGo5+jRkORi0cTnuE245nThlOTMWbTnpFmE5XqZnOXUAZDn6M1w5P7xgOelgYTl6vmM5XqpWOaBd\r\nYDk1eWM5YBloOWtYYzkbT1s5CTFmOX3sVzkH6ls5wy1vOdhNWTl+j2Y5XXVkOTkpWDmsZGo5y51b\r\nObmRbzlFCFg5ZTZeOS/GVTkj3mA5oatWOYehVjmAd2c5pJ1POVMpVTmKF2c5dhRdORuvWzlUflk5\r\nAlFNOXShVDn3nFY5y990Oeh7YjkNz2Q5BhdYOf62SzngIWc5Yk9QOY91XDmrl145HU1WOezITTli\r\nTWc5EYNTOcGcbDlMHVw51vhhOTb3TTnwCGs5igFdOZL/WTkm7GQ5vztSOXRTUjlxLWQ5+pZROYVI\r\nZjl+5VM5lQxROUs1VznOjmI5TC9gOZWrWzlIE085d+9YOeTSWzlPJ185p0FMOR48Sjn9dVk52dJj\r\nOdqVVDkkmlg5lxdWOfgzTjm7e1M50OxbOZkcUjmye1s5ZohgOaINWDm3ZlY5X7ZfOfy4UznG71Y5\r\n7h9iOXT9TjkWRFY5b3hbOUgmUznuBmM5Yg5TOZ5pXDl3DFc5zeZROcqfWjlvVFE5Bg5fOelfWDks\r\nMl05ZgVqOS0SXTnHKFQ5qEhLOU9LUDlaeFk5NIpqOZSEWjmVwVU5mrhZOZRCUDnE8FA5zy9YOW6a\r\nVDndjEQ5iN5aOYvPVjmNa1M5PQlbOaUsYTk8yk05UXBLOWceXDmgj1k5eUVTOQaYRDlUTGg5VOxe\r\nOQufVzm9p0859PxUOa9UQzlhsVk5XH1dOdMzXznKKVs5skNVOV+SSDn8PFk5ABFUOQ==",
                            "noiseTrainingType" : "default"
                          }
                        }
                    ],
                    "start" : 2238,
                    "duration" : 145,
                    "mediaStart" : 7529,
                    "mediaDuration" : 145,
                    "scalar" : 1,
                    "metadata" : {
                      "WinSubProjectDisplayName" : "",
                      "clipSpeedAttribute" : false
                    },
                    "animationTracks" : {

                    }
                  },
                  {
                    "id" : 77,
                    "_type" : "AMFile",
                    "src" : 1,
                    "trackNumber" : 1,
                    "attributes" : {
                      "ident" : "tower-columns-01",
                      "sampleRate" : 44100,
                      "bitDepth" : 16,
                      "gain" : 1.0,
                      "mixToMono" : false
                    },
                      "channelNumber" : "0,1",
                    "effects" : [
                        {
                          "effectName" : "NoiseReduction",
                          "category" : "categoryAudioEffects",
                          "parameters" : {
                            "denoiserAmount" : 20.0,
                            "denoiserThreshold" : 0.0,
                            "noiseProfile" : "EMxRPtIrnUDesoA+IOwHP+YO4D9WV91AOxaTQBwHK0BhVvQ/HktXPycvMj9PZz8/4ihoP54wfT9G\r\nUcQ+rrIOPk5lQT6NLQ0+zlWIPk6IhT477Ts+2O8GP1Tooz9uV44/4pD8P0MGJD9+F8A+bT6xP0eA\r\nmD9sM4dAyKR4QerrMkG4jk1BXsIgQsCZXEHbUqRBqOCNQYt8hECOLVVAqh8AQCjj3D+3jqs/d0DN\r\nP64eqT/GBoZAdSoMQATZyj8y5oo/rKNWQNP/oUCWmodAPBOoP47Jqz9PsBo/klUSP+wyYj5Z7aA+\r\naOqoP8J3kj4Uhwo/IoigPqqr5j8IO6k/+vwLP1caPEDBpjA/dzamP1Lxa0GOidg/zXuwP+WsBT8s\r\nQGg/uCNSPw/bAkCbD4E/HgqrP2Dnzj6ZK8s/tvYFP06V+D4+bhA+W9/lPdxZoT45yc497kYNPpaP\r\niT5VnHE+zUe6PqhLuT7afSU/tR8SPk43jT6cEnA+ED+FPhb0Kj+zw4U+9UKEPQYMaj1CuhU+38pX\r\nPRZWij01lI09j17oPlIkTT7EXVY9R0apPThL0D59BSA+ojg/PtEfWT2OOTI/5t9pPn9ELD9merg9\r\nYlxqPhnIjT3w1jQ+llX8PZQvgj+C/sM/fZWhP9BAC0AdtBBAKBybPuA2mj/SDxc/2+UmPgCiAj6a\r\n3VE/ZFaoPviGvz6j1L8+C3RYPhnZDD4E95w9/G13PVYBND5s4YY9u3txPqZIKj6d3DM+awgAPiT7\r\nPz57AZo+ftD2PZX8lz7lD3w+QvfBPnMC2j/Hess+i8SbPXtEPT7pBLs9WPmIPU7QQD7aYCE+CFDq\r\nPxEwjkCiX2lAxOiXP9AQgj8bPFg/PeEhPmLS7z1Fs7Q++5kMP0zuIz8Uyy0/Y5PoPoo6aj5Bnjc/\r\nNes9P+STKT9JktQ/WK4AQFpiCD/AIEg/Tr8yQIOoaj70wPQ8ENFyPQjLEj2nVkw+r0gEPuNyoz1s\r\nZ3c9BfSlPRsZ0T3ATgE/FqLnPszXPD+1NeQ+HmWTPzVWED516V0+LHr+PWyLeT04C6U96o3pPVuk\r\ntD39Rx0+spThPbi+hD7T0pY+QeKQPvbjpD8UmZg/U3MEP3Zuiz7lJVQ/2rp7P3TlHUB/I6A/lF1y\r\nP0ldVj+6yqk/C06+QA0CoD/60ABB15KzQAJZiD/u6K0/RscMQLgX7z+iIuE/XfZAQP4ezkDr50dA\r\nEeIbQPwy5EBYAmY/yXQ4Pwb0+D+V3dY/qyE2P3cgxkC6hAJBw/rlP+xlBUBk3x1A9c+wPzZn8T8y\r\nY7RAZgu6QFblxEBQoYlAveOPP3l83j7ooQw/mEqgPwl4TUACr2A/CUb+P/ZZRUGakARA5RZ+QCXu\r\nL0AoWe8/sOpYPxtGaz+qCTRAcn6nP8YJIj8gDo1A3D0EQb7VuD9qGxBBCq6uQTjpKUAiZWJB/tpK\r\nQCE6nUBtxKo/pLPOPmjAcT/0iGU+M59YPkUHIz5cW1E+gHgTPVhaqT39L6k+wKs2Pw5vEj6EdCE+\r\n+ZRwPn9NBT6Pq9s+zGGlP9m4qT/BQtw//A4hP1ilNz7uEfs9eN4NPUxROD4qJm4/+aTLP7QYNz95\r\nflA/mOItQEATVz8A4JE/iaj/P4FGrT/xUek/SErqPie6/D4noOI/lx9UP5BgXT/XTFQ/EJOBQKki\r\nMkDwW1VAlr2ePxv110AIWoo+yoEgPvWj6j6kRE4+tOz8Pdji9jznf+k9ZRqZPmmPQj5TJps+wlqb\r\nPVEdfz16OjI+Okb4Pi7x/D1ikTs+KjtZPQAHxTxLaTU9+AUsPvnihD3lLZY9c0BvPktOCz2FIA0+\r\nEamrPSz+cTwPPdE9QlugPUd7RD6061E+JYAAPhw0ST6CH+498Lg1Peo8YDv/3AE9UkCjPHTAqDzn\r\nE3I8duR/OzS+DjzO4iw8FNWkOzOkyzusnAk8s0IBO1dSozvwf+Q7RfSgO+RByzuEg4E7WHOUO/CU\r\ngjtgY5M76kq2Oy/JgzvyPXY7Gj9vOwIfVju+6lY7gBZ5O/CZXDsvehU7e5EAOwbaUDsMQzE7hzov\r\nO5+v0Toa+CY7CmUuO+Q25DrE9CE7upoHO5xMDjsf/tg6ZFVOO0ysRTscyQA7RhYbO3uPCzspk+w6\r\n4FPYOkAX3Dot1fA6nYgEO6Zi/zoXz9g6r/rWOojbzTrOn8s6GbDVOsQxzjpY5806mmrQOh5AwzoK\r\nWMQ6Hji9Oty4uzp6bqw64dyuOlRwrjp+gK86KgKwOtnEsTr7K646Hs2rOp3epToy06k6LkiSOqDE\r\ngjrnz6865j7KOrZzljrEPnc6P2mXOgjJqzrgBqQ62cacOpGjlzrfkpc6A9uUOmunkjp+BH46fjlx\r\nOqeuhDq6tYY6DnCKOktcjTouxIE6euyFOk1YfTqq7oE6dl2DOi5dbDru+nw6FFJ6OmTScjoBom46\r\nVv12OqjbbDqq12w6XER5OtYMbjo+GGo6bNBkOtpnYDq0QV86FgRdOugfYzrYq1I6/+5dOnKIPTol\r\npzc6MQ86OsJwbTqkFW46l8IcOg4yPTpdxjw6VIyCOloxLTpWrYU67MFpOgycbDpAqWk6yH9UOtiF\r\nUDrtCEc6aLpFOm/4PTq0nUY6dDw+Ooo/YDpazCY6bigsOh3nNTpqY0I6gG1EOu53JzqwkSk6602H\r\nOqS7GToKVQY6i7lzOny/MTqOlUI6mcbsOSICQjpMWUs6aiRHOhp8Nzrw+yE62rscOghsHjogTBo6\r\nQ38vOoc/BTrkJBQ6AVwbOpKYEzor1i46Ab0rOm7CGTpVjCE64iUYOm8JJDo4YhQ6L0wWOiiaFzr0\r\nByA6RIMVOjDBAToYvhY6V+kIOuORJDpOHSE6nWcZOpNU/zkg4hE6V9kfOkYWCToqAgU6pdgVOl4N\r\nDjp6oQY6OPUJOuhxDjp2cAg6EJ0HOoReCDpuIQY6DxH9OebZBjoxrf85Kpj7OcFeCDpXfgQ6kLz+\r\nOfgaBTqMyAU62rv6OVCU+TkkQPg5iob6OWgY+TlEV/Y55GwBOuCX9Dn4i/k5Abn4OUpc8jlC5vQ5\r\nNKX2Od599Dl0TPE5ukvwOUIu7DncP/c5Pc3vOSCx7znhZOQ5QjDqOYTt4zly2OQ5kG/hObcv4jka\r\nYuQ5tpHmObZ04DlYjPQ5XUvhOXN84zlr+NQ5sD3dOa+P3DkWyN45LGnhOUaA3zk4y945parXOWtU\r\n0jnLoc45+ynTOVJ13zmEINE5AKbbOQ/gzTkMgs052zfMOTGZ1TnPvtM5tJjIOWOXxjma0ck5TBfK\r\nOZlw0jnqUtA5ZRHMOdZ7zDkDK9E58ZjJOUaX0DnaGcw5cJjPOYNXyjnLQ745eG2+OX8lvjkEn705\r\nZLvIOcpsvDkwdbg5CMS7OQOMsTl/WLg5e+u5OcW9vDmRMr05nVWvOdEDszkmCMk5jze7ORzctznG\r\nR605+pS6OagasjmBOrY5QHKwOdD7uTlMwro5oaa0OTJIszkZT7E5tSasOS/CsDm8QbU5JbSnOZRp\r\nrjkf76s5YSixOXh4rTmep6o5LdCsOfpGtDleHas59h60OUUOrDlTm685B3OrOWRqrTn4jaA5Poaz\r\nOZVMrTl3d685PKavOedopjlUQ6g5yWulOeXsrDly8qA5EkusOctCqTmnJaA5AuCkOeCVmjmgQaQ5\r\nyJqfOaY9pjlyb585bH6hOQhEnTn1sac5nAOfOQz9qjl/9545qAueOXwfnDlM/Z45gpmaOVEvnDkI\r\n4pc5VmGmOcd4oznTGaE5enaaOTAmkjn/yKI5opuXOWe0lzl7rpc5dvuaObZYkjmq+pY5aXebOVpM\r\nmTk2Wps5gICYORvIjTns8Js5Hq2UOeqOjTkBxpc5/dmZOZxSmzkGD5g5BQGROdHrkDk6Uog5uzed\r\nObcUkTlUooc5NySSOUlakjk/5pY5+IePOYFgmDl3F5Q54smLOYSiijkKRI05V5yROZuykDl4UYw5\r\nG9COOZwVjjlx0Y05HL+LOZhNlTloB4k5cFWOOfAXjzm51Y45qFuDOUJmjTl0TYo5fMeLObzehzly\r\nkYk5eKKJOd5xgTnqzJM5wuKEOTzvizk+mIE5XgOFOW5CgTmSl445fLCBOYXGiDkWt4g5ToaROcSH\r\nhTly2oU5LSOFOb91iTlcFIM5e2+COYFohjkVBn05ammEOXUOgDlC/Xc5S/V/OWEpgTm6D385YPuF\r\nOQ+HgTnYdYI5flaAOXV5gDksRYc5ko2COTjVdjneSHU53peBOdiueDlUeIM53kR/OfIEhjnO5Ho5\r\nv3R6Oa2EhDnEH345MnF/OUdUgDkWR4M5fPl7OcFTezmVNoA5chSAORNofznfH3451r5uOW0AiDkp\r\nD4E5fBZvOcN6bTlwCXo5b11vOaYUfzn35WY5nlB2Oa5EYzmL8IA5IkZ5ORIudjknnHM5l3ptOZM8\r\nbTl3p3g5cXRuOe5hejn6Pms57o9zOfdDdjmC1nk52GBfOSGDfDl98G85XOpnOUXUazmZNmQ5bbt3\r\nOegBYzmy+mk5WQNhOdwbcDnrNmE5XfxqOWPTbDn0NWE5pYtyOdX+Yjl+snI5vO5tOcsnYzl/d2Y5\r\nDvBmOcdcbjlITWw5YbplObzwgjngfmw5XOFtOUSBaDk4LmI5TPh0OeOwZDkaR3U56n5uOXpyazle\r\nt3Q5f5xqOfo0ZDkYtHE57hNuOZ04ZTkzFm056RZhOV6mZzl1AGQ5+jNcOT+8YDnpYGE5er5jOV6q\r\nVjmgXWA5NXljOWAZaDlrWGM5G09bOQkxZjl97Fc5B+pbOcMtbznYTVk5fo9mOV11ZDk5KVg5rGRq\r\nOcudWzm5kW85RQhYOWU2XjkvxlU5I95gOaGrVjmHoVY5gHdnOaSdTzlTKVU5ihdnOXYUXTkbr1s5\r\nVH5ZOQJRTTl0oVQ595xWOcvfdDnoe2I5Dc9kOQYXWDn+tks54CFnOWJPUDmPdVw5q5deOR1NVjns\r\nyE05Yk1nORGDUznBnGw5TB1cOdb4YTk290058AhrOYoBXTmS/1k5JuxkOb87Ujl0U1I5cS1kOfqW\r\nUTmFSGY5fuVTOZUMUTlLNVc5zo5iOUwvYDmVq1s5SBNPOXfvWDnk0ls5TydfOadBTDkePEo5/XVZ\r\nOdnSYznalVQ5JJpYOZcXVjn4M045u3tTOdDsWzmZHFI5sntbOWaIYDmiDVg5t2ZWOV+2Xzn8uFM5\r\nxu9WOe4fYjl0/U45FkRWOW94WzlIJlM57gZjOWIOUzmeaVw5dwxXOc3mUTnKn1o5b1RROQYOXznp\r\nX1g5LDJdOWYFajktEl05xyhUOahISzlPS1A5WnhZOTSKajmUhFo5lcFVOZq4WTmUQlA5xPBQOc8v\r\nWDlumlQ53YxEOYjeWjmLz1Y5jWtTOT0JWzmlLGE5PMpNOVFwSzlnHlw5oI9ZOXlFUzkGmEQ5VExo\r\nOVTsXjkLn1c5vadPOfT8VDmvVEM5YbFZOVx9XTnTM185yilbObJDVTlfkkg5/DxZOQARVDkQzFE+\r\n0iudQN6ygD4g7Ac/5g7gP1ZX3UA7FpNAHAcrQGFW9D8eS1c/Jy8yP09nPz/iKGg/njB9P0ZRxD6u\r\nsg4+TmVBPo0tDT7OVYg+ToiFPjvtOz7Y7wY/VOijP25Xjj/ikPw/QwYkP34XwD5tPrE/R4CYP2wz\r\nh0DIpHhB6usyQbiOTUFewiBCwJlcQdtSpEGo4I1Bi3yEQI4tVUCqHwBAKOPcP7eOqz93QM0/rh6p\r\nP8YGhkB1KgxABNnKPzLmij+so1ZA0/+hQJaah0A8E6g/jsmrP0+wGj+SVRI/7DJiPlntoD5o6qg/\r\nwneSPhSHCj8iiKA+qqvmPwg7qT/6/As/Vxo8QMGmMD93NqY/UvFrQY6J2D/Ne7A/5awFPyxAaD+4\r\nI1I/D9sCQJsPgT8eCqs/YOfOPpkryz+29gU/TpX4Pj5uED5b3+U93FmhPjnJzj3uRg0+lo+JPlWc\r\ncT7NR7o+qEu5Ptp9JT+1HxI+TjeNPpwScD4QP4U+FvQqP7PDhT71QoQ9BgxqPUK6FT7fylc9FlaK\r\nPTWUjT2PXug+UiRNPsRdVj1HRqk9OEvQPn0FID6iOD8+0R9ZPY45Mj/m32k+f0QsP2Z6uD1iXGo+\r\nGciNPfDWND6WVfw9lC+CP4L+wz99laE/0EALQB20EEAoHJs+4DaaP9IPFz/b5SY+AKICPprdUT9k\r\nVqg++Ia/PqPUvz4LdFg+GdkMPgT3nD38bXc9VgE0Pmzhhj27e3E+pkgqPp3cMz5rCAA+JPs/PnsB\r\nmj5+0PY9lfyXPuUPfD5C98E+cwLaP8d6yz6LxJs9e0Q9PukEuz1Y+Yg9TtBAPtpgIT4IUOo/ETCO\r\nQKJfaUDE6Jc/0BCCPxs8WD894SE+YtLvPUWztD77mQw/TO4jPxTLLT9jk+g+ijpqPkGeNz816z0/\r\n5JMpP0mS1D9YrgBAWmIIP8AgSD9OvzJAg6hqPvTA9DwQ0XI9CMsSPadWTD6vSAQ+43KjPWxndz0F\r\n9KU9GxnRPcBOAT8Wouc+zNc8P7U15D4eZZM/NVYQPnXpXT4sev49bIt5PTgLpT3qjek9W6S0Pf1H\r\nHT6ylOE9uL6EPtPSlj5B4pA+9uOkPxSZmD9TcwQ/dm6LPuUlVD/auns/dOUdQH8joD+UXXI/SV1W\r\nP7rKqT8LTr5ADQKgP/rQAEHXkrNAAlmIP+7orT9GxwxAuBfvP6Ii4T9d9kBA/h7OQOvnR0AR4htA\r\n/DLkQFgCZj/JdDg/BvT4P5Xd1j+rITY/dyDGQLqEAkHD+uU/7GUFQGTfHUD1z7A/NmfxPzJjtEBm\r\nC7pAVuXEQFChiUC9448/eXzePuihDD+YSqA/CXhNQAKvYD8JRv4/9llFQZqQBEDlFn5AJe4vQChZ\r\n7z+w6lg/G0ZrP6oJNEByfqc/xgkiPyAOjUDcPQRBvtW4P2obEEEKrq5BOOkpQCJlYkH+2kpAITqd\r\nQG3Eqj+ks84+aMBxP/SIZT4zn1g+RQcjPlxbUT6AeBM9WFqpPf0vqT7AqzY/Dm8SPoR0IT75lHA+\r\nf00FPo+r2z7MYaU/2bipP8FC3D/8DiE/WKU3Pu4R+z143g09TFE4Piombj/5pMs/tBg3P3l+UD+Y\r\n4i1AQBNXPwDgkT+JqP8/gUatP/FR6T9ISuo+J7r8Pieg4j+XH1Q/kGBdP9dMVD8Qk4FAqSIyQPBb\r\nVUCWvZ4/G/XXQAhaij7KgSA+9aPqPqRETj607Pw92OL2POd/6T1lGpk+aY9CPlMmmz7CWps9UR1/\r\nPXo6Mj46Rvg+LvH8PWKROz4qO1k9AAfFPEtpNT34BSw++eKEPeUtlj1zQG8+S04LPYUgDT4Rqas9\r\nLP5xPA890T1CW6A9R3tEPrTrUT4lgAA+HDRJPoIf7j3wuDU96jxgO//cAT1SQKM8dMCoPOcTcjx2\r\n5H87NL4OPM7iLDwU1aQ7M6TLO6ycCTyzQgE7V1KjO/B/5DtF9KA75EHLO4SDgTtYc5Q78JSCO2Bj\r\nkzvqSrY7L8mDO/I9djsaP287Ah9WO77qVjuAFnk78JlcOy96FTt7kQA7BtpQOwxDMTuHOi87n6/R\r\nOhr4JjsKZS475DbkOsT0ITu6mgc7nEwOOx/+2DpkVU47TKxFOxzJADtGFhs7e48LOymT7DrgU9g6\r\nQBfcOi3V8DqdiAQ7pmL/OhfP2Dqv+tY6iNvNOs6fyzoZsNU6xDHOOljnzTqaatA6HkDDOgpYxDoe\r\nOL063Li7OnpurDrh3K46VHCuOn6ArzoqArA62cSxOvsrrjoezas6nd6lOjLTqTouSJI6oMSCOufP\r\nrzrmPso6tnOWOsQ+dzo/aZc6CMmrOuAGpDrZxpw6kaOXOt+SlzoD25Q6a6eSOn4Efjp+OXE6p66E\r\nOrq1hjoOcIo6S1yNOi7EgTp67IU6TVh9OqrugTp2XYM6Ll1sOu76fDoUUno6ZNJyOgGibjpW/XY6\r\nqNtsOqrXbDpcRHk61gxuOj4Yajps0GQ62mdgOrRBXzoWBF066B9jOtirUjr/7l06cog9OiWnNzox\r\nDzo6wnBtOqQVbjqXwhw6DjI9Ol3GPDpUjII6WjEtOlathTrswWk6DJxsOkCpaTrIf1Q62IVQOu0I\r\nRzpoukU6b/g9OrSdRjp0PD46ij9gOlrMJjpuKCw6Hec1OmpjQjqAbUQ67ncnOrCRKTrrTYc6pLsZ\r\nOgpVBjqLuXM6fL8xOo6VQjqZxuw5IgJCOkxZSzpqJEc6Gnw3OvD7ITrauxw6CGweOiBMGjpDfy86\r\nhz8FOuQkFDoBXBs6kpgTOivWLjoBvSs6bsIZOlWMITriJRg6bwkkOjhiFDovTBY6KJoXOvQHIDpE\r\ngxU6MMEBOhi+FjpX6Qg645EkOk4dITqdZxk6k1T/OSDiETpX2R86RhYJOioCBTql2BU6Xg0OOnqh\r\nBjo49Qk66HEOOnZwCDoQnQc6hF4IOm4hBjoPEf055tkGOjGt/zkqmPs5wV4IOld+BDqQvP45+BoF\r\nOozIBTrau/o5UJT5OSRA+DmKhvo5aBj5OURX9jnkbAE64Jf0OfiL+TkBufg5SlzyOULm9Dk0pfY5\r\n3n30OXRM8Tm6S/A5Qi7sOdw/9zk9ze85ILHvOeFk5DlCMOo5hO3jOXLY5DmQb+E5ty/iORpi5Dm2\r\nkeY5tnTgOViM9DldS+E5c3zjOWv41DmwPd05r4/cORbI3jksaeE5RoDfOTjL3jmlqtc5a1TSOcuh\r\nzjn7KdM5UnXfOYQg0TkApts5D+DNOQyCzTnbN8w5MZnVOc++0zm0mMg5Y5fGOZrRyTlMF8o5mXDS\r\nOepS0DllEcw51nvMOQMr0TnxmMk5RpfQOdoZzDlwmM85g1fKOctDvjl4bb45fyW+OQSfvTlku8g5\r\nymy8OTB1uDkIxLs5A4yxOX9YuDl767k5xb28OZEyvTmdVa850QOzOSYIyTmPN7s5HNy3OcZHrTn6\r\nlLo5qBqyOYE6tjlAcrA50Pu5OUzCujmhprQ5MkizORlPsTm1Jqw5L8KwObxBtTkltKc5lGmuOR/v\r\nqzlhKLE5eHitOZ6nqjkt0Kw5+ka0OV4dqzn2HrQ5RQ6sOVObrzkHc6s5ZGqtOfiNoDk+hrM5lUyt\r\nOXd3rzk8pq8552imOVRDqDnJa6U55eysOXLyoDkSS6w5y0KpOacloDkC4KQ54JWaOaBBpDnImp85\r\npj2mOXJvnzlsfqE5CESdOfWxpzmcA585DP2qOX/3njmoC545fB+cOUz9njmCmZo5US+cOQjilzlW\r\nYaY5x3ijOdMZoTl6dpo5MCaSOf/Iojmim5c5Z7SXOXuulzl2+5o5tliSOar6ljlpd5s5WkyZOTZa\r\nmzmAgJg5G8iNOezwmzkerZQ56o6NOQHGlzn92Zk5nFKbOQYPmDkFAZE50euQOTpSiDm7N505txSR\r\nOVSihzk3JJI5SVqSOT/mljn4h485gWCYOXcXlDniyYs5hKKKOQpEjTlXnJE5m7KQOXhRjDkb0I45\r\nnBWOOXHRjTkcv4s5mE2VOWgHiTlwVY458BePObnVjjmoW4M5QmaNOXRNijl8x4s5vN6HOXKRiTl4\r\nook53nGBOerMkznC4oQ5PO+LOT6YgTleA4U5bkKBOZKXjjl8sIE5hcaIORa3iDlOhpE5xIeFOXLa\r\nhTktI4U5v3WJOVwUgzl7b4I5gWiGORUGfTlqaYQ5dQ6AOUL9dzlL9X85YSmBOboPfzlg+4U5D4eB\r\nOdh1gjl+VoA5dXmAOSxFhzmSjYI5ONV2Od5IdTnel4E52K54OVR4gzneRH858gSGOc7kejm/dHo5\r\nrYSEOcQffjkycX85R1SAORZHgzl8+Xs5wVN7OZU2gDlyFIA5E2h/Od8ffjnWvm45bQCIOSkPgTl8\r\nFm85w3ptOXAJejlvXW85phR/OfflZjmeUHY5rkRjOYvwgDkiRnk5Ei52OSecczmXem05kzxtOXen\r\neDlxdG457mF6Ofo+aznuj3M590N2OYLWeTnYYF85IYN8OX3wbzlc6mc5RdRrOZk2ZDltu3c56AFj\r\nObL6aTlZA2E53BtwOes2YTld/Go5Y9NsOfQ1YTmli3I51f5iOX6ycjm87m05yydjOX93ZjkO8GY5\r\nx1xuOUhNbDlhumU5vPCCOeB+bDlc4W05RIFoOTguYjlM+HQ547BkORpHdTnqfm45enJrOV63dDl/\r\nnGo5+jRkORi0cTnuE245nThlOTMWbTnpFmE5XqZnOXUAZDn6M1w5P7xgOelgYTl6vmM5XqpWOaBd\r\nYDk1eWM5YBloOWtYYzkbT1s5CTFmOX3sVzkH6ls5wy1vOdhNWTl+j2Y5XXVkOTkpWDmsZGo5y51b\r\nObmRbzlFCFg5ZTZeOS/GVTkj3mA5oatWOYehVjmAd2c5pJ1POVMpVTmKF2c5dhRdORuvWzlUflk5\r\nAlFNOXShVDn3nFY5y990Oeh7YjkNz2Q5BhdYOf62SzngIWc5Yk9QOY91XDmrl145HU1WOezITTli\r\nTWc5EYNTOcGcbDlMHVw51vhhOTb3TTnwCGs5igFdOZL/WTkm7GQ5vztSOXRTUjlxLWQ5+pZROYVI\r\nZjl+5VM5lQxROUs1VznOjmI5TC9gOZWrWzlIE085d+9YOeTSWzlPJ185p0FMOR48Sjn9dVk52dJj\r\nOdqVVDkkmlg5lxdWOfgzTjm7e1M50OxbOZkcUjmye1s5ZohgOaINWDm3ZlY5X7ZfOfy4UznG71Y5\r\n7h9iOXT9TjkWRFY5b3hbOUgmUznuBmM5Yg5TOZ5pXDl3DFc5zeZROcqfWjlvVFE5Bg5fOelfWDks\r\nMl05ZgVqOS0SXTnHKFQ5qEhLOU9LUDlaeFk5NIpqOZSEWjmVwVU5mrhZOZRCUDnE8FA5zy9YOW6a\r\nVDndjEQ5iN5aOYvPVjmNa1M5PQlbOaUsYTk8yk05UXBLOWceXDmgj1k5eUVTOQaYRDlUTGg5VOxe\r\nOQufVzm9p0859PxUOa9UQzlhsVk5XH1dOdMzXznKKVs5skNVOV+SSDn8PFk5ABFUOQ==",
                            "noiseTrainingType" : "default"
                          }
                        }
                    ],
                    "start" : 2383,
                    "duration" : 78,
                    "mediaStart" : 8195,
                    "mediaDuration" : 78,
                    "scalar" : 1,
                    "metadata" : {
                      "WinSubProjectDisplayName" : "",
                      "clipSpeedAttribute" : false
                    },
                    "animationTracks" : {

                    }
                  },
                  {
                    "id" : 78,
                    "_type" : "AMFile",
                    "src" : 1,
                    "trackNumber" : 1,
                    "attributes" : {
                      "ident" : "tower-columns-01",
                      "sampleRate" : 44100,
                      "bitDepth" : 16,
                      "gain" : 1.0,
                      "mixToMono" : false
                    },
                      "channelNumber" : "0,1",
                    "effects" : [
                        {
                          "effectName" : "NoiseReduction",
                          "category" : "categoryAudioEffects",
                          "parameters" : {
                            "denoiserAmount" : 20.0,
                            "denoiserThreshold" : 0.0,
                            "noiseProfile" : "EMxRPtIrnUDesoA+IOwHP+YO4D9WV91AOxaTQBwHK0BhVvQ/HktXPycvMj9PZz8/4ihoP54wfT9G\r\nUcQ+rrIOPk5lQT6NLQ0+zlWIPk6IhT477Ts+2O8GP1Tooz9uV44/4pD8P0MGJD9+F8A+bT6xP0eA\r\nmD9sM4dAyKR4QerrMkG4jk1BXsIgQsCZXEHbUqRBqOCNQYt8hECOLVVAqh8AQCjj3D+3jqs/d0DN\r\nP64eqT/GBoZAdSoMQATZyj8y5oo/rKNWQNP/oUCWmodAPBOoP47Jqz9PsBo/klUSP+wyYj5Z7aA+\r\naOqoP8J3kj4Uhwo/IoigPqqr5j8IO6k/+vwLP1caPEDBpjA/dzamP1Lxa0GOidg/zXuwP+WsBT8s\r\nQGg/uCNSPw/bAkCbD4E/HgqrP2Dnzj6ZK8s/tvYFP06V+D4+bhA+W9/lPdxZoT45yc497kYNPpaP\r\niT5VnHE+zUe6PqhLuT7afSU/tR8SPk43jT6cEnA+ED+FPhb0Kj+zw4U+9UKEPQYMaj1CuhU+38pX\r\nPRZWij01lI09j17oPlIkTT7EXVY9R0apPThL0D59BSA+ojg/PtEfWT2OOTI/5t9pPn9ELD9merg9\r\nYlxqPhnIjT3w1jQ+llX8PZQvgj+C/sM/fZWhP9BAC0AdtBBAKBybPuA2mj/SDxc/2+UmPgCiAj6a\r\n3VE/ZFaoPviGvz6j1L8+C3RYPhnZDD4E95w9/G13PVYBND5s4YY9u3txPqZIKj6d3DM+awgAPiT7\r\nPz57AZo+ftD2PZX8lz7lD3w+QvfBPnMC2j/Hess+i8SbPXtEPT7pBLs9WPmIPU7QQD7aYCE+CFDq\r\nPxEwjkCiX2lAxOiXP9AQgj8bPFg/PeEhPmLS7z1Fs7Q++5kMP0zuIz8Uyy0/Y5PoPoo6aj5Bnjc/\r\nNes9P+STKT9JktQ/WK4AQFpiCD/AIEg/Tr8yQIOoaj70wPQ8ENFyPQjLEj2nVkw+r0gEPuNyoz1s\r\nZ3c9BfSlPRsZ0T3ATgE/FqLnPszXPD+1NeQ+HmWTPzVWED516V0+LHr+PWyLeT04C6U96o3pPVuk\r\ntD39Rx0+spThPbi+hD7T0pY+QeKQPvbjpD8UmZg/U3MEP3Zuiz7lJVQ/2rp7P3TlHUB/I6A/lF1y\r\nP0ldVj+6yqk/C06+QA0CoD/60ABB15KzQAJZiD/u6K0/RscMQLgX7z+iIuE/XfZAQP4ezkDr50dA\r\nEeIbQPwy5EBYAmY/yXQ4Pwb0+D+V3dY/qyE2P3cgxkC6hAJBw/rlP+xlBUBk3x1A9c+wPzZn8T8y\r\nY7RAZgu6QFblxEBQoYlAveOPP3l83j7ooQw/mEqgPwl4TUACr2A/CUb+P/ZZRUGakARA5RZ+QCXu\r\nL0AoWe8/sOpYPxtGaz+qCTRAcn6nP8YJIj8gDo1A3D0EQb7VuD9qGxBBCq6uQTjpKUAiZWJB/tpK\r\nQCE6nUBtxKo/pLPOPmjAcT/0iGU+M59YPkUHIz5cW1E+gHgTPVhaqT39L6k+wKs2Pw5vEj6EdCE+\r\n+ZRwPn9NBT6Pq9s+zGGlP9m4qT/BQtw//A4hP1ilNz7uEfs9eN4NPUxROD4qJm4/+aTLP7QYNz95\r\nflA/mOItQEATVz8A4JE/iaj/P4FGrT/xUek/SErqPie6/D4noOI/lx9UP5BgXT/XTFQ/EJOBQKki\r\nMkDwW1VAlr2ePxv110AIWoo+yoEgPvWj6j6kRE4+tOz8Pdji9jznf+k9ZRqZPmmPQj5TJps+wlqb\r\nPVEdfz16OjI+Okb4Pi7x/D1ikTs+KjtZPQAHxTxLaTU9+AUsPvnihD3lLZY9c0BvPktOCz2FIA0+\r\nEamrPSz+cTwPPdE9QlugPUd7RD6061E+JYAAPhw0ST6CH+498Lg1Peo8YDv/3AE9UkCjPHTAqDzn\r\nE3I8duR/OzS+DjzO4iw8FNWkOzOkyzusnAk8s0IBO1dSozvwf+Q7RfSgO+RByzuEg4E7WHOUO/CU\r\ngjtgY5M76kq2Oy/JgzvyPXY7Gj9vOwIfVju+6lY7gBZ5O/CZXDsvehU7e5EAOwbaUDsMQzE7hzov\r\nO5+v0Toa+CY7CmUuO+Q25DrE9CE7upoHO5xMDjsf/tg6ZFVOO0ysRTscyQA7RhYbO3uPCzspk+w6\r\n4FPYOkAX3Dot1fA6nYgEO6Zi/zoXz9g6r/rWOojbzTrOn8s6GbDVOsQxzjpY5806mmrQOh5AwzoK\r\nWMQ6Hji9Oty4uzp6bqw64dyuOlRwrjp+gK86KgKwOtnEsTr7K646Hs2rOp3epToy06k6LkiSOqDE\r\ngjrnz6865j7KOrZzljrEPnc6P2mXOgjJqzrgBqQ62cacOpGjlzrfkpc6A9uUOmunkjp+BH46fjlx\r\nOqeuhDq6tYY6DnCKOktcjTouxIE6euyFOk1YfTqq7oE6dl2DOi5dbDru+nw6FFJ6OmTScjoBom46\r\nVv12OqjbbDqq12w6XER5OtYMbjo+GGo6bNBkOtpnYDq0QV86FgRdOugfYzrYq1I6/+5dOnKIPTol\r\npzc6MQ86OsJwbTqkFW46l8IcOg4yPTpdxjw6VIyCOloxLTpWrYU67MFpOgycbDpAqWk6yH9UOtiF\r\nUDrtCEc6aLpFOm/4PTq0nUY6dDw+Ooo/YDpazCY6bigsOh3nNTpqY0I6gG1EOu53JzqwkSk6602H\r\nOqS7GToKVQY6i7lzOny/MTqOlUI6mcbsOSICQjpMWUs6aiRHOhp8Nzrw+yE62rscOghsHjogTBo6\r\nQ38vOoc/BTrkJBQ6AVwbOpKYEzor1i46Ab0rOm7CGTpVjCE64iUYOm8JJDo4YhQ6L0wWOiiaFzr0\r\nByA6RIMVOjDBAToYvhY6V+kIOuORJDpOHSE6nWcZOpNU/zkg4hE6V9kfOkYWCToqAgU6pdgVOl4N\r\nDjp6oQY6OPUJOuhxDjp2cAg6EJ0HOoReCDpuIQY6DxH9OebZBjoxrf85Kpj7OcFeCDpXfgQ6kLz+\r\nOfgaBTqMyAU62rv6OVCU+TkkQPg5iob6OWgY+TlEV/Y55GwBOuCX9Dn4i/k5Abn4OUpc8jlC5vQ5\r\nNKX2Od599Dl0TPE5ukvwOUIu7DncP/c5Pc3vOSCx7znhZOQ5QjDqOYTt4zly2OQ5kG/hObcv4jka\r\nYuQ5tpHmObZ04DlYjPQ5XUvhOXN84zlr+NQ5sD3dOa+P3DkWyN45LGnhOUaA3zk4y945parXOWtU\r\n0jnLoc45+ynTOVJ13zmEINE5AKbbOQ/gzTkMgs052zfMOTGZ1TnPvtM5tJjIOWOXxjma0ck5TBfK\r\nOZlw0jnqUtA5ZRHMOdZ7zDkDK9E58ZjJOUaX0DnaGcw5cJjPOYNXyjnLQ745eG2+OX8lvjkEn705\r\nZLvIOcpsvDkwdbg5CMS7OQOMsTl/WLg5e+u5OcW9vDmRMr05nVWvOdEDszkmCMk5jze7ORzctznG\r\nR605+pS6OagasjmBOrY5QHKwOdD7uTlMwro5oaa0OTJIszkZT7E5tSasOS/CsDm8QbU5JbSnOZRp\r\nrjkf76s5YSixOXh4rTmep6o5LdCsOfpGtDleHas59h60OUUOrDlTm685B3OrOWRqrTn4jaA5Poaz\r\nOZVMrTl3d685PKavOedopjlUQ6g5yWulOeXsrDly8qA5EkusOctCqTmnJaA5AuCkOeCVmjmgQaQ5\r\nyJqfOaY9pjlyb585bH6hOQhEnTn1sac5nAOfOQz9qjl/9545qAueOXwfnDlM/Z45gpmaOVEvnDkI\r\n4pc5VmGmOcd4oznTGaE5enaaOTAmkjn/yKI5opuXOWe0lzl7rpc5dvuaObZYkjmq+pY5aXebOVpM\r\nmTk2Wps5gICYORvIjTns8Js5Hq2UOeqOjTkBxpc5/dmZOZxSmzkGD5g5BQGROdHrkDk6Uog5uzed\r\nObcUkTlUooc5NySSOUlakjk/5pY5+IePOYFgmDl3F5Q54smLOYSiijkKRI05V5yROZuykDl4UYw5\r\nG9COOZwVjjlx0Y05HL+LOZhNlTloB4k5cFWOOfAXjzm51Y45qFuDOUJmjTl0TYo5fMeLObzehzly\r\nkYk5eKKJOd5xgTnqzJM5wuKEOTzvizk+mIE5XgOFOW5CgTmSl445fLCBOYXGiDkWt4g5ToaROcSH\r\nhTly2oU5LSOFOb91iTlcFIM5e2+COYFohjkVBn05ammEOXUOgDlC/Xc5S/V/OWEpgTm6D385YPuF\r\nOQ+HgTnYdYI5flaAOXV5gDksRYc5ko2COTjVdjneSHU53peBOdiueDlUeIM53kR/OfIEhjnO5Ho5\r\nv3R6Oa2EhDnEH345MnF/OUdUgDkWR4M5fPl7OcFTezmVNoA5chSAORNofznfH3451r5uOW0AiDkp\r\nD4E5fBZvOcN6bTlwCXo5b11vOaYUfzn35WY5nlB2Oa5EYzmL8IA5IkZ5ORIudjknnHM5l3ptOZM8\r\nbTl3p3g5cXRuOe5hejn6Pms57o9zOfdDdjmC1nk52GBfOSGDfDl98G85XOpnOUXUazmZNmQ5bbt3\r\nOegBYzmy+mk5WQNhOdwbcDnrNmE5XfxqOWPTbDn0NWE5pYtyOdX+Yjl+snI5vO5tOcsnYzl/d2Y5\r\nDvBmOcdcbjlITWw5YbplObzwgjngfmw5XOFtOUSBaDk4LmI5TPh0OeOwZDkaR3U56n5uOXpyazle\r\nt3Q5f5xqOfo0ZDkYtHE57hNuOZ04ZTkzFm056RZhOV6mZzl1AGQ5+jNcOT+8YDnpYGE5er5jOV6q\r\nVjmgXWA5NXljOWAZaDlrWGM5G09bOQkxZjl97Fc5B+pbOcMtbznYTVk5fo9mOV11ZDk5KVg5rGRq\r\nOcudWzm5kW85RQhYOWU2XjkvxlU5I95gOaGrVjmHoVY5gHdnOaSdTzlTKVU5ihdnOXYUXTkbr1s5\r\nVH5ZOQJRTTl0oVQ595xWOcvfdDnoe2I5Dc9kOQYXWDn+tks54CFnOWJPUDmPdVw5q5deOR1NVjns\r\nyE05Yk1nORGDUznBnGw5TB1cOdb4YTk290058AhrOYoBXTmS/1k5JuxkOb87Ujl0U1I5cS1kOfqW\r\nUTmFSGY5fuVTOZUMUTlLNVc5zo5iOUwvYDmVq1s5SBNPOXfvWDnk0ls5TydfOadBTDkePEo5/XVZ\r\nOdnSYznalVQ5JJpYOZcXVjn4M045u3tTOdDsWzmZHFI5sntbOWaIYDmiDVg5t2ZWOV+2Xzn8uFM5\r\nxu9WOe4fYjl0/U45FkRWOW94WzlIJlM57gZjOWIOUzmeaVw5dwxXOc3mUTnKn1o5b1RROQYOXznp\r\nX1g5LDJdOWYFajktEl05xyhUOahISzlPS1A5WnhZOTSKajmUhFo5lcFVOZq4WTmUQlA5xPBQOc8v\r\nWDlumlQ53YxEOYjeWjmLz1Y5jWtTOT0JWzmlLGE5PMpNOVFwSzlnHlw5oI9ZOXlFUzkGmEQ5VExo\r\nOVTsXjkLn1c5vadPOfT8VDmvVEM5YbFZOVx9XTnTM185yilbObJDVTlfkkg5/DxZOQARVDkQzFE+\r\n0iudQN6ygD4g7Ac/5g7gP1ZX3UA7FpNAHAcrQGFW9D8eS1c/Jy8yP09nPz/iKGg/njB9P0ZRxD6u\r\nsg4+TmVBPo0tDT7OVYg+ToiFPjvtOz7Y7wY/VOijP25Xjj/ikPw/QwYkP34XwD5tPrE/R4CYP2wz\r\nh0DIpHhB6usyQbiOTUFewiBCwJlcQdtSpEGo4I1Bi3yEQI4tVUCqHwBAKOPcP7eOqz93QM0/rh6p\r\nP8YGhkB1KgxABNnKPzLmij+so1ZA0/+hQJaah0A8E6g/jsmrP0+wGj+SVRI/7DJiPlntoD5o6qg/\r\nwneSPhSHCj8iiKA+qqvmPwg7qT/6/As/Vxo8QMGmMD93NqY/UvFrQY6J2D/Ne7A/5awFPyxAaD+4\r\nI1I/D9sCQJsPgT8eCqs/YOfOPpkryz+29gU/TpX4Pj5uED5b3+U93FmhPjnJzj3uRg0+lo+JPlWc\r\ncT7NR7o+qEu5Ptp9JT+1HxI+TjeNPpwScD4QP4U+FvQqP7PDhT71QoQ9BgxqPUK6FT7fylc9FlaK\r\nPTWUjT2PXug+UiRNPsRdVj1HRqk9OEvQPn0FID6iOD8+0R9ZPY45Mj/m32k+f0QsP2Z6uD1iXGo+\r\nGciNPfDWND6WVfw9lC+CP4L+wz99laE/0EALQB20EEAoHJs+4DaaP9IPFz/b5SY+AKICPprdUT9k\r\nVqg++Ia/PqPUvz4LdFg+GdkMPgT3nD38bXc9VgE0Pmzhhj27e3E+pkgqPp3cMz5rCAA+JPs/PnsB\r\nmj5+0PY9lfyXPuUPfD5C98E+cwLaP8d6yz6LxJs9e0Q9PukEuz1Y+Yg9TtBAPtpgIT4IUOo/ETCO\r\nQKJfaUDE6Jc/0BCCPxs8WD894SE+YtLvPUWztD77mQw/TO4jPxTLLT9jk+g+ijpqPkGeNz816z0/\r\n5JMpP0mS1D9YrgBAWmIIP8AgSD9OvzJAg6hqPvTA9DwQ0XI9CMsSPadWTD6vSAQ+43KjPWxndz0F\r\n9KU9GxnRPcBOAT8Wouc+zNc8P7U15D4eZZM/NVYQPnXpXT4sev49bIt5PTgLpT3qjek9W6S0Pf1H\r\nHT6ylOE9uL6EPtPSlj5B4pA+9uOkPxSZmD9TcwQ/dm6LPuUlVD/auns/dOUdQH8joD+UXXI/SV1W\r\nP7rKqT8LTr5ADQKgP/rQAEHXkrNAAlmIP+7orT9GxwxAuBfvP6Ii4T9d9kBA/h7OQOvnR0AR4htA\r\n/DLkQFgCZj/JdDg/BvT4P5Xd1j+rITY/dyDGQLqEAkHD+uU/7GUFQGTfHUD1z7A/NmfxPzJjtEBm\r\nC7pAVuXEQFChiUC9448/eXzePuihDD+YSqA/CXhNQAKvYD8JRv4/9llFQZqQBEDlFn5AJe4vQChZ\r\n7z+w6lg/G0ZrP6oJNEByfqc/xgkiPyAOjUDcPQRBvtW4P2obEEEKrq5BOOkpQCJlYkH+2kpAITqd\r\nQG3Eqj+ks84+aMBxP/SIZT4zn1g+RQcjPlxbUT6AeBM9WFqpPf0vqT7AqzY/Dm8SPoR0IT75lHA+\r\nf00FPo+r2z7MYaU/2bipP8FC3D/8DiE/WKU3Pu4R+z143g09TFE4Piombj/5pMs/tBg3P3l+UD+Y\r\n4i1AQBNXPwDgkT+JqP8/gUatP/FR6T9ISuo+J7r8Pieg4j+XH1Q/kGBdP9dMVD8Qk4FAqSIyQPBb\r\nVUCWvZ4/G/XXQAhaij7KgSA+9aPqPqRETj607Pw92OL2POd/6T1lGpk+aY9CPlMmmz7CWps9UR1/\r\nPXo6Mj46Rvg+LvH8PWKROz4qO1k9AAfFPEtpNT34BSw++eKEPeUtlj1zQG8+S04LPYUgDT4Rqas9\r\nLP5xPA890T1CW6A9R3tEPrTrUT4lgAA+HDRJPoIf7j3wuDU96jxgO//cAT1SQKM8dMCoPOcTcjx2\r\n5H87NL4OPM7iLDwU1aQ7M6TLO6ycCTyzQgE7V1KjO/B/5DtF9KA75EHLO4SDgTtYc5Q78JSCO2Bj\r\nkzvqSrY7L8mDO/I9djsaP287Ah9WO77qVjuAFnk78JlcOy96FTt7kQA7BtpQOwxDMTuHOi87n6/R\r\nOhr4JjsKZS475DbkOsT0ITu6mgc7nEwOOx/+2DpkVU47TKxFOxzJADtGFhs7e48LOymT7DrgU9g6\r\nQBfcOi3V8DqdiAQ7pmL/OhfP2Dqv+tY6iNvNOs6fyzoZsNU6xDHOOljnzTqaatA6HkDDOgpYxDoe\r\nOL063Li7OnpurDrh3K46VHCuOn6ArzoqArA62cSxOvsrrjoezas6nd6lOjLTqTouSJI6oMSCOufP\r\nrzrmPso6tnOWOsQ+dzo/aZc6CMmrOuAGpDrZxpw6kaOXOt+SlzoD25Q6a6eSOn4Efjp+OXE6p66E\r\nOrq1hjoOcIo6S1yNOi7EgTp67IU6TVh9OqrugTp2XYM6Ll1sOu76fDoUUno6ZNJyOgGibjpW/XY6\r\nqNtsOqrXbDpcRHk61gxuOj4Yajps0GQ62mdgOrRBXzoWBF066B9jOtirUjr/7l06cog9OiWnNzox\r\nDzo6wnBtOqQVbjqXwhw6DjI9Ol3GPDpUjII6WjEtOlathTrswWk6DJxsOkCpaTrIf1Q62IVQOu0I\r\nRzpoukU6b/g9OrSdRjp0PD46ij9gOlrMJjpuKCw6Hec1OmpjQjqAbUQ67ncnOrCRKTrrTYc6pLsZ\r\nOgpVBjqLuXM6fL8xOo6VQjqZxuw5IgJCOkxZSzpqJEc6Gnw3OvD7ITrauxw6CGweOiBMGjpDfy86\r\nhz8FOuQkFDoBXBs6kpgTOivWLjoBvSs6bsIZOlWMITriJRg6bwkkOjhiFDovTBY6KJoXOvQHIDpE\r\ngxU6MMEBOhi+FjpX6Qg645EkOk4dITqdZxk6k1T/OSDiETpX2R86RhYJOioCBTql2BU6Xg0OOnqh\r\nBjo49Qk66HEOOnZwCDoQnQc6hF4IOm4hBjoPEf055tkGOjGt/zkqmPs5wV4IOld+BDqQvP45+BoF\r\nOozIBTrau/o5UJT5OSRA+DmKhvo5aBj5OURX9jnkbAE64Jf0OfiL+TkBufg5SlzyOULm9Dk0pfY5\r\n3n30OXRM8Tm6S/A5Qi7sOdw/9zk9ze85ILHvOeFk5DlCMOo5hO3jOXLY5DmQb+E5ty/iORpi5Dm2\r\nkeY5tnTgOViM9DldS+E5c3zjOWv41DmwPd05r4/cORbI3jksaeE5RoDfOTjL3jmlqtc5a1TSOcuh\r\nzjn7KdM5UnXfOYQg0TkApts5D+DNOQyCzTnbN8w5MZnVOc++0zm0mMg5Y5fGOZrRyTlMF8o5mXDS\r\nOepS0DllEcw51nvMOQMr0TnxmMk5RpfQOdoZzDlwmM85g1fKOctDvjl4bb45fyW+OQSfvTlku8g5\r\nymy8OTB1uDkIxLs5A4yxOX9YuDl767k5xb28OZEyvTmdVa850QOzOSYIyTmPN7s5HNy3OcZHrTn6\r\nlLo5qBqyOYE6tjlAcrA50Pu5OUzCujmhprQ5MkizORlPsTm1Jqw5L8KwObxBtTkltKc5lGmuOR/v\r\nqzlhKLE5eHitOZ6nqjkt0Kw5+ka0OV4dqzn2HrQ5RQ6sOVObrzkHc6s5ZGqtOfiNoDk+hrM5lUyt\r\nOXd3rzk8pq8552imOVRDqDnJa6U55eysOXLyoDkSS6w5y0KpOacloDkC4KQ54JWaOaBBpDnImp85\r\npj2mOXJvnzlsfqE5CESdOfWxpzmcA585DP2qOX/3njmoC545fB+cOUz9njmCmZo5US+cOQjilzlW\r\nYaY5x3ijOdMZoTl6dpo5MCaSOf/Iojmim5c5Z7SXOXuulzl2+5o5tliSOar6ljlpd5s5WkyZOTZa\r\nmzmAgJg5G8iNOezwmzkerZQ56o6NOQHGlzn92Zk5nFKbOQYPmDkFAZE50euQOTpSiDm7N505txSR\r\nOVSihzk3JJI5SVqSOT/mljn4h485gWCYOXcXlDniyYs5hKKKOQpEjTlXnJE5m7KQOXhRjDkb0I45\r\nnBWOOXHRjTkcv4s5mE2VOWgHiTlwVY458BePObnVjjmoW4M5QmaNOXRNijl8x4s5vN6HOXKRiTl4\r\nook53nGBOerMkznC4oQ5PO+LOT6YgTleA4U5bkKBOZKXjjl8sIE5hcaIORa3iDlOhpE5xIeFOXLa\r\nhTktI4U5v3WJOVwUgzl7b4I5gWiGORUGfTlqaYQ5dQ6AOUL9dzlL9X85YSmBOboPfzlg+4U5D4eB\r\nOdh1gjl+VoA5dXmAOSxFhzmSjYI5ONV2Od5IdTnel4E52K54OVR4gzneRH858gSGOc7kejm/dHo5\r\nrYSEOcQffjkycX85R1SAORZHgzl8+Xs5wVN7OZU2gDlyFIA5E2h/Od8ffjnWvm45bQCIOSkPgTl8\r\nFm85w3ptOXAJejlvXW85phR/OfflZjmeUHY5rkRjOYvwgDkiRnk5Ei52OSecczmXem05kzxtOXen\r\neDlxdG457mF6Ofo+aznuj3M590N2OYLWeTnYYF85IYN8OX3wbzlc6mc5RdRrOZk2ZDltu3c56AFj\r\nObL6aTlZA2E53BtwOes2YTld/Go5Y9NsOfQ1YTmli3I51f5iOX6ycjm87m05yydjOX93ZjkO8GY5\r\nx1xuOUhNbDlhumU5vPCCOeB+bDlc4W05RIFoOTguYjlM+HQ547BkORpHdTnqfm45enJrOV63dDl/\r\nnGo5+jRkORi0cTnuE245nThlOTMWbTnpFmE5XqZnOXUAZDn6M1w5P7xgOelgYTl6vmM5XqpWOaBd\r\nYDk1eWM5YBloOWtYYzkbT1s5CTFmOX3sVzkH6ls5wy1vOdhNWTl+j2Y5XXVkOTkpWDmsZGo5y51b\r\nObmRbzlFCFg5ZTZeOS/GVTkj3mA5oatWOYehVjmAd2c5pJ1POVMpVTmKF2c5dhRdORuvWzlUflk5\r\nAlFNOXShVDn3nFY5y990Oeh7YjkNz2Q5BhdYOf62SzngIWc5Yk9QOY91XDmrl145HU1WOezITTli\r\nTWc5EYNTOcGcbDlMHVw51vhhOTb3TTnwCGs5igFdOZL/WTkm7GQ5vztSOXRTUjlxLWQ5+pZROYVI\r\nZjl+5VM5lQxROUs1VznOjmI5TC9gOZWrWzlIE085d+9YOeTSWzlPJ185p0FMOR48Sjn9dVk52dJj\r\nOdqVVDkkmlg5lxdWOfgzTjm7e1M50OxbOZkcUjmye1s5ZohgOaINWDm3ZlY5X7ZfOfy4UznG71Y5\r\n7h9iOXT9TjkWRFY5b3hbOUgmUznuBmM5Yg5TOZ5pXDl3DFc5zeZROcqfWjlvVFE5Bg5fOelfWDks\r\nMl05ZgVqOS0SXTnHKFQ5qEhLOU9LUDlaeFk5NIpqOZSEWjmVwVU5mrhZOZRCUDnE8FA5zy9YOW6a\r\nVDndjEQ5iN5aOYvPVjmNa1M5PQlbOaUsYTk8yk05UXBLOWceXDmgj1k5eUVTOQaYRDlUTGg5VOxe\r\nOQufVzm9p0859PxUOa9UQzlhsVk5XH1dOdMzXznKKVs5skNVOV+SSDn8PFk5ABFUOQ==",
                            "noiseTrainingType" : "default"
                          }
                        }
                    ],
                    "start" : 2461,
                    "duration" : 40,
                    "mediaStart" : 8275,
                    "mediaDuration" : 40,
                    "scalar" : 1,
                    "metadata" : {
                      "WinSubProjectDisplayName" : "",
                      "clipSpeedAttribute" : false
                    },
                    "animationTracks" : {

                    }
                  },
                  {
                    "id" : 79,
                    "_type" : "AMFile",
                    "src" : 1,
                    "trackNumber" : 1,
                    "attributes" : {
                      "ident" : "tower-columns-01",
                      "sampleRate" : 44100,
                      "bitDepth" : 16,
                      "gain" : 1.0,
                      "mixToMono" : false
                    },
                      "channelNumber" : "0,1",
                    "effects" : [
                        {
                          "effectName" : "NoiseReduction",
                          "category" : "categoryAudioEffects",
                          "parameters" : {
                            "denoiserAmount" : 20.0,
                            "denoiserThreshold" : 0.0,
                            "noiseProfile" : "EMxRPtIrnUDesoA+IOwHP+YO4D9WV91AOxaTQBwHK0BhVvQ/HktXPycvMj9PZz8/4ihoP54wfT9G\r\nUcQ+rrIOPk5lQT6NLQ0+zlWIPk6IhT477Ts+2O8GP1Tooz9uV44/4pD8P0MGJD9+F8A+bT6xP0eA\r\nmD9sM4dAyKR4QerrMkG4jk1BXsIgQsCZXEHbUqRBqOCNQYt8hECOLVVAqh8AQCjj3D+3jqs/d0DN\r\nP64eqT/GBoZAdSoMQATZyj8y5oo/rKNWQNP/oUCWmodAPBOoP47Jqz9PsBo/klUSP+wyYj5Z7aA+\r\naOqoP8J3kj4Uhwo/IoigPqqr5j8IO6k/+vwLP1caPEDBpjA/dzamP1Lxa0GOidg/zXuwP+WsBT8s\r\nQGg/uCNSPw/bAkCbD4E/HgqrP2Dnzj6ZK8s/tvYFP06V+D4+bhA+W9/lPdxZoT45yc497kYNPpaP\r\niT5VnHE+zUe6PqhLuT7afSU/tR8SPk43jT6cEnA+ED+FPhb0Kj+zw4U+9UKEPQYMaj1CuhU+38pX\r\nPRZWij01lI09j17oPlIkTT7EXVY9R0apPThL0D59BSA+ojg/PtEfWT2OOTI/5t9pPn9ELD9merg9\r\nYlxqPhnIjT3w1jQ+llX8PZQvgj+C/sM/fZWhP9BAC0AdtBBAKBybPuA2mj/SDxc/2+UmPgCiAj6a\r\n3VE/ZFaoPviGvz6j1L8+C3RYPhnZDD4E95w9/G13PVYBND5s4YY9u3txPqZIKj6d3DM+awgAPiT7\r\nPz57AZo+ftD2PZX8lz7lD3w+QvfBPnMC2j/Hess+i8SbPXtEPT7pBLs9WPmIPU7QQD7aYCE+CFDq\r\nPxEwjkCiX2lAxOiXP9AQgj8bPFg/PeEhPmLS7z1Fs7Q++5kMP0zuIz8Uyy0/Y5PoPoo6aj5Bnjc/\r\nNes9P+STKT9JktQ/WK4AQFpiCD/AIEg/Tr8yQIOoaj70wPQ8ENFyPQjLEj2nVkw+r0gEPuNyoz1s\r\nZ3c9BfSlPRsZ0T3ATgE/FqLnPszXPD+1NeQ+HmWTPzVWED516V0+LHr+PWyLeT04C6U96o3pPVuk\r\ntD39Rx0+spThPbi+hD7T0pY+QeKQPvbjpD8UmZg/U3MEP3Zuiz7lJVQ/2rp7P3TlHUB/I6A/lF1y\r\nP0ldVj+6yqk/C06+QA0CoD/60ABB15KzQAJZiD/u6K0/RscMQLgX7z+iIuE/XfZAQP4ezkDr50dA\r\nEeIbQPwy5EBYAmY/yXQ4Pwb0+D+V3dY/qyE2P3cgxkC6hAJBw/rlP+xlBUBk3x1A9c+wPzZn8T8y\r\nY7RAZgu6QFblxEBQoYlAveOPP3l83j7ooQw/mEqgPwl4TUACr2A/CUb+P/ZZRUGakARA5RZ+QCXu\r\nL0AoWe8/sOpYPxtGaz+qCTRAcn6nP8YJIj8gDo1A3D0EQb7VuD9qGxBBCq6uQTjpKUAiZWJB/tpK\r\nQCE6nUBtxKo/pLPOPmjAcT/0iGU+M59YPkUHIz5cW1E+gHgTPVhaqT39L6k+wKs2Pw5vEj6EdCE+\r\n+ZRwPn9NBT6Pq9s+zGGlP9m4qT/BQtw//A4hP1ilNz7uEfs9eN4NPUxROD4qJm4/+aTLP7QYNz95\r\nflA/mOItQEATVz8A4JE/iaj/P4FGrT/xUek/SErqPie6/D4noOI/lx9UP5BgXT/XTFQ/EJOBQKki\r\nMkDwW1VAlr2ePxv110AIWoo+yoEgPvWj6j6kRE4+tOz8Pdji9jznf+k9ZRqZPmmPQj5TJps+wlqb\r\nPVEdfz16OjI+Okb4Pi7x/D1ikTs+KjtZPQAHxTxLaTU9+AUsPvnihD3lLZY9c0BvPktOCz2FIA0+\r\nEamrPSz+cTwPPdE9QlugPUd7RD6061E+JYAAPhw0ST6CH+498Lg1Peo8YDv/3AE9UkCjPHTAqDzn\r\nE3I8duR/OzS+DjzO4iw8FNWkOzOkyzusnAk8s0IBO1dSozvwf+Q7RfSgO+RByzuEg4E7WHOUO/CU\r\ngjtgY5M76kq2Oy/JgzvyPXY7Gj9vOwIfVju+6lY7gBZ5O/CZXDsvehU7e5EAOwbaUDsMQzE7hzov\r\nO5+v0Toa+CY7CmUuO+Q25DrE9CE7upoHO5xMDjsf/tg6ZFVOO0ysRTscyQA7RhYbO3uPCzspk+w6\r\n4FPYOkAX3Dot1fA6nYgEO6Zi/zoXz9g6r/rWOojbzTrOn8s6GbDVOsQxzjpY5806mmrQOh5AwzoK\r\nWMQ6Hji9Oty4uzp6bqw64dyuOlRwrjp+gK86KgKwOtnEsTr7K646Hs2rOp3epToy06k6LkiSOqDE\r\ngjrnz6865j7KOrZzljrEPnc6P2mXOgjJqzrgBqQ62cacOpGjlzrfkpc6A9uUOmunkjp+BH46fjlx\r\nOqeuhDq6tYY6DnCKOktcjTouxIE6euyFOk1YfTqq7oE6dl2DOi5dbDru+nw6FFJ6OmTScjoBom46\r\nVv12OqjbbDqq12w6XER5OtYMbjo+GGo6bNBkOtpnYDq0QV86FgRdOugfYzrYq1I6/+5dOnKIPTol\r\npzc6MQ86OsJwbTqkFW46l8IcOg4yPTpdxjw6VIyCOloxLTpWrYU67MFpOgycbDpAqWk6yH9UOtiF\r\nUDrtCEc6aLpFOm/4PTq0nUY6dDw+Ooo/YDpazCY6bigsOh3nNTpqY0I6gG1EOu53JzqwkSk6602H\r\nOqS7GToKVQY6i7lzOny/MTqOlUI6mcbsOSICQjpMWUs6aiRHOhp8Nzrw+yE62rscOghsHjogTBo6\r\nQ38vOoc/BTrkJBQ6AVwbOpKYEzor1i46Ab0rOm7CGTpVjCE64iUYOm8JJDo4YhQ6L0wWOiiaFzr0\r\nByA6RIMVOjDBAToYvhY6V+kIOuORJDpOHSE6nWcZOpNU/zkg4hE6V9kfOkYWCToqAgU6pdgVOl4N\r\nDjp6oQY6OPUJOuhxDjp2cAg6EJ0HOoReCDpuIQY6DxH9OebZBjoxrf85Kpj7OcFeCDpXfgQ6kLz+\r\nOfgaBTqMyAU62rv6OVCU+TkkQPg5iob6OWgY+TlEV/Y55GwBOuCX9Dn4i/k5Abn4OUpc8jlC5vQ5\r\nNKX2Od599Dl0TPE5ukvwOUIu7DncP/c5Pc3vOSCx7znhZOQ5QjDqOYTt4zly2OQ5kG/hObcv4jka\r\nYuQ5tpHmObZ04DlYjPQ5XUvhOXN84zlr+NQ5sD3dOa+P3DkWyN45LGnhOUaA3zk4y945parXOWtU\r\n0jnLoc45+ynTOVJ13zmEINE5AKbbOQ/gzTkMgs052zfMOTGZ1TnPvtM5tJjIOWOXxjma0ck5TBfK\r\nOZlw0jnqUtA5ZRHMOdZ7zDkDK9E58ZjJOUaX0DnaGcw5cJjPOYNXyjnLQ745eG2+OX8lvjkEn705\r\nZLvIOcpsvDkwdbg5CMS7OQOMsTl/WLg5e+u5OcW9vDmRMr05nVWvOdEDszkmCMk5jze7ORzctznG\r\nR605+pS6OagasjmBOrY5QHKwOdD7uTlMwro5oaa0OTJIszkZT7E5tSasOS/CsDm8QbU5JbSnOZRp\r\nrjkf76s5YSixOXh4rTmep6o5LdCsOfpGtDleHas59h60OUUOrDlTm685B3OrOWRqrTn4jaA5Poaz\r\nOZVMrTl3d685PKavOedopjlUQ6g5yWulOeXsrDly8qA5EkusOctCqTmnJaA5AuCkOeCVmjmgQaQ5\r\nyJqfOaY9pjlyb585bH6hOQhEnTn1sac5nAOfOQz9qjl/9545qAueOXwfnDlM/Z45gpmaOVEvnDkI\r\n4pc5VmGmOcd4oznTGaE5enaaOTAmkjn/yKI5opuXOWe0lzl7rpc5dvuaObZYkjmq+pY5aXebOVpM\r\nmTk2Wps5gICYORvIjTns8Js5Hq2UOeqOjTkBxpc5/dmZOZxSmzkGD5g5BQGROdHrkDk6Uog5uzed\r\nObcUkTlUooc5NySSOUlakjk/5pY5+IePOYFgmDl3F5Q54smLOYSiijkKRI05V5yROZuykDl4UYw5\r\nG9COOZwVjjlx0Y05HL+LOZhNlTloB4k5cFWOOfAXjzm51Y45qFuDOUJmjTl0TYo5fMeLObzehzly\r\nkYk5eKKJOd5xgTnqzJM5wuKEOTzvizk+mIE5XgOFOW5CgTmSl445fLCBOYXGiDkWt4g5ToaROcSH\r\nhTly2oU5LSOFOb91iTlcFIM5e2+COYFohjkVBn05ammEOXUOgDlC/Xc5S/V/OWEpgTm6D385YPuF\r\nOQ+HgTnYdYI5flaAOXV5gDksRYc5ko2COTjVdjneSHU53peBOdiueDlUeIM53kR/OfIEhjnO5Ho5\r\nv3R6Oa2EhDnEH345MnF/OUdUgDkWR4M5fPl7OcFTezmVNoA5chSAORNofznfH3451r5uOW0AiDkp\r\nD4E5fBZvOcN6bTlwCXo5b11vOaYUfzn35WY5nlB2Oa5EYzmL8IA5IkZ5ORIudjknnHM5l3ptOZM8\r\nbTl3p3g5cXRuOe5hejn6Pms57o9zOfdDdjmC1nk52GBfOSGDfDl98G85XOpnOUXUazmZNmQ5bbt3\r\nOegBYzmy+mk5WQNhOdwbcDnrNmE5XfxqOWPTbDn0NWE5pYtyOdX+Yjl+snI5vO5tOcsnYzl/d2Y5\r\nDvBmOcdcbjlITWw5YbplObzwgjngfmw5XOFtOUSBaDk4LmI5TPh0OeOwZDkaR3U56n5uOXpyazle\r\nt3Q5f5xqOfo0ZDkYtHE57hNuOZ04ZTkzFm056RZhOV6mZzl1AGQ5+jNcOT+8YDnpYGE5er5jOV6q\r\nVjmgXWA5NXljOWAZaDlrWGM5G09bOQkxZjl97Fc5B+pbOcMtbznYTVk5fo9mOV11ZDk5KVg5rGRq\r\nOcudWzm5kW85RQhYOWU2XjkvxlU5I95gOaGrVjmHoVY5gHdnOaSdTzlTKVU5ihdnOXYUXTkbr1s5\r\nVH5ZOQJRTTl0oVQ595xWOcvfdDnoe2I5Dc9kOQYXWDn+tks54CFnOWJPUDmPdVw5q5deOR1NVjns\r\nyE05Yk1nORGDUznBnGw5TB1cOdb4YTk290058AhrOYoBXTmS/1k5JuxkOb87Ujl0U1I5cS1kOfqW\r\nUTmFSGY5fuVTOZUMUTlLNVc5zo5iOUwvYDmVq1s5SBNPOXfvWDnk0ls5TydfOadBTDkePEo5/XVZ\r\nOdnSYznalVQ5JJpYOZcXVjn4M045u3tTOdDsWzmZHFI5sntbOWaIYDmiDVg5t2ZWOV+2Xzn8uFM5\r\nxu9WOe4fYjl0/U45FkRWOW94WzlIJlM57gZjOWIOUzmeaVw5dwxXOc3mUTnKn1o5b1RROQYOXznp\r\nX1g5LDJdOWYFajktEl05xyhUOahISzlPS1A5WnhZOTSKajmUhFo5lcFVOZq4WTmUQlA5xPBQOc8v\r\nWDlumlQ53YxEOYjeWjmLz1Y5jWtTOT0JWzmlLGE5PMpNOVFwSzlnHlw5oI9ZOXlFUzkGmEQ5VExo\r\nOVTsXjkLn1c5vadPOfT8VDmvVEM5YbFZOVx9XTnTM185yilbObJDVTlfkkg5/DxZOQARVDkQzFE+\r\n0iudQN6ygD4g7Ac/5g7gP1ZX3UA7FpNAHAcrQGFW9D8eS1c/Jy8yP09nPz/iKGg/njB9P0ZRxD6u\r\nsg4+TmVBPo0tDT7OVYg+ToiFPjvtOz7Y7wY/VOijP25Xjj/ikPw/QwYkP34XwD5tPrE/R4CYP2wz\r\nh0DIpHhB6usyQbiOTUFewiBCwJlcQdtSpEGo4I1Bi3yEQI4tVUCqHwBAKOPcP7eOqz93QM0/rh6p\r\nP8YGhkB1KgxABNnKPzLmij+so1ZA0/+hQJaah0A8E6g/jsmrP0+wGj+SVRI/7DJiPlntoD5o6qg/\r\nwneSPhSHCj8iiKA+qqvmPwg7qT/6/As/Vxo8QMGmMD93NqY/UvFrQY6J2D/Ne7A/5awFPyxAaD+4\r\nI1I/D9sCQJsPgT8eCqs/YOfOPpkryz+29gU/TpX4Pj5uED5b3+U93FmhPjnJzj3uRg0+lo+JPlWc\r\ncT7NR7o+qEu5Ptp9JT+1HxI+TjeNPpwScD4QP4U+FvQqP7PDhT71QoQ9BgxqPUK6FT7fylc9FlaK\r\nPTWUjT2PXug+UiRNPsRdVj1HRqk9OEvQPn0FID6iOD8+0R9ZPY45Mj/m32k+f0QsP2Z6uD1iXGo+\r\nGciNPfDWND6WVfw9lC+CP4L+wz99laE/0EALQB20EEAoHJs+4DaaP9IPFz/b5SY+AKICPprdUT9k\r\nVqg++Ia/PqPUvz4LdFg+GdkMPgT3nD38bXc9VgE0Pmzhhj27e3E+pkgqPp3cMz5rCAA+JPs/PnsB\r\nmj5+0PY9lfyXPuUPfD5C98E+cwLaP8d6yz6LxJs9e0Q9PukEuz1Y+Yg9TtBAPtpgIT4IUOo/ETCO\r\nQKJfaUDE6Jc/0BCCPxs8WD894SE+YtLvPUWztD77mQw/TO4jPxTLLT9jk+g+ijpqPkGeNz816z0/\r\n5JMpP0mS1D9YrgBAWmIIP8AgSD9OvzJAg6hqPvTA9DwQ0XI9CMsSPadWTD6vSAQ+43KjPWxndz0F\r\n9KU9GxnRPcBOAT8Wouc+zNc8P7U15D4eZZM/NVYQPnXpXT4sev49bIt5PTgLpT3qjek9W6S0Pf1H\r\nHT6ylOE9uL6EPtPSlj5B4pA+9uOkPxSZmD9TcwQ/dm6LPuUlVD/auns/dOUdQH8joD+UXXI/SV1W\r\nP7rKqT8LTr5ADQKgP/rQAEHXkrNAAlmIP+7orT9GxwxAuBfvP6Ii4T9d9kBA/h7OQOvnR0AR4htA\r\n/DLkQFgCZj/JdDg/BvT4P5Xd1j+rITY/dyDGQLqEAkHD+uU/7GUFQGTfHUD1z7A/NmfxPzJjtEBm\r\nC7pAVuXEQFChiUC9448/eXzePuihDD+YSqA/CXhNQAKvYD8JRv4/9llFQZqQBEDlFn5AJe4vQChZ\r\n7z+w6lg/G0ZrP6oJNEByfqc/xgkiPyAOjUDcPQRBvtW4P2obEEEKrq5BOOkpQCJlYkH+2kpAITqd\r\nQG3Eqj+ks84+aMBxP/SIZT4zn1g+RQcjPlxbUT6AeBM9WFqpPf0vqT7AqzY/Dm8SPoR0IT75lHA+\r\nf00FPo+r2z7MYaU/2bipP8FC3D/8DiE/WKU3Pu4R+z143g09TFE4Piombj/5pMs/tBg3P3l+UD+Y\r\n4i1AQBNXPwDgkT+JqP8/gUatP/FR6T9ISuo+J7r8Pieg4j+XH1Q/kGBdP9dMVD8Qk4FAqSIyQPBb\r\nVUCWvZ4/G/XXQAhaij7KgSA+9aPqPqRETj607Pw92OL2POd/6T1lGpk+aY9CPlMmmz7CWps9UR1/\r\nPXo6Mj46Rvg+LvH8PWKROz4qO1k9AAfFPEtpNT34BSw++eKEPeUtlj1zQG8+S04LPYUgDT4Rqas9\r\nLP5xPA890T1CW6A9R3tEPrTrUT4lgAA+HDRJPoIf7j3wuDU96jxgO//cAT1SQKM8dMCoPOcTcjx2\r\n5H87NL4OPM7iLDwU1aQ7M6TLO6ycCTyzQgE7V1KjO/B/5DtF9KA75EHLO4SDgTtYc5Q78JSCO2Bj\r\nkzvqSrY7L8mDO/I9djsaP287Ah9WO77qVjuAFnk78JlcOy96FTt7kQA7BtpQOwxDMTuHOi87n6/R\r\nOhr4JjsKZS475DbkOsT0ITu6mgc7nEwOOx/+2DpkVU47TKxFOxzJADtGFhs7e48LOymT7DrgU9g6\r\nQBfcOi3V8DqdiAQ7pmL/OhfP2Dqv+tY6iNvNOs6fyzoZsNU6xDHOOljnzTqaatA6HkDDOgpYxDoe\r\nOL063Li7OnpurDrh3K46VHCuOn6ArzoqArA62cSxOvsrrjoezas6nd6lOjLTqTouSJI6oMSCOufP\r\nrzrmPso6tnOWOsQ+dzo/aZc6CMmrOuAGpDrZxpw6kaOXOt+SlzoD25Q6a6eSOn4Efjp+OXE6p66E\r\nOrq1hjoOcIo6S1yNOi7EgTp67IU6TVh9OqrugTp2XYM6Ll1sOu76fDoUUno6ZNJyOgGibjpW/XY6\r\nqNtsOqrXbDpcRHk61gxuOj4Yajps0GQ62mdgOrRBXzoWBF066B9jOtirUjr/7l06cog9OiWnNzox\r\nDzo6wnBtOqQVbjqXwhw6DjI9Ol3GPDpUjII6WjEtOlathTrswWk6DJxsOkCpaTrIf1Q62IVQOu0I\r\nRzpoukU6b/g9OrSdRjp0PD46ij9gOlrMJjpuKCw6Hec1OmpjQjqAbUQ67ncnOrCRKTrrTYc6pLsZ\r\nOgpVBjqLuXM6fL8xOo6VQjqZxuw5IgJCOkxZSzpqJEc6Gnw3OvD7ITrauxw6CGweOiBMGjpDfy86\r\nhz8FOuQkFDoBXBs6kpgTOivWLjoBvSs6bsIZOlWMITriJRg6bwkkOjhiFDovTBY6KJoXOvQHIDpE\r\ngxU6MMEBOhi+FjpX6Qg645EkOk4dITqdZxk6k1T/OSDiETpX2R86RhYJOioCBTql2BU6Xg0OOnqh\r\nBjo49Qk66HEOOnZwCDoQnQc6hF4IOm4hBjoPEf055tkGOjGt/zkqmPs5wV4IOld+BDqQvP45+BoF\r\nOozIBTrau/o5UJT5OSRA+DmKhvo5aBj5OURX9jnkbAE64Jf0OfiL+TkBufg5SlzyOULm9Dk0pfY5\r\n3n30OXRM8Tm6S/A5Qi7sOdw/9zk9ze85ILHvOeFk5DlCMOo5hO3jOXLY5DmQb+E5ty/iORpi5Dm2\r\nkeY5tnTgOViM9DldS+E5c3zjOWv41DmwPd05r4/cORbI3jksaeE5RoDfOTjL3jmlqtc5a1TSOcuh\r\nzjn7KdM5UnXfOYQg0TkApts5D+DNOQyCzTnbN8w5MZnVOc++0zm0mMg5Y5fGOZrRyTlMF8o5mXDS\r\nOepS0DllEcw51nvMOQMr0TnxmMk5RpfQOdoZzDlwmM85g1fKOctDvjl4bb45fyW+OQSfvTlku8g5\r\nymy8OTB1uDkIxLs5A4yxOX9YuDl767k5xb28OZEyvTmdVa850QOzOSYIyTmPN7s5HNy3OcZHrTn6\r\nlLo5qBqyOYE6tjlAcrA50Pu5OUzCujmhprQ5MkizORlPsTm1Jqw5L8KwObxBtTkltKc5lGmuOR/v\r\nqzlhKLE5eHitOZ6nqjkt0Kw5+ka0OV4dqzn2HrQ5RQ6sOVObrzkHc6s5ZGqtOfiNoDk+hrM5lUyt\r\nOXd3rzk8pq8552imOVRDqDnJa6U55eysOXLyoDkSS6w5y0KpOacloDkC4KQ54JWaOaBBpDnImp85\r\npj2mOXJvnzlsfqE5CESdOfWxpzmcA585DP2qOX/3njmoC545fB+cOUz9njmCmZo5US+cOQjilzlW\r\nYaY5x3ijOdMZoTl6dpo5MCaSOf/Iojmim5c5Z7SXOXuulzl2+5o5tliSOar6ljlpd5s5WkyZOTZa\r\nmzmAgJg5G8iNOezwmzkerZQ56o6NOQHGlzn92Zk5nFKbOQYPmDkFAZE50euQOTpSiDm7N505txSR\r\nOVSihzk3JJI5SVqSOT/mljn4h485gWCYOXcXlDniyYs5hKKKOQpEjTlXnJE5m7KQOXhRjDkb0I45\r\nnBWOOXHRjTkcv4s5mE2VOWgHiTlwVY458BePObnVjjmoW4M5QmaNOXRNijl8x4s5vN6HOXKRiTl4\r\nook53nGBOerMkznC4oQ5PO+LOT6YgTleA4U5bkKBOZKXjjl8sIE5hcaIORa3iDlOhpE5xIeFOXLa\r\nhTktI4U5v3WJOVwUgzl7b4I5gWiGORUGfTlqaYQ5dQ6AOUL9dzlL9X85YSmBOboPfzlg+4U5D4eB\r\nOdh1gjl+VoA5dXmAOSxFhzmSjYI5ONV2Od5IdTnel4E52K54OVR4gzneRH858gSGOc7kejm/dHo5\r\nrYSEOcQffjkycX85R1SAORZHgzl8+Xs5wVN7OZU2gDlyFIA5E2h/Od8ffjnWvm45bQCIOSkPgTl8\r\nFm85w3ptOXAJejlvXW85phR/OfflZjmeUHY5rkRjOYvwgDkiRnk5Ei52OSecczmXem05kzxtOXen\r\neDlxdG457mF6Ofo+aznuj3M590N2OYLWeTnYYF85IYN8OX3wbzlc6mc5RdRrOZk2ZDltu3c56AFj\r\nObL6aTlZA2E53BtwOes2YTld/Go5Y9NsOfQ1YTmli3I51f5iOX6ycjm87m05yydjOX93ZjkO8GY5\r\nx1xuOUhNbDlhumU5vPCCOeB+bDlc4W05RIFoOTguYjlM+HQ547BkORpHdTnqfm45enJrOV63dDl/\r\nnGo5+jRkORi0cTnuE245nThlOTMWbTnpFmE5XqZnOXUAZDn6M1w5P7xgOelgYTl6vmM5XqpWOaBd\r\nYDk1eWM5YBloOWtYYzkbT1s5CTFmOX3sVzkH6ls5wy1vOdhNWTl+j2Y5XXVkOTkpWDmsZGo5y51b\r\nObmRbzlFCFg5ZTZeOS/GVTkj3mA5oatWOYehVjmAd2c5pJ1POVMpVTmKF2c5dhRdORuvWzlUflk5\r\nAlFNOXShVDn3nFY5y990Oeh7YjkNz2Q5BhdYOf62SzngIWc5Yk9QOY91XDmrl145HU1WOezITTli\r\nTWc5EYNTOcGcbDlMHVw51vhhOTb3TTnwCGs5igFdOZL/WTkm7GQ5vztSOXRTUjlxLWQ5+pZROYVI\r\nZjl+5VM5lQxROUs1VznOjmI5TC9gOZWrWzlIE085d+9YOeTSWzlPJ185p0FMOR48Sjn9dVk52dJj\r\nOdqVVDkkmlg5lxdWOfgzTjm7e1M50OxbOZkcUjmye1s5ZohgOaINWDm3ZlY5X7ZfOfy4UznG71Y5\r\n7h9iOXT9TjkWRFY5b3hbOUgmUznuBmM5Yg5TOZ5pXDl3DFc5zeZROcqfWjlvVFE5Bg5fOelfWDks\r\nMl05ZgVqOS0SXTnHKFQ5qEhLOU9LUDlaeFk5NIpqOZSEWjmVwVU5mrhZOZRCUDnE8FA5zy9YOW6a\r\nVDndjEQ5iN5aOYvPVjmNa1M5PQlbOaUsYTk8yk05UXBLOWceXDmgj1k5eUVTOQaYRDlUTGg5VOxe\r\nOQufVzm9p0859PxUOa9UQzlhsVk5XH1dOdMzXznKKVs5skNVOV+SSDn8PFk5ABFUOQ==",
                            "noiseTrainingType" : "default"
                          }
                        }
                    ],
                    "start" : 2501,
                    "duration" : 181,
                    "mediaStart" : 8625,
                    "mediaDuration" : 181,
                    "scalar" : 1,
                    "metadata" : {
                      "WinSubProjectDisplayName" : "",
                      "clipSpeedAttribute" : false
                    },
                    "animationTracks" : {

                    }
                  },
                  {
                    "id" : 80,
                    "_type" : "AMFile",
                    "src" : 1,
                    "trackNumber" : 1,
                    "attributes" : {
                      "ident" : "tower-columns-01",
                      "sampleRate" : 44100,
                      "bitDepth" : 16,
                      "gain" : 1.0,
                      "mixToMono" : false
                    },
                      "channelNumber" : "0,1",
                    "effects" : [
                        {
                          "effectName" : "NoiseReduction",
                          "category" : "categoryAudioEffects",
                          "parameters" : {
                            "denoiserAmount" : 20.0,
                            "denoiserThreshold" : 0.0,
                            "noiseProfile" : "EMxRPtIrnUDesoA+IOwHP+YO4D9WV91AOxaTQBwHK0BhVvQ/HktXPycvMj9PZz8/4ihoP54wfT9G\r\nUcQ+rrIOPk5lQT6NLQ0+zlWIPk6IhT477Ts+2O8GP1Tooz9uV44/4pD8P0MGJD9+F8A+bT6xP0eA\r\nmD9sM4dAyKR4QerrMkG4jk1BXsIgQsCZXEHbUqRBqOCNQYt8hECOLVVAqh8AQCjj3D+3jqs/d0DN\r\nP64eqT/GBoZAdSoMQATZyj8y5oo/rKNWQNP/oUCWmodAPBOoP47Jqz9PsBo/klUSP+wyYj5Z7aA+\r\naOqoP8J3kj4Uhwo/IoigPqqr5j8IO6k/+vwLP1caPEDBpjA/dzamP1Lxa0GOidg/zXuwP+WsBT8s\r\nQGg/uCNSPw/bAkCbD4E/HgqrP2Dnzj6ZK8s/tvYFP06V+D4+bhA+W9/lPdxZoT45yc497kYNPpaP\r\niT5VnHE+zUe6PqhLuT7afSU/tR8SPk43jT6cEnA+ED+FPhb0Kj+zw4U+9UKEPQYMaj1CuhU+38pX\r\nPRZWij01lI09j17oPlIkTT7EXVY9R0apPThL0D59BSA+ojg/PtEfWT2OOTI/5t9pPn9ELD9merg9\r\nYlxqPhnIjT3w1jQ+llX8PZQvgj+C/sM/fZWhP9BAC0AdtBBAKBybPuA2mj/SDxc/2+UmPgCiAj6a\r\n3VE/ZFaoPviGvz6j1L8+C3RYPhnZDD4E95w9/G13PVYBND5s4YY9u3txPqZIKj6d3DM+awgAPiT7\r\nPz57AZo+ftD2PZX8lz7lD3w+QvfBPnMC2j/Hess+i8SbPXtEPT7pBLs9WPmIPU7QQD7aYCE+CFDq\r\nPxEwjkCiX2lAxOiXP9AQgj8bPFg/PeEhPmLS7z1Fs7Q++5kMP0zuIz8Uyy0/Y5PoPoo6aj5Bnjc/\r\nNes9P+STKT9JktQ/WK4AQFpiCD/AIEg/Tr8yQIOoaj70wPQ8ENFyPQjLEj2nVkw+r0gEPuNyoz1s\r\nZ3c9BfSlPRsZ0T3ATgE/FqLnPszXPD+1NeQ+HmWTPzVWED516V0+LHr+PWyLeT04C6U96o3pPVuk\r\ntD39Rx0+spThPbi+hD7T0pY+QeKQPvbjpD8UmZg/U3MEP3Zuiz7lJVQ/2rp7P3TlHUB/I6A/lF1y\r\nP0ldVj+6yqk/C06+QA0CoD/60ABB15KzQAJZiD/u6K0/RscMQLgX7z+iIuE/XfZAQP4ezkDr50dA\r\nEeIbQPwy5EBYAmY/yXQ4Pwb0+D+V3dY/qyE2P3cgxkC6hAJBw/rlP+xlBUBk3x1A9c+wPzZn8T8y\r\nY7RAZgu6QFblxEBQoYlAveOPP3l83j7ooQw/mEqgPwl4TUACr2A/CUb+P/ZZRUGakARA5RZ+QCXu\r\nL0AoWe8/sOpYPxtGaz+qCTRAcn6nP8YJIj8gDo1A3D0EQb7VuD9qGxBBCq6uQTjpKUAiZWJB/tpK\r\nQCE6nUBtxKo/pLPOPmjAcT/0iGU+M59YPkUHIz5cW1E+gHgTPVhaqT39L6k+wKs2Pw5vEj6EdCE+\r\n+ZRwPn9NBT6Pq9s+zGGlP9m4qT/BQtw//A4hP1ilNz7uEfs9eN4NPUxROD4qJm4/+aTLP7QYNz95\r\nflA/mOItQEATVz8A4JE/iaj/P4FGrT/xUek/SErqPie6/D4noOI/lx9UP5BgXT/XTFQ/EJOBQKki\r\nMkDwW1VAlr2ePxv110AIWoo+yoEgPvWj6j6kRE4+tOz8Pdji9jznf+k9ZRqZPmmPQj5TJps+wlqb\r\nPVEdfz16OjI+Okb4Pi7x/D1ikTs+KjtZPQAHxTxLaTU9+AUsPvnihD3lLZY9c0BvPktOCz2FIA0+\r\nEamrPSz+cTwPPdE9QlugPUd7RD6061E+JYAAPhw0ST6CH+498Lg1Peo8YDv/3AE9UkCjPHTAqDzn\r\nE3I8duR/OzS+DjzO4iw8FNWkOzOkyzusnAk8s0IBO1dSozvwf+Q7RfSgO+RByzuEg4E7WHOUO/CU\r\ngjtgY5M76kq2Oy/JgzvyPXY7Gj9vOwIfVju+6lY7gBZ5O/CZXDsvehU7e5EAOwbaUDsMQzE7hzov\r\nO5+v0Toa+CY7CmUuO+Q25DrE9CE7upoHO5xMDjsf/tg6ZFVOO0ysRTscyQA7RhYbO3uPCzspk+w6\r\n4FPYOkAX3Dot1fA6nYgEO6Zi/zoXz9g6r/rWOojbzTrOn8s6GbDVOsQxzjpY5806mmrQOh5AwzoK\r\nWMQ6Hji9Oty4uzp6bqw64dyuOlRwrjp+gK86KgKwOtnEsTr7K646Hs2rOp3epToy06k6LkiSOqDE\r\ngjrnz6865j7KOrZzljrEPnc6P2mXOgjJqzrgBqQ62cacOpGjlzrfkpc6A9uUOmunkjp+BH46fjlx\r\nOqeuhDq6tYY6DnCKOktcjTouxIE6euyFOk1YfTqq7oE6dl2DOi5dbDru+nw6FFJ6OmTScjoBom46\r\nVv12OqjbbDqq12w6XER5OtYMbjo+GGo6bNBkOtpnYDq0QV86FgRdOugfYzrYq1I6/+5dOnKIPTol\r\npzc6MQ86OsJwbTqkFW46l8IcOg4yPTpdxjw6VIyCOloxLTpWrYU67MFpOgycbDpAqWk6yH9UOtiF\r\nUDrtCEc6aLpFOm/4PTq0nUY6dDw+Ooo/YDpazCY6bigsOh3nNTpqY0I6gG1EOu53JzqwkSk6602H\r\nOqS7GToKVQY6i7lzOny/MTqOlUI6mcbsOSICQjpMWUs6aiRHOhp8Nzrw+yE62rscOghsHjogTBo6\r\nQ38vOoc/BTrkJBQ6AVwbOpKYEzor1i46Ab0rOm7CGTpVjCE64iUYOm8JJDo4YhQ6L0wWOiiaFzr0\r\nByA6RIMVOjDBAToYvhY6V+kIOuORJDpOHSE6nWcZOpNU/zkg4hE6V9kfOkYWCToqAgU6pdgVOl4N\r\nDjp6oQY6OPUJOuhxDjp2cAg6EJ0HOoReCDpuIQY6DxH9OebZBjoxrf85Kpj7OcFeCDpXfgQ6kLz+\r\nOfgaBTqMyAU62rv6OVCU+TkkQPg5iob6OWgY+TlEV/Y55GwBOuCX9Dn4i/k5Abn4OUpc8jlC5vQ5\r\nNKX2Od599Dl0TPE5ukvwOUIu7DncP/c5Pc3vOSCx7znhZOQ5QjDqOYTt4zly2OQ5kG/hObcv4jka\r\nYuQ5tpHmObZ04DlYjPQ5XUvhOXN84zlr+NQ5sD3dOa+P3DkWyN45LGnhOUaA3zk4y945parXOWtU\r\n0jnLoc45+ynTOVJ13zmEINE5AKbbOQ/gzTkMgs052zfMOTGZ1TnPvtM5tJjIOWOXxjma0ck5TBfK\r\nOZlw0jnqUtA5ZRHMOdZ7zDkDK9E58ZjJOUaX0DnaGcw5cJjPOYNXyjnLQ745eG2+OX8lvjkEn705\r\nZLvIOcpsvDkwdbg5CMS7OQOMsTl/WLg5e+u5OcW9vDmRMr05nVWvOdEDszkmCMk5jze7ORzctznG\r\nR605+pS6OagasjmBOrY5QHKwOdD7uTlMwro5oaa0OTJIszkZT7E5tSasOS/CsDm8QbU5JbSnOZRp\r\nrjkf76s5YSixOXh4rTmep6o5LdCsOfpGtDleHas59h60OUUOrDlTm685B3OrOWRqrTn4jaA5Poaz\r\nOZVMrTl3d685PKavOedopjlUQ6g5yWulOeXsrDly8qA5EkusOctCqTmnJaA5AuCkOeCVmjmgQaQ5\r\nyJqfOaY9pjlyb585bH6hOQhEnTn1sac5nAOfOQz9qjl/9545qAueOXwfnDlM/Z45gpmaOVEvnDkI\r\n4pc5VmGmOcd4oznTGaE5enaaOTAmkjn/yKI5opuXOWe0lzl7rpc5dvuaObZYkjmq+pY5aXebOVpM\r\nmTk2Wps5gICYORvIjTns8Js5Hq2UOeqOjTkBxpc5/dmZOZxSmzkGD5g5BQGROdHrkDk6Uog5uzed\r\nObcUkTlUooc5NySSOUlakjk/5pY5+IePOYFgmDl3F5Q54smLOYSiijkKRI05V5yROZuykDl4UYw5\r\nG9COOZwVjjlx0Y05HL+LOZhNlTloB4k5cFWOOfAXjzm51Y45qFuDOUJmjTl0TYo5fMeLObzehzly\r\nkYk5eKKJOd5xgTnqzJM5wuKEOTzvizk+mIE5XgOFOW5CgTmSl445fLCBOYXGiDkWt4g5ToaROcSH\r\nhTly2oU5LSOFOb91iTlcFIM5e2+COYFohjkVBn05ammEOXUOgDlC/Xc5S/V/OWEpgTm6D385YPuF\r\nOQ+HgTnYdYI5flaAOXV5gDksRYc5ko2COTjVdjneSHU53peBOdiueDlUeIM53kR/OfIEhjnO5Ho5\r\nv3R6Oa2EhDnEH345MnF/OUdUgDkWR4M5fPl7OcFTezmVNoA5chSAORNofznfH3451r5uOW0AiDkp\r\nD4E5fBZvOcN6bTlwCXo5b11vOaYUfzn35WY5nlB2Oa5EYzmL8IA5IkZ5ORIudjknnHM5l3ptOZM8\r\nbTl3p3g5cXRuOe5hejn6Pms57o9zOfdDdjmC1nk52GBfOSGDfDl98G85XOpnOUXUazmZNmQ5bbt3\r\nOegBYzmy+mk5WQNhOdwbcDnrNmE5XfxqOWPTbDn0NWE5pYtyOdX+Yjl+snI5vO5tOcsnYzl/d2Y5\r\nDvBmOcdcbjlITWw5YbplObzwgjngfmw5XOFtOUSBaDk4LmI5TPh0OeOwZDkaR3U56n5uOXpyazle\r\nt3Q5f5xqOfo0ZDkYtHE57hNuOZ04ZTkzFm056RZhOV6mZzl1AGQ5+jNcOT+8YDnpYGE5er5jOV6q\r\nVjmgXWA5NXljOWAZaDlrWGM5G09bOQkxZjl97Fc5B+pbOcMtbznYTVk5fo9mOV11ZDk5KVg5rGRq\r\nOcudWzm5kW85RQhYOWU2XjkvxlU5I95gOaGrVjmHoVY5gHdnOaSdTzlTKVU5ihdnOXYUXTkbr1s5\r\nVH5ZOQJRTTl0oVQ595xWOcvfdDnoe2I5Dc9kOQYXWDn+tks54CFnOWJPUDmPdVw5q5deOR1NVjns\r\nyE05Yk1nORGDUznBnGw5TB1cOdb4YTk290058AhrOYoBXTmS/1k5JuxkOb87Ujl0U1I5cS1kOfqW\r\nUTmFSGY5fuVTOZUMUTlLNVc5zo5iOUwvYDmVq1s5SBNPOXfvWDnk0ls5TydfOadBTDkePEo5/XVZ\r\nOdnSYznalVQ5JJpYOZcXVjn4M045u3tTOdDsWzmZHFI5sntbOWaIYDmiDVg5t2ZWOV+2Xzn8uFM5\r\nxu9WOe4fYjl0/U45FkRWOW94WzlIJlM57gZjOWIOUzmeaVw5dwxXOc3mUTnKn1o5b1RROQYOXznp\r\nX1g5LDJdOWYFajktEl05xyhUOahISzlPS1A5WnhZOTSKajmUhFo5lcFVOZq4WTmUQlA5xPBQOc8v\r\nWDlumlQ53YxEOYjeWjmLz1Y5jWtTOT0JWzmlLGE5PMpNOVFwSzlnHlw5oI9ZOXlFUzkGmEQ5VExo\r\nOVTsXjkLn1c5vadPOfT8VDmvVEM5YbFZOVx9XTnTM185yilbObJDVTlfkkg5/DxZOQARVDkQzFE+\r\n0iudQN6ygD4g7Ac/5g7gP1ZX3UA7FpNAHAcrQGFW9D8eS1c/Jy8yP09nPz/iKGg/njB9P0ZRxD6u\r\nsg4+TmVBPo0tDT7OVYg+ToiFPjvtOz7Y7wY/VOijP25Xjj/ikPw/QwYkP34XwD5tPrE/R4CYP2wz\r\nh0DIpHhB6usyQbiOTUFewiBCwJlcQdtSpEGo4I1Bi3yEQI4tVUCqHwBAKOPcP7eOqz93QM0/rh6p\r\nP8YGhkB1KgxABNnKPzLmij+so1ZA0/+hQJaah0A8E6g/jsmrP0+wGj+SVRI/7DJiPlntoD5o6qg/\r\nwneSPhSHCj8iiKA+qqvmPwg7qT/6/As/Vxo8QMGmMD93NqY/UvFrQY6J2D/Ne7A/5awFPyxAaD+4\r\nI1I/D9sCQJsPgT8eCqs/YOfOPpkryz+29gU/TpX4Pj5uED5b3+U93FmhPjnJzj3uRg0+lo+JPlWc\r\ncT7NR7o+qEu5Ptp9JT+1HxI+TjeNPpwScD4QP4U+FvQqP7PDhT71QoQ9BgxqPUK6FT7fylc9FlaK\r\nPTWUjT2PXug+UiRNPsRdVj1HRqk9OEvQPn0FID6iOD8+0R9ZPY45Mj/m32k+f0QsP2Z6uD1iXGo+\r\nGciNPfDWND6WVfw9lC+CP4L+wz99laE/0EALQB20EEAoHJs+4DaaP9IPFz/b5SY+AKICPprdUT9k\r\nVqg++Ia/PqPUvz4LdFg+GdkMPgT3nD38bXc9VgE0Pmzhhj27e3E+pkgqPp3cMz5rCAA+JPs/PnsB\r\nmj5+0PY9lfyXPuUPfD5C98E+cwLaP8d6yz6LxJs9e0Q9PukEuz1Y+Yg9TtBAPtpgIT4IUOo/ETCO\r\nQKJfaUDE6Jc/0BCCPxs8WD894SE+YtLvPUWztD77mQw/TO4jPxTLLT9jk+g+ijpqPkGeNz816z0/\r\n5JMpP0mS1D9YrgBAWmIIP8AgSD9OvzJAg6hqPvTA9DwQ0XI9CMsSPadWTD6vSAQ+43KjPWxndz0F\r\n9KU9GxnRPcBOAT8Wouc+zNc8P7U15D4eZZM/NVYQPnXpXT4sev49bIt5PTgLpT3qjek9W6S0Pf1H\r\nHT6ylOE9uL6EPtPSlj5B4pA+9uOkPxSZmD9TcwQ/dm6LPuUlVD/auns/dOUdQH8joD+UXXI/SV1W\r\nP7rKqT8LTr5ADQKgP/rQAEHXkrNAAlmIP+7orT9GxwxAuBfvP6Ii4T9d9kBA/h7OQOvnR0AR4htA\r\n/DLkQFgCZj/JdDg/BvT4P5Xd1j+rITY/dyDGQLqEAkHD+uU/7GUFQGTfHUD1z7A/NmfxPzJjtEBm\r\nC7pAVuXEQFChiUC9448/eXzePuihDD+YSqA/CXhNQAKvYD8JRv4/9llFQZqQBEDlFn5AJe4vQChZ\r\n7z+w6lg/G0ZrP6oJNEByfqc/xgkiPyAOjUDcPQRBvtW4P2obEEEKrq5BOOkpQCJlYkH+2kpAITqd\r\nQG3Eqj+ks84+aMBxP/SIZT4zn1g+RQcjPlxbUT6AeBM9WFqpPf0vqT7AqzY/Dm8SPoR0IT75lHA+\r\nf00FPo+r2z7MYaU/2bipP8FC3D/8DiE/WKU3Pu4R+z143g09TFE4Piombj/5pMs/tBg3P3l+UD+Y\r\n4i1AQBNXPwDgkT+JqP8/gUatP/FR6T9ISuo+J7r8Pieg4j+XH1Q/kGBdP9dMVD8Qk4FAqSIyQPBb\r\nVUCWvZ4/G/XXQAhaij7KgSA+9aPqPqRETj607Pw92OL2POd/6T1lGpk+aY9CPlMmmz7CWps9UR1/\r\nPXo6Mj46Rvg+LvH8PWKROz4qO1k9AAfFPEtpNT34BSw++eKEPeUtlj1zQG8+S04LPYUgDT4Rqas9\r\nLP5xPA890T1CW6A9R3tEPrTrUT4lgAA+HDRJPoIf7j3wuDU96jxgO//cAT1SQKM8dMCoPOcTcjx2\r\n5H87NL4OPM7iLDwU1aQ7M6TLO6ycCTyzQgE7V1KjO/B/5DtF9KA75EHLO4SDgTtYc5Q78JSCO2Bj\r\nkzvqSrY7L8mDO/I9djsaP287Ah9WO77qVjuAFnk78JlcOy96FTt7kQA7BtpQOwxDMTuHOi87n6/R\r\nOhr4JjsKZS475DbkOsT0ITu6mgc7nEwOOx/+2DpkVU47TKxFOxzJADtGFhs7e48LOymT7DrgU9g6\r\nQBfcOi3V8DqdiAQ7pmL/OhfP2Dqv+tY6iNvNOs6fyzoZsNU6xDHOOljnzTqaatA6HkDDOgpYxDoe\r\nOL063Li7OnpurDrh3K46VHCuOn6ArzoqArA62cSxOvsrrjoezas6nd6lOjLTqTouSJI6oMSCOufP\r\nrzrmPso6tnOWOsQ+dzo/aZc6CMmrOuAGpDrZxpw6kaOXOt+SlzoD25Q6a6eSOn4Efjp+OXE6p66E\r\nOrq1hjoOcIo6S1yNOi7EgTp67IU6TVh9OqrugTp2XYM6Ll1sOu76fDoUUno6ZNJyOgGibjpW/XY6\r\nqNtsOqrXbDpcRHk61gxuOj4Yajps0GQ62mdgOrRBXzoWBF066B9jOtirUjr/7l06cog9OiWnNzox\r\nDzo6wnBtOqQVbjqXwhw6DjI9Ol3GPDpUjII6WjEtOlathTrswWk6DJxsOkCpaTrIf1Q62IVQOu0I\r\nRzpoukU6b/g9OrSdRjp0PD46ij9gOlrMJjpuKCw6Hec1OmpjQjqAbUQ67ncnOrCRKTrrTYc6pLsZ\r\nOgpVBjqLuXM6fL8xOo6VQjqZxuw5IgJCOkxZSzpqJEc6Gnw3OvD7ITrauxw6CGweOiBMGjpDfy86\r\nhz8FOuQkFDoBXBs6kpgTOivWLjoBvSs6bsIZOlWMITriJRg6bwkkOjhiFDovTBY6KJoXOvQHIDpE\r\ngxU6MMEBOhi+FjpX6Qg645EkOk4dITqdZxk6k1T/OSDiETpX2R86RhYJOioCBTql2BU6Xg0OOnqh\r\nBjo49Qk66HEOOnZwCDoQnQc6hF4IOm4hBjoPEf055tkGOjGt/zkqmPs5wV4IOld+BDqQvP45+BoF\r\nOozIBTrau/o5UJT5OSRA+DmKhvo5aBj5OURX9jnkbAE64Jf0OfiL+TkBufg5SlzyOULm9Dk0pfY5\r\n3n30OXRM8Tm6S/A5Qi7sOdw/9zk9ze85ILHvOeFk5DlCMOo5hO3jOXLY5DmQb+E5ty/iORpi5Dm2\r\nkeY5tnTgOViM9DldS+E5c3zjOWv41DmwPd05r4/cORbI3jksaeE5RoDfOTjL3jmlqtc5a1TSOcuh\r\nzjn7KdM5UnXfOYQg0TkApts5D+DNOQyCzTnbN8w5MZnVOc++0zm0mMg5Y5fGOZrRyTlMF8o5mXDS\r\nOepS0DllEcw51nvMOQMr0TnxmMk5RpfQOdoZzDlwmM85g1fKOctDvjl4bb45fyW+OQSfvTlku8g5\r\nymy8OTB1uDkIxLs5A4yxOX9YuDl767k5xb28OZEyvTmdVa850QOzOSYIyTmPN7s5HNy3OcZHrTn6\r\nlLo5qBqyOYE6tjlAcrA50Pu5OUzCujmhprQ5MkizORlPsTm1Jqw5L8KwObxBtTkltKc5lGmuOR/v\r\nqzlhKLE5eHitOZ6nqjkt0Kw5+ka0OV4dqzn2HrQ5RQ6sOVObrzkHc6s5ZGqtOfiNoDk+hrM5lUyt\r\nOXd3rzk8pq8552imOVRDqDnJa6U55eysOXLyoDkSS6w5y0KpOacloDkC4KQ54JWaOaBBpDnImp85\r\npj2mOXJvnzlsfqE5CESdOfWxpzmcA585DP2qOX/3njmoC545fB+cOUz9njmCmZo5US+cOQjilzlW\r\nYaY5x3ijOdMZoTl6dpo5MCaSOf/Iojmim5c5Z7SXOXuulzl2+5o5tliSOar6ljlpd5s5WkyZOTZa\r\nmzmAgJg5G8iNOezwmzkerZQ56o6NOQHGlzn92Zk5nFKbOQYPmDkFAZE50euQOTpSiDm7N505txSR\r\nOVSihzk3JJI5SVqSOT/mljn4h485gWCYOXcXlDniyYs5hKKKOQpEjTlXnJE5m7KQOXhRjDkb0I45\r\nnBWOOXHRjTkcv4s5mE2VOWgHiTlwVY458BePObnVjjmoW4M5QmaNOXRNijl8x4s5vN6HOXKRiTl4\r\nook53nGBOerMkznC4oQ5PO+LOT6YgTleA4U5bkKBOZKXjjl8sIE5hcaIORa3iDlOhpE5xIeFOXLa\r\nhTktI4U5v3WJOVwUgzl7b4I5gWiGORUGfTlqaYQ5dQ6AOUL9dzlL9X85YSmBOboPfzlg+4U5D4eB\r\nOdh1gjl+VoA5dXmAOSxFhzmSjYI5ONV2Od5IdTnel4E52K54OVR4gzneRH858gSGOc7kejm/dHo5\r\nrYSEOcQffjkycX85R1SAORZHgzl8+Xs5wVN7OZU2gDlyFIA5E2h/Od8ffjnWvm45bQCIOSkPgTl8\r\nFm85w3ptOXAJejlvXW85phR/OfflZjmeUHY5rkRjOYvwgDkiRnk5Ei52OSecczmXem05kzxtOXen\r\neDlxdG457mF6Ofo+aznuj3M590N2OYLWeTnYYF85IYN8OX3wbzlc6mc5RdRrOZk2ZDltu3c56AFj\r\nObL6aTlZA2E53BtwOes2YTld/Go5Y9NsOfQ1YTmli3I51f5iOX6ycjm87m05yydjOX93ZjkO8GY5\r\nx1xuOUhNbDlhumU5vPCCOeB+bDlc4W05RIFoOTguYjlM+HQ547BkORpHdTnqfm45enJrOV63dDl/\r\nnGo5+jRkORi0cTnuE245nThlOTMWbTnpFmE5XqZnOXUAZDn6M1w5P7xgOelgYTl6vmM5XqpWOaBd\r\nYDk1eWM5YBloOWtYYzkbT1s5CTFmOX3sVzkH6ls5wy1vOdhNWTl+j2Y5XXVkOTkpWDmsZGo5y51b\r\nObmRbzlFCFg5ZTZeOS/GVTkj3mA5oatWOYehVjmAd2c5pJ1POVMpVTmKF2c5dhRdORuvWzlUflk5\r\nAlFNOXShVDn3nFY5y990Oeh7YjkNz2Q5BhdYOf62SzngIWc5Yk9QOY91XDmrl145HU1WOezITTli\r\nTWc5EYNTOcGcbDlMHVw51vhhOTb3TTnwCGs5igFdOZL/WTkm7GQ5vztSOXRTUjlxLWQ5+pZROYVI\r\nZjl+5VM5lQxROUs1VznOjmI5TC9gOZWrWzlIE085d+9YOeTSWzlPJ185p0FMOR48Sjn9dVk52dJj\r\nOdqVVDkkmlg5lxdWOfgzTjm7e1M50OxbOZkcUjmye1s5ZohgOaINWDm3ZlY5X7ZfOfy4UznG71Y5\r\n7h9iOXT9TjkWRFY5b3hbOUgmUznuBmM5Yg5TOZ5pXDl3DFc5zeZROcqfWjlvVFE5Bg5fOelfWDks\r\nMl05ZgVqOS0SXTnHKFQ5qEhLOU9LUDlaeFk5NIpqOZSEWjmVwVU5mrhZOZRCUDnE8FA5zy9YOW6a\r\nVDndjEQ5iN5aOYvPVjmNa1M5PQlbOaUsYTk8yk05UXBLOWceXDmgj1k5eUVTOQaYRDlUTGg5VOxe\r\nOQufVzm9p0859PxUOa9UQzlhsVk5XH1dOdMzXznKKVs5skNVOV+SSDn8PFk5ABFUOQ==",
                            "noiseTrainingType" : "default"
                          }
                        }
                    ],
                    "start" : 2682,
                    "duration" : 96,
                    "mediaStart" : 8878,
                    "mediaDuration" : 96,
                    "scalar" : 1,
                    "metadata" : {
                      "WinSubProjectDisplayName" : "",
                      "clipSpeedAttribute" : false
                    },
                    "animationTracks" : {

                    }
                  },
                  {
                    "id" : 81,
                    "_type" : "AMFile",
                    "src" : 1,
                    "trackNumber" : 1,
                    "attributes" : {
                      "ident" : "tower-columns-01",
                      "sampleRate" : 44100,
                      "bitDepth" : 16,
                      "gain" : 1.0,
                      "mixToMono" : false
                    },
                      "channelNumber" : "0,1",
                    "effects" : [
                        {
                          "effectName" : "NoiseReduction",
                          "category" : "categoryAudioEffects",
                          "parameters" : {
                            "denoiserAmount" : 20.0,
                            "denoiserThreshold" : 0.0,
                            "noiseProfile" : "EMxRPtIrnUDesoA+IOwHP+YO4D9WV91AOxaTQBwHK0BhVvQ/HktXPycvMj9PZz8/4ihoP54wfT9G\r\nUcQ+rrIOPk5lQT6NLQ0+zlWIPk6IhT477Ts+2O8GP1Tooz9uV44/4pD8P0MGJD9+F8A+bT6xP0eA\r\nmD9sM4dAyKR4QerrMkG4jk1BXsIgQsCZXEHbUqRBqOCNQYt8hECOLVVAqh8AQCjj3D+3jqs/d0DN\r\nP64eqT/GBoZAdSoMQATZyj8y5oo/rKNWQNP/oUCWmodAPBOoP47Jqz9PsBo/klUSP+wyYj5Z7aA+\r\naOqoP8J3kj4Uhwo/IoigPqqr5j8IO6k/+vwLP1caPEDBpjA/dzamP1Lxa0GOidg/zXuwP+WsBT8s\r\nQGg/uCNSPw/bAkCbD4E/HgqrP2Dnzj6ZK8s/tvYFP06V+D4+bhA+W9/lPdxZoT45yc497kYNPpaP\r\niT5VnHE+zUe6PqhLuT7afSU/tR8SPk43jT6cEnA+ED+FPhb0Kj+zw4U+9UKEPQYMaj1CuhU+38pX\r\nPRZWij01lI09j17oPlIkTT7EXVY9R0apPThL0D59BSA+ojg/PtEfWT2OOTI/5t9pPn9ELD9merg9\r\nYlxqPhnIjT3w1jQ+llX8PZQvgj+C/sM/fZWhP9BAC0AdtBBAKBybPuA2mj/SDxc/2+UmPgCiAj6a\r\n3VE/ZFaoPviGvz6j1L8+C3RYPhnZDD4E95w9/G13PVYBND5s4YY9u3txPqZIKj6d3DM+awgAPiT7\r\nPz57AZo+ftD2PZX8lz7lD3w+QvfBPnMC2j/Hess+i8SbPXtEPT7pBLs9WPmIPU7QQD7aYCE+CFDq\r\nPxEwjkCiX2lAxOiXP9AQgj8bPFg/PeEhPmLS7z1Fs7Q++5kMP0zuIz8Uyy0/Y5PoPoo6aj5Bnjc/\r\nNes9P+STKT9JktQ/WK4AQFpiCD/AIEg/Tr8yQIOoaj70wPQ8ENFyPQjLEj2nVkw+r0gEPuNyoz1s\r\nZ3c9BfSlPRsZ0T3ATgE/FqLnPszXPD+1NeQ+HmWTPzVWED516V0+LHr+PWyLeT04C6U96o3pPVuk\r\ntD39Rx0+spThPbi+hD7T0pY+QeKQPvbjpD8UmZg/U3MEP3Zuiz7lJVQ/2rp7P3TlHUB/I6A/lF1y\r\nP0ldVj+6yqk/C06+QA0CoD/60ABB15KzQAJZiD/u6K0/RscMQLgX7z+iIuE/XfZAQP4ezkDr50dA\r\nEeIbQPwy5EBYAmY/yXQ4Pwb0+D+V3dY/qyE2P3cgxkC6hAJBw/rlP+xlBUBk3x1A9c+wPzZn8T8y\r\nY7RAZgu6QFblxEBQoYlAveOPP3l83j7ooQw/mEqgPwl4TUACr2A/CUb+P/ZZRUGakARA5RZ+QCXu\r\nL0AoWe8/sOpYPxtGaz+qCTRAcn6nP8YJIj8gDo1A3D0EQb7VuD9qGxBBCq6uQTjpKUAiZWJB/tpK\r\nQCE6nUBtxKo/pLPOPmjAcT/0iGU+M59YPkUHIz5cW1E+gHgTPVhaqT39L6k+wKs2Pw5vEj6EdCE+\r\n+ZRwPn9NBT6Pq9s+zGGlP9m4qT/BQtw//A4hP1ilNz7uEfs9eN4NPUxROD4qJm4/+aTLP7QYNz95\r\nflA/mOItQEATVz8A4JE/iaj/P4FGrT/xUek/SErqPie6/D4noOI/lx9UP5BgXT/XTFQ/EJOBQKki\r\nMkDwW1VAlr2ePxv110AIWoo+yoEgPvWj6j6kRE4+tOz8Pdji9jznf+k9ZRqZPmmPQj5TJps+wlqb\r\nPVEdfz16OjI+Okb4Pi7x/D1ikTs+KjtZPQAHxTxLaTU9+AUsPvnihD3lLZY9c0BvPktOCz2FIA0+\r\nEamrPSz+cTwPPdE9QlugPUd7RD6061E+JYAAPhw0ST6CH+498Lg1Peo8YDv/3AE9UkCjPHTAqDzn\r\nE3I8duR/OzS+DjzO4iw8FNWkOzOkyzusnAk8s0IBO1dSozvwf+Q7RfSgO+RByzuEg4E7WHOUO/CU\r\ngjtgY5M76kq2Oy/JgzvyPXY7Gj9vOwIfVju+6lY7gBZ5O/CZXDsvehU7e5EAOwbaUDsMQzE7hzov\r\nO5+v0Toa+CY7CmUuO+Q25DrE9CE7upoHO5xMDjsf/tg6ZFVOO0ysRTscyQA7RhYbO3uPCzspk+w6\r\n4FPYOkAX3Dot1fA6nYgEO6Zi/zoXz9g6r/rWOojbzTrOn8s6GbDVOsQxzjpY5806mmrQOh5AwzoK\r\nWMQ6Hji9Oty4uzp6bqw64dyuOlRwrjp+gK86KgKwOtnEsTr7K646Hs2rOp3epToy06k6LkiSOqDE\r\ngjrnz6865j7KOrZzljrEPnc6P2mXOgjJqzrgBqQ62cacOpGjlzrfkpc6A9uUOmunkjp+BH46fjlx\r\nOqeuhDq6tYY6DnCKOktcjTouxIE6euyFOk1YfTqq7oE6dl2DOi5dbDru+nw6FFJ6OmTScjoBom46\r\nVv12OqjbbDqq12w6XER5OtYMbjo+GGo6bNBkOtpnYDq0QV86FgRdOugfYzrYq1I6/+5dOnKIPTol\r\npzc6MQ86OsJwbTqkFW46l8IcOg4yPTpdxjw6VIyCOloxLTpWrYU67MFpOgycbDpAqWk6yH9UOtiF\r\nUDrtCEc6aLpFOm/4PTq0nUY6dDw+Ooo/YDpazCY6bigsOh3nNTpqY0I6gG1EOu53JzqwkSk6602H\r\nOqS7GToKVQY6i7lzOny/MTqOlUI6mcbsOSICQjpMWUs6aiRHOhp8Nzrw+yE62rscOghsHjogTBo6\r\nQ38vOoc/BTrkJBQ6AVwbOpKYEzor1i46Ab0rOm7CGTpVjCE64iUYOm8JJDo4YhQ6L0wWOiiaFzr0\r\nByA6RIMVOjDBAToYvhY6V+kIOuORJDpOHSE6nWcZOpNU/zkg4hE6V9kfOkYWCToqAgU6pdgVOl4N\r\nDjp6oQY6OPUJOuhxDjp2cAg6EJ0HOoReCDpuIQY6DxH9OebZBjoxrf85Kpj7OcFeCDpXfgQ6kLz+\r\nOfgaBTqMyAU62rv6OVCU+TkkQPg5iob6OWgY+TlEV/Y55GwBOuCX9Dn4i/k5Abn4OUpc8jlC5vQ5\r\nNKX2Od599Dl0TPE5ukvwOUIu7DncP/c5Pc3vOSCx7znhZOQ5QjDqOYTt4zly2OQ5kG/hObcv4jka\r\nYuQ5tpHmObZ04DlYjPQ5XUvhOXN84zlr+NQ5sD3dOa+P3DkWyN45LGnhOUaA3zk4y945parXOWtU\r\n0jnLoc45+ynTOVJ13zmEINE5AKbbOQ/gzTkMgs052zfMOTGZ1TnPvtM5tJjIOWOXxjma0ck5TBfK\r\nOZlw0jnqUtA5ZRHMOdZ7zDkDK9E58ZjJOUaX0DnaGcw5cJjPOYNXyjnLQ745eG2+OX8lvjkEn705\r\nZLvIOcpsvDkwdbg5CMS7OQOMsTl/WLg5e+u5OcW9vDmRMr05nVWvOdEDszkmCMk5jze7ORzctznG\r\nR605+pS6OagasjmBOrY5QHKwOdD7uTlMwro5oaa0OTJIszkZT7E5tSasOS/CsDm8QbU5JbSnOZRp\r\nrjkf76s5YSixOXh4rTmep6o5LdCsOfpGtDleHas59h60OUUOrDlTm685B3OrOWRqrTn4jaA5Poaz\r\nOZVMrTl3d685PKavOedopjlUQ6g5yWulOeXsrDly8qA5EkusOctCqTmnJaA5AuCkOeCVmjmgQaQ5\r\nyJqfOaY9pjlyb585bH6hOQhEnTn1sac5nAOfOQz9qjl/9545qAueOXwfnDlM/Z45gpmaOVEvnDkI\r\n4pc5VmGmOcd4oznTGaE5enaaOTAmkjn/yKI5opuXOWe0lzl7rpc5dvuaObZYkjmq+pY5aXebOVpM\r\nmTk2Wps5gICYORvIjTns8Js5Hq2UOeqOjTkBxpc5/dmZOZxSmzkGD5g5BQGROdHrkDk6Uog5uzed\r\nObcUkTlUooc5NySSOUlakjk/5pY5+IePOYFgmDl3F5Q54smLOYSiijkKRI05V5yROZuykDl4UYw5\r\nG9COOZwVjjlx0Y05HL+LOZhNlTloB4k5cFWOOfAXjzm51Y45qFuDOUJmjTl0TYo5fMeLObzehzly\r\nkYk5eKKJOd5xgTnqzJM5wuKEOTzvizk+mIE5XgOFOW5CgTmSl445fLCBOYXGiDkWt4g5ToaROcSH\r\nhTly2oU5LSOFOb91iTlcFIM5e2+COYFohjkVBn05ammEOXUOgDlC/Xc5S/V/OWEpgTm6D385YPuF\r\nOQ+HgTnYdYI5flaAOXV5gDksRYc5ko2COTjVdjneSHU53peBOdiueDlUeIM53kR/OfIEhjnO5Ho5\r\nv3R6Oa2EhDnEH345MnF/OUdUgDkWR4M5fPl7OcFTezmVNoA5chSAORNofznfH3451r5uOW0AiDkp\r\nD4E5fBZvOcN6bTlwCXo5b11vOaYUfzn35WY5nlB2Oa5EYzmL8IA5IkZ5ORIudjknnHM5l3ptOZM8\r\nbTl3p3g5cXRuOe5hejn6Pms57o9zOfdDdjmC1nk52GBfOSGDfDl98G85XOpnOUXUazmZNmQ5bbt3\r\nOegBYzmy+mk5WQNhOdwbcDnrNmE5XfxqOWPTbDn0NWE5pYtyOdX+Yjl+snI5vO5tOcsnYzl/d2Y5\r\nDvBmOcdcbjlITWw5YbplObzwgjngfmw5XOFtOUSBaDk4LmI5TPh0OeOwZDkaR3U56n5uOXpyazle\r\nt3Q5f5xqOfo0ZDkYtHE57hNuOZ04ZTkzFm056RZhOV6mZzl1AGQ5+jNcOT+8YDnpYGE5er5jOV6q\r\nVjmgXWA5NXljOWAZaDlrWGM5G09bOQkxZjl97Fc5B+pbOcMtbznYTVk5fo9mOV11ZDk5KVg5rGRq\r\nOcudWzm5kW85RQhYOWU2XjkvxlU5I95gOaGrVjmHoVY5gHdnOaSdTzlTKVU5ihdnOXYUXTkbr1s5\r\nVH5ZOQJRTTl0oVQ595xWOcvfdDnoe2I5Dc9kOQYXWDn+tks54CFnOWJPUDmPdVw5q5deOR1NVjns\r\nyE05Yk1nORGDUznBnGw5TB1cOdb4YTk290058AhrOYoBXTmS/1k5JuxkOb87Ujl0U1I5cS1kOfqW\r\nUTmFSGY5fuVTOZUMUTlLNVc5zo5iOUwvYDmVq1s5SBNPOXfvWDnk0ls5TydfOadBTDkePEo5/XVZ\r\nOdnSYznalVQ5JJpYOZcXVjn4M045u3tTOdDsWzmZHFI5sntbOWaIYDmiDVg5t2ZWOV+2Xzn8uFM5\r\nxu9WOe4fYjl0/U45FkRWOW94WzlIJlM57gZjOWIOUzmeaVw5dwxXOc3mUTnKn1o5b1RROQYOXznp\r\nX1g5LDJdOWYFajktEl05xyhUOahISzlPS1A5WnhZOTSKajmUhFo5lcFVOZq4WTmUQlA5xPBQOc8v\r\nWDlumlQ53YxEOYjeWjmLz1Y5jWtTOT0JWzmlLGE5PMpNOVFwSzlnHlw5oI9ZOXlFUzkGmEQ5VExo\r\nOVTsXjkLn1c5vadPOfT8VDmvVEM5YbFZOVx9XTnTM185yilbObJDVTlfkkg5/DxZOQARVDkQzFE+\r\n0iudQN6ygD4g7Ac/5g7gP1ZX3UA7FpNAHAcrQGFW9D8eS1c/Jy8yP09nPz/iKGg/njB9P0ZRxD6u\r\nsg4+TmVBPo0tDT7OVYg+ToiFPjvtOz7Y7wY/VOijP25Xjj/ikPw/QwYkP34XwD5tPrE/R4CYP2wz\r\nh0DIpHhB6usyQbiOTUFewiBCwJlcQdtSpEGo4I1Bi3yEQI4tVUCqHwBAKOPcP7eOqz93QM0/rh6p\r\nP8YGhkB1KgxABNnKPzLmij+so1ZA0/+hQJaah0A8E6g/jsmrP0+wGj+SVRI/7DJiPlntoD5o6qg/\r\nwneSPhSHCj8iiKA+qqvmPwg7qT/6/As/Vxo8QMGmMD93NqY/UvFrQY6J2D/Ne7A/5awFPyxAaD+4\r\nI1I/D9sCQJsPgT8eCqs/YOfOPpkryz+29gU/TpX4Pj5uED5b3+U93FmhPjnJzj3uRg0+lo+JPlWc\r\ncT7NR7o+qEu5Ptp9JT+1HxI+TjeNPpwScD4QP4U+FvQqP7PDhT71QoQ9BgxqPUK6FT7fylc9FlaK\r\nPTWUjT2PXug+UiRNPsRdVj1HRqk9OEvQPn0FID6iOD8+0R9ZPY45Mj/m32k+f0QsP2Z6uD1iXGo+\r\nGciNPfDWND6WVfw9lC+CP4L+wz99laE/0EALQB20EEAoHJs+4DaaP9IPFz/b5SY+AKICPprdUT9k\r\nVqg++Ia/PqPUvz4LdFg+GdkMPgT3nD38bXc9VgE0Pmzhhj27e3E+pkgqPp3cMz5rCAA+JPs/PnsB\r\nmj5+0PY9lfyXPuUPfD5C98E+cwLaP8d6yz6LxJs9e0Q9PukEuz1Y+Yg9TtBAPtpgIT4IUOo/ETCO\r\nQKJfaUDE6Jc/0BCCPxs8WD894SE+YtLvPUWztD77mQw/TO4jPxTLLT9jk+g+ijpqPkGeNz816z0/\r\n5JMpP0mS1D9YrgBAWmIIP8AgSD9OvzJAg6hqPvTA9DwQ0XI9CMsSPadWTD6vSAQ+43KjPWxndz0F\r\n9KU9GxnRPcBOAT8Wouc+zNc8P7U15D4eZZM/NVYQPnXpXT4sev49bIt5PTgLpT3qjek9W6S0Pf1H\r\nHT6ylOE9uL6EPtPSlj5B4pA+9uOkPxSZmD9TcwQ/dm6LPuUlVD/auns/dOUdQH8joD+UXXI/SV1W\r\nP7rKqT8LTr5ADQKgP/rQAEHXkrNAAlmIP+7orT9GxwxAuBfvP6Ii4T9d9kBA/h7OQOvnR0AR4htA\r\n/DLkQFgCZj/JdDg/BvT4P5Xd1j+rITY/dyDGQLqEAkHD+uU/7GUFQGTfHUD1z7A/NmfxPzJjtEBm\r\nC7pAVuXEQFChiUC9448/eXzePuihDD+YSqA/CXhNQAKvYD8JRv4/9llFQZqQBEDlFn5AJe4vQChZ\r\n7z+w6lg/G0ZrP6oJNEByfqc/xgkiPyAOjUDcPQRBvtW4P2obEEEKrq5BOOkpQCJlYkH+2kpAITqd\r\nQG3Eqj+ks84+aMBxP/SIZT4zn1g+RQcjPlxbUT6AeBM9WFqpPf0vqT7AqzY/Dm8SPoR0IT75lHA+\r\nf00FPo+r2z7MYaU/2bipP8FC3D/8DiE/WKU3Pu4R+z143g09TFE4Piombj/5pMs/tBg3P3l+UD+Y\r\n4i1AQBNXPwDgkT+JqP8/gUatP/FR6T9ISuo+J7r8Pieg4j+XH1Q/kGBdP9dMVD8Qk4FAqSIyQPBb\r\nVUCWvZ4/G/XXQAhaij7KgSA+9aPqPqRETj607Pw92OL2POd/6T1lGpk+aY9CPlMmmz7CWps9UR1/\r\nPXo6Mj46Rvg+LvH8PWKROz4qO1k9AAfFPEtpNT34BSw++eKEPeUtlj1zQG8+S04LPYUgDT4Rqas9\r\nLP5xPA890T1CW6A9R3tEPrTrUT4lgAA+HDRJPoIf7j3wuDU96jxgO//cAT1SQKM8dMCoPOcTcjx2\r\n5H87NL4OPM7iLDwU1aQ7M6TLO6ycCTyzQgE7V1KjO/B/5DtF9KA75EHLO4SDgTtYc5Q78JSCO2Bj\r\nkzvqSrY7L8mDO/I9djsaP287Ah9WO77qVjuAFnk78JlcOy96FTt7kQA7BtpQOwxDMTuHOi87n6/R\r\nOhr4JjsKZS475DbkOsT0ITu6mgc7nEwOOx/+2DpkVU47TKxFOxzJADtGFhs7e48LOymT7DrgU9g6\r\nQBfcOi3V8DqdiAQ7pmL/OhfP2Dqv+tY6iNvNOs6fyzoZsNU6xDHOOljnzTqaatA6HkDDOgpYxDoe\r\nOL063Li7OnpurDrh3K46VHCuOn6ArzoqArA62cSxOvsrrjoezas6nd6lOjLTqTouSJI6oMSCOufP\r\nrzrmPso6tnOWOsQ+dzo/aZc6CMmrOuAGpDrZxpw6kaOXOt+SlzoD25Q6a6eSOn4Efjp+OXE6p66E\r\nOrq1hjoOcIo6S1yNOi7EgTp67IU6TVh9OqrugTp2XYM6Ll1sOu76fDoUUno6ZNJyOgGibjpW/XY6\r\nqNtsOqrXbDpcRHk61gxuOj4Yajps0GQ62mdgOrRBXzoWBF066B9jOtirUjr/7l06cog9OiWnNzox\r\nDzo6wnBtOqQVbjqXwhw6DjI9Ol3GPDpUjII6WjEtOlathTrswWk6DJxsOkCpaTrIf1Q62IVQOu0I\r\nRzpoukU6b/g9OrSdRjp0PD46ij9gOlrMJjpuKCw6Hec1OmpjQjqAbUQ67ncnOrCRKTrrTYc6pLsZ\r\nOgpVBjqLuXM6fL8xOo6VQjqZxuw5IgJCOkxZSzpqJEc6Gnw3OvD7ITrauxw6CGweOiBMGjpDfy86\r\nhz8FOuQkFDoBXBs6kpgTOivWLjoBvSs6bsIZOlWMITriJRg6bwkkOjhiFDovTBY6KJoXOvQHIDpE\r\ngxU6MMEBOhi+FjpX6Qg645EkOk4dITqdZxk6k1T/OSDiETpX2R86RhYJOioCBTql2BU6Xg0OOnqh\r\nBjo49Qk66HEOOnZwCDoQnQc6hF4IOm4hBjoPEf055tkGOjGt/zkqmPs5wV4IOld+BDqQvP45+BoF\r\nOozIBTrau/o5UJT5OSRA+DmKhvo5aBj5OURX9jnkbAE64Jf0OfiL+TkBufg5SlzyOULm9Dk0pfY5\r\n3n30OXRM8Tm6S/A5Qi7sOdw/9zk9ze85ILHvOeFk5DlCMOo5hO3jOXLY5DmQb+E5ty/iORpi5Dm2\r\nkeY5tnTgOViM9DldS+E5c3zjOWv41DmwPd05r4/cORbI3jksaeE5RoDfOTjL3jmlqtc5a1TSOcuh\r\nzjn7KdM5UnXfOYQg0TkApts5D+DNOQyCzTnbN8w5MZnVOc++0zm0mMg5Y5fGOZrRyTlMF8o5mXDS\r\nOepS0DllEcw51nvMOQMr0TnxmMk5RpfQOdoZzDlwmM85g1fKOctDvjl4bb45fyW+OQSfvTlku8g5\r\nymy8OTB1uDkIxLs5A4yxOX9YuDl767k5xb28OZEyvTmdVa850QOzOSYIyTmPN7s5HNy3OcZHrTn6\r\nlLo5qBqyOYE6tjlAcrA50Pu5OUzCujmhprQ5MkizORlPsTm1Jqw5L8KwObxBtTkltKc5lGmuOR/v\r\nqzlhKLE5eHitOZ6nqjkt0Kw5+ka0OV4dqzn2HrQ5RQ6sOVObrzkHc6s5ZGqtOfiNoDk+hrM5lUyt\r\nOXd3rzk8pq8552imOVRDqDnJa6U55eysOXLyoDkSS6w5y0KpOacloDkC4KQ54JWaOaBBpDnImp85\r\npj2mOXJvnzlsfqE5CESdOfWxpzmcA585DP2qOX/3njmoC545fB+cOUz9njmCmZo5US+cOQjilzlW\r\nYaY5x3ijOdMZoTl6dpo5MCaSOf/Iojmim5c5Z7SXOXuulzl2+5o5tliSOar6ljlpd5s5WkyZOTZa\r\nmzmAgJg5G8iNOezwmzkerZQ56o6NOQHGlzn92Zk5nFKbOQYPmDkFAZE50euQOTpSiDm7N505txSR\r\nOVSihzk3JJI5SVqSOT/mljn4h485gWCYOXcXlDniyYs5hKKKOQpEjTlXnJE5m7KQOXhRjDkb0I45\r\nnBWOOXHRjTkcv4s5mE2VOWgHiTlwVY458BePObnVjjmoW4M5QmaNOXRNijl8x4s5vN6HOXKRiTl4\r\nook53nGBOerMkznC4oQ5PO+LOT6YgTleA4U5bkKBOZKXjjl8sIE5hcaIORa3iDlOhpE5xIeFOXLa\r\nhTktI4U5v3WJOVwUgzl7b4I5gWiGORUGfTlqaYQ5dQ6AOUL9dzlL9X85YSmBOboPfzlg+4U5D4eB\r\nOdh1gjl+VoA5dXmAOSxFhzmSjYI5ONV2Od5IdTnel4E52K54OVR4gzneRH858gSGOc7kejm/dHo5\r\nrYSEOcQffjkycX85R1SAORZHgzl8+Xs5wVN7OZU2gDlyFIA5E2h/Od8ffjnWvm45bQCIOSkPgTl8\r\nFm85w3ptOXAJejlvXW85phR/OfflZjmeUHY5rkRjOYvwgDkiRnk5Ei52OSecczmXem05kzxtOXen\r\neDlxdG457mF6Ofo+aznuj3M590N2OYLWeTnYYF85IYN8OX3wbzlc6mc5RdRrOZk2ZDltu3c56AFj\r\nObL6aTlZA2E53BtwOes2YTld/Go5Y9NsOfQ1YTmli3I51f5iOX6ycjm87m05yydjOX93ZjkO8GY5\r\nx1xuOUhNbDlhumU5vPCCOeB+bDlc4W05RIFoOTguYjlM+HQ547BkORpHdTnqfm45enJrOV63dDl/\r\nnGo5+jRkORi0cTnuE245nThlOTMWbTnpFmE5XqZnOXUAZDn6M1w5P7xgOelgYTl6vmM5XqpWOaBd\r\nYDk1eWM5YBloOWtYYzkbT1s5CTFmOX3sVzkH6ls5wy1vOdhNWTl+j2Y5XXVkOTkpWDmsZGo5y51b\r\nObmRbzlFCFg5ZTZeOS/GVTkj3mA5oatWOYehVjmAd2c5pJ1POVMpVTmKF2c5dhRdORuvWzlUflk5\r\nAlFNOXShVDn3nFY5y990Oeh7YjkNz2Q5BhdYOf62SzngIWc5Yk9QOY91XDmrl145HU1WOezITTli\r\nTWc5EYNTOcGcbDlMHVw51vhhOTb3TTnwCGs5igFdOZL/WTkm7GQ5vztSOXRTUjlxLWQ5+pZROYVI\r\nZjl+5VM5lQxROUs1VznOjmI5TC9gOZWrWzlIE085d+9YOeTSWzlPJ185p0FMOR48Sjn9dVk52dJj\r\nOdqVVDkkmlg5lxdWOfgzTjm7e1M50OxbOZkcUjmye1s5ZohgOaINWDm3ZlY5X7ZfOfy4UznG71Y5\r\n7h9iOXT9TjkWRFY5b3hbOUgmUznuBmM5Yg5TOZ5pXDl3DFc5zeZROcqfWjlvVFE5Bg5fOelfWDks\r\nMl05ZgVqOS0SXTnHKFQ5qEhLOU9LUDlaeFk5NIpqOZSEWjmVwVU5mrhZOZRCUDnE8FA5zy9YOW6a\r\nVDndjEQ5iN5aOYvPVjmNa1M5PQlbOaUsYTk8yk05UXBLOWceXDmgj1k5eUVTOQaYRDlUTGg5VOxe\r\nOQufVzm9p0859PxUOa9UQzlhsVk5XH1dOdMzXznKKVs5skNVOV+SSDn8PFk5ABFUOQ==",
                            "noiseTrainingType" : "default"
                          }
                        }
                    ],
                    "start" : 2778,
                    "duration" : 289,
                    "mediaStart" : 9239,
                    "mediaDuration" : 289,
                    "scalar" : 1,
                    "metadata" : {
                      "WinSubProjectDisplayName" : "",
                      "clipSpeedAttribute" : false
                    },
                    "animationTracks" : {

                    }
                  },
                  {
                    "id" : 82,
                    "_type" : "AMFile",
                    "src" : 1,
                    "trackNumber" : 1,
                    "attributes" : {
                      "ident" : "tower-columns-01",
                      "sampleRate" : 44100,
                      "bitDepth" : 16,
                      "gain" : 1.0,
                      "mixToMono" : false
                    },
                      "channelNumber" : "0,1",
                    "effects" : [
                        {
                          "effectName" : "NoiseReduction",
                          "category" : "categoryAudioEffects",
                          "parameters" : {
                            "denoiserAmount" : 20.0,
                            "denoiserThreshold" : 0.0,
                            "noiseProfile" : "EMxRPtIrnUDesoA+IOwHP+YO4D9WV91AOxaTQBwHK0BhVvQ/HktXPycvMj9PZz8/4ihoP54wfT9G\r\nUcQ+rrIOPk5lQT6NLQ0+zlWIPk6IhT477Ts+2O8GP1Tooz9uV44/4pD8P0MGJD9+F8A+bT6xP0eA\r\nmD9sM4dAyKR4QerrMkG4jk1BXsIgQsCZXEHbUqRBqOCNQYt8hECOLVVAqh8AQCjj3D+3jqs/d0DN\r\nP64eqT/GBoZAdSoMQATZyj8y5oo/rKNWQNP/oUCWmodAPBOoP47Jqz9PsBo/klUSP+wyYj5Z7aA+\r\naOqoP8J3kj4Uhwo/IoigPqqr5j8IO6k/+vwLP1caPEDBpjA/dzamP1Lxa0GOidg/zXuwP+WsBT8s\r\nQGg/uCNSPw/bAkCbD4E/HgqrP2Dnzj6ZK8s/tvYFP06V+D4+bhA+W9/lPdxZoT45yc497kYNPpaP\r\niT5VnHE+zUe6PqhLuT7afSU/tR8SPk43jT6cEnA+ED+FPhb0Kj+zw4U+9UKEPQYMaj1CuhU+38pX\r\nPRZWij01lI09j17oPlIkTT7EXVY9R0apPThL0D59BSA+ojg/PtEfWT2OOTI/5t9pPn9ELD9merg9\r\nYlxqPhnIjT3w1jQ+llX8PZQvgj+C/sM/fZWhP9BAC0AdtBBAKBybPuA2mj/SDxc/2+UmPgCiAj6a\r\n3VE/ZFaoPviGvz6j1L8+C3RYPhnZDD4E95w9/G13PVYBND5s4YY9u3txPqZIKj6d3DM+awgAPiT7\r\nPz57AZo+ftD2PZX8lz7lD3w+QvfBPnMC2j/Hess+i8SbPXtEPT7pBLs9WPmIPU7QQD7aYCE+CFDq\r\nPxEwjkCiX2lAxOiXP9AQgj8bPFg/PeEhPmLS7z1Fs7Q++5kMP0zuIz8Uyy0/Y5PoPoo6aj5Bnjc/\r\nNes9P+STKT9JktQ/WK4AQFpiCD/AIEg/Tr8yQIOoaj70wPQ8ENFyPQjLEj2nVkw+r0gEPuNyoz1s\r\nZ3c9BfSlPRsZ0T3ATgE/FqLnPszXPD+1NeQ+HmWTPzVWED516V0+LHr+PWyLeT04C6U96o3pPVuk\r\ntD39Rx0+spThPbi+hD7T0pY+QeKQPvbjpD8UmZg/U3MEP3Zuiz7lJVQ/2rp7P3TlHUB/I6A/lF1y\r\nP0ldVj+6yqk/C06+QA0CoD/60ABB15KzQAJZiD/u6K0/RscMQLgX7z+iIuE/XfZAQP4ezkDr50dA\r\nEeIbQPwy5EBYAmY/yXQ4Pwb0+D+V3dY/qyE2P3cgxkC6hAJBw/rlP+xlBUBk3x1A9c+wPzZn8T8y\r\nY7RAZgu6QFblxEBQoYlAveOPP3l83j7ooQw/mEqgPwl4TUACr2A/CUb+P/ZZRUGakARA5RZ+QCXu\r\nL0AoWe8/sOpYPxtGaz+qCTRAcn6nP8YJIj8gDo1A3D0EQb7VuD9qGxBBCq6uQTjpKUAiZWJB/tpK\r\nQCE6nUBtxKo/pLPOPmjAcT/0iGU+M59YPkUHIz5cW1E+gHgTPVhaqT39L6k+wKs2Pw5vEj6EdCE+\r\n+ZRwPn9NBT6Pq9s+zGGlP9m4qT/BQtw//A4hP1ilNz7uEfs9eN4NPUxROD4qJm4/+aTLP7QYNz95\r\nflA/mOItQEATVz8A4JE/iaj/P4FGrT/xUek/SErqPie6/D4noOI/lx9UP5BgXT/XTFQ/EJOBQKki\r\nMkDwW1VAlr2ePxv110AIWoo+yoEgPvWj6j6kRE4+tOz8Pdji9jznf+k9ZRqZPmmPQj5TJps+wlqb\r\nPVEdfz16OjI+Okb4Pi7x/D1ikTs+KjtZPQAHxTxLaTU9+AUsPvnihD3lLZY9c0BvPktOCz2FIA0+\r\nEamrPSz+cTwPPdE9QlugPUd7RD6061E+JYAAPhw0ST6CH+498Lg1Peo8YDv/3AE9UkCjPHTAqDzn\r\nE3I8duR/OzS+DjzO4iw8FNWkOzOkyzusnAk8s0IBO1dSozvwf+Q7RfSgO+RByzuEg4E7WHOUO/CU\r\ngjtgY5M76kq2Oy/JgzvyPXY7Gj9vOwIfVju+6lY7gBZ5O/CZXDsvehU7e5EAOwbaUDsMQzE7hzov\r\nO5+v0Toa+CY7CmUuO+Q25DrE9CE7upoHO5xMDjsf/tg6ZFVOO0ysRTscyQA7RhYbO3uPCzspk+w6\r\n4FPYOkAX3Dot1fA6nYgEO6Zi/zoXz9g6r/rWOojbzTrOn8s6GbDVOsQxzjpY5806mmrQOh5AwzoK\r\nWMQ6Hji9Oty4uzp6bqw64dyuOlRwrjp+gK86KgKwOtnEsTr7K646Hs2rOp3epToy06k6LkiSOqDE\r\ngjrnz6865j7KOrZzljrEPnc6P2mXOgjJqzrgBqQ62cacOpGjlzrfkpc6A9uUOmunkjp+BH46fjlx\r\nOqeuhDq6tYY6DnCKOktcjTouxIE6euyFOk1YfTqq7oE6dl2DOi5dbDru+nw6FFJ6OmTScjoBom46\r\nVv12OqjbbDqq12w6XER5OtYMbjo+GGo6bNBkOtpnYDq0QV86FgRdOugfYzrYq1I6/+5dOnKIPTol\r\npzc6MQ86OsJwbTqkFW46l8IcOg4yPTpdxjw6VIyCOloxLTpWrYU67MFpOgycbDpAqWk6yH9UOtiF\r\nUDrtCEc6aLpFOm/4PTq0nUY6dDw+Ooo/YDpazCY6bigsOh3nNTpqY0I6gG1EOu53JzqwkSk6602H\r\nOqS7GToKVQY6i7lzOny/MTqOlUI6mcbsOSICQjpMWUs6aiRHOhp8Nzrw+yE62rscOghsHjogTBo6\r\nQ38vOoc/BTrkJBQ6AVwbOpKYEzor1i46Ab0rOm7CGTpVjCE64iUYOm8JJDo4YhQ6L0wWOiiaFzr0\r\nByA6RIMVOjDBAToYvhY6V+kIOuORJDpOHSE6nWcZOpNU/zkg4hE6V9kfOkYWCToqAgU6pdgVOl4N\r\nDjp6oQY6OPUJOuhxDjp2cAg6EJ0HOoReCDpuIQY6DxH9OebZBjoxrf85Kpj7OcFeCDpXfgQ6kLz+\r\nOfgaBTqMyAU62rv6OVCU+TkkQPg5iob6OWgY+TlEV/Y55GwBOuCX9Dn4i/k5Abn4OUpc8jlC5vQ5\r\nNKX2Od599Dl0TPE5ukvwOUIu7DncP/c5Pc3vOSCx7znhZOQ5QjDqOYTt4zly2OQ5kG/hObcv4jka\r\nYuQ5tpHmObZ04DlYjPQ5XUvhOXN84zlr+NQ5sD3dOa+P3DkWyN45LGnhOUaA3zk4y945parXOWtU\r\n0jnLoc45+ynTOVJ13zmEINE5AKbbOQ/gzTkMgs052zfMOTGZ1TnPvtM5tJjIOWOXxjma0ck5TBfK\r\nOZlw0jnqUtA5ZRHMOdZ7zDkDK9E58ZjJOUaX0DnaGcw5cJjPOYNXyjnLQ745eG2+OX8lvjkEn705\r\nZLvIOcpsvDkwdbg5CMS7OQOMsTl/WLg5e+u5OcW9vDmRMr05nVWvOdEDszkmCMk5jze7ORzctznG\r\nR605+pS6OagasjmBOrY5QHKwOdD7uTlMwro5oaa0OTJIszkZT7E5tSasOS/CsDm8QbU5JbSnOZRp\r\nrjkf76s5YSixOXh4rTmep6o5LdCsOfpGtDleHas59h60OUUOrDlTm685B3OrOWRqrTn4jaA5Poaz\r\nOZVMrTl3d685PKavOedopjlUQ6g5yWulOeXsrDly8qA5EkusOctCqTmnJaA5AuCkOeCVmjmgQaQ5\r\nyJqfOaY9pjlyb585bH6hOQhEnTn1sac5nAOfOQz9qjl/9545qAueOXwfnDlM/Z45gpmaOVEvnDkI\r\n4pc5VmGmOcd4oznTGaE5enaaOTAmkjn/yKI5opuXOWe0lzl7rpc5dvuaObZYkjmq+pY5aXebOVpM\r\nmTk2Wps5gICYORvIjTns8Js5Hq2UOeqOjTkBxpc5/dmZOZxSmzkGD5g5BQGROdHrkDk6Uog5uzed\r\nObcUkTlUooc5NySSOUlakjk/5pY5+IePOYFgmDl3F5Q54smLOYSiijkKRI05V5yROZuykDl4UYw5\r\nG9COOZwVjjlx0Y05HL+LOZhNlTloB4k5cFWOOfAXjzm51Y45qFuDOUJmjTl0TYo5fMeLObzehzly\r\nkYk5eKKJOd5xgTnqzJM5wuKEOTzvizk+mIE5XgOFOW5CgTmSl445fLCBOYXGiDkWt4g5ToaROcSH\r\nhTly2oU5LSOFOb91iTlcFIM5e2+COYFohjkVBn05ammEOXUOgDlC/Xc5S/V/OWEpgTm6D385YPuF\r\nOQ+HgTnYdYI5flaAOXV5gDksRYc5ko2COTjVdjneSHU53peBOdiueDlUeIM53kR/OfIEhjnO5Ho5\r\nv3R6Oa2EhDnEH345MnF/OUdUgDkWR4M5fPl7OcFTezmVNoA5chSAORNofznfH3451r5uOW0AiDkp\r\nD4E5fBZvOcN6bTlwCXo5b11vOaYUfzn35WY5nlB2Oa5EYzmL8IA5IkZ5ORIudjknnHM5l3ptOZM8\r\nbTl3p3g5cXRuOe5hejn6Pms57o9zOfdDdjmC1nk52GBfOSGDfDl98G85XOpnOUXUazmZNmQ5bbt3\r\nOegBYzmy+mk5WQNhOdwbcDnrNmE5XfxqOWPTbDn0NWE5pYtyOdX+Yjl+snI5vO5tOcsnYzl/d2Y5\r\nDvBmOcdcbjlITWw5YbplObzwgjngfmw5XOFtOUSBaDk4LmI5TPh0OeOwZDkaR3U56n5uOXpyazle\r\nt3Q5f5xqOfo0ZDkYtHE57hNuOZ04ZTkzFm056RZhOV6mZzl1AGQ5+jNcOT+8YDnpYGE5er5jOV6q\r\nVjmgXWA5NXljOWAZaDlrWGM5G09bOQkxZjl97Fc5B+pbOcMtbznYTVk5fo9mOV11ZDk5KVg5rGRq\r\nOcudWzm5kW85RQhYOWU2XjkvxlU5I95gOaGrVjmHoVY5gHdnOaSdTzlTKVU5ihdnOXYUXTkbr1s5\r\nVH5ZOQJRTTl0oVQ595xWOcvfdDnoe2I5Dc9kOQYXWDn+tks54CFnOWJPUDmPdVw5q5deOR1NVjns\r\nyE05Yk1nORGDUznBnGw5TB1cOdb4YTk290058AhrOYoBXTmS/1k5JuxkOb87Ujl0U1I5cS1kOfqW\r\nUTmFSGY5fuVTOZUMUTlLNVc5zo5iOUwvYDmVq1s5SBNPOXfvWDnk0ls5TydfOadBTDkePEo5/XVZ\r\nOdnSYznalVQ5JJpYOZcXVjn4M045u3tTOdDsWzmZHFI5sntbOWaIYDmiDVg5t2ZWOV+2Xzn8uFM5\r\nxu9WOe4fYjl0/U45FkRWOW94WzlIJlM57gZjOWIOUzmeaVw5dwxXOc3mUTnKn1o5b1RROQYOXznp\r\nX1g5LDJdOWYFajktEl05xyhUOahISzlPS1A5WnhZOTSKajmUhFo5lcFVOZq4WTmUQlA5xPBQOc8v\r\nWDlumlQ53YxEOYjeWjmLz1Y5jWtTOT0JWzmlLGE5PMpNOVFwSzlnHlw5oI9ZOXlFUzkGmEQ5VExo\r\nOVTsXjkLn1c5vadPOfT8VDmvVEM5YbFZOVx9XTnTM185yilbObJDVTlfkkg5/DxZOQARVDkQzFE+\r\n0iudQN6ygD4g7Ac/5g7gP1ZX3UA7FpNAHAcrQGFW9D8eS1c/Jy8yP09nPz/iKGg/njB9P0ZRxD6u\r\nsg4+TmVBPo0tDT7OVYg+ToiFPjvtOz7Y7wY/VOijP25Xjj/ikPw/QwYkP34XwD5tPrE/R4CYP2wz\r\nh0DIpHhB6usyQbiOTUFewiBCwJlcQdtSpEGo4I1Bi3yEQI4tVUCqHwBAKOPcP7eOqz93QM0/rh6p\r\nP8YGhkB1KgxABNnKPzLmij+so1ZA0/+hQJaah0A8E6g/jsmrP0+wGj+SVRI/7DJiPlntoD5o6qg/\r\nwneSPhSHCj8iiKA+qqvmPwg7qT/6/As/Vxo8QMGmMD93NqY/UvFrQY6J2D/Ne7A/5awFPyxAaD+4\r\nI1I/D9sCQJsPgT8eCqs/YOfOPpkryz+29gU/TpX4Pj5uED5b3+U93FmhPjnJzj3uRg0+lo+JPlWc\r\ncT7NR7o+qEu5Ptp9JT+1HxI+TjeNPpwScD4QP4U+FvQqP7PDhT71QoQ9BgxqPUK6FT7fylc9FlaK\r\nPTWUjT2PXug+UiRNPsRdVj1HRqk9OEvQPn0FID6iOD8+0R9ZPY45Mj/m32k+f0QsP2Z6uD1iXGo+\r\nGciNPfDWND6WVfw9lC+CP4L+wz99laE/0EALQB20EEAoHJs+4DaaP9IPFz/b5SY+AKICPprdUT9k\r\nVqg++Ia/PqPUvz4LdFg+GdkMPgT3nD38bXc9VgE0Pmzhhj27e3E+pkgqPp3cMz5rCAA+JPs/PnsB\r\nmj5+0PY9lfyXPuUPfD5C98E+cwLaP8d6yz6LxJs9e0Q9PukEuz1Y+Yg9TtBAPtpgIT4IUOo/ETCO\r\nQKJfaUDE6Jc/0BCCPxs8WD894SE+YtLvPUWztD77mQw/TO4jPxTLLT9jk+g+ijpqPkGeNz816z0/\r\n5JMpP0mS1D9YrgBAWmIIP8AgSD9OvzJAg6hqPvTA9DwQ0XI9CMsSPadWTD6vSAQ+43KjPWxndz0F\r\n9KU9GxnRPcBOAT8Wouc+zNc8P7U15D4eZZM/NVYQPnXpXT4sev49bIt5PTgLpT3qjek9W6S0Pf1H\r\nHT6ylOE9uL6EPtPSlj5B4pA+9uOkPxSZmD9TcwQ/dm6LPuUlVD/auns/dOUdQH8joD+UXXI/SV1W\r\nP7rKqT8LTr5ADQKgP/rQAEHXkrNAAlmIP+7orT9GxwxAuBfvP6Ii4T9d9kBA/h7OQOvnR0AR4htA\r\n/DLkQFgCZj/JdDg/BvT4P5Xd1j+rITY/dyDGQLqEAkHD+uU/7GUFQGTfHUD1z7A/NmfxPzJjtEBm\r\nC7pAVuXEQFChiUC9448/eXzePuihDD+YSqA/CXhNQAKvYD8JRv4/9llFQZqQBEDlFn5AJe4vQChZ\r\n7z+w6lg/G0ZrP6oJNEByfqc/xgkiPyAOjUDcPQRBvtW4P2obEEEKrq5BOOkpQCJlYkH+2kpAITqd\r\nQG3Eqj+ks84+aMBxP/SIZT4zn1g+RQcjPlxbUT6AeBM9WFqpPf0vqT7AqzY/Dm8SPoR0IT75lHA+\r\nf00FPo+r2z7MYaU/2bipP8FC3D/8DiE/WKU3Pu4R+z143g09TFE4Piombj/5pMs/tBg3P3l+UD+Y\r\n4i1AQBNXPwDgkT+JqP8/gUatP/FR6T9ISuo+J7r8Pieg4j+XH1Q/kGBdP9dMVD8Qk4FAqSIyQPBb\r\nVUCWvZ4/G/XXQAhaij7KgSA+9aPqPqRETj607Pw92OL2POd/6T1lGpk+aY9CPlMmmz7CWps9UR1/\r\nPXo6Mj46Rvg+LvH8PWKROz4qO1k9AAfFPEtpNT34BSw++eKEPeUtlj1zQG8+S04LPYUgDT4Rqas9\r\nLP5xPA890T1CW6A9R3tEPrTrUT4lgAA+HDRJPoIf7j3wuDU96jxgO//cAT1SQKM8dMCoPOcTcjx2\r\n5H87NL4OPM7iLDwU1aQ7M6TLO6ycCTyzQgE7V1KjO/B/5DtF9KA75EHLO4SDgTtYc5Q78JSCO2Bj\r\nkzvqSrY7L8mDO/I9djsaP287Ah9WO77qVjuAFnk78JlcOy96FTt7kQA7BtpQOwxDMTuHOi87n6/R\r\nOhr4JjsKZS475DbkOsT0ITu6mgc7nEwOOx/+2DpkVU47TKxFOxzJADtGFhs7e48LOymT7DrgU9g6\r\nQBfcOi3V8DqdiAQ7pmL/OhfP2Dqv+tY6iNvNOs6fyzoZsNU6xDHOOljnzTqaatA6HkDDOgpYxDoe\r\nOL063Li7OnpurDrh3K46VHCuOn6ArzoqArA62cSxOvsrrjoezas6nd6lOjLTqTouSJI6oMSCOufP\r\nrzrmPso6tnOWOsQ+dzo/aZc6CMmrOuAGpDrZxpw6kaOXOt+SlzoD25Q6a6eSOn4Efjp+OXE6p66E\r\nOrq1hjoOcIo6S1yNOi7EgTp67IU6TVh9OqrugTp2XYM6Ll1sOu76fDoUUno6ZNJyOgGibjpW/XY6\r\nqNtsOqrXbDpcRHk61gxuOj4Yajps0GQ62mdgOrRBXzoWBF066B9jOtirUjr/7l06cog9OiWnNzox\r\nDzo6wnBtOqQVbjqXwhw6DjI9Ol3GPDpUjII6WjEtOlathTrswWk6DJxsOkCpaTrIf1Q62IVQOu0I\r\nRzpoukU6b/g9OrSdRjp0PD46ij9gOlrMJjpuKCw6Hec1OmpjQjqAbUQ67ncnOrCRKTrrTYc6pLsZ\r\nOgpVBjqLuXM6fL8xOo6VQjqZxuw5IgJCOkxZSzpqJEc6Gnw3OvD7ITrauxw6CGweOiBMGjpDfy86\r\nhz8FOuQkFDoBXBs6kpgTOivWLjoBvSs6bsIZOlWMITriJRg6bwkkOjhiFDovTBY6KJoXOvQHIDpE\r\ngxU6MMEBOhi+FjpX6Qg645EkOk4dITqdZxk6k1T/OSDiETpX2R86RhYJOioCBTql2BU6Xg0OOnqh\r\nBjo49Qk66HEOOnZwCDoQnQc6hF4IOm4hBjoPEf055tkGOjGt/zkqmPs5wV4IOld+BDqQvP45+BoF\r\nOozIBTrau/o5UJT5OSRA+DmKhvo5aBj5OURX9jnkbAE64Jf0OfiL+TkBufg5SlzyOULm9Dk0pfY5\r\n3n30OXRM8Tm6S/A5Qi7sOdw/9zk9ze85ILHvOeFk5DlCMOo5hO3jOXLY5DmQb+E5ty/iORpi5Dm2\r\nkeY5tnTgOViM9DldS+E5c3zjOWv41DmwPd05r4/cORbI3jksaeE5RoDfOTjL3jmlqtc5a1TSOcuh\r\nzjn7KdM5UnXfOYQg0TkApts5D+DNOQyCzTnbN8w5MZnVOc++0zm0mMg5Y5fGOZrRyTlMF8o5mXDS\r\nOepS0DllEcw51nvMOQMr0TnxmMk5RpfQOdoZzDlwmM85g1fKOctDvjl4bb45fyW+OQSfvTlku8g5\r\nymy8OTB1uDkIxLs5A4yxOX9YuDl767k5xb28OZEyvTmdVa850QOzOSYIyTmPN7s5HNy3OcZHrTn6\r\nlLo5qBqyOYE6tjlAcrA50Pu5OUzCujmhprQ5MkizORlPsTm1Jqw5L8KwObxBtTkltKc5lGmuOR/v\r\nqzlhKLE5eHitOZ6nqjkt0Kw5+ka0OV4dqzn2HrQ5RQ6sOVObrzkHc6s5ZGqtOfiNoDk+hrM5lUyt\r\nOXd3rzk8pq8552imOVRDqDnJa6U55eysOXLyoDkSS6w5y0KpOacloDkC4KQ54JWaOaBBpDnImp85\r\npj2mOXJvnzlsfqE5CESdOfWxpzmcA585DP2qOX/3njmoC545fB+cOUz9njmCmZo5US+cOQjilzlW\r\nYaY5x3ijOdMZoTl6dpo5MCaSOf/Iojmim5c5Z7SXOXuulzl2+5o5tliSOar6ljlpd5s5WkyZOTZa\r\nmzmAgJg5G8iNOezwmzkerZQ56o6NOQHGlzn92Zk5nFKbOQYPmDkFAZE50euQOTpSiDm7N505txSR\r\nOVSihzk3JJI5SVqSOT/mljn4h485gWCYOXcXlDniyYs5hKKKOQpEjTlXnJE5m7KQOXhRjDkb0I45\r\nnBWOOXHRjTkcv4s5mE2VOWgHiTlwVY458BePObnVjjmoW4M5QmaNOXRNijl8x4s5vN6HOXKRiTl4\r\nook53nGBOerMkznC4oQ5PO+LOT6YgTleA4U5bkKBOZKXjjl8sIE5hcaIORa3iDlOhpE5xIeFOXLa\r\nhTktI4U5v3WJOVwUgzl7b4I5gWiGORUGfTlqaYQ5dQ6AOUL9dzlL9X85YSmBOboPfzlg+4U5D4eB\r\nOdh1gjl+VoA5dXmAOSxFhzmSjYI5ONV2Od5IdTnel4E52K54OVR4gzneRH858gSGOc7kejm/dHo5\r\nrYSEOcQffjkycX85R1SAORZHgzl8+Xs5wVN7OZU2gDlyFIA5E2h/Od8ffjnWvm45bQCIOSkPgTl8\r\nFm85w3ptOXAJejlvXW85phR/OfflZjmeUHY5rkRjOYvwgDkiRnk5Ei52OSecczmXem05kzxtOXen\r\neDlxdG457mF6Ofo+aznuj3M590N2OYLWeTnYYF85IYN8OX3wbzlc6mc5RdRrOZk2ZDltu3c56AFj\r\nObL6aTlZA2E53BtwOes2YTld/Go5Y9NsOfQ1YTmli3I51f5iOX6ycjm87m05yydjOX93ZjkO8GY5\r\nx1xuOUhNbDlhumU5vPCCOeB+bDlc4W05RIFoOTguYjlM+HQ547BkORpHdTnqfm45enJrOV63dDl/\r\nnGo5+jRkORi0cTnuE245nThlOTMWbTnpFmE5XqZnOXUAZDn6M1w5P7xgOelgYTl6vmM5XqpWOaBd\r\nYDk1eWM5YBloOWtYYzkbT1s5CTFmOX3sVzkH6ls5wy1vOdhNWTl+j2Y5XXVkOTkpWDmsZGo5y51b\r\nObmRbzlFCFg5ZTZeOS/GVTkj3mA5oatWOYehVjmAd2c5pJ1POVMpVTmKF2c5dhRdORuvWzlUflk5\r\nAlFNOXShVDn3nFY5y990Oeh7YjkNz2Q5BhdYOf62SzngIWc5Yk9QOY91XDmrl145HU1WOezITTli\r\nTWc5EYNTOcGcbDlMHVw51vhhOTb3TTnwCGs5igFdOZL/WTkm7GQ5vztSOXRTUjlxLWQ5+pZROYVI\r\nZjl+5VM5lQxROUs1VznOjmI5TC9gOZWrWzlIE085d+9YOeTSWzlPJ185p0FMOR48Sjn9dVk52dJj\r\nOdqVVDkkmlg5lxdWOfgzTjm7e1M50OxbOZkcUjmye1s5ZohgOaINWDm3ZlY5X7ZfOfy4UznG71Y5\r\n7h9iOXT9TjkWRFY5b3hbOUgmUznuBmM5Yg5TOZ5pXDl3DFc5zeZROcqfWjlvVFE5Bg5fOelfWDks\r\nMl05ZgVqOS0SXTnHKFQ5qEhLOU9LUDlaeFk5NIpqOZSEWjmVwVU5mrhZOZRCUDnE8FA5zy9YOW6a\r\nVDndjEQ5iN5aOYvPVjmNa1M5PQlbOaUsYTk8yk05UXBLOWceXDmgj1k5eUVTOQaYRDlUTGg5VOxe\r\nOQufVzm9p0859PxUOa9UQzlhsVk5XH1dOdMzXznKKVs5skNVOV+SSDn8PFk5ABFUOQ==",
                            "noiseTrainingType" : "default"
                          }
                        }
                    ],
                    "start" : 3067,
                    "duration" : 120,
                    "mediaStart" : 10312,
                    "mediaDuration" : 120,
                    "scalar" : 1,
                    "metadata" : {
                      "WinSubProjectDisplayName" : "",
                      "clipSpeedAttribute" : false
                    },
                    "animationTracks" : {

                    }
                  },
                  {
                    "id" : 83,
                    "_type" : "AMFile",
                    "src" : 2,
                    "trackNumber" : 1,
                    "attributes" : {
                      "ident" : "tower-columns-02",
                      "sampleRate" : 44100,
                      "bitDepth" : 16,
                      "gain" : 1.0,
                      "mixToMono" : false
                    },
                      "channelNumber" : "0,1",
                    "effects" : [
                        {
                          "effectName" : "NoiseReduction",
                          "category" : "categoryAudioEffects",
                          "parameters" : {
                            "denoiserAmount" : 20.0,
                            "denoiserThreshold" : 0.0,
                            "noiseProfile" : "nZZEP5RikT+EmBI/KnP9Pwpb60CvxkBCXd+jQY7whEBNATBANMPsP4KGpD+w7W0/anS9Pp7DVz9W\r\nWXQ/MgZ/P+zyAz9dsAo/gB+NPqGyij5E040+/uumPv40FD+XEEU/tV4HQPJC2j8hHus+xuOAP6zl\r\n5z90pQ1Ba2PWQS3MBkIj5nRCW1rKQY1QFkK3mEVB9qOyPwsemz8mGQ1AijZpPxFZQT/VTxpASC+d\r\nQCqNR0DvUjw/MkSRP+5Cyz9dMp5AxHPBQOjFykBxUbJAbLJrQIWNh0Ao+CBAwwLMP+FF0D4cuo8/\r\nuImEPjCeRj+bKaM+IG0JP2yQwz6tn5U+qB2AP+vXTkA8V4dAgKfTQNyvSEF+jC1Bph3FQGxo5D95\r\nslQ/tPxpQJQjx0CKrrY/xV8GQGT1jj4EuzU+8okfP2AnBEDs5us/TDerPp3xQT4TlM0+6GdaQF4s\r\ntD4fWws+a5uyPjJJ7z5q9gE/RIxFPmxZiD7SEoA+GN98PS44LT5y6cI9Dw/HPfSD9j1k3Kk9K3wV\r\nPWimMD14iYE+wp7rPDoGDj2O6eI9TxmJPp+HRT7kLcA9jV4WPh8AMz/Hnfs/2kCvP3ePHD+bues+\r\nVL8aPpC4nj0mH0U+/EEAPoPZ/D00ryk/PBU2PzggAT+jYFU/APwCP1NnMz57UIA9BJDwPTWVgz1y\r\nWSU99nonPRB7hDwE15A8VLZMPN6whzwsiLo8Mk4iPbbI2zxrhWc9Ioh5PLAPuzyowQA9mAeWPH1H\r\najwugmM+B+P0PS6CmD70WoA+BH0tPtftpz2SfTw97jcVPdzHBz180qk8YN4WPfLBaj3RUck89fm8\r\nPMZHGj1HhXY9M7QQPZ4+8DwioaM8CmQ/PYZ38z3Oorw9OyFwPTbqkD1xFAM9DtqUPT6SQD6yGYI+\r\nalU/P1c7GD+D3uE+2JirPp1Agj5rrp49Cl1RPvUnEz/ajxw/BhFlP0VGET/D7CQ/+xu1PvIzCD4g\r\nrE49sI0yPHErozxBRP88rvE+PTLyhDyog6084rBlPAPxyzybXyo+Qb0FPsR4Tj5Uf8I+oK9bP5Ye\r\nzz/wjaI//GcCP8ZWPz7YNEw/kjERPyccWj6Y3t89wagTPsxDij1aHZs9I4i6PYZBjD5ICaY+/o68\r\nPfDUwT3y5r89C71sP+LYoj+i9no/pkJDP2Ptiz5ELyg+r/QsPo0aCT4KiYY91w0jPiuwXj3+PLc+\r\nw7TkP9aXFkBasqU/1vAcPzylMj+nT/I+GoCkPip3UD598Ik9NBIWPZ7GwT3C5K88LDMyPiNbmT6e\r\nCFw+Ct0KP8c0RD8weHQ+Y6UCPieEET0Vz3Y8OojrPNj93DzxLm49MENGPfb+Yz1w+2U9sSX6PYrh\r\n7j1JDZI9RgUTPeLDjjwCDqY7R86oPIKNCD3+beY99pvRPh32Rz/dzUY/BG5cP6DupT8gyrA/u6KE\r\nPyqhBD+k3zI/Oyq7Pgh3YT5Fjs09LRq6PLg48zxQA248aRXtPCX1FD5rixk/9oCDP1vysz5lIp0+\r\nYIUWPeV3kTww7ug8YaMGPXG/6TstCSE8Axj4PO2dBT6AKEc9c6NWPp/chT6Hj/E+queyP3Wl3D8G\r\nSlU/dpFQPtOkiD2fCTY+vUBaPtYpqj0o2XA9NNrJPR6LSD0q8CA9EqumPCW5ozwdvJs8bvAtPGpK\r\nyTvs5v87RuqVO/g6DTwYgv86b5dCO5/Mxjv2t3Y72FlJOwKV/zs15AM9OLN5PDguqDpYCUA7bLiz\r\nOmLwPTtTni47BhRPOwidJjvXnhU7OLSqO2uZDzsENAA8mR6cPP2Ruzyuwes75FK6OgSCljr0tKQ6\r\nbM1IOtDWCToMwE46+xwXOm8GrDnyHzY51oilOnD3zDrQyIE68ls7OZR/HzqzfqU5au7dOa26szmk\r\ny7Q4G57ROTq+UjmOGiA5XskIOfyXBzmOxio59vE9OX4fQDnGVfU4+Fv6OCad9Tj2Bvg4cAr3OAY2\r\nCzlGnO441lLwOEQoBDkuQeA4K4EQOVaz5Tjwf/o4kybuOLUiuDiYY/Y43CoKOYXe5DjC9gM5ej7z\r\nONWxAzkLGAE5pLzjOGU09DjMvPg4RsfmOF7A4jjiFOs4I3rbOFlr0jhTNeo4zCfSOBzm3zhs69A4\r\n7AbrON69yjhz/to499XGOEmf5jj5zuE495HjOGo0zzjInM04iATQOMR1vjhCn9845ivZOIgawjhu\r\n2NE46re1OAQ6yTi+ANA4FrjTOA2N1jg7d8E44ArYOOat0zhGWLU4bj6+OKz8tzj6y744/M+0OJfz\r\nlTjH78k4paOaOIZByjhuxME44x2/OHC83ji4vbE4/pWuOHkaqTguYKE4uz68ONIf7zjqPbY4/SKa\r\nOFT1oTjExZQ4wLXOOCWvtjgb5544yFOqOEdMszi/k9E4HhuzOLdVnzjLbpU4PN+uOKs9rTillq04\r\nLQyVOL91ojhkaZg4CXShOCq3wzhFK5k4PKJvOJv21zhCGZk4dQW8OB7DljjY36g4bZSbOH+3ojg5\r\nTNg4xUSZOJRHhjgCIZk4inWIOP4UqTgzpZU40gitOFXVjzj45pk4/qmSOHvVjjg/bpM4kECQOI2G\r\nnjj5lJM4F82CONsFhjgkt5g4cgOGOCgakzhQvnE4cNGPOI0UiDjMIJA4Yp+IOI7mnzhtEpY4CkSQ\r\nOC1EkjgceZI4jXN2OFxmiTjNu4U4TO6RODzyezglsYc4UmBzOMRAhji2RJA4HlaFOM0pjDiAEIs4\r\nJk2VOL3PkDiVXok4seaPOEFwjDjqhXc4BVOFOA7TdTgEl4A4o1mEOCx3dzhOr4M48jNzOKD0gDgE\r\nRm04hnGMOKrehTgUfXc4pkNwOGjthjiCcmk4FfFgOGxshDiGynY4TKNqOOY6hjg7Smw4ccSDOHhW\r\nbDj8Goc4KW1cOK3YhTjo84U4zrRvOIzbWjgyI244gAJyODC9ajgGzXA4tO1QODQ0aDiH2HU4rYlM\r\nONY4XTjNM184j1ZGOBL3SzjKznY4CjlJODt3UTiY0UM4Y3VPOEgNajh6THk4X5h9ON0OVDiNnUo4\r\n4mFNOF56UTgO5V84IKdPOP76WDiC/Vc4D/hqOFy1QzhEZ1k4BhpaODSxZTjNxFc427VeOKPacTgD\r\nMUU4VL9SOAB3UDiKqE049TNaOE7ZXTixSkc48IhdOEbYPjj+VU84q9RYOKpoXDjgA0I4FQhKOG5u\r\nPzgCjEw4kL5GOGqGVji6ulQ4ttdJOKSWLTgi5WY4LPhDOOCoSThQHD84anI8OEL/Kjh4YEU4TkxT\r\nOI4XKDgMFz04qsxWOAJGOzgzAj44/hc7OMNiOzjx4js49WUzOJQrYDhpgTo4yVgwOJcEOzj/xTg4\r\n/kI9OAwdSTi2+i84vU00OLujKzhkOzk4+qwzOL9EVDiWNTo45YYvOOBQGzgoHic4/YBRODZ6Sjgj\r\nbjQ4pmNFONg6LjjMlTw4gQQtOP0bRTgb0Dc4mZg3OHcHSzgcpz44mDc5OFg0LDjOFS04h7EtOGCB\r\nNzic/yo4GEI9OI/TLTiQ0yw4XoIjOPszMjhYAEI4bg0hODIoJjhosis4KjQ+OGTrMzht8yo4YeIw\r\nODAQITgKdiU4rEkwOJi3Ozjcdx04ISEbOJh2Izijjyw4OhcmOHRFITgT6xU4kdQxOLxbHTgDbTY4\r\ntIQVOI9RMzhPqTU4TbgiOE4fLjgl8io44ncnOJyyLDgpNSE4iXY2OGpDJzhixSQ4kEUoOPWnLzjj\r\n/iM4kIEZOM8MJThE4B04TEw2OOT7PDgc9T0433gmOMP8Hjj0EAw4YNEwOETuKTiAGS04dxAQODKg\r\nITiiaTE4Z885OPzGHzgn9x44ndYcOABiJjjU2Cc4sW0zOBN/IDimiAo4sCUiOANqKTgw8Rc4yaIW\r\nOG9NFji4/BI4B6QQONQZGjhD0BQ47nokOJ8bGThOwBk4pocWOEoyETiTCxE4Yq0cOEeyIzi9OBM4\r\nv/YnOOyEHDidDBI4IbgYOJR4Ejh+wTM4MZMVOCuFEjjYkxw407sLOGo0AzhY0BE4p0olOFrP+Dfs\r\nYyc4+0YTOOs6DDiEVhQ4YKYUOHAJEzgJSBo4QgMTOINHHjgn7Ck4FKQnOBl3Czhg0Os3cCsAOD5G\r\nHzjI5g84n9kWOFVsFjhEJw84vnkbOCJpFDiL6A84XJsPOJBwHDjEhhs4T9ciOPssETgwpx04tgIX\r\nOLg4CjgjFiI4RsYXOKX/DjiMPxk4ROMROGsJFTi3wCM48s4hOFQWITgIBQs4VZsEOHH0Djg3/SM4\r\nKg4VODbaHDgTsAo4FWoIOOeDAziPNxg4QzcPOJfCBzgo2/k3bjsRONqXGzhUVxs4NMkROMs/Fzjr\r\nuA84DyIIOO6ODzg7PQg4exQUOO2RDTgEVBA4088BOLd9BDhDowQ4YvEOONmgBTjauAM4KtYGONbq\r\nFDjISQM4YRT9N+0BLDh5Bgw4bpMLOHstAjj4VAQ4nODnNySVIzg4hBA4taoQOMpRFDjFDgI4hG0G\r\nOAK96De7EO833kcIONhN/zeCT/E3cfUMOFF4JDhMPxQ4ZhALOM1GBzgaZQU44rwBOG0lBzh2Hhc4\r\nCroSOKcrDDgpVAo4brsKOLOWATjnIOo3e17vNxi0DTj1lQw4RUL2N4LB/zcyQPw38aXdN8/zDjja\r\nOg44Bf3tN3e0HTgQzg84oIoCOOyh8Teynvs3bz0COGqZAzigmgk4CRQOOPU07jdG3hM4En3uN/Nj\r\n+DcfcxE41rT5N+q0BDgwLgI4vlnzN2aP6DfMYPI3Z6oMOMwxBThY3v03/AMVOHcgBjjlvRE4uYf5\r\nN1/wFjhXJA84qzUNOPPyADhsFRQ4Tp0FOCjyDDhBdRE4uG0MOB7QAjh+9wI43kwIOCWj9zdtDgA4\r\ntCElOI+BDjidJew3mCT7N/HSAjinkQI4PQkEOEdlHTgv2Rg4PKHaN9Ux+TfkohU49zTvN+crATiS\r\n4eQ3iv0AOBn7+jcaav43PFACOPky8Dfft/w3zHDfN2YC/Df3EAs4BdAMOCkKDDjLBPE3fz7gN6G9\r\nDziqFw84DDj4N0Ce/jdwWAo48wHhN0D52zcaN/s3afLyN8KwEjhVGOA3iy4ROCK9BDiyzww4/nEH\r\nOOZw+jfUyvA3tmD7N6Xn3Tf9JxE4GYMVODMjATips+w3BXIGOMpaFjjlxOk3KAXnN2sV6jeISwk4\r\neJsTOKJV9zenSvU3byUJODme4TdgQeI3LZjvNzpo7DdF7f03yXX7N+XTCzi0ZO03gdLiNwtmFDhF\r\nmAE4BVfVN+n+9DczhQY4P2fgN3XV8zfV7vI3JscEOGgpBDjdGwA4V8TzN02xBjhTqAA4NMTcN0+x\r\n7zeS5Ok3ZloJOD9T+Dd1gss3YWIIOB4mATiE1f83HCkROFN/9jeGFgo4W5AROJdhAThP8wg49MYJ\r\nOIRx8Df7jeo3cS7iN9evDDh4MAw4wvnpN4i68zet/e43XgwEOE+c8TfyVxg4ApsCOACBDjiVgUQ/\r\nu1qRP4SYEj/VeP0/H2rrQK/GQEJd36NBjvCEQE0BMEA0w+w/OpCkP7DtbT9qdL0+QdJXP1ZZdD8y\r\nBn8/7PIDP12wCj+AH40+obKKPkTTjT7+66Y+/jQUP5cQRT9JZAdApD7aPyEe6z7F8oA/cd/nP5yp\r\nDUFrY9ZBFswGQiPmdEJbWspBjVAWQreYRUH2o7I/Cx6bPyYZDUBEGGk/EVlBP9VPGkBIL51AKo1H\r\nQO9SPD8yRJE/7kLLP10ynkDEc8FA6MXKQHFRskBssmtAhY2HQCj4IEDDAsw/4UXQPhy6jz+4iYQ+\r\nMJ5GP5spoz4gbQk/bJDDPr6+lT6oHYA/69dOQDxXh0CAp9NA3K9IQX6MLUGmHcVAbGjkP3myVD+0\r\n/GlAlCPHQIqutj/FXwZAZPWOPgS7NT7yiR8/YCcEQOzm6z9MN6s+nfFBPhOUzT7oZ1pAXiy0Ph9b\r\nCz5rm7I+MknvPmr2AT9EjEU+bFmIPtISgD4Y33w9LjgtPnLpwj2ox8Y96KL2PS7CqT0rfBU9aKYw\r\nPXiJgT7Cnus8OgYOPY7p4j1PGYk+n4dFPuQtwD2NXhY+HwAzP8ed+z/aQK8/d48cP5u56z5Uvxo+\r\nkLiePSYfRT78QQA+g9n8PTSvKT88FTY/OCABP6NgVT8A/AI/U2czPntQgD0EkPA9NZWDPXJZJT1A\r\nNSg9Ge6DPIg8kTxUtkw83rCHPCyIujwyTiI9tsjbPGuFZz0iiHk8sA+7PDlUAD2YB5Y8fUdqPC6C\r\nYz4H4/Q9LoKYPvRagD4EfS0+1+2nPZJ9PD3uNxU93McHPXzSqTxg3hY98sFqPdFRyTz1+bw8gqsZ\r\nPUeFdj0ztBA9nj7wPCKhozwKZD89hnfzPc6ivD07IXA9NuqQPXEUAz0O2pQ9PpJAPrIZgj5qVT8/\r\nVzsYP4Pe4T7YmKs+nUCCPmuunj0KXVE+9ScTP9qPHD8GEWU/hDERPwnmJD/6G7U+8jMIPgCZTj2w\r\njTI8cSujPEFE/zyu8T49c7uDPBvyrDzisGU8A/HLPJtfKj5BvQU+xHhOPlR/wj6gr1s/lh7PP/CN\r\noj/8ZwI/xlY/Ptg0TD+SMRE/JxxaPpje3z3BqBM+zEOKPVodmz0AWbo9lDCMPpIXpj7qb7w9b/rB\r\nPfLmvz3tsGw/HdGiP//eej9BIkM/Y+2LPhp0KD5s9Sw+UA8JPgqJhj3XDSM+K7BePf48tz7DtOQ/\r\n1pcWQFqypT/W8Bw/PKUyP6dP8j4agKQ+KndQPgEHij0kNRY9xdPBPcLkrzwsMzI+I1uZPp4IXD6K\r\npgo/si1EP1hvdD4MkQI+J4QRPVTedTygR+o8vRTePPNJbj0wQ0Y9EMljPYT0ZT0jkfo9iuHuPUkN\r\nkj1GBRM99z2OPAIOpjsHMqk8go0IPf5t5j32m9E+HfZHP93NRj8Eblw/oO6lPyDKsD+7ooQ/KqEE\r\nP27mMj87Krs+CHdhPkWOzT3sz7k8d7fyPL5xbTxRtuw8xzwVPtlhGT/AhIM/veizPtIWnT5COxY9\r\n5XeRPDDu6DxhowY9usDpOy0JITzQb/g8HZEFPvJHRz3loFY+ArWFPut08T6T6rI/HsbcPztCVT8I\r\neVA+WxCIPbgCNj7Xelo+Yk+qPYf1cD1EfMk9oGdIPS6pID0Sq6Y8JbmjPB28mzxu8C08WYjLO+zm\r\n/ztG6pU7BVcNPEeVADtvl0I7n8zGO/a3djvYWUk7ApX/O0a1Az04s3k8OC6oOlgJQDtsuLM6YvA9\r\nO1OeLjvXSU87CJ0mOyPbFjusnKs7cjIPO75P/ztrHJw8Kvu7PAHN6zvkUro6BIKWOvS0pDpszUg6\r\n0NYJOgzATjr7HBc6bwasOa0tMDnWiKU6cPfMOtDIgTryWzs5klcgOrN+pTngCds5rbqzOaTLtDg/\r\nvtU5juhOOXfNIjkyUgo5p+8MOT5VJzk6aEI5XMhBOdLX9zhAtPo4nOD/ODCv9zg4NPc40ZcPObiQ\r\nBDlAAfg4FrMIOSQo3jjMegc5ANvnOCxOADkguPM4voG8OGqa6Ti3ngg5C/7ZOOVB+TjDGfs4EHsK\r\nOVir/jicM984ZG34OIEZ9zhMIuM4bJ/sOKW09jhwe9U4VubEOPP85zgB/NY45YrbONBgzzgaRuk4\r\njQTHOKJZ3Dgm/8M4V9naOOs53Dj6beI4aELXOJY5zzhug9A4/SDAOFxA2jhoG9g4dtvKOALd1Dhi\r\nNbE44fPGOGxKzjjbWs84pCjdOMU/yTg0Kc842tLQOPburTgem7o4s6qqOGk0wTiYZsE4bqiUOM13\r\nvjhWdZs4JffNOBZDtzjezLs44uLaOG0irTghwaI4DdWrOMysnjh7Hbk4dEbzOKKcujgJJpo4WeKe\r\nOOZNkzhkh8g4qXKoOPbxnzjaTqg4NSSiOOaouDg2c7E4xiqtOEm2oDi0D8k4acOsOF0UojhM15M4\r\n5ai2OEl1nzhdy6I4y7DDOPeymTj8/4s4ISu7OJudmzh0D784JfKGOKAomzj5m5s4/MadOD7n1zh1\r\nt5448zuCOJEmmjhwmIU4xpeZOCLFiTiOU584gHqSONoMnDisnpI40U6UOKY1nDhC6I44CJObOI3v\r\nlTie34Y4BkWQOBR/lTgOZXA4qoaNOKQMgziJa5M4e+yAOEr2jzjNS4k4BhagODKZjzi+OJQ4J/aR\r\nOPAGgzgAdXE4z7qNOG0HhzhP44o4kLd2OM0phDigl2o4jreGOJBbmDjSUIE4CPCDOADhhzhappI4\r\n0DuIOBDAgzg4eo84fQKEONVedjjPtIg4iyaDON0Pgji05YM4JpN3OB1+gjgmtm84gh6OOHHmeji8\r\nB4s4KnaHOF69eTidmW040vuDOLQgazhqj184so2COJC7dTiwOnA40LCDOJm4YTiUVnQ42CJ1OECn\r\nhTisxlk4KgWAOI73ejgF7mg41N1eOOikcTgkC2c4BKNpOFpraDg8mlM45OhmOCJ6eDgHmE44TYdu\r\nOGpfaTgOi0M4cA1YOAAkejjIbUA4dNBSOANwQjiooVs4iclfOK79ajg6ZXQ4mOVSOAYXSzgegGE4\r\nIDt1OIg6Yjhkz1g4aXBSOO7bVTjjiGc42F08OL7GWDgQaFU4h21TOKcJUTgTCmE4AqdoONDASDhl\r\ny1Q4hXZKODr2UTgkEWQ4srBkOHV7SzhPRXA4V3FPOK/qYjhAZ1U41o9aOBikVThy0Ec47ok9OBCu\r\nTDjBPkk48CdaONR+XTiC2VQ4K9QzOIXMXTha5Tw4tupSOOM/QDj9nTg42UkzODJNTDhDkFI4kNYl\r\nOM3UOjhkgF44P/s7OFF1QzgtjUU4RudGOKCYPDibHEA4AhJiOF1URDiKwS84PhA4OCbNLzi1AjE4\r\nrlZDOHh9ODgMnjQ4dF4qODwfODgtRTQ4hClWOLeMMjj5OkM4zYQsOM30Ojh6Yks4rzRROPn9OziJ\r\n9Us4qng2OBQJOThq+jA4BgBIOBYYMjjBxjc4ph5LOATLOji6Ozk4ObcnOJS0LTgvBSc4pm8qOD6f\r\nMzgzj0c4WLkvOLTkMDhUTCE4ibs8OGbpPTgDqiU4HqQvOKx+KziNizI4JkQlOITLMTjl4C04pZgk\r\nOAKBJjgO8Dc4png3OBZjGThYeh84yfMpOF/jKzjKJSg4FU8fOIr1GzinWTw41sgcOOjmNThQvho4\r\nvrkvOOM3Nzj1LiE4caMyOO72JDgPjyU4hscpOJKFFji+9z44flwmOCyzIjjErSI4zL4bOF4aIDjK\r\n7SQ490kgOMrnKDgnwEg47oU9OArPNjjGOy848ZkhOJCFAjh34CY4XH0xOK4IMzjyWQ84qMsbOE8M\r\nOzieNTk4RNQVOJJhIjjL4BU4jlsmOOU9IjiFCDs48d8qODiTEzhlsig4Rv4tOJi8FDg0QxY40OQP\r\nOEUCEziVDxI4TjUVOJLmDzjqlhs4OsQWOCzFEjgctA44X9oPOJW3CDhl1BA4a9McOHCODjj1GSc4\r\nPA4SOLHBGziLbRY4itMTOMBlODit+x44q4IbOFTCHTjyjxA4lUMDOD2/DDiiYhc41JD8N6B6NDgy\r\nlSc4NsgPOIZGETi8ogA4Z7QOOLvpITgJiRE4khwWOHogGThdoxs4WpX5N4Wa9Td+t/836CcnODaA\r\nCDh0HhI4ct4kOPJoDjiIgyE4bLoVOL4rCjhdAgc4mvUcOH2NGThROQ84ujQTOBQhKTh60yA4MTcN\r\nOKt+Izh2GSM4x0IVOATHGjh2/AY4iQYVOMPzIDgE7hM4U0UcOG7HADgR6A448I8ROEVkEzgRDw44\r\ngGcmODybFjgjqgs45gUDOAxKBziYWwk4wn30NwMV9DcdURc4XGgXOJLMDjheNg04YqoXOGN1Fjgv\r\nZR04+0ETODL1Bzgt2BM4qMIAOEqMBTg7z+437jkDOPYuADhP1RM4QhwHOEqCCDibFwo45DgLOFHH\r\nBTiMPvM30M4vODnbEzjpsA44c5j+N1mTBDh/Ae03+PggOOg2DjjHbAc4UJcbOKHsBDhmzQI4V2nl\r\nN1TD9jcg8P03BWb2N5BB8TeD5w04+TMeOIUvFTj0EAo4/RgDOBphCTgMqgE4x98IOEiTBzhNURs4\r\njlIWOLDkCDhAzPw3gRf+N+aA9Dck3fM3OKQNOC1qFzh4Jf03OEMDOPpFBDgX5uM31McPOGKUCTjw\r\nhOk3IcIbOBz1DTiH/Pk3KpPwN46t+zdO3Qg4eAj4N/TKAjiAcQ04bY3rNyxjEzjTJO83MQcHOPW7\r\nDDgiX+8350AKOJWwDTgUzgI4tRLlNzZNADi7K/43S73+NzYlBzhuvxU4ohcBOGwiEDhT6vo3U/wL\r\nOHFTBThJNRI4EM/3N4DNCzjDCes3rV4SOOuMGzg/qBM456IMOBU95zfEBAI4J8X+N4wxBjgAsx44\r\nHvwXOIoR8DfZ2go4JLIGOBsL/je4hQk49fcOOAwAFzhWEQM4NP4IOGusCDgCjO036QnqNx195Tcb\r\nKfY3ZLAAOE7f9zdRbvs3Dd4AOKkgCjgVtfY3XBb3NxePFDihPhE4s3MCOL4z5jccY9s3evkKONSY\r\nDzhByes3BKAEOLkmDzjLR/k3qHjZN9Am8TfWQPg3SbAdOD+K8zd63hk4i0YJOCZA+zfKBfM3AbP3\r\nNzSt/jdgzPc3XRHMN13WATgrxQw4mdgDOPA9BzgMGQw4E+UGOMl96zeTDP039TvkN/aoATiq9Bo4\r\nfDQDOFq77Tfw8QY4nj/3N/oM7TfcNeU39lznNwH7CjiuPf43YqAAOGg14zdCOtQ3zukROHDkDTh8\r\nb943cDT4N9at/Te2u9k3srfoNwd67jelVgo4hiwMOF989jeTr+I3mu7uN87AADhVF+w3zFT8N+z+\r\n7DexMQg49Y3xN/I71TdzpgY4qwP7NwKD+TcIWwg4KIIGOF6pCDi3vAk4A139Nym8DzjCRQU4izT/\r\nN4HG/zfFRN03UvP8N09sDDh8+/c3A6jsN4cg+zfcYPk3yiD1NypmDziaQwA4ABAWOA==",
                            "noiseTrainingType" : "default"
                          }
                        }
                    ],
                    "start" : 3187,
                    "duration" : 271,
                    "mediaStart" : 9595,
                    "mediaDuration" : 271,
                    "scalar" : 1,
                    "metadata" : {
                      "WinSubProjectDisplayName" : "",
                      "clipSpeedAttribute" : false
                    },
                    "animationTracks" : {

                    }
                  },
                  {
                    "id" : 84,
                    "_type" : "StitchedMedia",
                    "minMediaStart" : 0,
                    "attributes" : {
                      "ident" : "tower-columns-02",
                      "gain" : 1.0,
                      "mixToMono" : false
                    },
                    "parameters" : {
                      "volume" : 1.0,
                      "cursorOpacity" : 1.0,
                      "cursorScale" : 1.0
                    },
                    "medias" : [
                        {
                          "id" : 85,
                          "_type" : "AMFile",
                          "src" : 2,
                          "trackNumber" : 1,
                          "attributes" : {
                            "ident" : "Rec 02-03-20_008",
                            "sampleRate" : 44100,
                            "bitDepth" : 16,
                            "gain" : 1.0,
                            "mixToMono" : false
                          },
                            "channelNumber" : "0,1",
                          "effects" : [

                          ],
                          "start" : 0,
                          "duration" : 10292,
                          "mediaStart" : 0,
                          "mediaDuration" : 10292,
                          "scalar" : 1,
                          "metadata" : {
                            "WinSubProjectDisplayName" : "",
                            "clipSpeedAttribute" : false
                          },
                          "animationTracks" : {

                          }
                        },
                        {
                          "id" : 86,
                          "_type" : "AMFile",
                          "src" : 2,
                          "trackNumber" : 1,
                          "attributes" : {
                            "ident" : "Rec 02-03-20_008",
                            "sampleRate" : 44100,
                            "bitDepth" : 16,
                            "gain" : 1.0,
                            "mixToMono" : false
                          },
                            "channelNumber" : "0,1",
                          "effects" : [

                          ],
                          "start" : 10292,
                          "duration" : 36,
                          "mediaStart" : 10326,
                          "mediaDuration" : 36,
                          "scalar" : 1,
                          "metadata" : {
                            "WinSubProjectDisplayName" : "",
                            "clipSpeedAttribute" : false
                          },
                          "animationTracks" : {

                          }
                        },
                        {
                          "id" : 87,
                          "_type" : "AMFile",
                          "src" : 2,
                          "trackNumber" : 1,
                          "attributes" : {
                            "ident" : "Rec 02-03-20_008",
                            "sampleRate" : 44100,
                            "bitDepth" : 16,
                            "gain" : 1.0,
                            "mixToMono" : false
                          },
                            "channelNumber" : "0,1",
                          "effects" : [

                          ],
                          "start" : 10328,
                          "duration" : 6867,
                          "mediaStart" : 10429,
                          "mediaDuration" : 6867,
                          "scalar" : 1,
                          "metadata" : {
                            "WinSubProjectDisplayName" : "",
                            "clipSpeedAttribute" : false
                          },
                          "animationTracks" : {

                          }
                        }
                    ],
                    "effects" : [
                        {
                          "effectName" : "NoiseReduction",
                          "category" : "categoryAudioEffects",
                          "parameters" : {
                            "denoiserAmount" : 20.0,
                            "denoiserThreshold" : 0.0,
                            "noiseProfile" : "nZZEP5RikT+EmBI/KnP9Pwpb60CvxkBCXd+jQY7whEBNATBANMPsP4KGpD+w7W0/anS9Pp7DVz9W\r\nWXQ/MgZ/P+zyAz9dsAo/gB+NPqGyij5E040+/uumPv40FD+XEEU/tV4HQPJC2j8hHus+xuOAP6zl\r\n5z90pQ1Ba2PWQS3MBkIj5nRCW1rKQY1QFkK3mEVB9qOyPwsemz8mGQ1AijZpPxFZQT/VTxpASC+d\r\nQCqNR0DvUjw/MkSRP+5Cyz9dMp5AxHPBQOjFykBxUbJAbLJrQIWNh0Ao+CBAwwLMP+FF0D4cuo8/\r\nuImEPjCeRj+bKaM+IG0JP2yQwz6tn5U+qB2AP+vXTkA8V4dAgKfTQNyvSEF+jC1Bph3FQGxo5D95\r\nslQ/tPxpQJQjx0CKrrY/xV8GQGT1jj4EuzU+8okfP2AnBEDs5us/TDerPp3xQT4TlM0+6GdaQF4s\r\ntD4fWws+a5uyPjJJ7z5q9gE/RIxFPmxZiD7SEoA+GN98PS44LT5y6cI9Dw/HPfSD9j1k3Kk9K3wV\r\nPWimMD14iYE+wp7rPDoGDj2O6eI9TxmJPp+HRT7kLcA9jV4WPh8AMz/Hnfs/2kCvP3ePHD+bues+\r\nVL8aPpC4nj0mH0U+/EEAPoPZ/D00ryk/PBU2PzggAT+jYFU/APwCP1NnMz57UIA9BJDwPTWVgz1y\r\nWSU99nonPRB7hDwE15A8VLZMPN6whzwsiLo8Mk4iPbbI2zxrhWc9Ioh5PLAPuzyowQA9mAeWPH1H\r\najwugmM+B+P0PS6CmD70WoA+BH0tPtftpz2SfTw97jcVPdzHBz180qk8YN4WPfLBaj3RUck89fm8\r\nPMZHGj1HhXY9M7QQPZ4+8DwioaM8CmQ/PYZ38z3Oorw9OyFwPTbqkD1xFAM9DtqUPT6SQD6yGYI+\r\nalU/P1c7GD+D3uE+2JirPp1Agj5rrp49Cl1RPvUnEz/ajxw/BhFlP0VGET/D7CQ/+xu1PvIzCD4g\r\nrE49sI0yPHErozxBRP88rvE+PTLyhDyog6084rBlPAPxyzybXyo+Qb0FPsR4Tj5Uf8I+oK9bP5Ye\r\nzz/wjaI//GcCP8ZWPz7YNEw/kjERPyccWj6Y3t89wagTPsxDij1aHZs9I4i6PYZBjD5ICaY+/o68\r\nPfDUwT3y5r89C71sP+LYoj+i9no/pkJDP2Ptiz5ELyg+r/QsPo0aCT4KiYY91w0jPiuwXj3+PLc+\r\nw7TkP9aXFkBasqU/1vAcPzylMj+nT/I+GoCkPip3UD598Ik9NBIWPZ7GwT3C5K88LDMyPiNbmT6e\r\nCFw+Ct0KP8c0RD8weHQ+Y6UCPieEET0Vz3Y8OojrPNj93DzxLm49MENGPfb+Yz1w+2U9sSX6PYrh\r\n7j1JDZI9RgUTPeLDjjwCDqY7R86oPIKNCD3+beY99pvRPh32Rz/dzUY/BG5cP6DupT8gyrA/u6KE\r\nPyqhBD+k3zI/Oyq7Pgh3YT5Fjs09LRq6PLg48zxQA248aRXtPCX1FD5rixk/9oCDP1vysz5lIp0+\r\nYIUWPeV3kTww7ug8YaMGPXG/6TstCSE8Axj4PO2dBT6AKEc9c6NWPp/chT6Hj/E+queyP3Wl3D8G\r\nSlU/dpFQPtOkiD2fCTY+vUBaPtYpqj0o2XA9NNrJPR6LSD0q8CA9EqumPCW5ozwdvJs8bvAtPGpK\r\nyTvs5v87RuqVO/g6DTwYgv86b5dCO5/Mxjv2t3Y72FlJOwKV/zs15AM9OLN5PDguqDpYCUA7bLiz\r\nOmLwPTtTni47BhRPOwidJjvXnhU7OLSqO2uZDzsENAA8mR6cPP2Ruzyuwes75FK6OgSCljr0tKQ6\r\nbM1IOtDWCToMwE46+xwXOm8GrDnyHzY51oilOnD3zDrQyIE68ls7OZR/HzqzfqU5au7dOa26szmk\r\ny7Q4G57ROTq+UjmOGiA5XskIOfyXBzmOxio59vE9OX4fQDnGVfU4+Fv6OCad9Tj2Bvg4cAr3OAY2\r\nCzlGnO441lLwOEQoBDkuQeA4K4EQOVaz5Tjwf/o4kybuOLUiuDiYY/Y43CoKOYXe5DjC9gM5ej7z\r\nONWxAzkLGAE5pLzjOGU09DjMvPg4RsfmOF7A4jjiFOs4I3rbOFlr0jhTNeo4zCfSOBzm3zhs69A4\r\n7AbrON69yjhz/to499XGOEmf5jj5zuE495HjOGo0zzjInM04iATQOMR1vjhCn9845ivZOIgawjhu\r\n2NE46re1OAQ6yTi+ANA4FrjTOA2N1jg7d8E44ArYOOat0zhGWLU4bj6+OKz8tzj6y744/M+0OJfz\r\nlTjH78k4paOaOIZByjhuxME44x2/OHC83ji4vbE4/pWuOHkaqTguYKE4uz68ONIf7zjqPbY4/SKa\r\nOFT1oTjExZQ4wLXOOCWvtjgb5544yFOqOEdMszi/k9E4HhuzOLdVnzjLbpU4PN+uOKs9rTillq04\r\nLQyVOL91ojhkaZg4CXShOCq3wzhFK5k4PKJvOJv21zhCGZk4dQW8OB7DljjY36g4bZSbOH+3ojg5\r\nTNg4xUSZOJRHhjgCIZk4inWIOP4UqTgzpZU40gitOFXVjzj45pk4/qmSOHvVjjg/bpM4kECQOI2G\r\nnjj5lJM4F82CONsFhjgkt5g4cgOGOCgakzhQvnE4cNGPOI0UiDjMIJA4Yp+IOI7mnzhtEpY4CkSQ\r\nOC1EkjgceZI4jXN2OFxmiTjNu4U4TO6RODzyezglsYc4UmBzOMRAhji2RJA4HlaFOM0pjDiAEIs4\r\nJk2VOL3PkDiVXok4seaPOEFwjDjqhXc4BVOFOA7TdTgEl4A4o1mEOCx3dzhOr4M48jNzOKD0gDgE\r\nRm04hnGMOKrehTgUfXc4pkNwOGjthjiCcmk4FfFgOGxshDiGynY4TKNqOOY6hjg7Smw4ccSDOHhW\r\nbDj8Goc4KW1cOK3YhTjo84U4zrRvOIzbWjgyI244gAJyODC9ajgGzXA4tO1QODQ0aDiH2HU4rYlM\r\nONY4XTjNM184j1ZGOBL3SzjKznY4CjlJODt3UTiY0UM4Y3VPOEgNajh6THk4X5h9ON0OVDiNnUo4\r\n4mFNOF56UTgO5V84IKdPOP76WDiC/Vc4D/hqOFy1QzhEZ1k4BhpaODSxZTjNxFc427VeOKPacTgD\r\nMUU4VL9SOAB3UDiKqE049TNaOE7ZXTixSkc48IhdOEbYPjj+VU84q9RYOKpoXDjgA0I4FQhKOG5u\r\nPzgCjEw4kL5GOGqGVji6ulQ4ttdJOKSWLTgi5WY4LPhDOOCoSThQHD84anI8OEL/Kjh4YEU4TkxT\r\nOI4XKDgMFz04qsxWOAJGOzgzAj44/hc7OMNiOzjx4js49WUzOJQrYDhpgTo4yVgwOJcEOzj/xTg4\r\n/kI9OAwdSTi2+i84vU00OLujKzhkOzk4+qwzOL9EVDiWNTo45YYvOOBQGzgoHic4/YBRODZ6Sjgj\r\nbjQ4pmNFONg6LjjMlTw4gQQtOP0bRTgb0Dc4mZg3OHcHSzgcpz44mDc5OFg0LDjOFS04h7EtOGCB\r\nNzic/yo4GEI9OI/TLTiQ0yw4XoIjOPszMjhYAEI4bg0hODIoJjhosis4KjQ+OGTrMzht8yo4YeIw\r\nODAQITgKdiU4rEkwOJi3Ozjcdx04ISEbOJh2Izijjyw4OhcmOHRFITgT6xU4kdQxOLxbHTgDbTY4\r\ntIQVOI9RMzhPqTU4TbgiOE4fLjgl8io44ncnOJyyLDgpNSE4iXY2OGpDJzhixSQ4kEUoOPWnLzjj\r\n/iM4kIEZOM8MJThE4B04TEw2OOT7PDgc9T0433gmOMP8Hjj0EAw4YNEwOETuKTiAGS04dxAQODKg\r\nITiiaTE4Z885OPzGHzgn9x44ndYcOABiJjjU2Cc4sW0zOBN/IDimiAo4sCUiOANqKTgw8Rc4yaIW\r\nOG9NFji4/BI4B6QQONQZGjhD0BQ47nokOJ8bGThOwBk4pocWOEoyETiTCxE4Yq0cOEeyIzi9OBM4\r\nv/YnOOyEHDidDBI4IbgYOJR4Ejh+wTM4MZMVOCuFEjjYkxw407sLOGo0AzhY0BE4p0olOFrP+Dfs\r\nYyc4+0YTOOs6DDiEVhQ4YKYUOHAJEzgJSBo4QgMTOINHHjgn7Ck4FKQnOBl3Czhg0Os3cCsAOD5G\r\nHzjI5g84n9kWOFVsFjhEJw84vnkbOCJpFDiL6A84XJsPOJBwHDjEhhs4T9ciOPssETgwpx04tgIX\r\nOLg4CjgjFiI4RsYXOKX/DjiMPxk4ROMROGsJFTi3wCM48s4hOFQWITgIBQs4VZsEOHH0Djg3/SM4\r\nKg4VODbaHDgTsAo4FWoIOOeDAziPNxg4QzcPOJfCBzgo2/k3bjsRONqXGzhUVxs4NMkROMs/Fzjr\r\nuA84DyIIOO6ODzg7PQg4exQUOO2RDTgEVBA4088BOLd9BDhDowQ4YvEOONmgBTjauAM4KtYGONbq\r\nFDjISQM4YRT9N+0BLDh5Bgw4bpMLOHstAjj4VAQ4nODnNySVIzg4hBA4taoQOMpRFDjFDgI4hG0G\r\nOAK96De7EO833kcIONhN/zeCT/E3cfUMOFF4JDhMPxQ4ZhALOM1GBzgaZQU44rwBOG0lBzh2Hhc4\r\nCroSOKcrDDgpVAo4brsKOLOWATjnIOo3e17vNxi0DTj1lQw4RUL2N4LB/zcyQPw38aXdN8/zDjja\r\nOg44Bf3tN3e0HTgQzg84oIoCOOyh8Teynvs3bz0COGqZAzigmgk4CRQOOPU07jdG3hM4En3uN/Nj\r\n+DcfcxE41rT5N+q0BDgwLgI4vlnzN2aP6DfMYPI3Z6oMOMwxBThY3v03/AMVOHcgBjjlvRE4uYf5\r\nN1/wFjhXJA84qzUNOPPyADhsFRQ4Tp0FOCjyDDhBdRE4uG0MOB7QAjh+9wI43kwIOCWj9zdtDgA4\r\ntCElOI+BDjidJew3mCT7N/HSAjinkQI4PQkEOEdlHTgv2Rg4PKHaN9Ux+TfkohU49zTvN+crATiS\r\n4eQ3iv0AOBn7+jcaav43PFACOPky8Dfft/w3zHDfN2YC/Df3EAs4BdAMOCkKDDjLBPE3fz7gN6G9\r\nDziqFw84DDj4N0Ce/jdwWAo48wHhN0D52zcaN/s3afLyN8KwEjhVGOA3iy4ROCK9BDiyzww4/nEH\r\nOOZw+jfUyvA3tmD7N6Xn3Tf9JxE4GYMVODMjATips+w3BXIGOMpaFjjlxOk3KAXnN2sV6jeISwk4\r\neJsTOKJV9zenSvU3byUJODme4TdgQeI3LZjvNzpo7DdF7f03yXX7N+XTCzi0ZO03gdLiNwtmFDhF\r\nmAE4BVfVN+n+9DczhQY4P2fgN3XV8zfV7vI3JscEOGgpBDjdGwA4V8TzN02xBjhTqAA4NMTcN0+x\r\n7zeS5Ok3ZloJOD9T+Dd1gss3YWIIOB4mATiE1f83HCkROFN/9jeGFgo4W5AROJdhAThP8wg49MYJ\r\nOIRx8Df7jeo3cS7iN9evDDh4MAw4wvnpN4i68zet/e43XgwEOE+c8TfyVxg4ApsCOACBDjiVgUQ/\r\nu1qRP4SYEj/VeP0/H2rrQK/GQEJd36NBjvCEQE0BMEA0w+w/OpCkP7DtbT9qdL0+QdJXP1ZZdD8y\r\nBn8/7PIDP12wCj+AH40+obKKPkTTjT7+66Y+/jQUP5cQRT9JZAdApD7aPyEe6z7F8oA/cd/nP5yp\r\nDUFrY9ZBFswGQiPmdEJbWspBjVAWQreYRUH2o7I/Cx6bPyYZDUBEGGk/EVlBP9VPGkBIL51AKo1H\r\nQO9SPD8yRJE/7kLLP10ynkDEc8FA6MXKQHFRskBssmtAhY2HQCj4IEDDAsw/4UXQPhy6jz+4iYQ+\r\nMJ5GP5spoz4gbQk/bJDDPr6+lT6oHYA/69dOQDxXh0CAp9NA3K9IQX6MLUGmHcVAbGjkP3myVD+0\r\n/GlAlCPHQIqutj/FXwZAZPWOPgS7NT7yiR8/YCcEQOzm6z9MN6s+nfFBPhOUzT7oZ1pAXiy0Ph9b\r\nCz5rm7I+MknvPmr2AT9EjEU+bFmIPtISgD4Y33w9LjgtPnLpwj2ox8Y96KL2PS7CqT0rfBU9aKYw\r\nPXiJgT7Cnus8OgYOPY7p4j1PGYk+n4dFPuQtwD2NXhY+HwAzP8ed+z/aQK8/d48cP5u56z5Uvxo+\r\nkLiePSYfRT78QQA+g9n8PTSvKT88FTY/OCABP6NgVT8A/AI/U2czPntQgD0EkPA9NZWDPXJZJT1A\r\nNSg9Ge6DPIg8kTxUtkw83rCHPCyIujwyTiI9tsjbPGuFZz0iiHk8sA+7PDlUAD2YB5Y8fUdqPC6C\r\nYz4H4/Q9LoKYPvRagD4EfS0+1+2nPZJ9PD3uNxU93McHPXzSqTxg3hY98sFqPdFRyTz1+bw8gqsZ\r\nPUeFdj0ztBA9nj7wPCKhozwKZD89hnfzPc6ivD07IXA9NuqQPXEUAz0O2pQ9PpJAPrIZgj5qVT8/\r\nVzsYP4Pe4T7YmKs+nUCCPmuunj0KXVE+9ScTP9qPHD8GEWU/hDERPwnmJD/6G7U+8jMIPgCZTj2w\r\njTI8cSujPEFE/zyu8T49c7uDPBvyrDzisGU8A/HLPJtfKj5BvQU+xHhOPlR/wj6gr1s/lh7PP/CN\r\noj/8ZwI/xlY/Ptg0TD+SMRE/JxxaPpje3z3BqBM+zEOKPVodmz0AWbo9lDCMPpIXpj7qb7w9b/rB\r\nPfLmvz3tsGw/HdGiP//eej9BIkM/Y+2LPhp0KD5s9Sw+UA8JPgqJhj3XDSM+K7BePf48tz7DtOQ/\r\n1pcWQFqypT/W8Bw/PKUyP6dP8j4agKQ+KndQPgEHij0kNRY9xdPBPcLkrzwsMzI+I1uZPp4IXD6K\r\npgo/si1EP1hvdD4MkQI+J4QRPVTedTygR+o8vRTePPNJbj0wQ0Y9EMljPYT0ZT0jkfo9iuHuPUkN\r\nkj1GBRM99z2OPAIOpjsHMqk8go0IPf5t5j32m9E+HfZHP93NRj8Eblw/oO6lPyDKsD+7ooQ/KqEE\r\nP27mMj87Krs+CHdhPkWOzT3sz7k8d7fyPL5xbTxRtuw8xzwVPtlhGT/AhIM/veizPtIWnT5COxY9\r\n5XeRPDDu6DxhowY9usDpOy0JITzQb/g8HZEFPvJHRz3loFY+ArWFPut08T6T6rI/HsbcPztCVT8I\r\neVA+WxCIPbgCNj7Xelo+Yk+qPYf1cD1EfMk9oGdIPS6pID0Sq6Y8JbmjPB28mzxu8C08WYjLO+zm\r\n/ztG6pU7BVcNPEeVADtvl0I7n8zGO/a3djvYWUk7ApX/O0a1Az04s3k8OC6oOlgJQDtsuLM6YvA9\r\nO1OeLjvXSU87CJ0mOyPbFjusnKs7cjIPO75P/ztrHJw8Kvu7PAHN6zvkUro6BIKWOvS0pDpszUg6\r\n0NYJOgzATjr7HBc6bwasOa0tMDnWiKU6cPfMOtDIgTryWzs5klcgOrN+pTngCds5rbqzOaTLtDg/\r\nvtU5juhOOXfNIjkyUgo5p+8MOT5VJzk6aEI5XMhBOdLX9zhAtPo4nOD/ODCv9zg4NPc40ZcPObiQ\r\nBDlAAfg4FrMIOSQo3jjMegc5ANvnOCxOADkguPM4voG8OGqa6Ti3ngg5C/7ZOOVB+TjDGfs4EHsK\r\nOVir/jicM984ZG34OIEZ9zhMIuM4bJ/sOKW09jhwe9U4VubEOPP85zgB/NY45YrbONBgzzgaRuk4\r\njQTHOKJZ3Dgm/8M4V9naOOs53Dj6beI4aELXOJY5zzhug9A4/SDAOFxA2jhoG9g4dtvKOALd1Dhi\r\nNbE44fPGOGxKzjjbWs84pCjdOMU/yTg0Kc842tLQOPburTgem7o4s6qqOGk0wTiYZsE4bqiUOM13\r\nvjhWdZs4JffNOBZDtzjezLs44uLaOG0irTghwaI4DdWrOMysnjh7Hbk4dEbzOKKcujgJJpo4WeKe\r\nOOZNkzhkh8g4qXKoOPbxnzjaTqg4NSSiOOaouDg2c7E4xiqtOEm2oDi0D8k4acOsOF0UojhM15M4\r\n5ai2OEl1nzhdy6I4y7DDOPeymTj8/4s4ISu7OJudmzh0D784JfKGOKAomzj5m5s4/MadOD7n1zh1\r\nt5448zuCOJEmmjhwmIU4xpeZOCLFiTiOU584gHqSONoMnDisnpI40U6UOKY1nDhC6I44CJObOI3v\r\nlTie34Y4BkWQOBR/lTgOZXA4qoaNOKQMgziJa5M4e+yAOEr2jzjNS4k4BhagODKZjzi+OJQ4J/aR\r\nOPAGgzgAdXE4z7qNOG0HhzhP44o4kLd2OM0phDigl2o4jreGOJBbmDjSUIE4CPCDOADhhzhappI4\r\n0DuIOBDAgzg4eo84fQKEONVedjjPtIg4iyaDON0Pgji05YM4JpN3OB1+gjgmtm84gh6OOHHmeji8\r\nB4s4KnaHOF69eTidmW040vuDOLQgazhqj184so2COJC7dTiwOnA40LCDOJm4YTiUVnQ42CJ1OECn\r\nhTisxlk4KgWAOI73ejgF7mg41N1eOOikcTgkC2c4BKNpOFpraDg8mlM45OhmOCJ6eDgHmE44TYdu\r\nOGpfaTgOi0M4cA1YOAAkejjIbUA4dNBSOANwQjiooVs4iclfOK79ajg6ZXQ4mOVSOAYXSzgegGE4\r\nIDt1OIg6Yjhkz1g4aXBSOO7bVTjjiGc42F08OL7GWDgQaFU4h21TOKcJUTgTCmE4AqdoONDASDhl\r\ny1Q4hXZKODr2UTgkEWQ4srBkOHV7SzhPRXA4V3FPOK/qYjhAZ1U41o9aOBikVThy0Ec47ok9OBCu\r\nTDjBPkk48CdaONR+XTiC2VQ4K9QzOIXMXTha5Tw4tupSOOM/QDj9nTg42UkzODJNTDhDkFI4kNYl\r\nOM3UOjhkgF44P/s7OFF1QzgtjUU4RudGOKCYPDibHEA4AhJiOF1URDiKwS84PhA4OCbNLzi1AjE4\r\nrlZDOHh9ODgMnjQ4dF4qODwfODgtRTQ4hClWOLeMMjj5OkM4zYQsOM30Ojh6Yks4rzRROPn9OziJ\r\n9Us4qng2OBQJOThq+jA4BgBIOBYYMjjBxjc4ph5LOATLOji6Ozk4ObcnOJS0LTgvBSc4pm8qOD6f\r\nMzgzj0c4WLkvOLTkMDhUTCE4ibs8OGbpPTgDqiU4HqQvOKx+KziNizI4JkQlOITLMTjl4C04pZgk\r\nOAKBJjgO8Dc4png3OBZjGThYeh84yfMpOF/jKzjKJSg4FU8fOIr1GzinWTw41sgcOOjmNThQvho4\r\nvrkvOOM3Nzj1LiE4caMyOO72JDgPjyU4hscpOJKFFji+9z44flwmOCyzIjjErSI4zL4bOF4aIDjK\r\n7SQ490kgOMrnKDgnwEg47oU9OArPNjjGOy848ZkhOJCFAjh34CY4XH0xOK4IMzjyWQ84qMsbOE8M\r\nOzieNTk4RNQVOJJhIjjL4BU4jlsmOOU9IjiFCDs48d8qODiTEzhlsig4Rv4tOJi8FDg0QxY40OQP\r\nOEUCEziVDxI4TjUVOJLmDzjqlhs4OsQWOCzFEjgctA44X9oPOJW3CDhl1BA4a9McOHCODjj1GSc4\r\nPA4SOLHBGziLbRY4itMTOMBlODit+x44q4IbOFTCHTjyjxA4lUMDOD2/DDiiYhc41JD8N6B6NDgy\r\nlSc4NsgPOIZGETi8ogA4Z7QOOLvpITgJiRE4khwWOHogGThdoxs4WpX5N4Wa9Td+t/836CcnODaA\r\nCDh0HhI4ct4kOPJoDjiIgyE4bLoVOL4rCjhdAgc4mvUcOH2NGThROQ84ujQTOBQhKTh60yA4MTcN\r\nOKt+Izh2GSM4x0IVOATHGjh2/AY4iQYVOMPzIDgE7hM4U0UcOG7HADgR6A448I8ROEVkEzgRDw44\r\ngGcmODybFjgjqgs45gUDOAxKBziYWwk4wn30NwMV9DcdURc4XGgXOJLMDjheNg04YqoXOGN1Fjgv\r\nZR04+0ETODL1Bzgt2BM4qMIAOEqMBTg7z+437jkDOPYuADhP1RM4QhwHOEqCCDibFwo45DgLOFHH\r\nBTiMPvM30M4vODnbEzjpsA44c5j+N1mTBDh/Ae03+PggOOg2DjjHbAc4UJcbOKHsBDhmzQI4V2nl\r\nN1TD9jcg8P03BWb2N5BB8TeD5w04+TMeOIUvFTj0EAo4/RgDOBphCTgMqgE4x98IOEiTBzhNURs4\r\njlIWOLDkCDhAzPw3gRf+N+aA9Dck3fM3OKQNOC1qFzh4Jf03OEMDOPpFBDgX5uM31McPOGKUCTjw\r\nhOk3IcIbOBz1DTiH/Pk3KpPwN46t+zdO3Qg4eAj4N/TKAjiAcQ04bY3rNyxjEzjTJO83MQcHOPW7\r\nDDgiX+8350AKOJWwDTgUzgI4tRLlNzZNADi7K/43S73+NzYlBzhuvxU4ohcBOGwiEDhT6vo3U/wL\r\nOHFTBThJNRI4EM/3N4DNCzjDCes3rV4SOOuMGzg/qBM456IMOBU95zfEBAI4J8X+N4wxBjgAsx44\r\nHvwXOIoR8DfZ2go4JLIGOBsL/je4hQk49fcOOAwAFzhWEQM4NP4IOGusCDgCjO036QnqNx195Tcb\r\nKfY3ZLAAOE7f9zdRbvs3Dd4AOKkgCjgVtfY3XBb3NxePFDihPhE4s3MCOL4z5jccY9s3evkKONSY\r\nDzhByes3BKAEOLkmDzjLR/k3qHjZN9Am8TfWQPg3SbAdOD+K8zd63hk4i0YJOCZA+zfKBfM3AbP3\r\nNzSt/jdgzPc3XRHMN13WATgrxQw4mdgDOPA9BzgMGQw4E+UGOMl96zeTDP039TvkN/aoATiq9Bo4\r\nfDQDOFq77Tfw8QY4nj/3N/oM7TfcNeU39lznNwH7CjiuPf43YqAAOGg14zdCOtQ3zukROHDkDTh8\r\nb943cDT4N9at/Te2u9k3srfoNwd67jelVgo4hiwMOF989jeTr+I3mu7uN87AADhVF+w3zFT8N+z+\r\n7DexMQg49Y3xN/I71TdzpgY4qwP7NwKD+TcIWwg4KIIGOF6pCDi3vAk4A139Nym8DzjCRQU4izT/\r\nN4HG/zfFRN03UvP8N09sDDh8+/c3A6jsN4cg+zfcYPk3yiD1NypmDziaQwA4ABAWOA==",
                            "noiseTrainingType" : "default"
                          }
                        }
                    ],
                    "start" : 3458,
                    "duration" : 347,
                    "mediaStart" : 10052,
                    "mediaDuration" : 347,
                    "scalar" : 1,
                    "metadata" : {
                      "WinSubProjectDisplayName" : "",
                      "clipSpeedAttribute" : false
                    },
                    "animationTracks" : {

                    }
                  },
                  {
                    "id" : 88,
                    "_type" : "StitchedMedia",
                    "minMediaStart" : 0,
                    "attributes" : {
                      "ident" : "tower-columns-02",
                      "gain" : 1.0,
                      "mixToMono" : false
                    },
                    "parameters" : {
                      "volume" : 1.0,
                      "cursorOpacity" : 1.0,
                      "cursorScale" : 1.0
                    },
                    "medias" : [
                        {
                          "id" : 89,
                          "_type" : "AMFile",
                          "src" : 2,
                          "trackNumber" : 1,
                          "attributes" : {
                            "ident" : "Rec 02-03-20_008",
                            "sampleRate" : 44100,
                            "bitDepth" : 16,
                            "gain" : 1.0,
                            "mixToMono" : false
                          },
                            "channelNumber" : "0,1",
                          "effects" : [

                          ],
                          "start" : 0,
                          "duration" : 10292,
                          "mediaStart" : 0,
                          "mediaDuration" : 10292,
                          "scalar" : 1,
                          "metadata" : {
                            "WinSubProjectDisplayName" : "",
                            "clipSpeedAttribute" : false
                          },
                          "animationTracks" : {

                          }
                        },
                        {
                          "id" : 90,
                          "_type" : "AMFile",
                          "src" : 2,
                          "trackNumber" : 1,
                          "attributes" : {
                            "ident" : "Rec 02-03-20_008",
                            "sampleRate" : 44100,
                            "bitDepth" : 16,
                            "gain" : 1.0,
                            "mixToMono" : false
                          },
                            "channelNumber" : "0,1",
                          "effects" : [

                          ],
                          "start" : 10292,
                          "duration" : 36,
                          "mediaStart" : 10326,
                          "mediaDuration" : 36,
                          "scalar" : 1,
                          "metadata" : {
                            "WinSubProjectDisplayName" : "",
                            "clipSpeedAttribute" : false
                          },
                          "animationTracks" : {

                          }
                        },
                        {
                          "id" : 91,
                          "_type" : "AMFile",
                          "src" : 2,
                          "trackNumber" : 1,
                          "attributes" : {
                            "ident" : "Rec 02-03-20_008",
                            "sampleRate" : 44100,
                            "bitDepth" : 16,
                            "gain" : 1.0,
                            "mixToMono" : false
                          },
                            "channelNumber" : "0,1",
                          "effects" : [

                          ],
                          "start" : 10328,
                          "duration" : 6867,
                          "mediaStart" : 10429,
                          "mediaDuration" : 6867,
                          "scalar" : 1,
                          "metadata" : {
                            "WinSubProjectDisplayName" : "",
                            "clipSpeedAttribute" : false
                          },
                          "animationTracks" : {

                          }
                        }
                    ],
                    "effects" : [
                        {
                          "effectName" : "NoiseReduction",
                          "category" : "categoryAudioEffects",
                          "parameters" : {
                            "denoiserAmount" : 20.0,
                            "denoiserThreshold" : 0.0,
                            "noiseProfile" : "nZZEP5RikT+EmBI/KnP9Pwpb60CvxkBCXd+jQY7whEBNATBANMPsP4KGpD+w7W0/anS9Pp7DVz9W\r\nWXQ/MgZ/P+zyAz9dsAo/gB+NPqGyij5E040+/uumPv40FD+XEEU/tV4HQPJC2j8hHus+xuOAP6zl\r\n5z90pQ1Ba2PWQS3MBkIj5nRCW1rKQY1QFkK3mEVB9qOyPwsemz8mGQ1AijZpPxFZQT/VTxpASC+d\r\nQCqNR0DvUjw/MkSRP+5Cyz9dMp5AxHPBQOjFykBxUbJAbLJrQIWNh0Ao+CBAwwLMP+FF0D4cuo8/\r\nuImEPjCeRj+bKaM+IG0JP2yQwz6tn5U+qB2AP+vXTkA8V4dAgKfTQNyvSEF+jC1Bph3FQGxo5D95\r\nslQ/tPxpQJQjx0CKrrY/xV8GQGT1jj4EuzU+8okfP2AnBEDs5us/TDerPp3xQT4TlM0+6GdaQF4s\r\ntD4fWws+a5uyPjJJ7z5q9gE/RIxFPmxZiD7SEoA+GN98PS44LT5y6cI9Dw/HPfSD9j1k3Kk9K3wV\r\nPWimMD14iYE+wp7rPDoGDj2O6eI9TxmJPp+HRT7kLcA9jV4WPh8AMz/Hnfs/2kCvP3ePHD+bues+\r\nVL8aPpC4nj0mH0U+/EEAPoPZ/D00ryk/PBU2PzggAT+jYFU/APwCP1NnMz57UIA9BJDwPTWVgz1y\r\nWSU99nonPRB7hDwE15A8VLZMPN6whzwsiLo8Mk4iPbbI2zxrhWc9Ioh5PLAPuzyowQA9mAeWPH1H\r\najwugmM+B+P0PS6CmD70WoA+BH0tPtftpz2SfTw97jcVPdzHBz180qk8YN4WPfLBaj3RUck89fm8\r\nPMZHGj1HhXY9M7QQPZ4+8DwioaM8CmQ/PYZ38z3Oorw9OyFwPTbqkD1xFAM9DtqUPT6SQD6yGYI+\r\nalU/P1c7GD+D3uE+2JirPp1Agj5rrp49Cl1RPvUnEz/ajxw/BhFlP0VGET/D7CQ/+xu1PvIzCD4g\r\nrE49sI0yPHErozxBRP88rvE+PTLyhDyog6084rBlPAPxyzybXyo+Qb0FPsR4Tj5Uf8I+oK9bP5Ye\r\nzz/wjaI//GcCP8ZWPz7YNEw/kjERPyccWj6Y3t89wagTPsxDij1aHZs9I4i6PYZBjD5ICaY+/o68\r\nPfDUwT3y5r89C71sP+LYoj+i9no/pkJDP2Ptiz5ELyg+r/QsPo0aCT4KiYY91w0jPiuwXj3+PLc+\r\nw7TkP9aXFkBasqU/1vAcPzylMj+nT/I+GoCkPip3UD598Ik9NBIWPZ7GwT3C5K88LDMyPiNbmT6e\r\nCFw+Ct0KP8c0RD8weHQ+Y6UCPieEET0Vz3Y8OojrPNj93DzxLm49MENGPfb+Yz1w+2U9sSX6PYrh\r\n7j1JDZI9RgUTPeLDjjwCDqY7R86oPIKNCD3+beY99pvRPh32Rz/dzUY/BG5cP6DupT8gyrA/u6KE\r\nPyqhBD+k3zI/Oyq7Pgh3YT5Fjs09LRq6PLg48zxQA248aRXtPCX1FD5rixk/9oCDP1vysz5lIp0+\r\nYIUWPeV3kTww7ug8YaMGPXG/6TstCSE8Axj4PO2dBT6AKEc9c6NWPp/chT6Hj/E+queyP3Wl3D8G\r\nSlU/dpFQPtOkiD2fCTY+vUBaPtYpqj0o2XA9NNrJPR6LSD0q8CA9EqumPCW5ozwdvJs8bvAtPGpK\r\nyTvs5v87RuqVO/g6DTwYgv86b5dCO5/Mxjv2t3Y72FlJOwKV/zs15AM9OLN5PDguqDpYCUA7bLiz\r\nOmLwPTtTni47BhRPOwidJjvXnhU7OLSqO2uZDzsENAA8mR6cPP2Ruzyuwes75FK6OgSCljr0tKQ6\r\nbM1IOtDWCToMwE46+xwXOm8GrDnyHzY51oilOnD3zDrQyIE68ls7OZR/HzqzfqU5au7dOa26szmk\r\ny7Q4G57ROTq+UjmOGiA5XskIOfyXBzmOxio59vE9OX4fQDnGVfU4+Fv6OCad9Tj2Bvg4cAr3OAY2\r\nCzlGnO441lLwOEQoBDkuQeA4K4EQOVaz5Tjwf/o4kybuOLUiuDiYY/Y43CoKOYXe5DjC9gM5ej7z\r\nONWxAzkLGAE5pLzjOGU09DjMvPg4RsfmOF7A4jjiFOs4I3rbOFlr0jhTNeo4zCfSOBzm3zhs69A4\r\n7AbrON69yjhz/to499XGOEmf5jj5zuE495HjOGo0zzjInM04iATQOMR1vjhCn9845ivZOIgawjhu\r\n2NE46re1OAQ6yTi+ANA4FrjTOA2N1jg7d8E44ArYOOat0zhGWLU4bj6+OKz8tzj6y744/M+0OJfz\r\nlTjH78k4paOaOIZByjhuxME44x2/OHC83ji4vbE4/pWuOHkaqTguYKE4uz68ONIf7zjqPbY4/SKa\r\nOFT1oTjExZQ4wLXOOCWvtjgb5544yFOqOEdMszi/k9E4HhuzOLdVnzjLbpU4PN+uOKs9rTillq04\r\nLQyVOL91ojhkaZg4CXShOCq3wzhFK5k4PKJvOJv21zhCGZk4dQW8OB7DljjY36g4bZSbOH+3ojg5\r\nTNg4xUSZOJRHhjgCIZk4inWIOP4UqTgzpZU40gitOFXVjzj45pk4/qmSOHvVjjg/bpM4kECQOI2G\r\nnjj5lJM4F82CONsFhjgkt5g4cgOGOCgakzhQvnE4cNGPOI0UiDjMIJA4Yp+IOI7mnzhtEpY4CkSQ\r\nOC1EkjgceZI4jXN2OFxmiTjNu4U4TO6RODzyezglsYc4UmBzOMRAhji2RJA4HlaFOM0pjDiAEIs4\r\nJk2VOL3PkDiVXok4seaPOEFwjDjqhXc4BVOFOA7TdTgEl4A4o1mEOCx3dzhOr4M48jNzOKD0gDgE\r\nRm04hnGMOKrehTgUfXc4pkNwOGjthjiCcmk4FfFgOGxshDiGynY4TKNqOOY6hjg7Smw4ccSDOHhW\r\nbDj8Goc4KW1cOK3YhTjo84U4zrRvOIzbWjgyI244gAJyODC9ajgGzXA4tO1QODQ0aDiH2HU4rYlM\r\nONY4XTjNM184j1ZGOBL3SzjKznY4CjlJODt3UTiY0UM4Y3VPOEgNajh6THk4X5h9ON0OVDiNnUo4\r\n4mFNOF56UTgO5V84IKdPOP76WDiC/Vc4D/hqOFy1QzhEZ1k4BhpaODSxZTjNxFc427VeOKPacTgD\r\nMUU4VL9SOAB3UDiKqE049TNaOE7ZXTixSkc48IhdOEbYPjj+VU84q9RYOKpoXDjgA0I4FQhKOG5u\r\nPzgCjEw4kL5GOGqGVji6ulQ4ttdJOKSWLTgi5WY4LPhDOOCoSThQHD84anI8OEL/Kjh4YEU4TkxT\r\nOI4XKDgMFz04qsxWOAJGOzgzAj44/hc7OMNiOzjx4js49WUzOJQrYDhpgTo4yVgwOJcEOzj/xTg4\r\n/kI9OAwdSTi2+i84vU00OLujKzhkOzk4+qwzOL9EVDiWNTo45YYvOOBQGzgoHic4/YBRODZ6Sjgj\r\nbjQ4pmNFONg6LjjMlTw4gQQtOP0bRTgb0Dc4mZg3OHcHSzgcpz44mDc5OFg0LDjOFS04h7EtOGCB\r\nNzic/yo4GEI9OI/TLTiQ0yw4XoIjOPszMjhYAEI4bg0hODIoJjhosis4KjQ+OGTrMzht8yo4YeIw\r\nODAQITgKdiU4rEkwOJi3Ozjcdx04ISEbOJh2Izijjyw4OhcmOHRFITgT6xU4kdQxOLxbHTgDbTY4\r\ntIQVOI9RMzhPqTU4TbgiOE4fLjgl8io44ncnOJyyLDgpNSE4iXY2OGpDJzhixSQ4kEUoOPWnLzjj\r\n/iM4kIEZOM8MJThE4B04TEw2OOT7PDgc9T0433gmOMP8Hjj0EAw4YNEwOETuKTiAGS04dxAQODKg\r\nITiiaTE4Z885OPzGHzgn9x44ndYcOABiJjjU2Cc4sW0zOBN/IDimiAo4sCUiOANqKTgw8Rc4yaIW\r\nOG9NFji4/BI4B6QQONQZGjhD0BQ47nokOJ8bGThOwBk4pocWOEoyETiTCxE4Yq0cOEeyIzi9OBM4\r\nv/YnOOyEHDidDBI4IbgYOJR4Ejh+wTM4MZMVOCuFEjjYkxw407sLOGo0AzhY0BE4p0olOFrP+Dfs\r\nYyc4+0YTOOs6DDiEVhQ4YKYUOHAJEzgJSBo4QgMTOINHHjgn7Ck4FKQnOBl3Czhg0Os3cCsAOD5G\r\nHzjI5g84n9kWOFVsFjhEJw84vnkbOCJpFDiL6A84XJsPOJBwHDjEhhs4T9ciOPssETgwpx04tgIX\r\nOLg4CjgjFiI4RsYXOKX/DjiMPxk4ROMROGsJFTi3wCM48s4hOFQWITgIBQs4VZsEOHH0Djg3/SM4\r\nKg4VODbaHDgTsAo4FWoIOOeDAziPNxg4QzcPOJfCBzgo2/k3bjsRONqXGzhUVxs4NMkROMs/Fzjr\r\nuA84DyIIOO6ODzg7PQg4exQUOO2RDTgEVBA4088BOLd9BDhDowQ4YvEOONmgBTjauAM4KtYGONbq\r\nFDjISQM4YRT9N+0BLDh5Bgw4bpMLOHstAjj4VAQ4nODnNySVIzg4hBA4taoQOMpRFDjFDgI4hG0G\r\nOAK96De7EO833kcIONhN/zeCT/E3cfUMOFF4JDhMPxQ4ZhALOM1GBzgaZQU44rwBOG0lBzh2Hhc4\r\nCroSOKcrDDgpVAo4brsKOLOWATjnIOo3e17vNxi0DTj1lQw4RUL2N4LB/zcyQPw38aXdN8/zDjja\r\nOg44Bf3tN3e0HTgQzg84oIoCOOyh8Teynvs3bz0COGqZAzigmgk4CRQOOPU07jdG3hM4En3uN/Nj\r\n+DcfcxE41rT5N+q0BDgwLgI4vlnzN2aP6DfMYPI3Z6oMOMwxBThY3v03/AMVOHcgBjjlvRE4uYf5\r\nN1/wFjhXJA84qzUNOPPyADhsFRQ4Tp0FOCjyDDhBdRE4uG0MOB7QAjh+9wI43kwIOCWj9zdtDgA4\r\ntCElOI+BDjidJew3mCT7N/HSAjinkQI4PQkEOEdlHTgv2Rg4PKHaN9Ux+TfkohU49zTvN+crATiS\r\n4eQ3iv0AOBn7+jcaav43PFACOPky8Dfft/w3zHDfN2YC/Df3EAs4BdAMOCkKDDjLBPE3fz7gN6G9\r\nDziqFw84DDj4N0Ce/jdwWAo48wHhN0D52zcaN/s3afLyN8KwEjhVGOA3iy4ROCK9BDiyzww4/nEH\r\nOOZw+jfUyvA3tmD7N6Xn3Tf9JxE4GYMVODMjATips+w3BXIGOMpaFjjlxOk3KAXnN2sV6jeISwk4\r\neJsTOKJV9zenSvU3byUJODme4TdgQeI3LZjvNzpo7DdF7f03yXX7N+XTCzi0ZO03gdLiNwtmFDhF\r\nmAE4BVfVN+n+9DczhQY4P2fgN3XV8zfV7vI3JscEOGgpBDjdGwA4V8TzN02xBjhTqAA4NMTcN0+x\r\n7zeS5Ok3ZloJOD9T+Dd1gss3YWIIOB4mATiE1f83HCkROFN/9jeGFgo4W5AROJdhAThP8wg49MYJ\r\nOIRx8Df7jeo3cS7iN9evDDh4MAw4wvnpN4i68zet/e43XgwEOE+c8TfyVxg4ApsCOACBDjiVgUQ/\r\nu1qRP4SYEj/VeP0/H2rrQK/GQEJd36NBjvCEQE0BMEA0w+w/OpCkP7DtbT9qdL0+QdJXP1ZZdD8y\r\nBn8/7PIDP12wCj+AH40+obKKPkTTjT7+66Y+/jQUP5cQRT9JZAdApD7aPyEe6z7F8oA/cd/nP5yp\r\nDUFrY9ZBFswGQiPmdEJbWspBjVAWQreYRUH2o7I/Cx6bPyYZDUBEGGk/EVlBP9VPGkBIL51AKo1H\r\nQO9SPD8yRJE/7kLLP10ynkDEc8FA6MXKQHFRskBssmtAhY2HQCj4IEDDAsw/4UXQPhy6jz+4iYQ+\r\nMJ5GP5spoz4gbQk/bJDDPr6+lT6oHYA/69dOQDxXh0CAp9NA3K9IQX6MLUGmHcVAbGjkP3myVD+0\r\n/GlAlCPHQIqutj/FXwZAZPWOPgS7NT7yiR8/YCcEQOzm6z9MN6s+nfFBPhOUzT7oZ1pAXiy0Ph9b\r\nCz5rm7I+MknvPmr2AT9EjEU+bFmIPtISgD4Y33w9LjgtPnLpwj2ox8Y96KL2PS7CqT0rfBU9aKYw\r\nPXiJgT7Cnus8OgYOPY7p4j1PGYk+n4dFPuQtwD2NXhY+HwAzP8ed+z/aQK8/d48cP5u56z5Uvxo+\r\nkLiePSYfRT78QQA+g9n8PTSvKT88FTY/OCABP6NgVT8A/AI/U2czPntQgD0EkPA9NZWDPXJZJT1A\r\nNSg9Ge6DPIg8kTxUtkw83rCHPCyIujwyTiI9tsjbPGuFZz0iiHk8sA+7PDlUAD2YB5Y8fUdqPC6C\r\nYz4H4/Q9LoKYPvRagD4EfS0+1+2nPZJ9PD3uNxU93McHPXzSqTxg3hY98sFqPdFRyTz1+bw8gqsZ\r\nPUeFdj0ztBA9nj7wPCKhozwKZD89hnfzPc6ivD07IXA9NuqQPXEUAz0O2pQ9PpJAPrIZgj5qVT8/\r\nVzsYP4Pe4T7YmKs+nUCCPmuunj0KXVE+9ScTP9qPHD8GEWU/hDERPwnmJD/6G7U+8jMIPgCZTj2w\r\njTI8cSujPEFE/zyu8T49c7uDPBvyrDzisGU8A/HLPJtfKj5BvQU+xHhOPlR/wj6gr1s/lh7PP/CN\r\noj/8ZwI/xlY/Ptg0TD+SMRE/JxxaPpje3z3BqBM+zEOKPVodmz0AWbo9lDCMPpIXpj7qb7w9b/rB\r\nPfLmvz3tsGw/HdGiP//eej9BIkM/Y+2LPhp0KD5s9Sw+UA8JPgqJhj3XDSM+K7BePf48tz7DtOQ/\r\n1pcWQFqypT/W8Bw/PKUyP6dP8j4agKQ+KndQPgEHij0kNRY9xdPBPcLkrzwsMzI+I1uZPp4IXD6K\r\npgo/si1EP1hvdD4MkQI+J4QRPVTedTygR+o8vRTePPNJbj0wQ0Y9EMljPYT0ZT0jkfo9iuHuPUkN\r\nkj1GBRM99z2OPAIOpjsHMqk8go0IPf5t5j32m9E+HfZHP93NRj8Eblw/oO6lPyDKsD+7ooQ/KqEE\r\nP27mMj87Krs+CHdhPkWOzT3sz7k8d7fyPL5xbTxRtuw8xzwVPtlhGT/AhIM/veizPtIWnT5COxY9\r\n5XeRPDDu6DxhowY9usDpOy0JITzQb/g8HZEFPvJHRz3loFY+ArWFPut08T6T6rI/HsbcPztCVT8I\r\neVA+WxCIPbgCNj7Xelo+Yk+qPYf1cD1EfMk9oGdIPS6pID0Sq6Y8JbmjPB28mzxu8C08WYjLO+zm\r\n/ztG6pU7BVcNPEeVADtvl0I7n8zGO/a3djvYWUk7ApX/O0a1Az04s3k8OC6oOlgJQDtsuLM6YvA9\r\nO1OeLjvXSU87CJ0mOyPbFjusnKs7cjIPO75P/ztrHJw8Kvu7PAHN6zvkUro6BIKWOvS0pDpszUg6\r\n0NYJOgzATjr7HBc6bwasOa0tMDnWiKU6cPfMOtDIgTryWzs5klcgOrN+pTngCds5rbqzOaTLtDg/\r\nvtU5juhOOXfNIjkyUgo5p+8MOT5VJzk6aEI5XMhBOdLX9zhAtPo4nOD/ODCv9zg4NPc40ZcPObiQ\r\nBDlAAfg4FrMIOSQo3jjMegc5ANvnOCxOADkguPM4voG8OGqa6Ti3ngg5C/7ZOOVB+TjDGfs4EHsK\r\nOVir/jicM984ZG34OIEZ9zhMIuM4bJ/sOKW09jhwe9U4VubEOPP85zgB/NY45YrbONBgzzgaRuk4\r\njQTHOKJZ3Dgm/8M4V9naOOs53Dj6beI4aELXOJY5zzhug9A4/SDAOFxA2jhoG9g4dtvKOALd1Dhi\r\nNbE44fPGOGxKzjjbWs84pCjdOMU/yTg0Kc842tLQOPburTgem7o4s6qqOGk0wTiYZsE4bqiUOM13\r\nvjhWdZs4JffNOBZDtzjezLs44uLaOG0irTghwaI4DdWrOMysnjh7Hbk4dEbzOKKcujgJJpo4WeKe\r\nOOZNkzhkh8g4qXKoOPbxnzjaTqg4NSSiOOaouDg2c7E4xiqtOEm2oDi0D8k4acOsOF0UojhM15M4\r\n5ai2OEl1nzhdy6I4y7DDOPeymTj8/4s4ISu7OJudmzh0D784JfKGOKAomzj5m5s4/MadOD7n1zh1\r\nt5448zuCOJEmmjhwmIU4xpeZOCLFiTiOU584gHqSONoMnDisnpI40U6UOKY1nDhC6I44CJObOI3v\r\nlTie34Y4BkWQOBR/lTgOZXA4qoaNOKQMgziJa5M4e+yAOEr2jzjNS4k4BhagODKZjzi+OJQ4J/aR\r\nOPAGgzgAdXE4z7qNOG0HhzhP44o4kLd2OM0phDigl2o4jreGOJBbmDjSUIE4CPCDOADhhzhappI4\r\n0DuIOBDAgzg4eo84fQKEONVedjjPtIg4iyaDON0Pgji05YM4JpN3OB1+gjgmtm84gh6OOHHmeji8\r\nB4s4KnaHOF69eTidmW040vuDOLQgazhqj184so2COJC7dTiwOnA40LCDOJm4YTiUVnQ42CJ1OECn\r\nhTisxlk4KgWAOI73ejgF7mg41N1eOOikcTgkC2c4BKNpOFpraDg8mlM45OhmOCJ6eDgHmE44TYdu\r\nOGpfaTgOi0M4cA1YOAAkejjIbUA4dNBSOANwQjiooVs4iclfOK79ajg6ZXQ4mOVSOAYXSzgegGE4\r\nIDt1OIg6Yjhkz1g4aXBSOO7bVTjjiGc42F08OL7GWDgQaFU4h21TOKcJUTgTCmE4AqdoONDASDhl\r\ny1Q4hXZKODr2UTgkEWQ4srBkOHV7SzhPRXA4V3FPOK/qYjhAZ1U41o9aOBikVThy0Ec47ok9OBCu\r\nTDjBPkk48CdaONR+XTiC2VQ4K9QzOIXMXTha5Tw4tupSOOM/QDj9nTg42UkzODJNTDhDkFI4kNYl\r\nOM3UOjhkgF44P/s7OFF1QzgtjUU4RudGOKCYPDibHEA4AhJiOF1URDiKwS84PhA4OCbNLzi1AjE4\r\nrlZDOHh9ODgMnjQ4dF4qODwfODgtRTQ4hClWOLeMMjj5OkM4zYQsOM30Ojh6Yks4rzRROPn9OziJ\r\n9Us4qng2OBQJOThq+jA4BgBIOBYYMjjBxjc4ph5LOATLOji6Ozk4ObcnOJS0LTgvBSc4pm8qOD6f\r\nMzgzj0c4WLkvOLTkMDhUTCE4ibs8OGbpPTgDqiU4HqQvOKx+KziNizI4JkQlOITLMTjl4C04pZgk\r\nOAKBJjgO8Dc4png3OBZjGThYeh84yfMpOF/jKzjKJSg4FU8fOIr1GzinWTw41sgcOOjmNThQvho4\r\nvrkvOOM3Nzj1LiE4caMyOO72JDgPjyU4hscpOJKFFji+9z44flwmOCyzIjjErSI4zL4bOF4aIDjK\r\n7SQ490kgOMrnKDgnwEg47oU9OArPNjjGOy848ZkhOJCFAjh34CY4XH0xOK4IMzjyWQ84qMsbOE8M\r\nOzieNTk4RNQVOJJhIjjL4BU4jlsmOOU9IjiFCDs48d8qODiTEzhlsig4Rv4tOJi8FDg0QxY40OQP\r\nOEUCEziVDxI4TjUVOJLmDzjqlhs4OsQWOCzFEjgctA44X9oPOJW3CDhl1BA4a9McOHCODjj1GSc4\r\nPA4SOLHBGziLbRY4itMTOMBlODit+x44q4IbOFTCHTjyjxA4lUMDOD2/DDiiYhc41JD8N6B6NDgy\r\nlSc4NsgPOIZGETi8ogA4Z7QOOLvpITgJiRE4khwWOHogGThdoxs4WpX5N4Wa9Td+t/836CcnODaA\r\nCDh0HhI4ct4kOPJoDjiIgyE4bLoVOL4rCjhdAgc4mvUcOH2NGThROQ84ujQTOBQhKTh60yA4MTcN\r\nOKt+Izh2GSM4x0IVOATHGjh2/AY4iQYVOMPzIDgE7hM4U0UcOG7HADgR6A448I8ROEVkEzgRDw44\r\ngGcmODybFjgjqgs45gUDOAxKBziYWwk4wn30NwMV9DcdURc4XGgXOJLMDjheNg04YqoXOGN1Fjgv\r\nZR04+0ETODL1Bzgt2BM4qMIAOEqMBTg7z+437jkDOPYuADhP1RM4QhwHOEqCCDibFwo45DgLOFHH\r\nBTiMPvM30M4vODnbEzjpsA44c5j+N1mTBDh/Ae03+PggOOg2DjjHbAc4UJcbOKHsBDhmzQI4V2nl\r\nN1TD9jcg8P03BWb2N5BB8TeD5w04+TMeOIUvFTj0EAo4/RgDOBphCTgMqgE4x98IOEiTBzhNURs4\r\njlIWOLDkCDhAzPw3gRf+N+aA9Dck3fM3OKQNOC1qFzh4Jf03OEMDOPpFBDgX5uM31McPOGKUCTjw\r\nhOk3IcIbOBz1DTiH/Pk3KpPwN46t+zdO3Qg4eAj4N/TKAjiAcQ04bY3rNyxjEzjTJO83MQcHOPW7\r\nDDgiX+8350AKOJWwDTgUzgI4tRLlNzZNADi7K/43S73+NzYlBzhuvxU4ohcBOGwiEDhT6vo3U/wL\r\nOHFTBThJNRI4EM/3N4DNCzjDCes3rV4SOOuMGzg/qBM456IMOBU95zfEBAI4J8X+N4wxBjgAsx44\r\nHvwXOIoR8DfZ2go4JLIGOBsL/je4hQk49fcOOAwAFzhWEQM4NP4IOGusCDgCjO036QnqNx195Tcb\r\nKfY3ZLAAOE7f9zdRbvs3Dd4AOKkgCjgVtfY3XBb3NxePFDihPhE4s3MCOL4z5jccY9s3evkKONSY\r\nDzhByes3BKAEOLkmDzjLR/k3qHjZN9Am8TfWQPg3SbAdOD+K8zd63hk4i0YJOCZA+zfKBfM3AbP3\r\nNzSt/jdgzPc3XRHMN13WATgrxQw4mdgDOPA9BzgMGQw4E+UGOMl96zeTDP039TvkN/aoATiq9Bo4\r\nfDQDOFq77Tfw8QY4nj/3N/oM7TfcNeU39lznNwH7CjiuPf43YqAAOGg14zdCOtQ3zukROHDkDTh8\r\nb943cDT4N9at/Te2u9k3srfoNwd67jelVgo4hiwMOF989jeTr+I3mu7uN87AADhVF+w3zFT8N+z+\r\n7DexMQg49Y3xN/I71TdzpgY4qwP7NwKD+TcIWwg4KIIGOF6pCDi3vAk4A139Nym8DzjCRQU4izT/\r\nN4HG/zfFRN03UvP8N09sDDh8+/c3A6jsN4cg+zfcYPk3yiD1NypmDziaQwA4ABAWOA==",
                            "noiseTrainingType" : "default"
                          }
                        }
                    ],
                    "start" : 3805,
                    "duration" : 132,
                    "mediaStart" : 10399,
                    "mediaDuration" : 132,
                    "scalar" : 1,
                    "metadata" : {
                      "WinSubProjectDisplayName" : "",
                      "clipSpeedAttribute" : false
                    },
                    "animationTracks" : {

                    }
                  },
                  {
                    "id" : 92,
                    "_type" : "StitchedMedia",
                    "minMediaStart" : 0,
                    "attributes" : {
                      "ident" : "tower-columns-02",
                      "gain" : 1.0,
                      "mixToMono" : false
                    },
                    "parameters" : {
                      "volume" : 1.0,
                      "cursorOpacity" : 1.0,
                      "cursorScale" : 1.0
                    },
                    "medias" : [
                        {
                          "id" : 93,
                          "_type" : "AMFile",
                          "src" : 2,
                          "trackNumber" : 1,
                          "attributes" : {
                            "ident" : "Rec 02-03-20_008",
                            "sampleRate" : 44100,
                            "bitDepth" : 16,
                            "gain" : 1.0,
                            "mixToMono" : false
                          },
                            "channelNumber" : "0,1",
                          "effects" : [

                          ],
                          "start" : 0,
                          "duration" : 10292,
                          "mediaStart" : 0,
                          "mediaDuration" : 10292,
                          "scalar" : 1,
                          "metadata" : {
                            "WinSubProjectDisplayName" : "",
                            "clipSpeedAttribute" : false
                          },
                          "animationTracks" : {

                          }
                        },
                        {
                          "id" : 94,
                          "_type" : "AMFile",
                          "src" : 2,
                          "trackNumber" : 1,
                          "attributes" : {
                            "ident" : "Rec 02-03-20_008",
                            "sampleRate" : 44100,
                            "bitDepth" : 16,
                            "gain" : 1.0,
                            "mixToMono" : false
                          },
                            "channelNumber" : "0,1",
                          "effects" : [

                          ],
                          "start" : 10292,
                          "duration" : 36,
                          "mediaStart" : 10326,
                          "mediaDuration" : 36,
                          "scalar" : 1,
                          "metadata" : {
                            "WinSubProjectDisplayName" : "",
                            "clipSpeedAttribute" : false
                          },
                          "animationTracks" : {

                          }
                        },
                        {
                          "id" : 95,
                          "_type" : "AMFile",
                          "src" : 2,
                          "trackNumber" : 1,
                          "attributes" : {
                            "ident" : "Rec 02-03-20_008",
                            "sampleRate" : 44100,
                            "bitDepth" : 16,
                            "gain" : 1.0,
                            "mixToMono" : false
                          },
                            "channelNumber" : "0,1",
                          "effects" : [

                          ],
                          "start" : 10328,
                          "duration" : 6867,
                          "mediaStart" : 10429,
                          "mediaDuration" : 6867,
                          "scalar" : 1,
                          "metadata" : {
                            "WinSubProjectDisplayName" : "",
                            "clipSpeedAttribute" : false
                          },
                          "animationTracks" : {

                          }
                        }
                    ],
                    "effects" : [
                        {
                          "effectName" : "NoiseReduction",
                          "category" : "categoryAudioEffects",
                          "parameters" : {
                            "denoiserAmount" : 20.0,
                            "denoiserThreshold" : 0.0,
                            "noiseProfile" : "nZZEP5RikT+EmBI/KnP9Pwpb60CvxkBCXd+jQY7whEBNATBANMPsP4KGpD+w7W0/anS9Pp7DVz9W\r\nWXQ/MgZ/P+zyAz9dsAo/gB+NPqGyij5E040+/uumPv40FD+XEEU/tV4HQPJC2j8hHus+xuOAP6zl\r\n5z90pQ1Ba2PWQS3MBkIj5nRCW1rKQY1QFkK3mEVB9qOyPwsemz8mGQ1AijZpPxFZQT/VTxpASC+d\r\nQCqNR0DvUjw/MkSRP+5Cyz9dMp5AxHPBQOjFykBxUbJAbLJrQIWNh0Ao+CBAwwLMP+FF0D4cuo8/\r\nuImEPjCeRj+bKaM+IG0JP2yQwz6tn5U+qB2AP+vXTkA8V4dAgKfTQNyvSEF+jC1Bph3FQGxo5D95\r\nslQ/tPxpQJQjx0CKrrY/xV8GQGT1jj4EuzU+8okfP2AnBEDs5us/TDerPp3xQT4TlM0+6GdaQF4s\r\ntD4fWws+a5uyPjJJ7z5q9gE/RIxFPmxZiD7SEoA+GN98PS44LT5y6cI9Dw/HPfSD9j1k3Kk9K3wV\r\nPWimMD14iYE+wp7rPDoGDj2O6eI9TxmJPp+HRT7kLcA9jV4WPh8AMz/Hnfs/2kCvP3ePHD+bues+\r\nVL8aPpC4nj0mH0U+/EEAPoPZ/D00ryk/PBU2PzggAT+jYFU/APwCP1NnMz57UIA9BJDwPTWVgz1y\r\nWSU99nonPRB7hDwE15A8VLZMPN6whzwsiLo8Mk4iPbbI2zxrhWc9Ioh5PLAPuzyowQA9mAeWPH1H\r\najwugmM+B+P0PS6CmD70WoA+BH0tPtftpz2SfTw97jcVPdzHBz180qk8YN4WPfLBaj3RUck89fm8\r\nPMZHGj1HhXY9M7QQPZ4+8DwioaM8CmQ/PYZ38z3Oorw9OyFwPTbqkD1xFAM9DtqUPT6SQD6yGYI+\r\nalU/P1c7GD+D3uE+2JirPp1Agj5rrp49Cl1RPvUnEz/ajxw/BhFlP0VGET/D7CQ/+xu1PvIzCD4g\r\nrE49sI0yPHErozxBRP88rvE+PTLyhDyog6084rBlPAPxyzybXyo+Qb0FPsR4Tj5Uf8I+oK9bP5Ye\r\nzz/wjaI//GcCP8ZWPz7YNEw/kjERPyccWj6Y3t89wagTPsxDij1aHZs9I4i6PYZBjD5ICaY+/o68\r\nPfDUwT3y5r89C71sP+LYoj+i9no/pkJDP2Ptiz5ELyg+r/QsPo0aCT4KiYY91w0jPiuwXj3+PLc+\r\nw7TkP9aXFkBasqU/1vAcPzylMj+nT/I+GoCkPip3UD598Ik9NBIWPZ7GwT3C5K88LDMyPiNbmT6e\r\nCFw+Ct0KP8c0RD8weHQ+Y6UCPieEET0Vz3Y8OojrPNj93DzxLm49MENGPfb+Yz1w+2U9sSX6PYrh\r\n7j1JDZI9RgUTPeLDjjwCDqY7R86oPIKNCD3+beY99pvRPh32Rz/dzUY/BG5cP6DupT8gyrA/u6KE\r\nPyqhBD+k3zI/Oyq7Pgh3YT5Fjs09LRq6PLg48zxQA248aRXtPCX1FD5rixk/9oCDP1vysz5lIp0+\r\nYIUWPeV3kTww7ug8YaMGPXG/6TstCSE8Axj4PO2dBT6AKEc9c6NWPp/chT6Hj/E+queyP3Wl3D8G\r\nSlU/dpFQPtOkiD2fCTY+vUBaPtYpqj0o2XA9NNrJPR6LSD0q8CA9EqumPCW5ozwdvJs8bvAtPGpK\r\nyTvs5v87RuqVO/g6DTwYgv86b5dCO5/Mxjv2t3Y72FlJOwKV/zs15AM9OLN5PDguqDpYCUA7bLiz\r\nOmLwPTtTni47BhRPOwidJjvXnhU7OLSqO2uZDzsENAA8mR6cPP2Ruzyuwes75FK6OgSCljr0tKQ6\r\nbM1IOtDWCToMwE46+xwXOm8GrDnyHzY51oilOnD3zDrQyIE68ls7OZR/HzqzfqU5au7dOa26szmk\r\ny7Q4G57ROTq+UjmOGiA5XskIOfyXBzmOxio59vE9OX4fQDnGVfU4+Fv6OCad9Tj2Bvg4cAr3OAY2\r\nCzlGnO441lLwOEQoBDkuQeA4K4EQOVaz5Tjwf/o4kybuOLUiuDiYY/Y43CoKOYXe5DjC9gM5ej7z\r\nONWxAzkLGAE5pLzjOGU09DjMvPg4RsfmOF7A4jjiFOs4I3rbOFlr0jhTNeo4zCfSOBzm3zhs69A4\r\n7AbrON69yjhz/to499XGOEmf5jj5zuE495HjOGo0zzjInM04iATQOMR1vjhCn9845ivZOIgawjhu\r\n2NE46re1OAQ6yTi+ANA4FrjTOA2N1jg7d8E44ArYOOat0zhGWLU4bj6+OKz8tzj6y744/M+0OJfz\r\nlTjH78k4paOaOIZByjhuxME44x2/OHC83ji4vbE4/pWuOHkaqTguYKE4uz68ONIf7zjqPbY4/SKa\r\nOFT1oTjExZQ4wLXOOCWvtjgb5544yFOqOEdMszi/k9E4HhuzOLdVnzjLbpU4PN+uOKs9rTillq04\r\nLQyVOL91ojhkaZg4CXShOCq3wzhFK5k4PKJvOJv21zhCGZk4dQW8OB7DljjY36g4bZSbOH+3ojg5\r\nTNg4xUSZOJRHhjgCIZk4inWIOP4UqTgzpZU40gitOFXVjzj45pk4/qmSOHvVjjg/bpM4kECQOI2G\r\nnjj5lJM4F82CONsFhjgkt5g4cgOGOCgakzhQvnE4cNGPOI0UiDjMIJA4Yp+IOI7mnzhtEpY4CkSQ\r\nOC1EkjgceZI4jXN2OFxmiTjNu4U4TO6RODzyezglsYc4UmBzOMRAhji2RJA4HlaFOM0pjDiAEIs4\r\nJk2VOL3PkDiVXok4seaPOEFwjDjqhXc4BVOFOA7TdTgEl4A4o1mEOCx3dzhOr4M48jNzOKD0gDgE\r\nRm04hnGMOKrehTgUfXc4pkNwOGjthjiCcmk4FfFgOGxshDiGynY4TKNqOOY6hjg7Smw4ccSDOHhW\r\nbDj8Goc4KW1cOK3YhTjo84U4zrRvOIzbWjgyI244gAJyODC9ajgGzXA4tO1QODQ0aDiH2HU4rYlM\r\nONY4XTjNM184j1ZGOBL3SzjKznY4CjlJODt3UTiY0UM4Y3VPOEgNajh6THk4X5h9ON0OVDiNnUo4\r\n4mFNOF56UTgO5V84IKdPOP76WDiC/Vc4D/hqOFy1QzhEZ1k4BhpaODSxZTjNxFc427VeOKPacTgD\r\nMUU4VL9SOAB3UDiKqE049TNaOE7ZXTixSkc48IhdOEbYPjj+VU84q9RYOKpoXDjgA0I4FQhKOG5u\r\nPzgCjEw4kL5GOGqGVji6ulQ4ttdJOKSWLTgi5WY4LPhDOOCoSThQHD84anI8OEL/Kjh4YEU4TkxT\r\nOI4XKDgMFz04qsxWOAJGOzgzAj44/hc7OMNiOzjx4js49WUzOJQrYDhpgTo4yVgwOJcEOzj/xTg4\r\n/kI9OAwdSTi2+i84vU00OLujKzhkOzk4+qwzOL9EVDiWNTo45YYvOOBQGzgoHic4/YBRODZ6Sjgj\r\nbjQ4pmNFONg6LjjMlTw4gQQtOP0bRTgb0Dc4mZg3OHcHSzgcpz44mDc5OFg0LDjOFS04h7EtOGCB\r\nNzic/yo4GEI9OI/TLTiQ0yw4XoIjOPszMjhYAEI4bg0hODIoJjhosis4KjQ+OGTrMzht8yo4YeIw\r\nODAQITgKdiU4rEkwOJi3Ozjcdx04ISEbOJh2Izijjyw4OhcmOHRFITgT6xU4kdQxOLxbHTgDbTY4\r\ntIQVOI9RMzhPqTU4TbgiOE4fLjgl8io44ncnOJyyLDgpNSE4iXY2OGpDJzhixSQ4kEUoOPWnLzjj\r\n/iM4kIEZOM8MJThE4B04TEw2OOT7PDgc9T0433gmOMP8Hjj0EAw4YNEwOETuKTiAGS04dxAQODKg\r\nITiiaTE4Z885OPzGHzgn9x44ndYcOABiJjjU2Cc4sW0zOBN/IDimiAo4sCUiOANqKTgw8Rc4yaIW\r\nOG9NFji4/BI4B6QQONQZGjhD0BQ47nokOJ8bGThOwBk4pocWOEoyETiTCxE4Yq0cOEeyIzi9OBM4\r\nv/YnOOyEHDidDBI4IbgYOJR4Ejh+wTM4MZMVOCuFEjjYkxw407sLOGo0AzhY0BE4p0olOFrP+Dfs\r\nYyc4+0YTOOs6DDiEVhQ4YKYUOHAJEzgJSBo4QgMTOINHHjgn7Ck4FKQnOBl3Czhg0Os3cCsAOD5G\r\nHzjI5g84n9kWOFVsFjhEJw84vnkbOCJpFDiL6A84XJsPOJBwHDjEhhs4T9ciOPssETgwpx04tgIX\r\nOLg4CjgjFiI4RsYXOKX/DjiMPxk4ROMROGsJFTi3wCM48s4hOFQWITgIBQs4VZsEOHH0Djg3/SM4\r\nKg4VODbaHDgTsAo4FWoIOOeDAziPNxg4QzcPOJfCBzgo2/k3bjsRONqXGzhUVxs4NMkROMs/Fzjr\r\nuA84DyIIOO6ODzg7PQg4exQUOO2RDTgEVBA4088BOLd9BDhDowQ4YvEOONmgBTjauAM4KtYGONbq\r\nFDjISQM4YRT9N+0BLDh5Bgw4bpMLOHstAjj4VAQ4nODnNySVIzg4hBA4taoQOMpRFDjFDgI4hG0G\r\nOAK96De7EO833kcIONhN/zeCT/E3cfUMOFF4JDhMPxQ4ZhALOM1GBzgaZQU44rwBOG0lBzh2Hhc4\r\nCroSOKcrDDgpVAo4brsKOLOWATjnIOo3e17vNxi0DTj1lQw4RUL2N4LB/zcyQPw38aXdN8/zDjja\r\nOg44Bf3tN3e0HTgQzg84oIoCOOyh8Teynvs3bz0COGqZAzigmgk4CRQOOPU07jdG3hM4En3uN/Nj\r\n+DcfcxE41rT5N+q0BDgwLgI4vlnzN2aP6DfMYPI3Z6oMOMwxBThY3v03/AMVOHcgBjjlvRE4uYf5\r\nN1/wFjhXJA84qzUNOPPyADhsFRQ4Tp0FOCjyDDhBdRE4uG0MOB7QAjh+9wI43kwIOCWj9zdtDgA4\r\ntCElOI+BDjidJew3mCT7N/HSAjinkQI4PQkEOEdlHTgv2Rg4PKHaN9Ux+TfkohU49zTvN+crATiS\r\n4eQ3iv0AOBn7+jcaav43PFACOPky8Dfft/w3zHDfN2YC/Df3EAs4BdAMOCkKDDjLBPE3fz7gN6G9\r\nDziqFw84DDj4N0Ce/jdwWAo48wHhN0D52zcaN/s3afLyN8KwEjhVGOA3iy4ROCK9BDiyzww4/nEH\r\nOOZw+jfUyvA3tmD7N6Xn3Tf9JxE4GYMVODMjATips+w3BXIGOMpaFjjlxOk3KAXnN2sV6jeISwk4\r\neJsTOKJV9zenSvU3byUJODme4TdgQeI3LZjvNzpo7DdF7f03yXX7N+XTCzi0ZO03gdLiNwtmFDhF\r\nmAE4BVfVN+n+9DczhQY4P2fgN3XV8zfV7vI3JscEOGgpBDjdGwA4V8TzN02xBjhTqAA4NMTcN0+x\r\n7zeS5Ok3ZloJOD9T+Dd1gss3YWIIOB4mATiE1f83HCkROFN/9jeGFgo4W5AROJdhAThP8wg49MYJ\r\nOIRx8Df7jeo3cS7iN9evDDh4MAw4wvnpN4i68zet/e43XgwEOE+c8TfyVxg4ApsCOACBDjiVgUQ/\r\nu1qRP4SYEj/VeP0/H2rrQK/GQEJd36NBjvCEQE0BMEA0w+w/OpCkP7DtbT9qdL0+QdJXP1ZZdD8y\r\nBn8/7PIDP12wCj+AH40+obKKPkTTjT7+66Y+/jQUP5cQRT9JZAdApD7aPyEe6z7F8oA/cd/nP5yp\r\nDUFrY9ZBFswGQiPmdEJbWspBjVAWQreYRUH2o7I/Cx6bPyYZDUBEGGk/EVlBP9VPGkBIL51AKo1H\r\nQO9SPD8yRJE/7kLLP10ynkDEc8FA6MXKQHFRskBssmtAhY2HQCj4IEDDAsw/4UXQPhy6jz+4iYQ+\r\nMJ5GP5spoz4gbQk/bJDDPr6+lT6oHYA/69dOQDxXh0CAp9NA3K9IQX6MLUGmHcVAbGjkP3myVD+0\r\n/GlAlCPHQIqutj/FXwZAZPWOPgS7NT7yiR8/YCcEQOzm6z9MN6s+nfFBPhOUzT7oZ1pAXiy0Ph9b\r\nCz5rm7I+MknvPmr2AT9EjEU+bFmIPtISgD4Y33w9LjgtPnLpwj2ox8Y96KL2PS7CqT0rfBU9aKYw\r\nPXiJgT7Cnus8OgYOPY7p4j1PGYk+n4dFPuQtwD2NXhY+HwAzP8ed+z/aQK8/d48cP5u56z5Uvxo+\r\nkLiePSYfRT78QQA+g9n8PTSvKT88FTY/OCABP6NgVT8A/AI/U2czPntQgD0EkPA9NZWDPXJZJT1A\r\nNSg9Ge6DPIg8kTxUtkw83rCHPCyIujwyTiI9tsjbPGuFZz0iiHk8sA+7PDlUAD2YB5Y8fUdqPC6C\r\nYz4H4/Q9LoKYPvRagD4EfS0+1+2nPZJ9PD3uNxU93McHPXzSqTxg3hY98sFqPdFRyTz1+bw8gqsZ\r\nPUeFdj0ztBA9nj7wPCKhozwKZD89hnfzPc6ivD07IXA9NuqQPXEUAz0O2pQ9PpJAPrIZgj5qVT8/\r\nVzsYP4Pe4T7YmKs+nUCCPmuunj0KXVE+9ScTP9qPHD8GEWU/hDERPwnmJD/6G7U+8jMIPgCZTj2w\r\njTI8cSujPEFE/zyu8T49c7uDPBvyrDzisGU8A/HLPJtfKj5BvQU+xHhOPlR/wj6gr1s/lh7PP/CN\r\noj/8ZwI/xlY/Ptg0TD+SMRE/JxxaPpje3z3BqBM+zEOKPVodmz0AWbo9lDCMPpIXpj7qb7w9b/rB\r\nPfLmvz3tsGw/HdGiP//eej9BIkM/Y+2LPhp0KD5s9Sw+UA8JPgqJhj3XDSM+K7BePf48tz7DtOQ/\r\n1pcWQFqypT/W8Bw/PKUyP6dP8j4agKQ+KndQPgEHij0kNRY9xdPBPcLkrzwsMzI+I1uZPp4IXD6K\r\npgo/si1EP1hvdD4MkQI+J4QRPVTedTygR+o8vRTePPNJbj0wQ0Y9EMljPYT0ZT0jkfo9iuHuPUkN\r\nkj1GBRM99z2OPAIOpjsHMqk8go0IPf5t5j32m9E+HfZHP93NRj8Eblw/oO6lPyDKsD+7ooQ/KqEE\r\nP27mMj87Krs+CHdhPkWOzT3sz7k8d7fyPL5xbTxRtuw8xzwVPtlhGT/AhIM/veizPtIWnT5COxY9\r\n5XeRPDDu6DxhowY9usDpOy0JITzQb/g8HZEFPvJHRz3loFY+ArWFPut08T6T6rI/HsbcPztCVT8I\r\neVA+WxCIPbgCNj7Xelo+Yk+qPYf1cD1EfMk9oGdIPS6pID0Sq6Y8JbmjPB28mzxu8C08WYjLO+zm\r\n/ztG6pU7BVcNPEeVADtvl0I7n8zGO/a3djvYWUk7ApX/O0a1Az04s3k8OC6oOlgJQDtsuLM6YvA9\r\nO1OeLjvXSU87CJ0mOyPbFjusnKs7cjIPO75P/ztrHJw8Kvu7PAHN6zvkUro6BIKWOvS0pDpszUg6\r\n0NYJOgzATjr7HBc6bwasOa0tMDnWiKU6cPfMOtDIgTryWzs5klcgOrN+pTngCds5rbqzOaTLtDg/\r\nvtU5juhOOXfNIjkyUgo5p+8MOT5VJzk6aEI5XMhBOdLX9zhAtPo4nOD/ODCv9zg4NPc40ZcPObiQ\r\nBDlAAfg4FrMIOSQo3jjMegc5ANvnOCxOADkguPM4voG8OGqa6Ti3ngg5C/7ZOOVB+TjDGfs4EHsK\r\nOVir/jicM984ZG34OIEZ9zhMIuM4bJ/sOKW09jhwe9U4VubEOPP85zgB/NY45YrbONBgzzgaRuk4\r\njQTHOKJZ3Dgm/8M4V9naOOs53Dj6beI4aELXOJY5zzhug9A4/SDAOFxA2jhoG9g4dtvKOALd1Dhi\r\nNbE44fPGOGxKzjjbWs84pCjdOMU/yTg0Kc842tLQOPburTgem7o4s6qqOGk0wTiYZsE4bqiUOM13\r\nvjhWdZs4JffNOBZDtzjezLs44uLaOG0irTghwaI4DdWrOMysnjh7Hbk4dEbzOKKcujgJJpo4WeKe\r\nOOZNkzhkh8g4qXKoOPbxnzjaTqg4NSSiOOaouDg2c7E4xiqtOEm2oDi0D8k4acOsOF0UojhM15M4\r\n5ai2OEl1nzhdy6I4y7DDOPeymTj8/4s4ISu7OJudmzh0D784JfKGOKAomzj5m5s4/MadOD7n1zh1\r\nt5448zuCOJEmmjhwmIU4xpeZOCLFiTiOU584gHqSONoMnDisnpI40U6UOKY1nDhC6I44CJObOI3v\r\nlTie34Y4BkWQOBR/lTgOZXA4qoaNOKQMgziJa5M4e+yAOEr2jzjNS4k4BhagODKZjzi+OJQ4J/aR\r\nOPAGgzgAdXE4z7qNOG0HhzhP44o4kLd2OM0phDigl2o4jreGOJBbmDjSUIE4CPCDOADhhzhappI4\r\n0DuIOBDAgzg4eo84fQKEONVedjjPtIg4iyaDON0Pgji05YM4JpN3OB1+gjgmtm84gh6OOHHmeji8\r\nB4s4KnaHOF69eTidmW040vuDOLQgazhqj184so2COJC7dTiwOnA40LCDOJm4YTiUVnQ42CJ1OECn\r\nhTisxlk4KgWAOI73ejgF7mg41N1eOOikcTgkC2c4BKNpOFpraDg8mlM45OhmOCJ6eDgHmE44TYdu\r\nOGpfaTgOi0M4cA1YOAAkejjIbUA4dNBSOANwQjiooVs4iclfOK79ajg6ZXQ4mOVSOAYXSzgegGE4\r\nIDt1OIg6Yjhkz1g4aXBSOO7bVTjjiGc42F08OL7GWDgQaFU4h21TOKcJUTgTCmE4AqdoONDASDhl\r\ny1Q4hXZKODr2UTgkEWQ4srBkOHV7SzhPRXA4V3FPOK/qYjhAZ1U41o9aOBikVThy0Ec47ok9OBCu\r\nTDjBPkk48CdaONR+XTiC2VQ4K9QzOIXMXTha5Tw4tupSOOM/QDj9nTg42UkzODJNTDhDkFI4kNYl\r\nOM3UOjhkgF44P/s7OFF1QzgtjUU4RudGOKCYPDibHEA4AhJiOF1URDiKwS84PhA4OCbNLzi1AjE4\r\nrlZDOHh9ODgMnjQ4dF4qODwfODgtRTQ4hClWOLeMMjj5OkM4zYQsOM30Ojh6Yks4rzRROPn9OziJ\r\n9Us4qng2OBQJOThq+jA4BgBIOBYYMjjBxjc4ph5LOATLOji6Ozk4ObcnOJS0LTgvBSc4pm8qOD6f\r\nMzgzj0c4WLkvOLTkMDhUTCE4ibs8OGbpPTgDqiU4HqQvOKx+KziNizI4JkQlOITLMTjl4C04pZgk\r\nOAKBJjgO8Dc4png3OBZjGThYeh84yfMpOF/jKzjKJSg4FU8fOIr1GzinWTw41sgcOOjmNThQvho4\r\nvrkvOOM3Nzj1LiE4caMyOO72JDgPjyU4hscpOJKFFji+9z44flwmOCyzIjjErSI4zL4bOF4aIDjK\r\n7SQ490kgOMrnKDgnwEg47oU9OArPNjjGOy848ZkhOJCFAjh34CY4XH0xOK4IMzjyWQ84qMsbOE8M\r\nOzieNTk4RNQVOJJhIjjL4BU4jlsmOOU9IjiFCDs48d8qODiTEzhlsig4Rv4tOJi8FDg0QxY40OQP\r\nOEUCEziVDxI4TjUVOJLmDzjqlhs4OsQWOCzFEjgctA44X9oPOJW3CDhl1BA4a9McOHCODjj1GSc4\r\nPA4SOLHBGziLbRY4itMTOMBlODit+x44q4IbOFTCHTjyjxA4lUMDOD2/DDiiYhc41JD8N6B6NDgy\r\nlSc4NsgPOIZGETi8ogA4Z7QOOLvpITgJiRE4khwWOHogGThdoxs4WpX5N4Wa9Td+t/836CcnODaA\r\nCDh0HhI4ct4kOPJoDjiIgyE4bLoVOL4rCjhdAgc4mvUcOH2NGThROQ84ujQTOBQhKTh60yA4MTcN\r\nOKt+Izh2GSM4x0IVOATHGjh2/AY4iQYVOMPzIDgE7hM4U0UcOG7HADgR6A448I8ROEVkEzgRDw44\r\ngGcmODybFjgjqgs45gUDOAxKBziYWwk4wn30NwMV9DcdURc4XGgXOJLMDjheNg04YqoXOGN1Fjgv\r\nZR04+0ETODL1Bzgt2BM4qMIAOEqMBTg7z+437jkDOPYuADhP1RM4QhwHOEqCCDibFwo45DgLOFHH\r\nBTiMPvM30M4vODnbEzjpsA44c5j+N1mTBDh/Ae03+PggOOg2DjjHbAc4UJcbOKHsBDhmzQI4V2nl\r\nN1TD9jcg8P03BWb2N5BB8TeD5w04+TMeOIUvFTj0EAo4/RgDOBphCTgMqgE4x98IOEiTBzhNURs4\r\njlIWOLDkCDhAzPw3gRf+N+aA9Dck3fM3OKQNOC1qFzh4Jf03OEMDOPpFBDgX5uM31McPOGKUCTjw\r\nhOk3IcIbOBz1DTiH/Pk3KpPwN46t+zdO3Qg4eAj4N/TKAjiAcQ04bY3rNyxjEzjTJO83MQcHOPW7\r\nDDgiX+8350AKOJWwDTgUzgI4tRLlNzZNADi7K/43S73+NzYlBzhuvxU4ohcBOGwiEDhT6vo3U/wL\r\nOHFTBThJNRI4EM/3N4DNCzjDCes3rV4SOOuMGzg/qBM456IMOBU95zfEBAI4J8X+N4wxBjgAsx44\r\nHvwXOIoR8DfZ2go4JLIGOBsL/je4hQk49fcOOAwAFzhWEQM4NP4IOGusCDgCjO036QnqNx195Tcb\r\nKfY3ZLAAOE7f9zdRbvs3Dd4AOKkgCjgVtfY3XBb3NxePFDihPhE4s3MCOL4z5jccY9s3evkKONSY\r\nDzhByes3BKAEOLkmDzjLR/k3qHjZN9Am8TfWQPg3SbAdOD+K8zd63hk4i0YJOCZA+zfKBfM3AbP3\r\nNzSt/jdgzPc3XRHMN13WATgrxQw4mdgDOPA9BzgMGQw4E+UGOMl96zeTDP039TvkN/aoATiq9Bo4\r\nfDQDOFq77Tfw8QY4nj/3N/oM7TfcNeU39lznNwH7CjiuPf43YqAAOGg14zdCOtQ3zukROHDkDTh8\r\nb943cDT4N9at/Te2u9k3srfoNwd67jelVgo4hiwMOF989jeTr+I3mu7uN87AADhVF+w3zFT8N+z+\r\n7DexMQg49Y3xN/I71TdzpgY4qwP7NwKD+TcIWwg4KIIGOF6pCDi3vAk4A139Nym8DzjCRQU4izT/\r\nN4HG/zfFRN03UvP8N09sDDh8+/c3A6jsN4cg+zfcYPk3yiD1NypmDziaQwA4ABAWOA==",
                            "noiseTrainingType" : "default"
                          }
                        }
                    ],
                    "start" : 3937,
                    "duration" : 256,
                    "mediaStart" : 10688,
                    "mediaDuration" : 256,
                    "scalar" : 1,
                    "metadata" : {
                      "WinSubProjectDisplayName" : "",
                      "clipSpeedAttribute" : false
                    },
                    "animationTracks" : {

                    }
                  },
                  {
                    "id" : 96,
                    "_type" : "StitchedMedia",
                    "minMediaStart" : 0,
                    "attributes" : {
                      "ident" : "tower-columns-02",
                      "gain" : 1.0,
                      "mixToMono" : false
                    },
                    "parameters" : {
                      "volume" : 1.0,
                      "cursorOpacity" : 1.0,
                      "cursorScale" : 1.0
                    },
                    "medias" : [
                        {
                          "id" : 97,
                          "_type" : "AMFile",
                          "src" : 2,
                          "trackNumber" : 1,
                          "attributes" : {
                            "ident" : "Rec 02-03-20_008",
                            "sampleRate" : 44100,
                            "bitDepth" : 16,
                            "gain" : 1.0,
                            "mixToMono" : false
                          },
                            "channelNumber" : "0,1",
                          "effects" : [

                          ],
                          "start" : 0,
                          "duration" : 10292,
                          "mediaStart" : 0,
                          "mediaDuration" : 10292,
                          "scalar" : 1,
                          "metadata" : {
                            "WinSubProjectDisplayName" : "",
                            "clipSpeedAttribute" : false
                          },
                          "animationTracks" : {

                          }
                        },
                        {
                          "id" : 98,
                          "_type" : "AMFile",
                          "src" : 2,
                          "trackNumber" : 1,
                          "attributes" : {
                            "ident" : "Rec 02-03-20_008",
                            "sampleRate" : 44100,
                            "bitDepth" : 16,
                            "gain" : 1.0,
                            "mixToMono" : false
                          },
                            "channelNumber" : "0,1",
                          "effects" : [

                          ],
                          "start" : 10292,
                          "duration" : 36,
                          "mediaStart" : 10326,
                          "mediaDuration" : 36,
                          "scalar" : 1,
                          "metadata" : {
                            "WinSubProjectDisplayName" : "",
                            "clipSpeedAttribute" : false
                          },
                          "animationTracks" : {

                          }
                        },
                        {
                          "id" : 99,
                          "_type" : "AMFile",
                          "src" : 2,
                          "trackNumber" : 1,
                          "attributes" : {
                            "ident" : "Rec 02-03-20_008",
                            "sampleRate" : 44100,
                            "bitDepth" : 16,
                            "gain" : 1.0,
                            "mixToMono" : false
                          },
                            "channelNumber" : "0,1",
                          "effects" : [

                          ],
                          "start" : 10328,
                          "duration" : 6867,
                          "mediaStart" : 10429,
                          "mediaDuration" : 6867,
                          "scalar" : 1,
                          "metadata" : {
                            "WinSubProjectDisplayName" : "",
                            "clipSpeedAttribute" : false
                          },
                          "animationTracks" : {

                          }
                        }
                    ],
                    "effects" : [
                        {
                          "effectName" : "NoiseReduction",
                          "category" : "categoryAudioEffects",
                          "parameters" : {
                            "denoiserAmount" : 20.0,
                            "denoiserThreshold" : 0.0,
                            "noiseProfile" : "nZZEP5RikT+EmBI/KnP9Pwpb60CvxkBCXd+jQY7whEBNATBANMPsP4KGpD+w7W0/anS9Pp7DVz9W\r\nWXQ/MgZ/P+zyAz9dsAo/gB+NPqGyij5E040+/uumPv40FD+XEEU/tV4HQPJC2j8hHus+xuOAP6zl\r\n5z90pQ1Ba2PWQS3MBkIj5nRCW1rKQY1QFkK3mEVB9qOyPwsemz8mGQ1AijZpPxFZQT/VTxpASC+d\r\nQCqNR0DvUjw/MkSRP+5Cyz9dMp5AxHPBQOjFykBxUbJAbLJrQIWNh0Ao+CBAwwLMP+FF0D4cuo8/\r\nuImEPjCeRj+bKaM+IG0JP2yQwz6tn5U+qB2AP+vXTkA8V4dAgKfTQNyvSEF+jC1Bph3FQGxo5D95\r\nslQ/tPxpQJQjx0CKrrY/xV8GQGT1jj4EuzU+8okfP2AnBEDs5us/TDerPp3xQT4TlM0+6GdaQF4s\r\ntD4fWws+a5uyPjJJ7z5q9gE/RIxFPmxZiD7SEoA+GN98PS44LT5y6cI9Dw/HPfSD9j1k3Kk9K3wV\r\nPWimMD14iYE+wp7rPDoGDj2O6eI9TxmJPp+HRT7kLcA9jV4WPh8AMz/Hnfs/2kCvP3ePHD+bues+\r\nVL8aPpC4nj0mH0U+/EEAPoPZ/D00ryk/PBU2PzggAT+jYFU/APwCP1NnMz57UIA9BJDwPTWVgz1y\r\nWSU99nonPRB7hDwE15A8VLZMPN6whzwsiLo8Mk4iPbbI2zxrhWc9Ioh5PLAPuzyowQA9mAeWPH1H\r\najwugmM+B+P0PS6CmD70WoA+BH0tPtftpz2SfTw97jcVPdzHBz180qk8YN4WPfLBaj3RUck89fm8\r\nPMZHGj1HhXY9M7QQPZ4+8DwioaM8CmQ/PYZ38z3Oorw9OyFwPTbqkD1xFAM9DtqUPT6SQD6yGYI+\r\nalU/P1c7GD+D3uE+2JirPp1Agj5rrp49Cl1RPvUnEz/ajxw/BhFlP0VGET/D7CQ/+xu1PvIzCD4g\r\nrE49sI0yPHErozxBRP88rvE+PTLyhDyog6084rBlPAPxyzybXyo+Qb0FPsR4Tj5Uf8I+oK9bP5Ye\r\nzz/wjaI//GcCP8ZWPz7YNEw/kjERPyccWj6Y3t89wagTPsxDij1aHZs9I4i6PYZBjD5ICaY+/o68\r\nPfDUwT3y5r89C71sP+LYoj+i9no/pkJDP2Ptiz5ELyg+r/QsPo0aCT4KiYY91w0jPiuwXj3+PLc+\r\nw7TkP9aXFkBasqU/1vAcPzylMj+nT/I+GoCkPip3UD598Ik9NBIWPZ7GwT3C5K88LDMyPiNbmT6e\r\nCFw+Ct0KP8c0RD8weHQ+Y6UCPieEET0Vz3Y8OojrPNj93DzxLm49MENGPfb+Yz1w+2U9sSX6PYrh\r\n7j1JDZI9RgUTPeLDjjwCDqY7R86oPIKNCD3+beY99pvRPh32Rz/dzUY/BG5cP6DupT8gyrA/u6KE\r\nPyqhBD+k3zI/Oyq7Pgh3YT5Fjs09LRq6PLg48zxQA248aRXtPCX1FD5rixk/9oCDP1vysz5lIp0+\r\nYIUWPeV3kTww7ug8YaMGPXG/6TstCSE8Axj4PO2dBT6AKEc9c6NWPp/chT6Hj/E+queyP3Wl3D8G\r\nSlU/dpFQPtOkiD2fCTY+vUBaPtYpqj0o2XA9NNrJPR6LSD0q8CA9EqumPCW5ozwdvJs8bvAtPGpK\r\nyTvs5v87RuqVO/g6DTwYgv86b5dCO5/Mxjv2t3Y72FlJOwKV/zs15AM9OLN5PDguqDpYCUA7bLiz\r\nOmLwPTtTni47BhRPOwidJjvXnhU7OLSqO2uZDzsENAA8mR6cPP2Ruzyuwes75FK6OgSCljr0tKQ6\r\nbM1IOtDWCToMwE46+xwXOm8GrDnyHzY51oilOnD3zDrQyIE68ls7OZR/HzqzfqU5au7dOa26szmk\r\ny7Q4G57ROTq+UjmOGiA5XskIOfyXBzmOxio59vE9OX4fQDnGVfU4+Fv6OCad9Tj2Bvg4cAr3OAY2\r\nCzlGnO441lLwOEQoBDkuQeA4K4EQOVaz5Tjwf/o4kybuOLUiuDiYY/Y43CoKOYXe5DjC9gM5ej7z\r\nONWxAzkLGAE5pLzjOGU09DjMvPg4RsfmOF7A4jjiFOs4I3rbOFlr0jhTNeo4zCfSOBzm3zhs69A4\r\n7AbrON69yjhz/to499XGOEmf5jj5zuE495HjOGo0zzjInM04iATQOMR1vjhCn9845ivZOIgawjhu\r\n2NE46re1OAQ6yTi+ANA4FrjTOA2N1jg7d8E44ArYOOat0zhGWLU4bj6+OKz8tzj6y744/M+0OJfz\r\nlTjH78k4paOaOIZByjhuxME44x2/OHC83ji4vbE4/pWuOHkaqTguYKE4uz68ONIf7zjqPbY4/SKa\r\nOFT1oTjExZQ4wLXOOCWvtjgb5544yFOqOEdMszi/k9E4HhuzOLdVnzjLbpU4PN+uOKs9rTillq04\r\nLQyVOL91ojhkaZg4CXShOCq3wzhFK5k4PKJvOJv21zhCGZk4dQW8OB7DljjY36g4bZSbOH+3ojg5\r\nTNg4xUSZOJRHhjgCIZk4inWIOP4UqTgzpZU40gitOFXVjzj45pk4/qmSOHvVjjg/bpM4kECQOI2G\r\nnjj5lJM4F82CONsFhjgkt5g4cgOGOCgakzhQvnE4cNGPOI0UiDjMIJA4Yp+IOI7mnzhtEpY4CkSQ\r\nOC1EkjgceZI4jXN2OFxmiTjNu4U4TO6RODzyezglsYc4UmBzOMRAhji2RJA4HlaFOM0pjDiAEIs4\r\nJk2VOL3PkDiVXok4seaPOEFwjDjqhXc4BVOFOA7TdTgEl4A4o1mEOCx3dzhOr4M48jNzOKD0gDgE\r\nRm04hnGMOKrehTgUfXc4pkNwOGjthjiCcmk4FfFgOGxshDiGynY4TKNqOOY6hjg7Smw4ccSDOHhW\r\nbDj8Goc4KW1cOK3YhTjo84U4zrRvOIzbWjgyI244gAJyODC9ajgGzXA4tO1QODQ0aDiH2HU4rYlM\r\nONY4XTjNM184j1ZGOBL3SzjKznY4CjlJODt3UTiY0UM4Y3VPOEgNajh6THk4X5h9ON0OVDiNnUo4\r\n4mFNOF56UTgO5V84IKdPOP76WDiC/Vc4D/hqOFy1QzhEZ1k4BhpaODSxZTjNxFc427VeOKPacTgD\r\nMUU4VL9SOAB3UDiKqE049TNaOE7ZXTixSkc48IhdOEbYPjj+VU84q9RYOKpoXDjgA0I4FQhKOG5u\r\nPzgCjEw4kL5GOGqGVji6ulQ4ttdJOKSWLTgi5WY4LPhDOOCoSThQHD84anI8OEL/Kjh4YEU4TkxT\r\nOI4XKDgMFz04qsxWOAJGOzgzAj44/hc7OMNiOzjx4js49WUzOJQrYDhpgTo4yVgwOJcEOzj/xTg4\r\n/kI9OAwdSTi2+i84vU00OLujKzhkOzk4+qwzOL9EVDiWNTo45YYvOOBQGzgoHic4/YBRODZ6Sjgj\r\nbjQ4pmNFONg6LjjMlTw4gQQtOP0bRTgb0Dc4mZg3OHcHSzgcpz44mDc5OFg0LDjOFS04h7EtOGCB\r\nNzic/yo4GEI9OI/TLTiQ0yw4XoIjOPszMjhYAEI4bg0hODIoJjhosis4KjQ+OGTrMzht8yo4YeIw\r\nODAQITgKdiU4rEkwOJi3Ozjcdx04ISEbOJh2Izijjyw4OhcmOHRFITgT6xU4kdQxOLxbHTgDbTY4\r\ntIQVOI9RMzhPqTU4TbgiOE4fLjgl8io44ncnOJyyLDgpNSE4iXY2OGpDJzhixSQ4kEUoOPWnLzjj\r\n/iM4kIEZOM8MJThE4B04TEw2OOT7PDgc9T0433gmOMP8Hjj0EAw4YNEwOETuKTiAGS04dxAQODKg\r\nITiiaTE4Z885OPzGHzgn9x44ndYcOABiJjjU2Cc4sW0zOBN/IDimiAo4sCUiOANqKTgw8Rc4yaIW\r\nOG9NFji4/BI4B6QQONQZGjhD0BQ47nokOJ8bGThOwBk4pocWOEoyETiTCxE4Yq0cOEeyIzi9OBM4\r\nv/YnOOyEHDidDBI4IbgYOJR4Ejh+wTM4MZMVOCuFEjjYkxw407sLOGo0AzhY0BE4p0olOFrP+Dfs\r\nYyc4+0YTOOs6DDiEVhQ4YKYUOHAJEzgJSBo4QgMTOINHHjgn7Ck4FKQnOBl3Czhg0Os3cCsAOD5G\r\nHzjI5g84n9kWOFVsFjhEJw84vnkbOCJpFDiL6A84XJsPOJBwHDjEhhs4T9ciOPssETgwpx04tgIX\r\nOLg4CjgjFiI4RsYXOKX/DjiMPxk4ROMROGsJFTi3wCM48s4hOFQWITgIBQs4VZsEOHH0Djg3/SM4\r\nKg4VODbaHDgTsAo4FWoIOOeDAziPNxg4QzcPOJfCBzgo2/k3bjsRONqXGzhUVxs4NMkROMs/Fzjr\r\nuA84DyIIOO6ODzg7PQg4exQUOO2RDTgEVBA4088BOLd9BDhDowQ4YvEOONmgBTjauAM4KtYGONbq\r\nFDjISQM4YRT9N+0BLDh5Bgw4bpMLOHstAjj4VAQ4nODnNySVIzg4hBA4taoQOMpRFDjFDgI4hG0G\r\nOAK96De7EO833kcIONhN/zeCT/E3cfUMOFF4JDhMPxQ4ZhALOM1GBzgaZQU44rwBOG0lBzh2Hhc4\r\nCroSOKcrDDgpVAo4brsKOLOWATjnIOo3e17vNxi0DTj1lQw4RUL2N4LB/zcyQPw38aXdN8/zDjja\r\nOg44Bf3tN3e0HTgQzg84oIoCOOyh8Teynvs3bz0COGqZAzigmgk4CRQOOPU07jdG3hM4En3uN/Nj\r\n+DcfcxE41rT5N+q0BDgwLgI4vlnzN2aP6DfMYPI3Z6oMOMwxBThY3v03/AMVOHcgBjjlvRE4uYf5\r\nN1/wFjhXJA84qzUNOPPyADhsFRQ4Tp0FOCjyDDhBdRE4uG0MOB7QAjh+9wI43kwIOCWj9zdtDgA4\r\ntCElOI+BDjidJew3mCT7N/HSAjinkQI4PQkEOEdlHTgv2Rg4PKHaN9Ux+TfkohU49zTvN+crATiS\r\n4eQ3iv0AOBn7+jcaav43PFACOPky8Dfft/w3zHDfN2YC/Df3EAs4BdAMOCkKDDjLBPE3fz7gN6G9\r\nDziqFw84DDj4N0Ce/jdwWAo48wHhN0D52zcaN/s3afLyN8KwEjhVGOA3iy4ROCK9BDiyzww4/nEH\r\nOOZw+jfUyvA3tmD7N6Xn3Tf9JxE4GYMVODMjATips+w3BXIGOMpaFjjlxOk3KAXnN2sV6jeISwk4\r\neJsTOKJV9zenSvU3byUJODme4TdgQeI3LZjvNzpo7DdF7f03yXX7N+XTCzi0ZO03gdLiNwtmFDhF\r\nmAE4BVfVN+n+9DczhQY4P2fgN3XV8zfV7vI3JscEOGgpBDjdGwA4V8TzN02xBjhTqAA4NMTcN0+x\r\n7zeS5Ok3ZloJOD9T+Dd1gss3YWIIOB4mATiE1f83HCkROFN/9jeGFgo4W5AROJdhAThP8wg49MYJ\r\nOIRx8Df7jeo3cS7iN9evDDh4MAw4wvnpN4i68zet/e43XgwEOE+c8TfyVxg4ApsCOACBDjiVgUQ/\r\nu1qRP4SYEj/VeP0/H2rrQK/GQEJd36NBjvCEQE0BMEA0w+w/OpCkP7DtbT9qdL0+QdJXP1ZZdD8y\r\nBn8/7PIDP12wCj+AH40+obKKPkTTjT7+66Y+/jQUP5cQRT9JZAdApD7aPyEe6z7F8oA/cd/nP5yp\r\nDUFrY9ZBFswGQiPmdEJbWspBjVAWQreYRUH2o7I/Cx6bPyYZDUBEGGk/EVlBP9VPGkBIL51AKo1H\r\nQO9SPD8yRJE/7kLLP10ynkDEc8FA6MXKQHFRskBssmtAhY2HQCj4IEDDAsw/4UXQPhy6jz+4iYQ+\r\nMJ5GP5spoz4gbQk/bJDDPr6+lT6oHYA/69dOQDxXh0CAp9NA3K9IQX6MLUGmHcVAbGjkP3myVD+0\r\n/GlAlCPHQIqutj/FXwZAZPWOPgS7NT7yiR8/YCcEQOzm6z9MN6s+nfFBPhOUzT7oZ1pAXiy0Ph9b\r\nCz5rm7I+MknvPmr2AT9EjEU+bFmIPtISgD4Y33w9LjgtPnLpwj2ox8Y96KL2PS7CqT0rfBU9aKYw\r\nPXiJgT7Cnus8OgYOPY7p4j1PGYk+n4dFPuQtwD2NXhY+HwAzP8ed+z/aQK8/d48cP5u56z5Uvxo+\r\nkLiePSYfRT78QQA+g9n8PTSvKT88FTY/OCABP6NgVT8A/AI/U2czPntQgD0EkPA9NZWDPXJZJT1A\r\nNSg9Ge6DPIg8kTxUtkw83rCHPCyIujwyTiI9tsjbPGuFZz0iiHk8sA+7PDlUAD2YB5Y8fUdqPC6C\r\nYz4H4/Q9LoKYPvRagD4EfS0+1+2nPZJ9PD3uNxU93McHPXzSqTxg3hY98sFqPdFRyTz1+bw8gqsZ\r\nPUeFdj0ztBA9nj7wPCKhozwKZD89hnfzPc6ivD07IXA9NuqQPXEUAz0O2pQ9PpJAPrIZgj5qVT8/\r\nVzsYP4Pe4T7YmKs+nUCCPmuunj0KXVE+9ScTP9qPHD8GEWU/hDERPwnmJD/6G7U+8jMIPgCZTj2w\r\njTI8cSujPEFE/zyu8T49c7uDPBvyrDzisGU8A/HLPJtfKj5BvQU+xHhOPlR/wj6gr1s/lh7PP/CN\r\noj/8ZwI/xlY/Ptg0TD+SMRE/JxxaPpje3z3BqBM+zEOKPVodmz0AWbo9lDCMPpIXpj7qb7w9b/rB\r\nPfLmvz3tsGw/HdGiP//eej9BIkM/Y+2LPhp0KD5s9Sw+UA8JPgqJhj3XDSM+K7BePf48tz7DtOQ/\r\n1pcWQFqypT/W8Bw/PKUyP6dP8j4agKQ+KndQPgEHij0kNRY9xdPBPcLkrzwsMzI+I1uZPp4IXD6K\r\npgo/si1EP1hvdD4MkQI+J4QRPVTedTygR+o8vRTePPNJbj0wQ0Y9EMljPYT0ZT0jkfo9iuHuPUkN\r\nkj1GBRM99z2OPAIOpjsHMqk8go0IPf5t5j32m9E+HfZHP93NRj8Eblw/oO6lPyDKsD+7ooQ/KqEE\r\nP27mMj87Krs+CHdhPkWOzT3sz7k8d7fyPL5xbTxRtuw8xzwVPtlhGT/AhIM/veizPtIWnT5COxY9\r\n5XeRPDDu6DxhowY9usDpOy0JITzQb/g8HZEFPvJHRz3loFY+ArWFPut08T6T6rI/HsbcPztCVT8I\r\neVA+WxCIPbgCNj7Xelo+Yk+qPYf1cD1EfMk9oGdIPS6pID0Sq6Y8JbmjPB28mzxu8C08WYjLO+zm\r\n/ztG6pU7BVcNPEeVADtvl0I7n8zGO/a3djvYWUk7ApX/O0a1Az04s3k8OC6oOlgJQDtsuLM6YvA9\r\nO1OeLjvXSU87CJ0mOyPbFjusnKs7cjIPO75P/ztrHJw8Kvu7PAHN6zvkUro6BIKWOvS0pDpszUg6\r\n0NYJOgzATjr7HBc6bwasOa0tMDnWiKU6cPfMOtDIgTryWzs5klcgOrN+pTngCds5rbqzOaTLtDg/\r\nvtU5juhOOXfNIjkyUgo5p+8MOT5VJzk6aEI5XMhBOdLX9zhAtPo4nOD/ODCv9zg4NPc40ZcPObiQ\r\nBDlAAfg4FrMIOSQo3jjMegc5ANvnOCxOADkguPM4voG8OGqa6Ti3ngg5C/7ZOOVB+TjDGfs4EHsK\r\nOVir/jicM984ZG34OIEZ9zhMIuM4bJ/sOKW09jhwe9U4VubEOPP85zgB/NY45YrbONBgzzgaRuk4\r\njQTHOKJZ3Dgm/8M4V9naOOs53Dj6beI4aELXOJY5zzhug9A4/SDAOFxA2jhoG9g4dtvKOALd1Dhi\r\nNbE44fPGOGxKzjjbWs84pCjdOMU/yTg0Kc842tLQOPburTgem7o4s6qqOGk0wTiYZsE4bqiUOM13\r\nvjhWdZs4JffNOBZDtzjezLs44uLaOG0irTghwaI4DdWrOMysnjh7Hbk4dEbzOKKcujgJJpo4WeKe\r\nOOZNkzhkh8g4qXKoOPbxnzjaTqg4NSSiOOaouDg2c7E4xiqtOEm2oDi0D8k4acOsOF0UojhM15M4\r\n5ai2OEl1nzhdy6I4y7DDOPeymTj8/4s4ISu7OJudmzh0D784JfKGOKAomzj5m5s4/MadOD7n1zh1\r\nt5448zuCOJEmmjhwmIU4xpeZOCLFiTiOU584gHqSONoMnDisnpI40U6UOKY1nDhC6I44CJObOI3v\r\nlTie34Y4BkWQOBR/lTgOZXA4qoaNOKQMgziJa5M4e+yAOEr2jzjNS4k4BhagODKZjzi+OJQ4J/aR\r\nOPAGgzgAdXE4z7qNOG0HhzhP44o4kLd2OM0phDigl2o4jreGOJBbmDjSUIE4CPCDOADhhzhappI4\r\n0DuIOBDAgzg4eo84fQKEONVedjjPtIg4iyaDON0Pgji05YM4JpN3OB1+gjgmtm84gh6OOHHmeji8\r\nB4s4KnaHOF69eTidmW040vuDOLQgazhqj184so2COJC7dTiwOnA40LCDOJm4YTiUVnQ42CJ1OECn\r\nhTisxlk4KgWAOI73ejgF7mg41N1eOOikcTgkC2c4BKNpOFpraDg8mlM45OhmOCJ6eDgHmE44TYdu\r\nOGpfaTgOi0M4cA1YOAAkejjIbUA4dNBSOANwQjiooVs4iclfOK79ajg6ZXQ4mOVSOAYXSzgegGE4\r\nIDt1OIg6Yjhkz1g4aXBSOO7bVTjjiGc42F08OL7GWDgQaFU4h21TOKcJUTgTCmE4AqdoONDASDhl\r\ny1Q4hXZKODr2UTgkEWQ4srBkOHV7SzhPRXA4V3FPOK/qYjhAZ1U41o9aOBikVThy0Ec47ok9OBCu\r\nTDjBPkk48CdaONR+XTiC2VQ4K9QzOIXMXTha5Tw4tupSOOM/QDj9nTg42UkzODJNTDhDkFI4kNYl\r\nOM3UOjhkgF44P/s7OFF1QzgtjUU4RudGOKCYPDibHEA4AhJiOF1URDiKwS84PhA4OCbNLzi1AjE4\r\nrlZDOHh9ODgMnjQ4dF4qODwfODgtRTQ4hClWOLeMMjj5OkM4zYQsOM30Ojh6Yks4rzRROPn9OziJ\r\n9Us4qng2OBQJOThq+jA4BgBIOBYYMjjBxjc4ph5LOATLOji6Ozk4ObcnOJS0LTgvBSc4pm8qOD6f\r\nMzgzj0c4WLkvOLTkMDhUTCE4ibs8OGbpPTgDqiU4HqQvOKx+KziNizI4JkQlOITLMTjl4C04pZgk\r\nOAKBJjgO8Dc4png3OBZjGThYeh84yfMpOF/jKzjKJSg4FU8fOIr1GzinWTw41sgcOOjmNThQvho4\r\nvrkvOOM3Nzj1LiE4caMyOO72JDgPjyU4hscpOJKFFji+9z44flwmOCyzIjjErSI4zL4bOF4aIDjK\r\n7SQ490kgOMrnKDgnwEg47oU9OArPNjjGOy848ZkhOJCFAjh34CY4XH0xOK4IMzjyWQ84qMsbOE8M\r\nOzieNTk4RNQVOJJhIjjL4BU4jlsmOOU9IjiFCDs48d8qODiTEzhlsig4Rv4tOJi8FDg0QxY40OQP\r\nOEUCEziVDxI4TjUVOJLmDzjqlhs4OsQWOCzFEjgctA44X9oPOJW3CDhl1BA4a9McOHCODjj1GSc4\r\nPA4SOLHBGziLbRY4itMTOMBlODit+x44q4IbOFTCHTjyjxA4lUMDOD2/DDiiYhc41JD8N6B6NDgy\r\nlSc4NsgPOIZGETi8ogA4Z7QOOLvpITgJiRE4khwWOHogGThdoxs4WpX5N4Wa9Td+t/836CcnODaA\r\nCDh0HhI4ct4kOPJoDjiIgyE4bLoVOL4rCjhdAgc4mvUcOH2NGThROQ84ujQTOBQhKTh60yA4MTcN\r\nOKt+Izh2GSM4x0IVOATHGjh2/AY4iQYVOMPzIDgE7hM4U0UcOG7HADgR6A448I8ROEVkEzgRDw44\r\ngGcmODybFjgjqgs45gUDOAxKBziYWwk4wn30NwMV9DcdURc4XGgXOJLMDjheNg04YqoXOGN1Fjgv\r\nZR04+0ETODL1Bzgt2BM4qMIAOEqMBTg7z+437jkDOPYuADhP1RM4QhwHOEqCCDibFwo45DgLOFHH\r\nBTiMPvM30M4vODnbEzjpsA44c5j+N1mTBDh/Ae03+PggOOg2DjjHbAc4UJcbOKHsBDhmzQI4V2nl\r\nN1TD9jcg8P03BWb2N5BB8TeD5w04+TMeOIUvFTj0EAo4/RgDOBphCTgMqgE4x98IOEiTBzhNURs4\r\njlIWOLDkCDhAzPw3gRf+N+aA9Dck3fM3OKQNOC1qFzh4Jf03OEMDOPpFBDgX5uM31McPOGKUCTjw\r\nhOk3IcIbOBz1DTiH/Pk3KpPwN46t+zdO3Qg4eAj4N/TKAjiAcQ04bY3rNyxjEzjTJO83MQcHOPW7\r\nDDgiX+8350AKOJWwDTgUzgI4tRLlNzZNADi7K/43S73+NzYlBzhuvxU4ohcBOGwiEDhT6vo3U/wL\r\nOHFTBThJNRI4EM/3N4DNCzjDCes3rV4SOOuMGzg/qBM456IMOBU95zfEBAI4J8X+N4wxBjgAsx44\r\nHvwXOIoR8DfZ2go4JLIGOBsL/je4hQk49fcOOAwAFzhWEQM4NP4IOGusCDgCjO036QnqNx195Tcb\r\nKfY3ZLAAOE7f9zdRbvs3Dd4AOKkgCjgVtfY3XBb3NxePFDihPhE4s3MCOL4z5jccY9s3evkKONSY\r\nDzhByes3BKAEOLkmDzjLR/k3qHjZN9Am8TfWQPg3SbAdOD+K8zd63hk4i0YJOCZA+zfKBfM3AbP3\r\nNzSt/jdgzPc3XRHMN13WATgrxQw4mdgDOPA9BzgMGQw4E+UGOMl96zeTDP039TvkN/aoATiq9Bo4\r\nfDQDOFq77Tfw8QY4nj/3N/oM7TfcNeU39lznNwH7CjiuPf43YqAAOGg14zdCOtQ3zukROHDkDTh8\r\nb943cDT4N9at/Te2u9k3srfoNwd67jelVgo4hiwMOF989jeTr+I3mu7uN87AADhVF+w3zFT8N+z+\r\n7DexMQg49Y3xN/I71TdzpgY4qwP7NwKD+TcIWwg4KIIGOF6pCDi3vAk4A139Nym8DzjCRQU4izT/\r\nN4HG/zfFRN03UvP8N09sDDh8+/c3A6jsN4cg+zfcYPk3yiD1NypmDziaQwA4ABAWOA==",
                            "noiseTrainingType" : "default"
                          }
                        }
                    ],
                    "start" : 4193,
                    "duration" : 24,
                    "mediaStart" : 10998,
                    "mediaDuration" : 24,
                    "scalar" : 1,
                    "metadata" : {
                      "WinSubProjectDisplayName" : "",
                      "clipSpeedAttribute" : false
                    },
                    "animationTracks" : {

                    }
                  },
                  {
                    "id" : 100,
                    "_type" : "StitchedMedia",
                    "minMediaStart" : 0,
                    "attributes" : {
                      "ident" : "tower-columns-02",
                      "gain" : 1.0,
                      "mixToMono" : false
                    },
                    "parameters" : {
                      "volume" : 1.0,
                      "cursorOpacity" : 1.0,
                      "cursorScale" : 1.0
                    },
                    "medias" : [
                        {
                          "id" : 101,
                          "_type" : "AMFile",
                          "src" : 2,
                          "trackNumber" : 1,
                          "attributes" : {
                            "ident" : "Rec 02-03-20_008",
                            "sampleRate" : 44100,
                            "bitDepth" : 16,
                            "gain" : 1.0,
                            "mixToMono" : false
                          },
                            "channelNumber" : "0,1",
                          "effects" : [

                          ],
                          "start" : 0,
                          "duration" : 10292,
                          "mediaStart" : 0,
                          "mediaDuration" : 10292,
                          "scalar" : 1,
                          "metadata" : {
                            "WinSubProjectDisplayName" : "",
                            "clipSpeedAttribute" : false
                          },
                          "animationTracks" : {

                          }
                        },
                        {
                          "id" : 102,
                          "_type" : "AMFile",
                          "src" : 2,
                          "trackNumber" : 1,
                          "attributes" : {
                            "ident" : "Rec 02-03-20_008",
                            "sampleRate" : 44100,
                            "bitDepth" : 16,
                            "gain" : 1.0,
                            "mixToMono" : false
                          },
                            "channelNumber" : "0,1",
                          "effects" : [

                          ],
                          "start" : 10292,
                          "duration" : 36,
                          "mediaStart" : 10326,
                          "mediaDuration" : 36,
                          "scalar" : 1,
                          "metadata" : {
                            "WinSubProjectDisplayName" : "",
                            "clipSpeedAttribute" : false
                          },
                          "animationTracks" : {

                          }
                        },
                        {
                          "id" : 103,
                          "_type" : "AMFile",
                          "src" : 2,
                          "trackNumber" : 1,
                          "attributes" : {
                            "ident" : "Rec 02-03-20_008",
                            "sampleRate" : 44100,
                            "bitDepth" : 16,
                            "gain" : 1.0,
                            "mixToMono" : false
                          },
                            "channelNumber" : "0,1",
                          "effects" : [

                          ],
                          "start" : 10328,
                          "duration" : 6867,
                          "mediaStart" : 10429,
                          "mediaDuration" : 6867,
                          "scalar" : 1,
                          "metadata" : {
                            "WinSubProjectDisplayName" : "",
                            "clipSpeedAttribute" : false
                          },
                          "animationTracks" : {

                          }
                        }
                    ],
                    "effects" : [
                        {
                          "effectName" : "NoiseReduction",
                          "category" : "categoryAudioEffects",
                          "parameters" : {
                            "denoiserAmount" : 20.0,
                            "denoiserThreshold" : 0.0,
                            "noiseProfile" : "nZZEP5RikT+EmBI/KnP9Pwpb60CvxkBCXd+jQY7whEBNATBANMPsP4KGpD+w7W0/anS9Pp7DVz9W\r\nWXQ/MgZ/P+zyAz9dsAo/gB+NPqGyij5E040+/uumPv40FD+XEEU/tV4HQPJC2j8hHus+xuOAP6zl\r\n5z90pQ1Ba2PWQS3MBkIj5nRCW1rKQY1QFkK3mEVB9qOyPwsemz8mGQ1AijZpPxFZQT/VTxpASC+d\r\nQCqNR0DvUjw/MkSRP+5Cyz9dMp5AxHPBQOjFykBxUbJAbLJrQIWNh0Ao+CBAwwLMP+FF0D4cuo8/\r\nuImEPjCeRj+bKaM+IG0JP2yQwz6tn5U+qB2AP+vXTkA8V4dAgKfTQNyvSEF+jC1Bph3FQGxo5D95\r\nslQ/tPxpQJQjx0CKrrY/xV8GQGT1jj4EuzU+8okfP2AnBEDs5us/TDerPp3xQT4TlM0+6GdaQF4s\r\ntD4fWws+a5uyPjJJ7z5q9gE/RIxFPmxZiD7SEoA+GN98PS44LT5y6cI9Dw/HPfSD9j1k3Kk9K3wV\r\nPWimMD14iYE+wp7rPDoGDj2O6eI9TxmJPp+HRT7kLcA9jV4WPh8AMz/Hnfs/2kCvP3ePHD+bues+\r\nVL8aPpC4nj0mH0U+/EEAPoPZ/D00ryk/PBU2PzggAT+jYFU/APwCP1NnMz57UIA9BJDwPTWVgz1y\r\nWSU99nonPRB7hDwE15A8VLZMPN6whzwsiLo8Mk4iPbbI2zxrhWc9Ioh5PLAPuzyowQA9mAeWPH1H\r\najwugmM+B+P0PS6CmD70WoA+BH0tPtftpz2SfTw97jcVPdzHBz180qk8YN4WPfLBaj3RUck89fm8\r\nPMZHGj1HhXY9M7QQPZ4+8DwioaM8CmQ/PYZ38z3Oorw9OyFwPTbqkD1xFAM9DtqUPT6SQD6yGYI+\r\nalU/P1c7GD+D3uE+2JirPp1Agj5rrp49Cl1RPvUnEz/ajxw/BhFlP0VGET/D7CQ/+xu1PvIzCD4g\r\nrE49sI0yPHErozxBRP88rvE+PTLyhDyog6084rBlPAPxyzybXyo+Qb0FPsR4Tj5Uf8I+oK9bP5Ye\r\nzz/wjaI//GcCP8ZWPz7YNEw/kjERPyccWj6Y3t89wagTPsxDij1aHZs9I4i6PYZBjD5ICaY+/o68\r\nPfDUwT3y5r89C71sP+LYoj+i9no/pkJDP2Ptiz5ELyg+r/QsPo0aCT4KiYY91w0jPiuwXj3+PLc+\r\nw7TkP9aXFkBasqU/1vAcPzylMj+nT/I+GoCkPip3UD598Ik9NBIWPZ7GwT3C5K88LDMyPiNbmT6e\r\nCFw+Ct0KP8c0RD8weHQ+Y6UCPieEET0Vz3Y8OojrPNj93DzxLm49MENGPfb+Yz1w+2U9sSX6PYrh\r\n7j1JDZI9RgUTPeLDjjwCDqY7R86oPIKNCD3+beY99pvRPh32Rz/dzUY/BG5cP6DupT8gyrA/u6KE\r\nPyqhBD+k3zI/Oyq7Pgh3YT5Fjs09LRq6PLg48zxQA248aRXtPCX1FD5rixk/9oCDP1vysz5lIp0+\r\nYIUWPeV3kTww7ug8YaMGPXG/6TstCSE8Axj4PO2dBT6AKEc9c6NWPp/chT6Hj/E+queyP3Wl3D8G\r\nSlU/dpFQPtOkiD2fCTY+vUBaPtYpqj0o2XA9NNrJPR6LSD0q8CA9EqumPCW5ozwdvJs8bvAtPGpK\r\nyTvs5v87RuqVO/g6DTwYgv86b5dCO5/Mxjv2t3Y72FlJOwKV/zs15AM9OLN5PDguqDpYCUA7bLiz\r\nOmLwPTtTni47BhRPOwidJjvXnhU7OLSqO2uZDzsENAA8mR6cPP2Ruzyuwes75FK6OgSCljr0tKQ6\r\nbM1IOtDWCToMwE46+xwXOm8GrDnyHzY51oilOnD3zDrQyIE68ls7OZR/HzqzfqU5au7dOa26szmk\r\ny7Q4G57ROTq+UjmOGiA5XskIOfyXBzmOxio59vE9OX4fQDnGVfU4+Fv6OCad9Tj2Bvg4cAr3OAY2\r\nCzlGnO441lLwOEQoBDkuQeA4K4EQOVaz5Tjwf/o4kybuOLUiuDiYY/Y43CoKOYXe5DjC9gM5ej7z\r\nONWxAzkLGAE5pLzjOGU09DjMvPg4RsfmOF7A4jjiFOs4I3rbOFlr0jhTNeo4zCfSOBzm3zhs69A4\r\n7AbrON69yjhz/to499XGOEmf5jj5zuE495HjOGo0zzjInM04iATQOMR1vjhCn9845ivZOIgawjhu\r\n2NE46re1OAQ6yTi+ANA4FrjTOA2N1jg7d8E44ArYOOat0zhGWLU4bj6+OKz8tzj6y744/M+0OJfz\r\nlTjH78k4paOaOIZByjhuxME44x2/OHC83ji4vbE4/pWuOHkaqTguYKE4uz68ONIf7zjqPbY4/SKa\r\nOFT1oTjExZQ4wLXOOCWvtjgb5544yFOqOEdMszi/k9E4HhuzOLdVnzjLbpU4PN+uOKs9rTillq04\r\nLQyVOL91ojhkaZg4CXShOCq3wzhFK5k4PKJvOJv21zhCGZk4dQW8OB7DljjY36g4bZSbOH+3ojg5\r\nTNg4xUSZOJRHhjgCIZk4inWIOP4UqTgzpZU40gitOFXVjzj45pk4/qmSOHvVjjg/bpM4kECQOI2G\r\nnjj5lJM4F82CONsFhjgkt5g4cgOGOCgakzhQvnE4cNGPOI0UiDjMIJA4Yp+IOI7mnzhtEpY4CkSQ\r\nOC1EkjgceZI4jXN2OFxmiTjNu4U4TO6RODzyezglsYc4UmBzOMRAhji2RJA4HlaFOM0pjDiAEIs4\r\nJk2VOL3PkDiVXok4seaPOEFwjDjqhXc4BVOFOA7TdTgEl4A4o1mEOCx3dzhOr4M48jNzOKD0gDgE\r\nRm04hnGMOKrehTgUfXc4pkNwOGjthjiCcmk4FfFgOGxshDiGynY4TKNqOOY6hjg7Smw4ccSDOHhW\r\nbDj8Goc4KW1cOK3YhTjo84U4zrRvOIzbWjgyI244gAJyODC9ajgGzXA4tO1QODQ0aDiH2HU4rYlM\r\nONY4XTjNM184j1ZGOBL3SzjKznY4CjlJODt3UTiY0UM4Y3VPOEgNajh6THk4X5h9ON0OVDiNnUo4\r\n4mFNOF56UTgO5V84IKdPOP76WDiC/Vc4D/hqOFy1QzhEZ1k4BhpaODSxZTjNxFc427VeOKPacTgD\r\nMUU4VL9SOAB3UDiKqE049TNaOE7ZXTixSkc48IhdOEbYPjj+VU84q9RYOKpoXDjgA0I4FQhKOG5u\r\nPzgCjEw4kL5GOGqGVji6ulQ4ttdJOKSWLTgi5WY4LPhDOOCoSThQHD84anI8OEL/Kjh4YEU4TkxT\r\nOI4XKDgMFz04qsxWOAJGOzgzAj44/hc7OMNiOzjx4js49WUzOJQrYDhpgTo4yVgwOJcEOzj/xTg4\r\n/kI9OAwdSTi2+i84vU00OLujKzhkOzk4+qwzOL9EVDiWNTo45YYvOOBQGzgoHic4/YBRODZ6Sjgj\r\nbjQ4pmNFONg6LjjMlTw4gQQtOP0bRTgb0Dc4mZg3OHcHSzgcpz44mDc5OFg0LDjOFS04h7EtOGCB\r\nNzic/yo4GEI9OI/TLTiQ0yw4XoIjOPszMjhYAEI4bg0hODIoJjhosis4KjQ+OGTrMzht8yo4YeIw\r\nODAQITgKdiU4rEkwOJi3Ozjcdx04ISEbOJh2Izijjyw4OhcmOHRFITgT6xU4kdQxOLxbHTgDbTY4\r\ntIQVOI9RMzhPqTU4TbgiOE4fLjgl8io44ncnOJyyLDgpNSE4iXY2OGpDJzhixSQ4kEUoOPWnLzjj\r\n/iM4kIEZOM8MJThE4B04TEw2OOT7PDgc9T0433gmOMP8Hjj0EAw4YNEwOETuKTiAGS04dxAQODKg\r\nITiiaTE4Z885OPzGHzgn9x44ndYcOABiJjjU2Cc4sW0zOBN/IDimiAo4sCUiOANqKTgw8Rc4yaIW\r\nOG9NFji4/BI4B6QQONQZGjhD0BQ47nokOJ8bGThOwBk4pocWOEoyETiTCxE4Yq0cOEeyIzi9OBM4\r\nv/YnOOyEHDidDBI4IbgYOJR4Ejh+wTM4MZMVOCuFEjjYkxw407sLOGo0AzhY0BE4p0olOFrP+Dfs\r\nYyc4+0YTOOs6DDiEVhQ4YKYUOHAJEzgJSBo4QgMTOINHHjgn7Ck4FKQnOBl3Czhg0Os3cCsAOD5G\r\nHzjI5g84n9kWOFVsFjhEJw84vnkbOCJpFDiL6A84XJsPOJBwHDjEhhs4T9ciOPssETgwpx04tgIX\r\nOLg4CjgjFiI4RsYXOKX/DjiMPxk4ROMROGsJFTi3wCM48s4hOFQWITgIBQs4VZsEOHH0Djg3/SM4\r\nKg4VODbaHDgTsAo4FWoIOOeDAziPNxg4QzcPOJfCBzgo2/k3bjsRONqXGzhUVxs4NMkROMs/Fzjr\r\nuA84DyIIOO6ODzg7PQg4exQUOO2RDTgEVBA4088BOLd9BDhDowQ4YvEOONmgBTjauAM4KtYGONbq\r\nFDjISQM4YRT9N+0BLDh5Bgw4bpMLOHstAjj4VAQ4nODnNySVIzg4hBA4taoQOMpRFDjFDgI4hG0G\r\nOAK96De7EO833kcIONhN/zeCT/E3cfUMOFF4JDhMPxQ4ZhALOM1GBzgaZQU44rwBOG0lBzh2Hhc4\r\nCroSOKcrDDgpVAo4brsKOLOWATjnIOo3e17vNxi0DTj1lQw4RUL2N4LB/zcyQPw38aXdN8/zDjja\r\nOg44Bf3tN3e0HTgQzg84oIoCOOyh8Teynvs3bz0COGqZAzigmgk4CRQOOPU07jdG3hM4En3uN/Nj\r\n+DcfcxE41rT5N+q0BDgwLgI4vlnzN2aP6DfMYPI3Z6oMOMwxBThY3v03/AMVOHcgBjjlvRE4uYf5\r\nN1/wFjhXJA84qzUNOPPyADhsFRQ4Tp0FOCjyDDhBdRE4uG0MOB7QAjh+9wI43kwIOCWj9zdtDgA4\r\ntCElOI+BDjidJew3mCT7N/HSAjinkQI4PQkEOEdlHTgv2Rg4PKHaN9Ux+TfkohU49zTvN+crATiS\r\n4eQ3iv0AOBn7+jcaav43PFACOPky8Dfft/w3zHDfN2YC/Df3EAs4BdAMOCkKDDjLBPE3fz7gN6G9\r\nDziqFw84DDj4N0Ce/jdwWAo48wHhN0D52zcaN/s3afLyN8KwEjhVGOA3iy4ROCK9BDiyzww4/nEH\r\nOOZw+jfUyvA3tmD7N6Xn3Tf9JxE4GYMVODMjATips+w3BXIGOMpaFjjlxOk3KAXnN2sV6jeISwk4\r\neJsTOKJV9zenSvU3byUJODme4TdgQeI3LZjvNzpo7DdF7f03yXX7N+XTCzi0ZO03gdLiNwtmFDhF\r\nmAE4BVfVN+n+9DczhQY4P2fgN3XV8zfV7vI3JscEOGgpBDjdGwA4V8TzN02xBjhTqAA4NMTcN0+x\r\n7zeS5Ok3ZloJOD9T+Dd1gss3YWIIOB4mATiE1f83HCkROFN/9jeGFgo4W5AROJdhAThP8wg49MYJ\r\nOIRx8Df7jeo3cS7iN9evDDh4MAw4wvnpN4i68zet/e43XgwEOE+c8TfyVxg4ApsCOACBDjiVgUQ/\r\nu1qRP4SYEj/VeP0/H2rrQK/GQEJd36NBjvCEQE0BMEA0w+w/OpCkP7DtbT9qdL0+QdJXP1ZZdD8y\r\nBn8/7PIDP12wCj+AH40+obKKPkTTjT7+66Y+/jQUP5cQRT9JZAdApD7aPyEe6z7F8oA/cd/nP5yp\r\nDUFrY9ZBFswGQiPmdEJbWspBjVAWQreYRUH2o7I/Cx6bPyYZDUBEGGk/EVlBP9VPGkBIL51AKo1H\r\nQO9SPD8yRJE/7kLLP10ynkDEc8FA6MXKQHFRskBssmtAhY2HQCj4IEDDAsw/4UXQPhy6jz+4iYQ+\r\nMJ5GP5spoz4gbQk/bJDDPr6+lT6oHYA/69dOQDxXh0CAp9NA3K9IQX6MLUGmHcVAbGjkP3myVD+0\r\n/GlAlCPHQIqutj/FXwZAZPWOPgS7NT7yiR8/YCcEQOzm6z9MN6s+nfFBPhOUzT7oZ1pAXiy0Ph9b\r\nCz5rm7I+MknvPmr2AT9EjEU+bFmIPtISgD4Y33w9LjgtPnLpwj2ox8Y96KL2PS7CqT0rfBU9aKYw\r\nPXiJgT7Cnus8OgYOPY7p4j1PGYk+n4dFPuQtwD2NXhY+HwAzP8ed+z/aQK8/d48cP5u56z5Uvxo+\r\nkLiePSYfRT78QQA+g9n8PTSvKT88FTY/OCABP6NgVT8A/AI/U2czPntQgD0EkPA9NZWDPXJZJT1A\r\nNSg9Ge6DPIg8kTxUtkw83rCHPCyIujwyTiI9tsjbPGuFZz0iiHk8sA+7PDlUAD2YB5Y8fUdqPC6C\r\nYz4H4/Q9LoKYPvRagD4EfS0+1+2nPZJ9PD3uNxU93McHPXzSqTxg3hY98sFqPdFRyTz1+bw8gqsZ\r\nPUeFdj0ztBA9nj7wPCKhozwKZD89hnfzPc6ivD07IXA9NuqQPXEUAz0O2pQ9PpJAPrIZgj5qVT8/\r\nVzsYP4Pe4T7YmKs+nUCCPmuunj0KXVE+9ScTP9qPHD8GEWU/hDERPwnmJD/6G7U+8jMIPgCZTj2w\r\njTI8cSujPEFE/zyu8T49c7uDPBvyrDzisGU8A/HLPJtfKj5BvQU+xHhOPlR/wj6gr1s/lh7PP/CN\r\noj/8ZwI/xlY/Ptg0TD+SMRE/JxxaPpje3z3BqBM+zEOKPVodmz0AWbo9lDCMPpIXpj7qb7w9b/rB\r\nPfLmvz3tsGw/HdGiP//eej9BIkM/Y+2LPhp0KD5s9Sw+UA8JPgqJhj3XDSM+K7BePf48tz7DtOQ/\r\n1pcWQFqypT/W8Bw/PKUyP6dP8j4agKQ+KndQPgEHij0kNRY9xdPBPcLkrzwsMzI+I1uZPp4IXD6K\r\npgo/si1EP1hvdD4MkQI+J4QRPVTedTygR+o8vRTePPNJbj0wQ0Y9EMljPYT0ZT0jkfo9iuHuPUkN\r\nkj1GBRM99z2OPAIOpjsHMqk8go0IPf5t5j32m9E+HfZHP93NRj8Eblw/oO6lPyDKsD+7ooQ/KqEE\r\nP27mMj87Krs+CHdhPkWOzT3sz7k8d7fyPL5xbTxRtuw8xzwVPtlhGT/AhIM/veizPtIWnT5COxY9\r\n5XeRPDDu6DxhowY9usDpOy0JITzQb/g8HZEFPvJHRz3loFY+ArWFPut08T6T6rI/HsbcPztCVT8I\r\neVA+WxCIPbgCNj7Xelo+Yk+qPYf1cD1EfMk9oGdIPS6pID0Sq6Y8JbmjPB28mzxu8C08WYjLO+zm\r\n/ztG6pU7BVcNPEeVADtvl0I7n8zGO/a3djvYWUk7ApX/O0a1Az04s3k8OC6oOlgJQDtsuLM6YvA9\r\nO1OeLjvXSU87CJ0mOyPbFjusnKs7cjIPO75P/ztrHJw8Kvu7PAHN6zvkUro6BIKWOvS0pDpszUg6\r\n0NYJOgzATjr7HBc6bwasOa0tMDnWiKU6cPfMOtDIgTryWzs5klcgOrN+pTngCds5rbqzOaTLtDg/\r\nvtU5juhOOXfNIjkyUgo5p+8MOT5VJzk6aEI5XMhBOdLX9zhAtPo4nOD/ODCv9zg4NPc40ZcPObiQ\r\nBDlAAfg4FrMIOSQo3jjMegc5ANvnOCxOADkguPM4voG8OGqa6Ti3ngg5C/7ZOOVB+TjDGfs4EHsK\r\nOVir/jicM984ZG34OIEZ9zhMIuM4bJ/sOKW09jhwe9U4VubEOPP85zgB/NY45YrbONBgzzgaRuk4\r\njQTHOKJZ3Dgm/8M4V9naOOs53Dj6beI4aELXOJY5zzhug9A4/SDAOFxA2jhoG9g4dtvKOALd1Dhi\r\nNbE44fPGOGxKzjjbWs84pCjdOMU/yTg0Kc842tLQOPburTgem7o4s6qqOGk0wTiYZsE4bqiUOM13\r\nvjhWdZs4JffNOBZDtzjezLs44uLaOG0irTghwaI4DdWrOMysnjh7Hbk4dEbzOKKcujgJJpo4WeKe\r\nOOZNkzhkh8g4qXKoOPbxnzjaTqg4NSSiOOaouDg2c7E4xiqtOEm2oDi0D8k4acOsOF0UojhM15M4\r\n5ai2OEl1nzhdy6I4y7DDOPeymTj8/4s4ISu7OJudmzh0D784JfKGOKAomzj5m5s4/MadOD7n1zh1\r\nt5448zuCOJEmmjhwmIU4xpeZOCLFiTiOU584gHqSONoMnDisnpI40U6UOKY1nDhC6I44CJObOI3v\r\nlTie34Y4BkWQOBR/lTgOZXA4qoaNOKQMgziJa5M4e+yAOEr2jzjNS4k4BhagODKZjzi+OJQ4J/aR\r\nOPAGgzgAdXE4z7qNOG0HhzhP44o4kLd2OM0phDigl2o4jreGOJBbmDjSUIE4CPCDOADhhzhappI4\r\n0DuIOBDAgzg4eo84fQKEONVedjjPtIg4iyaDON0Pgji05YM4JpN3OB1+gjgmtm84gh6OOHHmeji8\r\nB4s4KnaHOF69eTidmW040vuDOLQgazhqj184so2COJC7dTiwOnA40LCDOJm4YTiUVnQ42CJ1OECn\r\nhTisxlk4KgWAOI73ejgF7mg41N1eOOikcTgkC2c4BKNpOFpraDg8mlM45OhmOCJ6eDgHmE44TYdu\r\nOGpfaTgOi0M4cA1YOAAkejjIbUA4dNBSOANwQjiooVs4iclfOK79ajg6ZXQ4mOVSOAYXSzgegGE4\r\nIDt1OIg6Yjhkz1g4aXBSOO7bVTjjiGc42F08OL7GWDgQaFU4h21TOKcJUTgTCmE4AqdoONDASDhl\r\ny1Q4hXZKODr2UTgkEWQ4srBkOHV7SzhPRXA4V3FPOK/qYjhAZ1U41o9aOBikVThy0Ec47ok9OBCu\r\nTDjBPkk48CdaONR+XTiC2VQ4K9QzOIXMXTha5Tw4tupSOOM/QDj9nTg42UkzODJNTDhDkFI4kNYl\r\nOM3UOjhkgF44P/s7OFF1QzgtjUU4RudGOKCYPDibHEA4AhJiOF1URDiKwS84PhA4OCbNLzi1AjE4\r\nrlZDOHh9ODgMnjQ4dF4qODwfODgtRTQ4hClWOLeMMjj5OkM4zYQsOM30Ojh6Yks4rzRROPn9OziJ\r\n9Us4qng2OBQJOThq+jA4BgBIOBYYMjjBxjc4ph5LOATLOji6Ozk4ObcnOJS0LTgvBSc4pm8qOD6f\r\nMzgzj0c4WLkvOLTkMDhUTCE4ibs8OGbpPTgDqiU4HqQvOKx+KziNizI4JkQlOITLMTjl4C04pZgk\r\nOAKBJjgO8Dc4png3OBZjGThYeh84yfMpOF/jKzjKJSg4FU8fOIr1GzinWTw41sgcOOjmNThQvho4\r\nvrkvOOM3Nzj1LiE4caMyOO72JDgPjyU4hscpOJKFFji+9z44flwmOCyzIjjErSI4zL4bOF4aIDjK\r\n7SQ490kgOMrnKDgnwEg47oU9OArPNjjGOy848ZkhOJCFAjh34CY4XH0xOK4IMzjyWQ84qMsbOE8M\r\nOzieNTk4RNQVOJJhIjjL4BU4jlsmOOU9IjiFCDs48d8qODiTEzhlsig4Rv4tOJi8FDg0QxY40OQP\r\nOEUCEziVDxI4TjUVOJLmDzjqlhs4OsQWOCzFEjgctA44X9oPOJW3CDhl1BA4a9McOHCODjj1GSc4\r\nPA4SOLHBGziLbRY4itMTOMBlODit+x44q4IbOFTCHTjyjxA4lUMDOD2/DDiiYhc41JD8N6B6NDgy\r\nlSc4NsgPOIZGETi8ogA4Z7QOOLvpITgJiRE4khwWOHogGThdoxs4WpX5N4Wa9Td+t/836CcnODaA\r\nCDh0HhI4ct4kOPJoDjiIgyE4bLoVOL4rCjhdAgc4mvUcOH2NGThROQ84ujQTOBQhKTh60yA4MTcN\r\nOKt+Izh2GSM4x0IVOATHGjh2/AY4iQYVOMPzIDgE7hM4U0UcOG7HADgR6A448I8ROEVkEzgRDw44\r\ngGcmODybFjgjqgs45gUDOAxKBziYWwk4wn30NwMV9DcdURc4XGgXOJLMDjheNg04YqoXOGN1Fjgv\r\nZR04+0ETODL1Bzgt2BM4qMIAOEqMBTg7z+437jkDOPYuADhP1RM4QhwHOEqCCDibFwo45DgLOFHH\r\nBTiMPvM30M4vODnbEzjpsA44c5j+N1mTBDh/Ae03+PggOOg2DjjHbAc4UJcbOKHsBDhmzQI4V2nl\r\nN1TD9jcg8P03BWb2N5BB8TeD5w04+TMeOIUvFTj0EAo4/RgDOBphCTgMqgE4x98IOEiTBzhNURs4\r\njlIWOLDkCDhAzPw3gRf+N+aA9Dck3fM3OKQNOC1qFzh4Jf03OEMDOPpFBDgX5uM31McPOGKUCTjw\r\nhOk3IcIbOBz1DTiH/Pk3KpPwN46t+zdO3Qg4eAj4N/TKAjiAcQ04bY3rNyxjEzjTJO83MQcHOPW7\r\nDDgiX+8350AKOJWwDTgUzgI4tRLlNzZNADi7K/43S73+NzYlBzhuvxU4ohcBOGwiEDhT6vo3U/wL\r\nOHFTBThJNRI4EM/3N4DNCzjDCes3rV4SOOuMGzg/qBM456IMOBU95zfEBAI4J8X+N4wxBjgAsx44\r\nHvwXOIoR8DfZ2go4JLIGOBsL/je4hQk49fcOOAwAFzhWEQM4NP4IOGusCDgCjO036QnqNx195Tcb\r\nKfY3ZLAAOE7f9zdRbvs3Dd4AOKkgCjgVtfY3XBb3NxePFDihPhE4s3MCOL4z5jccY9s3evkKONSY\r\nDzhByes3BKAEOLkmDzjLR/k3qHjZN9Am8TfWQPg3SbAdOD+K8zd63hk4i0YJOCZA+zfKBfM3AbP3\r\nNzSt/jdgzPc3XRHMN13WATgrxQw4mdgDOPA9BzgMGQw4E+UGOMl96zeTDP039TvkN/aoATiq9Bo4\r\nfDQDOFq77Tfw8QY4nj/3N/oM7TfcNeU39lznNwH7CjiuPf43YqAAOGg14zdCOtQ3zukROHDkDTh8\r\nb943cDT4N9at/Te2u9k3srfoNwd67jelVgo4hiwMOF989jeTr+I3mu7uN87AADhVF+w3zFT8N+z+\r\n7DexMQg49Y3xN/I71TdzpgY4qwP7NwKD+TcIWwg4KIIGOF6pCDi3vAk4A139Nym8DzjCRQU4izT/\r\nN4HG/zfFRN03UvP8N09sDDh8+/c3A6jsN4cg+zfcYPk3yiD1NypmDziaQwA4ABAWOA==",
                            "noiseTrainingType" : "default"
                          }
                        }
                    ],
                    "start" : 4217,
                    "duration" : 42,
                    "mediaStart" : 11037,
                    "mediaDuration" : 42,
                    "scalar" : 1,
                    "metadata" : {
                      "WinSubProjectDisplayName" : "",
                      "clipSpeedAttribute" : false
                    },
                    "animationTracks" : {

                    }
                  },
                  {
                    "id" : 104,
                    "_type" : "StitchedMedia",
                    "minMediaStart" : 0,
                    "attributes" : {
                      "ident" : "tower-columns-02",
                      "gain" : 1.0,
                      "mixToMono" : false
                    },
                    "parameters" : {
                      "volume" : 1.0,
                      "cursorOpacity" : 1.0,
                      "cursorScale" : 1.0
                    },
                    "medias" : [
                        {
                          "id" : 105,
                          "_type" : "AMFile",
                          "src" : 2,
                          "trackNumber" : 1,
                          "attributes" : {
                            "ident" : "Rec 02-03-20_008",
                            "sampleRate" : 44100,
                            "bitDepth" : 16,
                            "gain" : 1.0,
                            "mixToMono" : false
                          },
                            "channelNumber" : "0,1",
                          "effects" : [

                          ],
                          "start" : 0,
                          "duration" : 10292,
                          "mediaStart" : 0,
                          "mediaDuration" : 10292,
                          "scalar" : 1,
                          "metadata" : {
                            "WinSubProjectDisplayName" : "",
                            "clipSpeedAttribute" : false
                          },
                          "animationTracks" : {

                          }
                        },
                        {
                          "id" : 106,
                          "_type" : "AMFile",
                          "src" : 2,
                          "trackNumber" : 1,
                          "attributes" : {
                            "ident" : "Rec 02-03-20_008",
                            "sampleRate" : 44100,
                            "bitDepth" : 16,
                            "gain" : 1.0,
                            "mixToMono" : false
                          },
                            "channelNumber" : "0,1",
                          "effects" : [

                          ],
                          "start" : 10292,
                          "duration" : 36,
                          "mediaStart" : 10326,
                          "mediaDuration" : 36,
                          "scalar" : 1,
                          "metadata" : {
                            "WinSubProjectDisplayName" : "",
                            "clipSpeedAttribute" : false
                          },
                          "animationTracks" : {

                          }
                        },
                        {
                          "id" : 107,
                          "_type" : "AMFile",
                          "src" : 2,
                          "trackNumber" : 1,
                          "attributes" : {
                            "ident" : "Rec 02-03-20_008",
                            "sampleRate" : 44100,
                            "bitDepth" : 16,
                            "gain" : 1.0,
                            "mixToMono" : false
                          },
                            "channelNumber" : "0,1",
                          "effects" : [

                          ],
                          "start" : 10328,
                          "duration" : 6867,
                          "mediaStart" : 10429,
                          "mediaDuration" : 6867,
                          "scalar" : 1,
                          "metadata" : {
                            "WinSubProjectDisplayName" : "",
                            "clipSpeedAttribute" : false
                          },
                          "animationTracks" : {

                          }
                        }
                    ],
                    "effects" : [
                        {
                          "effectName" : "NoiseReduction",
                          "category" : "categoryAudioEffects",
                          "parameters" : {
                            "denoiserAmount" : 20.0,
                            "denoiserThreshold" : 0.0,
                            "noiseProfile" : "nZZEP5RikT+EmBI/KnP9Pwpb60CvxkBCXd+jQY7whEBNATBANMPsP4KGpD+w7W0/anS9Pp7DVz9W\r\nWXQ/MgZ/P+zyAz9dsAo/gB+NPqGyij5E040+/uumPv40FD+XEEU/tV4HQPJC2j8hHus+xuOAP6zl\r\n5z90pQ1Ba2PWQS3MBkIj5nRCW1rKQY1QFkK3mEVB9qOyPwsemz8mGQ1AijZpPxFZQT/VTxpASC+d\r\nQCqNR0DvUjw/MkSRP+5Cyz9dMp5AxHPBQOjFykBxUbJAbLJrQIWNh0Ao+CBAwwLMP+FF0D4cuo8/\r\nuImEPjCeRj+bKaM+IG0JP2yQwz6tn5U+qB2AP+vXTkA8V4dAgKfTQNyvSEF+jC1Bph3FQGxo5D95\r\nslQ/tPxpQJQjx0CKrrY/xV8GQGT1jj4EuzU+8okfP2AnBEDs5us/TDerPp3xQT4TlM0+6GdaQF4s\r\ntD4fWws+a5uyPjJJ7z5q9gE/RIxFPmxZiD7SEoA+GN98PS44LT5y6cI9Dw/HPfSD9j1k3Kk9K3wV\r\nPWimMD14iYE+wp7rPDoGDj2O6eI9TxmJPp+HRT7kLcA9jV4WPh8AMz/Hnfs/2kCvP3ePHD+bues+\r\nVL8aPpC4nj0mH0U+/EEAPoPZ/D00ryk/PBU2PzggAT+jYFU/APwCP1NnMz57UIA9BJDwPTWVgz1y\r\nWSU99nonPRB7hDwE15A8VLZMPN6whzwsiLo8Mk4iPbbI2zxrhWc9Ioh5PLAPuzyowQA9mAeWPH1H\r\najwugmM+B+P0PS6CmD70WoA+BH0tPtftpz2SfTw97jcVPdzHBz180qk8YN4WPfLBaj3RUck89fm8\r\nPMZHGj1HhXY9M7QQPZ4+8DwioaM8CmQ/PYZ38z3Oorw9OyFwPTbqkD1xFAM9DtqUPT6SQD6yGYI+\r\nalU/P1c7GD+D3uE+2JirPp1Agj5rrp49Cl1RPvUnEz/ajxw/BhFlP0VGET/D7CQ/+xu1PvIzCD4g\r\nrE49sI0yPHErozxBRP88rvE+PTLyhDyog6084rBlPAPxyzybXyo+Qb0FPsR4Tj5Uf8I+oK9bP5Ye\r\nzz/wjaI//GcCP8ZWPz7YNEw/kjERPyccWj6Y3t89wagTPsxDij1aHZs9I4i6PYZBjD5ICaY+/o68\r\nPfDUwT3y5r89C71sP+LYoj+i9no/pkJDP2Ptiz5ELyg+r/QsPo0aCT4KiYY91w0jPiuwXj3+PLc+\r\nw7TkP9aXFkBasqU/1vAcPzylMj+nT/I+GoCkPip3UD598Ik9NBIWPZ7GwT3C5K88LDMyPiNbmT6e\r\nCFw+Ct0KP8c0RD8weHQ+Y6UCPieEET0Vz3Y8OojrPNj93DzxLm49MENGPfb+Yz1w+2U9sSX6PYrh\r\n7j1JDZI9RgUTPeLDjjwCDqY7R86oPIKNCD3+beY99pvRPh32Rz/dzUY/BG5cP6DupT8gyrA/u6KE\r\nPyqhBD+k3zI/Oyq7Pgh3YT5Fjs09LRq6PLg48zxQA248aRXtPCX1FD5rixk/9oCDP1vysz5lIp0+\r\nYIUWPeV3kTww7ug8YaMGPXG/6TstCSE8Axj4PO2dBT6AKEc9c6NWPp/chT6Hj/E+queyP3Wl3D8G\r\nSlU/dpFQPtOkiD2fCTY+vUBaPtYpqj0o2XA9NNrJPR6LSD0q8CA9EqumPCW5ozwdvJs8bvAtPGpK\r\nyTvs5v87RuqVO/g6DTwYgv86b5dCO5/Mxjv2t3Y72FlJOwKV/zs15AM9OLN5PDguqDpYCUA7bLiz\r\nOmLwPTtTni47BhRPOwidJjvXnhU7OLSqO2uZDzsENAA8mR6cPP2Ruzyuwes75FK6OgSCljr0tKQ6\r\nbM1IOtDWCToMwE46+xwXOm8GrDnyHzY51oilOnD3zDrQyIE68ls7OZR/HzqzfqU5au7dOa26szmk\r\ny7Q4G57ROTq+UjmOGiA5XskIOfyXBzmOxio59vE9OX4fQDnGVfU4+Fv6OCad9Tj2Bvg4cAr3OAY2\r\nCzlGnO441lLwOEQoBDkuQeA4K4EQOVaz5Tjwf/o4kybuOLUiuDiYY/Y43CoKOYXe5DjC9gM5ej7z\r\nONWxAzkLGAE5pLzjOGU09DjMvPg4RsfmOF7A4jjiFOs4I3rbOFlr0jhTNeo4zCfSOBzm3zhs69A4\r\n7AbrON69yjhz/to499XGOEmf5jj5zuE495HjOGo0zzjInM04iATQOMR1vjhCn9845ivZOIgawjhu\r\n2NE46re1OAQ6yTi+ANA4FrjTOA2N1jg7d8E44ArYOOat0zhGWLU4bj6+OKz8tzj6y744/M+0OJfz\r\nlTjH78k4paOaOIZByjhuxME44x2/OHC83ji4vbE4/pWuOHkaqTguYKE4uz68ONIf7zjqPbY4/SKa\r\nOFT1oTjExZQ4wLXOOCWvtjgb5544yFOqOEdMszi/k9E4HhuzOLdVnzjLbpU4PN+uOKs9rTillq04\r\nLQyVOL91ojhkaZg4CXShOCq3wzhFK5k4PKJvOJv21zhCGZk4dQW8OB7DljjY36g4bZSbOH+3ojg5\r\nTNg4xUSZOJRHhjgCIZk4inWIOP4UqTgzpZU40gitOFXVjzj45pk4/qmSOHvVjjg/bpM4kECQOI2G\r\nnjj5lJM4F82CONsFhjgkt5g4cgOGOCgakzhQvnE4cNGPOI0UiDjMIJA4Yp+IOI7mnzhtEpY4CkSQ\r\nOC1EkjgceZI4jXN2OFxmiTjNu4U4TO6RODzyezglsYc4UmBzOMRAhji2RJA4HlaFOM0pjDiAEIs4\r\nJk2VOL3PkDiVXok4seaPOEFwjDjqhXc4BVOFOA7TdTgEl4A4o1mEOCx3dzhOr4M48jNzOKD0gDgE\r\nRm04hnGMOKrehTgUfXc4pkNwOGjthjiCcmk4FfFgOGxshDiGynY4TKNqOOY6hjg7Smw4ccSDOHhW\r\nbDj8Goc4KW1cOK3YhTjo84U4zrRvOIzbWjgyI244gAJyODC9ajgGzXA4tO1QODQ0aDiH2HU4rYlM\r\nONY4XTjNM184j1ZGOBL3SzjKznY4CjlJODt3UTiY0UM4Y3VPOEgNajh6THk4X5h9ON0OVDiNnUo4\r\n4mFNOF56UTgO5V84IKdPOP76WDiC/Vc4D/hqOFy1QzhEZ1k4BhpaODSxZTjNxFc427VeOKPacTgD\r\nMUU4VL9SOAB3UDiKqE049TNaOE7ZXTixSkc48IhdOEbYPjj+VU84q9RYOKpoXDjgA0I4FQhKOG5u\r\nPzgCjEw4kL5GOGqGVji6ulQ4ttdJOKSWLTgi5WY4LPhDOOCoSThQHD84anI8OEL/Kjh4YEU4TkxT\r\nOI4XKDgMFz04qsxWOAJGOzgzAj44/hc7OMNiOzjx4js49WUzOJQrYDhpgTo4yVgwOJcEOzj/xTg4\r\n/kI9OAwdSTi2+i84vU00OLujKzhkOzk4+qwzOL9EVDiWNTo45YYvOOBQGzgoHic4/YBRODZ6Sjgj\r\nbjQ4pmNFONg6LjjMlTw4gQQtOP0bRTgb0Dc4mZg3OHcHSzgcpz44mDc5OFg0LDjOFS04h7EtOGCB\r\nNzic/yo4GEI9OI/TLTiQ0yw4XoIjOPszMjhYAEI4bg0hODIoJjhosis4KjQ+OGTrMzht8yo4YeIw\r\nODAQITgKdiU4rEkwOJi3Ozjcdx04ISEbOJh2Izijjyw4OhcmOHRFITgT6xU4kdQxOLxbHTgDbTY4\r\ntIQVOI9RMzhPqTU4TbgiOE4fLjgl8io44ncnOJyyLDgpNSE4iXY2OGpDJzhixSQ4kEUoOPWnLzjj\r\n/iM4kIEZOM8MJThE4B04TEw2OOT7PDgc9T0433gmOMP8Hjj0EAw4YNEwOETuKTiAGS04dxAQODKg\r\nITiiaTE4Z885OPzGHzgn9x44ndYcOABiJjjU2Cc4sW0zOBN/IDimiAo4sCUiOANqKTgw8Rc4yaIW\r\nOG9NFji4/BI4B6QQONQZGjhD0BQ47nokOJ8bGThOwBk4pocWOEoyETiTCxE4Yq0cOEeyIzi9OBM4\r\nv/YnOOyEHDidDBI4IbgYOJR4Ejh+wTM4MZMVOCuFEjjYkxw407sLOGo0AzhY0BE4p0olOFrP+Dfs\r\nYyc4+0YTOOs6DDiEVhQ4YKYUOHAJEzgJSBo4QgMTOINHHjgn7Ck4FKQnOBl3Czhg0Os3cCsAOD5G\r\nHzjI5g84n9kWOFVsFjhEJw84vnkbOCJpFDiL6A84XJsPOJBwHDjEhhs4T9ciOPssETgwpx04tgIX\r\nOLg4CjgjFiI4RsYXOKX/DjiMPxk4ROMROGsJFTi3wCM48s4hOFQWITgIBQs4VZsEOHH0Djg3/SM4\r\nKg4VODbaHDgTsAo4FWoIOOeDAziPNxg4QzcPOJfCBzgo2/k3bjsRONqXGzhUVxs4NMkROMs/Fzjr\r\nuA84DyIIOO6ODzg7PQg4exQUOO2RDTgEVBA4088BOLd9BDhDowQ4YvEOONmgBTjauAM4KtYGONbq\r\nFDjISQM4YRT9N+0BLDh5Bgw4bpMLOHstAjj4VAQ4nODnNySVIzg4hBA4taoQOMpRFDjFDgI4hG0G\r\nOAK96De7EO833kcIONhN/zeCT/E3cfUMOFF4JDhMPxQ4ZhALOM1GBzgaZQU44rwBOG0lBzh2Hhc4\r\nCroSOKcrDDgpVAo4brsKOLOWATjnIOo3e17vNxi0DTj1lQw4RUL2N4LB/zcyQPw38aXdN8/zDjja\r\nOg44Bf3tN3e0HTgQzg84oIoCOOyh8Teynvs3bz0COGqZAzigmgk4CRQOOPU07jdG3hM4En3uN/Nj\r\n+DcfcxE41rT5N+q0BDgwLgI4vlnzN2aP6DfMYPI3Z6oMOMwxBThY3v03/AMVOHcgBjjlvRE4uYf5\r\nN1/wFjhXJA84qzUNOPPyADhsFRQ4Tp0FOCjyDDhBdRE4uG0MOB7QAjh+9wI43kwIOCWj9zdtDgA4\r\ntCElOI+BDjidJew3mCT7N/HSAjinkQI4PQkEOEdlHTgv2Rg4PKHaN9Ux+TfkohU49zTvN+crATiS\r\n4eQ3iv0AOBn7+jcaav43PFACOPky8Dfft/w3zHDfN2YC/Df3EAs4BdAMOCkKDDjLBPE3fz7gN6G9\r\nDziqFw84DDj4N0Ce/jdwWAo48wHhN0D52zcaN/s3afLyN8KwEjhVGOA3iy4ROCK9BDiyzww4/nEH\r\nOOZw+jfUyvA3tmD7N6Xn3Tf9JxE4GYMVODMjATips+w3BXIGOMpaFjjlxOk3KAXnN2sV6jeISwk4\r\neJsTOKJV9zenSvU3byUJODme4TdgQeI3LZjvNzpo7DdF7f03yXX7N+XTCzi0ZO03gdLiNwtmFDhF\r\nmAE4BVfVN+n+9DczhQY4P2fgN3XV8zfV7vI3JscEOGgpBDjdGwA4V8TzN02xBjhTqAA4NMTcN0+x\r\n7zeS5Ok3ZloJOD9T+Dd1gss3YWIIOB4mATiE1f83HCkROFN/9jeGFgo4W5AROJdhAThP8wg49MYJ\r\nOIRx8Df7jeo3cS7iN9evDDh4MAw4wvnpN4i68zet/e43XgwEOE+c8TfyVxg4ApsCOACBDjiVgUQ/\r\nu1qRP4SYEj/VeP0/H2rrQK/GQEJd36NBjvCEQE0BMEA0w+w/OpCkP7DtbT9qdL0+QdJXP1ZZdD8y\r\nBn8/7PIDP12wCj+AH40+obKKPkTTjT7+66Y+/jQUP5cQRT9JZAdApD7aPyEe6z7F8oA/cd/nP5yp\r\nDUFrY9ZBFswGQiPmdEJbWspBjVAWQreYRUH2o7I/Cx6bPyYZDUBEGGk/EVlBP9VPGkBIL51AKo1H\r\nQO9SPD8yRJE/7kLLP10ynkDEc8FA6MXKQHFRskBssmtAhY2HQCj4IEDDAsw/4UXQPhy6jz+4iYQ+\r\nMJ5GP5spoz4gbQk/bJDDPr6+lT6oHYA/69dOQDxXh0CAp9NA3K9IQX6MLUGmHcVAbGjkP3myVD+0\r\n/GlAlCPHQIqutj/FXwZAZPWOPgS7NT7yiR8/YCcEQOzm6z9MN6s+nfFBPhOUzT7oZ1pAXiy0Ph9b\r\nCz5rm7I+MknvPmr2AT9EjEU+bFmIPtISgD4Y33w9LjgtPnLpwj2ox8Y96KL2PS7CqT0rfBU9aKYw\r\nPXiJgT7Cnus8OgYOPY7p4j1PGYk+n4dFPuQtwD2NXhY+HwAzP8ed+z/aQK8/d48cP5u56z5Uvxo+\r\nkLiePSYfRT78QQA+g9n8PTSvKT88FTY/OCABP6NgVT8A/AI/U2czPntQgD0EkPA9NZWDPXJZJT1A\r\nNSg9Ge6DPIg8kTxUtkw83rCHPCyIujwyTiI9tsjbPGuFZz0iiHk8sA+7PDlUAD2YB5Y8fUdqPC6C\r\nYz4H4/Q9LoKYPvRagD4EfS0+1+2nPZJ9PD3uNxU93McHPXzSqTxg3hY98sFqPdFRyTz1+bw8gqsZ\r\nPUeFdj0ztBA9nj7wPCKhozwKZD89hnfzPc6ivD07IXA9NuqQPXEUAz0O2pQ9PpJAPrIZgj5qVT8/\r\nVzsYP4Pe4T7YmKs+nUCCPmuunj0KXVE+9ScTP9qPHD8GEWU/hDERPwnmJD/6G7U+8jMIPgCZTj2w\r\njTI8cSujPEFE/zyu8T49c7uDPBvyrDzisGU8A/HLPJtfKj5BvQU+xHhOPlR/wj6gr1s/lh7PP/CN\r\noj/8ZwI/xlY/Ptg0TD+SMRE/JxxaPpje3z3BqBM+zEOKPVodmz0AWbo9lDCMPpIXpj7qb7w9b/rB\r\nPfLmvz3tsGw/HdGiP//eej9BIkM/Y+2LPhp0KD5s9Sw+UA8JPgqJhj3XDSM+K7BePf48tz7DtOQ/\r\n1pcWQFqypT/W8Bw/PKUyP6dP8j4agKQ+KndQPgEHij0kNRY9xdPBPcLkrzwsMzI+I1uZPp4IXD6K\r\npgo/si1EP1hvdD4MkQI+J4QRPVTedTygR+o8vRTePPNJbj0wQ0Y9EMljPYT0ZT0jkfo9iuHuPUkN\r\nkj1GBRM99z2OPAIOpjsHMqk8go0IPf5t5j32m9E+HfZHP93NRj8Eblw/oO6lPyDKsD+7ooQ/KqEE\r\nP27mMj87Krs+CHdhPkWOzT3sz7k8d7fyPL5xbTxRtuw8xzwVPtlhGT/AhIM/veizPtIWnT5COxY9\r\n5XeRPDDu6DxhowY9usDpOy0JITzQb/g8HZEFPvJHRz3loFY+ArWFPut08T6T6rI/HsbcPztCVT8I\r\neVA+WxCIPbgCNj7Xelo+Yk+qPYf1cD1EfMk9oGdIPS6pID0Sq6Y8JbmjPB28mzxu8C08WYjLO+zm\r\n/ztG6pU7BVcNPEeVADtvl0I7n8zGO/a3djvYWUk7ApX/O0a1Az04s3k8OC6oOlgJQDtsuLM6YvA9\r\nO1OeLjvXSU87CJ0mOyPbFjusnKs7cjIPO75P/ztrHJw8Kvu7PAHN6zvkUro6BIKWOvS0pDpszUg6\r\n0NYJOgzATjr7HBc6bwasOa0tMDnWiKU6cPfMOtDIgTryWzs5klcgOrN+pTngCds5rbqzOaTLtDg/\r\nvtU5juhOOXfNIjkyUgo5p+8MOT5VJzk6aEI5XMhBOdLX9zhAtPo4nOD/ODCv9zg4NPc40ZcPObiQ\r\nBDlAAfg4FrMIOSQo3jjMegc5ANvnOCxOADkguPM4voG8OGqa6Ti3ngg5C/7ZOOVB+TjDGfs4EHsK\r\nOVir/jicM984ZG34OIEZ9zhMIuM4bJ/sOKW09jhwe9U4VubEOPP85zgB/NY45YrbONBgzzgaRuk4\r\njQTHOKJZ3Dgm/8M4V9naOOs53Dj6beI4aELXOJY5zzhug9A4/SDAOFxA2jhoG9g4dtvKOALd1Dhi\r\nNbE44fPGOGxKzjjbWs84pCjdOMU/yTg0Kc842tLQOPburTgem7o4s6qqOGk0wTiYZsE4bqiUOM13\r\nvjhWdZs4JffNOBZDtzjezLs44uLaOG0irTghwaI4DdWrOMysnjh7Hbk4dEbzOKKcujgJJpo4WeKe\r\nOOZNkzhkh8g4qXKoOPbxnzjaTqg4NSSiOOaouDg2c7E4xiqtOEm2oDi0D8k4acOsOF0UojhM15M4\r\n5ai2OEl1nzhdy6I4y7DDOPeymTj8/4s4ISu7OJudmzh0D784JfKGOKAomzj5m5s4/MadOD7n1zh1\r\nt5448zuCOJEmmjhwmIU4xpeZOCLFiTiOU584gHqSONoMnDisnpI40U6UOKY1nDhC6I44CJObOI3v\r\nlTie34Y4BkWQOBR/lTgOZXA4qoaNOKQMgziJa5M4e+yAOEr2jzjNS4k4BhagODKZjzi+OJQ4J/aR\r\nOPAGgzgAdXE4z7qNOG0HhzhP44o4kLd2OM0phDigl2o4jreGOJBbmDjSUIE4CPCDOADhhzhappI4\r\n0DuIOBDAgzg4eo84fQKEONVedjjPtIg4iyaDON0Pgji05YM4JpN3OB1+gjgmtm84gh6OOHHmeji8\r\nB4s4KnaHOF69eTidmW040vuDOLQgazhqj184so2COJC7dTiwOnA40LCDOJm4YTiUVnQ42CJ1OECn\r\nhTisxlk4KgWAOI73ejgF7mg41N1eOOikcTgkC2c4BKNpOFpraDg8mlM45OhmOCJ6eDgHmE44TYdu\r\nOGpfaTgOi0M4cA1YOAAkejjIbUA4dNBSOANwQjiooVs4iclfOK79ajg6ZXQ4mOVSOAYXSzgegGE4\r\nIDt1OIg6Yjhkz1g4aXBSOO7bVTjjiGc42F08OL7GWDgQaFU4h21TOKcJUTgTCmE4AqdoONDASDhl\r\ny1Q4hXZKODr2UTgkEWQ4srBkOHV7SzhPRXA4V3FPOK/qYjhAZ1U41o9aOBikVThy0Ec47ok9OBCu\r\nTDjBPkk48CdaONR+XTiC2VQ4K9QzOIXMXTha5Tw4tupSOOM/QDj9nTg42UkzODJNTDhDkFI4kNYl\r\nOM3UOjhkgF44P/s7OFF1QzgtjUU4RudGOKCYPDibHEA4AhJiOF1URDiKwS84PhA4OCbNLzi1AjE4\r\nrlZDOHh9ODgMnjQ4dF4qODwfODgtRTQ4hClWOLeMMjj5OkM4zYQsOM30Ojh6Yks4rzRROPn9OziJ\r\n9Us4qng2OBQJOThq+jA4BgBIOBYYMjjBxjc4ph5LOATLOji6Ozk4ObcnOJS0LTgvBSc4pm8qOD6f\r\nMzgzj0c4WLkvOLTkMDhUTCE4ibs8OGbpPTgDqiU4HqQvOKx+KziNizI4JkQlOITLMTjl4C04pZgk\r\nOAKBJjgO8Dc4png3OBZjGThYeh84yfMpOF/jKzjKJSg4FU8fOIr1GzinWTw41sgcOOjmNThQvho4\r\nvrkvOOM3Nzj1LiE4caMyOO72JDgPjyU4hscpOJKFFji+9z44flwmOCyzIjjErSI4zL4bOF4aIDjK\r\n7SQ490kgOMrnKDgnwEg47oU9OArPNjjGOy848ZkhOJCFAjh34CY4XH0xOK4IMzjyWQ84qMsbOE8M\r\nOzieNTk4RNQVOJJhIjjL4BU4jlsmOOU9IjiFCDs48d8qODiTEzhlsig4Rv4tOJi8FDg0QxY40OQP\r\nOEUCEziVDxI4TjUVOJLmDzjqlhs4OsQWOCzFEjgctA44X9oPOJW3CDhl1BA4a9McOHCODjj1GSc4\r\nPA4SOLHBGziLbRY4itMTOMBlODit+x44q4IbOFTCHTjyjxA4lUMDOD2/DDiiYhc41JD8N6B6NDgy\r\nlSc4NsgPOIZGETi8ogA4Z7QOOLvpITgJiRE4khwWOHogGThdoxs4WpX5N4Wa9Td+t/836CcnODaA\r\nCDh0HhI4ct4kOPJoDjiIgyE4bLoVOL4rCjhdAgc4mvUcOH2NGThROQ84ujQTOBQhKTh60yA4MTcN\r\nOKt+Izh2GSM4x0IVOATHGjh2/AY4iQYVOMPzIDgE7hM4U0UcOG7HADgR6A448I8ROEVkEzgRDw44\r\ngGcmODybFjgjqgs45gUDOAxKBziYWwk4wn30NwMV9DcdURc4XGgXOJLMDjheNg04YqoXOGN1Fjgv\r\nZR04+0ETODL1Bzgt2BM4qMIAOEqMBTg7z+437jkDOPYuADhP1RM4QhwHOEqCCDibFwo45DgLOFHH\r\nBTiMPvM30M4vODnbEzjpsA44c5j+N1mTBDh/Ae03+PggOOg2DjjHbAc4UJcbOKHsBDhmzQI4V2nl\r\nN1TD9jcg8P03BWb2N5BB8TeD5w04+TMeOIUvFTj0EAo4/RgDOBphCTgMqgE4x98IOEiTBzhNURs4\r\njlIWOLDkCDhAzPw3gRf+N+aA9Dck3fM3OKQNOC1qFzh4Jf03OEMDOPpFBDgX5uM31McPOGKUCTjw\r\nhOk3IcIbOBz1DTiH/Pk3KpPwN46t+zdO3Qg4eAj4N/TKAjiAcQ04bY3rNyxjEzjTJO83MQcHOPW7\r\nDDgiX+8350AKOJWwDTgUzgI4tRLlNzZNADi7K/43S73+NzYlBzhuvxU4ohcBOGwiEDhT6vo3U/wL\r\nOHFTBThJNRI4EM/3N4DNCzjDCes3rV4SOOuMGzg/qBM456IMOBU95zfEBAI4J8X+N4wxBjgAsx44\r\nHvwXOIoR8DfZ2go4JLIGOBsL/je4hQk49fcOOAwAFzhWEQM4NP4IOGusCDgCjO036QnqNx195Tcb\r\nKfY3ZLAAOE7f9zdRbvs3Dd4AOKkgCjgVtfY3XBb3NxePFDihPhE4s3MCOL4z5jccY9s3evkKONSY\r\nDzhByes3BKAEOLkmDzjLR/k3qHjZN9Am8TfWQPg3SbAdOD+K8zd63hk4i0YJOCZA+zfKBfM3AbP3\r\nNzSt/jdgzPc3XRHMN13WATgrxQw4mdgDOPA9BzgMGQw4E+UGOMl96zeTDP039TvkN/aoATiq9Bo4\r\nfDQDOFq77Tfw8QY4nj/3N/oM7TfcNeU39lznNwH7CjiuPf43YqAAOGg14zdCOtQ3zukROHDkDTh8\r\nb943cDT4N9at/Te2u9k3srfoNwd67jelVgo4hiwMOF989jeTr+I3mu7uN87AADhVF+w3zFT8N+z+\r\n7DexMQg49Y3xN/I71TdzpgY4qwP7NwKD+TcIWwg4KIIGOF6pCDi3vAk4A139Nym8DzjCRQU4izT/\r\nN4HG/zfFRN03UvP8N09sDDh8+/c3A6jsN4cg+zfcYPk3yiD1NypmDziaQwA4ABAWOA==",
                            "noiseTrainingType" : "default"
                          }
                        }
                    ],
                    "start" : 4259,
                    "duration" : 114,
                    "mediaStart" : 11082,
                    "mediaDuration" : 114,
                    "scalar" : 1,
                    "metadata" : {
                      "WinSubProjectDisplayName" : "",
                      "clipSpeedAttribute" : false
                    },
                    "animationTracks" : {

                    }
                  },
                  {
                    "id" : 108,
                    "_type" : "StitchedMedia",
                    "minMediaStart" : 0,
                    "attributes" : {
                      "ident" : "tower-columns-02",
                      "gain" : 1.0,
                      "mixToMono" : false
                    },
                    "parameters" : {
                      "volume" : 1.0,
                      "cursorOpacity" : 1.0,
                      "cursorScale" : 1.0
                    },
                    "medias" : [
                        {
                          "id" : 109,
                          "_type" : "AMFile",
                          "src" : 2,
                          "trackNumber" : 1,
                          "attributes" : {
                            "ident" : "Rec 02-03-20_008",
                            "sampleRate" : 44100,
                            "bitDepth" : 16,
                            "gain" : 1.0,
                            "mixToMono" : false
                          },
                            "channelNumber" : "0,1",
                          "effects" : [

                          ],
                          "start" : 0,
                          "duration" : 10292,
                          "mediaStart" : 0,
                          "mediaDuration" : 10292,
                          "scalar" : 1,
                          "metadata" : {
                            "WinSubProjectDisplayName" : "",
                            "clipSpeedAttribute" : false
                          },
                          "animationTracks" : {

                          }
                        },
                        {
                          "id" : 110,
                          "_type" : "AMFile",
                          "src" : 2,
                          "trackNumber" : 1,
                          "attributes" : {
                            "ident" : "Rec 02-03-20_008",
                            "sampleRate" : 44100,
                            "bitDepth" : 16,
                            "gain" : 1.0,
                            "mixToMono" : false
                          },
                            "channelNumber" : "0,1",
                          "effects" : [

                          ],
                          "start" : 10292,
                          "duration" : 36,
                          "mediaStart" : 10326,
                          "mediaDuration" : 36,
                          "scalar" : 1,
                          "metadata" : {
                            "WinSubProjectDisplayName" : "",
                            "clipSpeedAttribute" : false
                          },
                          "animationTracks" : {

                          }
                        },
                        {
                          "id" : 111,
                          "_type" : "AMFile",
                          "src" : 2,
                          "trackNumber" : 1,
                          "attributes" : {
                            "ident" : "Rec 02-03-20_008",
                            "sampleRate" : 44100,
                            "bitDepth" : 16,
                            "gain" : 1.0,
                            "mixToMono" : false
                          },
                            "channelNumber" : "0,1",
                          "effects" : [

                          ],
                          "start" : 10328,
                          "duration" : 6867,
                          "mediaStart" : 10429,
                          "mediaDuration" : 6867,
                          "scalar" : 1,
                          "metadata" : {
                            "WinSubProjectDisplayName" : "",
                            "clipSpeedAttribute" : false
                          },
                          "animationTracks" : {

                          }
                        }
                    ],
                    "effects" : [
                        {
                          "effectName" : "NoiseReduction",
                          "category" : "categoryAudioEffects",
                          "parameters" : {
                            "denoiserAmount" : 20.0,
                            "denoiserThreshold" : 0.0,
                            "noiseProfile" : "nZZEP5RikT+EmBI/KnP9Pwpb60CvxkBCXd+jQY7whEBNATBANMPsP4KGpD+w7W0/anS9Pp7DVz9W\r\nWXQ/MgZ/P+zyAz9dsAo/gB+NPqGyij5E040+/uumPv40FD+XEEU/tV4HQPJC2j8hHus+xuOAP6zl\r\n5z90pQ1Ba2PWQS3MBkIj5nRCW1rKQY1QFkK3mEVB9qOyPwsemz8mGQ1AijZpPxFZQT/VTxpASC+d\r\nQCqNR0DvUjw/MkSRP+5Cyz9dMp5AxHPBQOjFykBxUbJAbLJrQIWNh0Ao+CBAwwLMP+FF0D4cuo8/\r\nuImEPjCeRj+bKaM+IG0JP2yQwz6tn5U+qB2AP+vXTkA8V4dAgKfTQNyvSEF+jC1Bph3FQGxo5D95\r\nslQ/tPxpQJQjx0CKrrY/xV8GQGT1jj4EuzU+8okfP2AnBEDs5us/TDerPp3xQT4TlM0+6GdaQF4s\r\ntD4fWws+a5uyPjJJ7z5q9gE/RIxFPmxZiD7SEoA+GN98PS44LT5y6cI9Dw/HPfSD9j1k3Kk9K3wV\r\nPWimMD14iYE+wp7rPDoGDj2O6eI9TxmJPp+HRT7kLcA9jV4WPh8AMz/Hnfs/2kCvP3ePHD+bues+\r\nVL8aPpC4nj0mH0U+/EEAPoPZ/D00ryk/PBU2PzggAT+jYFU/APwCP1NnMz57UIA9BJDwPTWVgz1y\r\nWSU99nonPRB7hDwE15A8VLZMPN6whzwsiLo8Mk4iPbbI2zxrhWc9Ioh5PLAPuzyowQA9mAeWPH1H\r\najwugmM+B+P0PS6CmD70WoA+BH0tPtftpz2SfTw97jcVPdzHBz180qk8YN4WPfLBaj3RUck89fm8\r\nPMZHGj1HhXY9M7QQPZ4+8DwioaM8CmQ/PYZ38z3Oorw9OyFwPTbqkD1xFAM9DtqUPT6SQD6yGYI+\r\nalU/P1c7GD+D3uE+2JirPp1Agj5rrp49Cl1RPvUnEz/ajxw/BhFlP0VGET/D7CQ/+xu1PvIzCD4g\r\nrE49sI0yPHErozxBRP88rvE+PTLyhDyog6084rBlPAPxyzybXyo+Qb0FPsR4Tj5Uf8I+oK9bP5Ye\r\nzz/wjaI//GcCP8ZWPz7YNEw/kjERPyccWj6Y3t89wagTPsxDij1aHZs9I4i6PYZBjD5ICaY+/o68\r\nPfDUwT3y5r89C71sP+LYoj+i9no/pkJDP2Ptiz5ELyg+r/QsPo0aCT4KiYY91w0jPiuwXj3+PLc+\r\nw7TkP9aXFkBasqU/1vAcPzylMj+nT/I+GoCkPip3UD598Ik9NBIWPZ7GwT3C5K88LDMyPiNbmT6e\r\nCFw+Ct0KP8c0RD8weHQ+Y6UCPieEET0Vz3Y8OojrPNj93DzxLm49MENGPfb+Yz1w+2U9sSX6PYrh\r\n7j1JDZI9RgUTPeLDjjwCDqY7R86oPIKNCD3+beY99pvRPh32Rz/dzUY/BG5cP6DupT8gyrA/u6KE\r\nPyqhBD+k3zI/Oyq7Pgh3YT5Fjs09LRq6PLg48zxQA248aRXtPCX1FD5rixk/9oCDP1vysz5lIp0+\r\nYIUWPeV3kTww7ug8YaMGPXG/6TstCSE8Axj4PO2dBT6AKEc9c6NWPp/chT6Hj/E+queyP3Wl3D8G\r\nSlU/dpFQPtOkiD2fCTY+vUBaPtYpqj0o2XA9NNrJPR6LSD0q8CA9EqumPCW5ozwdvJs8bvAtPGpK\r\nyTvs5v87RuqVO/g6DTwYgv86b5dCO5/Mxjv2t3Y72FlJOwKV/zs15AM9OLN5PDguqDpYCUA7bLiz\r\nOmLwPTtTni47BhRPOwidJjvXnhU7OLSqO2uZDzsENAA8mR6cPP2Ruzyuwes75FK6OgSCljr0tKQ6\r\nbM1IOtDWCToMwE46+xwXOm8GrDnyHzY51oilOnD3zDrQyIE68ls7OZR/HzqzfqU5au7dOa26szmk\r\ny7Q4G57ROTq+UjmOGiA5XskIOfyXBzmOxio59vE9OX4fQDnGVfU4+Fv6OCad9Tj2Bvg4cAr3OAY2\r\nCzlGnO441lLwOEQoBDkuQeA4K4EQOVaz5Tjwf/o4kybuOLUiuDiYY/Y43CoKOYXe5DjC9gM5ej7z\r\nONWxAzkLGAE5pLzjOGU09DjMvPg4RsfmOF7A4jjiFOs4I3rbOFlr0jhTNeo4zCfSOBzm3zhs69A4\r\n7AbrON69yjhz/to499XGOEmf5jj5zuE495HjOGo0zzjInM04iATQOMR1vjhCn9845ivZOIgawjhu\r\n2NE46re1OAQ6yTi+ANA4FrjTOA2N1jg7d8E44ArYOOat0zhGWLU4bj6+OKz8tzj6y744/M+0OJfz\r\nlTjH78k4paOaOIZByjhuxME44x2/OHC83ji4vbE4/pWuOHkaqTguYKE4uz68ONIf7zjqPbY4/SKa\r\nOFT1oTjExZQ4wLXOOCWvtjgb5544yFOqOEdMszi/k9E4HhuzOLdVnzjLbpU4PN+uOKs9rTillq04\r\nLQyVOL91ojhkaZg4CXShOCq3wzhFK5k4PKJvOJv21zhCGZk4dQW8OB7DljjY36g4bZSbOH+3ojg5\r\nTNg4xUSZOJRHhjgCIZk4inWIOP4UqTgzpZU40gitOFXVjzj45pk4/qmSOHvVjjg/bpM4kECQOI2G\r\nnjj5lJM4F82CONsFhjgkt5g4cgOGOCgakzhQvnE4cNGPOI0UiDjMIJA4Yp+IOI7mnzhtEpY4CkSQ\r\nOC1EkjgceZI4jXN2OFxmiTjNu4U4TO6RODzyezglsYc4UmBzOMRAhji2RJA4HlaFOM0pjDiAEIs4\r\nJk2VOL3PkDiVXok4seaPOEFwjDjqhXc4BVOFOA7TdTgEl4A4o1mEOCx3dzhOr4M48jNzOKD0gDgE\r\nRm04hnGMOKrehTgUfXc4pkNwOGjthjiCcmk4FfFgOGxshDiGynY4TKNqOOY6hjg7Smw4ccSDOHhW\r\nbDj8Goc4KW1cOK3YhTjo84U4zrRvOIzbWjgyI244gAJyODC9ajgGzXA4tO1QODQ0aDiH2HU4rYlM\r\nONY4XTjNM184j1ZGOBL3SzjKznY4CjlJODt3UTiY0UM4Y3VPOEgNajh6THk4X5h9ON0OVDiNnUo4\r\n4mFNOF56UTgO5V84IKdPOP76WDiC/Vc4D/hqOFy1QzhEZ1k4BhpaODSxZTjNxFc427VeOKPacTgD\r\nMUU4VL9SOAB3UDiKqE049TNaOE7ZXTixSkc48IhdOEbYPjj+VU84q9RYOKpoXDjgA0I4FQhKOG5u\r\nPzgCjEw4kL5GOGqGVji6ulQ4ttdJOKSWLTgi5WY4LPhDOOCoSThQHD84anI8OEL/Kjh4YEU4TkxT\r\nOI4XKDgMFz04qsxWOAJGOzgzAj44/hc7OMNiOzjx4js49WUzOJQrYDhpgTo4yVgwOJcEOzj/xTg4\r\n/kI9OAwdSTi2+i84vU00OLujKzhkOzk4+qwzOL9EVDiWNTo45YYvOOBQGzgoHic4/YBRODZ6Sjgj\r\nbjQ4pmNFONg6LjjMlTw4gQQtOP0bRTgb0Dc4mZg3OHcHSzgcpz44mDc5OFg0LDjOFS04h7EtOGCB\r\nNzic/yo4GEI9OI/TLTiQ0yw4XoIjOPszMjhYAEI4bg0hODIoJjhosis4KjQ+OGTrMzht8yo4YeIw\r\nODAQITgKdiU4rEkwOJi3Ozjcdx04ISEbOJh2Izijjyw4OhcmOHRFITgT6xU4kdQxOLxbHTgDbTY4\r\ntIQVOI9RMzhPqTU4TbgiOE4fLjgl8io44ncnOJyyLDgpNSE4iXY2OGpDJzhixSQ4kEUoOPWnLzjj\r\n/iM4kIEZOM8MJThE4B04TEw2OOT7PDgc9T0433gmOMP8Hjj0EAw4YNEwOETuKTiAGS04dxAQODKg\r\nITiiaTE4Z885OPzGHzgn9x44ndYcOABiJjjU2Cc4sW0zOBN/IDimiAo4sCUiOANqKTgw8Rc4yaIW\r\nOG9NFji4/BI4B6QQONQZGjhD0BQ47nokOJ8bGThOwBk4pocWOEoyETiTCxE4Yq0cOEeyIzi9OBM4\r\nv/YnOOyEHDidDBI4IbgYOJR4Ejh+wTM4MZMVOCuFEjjYkxw407sLOGo0AzhY0BE4p0olOFrP+Dfs\r\nYyc4+0YTOOs6DDiEVhQ4YKYUOHAJEzgJSBo4QgMTOINHHjgn7Ck4FKQnOBl3Czhg0Os3cCsAOD5G\r\nHzjI5g84n9kWOFVsFjhEJw84vnkbOCJpFDiL6A84XJsPOJBwHDjEhhs4T9ciOPssETgwpx04tgIX\r\nOLg4CjgjFiI4RsYXOKX/DjiMPxk4ROMROGsJFTi3wCM48s4hOFQWITgIBQs4VZsEOHH0Djg3/SM4\r\nKg4VODbaHDgTsAo4FWoIOOeDAziPNxg4QzcPOJfCBzgo2/k3bjsRONqXGzhUVxs4NMkROMs/Fzjr\r\nuA84DyIIOO6ODzg7PQg4exQUOO2RDTgEVBA4088BOLd9BDhDowQ4YvEOONmgBTjauAM4KtYGONbq\r\nFDjISQM4YRT9N+0BLDh5Bgw4bpMLOHstAjj4VAQ4nODnNySVIzg4hBA4taoQOMpRFDjFDgI4hG0G\r\nOAK96De7EO833kcIONhN/zeCT/E3cfUMOFF4JDhMPxQ4ZhALOM1GBzgaZQU44rwBOG0lBzh2Hhc4\r\nCroSOKcrDDgpVAo4brsKOLOWATjnIOo3e17vNxi0DTj1lQw4RUL2N4LB/zcyQPw38aXdN8/zDjja\r\nOg44Bf3tN3e0HTgQzg84oIoCOOyh8Teynvs3bz0COGqZAzigmgk4CRQOOPU07jdG3hM4En3uN/Nj\r\n+DcfcxE41rT5N+q0BDgwLgI4vlnzN2aP6DfMYPI3Z6oMOMwxBThY3v03/AMVOHcgBjjlvRE4uYf5\r\nN1/wFjhXJA84qzUNOPPyADhsFRQ4Tp0FOCjyDDhBdRE4uG0MOB7QAjh+9wI43kwIOCWj9zdtDgA4\r\ntCElOI+BDjidJew3mCT7N/HSAjinkQI4PQkEOEdlHTgv2Rg4PKHaN9Ux+TfkohU49zTvN+crATiS\r\n4eQ3iv0AOBn7+jcaav43PFACOPky8Dfft/w3zHDfN2YC/Df3EAs4BdAMOCkKDDjLBPE3fz7gN6G9\r\nDziqFw84DDj4N0Ce/jdwWAo48wHhN0D52zcaN/s3afLyN8KwEjhVGOA3iy4ROCK9BDiyzww4/nEH\r\nOOZw+jfUyvA3tmD7N6Xn3Tf9JxE4GYMVODMjATips+w3BXIGOMpaFjjlxOk3KAXnN2sV6jeISwk4\r\neJsTOKJV9zenSvU3byUJODme4TdgQeI3LZjvNzpo7DdF7f03yXX7N+XTCzi0ZO03gdLiNwtmFDhF\r\nmAE4BVfVN+n+9DczhQY4P2fgN3XV8zfV7vI3JscEOGgpBDjdGwA4V8TzN02xBjhTqAA4NMTcN0+x\r\n7zeS5Ok3ZloJOD9T+Dd1gss3YWIIOB4mATiE1f83HCkROFN/9jeGFgo4W5AROJdhAThP8wg49MYJ\r\nOIRx8Df7jeo3cS7iN9evDDh4MAw4wvnpN4i68zet/e43XgwEOE+c8TfyVxg4ApsCOACBDjiVgUQ/\r\nu1qRP4SYEj/VeP0/H2rrQK/GQEJd36NBjvCEQE0BMEA0w+w/OpCkP7DtbT9qdL0+QdJXP1ZZdD8y\r\nBn8/7PIDP12wCj+AH40+obKKPkTTjT7+66Y+/jQUP5cQRT9JZAdApD7aPyEe6z7F8oA/cd/nP5yp\r\nDUFrY9ZBFswGQiPmdEJbWspBjVAWQreYRUH2o7I/Cx6bPyYZDUBEGGk/EVlBP9VPGkBIL51AKo1H\r\nQO9SPD8yRJE/7kLLP10ynkDEc8FA6MXKQHFRskBssmtAhY2HQCj4IEDDAsw/4UXQPhy6jz+4iYQ+\r\nMJ5GP5spoz4gbQk/bJDDPr6+lT6oHYA/69dOQDxXh0CAp9NA3K9IQX6MLUGmHcVAbGjkP3myVD+0\r\n/GlAlCPHQIqutj/FXwZAZPWOPgS7NT7yiR8/YCcEQOzm6z9MN6s+nfFBPhOUzT7oZ1pAXiy0Ph9b\r\nCz5rm7I+MknvPmr2AT9EjEU+bFmIPtISgD4Y33w9LjgtPnLpwj2ox8Y96KL2PS7CqT0rfBU9aKYw\r\nPXiJgT7Cnus8OgYOPY7p4j1PGYk+n4dFPuQtwD2NXhY+HwAzP8ed+z/aQK8/d48cP5u56z5Uvxo+\r\nkLiePSYfRT78QQA+g9n8PTSvKT88FTY/OCABP6NgVT8A/AI/U2czPntQgD0EkPA9NZWDPXJZJT1A\r\nNSg9Ge6DPIg8kTxUtkw83rCHPCyIujwyTiI9tsjbPGuFZz0iiHk8sA+7PDlUAD2YB5Y8fUdqPC6C\r\nYz4H4/Q9LoKYPvRagD4EfS0+1+2nPZJ9PD3uNxU93McHPXzSqTxg3hY98sFqPdFRyTz1+bw8gqsZ\r\nPUeFdj0ztBA9nj7wPCKhozwKZD89hnfzPc6ivD07IXA9NuqQPXEUAz0O2pQ9PpJAPrIZgj5qVT8/\r\nVzsYP4Pe4T7YmKs+nUCCPmuunj0KXVE+9ScTP9qPHD8GEWU/hDERPwnmJD/6G7U+8jMIPgCZTj2w\r\njTI8cSujPEFE/zyu8T49c7uDPBvyrDzisGU8A/HLPJtfKj5BvQU+xHhOPlR/wj6gr1s/lh7PP/CN\r\noj/8ZwI/xlY/Ptg0TD+SMRE/JxxaPpje3z3BqBM+zEOKPVodmz0AWbo9lDCMPpIXpj7qb7w9b/rB\r\nPfLmvz3tsGw/HdGiP//eej9BIkM/Y+2LPhp0KD5s9Sw+UA8JPgqJhj3XDSM+K7BePf48tz7DtOQ/\r\n1pcWQFqypT/W8Bw/PKUyP6dP8j4agKQ+KndQPgEHij0kNRY9xdPBPcLkrzwsMzI+I1uZPp4IXD6K\r\npgo/si1EP1hvdD4MkQI+J4QRPVTedTygR+o8vRTePPNJbj0wQ0Y9EMljPYT0ZT0jkfo9iuHuPUkN\r\nkj1GBRM99z2OPAIOpjsHMqk8go0IPf5t5j32m9E+HfZHP93NRj8Eblw/oO6lPyDKsD+7ooQ/KqEE\r\nP27mMj87Krs+CHdhPkWOzT3sz7k8d7fyPL5xbTxRtuw8xzwVPtlhGT/AhIM/veizPtIWnT5COxY9\r\n5XeRPDDu6DxhowY9usDpOy0JITzQb/g8HZEFPvJHRz3loFY+ArWFPut08T6T6rI/HsbcPztCVT8I\r\neVA+WxCIPbgCNj7Xelo+Yk+qPYf1cD1EfMk9oGdIPS6pID0Sq6Y8JbmjPB28mzxu8C08WYjLO+zm\r\n/ztG6pU7BVcNPEeVADtvl0I7n8zGO/a3djvYWUk7ApX/O0a1Az04s3k8OC6oOlgJQDtsuLM6YvA9\r\nO1OeLjvXSU87CJ0mOyPbFjusnKs7cjIPO75P/ztrHJw8Kvu7PAHN6zvkUro6BIKWOvS0pDpszUg6\r\n0NYJOgzATjr7HBc6bwasOa0tMDnWiKU6cPfMOtDIgTryWzs5klcgOrN+pTngCds5rbqzOaTLtDg/\r\nvtU5juhOOXfNIjkyUgo5p+8MOT5VJzk6aEI5XMhBOdLX9zhAtPo4nOD/ODCv9zg4NPc40ZcPObiQ\r\nBDlAAfg4FrMIOSQo3jjMegc5ANvnOCxOADkguPM4voG8OGqa6Ti3ngg5C/7ZOOVB+TjDGfs4EHsK\r\nOVir/jicM984ZG34OIEZ9zhMIuM4bJ/sOKW09jhwe9U4VubEOPP85zgB/NY45YrbONBgzzgaRuk4\r\njQTHOKJZ3Dgm/8M4V9naOOs53Dj6beI4aELXOJY5zzhug9A4/SDAOFxA2jhoG9g4dtvKOALd1Dhi\r\nNbE44fPGOGxKzjjbWs84pCjdOMU/yTg0Kc842tLQOPburTgem7o4s6qqOGk0wTiYZsE4bqiUOM13\r\nvjhWdZs4JffNOBZDtzjezLs44uLaOG0irTghwaI4DdWrOMysnjh7Hbk4dEbzOKKcujgJJpo4WeKe\r\nOOZNkzhkh8g4qXKoOPbxnzjaTqg4NSSiOOaouDg2c7E4xiqtOEm2oDi0D8k4acOsOF0UojhM15M4\r\n5ai2OEl1nzhdy6I4y7DDOPeymTj8/4s4ISu7OJudmzh0D784JfKGOKAomzj5m5s4/MadOD7n1zh1\r\nt5448zuCOJEmmjhwmIU4xpeZOCLFiTiOU584gHqSONoMnDisnpI40U6UOKY1nDhC6I44CJObOI3v\r\nlTie34Y4BkWQOBR/lTgOZXA4qoaNOKQMgziJa5M4e+yAOEr2jzjNS4k4BhagODKZjzi+OJQ4J/aR\r\nOPAGgzgAdXE4z7qNOG0HhzhP44o4kLd2OM0phDigl2o4jreGOJBbmDjSUIE4CPCDOADhhzhappI4\r\n0DuIOBDAgzg4eo84fQKEONVedjjPtIg4iyaDON0Pgji05YM4JpN3OB1+gjgmtm84gh6OOHHmeji8\r\nB4s4KnaHOF69eTidmW040vuDOLQgazhqj184so2COJC7dTiwOnA40LCDOJm4YTiUVnQ42CJ1OECn\r\nhTisxlk4KgWAOI73ejgF7mg41N1eOOikcTgkC2c4BKNpOFpraDg8mlM45OhmOCJ6eDgHmE44TYdu\r\nOGpfaTgOi0M4cA1YOAAkejjIbUA4dNBSOANwQjiooVs4iclfOK79ajg6ZXQ4mOVSOAYXSzgegGE4\r\nIDt1OIg6Yjhkz1g4aXBSOO7bVTjjiGc42F08OL7GWDgQaFU4h21TOKcJUTgTCmE4AqdoONDASDhl\r\ny1Q4hXZKODr2UTgkEWQ4srBkOHV7SzhPRXA4V3FPOK/qYjhAZ1U41o9aOBikVThy0Ec47ok9OBCu\r\nTDjBPkk48CdaONR+XTiC2VQ4K9QzOIXMXTha5Tw4tupSOOM/QDj9nTg42UkzODJNTDhDkFI4kNYl\r\nOM3UOjhkgF44P/s7OFF1QzgtjUU4RudGOKCYPDibHEA4AhJiOF1URDiKwS84PhA4OCbNLzi1AjE4\r\nrlZDOHh9ODgMnjQ4dF4qODwfODgtRTQ4hClWOLeMMjj5OkM4zYQsOM30Ojh6Yks4rzRROPn9OziJ\r\n9Us4qng2OBQJOThq+jA4BgBIOBYYMjjBxjc4ph5LOATLOji6Ozk4ObcnOJS0LTgvBSc4pm8qOD6f\r\nMzgzj0c4WLkvOLTkMDhUTCE4ibs8OGbpPTgDqiU4HqQvOKx+KziNizI4JkQlOITLMTjl4C04pZgk\r\nOAKBJjgO8Dc4png3OBZjGThYeh84yfMpOF/jKzjKJSg4FU8fOIr1GzinWTw41sgcOOjmNThQvho4\r\nvrkvOOM3Nzj1LiE4caMyOO72JDgPjyU4hscpOJKFFji+9z44flwmOCyzIjjErSI4zL4bOF4aIDjK\r\n7SQ490kgOMrnKDgnwEg47oU9OArPNjjGOy848ZkhOJCFAjh34CY4XH0xOK4IMzjyWQ84qMsbOE8M\r\nOzieNTk4RNQVOJJhIjjL4BU4jlsmOOU9IjiFCDs48d8qODiTEzhlsig4Rv4tOJi8FDg0QxY40OQP\r\nOEUCEziVDxI4TjUVOJLmDzjqlhs4OsQWOCzFEjgctA44X9oPOJW3CDhl1BA4a9McOHCODjj1GSc4\r\nPA4SOLHBGziLbRY4itMTOMBlODit+x44q4IbOFTCHTjyjxA4lUMDOD2/DDiiYhc41JD8N6B6NDgy\r\nlSc4NsgPOIZGETi8ogA4Z7QOOLvpITgJiRE4khwWOHogGThdoxs4WpX5N4Wa9Td+t/836CcnODaA\r\nCDh0HhI4ct4kOPJoDjiIgyE4bLoVOL4rCjhdAgc4mvUcOH2NGThROQ84ujQTOBQhKTh60yA4MTcN\r\nOKt+Izh2GSM4x0IVOATHGjh2/AY4iQYVOMPzIDgE7hM4U0UcOG7HADgR6A448I8ROEVkEzgRDw44\r\ngGcmODybFjgjqgs45gUDOAxKBziYWwk4wn30NwMV9DcdURc4XGgXOJLMDjheNg04YqoXOGN1Fjgv\r\nZR04+0ETODL1Bzgt2BM4qMIAOEqMBTg7z+437jkDOPYuADhP1RM4QhwHOEqCCDibFwo45DgLOFHH\r\nBTiMPvM30M4vODnbEzjpsA44c5j+N1mTBDh/Ae03+PggOOg2DjjHbAc4UJcbOKHsBDhmzQI4V2nl\r\nN1TD9jcg8P03BWb2N5BB8TeD5w04+TMeOIUvFTj0EAo4/RgDOBphCTgMqgE4x98IOEiTBzhNURs4\r\njlIWOLDkCDhAzPw3gRf+N+aA9Dck3fM3OKQNOC1qFzh4Jf03OEMDOPpFBDgX5uM31McPOGKUCTjw\r\nhOk3IcIbOBz1DTiH/Pk3KpPwN46t+zdO3Qg4eAj4N/TKAjiAcQ04bY3rNyxjEzjTJO83MQcHOPW7\r\nDDgiX+8350AKOJWwDTgUzgI4tRLlNzZNADi7K/43S73+NzYlBzhuvxU4ohcBOGwiEDhT6vo3U/wL\r\nOHFTBThJNRI4EM/3N4DNCzjDCes3rV4SOOuMGzg/qBM456IMOBU95zfEBAI4J8X+N4wxBjgAsx44\r\nHvwXOIoR8DfZ2go4JLIGOBsL/je4hQk49fcOOAwAFzhWEQM4NP4IOGusCDgCjO036QnqNx195Tcb\r\nKfY3ZLAAOE7f9zdRbvs3Dd4AOKkgCjgVtfY3XBb3NxePFDihPhE4s3MCOL4z5jccY9s3evkKONSY\r\nDzhByes3BKAEOLkmDzjLR/k3qHjZN9Am8TfWQPg3SbAdOD+K8zd63hk4i0YJOCZA+zfKBfM3AbP3\r\nNzSt/jdgzPc3XRHMN13WATgrxQw4mdgDOPA9BzgMGQw4E+UGOMl96zeTDP039TvkN/aoATiq9Bo4\r\nfDQDOFq77Tfw8QY4nj/3N/oM7TfcNeU39lznNwH7CjiuPf43YqAAOGg14zdCOtQ3zukROHDkDTh8\r\nb943cDT4N9at/Te2u9k3srfoNwd67jelVgo4hiwMOF989jeTr+I3mu7uN87AADhVF+w3zFT8N+z+\r\n7DexMQg49Y3xN/I71TdzpgY4qwP7NwKD+TcIWwg4KIIGOF6pCDi3vAk4A139Nym8DzjCRQU4izT/\r\nN4HG/zfFRN03UvP8N09sDDh8+/c3A6jsN4cg+zfcYPk3yiD1NypmDziaQwA4ABAWOA==",
                            "noiseTrainingType" : "default"
                          }
                        }
                    ],
                    "start" : 4373,
                    "duration" : 97,
                    "mediaStart" : 11280,
                    "mediaDuration" : 97,
                    "scalar" : 1,
                    "metadata" : {
                      "WinSubProjectDisplayName" : "",
                      "clipSpeedAttribute" : false
                    },
                    "animationTracks" : {

                    }
                  },
                  {
                    "id" : 112,
                    "_type" : "StitchedMedia",
                    "minMediaStart" : 0,
                    "attributes" : {
                      "ident" : "tower-columns-02",
                      "gain" : 1.0,
                      "mixToMono" : false
                    },
                    "parameters" : {
                      "volume" : 1.0,
                      "cursorOpacity" : 1.0,
                      "cursorScale" : 1.0
                    },
                    "medias" : [
                        {
                          "id" : 113,
                          "_type" : "AMFile",
                          "src" : 2,
                          "trackNumber" : 1,
                          "attributes" : {
                            "ident" : "Rec 02-03-20_008",
                            "sampleRate" : 44100,
                            "bitDepth" : 16,
                            "gain" : 1.0,
                            "mixToMono" : false
                          },
                            "channelNumber" : "0,1",
                          "effects" : [

                          ],
                          "start" : 0,
                          "duration" : 10292,
                          "mediaStart" : 0,
                          "mediaDuration" : 10292,
                          "scalar" : 1,
                          "metadata" : {
                            "WinSubProjectDisplayName" : "",
                            "clipSpeedAttribute" : false
                          },
                          "animationTracks" : {

                          }
                        },
                        {
                          "id" : 114,
                          "_type" : "AMFile",
                          "src" : 2,
                          "trackNumber" : 1,
                          "attributes" : {
                            "ident" : "Rec 02-03-20_008",
                            "sampleRate" : 44100,
                            "bitDepth" : 16,
                            "gain" : 1.0,
                            "mixToMono" : false
                          },
                            "channelNumber" : "0,1",
                          "effects" : [

                          ],
                          "start" : 10292,
                          "duration" : 36,
                          "mediaStart" : 10326,
                          "mediaDuration" : 36,
                          "scalar" : 1,
                          "metadata" : {
                            "WinSubProjectDisplayName" : "",
                            "clipSpeedAttribute" : false
                          },
                          "animationTracks" : {

                          }
                        },
                        {
                          "id" : 115,
                          "_type" : "AMFile",
                          "src" : 2,
                          "trackNumber" : 1,
                          "attributes" : {
                            "ident" : "Rec 02-03-20_008",
                            "sampleRate" : 44100,
                            "bitDepth" : 16,
                            "gain" : 1.0,
                            "mixToMono" : false
                          },
                            "channelNumber" : "0,1",
                          "effects" : [

                          ],
                          "start" : 10328,
                          "duration" : 6867,
                          "mediaStart" : 10429,
                          "mediaDuration" : 6867,
                          "scalar" : 1,
                          "metadata" : {
                            "WinSubProjectDisplayName" : "",
                            "clipSpeedAttribute" : false
                          },
                          "animationTracks" : {

                          }
                        }
                    ],
                    "effects" : [
                        {
                          "effectName" : "NoiseReduction",
                          "category" : "categoryAudioEffects",
                          "parameters" : {
                            "denoiserAmount" : 20.0,
                            "denoiserThreshold" : 0.0,
                            "noiseProfile" : "nZZEP5RikT+EmBI/KnP9Pwpb60CvxkBCXd+jQY7whEBNATBANMPsP4KGpD+w7W0/anS9Pp7DVz9W\r\nWXQ/MgZ/P+zyAz9dsAo/gB+NPqGyij5E040+/uumPv40FD+XEEU/tV4HQPJC2j8hHus+xuOAP6zl\r\n5z90pQ1Ba2PWQS3MBkIj5nRCW1rKQY1QFkK3mEVB9qOyPwsemz8mGQ1AijZpPxFZQT/VTxpASC+d\r\nQCqNR0DvUjw/MkSRP+5Cyz9dMp5AxHPBQOjFykBxUbJAbLJrQIWNh0Ao+CBAwwLMP+FF0D4cuo8/\r\nuImEPjCeRj+bKaM+IG0JP2yQwz6tn5U+qB2AP+vXTkA8V4dAgKfTQNyvSEF+jC1Bph3FQGxo5D95\r\nslQ/tPxpQJQjx0CKrrY/xV8GQGT1jj4EuzU+8okfP2AnBEDs5us/TDerPp3xQT4TlM0+6GdaQF4s\r\ntD4fWws+a5uyPjJJ7z5q9gE/RIxFPmxZiD7SEoA+GN98PS44LT5y6cI9Dw/HPfSD9j1k3Kk9K3wV\r\nPWimMD14iYE+wp7rPDoGDj2O6eI9TxmJPp+HRT7kLcA9jV4WPh8AMz/Hnfs/2kCvP3ePHD+bues+\r\nVL8aPpC4nj0mH0U+/EEAPoPZ/D00ryk/PBU2PzggAT+jYFU/APwCP1NnMz57UIA9BJDwPTWVgz1y\r\nWSU99nonPRB7hDwE15A8VLZMPN6whzwsiLo8Mk4iPbbI2zxrhWc9Ioh5PLAPuzyowQA9mAeWPH1H\r\najwugmM+B+P0PS6CmD70WoA+BH0tPtftpz2SfTw97jcVPdzHBz180qk8YN4WPfLBaj3RUck89fm8\r\nPMZHGj1HhXY9M7QQPZ4+8DwioaM8CmQ/PYZ38z3Oorw9OyFwPTbqkD1xFAM9DtqUPT6SQD6yGYI+\r\nalU/P1c7GD+D3uE+2JirPp1Agj5rrp49Cl1RPvUnEz/ajxw/BhFlP0VGET/D7CQ/+xu1PvIzCD4g\r\nrE49sI0yPHErozxBRP88rvE+PTLyhDyog6084rBlPAPxyzybXyo+Qb0FPsR4Tj5Uf8I+oK9bP5Ye\r\nzz/wjaI//GcCP8ZWPz7YNEw/kjERPyccWj6Y3t89wagTPsxDij1aHZs9I4i6PYZBjD5ICaY+/o68\r\nPfDUwT3y5r89C71sP+LYoj+i9no/pkJDP2Ptiz5ELyg+r/QsPo0aCT4KiYY91w0jPiuwXj3+PLc+\r\nw7TkP9aXFkBasqU/1vAcPzylMj+nT/I+GoCkPip3UD598Ik9NBIWPZ7GwT3C5K88LDMyPiNbmT6e\r\nCFw+Ct0KP8c0RD8weHQ+Y6UCPieEET0Vz3Y8OojrPNj93DzxLm49MENGPfb+Yz1w+2U9sSX6PYrh\r\n7j1JDZI9RgUTPeLDjjwCDqY7R86oPIKNCD3+beY99pvRPh32Rz/dzUY/BG5cP6DupT8gyrA/u6KE\r\nPyqhBD+k3zI/Oyq7Pgh3YT5Fjs09LRq6PLg48zxQA248aRXtPCX1FD5rixk/9oCDP1vysz5lIp0+\r\nYIUWPeV3kTww7ug8YaMGPXG/6TstCSE8Axj4PO2dBT6AKEc9c6NWPp/chT6Hj/E+queyP3Wl3D8G\r\nSlU/dpFQPtOkiD2fCTY+vUBaPtYpqj0o2XA9NNrJPR6LSD0q8CA9EqumPCW5ozwdvJs8bvAtPGpK\r\nyTvs5v87RuqVO/g6DTwYgv86b5dCO5/Mxjv2t3Y72FlJOwKV/zs15AM9OLN5PDguqDpYCUA7bLiz\r\nOmLwPTtTni47BhRPOwidJjvXnhU7OLSqO2uZDzsENAA8mR6cPP2Ruzyuwes75FK6OgSCljr0tKQ6\r\nbM1IOtDWCToMwE46+xwXOm8GrDnyHzY51oilOnD3zDrQyIE68ls7OZR/HzqzfqU5au7dOa26szmk\r\ny7Q4G57ROTq+UjmOGiA5XskIOfyXBzmOxio59vE9OX4fQDnGVfU4+Fv6OCad9Tj2Bvg4cAr3OAY2\r\nCzlGnO441lLwOEQoBDkuQeA4K4EQOVaz5Tjwf/o4kybuOLUiuDiYY/Y43CoKOYXe5DjC9gM5ej7z\r\nONWxAzkLGAE5pLzjOGU09DjMvPg4RsfmOF7A4jjiFOs4I3rbOFlr0jhTNeo4zCfSOBzm3zhs69A4\r\n7AbrON69yjhz/to499XGOEmf5jj5zuE495HjOGo0zzjInM04iATQOMR1vjhCn9845ivZOIgawjhu\r\n2NE46re1OAQ6yTi+ANA4FrjTOA2N1jg7d8E44ArYOOat0zhGWLU4bj6+OKz8tzj6y744/M+0OJfz\r\nlTjH78k4paOaOIZByjhuxME44x2/OHC83ji4vbE4/pWuOHkaqTguYKE4uz68ONIf7zjqPbY4/SKa\r\nOFT1oTjExZQ4wLXOOCWvtjgb5544yFOqOEdMszi/k9E4HhuzOLdVnzjLbpU4PN+uOKs9rTillq04\r\nLQyVOL91ojhkaZg4CXShOCq3wzhFK5k4PKJvOJv21zhCGZk4dQW8OB7DljjY36g4bZSbOH+3ojg5\r\nTNg4xUSZOJRHhjgCIZk4inWIOP4UqTgzpZU40gitOFXVjzj45pk4/qmSOHvVjjg/bpM4kECQOI2G\r\nnjj5lJM4F82CONsFhjgkt5g4cgOGOCgakzhQvnE4cNGPOI0UiDjMIJA4Yp+IOI7mnzhtEpY4CkSQ\r\nOC1EkjgceZI4jXN2OFxmiTjNu4U4TO6RODzyezglsYc4UmBzOMRAhji2RJA4HlaFOM0pjDiAEIs4\r\nJk2VOL3PkDiVXok4seaPOEFwjDjqhXc4BVOFOA7TdTgEl4A4o1mEOCx3dzhOr4M48jNzOKD0gDgE\r\nRm04hnGMOKrehTgUfXc4pkNwOGjthjiCcmk4FfFgOGxshDiGynY4TKNqOOY6hjg7Smw4ccSDOHhW\r\nbDj8Goc4KW1cOK3YhTjo84U4zrRvOIzbWjgyI244gAJyODC9ajgGzXA4tO1QODQ0aDiH2HU4rYlM\r\nONY4XTjNM184j1ZGOBL3SzjKznY4CjlJODt3UTiY0UM4Y3VPOEgNajh6THk4X5h9ON0OVDiNnUo4\r\n4mFNOF56UTgO5V84IKdPOP76WDiC/Vc4D/hqOFy1QzhEZ1k4BhpaODSxZTjNxFc427VeOKPacTgD\r\nMUU4VL9SOAB3UDiKqE049TNaOE7ZXTixSkc48IhdOEbYPjj+VU84q9RYOKpoXDjgA0I4FQhKOG5u\r\nPzgCjEw4kL5GOGqGVji6ulQ4ttdJOKSWLTgi5WY4LPhDOOCoSThQHD84anI8OEL/Kjh4YEU4TkxT\r\nOI4XKDgMFz04qsxWOAJGOzgzAj44/hc7OMNiOzjx4js49WUzOJQrYDhpgTo4yVgwOJcEOzj/xTg4\r\n/kI9OAwdSTi2+i84vU00OLujKzhkOzk4+qwzOL9EVDiWNTo45YYvOOBQGzgoHic4/YBRODZ6Sjgj\r\nbjQ4pmNFONg6LjjMlTw4gQQtOP0bRTgb0Dc4mZg3OHcHSzgcpz44mDc5OFg0LDjOFS04h7EtOGCB\r\nNzic/yo4GEI9OI/TLTiQ0yw4XoIjOPszMjhYAEI4bg0hODIoJjhosis4KjQ+OGTrMzht8yo4YeIw\r\nODAQITgKdiU4rEkwOJi3Ozjcdx04ISEbOJh2Izijjyw4OhcmOHRFITgT6xU4kdQxOLxbHTgDbTY4\r\ntIQVOI9RMzhPqTU4TbgiOE4fLjgl8io44ncnOJyyLDgpNSE4iXY2OGpDJzhixSQ4kEUoOPWnLzjj\r\n/iM4kIEZOM8MJThE4B04TEw2OOT7PDgc9T0433gmOMP8Hjj0EAw4YNEwOETuKTiAGS04dxAQODKg\r\nITiiaTE4Z885OPzGHzgn9x44ndYcOABiJjjU2Cc4sW0zOBN/IDimiAo4sCUiOANqKTgw8Rc4yaIW\r\nOG9NFji4/BI4B6QQONQZGjhD0BQ47nokOJ8bGThOwBk4pocWOEoyETiTCxE4Yq0cOEeyIzi9OBM4\r\nv/YnOOyEHDidDBI4IbgYOJR4Ejh+wTM4MZMVOCuFEjjYkxw407sLOGo0AzhY0BE4p0olOFrP+Dfs\r\nYyc4+0YTOOs6DDiEVhQ4YKYUOHAJEzgJSBo4QgMTOINHHjgn7Ck4FKQnOBl3Czhg0Os3cCsAOD5G\r\nHzjI5g84n9kWOFVsFjhEJw84vnkbOCJpFDiL6A84XJsPOJBwHDjEhhs4T9ciOPssETgwpx04tgIX\r\nOLg4CjgjFiI4RsYXOKX/DjiMPxk4ROMROGsJFTi3wCM48s4hOFQWITgIBQs4VZsEOHH0Djg3/SM4\r\nKg4VODbaHDgTsAo4FWoIOOeDAziPNxg4QzcPOJfCBzgo2/k3bjsRONqXGzhUVxs4NMkROMs/Fzjr\r\nuA84DyIIOO6ODzg7PQg4exQUOO2RDTgEVBA4088BOLd9BDhDowQ4YvEOONmgBTjauAM4KtYGONbq\r\nFDjISQM4YRT9N+0BLDh5Bgw4bpMLOHstAjj4VAQ4nODnNySVIzg4hBA4taoQOMpRFDjFDgI4hG0G\r\nOAK96De7EO833kcIONhN/zeCT/E3cfUMOFF4JDhMPxQ4ZhALOM1GBzgaZQU44rwBOG0lBzh2Hhc4\r\nCroSOKcrDDgpVAo4brsKOLOWATjnIOo3e17vNxi0DTj1lQw4RUL2N4LB/zcyQPw38aXdN8/zDjja\r\nOg44Bf3tN3e0HTgQzg84oIoCOOyh8Teynvs3bz0COGqZAzigmgk4CRQOOPU07jdG3hM4En3uN/Nj\r\n+DcfcxE41rT5N+q0BDgwLgI4vlnzN2aP6DfMYPI3Z6oMOMwxBThY3v03/AMVOHcgBjjlvRE4uYf5\r\nN1/wFjhXJA84qzUNOPPyADhsFRQ4Tp0FOCjyDDhBdRE4uG0MOB7QAjh+9wI43kwIOCWj9zdtDgA4\r\ntCElOI+BDjidJew3mCT7N/HSAjinkQI4PQkEOEdlHTgv2Rg4PKHaN9Ux+TfkohU49zTvN+crATiS\r\n4eQ3iv0AOBn7+jcaav43PFACOPky8Dfft/w3zHDfN2YC/Df3EAs4BdAMOCkKDDjLBPE3fz7gN6G9\r\nDziqFw84DDj4N0Ce/jdwWAo48wHhN0D52zcaN/s3afLyN8KwEjhVGOA3iy4ROCK9BDiyzww4/nEH\r\nOOZw+jfUyvA3tmD7N6Xn3Tf9JxE4GYMVODMjATips+w3BXIGOMpaFjjlxOk3KAXnN2sV6jeISwk4\r\neJsTOKJV9zenSvU3byUJODme4TdgQeI3LZjvNzpo7DdF7f03yXX7N+XTCzi0ZO03gdLiNwtmFDhF\r\nmAE4BVfVN+n+9DczhQY4P2fgN3XV8zfV7vI3JscEOGgpBDjdGwA4V8TzN02xBjhTqAA4NMTcN0+x\r\n7zeS5Ok3ZloJOD9T+Dd1gss3YWIIOB4mATiE1f83HCkROFN/9jeGFgo4W5AROJdhAThP8wg49MYJ\r\nOIRx8Df7jeo3cS7iN9evDDh4MAw4wvnpN4i68zet/e43XgwEOE+c8TfyVxg4ApsCOACBDjiVgUQ/\r\nu1qRP4SYEj/VeP0/H2rrQK/GQEJd36NBjvCEQE0BMEA0w+w/OpCkP7DtbT9qdL0+QdJXP1ZZdD8y\r\nBn8/7PIDP12wCj+AH40+obKKPkTTjT7+66Y+/jQUP5cQRT9JZAdApD7aPyEe6z7F8oA/cd/nP5yp\r\nDUFrY9ZBFswGQiPmdEJbWspBjVAWQreYRUH2o7I/Cx6bPyYZDUBEGGk/EVlBP9VPGkBIL51AKo1H\r\nQO9SPD8yRJE/7kLLP10ynkDEc8FA6MXKQHFRskBssmtAhY2HQCj4IEDDAsw/4UXQPhy6jz+4iYQ+\r\nMJ5GP5spoz4gbQk/bJDDPr6+lT6oHYA/69dOQDxXh0CAp9NA3K9IQX6MLUGmHcVAbGjkP3myVD+0\r\n/GlAlCPHQIqutj/FXwZAZPWOPgS7NT7yiR8/YCcEQOzm6z9MN6s+nfFBPhOUzT7oZ1pAXiy0Ph9b\r\nCz5rm7I+MknvPmr2AT9EjEU+bFmIPtISgD4Y33w9LjgtPnLpwj2ox8Y96KL2PS7CqT0rfBU9aKYw\r\nPXiJgT7Cnus8OgYOPY7p4j1PGYk+n4dFPuQtwD2NXhY+HwAzP8ed+z/aQK8/d48cP5u56z5Uvxo+\r\nkLiePSYfRT78QQA+g9n8PTSvKT88FTY/OCABP6NgVT8A/AI/U2czPntQgD0EkPA9NZWDPXJZJT1A\r\nNSg9Ge6DPIg8kTxUtkw83rCHPCyIujwyTiI9tsjbPGuFZz0iiHk8sA+7PDlUAD2YB5Y8fUdqPC6C\r\nYz4H4/Q9LoKYPvRagD4EfS0+1+2nPZJ9PD3uNxU93McHPXzSqTxg3hY98sFqPdFRyTz1+bw8gqsZ\r\nPUeFdj0ztBA9nj7wPCKhozwKZD89hnfzPc6ivD07IXA9NuqQPXEUAz0O2pQ9PpJAPrIZgj5qVT8/\r\nVzsYP4Pe4T7YmKs+nUCCPmuunj0KXVE+9ScTP9qPHD8GEWU/hDERPwnmJD/6G7U+8jMIPgCZTj2w\r\njTI8cSujPEFE/zyu8T49c7uDPBvyrDzisGU8A/HLPJtfKj5BvQU+xHhOPlR/wj6gr1s/lh7PP/CN\r\noj/8ZwI/xlY/Ptg0TD+SMRE/JxxaPpje3z3BqBM+zEOKPVodmz0AWbo9lDCMPpIXpj7qb7w9b/rB\r\nPfLmvz3tsGw/HdGiP//eej9BIkM/Y+2LPhp0KD5s9Sw+UA8JPgqJhj3XDSM+K7BePf48tz7DtOQ/\r\n1pcWQFqypT/W8Bw/PKUyP6dP8j4agKQ+KndQPgEHij0kNRY9xdPBPcLkrzwsMzI+I1uZPp4IXD6K\r\npgo/si1EP1hvdD4MkQI+J4QRPVTedTygR+o8vRTePPNJbj0wQ0Y9EMljPYT0ZT0jkfo9iuHuPUkN\r\nkj1GBRM99z2OPAIOpjsHMqk8go0IPf5t5j32m9E+HfZHP93NRj8Eblw/oO6lPyDKsD+7ooQ/KqEE\r\nP27mMj87Krs+CHdhPkWOzT3sz7k8d7fyPL5xbTxRtuw8xzwVPtlhGT/AhIM/veizPtIWnT5COxY9\r\n5XeRPDDu6DxhowY9usDpOy0JITzQb/g8HZEFPvJHRz3loFY+ArWFPut08T6T6rI/HsbcPztCVT8I\r\neVA+WxCIPbgCNj7Xelo+Yk+qPYf1cD1EfMk9oGdIPS6pID0Sq6Y8JbmjPB28mzxu8C08WYjLO+zm\r\n/ztG6pU7BVcNPEeVADtvl0I7n8zGO/a3djvYWUk7ApX/O0a1Az04s3k8OC6oOlgJQDtsuLM6YvA9\r\nO1OeLjvXSU87CJ0mOyPbFjusnKs7cjIPO75P/ztrHJw8Kvu7PAHN6zvkUro6BIKWOvS0pDpszUg6\r\n0NYJOgzATjr7HBc6bwasOa0tMDnWiKU6cPfMOtDIgTryWzs5klcgOrN+pTngCds5rbqzOaTLtDg/\r\nvtU5juhOOXfNIjkyUgo5p+8MOT5VJzk6aEI5XMhBOdLX9zhAtPo4nOD/ODCv9zg4NPc40ZcPObiQ\r\nBDlAAfg4FrMIOSQo3jjMegc5ANvnOCxOADkguPM4voG8OGqa6Ti3ngg5C/7ZOOVB+TjDGfs4EHsK\r\nOVir/jicM984ZG34OIEZ9zhMIuM4bJ/sOKW09jhwe9U4VubEOPP85zgB/NY45YrbONBgzzgaRuk4\r\njQTHOKJZ3Dgm/8M4V9naOOs53Dj6beI4aELXOJY5zzhug9A4/SDAOFxA2jhoG9g4dtvKOALd1Dhi\r\nNbE44fPGOGxKzjjbWs84pCjdOMU/yTg0Kc842tLQOPburTgem7o4s6qqOGk0wTiYZsE4bqiUOM13\r\nvjhWdZs4JffNOBZDtzjezLs44uLaOG0irTghwaI4DdWrOMysnjh7Hbk4dEbzOKKcujgJJpo4WeKe\r\nOOZNkzhkh8g4qXKoOPbxnzjaTqg4NSSiOOaouDg2c7E4xiqtOEm2oDi0D8k4acOsOF0UojhM15M4\r\n5ai2OEl1nzhdy6I4y7DDOPeymTj8/4s4ISu7OJudmzh0D784JfKGOKAomzj5m5s4/MadOD7n1zh1\r\nt5448zuCOJEmmjhwmIU4xpeZOCLFiTiOU584gHqSONoMnDisnpI40U6UOKY1nDhC6I44CJObOI3v\r\nlTie34Y4BkWQOBR/lTgOZXA4qoaNOKQMgziJa5M4e+yAOEr2jzjNS4k4BhagODKZjzi+OJQ4J/aR\r\nOPAGgzgAdXE4z7qNOG0HhzhP44o4kLd2OM0phDigl2o4jreGOJBbmDjSUIE4CPCDOADhhzhappI4\r\n0DuIOBDAgzg4eo84fQKEONVedjjPtIg4iyaDON0Pgji05YM4JpN3OB1+gjgmtm84gh6OOHHmeji8\r\nB4s4KnaHOF69eTidmW040vuDOLQgazhqj184so2COJC7dTiwOnA40LCDOJm4YTiUVnQ42CJ1OECn\r\nhTisxlk4KgWAOI73ejgF7mg41N1eOOikcTgkC2c4BKNpOFpraDg8mlM45OhmOCJ6eDgHmE44TYdu\r\nOGpfaTgOi0M4cA1YOAAkejjIbUA4dNBSOANwQjiooVs4iclfOK79ajg6ZXQ4mOVSOAYXSzgegGE4\r\nIDt1OIg6Yjhkz1g4aXBSOO7bVTjjiGc42F08OL7GWDgQaFU4h21TOKcJUTgTCmE4AqdoONDASDhl\r\ny1Q4hXZKODr2UTgkEWQ4srBkOHV7SzhPRXA4V3FPOK/qYjhAZ1U41o9aOBikVThy0Ec47ok9OBCu\r\nTDjBPkk48CdaONR+XTiC2VQ4K9QzOIXMXTha5Tw4tupSOOM/QDj9nTg42UkzODJNTDhDkFI4kNYl\r\nOM3UOjhkgF44P/s7OFF1QzgtjUU4RudGOKCYPDibHEA4AhJiOF1URDiKwS84PhA4OCbNLzi1AjE4\r\nrlZDOHh9ODgMnjQ4dF4qODwfODgtRTQ4hClWOLeMMjj5OkM4zYQsOM30Ojh6Yks4rzRROPn9OziJ\r\n9Us4qng2OBQJOThq+jA4BgBIOBYYMjjBxjc4ph5LOATLOji6Ozk4ObcnOJS0LTgvBSc4pm8qOD6f\r\nMzgzj0c4WLkvOLTkMDhUTCE4ibs8OGbpPTgDqiU4HqQvOKx+KziNizI4JkQlOITLMTjl4C04pZgk\r\nOAKBJjgO8Dc4png3OBZjGThYeh84yfMpOF/jKzjKJSg4FU8fOIr1GzinWTw41sgcOOjmNThQvho4\r\nvrkvOOM3Nzj1LiE4caMyOO72JDgPjyU4hscpOJKFFji+9z44flwmOCyzIjjErSI4zL4bOF4aIDjK\r\n7SQ490kgOMrnKDgnwEg47oU9OArPNjjGOy848ZkhOJCFAjh34CY4XH0xOK4IMzjyWQ84qMsbOE8M\r\nOzieNTk4RNQVOJJhIjjL4BU4jlsmOOU9IjiFCDs48d8qODiTEzhlsig4Rv4tOJi8FDg0QxY40OQP\r\nOEUCEziVDxI4TjUVOJLmDzjqlhs4OsQWOCzFEjgctA44X9oPOJW3CDhl1BA4a9McOHCODjj1GSc4\r\nPA4SOLHBGziLbRY4itMTOMBlODit+x44q4IbOFTCHTjyjxA4lUMDOD2/DDiiYhc41JD8N6B6NDgy\r\nlSc4NsgPOIZGETi8ogA4Z7QOOLvpITgJiRE4khwWOHogGThdoxs4WpX5N4Wa9Td+t/836CcnODaA\r\nCDh0HhI4ct4kOPJoDjiIgyE4bLoVOL4rCjhdAgc4mvUcOH2NGThROQ84ujQTOBQhKTh60yA4MTcN\r\nOKt+Izh2GSM4x0IVOATHGjh2/AY4iQYVOMPzIDgE7hM4U0UcOG7HADgR6A448I8ROEVkEzgRDw44\r\ngGcmODybFjgjqgs45gUDOAxKBziYWwk4wn30NwMV9DcdURc4XGgXOJLMDjheNg04YqoXOGN1Fjgv\r\nZR04+0ETODL1Bzgt2BM4qMIAOEqMBTg7z+437jkDOPYuADhP1RM4QhwHOEqCCDibFwo45DgLOFHH\r\nBTiMPvM30M4vODnbEzjpsA44c5j+N1mTBDh/Ae03+PggOOg2DjjHbAc4UJcbOKHsBDhmzQI4V2nl\r\nN1TD9jcg8P03BWb2N5BB8TeD5w04+TMeOIUvFTj0EAo4/RgDOBphCTgMqgE4x98IOEiTBzhNURs4\r\njlIWOLDkCDhAzPw3gRf+N+aA9Dck3fM3OKQNOC1qFzh4Jf03OEMDOPpFBDgX5uM31McPOGKUCTjw\r\nhOk3IcIbOBz1DTiH/Pk3KpPwN46t+zdO3Qg4eAj4N/TKAjiAcQ04bY3rNyxjEzjTJO83MQcHOPW7\r\nDDgiX+8350AKOJWwDTgUzgI4tRLlNzZNADi7K/43S73+NzYlBzhuvxU4ohcBOGwiEDhT6vo3U/wL\r\nOHFTBThJNRI4EM/3N4DNCzjDCes3rV4SOOuMGzg/qBM456IMOBU95zfEBAI4J8X+N4wxBjgAsx44\r\nHvwXOIoR8DfZ2go4JLIGOBsL/je4hQk49fcOOAwAFzhWEQM4NP4IOGusCDgCjO036QnqNx195Tcb\r\nKfY3ZLAAOE7f9zdRbvs3Dd4AOKkgCjgVtfY3XBb3NxePFDihPhE4s3MCOL4z5jccY9s3evkKONSY\r\nDzhByes3BKAEOLkmDzjLR/k3qHjZN9Am8TfWQPg3SbAdOD+K8zd63hk4i0YJOCZA+zfKBfM3AbP3\r\nNzSt/jdgzPc3XRHMN13WATgrxQw4mdgDOPA9BzgMGQw4E+UGOMl96zeTDP039TvkN/aoATiq9Bo4\r\nfDQDOFq77Tfw8QY4nj/3N/oM7TfcNeU39lznNwH7CjiuPf43YqAAOGg14zdCOtQ3zukROHDkDTh8\r\nb943cDT4N9at/Te2u9k3srfoNwd67jelVgo4hiwMOF989jeTr+I3mu7uN87AADhVF+w3zFT8N+z+\r\n7DexMQg49Y3xN/I71TdzpgY4qwP7NwKD+TcIWwg4KIIGOF6pCDi3vAk4A139Nym8DzjCRQU4izT/\r\nN4HG/zfFRN03UvP8N09sDDh8+/c3A6jsN4cg+zfcYPk3yiD1NypmDziaQwA4ABAWOA==",
                            "noiseTrainingType" : "default"
                          }
                        }
                    ],
                    "start" : 4470,
                    "duration" : 25,
                    "mediaStart" : 11418,
                    "mediaDuration" : 25,
                    "scalar" : 1,
                    "metadata" : {
                      "WinSubProjectDisplayName" : "",
                      "clipSpeedAttribute" : false
                    },
                    "animationTracks" : {

                    }
                  },
                  {
                    "id" : 116,
                    "_type" : "StitchedMedia",
                    "minMediaStart" : 0,
                    "attributes" : {
                      "ident" : "tower-columns-02",
                      "gain" : 1.0,
                      "mixToMono" : false
                    },
                    "parameters" : {
                      "volume" : 1.0,
                      "cursorOpacity" : 1.0,
                      "cursorScale" : 1.0
                    },
                    "medias" : [
                        {
                          "id" : 117,
                          "_type" : "AMFile",
                          "src" : 2,
                          "trackNumber" : 1,
                          "attributes" : {
                            "ident" : "Rec 02-03-20_008",
                            "sampleRate" : 44100,
                            "bitDepth" : 16,
                            "gain" : 1.0,
                            "mixToMono" : false
                          },
                            "channelNumber" : "0,1",
                          "effects" : [

                          ],
                          "start" : 0,
                          "duration" : 10292,
                          "mediaStart" : 0,
                          "mediaDuration" : 10292,
                          "scalar" : 1,
                          "metadata" : {
                            "WinSubProjectDisplayName" : "",
                            "clipSpeedAttribute" : false
                          },
                          "animationTracks" : {

                          }
                        },
                        {
                          "id" : 118,
                          "_type" : "AMFile",
                          "src" : 2,
                          "trackNumber" : 1,
                          "attributes" : {
                            "ident" : "Rec 02-03-20_008",
                            "sampleRate" : 44100,
                            "bitDepth" : 16,
                            "gain" : 1.0,
                            "mixToMono" : false
                          },
                            "channelNumber" : "0,1",
                          "effects" : [

                          ],
                          "start" : 10292,
                          "duration" : 36,
                          "mediaStart" : 10326,
                          "mediaDuration" : 36,
                          "scalar" : 1,
                          "metadata" : {
                            "WinSubProjectDisplayName" : "",
                            "clipSpeedAttribute" : false
                          },
                          "animationTracks" : {

                          }
                        },
                        {
                          "id" : 119,
                          "_type" : "AMFile",
                          "src" : 2,
                          "trackNumber" : 1,
                          "attributes" : {
                            "ident" : "Rec 02-03-20_008",
                            "sampleRate" : 44100,
                            "bitDepth" : 16,
                            "gain" : 1.0,
                            "mixToMono" : false
                          },
                            "channelNumber" : "0,1",
                          "effects" : [

                          ],
                          "start" : 10328,
                          "duration" : 6867,
                          "mediaStart" : 10429,
                          "mediaDuration" : 6867,
                          "scalar" : 1,
                          "metadata" : {
                            "WinSubProjectDisplayName" : "",
                            "clipSpeedAttribute" : false
                          },
                          "animationTracks" : {

                          }
                        }
                    ],
                    "effects" : [
                        {
                          "effectName" : "NoiseReduction",
                          "category" : "categoryAudioEffects",
                          "parameters" : {
                            "denoiserAmount" : 20.0,
                            "denoiserThreshold" : 0.0,
                            "noiseProfile" : "nZZEP5RikT+EmBI/KnP9Pwpb60CvxkBCXd+jQY7whEBNATBANMPsP4KGpD+w7W0/anS9Pp7DVz9W\r\nWXQ/MgZ/P+zyAz9dsAo/gB+NPqGyij5E040+/uumPv40FD+XEEU/tV4HQPJC2j8hHus+xuOAP6zl\r\n5z90pQ1Ba2PWQS3MBkIj5nRCW1rKQY1QFkK3mEVB9qOyPwsemz8mGQ1AijZpPxFZQT/VTxpASC+d\r\nQCqNR0DvUjw/MkSRP+5Cyz9dMp5AxHPBQOjFykBxUbJAbLJrQIWNh0Ao+CBAwwLMP+FF0D4cuo8/\r\nuImEPjCeRj+bKaM+IG0JP2yQwz6tn5U+qB2AP+vXTkA8V4dAgKfTQNyvSEF+jC1Bph3FQGxo5D95\r\nslQ/tPxpQJQjx0CKrrY/xV8GQGT1jj4EuzU+8okfP2AnBEDs5us/TDerPp3xQT4TlM0+6GdaQF4s\r\ntD4fWws+a5uyPjJJ7z5q9gE/RIxFPmxZiD7SEoA+GN98PS44LT5y6cI9Dw/HPfSD9j1k3Kk9K3wV\r\nPWimMD14iYE+wp7rPDoGDj2O6eI9TxmJPp+HRT7kLcA9jV4WPh8AMz/Hnfs/2kCvP3ePHD+bues+\r\nVL8aPpC4nj0mH0U+/EEAPoPZ/D00ryk/PBU2PzggAT+jYFU/APwCP1NnMz57UIA9BJDwPTWVgz1y\r\nWSU99nonPRB7hDwE15A8VLZMPN6whzwsiLo8Mk4iPbbI2zxrhWc9Ioh5PLAPuzyowQA9mAeWPH1H\r\najwugmM+B+P0PS6CmD70WoA+BH0tPtftpz2SfTw97jcVPdzHBz180qk8YN4WPfLBaj3RUck89fm8\r\nPMZHGj1HhXY9M7QQPZ4+8DwioaM8CmQ/PYZ38z3Oorw9OyFwPTbqkD1xFAM9DtqUPT6SQD6yGYI+\r\nalU/P1c7GD+D3uE+2JirPp1Agj5rrp49Cl1RPvUnEz/ajxw/BhFlP0VGET/D7CQ/+xu1PvIzCD4g\r\nrE49sI0yPHErozxBRP88rvE+PTLyhDyog6084rBlPAPxyzybXyo+Qb0FPsR4Tj5Uf8I+oK9bP5Ye\r\nzz/wjaI//GcCP8ZWPz7YNEw/kjERPyccWj6Y3t89wagTPsxDij1aHZs9I4i6PYZBjD5ICaY+/o68\r\nPfDUwT3y5r89C71sP+LYoj+i9no/pkJDP2Ptiz5ELyg+r/QsPo0aCT4KiYY91w0jPiuwXj3+PLc+\r\nw7TkP9aXFkBasqU/1vAcPzylMj+nT/I+GoCkPip3UD598Ik9NBIWPZ7GwT3C5K88LDMyPiNbmT6e\r\nCFw+Ct0KP8c0RD8weHQ+Y6UCPieEET0Vz3Y8OojrPNj93DzxLm49MENGPfb+Yz1w+2U9sSX6PYrh\r\n7j1JDZI9RgUTPeLDjjwCDqY7R86oPIKNCD3+beY99pvRPh32Rz/dzUY/BG5cP6DupT8gyrA/u6KE\r\nPyqhBD+k3zI/Oyq7Pgh3YT5Fjs09LRq6PLg48zxQA248aRXtPCX1FD5rixk/9oCDP1vysz5lIp0+\r\nYIUWPeV3kTww7ug8YaMGPXG/6TstCSE8Axj4PO2dBT6AKEc9c6NWPp/chT6Hj/E+queyP3Wl3D8G\r\nSlU/dpFQPtOkiD2fCTY+vUBaPtYpqj0o2XA9NNrJPR6LSD0q8CA9EqumPCW5ozwdvJs8bvAtPGpK\r\nyTvs5v87RuqVO/g6DTwYgv86b5dCO5/Mxjv2t3Y72FlJOwKV/zs15AM9OLN5PDguqDpYCUA7bLiz\r\nOmLwPTtTni47BhRPOwidJjvXnhU7OLSqO2uZDzsENAA8mR6cPP2Ruzyuwes75FK6OgSCljr0tKQ6\r\nbM1IOtDWCToMwE46+xwXOm8GrDnyHzY51oilOnD3zDrQyIE68ls7OZR/HzqzfqU5au7dOa26szmk\r\ny7Q4G57ROTq+UjmOGiA5XskIOfyXBzmOxio59vE9OX4fQDnGVfU4+Fv6OCad9Tj2Bvg4cAr3OAY2\r\nCzlGnO441lLwOEQoBDkuQeA4K4EQOVaz5Tjwf/o4kybuOLUiuDiYY/Y43CoKOYXe5DjC9gM5ej7z\r\nONWxAzkLGAE5pLzjOGU09DjMvPg4RsfmOF7A4jjiFOs4I3rbOFlr0jhTNeo4zCfSOBzm3zhs69A4\r\n7AbrON69yjhz/to499XGOEmf5jj5zuE495HjOGo0zzjInM04iATQOMR1vjhCn9845ivZOIgawjhu\r\n2NE46re1OAQ6yTi+ANA4FrjTOA2N1jg7d8E44ArYOOat0zhGWLU4bj6+OKz8tzj6y744/M+0OJfz\r\nlTjH78k4paOaOIZByjhuxME44x2/OHC83ji4vbE4/pWuOHkaqTguYKE4uz68ONIf7zjqPbY4/SKa\r\nOFT1oTjExZQ4wLXOOCWvtjgb5544yFOqOEdMszi/k9E4HhuzOLdVnzjLbpU4PN+uOKs9rTillq04\r\nLQyVOL91ojhkaZg4CXShOCq3wzhFK5k4PKJvOJv21zhCGZk4dQW8OB7DljjY36g4bZSbOH+3ojg5\r\nTNg4xUSZOJRHhjgCIZk4inWIOP4UqTgzpZU40gitOFXVjzj45pk4/qmSOHvVjjg/bpM4kECQOI2G\r\nnjj5lJM4F82CONsFhjgkt5g4cgOGOCgakzhQvnE4cNGPOI0UiDjMIJA4Yp+IOI7mnzhtEpY4CkSQ\r\nOC1EkjgceZI4jXN2OFxmiTjNu4U4TO6RODzyezglsYc4UmBzOMRAhji2RJA4HlaFOM0pjDiAEIs4\r\nJk2VOL3PkDiVXok4seaPOEFwjDjqhXc4BVOFOA7TdTgEl4A4o1mEOCx3dzhOr4M48jNzOKD0gDgE\r\nRm04hnGMOKrehTgUfXc4pkNwOGjthjiCcmk4FfFgOGxshDiGynY4TKNqOOY6hjg7Smw4ccSDOHhW\r\nbDj8Goc4KW1cOK3YhTjo84U4zrRvOIzbWjgyI244gAJyODC9ajgGzXA4tO1QODQ0aDiH2HU4rYlM\r\nONY4XTjNM184j1ZGOBL3SzjKznY4CjlJODt3UTiY0UM4Y3VPOEgNajh6THk4X5h9ON0OVDiNnUo4\r\n4mFNOF56UTgO5V84IKdPOP76WDiC/Vc4D/hqOFy1QzhEZ1k4BhpaODSxZTjNxFc427VeOKPacTgD\r\nMUU4VL9SOAB3UDiKqE049TNaOE7ZXTixSkc48IhdOEbYPjj+VU84q9RYOKpoXDjgA0I4FQhKOG5u\r\nPzgCjEw4kL5GOGqGVji6ulQ4ttdJOKSWLTgi5WY4LPhDOOCoSThQHD84anI8OEL/Kjh4YEU4TkxT\r\nOI4XKDgMFz04qsxWOAJGOzgzAj44/hc7OMNiOzjx4js49WUzOJQrYDhpgTo4yVgwOJcEOzj/xTg4\r\n/kI9OAwdSTi2+i84vU00OLujKzhkOzk4+qwzOL9EVDiWNTo45YYvOOBQGzgoHic4/YBRODZ6Sjgj\r\nbjQ4pmNFONg6LjjMlTw4gQQtOP0bRTgb0Dc4mZg3OHcHSzgcpz44mDc5OFg0LDjOFS04h7EtOGCB\r\nNzic/yo4GEI9OI/TLTiQ0yw4XoIjOPszMjhYAEI4bg0hODIoJjhosis4KjQ+OGTrMzht8yo4YeIw\r\nODAQITgKdiU4rEkwOJi3Ozjcdx04ISEbOJh2Izijjyw4OhcmOHRFITgT6xU4kdQxOLxbHTgDbTY4\r\ntIQVOI9RMzhPqTU4TbgiOE4fLjgl8io44ncnOJyyLDgpNSE4iXY2OGpDJzhixSQ4kEUoOPWnLzjj\r\n/iM4kIEZOM8MJThE4B04TEw2OOT7PDgc9T0433gmOMP8Hjj0EAw4YNEwOETuKTiAGS04dxAQODKg\r\nITiiaTE4Z885OPzGHzgn9x44ndYcOABiJjjU2Cc4sW0zOBN/IDimiAo4sCUiOANqKTgw8Rc4yaIW\r\nOG9NFji4/BI4B6QQONQZGjhD0BQ47nokOJ8bGThOwBk4pocWOEoyETiTCxE4Yq0cOEeyIzi9OBM4\r\nv/YnOOyEHDidDBI4IbgYOJR4Ejh+wTM4MZMVOCuFEjjYkxw407sLOGo0AzhY0BE4p0olOFrP+Dfs\r\nYyc4+0YTOOs6DDiEVhQ4YKYUOHAJEzgJSBo4QgMTOINHHjgn7Ck4FKQnOBl3Czhg0Os3cCsAOD5G\r\nHzjI5g84n9kWOFVsFjhEJw84vnkbOCJpFDiL6A84XJsPOJBwHDjEhhs4T9ciOPssETgwpx04tgIX\r\nOLg4CjgjFiI4RsYXOKX/DjiMPxk4ROMROGsJFTi3wCM48s4hOFQWITgIBQs4VZsEOHH0Djg3/SM4\r\nKg4VODbaHDgTsAo4FWoIOOeDAziPNxg4QzcPOJfCBzgo2/k3bjsRONqXGzhUVxs4NMkROMs/Fzjr\r\nuA84DyIIOO6ODzg7PQg4exQUOO2RDTgEVBA4088BOLd9BDhDowQ4YvEOONmgBTjauAM4KtYGONbq\r\nFDjISQM4YRT9N+0BLDh5Bgw4bpMLOHstAjj4VAQ4nODnNySVIzg4hBA4taoQOMpRFDjFDgI4hG0G\r\nOAK96De7EO833kcIONhN/zeCT/E3cfUMOFF4JDhMPxQ4ZhALOM1GBzgaZQU44rwBOG0lBzh2Hhc4\r\nCroSOKcrDDgpVAo4brsKOLOWATjnIOo3e17vNxi0DTj1lQw4RUL2N4LB/zcyQPw38aXdN8/zDjja\r\nOg44Bf3tN3e0HTgQzg84oIoCOOyh8Teynvs3bz0COGqZAzigmgk4CRQOOPU07jdG3hM4En3uN/Nj\r\n+DcfcxE41rT5N+q0BDgwLgI4vlnzN2aP6DfMYPI3Z6oMOMwxBThY3v03/AMVOHcgBjjlvRE4uYf5\r\nN1/wFjhXJA84qzUNOPPyADhsFRQ4Tp0FOCjyDDhBdRE4uG0MOB7QAjh+9wI43kwIOCWj9zdtDgA4\r\ntCElOI+BDjidJew3mCT7N/HSAjinkQI4PQkEOEdlHTgv2Rg4PKHaN9Ux+TfkohU49zTvN+crATiS\r\n4eQ3iv0AOBn7+jcaav43PFACOPky8Dfft/w3zHDfN2YC/Df3EAs4BdAMOCkKDDjLBPE3fz7gN6G9\r\nDziqFw84DDj4N0Ce/jdwWAo48wHhN0D52zcaN/s3afLyN8KwEjhVGOA3iy4ROCK9BDiyzww4/nEH\r\nOOZw+jfUyvA3tmD7N6Xn3Tf9JxE4GYMVODMjATips+w3BXIGOMpaFjjlxOk3KAXnN2sV6jeISwk4\r\neJsTOKJV9zenSvU3byUJODme4TdgQeI3LZjvNzpo7DdF7f03yXX7N+XTCzi0ZO03gdLiNwtmFDhF\r\nmAE4BVfVN+n+9DczhQY4P2fgN3XV8zfV7vI3JscEOGgpBDjdGwA4V8TzN02xBjhTqAA4NMTcN0+x\r\n7zeS5Ok3ZloJOD9T+Dd1gss3YWIIOB4mATiE1f83HCkROFN/9jeGFgo4W5AROJdhAThP8wg49MYJ\r\nOIRx8Df7jeo3cS7iN9evDDh4MAw4wvnpN4i68zet/e43XgwEOE+c8TfyVxg4ApsCOACBDjiVgUQ/\r\nu1qRP4SYEj/VeP0/H2rrQK/GQEJd36NBjvCEQE0BMEA0w+w/OpCkP7DtbT9qdL0+QdJXP1ZZdD8y\r\nBn8/7PIDP12wCj+AH40+obKKPkTTjT7+66Y+/jQUP5cQRT9JZAdApD7aPyEe6z7F8oA/cd/nP5yp\r\nDUFrY9ZBFswGQiPmdEJbWspBjVAWQreYRUH2o7I/Cx6bPyYZDUBEGGk/EVlBP9VPGkBIL51AKo1H\r\nQO9SPD8yRJE/7kLLP10ynkDEc8FA6MXKQHFRskBssmtAhY2HQCj4IEDDAsw/4UXQPhy6jz+4iYQ+\r\nMJ5GP5spoz4gbQk/bJDDPr6+lT6oHYA/69dOQDxXh0CAp9NA3K9IQX6MLUGmHcVAbGjkP3myVD+0\r\n/GlAlCPHQIqutj/FXwZAZPWOPgS7NT7yiR8/YCcEQOzm6z9MN6s+nfFBPhOUzT7oZ1pAXiy0Ph9b\r\nCz5rm7I+MknvPmr2AT9EjEU+bFmIPtISgD4Y33w9LjgtPnLpwj2ox8Y96KL2PS7CqT0rfBU9aKYw\r\nPXiJgT7Cnus8OgYOPY7p4j1PGYk+n4dFPuQtwD2NXhY+HwAzP8ed+z/aQK8/d48cP5u56z5Uvxo+\r\nkLiePSYfRT78QQA+g9n8PTSvKT88FTY/OCABP6NgVT8A/AI/U2czPntQgD0EkPA9NZWDPXJZJT1A\r\nNSg9Ge6DPIg8kTxUtkw83rCHPCyIujwyTiI9tsjbPGuFZz0iiHk8sA+7PDlUAD2YB5Y8fUdqPC6C\r\nYz4H4/Q9LoKYPvRagD4EfS0+1+2nPZJ9PD3uNxU93McHPXzSqTxg3hY98sFqPdFRyTz1+bw8gqsZ\r\nPUeFdj0ztBA9nj7wPCKhozwKZD89hnfzPc6ivD07IXA9NuqQPXEUAz0O2pQ9PpJAPrIZgj5qVT8/\r\nVzsYP4Pe4T7YmKs+nUCCPmuunj0KXVE+9ScTP9qPHD8GEWU/hDERPwnmJD/6G7U+8jMIPgCZTj2w\r\njTI8cSujPEFE/zyu8T49c7uDPBvyrDzisGU8A/HLPJtfKj5BvQU+xHhOPlR/wj6gr1s/lh7PP/CN\r\noj/8ZwI/xlY/Ptg0TD+SMRE/JxxaPpje3z3BqBM+zEOKPVodmz0AWbo9lDCMPpIXpj7qb7w9b/rB\r\nPfLmvz3tsGw/HdGiP//eej9BIkM/Y+2LPhp0KD5s9Sw+UA8JPgqJhj3XDSM+K7BePf48tz7DtOQ/\r\n1pcWQFqypT/W8Bw/PKUyP6dP8j4agKQ+KndQPgEHij0kNRY9xdPBPcLkrzwsMzI+I1uZPp4IXD6K\r\npgo/si1EP1hvdD4MkQI+J4QRPVTedTygR+o8vRTePPNJbj0wQ0Y9EMljPYT0ZT0jkfo9iuHuPUkN\r\nkj1GBRM99z2OPAIOpjsHMqk8go0IPf5t5j32m9E+HfZHP93NRj8Eblw/oO6lPyDKsD+7ooQ/KqEE\r\nP27mMj87Krs+CHdhPkWOzT3sz7k8d7fyPL5xbTxRtuw8xzwVPtlhGT/AhIM/veizPtIWnT5COxY9\r\n5XeRPDDu6DxhowY9usDpOy0JITzQb/g8HZEFPvJHRz3loFY+ArWFPut08T6T6rI/HsbcPztCVT8I\r\neVA+WxCIPbgCNj7Xelo+Yk+qPYf1cD1EfMk9oGdIPS6pID0Sq6Y8JbmjPB28mzxu8C08WYjLO+zm\r\n/ztG6pU7BVcNPEeVADtvl0I7n8zGO/a3djvYWUk7ApX/O0a1Az04s3k8OC6oOlgJQDtsuLM6YvA9\r\nO1OeLjvXSU87CJ0mOyPbFjusnKs7cjIPO75P/ztrHJw8Kvu7PAHN6zvkUro6BIKWOvS0pDpszUg6\r\n0NYJOgzATjr7HBc6bwasOa0tMDnWiKU6cPfMOtDIgTryWzs5klcgOrN+pTngCds5rbqzOaTLtDg/\r\nvtU5juhOOXfNIjkyUgo5p+8MOT5VJzk6aEI5XMhBOdLX9zhAtPo4nOD/ODCv9zg4NPc40ZcPObiQ\r\nBDlAAfg4FrMIOSQo3jjMegc5ANvnOCxOADkguPM4voG8OGqa6Ti3ngg5C/7ZOOVB+TjDGfs4EHsK\r\nOVir/jicM984ZG34OIEZ9zhMIuM4bJ/sOKW09jhwe9U4VubEOPP85zgB/NY45YrbONBgzzgaRuk4\r\njQTHOKJZ3Dgm/8M4V9naOOs53Dj6beI4aELXOJY5zzhug9A4/SDAOFxA2jhoG9g4dtvKOALd1Dhi\r\nNbE44fPGOGxKzjjbWs84pCjdOMU/yTg0Kc842tLQOPburTgem7o4s6qqOGk0wTiYZsE4bqiUOM13\r\nvjhWdZs4JffNOBZDtzjezLs44uLaOG0irTghwaI4DdWrOMysnjh7Hbk4dEbzOKKcujgJJpo4WeKe\r\nOOZNkzhkh8g4qXKoOPbxnzjaTqg4NSSiOOaouDg2c7E4xiqtOEm2oDi0D8k4acOsOF0UojhM15M4\r\n5ai2OEl1nzhdy6I4y7DDOPeymTj8/4s4ISu7OJudmzh0D784JfKGOKAomzj5m5s4/MadOD7n1zh1\r\nt5448zuCOJEmmjhwmIU4xpeZOCLFiTiOU584gHqSONoMnDisnpI40U6UOKY1nDhC6I44CJObOI3v\r\nlTie34Y4BkWQOBR/lTgOZXA4qoaNOKQMgziJa5M4e+yAOEr2jzjNS4k4BhagODKZjzi+OJQ4J/aR\r\nOPAGgzgAdXE4z7qNOG0HhzhP44o4kLd2OM0phDigl2o4jreGOJBbmDjSUIE4CPCDOADhhzhappI4\r\n0DuIOBDAgzg4eo84fQKEONVedjjPtIg4iyaDON0Pgji05YM4JpN3OB1+gjgmtm84gh6OOHHmeji8\r\nB4s4KnaHOF69eTidmW040vuDOLQgazhqj184so2COJC7dTiwOnA40LCDOJm4YTiUVnQ42CJ1OECn\r\nhTisxlk4KgWAOI73ejgF7mg41N1eOOikcTgkC2c4BKNpOFpraDg8mlM45OhmOCJ6eDgHmE44TYdu\r\nOGpfaTgOi0M4cA1YOAAkejjIbUA4dNBSOANwQjiooVs4iclfOK79ajg6ZXQ4mOVSOAYXSzgegGE4\r\nIDt1OIg6Yjhkz1g4aXBSOO7bVTjjiGc42F08OL7GWDgQaFU4h21TOKcJUTgTCmE4AqdoONDASDhl\r\ny1Q4hXZKODr2UTgkEWQ4srBkOHV7SzhPRXA4V3FPOK/qYjhAZ1U41o9aOBikVThy0Ec47ok9OBCu\r\nTDjBPkk48CdaONR+XTiC2VQ4K9QzOIXMXTha5Tw4tupSOOM/QDj9nTg42UkzODJNTDhDkFI4kNYl\r\nOM3UOjhkgF44P/s7OFF1QzgtjUU4RudGOKCYPDibHEA4AhJiOF1URDiKwS84PhA4OCbNLzi1AjE4\r\nrlZDOHh9ODgMnjQ4dF4qODwfODgtRTQ4hClWOLeMMjj5OkM4zYQsOM30Ojh6Yks4rzRROPn9OziJ\r\n9Us4qng2OBQJOThq+jA4BgBIOBYYMjjBxjc4ph5LOATLOji6Ozk4ObcnOJS0LTgvBSc4pm8qOD6f\r\nMzgzj0c4WLkvOLTkMDhUTCE4ibs8OGbpPTgDqiU4HqQvOKx+KziNizI4JkQlOITLMTjl4C04pZgk\r\nOAKBJjgO8Dc4png3OBZjGThYeh84yfMpOF/jKzjKJSg4FU8fOIr1GzinWTw41sgcOOjmNThQvho4\r\nvrkvOOM3Nzj1LiE4caMyOO72JDgPjyU4hscpOJKFFji+9z44flwmOCyzIjjErSI4zL4bOF4aIDjK\r\n7SQ490kgOMrnKDgnwEg47oU9OArPNjjGOy848ZkhOJCFAjh34CY4XH0xOK4IMzjyWQ84qMsbOE8M\r\nOzieNTk4RNQVOJJhIjjL4BU4jlsmOOU9IjiFCDs48d8qODiTEzhlsig4Rv4tOJi8FDg0QxY40OQP\r\nOEUCEziVDxI4TjUVOJLmDzjqlhs4OsQWOCzFEjgctA44X9oPOJW3CDhl1BA4a9McOHCODjj1GSc4\r\nPA4SOLHBGziLbRY4itMTOMBlODit+x44q4IbOFTCHTjyjxA4lUMDOD2/DDiiYhc41JD8N6B6NDgy\r\nlSc4NsgPOIZGETi8ogA4Z7QOOLvpITgJiRE4khwWOHogGThdoxs4WpX5N4Wa9Td+t/836CcnODaA\r\nCDh0HhI4ct4kOPJoDjiIgyE4bLoVOL4rCjhdAgc4mvUcOH2NGThROQ84ujQTOBQhKTh60yA4MTcN\r\nOKt+Izh2GSM4x0IVOATHGjh2/AY4iQYVOMPzIDgE7hM4U0UcOG7HADgR6A448I8ROEVkEzgRDw44\r\ngGcmODybFjgjqgs45gUDOAxKBziYWwk4wn30NwMV9DcdURc4XGgXOJLMDjheNg04YqoXOGN1Fjgv\r\nZR04+0ETODL1Bzgt2BM4qMIAOEqMBTg7z+437jkDOPYuADhP1RM4QhwHOEqCCDibFwo45DgLOFHH\r\nBTiMPvM30M4vODnbEzjpsA44c5j+N1mTBDh/Ae03+PggOOg2DjjHbAc4UJcbOKHsBDhmzQI4V2nl\r\nN1TD9jcg8P03BWb2N5BB8TeD5w04+TMeOIUvFTj0EAo4/RgDOBphCTgMqgE4x98IOEiTBzhNURs4\r\njlIWOLDkCDhAzPw3gRf+N+aA9Dck3fM3OKQNOC1qFzh4Jf03OEMDOPpFBDgX5uM31McPOGKUCTjw\r\nhOk3IcIbOBz1DTiH/Pk3KpPwN46t+zdO3Qg4eAj4N/TKAjiAcQ04bY3rNyxjEzjTJO83MQcHOPW7\r\nDDgiX+8350AKOJWwDTgUzgI4tRLlNzZNADi7K/43S73+NzYlBzhuvxU4ohcBOGwiEDhT6vo3U/wL\r\nOHFTBThJNRI4EM/3N4DNCzjDCes3rV4SOOuMGzg/qBM456IMOBU95zfEBAI4J8X+N4wxBjgAsx44\r\nHvwXOIoR8DfZ2go4JLIGOBsL/je4hQk49fcOOAwAFzhWEQM4NP4IOGusCDgCjO036QnqNx195Tcb\r\nKfY3ZLAAOE7f9zdRbvs3Dd4AOKkgCjgVtfY3XBb3NxePFDihPhE4s3MCOL4z5jccY9s3evkKONSY\r\nDzhByes3BKAEOLkmDzjLR/k3qHjZN9Am8TfWQPg3SbAdOD+K8zd63hk4i0YJOCZA+zfKBfM3AbP3\r\nNzSt/jdgzPc3XRHMN13WATgrxQw4mdgDOPA9BzgMGQw4E+UGOMl96zeTDP039TvkN/aoATiq9Bo4\r\nfDQDOFq77Tfw8QY4nj/3N/oM7TfcNeU39lznNwH7CjiuPf43YqAAOGg14zdCOtQ3zukROHDkDTh8\r\nb943cDT4N9at/Te2u9k3srfoNwd67jelVgo4hiwMOF989jeTr+I3mu7uN87AADhVF+w3zFT8N+z+\r\n7DexMQg49Y3xN/I71TdzpgY4qwP7NwKD+TcIWwg4KIIGOF6pCDi3vAk4A139Nym8DzjCRQU4izT/\r\nN4HG/zfFRN03UvP8N09sDDh8+/c3A6jsN4cg+zfcYPk3yiD1NypmDziaQwA4ABAWOA==",
                            "noiseTrainingType" : "default"
                          }
                        }
                    ],
                    "start" : 4495,
                    "duration" : 20,
                    "mediaStart" : 11448,
                    "mediaDuration" : 20,
                    "scalar" : 1,
                    "metadata" : {
                      "WinSubProjectDisplayName" : "",
                      "clipSpeedAttribute" : false
                    },
                    "animationTracks" : {

                    }
                  },
                  {
                    "id" : 120,
                    "_type" : "StitchedMedia",
                    "minMediaStart" : 0,
                    "attributes" : {
                      "ident" : "tower-columns-02",
                      "gain" : 1.0,
                      "mixToMono" : false
                    },
                    "parameters" : {
                      "volume" : 1.0,
                      "cursorOpacity" : 1.0,
                      "cursorScale" : 1.0
                    },
                    "medias" : [
                        {
                          "id" : 121,
                          "_type" : "AMFile",
                          "src" : 2,
                          "trackNumber" : 1,
                          "attributes" : {
                            "ident" : "Rec 02-03-20_008",
                            "sampleRate" : 44100,
                            "bitDepth" : 16,
                            "gain" : 1.0,
                            "mixToMono" : false
                          },
                            "channelNumber" : "0,1",
                          "effects" : [

                          ],
                          "start" : 0,
                          "duration" : 10292,
                          "mediaStart" : 0,
                          "mediaDuration" : 10292,
                          "scalar" : 1,
                          "metadata" : {
                            "WinSubProjectDisplayName" : "",
                            "clipSpeedAttribute" : false
                          },
                          "animationTracks" : {

                          }
                        },
                        {
                          "id" : 122,
                          "_type" : "AMFile",
                          "src" : 2,
                          "trackNumber" : 1,
                          "attributes" : {
                            "ident" : "Rec 02-03-20_008",
                            "sampleRate" : 44100,
                            "bitDepth" : 16,
                            "gain" : 1.0,
                            "mixToMono" : false
                          },
                            "channelNumber" : "0,1",
                          "effects" : [

                          ],
                          "start" : 10292,
                          "duration" : 36,
                          "mediaStart" : 10326,
                          "mediaDuration" : 36,
                          "scalar" : 1,
                          "metadata" : {
                            "WinSubProjectDisplayName" : "",
                            "clipSpeedAttribute" : false
                          },
                          "animationTracks" : {

                          }
                        },
                        {
                          "id" : 123,
                          "_type" : "AMFile",
                          "src" : 2,
                          "trackNumber" : 1,
                          "attributes" : {
                            "ident" : "Rec 02-03-20_008",
                            "sampleRate" : 44100,
                            "bitDepth" : 16,
                            "gain" : 1.0,
                            "mixToMono" : false
                          },
                            "channelNumber" : "0,1",
                          "effects" : [

                          ],
                          "start" : 10328,
                          "duration" : 6867,
                          "mediaStart" : 10429,
                          "mediaDuration" : 6867,
                          "scalar" : 1,
                          "metadata" : {
                            "WinSubProjectDisplayName" : "",
                            "clipSpeedAttribute" : false
                          },
                          "animationTracks" : {

                          }
                        }
                    ],
                    "effects" : [
                        {
                          "effectName" : "NoiseReduction",
                          "category" : "categoryAudioEffects",
                          "parameters" : {
                            "denoiserAmount" : 20.0,
                            "denoiserThreshold" : 0.0,
                            "noiseProfile" : "nZZEP5RikT+EmBI/KnP9Pwpb60CvxkBCXd+jQY7whEBNATBANMPsP4KGpD+w7W0/anS9Pp7DVz9W\r\nWXQ/MgZ/P+zyAz9dsAo/gB+NPqGyij5E040+/uumPv40FD+XEEU/tV4HQPJC2j8hHus+xuOAP6zl\r\n5z90pQ1Ba2PWQS3MBkIj5nRCW1rKQY1QFkK3mEVB9qOyPwsemz8mGQ1AijZpPxFZQT/VTxpASC+d\r\nQCqNR0DvUjw/MkSRP+5Cyz9dMp5AxHPBQOjFykBxUbJAbLJrQIWNh0Ao+CBAwwLMP+FF0D4cuo8/\r\nuImEPjCeRj+bKaM+IG0JP2yQwz6tn5U+qB2AP+vXTkA8V4dAgKfTQNyvSEF+jC1Bph3FQGxo5D95\r\nslQ/tPxpQJQjx0CKrrY/xV8GQGT1jj4EuzU+8okfP2AnBEDs5us/TDerPp3xQT4TlM0+6GdaQF4s\r\ntD4fWws+a5uyPjJJ7z5q9gE/RIxFPmxZiD7SEoA+GN98PS44LT5y6cI9Dw/HPfSD9j1k3Kk9K3wV\r\nPWimMD14iYE+wp7rPDoGDj2O6eI9TxmJPp+HRT7kLcA9jV4WPh8AMz/Hnfs/2kCvP3ePHD+bues+\r\nVL8aPpC4nj0mH0U+/EEAPoPZ/D00ryk/PBU2PzggAT+jYFU/APwCP1NnMz57UIA9BJDwPTWVgz1y\r\nWSU99nonPRB7hDwE15A8VLZMPN6whzwsiLo8Mk4iPbbI2zxrhWc9Ioh5PLAPuzyowQA9mAeWPH1H\r\najwugmM+B+P0PS6CmD70WoA+BH0tPtftpz2SfTw97jcVPdzHBz180qk8YN4WPfLBaj3RUck89fm8\r\nPMZHGj1HhXY9M7QQPZ4+8DwioaM8CmQ/PYZ38z3Oorw9OyFwPTbqkD1xFAM9DtqUPT6SQD6yGYI+\r\nalU/P1c7GD+D3uE+2JirPp1Agj5rrp49Cl1RPvUnEz/ajxw/BhFlP0VGET/D7CQ/+xu1PvIzCD4g\r\nrE49sI0yPHErozxBRP88rvE+PTLyhDyog6084rBlPAPxyzybXyo+Qb0FPsR4Tj5Uf8I+oK9bP5Ye\r\nzz/wjaI//GcCP8ZWPz7YNEw/kjERPyccWj6Y3t89wagTPsxDij1aHZs9I4i6PYZBjD5ICaY+/o68\r\nPfDUwT3y5r89C71sP+LYoj+i9no/pkJDP2Ptiz5ELyg+r/QsPo0aCT4KiYY91w0jPiuwXj3+PLc+\r\nw7TkP9aXFkBasqU/1vAcPzylMj+nT/I+GoCkPip3UD598Ik9NBIWPZ7GwT3C5K88LDMyPiNbmT6e\r\nCFw+Ct0KP8c0RD8weHQ+Y6UCPieEET0Vz3Y8OojrPNj93DzxLm49MENGPfb+Yz1w+2U9sSX6PYrh\r\n7j1JDZI9RgUTPeLDjjwCDqY7R86oPIKNCD3+beY99pvRPh32Rz/dzUY/BG5cP6DupT8gyrA/u6KE\r\nPyqhBD+k3zI/Oyq7Pgh3YT5Fjs09LRq6PLg48zxQA248aRXtPCX1FD5rixk/9oCDP1vysz5lIp0+\r\nYIUWPeV3kTww7ug8YaMGPXG/6TstCSE8Axj4PO2dBT6AKEc9c6NWPp/chT6Hj/E+queyP3Wl3D8G\r\nSlU/dpFQPtOkiD2fCTY+vUBaPtYpqj0o2XA9NNrJPR6LSD0q8CA9EqumPCW5ozwdvJs8bvAtPGpK\r\nyTvs5v87RuqVO/g6DTwYgv86b5dCO5/Mxjv2t3Y72FlJOwKV/zs15AM9OLN5PDguqDpYCUA7bLiz\r\nOmLwPTtTni47BhRPOwidJjvXnhU7OLSqO2uZDzsENAA8mR6cPP2Ruzyuwes75FK6OgSCljr0tKQ6\r\nbM1IOtDWCToMwE46+xwXOm8GrDnyHzY51oilOnD3zDrQyIE68ls7OZR/HzqzfqU5au7dOa26szmk\r\ny7Q4G57ROTq+UjmOGiA5XskIOfyXBzmOxio59vE9OX4fQDnGVfU4+Fv6OCad9Tj2Bvg4cAr3OAY2\r\nCzlGnO441lLwOEQoBDkuQeA4K4EQOVaz5Tjwf/o4kybuOLUiuDiYY/Y43CoKOYXe5DjC9gM5ej7z\r\nONWxAzkLGAE5pLzjOGU09DjMvPg4RsfmOF7A4jjiFOs4I3rbOFlr0jhTNeo4zCfSOBzm3zhs69A4\r\n7AbrON69yjhz/to499XGOEmf5jj5zuE495HjOGo0zzjInM04iATQOMR1vjhCn9845ivZOIgawjhu\r\n2NE46re1OAQ6yTi+ANA4FrjTOA2N1jg7d8E44ArYOOat0zhGWLU4bj6+OKz8tzj6y744/M+0OJfz\r\nlTjH78k4paOaOIZByjhuxME44x2/OHC83ji4vbE4/pWuOHkaqTguYKE4uz68ONIf7zjqPbY4/SKa\r\nOFT1oTjExZQ4wLXOOCWvtjgb5544yFOqOEdMszi/k9E4HhuzOLdVnzjLbpU4PN+uOKs9rTillq04\r\nLQyVOL91ojhkaZg4CXShOCq3wzhFK5k4PKJvOJv21zhCGZk4dQW8OB7DljjY36g4bZSbOH+3ojg5\r\nTNg4xUSZOJRHhjgCIZk4inWIOP4UqTgzpZU40gitOFXVjzj45pk4/qmSOHvVjjg/bpM4kECQOI2G\r\nnjj5lJM4F82CONsFhjgkt5g4cgOGOCgakzhQvnE4cNGPOI0UiDjMIJA4Yp+IOI7mnzhtEpY4CkSQ\r\nOC1EkjgceZI4jXN2OFxmiTjNu4U4TO6RODzyezglsYc4UmBzOMRAhji2RJA4HlaFOM0pjDiAEIs4\r\nJk2VOL3PkDiVXok4seaPOEFwjDjqhXc4BVOFOA7TdTgEl4A4o1mEOCx3dzhOr4M48jNzOKD0gDgE\r\nRm04hnGMOKrehTgUfXc4pkNwOGjthjiCcmk4FfFgOGxshDiGynY4TKNqOOY6hjg7Smw4ccSDOHhW\r\nbDj8Goc4KW1cOK3YhTjo84U4zrRvOIzbWjgyI244gAJyODC9ajgGzXA4tO1QODQ0aDiH2HU4rYlM\r\nONY4XTjNM184j1ZGOBL3SzjKznY4CjlJODt3UTiY0UM4Y3VPOEgNajh6THk4X5h9ON0OVDiNnUo4\r\n4mFNOF56UTgO5V84IKdPOP76WDiC/Vc4D/hqOFy1QzhEZ1k4BhpaODSxZTjNxFc427VeOKPacTgD\r\nMUU4VL9SOAB3UDiKqE049TNaOE7ZXTixSkc48IhdOEbYPjj+VU84q9RYOKpoXDjgA0I4FQhKOG5u\r\nPzgCjEw4kL5GOGqGVji6ulQ4ttdJOKSWLTgi5WY4LPhDOOCoSThQHD84anI8OEL/Kjh4YEU4TkxT\r\nOI4XKDgMFz04qsxWOAJGOzgzAj44/hc7OMNiOzjx4js49WUzOJQrYDhpgTo4yVgwOJcEOzj/xTg4\r\n/kI9OAwdSTi2+i84vU00OLujKzhkOzk4+qwzOL9EVDiWNTo45YYvOOBQGzgoHic4/YBRODZ6Sjgj\r\nbjQ4pmNFONg6LjjMlTw4gQQtOP0bRTgb0Dc4mZg3OHcHSzgcpz44mDc5OFg0LDjOFS04h7EtOGCB\r\nNzic/yo4GEI9OI/TLTiQ0yw4XoIjOPszMjhYAEI4bg0hODIoJjhosis4KjQ+OGTrMzht8yo4YeIw\r\nODAQITgKdiU4rEkwOJi3Ozjcdx04ISEbOJh2Izijjyw4OhcmOHRFITgT6xU4kdQxOLxbHTgDbTY4\r\ntIQVOI9RMzhPqTU4TbgiOE4fLjgl8io44ncnOJyyLDgpNSE4iXY2OGpDJzhixSQ4kEUoOPWnLzjj\r\n/iM4kIEZOM8MJThE4B04TEw2OOT7PDgc9T0433gmOMP8Hjj0EAw4YNEwOETuKTiAGS04dxAQODKg\r\nITiiaTE4Z885OPzGHzgn9x44ndYcOABiJjjU2Cc4sW0zOBN/IDimiAo4sCUiOANqKTgw8Rc4yaIW\r\nOG9NFji4/BI4B6QQONQZGjhD0BQ47nokOJ8bGThOwBk4pocWOEoyETiTCxE4Yq0cOEeyIzi9OBM4\r\nv/YnOOyEHDidDBI4IbgYOJR4Ejh+wTM4MZMVOCuFEjjYkxw407sLOGo0AzhY0BE4p0olOFrP+Dfs\r\nYyc4+0YTOOs6DDiEVhQ4YKYUOHAJEzgJSBo4QgMTOINHHjgn7Ck4FKQnOBl3Czhg0Os3cCsAOD5G\r\nHzjI5g84n9kWOFVsFjhEJw84vnkbOCJpFDiL6A84XJsPOJBwHDjEhhs4T9ciOPssETgwpx04tgIX\r\nOLg4CjgjFiI4RsYXOKX/DjiMPxk4ROMROGsJFTi3wCM48s4hOFQWITgIBQs4VZsEOHH0Djg3/SM4\r\nKg4VODbaHDgTsAo4FWoIOOeDAziPNxg4QzcPOJfCBzgo2/k3bjsRONqXGzhUVxs4NMkROMs/Fzjr\r\nuA84DyIIOO6ODzg7PQg4exQUOO2RDTgEVBA4088BOLd9BDhDowQ4YvEOONmgBTjauAM4KtYGONbq\r\nFDjISQM4YRT9N+0BLDh5Bgw4bpMLOHstAjj4VAQ4nODnNySVIzg4hBA4taoQOMpRFDjFDgI4hG0G\r\nOAK96De7EO833kcIONhN/zeCT/E3cfUMOFF4JDhMPxQ4ZhALOM1GBzgaZQU44rwBOG0lBzh2Hhc4\r\nCroSOKcrDDgpVAo4brsKOLOWATjnIOo3e17vNxi0DTj1lQw4RUL2N4LB/zcyQPw38aXdN8/zDjja\r\nOg44Bf3tN3e0HTgQzg84oIoCOOyh8Teynvs3bz0COGqZAzigmgk4CRQOOPU07jdG3hM4En3uN/Nj\r\n+DcfcxE41rT5N+q0BDgwLgI4vlnzN2aP6DfMYPI3Z6oMOMwxBThY3v03/AMVOHcgBjjlvRE4uYf5\r\nN1/wFjhXJA84qzUNOPPyADhsFRQ4Tp0FOCjyDDhBdRE4uG0MOB7QAjh+9wI43kwIOCWj9zdtDgA4\r\ntCElOI+BDjidJew3mCT7N/HSAjinkQI4PQkEOEdlHTgv2Rg4PKHaN9Ux+TfkohU49zTvN+crATiS\r\n4eQ3iv0AOBn7+jcaav43PFACOPky8Dfft/w3zHDfN2YC/Df3EAs4BdAMOCkKDDjLBPE3fz7gN6G9\r\nDziqFw84DDj4N0Ce/jdwWAo48wHhN0D52zcaN/s3afLyN8KwEjhVGOA3iy4ROCK9BDiyzww4/nEH\r\nOOZw+jfUyvA3tmD7N6Xn3Tf9JxE4GYMVODMjATips+w3BXIGOMpaFjjlxOk3KAXnN2sV6jeISwk4\r\neJsTOKJV9zenSvU3byUJODme4TdgQeI3LZjvNzpo7DdF7f03yXX7N+XTCzi0ZO03gdLiNwtmFDhF\r\nmAE4BVfVN+n+9DczhQY4P2fgN3XV8zfV7vI3JscEOGgpBDjdGwA4V8TzN02xBjhTqAA4NMTcN0+x\r\n7zeS5Ok3ZloJOD9T+Dd1gss3YWIIOB4mATiE1f83HCkROFN/9jeGFgo4W5AROJdhAThP8wg49MYJ\r\nOIRx8Df7jeo3cS7iN9evDDh4MAw4wvnpN4i68zet/e43XgwEOE+c8TfyVxg4ApsCOACBDjiVgUQ/\r\nu1qRP4SYEj/VeP0/H2rrQK/GQEJd36NBjvCEQE0BMEA0w+w/OpCkP7DtbT9qdL0+QdJXP1ZZdD8y\r\nBn8/7PIDP12wCj+AH40+obKKPkTTjT7+66Y+/jQUP5cQRT9JZAdApD7aPyEe6z7F8oA/cd/nP5yp\r\nDUFrY9ZBFswGQiPmdEJbWspBjVAWQreYRUH2o7I/Cx6bPyYZDUBEGGk/EVlBP9VPGkBIL51AKo1H\r\nQO9SPD8yRJE/7kLLP10ynkDEc8FA6MXKQHFRskBssmtAhY2HQCj4IEDDAsw/4UXQPhy6jz+4iYQ+\r\nMJ5GP5spoz4gbQk/bJDDPr6+lT6oHYA/69dOQDxXh0CAp9NA3K9IQX6MLUGmHcVAbGjkP3myVD+0\r\n/GlAlCPHQIqutj/FXwZAZPWOPgS7NT7yiR8/YCcEQOzm6z9MN6s+nfFBPhOUzT7oZ1pAXiy0Ph9b\r\nCz5rm7I+MknvPmr2AT9EjEU+bFmIPtISgD4Y33w9LjgtPnLpwj2ox8Y96KL2PS7CqT0rfBU9aKYw\r\nPXiJgT7Cnus8OgYOPY7p4j1PGYk+n4dFPuQtwD2NXhY+HwAzP8ed+z/aQK8/d48cP5u56z5Uvxo+\r\nkLiePSYfRT78QQA+g9n8PTSvKT88FTY/OCABP6NgVT8A/AI/U2czPntQgD0EkPA9NZWDPXJZJT1A\r\nNSg9Ge6DPIg8kTxUtkw83rCHPCyIujwyTiI9tsjbPGuFZz0iiHk8sA+7PDlUAD2YB5Y8fUdqPC6C\r\nYz4H4/Q9LoKYPvRagD4EfS0+1+2nPZJ9PD3uNxU93McHPXzSqTxg3hY98sFqPdFRyTz1+bw8gqsZ\r\nPUeFdj0ztBA9nj7wPCKhozwKZD89hnfzPc6ivD07IXA9NuqQPXEUAz0O2pQ9PpJAPrIZgj5qVT8/\r\nVzsYP4Pe4T7YmKs+nUCCPmuunj0KXVE+9ScTP9qPHD8GEWU/hDERPwnmJD/6G7U+8jMIPgCZTj2w\r\njTI8cSujPEFE/zyu8T49c7uDPBvyrDzisGU8A/HLPJtfKj5BvQU+xHhOPlR/wj6gr1s/lh7PP/CN\r\noj/8ZwI/xlY/Ptg0TD+SMRE/JxxaPpje3z3BqBM+zEOKPVodmz0AWbo9lDCMPpIXpj7qb7w9b/rB\r\nPfLmvz3tsGw/HdGiP//eej9BIkM/Y+2LPhp0KD5s9Sw+UA8JPgqJhj3XDSM+K7BePf48tz7DtOQ/\r\n1pcWQFqypT/W8Bw/PKUyP6dP8j4agKQ+KndQPgEHij0kNRY9xdPBPcLkrzwsMzI+I1uZPp4IXD6K\r\npgo/si1EP1hvdD4MkQI+J4QRPVTedTygR+o8vRTePPNJbj0wQ0Y9EMljPYT0ZT0jkfo9iuHuPUkN\r\nkj1GBRM99z2OPAIOpjsHMqk8go0IPf5t5j32m9E+HfZHP93NRj8Eblw/oO6lPyDKsD+7ooQ/KqEE\r\nP27mMj87Krs+CHdhPkWOzT3sz7k8d7fyPL5xbTxRtuw8xzwVPtlhGT/AhIM/veizPtIWnT5COxY9\r\n5XeRPDDu6DxhowY9usDpOy0JITzQb/g8HZEFPvJHRz3loFY+ArWFPut08T6T6rI/HsbcPztCVT8I\r\neVA+WxCIPbgCNj7Xelo+Yk+qPYf1cD1EfMk9oGdIPS6pID0Sq6Y8JbmjPB28mzxu8C08WYjLO+zm\r\n/ztG6pU7BVcNPEeVADtvl0I7n8zGO/a3djvYWUk7ApX/O0a1Az04s3k8OC6oOlgJQDtsuLM6YvA9\r\nO1OeLjvXSU87CJ0mOyPbFjusnKs7cjIPO75P/ztrHJw8Kvu7PAHN6zvkUro6BIKWOvS0pDpszUg6\r\n0NYJOgzATjr7HBc6bwasOa0tMDnWiKU6cPfMOtDIgTryWzs5klcgOrN+pTngCds5rbqzOaTLtDg/\r\nvtU5juhOOXfNIjkyUgo5p+8MOT5VJzk6aEI5XMhBOdLX9zhAtPo4nOD/ODCv9zg4NPc40ZcPObiQ\r\nBDlAAfg4FrMIOSQo3jjMegc5ANvnOCxOADkguPM4voG8OGqa6Ti3ngg5C/7ZOOVB+TjDGfs4EHsK\r\nOVir/jicM984ZG34OIEZ9zhMIuM4bJ/sOKW09jhwe9U4VubEOPP85zgB/NY45YrbONBgzzgaRuk4\r\njQTHOKJZ3Dgm/8M4V9naOOs53Dj6beI4aELXOJY5zzhug9A4/SDAOFxA2jhoG9g4dtvKOALd1Dhi\r\nNbE44fPGOGxKzjjbWs84pCjdOMU/yTg0Kc842tLQOPburTgem7o4s6qqOGk0wTiYZsE4bqiUOM13\r\nvjhWdZs4JffNOBZDtzjezLs44uLaOG0irTghwaI4DdWrOMysnjh7Hbk4dEbzOKKcujgJJpo4WeKe\r\nOOZNkzhkh8g4qXKoOPbxnzjaTqg4NSSiOOaouDg2c7E4xiqtOEm2oDi0D8k4acOsOF0UojhM15M4\r\n5ai2OEl1nzhdy6I4y7DDOPeymTj8/4s4ISu7OJudmzh0D784JfKGOKAomzj5m5s4/MadOD7n1zh1\r\nt5448zuCOJEmmjhwmIU4xpeZOCLFiTiOU584gHqSONoMnDisnpI40U6UOKY1nDhC6I44CJObOI3v\r\nlTie34Y4BkWQOBR/lTgOZXA4qoaNOKQMgziJa5M4e+yAOEr2jzjNS4k4BhagODKZjzi+OJQ4J/aR\r\nOPAGgzgAdXE4z7qNOG0HhzhP44o4kLd2OM0phDigl2o4jreGOJBbmDjSUIE4CPCDOADhhzhappI4\r\n0DuIOBDAgzg4eo84fQKEONVedjjPtIg4iyaDON0Pgji05YM4JpN3OB1+gjgmtm84gh6OOHHmeji8\r\nB4s4KnaHOF69eTidmW040vuDOLQgazhqj184so2COJC7dTiwOnA40LCDOJm4YTiUVnQ42CJ1OECn\r\nhTisxlk4KgWAOI73ejgF7mg41N1eOOikcTgkC2c4BKNpOFpraDg8mlM45OhmOCJ6eDgHmE44TYdu\r\nOGpfaTgOi0M4cA1YOAAkejjIbUA4dNBSOANwQjiooVs4iclfOK79ajg6ZXQ4mOVSOAYXSzgegGE4\r\nIDt1OIg6Yjhkz1g4aXBSOO7bVTjjiGc42F08OL7GWDgQaFU4h21TOKcJUTgTCmE4AqdoONDASDhl\r\ny1Q4hXZKODr2UTgkEWQ4srBkOHV7SzhPRXA4V3FPOK/qYjhAZ1U41o9aOBikVThy0Ec47ok9OBCu\r\nTDjBPkk48CdaONR+XTiC2VQ4K9QzOIXMXTha5Tw4tupSOOM/QDj9nTg42UkzODJNTDhDkFI4kNYl\r\nOM3UOjhkgF44P/s7OFF1QzgtjUU4RudGOKCYPDibHEA4AhJiOF1URDiKwS84PhA4OCbNLzi1AjE4\r\nrlZDOHh9ODgMnjQ4dF4qODwfODgtRTQ4hClWOLeMMjj5OkM4zYQsOM30Ojh6Yks4rzRROPn9OziJ\r\n9Us4qng2OBQJOThq+jA4BgBIOBYYMjjBxjc4ph5LOATLOji6Ozk4ObcnOJS0LTgvBSc4pm8qOD6f\r\nMzgzj0c4WLkvOLTkMDhUTCE4ibs8OGbpPTgDqiU4HqQvOKx+KziNizI4JkQlOITLMTjl4C04pZgk\r\nOAKBJjgO8Dc4png3OBZjGThYeh84yfMpOF/jKzjKJSg4FU8fOIr1GzinWTw41sgcOOjmNThQvho4\r\nvrkvOOM3Nzj1LiE4caMyOO72JDgPjyU4hscpOJKFFji+9z44flwmOCyzIjjErSI4zL4bOF4aIDjK\r\n7SQ490kgOMrnKDgnwEg47oU9OArPNjjGOy848ZkhOJCFAjh34CY4XH0xOK4IMzjyWQ84qMsbOE8M\r\nOzieNTk4RNQVOJJhIjjL4BU4jlsmOOU9IjiFCDs48d8qODiTEzhlsig4Rv4tOJi8FDg0QxY40OQP\r\nOEUCEziVDxI4TjUVOJLmDzjqlhs4OsQWOCzFEjgctA44X9oPOJW3CDhl1BA4a9McOHCODjj1GSc4\r\nPA4SOLHBGziLbRY4itMTOMBlODit+x44q4IbOFTCHTjyjxA4lUMDOD2/DDiiYhc41JD8N6B6NDgy\r\nlSc4NsgPOIZGETi8ogA4Z7QOOLvpITgJiRE4khwWOHogGThdoxs4WpX5N4Wa9Td+t/836CcnODaA\r\nCDh0HhI4ct4kOPJoDjiIgyE4bLoVOL4rCjhdAgc4mvUcOH2NGThROQ84ujQTOBQhKTh60yA4MTcN\r\nOKt+Izh2GSM4x0IVOATHGjh2/AY4iQYVOMPzIDgE7hM4U0UcOG7HADgR6A448I8ROEVkEzgRDw44\r\ngGcmODybFjgjqgs45gUDOAxKBziYWwk4wn30NwMV9DcdURc4XGgXOJLMDjheNg04YqoXOGN1Fjgv\r\nZR04+0ETODL1Bzgt2BM4qMIAOEqMBTg7z+437jkDOPYuADhP1RM4QhwHOEqCCDibFwo45DgLOFHH\r\nBTiMPvM30M4vODnbEzjpsA44c5j+N1mTBDh/Ae03+PggOOg2DjjHbAc4UJcbOKHsBDhmzQI4V2nl\r\nN1TD9jcg8P03BWb2N5BB8TeD5w04+TMeOIUvFTj0EAo4/RgDOBphCTgMqgE4x98IOEiTBzhNURs4\r\njlIWOLDkCDhAzPw3gRf+N+aA9Dck3fM3OKQNOC1qFzh4Jf03OEMDOPpFBDgX5uM31McPOGKUCTjw\r\nhOk3IcIbOBz1DTiH/Pk3KpPwN46t+zdO3Qg4eAj4N/TKAjiAcQ04bY3rNyxjEzjTJO83MQcHOPW7\r\nDDgiX+8350AKOJWwDTgUzgI4tRLlNzZNADi7K/43S73+NzYlBzhuvxU4ohcBOGwiEDhT6vo3U/wL\r\nOHFTBThJNRI4EM/3N4DNCzjDCes3rV4SOOuMGzg/qBM456IMOBU95zfEBAI4J8X+N4wxBjgAsx44\r\nHvwXOIoR8DfZ2go4JLIGOBsL/je4hQk49fcOOAwAFzhWEQM4NP4IOGusCDgCjO036QnqNx195Tcb\r\nKfY3ZLAAOE7f9zdRbvs3Dd4AOKkgCjgVtfY3XBb3NxePFDihPhE4s3MCOL4z5jccY9s3evkKONSY\r\nDzhByes3BKAEOLkmDzjLR/k3qHjZN9Am8TfWQPg3SbAdOD+K8zd63hk4i0YJOCZA+zfKBfM3AbP3\r\nNzSt/jdgzPc3XRHMN13WATgrxQw4mdgDOPA9BzgMGQw4E+UGOMl96zeTDP039TvkN/aoATiq9Bo4\r\nfDQDOFq77Tfw8QY4nj/3N/oM7TfcNeU39lznNwH7CjiuPf43YqAAOGg14zdCOtQ3zukROHDkDTh8\r\nb943cDT4N9at/Te2u9k3srfoNwd67jelVgo4hiwMOF989jeTr+I3mu7uN87AADhVF+w3zFT8N+z+\r\n7DexMQg49Y3xN/I71TdzpgY4qwP7NwKD+TcIWwg4KIIGOF6pCDi3vAk4A139Nym8DzjCRQU4izT/\r\nN4HG/zfFRN03UvP8N09sDDh8+/c3A6jsN4cg+zfcYPk3yiD1NypmDziaQwA4ABAWOA==",
                            "noiseTrainingType" : "default"
                          }
                        }
                    ],
                    "start" : 4515,
                    "duration" : 82,
                    "mediaStart" : 11566,
                    "mediaDuration" : 82,
                    "scalar" : 1,
                    "metadata" : {
                      "WinSubProjectDisplayName" : "",
                      "clipSpeedAttribute" : false
                    },
                    "animationTracks" : {

                    }
                  },
                  {
                    "id" : 124,
                    "_type" : "StitchedMedia",
                    "minMediaStart" : 0,
                    "attributes" : {
                      "ident" : "tower-columns-02",
                      "gain" : 1.0,
                      "mixToMono" : false
                    },
                    "parameters" : {
                      "volume" : 1.0,
                      "cursorOpacity" : 1.0,
                      "cursorScale" : 1.0
                    },
                    "medias" : [
                        {
                          "id" : 125,
                          "_type" : "AMFile",
                          "src" : 2,
                          "trackNumber" : 1,
                          "attributes" : {
                            "ident" : "Rec 02-03-20_008",
                            "sampleRate" : 44100,
                            "bitDepth" : 16,
                            "gain" : 1.0,
                            "mixToMono" : false
                          },
                            "channelNumber" : "0,1",
                          "effects" : [

                          ],
                          "start" : 0,
                          "duration" : 10292,
                          "mediaStart" : 0,
                          "mediaDuration" : 10292,
                          "scalar" : 1,
                          "metadata" : {
                            "WinSubProjectDisplayName" : "",
                            "clipSpeedAttribute" : false
                          },
                          "animationTracks" : {

                          }
                        },
                        {
                          "id" : 126,
                          "_type" : "AMFile",
                          "src" : 2,
                          "trackNumber" : 1,
                          "attributes" : {
                            "ident" : "Rec 02-03-20_008",
                            "sampleRate" : 44100,
                            "bitDepth" : 16,
                            "gain" : 1.0,
                            "mixToMono" : false
                          },
                            "channelNumber" : "0,1",
                          "effects" : [

                          ],
                          "start" : 10292,
                          "duration" : 36,
                          "mediaStart" : 10326,
                          "mediaDuration" : 36,
                          "scalar" : 1,
                          "metadata" : {
                            "WinSubProjectDisplayName" : "",
                            "clipSpeedAttribute" : false
                          },
                          "animationTracks" : {

                          }
                        },
                        {
                          "id" : 127,
                          "_type" : "AMFile",
                          "src" : 2,
                          "trackNumber" : 1,
                          "attributes" : {
                            "ident" : "Rec 02-03-20_008",
                            "sampleRate" : 44100,
                            "bitDepth" : 16,
                            "gain" : 1.0,
                            "mixToMono" : false
                          },
                            "channelNumber" : "0,1",
                          "effects" : [

                          ],
                          "start" : 10328,
                          "duration" : 6867,
                          "mediaStart" : 10429,
                          "mediaDuration" : 6867,
                          "scalar" : 1,
                          "metadata" : {
                            "WinSubProjectDisplayName" : "",
                            "clipSpeedAttribute" : false
                          },
                          "animationTracks" : {

                          }
                        }
                    ],
                    "effects" : [
                        {
                          "effectName" : "NoiseReduction",
                          "category" : "categoryAudioEffects",
                          "parameters" : {
                            "denoiserAmount" : 20.0,
                            "denoiserThreshold" : 0.0,
                            "noiseProfile" : "nZZEP5RikT+EmBI/KnP9Pwpb60CvxkBCXd+jQY7whEBNATBANMPsP4KGpD+w7W0/anS9Pp7DVz9W\r\nWXQ/MgZ/P+zyAz9dsAo/gB+NPqGyij5E040+/uumPv40FD+XEEU/tV4HQPJC2j8hHus+xuOAP6zl\r\n5z90pQ1Ba2PWQS3MBkIj5nRCW1rKQY1QFkK3mEVB9qOyPwsemz8mGQ1AijZpPxFZQT/VTxpASC+d\r\nQCqNR0DvUjw/MkSRP+5Cyz9dMp5AxHPBQOjFykBxUbJAbLJrQIWNh0Ao+CBAwwLMP+FF0D4cuo8/\r\nuImEPjCeRj+bKaM+IG0JP2yQwz6tn5U+qB2AP+vXTkA8V4dAgKfTQNyvSEF+jC1Bph3FQGxo5D95\r\nslQ/tPxpQJQjx0CKrrY/xV8GQGT1jj4EuzU+8okfP2AnBEDs5us/TDerPp3xQT4TlM0+6GdaQF4s\r\ntD4fWws+a5uyPjJJ7z5q9gE/RIxFPmxZiD7SEoA+GN98PS44LT5y6cI9Dw/HPfSD9j1k3Kk9K3wV\r\nPWimMD14iYE+wp7rPDoGDj2O6eI9TxmJPp+HRT7kLcA9jV4WPh8AMz/Hnfs/2kCvP3ePHD+bues+\r\nVL8aPpC4nj0mH0U+/EEAPoPZ/D00ryk/PBU2PzggAT+jYFU/APwCP1NnMz57UIA9BJDwPTWVgz1y\r\nWSU99nonPRB7hDwE15A8VLZMPN6whzwsiLo8Mk4iPbbI2zxrhWc9Ioh5PLAPuzyowQA9mAeWPH1H\r\najwugmM+B+P0PS6CmD70WoA+BH0tPtftpz2SfTw97jcVPdzHBz180qk8YN4WPfLBaj3RUck89fm8\r\nPMZHGj1HhXY9M7QQPZ4+8DwioaM8CmQ/PYZ38z3Oorw9OyFwPTbqkD1xFAM9DtqUPT6SQD6yGYI+\r\nalU/P1c7GD+D3uE+2JirPp1Agj5rrp49Cl1RPvUnEz/ajxw/BhFlP0VGET/D7CQ/+xu1PvIzCD4g\r\nrE49sI0yPHErozxBRP88rvE+PTLyhDyog6084rBlPAPxyzybXyo+Qb0FPsR4Tj5Uf8I+oK9bP5Ye\r\nzz/wjaI//GcCP8ZWPz7YNEw/kjERPyccWj6Y3t89wagTPsxDij1aHZs9I4i6PYZBjD5ICaY+/o68\r\nPfDUwT3y5r89C71sP+LYoj+i9no/pkJDP2Ptiz5ELyg+r/QsPo0aCT4KiYY91w0jPiuwXj3+PLc+\r\nw7TkP9aXFkBasqU/1vAcPzylMj+nT/I+GoCkPip3UD598Ik9NBIWPZ7GwT3C5K88LDMyPiNbmT6e\r\nCFw+Ct0KP8c0RD8weHQ+Y6UCPieEET0Vz3Y8OojrPNj93DzxLm49MENGPfb+Yz1w+2U9sSX6PYrh\r\n7j1JDZI9RgUTPeLDjjwCDqY7R86oPIKNCD3+beY99pvRPh32Rz/dzUY/BG5cP6DupT8gyrA/u6KE\r\nPyqhBD+k3zI/Oyq7Pgh3YT5Fjs09LRq6PLg48zxQA248aRXtPCX1FD5rixk/9oCDP1vysz5lIp0+\r\nYIUWPeV3kTww7ug8YaMGPXG/6TstCSE8Axj4PO2dBT6AKEc9c6NWPp/chT6Hj/E+queyP3Wl3D8G\r\nSlU/dpFQPtOkiD2fCTY+vUBaPtYpqj0o2XA9NNrJPR6LSD0q8CA9EqumPCW5ozwdvJs8bvAtPGpK\r\nyTvs5v87RuqVO/g6DTwYgv86b5dCO5/Mxjv2t3Y72FlJOwKV/zs15AM9OLN5PDguqDpYCUA7bLiz\r\nOmLwPTtTni47BhRPOwidJjvXnhU7OLSqO2uZDzsENAA8mR6cPP2Ruzyuwes75FK6OgSCljr0tKQ6\r\nbM1IOtDWCToMwE46+xwXOm8GrDnyHzY51oilOnD3zDrQyIE68ls7OZR/HzqzfqU5au7dOa26szmk\r\ny7Q4G57ROTq+UjmOGiA5XskIOfyXBzmOxio59vE9OX4fQDnGVfU4+Fv6OCad9Tj2Bvg4cAr3OAY2\r\nCzlGnO441lLwOEQoBDkuQeA4K4EQOVaz5Tjwf/o4kybuOLUiuDiYY/Y43CoKOYXe5DjC9gM5ej7z\r\nONWxAzkLGAE5pLzjOGU09DjMvPg4RsfmOF7A4jjiFOs4I3rbOFlr0jhTNeo4zCfSOBzm3zhs69A4\r\n7AbrON69yjhz/to499XGOEmf5jj5zuE495HjOGo0zzjInM04iATQOMR1vjhCn9845ivZOIgawjhu\r\n2NE46re1OAQ6yTi+ANA4FrjTOA2N1jg7d8E44ArYOOat0zhGWLU4bj6+OKz8tzj6y744/M+0OJfz\r\nlTjH78k4paOaOIZByjhuxME44x2/OHC83ji4vbE4/pWuOHkaqTguYKE4uz68ONIf7zjqPbY4/SKa\r\nOFT1oTjExZQ4wLXOOCWvtjgb5544yFOqOEdMszi/k9E4HhuzOLdVnzjLbpU4PN+uOKs9rTillq04\r\nLQyVOL91ojhkaZg4CXShOCq3wzhFK5k4PKJvOJv21zhCGZk4dQW8OB7DljjY36g4bZSbOH+3ojg5\r\nTNg4xUSZOJRHhjgCIZk4inWIOP4UqTgzpZU40gitOFXVjzj45pk4/qmSOHvVjjg/bpM4kECQOI2G\r\nnjj5lJM4F82CONsFhjgkt5g4cgOGOCgakzhQvnE4cNGPOI0UiDjMIJA4Yp+IOI7mnzhtEpY4CkSQ\r\nOC1EkjgceZI4jXN2OFxmiTjNu4U4TO6RODzyezglsYc4UmBzOMRAhji2RJA4HlaFOM0pjDiAEIs4\r\nJk2VOL3PkDiVXok4seaPOEFwjDjqhXc4BVOFOA7TdTgEl4A4o1mEOCx3dzhOr4M48jNzOKD0gDgE\r\nRm04hnGMOKrehTgUfXc4pkNwOGjthjiCcmk4FfFgOGxshDiGynY4TKNqOOY6hjg7Smw4ccSDOHhW\r\nbDj8Goc4KW1cOK3YhTjo84U4zrRvOIzbWjgyI244gAJyODC9ajgGzXA4tO1QODQ0aDiH2HU4rYlM\r\nONY4XTjNM184j1ZGOBL3SzjKznY4CjlJODt3UTiY0UM4Y3VPOEgNajh6THk4X5h9ON0OVDiNnUo4\r\n4mFNOF56UTgO5V84IKdPOP76WDiC/Vc4D/hqOFy1QzhEZ1k4BhpaODSxZTjNxFc427VeOKPacTgD\r\nMUU4VL9SOAB3UDiKqE049TNaOE7ZXTixSkc48IhdOEbYPjj+VU84q9RYOKpoXDjgA0I4FQhKOG5u\r\nPzgCjEw4kL5GOGqGVji6ulQ4ttdJOKSWLTgi5WY4LPhDOOCoSThQHD84anI8OEL/Kjh4YEU4TkxT\r\nOI4XKDgMFz04qsxWOAJGOzgzAj44/hc7OMNiOzjx4js49WUzOJQrYDhpgTo4yVgwOJcEOzj/xTg4\r\n/kI9OAwdSTi2+i84vU00OLujKzhkOzk4+qwzOL9EVDiWNTo45YYvOOBQGzgoHic4/YBRODZ6Sjgj\r\nbjQ4pmNFONg6LjjMlTw4gQQtOP0bRTgb0Dc4mZg3OHcHSzgcpz44mDc5OFg0LDjOFS04h7EtOGCB\r\nNzic/yo4GEI9OI/TLTiQ0yw4XoIjOPszMjhYAEI4bg0hODIoJjhosis4KjQ+OGTrMzht8yo4YeIw\r\nODAQITgKdiU4rEkwOJi3Ozjcdx04ISEbOJh2Izijjyw4OhcmOHRFITgT6xU4kdQxOLxbHTgDbTY4\r\ntIQVOI9RMzhPqTU4TbgiOE4fLjgl8io44ncnOJyyLDgpNSE4iXY2OGpDJzhixSQ4kEUoOPWnLzjj\r\n/iM4kIEZOM8MJThE4B04TEw2OOT7PDgc9T0433gmOMP8Hjj0EAw4YNEwOETuKTiAGS04dxAQODKg\r\nITiiaTE4Z885OPzGHzgn9x44ndYcOABiJjjU2Cc4sW0zOBN/IDimiAo4sCUiOANqKTgw8Rc4yaIW\r\nOG9NFji4/BI4B6QQONQZGjhD0BQ47nokOJ8bGThOwBk4pocWOEoyETiTCxE4Yq0cOEeyIzi9OBM4\r\nv/YnOOyEHDidDBI4IbgYOJR4Ejh+wTM4MZMVOCuFEjjYkxw407sLOGo0AzhY0BE4p0olOFrP+Dfs\r\nYyc4+0YTOOs6DDiEVhQ4YKYUOHAJEzgJSBo4QgMTOINHHjgn7Ck4FKQnOBl3Czhg0Os3cCsAOD5G\r\nHzjI5g84n9kWOFVsFjhEJw84vnkbOCJpFDiL6A84XJsPOJBwHDjEhhs4T9ciOPssETgwpx04tgIX\r\nOLg4CjgjFiI4RsYXOKX/DjiMPxk4ROMROGsJFTi3wCM48s4hOFQWITgIBQs4VZsEOHH0Djg3/SM4\r\nKg4VODbaHDgTsAo4FWoIOOeDAziPNxg4QzcPOJfCBzgo2/k3bjsRONqXGzhUVxs4NMkROMs/Fzjr\r\nuA84DyIIOO6ODzg7PQg4exQUOO2RDTgEVBA4088BOLd9BDhDowQ4YvEOONmgBTjauAM4KtYGONbq\r\nFDjISQM4YRT9N+0BLDh5Bgw4bpMLOHstAjj4VAQ4nODnNySVIzg4hBA4taoQOMpRFDjFDgI4hG0G\r\nOAK96De7EO833kcIONhN/zeCT/E3cfUMOFF4JDhMPxQ4ZhALOM1GBzgaZQU44rwBOG0lBzh2Hhc4\r\nCroSOKcrDDgpVAo4brsKOLOWATjnIOo3e17vNxi0DTj1lQw4RUL2N4LB/zcyQPw38aXdN8/zDjja\r\nOg44Bf3tN3e0HTgQzg84oIoCOOyh8Teynvs3bz0COGqZAzigmgk4CRQOOPU07jdG3hM4En3uN/Nj\r\n+DcfcxE41rT5N+q0BDgwLgI4vlnzN2aP6DfMYPI3Z6oMOMwxBThY3v03/AMVOHcgBjjlvRE4uYf5\r\nN1/wFjhXJA84qzUNOPPyADhsFRQ4Tp0FOCjyDDhBdRE4uG0MOB7QAjh+9wI43kwIOCWj9zdtDgA4\r\ntCElOI+BDjidJew3mCT7N/HSAjinkQI4PQkEOEdlHTgv2Rg4PKHaN9Ux+TfkohU49zTvN+crATiS\r\n4eQ3iv0AOBn7+jcaav43PFACOPky8Dfft/w3zHDfN2YC/Df3EAs4BdAMOCkKDDjLBPE3fz7gN6G9\r\nDziqFw84DDj4N0Ce/jdwWAo48wHhN0D52zcaN/s3afLyN8KwEjhVGOA3iy4ROCK9BDiyzww4/nEH\r\nOOZw+jfUyvA3tmD7N6Xn3Tf9JxE4GYMVODMjATips+w3BXIGOMpaFjjlxOk3KAXnN2sV6jeISwk4\r\neJsTOKJV9zenSvU3byUJODme4TdgQeI3LZjvNzpo7DdF7f03yXX7N+XTCzi0ZO03gdLiNwtmFDhF\r\nmAE4BVfVN+n+9DczhQY4P2fgN3XV8zfV7vI3JscEOGgpBDjdGwA4V8TzN02xBjhTqAA4NMTcN0+x\r\n7zeS5Ok3ZloJOD9T+Dd1gss3YWIIOB4mATiE1f83HCkROFN/9jeGFgo4W5AROJdhAThP8wg49MYJ\r\nOIRx8Df7jeo3cS7iN9evDDh4MAw4wvnpN4i68zet/e43XgwEOE+c8TfyVxg4ApsCOACBDjiVgUQ/\r\nu1qRP4SYEj/VeP0/H2rrQK/GQEJd36NBjvCEQE0BMEA0w+w/OpCkP7DtbT9qdL0+QdJXP1ZZdD8y\r\nBn8/7PIDP12wCj+AH40+obKKPkTTjT7+66Y+/jQUP5cQRT9JZAdApD7aPyEe6z7F8oA/cd/nP5yp\r\nDUFrY9ZBFswGQiPmdEJbWspBjVAWQreYRUH2o7I/Cx6bPyYZDUBEGGk/EVlBP9VPGkBIL51AKo1H\r\nQO9SPD8yRJE/7kLLP10ynkDEc8FA6MXKQHFRskBssmtAhY2HQCj4IEDDAsw/4UXQPhy6jz+4iYQ+\r\nMJ5GP5spoz4gbQk/bJDDPr6+lT6oHYA/69dOQDxXh0CAp9NA3K9IQX6MLUGmHcVAbGjkP3myVD+0\r\n/GlAlCPHQIqutj/FXwZAZPWOPgS7NT7yiR8/YCcEQOzm6z9MN6s+nfFBPhOUzT7oZ1pAXiy0Ph9b\r\nCz5rm7I+MknvPmr2AT9EjEU+bFmIPtISgD4Y33w9LjgtPnLpwj2ox8Y96KL2PS7CqT0rfBU9aKYw\r\nPXiJgT7Cnus8OgYOPY7p4j1PGYk+n4dFPuQtwD2NXhY+HwAzP8ed+z/aQK8/d48cP5u56z5Uvxo+\r\nkLiePSYfRT78QQA+g9n8PTSvKT88FTY/OCABP6NgVT8A/AI/U2czPntQgD0EkPA9NZWDPXJZJT1A\r\nNSg9Ge6DPIg8kTxUtkw83rCHPCyIujwyTiI9tsjbPGuFZz0iiHk8sA+7PDlUAD2YB5Y8fUdqPC6C\r\nYz4H4/Q9LoKYPvRagD4EfS0+1+2nPZJ9PD3uNxU93McHPXzSqTxg3hY98sFqPdFRyTz1+bw8gqsZ\r\nPUeFdj0ztBA9nj7wPCKhozwKZD89hnfzPc6ivD07IXA9NuqQPXEUAz0O2pQ9PpJAPrIZgj5qVT8/\r\nVzsYP4Pe4T7YmKs+nUCCPmuunj0KXVE+9ScTP9qPHD8GEWU/hDERPwnmJD/6G7U+8jMIPgCZTj2w\r\njTI8cSujPEFE/zyu8T49c7uDPBvyrDzisGU8A/HLPJtfKj5BvQU+xHhOPlR/wj6gr1s/lh7PP/CN\r\noj/8ZwI/xlY/Ptg0TD+SMRE/JxxaPpje3z3BqBM+zEOKPVodmz0AWbo9lDCMPpIXpj7qb7w9b/rB\r\nPfLmvz3tsGw/HdGiP//eej9BIkM/Y+2LPhp0KD5s9Sw+UA8JPgqJhj3XDSM+K7BePf48tz7DtOQ/\r\n1pcWQFqypT/W8Bw/PKUyP6dP8j4agKQ+KndQPgEHij0kNRY9xdPBPcLkrzwsMzI+I1uZPp4IXD6K\r\npgo/si1EP1hvdD4MkQI+J4QRPVTedTygR+o8vRTePPNJbj0wQ0Y9EMljPYT0ZT0jkfo9iuHuPUkN\r\nkj1GBRM99z2OPAIOpjsHMqk8go0IPf5t5j32m9E+HfZHP93NRj8Eblw/oO6lPyDKsD+7ooQ/KqEE\r\nP27mMj87Krs+CHdhPkWOzT3sz7k8d7fyPL5xbTxRtuw8xzwVPtlhGT/AhIM/veizPtIWnT5COxY9\r\n5XeRPDDu6DxhowY9usDpOy0JITzQb/g8HZEFPvJHRz3loFY+ArWFPut08T6T6rI/HsbcPztCVT8I\r\neVA+WxCIPbgCNj7Xelo+Yk+qPYf1cD1EfMk9oGdIPS6pID0Sq6Y8JbmjPB28mzxu8C08WYjLO+zm\r\n/ztG6pU7BVcNPEeVADtvl0I7n8zGO/a3djvYWUk7ApX/O0a1Az04s3k8OC6oOlgJQDtsuLM6YvA9\r\nO1OeLjvXSU87CJ0mOyPbFjusnKs7cjIPO75P/ztrHJw8Kvu7PAHN6zvkUro6BIKWOvS0pDpszUg6\r\n0NYJOgzATjr7HBc6bwasOa0tMDnWiKU6cPfMOtDIgTryWzs5klcgOrN+pTngCds5rbqzOaTLtDg/\r\nvtU5juhOOXfNIjkyUgo5p+8MOT5VJzk6aEI5XMhBOdLX9zhAtPo4nOD/ODCv9zg4NPc40ZcPObiQ\r\nBDlAAfg4FrMIOSQo3jjMegc5ANvnOCxOADkguPM4voG8OGqa6Ti3ngg5C/7ZOOVB+TjDGfs4EHsK\r\nOVir/jicM984ZG34OIEZ9zhMIuM4bJ/sOKW09jhwe9U4VubEOPP85zgB/NY45YrbONBgzzgaRuk4\r\njQTHOKJZ3Dgm/8M4V9naOOs53Dj6beI4aELXOJY5zzhug9A4/SDAOFxA2jhoG9g4dtvKOALd1Dhi\r\nNbE44fPGOGxKzjjbWs84pCjdOMU/yTg0Kc842tLQOPburTgem7o4s6qqOGk0wTiYZsE4bqiUOM13\r\nvjhWdZs4JffNOBZDtzjezLs44uLaOG0irTghwaI4DdWrOMysnjh7Hbk4dEbzOKKcujgJJpo4WeKe\r\nOOZNkzhkh8g4qXKoOPbxnzjaTqg4NSSiOOaouDg2c7E4xiqtOEm2oDi0D8k4acOsOF0UojhM15M4\r\n5ai2OEl1nzhdy6I4y7DDOPeymTj8/4s4ISu7OJudmzh0D784JfKGOKAomzj5m5s4/MadOD7n1zh1\r\nt5448zuCOJEmmjhwmIU4xpeZOCLFiTiOU584gHqSONoMnDisnpI40U6UOKY1nDhC6I44CJObOI3v\r\nlTie34Y4BkWQOBR/lTgOZXA4qoaNOKQMgziJa5M4e+yAOEr2jzjNS4k4BhagODKZjzi+OJQ4J/aR\r\nOPAGgzgAdXE4z7qNOG0HhzhP44o4kLd2OM0phDigl2o4jreGOJBbmDjSUIE4CPCDOADhhzhappI4\r\n0DuIOBDAgzg4eo84fQKEONVedjjPtIg4iyaDON0Pgji05YM4JpN3OB1+gjgmtm84gh6OOHHmeji8\r\nB4s4KnaHOF69eTidmW040vuDOLQgazhqj184so2COJC7dTiwOnA40LCDOJm4YTiUVnQ42CJ1OECn\r\nhTisxlk4KgWAOI73ejgF7mg41N1eOOikcTgkC2c4BKNpOFpraDg8mlM45OhmOCJ6eDgHmE44TYdu\r\nOGpfaTgOi0M4cA1YOAAkejjIbUA4dNBSOANwQjiooVs4iclfOK79ajg6ZXQ4mOVSOAYXSzgegGE4\r\nIDt1OIg6Yjhkz1g4aXBSOO7bVTjjiGc42F08OL7GWDgQaFU4h21TOKcJUTgTCmE4AqdoONDASDhl\r\ny1Q4hXZKODr2UTgkEWQ4srBkOHV7SzhPRXA4V3FPOK/qYjhAZ1U41o9aOBikVThy0Ec47ok9OBCu\r\nTDjBPkk48CdaONR+XTiC2VQ4K9QzOIXMXTha5Tw4tupSOOM/QDj9nTg42UkzODJNTDhDkFI4kNYl\r\nOM3UOjhkgF44P/s7OFF1QzgtjUU4RudGOKCYPDibHEA4AhJiOF1URDiKwS84PhA4OCbNLzi1AjE4\r\nrlZDOHh9ODgMnjQ4dF4qODwfODgtRTQ4hClWOLeMMjj5OkM4zYQsOM30Ojh6Yks4rzRROPn9OziJ\r\n9Us4qng2OBQJOThq+jA4BgBIOBYYMjjBxjc4ph5LOATLOji6Ozk4ObcnOJS0LTgvBSc4pm8qOD6f\r\nMzgzj0c4WLkvOLTkMDhUTCE4ibs8OGbpPTgDqiU4HqQvOKx+KziNizI4JkQlOITLMTjl4C04pZgk\r\nOAKBJjgO8Dc4png3OBZjGThYeh84yfMpOF/jKzjKJSg4FU8fOIr1GzinWTw41sgcOOjmNThQvho4\r\nvrkvOOM3Nzj1LiE4caMyOO72JDgPjyU4hscpOJKFFji+9z44flwmOCyzIjjErSI4zL4bOF4aIDjK\r\n7SQ490kgOMrnKDgnwEg47oU9OArPNjjGOy848ZkhOJCFAjh34CY4XH0xOK4IMzjyWQ84qMsbOE8M\r\nOzieNTk4RNQVOJJhIjjL4BU4jlsmOOU9IjiFCDs48d8qODiTEzhlsig4Rv4tOJi8FDg0QxY40OQP\r\nOEUCEziVDxI4TjUVOJLmDzjqlhs4OsQWOCzFEjgctA44X9oPOJW3CDhl1BA4a9McOHCODjj1GSc4\r\nPA4SOLHBGziLbRY4itMTOMBlODit+x44q4IbOFTCHTjyjxA4lUMDOD2/DDiiYhc41JD8N6B6NDgy\r\nlSc4NsgPOIZGETi8ogA4Z7QOOLvpITgJiRE4khwWOHogGThdoxs4WpX5N4Wa9Td+t/836CcnODaA\r\nCDh0HhI4ct4kOPJoDjiIgyE4bLoVOL4rCjhdAgc4mvUcOH2NGThROQ84ujQTOBQhKTh60yA4MTcN\r\nOKt+Izh2GSM4x0IVOATHGjh2/AY4iQYVOMPzIDgE7hM4U0UcOG7HADgR6A448I8ROEVkEzgRDw44\r\ngGcmODybFjgjqgs45gUDOAxKBziYWwk4wn30NwMV9DcdURc4XGgXOJLMDjheNg04YqoXOGN1Fjgv\r\nZR04+0ETODL1Bzgt2BM4qMIAOEqMBTg7z+437jkDOPYuADhP1RM4QhwHOEqCCDibFwo45DgLOFHH\r\nBTiMPvM30M4vODnbEzjpsA44c5j+N1mTBDh/Ae03+PggOOg2DjjHbAc4UJcbOKHsBDhmzQI4V2nl\r\nN1TD9jcg8P03BWb2N5BB8TeD5w04+TMeOIUvFTj0EAo4/RgDOBphCTgMqgE4x98IOEiTBzhNURs4\r\njlIWOLDkCDhAzPw3gRf+N+aA9Dck3fM3OKQNOC1qFzh4Jf03OEMDOPpFBDgX5uM31McPOGKUCTjw\r\nhOk3IcIbOBz1DTiH/Pk3KpPwN46t+zdO3Qg4eAj4N/TKAjiAcQ04bY3rNyxjEzjTJO83MQcHOPW7\r\nDDgiX+8350AKOJWwDTgUzgI4tRLlNzZNADi7K/43S73+NzYlBzhuvxU4ohcBOGwiEDhT6vo3U/wL\r\nOHFTBThJNRI4EM/3N4DNCzjDCes3rV4SOOuMGzg/qBM456IMOBU95zfEBAI4J8X+N4wxBjgAsx44\r\nHvwXOIoR8DfZ2go4JLIGOBsL/je4hQk49fcOOAwAFzhWEQM4NP4IOGusCDgCjO036QnqNx195Tcb\r\nKfY3ZLAAOE7f9zdRbvs3Dd4AOKkgCjgVtfY3XBb3NxePFDihPhE4s3MCOL4z5jccY9s3evkKONSY\r\nDzhByes3BKAEOLkmDzjLR/k3qHjZN9Am8TfWQPg3SbAdOD+K8zd63hk4i0YJOCZA+zfKBfM3AbP3\r\nNzSt/jdgzPc3XRHMN13WATgrxQw4mdgDOPA9BzgMGQw4E+UGOMl96zeTDP039TvkN/aoATiq9Bo4\r\nfDQDOFq77Tfw8QY4nj/3N/oM7TfcNeU39lznNwH7CjiuPf43YqAAOGg14zdCOtQ3zukROHDkDTh8\r\nb943cDT4N9at/Te2u9k3srfoNwd67jelVgo4hiwMOF989jeTr+I3mu7uN87AADhVF+w3zFT8N+z+\r\n7DexMQg49Y3xN/I71TdzpgY4qwP7NwKD+TcIWwg4KIIGOF6pCDi3vAk4A139Nym8DzjCRQU4izT/\r\nN4HG/zfFRN03UvP8N09sDDh8+/c3A6jsN4cg+zfcYPk3yiD1NypmDziaQwA4ABAWOA==",
                            "noiseTrainingType" : "default"
                          }
                        }
                    ],
                    "start" : 4597,
                    "duration" : 53,
                    "mediaStart" : 11652,
                    "mediaDuration" : 53,
                    "scalar" : 1,
                    "metadata" : {
                      "WinSubProjectDisplayName" : "",
                      "clipSpeedAttribute" : false
                    },
                    "animationTracks" : {

                    }
                  },
                  {
                    "id" : 128,
                    "_type" : "AMFile",
                    "src" : 3,
                    "trackNumber" : 1,
                    "attributes" : {
                      "ident" : "tower-columns-03",
                      "sampleRate" : 44100,
                      "bitDepth" : 16,
                      "gain" : 1.0,
                      "mixToMono" : false
                    },
                      "channelNumber" : "0,1",
                    "effects" : [
                        {
                          "effectName" : "NoiseReduction",
                          "category" : "categoryAudioEffects",
                          "parameters" : {
                            "denoiserAmount" : 20.0,
                            "denoiserThreshold" : 0.0,
                            "noiseProfile" : "eSaGPvdD/D52nuU+M71nP75wzUDWlOpB3s5cQJDRrT/8uQpAM2auQEi22j74AYA/fqCOP3qN2UAj\r\nayNARwL7Pq0pVj6v3Rs/pyWcPk1kaj6FN7I+Lqm/Pvslnz45GXY/gHhQP0/6Dj+qD48+LXZWPyWq\r\nTz8KwkJAeug7Qa39lkA4xFVBJjeIQY58d0FEUZlA7LXVQc2hhkBZ3vdAWbGlQPg8cT/oY3k/hJjO\r\nP3/sFT+j2GQ/1GBhP9g5hz/q2Z4/DtgsQCtTRD9TVBs/7iLPP5RHhD+sg1k/i8CPP7c2Wz/4xNA+\r\nh5gaP4JEzT6P6BM/5j0PP7n68D7ysqQ/xykjQCEbZECIn0k/JmUGP7qysT8Hdzw/rg2KQAgObz8Q\r\nlz8/5hlxPuVZBj8tQeY/MXb/PpxQgj7u8y4/rxj7Pjo9Zz53958+Lpa8Pckr1T2vmx0+so04PjiB\r\nVT+A+mI+0aOZPYKIqT3QNNI9WOZaPWVYCT7TXrc+pnOQPhQOWz5BMSc+CkYnPaJ+Kz1SYyw+UA9b\r\nPl0UNj2mOZE9uLj9PPoBUj2j4Sg9ME23PaQEQT4RywQ+ZWOoPSv54jxVH9Y9k60MPTV1Mz1xoIg9\r\nvqfnPQyaij7Fvos+LzsXP0bo3D5SEvc+QsY1P/xB0zxSlE09PxWbPsFWoT4fX7s+xNNlPyeFqz/F\r\nvrU/ZgARPpQ/Aj8biQ8++7FBPIU3rj6zxkY/zPzIPt69AECKkdc+gU9PPQMtXT1JcEk988aYPXLa\r\nsT6o4jQ/d2wsP9ahGz9t5sE/hmWLPxkarT9pPmw/SV39PboiVj46KYo95u+9PBX8Fj7ys/I9kO8T\r\nPy1vCD9tazo/VN0GP4+PjD5XhwY9fxPgPhnTzz4KR+g+CNBAPu5znT6bUPA9o4PFPibhAj+s19M+\r\nASz2PtZOfT90I9g/n5SHQDrhu0B5tTxBfcFNQflGeUExM5ZBhMelQRpA4kGf3ABCnEbsQV1Gw0Hx\r\nKUJBPLKUQRbEikHp7pdBAlq+QTUzmkFCmr1Bw3e4QdoTsEH6JMJBSjvGQbIKxkETEhhBIpeQQeJb\r\nOUFBgM9AoOQUQGBuEkBx+CZAOcyyP1ETCz/41QI9UUboPSXbyj1DcgA902OmPY4BFT7GHvg+bMPW\r\nPnqDyj5u4+8+xo1dPz7/bD+ED/0+VDsdPjFolD5ZCi8+af7SPDMtnjxosUE9E1hIPZ/3Bz1tdZk9\r\neGXePRNEDj3K4mk8Juu2PELBOD2+oSI8NbO3PHnNzDyQVy89UP/nPbKGqT51diE/23/aPV25VkCq\r\ncZQ/0SFoPxvtBT/iVyZAYgYaPrAAXD5vPXQ/LzutQDqfYD+gB74+1R6qPypZSkFM22xA2hNRQZtR\r\nC0Ha5gJBrBSCQAzp4UCktENBVEtCQRVxIkG4BARBi9ikQLI7tD9oYWc+504hQDHChD9Y3/I/tPrB\r\nPtHND0AEEQtAYK6/P9h4jj9VB7E+eKofP6+OkD7zw2M+YDqlPFoGNj5vbEk+ODXzPtROsz1KFMc+\r\nj4SXPnX/xT16etc9jh5HPlcYzD5mFsU/pPp2QCLeKUFe9H9BjhS2QY/8aEIruJhCGn6sQvuDiEKn\r\nFY9CcBNoQihwXEJKcAdCRVwbQgqf1EEWNdVBfvQJQXWIgkHcC0FB9+MQQabw1kA1awhBVedaQfZ+\r\nlkFfvdpBJg78QfWHCUIwWvZBU4gBQleN9UE9NPBBf1jRQWo1rUHzsWlB+ch9QbXjUEEH03hBypRI\r\nQW7HN0HVlP1ADhqyQKuGZkCMgi1A16OxP7Ma9T8zuv0/kn0cQNAmJUBnvlhAZTcsQC7xDUAxV/A/\r\nVATVP57JsD8PmJ4/fuJePyixND+wM/4+af7dPm6Lwz4IBJE+fk0FPh9AwD0KBHU9AYl9Pbjt/TxB\r\nMBU9oY2XPDvo5ztIEZE7sWx3O5yXnTsKqBQ7moVtO7Om7jpBqPg6xnK2OrtxYzoRf7Q6r2BlOa3j\r\naDp2xw05zZEWOoBY6ThB0iM6Er0DOTP3PTr6Ve44Z1wcOm9tBzkrDtI5zp6YOZT9TDl6ft45G1W0\r\nOGm8nzk8am45CTE4OWZLuzkwe744u78jOcQ4wjmQ9JA56gsWOfvh4jiMaKM4wNLHOPjwsjn59Og5\r\nm3UMOWRXkDhMjEE5pqjsONENAzktE405m6aoOF57hzgPuQg56j6kODC8tzgcGo44GtGrOCLqhzjV\r\ngYw4tP98OHB0fzhgSYE4hw55OI/Ddjj4f3I4pb+AOOT3fTiIf3w4xpq+OFLYSzkwzgw5ueZtODVk\r\nNTlPPss4plglOefGODlKdAc55F9lODXy2zhqKtI4HDrGOGJ3Xjgg4cg4wn0kOVvAEzlATIc5bEB3\r\nOFgzZziun9w4pqijOLKcMzlichQ5CMBkOCS/ZDgMG3Y4UNNoOCP5XjjbF4A4rOdGOM6ZWzhqClA4\r\nXd1LOMipcTjSOVk49stBOMwvVjg6sYE4/NxpOJCHSzjm7Wo4UqM7OGAKRjgaOFc4jPtBOISHSjhU\r\nBjE4qDFXOOR3VTj47E84k8xHOGLKQDg6TGY4GsptOMruPDgYBGM4lpE9OLP7QjgsHks4jgVmOFCj\r\nYDgYQlA48FBBOD1DQTgaWFs4Av4gONW0TDhIUTU4XEM4OFI0dzii3zA45j4hOAQyXDjHWEE4WklB\r\nOGABPTjcwT84LDhbOAKrTTjZ7Cg4tEUsOKAuRzhvTEo4YFgmOGIjJDiGR0s4G4I7ONBtOjgA+UQ4\r\nZg44ODQYPjjITEE4rBMxOGKSQjifWz44KIcyOJx1QzgSY0E4amI0OIRzKzi4Thw4HWEmOMxgHjgk\r\n9CQ4g8UeOBh4KjjaKjE4UCMiOJCRKDiWcz44qho9OKpuLDjBEC04FAE7OOhYKDgKcRQ4sactOJCW\r\nJThGdis46okUOH6SNTgdF1E4PtswOHP/cjjGzoY48qQzOPGZCDg6qh043jU0OJU4LzhuhxU4cYUd\r\nOLgCJTja4TE4Vl5CODE/MTh9VyU4eoEgOBGqJDg+FiA4B8MROGKXFTjARSU4FFgUOGTHEjjejhs4\r\ntfv2Nz9kHDhtjwM4HN0VOE3YOzjtLQg4hLoOOGSXDzgBoCk4Ju72N1JcFDiQJhI4uIMUOOa5DDjH\r\n4Sk4fDcFOF4YDDiqbSg43bkaOD8EDjgGFSk4gq4JONDxDjiiqQE4S54XOJiDDzjMAxI4yI8VOEsa\r\nMjgcvQQ4dvTrN6QRGzieCQs4FvAeOOL6FTg5yQE4UysGOKy6DjjwFQY4PGMIOCgFCDgrwAo4mo8Q\r\nOPJtFDjwHfI3UkwOOJzZ7jcZewk4HKnrNxzEAziPXR045W0DOPd6DjgVKxE4IRf4NwCoDDio7hQ4\r\nJccZOAps/TdSNgA4FaT6N9T7EzgrOhU4vKQLOLVw9DdD4RI4xPcmOLgRCjiYOug3wV4COP5aADj0\r\nawo4yeXXN8pSDTho0QE4QqX+N66CAzgYpfE3n3IDOKKmBThdoQI4RiIHONx17zc00w04zGHvN4pG\r\nDTgDVQc4wOLuNyX1EDiU8OA3KpHTNx713zfQ5gA4G5zjNyEPADjKkOU3hLoMOP/PzDe0UPw3kRXu\r\nN2v8FTgDw/c3cEkTOCLB6jdBBOM3HNPyNyqd5jc1DOk3e+UUOCRVAjgr2wQ4mHj2NzYm7zcx7+k3\r\n0qr/N85M3zdHT9o3f/vmN3OtAzheg/s3LycGOMq47Dfbqd03HowEOLJE5jcZRAA4U5/wN595zjeo\r\nGPg3mGYCOJ3m+zcJRPo3OkzrNwZX9DdE1cE3X1vVN/PC9zcTTus3Pc8DOASUyzcSYPY3cHjuN1g4\r\n9TehNMk3ICfIN1EC6zflzOM3Wdz4N4MOzDe0A/w3hlfzN1gw4De59MM3cnnlNyVQ4DciVug3grrq\r\nN6531jfyHNU3bCzXN8cjxDel3uQ3xqe/NxJc1jfQous3cxj0N52YADixw9I3BAvON3p81jci6O43\r\n8471Nz7x5jfki983TI7KN2bC8Td8H/U37/TfNzrH0Td+aOE3M+3HNyh15zd9CO831UQHODy02Dcy\r\nnMw3jRz7N1L4yDf4i9s32VL2N9tJvjcgVeA3qMD6NyTJAzhHjNg356/XN1Uc2Dfm4Ls3dGPRN3df\r\nxDdiP+A3GRzhN0jNwjdqEbI3iXzYN8gi+TdWK703lvnIN/ou3Tfznfg3ILe7N5LR0jeubcI3GoPY\r\nN2bCxTe7g8s3zWLGN4yszTfZ3cs3hODbN4/LwTeIcMY32re9NxtP5jdDw8c3B/vKN74RxTfJ+O03\r\nejTuNxjy3TcJzqc34lPtN0G5tzfm49w3x9EKOLT6xDfwGcA38lUCOEFduzdyBs030GWxN5wQqjdh\r\n4tU3/t3QNxZeyDdEldE3zZfFN+Zs1zc7tck3FRXnNzqL7zcjAeM3NeHRN7Y9mDddvas3qpbCN6A+\r\n6Tee5M83EHO8NxhLxjdPzNQ3rRPQN9VXzTfpXcA3Q/HAN+VtvDdKqcU3FE+1N65Ynzdmx9s3gliP\r\nN0J9AjhO6qk34iPHN/aN6Df3zc03IgShN/KUwjexd8I3qO+qNzHOmjfKDrA3EOfTN1DJ4Ddn07Q3\r\nZDi6N859rjcooZA3tnSxNzyvuTc3v9E3FXeYN9ICljcC0LY3sY/rNwRUxDfl/6U3TImGNyh3pjer\r\nIds3TovQN2tLoTctxMo3j1TAN5k6mTerysI33TemNwcGqTcK/OM3Z7zvN5ht7zeF8K43puqYN7ru\r\nrDfp16w3synKNzkYmDeWRt43ea7DN0oeuzcxbbU3Bn6wNyUr8Dc2Nao3Rwe2N4yvsTeHS8s3ZHTQ\r\nNzvD3zebMMY3EqXAN9ZutzdF2so3yUveN7DP5jfenJw3ouzTNzhlyzdFU6I3WviPNzkXkjePmtA3\r\n7Mu1N7dDvDfU6Lo3DDqtN6CTnDcrkso31wq9NzVUszfoarE3E0rLN4o7xzcChaw3UrmwN2GntzfH\r\n2Kk3j3uiN4yltDf2Kqo3bvHaN1MmuTedz7c3QEKmN0JjsjemVMg3NS64N1C34Tf58LE33ouaN55s\r\nqDeI3MA3OafkN+U+0DdvQr83zX2uN3cVxDfXero3GzG/N7z7yDd7YcE3TwDDNyC0zjd6oKk3U+C4\r\nN+g00Te0C8Y3MvKlN5ZE4DfgO6E3BGe5N95VjjdBOaI3V6vANzRApzezHr0379usN6WXzTeV75E3\r\niCKXN8ixxDfZL8U3vRqmN03qxTfs1rY3+hilN9Q72zdG0q83ZsC8N8OOwDfco6s32TXKN050qTeG\r\nNc43FrqXNwzl0TeQ2bE3coO4N2senzcE4NE3N1ijN2LuqDfA+q03baPQN7G/qTdyFLI3D1W0NxLW\r\nojczhKs3JKq4N3sHrzfFKLo3PEixNwOmsjfqZbI3MrnRNwaKjDeOAaw3XYu8NwBM0TdKBLg3ya2U\r\nN5h6yzd6SLw3mqSdN23dkjdcLrE33KCnN5HX3jc7usk3GVO9NyO3rTdpebc3TBfQNwAIwzd5JoY+\r\n90P8Pnae5T4zvWc/vnDNQNaU6kHezlxAkNGtP/y5CkAzZq5ASLbaPvgBgD9+oI4/eo3ZQCNrI0BH\r\nAvs+rSlWPpLYGz+nJZw+TWRqPoU3sj4uqb8++yWfPjkZdj+AeFA/T/oOP6oPjz4tdlY/JapPPwrC\r\nQkA36DtBrf2WQDjEVUEmN4hBjnx3QURRmUDTs9VBzaGGQFne90AzqqVAQjhxP+hjeT++os4/RAgW\r\nP6PYZD/UYGE/2DmHP+rZnj8O2CxAK1NEP1NUGz/uIs8/lEeEP6yDWT+LwI8/tzZbP/jE0D6HmBo/\r\ngkTNPo/oEz/mPQ8/ufrwPvKypD/HKSNAIRtkQEuyST8mZQY/urKxPwd3PD8yDopABfhuPxCXPz/m\r\nGXE+5VkGPy1B5j8xdv8+nFCCPtjkLj+wFPs+Oj1nPnf3nz4ulrw9ySvVPa+bHT6yjTg+OIFVP4D6\r\nYj7Ro5k9goipPdA00j1Y5lo9ZVgJPtNetz7dbpA+fupaPkExJz4KRic9on4rPVJjLD5QD1s+XRQ2\r\nPaY5kT24uP08KPVRPaPhKD0wTbc9pARBPhHLBD5lY6g9K/niPFUf1j2TrQw9wo8zPXGgiD0wQOc9\r\nDJqKPsW+iz4vOxc/RujcPlIS9z5CxjU//EHTPFKUTT0/FZs+wVahPh9fuz7E02U/J4WrP8W+tT9m\r\nABE+lD8CPxuJDz77sUE8hTeuPrPGRj/M/Mg+3r0AQIqR1z6BT089Ay1dPUlwST3zxpg9ctqxPqji\r\nND93bCw/1qEbP23mwT+GZYs/GRqtP2k+bD9JXf09uiJWPjopij3m7708FfwWPvKz8j2Q7xM/LW8I\r\nP21rOj9U3QY/j4+MPleHBj1/E+A+GdPPPgpH6D4I0EA+7nOdPptQ8D2jg8U+JuECP6zX0z4BLPY+\r\n1k59P3Qj2D+flIdAOuG7QHm1PEF9wU1B+UZ5QTEzlkGEx6VBGkDiQZ/cAEKcRuxBXUbDQfEpQkE8\r\nspRBFsSKQenul0ECWr5BNTOaQUKavUHDd7hB2hOwQfokwkFKO8ZBsgrGQRMSGEEil5BB4ls5QUGA\r\nz0Cg5BRAYG4SQHH4JkA5zLI/URMLP/jVAj1RRug9JdvKPUNyAD3TY6Y9jgEVPsYe+D5sw9Y+eoPK\r\nPm7j7z7GjV0/Pv9sP4QP/T5UOx0+MWiUPlkKLz5p/tI8My2ePGixQT0TWEg9n/cHPW11mT14Zd49\r\nE0QOPcriaTwm67Y8QsE4Pb6hIjw1s7c8ec3MPJBXLz1Q/+c9soapPnV2IT/bf9o9XblWQKpxlD/R\r\nIWg/G+0FP+JXJkBiBho+sABcPm89dD8vO61AOp9gP6AHvj7VHqo/KllKQUzbbEDaE1FBm1ELQdrm\r\nAkGsFIJADOnhQKS0Q0FUS0JBFXEiQbgEBEGL2KRAsju0P2hhZz7nTiFAMcKEP1jf8j+0+sE+0c0P\r\nQAQRC0Bgrr8/2HiOP1UHsT54qh8/r46QPvPDYz4gBqU8WgY2Pm9sST44NfM+1E6zPUoUxz6PhJc+\r\ndf/FPXp61z2OHkc+VxjMPmYWxT+k+nZAIt4pQV70f0GOFLZBj/xoQiu4mEIafqxC+4OIQqcVj0Jw\r\nE2hCKHBcQkpwB0JFXBtCCp/UQRY11UF+9AlBdYiCQdwLQUH34xBBpvDWQDVrCEFV51pB9n6WQV+9\r\n2kEmDvxB9YcJQjBa9kFTiAFCV431QT008EF/WNFBajWtQfOxaUH5yH1BteNQQQfTeEHKlEhBbsc3\r\nQdWU/UAOGrJAq4ZmQIyCLUDXo7E/sxr1PzO6/T+SfRxA0CYlQGe+WEBlNyxALvENQDFX8D9UBNU/\r\nnsmwPw+Ynj9+4l4/KLE0P7Az/j5p/t0+bovDPggEkT5+TQU+H0DAPQoEdT0BiX09uO39PEEwFT2h\r\njZc8O+jnO0gRkTuxbHc7nJedOwqoFDuahW07s6buOkGo+DrGcrY6u3FjOhF/tDqvYGU5reNoOnbH\r\nDTnNkRY6gFjpOEHSIzoSvQM5M/c9OvpV7jhnXBw6b20HOSsO0jnOnpg5lP1MOXp+3jkbVbQ4abyf\r\nOTxqbjkJMTg5Zku7OTB7vji7vyM5xDjCOZD0kDnqCxY5++HiOIxoozjA0sc4+PCyOfn06DmbdQw5\r\nZFeQOEyMQTmmqOw40Q0DOS0TjTmbpqg4XnuHOA+5CDnqPqQ4MLy3OBwajjga0as4IuqHONWBjDi0\r\n/3w4cHR/OGBJgTiHDnk4j8N2OPh/cjilv4A45Pd9OIh/fDjGmr44UthLOTDODDm55m04NWQ1OU8+\r\nyzimWCU558Y4OUp0BznkX2U4NfLbOGoq0jgcOsY4YndeOCDhyDjCfSQ5W8ATOUBMhzlsQHc4WDNn\r\nOK6f3DimqKM4spwzOWJyFDkIwGQ4JL9kOAwbdjhQ02g4I/leONsXgDis50Y4zplbOGoKUDhd3Us4\r\nyKlxONI5WTj2y0E4zC9WODqxgTj83Gk4kIdLOObtajhSozs4YApGOBo4VziM+0E4hIdKOFQGMTio\r\nMVc45HdVOPjsTziTzEc4YspAODpMZjgaym04yu48OBgEYziWkT04s/tCOCweSziOBWY4UKNgOBhC\r\nUDjwUEE4PUNBOBpYWzgC/iA41bRMOEhRNThcQzg4UjR3OKLfMDjmPiE4BDJcOMdYQThaSUE4YAE9\r\nONzBPzgsOFs4AqtNONnsKDi0RSw4oC5HOG9MSjhgWCY4YiMkOIZHSzgbgjs40G06OAD5RDhmDjg4\r\nNBg+OMhMQTisEzE4YpJCOJ9bPjgohzI4nHVDOBJjQThqYjQ4hHMrOLhOHDgdYSY4zGAeOCT0JDiD\r\nxR44GHgqONoqMThQIyI4kJEoOJZzPjiqGj04qm4sOMEQLTgUATs46FgoOApxFDixpy04kJYlOEZ2\r\nKzjqiRQ4fpI1OB0XUTg+2zA4c/9yOMbOhjjypDM48ZkIODqqHTjeNTQ4lTgvOG6HFThxhR04uAIl\r\nONrhMThWXkI4MT8xOH1XJTh6gSA4EaokOD4WIDgHwxE4YpcVOMBFJTgUWBQ4ZMcSON6OGzi1+/Y3\r\nP2QcOG2PAzgc3RU4Tdg7OO0tCDiEug44ZJcPOAGgKTgm7vY3UlwUOJAmEji4gxQ45rkMOMfhKTh8\r\nNwU4XhgMOKptKDjduRo4PwQOOAYVKTiCrgk40PEOOKKpAThLnhc4mIMPOMwDEjjIjxU4SxoyOBy9\r\nBDh29Os3pBEbOJ4JCzgW8B444voVODnJAThTKwY4rLoOOPAVBjg8Ywg4KAUIOCvACjiajxA48m0U\r\nOPAd8jdSTA44nNnuNxl7CTgcqes3HMQDOI9dHTjlbQM493oOOBUrETghF/g3AKgMOKjuFDglxxk4\r\nCmz9N1I2ADgVpPo31PsTOCs6FTi8pAs4tXD0N0PhEjjE9yY4uBEKOJg66DfBXgI4/loAOPRrCjjJ\r\n5dc3ylINOGjRAThCpf43roIDOBil8TefcgM4oqYFOF2hAjhGIgc43HXvNzTTDTjMYe83ikYNOANV\r\nBzjA4u43JfUQOJTw4DcqkdM3HvXfN9DmADgbnOM3IQ8AOMqQ5TeEugw4/8/MN7RQ/DeRFe43a/wV\r\nOAPD9zdwSRM4IsHqN0EE4zcc0/I3Kp3mNzUM6Td75RQ4JFUCOCvbBDiYePY3NibvNzHv6TfSqv83\r\nzkzfN0dP2jd/++Y3c60DOF6D+zcvJwY4yrjsN9up3TcejAQ4skTmNxlEADhTn/A3n3nON6gY+DeY\r\nZgI4neb7NwlE+jc6TOs3Blf0N0TVwTdfW9U388L3NxNO6zc9zwM4BJTLNxJg9jdweO43WDj1N6E0\r\nyTcgJ8g3UQLrN+XM4zdZ3Pg3gw7MN7QD/DeGV/M3WDDgN7n0wzdyeeU3JVDgNyJW6DeCuuo3rnfW\r\nN/Ic1TdsLNc3xyPEN6Xe5DfGp783ElzWN9Ci6zdzGPQ3nZgAOLHD0jcEC843enzWNyLo7jfzjvU3\r\nPvHmN+SL3zdMjso3ZsLxN3wf9Tfv9N83OsfRN35o4Tcz7cc3KHXnN30I7zfVRAc4PLTYNzKczDeN\r\nHPs3UvjIN/iL2zfZUvY320m+NyBV4DeowPo3JMkDOEeM2Dfnr9c3VRzYN+bguzd0Y9E3d1/EN2I/\r\n4DcZHOE3SM3CN2oRsjeJfNg3yCL5N1YrvTeW+cg3+i7dN/Od+Dcgt7s3ktHSN65twjcag9g3ZsLF\r\nN7uDyzfNYsY3jKzNN9ndyzeE4Ns3j8vBN4hwxjfat703G0/mN0PDxzcH+8o3vhHFN8n47Td6NO43\r\nGPLdNwnOpzfiU+03Qbm3N+bj3DfH0Qo4tPrEN/AZwDfyVQI4QV27N3IGzTfQZbE3nBCqN2Hi1Tf+\r\n3dA3Fl7IN0SV0TfNl8U35mzXNzu1yTcVFec3OovvNyMB4zc14dE3tj2YN129qzeqlsI3oD7pN57k\r\nzzcQc7w3GEvGN0/M1DetE9A31VfNN+ldwDdD8cA35W28N0qpxTcUT7U3rlifN2bH2zeCWI83Qn0C\r\nOE7qqTfiI8c39o3oN/fNzTciBKE38pTCN7F3wjeo76o3Mc6aN8oOsDcQ59M3UMngN2fTtDdkOLo3\r\nzn2uNyihkDe2dLE3PK+5Nze/0TcVd5g30gKWNwLQtjexj+s3BFTEN+X/pTdMiYY3KHemN6sh2zdO\r\ni9A3a0uhNy3EyjePVMA3mTqZN6vKwjfdN6Y3BwapNwr84zdnvO83mG3vN4Xwrjem6pg3uu6sN+nX\r\nrDezKco3ORiYN5ZG3jd5rsM3Sh67NzFttTcGfrA3JSvwNzY1qjdHB7Y3jK+xN4dLyzdkdNA3O8Pf\r\nN5swxjcSpcA31m63N0XayjfJS943sM/mN96cnDei7NM3OGXLN0VTojda+I83OReSN4+a0Dfsy7U3\r\nt0O8N9ToujcMOq03oJOcNyuSyjfXCr03NVSzN+hqsTcTSss3ijvHNwKFrDdSubA3Yae3N8fYqTeP\r\ne6I3jKW0N/Yqqjdu8do3Uya5N53PtzdAQqY3QmOyN6ZUyDc1Lrg3ULfhN/nwsTfei5o3nmyoN4jc\r\nwDc5p+Q35T7QN29CvzfNfa43dxXEN9d6ujcbMb83vPvIN3thwTdPAMM3ILTON3qgqTdT4Lg36DTR\r\nN7QLxjcy8qU3lkTgN+A7oTcEZ7k33lWON0E5ojdXq8A3NECnN7MevTfv26w3pZfNN5XvkTeIIpc3\r\nyLHEN9kvxTe9GqY3TerFN+zWtjf6GKU31DvbN0bSrzdmwLw3w47AN9yjqzfZNco3TnSpN4Y1zjcW\r\nupc3DOXRN5DZsTdyg7g3ax6fNwTg0Tc3WKM3Yu6oN8D6rTdto9A3sb+pN3IUsjcPVbQ3EtaiNzOE\r\nqzckqrg3ewevN8Uoujc8SLE3A6ayN+plsjcyudE3BoqMN44BrDddi7w3AEzRN0oEuDfJrZQ3mHrL\r\nN3pIvDeapJ03bd2SN1wusTfcoKc3kdfeNzu6yTcZU703I7etN2l5tzdMF9A3AAjDNw==",
                            "noiseTrainingType" : "default"
                          }
                        }
                    ],
                    "start" : 4650,
                    "duration" : 1167,
                    "mediaStart" : 366,
                    "mediaDuration" : 1167,
                    "scalar" : 1,
                    "metadata" : {
                      "WinSubProjectDisplayName" : "",
                      "clipSpeedAttribute" : false
                    },
                    "animationTracks" : {

                    }
                  },
                  {
                    "id" : 129,
                    "_type" : "AMFile",
                    "src" : 3,
                    "trackNumber" : 1,
                    "attributes" : {
                      "ident" : "tower-columns-03",
                      "sampleRate" : 44100,
                      "bitDepth" : 16,
                      "gain" : 1.0,
                      "mixToMono" : false
                    },
                      "channelNumber" : "0,1",
                    "effects" : [
                        {
                          "effectName" : "NoiseReduction",
                          "category" : "categoryAudioEffects",
                          "parameters" : {
                            "denoiserAmount" : 20.0,
                            "denoiserThreshold" : 0.0,
                            "noiseProfile" : "eSaGPvdD/D52nuU+M71nP75wzUDWlOpB3s5cQJDRrT/8uQpAM2auQEi22j74AYA/fqCOP3qN2UAj\r\nayNARwL7Pq0pVj6v3Rs/pyWcPk1kaj6FN7I+Lqm/Pvslnz45GXY/gHhQP0/6Dj+qD48+LXZWPyWq\r\nTz8KwkJAeug7Qa39lkA4xFVBJjeIQY58d0FEUZlA7LXVQc2hhkBZ3vdAWbGlQPg8cT/oY3k/hJjO\r\nP3/sFT+j2GQ/1GBhP9g5hz/q2Z4/DtgsQCtTRD9TVBs/7iLPP5RHhD+sg1k/i8CPP7c2Wz/4xNA+\r\nh5gaP4JEzT6P6BM/5j0PP7n68D7ysqQ/xykjQCEbZECIn0k/JmUGP7qysT8Hdzw/rg2KQAgObz8Q\r\nlz8/5hlxPuVZBj8tQeY/MXb/PpxQgj7u8y4/rxj7Pjo9Zz53958+Lpa8Pckr1T2vmx0+so04PjiB\r\nVT+A+mI+0aOZPYKIqT3QNNI9WOZaPWVYCT7TXrc+pnOQPhQOWz5BMSc+CkYnPaJ+Kz1SYyw+UA9b\r\nPl0UNj2mOZE9uLj9PPoBUj2j4Sg9ME23PaQEQT4RywQ+ZWOoPSv54jxVH9Y9k60MPTV1Mz1xoIg9\r\nvqfnPQyaij7Fvos+LzsXP0bo3D5SEvc+QsY1P/xB0zxSlE09PxWbPsFWoT4fX7s+xNNlPyeFqz/F\r\nvrU/ZgARPpQ/Aj8biQ8++7FBPIU3rj6zxkY/zPzIPt69AECKkdc+gU9PPQMtXT1JcEk988aYPXLa\r\nsT6o4jQ/d2wsP9ahGz9t5sE/hmWLPxkarT9pPmw/SV39PboiVj46KYo95u+9PBX8Fj7ys/I9kO8T\r\nPy1vCD9tazo/VN0GP4+PjD5XhwY9fxPgPhnTzz4KR+g+CNBAPu5znT6bUPA9o4PFPibhAj+s19M+\r\nASz2PtZOfT90I9g/n5SHQDrhu0B5tTxBfcFNQflGeUExM5ZBhMelQRpA4kGf3ABCnEbsQV1Gw0Hx\r\nKUJBPLKUQRbEikHp7pdBAlq+QTUzmkFCmr1Bw3e4QdoTsEH6JMJBSjvGQbIKxkETEhhBIpeQQeJb\r\nOUFBgM9AoOQUQGBuEkBx+CZAOcyyP1ETCz/41QI9UUboPSXbyj1DcgA902OmPY4BFT7GHvg+bMPW\r\nPnqDyj5u4+8+xo1dPz7/bD+ED/0+VDsdPjFolD5ZCi8+af7SPDMtnjxosUE9E1hIPZ/3Bz1tdZk9\r\neGXePRNEDj3K4mk8Juu2PELBOD2+oSI8NbO3PHnNzDyQVy89UP/nPbKGqT51diE/23/aPV25VkCq\r\ncZQ/0SFoPxvtBT/iVyZAYgYaPrAAXD5vPXQ/LzutQDqfYD+gB74+1R6qPypZSkFM22xA2hNRQZtR\r\nC0Ha5gJBrBSCQAzp4UCktENBVEtCQRVxIkG4BARBi9ikQLI7tD9oYWc+504hQDHChD9Y3/I/tPrB\r\nPtHND0AEEQtAYK6/P9h4jj9VB7E+eKofP6+OkD7zw2M+YDqlPFoGNj5vbEk+ODXzPtROsz1KFMc+\r\nj4SXPnX/xT16etc9jh5HPlcYzD5mFsU/pPp2QCLeKUFe9H9BjhS2QY/8aEIruJhCGn6sQvuDiEKn\r\nFY9CcBNoQihwXEJKcAdCRVwbQgqf1EEWNdVBfvQJQXWIgkHcC0FB9+MQQabw1kA1awhBVedaQfZ+\r\nlkFfvdpBJg78QfWHCUIwWvZBU4gBQleN9UE9NPBBf1jRQWo1rUHzsWlB+ch9QbXjUEEH03hBypRI\r\nQW7HN0HVlP1ADhqyQKuGZkCMgi1A16OxP7Ma9T8zuv0/kn0cQNAmJUBnvlhAZTcsQC7xDUAxV/A/\r\nVATVP57JsD8PmJ4/fuJePyixND+wM/4+af7dPm6Lwz4IBJE+fk0FPh9AwD0KBHU9AYl9Pbjt/TxB\r\nMBU9oY2XPDvo5ztIEZE7sWx3O5yXnTsKqBQ7moVtO7Om7jpBqPg6xnK2OrtxYzoRf7Q6r2BlOa3j\r\naDp2xw05zZEWOoBY6ThB0iM6Er0DOTP3PTr6Ve44Z1wcOm9tBzkrDtI5zp6YOZT9TDl6ft45G1W0\r\nOGm8nzk8am45CTE4OWZLuzkwe744u78jOcQ4wjmQ9JA56gsWOfvh4jiMaKM4wNLHOPjwsjn59Og5\r\nm3UMOWRXkDhMjEE5pqjsONENAzktE405m6aoOF57hzgPuQg56j6kODC8tzgcGo44GtGrOCLqhzjV\r\ngYw4tP98OHB0fzhgSYE4hw55OI/Ddjj4f3I4pb+AOOT3fTiIf3w4xpq+OFLYSzkwzgw5ueZtODVk\r\nNTlPPss4plglOefGODlKdAc55F9lODXy2zhqKtI4HDrGOGJ3Xjgg4cg4wn0kOVvAEzlATIc5bEB3\r\nOFgzZziun9w4pqijOLKcMzlichQ5CMBkOCS/ZDgMG3Y4UNNoOCP5XjjbF4A4rOdGOM6ZWzhqClA4\r\nXd1LOMipcTjSOVk49stBOMwvVjg6sYE4/NxpOJCHSzjm7Wo4UqM7OGAKRjgaOFc4jPtBOISHSjhU\r\nBjE4qDFXOOR3VTj47E84k8xHOGLKQDg6TGY4GsptOMruPDgYBGM4lpE9OLP7QjgsHks4jgVmOFCj\r\nYDgYQlA48FBBOD1DQTgaWFs4Av4gONW0TDhIUTU4XEM4OFI0dzii3zA45j4hOAQyXDjHWEE4WklB\r\nOGABPTjcwT84LDhbOAKrTTjZ7Cg4tEUsOKAuRzhvTEo4YFgmOGIjJDiGR0s4G4I7ONBtOjgA+UQ4\r\nZg44ODQYPjjITEE4rBMxOGKSQjifWz44KIcyOJx1QzgSY0E4amI0OIRzKzi4Thw4HWEmOMxgHjgk\r\n9CQ4g8UeOBh4KjjaKjE4UCMiOJCRKDiWcz44qho9OKpuLDjBEC04FAE7OOhYKDgKcRQ4sactOJCW\r\nJThGdis46okUOH6SNTgdF1E4PtswOHP/cjjGzoY48qQzOPGZCDg6qh043jU0OJU4LzhuhxU4cYUd\r\nOLgCJTja4TE4Vl5CODE/MTh9VyU4eoEgOBGqJDg+FiA4B8MROGKXFTjARSU4FFgUOGTHEjjejhs4\r\ntfv2Nz9kHDhtjwM4HN0VOE3YOzjtLQg4hLoOOGSXDzgBoCk4Ju72N1JcFDiQJhI4uIMUOOa5DDjH\r\n4Sk4fDcFOF4YDDiqbSg43bkaOD8EDjgGFSk4gq4JONDxDjiiqQE4S54XOJiDDzjMAxI4yI8VOEsa\r\nMjgcvQQ4dvTrN6QRGzieCQs4FvAeOOL6FTg5yQE4UysGOKy6DjjwFQY4PGMIOCgFCDgrwAo4mo8Q\r\nOPJtFDjwHfI3UkwOOJzZ7jcZewk4HKnrNxzEAziPXR045W0DOPd6DjgVKxE4IRf4NwCoDDio7hQ4\r\nJccZOAps/TdSNgA4FaT6N9T7EzgrOhU4vKQLOLVw9DdD4RI4xPcmOLgRCjiYOug3wV4COP5aADj0\r\nawo4yeXXN8pSDTho0QE4QqX+N66CAzgYpfE3n3IDOKKmBThdoQI4RiIHONx17zc00w04zGHvN4pG\r\nDTgDVQc4wOLuNyX1EDiU8OA3KpHTNx713zfQ5gA4G5zjNyEPADjKkOU3hLoMOP/PzDe0UPw3kRXu\r\nN2v8FTgDw/c3cEkTOCLB6jdBBOM3HNPyNyqd5jc1DOk3e+UUOCRVAjgr2wQ4mHj2NzYm7zcx7+k3\r\n0qr/N85M3zdHT9o3f/vmN3OtAzheg/s3LycGOMq47Dfbqd03HowEOLJE5jcZRAA4U5/wN595zjeo\r\nGPg3mGYCOJ3m+zcJRPo3OkzrNwZX9DdE1cE3X1vVN/PC9zcTTus3Pc8DOASUyzcSYPY3cHjuN1g4\r\n9TehNMk3ICfIN1EC6zflzOM3Wdz4N4MOzDe0A/w3hlfzN1gw4De59MM3cnnlNyVQ4DciVug3grrq\r\nN6531jfyHNU3bCzXN8cjxDel3uQ3xqe/NxJc1jfQous3cxj0N52YADixw9I3BAvON3p81jci6O43\r\n8471Nz7x5jfki983TI7KN2bC8Td8H/U37/TfNzrH0Td+aOE3M+3HNyh15zd9CO831UQHODy02Dcy\r\nnMw3jRz7N1L4yDf4i9s32VL2N9tJvjcgVeA3qMD6NyTJAzhHjNg356/XN1Uc2Dfm4Ls3dGPRN3df\r\nxDdiP+A3GRzhN0jNwjdqEbI3iXzYN8gi+TdWK703lvnIN/ou3Tfznfg3ILe7N5LR0jeubcI3GoPY\r\nN2bCxTe7g8s3zWLGN4yszTfZ3cs3hODbN4/LwTeIcMY32re9NxtP5jdDw8c3B/vKN74RxTfJ+O03\r\nejTuNxjy3TcJzqc34lPtN0G5tzfm49w3x9EKOLT6xDfwGcA38lUCOEFduzdyBs030GWxN5wQqjdh\r\n4tU3/t3QNxZeyDdEldE3zZfFN+Zs1zc7tck3FRXnNzqL7zcjAeM3NeHRN7Y9mDddvas3qpbCN6A+\r\n6Tee5M83EHO8NxhLxjdPzNQ3rRPQN9VXzTfpXcA3Q/HAN+VtvDdKqcU3FE+1N65Ynzdmx9s3gliP\r\nN0J9AjhO6qk34iPHN/aN6Df3zc03IgShN/KUwjexd8I3qO+qNzHOmjfKDrA3EOfTN1DJ4Ddn07Q3\r\nZDi6N859rjcooZA3tnSxNzyvuTc3v9E3FXeYN9ICljcC0LY3sY/rNwRUxDfl/6U3TImGNyh3pjer\r\nIds3TovQN2tLoTctxMo3j1TAN5k6mTerysI33TemNwcGqTcK/OM3Z7zvN5ht7zeF8K43puqYN7ru\r\nrDfp16w3synKNzkYmDeWRt43ea7DN0oeuzcxbbU3Bn6wNyUr8Dc2Nao3Rwe2N4yvsTeHS8s3ZHTQ\r\nNzvD3zebMMY3EqXAN9ZutzdF2so3yUveN7DP5jfenJw3ouzTNzhlyzdFU6I3WviPNzkXkjePmtA3\r\n7Mu1N7dDvDfU6Lo3DDqtN6CTnDcrkso31wq9NzVUszfoarE3E0rLN4o7xzcChaw3UrmwN2GntzfH\r\n2Kk3j3uiN4yltDf2Kqo3bvHaN1MmuTedz7c3QEKmN0JjsjemVMg3NS64N1C34Tf58LE33ouaN55s\r\nqDeI3MA3OafkN+U+0DdvQr83zX2uN3cVxDfXero3GzG/N7z7yDd7YcE3TwDDNyC0zjd6oKk3U+C4\r\nN+g00Te0C8Y3MvKlN5ZE4DfgO6E3BGe5N95VjjdBOaI3V6vANzRApzezHr0379usN6WXzTeV75E3\r\niCKXN8ixxDfZL8U3vRqmN03qxTfs1rY3+hilN9Q72zdG0q83ZsC8N8OOwDfco6s32TXKN050qTeG\r\nNc43FrqXNwzl0TeQ2bE3coO4N2senzcE4NE3N1ijN2LuqDfA+q03baPQN7G/qTdyFLI3D1W0NxLW\r\nojczhKs3JKq4N3sHrzfFKLo3PEixNwOmsjfqZbI3MrnRNwaKjDeOAaw3XYu8NwBM0TdKBLg3ya2U\r\nN5h6yzd6SLw3mqSdN23dkjdcLrE33KCnN5HX3jc7usk3GVO9NyO3rTdpebc3TBfQNwAIwzd5JoY+\r\n90P8Pnae5T4zvWc/vnDNQNaU6kHezlxAkNGtP/y5CkAzZq5ASLbaPvgBgD9+oI4/eo3ZQCNrI0BH\r\nAvs+rSlWPpLYGz+nJZw+TWRqPoU3sj4uqb8++yWfPjkZdj+AeFA/T/oOP6oPjz4tdlY/JapPPwrC\r\nQkA36DtBrf2WQDjEVUEmN4hBjnx3QURRmUDTs9VBzaGGQFne90AzqqVAQjhxP+hjeT++os4/RAgW\r\nP6PYZD/UYGE/2DmHP+rZnj8O2CxAK1NEP1NUGz/uIs8/lEeEP6yDWT+LwI8/tzZbP/jE0D6HmBo/\r\ngkTNPo/oEz/mPQ8/ufrwPvKypD/HKSNAIRtkQEuyST8mZQY/urKxPwd3PD8yDopABfhuPxCXPz/m\r\nGXE+5VkGPy1B5j8xdv8+nFCCPtjkLj+wFPs+Oj1nPnf3nz4ulrw9ySvVPa+bHT6yjTg+OIFVP4D6\r\nYj7Ro5k9goipPdA00j1Y5lo9ZVgJPtNetz7dbpA+fupaPkExJz4KRic9on4rPVJjLD5QD1s+XRQ2\r\nPaY5kT24uP08KPVRPaPhKD0wTbc9pARBPhHLBD5lY6g9K/niPFUf1j2TrQw9wo8zPXGgiD0wQOc9\r\nDJqKPsW+iz4vOxc/RujcPlIS9z5CxjU//EHTPFKUTT0/FZs+wVahPh9fuz7E02U/J4WrP8W+tT9m\r\nABE+lD8CPxuJDz77sUE8hTeuPrPGRj/M/Mg+3r0AQIqR1z6BT089Ay1dPUlwST3zxpg9ctqxPqji\r\nND93bCw/1qEbP23mwT+GZYs/GRqtP2k+bD9JXf09uiJWPjopij3m7708FfwWPvKz8j2Q7xM/LW8I\r\nP21rOj9U3QY/j4+MPleHBj1/E+A+GdPPPgpH6D4I0EA+7nOdPptQ8D2jg8U+JuECP6zX0z4BLPY+\r\n1k59P3Qj2D+flIdAOuG7QHm1PEF9wU1B+UZ5QTEzlkGEx6VBGkDiQZ/cAEKcRuxBXUbDQfEpQkE8\r\nspRBFsSKQenul0ECWr5BNTOaQUKavUHDd7hB2hOwQfokwkFKO8ZBsgrGQRMSGEEil5BB4ls5QUGA\r\nz0Cg5BRAYG4SQHH4JkA5zLI/URMLP/jVAj1RRug9JdvKPUNyAD3TY6Y9jgEVPsYe+D5sw9Y+eoPK\r\nPm7j7z7GjV0/Pv9sP4QP/T5UOx0+MWiUPlkKLz5p/tI8My2ePGixQT0TWEg9n/cHPW11mT14Zd49\r\nE0QOPcriaTwm67Y8QsE4Pb6hIjw1s7c8ec3MPJBXLz1Q/+c9soapPnV2IT/bf9o9XblWQKpxlD/R\r\nIWg/G+0FP+JXJkBiBho+sABcPm89dD8vO61AOp9gP6AHvj7VHqo/KllKQUzbbEDaE1FBm1ELQdrm\r\nAkGsFIJADOnhQKS0Q0FUS0JBFXEiQbgEBEGL2KRAsju0P2hhZz7nTiFAMcKEP1jf8j+0+sE+0c0P\r\nQAQRC0Bgrr8/2HiOP1UHsT54qh8/r46QPvPDYz4gBqU8WgY2Pm9sST44NfM+1E6zPUoUxz6PhJc+\r\ndf/FPXp61z2OHkc+VxjMPmYWxT+k+nZAIt4pQV70f0GOFLZBj/xoQiu4mEIafqxC+4OIQqcVj0Jw\r\nE2hCKHBcQkpwB0JFXBtCCp/UQRY11UF+9AlBdYiCQdwLQUH34xBBpvDWQDVrCEFV51pB9n6WQV+9\r\n2kEmDvxB9YcJQjBa9kFTiAFCV431QT008EF/WNFBajWtQfOxaUH5yH1BteNQQQfTeEHKlEhBbsc3\r\nQdWU/UAOGrJAq4ZmQIyCLUDXo7E/sxr1PzO6/T+SfRxA0CYlQGe+WEBlNyxALvENQDFX8D9UBNU/\r\nnsmwPw+Ynj9+4l4/KLE0P7Az/j5p/t0+bovDPggEkT5+TQU+H0DAPQoEdT0BiX09uO39PEEwFT2h\r\njZc8O+jnO0gRkTuxbHc7nJedOwqoFDuahW07s6buOkGo+DrGcrY6u3FjOhF/tDqvYGU5reNoOnbH\r\nDTnNkRY6gFjpOEHSIzoSvQM5M/c9OvpV7jhnXBw6b20HOSsO0jnOnpg5lP1MOXp+3jkbVbQ4abyf\r\nOTxqbjkJMTg5Zku7OTB7vji7vyM5xDjCOZD0kDnqCxY5++HiOIxoozjA0sc4+PCyOfn06DmbdQw5\r\nZFeQOEyMQTmmqOw40Q0DOS0TjTmbpqg4XnuHOA+5CDnqPqQ4MLy3OBwajjga0as4IuqHONWBjDi0\r\n/3w4cHR/OGBJgTiHDnk4j8N2OPh/cjilv4A45Pd9OIh/fDjGmr44UthLOTDODDm55m04NWQ1OU8+\r\nyzimWCU558Y4OUp0BznkX2U4NfLbOGoq0jgcOsY4YndeOCDhyDjCfSQ5W8ATOUBMhzlsQHc4WDNn\r\nOK6f3DimqKM4spwzOWJyFDkIwGQ4JL9kOAwbdjhQ02g4I/leONsXgDis50Y4zplbOGoKUDhd3Us4\r\nyKlxONI5WTj2y0E4zC9WODqxgTj83Gk4kIdLOObtajhSozs4YApGOBo4VziM+0E4hIdKOFQGMTio\r\nMVc45HdVOPjsTziTzEc4YspAODpMZjgaym04yu48OBgEYziWkT04s/tCOCweSziOBWY4UKNgOBhC\r\nUDjwUEE4PUNBOBpYWzgC/iA41bRMOEhRNThcQzg4UjR3OKLfMDjmPiE4BDJcOMdYQThaSUE4YAE9\r\nONzBPzgsOFs4AqtNONnsKDi0RSw4oC5HOG9MSjhgWCY4YiMkOIZHSzgbgjs40G06OAD5RDhmDjg4\r\nNBg+OMhMQTisEzE4YpJCOJ9bPjgohzI4nHVDOBJjQThqYjQ4hHMrOLhOHDgdYSY4zGAeOCT0JDiD\r\nxR44GHgqONoqMThQIyI4kJEoOJZzPjiqGj04qm4sOMEQLTgUATs46FgoOApxFDixpy04kJYlOEZ2\r\nKzjqiRQ4fpI1OB0XUTg+2zA4c/9yOMbOhjjypDM48ZkIODqqHTjeNTQ4lTgvOG6HFThxhR04uAIl\r\nONrhMThWXkI4MT8xOH1XJTh6gSA4EaokOD4WIDgHwxE4YpcVOMBFJTgUWBQ4ZMcSON6OGzi1+/Y3\r\nP2QcOG2PAzgc3RU4Tdg7OO0tCDiEug44ZJcPOAGgKTgm7vY3UlwUOJAmEji4gxQ45rkMOMfhKTh8\r\nNwU4XhgMOKptKDjduRo4PwQOOAYVKTiCrgk40PEOOKKpAThLnhc4mIMPOMwDEjjIjxU4SxoyOBy9\r\nBDh29Os3pBEbOJ4JCzgW8B444voVODnJAThTKwY4rLoOOPAVBjg8Ywg4KAUIOCvACjiajxA48m0U\r\nOPAd8jdSTA44nNnuNxl7CTgcqes3HMQDOI9dHTjlbQM493oOOBUrETghF/g3AKgMOKjuFDglxxk4\r\nCmz9N1I2ADgVpPo31PsTOCs6FTi8pAs4tXD0N0PhEjjE9yY4uBEKOJg66DfBXgI4/loAOPRrCjjJ\r\n5dc3ylINOGjRAThCpf43roIDOBil8TefcgM4oqYFOF2hAjhGIgc43HXvNzTTDTjMYe83ikYNOANV\r\nBzjA4u43JfUQOJTw4DcqkdM3HvXfN9DmADgbnOM3IQ8AOMqQ5TeEugw4/8/MN7RQ/DeRFe43a/wV\r\nOAPD9zdwSRM4IsHqN0EE4zcc0/I3Kp3mNzUM6Td75RQ4JFUCOCvbBDiYePY3NibvNzHv6TfSqv83\r\nzkzfN0dP2jd/++Y3c60DOF6D+zcvJwY4yrjsN9up3TcejAQ4skTmNxlEADhTn/A3n3nON6gY+DeY\r\nZgI4neb7NwlE+jc6TOs3Blf0N0TVwTdfW9U388L3NxNO6zc9zwM4BJTLNxJg9jdweO43WDj1N6E0\r\nyTcgJ8g3UQLrN+XM4zdZ3Pg3gw7MN7QD/DeGV/M3WDDgN7n0wzdyeeU3JVDgNyJW6DeCuuo3rnfW\r\nN/Ic1TdsLNc3xyPEN6Xe5DfGp783ElzWN9Ci6zdzGPQ3nZgAOLHD0jcEC843enzWNyLo7jfzjvU3\r\nPvHmN+SL3zdMjso3ZsLxN3wf9Tfv9N83OsfRN35o4Tcz7cc3KHXnN30I7zfVRAc4PLTYNzKczDeN\r\nHPs3UvjIN/iL2zfZUvY320m+NyBV4DeowPo3JMkDOEeM2Dfnr9c3VRzYN+bguzd0Y9E3d1/EN2I/\r\n4DcZHOE3SM3CN2oRsjeJfNg3yCL5N1YrvTeW+cg3+i7dN/Od+Dcgt7s3ktHSN65twjcag9g3ZsLF\r\nN7uDyzfNYsY3jKzNN9ndyzeE4Ns3j8vBN4hwxjfat703G0/mN0PDxzcH+8o3vhHFN8n47Td6NO43\r\nGPLdNwnOpzfiU+03Qbm3N+bj3DfH0Qo4tPrEN/AZwDfyVQI4QV27N3IGzTfQZbE3nBCqN2Hi1Tf+\r\n3dA3Fl7IN0SV0TfNl8U35mzXNzu1yTcVFec3OovvNyMB4zc14dE3tj2YN129qzeqlsI3oD7pN57k\r\nzzcQc7w3GEvGN0/M1DetE9A31VfNN+ldwDdD8cA35W28N0qpxTcUT7U3rlifN2bH2zeCWI83Qn0C\r\nOE7qqTfiI8c39o3oN/fNzTciBKE38pTCN7F3wjeo76o3Mc6aN8oOsDcQ59M3UMngN2fTtDdkOLo3\r\nzn2uNyihkDe2dLE3PK+5Nze/0TcVd5g30gKWNwLQtjexj+s3BFTEN+X/pTdMiYY3KHemN6sh2zdO\r\ni9A3a0uhNy3EyjePVMA3mTqZN6vKwjfdN6Y3BwapNwr84zdnvO83mG3vN4Xwrjem6pg3uu6sN+nX\r\nrDezKco3ORiYN5ZG3jd5rsM3Sh67NzFttTcGfrA3JSvwNzY1qjdHB7Y3jK+xN4dLyzdkdNA3O8Pf\r\nN5swxjcSpcA31m63N0XayjfJS943sM/mN96cnDei7NM3OGXLN0VTojda+I83OReSN4+a0Dfsy7U3\r\nt0O8N9ToujcMOq03oJOcNyuSyjfXCr03NVSzN+hqsTcTSss3ijvHNwKFrDdSubA3Yae3N8fYqTeP\r\ne6I3jKW0N/Yqqjdu8do3Uya5N53PtzdAQqY3QmOyN6ZUyDc1Lrg3ULfhN/nwsTfei5o3nmyoN4jc\r\nwDc5p+Q35T7QN29CvzfNfa43dxXEN9d6ujcbMb83vPvIN3thwTdPAMM3ILTON3qgqTdT4Lg36DTR\r\nN7QLxjcy8qU3lkTgN+A7oTcEZ7k33lWON0E5ojdXq8A3NECnN7MevTfv26w3pZfNN5XvkTeIIpc3\r\nyLHEN9kvxTe9GqY3TerFN+zWtjf6GKU31DvbN0bSrzdmwLw3w47AN9yjqzfZNco3TnSpN4Y1zjcW\r\nupc3DOXRN5DZsTdyg7g3ax6fNwTg0Tc3WKM3Yu6oN8D6rTdto9A3sb+pN3IUsjcPVbQ3EtaiNzOE\r\nqzckqrg3ewevN8Uoujc8SLE3A6ayN+plsjcyudE3BoqMN44BrDddi7w3AEzRN0oEuDfJrZQ3mHrL\r\nN3pIvDeapJ03bd2SN1wusTfcoKc3kdfeNzu6yTcZU703I7etN2l5tzdMF9A3AAjDNw==",
                            "noiseTrainingType" : "default"
                          }
                        }
                    ],
                    "start" : 5817,
                    "duration" : 100,
                    "mediaStart" : 1564,
                    "mediaDuration" : 100,
                    "scalar" : 1,
                    "metadata" : {
                      "WinSubProjectDisplayName" : "",
                      "clipSpeedAttribute" : false
                    },
                    "animationTracks" : {

                    }
                  },
                  {
                    "id" : 130,
                    "_type" : "AMFile",
                    "src" : 3,
                    "trackNumber" : 1,
                    "attributes" : {
                      "ident" : "tower-columns-03",
                      "sampleRate" : 44100,
                      "bitDepth" : 16,
                      "gain" : 1.0,
                      "mixToMono" : false
                    },
                      "channelNumber" : "0,1",
                    "effects" : [
                        {
                          "effectName" : "NoiseReduction",
                          "category" : "categoryAudioEffects",
                          "parameters" : {
                            "denoiserAmount" : 20.0,
                            "denoiserThreshold" : 0.0,
                            "noiseProfile" : "eSaGPvdD/D52nuU+M71nP75wzUDWlOpB3s5cQJDRrT/8uQpAM2auQEi22j74AYA/fqCOP3qN2UAj\r\nayNARwL7Pq0pVj6v3Rs/pyWcPk1kaj6FN7I+Lqm/Pvslnz45GXY/gHhQP0/6Dj+qD48+LXZWPyWq\r\nTz8KwkJAeug7Qa39lkA4xFVBJjeIQY58d0FEUZlA7LXVQc2hhkBZ3vdAWbGlQPg8cT/oY3k/hJjO\r\nP3/sFT+j2GQ/1GBhP9g5hz/q2Z4/DtgsQCtTRD9TVBs/7iLPP5RHhD+sg1k/i8CPP7c2Wz/4xNA+\r\nh5gaP4JEzT6P6BM/5j0PP7n68D7ysqQ/xykjQCEbZECIn0k/JmUGP7qysT8Hdzw/rg2KQAgObz8Q\r\nlz8/5hlxPuVZBj8tQeY/MXb/PpxQgj7u8y4/rxj7Pjo9Zz53958+Lpa8Pckr1T2vmx0+so04PjiB\r\nVT+A+mI+0aOZPYKIqT3QNNI9WOZaPWVYCT7TXrc+pnOQPhQOWz5BMSc+CkYnPaJ+Kz1SYyw+UA9b\r\nPl0UNj2mOZE9uLj9PPoBUj2j4Sg9ME23PaQEQT4RywQ+ZWOoPSv54jxVH9Y9k60MPTV1Mz1xoIg9\r\nvqfnPQyaij7Fvos+LzsXP0bo3D5SEvc+QsY1P/xB0zxSlE09PxWbPsFWoT4fX7s+xNNlPyeFqz/F\r\nvrU/ZgARPpQ/Aj8biQ8++7FBPIU3rj6zxkY/zPzIPt69AECKkdc+gU9PPQMtXT1JcEk988aYPXLa\r\nsT6o4jQ/d2wsP9ahGz9t5sE/hmWLPxkarT9pPmw/SV39PboiVj46KYo95u+9PBX8Fj7ys/I9kO8T\r\nPy1vCD9tazo/VN0GP4+PjD5XhwY9fxPgPhnTzz4KR+g+CNBAPu5znT6bUPA9o4PFPibhAj+s19M+\r\nASz2PtZOfT90I9g/n5SHQDrhu0B5tTxBfcFNQflGeUExM5ZBhMelQRpA4kGf3ABCnEbsQV1Gw0Hx\r\nKUJBPLKUQRbEikHp7pdBAlq+QTUzmkFCmr1Bw3e4QdoTsEH6JMJBSjvGQbIKxkETEhhBIpeQQeJb\r\nOUFBgM9AoOQUQGBuEkBx+CZAOcyyP1ETCz/41QI9UUboPSXbyj1DcgA902OmPY4BFT7GHvg+bMPW\r\nPnqDyj5u4+8+xo1dPz7/bD+ED/0+VDsdPjFolD5ZCi8+af7SPDMtnjxosUE9E1hIPZ/3Bz1tdZk9\r\neGXePRNEDj3K4mk8Juu2PELBOD2+oSI8NbO3PHnNzDyQVy89UP/nPbKGqT51diE/23/aPV25VkCq\r\ncZQ/0SFoPxvtBT/iVyZAYgYaPrAAXD5vPXQ/LzutQDqfYD+gB74+1R6qPypZSkFM22xA2hNRQZtR\r\nC0Ha5gJBrBSCQAzp4UCktENBVEtCQRVxIkG4BARBi9ikQLI7tD9oYWc+504hQDHChD9Y3/I/tPrB\r\nPtHND0AEEQtAYK6/P9h4jj9VB7E+eKofP6+OkD7zw2M+YDqlPFoGNj5vbEk+ODXzPtROsz1KFMc+\r\nj4SXPnX/xT16etc9jh5HPlcYzD5mFsU/pPp2QCLeKUFe9H9BjhS2QY/8aEIruJhCGn6sQvuDiEKn\r\nFY9CcBNoQihwXEJKcAdCRVwbQgqf1EEWNdVBfvQJQXWIgkHcC0FB9+MQQabw1kA1awhBVedaQfZ+\r\nlkFfvdpBJg78QfWHCUIwWvZBU4gBQleN9UE9NPBBf1jRQWo1rUHzsWlB+ch9QbXjUEEH03hBypRI\r\nQW7HN0HVlP1ADhqyQKuGZkCMgi1A16OxP7Ma9T8zuv0/kn0cQNAmJUBnvlhAZTcsQC7xDUAxV/A/\r\nVATVP57JsD8PmJ4/fuJePyixND+wM/4+af7dPm6Lwz4IBJE+fk0FPh9AwD0KBHU9AYl9Pbjt/TxB\r\nMBU9oY2XPDvo5ztIEZE7sWx3O5yXnTsKqBQ7moVtO7Om7jpBqPg6xnK2OrtxYzoRf7Q6r2BlOa3j\r\naDp2xw05zZEWOoBY6ThB0iM6Er0DOTP3PTr6Ve44Z1wcOm9tBzkrDtI5zp6YOZT9TDl6ft45G1W0\r\nOGm8nzk8am45CTE4OWZLuzkwe744u78jOcQ4wjmQ9JA56gsWOfvh4jiMaKM4wNLHOPjwsjn59Og5\r\nm3UMOWRXkDhMjEE5pqjsONENAzktE405m6aoOF57hzgPuQg56j6kODC8tzgcGo44GtGrOCLqhzjV\r\ngYw4tP98OHB0fzhgSYE4hw55OI/Ddjj4f3I4pb+AOOT3fTiIf3w4xpq+OFLYSzkwzgw5ueZtODVk\r\nNTlPPss4plglOefGODlKdAc55F9lODXy2zhqKtI4HDrGOGJ3Xjgg4cg4wn0kOVvAEzlATIc5bEB3\r\nOFgzZziun9w4pqijOLKcMzlichQ5CMBkOCS/ZDgMG3Y4UNNoOCP5XjjbF4A4rOdGOM6ZWzhqClA4\r\nXd1LOMipcTjSOVk49stBOMwvVjg6sYE4/NxpOJCHSzjm7Wo4UqM7OGAKRjgaOFc4jPtBOISHSjhU\r\nBjE4qDFXOOR3VTj47E84k8xHOGLKQDg6TGY4GsptOMruPDgYBGM4lpE9OLP7QjgsHks4jgVmOFCj\r\nYDgYQlA48FBBOD1DQTgaWFs4Av4gONW0TDhIUTU4XEM4OFI0dzii3zA45j4hOAQyXDjHWEE4WklB\r\nOGABPTjcwT84LDhbOAKrTTjZ7Cg4tEUsOKAuRzhvTEo4YFgmOGIjJDiGR0s4G4I7ONBtOjgA+UQ4\r\nZg44ODQYPjjITEE4rBMxOGKSQjifWz44KIcyOJx1QzgSY0E4amI0OIRzKzi4Thw4HWEmOMxgHjgk\r\n9CQ4g8UeOBh4KjjaKjE4UCMiOJCRKDiWcz44qho9OKpuLDjBEC04FAE7OOhYKDgKcRQ4sactOJCW\r\nJThGdis46okUOH6SNTgdF1E4PtswOHP/cjjGzoY48qQzOPGZCDg6qh043jU0OJU4LzhuhxU4cYUd\r\nOLgCJTja4TE4Vl5CODE/MTh9VyU4eoEgOBGqJDg+FiA4B8MROGKXFTjARSU4FFgUOGTHEjjejhs4\r\ntfv2Nz9kHDhtjwM4HN0VOE3YOzjtLQg4hLoOOGSXDzgBoCk4Ju72N1JcFDiQJhI4uIMUOOa5DDjH\r\n4Sk4fDcFOF4YDDiqbSg43bkaOD8EDjgGFSk4gq4JONDxDjiiqQE4S54XOJiDDzjMAxI4yI8VOEsa\r\nMjgcvQQ4dvTrN6QRGzieCQs4FvAeOOL6FTg5yQE4UysGOKy6DjjwFQY4PGMIOCgFCDgrwAo4mo8Q\r\nOPJtFDjwHfI3UkwOOJzZ7jcZewk4HKnrNxzEAziPXR045W0DOPd6DjgVKxE4IRf4NwCoDDio7hQ4\r\nJccZOAps/TdSNgA4FaT6N9T7EzgrOhU4vKQLOLVw9DdD4RI4xPcmOLgRCjiYOug3wV4COP5aADj0\r\nawo4yeXXN8pSDTho0QE4QqX+N66CAzgYpfE3n3IDOKKmBThdoQI4RiIHONx17zc00w04zGHvN4pG\r\nDTgDVQc4wOLuNyX1EDiU8OA3KpHTNx713zfQ5gA4G5zjNyEPADjKkOU3hLoMOP/PzDe0UPw3kRXu\r\nN2v8FTgDw/c3cEkTOCLB6jdBBOM3HNPyNyqd5jc1DOk3e+UUOCRVAjgr2wQ4mHj2NzYm7zcx7+k3\r\n0qr/N85M3zdHT9o3f/vmN3OtAzheg/s3LycGOMq47Dfbqd03HowEOLJE5jcZRAA4U5/wN595zjeo\r\nGPg3mGYCOJ3m+zcJRPo3OkzrNwZX9DdE1cE3X1vVN/PC9zcTTus3Pc8DOASUyzcSYPY3cHjuN1g4\r\n9TehNMk3ICfIN1EC6zflzOM3Wdz4N4MOzDe0A/w3hlfzN1gw4De59MM3cnnlNyVQ4DciVug3grrq\r\nN6531jfyHNU3bCzXN8cjxDel3uQ3xqe/NxJc1jfQous3cxj0N52YADixw9I3BAvON3p81jci6O43\r\n8471Nz7x5jfki983TI7KN2bC8Td8H/U37/TfNzrH0Td+aOE3M+3HNyh15zd9CO831UQHODy02Dcy\r\nnMw3jRz7N1L4yDf4i9s32VL2N9tJvjcgVeA3qMD6NyTJAzhHjNg356/XN1Uc2Dfm4Ls3dGPRN3df\r\nxDdiP+A3GRzhN0jNwjdqEbI3iXzYN8gi+TdWK703lvnIN/ou3Tfznfg3ILe7N5LR0jeubcI3GoPY\r\nN2bCxTe7g8s3zWLGN4yszTfZ3cs3hODbN4/LwTeIcMY32re9NxtP5jdDw8c3B/vKN74RxTfJ+O03\r\nejTuNxjy3TcJzqc34lPtN0G5tzfm49w3x9EKOLT6xDfwGcA38lUCOEFduzdyBs030GWxN5wQqjdh\r\n4tU3/t3QNxZeyDdEldE3zZfFN+Zs1zc7tck3FRXnNzqL7zcjAeM3NeHRN7Y9mDddvas3qpbCN6A+\r\n6Tee5M83EHO8NxhLxjdPzNQ3rRPQN9VXzTfpXcA3Q/HAN+VtvDdKqcU3FE+1N65Ynzdmx9s3gliP\r\nN0J9AjhO6qk34iPHN/aN6Df3zc03IgShN/KUwjexd8I3qO+qNzHOmjfKDrA3EOfTN1DJ4Ddn07Q3\r\nZDi6N859rjcooZA3tnSxNzyvuTc3v9E3FXeYN9ICljcC0LY3sY/rNwRUxDfl/6U3TImGNyh3pjer\r\nIds3TovQN2tLoTctxMo3j1TAN5k6mTerysI33TemNwcGqTcK/OM3Z7zvN5ht7zeF8K43puqYN7ru\r\nrDfp16w3synKNzkYmDeWRt43ea7DN0oeuzcxbbU3Bn6wNyUr8Dc2Nao3Rwe2N4yvsTeHS8s3ZHTQ\r\nNzvD3zebMMY3EqXAN9ZutzdF2so3yUveN7DP5jfenJw3ouzTNzhlyzdFU6I3WviPNzkXkjePmtA3\r\n7Mu1N7dDvDfU6Lo3DDqtN6CTnDcrkso31wq9NzVUszfoarE3E0rLN4o7xzcChaw3UrmwN2GntzfH\r\n2Kk3j3uiN4yltDf2Kqo3bvHaN1MmuTedz7c3QEKmN0JjsjemVMg3NS64N1C34Tf58LE33ouaN55s\r\nqDeI3MA3OafkN+U+0DdvQr83zX2uN3cVxDfXero3GzG/N7z7yDd7YcE3TwDDNyC0zjd6oKk3U+C4\r\nN+g00Te0C8Y3MvKlN5ZE4DfgO6E3BGe5N95VjjdBOaI3V6vANzRApzezHr0379usN6WXzTeV75E3\r\niCKXN8ixxDfZL8U3vRqmN03qxTfs1rY3+hilN9Q72zdG0q83ZsC8N8OOwDfco6s32TXKN050qTeG\r\nNc43FrqXNwzl0TeQ2bE3coO4N2senzcE4NE3N1ijN2LuqDfA+q03baPQN7G/qTdyFLI3D1W0NxLW\r\nojczhKs3JKq4N3sHrzfFKLo3PEixNwOmsjfqZbI3MrnRNwaKjDeOAaw3XYu8NwBM0TdKBLg3ya2U\r\nN5h6yzd6SLw3mqSdN23dkjdcLrE33KCnN5HX3jc7usk3GVO9NyO3rTdpebc3TBfQNwAIwzd5JoY+\r\n90P8Pnae5T4zvWc/vnDNQNaU6kHezlxAkNGtP/y5CkAzZq5ASLbaPvgBgD9+oI4/eo3ZQCNrI0BH\r\nAvs+rSlWPpLYGz+nJZw+TWRqPoU3sj4uqb8++yWfPjkZdj+AeFA/T/oOP6oPjz4tdlY/JapPPwrC\r\nQkA36DtBrf2WQDjEVUEmN4hBjnx3QURRmUDTs9VBzaGGQFne90AzqqVAQjhxP+hjeT++os4/RAgW\r\nP6PYZD/UYGE/2DmHP+rZnj8O2CxAK1NEP1NUGz/uIs8/lEeEP6yDWT+LwI8/tzZbP/jE0D6HmBo/\r\ngkTNPo/oEz/mPQ8/ufrwPvKypD/HKSNAIRtkQEuyST8mZQY/urKxPwd3PD8yDopABfhuPxCXPz/m\r\nGXE+5VkGPy1B5j8xdv8+nFCCPtjkLj+wFPs+Oj1nPnf3nz4ulrw9ySvVPa+bHT6yjTg+OIFVP4D6\r\nYj7Ro5k9goipPdA00j1Y5lo9ZVgJPtNetz7dbpA+fupaPkExJz4KRic9on4rPVJjLD5QD1s+XRQ2\r\nPaY5kT24uP08KPVRPaPhKD0wTbc9pARBPhHLBD5lY6g9K/niPFUf1j2TrQw9wo8zPXGgiD0wQOc9\r\nDJqKPsW+iz4vOxc/RujcPlIS9z5CxjU//EHTPFKUTT0/FZs+wVahPh9fuz7E02U/J4WrP8W+tT9m\r\nABE+lD8CPxuJDz77sUE8hTeuPrPGRj/M/Mg+3r0AQIqR1z6BT089Ay1dPUlwST3zxpg9ctqxPqji\r\nND93bCw/1qEbP23mwT+GZYs/GRqtP2k+bD9JXf09uiJWPjopij3m7708FfwWPvKz8j2Q7xM/LW8I\r\nP21rOj9U3QY/j4+MPleHBj1/E+A+GdPPPgpH6D4I0EA+7nOdPptQ8D2jg8U+JuECP6zX0z4BLPY+\r\n1k59P3Qj2D+flIdAOuG7QHm1PEF9wU1B+UZ5QTEzlkGEx6VBGkDiQZ/cAEKcRuxBXUbDQfEpQkE8\r\nspRBFsSKQenul0ECWr5BNTOaQUKavUHDd7hB2hOwQfokwkFKO8ZBsgrGQRMSGEEil5BB4ls5QUGA\r\nz0Cg5BRAYG4SQHH4JkA5zLI/URMLP/jVAj1RRug9JdvKPUNyAD3TY6Y9jgEVPsYe+D5sw9Y+eoPK\r\nPm7j7z7GjV0/Pv9sP4QP/T5UOx0+MWiUPlkKLz5p/tI8My2ePGixQT0TWEg9n/cHPW11mT14Zd49\r\nE0QOPcriaTwm67Y8QsE4Pb6hIjw1s7c8ec3MPJBXLz1Q/+c9soapPnV2IT/bf9o9XblWQKpxlD/R\r\nIWg/G+0FP+JXJkBiBho+sABcPm89dD8vO61AOp9gP6AHvj7VHqo/KllKQUzbbEDaE1FBm1ELQdrm\r\nAkGsFIJADOnhQKS0Q0FUS0JBFXEiQbgEBEGL2KRAsju0P2hhZz7nTiFAMcKEP1jf8j+0+sE+0c0P\r\nQAQRC0Bgrr8/2HiOP1UHsT54qh8/r46QPvPDYz4gBqU8WgY2Pm9sST44NfM+1E6zPUoUxz6PhJc+\r\ndf/FPXp61z2OHkc+VxjMPmYWxT+k+nZAIt4pQV70f0GOFLZBj/xoQiu4mEIafqxC+4OIQqcVj0Jw\r\nE2hCKHBcQkpwB0JFXBtCCp/UQRY11UF+9AlBdYiCQdwLQUH34xBBpvDWQDVrCEFV51pB9n6WQV+9\r\n2kEmDvxB9YcJQjBa9kFTiAFCV431QT008EF/WNFBajWtQfOxaUH5yH1BteNQQQfTeEHKlEhBbsc3\r\nQdWU/UAOGrJAq4ZmQIyCLUDXo7E/sxr1PzO6/T+SfRxA0CYlQGe+WEBlNyxALvENQDFX8D9UBNU/\r\nnsmwPw+Ynj9+4l4/KLE0P7Az/j5p/t0+bovDPggEkT5+TQU+H0DAPQoEdT0BiX09uO39PEEwFT2h\r\njZc8O+jnO0gRkTuxbHc7nJedOwqoFDuahW07s6buOkGo+DrGcrY6u3FjOhF/tDqvYGU5reNoOnbH\r\nDTnNkRY6gFjpOEHSIzoSvQM5M/c9OvpV7jhnXBw6b20HOSsO0jnOnpg5lP1MOXp+3jkbVbQ4abyf\r\nOTxqbjkJMTg5Zku7OTB7vji7vyM5xDjCOZD0kDnqCxY5++HiOIxoozjA0sc4+PCyOfn06DmbdQw5\r\nZFeQOEyMQTmmqOw40Q0DOS0TjTmbpqg4XnuHOA+5CDnqPqQ4MLy3OBwajjga0as4IuqHONWBjDi0\r\n/3w4cHR/OGBJgTiHDnk4j8N2OPh/cjilv4A45Pd9OIh/fDjGmr44UthLOTDODDm55m04NWQ1OU8+\r\nyzimWCU558Y4OUp0BznkX2U4NfLbOGoq0jgcOsY4YndeOCDhyDjCfSQ5W8ATOUBMhzlsQHc4WDNn\r\nOK6f3DimqKM4spwzOWJyFDkIwGQ4JL9kOAwbdjhQ02g4I/leONsXgDis50Y4zplbOGoKUDhd3Us4\r\nyKlxONI5WTj2y0E4zC9WODqxgTj83Gk4kIdLOObtajhSozs4YApGOBo4VziM+0E4hIdKOFQGMTio\r\nMVc45HdVOPjsTziTzEc4YspAODpMZjgaym04yu48OBgEYziWkT04s/tCOCweSziOBWY4UKNgOBhC\r\nUDjwUEE4PUNBOBpYWzgC/iA41bRMOEhRNThcQzg4UjR3OKLfMDjmPiE4BDJcOMdYQThaSUE4YAE9\r\nONzBPzgsOFs4AqtNONnsKDi0RSw4oC5HOG9MSjhgWCY4YiMkOIZHSzgbgjs40G06OAD5RDhmDjg4\r\nNBg+OMhMQTisEzE4YpJCOJ9bPjgohzI4nHVDOBJjQThqYjQ4hHMrOLhOHDgdYSY4zGAeOCT0JDiD\r\nxR44GHgqONoqMThQIyI4kJEoOJZzPjiqGj04qm4sOMEQLTgUATs46FgoOApxFDixpy04kJYlOEZ2\r\nKzjqiRQ4fpI1OB0XUTg+2zA4c/9yOMbOhjjypDM48ZkIODqqHTjeNTQ4lTgvOG6HFThxhR04uAIl\r\nONrhMThWXkI4MT8xOH1XJTh6gSA4EaokOD4WIDgHwxE4YpcVOMBFJTgUWBQ4ZMcSON6OGzi1+/Y3\r\nP2QcOG2PAzgc3RU4Tdg7OO0tCDiEug44ZJcPOAGgKTgm7vY3UlwUOJAmEji4gxQ45rkMOMfhKTh8\r\nNwU4XhgMOKptKDjduRo4PwQOOAYVKTiCrgk40PEOOKKpAThLnhc4mIMPOMwDEjjIjxU4SxoyOBy9\r\nBDh29Os3pBEbOJ4JCzgW8B444voVODnJAThTKwY4rLoOOPAVBjg8Ywg4KAUIOCvACjiajxA48m0U\r\nOPAd8jdSTA44nNnuNxl7CTgcqes3HMQDOI9dHTjlbQM493oOOBUrETghF/g3AKgMOKjuFDglxxk4\r\nCmz9N1I2ADgVpPo31PsTOCs6FTi8pAs4tXD0N0PhEjjE9yY4uBEKOJg66DfBXgI4/loAOPRrCjjJ\r\n5dc3ylINOGjRAThCpf43roIDOBil8TefcgM4oqYFOF2hAjhGIgc43HXvNzTTDTjMYe83ikYNOANV\r\nBzjA4u43JfUQOJTw4DcqkdM3HvXfN9DmADgbnOM3IQ8AOMqQ5TeEugw4/8/MN7RQ/DeRFe43a/wV\r\nOAPD9zdwSRM4IsHqN0EE4zcc0/I3Kp3mNzUM6Td75RQ4JFUCOCvbBDiYePY3NibvNzHv6TfSqv83\r\nzkzfN0dP2jd/++Y3c60DOF6D+zcvJwY4yrjsN9up3TcejAQ4skTmNxlEADhTn/A3n3nON6gY+DeY\r\nZgI4neb7NwlE+jc6TOs3Blf0N0TVwTdfW9U388L3NxNO6zc9zwM4BJTLNxJg9jdweO43WDj1N6E0\r\nyTcgJ8g3UQLrN+XM4zdZ3Pg3gw7MN7QD/DeGV/M3WDDgN7n0wzdyeeU3JVDgNyJW6DeCuuo3rnfW\r\nN/Ic1TdsLNc3xyPEN6Xe5DfGp783ElzWN9Ci6zdzGPQ3nZgAOLHD0jcEC843enzWNyLo7jfzjvU3\r\nPvHmN+SL3zdMjso3ZsLxN3wf9Tfv9N83OsfRN35o4Tcz7cc3KHXnN30I7zfVRAc4PLTYNzKczDeN\r\nHPs3UvjIN/iL2zfZUvY320m+NyBV4DeowPo3JMkDOEeM2Dfnr9c3VRzYN+bguzd0Y9E3d1/EN2I/\r\n4DcZHOE3SM3CN2oRsjeJfNg3yCL5N1YrvTeW+cg3+i7dN/Od+Dcgt7s3ktHSN65twjcag9g3ZsLF\r\nN7uDyzfNYsY3jKzNN9ndyzeE4Ns3j8vBN4hwxjfat703G0/mN0PDxzcH+8o3vhHFN8n47Td6NO43\r\nGPLdNwnOpzfiU+03Qbm3N+bj3DfH0Qo4tPrEN/AZwDfyVQI4QV27N3IGzTfQZbE3nBCqN2Hi1Tf+\r\n3dA3Fl7IN0SV0TfNl8U35mzXNzu1yTcVFec3OovvNyMB4zc14dE3tj2YN129qzeqlsI3oD7pN57k\r\nzzcQc7w3GEvGN0/M1DetE9A31VfNN+ldwDdD8cA35W28N0qpxTcUT7U3rlifN2bH2zeCWI83Qn0C\r\nOE7qqTfiI8c39o3oN/fNzTciBKE38pTCN7F3wjeo76o3Mc6aN8oOsDcQ59M3UMngN2fTtDdkOLo3\r\nzn2uNyihkDe2dLE3PK+5Nze/0TcVd5g30gKWNwLQtjexj+s3BFTEN+X/pTdMiYY3KHemN6sh2zdO\r\ni9A3a0uhNy3EyjePVMA3mTqZN6vKwjfdN6Y3BwapNwr84zdnvO83mG3vN4Xwrjem6pg3uu6sN+nX\r\nrDezKco3ORiYN5ZG3jd5rsM3Sh67NzFttTcGfrA3JSvwNzY1qjdHB7Y3jK+xN4dLyzdkdNA3O8Pf\r\nN5swxjcSpcA31m63N0XayjfJS943sM/mN96cnDei7NM3OGXLN0VTojda+I83OReSN4+a0Dfsy7U3\r\nt0O8N9ToujcMOq03oJOcNyuSyjfXCr03NVSzN+hqsTcTSss3ijvHNwKFrDdSubA3Yae3N8fYqTeP\r\ne6I3jKW0N/Yqqjdu8do3Uya5N53PtzdAQqY3QmOyN6ZUyDc1Lrg3ULfhN/nwsTfei5o3nmyoN4jc\r\nwDc5p+Q35T7QN29CvzfNfa43dxXEN9d6ujcbMb83vPvIN3thwTdPAMM3ILTON3qgqTdT4Lg36DTR\r\nN7QLxjcy8qU3lkTgN+A7oTcEZ7k33lWON0E5ojdXq8A3NECnN7MevTfv26w3pZfNN5XvkTeIIpc3\r\nyLHEN9kvxTe9GqY3TerFN+zWtjf6GKU31DvbN0bSrzdmwLw3w47AN9yjqzfZNco3TnSpN4Y1zjcW\r\nupc3DOXRN5DZsTdyg7g3ax6fNwTg0Tc3WKM3Yu6oN8D6rTdto9A3sb+pN3IUsjcPVbQ3EtaiNzOE\r\nqzckqrg3ewevN8Uoujc8SLE3A6ayN+plsjcyudE3BoqMN44BrDddi7w3AEzRN0oEuDfJrZQ3mHrL\r\nN3pIvDeapJ03bd2SN1wusTfcoKc3kdfeNzu6yTcZU703I7etN2l5tzdMF9A3AAjDNw==",
                            "noiseTrainingType" : "default"
                          }
                        }
                    ],
                    "start" : 5917,
                    "duration" : 127,
                    "mediaStart" : 1845,
                    "mediaDuration" : 127,
                    "scalar" : 1,
                    "metadata" : {
                      "WinSubProjectDisplayName" : "",
                      "clipSpeedAttribute" : false
                    },
                    "animationTracks" : {

                    }
                  },
                  {
                    "id" : 131,
                    "_type" : "AMFile",
                    "src" : 3,
                    "trackNumber" : 1,
                    "attributes" : {
                      "ident" : "tower-columns-03",
                      "sampleRate" : 44100,
                      "bitDepth" : 16,
                      "gain" : 1.0,
                      "mixToMono" : false
                    },
                      "channelNumber" : "0,1",
                    "effects" : [
                        {
                          "effectName" : "NoiseReduction",
                          "category" : "categoryAudioEffects",
                          "parameters" : {
                            "denoiserAmount" : 20.0,
                            "denoiserThreshold" : 0.0,
                            "noiseProfile" : "eSaGPvdD/D52nuU+M71nP75wzUDWlOpB3s5cQJDRrT/8uQpAM2auQEi22j74AYA/fqCOP3qN2UAj\r\nayNARwL7Pq0pVj6v3Rs/pyWcPk1kaj6FN7I+Lqm/Pvslnz45GXY/gHhQP0/6Dj+qD48+LXZWPyWq\r\nTz8KwkJAeug7Qa39lkA4xFVBJjeIQY58d0FEUZlA7LXVQc2hhkBZ3vdAWbGlQPg8cT/oY3k/hJjO\r\nP3/sFT+j2GQ/1GBhP9g5hz/q2Z4/DtgsQCtTRD9TVBs/7iLPP5RHhD+sg1k/i8CPP7c2Wz/4xNA+\r\nh5gaP4JEzT6P6BM/5j0PP7n68D7ysqQ/xykjQCEbZECIn0k/JmUGP7qysT8Hdzw/rg2KQAgObz8Q\r\nlz8/5hlxPuVZBj8tQeY/MXb/PpxQgj7u8y4/rxj7Pjo9Zz53958+Lpa8Pckr1T2vmx0+so04PjiB\r\nVT+A+mI+0aOZPYKIqT3QNNI9WOZaPWVYCT7TXrc+pnOQPhQOWz5BMSc+CkYnPaJ+Kz1SYyw+UA9b\r\nPl0UNj2mOZE9uLj9PPoBUj2j4Sg9ME23PaQEQT4RywQ+ZWOoPSv54jxVH9Y9k60MPTV1Mz1xoIg9\r\nvqfnPQyaij7Fvos+LzsXP0bo3D5SEvc+QsY1P/xB0zxSlE09PxWbPsFWoT4fX7s+xNNlPyeFqz/F\r\nvrU/ZgARPpQ/Aj8biQ8++7FBPIU3rj6zxkY/zPzIPt69AECKkdc+gU9PPQMtXT1JcEk988aYPXLa\r\nsT6o4jQ/d2wsP9ahGz9t5sE/hmWLPxkarT9pPmw/SV39PboiVj46KYo95u+9PBX8Fj7ys/I9kO8T\r\nPy1vCD9tazo/VN0GP4+PjD5XhwY9fxPgPhnTzz4KR+g+CNBAPu5znT6bUPA9o4PFPibhAj+s19M+\r\nASz2PtZOfT90I9g/n5SHQDrhu0B5tTxBfcFNQflGeUExM5ZBhMelQRpA4kGf3ABCnEbsQV1Gw0Hx\r\nKUJBPLKUQRbEikHp7pdBAlq+QTUzmkFCmr1Bw3e4QdoTsEH6JMJBSjvGQbIKxkETEhhBIpeQQeJb\r\nOUFBgM9AoOQUQGBuEkBx+CZAOcyyP1ETCz/41QI9UUboPSXbyj1DcgA902OmPY4BFT7GHvg+bMPW\r\nPnqDyj5u4+8+xo1dPz7/bD+ED/0+VDsdPjFolD5ZCi8+af7SPDMtnjxosUE9E1hIPZ/3Bz1tdZk9\r\neGXePRNEDj3K4mk8Juu2PELBOD2+oSI8NbO3PHnNzDyQVy89UP/nPbKGqT51diE/23/aPV25VkCq\r\ncZQ/0SFoPxvtBT/iVyZAYgYaPrAAXD5vPXQ/LzutQDqfYD+gB74+1R6qPypZSkFM22xA2hNRQZtR\r\nC0Ha5gJBrBSCQAzp4UCktENBVEtCQRVxIkG4BARBi9ikQLI7tD9oYWc+504hQDHChD9Y3/I/tPrB\r\nPtHND0AEEQtAYK6/P9h4jj9VB7E+eKofP6+OkD7zw2M+YDqlPFoGNj5vbEk+ODXzPtROsz1KFMc+\r\nj4SXPnX/xT16etc9jh5HPlcYzD5mFsU/pPp2QCLeKUFe9H9BjhS2QY/8aEIruJhCGn6sQvuDiEKn\r\nFY9CcBNoQihwXEJKcAdCRVwbQgqf1EEWNdVBfvQJQXWIgkHcC0FB9+MQQabw1kA1awhBVedaQfZ+\r\nlkFfvdpBJg78QfWHCUIwWvZBU4gBQleN9UE9NPBBf1jRQWo1rUHzsWlB+ch9QbXjUEEH03hBypRI\r\nQW7HN0HVlP1ADhqyQKuGZkCMgi1A16OxP7Ma9T8zuv0/kn0cQNAmJUBnvlhAZTcsQC7xDUAxV/A/\r\nVATVP57JsD8PmJ4/fuJePyixND+wM/4+af7dPm6Lwz4IBJE+fk0FPh9AwD0KBHU9AYl9Pbjt/TxB\r\nMBU9oY2XPDvo5ztIEZE7sWx3O5yXnTsKqBQ7moVtO7Om7jpBqPg6xnK2OrtxYzoRf7Q6r2BlOa3j\r\naDp2xw05zZEWOoBY6ThB0iM6Er0DOTP3PTr6Ve44Z1wcOm9tBzkrDtI5zp6YOZT9TDl6ft45G1W0\r\nOGm8nzk8am45CTE4OWZLuzkwe744u78jOcQ4wjmQ9JA56gsWOfvh4jiMaKM4wNLHOPjwsjn59Og5\r\nm3UMOWRXkDhMjEE5pqjsONENAzktE405m6aoOF57hzgPuQg56j6kODC8tzgcGo44GtGrOCLqhzjV\r\ngYw4tP98OHB0fzhgSYE4hw55OI/Ddjj4f3I4pb+AOOT3fTiIf3w4xpq+OFLYSzkwzgw5ueZtODVk\r\nNTlPPss4plglOefGODlKdAc55F9lODXy2zhqKtI4HDrGOGJ3Xjgg4cg4wn0kOVvAEzlATIc5bEB3\r\nOFgzZziun9w4pqijOLKcMzlichQ5CMBkOCS/ZDgMG3Y4UNNoOCP5XjjbF4A4rOdGOM6ZWzhqClA4\r\nXd1LOMipcTjSOVk49stBOMwvVjg6sYE4/NxpOJCHSzjm7Wo4UqM7OGAKRjgaOFc4jPtBOISHSjhU\r\nBjE4qDFXOOR3VTj47E84k8xHOGLKQDg6TGY4GsptOMruPDgYBGM4lpE9OLP7QjgsHks4jgVmOFCj\r\nYDgYQlA48FBBOD1DQTgaWFs4Av4gONW0TDhIUTU4XEM4OFI0dzii3zA45j4hOAQyXDjHWEE4WklB\r\nOGABPTjcwT84LDhbOAKrTTjZ7Cg4tEUsOKAuRzhvTEo4YFgmOGIjJDiGR0s4G4I7ONBtOjgA+UQ4\r\nZg44ODQYPjjITEE4rBMxOGKSQjifWz44KIcyOJx1QzgSY0E4amI0OIRzKzi4Thw4HWEmOMxgHjgk\r\n9CQ4g8UeOBh4KjjaKjE4UCMiOJCRKDiWcz44qho9OKpuLDjBEC04FAE7OOhYKDgKcRQ4sactOJCW\r\nJThGdis46okUOH6SNTgdF1E4PtswOHP/cjjGzoY48qQzOPGZCDg6qh043jU0OJU4LzhuhxU4cYUd\r\nOLgCJTja4TE4Vl5CODE/MTh9VyU4eoEgOBGqJDg+FiA4B8MROGKXFTjARSU4FFgUOGTHEjjejhs4\r\ntfv2Nz9kHDhtjwM4HN0VOE3YOzjtLQg4hLoOOGSXDzgBoCk4Ju72N1JcFDiQJhI4uIMUOOa5DDjH\r\n4Sk4fDcFOF4YDDiqbSg43bkaOD8EDjgGFSk4gq4JONDxDjiiqQE4S54XOJiDDzjMAxI4yI8VOEsa\r\nMjgcvQQ4dvTrN6QRGzieCQs4FvAeOOL6FTg5yQE4UysGOKy6DjjwFQY4PGMIOCgFCDgrwAo4mo8Q\r\nOPJtFDjwHfI3UkwOOJzZ7jcZewk4HKnrNxzEAziPXR045W0DOPd6DjgVKxE4IRf4NwCoDDio7hQ4\r\nJccZOAps/TdSNgA4FaT6N9T7EzgrOhU4vKQLOLVw9DdD4RI4xPcmOLgRCjiYOug3wV4COP5aADj0\r\nawo4yeXXN8pSDTho0QE4QqX+N66CAzgYpfE3n3IDOKKmBThdoQI4RiIHONx17zc00w04zGHvN4pG\r\nDTgDVQc4wOLuNyX1EDiU8OA3KpHTNx713zfQ5gA4G5zjNyEPADjKkOU3hLoMOP/PzDe0UPw3kRXu\r\nN2v8FTgDw/c3cEkTOCLB6jdBBOM3HNPyNyqd5jc1DOk3e+UUOCRVAjgr2wQ4mHj2NzYm7zcx7+k3\r\n0qr/N85M3zdHT9o3f/vmN3OtAzheg/s3LycGOMq47Dfbqd03HowEOLJE5jcZRAA4U5/wN595zjeo\r\nGPg3mGYCOJ3m+zcJRPo3OkzrNwZX9DdE1cE3X1vVN/PC9zcTTus3Pc8DOASUyzcSYPY3cHjuN1g4\r\n9TehNMk3ICfIN1EC6zflzOM3Wdz4N4MOzDe0A/w3hlfzN1gw4De59MM3cnnlNyVQ4DciVug3grrq\r\nN6531jfyHNU3bCzXN8cjxDel3uQ3xqe/NxJc1jfQous3cxj0N52YADixw9I3BAvON3p81jci6O43\r\n8471Nz7x5jfki983TI7KN2bC8Td8H/U37/TfNzrH0Td+aOE3M+3HNyh15zd9CO831UQHODy02Dcy\r\nnMw3jRz7N1L4yDf4i9s32VL2N9tJvjcgVeA3qMD6NyTJAzhHjNg356/XN1Uc2Dfm4Ls3dGPRN3df\r\nxDdiP+A3GRzhN0jNwjdqEbI3iXzYN8gi+TdWK703lvnIN/ou3Tfznfg3ILe7N5LR0jeubcI3GoPY\r\nN2bCxTe7g8s3zWLGN4yszTfZ3cs3hODbN4/LwTeIcMY32re9NxtP5jdDw8c3B/vKN74RxTfJ+O03\r\nejTuNxjy3TcJzqc34lPtN0G5tzfm49w3x9EKOLT6xDfwGcA38lUCOEFduzdyBs030GWxN5wQqjdh\r\n4tU3/t3QNxZeyDdEldE3zZfFN+Zs1zc7tck3FRXnNzqL7zcjAeM3NeHRN7Y9mDddvas3qpbCN6A+\r\n6Tee5M83EHO8NxhLxjdPzNQ3rRPQN9VXzTfpXcA3Q/HAN+VtvDdKqcU3FE+1N65Ynzdmx9s3gliP\r\nN0J9AjhO6qk34iPHN/aN6Df3zc03IgShN/KUwjexd8I3qO+qNzHOmjfKDrA3EOfTN1DJ4Ddn07Q3\r\nZDi6N859rjcooZA3tnSxNzyvuTc3v9E3FXeYN9ICljcC0LY3sY/rNwRUxDfl/6U3TImGNyh3pjer\r\nIds3TovQN2tLoTctxMo3j1TAN5k6mTerysI33TemNwcGqTcK/OM3Z7zvN5ht7zeF8K43puqYN7ru\r\nrDfp16w3synKNzkYmDeWRt43ea7DN0oeuzcxbbU3Bn6wNyUr8Dc2Nao3Rwe2N4yvsTeHS8s3ZHTQ\r\nNzvD3zebMMY3EqXAN9ZutzdF2so3yUveN7DP5jfenJw3ouzTNzhlyzdFU6I3WviPNzkXkjePmtA3\r\n7Mu1N7dDvDfU6Lo3DDqtN6CTnDcrkso31wq9NzVUszfoarE3E0rLN4o7xzcChaw3UrmwN2GntzfH\r\n2Kk3j3uiN4yltDf2Kqo3bvHaN1MmuTedz7c3QEKmN0JjsjemVMg3NS64N1C34Tf58LE33ouaN55s\r\nqDeI3MA3OafkN+U+0DdvQr83zX2uN3cVxDfXero3GzG/N7z7yDd7YcE3TwDDNyC0zjd6oKk3U+C4\r\nN+g00Te0C8Y3MvKlN5ZE4DfgO6E3BGe5N95VjjdBOaI3V6vANzRApzezHr0379usN6WXzTeV75E3\r\niCKXN8ixxDfZL8U3vRqmN03qxTfs1rY3+hilN9Q72zdG0q83ZsC8N8OOwDfco6s32TXKN050qTeG\r\nNc43FrqXNwzl0TeQ2bE3coO4N2senzcE4NE3N1ijN2LuqDfA+q03baPQN7G/qTdyFLI3D1W0NxLW\r\nojczhKs3JKq4N3sHrzfFKLo3PEixNwOmsjfqZbI3MrnRNwaKjDeOAaw3XYu8NwBM0TdKBLg3ya2U\r\nN5h6yzd6SLw3mqSdN23dkjdcLrE33KCnN5HX3jc7usk3GVO9NyO3rTdpebc3TBfQNwAIwzd5JoY+\r\n90P8Pnae5T4zvWc/vnDNQNaU6kHezlxAkNGtP/y5CkAzZq5ASLbaPvgBgD9+oI4/eo3ZQCNrI0BH\r\nAvs+rSlWPpLYGz+nJZw+TWRqPoU3sj4uqb8++yWfPjkZdj+AeFA/T/oOP6oPjz4tdlY/JapPPwrC\r\nQkA36DtBrf2WQDjEVUEmN4hBjnx3QURRmUDTs9VBzaGGQFne90AzqqVAQjhxP+hjeT++os4/RAgW\r\nP6PYZD/UYGE/2DmHP+rZnj8O2CxAK1NEP1NUGz/uIs8/lEeEP6yDWT+LwI8/tzZbP/jE0D6HmBo/\r\ngkTNPo/oEz/mPQ8/ufrwPvKypD/HKSNAIRtkQEuyST8mZQY/urKxPwd3PD8yDopABfhuPxCXPz/m\r\nGXE+5VkGPy1B5j8xdv8+nFCCPtjkLj+wFPs+Oj1nPnf3nz4ulrw9ySvVPa+bHT6yjTg+OIFVP4D6\r\nYj7Ro5k9goipPdA00j1Y5lo9ZVgJPtNetz7dbpA+fupaPkExJz4KRic9on4rPVJjLD5QD1s+XRQ2\r\nPaY5kT24uP08KPVRPaPhKD0wTbc9pARBPhHLBD5lY6g9K/niPFUf1j2TrQw9wo8zPXGgiD0wQOc9\r\nDJqKPsW+iz4vOxc/RujcPlIS9z5CxjU//EHTPFKUTT0/FZs+wVahPh9fuz7E02U/J4WrP8W+tT9m\r\nABE+lD8CPxuJDz77sUE8hTeuPrPGRj/M/Mg+3r0AQIqR1z6BT089Ay1dPUlwST3zxpg9ctqxPqji\r\nND93bCw/1qEbP23mwT+GZYs/GRqtP2k+bD9JXf09uiJWPjopij3m7708FfwWPvKz8j2Q7xM/LW8I\r\nP21rOj9U3QY/j4+MPleHBj1/E+A+GdPPPgpH6D4I0EA+7nOdPptQ8D2jg8U+JuECP6zX0z4BLPY+\r\n1k59P3Qj2D+flIdAOuG7QHm1PEF9wU1B+UZ5QTEzlkGEx6VBGkDiQZ/cAEKcRuxBXUbDQfEpQkE8\r\nspRBFsSKQenul0ECWr5BNTOaQUKavUHDd7hB2hOwQfokwkFKO8ZBsgrGQRMSGEEil5BB4ls5QUGA\r\nz0Cg5BRAYG4SQHH4JkA5zLI/URMLP/jVAj1RRug9JdvKPUNyAD3TY6Y9jgEVPsYe+D5sw9Y+eoPK\r\nPm7j7z7GjV0/Pv9sP4QP/T5UOx0+MWiUPlkKLz5p/tI8My2ePGixQT0TWEg9n/cHPW11mT14Zd49\r\nE0QOPcriaTwm67Y8QsE4Pb6hIjw1s7c8ec3MPJBXLz1Q/+c9soapPnV2IT/bf9o9XblWQKpxlD/R\r\nIWg/G+0FP+JXJkBiBho+sABcPm89dD8vO61AOp9gP6AHvj7VHqo/KllKQUzbbEDaE1FBm1ELQdrm\r\nAkGsFIJADOnhQKS0Q0FUS0JBFXEiQbgEBEGL2KRAsju0P2hhZz7nTiFAMcKEP1jf8j+0+sE+0c0P\r\nQAQRC0Bgrr8/2HiOP1UHsT54qh8/r46QPvPDYz4gBqU8WgY2Pm9sST44NfM+1E6zPUoUxz6PhJc+\r\ndf/FPXp61z2OHkc+VxjMPmYWxT+k+nZAIt4pQV70f0GOFLZBj/xoQiu4mEIafqxC+4OIQqcVj0Jw\r\nE2hCKHBcQkpwB0JFXBtCCp/UQRY11UF+9AlBdYiCQdwLQUH34xBBpvDWQDVrCEFV51pB9n6WQV+9\r\n2kEmDvxB9YcJQjBa9kFTiAFCV431QT008EF/WNFBajWtQfOxaUH5yH1BteNQQQfTeEHKlEhBbsc3\r\nQdWU/UAOGrJAq4ZmQIyCLUDXo7E/sxr1PzO6/T+SfRxA0CYlQGe+WEBlNyxALvENQDFX8D9UBNU/\r\nnsmwPw+Ynj9+4l4/KLE0P7Az/j5p/t0+bovDPggEkT5+TQU+H0DAPQoEdT0BiX09uO39PEEwFT2h\r\njZc8O+jnO0gRkTuxbHc7nJedOwqoFDuahW07s6buOkGo+DrGcrY6u3FjOhF/tDqvYGU5reNoOnbH\r\nDTnNkRY6gFjpOEHSIzoSvQM5M/c9OvpV7jhnXBw6b20HOSsO0jnOnpg5lP1MOXp+3jkbVbQ4abyf\r\nOTxqbjkJMTg5Zku7OTB7vji7vyM5xDjCOZD0kDnqCxY5++HiOIxoozjA0sc4+PCyOfn06DmbdQw5\r\nZFeQOEyMQTmmqOw40Q0DOS0TjTmbpqg4XnuHOA+5CDnqPqQ4MLy3OBwajjga0as4IuqHONWBjDi0\r\n/3w4cHR/OGBJgTiHDnk4j8N2OPh/cjilv4A45Pd9OIh/fDjGmr44UthLOTDODDm55m04NWQ1OU8+\r\nyzimWCU558Y4OUp0BznkX2U4NfLbOGoq0jgcOsY4YndeOCDhyDjCfSQ5W8ATOUBMhzlsQHc4WDNn\r\nOK6f3DimqKM4spwzOWJyFDkIwGQ4JL9kOAwbdjhQ02g4I/leONsXgDis50Y4zplbOGoKUDhd3Us4\r\nyKlxONI5WTj2y0E4zC9WODqxgTj83Gk4kIdLOObtajhSozs4YApGOBo4VziM+0E4hIdKOFQGMTio\r\nMVc45HdVOPjsTziTzEc4YspAODpMZjgaym04yu48OBgEYziWkT04s/tCOCweSziOBWY4UKNgOBhC\r\nUDjwUEE4PUNBOBpYWzgC/iA41bRMOEhRNThcQzg4UjR3OKLfMDjmPiE4BDJcOMdYQThaSUE4YAE9\r\nONzBPzgsOFs4AqtNONnsKDi0RSw4oC5HOG9MSjhgWCY4YiMkOIZHSzgbgjs40G06OAD5RDhmDjg4\r\nNBg+OMhMQTisEzE4YpJCOJ9bPjgohzI4nHVDOBJjQThqYjQ4hHMrOLhOHDgdYSY4zGAeOCT0JDiD\r\nxR44GHgqONoqMThQIyI4kJEoOJZzPjiqGj04qm4sOMEQLTgUATs46FgoOApxFDixpy04kJYlOEZ2\r\nKzjqiRQ4fpI1OB0XUTg+2zA4c/9yOMbOhjjypDM48ZkIODqqHTjeNTQ4lTgvOG6HFThxhR04uAIl\r\nONrhMThWXkI4MT8xOH1XJTh6gSA4EaokOD4WIDgHwxE4YpcVOMBFJTgUWBQ4ZMcSON6OGzi1+/Y3\r\nP2QcOG2PAzgc3RU4Tdg7OO0tCDiEug44ZJcPOAGgKTgm7vY3UlwUOJAmEji4gxQ45rkMOMfhKTh8\r\nNwU4XhgMOKptKDjduRo4PwQOOAYVKTiCrgk40PEOOKKpAThLnhc4mIMPOMwDEjjIjxU4SxoyOBy9\r\nBDh29Os3pBEbOJ4JCzgW8B444voVODnJAThTKwY4rLoOOPAVBjg8Ywg4KAUIOCvACjiajxA48m0U\r\nOPAd8jdSTA44nNnuNxl7CTgcqes3HMQDOI9dHTjlbQM493oOOBUrETghF/g3AKgMOKjuFDglxxk4\r\nCmz9N1I2ADgVpPo31PsTOCs6FTi8pAs4tXD0N0PhEjjE9yY4uBEKOJg66DfBXgI4/loAOPRrCjjJ\r\n5dc3ylINOGjRAThCpf43roIDOBil8TefcgM4oqYFOF2hAjhGIgc43HXvNzTTDTjMYe83ikYNOANV\r\nBzjA4u43JfUQOJTw4DcqkdM3HvXfN9DmADgbnOM3IQ8AOMqQ5TeEugw4/8/MN7RQ/DeRFe43a/wV\r\nOAPD9zdwSRM4IsHqN0EE4zcc0/I3Kp3mNzUM6Td75RQ4JFUCOCvbBDiYePY3NibvNzHv6TfSqv83\r\nzkzfN0dP2jd/++Y3c60DOF6D+zcvJwY4yrjsN9up3TcejAQ4skTmNxlEADhTn/A3n3nON6gY+DeY\r\nZgI4neb7NwlE+jc6TOs3Blf0N0TVwTdfW9U388L3NxNO6zc9zwM4BJTLNxJg9jdweO43WDj1N6E0\r\nyTcgJ8g3UQLrN+XM4zdZ3Pg3gw7MN7QD/DeGV/M3WDDgN7n0wzdyeeU3JVDgNyJW6DeCuuo3rnfW\r\nN/Ic1TdsLNc3xyPEN6Xe5DfGp783ElzWN9Ci6zdzGPQ3nZgAOLHD0jcEC843enzWNyLo7jfzjvU3\r\nPvHmN+SL3zdMjso3ZsLxN3wf9Tfv9N83OsfRN35o4Tcz7cc3KHXnN30I7zfVRAc4PLTYNzKczDeN\r\nHPs3UvjIN/iL2zfZUvY320m+NyBV4DeowPo3JMkDOEeM2Dfnr9c3VRzYN+bguzd0Y9E3d1/EN2I/\r\n4DcZHOE3SM3CN2oRsjeJfNg3yCL5N1YrvTeW+cg3+i7dN/Od+Dcgt7s3ktHSN65twjcag9g3ZsLF\r\nN7uDyzfNYsY3jKzNN9ndyzeE4Ns3j8vBN4hwxjfat703G0/mN0PDxzcH+8o3vhHFN8n47Td6NO43\r\nGPLdNwnOpzfiU+03Qbm3N+bj3DfH0Qo4tPrEN/AZwDfyVQI4QV27N3IGzTfQZbE3nBCqN2Hi1Tf+\r\n3dA3Fl7IN0SV0TfNl8U35mzXNzu1yTcVFec3OovvNyMB4zc14dE3tj2YN129qzeqlsI3oD7pN57k\r\nzzcQc7w3GEvGN0/M1DetE9A31VfNN+ldwDdD8cA35W28N0qpxTcUT7U3rlifN2bH2zeCWI83Qn0C\r\nOE7qqTfiI8c39o3oN/fNzTciBKE38pTCN7F3wjeo76o3Mc6aN8oOsDcQ59M3UMngN2fTtDdkOLo3\r\nzn2uNyihkDe2dLE3PK+5Nze/0TcVd5g30gKWNwLQtjexj+s3BFTEN+X/pTdMiYY3KHemN6sh2zdO\r\ni9A3a0uhNy3EyjePVMA3mTqZN6vKwjfdN6Y3BwapNwr84zdnvO83mG3vN4Xwrjem6pg3uu6sN+nX\r\nrDezKco3ORiYN5ZG3jd5rsM3Sh67NzFttTcGfrA3JSvwNzY1qjdHB7Y3jK+xN4dLyzdkdNA3O8Pf\r\nN5swxjcSpcA31m63N0XayjfJS943sM/mN96cnDei7NM3OGXLN0VTojda+I83OReSN4+a0Dfsy7U3\r\nt0O8N9ToujcMOq03oJOcNyuSyjfXCr03NVSzN+hqsTcTSss3ijvHNwKFrDdSubA3Yae3N8fYqTeP\r\ne6I3jKW0N/Yqqjdu8do3Uya5N53PtzdAQqY3QmOyN6ZUyDc1Lrg3ULfhN/nwsTfei5o3nmyoN4jc\r\nwDc5p+Q35T7QN29CvzfNfa43dxXEN9d6ujcbMb83vPvIN3thwTdPAMM3ILTON3qgqTdT4Lg36DTR\r\nN7QLxjcy8qU3lkTgN+A7oTcEZ7k33lWON0E5ojdXq8A3NECnN7MevTfv26w3pZfNN5XvkTeIIpc3\r\nyLHEN9kvxTe9GqY3TerFN+zWtjf6GKU31DvbN0bSrzdmwLw3w47AN9yjqzfZNco3TnSpN4Y1zjcW\r\nupc3DOXRN5DZsTdyg7g3ax6fNwTg0Tc3WKM3Yu6oN8D6rTdto9A3sb+pN3IUsjcPVbQ3EtaiNzOE\r\nqzckqrg3ewevN8Uoujc8SLE3A6ayN+plsjcyudE3BoqMN44BrDddi7w3AEzRN0oEuDfJrZQ3mHrL\r\nN3pIvDeapJ03bd2SN1wusTfcoKc3kdfeNzu6yTcZU703I7etN2l5tzdMF9A3AAjDNw==",
                            "noiseTrainingType" : "default"
                          }
                        }
                    ],
                    "start" : 6044,
                    "duration" : 75,
                    "mediaStart" : 2046,
                    "mediaDuration" : 75,
                    "scalar" : 1,
                    "metadata" : {
                      "WinSubProjectDisplayName" : "",
                      "clipSpeedAttribute" : false
                    },
                    "animationTracks" : {

                    }
                  },
                  {
                    "id" : 132,
                    "_type" : "AMFile",
                    "src" : 3,
                    "trackNumber" : 1,
                    "attributes" : {
                      "ident" : "tower-columns-03",
                      "sampleRate" : 44100,
                      "bitDepth" : 16,
                      "gain" : 1.0,
                      "mixToMono" : false
                    },
                      "channelNumber" : "0,1",
                    "effects" : [
                        {
                          "effectName" : "NoiseReduction",
                          "category" : "categoryAudioEffects",
                          "parameters" : {
                            "denoiserAmount" : 20.0,
                            "denoiserThreshold" : 0.0,
                            "noiseProfile" : "eSaGPvdD/D52nuU+M71nP75wzUDWlOpB3s5cQJDRrT/8uQpAM2auQEi22j74AYA/fqCOP3qN2UAj\r\nayNARwL7Pq0pVj6v3Rs/pyWcPk1kaj6FN7I+Lqm/Pvslnz45GXY/gHhQP0/6Dj+qD48+LXZWPyWq\r\nTz8KwkJAeug7Qa39lkA4xFVBJjeIQY58d0FEUZlA7LXVQc2hhkBZ3vdAWbGlQPg8cT/oY3k/hJjO\r\nP3/sFT+j2GQ/1GBhP9g5hz/q2Z4/DtgsQCtTRD9TVBs/7iLPP5RHhD+sg1k/i8CPP7c2Wz/4xNA+\r\nh5gaP4JEzT6P6BM/5j0PP7n68D7ysqQ/xykjQCEbZECIn0k/JmUGP7qysT8Hdzw/rg2KQAgObz8Q\r\nlz8/5hlxPuVZBj8tQeY/MXb/PpxQgj7u8y4/rxj7Pjo9Zz53958+Lpa8Pckr1T2vmx0+so04PjiB\r\nVT+A+mI+0aOZPYKIqT3QNNI9WOZaPWVYCT7TXrc+pnOQPhQOWz5BMSc+CkYnPaJ+Kz1SYyw+UA9b\r\nPl0UNj2mOZE9uLj9PPoBUj2j4Sg9ME23PaQEQT4RywQ+ZWOoPSv54jxVH9Y9k60MPTV1Mz1xoIg9\r\nvqfnPQyaij7Fvos+LzsXP0bo3D5SEvc+QsY1P/xB0zxSlE09PxWbPsFWoT4fX7s+xNNlPyeFqz/F\r\nvrU/ZgARPpQ/Aj8biQ8++7FBPIU3rj6zxkY/zPzIPt69AECKkdc+gU9PPQMtXT1JcEk988aYPXLa\r\nsT6o4jQ/d2wsP9ahGz9t5sE/hmWLPxkarT9pPmw/SV39PboiVj46KYo95u+9PBX8Fj7ys/I9kO8T\r\nPy1vCD9tazo/VN0GP4+PjD5XhwY9fxPgPhnTzz4KR+g+CNBAPu5znT6bUPA9o4PFPibhAj+s19M+\r\nASz2PtZOfT90I9g/n5SHQDrhu0B5tTxBfcFNQflGeUExM5ZBhMelQRpA4kGf3ABCnEbsQV1Gw0Hx\r\nKUJBPLKUQRbEikHp7pdBAlq+QTUzmkFCmr1Bw3e4QdoTsEH6JMJBSjvGQbIKxkETEhhBIpeQQeJb\r\nOUFBgM9AoOQUQGBuEkBx+CZAOcyyP1ETCz/41QI9UUboPSXbyj1DcgA902OmPY4BFT7GHvg+bMPW\r\nPnqDyj5u4+8+xo1dPz7/bD+ED/0+VDsdPjFolD5ZCi8+af7SPDMtnjxosUE9E1hIPZ/3Bz1tdZk9\r\neGXePRNEDj3K4mk8Juu2PELBOD2+oSI8NbO3PHnNzDyQVy89UP/nPbKGqT51diE/23/aPV25VkCq\r\ncZQ/0SFoPxvtBT/iVyZAYgYaPrAAXD5vPXQ/LzutQDqfYD+gB74+1R6qPypZSkFM22xA2hNRQZtR\r\nC0Ha5gJBrBSCQAzp4UCktENBVEtCQRVxIkG4BARBi9ikQLI7tD9oYWc+504hQDHChD9Y3/I/tPrB\r\nPtHND0AEEQtAYK6/P9h4jj9VB7E+eKofP6+OkD7zw2M+YDqlPFoGNj5vbEk+ODXzPtROsz1KFMc+\r\nj4SXPnX/xT16etc9jh5HPlcYzD5mFsU/pPp2QCLeKUFe9H9BjhS2QY/8aEIruJhCGn6sQvuDiEKn\r\nFY9CcBNoQihwXEJKcAdCRVwbQgqf1EEWNdVBfvQJQXWIgkHcC0FB9+MQQabw1kA1awhBVedaQfZ+\r\nlkFfvdpBJg78QfWHCUIwWvZBU4gBQleN9UE9NPBBf1jRQWo1rUHzsWlB+ch9QbXjUEEH03hBypRI\r\nQW7HN0HVlP1ADhqyQKuGZkCMgi1A16OxP7Ma9T8zuv0/kn0cQNAmJUBnvlhAZTcsQC7xDUAxV/A/\r\nVATVP57JsD8PmJ4/fuJePyixND+wM/4+af7dPm6Lwz4IBJE+fk0FPh9AwD0KBHU9AYl9Pbjt/TxB\r\nMBU9oY2XPDvo5ztIEZE7sWx3O5yXnTsKqBQ7moVtO7Om7jpBqPg6xnK2OrtxYzoRf7Q6r2BlOa3j\r\naDp2xw05zZEWOoBY6ThB0iM6Er0DOTP3PTr6Ve44Z1wcOm9tBzkrDtI5zp6YOZT9TDl6ft45G1W0\r\nOGm8nzk8am45CTE4OWZLuzkwe744u78jOcQ4wjmQ9JA56gsWOfvh4jiMaKM4wNLHOPjwsjn59Og5\r\nm3UMOWRXkDhMjEE5pqjsONENAzktE405m6aoOF57hzgPuQg56j6kODC8tzgcGo44GtGrOCLqhzjV\r\ngYw4tP98OHB0fzhgSYE4hw55OI/Ddjj4f3I4pb+AOOT3fTiIf3w4xpq+OFLYSzkwzgw5ueZtODVk\r\nNTlPPss4plglOefGODlKdAc55F9lODXy2zhqKtI4HDrGOGJ3Xjgg4cg4wn0kOVvAEzlATIc5bEB3\r\nOFgzZziun9w4pqijOLKcMzlichQ5CMBkOCS/ZDgMG3Y4UNNoOCP5XjjbF4A4rOdGOM6ZWzhqClA4\r\nXd1LOMipcTjSOVk49stBOMwvVjg6sYE4/NxpOJCHSzjm7Wo4UqM7OGAKRjgaOFc4jPtBOISHSjhU\r\nBjE4qDFXOOR3VTj47E84k8xHOGLKQDg6TGY4GsptOMruPDgYBGM4lpE9OLP7QjgsHks4jgVmOFCj\r\nYDgYQlA48FBBOD1DQTgaWFs4Av4gONW0TDhIUTU4XEM4OFI0dzii3zA45j4hOAQyXDjHWEE4WklB\r\nOGABPTjcwT84LDhbOAKrTTjZ7Cg4tEUsOKAuRzhvTEo4YFgmOGIjJDiGR0s4G4I7ONBtOjgA+UQ4\r\nZg44ODQYPjjITEE4rBMxOGKSQjifWz44KIcyOJx1QzgSY0E4amI0OIRzKzi4Thw4HWEmOMxgHjgk\r\n9CQ4g8UeOBh4KjjaKjE4UCMiOJCRKDiWcz44qho9OKpuLDjBEC04FAE7OOhYKDgKcRQ4sactOJCW\r\nJThGdis46okUOH6SNTgdF1E4PtswOHP/cjjGzoY48qQzOPGZCDg6qh043jU0OJU4LzhuhxU4cYUd\r\nOLgCJTja4TE4Vl5CODE/MTh9VyU4eoEgOBGqJDg+FiA4B8MROGKXFTjARSU4FFgUOGTHEjjejhs4\r\ntfv2Nz9kHDhtjwM4HN0VOE3YOzjtLQg4hLoOOGSXDzgBoCk4Ju72N1JcFDiQJhI4uIMUOOa5DDjH\r\n4Sk4fDcFOF4YDDiqbSg43bkaOD8EDjgGFSk4gq4JONDxDjiiqQE4S54XOJiDDzjMAxI4yI8VOEsa\r\nMjgcvQQ4dvTrN6QRGzieCQs4FvAeOOL6FTg5yQE4UysGOKy6DjjwFQY4PGMIOCgFCDgrwAo4mo8Q\r\nOPJtFDjwHfI3UkwOOJzZ7jcZewk4HKnrNxzEAziPXR045W0DOPd6DjgVKxE4IRf4NwCoDDio7hQ4\r\nJccZOAps/TdSNgA4FaT6N9T7EzgrOhU4vKQLOLVw9DdD4RI4xPcmOLgRCjiYOug3wV4COP5aADj0\r\nawo4yeXXN8pSDTho0QE4QqX+N66CAzgYpfE3n3IDOKKmBThdoQI4RiIHONx17zc00w04zGHvN4pG\r\nDTgDVQc4wOLuNyX1EDiU8OA3KpHTNx713zfQ5gA4G5zjNyEPADjKkOU3hLoMOP/PzDe0UPw3kRXu\r\nN2v8FTgDw/c3cEkTOCLB6jdBBOM3HNPyNyqd5jc1DOk3e+UUOCRVAjgr2wQ4mHj2NzYm7zcx7+k3\r\n0qr/N85M3zdHT9o3f/vmN3OtAzheg/s3LycGOMq47Dfbqd03HowEOLJE5jcZRAA4U5/wN595zjeo\r\nGPg3mGYCOJ3m+zcJRPo3OkzrNwZX9DdE1cE3X1vVN/PC9zcTTus3Pc8DOASUyzcSYPY3cHjuN1g4\r\n9TehNMk3ICfIN1EC6zflzOM3Wdz4N4MOzDe0A/w3hlfzN1gw4De59MM3cnnlNyVQ4DciVug3grrq\r\nN6531jfyHNU3bCzXN8cjxDel3uQ3xqe/NxJc1jfQous3cxj0N52YADixw9I3BAvON3p81jci6O43\r\n8471Nz7x5jfki983TI7KN2bC8Td8H/U37/TfNzrH0Td+aOE3M+3HNyh15zd9CO831UQHODy02Dcy\r\nnMw3jRz7N1L4yDf4i9s32VL2N9tJvjcgVeA3qMD6NyTJAzhHjNg356/XN1Uc2Dfm4Ls3dGPRN3df\r\nxDdiP+A3GRzhN0jNwjdqEbI3iXzYN8gi+TdWK703lvnIN/ou3Tfznfg3ILe7N5LR0jeubcI3GoPY\r\nN2bCxTe7g8s3zWLGN4yszTfZ3cs3hODbN4/LwTeIcMY32re9NxtP5jdDw8c3B/vKN74RxTfJ+O03\r\nejTuNxjy3TcJzqc34lPtN0G5tzfm49w3x9EKOLT6xDfwGcA38lUCOEFduzdyBs030GWxN5wQqjdh\r\n4tU3/t3QNxZeyDdEldE3zZfFN+Zs1zc7tck3FRXnNzqL7zcjAeM3NeHRN7Y9mDddvas3qpbCN6A+\r\n6Tee5M83EHO8NxhLxjdPzNQ3rRPQN9VXzTfpXcA3Q/HAN+VtvDdKqcU3FE+1N65Ynzdmx9s3gliP\r\nN0J9AjhO6qk34iPHN/aN6Df3zc03IgShN/KUwjexd8I3qO+qNzHOmjfKDrA3EOfTN1DJ4Ddn07Q3\r\nZDi6N859rjcooZA3tnSxNzyvuTc3v9E3FXeYN9ICljcC0LY3sY/rNwRUxDfl/6U3TImGNyh3pjer\r\nIds3TovQN2tLoTctxMo3j1TAN5k6mTerysI33TemNwcGqTcK/OM3Z7zvN5ht7zeF8K43puqYN7ru\r\nrDfp16w3synKNzkYmDeWRt43ea7DN0oeuzcxbbU3Bn6wNyUr8Dc2Nao3Rwe2N4yvsTeHS8s3ZHTQ\r\nNzvD3zebMMY3EqXAN9ZutzdF2so3yUveN7DP5jfenJw3ouzTNzhlyzdFU6I3WviPNzkXkjePmtA3\r\n7Mu1N7dDvDfU6Lo3DDqtN6CTnDcrkso31wq9NzVUszfoarE3E0rLN4o7xzcChaw3UrmwN2GntzfH\r\n2Kk3j3uiN4yltDf2Kqo3bvHaN1MmuTedz7c3QEKmN0JjsjemVMg3NS64N1C34Tf58LE33ouaN55s\r\nqDeI3MA3OafkN+U+0DdvQr83zX2uN3cVxDfXero3GzG/N7z7yDd7YcE3TwDDNyC0zjd6oKk3U+C4\r\nN+g00Te0C8Y3MvKlN5ZE4DfgO6E3BGe5N95VjjdBOaI3V6vANzRApzezHr0379usN6WXzTeV75E3\r\niCKXN8ixxDfZL8U3vRqmN03qxTfs1rY3+hilN9Q72zdG0q83ZsC8N8OOwDfco6s32TXKN050qTeG\r\nNc43FrqXNwzl0TeQ2bE3coO4N2senzcE4NE3N1ijN2LuqDfA+q03baPQN7G/qTdyFLI3D1W0NxLW\r\nojczhKs3JKq4N3sHrzfFKLo3PEixNwOmsjfqZbI3MrnRNwaKjDeOAaw3XYu8NwBM0TdKBLg3ya2U\r\nN5h6yzd6SLw3mqSdN23dkjdcLrE33KCnN5HX3jc7usk3GVO9NyO3rTdpebc3TBfQNwAIwzd5JoY+\r\n90P8Pnae5T4zvWc/vnDNQNaU6kHezlxAkNGtP/y5CkAzZq5ASLbaPvgBgD9+oI4/eo3ZQCNrI0BH\r\nAvs+rSlWPpLYGz+nJZw+TWRqPoU3sj4uqb8++yWfPjkZdj+AeFA/T/oOP6oPjz4tdlY/JapPPwrC\r\nQkA36DtBrf2WQDjEVUEmN4hBjnx3QURRmUDTs9VBzaGGQFne90AzqqVAQjhxP+hjeT++os4/RAgW\r\nP6PYZD/UYGE/2DmHP+rZnj8O2CxAK1NEP1NUGz/uIs8/lEeEP6yDWT+LwI8/tzZbP/jE0D6HmBo/\r\ngkTNPo/oEz/mPQ8/ufrwPvKypD/HKSNAIRtkQEuyST8mZQY/urKxPwd3PD8yDopABfhuPxCXPz/m\r\nGXE+5VkGPy1B5j8xdv8+nFCCPtjkLj+wFPs+Oj1nPnf3nz4ulrw9ySvVPa+bHT6yjTg+OIFVP4D6\r\nYj7Ro5k9goipPdA00j1Y5lo9ZVgJPtNetz7dbpA+fupaPkExJz4KRic9on4rPVJjLD5QD1s+XRQ2\r\nPaY5kT24uP08KPVRPaPhKD0wTbc9pARBPhHLBD5lY6g9K/niPFUf1j2TrQw9wo8zPXGgiD0wQOc9\r\nDJqKPsW+iz4vOxc/RujcPlIS9z5CxjU//EHTPFKUTT0/FZs+wVahPh9fuz7E02U/J4WrP8W+tT9m\r\nABE+lD8CPxuJDz77sUE8hTeuPrPGRj/M/Mg+3r0AQIqR1z6BT089Ay1dPUlwST3zxpg9ctqxPqji\r\nND93bCw/1qEbP23mwT+GZYs/GRqtP2k+bD9JXf09uiJWPjopij3m7708FfwWPvKz8j2Q7xM/LW8I\r\nP21rOj9U3QY/j4+MPleHBj1/E+A+GdPPPgpH6D4I0EA+7nOdPptQ8D2jg8U+JuECP6zX0z4BLPY+\r\n1k59P3Qj2D+flIdAOuG7QHm1PEF9wU1B+UZ5QTEzlkGEx6VBGkDiQZ/cAEKcRuxBXUbDQfEpQkE8\r\nspRBFsSKQenul0ECWr5BNTOaQUKavUHDd7hB2hOwQfokwkFKO8ZBsgrGQRMSGEEil5BB4ls5QUGA\r\nz0Cg5BRAYG4SQHH4JkA5zLI/URMLP/jVAj1RRug9JdvKPUNyAD3TY6Y9jgEVPsYe+D5sw9Y+eoPK\r\nPm7j7z7GjV0/Pv9sP4QP/T5UOx0+MWiUPlkKLz5p/tI8My2ePGixQT0TWEg9n/cHPW11mT14Zd49\r\nE0QOPcriaTwm67Y8QsE4Pb6hIjw1s7c8ec3MPJBXLz1Q/+c9soapPnV2IT/bf9o9XblWQKpxlD/R\r\nIWg/G+0FP+JXJkBiBho+sABcPm89dD8vO61AOp9gP6AHvj7VHqo/KllKQUzbbEDaE1FBm1ELQdrm\r\nAkGsFIJADOnhQKS0Q0FUS0JBFXEiQbgEBEGL2KRAsju0P2hhZz7nTiFAMcKEP1jf8j+0+sE+0c0P\r\nQAQRC0Bgrr8/2HiOP1UHsT54qh8/r46QPvPDYz4gBqU8WgY2Pm9sST44NfM+1E6zPUoUxz6PhJc+\r\ndf/FPXp61z2OHkc+VxjMPmYWxT+k+nZAIt4pQV70f0GOFLZBj/xoQiu4mEIafqxC+4OIQqcVj0Jw\r\nE2hCKHBcQkpwB0JFXBtCCp/UQRY11UF+9AlBdYiCQdwLQUH34xBBpvDWQDVrCEFV51pB9n6WQV+9\r\n2kEmDvxB9YcJQjBa9kFTiAFCV431QT008EF/WNFBajWtQfOxaUH5yH1BteNQQQfTeEHKlEhBbsc3\r\nQdWU/UAOGrJAq4ZmQIyCLUDXo7E/sxr1PzO6/T+SfRxA0CYlQGe+WEBlNyxALvENQDFX8D9UBNU/\r\nnsmwPw+Ynj9+4l4/KLE0P7Az/j5p/t0+bovDPggEkT5+TQU+H0DAPQoEdT0BiX09uO39PEEwFT2h\r\njZc8O+jnO0gRkTuxbHc7nJedOwqoFDuahW07s6buOkGo+DrGcrY6u3FjOhF/tDqvYGU5reNoOnbH\r\nDTnNkRY6gFjpOEHSIzoSvQM5M/c9OvpV7jhnXBw6b20HOSsO0jnOnpg5lP1MOXp+3jkbVbQ4abyf\r\nOTxqbjkJMTg5Zku7OTB7vji7vyM5xDjCOZD0kDnqCxY5++HiOIxoozjA0sc4+PCyOfn06DmbdQw5\r\nZFeQOEyMQTmmqOw40Q0DOS0TjTmbpqg4XnuHOA+5CDnqPqQ4MLy3OBwajjga0as4IuqHONWBjDi0\r\n/3w4cHR/OGBJgTiHDnk4j8N2OPh/cjilv4A45Pd9OIh/fDjGmr44UthLOTDODDm55m04NWQ1OU8+\r\nyzimWCU558Y4OUp0BznkX2U4NfLbOGoq0jgcOsY4YndeOCDhyDjCfSQ5W8ATOUBMhzlsQHc4WDNn\r\nOK6f3DimqKM4spwzOWJyFDkIwGQ4JL9kOAwbdjhQ02g4I/leONsXgDis50Y4zplbOGoKUDhd3Us4\r\nyKlxONI5WTj2y0E4zC9WODqxgTj83Gk4kIdLOObtajhSozs4YApGOBo4VziM+0E4hIdKOFQGMTio\r\nMVc45HdVOPjsTziTzEc4YspAODpMZjgaym04yu48OBgEYziWkT04s/tCOCweSziOBWY4UKNgOBhC\r\nUDjwUEE4PUNBOBpYWzgC/iA41bRMOEhRNThcQzg4UjR3OKLfMDjmPiE4BDJcOMdYQThaSUE4YAE9\r\nONzBPzgsOFs4AqtNONnsKDi0RSw4oC5HOG9MSjhgWCY4YiMkOIZHSzgbgjs40G06OAD5RDhmDjg4\r\nNBg+OMhMQTisEzE4YpJCOJ9bPjgohzI4nHVDOBJjQThqYjQ4hHMrOLhOHDgdYSY4zGAeOCT0JDiD\r\nxR44GHgqONoqMThQIyI4kJEoOJZzPjiqGj04qm4sOMEQLTgUATs46FgoOApxFDixpy04kJYlOEZ2\r\nKzjqiRQ4fpI1OB0XUTg+2zA4c/9yOMbOhjjypDM48ZkIODqqHTjeNTQ4lTgvOG6HFThxhR04uAIl\r\nONrhMThWXkI4MT8xOH1XJTh6gSA4EaokOD4WIDgHwxE4YpcVOMBFJTgUWBQ4ZMcSON6OGzi1+/Y3\r\nP2QcOG2PAzgc3RU4Tdg7OO0tCDiEug44ZJcPOAGgKTgm7vY3UlwUOJAmEji4gxQ45rkMOMfhKTh8\r\nNwU4XhgMOKptKDjduRo4PwQOOAYVKTiCrgk40PEOOKKpAThLnhc4mIMPOMwDEjjIjxU4SxoyOBy9\r\nBDh29Os3pBEbOJ4JCzgW8B444voVODnJAThTKwY4rLoOOPAVBjg8Ywg4KAUIOCvACjiajxA48m0U\r\nOPAd8jdSTA44nNnuNxl7CTgcqes3HMQDOI9dHTjlbQM493oOOBUrETghF/g3AKgMOKjuFDglxxk4\r\nCmz9N1I2ADgVpPo31PsTOCs6FTi8pAs4tXD0N0PhEjjE9yY4uBEKOJg66DfBXgI4/loAOPRrCjjJ\r\n5dc3ylINOGjRAThCpf43roIDOBil8TefcgM4oqYFOF2hAjhGIgc43HXvNzTTDTjMYe83ikYNOANV\r\nBzjA4u43JfUQOJTw4DcqkdM3HvXfN9DmADgbnOM3IQ8AOMqQ5TeEugw4/8/MN7RQ/DeRFe43a/wV\r\nOAPD9zdwSRM4IsHqN0EE4zcc0/I3Kp3mNzUM6Td75RQ4JFUCOCvbBDiYePY3NibvNzHv6TfSqv83\r\nzkzfN0dP2jd/++Y3c60DOF6D+zcvJwY4yrjsN9up3TcejAQ4skTmNxlEADhTn/A3n3nON6gY+DeY\r\nZgI4neb7NwlE+jc6TOs3Blf0N0TVwTdfW9U388L3NxNO6zc9zwM4BJTLNxJg9jdweO43WDj1N6E0\r\nyTcgJ8g3UQLrN+XM4zdZ3Pg3gw7MN7QD/DeGV/M3WDDgN7n0wzdyeeU3JVDgNyJW6DeCuuo3rnfW\r\nN/Ic1TdsLNc3xyPEN6Xe5DfGp783ElzWN9Ci6zdzGPQ3nZgAOLHD0jcEC843enzWNyLo7jfzjvU3\r\nPvHmN+SL3zdMjso3ZsLxN3wf9Tfv9N83OsfRN35o4Tcz7cc3KHXnN30I7zfVRAc4PLTYNzKczDeN\r\nHPs3UvjIN/iL2zfZUvY320m+NyBV4DeowPo3JMkDOEeM2Dfnr9c3VRzYN+bguzd0Y9E3d1/EN2I/\r\n4DcZHOE3SM3CN2oRsjeJfNg3yCL5N1YrvTeW+cg3+i7dN/Od+Dcgt7s3ktHSN65twjcag9g3ZsLF\r\nN7uDyzfNYsY3jKzNN9ndyzeE4Ns3j8vBN4hwxjfat703G0/mN0PDxzcH+8o3vhHFN8n47Td6NO43\r\nGPLdNwnOpzfiU+03Qbm3N+bj3DfH0Qo4tPrEN/AZwDfyVQI4QV27N3IGzTfQZbE3nBCqN2Hi1Tf+\r\n3dA3Fl7IN0SV0TfNl8U35mzXNzu1yTcVFec3OovvNyMB4zc14dE3tj2YN129qzeqlsI3oD7pN57k\r\nzzcQc7w3GEvGN0/M1DetE9A31VfNN+ldwDdD8cA35W28N0qpxTcUT7U3rlifN2bH2zeCWI83Qn0C\r\nOE7qqTfiI8c39o3oN/fNzTciBKE38pTCN7F3wjeo76o3Mc6aN8oOsDcQ59M3UMngN2fTtDdkOLo3\r\nzn2uNyihkDe2dLE3PK+5Nze/0TcVd5g30gKWNwLQtjexj+s3BFTEN+X/pTdMiYY3KHemN6sh2zdO\r\ni9A3a0uhNy3EyjePVMA3mTqZN6vKwjfdN6Y3BwapNwr84zdnvO83mG3vN4Xwrjem6pg3uu6sN+nX\r\nrDezKco3ORiYN5ZG3jd5rsM3Sh67NzFttTcGfrA3JSvwNzY1qjdHB7Y3jK+xN4dLyzdkdNA3O8Pf\r\nN5swxjcSpcA31m63N0XayjfJS943sM/mN96cnDei7NM3OGXLN0VTojda+I83OReSN4+a0Dfsy7U3\r\nt0O8N9ToujcMOq03oJOcNyuSyjfXCr03NVSzN+hqsTcTSss3ijvHNwKFrDdSubA3Yae3N8fYqTeP\r\ne6I3jKW0N/Yqqjdu8do3Uya5N53PtzdAQqY3QmOyN6ZUyDc1Lrg3ULfhN/nwsTfei5o3nmyoN4jc\r\nwDc5p+Q35T7QN29CvzfNfa43dxXEN9d6ujcbMb83vPvIN3thwTdPAMM3ILTON3qgqTdT4Lg36DTR\r\nN7QLxjcy8qU3lkTgN+A7oTcEZ7k33lWON0E5ojdXq8A3NECnN7MevTfv26w3pZfNN5XvkTeIIpc3\r\nyLHEN9kvxTe9GqY3TerFN+zWtjf6GKU31DvbN0bSrzdmwLw3w47AN9yjqzfZNco3TnSpN4Y1zjcW\r\nupc3DOXRN5DZsTdyg7g3ax6fNwTg0Tc3WKM3Yu6oN8D6rTdto9A3sb+pN3IUsjcPVbQ3EtaiNzOE\r\nqzckqrg3ewevN8Uoujc8SLE3A6ayN+plsjcyudE3BoqMN44BrDddi7w3AEzRN0oEuDfJrZQ3mHrL\r\nN3pIvDeapJ03bd2SN1wusTfcoKc3kdfeNzu6yTcZU703I7etN2l5tzdMF9A3AAjDNw==",
                            "noiseTrainingType" : "default"
                          }
                        }
                    ],
                    "start" : 6119,
                    "duration" : 599,
                    "mediaStart" : 2136,
                    "mediaDuration" : 599,
                    "scalar" : 1,
                    "metadata" : {
                      "WinSubProjectDisplayName" : "",
                      "clipSpeedAttribute" : false
                    },
                    "animationTracks" : {

                    }
                  },
                  {
                    "id" : 133,
                    "_type" : "AMFile",
                    "src" : 3,
                    "trackNumber" : 1,
                    "attributes" : {
                      "ident" : "tower-columns-03",
                      "sampleRate" : 44100,
                      "bitDepth" : 16,
                      "gain" : 1.0,
                      "mixToMono" : false
                    },
                      "channelNumber" : "0,1",
                    "effects" : [
                        {
                          "effectName" : "NoiseReduction",
                          "category" : "categoryAudioEffects",
                          "parameters" : {
                            "denoiserAmount" : 20.0,
                            "denoiserThreshold" : 0.0,
                            "noiseProfile" : "eSaGPvdD/D52nuU+M71nP75wzUDWlOpB3s5cQJDRrT/8uQpAM2auQEi22j74AYA/fqCOP3qN2UAj\r\nayNARwL7Pq0pVj6v3Rs/pyWcPk1kaj6FN7I+Lqm/Pvslnz45GXY/gHhQP0/6Dj+qD48+LXZWPyWq\r\nTz8KwkJAeug7Qa39lkA4xFVBJjeIQY58d0FEUZlA7LXVQc2hhkBZ3vdAWbGlQPg8cT/oY3k/hJjO\r\nP3/sFT+j2GQ/1GBhP9g5hz/q2Z4/DtgsQCtTRD9TVBs/7iLPP5RHhD+sg1k/i8CPP7c2Wz/4xNA+\r\nh5gaP4JEzT6P6BM/5j0PP7n68D7ysqQ/xykjQCEbZECIn0k/JmUGP7qysT8Hdzw/rg2KQAgObz8Q\r\nlz8/5hlxPuVZBj8tQeY/MXb/PpxQgj7u8y4/rxj7Pjo9Zz53958+Lpa8Pckr1T2vmx0+so04PjiB\r\nVT+A+mI+0aOZPYKIqT3QNNI9WOZaPWVYCT7TXrc+pnOQPhQOWz5BMSc+CkYnPaJ+Kz1SYyw+UA9b\r\nPl0UNj2mOZE9uLj9PPoBUj2j4Sg9ME23PaQEQT4RywQ+ZWOoPSv54jxVH9Y9k60MPTV1Mz1xoIg9\r\nvqfnPQyaij7Fvos+LzsXP0bo3D5SEvc+QsY1P/xB0zxSlE09PxWbPsFWoT4fX7s+xNNlPyeFqz/F\r\nvrU/ZgARPpQ/Aj8biQ8++7FBPIU3rj6zxkY/zPzIPt69AECKkdc+gU9PPQMtXT1JcEk988aYPXLa\r\nsT6o4jQ/d2wsP9ahGz9t5sE/hmWLPxkarT9pPmw/SV39PboiVj46KYo95u+9PBX8Fj7ys/I9kO8T\r\nPy1vCD9tazo/VN0GP4+PjD5XhwY9fxPgPhnTzz4KR+g+CNBAPu5znT6bUPA9o4PFPibhAj+s19M+\r\nASz2PtZOfT90I9g/n5SHQDrhu0B5tTxBfcFNQflGeUExM5ZBhMelQRpA4kGf3ABCnEbsQV1Gw0Hx\r\nKUJBPLKUQRbEikHp7pdBAlq+QTUzmkFCmr1Bw3e4QdoTsEH6JMJBSjvGQbIKxkETEhhBIpeQQeJb\r\nOUFBgM9AoOQUQGBuEkBx+CZAOcyyP1ETCz/41QI9UUboPSXbyj1DcgA902OmPY4BFT7GHvg+bMPW\r\nPnqDyj5u4+8+xo1dPz7/bD+ED/0+VDsdPjFolD5ZCi8+af7SPDMtnjxosUE9E1hIPZ/3Bz1tdZk9\r\neGXePRNEDj3K4mk8Juu2PELBOD2+oSI8NbO3PHnNzDyQVy89UP/nPbKGqT51diE/23/aPV25VkCq\r\ncZQ/0SFoPxvtBT/iVyZAYgYaPrAAXD5vPXQ/LzutQDqfYD+gB74+1R6qPypZSkFM22xA2hNRQZtR\r\nC0Ha5gJBrBSCQAzp4UCktENBVEtCQRVxIkG4BARBi9ikQLI7tD9oYWc+504hQDHChD9Y3/I/tPrB\r\nPtHND0AEEQtAYK6/P9h4jj9VB7E+eKofP6+OkD7zw2M+YDqlPFoGNj5vbEk+ODXzPtROsz1KFMc+\r\nj4SXPnX/xT16etc9jh5HPlcYzD5mFsU/pPp2QCLeKUFe9H9BjhS2QY/8aEIruJhCGn6sQvuDiEKn\r\nFY9CcBNoQihwXEJKcAdCRVwbQgqf1EEWNdVBfvQJQXWIgkHcC0FB9+MQQabw1kA1awhBVedaQfZ+\r\nlkFfvdpBJg78QfWHCUIwWvZBU4gBQleN9UE9NPBBf1jRQWo1rUHzsWlB+ch9QbXjUEEH03hBypRI\r\nQW7HN0HVlP1ADhqyQKuGZkCMgi1A16OxP7Ma9T8zuv0/kn0cQNAmJUBnvlhAZTcsQC7xDUAxV/A/\r\nVATVP57JsD8PmJ4/fuJePyixND+wM/4+af7dPm6Lwz4IBJE+fk0FPh9AwD0KBHU9AYl9Pbjt/TxB\r\nMBU9oY2XPDvo5ztIEZE7sWx3O5yXnTsKqBQ7moVtO7Om7jpBqPg6xnK2OrtxYzoRf7Q6r2BlOa3j\r\naDp2xw05zZEWOoBY6ThB0iM6Er0DOTP3PTr6Ve44Z1wcOm9tBzkrDtI5zp6YOZT9TDl6ft45G1W0\r\nOGm8nzk8am45CTE4OWZLuzkwe744u78jOcQ4wjmQ9JA56gsWOfvh4jiMaKM4wNLHOPjwsjn59Og5\r\nm3UMOWRXkDhMjEE5pqjsONENAzktE405m6aoOF57hzgPuQg56j6kODC8tzgcGo44GtGrOCLqhzjV\r\ngYw4tP98OHB0fzhgSYE4hw55OI/Ddjj4f3I4pb+AOOT3fTiIf3w4xpq+OFLYSzkwzgw5ueZtODVk\r\nNTlPPss4plglOefGODlKdAc55F9lODXy2zhqKtI4HDrGOGJ3Xjgg4cg4wn0kOVvAEzlATIc5bEB3\r\nOFgzZziun9w4pqijOLKcMzlichQ5CMBkOCS/ZDgMG3Y4UNNoOCP5XjjbF4A4rOdGOM6ZWzhqClA4\r\nXd1LOMipcTjSOVk49stBOMwvVjg6sYE4/NxpOJCHSzjm7Wo4UqM7OGAKRjgaOFc4jPtBOISHSjhU\r\nBjE4qDFXOOR3VTj47E84k8xHOGLKQDg6TGY4GsptOMruPDgYBGM4lpE9OLP7QjgsHks4jgVmOFCj\r\nYDgYQlA48FBBOD1DQTgaWFs4Av4gONW0TDhIUTU4XEM4OFI0dzii3zA45j4hOAQyXDjHWEE4WklB\r\nOGABPTjcwT84LDhbOAKrTTjZ7Cg4tEUsOKAuRzhvTEo4YFgmOGIjJDiGR0s4G4I7ONBtOjgA+UQ4\r\nZg44ODQYPjjITEE4rBMxOGKSQjifWz44KIcyOJx1QzgSY0E4amI0OIRzKzi4Thw4HWEmOMxgHjgk\r\n9CQ4g8UeOBh4KjjaKjE4UCMiOJCRKDiWcz44qho9OKpuLDjBEC04FAE7OOhYKDgKcRQ4sactOJCW\r\nJThGdis46okUOH6SNTgdF1E4PtswOHP/cjjGzoY48qQzOPGZCDg6qh043jU0OJU4LzhuhxU4cYUd\r\nOLgCJTja4TE4Vl5CODE/MTh9VyU4eoEgOBGqJDg+FiA4B8MROGKXFTjARSU4FFgUOGTHEjjejhs4\r\ntfv2Nz9kHDhtjwM4HN0VOE3YOzjtLQg4hLoOOGSXDzgBoCk4Ju72N1JcFDiQJhI4uIMUOOa5DDjH\r\n4Sk4fDcFOF4YDDiqbSg43bkaOD8EDjgGFSk4gq4JONDxDjiiqQE4S54XOJiDDzjMAxI4yI8VOEsa\r\nMjgcvQQ4dvTrN6QRGzieCQs4FvAeOOL6FTg5yQE4UysGOKy6DjjwFQY4PGMIOCgFCDgrwAo4mo8Q\r\nOPJtFDjwHfI3UkwOOJzZ7jcZewk4HKnrNxzEAziPXR045W0DOPd6DjgVKxE4IRf4NwCoDDio7hQ4\r\nJccZOAps/TdSNgA4FaT6N9T7EzgrOhU4vKQLOLVw9DdD4RI4xPcmOLgRCjiYOug3wV4COP5aADj0\r\nawo4yeXXN8pSDTho0QE4QqX+N66CAzgYpfE3n3IDOKKmBThdoQI4RiIHONx17zc00w04zGHvN4pG\r\nDTgDVQc4wOLuNyX1EDiU8OA3KpHTNx713zfQ5gA4G5zjNyEPADjKkOU3hLoMOP/PzDe0UPw3kRXu\r\nN2v8FTgDw/c3cEkTOCLB6jdBBOM3HNPyNyqd5jc1DOk3e+UUOCRVAjgr2wQ4mHj2NzYm7zcx7+k3\r\n0qr/N85M3zdHT9o3f/vmN3OtAzheg/s3LycGOMq47Dfbqd03HowEOLJE5jcZRAA4U5/wN595zjeo\r\nGPg3mGYCOJ3m+zcJRPo3OkzrNwZX9DdE1cE3X1vVN/PC9zcTTus3Pc8DOASUyzcSYPY3cHjuN1g4\r\n9TehNMk3ICfIN1EC6zflzOM3Wdz4N4MOzDe0A/w3hlfzN1gw4De59MM3cnnlNyVQ4DciVug3grrq\r\nN6531jfyHNU3bCzXN8cjxDel3uQ3xqe/NxJc1jfQous3cxj0N52YADixw9I3BAvON3p81jci6O43\r\n8471Nz7x5jfki983TI7KN2bC8Td8H/U37/TfNzrH0Td+aOE3M+3HNyh15zd9CO831UQHODy02Dcy\r\nnMw3jRz7N1L4yDf4i9s32VL2N9tJvjcgVeA3qMD6NyTJAzhHjNg356/XN1Uc2Dfm4Ls3dGPRN3df\r\nxDdiP+A3GRzhN0jNwjdqEbI3iXzYN8gi+TdWK703lvnIN/ou3Tfznfg3ILe7N5LR0jeubcI3GoPY\r\nN2bCxTe7g8s3zWLGN4yszTfZ3cs3hODbN4/LwTeIcMY32re9NxtP5jdDw8c3B/vKN74RxTfJ+O03\r\nejTuNxjy3TcJzqc34lPtN0G5tzfm49w3x9EKOLT6xDfwGcA38lUCOEFduzdyBs030GWxN5wQqjdh\r\n4tU3/t3QNxZeyDdEldE3zZfFN+Zs1zc7tck3FRXnNzqL7zcjAeM3NeHRN7Y9mDddvas3qpbCN6A+\r\n6Tee5M83EHO8NxhLxjdPzNQ3rRPQN9VXzTfpXcA3Q/HAN+VtvDdKqcU3FE+1N65Ynzdmx9s3gliP\r\nN0J9AjhO6qk34iPHN/aN6Df3zc03IgShN/KUwjexd8I3qO+qNzHOmjfKDrA3EOfTN1DJ4Ddn07Q3\r\nZDi6N859rjcooZA3tnSxNzyvuTc3v9E3FXeYN9ICljcC0LY3sY/rNwRUxDfl/6U3TImGNyh3pjer\r\nIds3TovQN2tLoTctxMo3j1TAN5k6mTerysI33TemNwcGqTcK/OM3Z7zvN5ht7zeF8K43puqYN7ru\r\nrDfp16w3synKNzkYmDeWRt43ea7DN0oeuzcxbbU3Bn6wNyUr8Dc2Nao3Rwe2N4yvsTeHS8s3ZHTQ\r\nNzvD3zebMMY3EqXAN9ZutzdF2so3yUveN7DP5jfenJw3ouzTNzhlyzdFU6I3WviPNzkXkjePmtA3\r\n7Mu1N7dDvDfU6Lo3DDqtN6CTnDcrkso31wq9NzVUszfoarE3E0rLN4o7xzcChaw3UrmwN2GntzfH\r\n2Kk3j3uiN4yltDf2Kqo3bvHaN1MmuTedz7c3QEKmN0JjsjemVMg3NS64N1C34Tf58LE33ouaN55s\r\nqDeI3MA3OafkN+U+0DdvQr83zX2uN3cVxDfXero3GzG/N7z7yDd7YcE3TwDDNyC0zjd6oKk3U+C4\r\nN+g00Te0C8Y3MvKlN5ZE4DfgO6E3BGe5N95VjjdBOaI3V6vANzRApzezHr0379usN6WXzTeV75E3\r\niCKXN8ixxDfZL8U3vRqmN03qxTfs1rY3+hilN9Q72zdG0q83ZsC8N8OOwDfco6s32TXKN050qTeG\r\nNc43FrqXNwzl0TeQ2bE3coO4N2senzcE4NE3N1ijN2LuqDfA+q03baPQN7G/qTdyFLI3D1W0NxLW\r\nojczhKs3JKq4N3sHrzfFKLo3PEixNwOmsjfqZbI3MrnRNwaKjDeOAaw3XYu8NwBM0TdKBLg3ya2U\r\nN5h6yzd6SLw3mqSdN23dkjdcLrE33KCnN5HX3jc7usk3GVO9NyO3rTdpebc3TBfQNwAIwzd5JoY+\r\n90P8Pnae5T4zvWc/vnDNQNaU6kHezlxAkNGtP/y5CkAzZq5ASLbaPvgBgD9+oI4/eo3ZQCNrI0BH\r\nAvs+rSlWPpLYGz+nJZw+TWRqPoU3sj4uqb8++yWfPjkZdj+AeFA/T/oOP6oPjz4tdlY/JapPPwrC\r\nQkA36DtBrf2WQDjEVUEmN4hBjnx3QURRmUDTs9VBzaGGQFne90AzqqVAQjhxP+hjeT++os4/RAgW\r\nP6PYZD/UYGE/2DmHP+rZnj8O2CxAK1NEP1NUGz/uIs8/lEeEP6yDWT+LwI8/tzZbP/jE0D6HmBo/\r\ngkTNPo/oEz/mPQ8/ufrwPvKypD/HKSNAIRtkQEuyST8mZQY/urKxPwd3PD8yDopABfhuPxCXPz/m\r\nGXE+5VkGPy1B5j8xdv8+nFCCPtjkLj+wFPs+Oj1nPnf3nz4ulrw9ySvVPa+bHT6yjTg+OIFVP4D6\r\nYj7Ro5k9goipPdA00j1Y5lo9ZVgJPtNetz7dbpA+fupaPkExJz4KRic9on4rPVJjLD5QD1s+XRQ2\r\nPaY5kT24uP08KPVRPaPhKD0wTbc9pARBPhHLBD5lY6g9K/niPFUf1j2TrQw9wo8zPXGgiD0wQOc9\r\nDJqKPsW+iz4vOxc/RujcPlIS9z5CxjU//EHTPFKUTT0/FZs+wVahPh9fuz7E02U/J4WrP8W+tT9m\r\nABE+lD8CPxuJDz77sUE8hTeuPrPGRj/M/Mg+3r0AQIqR1z6BT089Ay1dPUlwST3zxpg9ctqxPqji\r\nND93bCw/1qEbP23mwT+GZYs/GRqtP2k+bD9JXf09uiJWPjopij3m7708FfwWPvKz8j2Q7xM/LW8I\r\nP21rOj9U3QY/j4+MPleHBj1/E+A+GdPPPgpH6D4I0EA+7nOdPptQ8D2jg8U+JuECP6zX0z4BLPY+\r\n1k59P3Qj2D+flIdAOuG7QHm1PEF9wU1B+UZ5QTEzlkGEx6VBGkDiQZ/cAEKcRuxBXUbDQfEpQkE8\r\nspRBFsSKQenul0ECWr5BNTOaQUKavUHDd7hB2hOwQfokwkFKO8ZBsgrGQRMSGEEil5BB4ls5QUGA\r\nz0Cg5BRAYG4SQHH4JkA5zLI/URMLP/jVAj1RRug9JdvKPUNyAD3TY6Y9jgEVPsYe+D5sw9Y+eoPK\r\nPm7j7z7GjV0/Pv9sP4QP/T5UOx0+MWiUPlkKLz5p/tI8My2ePGixQT0TWEg9n/cHPW11mT14Zd49\r\nE0QOPcriaTwm67Y8QsE4Pb6hIjw1s7c8ec3MPJBXLz1Q/+c9soapPnV2IT/bf9o9XblWQKpxlD/R\r\nIWg/G+0FP+JXJkBiBho+sABcPm89dD8vO61AOp9gP6AHvj7VHqo/KllKQUzbbEDaE1FBm1ELQdrm\r\nAkGsFIJADOnhQKS0Q0FUS0JBFXEiQbgEBEGL2KRAsju0P2hhZz7nTiFAMcKEP1jf8j+0+sE+0c0P\r\nQAQRC0Bgrr8/2HiOP1UHsT54qh8/r46QPvPDYz4gBqU8WgY2Pm9sST44NfM+1E6zPUoUxz6PhJc+\r\ndf/FPXp61z2OHkc+VxjMPmYWxT+k+nZAIt4pQV70f0GOFLZBj/xoQiu4mEIafqxC+4OIQqcVj0Jw\r\nE2hCKHBcQkpwB0JFXBtCCp/UQRY11UF+9AlBdYiCQdwLQUH34xBBpvDWQDVrCEFV51pB9n6WQV+9\r\n2kEmDvxB9YcJQjBa9kFTiAFCV431QT008EF/WNFBajWtQfOxaUH5yH1BteNQQQfTeEHKlEhBbsc3\r\nQdWU/UAOGrJAq4ZmQIyCLUDXo7E/sxr1PzO6/T+SfRxA0CYlQGe+WEBlNyxALvENQDFX8D9UBNU/\r\nnsmwPw+Ynj9+4l4/KLE0P7Az/j5p/t0+bovDPggEkT5+TQU+H0DAPQoEdT0BiX09uO39PEEwFT2h\r\njZc8O+jnO0gRkTuxbHc7nJedOwqoFDuahW07s6buOkGo+DrGcrY6u3FjOhF/tDqvYGU5reNoOnbH\r\nDTnNkRY6gFjpOEHSIzoSvQM5M/c9OvpV7jhnXBw6b20HOSsO0jnOnpg5lP1MOXp+3jkbVbQ4abyf\r\nOTxqbjkJMTg5Zku7OTB7vji7vyM5xDjCOZD0kDnqCxY5++HiOIxoozjA0sc4+PCyOfn06DmbdQw5\r\nZFeQOEyMQTmmqOw40Q0DOS0TjTmbpqg4XnuHOA+5CDnqPqQ4MLy3OBwajjga0as4IuqHONWBjDi0\r\n/3w4cHR/OGBJgTiHDnk4j8N2OPh/cjilv4A45Pd9OIh/fDjGmr44UthLOTDODDm55m04NWQ1OU8+\r\nyzimWCU558Y4OUp0BznkX2U4NfLbOGoq0jgcOsY4YndeOCDhyDjCfSQ5W8ATOUBMhzlsQHc4WDNn\r\nOK6f3DimqKM4spwzOWJyFDkIwGQ4JL9kOAwbdjhQ02g4I/leONsXgDis50Y4zplbOGoKUDhd3Us4\r\nyKlxONI5WTj2y0E4zC9WODqxgTj83Gk4kIdLOObtajhSozs4YApGOBo4VziM+0E4hIdKOFQGMTio\r\nMVc45HdVOPjsTziTzEc4YspAODpMZjgaym04yu48OBgEYziWkT04s/tCOCweSziOBWY4UKNgOBhC\r\nUDjwUEE4PUNBOBpYWzgC/iA41bRMOEhRNThcQzg4UjR3OKLfMDjmPiE4BDJcOMdYQThaSUE4YAE9\r\nONzBPzgsOFs4AqtNONnsKDi0RSw4oC5HOG9MSjhgWCY4YiMkOIZHSzgbgjs40G06OAD5RDhmDjg4\r\nNBg+OMhMQTisEzE4YpJCOJ9bPjgohzI4nHVDOBJjQThqYjQ4hHMrOLhOHDgdYSY4zGAeOCT0JDiD\r\nxR44GHgqONoqMThQIyI4kJEoOJZzPjiqGj04qm4sOMEQLTgUATs46FgoOApxFDixpy04kJYlOEZ2\r\nKzjqiRQ4fpI1OB0XUTg+2zA4c/9yOMbOhjjypDM48ZkIODqqHTjeNTQ4lTgvOG6HFThxhR04uAIl\r\nONrhMThWXkI4MT8xOH1XJTh6gSA4EaokOD4WIDgHwxE4YpcVOMBFJTgUWBQ4ZMcSON6OGzi1+/Y3\r\nP2QcOG2PAzgc3RU4Tdg7OO0tCDiEug44ZJcPOAGgKTgm7vY3UlwUOJAmEji4gxQ45rkMOMfhKTh8\r\nNwU4XhgMOKptKDjduRo4PwQOOAYVKTiCrgk40PEOOKKpAThLnhc4mIMPOMwDEjjIjxU4SxoyOBy9\r\nBDh29Os3pBEbOJ4JCzgW8B444voVODnJAThTKwY4rLoOOPAVBjg8Ywg4KAUIOCvACjiajxA48m0U\r\nOPAd8jdSTA44nNnuNxl7CTgcqes3HMQDOI9dHTjlbQM493oOOBUrETghF/g3AKgMOKjuFDglxxk4\r\nCmz9N1I2ADgVpPo31PsTOCs6FTi8pAs4tXD0N0PhEjjE9yY4uBEKOJg66DfBXgI4/loAOPRrCjjJ\r\n5dc3ylINOGjRAThCpf43roIDOBil8TefcgM4oqYFOF2hAjhGIgc43HXvNzTTDTjMYe83ikYNOANV\r\nBzjA4u43JfUQOJTw4DcqkdM3HvXfN9DmADgbnOM3IQ8AOMqQ5TeEugw4/8/MN7RQ/DeRFe43a/wV\r\nOAPD9zdwSRM4IsHqN0EE4zcc0/I3Kp3mNzUM6Td75RQ4JFUCOCvbBDiYePY3NibvNzHv6TfSqv83\r\nzkzfN0dP2jd/++Y3c60DOF6D+zcvJwY4yrjsN9up3TcejAQ4skTmNxlEADhTn/A3n3nON6gY+DeY\r\nZgI4neb7NwlE+jc6TOs3Blf0N0TVwTdfW9U388L3NxNO6zc9zwM4BJTLNxJg9jdweO43WDj1N6E0\r\nyTcgJ8g3UQLrN+XM4zdZ3Pg3gw7MN7QD/DeGV/M3WDDgN7n0wzdyeeU3JVDgNyJW6DeCuuo3rnfW\r\nN/Ic1TdsLNc3xyPEN6Xe5DfGp783ElzWN9Ci6zdzGPQ3nZgAOLHD0jcEC843enzWNyLo7jfzjvU3\r\nPvHmN+SL3zdMjso3ZsLxN3wf9Tfv9N83OsfRN35o4Tcz7cc3KHXnN30I7zfVRAc4PLTYNzKczDeN\r\nHPs3UvjIN/iL2zfZUvY320m+NyBV4DeowPo3JMkDOEeM2Dfnr9c3VRzYN+bguzd0Y9E3d1/EN2I/\r\n4DcZHOE3SM3CN2oRsjeJfNg3yCL5N1YrvTeW+cg3+i7dN/Od+Dcgt7s3ktHSN65twjcag9g3ZsLF\r\nN7uDyzfNYsY3jKzNN9ndyzeE4Ns3j8vBN4hwxjfat703G0/mN0PDxzcH+8o3vhHFN8n47Td6NO43\r\nGPLdNwnOpzfiU+03Qbm3N+bj3DfH0Qo4tPrEN/AZwDfyVQI4QV27N3IGzTfQZbE3nBCqN2Hi1Tf+\r\n3dA3Fl7IN0SV0TfNl8U35mzXNzu1yTcVFec3OovvNyMB4zc14dE3tj2YN129qzeqlsI3oD7pN57k\r\nzzcQc7w3GEvGN0/M1DetE9A31VfNN+ldwDdD8cA35W28N0qpxTcUT7U3rlifN2bH2zeCWI83Qn0C\r\nOE7qqTfiI8c39o3oN/fNzTciBKE38pTCN7F3wjeo76o3Mc6aN8oOsDcQ59M3UMngN2fTtDdkOLo3\r\nzn2uNyihkDe2dLE3PK+5Nze/0TcVd5g30gKWNwLQtjexj+s3BFTEN+X/pTdMiYY3KHemN6sh2zdO\r\ni9A3a0uhNy3EyjePVMA3mTqZN6vKwjfdN6Y3BwapNwr84zdnvO83mG3vN4Xwrjem6pg3uu6sN+nX\r\nrDezKco3ORiYN5ZG3jd5rsM3Sh67NzFttTcGfrA3JSvwNzY1qjdHB7Y3jK+xN4dLyzdkdNA3O8Pf\r\nN5swxjcSpcA31m63N0XayjfJS943sM/mN96cnDei7NM3OGXLN0VTojda+I83OReSN4+a0Dfsy7U3\r\nt0O8N9ToujcMOq03oJOcNyuSyjfXCr03NVSzN+hqsTcTSss3ijvHNwKFrDdSubA3Yae3N8fYqTeP\r\ne6I3jKW0N/Yqqjdu8do3Uya5N53PtzdAQqY3QmOyN6ZUyDc1Lrg3ULfhN/nwsTfei5o3nmyoN4jc\r\nwDc5p+Q35T7QN29CvzfNfa43dxXEN9d6ujcbMb83vPvIN3thwTdPAMM3ILTON3qgqTdT4Lg36DTR\r\nN7QLxjcy8qU3lkTgN+A7oTcEZ7k33lWON0E5ojdXq8A3NECnN7MevTfv26w3pZfNN5XvkTeIIpc3\r\nyLHEN9kvxTe9GqY3TerFN+zWtjf6GKU31DvbN0bSrzdmwLw3w47AN9yjqzfZNco3TnSpN4Y1zjcW\r\nupc3DOXRN5DZsTdyg7g3ax6fNwTg0Tc3WKM3Yu6oN8D6rTdto9A3sb+pN3IUsjcPVbQ3EtaiNzOE\r\nqzckqrg3ewevN8Uoujc8SLE3A6ayN+plsjcyudE3BoqMN44BrDddi7w3AEzRN0oEuDfJrZQ3mHrL\r\nN3pIvDeapJ03bd2SN1wusTfcoKc3kdfeNzu6yTcZU703I7etN2l5tzdMF9A3AAjDNw==",
                            "noiseTrainingType" : "default"
                          }
                        }
                    ],
                    "start" : 6718,
                    "duration" : 152,
                    "mediaStart" : 2779,
                    "mediaDuration" : 152,
                    "scalar" : 1,
                    "metadata" : {
                      "WinSubProjectDisplayName" : "",
                      "clipSpeedAttribute" : false
                    },
                    "animationTracks" : {

                    }
                  },
                  {
                    "id" : 134,
                    "_type" : "AMFile",
                    "src" : 3,
                    "trackNumber" : 1,
                    "attributes" : {
                      "ident" : "tower-columns-03",
                      "sampleRate" : 44100,
                      "bitDepth" : 16,
                      "gain" : 1.0,
                      "mixToMono" : false
                    },
                      "channelNumber" : "0,1",
                    "effects" : [
                        {
                          "effectName" : "NoiseReduction",
                          "category" : "categoryAudioEffects",
                          "parameters" : {
                            "denoiserAmount" : 20.0,
                            "denoiserThreshold" : 0.0,
                            "noiseProfile" : "eSaGPvdD/D52nuU+M71nP75wzUDWlOpB3s5cQJDRrT/8uQpAM2auQEi22j74AYA/fqCOP3qN2UAj\r\nayNARwL7Pq0pVj6v3Rs/pyWcPk1kaj6FN7I+Lqm/Pvslnz45GXY/gHhQP0/6Dj+qD48+LXZWPyWq\r\nTz8KwkJAeug7Qa39lkA4xFVBJjeIQY58d0FEUZlA7LXVQc2hhkBZ3vdAWbGlQPg8cT/oY3k/hJjO\r\nP3/sFT+j2GQ/1GBhP9g5hz/q2Z4/DtgsQCtTRD9TVBs/7iLPP5RHhD+sg1k/i8CPP7c2Wz/4xNA+\r\nh5gaP4JEzT6P6BM/5j0PP7n68D7ysqQ/xykjQCEbZECIn0k/JmUGP7qysT8Hdzw/rg2KQAgObz8Q\r\nlz8/5hlxPuVZBj8tQeY/MXb/PpxQgj7u8y4/rxj7Pjo9Zz53958+Lpa8Pckr1T2vmx0+so04PjiB\r\nVT+A+mI+0aOZPYKIqT3QNNI9WOZaPWVYCT7TXrc+pnOQPhQOWz5BMSc+CkYnPaJ+Kz1SYyw+UA9b\r\nPl0UNj2mOZE9uLj9PPoBUj2j4Sg9ME23PaQEQT4RywQ+ZWOoPSv54jxVH9Y9k60MPTV1Mz1xoIg9\r\nvqfnPQyaij7Fvos+LzsXP0bo3D5SEvc+QsY1P/xB0zxSlE09PxWbPsFWoT4fX7s+xNNlPyeFqz/F\r\nvrU/ZgARPpQ/Aj8biQ8++7FBPIU3rj6zxkY/zPzIPt69AECKkdc+gU9PPQMtXT1JcEk988aYPXLa\r\nsT6o4jQ/d2wsP9ahGz9t5sE/hmWLPxkarT9pPmw/SV39PboiVj46KYo95u+9PBX8Fj7ys/I9kO8T\r\nPy1vCD9tazo/VN0GP4+PjD5XhwY9fxPgPhnTzz4KR+g+CNBAPu5znT6bUPA9o4PFPibhAj+s19M+\r\nASz2PtZOfT90I9g/n5SHQDrhu0B5tTxBfcFNQflGeUExM5ZBhMelQRpA4kGf3ABCnEbsQV1Gw0Hx\r\nKUJBPLKUQRbEikHp7pdBAlq+QTUzmkFCmr1Bw3e4QdoTsEH6JMJBSjvGQbIKxkETEhhBIpeQQeJb\r\nOUFBgM9AoOQUQGBuEkBx+CZAOcyyP1ETCz/41QI9UUboPSXbyj1DcgA902OmPY4BFT7GHvg+bMPW\r\nPnqDyj5u4+8+xo1dPz7/bD+ED/0+VDsdPjFolD5ZCi8+af7SPDMtnjxosUE9E1hIPZ/3Bz1tdZk9\r\neGXePRNEDj3K4mk8Juu2PELBOD2+oSI8NbO3PHnNzDyQVy89UP/nPbKGqT51diE/23/aPV25VkCq\r\ncZQ/0SFoPxvtBT/iVyZAYgYaPrAAXD5vPXQ/LzutQDqfYD+gB74+1R6qPypZSkFM22xA2hNRQZtR\r\nC0Ha5gJBrBSCQAzp4UCktENBVEtCQRVxIkG4BARBi9ikQLI7tD9oYWc+504hQDHChD9Y3/I/tPrB\r\nPtHND0AEEQtAYK6/P9h4jj9VB7E+eKofP6+OkD7zw2M+YDqlPFoGNj5vbEk+ODXzPtROsz1KFMc+\r\nj4SXPnX/xT16etc9jh5HPlcYzD5mFsU/pPp2QCLeKUFe9H9BjhS2QY/8aEIruJhCGn6sQvuDiEKn\r\nFY9CcBNoQihwXEJKcAdCRVwbQgqf1EEWNdVBfvQJQXWIgkHcC0FB9+MQQabw1kA1awhBVedaQfZ+\r\nlkFfvdpBJg78QfWHCUIwWvZBU4gBQleN9UE9NPBBf1jRQWo1rUHzsWlB+ch9QbXjUEEH03hBypRI\r\nQW7HN0HVlP1ADhqyQKuGZkCMgi1A16OxP7Ma9T8zuv0/kn0cQNAmJUBnvlhAZTcsQC7xDUAxV/A/\r\nVATVP57JsD8PmJ4/fuJePyixND+wM/4+af7dPm6Lwz4IBJE+fk0FPh9AwD0KBHU9AYl9Pbjt/TxB\r\nMBU9oY2XPDvo5ztIEZE7sWx3O5yXnTsKqBQ7moVtO7Om7jpBqPg6xnK2OrtxYzoRf7Q6r2BlOa3j\r\naDp2xw05zZEWOoBY6ThB0iM6Er0DOTP3PTr6Ve44Z1wcOm9tBzkrDtI5zp6YOZT9TDl6ft45G1W0\r\nOGm8nzk8am45CTE4OWZLuzkwe744u78jOcQ4wjmQ9JA56gsWOfvh4jiMaKM4wNLHOPjwsjn59Og5\r\nm3UMOWRXkDhMjEE5pqjsONENAzktE405m6aoOF57hzgPuQg56j6kODC8tzgcGo44GtGrOCLqhzjV\r\ngYw4tP98OHB0fzhgSYE4hw55OI/Ddjj4f3I4pb+AOOT3fTiIf3w4xpq+OFLYSzkwzgw5ueZtODVk\r\nNTlPPss4plglOefGODlKdAc55F9lODXy2zhqKtI4HDrGOGJ3Xjgg4cg4wn0kOVvAEzlATIc5bEB3\r\nOFgzZziun9w4pqijOLKcMzlichQ5CMBkOCS/ZDgMG3Y4UNNoOCP5XjjbF4A4rOdGOM6ZWzhqClA4\r\nXd1LOMipcTjSOVk49stBOMwvVjg6sYE4/NxpOJCHSzjm7Wo4UqM7OGAKRjgaOFc4jPtBOISHSjhU\r\nBjE4qDFXOOR3VTj47E84k8xHOGLKQDg6TGY4GsptOMruPDgYBGM4lpE9OLP7QjgsHks4jgVmOFCj\r\nYDgYQlA48FBBOD1DQTgaWFs4Av4gONW0TDhIUTU4XEM4OFI0dzii3zA45j4hOAQyXDjHWEE4WklB\r\nOGABPTjcwT84LDhbOAKrTTjZ7Cg4tEUsOKAuRzhvTEo4YFgmOGIjJDiGR0s4G4I7ONBtOjgA+UQ4\r\nZg44ODQYPjjITEE4rBMxOGKSQjifWz44KIcyOJx1QzgSY0E4amI0OIRzKzi4Thw4HWEmOMxgHjgk\r\n9CQ4g8UeOBh4KjjaKjE4UCMiOJCRKDiWcz44qho9OKpuLDjBEC04FAE7OOhYKDgKcRQ4sactOJCW\r\nJThGdis46okUOH6SNTgdF1E4PtswOHP/cjjGzoY48qQzOPGZCDg6qh043jU0OJU4LzhuhxU4cYUd\r\nOLgCJTja4TE4Vl5CODE/MTh9VyU4eoEgOBGqJDg+FiA4B8MROGKXFTjARSU4FFgUOGTHEjjejhs4\r\ntfv2Nz9kHDhtjwM4HN0VOE3YOzjtLQg4hLoOOGSXDzgBoCk4Ju72N1JcFDiQJhI4uIMUOOa5DDjH\r\n4Sk4fDcFOF4YDDiqbSg43bkaOD8EDjgGFSk4gq4JONDxDjiiqQE4S54XOJiDDzjMAxI4yI8VOEsa\r\nMjgcvQQ4dvTrN6QRGzieCQs4FvAeOOL6FTg5yQE4UysGOKy6DjjwFQY4PGMIOCgFCDgrwAo4mo8Q\r\nOPJtFDjwHfI3UkwOOJzZ7jcZewk4HKnrNxzEAziPXR045W0DOPd6DjgVKxE4IRf4NwCoDDio7hQ4\r\nJccZOAps/TdSNgA4FaT6N9T7EzgrOhU4vKQLOLVw9DdD4RI4xPcmOLgRCjiYOug3wV4COP5aADj0\r\nawo4yeXXN8pSDTho0QE4QqX+N66CAzgYpfE3n3IDOKKmBThdoQI4RiIHONx17zc00w04zGHvN4pG\r\nDTgDVQc4wOLuNyX1EDiU8OA3KpHTNx713zfQ5gA4G5zjNyEPADjKkOU3hLoMOP/PzDe0UPw3kRXu\r\nN2v8FTgDw/c3cEkTOCLB6jdBBOM3HNPyNyqd5jc1DOk3e+UUOCRVAjgr2wQ4mHj2NzYm7zcx7+k3\r\n0qr/N85M3zdHT9o3f/vmN3OtAzheg/s3LycGOMq47Dfbqd03HowEOLJE5jcZRAA4U5/wN595zjeo\r\nGPg3mGYCOJ3m+zcJRPo3OkzrNwZX9DdE1cE3X1vVN/PC9zcTTus3Pc8DOASUyzcSYPY3cHjuN1g4\r\n9TehNMk3ICfIN1EC6zflzOM3Wdz4N4MOzDe0A/w3hlfzN1gw4De59MM3cnnlNyVQ4DciVug3grrq\r\nN6531jfyHNU3bCzXN8cjxDel3uQ3xqe/NxJc1jfQous3cxj0N52YADixw9I3BAvON3p81jci6O43\r\n8471Nz7x5jfki983TI7KN2bC8Td8H/U37/TfNzrH0Td+aOE3M+3HNyh15zd9CO831UQHODy02Dcy\r\nnMw3jRz7N1L4yDf4i9s32VL2N9tJvjcgVeA3qMD6NyTJAzhHjNg356/XN1Uc2Dfm4Ls3dGPRN3df\r\nxDdiP+A3GRzhN0jNwjdqEbI3iXzYN8gi+TdWK703lvnIN/ou3Tfznfg3ILe7N5LR0jeubcI3GoPY\r\nN2bCxTe7g8s3zWLGN4yszTfZ3cs3hODbN4/LwTeIcMY32re9NxtP5jdDw8c3B/vKN74RxTfJ+O03\r\nejTuNxjy3TcJzqc34lPtN0G5tzfm49w3x9EKOLT6xDfwGcA38lUCOEFduzdyBs030GWxN5wQqjdh\r\n4tU3/t3QNxZeyDdEldE3zZfFN+Zs1zc7tck3FRXnNzqL7zcjAeM3NeHRN7Y9mDddvas3qpbCN6A+\r\n6Tee5M83EHO8NxhLxjdPzNQ3rRPQN9VXzTfpXcA3Q/HAN+VtvDdKqcU3FE+1N65Ynzdmx9s3gliP\r\nN0J9AjhO6qk34iPHN/aN6Df3zc03IgShN/KUwjexd8I3qO+qNzHOmjfKDrA3EOfTN1DJ4Ddn07Q3\r\nZDi6N859rjcooZA3tnSxNzyvuTc3v9E3FXeYN9ICljcC0LY3sY/rNwRUxDfl/6U3TImGNyh3pjer\r\nIds3TovQN2tLoTctxMo3j1TAN5k6mTerysI33TemNwcGqTcK/OM3Z7zvN5ht7zeF8K43puqYN7ru\r\nrDfp16w3synKNzkYmDeWRt43ea7DN0oeuzcxbbU3Bn6wNyUr8Dc2Nao3Rwe2N4yvsTeHS8s3ZHTQ\r\nNzvD3zebMMY3EqXAN9ZutzdF2so3yUveN7DP5jfenJw3ouzTNzhlyzdFU6I3WviPNzkXkjePmtA3\r\n7Mu1N7dDvDfU6Lo3DDqtN6CTnDcrkso31wq9NzVUszfoarE3E0rLN4o7xzcChaw3UrmwN2GntzfH\r\n2Kk3j3uiN4yltDf2Kqo3bvHaN1MmuTedz7c3QEKmN0JjsjemVMg3NS64N1C34Tf58LE33ouaN55s\r\nqDeI3MA3OafkN+U+0DdvQr83zX2uN3cVxDfXero3GzG/N7z7yDd7YcE3TwDDNyC0zjd6oKk3U+C4\r\nN+g00Te0C8Y3MvKlN5ZE4DfgO6E3BGe5N95VjjdBOaI3V6vANzRApzezHr0379usN6WXzTeV75E3\r\niCKXN8ixxDfZL8U3vRqmN03qxTfs1rY3+hilN9Q72zdG0q83ZsC8N8OOwDfco6s32TXKN050qTeG\r\nNc43FrqXNwzl0TeQ2bE3coO4N2senzcE4NE3N1ijN2LuqDfA+q03baPQN7G/qTdyFLI3D1W0NxLW\r\nojczhKs3JKq4N3sHrzfFKLo3PEixNwOmsjfqZbI3MrnRNwaKjDeOAaw3XYu8NwBM0TdKBLg3ya2U\r\nN5h6yzd6SLw3mqSdN23dkjdcLrE33KCnN5HX3jc7usk3GVO9NyO3rTdpebc3TBfQNwAIwzd5JoY+\r\n90P8Pnae5T4zvWc/vnDNQNaU6kHezlxAkNGtP/y5CkAzZq5ASLbaPvgBgD9+oI4/eo3ZQCNrI0BH\r\nAvs+rSlWPpLYGz+nJZw+TWRqPoU3sj4uqb8++yWfPjkZdj+AeFA/T/oOP6oPjz4tdlY/JapPPwrC\r\nQkA36DtBrf2WQDjEVUEmN4hBjnx3QURRmUDTs9VBzaGGQFne90AzqqVAQjhxP+hjeT++os4/RAgW\r\nP6PYZD/UYGE/2DmHP+rZnj8O2CxAK1NEP1NUGz/uIs8/lEeEP6yDWT+LwI8/tzZbP/jE0D6HmBo/\r\ngkTNPo/oEz/mPQ8/ufrwPvKypD/HKSNAIRtkQEuyST8mZQY/urKxPwd3PD8yDopABfhuPxCXPz/m\r\nGXE+5VkGPy1B5j8xdv8+nFCCPtjkLj+wFPs+Oj1nPnf3nz4ulrw9ySvVPa+bHT6yjTg+OIFVP4D6\r\nYj7Ro5k9goipPdA00j1Y5lo9ZVgJPtNetz7dbpA+fupaPkExJz4KRic9on4rPVJjLD5QD1s+XRQ2\r\nPaY5kT24uP08KPVRPaPhKD0wTbc9pARBPhHLBD5lY6g9K/niPFUf1j2TrQw9wo8zPXGgiD0wQOc9\r\nDJqKPsW+iz4vOxc/RujcPlIS9z5CxjU//EHTPFKUTT0/FZs+wVahPh9fuz7E02U/J4WrP8W+tT9m\r\nABE+lD8CPxuJDz77sUE8hTeuPrPGRj/M/Mg+3r0AQIqR1z6BT089Ay1dPUlwST3zxpg9ctqxPqji\r\nND93bCw/1qEbP23mwT+GZYs/GRqtP2k+bD9JXf09uiJWPjopij3m7708FfwWPvKz8j2Q7xM/LW8I\r\nP21rOj9U3QY/j4+MPleHBj1/E+A+GdPPPgpH6D4I0EA+7nOdPptQ8D2jg8U+JuECP6zX0z4BLPY+\r\n1k59P3Qj2D+flIdAOuG7QHm1PEF9wU1B+UZ5QTEzlkGEx6VBGkDiQZ/cAEKcRuxBXUbDQfEpQkE8\r\nspRBFsSKQenul0ECWr5BNTOaQUKavUHDd7hB2hOwQfokwkFKO8ZBsgrGQRMSGEEil5BB4ls5QUGA\r\nz0Cg5BRAYG4SQHH4JkA5zLI/URMLP/jVAj1RRug9JdvKPUNyAD3TY6Y9jgEVPsYe+D5sw9Y+eoPK\r\nPm7j7z7GjV0/Pv9sP4QP/T5UOx0+MWiUPlkKLz5p/tI8My2ePGixQT0TWEg9n/cHPW11mT14Zd49\r\nE0QOPcriaTwm67Y8QsE4Pb6hIjw1s7c8ec3MPJBXLz1Q/+c9soapPnV2IT/bf9o9XblWQKpxlD/R\r\nIWg/G+0FP+JXJkBiBho+sABcPm89dD8vO61AOp9gP6AHvj7VHqo/KllKQUzbbEDaE1FBm1ELQdrm\r\nAkGsFIJADOnhQKS0Q0FUS0JBFXEiQbgEBEGL2KRAsju0P2hhZz7nTiFAMcKEP1jf8j+0+sE+0c0P\r\nQAQRC0Bgrr8/2HiOP1UHsT54qh8/r46QPvPDYz4gBqU8WgY2Pm9sST44NfM+1E6zPUoUxz6PhJc+\r\ndf/FPXp61z2OHkc+VxjMPmYWxT+k+nZAIt4pQV70f0GOFLZBj/xoQiu4mEIafqxC+4OIQqcVj0Jw\r\nE2hCKHBcQkpwB0JFXBtCCp/UQRY11UF+9AlBdYiCQdwLQUH34xBBpvDWQDVrCEFV51pB9n6WQV+9\r\n2kEmDvxB9YcJQjBa9kFTiAFCV431QT008EF/WNFBajWtQfOxaUH5yH1BteNQQQfTeEHKlEhBbsc3\r\nQdWU/UAOGrJAq4ZmQIyCLUDXo7E/sxr1PzO6/T+SfRxA0CYlQGe+WEBlNyxALvENQDFX8D9UBNU/\r\nnsmwPw+Ynj9+4l4/KLE0P7Az/j5p/t0+bovDPggEkT5+TQU+H0DAPQoEdT0BiX09uO39PEEwFT2h\r\njZc8O+jnO0gRkTuxbHc7nJedOwqoFDuahW07s6buOkGo+DrGcrY6u3FjOhF/tDqvYGU5reNoOnbH\r\nDTnNkRY6gFjpOEHSIzoSvQM5M/c9OvpV7jhnXBw6b20HOSsO0jnOnpg5lP1MOXp+3jkbVbQ4abyf\r\nOTxqbjkJMTg5Zku7OTB7vji7vyM5xDjCOZD0kDnqCxY5++HiOIxoozjA0sc4+PCyOfn06DmbdQw5\r\nZFeQOEyMQTmmqOw40Q0DOS0TjTmbpqg4XnuHOA+5CDnqPqQ4MLy3OBwajjga0as4IuqHONWBjDi0\r\n/3w4cHR/OGBJgTiHDnk4j8N2OPh/cjilv4A45Pd9OIh/fDjGmr44UthLOTDODDm55m04NWQ1OU8+\r\nyzimWCU558Y4OUp0BznkX2U4NfLbOGoq0jgcOsY4YndeOCDhyDjCfSQ5W8ATOUBMhzlsQHc4WDNn\r\nOK6f3DimqKM4spwzOWJyFDkIwGQ4JL9kOAwbdjhQ02g4I/leONsXgDis50Y4zplbOGoKUDhd3Us4\r\nyKlxONI5WTj2y0E4zC9WODqxgTj83Gk4kIdLOObtajhSozs4YApGOBo4VziM+0E4hIdKOFQGMTio\r\nMVc45HdVOPjsTziTzEc4YspAODpMZjgaym04yu48OBgEYziWkT04s/tCOCweSziOBWY4UKNgOBhC\r\nUDjwUEE4PUNBOBpYWzgC/iA41bRMOEhRNThcQzg4UjR3OKLfMDjmPiE4BDJcOMdYQThaSUE4YAE9\r\nONzBPzgsOFs4AqtNONnsKDi0RSw4oC5HOG9MSjhgWCY4YiMkOIZHSzgbgjs40G06OAD5RDhmDjg4\r\nNBg+OMhMQTisEzE4YpJCOJ9bPjgohzI4nHVDOBJjQThqYjQ4hHMrOLhOHDgdYSY4zGAeOCT0JDiD\r\nxR44GHgqONoqMThQIyI4kJEoOJZzPjiqGj04qm4sOMEQLTgUATs46FgoOApxFDixpy04kJYlOEZ2\r\nKzjqiRQ4fpI1OB0XUTg+2zA4c/9yOMbOhjjypDM48ZkIODqqHTjeNTQ4lTgvOG6HFThxhR04uAIl\r\nONrhMThWXkI4MT8xOH1XJTh6gSA4EaokOD4WIDgHwxE4YpcVOMBFJTgUWBQ4ZMcSON6OGzi1+/Y3\r\nP2QcOG2PAzgc3RU4Tdg7OO0tCDiEug44ZJcPOAGgKTgm7vY3UlwUOJAmEji4gxQ45rkMOMfhKTh8\r\nNwU4XhgMOKptKDjduRo4PwQOOAYVKTiCrgk40PEOOKKpAThLnhc4mIMPOMwDEjjIjxU4SxoyOBy9\r\nBDh29Os3pBEbOJ4JCzgW8B444voVODnJAThTKwY4rLoOOPAVBjg8Ywg4KAUIOCvACjiajxA48m0U\r\nOPAd8jdSTA44nNnuNxl7CTgcqes3HMQDOI9dHTjlbQM493oOOBUrETghF/g3AKgMOKjuFDglxxk4\r\nCmz9N1I2ADgVpPo31PsTOCs6FTi8pAs4tXD0N0PhEjjE9yY4uBEKOJg66DfBXgI4/loAOPRrCjjJ\r\n5dc3ylINOGjRAThCpf43roIDOBil8TefcgM4oqYFOF2hAjhGIgc43HXvNzTTDTjMYe83ikYNOANV\r\nBzjA4u43JfUQOJTw4DcqkdM3HvXfN9DmADgbnOM3IQ8AOMqQ5TeEugw4/8/MN7RQ/DeRFe43a/wV\r\nOAPD9zdwSRM4IsHqN0EE4zcc0/I3Kp3mNzUM6Td75RQ4JFUCOCvbBDiYePY3NibvNzHv6TfSqv83\r\nzkzfN0dP2jd/++Y3c60DOF6D+zcvJwY4yrjsN9up3TcejAQ4skTmNxlEADhTn/A3n3nON6gY+DeY\r\nZgI4neb7NwlE+jc6TOs3Blf0N0TVwTdfW9U388L3NxNO6zc9zwM4BJTLNxJg9jdweO43WDj1N6E0\r\nyTcgJ8g3UQLrN+XM4zdZ3Pg3gw7MN7QD/DeGV/M3WDDgN7n0wzdyeeU3JVDgNyJW6DeCuuo3rnfW\r\nN/Ic1TdsLNc3xyPEN6Xe5DfGp783ElzWN9Ci6zdzGPQ3nZgAOLHD0jcEC843enzWNyLo7jfzjvU3\r\nPvHmN+SL3zdMjso3ZsLxN3wf9Tfv9N83OsfRN35o4Tcz7cc3KHXnN30I7zfVRAc4PLTYNzKczDeN\r\nHPs3UvjIN/iL2zfZUvY320m+NyBV4DeowPo3JMkDOEeM2Dfnr9c3VRzYN+bguzd0Y9E3d1/EN2I/\r\n4DcZHOE3SM3CN2oRsjeJfNg3yCL5N1YrvTeW+cg3+i7dN/Od+Dcgt7s3ktHSN65twjcag9g3ZsLF\r\nN7uDyzfNYsY3jKzNN9ndyzeE4Ns3j8vBN4hwxjfat703G0/mN0PDxzcH+8o3vhHFN8n47Td6NO43\r\nGPLdNwnOpzfiU+03Qbm3N+bj3DfH0Qo4tPrEN/AZwDfyVQI4QV27N3IGzTfQZbE3nBCqN2Hi1Tf+\r\n3dA3Fl7IN0SV0TfNl8U35mzXNzu1yTcVFec3OovvNyMB4zc14dE3tj2YN129qzeqlsI3oD7pN57k\r\nzzcQc7w3GEvGN0/M1DetE9A31VfNN+ldwDdD8cA35W28N0qpxTcUT7U3rlifN2bH2zeCWI83Qn0C\r\nOE7qqTfiI8c39o3oN/fNzTciBKE38pTCN7F3wjeo76o3Mc6aN8oOsDcQ59M3UMngN2fTtDdkOLo3\r\nzn2uNyihkDe2dLE3PK+5Nze/0TcVd5g30gKWNwLQtjexj+s3BFTEN+X/pTdMiYY3KHemN6sh2zdO\r\ni9A3a0uhNy3EyjePVMA3mTqZN6vKwjfdN6Y3BwapNwr84zdnvO83mG3vN4Xwrjem6pg3uu6sN+nX\r\nrDezKco3ORiYN5ZG3jd5rsM3Sh67NzFttTcGfrA3JSvwNzY1qjdHB7Y3jK+xN4dLyzdkdNA3O8Pf\r\nN5swxjcSpcA31m63N0XayjfJS943sM/mN96cnDei7NM3OGXLN0VTojda+I83OReSN4+a0Dfsy7U3\r\nt0O8N9ToujcMOq03oJOcNyuSyjfXCr03NVSzN+hqsTcTSss3ijvHNwKFrDdSubA3Yae3N8fYqTeP\r\ne6I3jKW0N/Yqqjdu8do3Uya5N53PtzdAQqY3QmOyN6ZUyDc1Lrg3ULfhN/nwsTfei5o3nmyoN4jc\r\nwDc5p+Q35T7QN29CvzfNfa43dxXEN9d6ujcbMb83vPvIN3thwTdPAMM3ILTON3qgqTdT4Lg36DTR\r\nN7QLxjcy8qU3lkTgN+A7oTcEZ7k33lWON0E5ojdXq8A3NECnN7MevTfv26w3pZfNN5XvkTeIIpc3\r\nyLHEN9kvxTe9GqY3TerFN+zWtjf6GKU31DvbN0bSrzdmwLw3w47AN9yjqzfZNco3TnSpN4Y1zjcW\r\nupc3DOXRN5DZsTdyg7g3ax6fNwTg0Tc3WKM3Yu6oN8D6rTdto9A3sb+pN3IUsjcPVbQ3EtaiNzOE\r\nqzckqrg3ewevN8Uoujc8SLE3A6ayN+plsjcyudE3BoqMN44BrDddi7w3AEzRN0oEuDfJrZQ3mHrL\r\nN3pIvDeapJ03bd2SN1wusTfcoKc3kdfeNzu6yTcZU703I7etN2l5tzdMF9A3AAjDNw==",
                            "noiseTrainingType" : "default"
                          }
                        }
                    ],
                    "start" : 6870,
                    "duration" : 185,
                    "mediaStart" : 3005,
                    "mediaDuration" : 185,
                    "scalar" : 1,
                    "metadata" : {
                      "WinSubProjectDisplayName" : "",
                      "clipSpeedAttribute" : false
                    },
                    "animationTracks" : {

                    }
                  },
                  {
                    "id" : 135,
                    "_type" : "AMFile",
                    "src" : 3,
                    "trackNumber" : 1,
                    "attributes" : {
                      "ident" : "tower-columns-03",
                      "sampleRate" : 44100,
                      "bitDepth" : 16,
                      "gain" : 1.0,
                      "mixToMono" : false
                    },
                      "channelNumber" : "0,1",
                    "effects" : [
                        {
                          "effectName" : "NoiseReduction",
                          "category" : "categoryAudioEffects",
                          "parameters" : {
                            "denoiserAmount" : 20.0,
                            "denoiserThreshold" : 0.0,
                            "noiseProfile" : "eSaGPvdD/D52nuU+M71nP75wzUDWlOpB3s5cQJDRrT/8uQpAM2auQEi22j74AYA/fqCOP3qN2UAj\r\nayNARwL7Pq0pVj6v3Rs/pyWcPk1kaj6FN7I+Lqm/Pvslnz45GXY/gHhQP0/6Dj+qD48+LXZWPyWq\r\nTz8KwkJAeug7Qa39lkA4xFVBJjeIQY58d0FEUZlA7LXVQc2hhkBZ3vdAWbGlQPg8cT/oY3k/hJjO\r\nP3/sFT+j2GQ/1GBhP9g5hz/q2Z4/DtgsQCtTRD9TVBs/7iLPP5RHhD+sg1k/i8CPP7c2Wz/4xNA+\r\nh5gaP4JEzT6P6BM/5j0PP7n68D7ysqQ/xykjQCEbZECIn0k/JmUGP7qysT8Hdzw/rg2KQAgObz8Q\r\nlz8/5hlxPuVZBj8tQeY/MXb/PpxQgj7u8y4/rxj7Pjo9Zz53958+Lpa8Pckr1T2vmx0+so04PjiB\r\nVT+A+mI+0aOZPYKIqT3QNNI9WOZaPWVYCT7TXrc+pnOQPhQOWz5BMSc+CkYnPaJ+Kz1SYyw+UA9b\r\nPl0UNj2mOZE9uLj9PPoBUj2j4Sg9ME23PaQEQT4RywQ+ZWOoPSv54jxVH9Y9k60MPTV1Mz1xoIg9\r\nvqfnPQyaij7Fvos+LzsXP0bo3D5SEvc+QsY1P/xB0zxSlE09PxWbPsFWoT4fX7s+xNNlPyeFqz/F\r\nvrU/ZgARPpQ/Aj8biQ8++7FBPIU3rj6zxkY/zPzIPt69AECKkdc+gU9PPQMtXT1JcEk988aYPXLa\r\nsT6o4jQ/d2wsP9ahGz9t5sE/hmWLPxkarT9pPmw/SV39PboiVj46KYo95u+9PBX8Fj7ys/I9kO8T\r\nPy1vCD9tazo/VN0GP4+PjD5XhwY9fxPgPhnTzz4KR+g+CNBAPu5znT6bUPA9o4PFPibhAj+s19M+\r\nASz2PtZOfT90I9g/n5SHQDrhu0B5tTxBfcFNQflGeUExM5ZBhMelQRpA4kGf3ABCnEbsQV1Gw0Hx\r\nKUJBPLKUQRbEikHp7pdBAlq+QTUzmkFCmr1Bw3e4QdoTsEH6JMJBSjvGQbIKxkETEhhBIpeQQeJb\r\nOUFBgM9AoOQUQGBuEkBx+CZAOcyyP1ETCz/41QI9UUboPSXbyj1DcgA902OmPY4BFT7GHvg+bMPW\r\nPnqDyj5u4+8+xo1dPz7/bD+ED/0+VDsdPjFolD5ZCi8+af7SPDMtnjxosUE9E1hIPZ/3Bz1tdZk9\r\neGXePRNEDj3K4mk8Juu2PELBOD2+oSI8NbO3PHnNzDyQVy89UP/nPbKGqT51diE/23/aPV25VkCq\r\ncZQ/0SFoPxvtBT/iVyZAYgYaPrAAXD5vPXQ/LzutQDqfYD+gB74+1R6qPypZSkFM22xA2hNRQZtR\r\nC0Ha5gJBrBSCQAzp4UCktENBVEtCQRVxIkG4BARBi9ikQLI7tD9oYWc+504hQDHChD9Y3/I/tPrB\r\nPtHND0AEEQtAYK6/P9h4jj9VB7E+eKofP6+OkD7zw2M+YDqlPFoGNj5vbEk+ODXzPtROsz1KFMc+\r\nj4SXPnX/xT16etc9jh5HPlcYzD5mFsU/pPp2QCLeKUFe9H9BjhS2QY/8aEIruJhCGn6sQvuDiEKn\r\nFY9CcBNoQihwXEJKcAdCRVwbQgqf1EEWNdVBfvQJQXWIgkHcC0FB9+MQQabw1kA1awhBVedaQfZ+\r\nlkFfvdpBJg78QfWHCUIwWvZBU4gBQleN9UE9NPBBf1jRQWo1rUHzsWlB+ch9QbXjUEEH03hBypRI\r\nQW7HN0HVlP1ADhqyQKuGZkCMgi1A16OxP7Ma9T8zuv0/kn0cQNAmJUBnvlhAZTcsQC7xDUAxV/A/\r\nVATVP57JsD8PmJ4/fuJePyixND+wM/4+af7dPm6Lwz4IBJE+fk0FPh9AwD0KBHU9AYl9Pbjt/TxB\r\nMBU9oY2XPDvo5ztIEZE7sWx3O5yXnTsKqBQ7moVtO7Om7jpBqPg6xnK2OrtxYzoRf7Q6r2BlOa3j\r\naDp2xw05zZEWOoBY6ThB0iM6Er0DOTP3PTr6Ve44Z1wcOm9tBzkrDtI5zp6YOZT9TDl6ft45G1W0\r\nOGm8nzk8am45CTE4OWZLuzkwe744u78jOcQ4wjmQ9JA56gsWOfvh4jiMaKM4wNLHOPjwsjn59Og5\r\nm3UMOWRXkDhMjEE5pqjsONENAzktE405m6aoOF57hzgPuQg56j6kODC8tzgcGo44GtGrOCLqhzjV\r\ngYw4tP98OHB0fzhgSYE4hw55OI/Ddjj4f3I4pb+AOOT3fTiIf3w4xpq+OFLYSzkwzgw5ueZtODVk\r\nNTlPPss4plglOefGODlKdAc55F9lODXy2zhqKtI4HDrGOGJ3Xjgg4cg4wn0kOVvAEzlATIc5bEB3\r\nOFgzZziun9w4pqijOLKcMzlichQ5CMBkOCS/ZDgMG3Y4UNNoOCP5XjjbF4A4rOdGOM6ZWzhqClA4\r\nXd1LOMipcTjSOVk49stBOMwvVjg6sYE4/NxpOJCHSzjm7Wo4UqM7OGAKRjgaOFc4jPtBOISHSjhU\r\nBjE4qDFXOOR3VTj47E84k8xHOGLKQDg6TGY4GsptOMruPDgYBGM4lpE9OLP7QjgsHks4jgVmOFCj\r\nYDgYQlA48FBBOD1DQTgaWFs4Av4gONW0TDhIUTU4XEM4OFI0dzii3zA45j4hOAQyXDjHWEE4WklB\r\nOGABPTjcwT84LDhbOAKrTTjZ7Cg4tEUsOKAuRzhvTEo4YFgmOGIjJDiGR0s4G4I7ONBtOjgA+UQ4\r\nZg44ODQYPjjITEE4rBMxOGKSQjifWz44KIcyOJx1QzgSY0E4amI0OIRzKzi4Thw4HWEmOMxgHjgk\r\n9CQ4g8UeOBh4KjjaKjE4UCMiOJCRKDiWcz44qho9OKpuLDjBEC04FAE7OOhYKDgKcRQ4sactOJCW\r\nJThGdis46okUOH6SNTgdF1E4PtswOHP/cjjGzoY48qQzOPGZCDg6qh043jU0OJU4LzhuhxU4cYUd\r\nOLgCJTja4TE4Vl5CODE/MTh9VyU4eoEgOBGqJDg+FiA4B8MROGKXFTjARSU4FFgUOGTHEjjejhs4\r\ntfv2Nz9kHDhtjwM4HN0VOE3YOzjtLQg4hLoOOGSXDzgBoCk4Ju72N1JcFDiQJhI4uIMUOOa5DDjH\r\n4Sk4fDcFOF4YDDiqbSg43bkaOD8EDjgGFSk4gq4JONDxDjiiqQE4S54XOJiDDzjMAxI4yI8VOEsa\r\nMjgcvQQ4dvTrN6QRGzieCQs4FvAeOOL6FTg5yQE4UysGOKy6DjjwFQY4PGMIOCgFCDgrwAo4mo8Q\r\nOPJtFDjwHfI3UkwOOJzZ7jcZewk4HKnrNxzEAziPXR045W0DOPd6DjgVKxE4IRf4NwCoDDio7hQ4\r\nJccZOAps/TdSNgA4FaT6N9T7EzgrOhU4vKQLOLVw9DdD4RI4xPcmOLgRCjiYOug3wV4COP5aADj0\r\nawo4yeXXN8pSDTho0QE4QqX+N66CAzgYpfE3n3IDOKKmBThdoQI4RiIHONx17zc00w04zGHvN4pG\r\nDTgDVQc4wOLuNyX1EDiU8OA3KpHTNx713zfQ5gA4G5zjNyEPADjKkOU3hLoMOP/PzDe0UPw3kRXu\r\nN2v8FTgDw/c3cEkTOCLB6jdBBOM3HNPyNyqd5jc1DOk3e+UUOCRVAjgr2wQ4mHj2NzYm7zcx7+k3\r\n0qr/N85M3zdHT9o3f/vmN3OtAzheg/s3LycGOMq47Dfbqd03HowEOLJE5jcZRAA4U5/wN595zjeo\r\nGPg3mGYCOJ3m+zcJRPo3OkzrNwZX9DdE1cE3X1vVN/PC9zcTTus3Pc8DOASUyzcSYPY3cHjuN1g4\r\n9TehNMk3ICfIN1EC6zflzOM3Wdz4N4MOzDe0A/w3hlfzN1gw4De59MM3cnnlNyVQ4DciVug3grrq\r\nN6531jfyHNU3bCzXN8cjxDel3uQ3xqe/NxJc1jfQous3cxj0N52YADixw9I3BAvON3p81jci6O43\r\n8471Nz7x5jfki983TI7KN2bC8Td8H/U37/TfNzrH0Td+aOE3M+3HNyh15zd9CO831UQHODy02Dcy\r\nnMw3jRz7N1L4yDf4i9s32VL2N9tJvjcgVeA3qMD6NyTJAzhHjNg356/XN1Uc2Dfm4Ls3dGPRN3df\r\nxDdiP+A3GRzhN0jNwjdqEbI3iXzYN8gi+TdWK703lvnIN/ou3Tfznfg3ILe7N5LR0jeubcI3GoPY\r\nN2bCxTe7g8s3zWLGN4yszTfZ3cs3hODbN4/LwTeIcMY32re9NxtP5jdDw8c3B/vKN74RxTfJ+O03\r\nejTuNxjy3TcJzqc34lPtN0G5tzfm49w3x9EKOLT6xDfwGcA38lUCOEFduzdyBs030GWxN5wQqjdh\r\n4tU3/t3QNxZeyDdEldE3zZfFN+Zs1zc7tck3FRXnNzqL7zcjAeM3NeHRN7Y9mDddvas3qpbCN6A+\r\n6Tee5M83EHO8NxhLxjdPzNQ3rRPQN9VXzTfpXcA3Q/HAN+VtvDdKqcU3FE+1N65Ynzdmx9s3gliP\r\nN0J9AjhO6qk34iPHN/aN6Df3zc03IgShN/KUwjexd8I3qO+qNzHOmjfKDrA3EOfTN1DJ4Ddn07Q3\r\nZDi6N859rjcooZA3tnSxNzyvuTc3v9E3FXeYN9ICljcC0LY3sY/rNwRUxDfl/6U3TImGNyh3pjer\r\nIds3TovQN2tLoTctxMo3j1TAN5k6mTerysI33TemNwcGqTcK/OM3Z7zvN5ht7zeF8K43puqYN7ru\r\nrDfp16w3synKNzkYmDeWRt43ea7DN0oeuzcxbbU3Bn6wNyUr8Dc2Nao3Rwe2N4yvsTeHS8s3ZHTQ\r\nNzvD3zebMMY3EqXAN9ZutzdF2so3yUveN7DP5jfenJw3ouzTNzhlyzdFU6I3WviPNzkXkjePmtA3\r\n7Mu1N7dDvDfU6Lo3DDqtN6CTnDcrkso31wq9NzVUszfoarE3E0rLN4o7xzcChaw3UrmwN2GntzfH\r\n2Kk3j3uiN4yltDf2Kqo3bvHaN1MmuTedz7c3QEKmN0JjsjemVMg3NS64N1C34Tf58LE33ouaN55s\r\nqDeI3MA3OafkN+U+0DdvQr83zX2uN3cVxDfXero3GzG/N7z7yDd7YcE3TwDDNyC0zjd6oKk3U+C4\r\nN+g00Te0C8Y3MvKlN5ZE4DfgO6E3BGe5N95VjjdBOaI3V6vANzRApzezHr0379usN6WXzTeV75E3\r\niCKXN8ixxDfZL8U3vRqmN03qxTfs1rY3+hilN9Q72zdG0q83ZsC8N8OOwDfco6s32TXKN050qTeG\r\nNc43FrqXNwzl0TeQ2bE3coO4N2senzcE4NE3N1ijN2LuqDfA+q03baPQN7G/qTdyFLI3D1W0NxLW\r\nojczhKs3JKq4N3sHrzfFKLo3PEixNwOmsjfqZbI3MrnRNwaKjDeOAaw3XYu8NwBM0TdKBLg3ya2U\r\nN5h6yzd6SLw3mqSdN23dkjdcLrE33KCnN5HX3jc7usk3GVO9NyO3rTdpebc3TBfQNwAIwzd5JoY+\r\n90P8Pnae5T4zvWc/vnDNQNaU6kHezlxAkNGtP/y5CkAzZq5ASLbaPvgBgD9+oI4/eo3ZQCNrI0BH\r\nAvs+rSlWPpLYGz+nJZw+TWRqPoU3sj4uqb8++yWfPjkZdj+AeFA/T/oOP6oPjz4tdlY/JapPPwrC\r\nQkA36DtBrf2WQDjEVUEmN4hBjnx3QURRmUDTs9VBzaGGQFne90AzqqVAQjhxP+hjeT++os4/RAgW\r\nP6PYZD/UYGE/2DmHP+rZnj8O2CxAK1NEP1NUGz/uIs8/lEeEP6yDWT+LwI8/tzZbP/jE0D6HmBo/\r\ngkTNPo/oEz/mPQ8/ufrwPvKypD/HKSNAIRtkQEuyST8mZQY/urKxPwd3PD8yDopABfhuPxCXPz/m\r\nGXE+5VkGPy1B5j8xdv8+nFCCPtjkLj+wFPs+Oj1nPnf3nz4ulrw9ySvVPa+bHT6yjTg+OIFVP4D6\r\nYj7Ro5k9goipPdA00j1Y5lo9ZVgJPtNetz7dbpA+fupaPkExJz4KRic9on4rPVJjLD5QD1s+XRQ2\r\nPaY5kT24uP08KPVRPaPhKD0wTbc9pARBPhHLBD5lY6g9K/niPFUf1j2TrQw9wo8zPXGgiD0wQOc9\r\nDJqKPsW+iz4vOxc/RujcPlIS9z5CxjU//EHTPFKUTT0/FZs+wVahPh9fuz7E02U/J4WrP8W+tT9m\r\nABE+lD8CPxuJDz77sUE8hTeuPrPGRj/M/Mg+3r0AQIqR1z6BT089Ay1dPUlwST3zxpg9ctqxPqji\r\nND93bCw/1qEbP23mwT+GZYs/GRqtP2k+bD9JXf09uiJWPjopij3m7708FfwWPvKz8j2Q7xM/LW8I\r\nP21rOj9U3QY/j4+MPleHBj1/E+A+GdPPPgpH6D4I0EA+7nOdPptQ8D2jg8U+JuECP6zX0z4BLPY+\r\n1k59P3Qj2D+flIdAOuG7QHm1PEF9wU1B+UZ5QTEzlkGEx6VBGkDiQZ/cAEKcRuxBXUbDQfEpQkE8\r\nspRBFsSKQenul0ECWr5BNTOaQUKavUHDd7hB2hOwQfokwkFKO8ZBsgrGQRMSGEEil5BB4ls5QUGA\r\nz0Cg5BRAYG4SQHH4JkA5zLI/URMLP/jVAj1RRug9JdvKPUNyAD3TY6Y9jgEVPsYe+D5sw9Y+eoPK\r\nPm7j7z7GjV0/Pv9sP4QP/T5UOx0+MWiUPlkKLz5p/tI8My2ePGixQT0TWEg9n/cHPW11mT14Zd49\r\nE0QOPcriaTwm67Y8QsE4Pb6hIjw1s7c8ec3MPJBXLz1Q/+c9soapPnV2IT/bf9o9XblWQKpxlD/R\r\nIWg/G+0FP+JXJkBiBho+sABcPm89dD8vO61AOp9gP6AHvj7VHqo/KllKQUzbbEDaE1FBm1ELQdrm\r\nAkGsFIJADOnhQKS0Q0FUS0JBFXEiQbgEBEGL2KRAsju0P2hhZz7nTiFAMcKEP1jf8j+0+sE+0c0P\r\nQAQRC0Bgrr8/2HiOP1UHsT54qh8/r46QPvPDYz4gBqU8WgY2Pm9sST44NfM+1E6zPUoUxz6PhJc+\r\ndf/FPXp61z2OHkc+VxjMPmYWxT+k+nZAIt4pQV70f0GOFLZBj/xoQiu4mEIafqxC+4OIQqcVj0Jw\r\nE2hCKHBcQkpwB0JFXBtCCp/UQRY11UF+9AlBdYiCQdwLQUH34xBBpvDWQDVrCEFV51pB9n6WQV+9\r\n2kEmDvxB9YcJQjBa9kFTiAFCV431QT008EF/WNFBajWtQfOxaUH5yH1BteNQQQfTeEHKlEhBbsc3\r\nQdWU/UAOGrJAq4ZmQIyCLUDXo7E/sxr1PzO6/T+SfRxA0CYlQGe+WEBlNyxALvENQDFX8D9UBNU/\r\nnsmwPw+Ynj9+4l4/KLE0P7Az/j5p/t0+bovDPggEkT5+TQU+H0DAPQoEdT0BiX09uO39PEEwFT2h\r\njZc8O+jnO0gRkTuxbHc7nJedOwqoFDuahW07s6buOkGo+DrGcrY6u3FjOhF/tDqvYGU5reNoOnbH\r\nDTnNkRY6gFjpOEHSIzoSvQM5M/c9OvpV7jhnXBw6b20HOSsO0jnOnpg5lP1MOXp+3jkbVbQ4abyf\r\nOTxqbjkJMTg5Zku7OTB7vji7vyM5xDjCOZD0kDnqCxY5++HiOIxoozjA0sc4+PCyOfn06DmbdQw5\r\nZFeQOEyMQTmmqOw40Q0DOS0TjTmbpqg4XnuHOA+5CDnqPqQ4MLy3OBwajjga0as4IuqHONWBjDi0\r\n/3w4cHR/OGBJgTiHDnk4j8N2OPh/cjilv4A45Pd9OIh/fDjGmr44UthLOTDODDm55m04NWQ1OU8+\r\nyzimWCU558Y4OUp0BznkX2U4NfLbOGoq0jgcOsY4YndeOCDhyDjCfSQ5W8ATOUBMhzlsQHc4WDNn\r\nOK6f3DimqKM4spwzOWJyFDkIwGQ4JL9kOAwbdjhQ02g4I/leONsXgDis50Y4zplbOGoKUDhd3Us4\r\nyKlxONI5WTj2y0E4zC9WODqxgTj83Gk4kIdLOObtajhSozs4YApGOBo4VziM+0E4hIdKOFQGMTio\r\nMVc45HdVOPjsTziTzEc4YspAODpMZjgaym04yu48OBgEYziWkT04s/tCOCweSziOBWY4UKNgOBhC\r\nUDjwUEE4PUNBOBpYWzgC/iA41bRMOEhRNThcQzg4UjR3OKLfMDjmPiE4BDJcOMdYQThaSUE4YAE9\r\nONzBPzgsOFs4AqtNONnsKDi0RSw4oC5HOG9MSjhgWCY4YiMkOIZHSzgbgjs40G06OAD5RDhmDjg4\r\nNBg+OMhMQTisEzE4YpJCOJ9bPjgohzI4nHVDOBJjQThqYjQ4hHMrOLhOHDgdYSY4zGAeOCT0JDiD\r\nxR44GHgqONoqMThQIyI4kJEoOJZzPjiqGj04qm4sOMEQLTgUATs46FgoOApxFDixpy04kJYlOEZ2\r\nKzjqiRQ4fpI1OB0XUTg+2zA4c/9yOMbOhjjypDM48ZkIODqqHTjeNTQ4lTgvOG6HFThxhR04uAIl\r\nONrhMThWXkI4MT8xOH1XJTh6gSA4EaokOD4WIDgHwxE4YpcVOMBFJTgUWBQ4ZMcSON6OGzi1+/Y3\r\nP2QcOG2PAzgc3RU4Tdg7OO0tCDiEug44ZJcPOAGgKTgm7vY3UlwUOJAmEji4gxQ45rkMOMfhKTh8\r\nNwU4XhgMOKptKDjduRo4PwQOOAYVKTiCrgk40PEOOKKpAThLnhc4mIMPOMwDEjjIjxU4SxoyOBy9\r\nBDh29Os3pBEbOJ4JCzgW8B444voVODnJAThTKwY4rLoOOPAVBjg8Ywg4KAUIOCvACjiajxA48m0U\r\nOPAd8jdSTA44nNnuNxl7CTgcqes3HMQDOI9dHTjlbQM493oOOBUrETghF/g3AKgMOKjuFDglxxk4\r\nCmz9N1I2ADgVpPo31PsTOCs6FTi8pAs4tXD0N0PhEjjE9yY4uBEKOJg66DfBXgI4/loAOPRrCjjJ\r\n5dc3ylINOGjRAThCpf43roIDOBil8TefcgM4oqYFOF2hAjhGIgc43HXvNzTTDTjMYe83ikYNOANV\r\nBzjA4u43JfUQOJTw4DcqkdM3HvXfN9DmADgbnOM3IQ8AOMqQ5TeEugw4/8/MN7RQ/DeRFe43a/wV\r\nOAPD9zdwSRM4IsHqN0EE4zcc0/I3Kp3mNzUM6Td75RQ4JFUCOCvbBDiYePY3NibvNzHv6TfSqv83\r\nzkzfN0dP2jd/++Y3c60DOF6D+zcvJwY4yrjsN9up3TcejAQ4skTmNxlEADhTn/A3n3nON6gY+DeY\r\nZgI4neb7NwlE+jc6TOs3Blf0N0TVwTdfW9U388L3NxNO6zc9zwM4BJTLNxJg9jdweO43WDj1N6E0\r\nyTcgJ8g3UQLrN+XM4zdZ3Pg3gw7MN7QD/DeGV/M3WDDgN7n0wzdyeeU3JVDgNyJW6DeCuuo3rnfW\r\nN/Ic1TdsLNc3xyPEN6Xe5DfGp783ElzWN9Ci6zdzGPQ3nZgAOLHD0jcEC843enzWNyLo7jfzjvU3\r\nPvHmN+SL3zdMjso3ZsLxN3wf9Tfv9N83OsfRN35o4Tcz7cc3KHXnN30I7zfVRAc4PLTYNzKczDeN\r\nHPs3UvjIN/iL2zfZUvY320m+NyBV4DeowPo3JMkDOEeM2Dfnr9c3VRzYN+bguzd0Y9E3d1/EN2I/\r\n4DcZHOE3SM3CN2oRsjeJfNg3yCL5N1YrvTeW+cg3+i7dN/Od+Dcgt7s3ktHSN65twjcag9g3ZsLF\r\nN7uDyzfNYsY3jKzNN9ndyzeE4Ns3j8vBN4hwxjfat703G0/mN0PDxzcH+8o3vhHFN8n47Td6NO43\r\nGPLdNwnOpzfiU+03Qbm3N+bj3DfH0Qo4tPrEN/AZwDfyVQI4QV27N3IGzTfQZbE3nBCqN2Hi1Tf+\r\n3dA3Fl7IN0SV0TfNl8U35mzXNzu1yTcVFec3OovvNyMB4zc14dE3tj2YN129qzeqlsI3oD7pN57k\r\nzzcQc7w3GEvGN0/M1DetE9A31VfNN+ldwDdD8cA35W28N0qpxTcUT7U3rlifN2bH2zeCWI83Qn0C\r\nOE7qqTfiI8c39o3oN/fNzTciBKE38pTCN7F3wjeo76o3Mc6aN8oOsDcQ59M3UMngN2fTtDdkOLo3\r\nzn2uNyihkDe2dLE3PK+5Nze/0TcVd5g30gKWNwLQtjexj+s3BFTEN+X/pTdMiYY3KHemN6sh2zdO\r\ni9A3a0uhNy3EyjePVMA3mTqZN6vKwjfdN6Y3BwapNwr84zdnvO83mG3vN4Xwrjem6pg3uu6sN+nX\r\nrDezKco3ORiYN5ZG3jd5rsM3Sh67NzFttTcGfrA3JSvwNzY1qjdHB7Y3jK+xN4dLyzdkdNA3O8Pf\r\nN5swxjcSpcA31m63N0XayjfJS943sM/mN96cnDei7NM3OGXLN0VTojda+I83OReSN4+a0Dfsy7U3\r\nt0O8N9ToujcMOq03oJOcNyuSyjfXCr03NVSzN+hqsTcTSss3ijvHNwKFrDdSubA3Yae3N8fYqTeP\r\ne6I3jKW0N/Yqqjdu8do3Uya5N53PtzdAQqY3QmOyN6ZUyDc1Lrg3ULfhN/nwsTfei5o3nmyoN4jc\r\nwDc5p+Q35T7QN29CvzfNfa43dxXEN9d6ujcbMb83vPvIN3thwTdPAMM3ILTON3qgqTdT4Lg36DTR\r\nN7QLxjcy8qU3lkTgN+A7oTcEZ7k33lWON0E5ojdXq8A3NECnN7MevTfv26w3pZfNN5XvkTeIIpc3\r\nyLHEN9kvxTe9GqY3TerFN+zWtjf6GKU31DvbN0bSrzdmwLw3w47AN9yjqzfZNco3TnSpN4Y1zjcW\r\nupc3DOXRN5DZsTdyg7g3ax6fNwTg0Tc3WKM3Yu6oN8D6rTdto9A3sb+pN3IUsjcPVbQ3EtaiNzOE\r\nqzckqrg3ewevN8Uoujc8SLE3A6ayN+plsjcyudE3BoqMN44BrDddi7w3AEzRN0oEuDfJrZQ3mHrL\r\nN3pIvDeapJ03bd2SN1wusTfcoKc3kdfeNzu6yTcZU703I7etN2l5tzdMF9A3AAjDNw==",
                            "noiseTrainingType" : "default"
                          }
                        }
                    ],
                    "start" : 7055,
                    "duration" : 93,
                    "mediaStart" : 3603,
                    "mediaDuration" : 93,
                    "scalar" : 1,
                    "metadata" : {
                      "WinSubProjectDisplayName" : "",
                      "clipSpeedAttribute" : false
                    },
                    "animationTracks" : {

                    }
                  },
                  {
                    "id" : 136,
                    "_type" : "AMFile",
                    "src" : 3,
                    "trackNumber" : 1,
                    "attributes" : {
                      "ident" : "tower-columns-03",
                      "sampleRate" : 44100,
                      "bitDepth" : 16,
                      "gain" : 1.0,
                      "mixToMono" : false
                    },
                      "channelNumber" : "0,1",
                    "effects" : [
                        {
                          "effectName" : "NoiseReduction",
                          "category" : "categoryAudioEffects",
                          "parameters" : {
                            "denoiserAmount" : 20.0,
                            "denoiserThreshold" : 0.0,
                            "noiseProfile" : "eSaGPvdD/D52nuU+M71nP75wzUDWlOpB3s5cQJDRrT/8uQpAM2auQEi22j74AYA/fqCOP3qN2UAj\r\nayNARwL7Pq0pVj6v3Rs/pyWcPk1kaj6FN7I+Lqm/Pvslnz45GXY/gHhQP0/6Dj+qD48+LXZWPyWq\r\nTz8KwkJAeug7Qa39lkA4xFVBJjeIQY58d0FEUZlA7LXVQc2hhkBZ3vdAWbGlQPg8cT/oY3k/hJjO\r\nP3/sFT+j2GQ/1GBhP9g5hz/q2Z4/DtgsQCtTRD9TVBs/7iLPP5RHhD+sg1k/i8CPP7c2Wz/4xNA+\r\nh5gaP4JEzT6P6BM/5j0PP7n68D7ysqQ/xykjQCEbZECIn0k/JmUGP7qysT8Hdzw/rg2KQAgObz8Q\r\nlz8/5hlxPuVZBj8tQeY/MXb/PpxQgj7u8y4/rxj7Pjo9Zz53958+Lpa8Pckr1T2vmx0+so04PjiB\r\nVT+A+mI+0aOZPYKIqT3QNNI9WOZaPWVYCT7TXrc+pnOQPhQOWz5BMSc+CkYnPaJ+Kz1SYyw+UA9b\r\nPl0UNj2mOZE9uLj9PPoBUj2j4Sg9ME23PaQEQT4RywQ+ZWOoPSv54jxVH9Y9k60MPTV1Mz1xoIg9\r\nvqfnPQyaij7Fvos+LzsXP0bo3D5SEvc+QsY1P/xB0zxSlE09PxWbPsFWoT4fX7s+xNNlPyeFqz/F\r\nvrU/ZgARPpQ/Aj8biQ8++7FBPIU3rj6zxkY/zPzIPt69AECKkdc+gU9PPQMtXT1JcEk988aYPXLa\r\nsT6o4jQ/d2wsP9ahGz9t5sE/hmWLPxkarT9pPmw/SV39PboiVj46KYo95u+9PBX8Fj7ys/I9kO8T\r\nPy1vCD9tazo/VN0GP4+PjD5XhwY9fxPgPhnTzz4KR+g+CNBAPu5znT6bUPA9o4PFPibhAj+s19M+\r\nASz2PtZOfT90I9g/n5SHQDrhu0B5tTxBfcFNQflGeUExM5ZBhMelQRpA4kGf3ABCnEbsQV1Gw0Hx\r\nKUJBPLKUQRbEikHp7pdBAlq+QTUzmkFCmr1Bw3e4QdoTsEH6JMJBSjvGQbIKxkETEhhBIpeQQeJb\r\nOUFBgM9AoOQUQGBuEkBx+CZAOcyyP1ETCz/41QI9UUboPSXbyj1DcgA902OmPY4BFT7GHvg+bMPW\r\nPnqDyj5u4+8+xo1dPz7/bD+ED/0+VDsdPjFolD5ZCi8+af7SPDMtnjxosUE9E1hIPZ/3Bz1tdZk9\r\neGXePRNEDj3K4mk8Juu2PELBOD2+oSI8NbO3PHnNzDyQVy89UP/nPbKGqT51diE/23/aPV25VkCq\r\ncZQ/0SFoPxvtBT/iVyZAYgYaPrAAXD5vPXQ/LzutQDqfYD+gB74+1R6qPypZSkFM22xA2hNRQZtR\r\nC0Ha5gJBrBSCQAzp4UCktENBVEtCQRVxIkG4BARBi9ikQLI7tD9oYWc+504hQDHChD9Y3/I/tPrB\r\nPtHND0AEEQtAYK6/P9h4jj9VB7E+eKofP6+OkD7zw2M+YDqlPFoGNj5vbEk+ODXzPtROsz1KFMc+\r\nj4SXPnX/xT16etc9jh5HPlcYzD5mFsU/pPp2QCLeKUFe9H9BjhS2QY/8aEIruJhCGn6sQvuDiEKn\r\nFY9CcBNoQihwXEJKcAdCRVwbQgqf1EEWNdVBfvQJQXWIgkHcC0FB9+MQQabw1kA1awhBVedaQfZ+\r\nlkFfvdpBJg78QfWHCUIwWvZBU4gBQleN9UE9NPBBf1jRQWo1rUHzsWlB+ch9QbXjUEEH03hBypRI\r\nQW7HN0HVlP1ADhqyQKuGZkCMgi1A16OxP7Ma9T8zuv0/kn0cQNAmJUBnvlhAZTcsQC7xDUAxV/A/\r\nVATVP57JsD8PmJ4/fuJePyixND+wM/4+af7dPm6Lwz4IBJE+fk0FPh9AwD0KBHU9AYl9Pbjt/TxB\r\nMBU9oY2XPDvo5ztIEZE7sWx3O5yXnTsKqBQ7moVtO7Om7jpBqPg6xnK2OrtxYzoRf7Q6r2BlOa3j\r\naDp2xw05zZEWOoBY6ThB0iM6Er0DOTP3PTr6Ve44Z1wcOm9tBzkrDtI5zp6YOZT9TDl6ft45G1W0\r\nOGm8nzk8am45CTE4OWZLuzkwe744u78jOcQ4wjmQ9JA56gsWOfvh4jiMaKM4wNLHOPjwsjn59Og5\r\nm3UMOWRXkDhMjEE5pqjsONENAzktE405m6aoOF57hzgPuQg56j6kODC8tzgcGo44GtGrOCLqhzjV\r\ngYw4tP98OHB0fzhgSYE4hw55OI/Ddjj4f3I4pb+AOOT3fTiIf3w4xpq+OFLYSzkwzgw5ueZtODVk\r\nNTlPPss4plglOefGODlKdAc55F9lODXy2zhqKtI4HDrGOGJ3Xjgg4cg4wn0kOVvAEzlATIc5bEB3\r\nOFgzZziun9w4pqijOLKcMzlichQ5CMBkOCS/ZDgMG3Y4UNNoOCP5XjjbF4A4rOdGOM6ZWzhqClA4\r\nXd1LOMipcTjSOVk49stBOMwvVjg6sYE4/NxpOJCHSzjm7Wo4UqM7OGAKRjgaOFc4jPtBOISHSjhU\r\nBjE4qDFXOOR3VTj47E84k8xHOGLKQDg6TGY4GsptOMruPDgYBGM4lpE9OLP7QjgsHks4jgVmOFCj\r\nYDgYQlA48FBBOD1DQTgaWFs4Av4gONW0TDhIUTU4XEM4OFI0dzii3zA45j4hOAQyXDjHWEE4WklB\r\nOGABPTjcwT84LDhbOAKrTTjZ7Cg4tEUsOKAuRzhvTEo4YFgmOGIjJDiGR0s4G4I7ONBtOjgA+UQ4\r\nZg44ODQYPjjITEE4rBMxOGKSQjifWz44KIcyOJx1QzgSY0E4amI0OIRzKzi4Thw4HWEmOMxgHjgk\r\n9CQ4g8UeOBh4KjjaKjE4UCMiOJCRKDiWcz44qho9OKpuLDjBEC04FAE7OOhYKDgKcRQ4sactOJCW\r\nJThGdis46okUOH6SNTgdF1E4PtswOHP/cjjGzoY48qQzOPGZCDg6qh043jU0OJU4LzhuhxU4cYUd\r\nOLgCJTja4TE4Vl5CODE/MTh9VyU4eoEgOBGqJDg+FiA4B8MROGKXFTjARSU4FFgUOGTHEjjejhs4\r\ntfv2Nz9kHDhtjwM4HN0VOE3YOzjtLQg4hLoOOGSXDzgBoCk4Ju72N1JcFDiQJhI4uIMUOOa5DDjH\r\n4Sk4fDcFOF4YDDiqbSg43bkaOD8EDjgGFSk4gq4JONDxDjiiqQE4S54XOJiDDzjMAxI4yI8VOEsa\r\nMjgcvQQ4dvTrN6QRGzieCQs4FvAeOOL6FTg5yQE4UysGOKy6DjjwFQY4PGMIOCgFCDgrwAo4mo8Q\r\nOPJtFDjwHfI3UkwOOJzZ7jcZewk4HKnrNxzEAziPXR045W0DOPd6DjgVKxE4IRf4NwCoDDio7hQ4\r\nJccZOAps/TdSNgA4FaT6N9T7EzgrOhU4vKQLOLVw9DdD4RI4xPcmOLgRCjiYOug3wV4COP5aADj0\r\nawo4yeXXN8pSDTho0QE4QqX+N66CAzgYpfE3n3IDOKKmBThdoQI4RiIHONx17zc00w04zGHvN4pG\r\nDTgDVQc4wOLuNyX1EDiU8OA3KpHTNx713zfQ5gA4G5zjNyEPADjKkOU3hLoMOP/PzDe0UPw3kRXu\r\nN2v8FTgDw/c3cEkTOCLB6jdBBOM3HNPyNyqd5jc1DOk3e+UUOCRVAjgr2wQ4mHj2NzYm7zcx7+k3\r\n0qr/N85M3zdHT9o3f/vmN3OtAzheg/s3LycGOMq47Dfbqd03HowEOLJE5jcZRAA4U5/wN595zjeo\r\nGPg3mGYCOJ3m+zcJRPo3OkzrNwZX9DdE1cE3X1vVN/PC9zcTTus3Pc8DOASUyzcSYPY3cHjuN1g4\r\n9TehNMk3ICfIN1EC6zflzOM3Wdz4N4MOzDe0A/w3hlfzN1gw4De59MM3cnnlNyVQ4DciVug3grrq\r\nN6531jfyHNU3bCzXN8cjxDel3uQ3xqe/NxJc1jfQous3cxj0N52YADixw9I3BAvON3p81jci6O43\r\n8471Nz7x5jfki983TI7KN2bC8Td8H/U37/TfNzrH0Td+aOE3M+3HNyh15zd9CO831UQHODy02Dcy\r\nnMw3jRz7N1L4yDf4i9s32VL2N9tJvjcgVeA3qMD6NyTJAzhHjNg356/XN1Uc2Dfm4Ls3dGPRN3df\r\nxDdiP+A3GRzhN0jNwjdqEbI3iXzYN8gi+TdWK703lvnIN/ou3Tfznfg3ILe7N5LR0jeubcI3GoPY\r\nN2bCxTe7g8s3zWLGN4yszTfZ3cs3hODbN4/LwTeIcMY32re9NxtP5jdDw8c3B/vKN74RxTfJ+O03\r\nejTuNxjy3TcJzqc34lPtN0G5tzfm49w3x9EKOLT6xDfwGcA38lUCOEFduzdyBs030GWxN5wQqjdh\r\n4tU3/t3QNxZeyDdEldE3zZfFN+Zs1zc7tck3FRXnNzqL7zcjAeM3NeHRN7Y9mDddvas3qpbCN6A+\r\n6Tee5M83EHO8NxhLxjdPzNQ3rRPQN9VXzTfpXcA3Q/HAN+VtvDdKqcU3FE+1N65Ynzdmx9s3gliP\r\nN0J9AjhO6qk34iPHN/aN6Df3zc03IgShN/KUwjexd8I3qO+qNzHOmjfKDrA3EOfTN1DJ4Ddn07Q3\r\nZDi6N859rjcooZA3tnSxNzyvuTc3v9E3FXeYN9ICljcC0LY3sY/rNwRUxDfl/6U3TImGNyh3pjer\r\nIds3TovQN2tLoTctxMo3j1TAN5k6mTerysI33TemNwcGqTcK/OM3Z7zvN5ht7zeF8K43puqYN7ru\r\nrDfp16w3synKNzkYmDeWRt43ea7DN0oeuzcxbbU3Bn6wNyUr8Dc2Nao3Rwe2N4yvsTeHS8s3ZHTQ\r\nNzvD3zebMMY3EqXAN9ZutzdF2so3yUveN7DP5jfenJw3ouzTNzhlyzdFU6I3WviPNzkXkjePmtA3\r\n7Mu1N7dDvDfU6Lo3DDqtN6CTnDcrkso31wq9NzVUszfoarE3E0rLN4o7xzcChaw3UrmwN2GntzfH\r\n2Kk3j3uiN4yltDf2Kqo3bvHaN1MmuTedz7c3QEKmN0JjsjemVMg3NS64N1C34Tf58LE33ouaN55s\r\nqDeI3MA3OafkN+U+0DdvQr83zX2uN3cVxDfXero3GzG/N7z7yDd7YcE3TwDDNyC0zjd6oKk3U+C4\r\nN+g00Te0C8Y3MvKlN5ZE4DfgO6E3BGe5N95VjjdBOaI3V6vANzRApzezHr0379usN6WXzTeV75E3\r\niCKXN8ixxDfZL8U3vRqmN03qxTfs1rY3+hilN9Q72zdG0q83ZsC8N8OOwDfco6s32TXKN050qTeG\r\nNc43FrqXNwzl0TeQ2bE3coO4N2senzcE4NE3N1ijN2LuqDfA+q03baPQN7G/qTdyFLI3D1W0NxLW\r\nojczhKs3JKq4N3sHrzfFKLo3PEixNwOmsjfqZbI3MrnRNwaKjDeOAaw3XYu8NwBM0TdKBLg3ya2U\r\nN5h6yzd6SLw3mqSdN23dkjdcLrE33KCnN5HX3jc7usk3GVO9NyO3rTdpebc3TBfQNwAIwzd5JoY+\r\n90P8Pnae5T4zvWc/vnDNQNaU6kHezlxAkNGtP/y5CkAzZq5ASLbaPvgBgD9+oI4/eo3ZQCNrI0BH\r\nAvs+rSlWPpLYGz+nJZw+TWRqPoU3sj4uqb8++yWfPjkZdj+AeFA/T/oOP6oPjz4tdlY/JapPPwrC\r\nQkA36DtBrf2WQDjEVUEmN4hBjnx3QURRmUDTs9VBzaGGQFne90AzqqVAQjhxP+hjeT++os4/RAgW\r\nP6PYZD/UYGE/2DmHP+rZnj8O2CxAK1NEP1NUGz/uIs8/lEeEP6yDWT+LwI8/tzZbP/jE0D6HmBo/\r\ngkTNPo/oEz/mPQ8/ufrwPvKypD/HKSNAIRtkQEuyST8mZQY/urKxPwd3PD8yDopABfhuPxCXPz/m\r\nGXE+5VkGPy1B5j8xdv8+nFCCPtjkLj+wFPs+Oj1nPnf3nz4ulrw9ySvVPa+bHT6yjTg+OIFVP4D6\r\nYj7Ro5k9goipPdA00j1Y5lo9ZVgJPtNetz7dbpA+fupaPkExJz4KRic9on4rPVJjLD5QD1s+XRQ2\r\nPaY5kT24uP08KPVRPaPhKD0wTbc9pARBPhHLBD5lY6g9K/niPFUf1j2TrQw9wo8zPXGgiD0wQOc9\r\nDJqKPsW+iz4vOxc/RujcPlIS9z5CxjU//EHTPFKUTT0/FZs+wVahPh9fuz7E02U/J4WrP8W+tT9m\r\nABE+lD8CPxuJDz77sUE8hTeuPrPGRj/M/Mg+3r0AQIqR1z6BT089Ay1dPUlwST3zxpg9ctqxPqji\r\nND93bCw/1qEbP23mwT+GZYs/GRqtP2k+bD9JXf09uiJWPjopij3m7708FfwWPvKz8j2Q7xM/LW8I\r\nP21rOj9U3QY/j4+MPleHBj1/E+A+GdPPPgpH6D4I0EA+7nOdPptQ8D2jg8U+JuECP6zX0z4BLPY+\r\n1k59P3Qj2D+flIdAOuG7QHm1PEF9wU1B+UZ5QTEzlkGEx6VBGkDiQZ/cAEKcRuxBXUbDQfEpQkE8\r\nspRBFsSKQenul0ECWr5BNTOaQUKavUHDd7hB2hOwQfokwkFKO8ZBsgrGQRMSGEEil5BB4ls5QUGA\r\nz0Cg5BRAYG4SQHH4JkA5zLI/URMLP/jVAj1RRug9JdvKPUNyAD3TY6Y9jgEVPsYe+D5sw9Y+eoPK\r\nPm7j7z7GjV0/Pv9sP4QP/T5UOx0+MWiUPlkKLz5p/tI8My2ePGixQT0TWEg9n/cHPW11mT14Zd49\r\nE0QOPcriaTwm67Y8QsE4Pb6hIjw1s7c8ec3MPJBXLz1Q/+c9soapPnV2IT/bf9o9XblWQKpxlD/R\r\nIWg/G+0FP+JXJkBiBho+sABcPm89dD8vO61AOp9gP6AHvj7VHqo/KllKQUzbbEDaE1FBm1ELQdrm\r\nAkGsFIJADOnhQKS0Q0FUS0JBFXEiQbgEBEGL2KRAsju0P2hhZz7nTiFAMcKEP1jf8j+0+sE+0c0P\r\nQAQRC0Bgrr8/2HiOP1UHsT54qh8/r46QPvPDYz4gBqU8WgY2Pm9sST44NfM+1E6zPUoUxz6PhJc+\r\ndf/FPXp61z2OHkc+VxjMPmYWxT+k+nZAIt4pQV70f0GOFLZBj/xoQiu4mEIafqxC+4OIQqcVj0Jw\r\nE2hCKHBcQkpwB0JFXBtCCp/UQRY11UF+9AlBdYiCQdwLQUH34xBBpvDWQDVrCEFV51pB9n6WQV+9\r\n2kEmDvxB9YcJQjBa9kFTiAFCV431QT008EF/WNFBajWtQfOxaUH5yH1BteNQQQfTeEHKlEhBbsc3\r\nQdWU/UAOGrJAq4ZmQIyCLUDXo7E/sxr1PzO6/T+SfRxA0CYlQGe+WEBlNyxALvENQDFX8D9UBNU/\r\nnsmwPw+Ynj9+4l4/KLE0P7Az/j5p/t0+bovDPggEkT5+TQU+H0DAPQoEdT0BiX09uO39PEEwFT2h\r\njZc8O+jnO0gRkTuxbHc7nJedOwqoFDuahW07s6buOkGo+DrGcrY6u3FjOhF/tDqvYGU5reNoOnbH\r\nDTnNkRY6gFjpOEHSIzoSvQM5M/c9OvpV7jhnXBw6b20HOSsO0jnOnpg5lP1MOXp+3jkbVbQ4abyf\r\nOTxqbjkJMTg5Zku7OTB7vji7vyM5xDjCOZD0kDnqCxY5++HiOIxoozjA0sc4+PCyOfn06DmbdQw5\r\nZFeQOEyMQTmmqOw40Q0DOS0TjTmbpqg4XnuHOA+5CDnqPqQ4MLy3OBwajjga0as4IuqHONWBjDi0\r\n/3w4cHR/OGBJgTiHDnk4j8N2OPh/cjilv4A45Pd9OIh/fDjGmr44UthLOTDODDm55m04NWQ1OU8+\r\nyzimWCU558Y4OUp0BznkX2U4NfLbOGoq0jgcOsY4YndeOCDhyDjCfSQ5W8ATOUBMhzlsQHc4WDNn\r\nOK6f3DimqKM4spwzOWJyFDkIwGQ4JL9kOAwbdjhQ02g4I/leONsXgDis50Y4zplbOGoKUDhd3Us4\r\nyKlxONI5WTj2y0E4zC9WODqxgTj83Gk4kIdLOObtajhSozs4YApGOBo4VziM+0E4hIdKOFQGMTio\r\nMVc45HdVOPjsTziTzEc4YspAODpMZjgaym04yu48OBgEYziWkT04s/tCOCweSziOBWY4UKNgOBhC\r\nUDjwUEE4PUNBOBpYWzgC/iA41bRMOEhRNThcQzg4UjR3OKLfMDjmPiE4BDJcOMdYQThaSUE4YAE9\r\nONzBPzgsOFs4AqtNONnsKDi0RSw4oC5HOG9MSjhgWCY4YiMkOIZHSzgbgjs40G06OAD5RDhmDjg4\r\nNBg+OMhMQTisEzE4YpJCOJ9bPjgohzI4nHVDOBJjQThqYjQ4hHMrOLhOHDgdYSY4zGAeOCT0JDiD\r\nxR44GHgqONoqMThQIyI4kJEoOJZzPjiqGj04qm4sOMEQLTgUATs46FgoOApxFDixpy04kJYlOEZ2\r\nKzjqiRQ4fpI1OB0XUTg+2zA4c/9yOMbOhjjypDM48ZkIODqqHTjeNTQ4lTgvOG6HFThxhR04uAIl\r\nONrhMThWXkI4MT8xOH1XJTh6gSA4EaokOD4WIDgHwxE4YpcVOMBFJTgUWBQ4ZMcSON6OGzi1+/Y3\r\nP2QcOG2PAzgc3RU4Tdg7OO0tCDiEug44ZJcPOAGgKTgm7vY3UlwUOJAmEji4gxQ45rkMOMfhKTh8\r\nNwU4XhgMOKptKDjduRo4PwQOOAYVKTiCrgk40PEOOKKpAThLnhc4mIMPOMwDEjjIjxU4SxoyOBy9\r\nBDh29Os3pBEbOJ4JCzgW8B444voVODnJAThTKwY4rLoOOPAVBjg8Ywg4KAUIOCvACjiajxA48m0U\r\nOPAd8jdSTA44nNnuNxl7CTgcqes3HMQDOI9dHTjlbQM493oOOBUrETghF/g3AKgMOKjuFDglxxk4\r\nCmz9N1I2ADgVpPo31PsTOCs6FTi8pAs4tXD0N0PhEjjE9yY4uBEKOJg66DfBXgI4/loAOPRrCjjJ\r\n5dc3ylINOGjRAThCpf43roIDOBil8TefcgM4oqYFOF2hAjhGIgc43HXvNzTTDTjMYe83ikYNOANV\r\nBzjA4u43JfUQOJTw4DcqkdM3HvXfN9DmADgbnOM3IQ8AOMqQ5TeEugw4/8/MN7RQ/DeRFe43a/wV\r\nOAPD9zdwSRM4IsHqN0EE4zcc0/I3Kp3mNzUM6Td75RQ4JFUCOCvbBDiYePY3NibvNzHv6TfSqv83\r\nzkzfN0dP2jd/++Y3c60DOF6D+zcvJwY4yrjsN9up3TcejAQ4skTmNxlEADhTn/A3n3nON6gY+DeY\r\nZgI4neb7NwlE+jc6TOs3Blf0N0TVwTdfW9U388L3NxNO6zc9zwM4BJTLNxJg9jdweO43WDj1N6E0\r\nyTcgJ8g3UQLrN+XM4zdZ3Pg3gw7MN7QD/DeGV/M3WDDgN7n0wzdyeeU3JVDgNyJW6DeCuuo3rnfW\r\nN/Ic1TdsLNc3xyPEN6Xe5DfGp783ElzWN9Ci6zdzGPQ3nZgAOLHD0jcEC843enzWNyLo7jfzjvU3\r\nPvHmN+SL3zdMjso3ZsLxN3wf9Tfv9N83OsfRN35o4Tcz7cc3KHXnN30I7zfVRAc4PLTYNzKczDeN\r\nHPs3UvjIN/iL2zfZUvY320m+NyBV4DeowPo3JMkDOEeM2Dfnr9c3VRzYN+bguzd0Y9E3d1/EN2I/\r\n4DcZHOE3SM3CN2oRsjeJfNg3yCL5N1YrvTeW+cg3+i7dN/Od+Dcgt7s3ktHSN65twjcag9g3ZsLF\r\nN7uDyzfNYsY3jKzNN9ndyzeE4Ns3j8vBN4hwxjfat703G0/mN0PDxzcH+8o3vhHFN8n47Td6NO43\r\nGPLdNwnOpzfiU+03Qbm3N+bj3DfH0Qo4tPrEN/AZwDfyVQI4QV27N3IGzTfQZbE3nBCqN2Hi1Tf+\r\n3dA3Fl7IN0SV0TfNl8U35mzXNzu1yTcVFec3OovvNyMB4zc14dE3tj2YN129qzeqlsI3oD7pN57k\r\nzzcQc7w3GEvGN0/M1DetE9A31VfNN+ldwDdD8cA35W28N0qpxTcUT7U3rlifN2bH2zeCWI83Qn0C\r\nOE7qqTfiI8c39o3oN/fNzTciBKE38pTCN7F3wjeo76o3Mc6aN8oOsDcQ59M3UMngN2fTtDdkOLo3\r\nzn2uNyihkDe2dLE3PK+5Nze/0TcVd5g30gKWNwLQtjexj+s3BFTEN+X/pTdMiYY3KHemN6sh2zdO\r\ni9A3a0uhNy3EyjePVMA3mTqZN6vKwjfdN6Y3BwapNwr84zdnvO83mG3vN4Xwrjem6pg3uu6sN+nX\r\nrDezKco3ORiYN5ZG3jd5rsM3Sh67NzFttTcGfrA3JSvwNzY1qjdHB7Y3jK+xN4dLyzdkdNA3O8Pf\r\nN5swxjcSpcA31m63N0XayjfJS943sM/mN96cnDei7NM3OGXLN0VTojda+I83OReSN4+a0Dfsy7U3\r\nt0O8N9ToujcMOq03oJOcNyuSyjfXCr03NVSzN+hqsTcTSss3ijvHNwKFrDdSubA3Yae3N8fYqTeP\r\ne6I3jKW0N/Yqqjdu8do3Uya5N53PtzdAQqY3QmOyN6ZUyDc1Lrg3ULfhN/nwsTfei5o3nmyoN4jc\r\nwDc5p+Q35T7QN29CvzfNfa43dxXEN9d6ujcbMb83vPvIN3thwTdPAMM3ILTON3qgqTdT4Lg36DTR\r\nN7QLxjcy8qU3lkTgN+A7oTcEZ7k33lWON0E5ojdXq8A3NECnN7MevTfv26w3pZfNN5XvkTeIIpc3\r\nyLHEN9kvxTe9GqY3TerFN+zWtjf6GKU31DvbN0bSrzdmwLw3w47AN9yjqzfZNco3TnSpN4Y1zjcW\r\nupc3DOXRN5DZsTdyg7g3ax6fNwTg0Tc3WKM3Yu6oN8D6rTdto9A3sb+pN3IUsjcPVbQ3EtaiNzOE\r\nqzckqrg3ewevN8Uoujc8SLE3A6ayN+plsjcyudE3BoqMN44BrDddi7w3AEzRN0oEuDfJrZQ3mHrL\r\nN3pIvDeapJ03bd2SN1wusTfcoKc3kdfeNzu6yTcZU703I7etN2l5tzdMF9A3AAjDNw==",
                            "noiseTrainingType" : "default"
                          }
                        }
                    ],
                    "start" : 7148,
                    "duration" : 247,
                    "mediaStart" : 3868,
                    "mediaDuration" : 247,
                    "scalar" : 1,
                    "metadata" : {
                      "WinSubProjectDisplayName" : "",
                      "clipSpeedAttribute" : false
                    },
                    "animationTracks" : {

                    }
                  },
                  {
                    "id" : 137,
                    "_type" : "AMFile",
                    "src" : 3,
                    "trackNumber" : 1,
                    "attributes" : {
                      "ident" : "tower-columns-03",
                      "sampleRate" : 44100,
                      "bitDepth" : 16,
                      "gain" : 1.0,
                      "mixToMono" : false
                    },
                      "channelNumber" : "0,1",
                    "effects" : [
                        {
                          "effectName" : "NoiseReduction",
                          "category" : "categoryAudioEffects",
                          "parameters" : {
                            "denoiserAmount" : 20.0,
                            "denoiserThreshold" : 0.0,
                            "noiseProfile" : "eSaGPvdD/D52nuU+M71nP75wzUDWlOpB3s5cQJDRrT/8uQpAM2auQEi22j74AYA/fqCOP3qN2UAj\r\nayNARwL7Pq0pVj6v3Rs/pyWcPk1kaj6FN7I+Lqm/Pvslnz45GXY/gHhQP0/6Dj+qD48+LXZWPyWq\r\nTz8KwkJAeug7Qa39lkA4xFVBJjeIQY58d0FEUZlA7LXVQc2hhkBZ3vdAWbGlQPg8cT/oY3k/hJjO\r\nP3/sFT+j2GQ/1GBhP9g5hz/q2Z4/DtgsQCtTRD9TVBs/7iLPP5RHhD+sg1k/i8CPP7c2Wz/4xNA+\r\nh5gaP4JEzT6P6BM/5j0PP7n68D7ysqQ/xykjQCEbZECIn0k/JmUGP7qysT8Hdzw/rg2KQAgObz8Q\r\nlz8/5hlxPuVZBj8tQeY/MXb/PpxQgj7u8y4/rxj7Pjo9Zz53958+Lpa8Pckr1T2vmx0+so04PjiB\r\nVT+A+mI+0aOZPYKIqT3QNNI9WOZaPWVYCT7TXrc+pnOQPhQOWz5BMSc+CkYnPaJ+Kz1SYyw+UA9b\r\nPl0UNj2mOZE9uLj9PPoBUj2j4Sg9ME23PaQEQT4RywQ+ZWOoPSv54jxVH9Y9k60MPTV1Mz1xoIg9\r\nvqfnPQyaij7Fvos+LzsXP0bo3D5SEvc+QsY1P/xB0zxSlE09PxWbPsFWoT4fX7s+xNNlPyeFqz/F\r\nvrU/ZgARPpQ/Aj8biQ8++7FBPIU3rj6zxkY/zPzIPt69AECKkdc+gU9PPQMtXT1JcEk988aYPXLa\r\nsT6o4jQ/d2wsP9ahGz9t5sE/hmWLPxkarT9pPmw/SV39PboiVj46KYo95u+9PBX8Fj7ys/I9kO8T\r\nPy1vCD9tazo/VN0GP4+PjD5XhwY9fxPgPhnTzz4KR+g+CNBAPu5znT6bUPA9o4PFPibhAj+s19M+\r\nASz2PtZOfT90I9g/n5SHQDrhu0B5tTxBfcFNQflGeUExM5ZBhMelQRpA4kGf3ABCnEbsQV1Gw0Hx\r\nKUJBPLKUQRbEikHp7pdBAlq+QTUzmkFCmr1Bw3e4QdoTsEH6JMJBSjvGQbIKxkETEhhBIpeQQeJb\r\nOUFBgM9AoOQUQGBuEkBx+CZAOcyyP1ETCz/41QI9UUboPSXbyj1DcgA902OmPY4BFT7GHvg+bMPW\r\nPnqDyj5u4+8+xo1dPz7/bD+ED/0+VDsdPjFolD5ZCi8+af7SPDMtnjxosUE9E1hIPZ/3Bz1tdZk9\r\neGXePRNEDj3K4mk8Juu2PELBOD2+oSI8NbO3PHnNzDyQVy89UP/nPbKGqT51diE/23/aPV25VkCq\r\ncZQ/0SFoPxvtBT/iVyZAYgYaPrAAXD5vPXQ/LzutQDqfYD+gB74+1R6qPypZSkFM22xA2hNRQZtR\r\nC0Ha5gJBrBSCQAzp4UCktENBVEtCQRVxIkG4BARBi9ikQLI7tD9oYWc+504hQDHChD9Y3/I/tPrB\r\nPtHND0AEEQtAYK6/P9h4jj9VB7E+eKofP6+OkD7zw2M+YDqlPFoGNj5vbEk+ODXzPtROsz1KFMc+\r\nj4SXPnX/xT16etc9jh5HPlcYzD5mFsU/pPp2QCLeKUFe9H9BjhS2QY/8aEIruJhCGn6sQvuDiEKn\r\nFY9CcBNoQihwXEJKcAdCRVwbQgqf1EEWNdVBfvQJQXWIgkHcC0FB9+MQQabw1kA1awhBVedaQfZ+\r\nlkFfvdpBJg78QfWHCUIwWvZBU4gBQleN9UE9NPBBf1jRQWo1rUHzsWlB+ch9QbXjUEEH03hBypRI\r\nQW7HN0HVlP1ADhqyQKuGZkCMgi1A16OxP7Ma9T8zuv0/kn0cQNAmJUBnvlhAZTcsQC7xDUAxV/A/\r\nVATVP57JsD8PmJ4/fuJePyixND+wM/4+af7dPm6Lwz4IBJE+fk0FPh9AwD0KBHU9AYl9Pbjt/TxB\r\nMBU9oY2XPDvo5ztIEZE7sWx3O5yXnTsKqBQ7moVtO7Om7jpBqPg6xnK2OrtxYzoRf7Q6r2BlOa3j\r\naDp2xw05zZEWOoBY6ThB0iM6Er0DOTP3PTr6Ve44Z1wcOm9tBzkrDtI5zp6YOZT9TDl6ft45G1W0\r\nOGm8nzk8am45CTE4OWZLuzkwe744u78jOcQ4wjmQ9JA56gsWOfvh4jiMaKM4wNLHOPjwsjn59Og5\r\nm3UMOWRXkDhMjEE5pqjsONENAzktE405m6aoOF57hzgPuQg56j6kODC8tzgcGo44GtGrOCLqhzjV\r\ngYw4tP98OHB0fzhgSYE4hw55OI/Ddjj4f3I4pb+AOOT3fTiIf3w4xpq+OFLYSzkwzgw5ueZtODVk\r\nNTlPPss4plglOefGODlKdAc55F9lODXy2zhqKtI4HDrGOGJ3Xjgg4cg4wn0kOVvAEzlATIc5bEB3\r\nOFgzZziun9w4pqijOLKcMzlichQ5CMBkOCS/ZDgMG3Y4UNNoOCP5XjjbF4A4rOdGOM6ZWzhqClA4\r\nXd1LOMipcTjSOVk49stBOMwvVjg6sYE4/NxpOJCHSzjm7Wo4UqM7OGAKRjgaOFc4jPtBOISHSjhU\r\nBjE4qDFXOOR3VTj47E84k8xHOGLKQDg6TGY4GsptOMruPDgYBGM4lpE9OLP7QjgsHks4jgVmOFCj\r\nYDgYQlA48FBBOD1DQTgaWFs4Av4gONW0TDhIUTU4XEM4OFI0dzii3zA45j4hOAQyXDjHWEE4WklB\r\nOGABPTjcwT84LDhbOAKrTTjZ7Cg4tEUsOKAuRzhvTEo4YFgmOGIjJDiGR0s4G4I7ONBtOjgA+UQ4\r\nZg44ODQYPjjITEE4rBMxOGKSQjifWz44KIcyOJx1QzgSY0E4amI0OIRzKzi4Thw4HWEmOMxgHjgk\r\n9CQ4g8UeOBh4KjjaKjE4UCMiOJCRKDiWcz44qho9OKpuLDjBEC04FAE7OOhYKDgKcRQ4sactOJCW\r\nJThGdis46okUOH6SNTgdF1E4PtswOHP/cjjGzoY48qQzOPGZCDg6qh043jU0OJU4LzhuhxU4cYUd\r\nOLgCJTja4TE4Vl5CODE/MTh9VyU4eoEgOBGqJDg+FiA4B8MROGKXFTjARSU4FFgUOGTHEjjejhs4\r\ntfv2Nz9kHDhtjwM4HN0VOE3YOzjtLQg4hLoOOGSXDzgBoCk4Ju72N1JcFDiQJhI4uIMUOOa5DDjH\r\n4Sk4fDcFOF4YDDiqbSg43bkaOD8EDjgGFSk4gq4JONDxDjiiqQE4S54XOJiDDzjMAxI4yI8VOEsa\r\nMjgcvQQ4dvTrN6QRGzieCQs4FvAeOOL6FTg5yQE4UysGOKy6DjjwFQY4PGMIOCgFCDgrwAo4mo8Q\r\nOPJtFDjwHfI3UkwOOJzZ7jcZewk4HKnrNxzEAziPXR045W0DOPd6DjgVKxE4IRf4NwCoDDio7hQ4\r\nJccZOAps/TdSNgA4FaT6N9T7EzgrOhU4vKQLOLVw9DdD4RI4xPcmOLgRCjiYOug3wV4COP5aADj0\r\nawo4yeXXN8pSDTho0QE4QqX+N66CAzgYpfE3n3IDOKKmBThdoQI4RiIHONx17zc00w04zGHvN4pG\r\nDTgDVQc4wOLuNyX1EDiU8OA3KpHTNx713zfQ5gA4G5zjNyEPADjKkOU3hLoMOP/PzDe0UPw3kRXu\r\nN2v8FTgDw/c3cEkTOCLB6jdBBOM3HNPyNyqd5jc1DOk3e+UUOCRVAjgr2wQ4mHj2NzYm7zcx7+k3\r\n0qr/N85M3zdHT9o3f/vmN3OtAzheg/s3LycGOMq47Dfbqd03HowEOLJE5jcZRAA4U5/wN595zjeo\r\nGPg3mGYCOJ3m+zcJRPo3OkzrNwZX9DdE1cE3X1vVN/PC9zcTTus3Pc8DOASUyzcSYPY3cHjuN1g4\r\n9TehNMk3ICfIN1EC6zflzOM3Wdz4N4MOzDe0A/w3hlfzN1gw4De59MM3cnnlNyVQ4DciVug3grrq\r\nN6531jfyHNU3bCzXN8cjxDel3uQ3xqe/NxJc1jfQous3cxj0N52YADixw9I3BAvON3p81jci6O43\r\n8471Nz7x5jfki983TI7KN2bC8Td8H/U37/TfNzrH0Td+aOE3M+3HNyh15zd9CO831UQHODy02Dcy\r\nnMw3jRz7N1L4yDf4i9s32VL2N9tJvjcgVeA3qMD6NyTJAzhHjNg356/XN1Uc2Dfm4Ls3dGPRN3df\r\nxDdiP+A3GRzhN0jNwjdqEbI3iXzYN8gi+TdWK703lvnIN/ou3Tfznfg3ILe7N5LR0jeubcI3GoPY\r\nN2bCxTe7g8s3zWLGN4yszTfZ3cs3hODbN4/LwTeIcMY32re9NxtP5jdDw8c3B/vKN74RxTfJ+O03\r\nejTuNxjy3TcJzqc34lPtN0G5tzfm49w3x9EKOLT6xDfwGcA38lUCOEFduzdyBs030GWxN5wQqjdh\r\n4tU3/t3QNxZeyDdEldE3zZfFN+Zs1zc7tck3FRXnNzqL7zcjAeM3NeHRN7Y9mDddvas3qpbCN6A+\r\n6Tee5M83EHO8NxhLxjdPzNQ3rRPQN9VXzTfpXcA3Q/HAN+VtvDdKqcU3FE+1N65Ynzdmx9s3gliP\r\nN0J9AjhO6qk34iPHN/aN6Df3zc03IgShN/KUwjexd8I3qO+qNzHOmjfKDrA3EOfTN1DJ4Ddn07Q3\r\nZDi6N859rjcooZA3tnSxNzyvuTc3v9E3FXeYN9ICljcC0LY3sY/rNwRUxDfl/6U3TImGNyh3pjer\r\nIds3TovQN2tLoTctxMo3j1TAN5k6mTerysI33TemNwcGqTcK/OM3Z7zvN5ht7zeF8K43puqYN7ru\r\nrDfp16w3synKNzkYmDeWRt43ea7DN0oeuzcxbbU3Bn6wNyUr8Dc2Nao3Rwe2N4yvsTeHS8s3ZHTQ\r\nNzvD3zebMMY3EqXAN9ZutzdF2so3yUveN7DP5jfenJw3ouzTNzhlyzdFU6I3WviPNzkXkjePmtA3\r\n7Mu1N7dDvDfU6Lo3DDqtN6CTnDcrkso31wq9NzVUszfoarE3E0rLN4o7xzcChaw3UrmwN2GntzfH\r\n2Kk3j3uiN4yltDf2Kqo3bvHaN1MmuTedz7c3QEKmN0JjsjemVMg3NS64N1C34Tf58LE33ouaN55s\r\nqDeI3MA3OafkN+U+0DdvQr83zX2uN3cVxDfXero3GzG/N7z7yDd7YcE3TwDDNyC0zjd6oKk3U+C4\r\nN+g00Te0C8Y3MvKlN5ZE4DfgO6E3BGe5N95VjjdBOaI3V6vANzRApzezHr0379usN6WXzTeV75E3\r\niCKXN8ixxDfZL8U3vRqmN03qxTfs1rY3+hilN9Q72zdG0q83ZsC8N8OOwDfco6s32TXKN050qTeG\r\nNc43FrqXNwzl0TeQ2bE3coO4N2senzcE4NE3N1ijN2LuqDfA+q03baPQN7G/qTdyFLI3D1W0NxLW\r\nojczhKs3JKq4N3sHrzfFKLo3PEixNwOmsjfqZbI3MrnRNwaKjDeOAaw3XYu8NwBM0TdKBLg3ya2U\r\nN5h6yzd6SLw3mqSdN23dkjdcLrE33KCnN5HX3jc7usk3GVO9NyO3rTdpebc3TBfQNwAIwzd5JoY+\r\n90P8Pnae5T4zvWc/vnDNQNaU6kHezlxAkNGtP/y5CkAzZq5ASLbaPvgBgD9+oI4/eo3ZQCNrI0BH\r\nAvs+rSlWPpLYGz+nJZw+TWRqPoU3sj4uqb8++yWfPjkZdj+AeFA/T/oOP6oPjz4tdlY/JapPPwrC\r\nQkA36DtBrf2WQDjEVUEmN4hBjnx3QURRmUDTs9VBzaGGQFne90AzqqVAQjhxP+hjeT++os4/RAgW\r\nP6PYZD/UYGE/2DmHP+rZnj8O2CxAK1NEP1NUGz/uIs8/lEeEP6yDWT+LwI8/tzZbP/jE0D6HmBo/\r\ngkTNPo/oEz/mPQ8/ufrwPvKypD/HKSNAIRtkQEuyST8mZQY/urKxPwd3PD8yDopABfhuPxCXPz/m\r\nGXE+5VkGPy1B5j8xdv8+nFCCPtjkLj+wFPs+Oj1nPnf3nz4ulrw9ySvVPa+bHT6yjTg+OIFVP4D6\r\nYj7Ro5k9goipPdA00j1Y5lo9ZVgJPtNetz7dbpA+fupaPkExJz4KRic9on4rPVJjLD5QD1s+XRQ2\r\nPaY5kT24uP08KPVRPaPhKD0wTbc9pARBPhHLBD5lY6g9K/niPFUf1j2TrQw9wo8zPXGgiD0wQOc9\r\nDJqKPsW+iz4vOxc/RujcPlIS9z5CxjU//EHTPFKUTT0/FZs+wVahPh9fuz7E02U/J4WrP8W+tT9m\r\nABE+lD8CPxuJDz77sUE8hTeuPrPGRj/M/Mg+3r0AQIqR1z6BT089Ay1dPUlwST3zxpg9ctqxPqji\r\nND93bCw/1qEbP23mwT+GZYs/GRqtP2k+bD9JXf09uiJWPjopij3m7708FfwWPvKz8j2Q7xM/LW8I\r\nP21rOj9U3QY/j4+MPleHBj1/E+A+GdPPPgpH6D4I0EA+7nOdPptQ8D2jg8U+JuECP6zX0z4BLPY+\r\n1k59P3Qj2D+flIdAOuG7QHm1PEF9wU1B+UZ5QTEzlkGEx6VBGkDiQZ/cAEKcRuxBXUbDQfEpQkE8\r\nspRBFsSKQenul0ECWr5BNTOaQUKavUHDd7hB2hOwQfokwkFKO8ZBsgrGQRMSGEEil5BB4ls5QUGA\r\nz0Cg5BRAYG4SQHH4JkA5zLI/URMLP/jVAj1RRug9JdvKPUNyAD3TY6Y9jgEVPsYe+D5sw9Y+eoPK\r\nPm7j7z7GjV0/Pv9sP4QP/T5UOx0+MWiUPlkKLz5p/tI8My2ePGixQT0TWEg9n/cHPW11mT14Zd49\r\nE0QOPcriaTwm67Y8QsE4Pb6hIjw1s7c8ec3MPJBXLz1Q/+c9soapPnV2IT/bf9o9XblWQKpxlD/R\r\nIWg/G+0FP+JXJkBiBho+sABcPm89dD8vO61AOp9gP6AHvj7VHqo/KllKQUzbbEDaE1FBm1ELQdrm\r\nAkGsFIJADOnhQKS0Q0FUS0JBFXEiQbgEBEGL2KRAsju0P2hhZz7nTiFAMcKEP1jf8j+0+sE+0c0P\r\nQAQRC0Bgrr8/2HiOP1UHsT54qh8/r46QPvPDYz4gBqU8WgY2Pm9sST44NfM+1E6zPUoUxz6PhJc+\r\ndf/FPXp61z2OHkc+VxjMPmYWxT+k+nZAIt4pQV70f0GOFLZBj/xoQiu4mEIafqxC+4OIQqcVj0Jw\r\nE2hCKHBcQkpwB0JFXBtCCp/UQRY11UF+9AlBdYiCQdwLQUH34xBBpvDWQDVrCEFV51pB9n6WQV+9\r\n2kEmDvxB9YcJQjBa9kFTiAFCV431QT008EF/WNFBajWtQfOxaUH5yH1BteNQQQfTeEHKlEhBbsc3\r\nQdWU/UAOGrJAq4ZmQIyCLUDXo7E/sxr1PzO6/T+SfRxA0CYlQGe+WEBlNyxALvENQDFX8D9UBNU/\r\nnsmwPw+Ynj9+4l4/KLE0P7Az/j5p/t0+bovDPggEkT5+TQU+H0DAPQoEdT0BiX09uO39PEEwFT2h\r\njZc8O+jnO0gRkTuxbHc7nJedOwqoFDuahW07s6buOkGo+DrGcrY6u3FjOhF/tDqvYGU5reNoOnbH\r\nDTnNkRY6gFjpOEHSIzoSvQM5M/c9OvpV7jhnXBw6b20HOSsO0jnOnpg5lP1MOXp+3jkbVbQ4abyf\r\nOTxqbjkJMTg5Zku7OTB7vji7vyM5xDjCOZD0kDnqCxY5++HiOIxoozjA0sc4+PCyOfn06DmbdQw5\r\nZFeQOEyMQTmmqOw40Q0DOS0TjTmbpqg4XnuHOA+5CDnqPqQ4MLy3OBwajjga0as4IuqHONWBjDi0\r\n/3w4cHR/OGBJgTiHDnk4j8N2OPh/cjilv4A45Pd9OIh/fDjGmr44UthLOTDODDm55m04NWQ1OU8+\r\nyzimWCU558Y4OUp0BznkX2U4NfLbOGoq0jgcOsY4YndeOCDhyDjCfSQ5W8ATOUBMhzlsQHc4WDNn\r\nOK6f3DimqKM4spwzOWJyFDkIwGQ4JL9kOAwbdjhQ02g4I/leONsXgDis50Y4zplbOGoKUDhd3Us4\r\nyKlxONI5WTj2y0E4zC9WODqxgTj83Gk4kIdLOObtajhSozs4YApGOBo4VziM+0E4hIdKOFQGMTio\r\nMVc45HdVOPjsTziTzEc4YspAODpMZjgaym04yu48OBgEYziWkT04s/tCOCweSziOBWY4UKNgOBhC\r\nUDjwUEE4PUNBOBpYWzgC/iA41bRMOEhRNThcQzg4UjR3OKLfMDjmPiE4BDJcOMdYQThaSUE4YAE9\r\nONzBPzgsOFs4AqtNONnsKDi0RSw4oC5HOG9MSjhgWCY4YiMkOIZHSzgbgjs40G06OAD5RDhmDjg4\r\nNBg+OMhMQTisEzE4YpJCOJ9bPjgohzI4nHVDOBJjQThqYjQ4hHMrOLhOHDgdYSY4zGAeOCT0JDiD\r\nxR44GHgqONoqMThQIyI4kJEoOJZzPjiqGj04qm4sOMEQLTgUATs46FgoOApxFDixpy04kJYlOEZ2\r\nKzjqiRQ4fpI1OB0XUTg+2zA4c/9yOMbOhjjypDM48ZkIODqqHTjeNTQ4lTgvOG6HFThxhR04uAIl\r\nONrhMThWXkI4MT8xOH1XJTh6gSA4EaokOD4WIDgHwxE4YpcVOMBFJTgUWBQ4ZMcSON6OGzi1+/Y3\r\nP2QcOG2PAzgc3RU4Tdg7OO0tCDiEug44ZJcPOAGgKTgm7vY3UlwUOJAmEji4gxQ45rkMOMfhKTh8\r\nNwU4XhgMOKptKDjduRo4PwQOOAYVKTiCrgk40PEOOKKpAThLnhc4mIMPOMwDEjjIjxU4SxoyOBy9\r\nBDh29Os3pBEbOJ4JCzgW8B444voVODnJAThTKwY4rLoOOPAVBjg8Ywg4KAUIOCvACjiajxA48m0U\r\nOPAd8jdSTA44nNnuNxl7CTgcqes3HMQDOI9dHTjlbQM493oOOBUrETghF/g3AKgMOKjuFDglxxk4\r\nCmz9N1I2ADgVpPo31PsTOCs6FTi8pAs4tXD0N0PhEjjE9yY4uBEKOJg66DfBXgI4/loAOPRrCjjJ\r\n5dc3ylINOGjRAThCpf43roIDOBil8TefcgM4oqYFOF2hAjhGIgc43HXvNzTTDTjMYe83ikYNOANV\r\nBzjA4u43JfUQOJTw4DcqkdM3HvXfN9DmADgbnOM3IQ8AOMqQ5TeEugw4/8/MN7RQ/DeRFe43a/wV\r\nOAPD9zdwSRM4IsHqN0EE4zcc0/I3Kp3mNzUM6Td75RQ4JFUCOCvbBDiYePY3NibvNzHv6TfSqv83\r\nzkzfN0dP2jd/++Y3c60DOF6D+zcvJwY4yrjsN9up3TcejAQ4skTmNxlEADhTn/A3n3nON6gY+DeY\r\nZgI4neb7NwlE+jc6TOs3Blf0N0TVwTdfW9U388L3NxNO6zc9zwM4BJTLNxJg9jdweO43WDj1N6E0\r\nyTcgJ8g3UQLrN+XM4zdZ3Pg3gw7MN7QD/DeGV/M3WDDgN7n0wzdyeeU3JVDgNyJW6DeCuuo3rnfW\r\nN/Ic1TdsLNc3xyPEN6Xe5DfGp783ElzWN9Ci6zdzGPQ3nZgAOLHD0jcEC843enzWNyLo7jfzjvU3\r\nPvHmN+SL3zdMjso3ZsLxN3wf9Tfv9N83OsfRN35o4Tcz7cc3KHXnN30I7zfVRAc4PLTYNzKczDeN\r\nHPs3UvjIN/iL2zfZUvY320m+NyBV4DeowPo3JMkDOEeM2Dfnr9c3VRzYN+bguzd0Y9E3d1/EN2I/\r\n4DcZHOE3SM3CN2oRsjeJfNg3yCL5N1YrvTeW+cg3+i7dN/Od+Dcgt7s3ktHSN65twjcag9g3ZsLF\r\nN7uDyzfNYsY3jKzNN9ndyzeE4Ns3j8vBN4hwxjfat703G0/mN0PDxzcH+8o3vhHFN8n47Td6NO43\r\nGPLdNwnOpzfiU+03Qbm3N+bj3DfH0Qo4tPrEN/AZwDfyVQI4QV27N3IGzTfQZbE3nBCqN2Hi1Tf+\r\n3dA3Fl7IN0SV0TfNl8U35mzXNzu1yTcVFec3OovvNyMB4zc14dE3tj2YN129qzeqlsI3oD7pN57k\r\nzzcQc7w3GEvGN0/M1DetE9A31VfNN+ldwDdD8cA35W28N0qpxTcUT7U3rlifN2bH2zeCWI83Qn0C\r\nOE7qqTfiI8c39o3oN/fNzTciBKE38pTCN7F3wjeo76o3Mc6aN8oOsDcQ59M3UMngN2fTtDdkOLo3\r\nzn2uNyihkDe2dLE3PK+5Nze/0TcVd5g30gKWNwLQtjexj+s3BFTEN+X/pTdMiYY3KHemN6sh2zdO\r\ni9A3a0uhNy3EyjePVMA3mTqZN6vKwjfdN6Y3BwapNwr84zdnvO83mG3vN4Xwrjem6pg3uu6sN+nX\r\nrDezKco3ORiYN5ZG3jd5rsM3Sh67NzFttTcGfrA3JSvwNzY1qjdHB7Y3jK+xN4dLyzdkdNA3O8Pf\r\nN5swxjcSpcA31m63N0XayjfJS943sM/mN96cnDei7NM3OGXLN0VTojda+I83OReSN4+a0Dfsy7U3\r\nt0O8N9ToujcMOq03oJOcNyuSyjfXCr03NVSzN+hqsTcTSss3ijvHNwKFrDdSubA3Yae3N8fYqTeP\r\ne6I3jKW0N/Yqqjdu8do3Uya5N53PtzdAQqY3QmOyN6ZUyDc1Lrg3ULfhN/nwsTfei5o3nmyoN4jc\r\nwDc5p+Q35T7QN29CvzfNfa43dxXEN9d6ujcbMb83vPvIN3thwTdPAMM3ILTON3qgqTdT4Lg36DTR\r\nN7QLxjcy8qU3lkTgN+A7oTcEZ7k33lWON0E5ojdXq8A3NECnN7MevTfv26w3pZfNN5XvkTeIIpc3\r\nyLHEN9kvxTe9GqY3TerFN+zWtjf6GKU31DvbN0bSrzdmwLw3w47AN9yjqzfZNco3TnSpN4Y1zjcW\r\nupc3DOXRN5DZsTdyg7g3ax6fNwTg0Tc3WKM3Yu6oN8D6rTdto9A3sb+pN3IUsjcPVbQ3EtaiNzOE\r\nqzckqrg3ewevN8Uoujc8SLE3A6ayN+plsjcyudE3BoqMN44BrDddi7w3AEzRN0oEuDfJrZQ3mHrL\r\nN3pIvDeapJ03bd2SN1wusTfcoKc3kdfeNzu6yTcZU703I7etN2l5tzdMF9A3AAjDNw==",
                            "noiseTrainingType" : "default"
                          }
                        }
                    ],
                    "start" : 7395,
                    "duration" : 16,
                    "mediaStart" : 4119,
                    "mediaDuration" : 16,
                    "scalar" : 1,
                    "metadata" : {
                      "WinSubProjectDisplayName" : "",
                      "clipSpeedAttribute" : false
                    },
                    "animationTracks" : {

                    }
                  },
                  {
                    "id" : 138,
                    "_type" : "AMFile",
                    "src" : 3,
                    "trackNumber" : 1,
                    "attributes" : {
                      "ident" : "tower-columns-03",
                      "sampleRate" : 44100,
                      "bitDepth" : 16,
                      "gain" : 1.0,
                      "mixToMono" : false
                    },
                      "channelNumber" : "0,1",
                    "effects" : [
                        {
                          "effectName" : "NoiseReduction",
                          "category" : "categoryAudioEffects",
                          "parameters" : {
                            "denoiserAmount" : 20.0,
                            "denoiserThreshold" : 0.0,
                            "noiseProfile" : "eSaGPvdD/D52nuU+M71nP75wzUDWlOpB3s5cQJDRrT/8uQpAM2auQEi22j74AYA/fqCOP3qN2UAj\r\nayNARwL7Pq0pVj6v3Rs/pyWcPk1kaj6FN7I+Lqm/Pvslnz45GXY/gHhQP0/6Dj+qD48+LXZWPyWq\r\nTz8KwkJAeug7Qa39lkA4xFVBJjeIQY58d0FEUZlA7LXVQc2hhkBZ3vdAWbGlQPg8cT/oY3k/hJjO\r\nP3/sFT+j2GQ/1GBhP9g5hz/q2Z4/DtgsQCtTRD9TVBs/7iLPP5RHhD+sg1k/i8CPP7c2Wz/4xNA+\r\nh5gaP4JEzT6P6BM/5j0PP7n68D7ysqQ/xykjQCEbZECIn0k/JmUGP7qysT8Hdzw/rg2KQAgObz8Q\r\nlz8/5hlxPuVZBj8tQeY/MXb/PpxQgj7u8y4/rxj7Pjo9Zz53958+Lpa8Pckr1T2vmx0+so04PjiB\r\nVT+A+mI+0aOZPYKIqT3QNNI9WOZaPWVYCT7TXrc+pnOQPhQOWz5BMSc+CkYnPaJ+Kz1SYyw+UA9b\r\nPl0UNj2mOZE9uLj9PPoBUj2j4Sg9ME23PaQEQT4RywQ+ZWOoPSv54jxVH9Y9k60MPTV1Mz1xoIg9\r\nvqfnPQyaij7Fvos+LzsXP0bo3D5SEvc+QsY1P/xB0zxSlE09PxWbPsFWoT4fX7s+xNNlPyeFqz/F\r\nvrU/ZgARPpQ/Aj8biQ8++7FBPIU3rj6zxkY/zPzIPt69AECKkdc+gU9PPQMtXT1JcEk988aYPXLa\r\nsT6o4jQ/d2wsP9ahGz9t5sE/hmWLPxkarT9pPmw/SV39PboiVj46KYo95u+9PBX8Fj7ys/I9kO8T\r\nPy1vCD9tazo/VN0GP4+PjD5XhwY9fxPgPhnTzz4KR+g+CNBAPu5znT6bUPA9o4PFPibhAj+s19M+\r\nASz2PtZOfT90I9g/n5SHQDrhu0B5tTxBfcFNQflGeUExM5ZBhMelQRpA4kGf3ABCnEbsQV1Gw0Hx\r\nKUJBPLKUQRbEikHp7pdBAlq+QTUzmkFCmr1Bw3e4QdoTsEH6JMJBSjvGQbIKxkETEhhBIpeQQeJb\r\nOUFBgM9AoOQUQGBuEkBx+CZAOcyyP1ETCz/41QI9UUboPSXbyj1DcgA902OmPY4BFT7GHvg+bMPW\r\nPnqDyj5u4+8+xo1dPz7/bD+ED/0+VDsdPjFolD5ZCi8+af7SPDMtnjxosUE9E1hIPZ/3Bz1tdZk9\r\neGXePRNEDj3K4mk8Juu2PELBOD2+oSI8NbO3PHnNzDyQVy89UP/nPbKGqT51diE/23/aPV25VkCq\r\ncZQ/0SFoPxvtBT/iVyZAYgYaPrAAXD5vPXQ/LzutQDqfYD+gB74+1R6qPypZSkFM22xA2hNRQZtR\r\nC0Ha5gJBrBSCQAzp4UCktENBVEtCQRVxIkG4BARBi9ikQLI7tD9oYWc+504hQDHChD9Y3/I/tPrB\r\nPtHND0AEEQtAYK6/P9h4jj9VB7E+eKofP6+OkD7zw2M+YDqlPFoGNj5vbEk+ODXzPtROsz1KFMc+\r\nj4SXPnX/xT16etc9jh5HPlcYzD5mFsU/pPp2QCLeKUFe9H9BjhS2QY/8aEIruJhCGn6sQvuDiEKn\r\nFY9CcBNoQihwXEJKcAdCRVwbQgqf1EEWNdVBfvQJQXWIgkHcC0FB9+MQQabw1kA1awhBVedaQfZ+\r\nlkFfvdpBJg78QfWHCUIwWvZBU4gBQleN9UE9NPBBf1jRQWo1rUHzsWlB+ch9QbXjUEEH03hBypRI\r\nQW7HN0HVlP1ADhqyQKuGZkCMgi1A16OxP7Ma9T8zuv0/kn0cQNAmJUBnvlhAZTcsQC7xDUAxV/A/\r\nVATVP57JsD8PmJ4/fuJePyixND+wM/4+af7dPm6Lwz4IBJE+fk0FPh9AwD0KBHU9AYl9Pbjt/TxB\r\nMBU9oY2XPDvo5ztIEZE7sWx3O5yXnTsKqBQ7moVtO7Om7jpBqPg6xnK2OrtxYzoRf7Q6r2BlOa3j\r\naDp2xw05zZEWOoBY6ThB0iM6Er0DOTP3PTr6Ve44Z1wcOm9tBzkrDtI5zp6YOZT9TDl6ft45G1W0\r\nOGm8nzk8am45CTE4OWZLuzkwe744u78jOcQ4wjmQ9JA56gsWOfvh4jiMaKM4wNLHOPjwsjn59Og5\r\nm3UMOWRXkDhMjEE5pqjsONENAzktE405m6aoOF57hzgPuQg56j6kODC8tzgcGo44GtGrOCLqhzjV\r\ngYw4tP98OHB0fzhgSYE4hw55OI/Ddjj4f3I4pb+AOOT3fTiIf3w4xpq+OFLYSzkwzgw5ueZtODVk\r\nNTlPPss4plglOefGODlKdAc55F9lODXy2zhqKtI4HDrGOGJ3Xjgg4cg4wn0kOVvAEzlATIc5bEB3\r\nOFgzZziun9w4pqijOLKcMzlichQ5CMBkOCS/ZDgMG3Y4UNNoOCP5XjjbF4A4rOdGOM6ZWzhqClA4\r\nXd1LOMipcTjSOVk49stBOMwvVjg6sYE4/NxpOJCHSzjm7Wo4UqM7OGAKRjgaOFc4jPtBOISHSjhU\r\nBjE4qDFXOOR3VTj47E84k8xHOGLKQDg6TGY4GsptOMruPDgYBGM4lpE9OLP7QjgsHks4jgVmOFCj\r\nYDgYQlA48FBBOD1DQTgaWFs4Av4gONW0TDhIUTU4XEM4OFI0dzii3zA45j4hOAQyXDjHWEE4WklB\r\nOGABPTjcwT84LDhbOAKrTTjZ7Cg4tEUsOKAuRzhvTEo4YFgmOGIjJDiGR0s4G4I7ONBtOjgA+UQ4\r\nZg44ODQYPjjITEE4rBMxOGKSQjifWz44KIcyOJx1QzgSY0E4amI0OIRzKzi4Thw4HWEmOMxgHjgk\r\n9CQ4g8UeOBh4KjjaKjE4UCMiOJCRKDiWcz44qho9OKpuLDjBEC04FAE7OOhYKDgKcRQ4sactOJCW\r\nJThGdis46okUOH6SNTgdF1E4PtswOHP/cjjGzoY48qQzOPGZCDg6qh043jU0OJU4LzhuhxU4cYUd\r\nOLgCJTja4TE4Vl5CODE/MTh9VyU4eoEgOBGqJDg+FiA4B8MROGKXFTjARSU4FFgUOGTHEjjejhs4\r\ntfv2Nz9kHDhtjwM4HN0VOE3YOzjtLQg4hLoOOGSXDzgBoCk4Ju72N1JcFDiQJhI4uIMUOOa5DDjH\r\n4Sk4fDcFOF4YDDiqbSg43bkaOD8EDjgGFSk4gq4JONDxDjiiqQE4S54XOJiDDzjMAxI4yI8VOEsa\r\nMjgcvQQ4dvTrN6QRGzieCQs4FvAeOOL6FTg5yQE4UysGOKy6DjjwFQY4PGMIOCgFCDgrwAo4mo8Q\r\nOPJtFDjwHfI3UkwOOJzZ7jcZewk4HKnrNxzEAziPXR045W0DOPd6DjgVKxE4IRf4NwCoDDio7hQ4\r\nJccZOAps/TdSNgA4FaT6N9T7EzgrOhU4vKQLOLVw9DdD4RI4xPcmOLgRCjiYOug3wV4COP5aADj0\r\nawo4yeXXN8pSDTho0QE4QqX+N66CAzgYpfE3n3IDOKKmBThdoQI4RiIHONx17zc00w04zGHvN4pG\r\nDTgDVQc4wOLuNyX1EDiU8OA3KpHTNx713zfQ5gA4G5zjNyEPADjKkOU3hLoMOP/PzDe0UPw3kRXu\r\nN2v8FTgDw/c3cEkTOCLB6jdBBOM3HNPyNyqd5jc1DOk3e+UUOCRVAjgr2wQ4mHj2NzYm7zcx7+k3\r\n0qr/N85M3zdHT9o3f/vmN3OtAzheg/s3LycGOMq47Dfbqd03HowEOLJE5jcZRAA4U5/wN595zjeo\r\nGPg3mGYCOJ3m+zcJRPo3OkzrNwZX9DdE1cE3X1vVN/PC9zcTTus3Pc8DOASUyzcSYPY3cHjuN1g4\r\n9TehNMk3ICfIN1EC6zflzOM3Wdz4N4MOzDe0A/w3hlfzN1gw4De59MM3cnnlNyVQ4DciVug3grrq\r\nN6531jfyHNU3bCzXN8cjxDel3uQ3xqe/NxJc1jfQous3cxj0N52YADixw9I3BAvON3p81jci6O43\r\n8471Nz7x5jfki983TI7KN2bC8Td8H/U37/TfNzrH0Td+aOE3M+3HNyh15zd9CO831UQHODy02Dcy\r\nnMw3jRz7N1L4yDf4i9s32VL2N9tJvjcgVeA3qMD6NyTJAzhHjNg356/XN1Uc2Dfm4Ls3dGPRN3df\r\nxDdiP+A3GRzhN0jNwjdqEbI3iXzYN8gi+TdWK703lvnIN/ou3Tfznfg3ILe7N5LR0jeubcI3GoPY\r\nN2bCxTe7g8s3zWLGN4yszTfZ3cs3hODbN4/LwTeIcMY32re9NxtP5jdDw8c3B/vKN74RxTfJ+O03\r\nejTuNxjy3TcJzqc34lPtN0G5tzfm49w3x9EKOLT6xDfwGcA38lUCOEFduzdyBs030GWxN5wQqjdh\r\n4tU3/t3QNxZeyDdEldE3zZfFN+Zs1zc7tck3FRXnNzqL7zcjAeM3NeHRN7Y9mDddvas3qpbCN6A+\r\n6Tee5M83EHO8NxhLxjdPzNQ3rRPQN9VXzTfpXcA3Q/HAN+VtvDdKqcU3FE+1N65Ynzdmx9s3gliP\r\nN0J9AjhO6qk34iPHN/aN6Df3zc03IgShN/KUwjexd8I3qO+qNzHOmjfKDrA3EOfTN1DJ4Ddn07Q3\r\nZDi6N859rjcooZA3tnSxNzyvuTc3v9E3FXeYN9ICljcC0LY3sY/rNwRUxDfl/6U3TImGNyh3pjer\r\nIds3TovQN2tLoTctxMo3j1TAN5k6mTerysI33TemNwcGqTcK/OM3Z7zvN5ht7zeF8K43puqYN7ru\r\nrDfp16w3synKNzkYmDeWRt43ea7DN0oeuzcxbbU3Bn6wNyUr8Dc2Nao3Rwe2N4yvsTeHS8s3ZHTQ\r\nNzvD3zebMMY3EqXAN9ZutzdF2so3yUveN7DP5jfenJw3ouzTNzhlyzdFU6I3WviPNzkXkjePmtA3\r\n7Mu1N7dDvDfU6Lo3DDqtN6CTnDcrkso31wq9NzVUszfoarE3E0rLN4o7xzcChaw3UrmwN2GntzfH\r\n2Kk3j3uiN4yltDf2Kqo3bvHaN1MmuTedz7c3QEKmN0JjsjemVMg3NS64N1C34Tf58LE33ouaN55s\r\nqDeI3MA3OafkN+U+0DdvQr83zX2uN3cVxDfXero3GzG/N7z7yDd7YcE3TwDDNyC0zjd6oKk3U+C4\r\nN+g00Te0C8Y3MvKlN5ZE4DfgO6E3BGe5N95VjjdBOaI3V6vANzRApzezHr0379usN6WXzTeV75E3\r\niCKXN8ixxDfZL8U3vRqmN03qxTfs1rY3+hilN9Q72zdG0q83ZsC8N8OOwDfco6s32TXKN050qTeG\r\nNc43FrqXNwzl0TeQ2bE3coO4N2senzcE4NE3N1ijN2LuqDfA+q03baPQN7G/qTdyFLI3D1W0NxLW\r\nojczhKs3JKq4N3sHrzfFKLo3PEixNwOmsjfqZbI3MrnRNwaKjDeOAaw3XYu8NwBM0TdKBLg3ya2U\r\nN5h6yzd6SLw3mqSdN23dkjdcLrE33KCnN5HX3jc7usk3GVO9NyO3rTdpebc3TBfQNwAIwzd5JoY+\r\n90P8Pnae5T4zvWc/vnDNQNaU6kHezlxAkNGtP/y5CkAzZq5ASLbaPvgBgD9+oI4/eo3ZQCNrI0BH\r\nAvs+rSlWPpLYGz+nJZw+TWRqPoU3sj4uqb8++yWfPjkZdj+AeFA/T/oOP6oPjz4tdlY/JapPPwrC\r\nQkA36DtBrf2WQDjEVUEmN4hBjnx3QURRmUDTs9VBzaGGQFne90AzqqVAQjhxP+hjeT++os4/RAgW\r\nP6PYZD/UYGE/2DmHP+rZnj8O2CxAK1NEP1NUGz/uIs8/lEeEP6yDWT+LwI8/tzZbP/jE0D6HmBo/\r\ngkTNPo/oEz/mPQ8/ufrwPvKypD/HKSNAIRtkQEuyST8mZQY/urKxPwd3PD8yDopABfhuPxCXPz/m\r\nGXE+5VkGPy1B5j8xdv8+nFCCPtjkLj+wFPs+Oj1nPnf3nz4ulrw9ySvVPa+bHT6yjTg+OIFVP4D6\r\nYj7Ro5k9goipPdA00j1Y5lo9ZVgJPtNetz7dbpA+fupaPkExJz4KRic9on4rPVJjLD5QD1s+XRQ2\r\nPaY5kT24uP08KPVRPaPhKD0wTbc9pARBPhHLBD5lY6g9K/niPFUf1j2TrQw9wo8zPXGgiD0wQOc9\r\nDJqKPsW+iz4vOxc/RujcPlIS9z5CxjU//EHTPFKUTT0/FZs+wVahPh9fuz7E02U/J4WrP8W+tT9m\r\nABE+lD8CPxuJDz77sUE8hTeuPrPGRj/M/Mg+3r0AQIqR1z6BT089Ay1dPUlwST3zxpg9ctqxPqji\r\nND93bCw/1qEbP23mwT+GZYs/GRqtP2k+bD9JXf09uiJWPjopij3m7708FfwWPvKz8j2Q7xM/LW8I\r\nP21rOj9U3QY/j4+MPleHBj1/E+A+GdPPPgpH6D4I0EA+7nOdPptQ8D2jg8U+JuECP6zX0z4BLPY+\r\n1k59P3Qj2D+flIdAOuG7QHm1PEF9wU1B+UZ5QTEzlkGEx6VBGkDiQZ/cAEKcRuxBXUbDQfEpQkE8\r\nspRBFsSKQenul0ECWr5BNTOaQUKavUHDd7hB2hOwQfokwkFKO8ZBsgrGQRMSGEEil5BB4ls5QUGA\r\nz0Cg5BRAYG4SQHH4JkA5zLI/URMLP/jVAj1RRug9JdvKPUNyAD3TY6Y9jgEVPsYe+D5sw9Y+eoPK\r\nPm7j7z7GjV0/Pv9sP4QP/T5UOx0+MWiUPlkKLz5p/tI8My2ePGixQT0TWEg9n/cHPW11mT14Zd49\r\nE0QOPcriaTwm67Y8QsE4Pb6hIjw1s7c8ec3MPJBXLz1Q/+c9soapPnV2IT/bf9o9XblWQKpxlD/R\r\nIWg/G+0FP+JXJkBiBho+sABcPm89dD8vO61AOp9gP6AHvj7VHqo/KllKQUzbbEDaE1FBm1ELQdrm\r\nAkGsFIJADOnhQKS0Q0FUS0JBFXEiQbgEBEGL2KRAsju0P2hhZz7nTiFAMcKEP1jf8j+0+sE+0c0P\r\nQAQRC0Bgrr8/2HiOP1UHsT54qh8/r46QPvPDYz4gBqU8WgY2Pm9sST44NfM+1E6zPUoUxz6PhJc+\r\ndf/FPXp61z2OHkc+VxjMPmYWxT+k+nZAIt4pQV70f0GOFLZBj/xoQiu4mEIafqxC+4OIQqcVj0Jw\r\nE2hCKHBcQkpwB0JFXBtCCp/UQRY11UF+9AlBdYiCQdwLQUH34xBBpvDWQDVrCEFV51pB9n6WQV+9\r\n2kEmDvxB9YcJQjBa9kFTiAFCV431QT008EF/WNFBajWtQfOxaUH5yH1BteNQQQfTeEHKlEhBbsc3\r\nQdWU/UAOGrJAq4ZmQIyCLUDXo7E/sxr1PzO6/T+SfRxA0CYlQGe+WEBlNyxALvENQDFX8D9UBNU/\r\nnsmwPw+Ynj9+4l4/KLE0P7Az/j5p/t0+bovDPggEkT5+TQU+H0DAPQoEdT0BiX09uO39PEEwFT2h\r\njZc8O+jnO0gRkTuxbHc7nJedOwqoFDuahW07s6buOkGo+DrGcrY6u3FjOhF/tDqvYGU5reNoOnbH\r\nDTnNkRY6gFjpOEHSIzoSvQM5M/c9OvpV7jhnXBw6b20HOSsO0jnOnpg5lP1MOXp+3jkbVbQ4abyf\r\nOTxqbjkJMTg5Zku7OTB7vji7vyM5xDjCOZD0kDnqCxY5++HiOIxoozjA0sc4+PCyOfn06DmbdQw5\r\nZFeQOEyMQTmmqOw40Q0DOS0TjTmbpqg4XnuHOA+5CDnqPqQ4MLy3OBwajjga0as4IuqHONWBjDi0\r\n/3w4cHR/OGBJgTiHDnk4j8N2OPh/cjilv4A45Pd9OIh/fDjGmr44UthLOTDODDm55m04NWQ1OU8+\r\nyzimWCU558Y4OUp0BznkX2U4NfLbOGoq0jgcOsY4YndeOCDhyDjCfSQ5W8ATOUBMhzlsQHc4WDNn\r\nOK6f3DimqKM4spwzOWJyFDkIwGQ4JL9kOAwbdjhQ02g4I/leONsXgDis50Y4zplbOGoKUDhd3Us4\r\nyKlxONI5WTj2y0E4zC9WODqxgTj83Gk4kIdLOObtajhSozs4YApGOBo4VziM+0E4hIdKOFQGMTio\r\nMVc45HdVOPjsTziTzEc4YspAODpMZjgaym04yu48OBgEYziWkT04s/tCOCweSziOBWY4UKNgOBhC\r\nUDjwUEE4PUNBOBpYWzgC/iA41bRMOEhRNThcQzg4UjR3OKLfMDjmPiE4BDJcOMdYQThaSUE4YAE9\r\nONzBPzgsOFs4AqtNONnsKDi0RSw4oC5HOG9MSjhgWCY4YiMkOIZHSzgbgjs40G06OAD5RDhmDjg4\r\nNBg+OMhMQTisEzE4YpJCOJ9bPjgohzI4nHVDOBJjQThqYjQ4hHMrOLhOHDgdYSY4zGAeOCT0JDiD\r\nxR44GHgqONoqMThQIyI4kJEoOJZzPjiqGj04qm4sOMEQLTgUATs46FgoOApxFDixpy04kJYlOEZ2\r\nKzjqiRQ4fpI1OB0XUTg+2zA4c/9yOMbOhjjypDM48ZkIODqqHTjeNTQ4lTgvOG6HFThxhR04uAIl\r\nONrhMThWXkI4MT8xOH1XJTh6gSA4EaokOD4WIDgHwxE4YpcVOMBFJTgUWBQ4ZMcSON6OGzi1+/Y3\r\nP2QcOG2PAzgc3RU4Tdg7OO0tCDiEug44ZJcPOAGgKTgm7vY3UlwUOJAmEji4gxQ45rkMOMfhKTh8\r\nNwU4XhgMOKptKDjduRo4PwQOOAYVKTiCrgk40PEOOKKpAThLnhc4mIMPOMwDEjjIjxU4SxoyOBy9\r\nBDh29Os3pBEbOJ4JCzgW8B444voVODnJAThTKwY4rLoOOPAVBjg8Ywg4KAUIOCvACjiajxA48m0U\r\nOPAd8jdSTA44nNnuNxl7CTgcqes3HMQDOI9dHTjlbQM493oOOBUrETghF/g3AKgMOKjuFDglxxk4\r\nCmz9N1I2ADgVpPo31PsTOCs6FTi8pAs4tXD0N0PhEjjE9yY4uBEKOJg66DfBXgI4/loAOPRrCjjJ\r\n5dc3ylINOGjRAThCpf43roIDOBil8TefcgM4oqYFOF2hAjhGIgc43HXvNzTTDTjMYe83ikYNOANV\r\nBzjA4u43JfUQOJTw4DcqkdM3HvXfN9DmADgbnOM3IQ8AOMqQ5TeEugw4/8/MN7RQ/DeRFe43a/wV\r\nOAPD9zdwSRM4IsHqN0EE4zcc0/I3Kp3mNzUM6Td75RQ4JFUCOCvbBDiYePY3NibvNzHv6TfSqv83\r\nzkzfN0dP2jd/++Y3c60DOF6D+zcvJwY4yrjsN9up3TcejAQ4skTmNxlEADhTn/A3n3nON6gY+DeY\r\nZgI4neb7NwlE+jc6TOs3Blf0N0TVwTdfW9U388L3NxNO6zc9zwM4BJTLNxJg9jdweO43WDj1N6E0\r\nyTcgJ8g3UQLrN+XM4zdZ3Pg3gw7MN7QD/DeGV/M3WDDgN7n0wzdyeeU3JVDgNyJW6DeCuuo3rnfW\r\nN/Ic1TdsLNc3xyPEN6Xe5DfGp783ElzWN9Ci6zdzGPQ3nZgAOLHD0jcEC843enzWNyLo7jfzjvU3\r\nPvHmN+SL3zdMjso3ZsLxN3wf9Tfv9N83OsfRN35o4Tcz7cc3KHXnN30I7zfVRAc4PLTYNzKczDeN\r\nHPs3UvjIN/iL2zfZUvY320m+NyBV4DeowPo3JMkDOEeM2Dfnr9c3VRzYN+bguzd0Y9E3d1/EN2I/\r\n4DcZHOE3SM3CN2oRsjeJfNg3yCL5N1YrvTeW+cg3+i7dN/Od+Dcgt7s3ktHSN65twjcag9g3ZsLF\r\nN7uDyzfNYsY3jKzNN9ndyzeE4Ns3j8vBN4hwxjfat703G0/mN0PDxzcH+8o3vhHFN8n47Td6NO43\r\nGPLdNwnOpzfiU+03Qbm3N+bj3DfH0Qo4tPrEN/AZwDfyVQI4QV27N3IGzTfQZbE3nBCqN2Hi1Tf+\r\n3dA3Fl7IN0SV0TfNl8U35mzXNzu1yTcVFec3OovvNyMB4zc14dE3tj2YN129qzeqlsI3oD7pN57k\r\nzzcQc7w3GEvGN0/M1DetE9A31VfNN+ldwDdD8cA35W28N0qpxTcUT7U3rlifN2bH2zeCWI83Qn0C\r\nOE7qqTfiI8c39o3oN/fNzTciBKE38pTCN7F3wjeo76o3Mc6aN8oOsDcQ59M3UMngN2fTtDdkOLo3\r\nzn2uNyihkDe2dLE3PK+5Nze/0TcVd5g30gKWNwLQtjexj+s3BFTEN+X/pTdMiYY3KHemN6sh2zdO\r\ni9A3a0uhNy3EyjePVMA3mTqZN6vKwjfdN6Y3BwapNwr84zdnvO83mG3vN4Xwrjem6pg3uu6sN+nX\r\nrDezKco3ORiYN5ZG3jd5rsM3Sh67NzFttTcGfrA3JSvwNzY1qjdHB7Y3jK+xN4dLyzdkdNA3O8Pf\r\nN5swxjcSpcA31m63N0XayjfJS943sM/mN96cnDei7NM3OGXLN0VTojda+I83OReSN4+a0Dfsy7U3\r\nt0O8N9ToujcMOq03oJOcNyuSyjfXCr03NVSzN+hqsTcTSss3ijvHNwKFrDdSubA3Yae3N8fYqTeP\r\ne6I3jKW0N/Yqqjdu8do3Uya5N53PtzdAQqY3QmOyN6ZUyDc1Lrg3ULfhN/nwsTfei5o3nmyoN4jc\r\nwDc5p+Q35T7QN29CvzfNfa43dxXEN9d6ujcbMb83vPvIN3thwTdPAMM3ILTON3qgqTdT4Lg36DTR\r\nN7QLxjcy8qU3lkTgN+A7oTcEZ7k33lWON0E5ojdXq8A3NECnN7MevTfv26w3pZfNN5XvkTeIIpc3\r\nyLHEN9kvxTe9GqY3TerFN+zWtjf6GKU31DvbN0bSrzdmwLw3w47AN9yjqzfZNco3TnSpN4Y1zjcW\r\nupc3DOXRN5DZsTdyg7g3ax6fNwTg0Tc3WKM3Yu6oN8D6rTdto9A3sb+pN3IUsjcPVbQ3EtaiNzOE\r\nqzckqrg3ewevN8Uoujc8SLE3A6ayN+plsjcyudE3BoqMN44BrDddi7w3AEzRN0oEuDfJrZQ3mHrL\r\nN3pIvDeapJ03bd2SN1wusTfcoKc3kdfeNzu6yTcZU703I7etN2l5tzdMF9A3AAjDNw==",
                            "noiseTrainingType" : "default"
                          }
                        }
                    ],
                    "start" : 7411,
                    "duration" : 40,
                    "mediaStart" : 4386,
                    "mediaDuration" : 40,
                    "scalar" : 1,
                    "metadata" : {
                      "WinSubProjectDisplayName" : "",
                      "clipSpeedAttribute" : false
                    },
                    "animationTracks" : {

                    }
                  },
                  {
                    "id" : 139,
                    "_type" : "AMFile",
                    "src" : 3,
                    "trackNumber" : 1,
                    "attributes" : {
                      "ident" : "tower-columns-03",
                      "sampleRate" : 44100,
                      "bitDepth" : 16,
                      "gain" : 1.0,
                      "mixToMono" : false
                    },
                      "channelNumber" : "0,1",
                    "effects" : [
                        {
                          "effectName" : "NoiseReduction",
                          "category" : "categoryAudioEffects",
                          "parameters" : {
                            "denoiserAmount" : 20.0,
                            "denoiserThreshold" : 0.0,
                            "noiseProfile" : "eSaGPvdD/D52nuU+M71nP75wzUDWlOpB3s5cQJDRrT/8uQpAM2auQEi22j74AYA/fqCOP3qN2UAj\r\nayNARwL7Pq0pVj6v3Rs/pyWcPk1kaj6FN7I+Lqm/Pvslnz45GXY/gHhQP0/6Dj+qD48+LXZWPyWq\r\nTz8KwkJAeug7Qa39lkA4xFVBJjeIQY58d0FEUZlA7LXVQc2hhkBZ3vdAWbGlQPg8cT/oY3k/hJjO\r\nP3/sFT+j2GQ/1GBhP9g5hz/q2Z4/DtgsQCtTRD9TVBs/7iLPP5RHhD+sg1k/i8CPP7c2Wz/4xNA+\r\nh5gaP4JEzT6P6BM/5j0PP7n68D7ysqQ/xykjQCEbZECIn0k/JmUGP7qysT8Hdzw/rg2KQAgObz8Q\r\nlz8/5hlxPuVZBj8tQeY/MXb/PpxQgj7u8y4/rxj7Pjo9Zz53958+Lpa8Pckr1T2vmx0+so04PjiB\r\nVT+A+mI+0aOZPYKIqT3QNNI9WOZaPWVYCT7TXrc+pnOQPhQOWz5BMSc+CkYnPaJ+Kz1SYyw+UA9b\r\nPl0UNj2mOZE9uLj9PPoBUj2j4Sg9ME23PaQEQT4RywQ+ZWOoPSv54jxVH9Y9k60MPTV1Mz1xoIg9\r\nvqfnPQyaij7Fvos+LzsXP0bo3D5SEvc+QsY1P/xB0zxSlE09PxWbPsFWoT4fX7s+xNNlPyeFqz/F\r\nvrU/ZgARPpQ/Aj8biQ8++7FBPIU3rj6zxkY/zPzIPt69AECKkdc+gU9PPQMtXT1JcEk988aYPXLa\r\nsT6o4jQ/d2wsP9ahGz9t5sE/hmWLPxkarT9pPmw/SV39PboiVj46KYo95u+9PBX8Fj7ys/I9kO8T\r\nPy1vCD9tazo/VN0GP4+PjD5XhwY9fxPgPhnTzz4KR+g+CNBAPu5znT6bUPA9o4PFPibhAj+s19M+\r\nASz2PtZOfT90I9g/n5SHQDrhu0B5tTxBfcFNQflGeUExM5ZBhMelQRpA4kGf3ABCnEbsQV1Gw0Hx\r\nKUJBPLKUQRbEikHp7pdBAlq+QTUzmkFCmr1Bw3e4QdoTsEH6JMJBSjvGQbIKxkETEhhBIpeQQeJb\r\nOUFBgM9AoOQUQGBuEkBx+CZAOcyyP1ETCz/41QI9UUboPSXbyj1DcgA902OmPY4BFT7GHvg+bMPW\r\nPnqDyj5u4+8+xo1dPz7/bD+ED/0+VDsdPjFolD5ZCi8+af7SPDMtnjxosUE9E1hIPZ/3Bz1tdZk9\r\neGXePRNEDj3K4mk8Juu2PELBOD2+oSI8NbO3PHnNzDyQVy89UP/nPbKGqT51diE/23/aPV25VkCq\r\ncZQ/0SFoPxvtBT/iVyZAYgYaPrAAXD5vPXQ/LzutQDqfYD+gB74+1R6qPypZSkFM22xA2hNRQZtR\r\nC0Ha5gJBrBSCQAzp4UCktENBVEtCQRVxIkG4BARBi9ikQLI7tD9oYWc+504hQDHChD9Y3/I/tPrB\r\nPtHND0AEEQtAYK6/P9h4jj9VB7E+eKofP6+OkD7zw2M+YDqlPFoGNj5vbEk+ODXzPtROsz1KFMc+\r\nj4SXPnX/xT16etc9jh5HPlcYzD5mFsU/pPp2QCLeKUFe9H9BjhS2QY/8aEIruJhCGn6sQvuDiEKn\r\nFY9CcBNoQihwXEJKcAdCRVwbQgqf1EEWNdVBfvQJQXWIgkHcC0FB9+MQQabw1kA1awhBVedaQfZ+\r\nlkFfvdpBJg78QfWHCUIwWvZBU4gBQleN9UE9NPBBf1jRQWo1rUHzsWlB+ch9QbXjUEEH03hBypRI\r\nQW7HN0HVlP1ADhqyQKuGZkCMgi1A16OxP7Ma9T8zuv0/kn0cQNAmJUBnvlhAZTcsQC7xDUAxV/A/\r\nVATVP57JsD8PmJ4/fuJePyixND+wM/4+af7dPm6Lwz4IBJE+fk0FPh9AwD0KBHU9AYl9Pbjt/TxB\r\nMBU9oY2XPDvo5ztIEZE7sWx3O5yXnTsKqBQ7moVtO7Om7jpBqPg6xnK2OrtxYzoRf7Q6r2BlOa3j\r\naDp2xw05zZEWOoBY6ThB0iM6Er0DOTP3PTr6Ve44Z1wcOm9tBzkrDtI5zp6YOZT9TDl6ft45G1W0\r\nOGm8nzk8am45CTE4OWZLuzkwe744u78jOcQ4wjmQ9JA56gsWOfvh4jiMaKM4wNLHOPjwsjn59Og5\r\nm3UMOWRXkDhMjEE5pqjsONENAzktE405m6aoOF57hzgPuQg56j6kODC8tzgcGo44GtGrOCLqhzjV\r\ngYw4tP98OHB0fzhgSYE4hw55OI/Ddjj4f3I4pb+AOOT3fTiIf3w4xpq+OFLYSzkwzgw5ueZtODVk\r\nNTlPPss4plglOefGODlKdAc55F9lODXy2zhqKtI4HDrGOGJ3Xjgg4cg4wn0kOVvAEzlATIc5bEB3\r\nOFgzZziun9w4pqijOLKcMzlichQ5CMBkOCS/ZDgMG3Y4UNNoOCP5XjjbF4A4rOdGOM6ZWzhqClA4\r\nXd1LOMipcTjSOVk49stBOMwvVjg6sYE4/NxpOJCHSzjm7Wo4UqM7OGAKRjgaOFc4jPtBOISHSjhU\r\nBjE4qDFXOOR3VTj47E84k8xHOGLKQDg6TGY4GsptOMruPDgYBGM4lpE9OLP7QjgsHks4jgVmOFCj\r\nYDgYQlA48FBBOD1DQTgaWFs4Av4gONW0TDhIUTU4XEM4OFI0dzii3zA45j4hOAQyXDjHWEE4WklB\r\nOGABPTjcwT84LDhbOAKrTTjZ7Cg4tEUsOKAuRzhvTEo4YFgmOGIjJDiGR0s4G4I7ONBtOjgA+UQ4\r\nZg44ODQYPjjITEE4rBMxOGKSQjifWz44KIcyOJx1QzgSY0E4amI0OIRzKzi4Thw4HWEmOMxgHjgk\r\n9CQ4g8UeOBh4KjjaKjE4UCMiOJCRKDiWcz44qho9OKpuLDjBEC04FAE7OOhYKDgKcRQ4sactOJCW\r\nJThGdis46okUOH6SNTgdF1E4PtswOHP/cjjGzoY48qQzOPGZCDg6qh043jU0OJU4LzhuhxU4cYUd\r\nOLgCJTja4TE4Vl5CODE/MTh9VyU4eoEgOBGqJDg+FiA4B8MROGKXFTjARSU4FFgUOGTHEjjejhs4\r\ntfv2Nz9kHDhtjwM4HN0VOE3YOzjtLQg4hLoOOGSXDzgBoCk4Ju72N1JcFDiQJhI4uIMUOOa5DDjH\r\n4Sk4fDcFOF4YDDiqbSg43bkaOD8EDjgGFSk4gq4JONDxDjiiqQE4S54XOJiDDzjMAxI4yI8VOEsa\r\nMjgcvQQ4dvTrN6QRGzieCQs4FvAeOOL6FTg5yQE4UysGOKy6DjjwFQY4PGMIOCgFCDgrwAo4mo8Q\r\nOPJtFDjwHfI3UkwOOJzZ7jcZewk4HKnrNxzEAziPXR045W0DOPd6DjgVKxE4IRf4NwCoDDio7hQ4\r\nJccZOAps/TdSNgA4FaT6N9T7EzgrOhU4vKQLOLVw9DdD4RI4xPcmOLgRCjiYOug3wV4COP5aADj0\r\nawo4yeXXN8pSDTho0QE4QqX+N66CAzgYpfE3n3IDOKKmBThdoQI4RiIHONx17zc00w04zGHvN4pG\r\nDTgDVQc4wOLuNyX1EDiU8OA3KpHTNx713zfQ5gA4G5zjNyEPADjKkOU3hLoMOP/PzDe0UPw3kRXu\r\nN2v8FTgDw/c3cEkTOCLB6jdBBOM3HNPyNyqd5jc1DOk3e+UUOCRVAjgr2wQ4mHj2NzYm7zcx7+k3\r\n0qr/N85M3zdHT9o3f/vmN3OtAzheg/s3LycGOMq47Dfbqd03HowEOLJE5jcZRAA4U5/wN595zjeo\r\nGPg3mGYCOJ3m+zcJRPo3OkzrNwZX9DdE1cE3X1vVN/PC9zcTTus3Pc8DOASUyzcSYPY3cHjuN1g4\r\n9TehNMk3ICfIN1EC6zflzOM3Wdz4N4MOzDe0A/w3hlfzN1gw4De59MM3cnnlNyVQ4DciVug3grrq\r\nN6531jfyHNU3bCzXN8cjxDel3uQ3xqe/NxJc1jfQous3cxj0N52YADixw9I3BAvON3p81jci6O43\r\n8471Nz7x5jfki983TI7KN2bC8Td8H/U37/TfNzrH0Td+aOE3M+3HNyh15zd9CO831UQHODy02Dcy\r\nnMw3jRz7N1L4yDf4i9s32VL2N9tJvjcgVeA3qMD6NyTJAzhHjNg356/XN1Uc2Dfm4Ls3dGPRN3df\r\nxDdiP+A3GRzhN0jNwjdqEbI3iXzYN8gi+TdWK703lvnIN/ou3Tfznfg3ILe7N5LR0jeubcI3GoPY\r\nN2bCxTe7g8s3zWLGN4yszTfZ3cs3hODbN4/LwTeIcMY32re9NxtP5jdDw8c3B/vKN74RxTfJ+O03\r\nejTuNxjy3TcJzqc34lPtN0G5tzfm49w3x9EKOLT6xDfwGcA38lUCOEFduzdyBs030GWxN5wQqjdh\r\n4tU3/t3QNxZeyDdEldE3zZfFN+Zs1zc7tck3FRXnNzqL7zcjAeM3NeHRN7Y9mDddvas3qpbCN6A+\r\n6Tee5M83EHO8NxhLxjdPzNQ3rRPQN9VXzTfpXcA3Q/HAN+VtvDdKqcU3FE+1N65Ynzdmx9s3gliP\r\nN0J9AjhO6qk34iPHN/aN6Df3zc03IgShN/KUwjexd8I3qO+qNzHOmjfKDrA3EOfTN1DJ4Ddn07Q3\r\nZDi6N859rjcooZA3tnSxNzyvuTc3v9E3FXeYN9ICljcC0LY3sY/rNwRUxDfl/6U3TImGNyh3pjer\r\nIds3TovQN2tLoTctxMo3j1TAN5k6mTerysI33TemNwcGqTcK/OM3Z7zvN5ht7zeF8K43puqYN7ru\r\nrDfp16w3synKNzkYmDeWRt43ea7DN0oeuzcxbbU3Bn6wNyUr8Dc2Nao3Rwe2N4yvsTeHS8s3ZHTQ\r\nNzvD3zebMMY3EqXAN9ZutzdF2so3yUveN7DP5jfenJw3ouzTNzhlyzdFU6I3WviPNzkXkjePmtA3\r\n7Mu1N7dDvDfU6Lo3DDqtN6CTnDcrkso31wq9NzVUszfoarE3E0rLN4o7xzcChaw3UrmwN2GntzfH\r\n2Kk3j3uiN4yltDf2Kqo3bvHaN1MmuTedz7c3QEKmN0JjsjemVMg3NS64N1C34Tf58LE33ouaN55s\r\nqDeI3MA3OafkN+U+0DdvQr83zX2uN3cVxDfXero3GzG/N7z7yDd7YcE3TwDDNyC0zjd6oKk3U+C4\r\nN+g00Te0C8Y3MvKlN5ZE4DfgO6E3BGe5N95VjjdBOaI3V6vANzRApzezHr0379usN6WXzTeV75E3\r\niCKXN8ixxDfZL8U3vRqmN03qxTfs1rY3+hilN9Q72zdG0q83ZsC8N8OOwDfco6s32TXKN050qTeG\r\nNc43FrqXNwzl0TeQ2bE3coO4N2senzcE4NE3N1ijN2LuqDfA+q03baPQN7G/qTdyFLI3D1W0NxLW\r\nojczhKs3JKq4N3sHrzfFKLo3PEixNwOmsjfqZbI3MrnRNwaKjDeOAaw3XYu8NwBM0TdKBLg3ya2U\r\nN5h6yzd6SLw3mqSdN23dkjdcLrE33KCnN5HX3jc7usk3GVO9NyO3rTdpebc3TBfQNwAIwzd5JoY+\r\n90P8Pnae5T4zvWc/vnDNQNaU6kHezlxAkNGtP/y5CkAzZq5ASLbaPvgBgD9+oI4/eo3ZQCNrI0BH\r\nAvs+rSlWPpLYGz+nJZw+TWRqPoU3sj4uqb8++yWfPjkZdj+AeFA/T/oOP6oPjz4tdlY/JapPPwrC\r\nQkA36DtBrf2WQDjEVUEmN4hBjnx3QURRmUDTs9VBzaGGQFne90AzqqVAQjhxP+hjeT++os4/RAgW\r\nP6PYZD/UYGE/2DmHP+rZnj8O2CxAK1NEP1NUGz/uIs8/lEeEP6yDWT+LwI8/tzZbP/jE0D6HmBo/\r\ngkTNPo/oEz/mPQ8/ufrwPvKypD/HKSNAIRtkQEuyST8mZQY/urKxPwd3PD8yDopABfhuPxCXPz/m\r\nGXE+5VkGPy1B5j8xdv8+nFCCPtjkLj+wFPs+Oj1nPnf3nz4ulrw9ySvVPa+bHT6yjTg+OIFVP4D6\r\nYj7Ro5k9goipPdA00j1Y5lo9ZVgJPtNetz7dbpA+fupaPkExJz4KRic9on4rPVJjLD5QD1s+XRQ2\r\nPaY5kT24uP08KPVRPaPhKD0wTbc9pARBPhHLBD5lY6g9K/niPFUf1j2TrQw9wo8zPXGgiD0wQOc9\r\nDJqKPsW+iz4vOxc/RujcPlIS9z5CxjU//EHTPFKUTT0/FZs+wVahPh9fuz7E02U/J4WrP8W+tT9m\r\nABE+lD8CPxuJDz77sUE8hTeuPrPGRj/M/Mg+3r0AQIqR1z6BT089Ay1dPUlwST3zxpg9ctqxPqji\r\nND93bCw/1qEbP23mwT+GZYs/GRqtP2k+bD9JXf09uiJWPjopij3m7708FfwWPvKz8j2Q7xM/LW8I\r\nP21rOj9U3QY/j4+MPleHBj1/E+A+GdPPPgpH6D4I0EA+7nOdPptQ8D2jg8U+JuECP6zX0z4BLPY+\r\n1k59P3Qj2D+flIdAOuG7QHm1PEF9wU1B+UZ5QTEzlkGEx6VBGkDiQZ/cAEKcRuxBXUbDQfEpQkE8\r\nspRBFsSKQenul0ECWr5BNTOaQUKavUHDd7hB2hOwQfokwkFKO8ZBsgrGQRMSGEEil5BB4ls5QUGA\r\nz0Cg5BRAYG4SQHH4JkA5zLI/URMLP/jVAj1RRug9JdvKPUNyAD3TY6Y9jgEVPsYe+D5sw9Y+eoPK\r\nPm7j7z7GjV0/Pv9sP4QP/T5UOx0+MWiUPlkKLz5p/tI8My2ePGixQT0TWEg9n/cHPW11mT14Zd49\r\nE0QOPcriaTwm67Y8QsE4Pb6hIjw1s7c8ec3MPJBXLz1Q/+c9soapPnV2IT/bf9o9XblWQKpxlD/R\r\nIWg/G+0FP+JXJkBiBho+sABcPm89dD8vO61AOp9gP6AHvj7VHqo/KllKQUzbbEDaE1FBm1ELQdrm\r\nAkGsFIJADOnhQKS0Q0FUS0JBFXEiQbgEBEGL2KRAsju0P2hhZz7nTiFAMcKEP1jf8j+0+sE+0c0P\r\nQAQRC0Bgrr8/2HiOP1UHsT54qh8/r46QPvPDYz4gBqU8WgY2Pm9sST44NfM+1E6zPUoUxz6PhJc+\r\ndf/FPXp61z2OHkc+VxjMPmYWxT+k+nZAIt4pQV70f0GOFLZBj/xoQiu4mEIafqxC+4OIQqcVj0Jw\r\nE2hCKHBcQkpwB0JFXBtCCp/UQRY11UF+9AlBdYiCQdwLQUH34xBBpvDWQDVrCEFV51pB9n6WQV+9\r\n2kEmDvxB9YcJQjBa9kFTiAFCV431QT008EF/WNFBajWtQfOxaUH5yH1BteNQQQfTeEHKlEhBbsc3\r\nQdWU/UAOGrJAq4ZmQIyCLUDXo7E/sxr1PzO6/T+SfRxA0CYlQGe+WEBlNyxALvENQDFX8D9UBNU/\r\nnsmwPw+Ynj9+4l4/KLE0P7Az/j5p/t0+bovDPggEkT5+TQU+H0DAPQoEdT0BiX09uO39PEEwFT2h\r\njZc8O+jnO0gRkTuxbHc7nJedOwqoFDuahW07s6buOkGo+DrGcrY6u3FjOhF/tDqvYGU5reNoOnbH\r\nDTnNkRY6gFjpOEHSIzoSvQM5M/c9OvpV7jhnXBw6b20HOSsO0jnOnpg5lP1MOXp+3jkbVbQ4abyf\r\nOTxqbjkJMTg5Zku7OTB7vji7vyM5xDjCOZD0kDnqCxY5++HiOIxoozjA0sc4+PCyOfn06DmbdQw5\r\nZFeQOEyMQTmmqOw40Q0DOS0TjTmbpqg4XnuHOA+5CDnqPqQ4MLy3OBwajjga0as4IuqHONWBjDi0\r\n/3w4cHR/OGBJgTiHDnk4j8N2OPh/cjilv4A45Pd9OIh/fDjGmr44UthLOTDODDm55m04NWQ1OU8+\r\nyzimWCU558Y4OUp0BznkX2U4NfLbOGoq0jgcOsY4YndeOCDhyDjCfSQ5W8ATOUBMhzlsQHc4WDNn\r\nOK6f3DimqKM4spwzOWJyFDkIwGQ4JL9kOAwbdjhQ02g4I/leONsXgDis50Y4zplbOGoKUDhd3Us4\r\nyKlxONI5WTj2y0E4zC9WODqxgTj83Gk4kIdLOObtajhSozs4YApGOBo4VziM+0E4hIdKOFQGMTio\r\nMVc45HdVOPjsTziTzEc4YspAODpMZjgaym04yu48OBgEYziWkT04s/tCOCweSziOBWY4UKNgOBhC\r\nUDjwUEE4PUNBOBpYWzgC/iA41bRMOEhRNThcQzg4UjR3OKLfMDjmPiE4BDJcOMdYQThaSUE4YAE9\r\nONzBPzgsOFs4AqtNONnsKDi0RSw4oC5HOG9MSjhgWCY4YiMkOIZHSzgbgjs40G06OAD5RDhmDjg4\r\nNBg+OMhMQTisEzE4YpJCOJ9bPjgohzI4nHVDOBJjQThqYjQ4hHMrOLhOHDgdYSY4zGAeOCT0JDiD\r\nxR44GHgqONoqMThQIyI4kJEoOJZzPjiqGj04qm4sOMEQLTgUATs46FgoOApxFDixpy04kJYlOEZ2\r\nKzjqiRQ4fpI1OB0XUTg+2zA4c/9yOMbOhjjypDM48ZkIODqqHTjeNTQ4lTgvOG6HFThxhR04uAIl\r\nONrhMThWXkI4MT8xOH1XJTh6gSA4EaokOD4WIDgHwxE4YpcVOMBFJTgUWBQ4ZMcSON6OGzi1+/Y3\r\nP2QcOG2PAzgc3RU4Tdg7OO0tCDiEug44ZJcPOAGgKTgm7vY3UlwUOJAmEji4gxQ45rkMOMfhKTh8\r\nNwU4XhgMOKptKDjduRo4PwQOOAYVKTiCrgk40PEOOKKpAThLnhc4mIMPOMwDEjjIjxU4SxoyOBy9\r\nBDh29Os3pBEbOJ4JCzgW8B444voVODnJAThTKwY4rLoOOPAVBjg8Ywg4KAUIOCvACjiajxA48m0U\r\nOPAd8jdSTA44nNnuNxl7CTgcqes3HMQDOI9dHTjlbQM493oOOBUrETghF/g3AKgMOKjuFDglxxk4\r\nCmz9N1I2ADgVpPo31PsTOCs6FTi8pAs4tXD0N0PhEjjE9yY4uBEKOJg66DfBXgI4/loAOPRrCjjJ\r\n5dc3ylINOGjRAThCpf43roIDOBil8TefcgM4oqYFOF2hAjhGIgc43HXvNzTTDTjMYe83ikYNOANV\r\nBzjA4u43JfUQOJTw4DcqkdM3HvXfN9DmADgbnOM3IQ8AOMqQ5TeEugw4/8/MN7RQ/DeRFe43a/wV\r\nOAPD9zdwSRM4IsHqN0EE4zcc0/I3Kp3mNzUM6Td75RQ4JFUCOCvbBDiYePY3NibvNzHv6TfSqv83\r\nzkzfN0dP2jd/++Y3c60DOF6D+zcvJwY4yrjsN9up3TcejAQ4skTmNxlEADhTn/A3n3nON6gY+DeY\r\nZgI4neb7NwlE+jc6TOs3Blf0N0TVwTdfW9U388L3NxNO6zc9zwM4BJTLNxJg9jdweO43WDj1N6E0\r\nyTcgJ8g3UQLrN+XM4zdZ3Pg3gw7MN7QD/DeGV/M3WDDgN7n0wzdyeeU3JVDgNyJW6DeCuuo3rnfW\r\nN/Ic1TdsLNc3xyPEN6Xe5DfGp783ElzWN9Ci6zdzGPQ3nZgAOLHD0jcEC843enzWNyLo7jfzjvU3\r\nPvHmN+SL3zdMjso3ZsLxN3wf9Tfv9N83OsfRN35o4Tcz7cc3KHXnN30I7zfVRAc4PLTYNzKczDeN\r\nHPs3UvjIN/iL2zfZUvY320m+NyBV4DeowPo3JMkDOEeM2Dfnr9c3VRzYN+bguzd0Y9E3d1/EN2I/\r\n4DcZHOE3SM3CN2oRsjeJfNg3yCL5N1YrvTeW+cg3+i7dN/Od+Dcgt7s3ktHSN65twjcag9g3ZsLF\r\nN7uDyzfNYsY3jKzNN9ndyzeE4Ns3j8vBN4hwxjfat703G0/mN0PDxzcH+8o3vhHFN8n47Td6NO43\r\nGPLdNwnOpzfiU+03Qbm3N+bj3DfH0Qo4tPrEN/AZwDfyVQI4QV27N3IGzTfQZbE3nBCqN2Hi1Tf+\r\n3dA3Fl7IN0SV0TfNl8U35mzXNzu1yTcVFec3OovvNyMB4zc14dE3tj2YN129qzeqlsI3oD7pN57k\r\nzzcQc7w3GEvGN0/M1DetE9A31VfNN+ldwDdD8cA35W28N0qpxTcUT7U3rlifN2bH2zeCWI83Qn0C\r\nOE7qqTfiI8c39o3oN/fNzTciBKE38pTCN7F3wjeo76o3Mc6aN8oOsDcQ59M3UMngN2fTtDdkOLo3\r\nzn2uNyihkDe2dLE3PK+5Nze/0TcVd5g30gKWNwLQtjexj+s3BFTEN+X/pTdMiYY3KHemN6sh2zdO\r\ni9A3a0uhNy3EyjePVMA3mTqZN6vKwjfdN6Y3BwapNwr84zdnvO83mG3vN4Xwrjem6pg3uu6sN+nX\r\nrDezKco3ORiYN5ZG3jd5rsM3Sh67NzFttTcGfrA3JSvwNzY1qjdHB7Y3jK+xN4dLyzdkdNA3O8Pf\r\nN5swxjcSpcA31m63N0XayjfJS943sM/mN96cnDei7NM3OGXLN0VTojda+I83OReSN4+a0Dfsy7U3\r\nt0O8N9ToujcMOq03oJOcNyuSyjfXCr03NVSzN+hqsTcTSss3ijvHNwKFrDdSubA3Yae3N8fYqTeP\r\ne6I3jKW0N/Yqqjdu8do3Uya5N53PtzdAQqY3QmOyN6ZUyDc1Lrg3ULfhN/nwsTfei5o3nmyoN4jc\r\nwDc5p+Q35T7QN29CvzfNfa43dxXEN9d6ujcbMb83vPvIN3thwTdPAMM3ILTON3qgqTdT4Lg36DTR\r\nN7QLxjcy8qU3lkTgN+A7oTcEZ7k33lWON0E5ojdXq8A3NECnN7MevTfv26w3pZfNN5XvkTeIIpc3\r\nyLHEN9kvxTe9GqY3TerFN+zWtjf6GKU31DvbN0bSrzdmwLw3w47AN9yjqzfZNco3TnSpN4Y1zjcW\r\nupc3DOXRN5DZsTdyg7g3ax6fNwTg0Tc3WKM3Yu6oN8D6rTdto9A3sb+pN3IUsjcPVbQ3EtaiNzOE\r\nqzckqrg3ewevN8Uoujc8SLE3A6ayN+plsjcyudE3BoqMN44BrDddi7w3AEzRN0oEuDfJrZQ3mHrL\r\nN3pIvDeapJ03bd2SN1wusTfcoKc3kdfeNzu6yTcZU703I7etN2l5tzdMF9A3AAjDNw==",
                            "noiseTrainingType" : "default"
                          }
                        }
                    ],
                    "start" : 7451,
                    "duration" : 48,
                    "mediaStart" : 4436,
                    "mediaDuration" : 48,
                    "scalar" : 1,
                    "metadata" : {
                      "WinSubProjectDisplayName" : "",
                      "clipSpeedAttribute" : false
                    },
                    "animationTracks" : {

                    }
                  },
                  {
                    "id" : 140,
                    "_type" : "AMFile",
                    "src" : 3,
                    "trackNumber" : 1,
                    "attributes" : {
                      "ident" : "tower-columns-03",
                      "sampleRate" : 44100,
                      "bitDepth" : 16,
                      "gain" : 1.0,
                      "mixToMono" : false
                    },
                      "channelNumber" : "0,1",
                    "effects" : [
                        {
                          "effectName" : "NoiseReduction",
                          "category" : "categoryAudioEffects",
                          "parameters" : {
                            "denoiserAmount" : 20.0,
                            "denoiserThreshold" : 0.0,
                            "noiseProfile" : "eSaGPvdD/D52nuU+M71nP75wzUDWlOpB3s5cQJDRrT/8uQpAM2auQEi22j74AYA/fqCOP3qN2UAj\r\nayNARwL7Pq0pVj6v3Rs/pyWcPk1kaj6FN7I+Lqm/Pvslnz45GXY/gHhQP0/6Dj+qD48+LXZWPyWq\r\nTz8KwkJAeug7Qa39lkA4xFVBJjeIQY58d0FEUZlA7LXVQc2hhkBZ3vdAWbGlQPg8cT/oY3k/hJjO\r\nP3/sFT+j2GQ/1GBhP9g5hz/q2Z4/DtgsQCtTRD9TVBs/7iLPP5RHhD+sg1k/i8CPP7c2Wz/4xNA+\r\nh5gaP4JEzT6P6BM/5j0PP7n68D7ysqQ/xykjQCEbZECIn0k/JmUGP7qysT8Hdzw/rg2KQAgObz8Q\r\nlz8/5hlxPuVZBj8tQeY/MXb/PpxQgj7u8y4/rxj7Pjo9Zz53958+Lpa8Pckr1T2vmx0+so04PjiB\r\nVT+A+mI+0aOZPYKIqT3QNNI9WOZaPWVYCT7TXrc+pnOQPhQOWz5BMSc+CkYnPaJ+Kz1SYyw+UA9b\r\nPl0UNj2mOZE9uLj9PPoBUj2j4Sg9ME23PaQEQT4RywQ+ZWOoPSv54jxVH9Y9k60MPTV1Mz1xoIg9\r\nvqfnPQyaij7Fvos+LzsXP0bo3D5SEvc+QsY1P/xB0zxSlE09PxWbPsFWoT4fX7s+xNNlPyeFqz/F\r\nvrU/ZgARPpQ/Aj8biQ8++7FBPIU3rj6zxkY/zPzIPt69AECKkdc+gU9PPQMtXT1JcEk988aYPXLa\r\nsT6o4jQ/d2wsP9ahGz9t5sE/hmWLPxkarT9pPmw/SV39PboiVj46KYo95u+9PBX8Fj7ys/I9kO8T\r\nPy1vCD9tazo/VN0GP4+PjD5XhwY9fxPgPhnTzz4KR+g+CNBAPu5znT6bUPA9o4PFPibhAj+s19M+\r\nASz2PtZOfT90I9g/n5SHQDrhu0B5tTxBfcFNQflGeUExM5ZBhMelQRpA4kGf3ABCnEbsQV1Gw0Hx\r\nKUJBPLKUQRbEikHp7pdBAlq+QTUzmkFCmr1Bw3e4QdoTsEH6JMJBSjvGQbIKxkETEhhBIpeQQeJb\r\nOUFBgM9AoOQUQGBuEkBx+CZAOcyyP1ETCz/41QI9UUboPSXbyj1DcgA902OmPY4BFT7GHvg+bMPW\r\nPnqDyj5u4+8+xo1dPz7/bD+ED/0+VDsdPjFolD5ZCi8+af7SPDMtnjxosUE9E1hIPZ/3Bz1tdZk9\r\neGXePRNEDj3K4mk8Juu2PELBOD2+oSI8NbO3PHnNzDyQVy89UP/nPbKGqT51diE/23/aPV25VkCq\r\ncZQ/0SFoPxvtBT/iVyZAYgYaPrAAXD5vPXQ/LzutQDqfYD+gB74+1R6qPypZSkFM22xA2hNRQZtR\r\nC0Ha5gJBrBSCQAzp4UCktENBVEtCQRVxIkG4BARBi9ikQLI7tD9oYWc+504hQDHChD9Y3/I/tPrB\r\nPtHND0AEEQtAYK6/P9h4jj9VB7E+eKofP6+OkD7zw2M+YDqlPFoGNj5vbEk+ODXzPtROsz1KFMc+\r\nj4SXPnX/xT16etc9jh5HPlcYzD5mFsU/pPp2QCLeKUFe9H9BjhS2QY/8aEIruJhCGn6sQvuDiEKn\r\nFY9CcBNoQihwXEJKcAdCRVwbQgqf1EEWNdVBfvQJQXWIgkHcC0FB9+MQQabw1kA1awhBVedaQfZ+\r\nlkFfvdpBJg78QfWHCUIwWvZBU4gBQleN9UE9NPBBf1jRQWo1rUHzsWlB+ch9QbXjUEEH03hBypRI\r\nQW7HN0HVlP1ADhqyQKuGZkCMgi1A16OxP7Ma9T8zuv0/kn0cQNAmJUBnvlhAZTcsQC7xDUAxV/A/\r\nVATVP57JsD8PmJ4/fuJePyixND+wM/4+af7dPm6Lwz4IBJE+fk0FPh9AwD0KBHU9AYl9Pbjt/TxB\r\nMBU9oY2XPDvo5ztIEZE7sWx3O5yXnTsKqBQ7moVtO7Om7jpBqPg6xnK2OrtxYzoRf7Q6r2BlOa3j\r\naDp2xw05zZEWOoBY6ThB0iM6Er0DOTP3PTr6Ve44Z1wcOm9tBzkrDtI5zp6YOZT9TDl6ft45G1W0\r\nOGm8nzk8am45CTE4OWZLuzkwe744u78jOcQ4wjmQ9JA56gsWOfvh4jiMaKM4wNLHOPjwsjn59Og5\r\nm3UMOWRXkDhMjEE5pqjsONENAzktE405m6aoOF57hzgPuQg56j6kODC8tzgcGo44GtGrOCLqhzjV\r\ngYw4tP98OHB0fzhgSYE4hw55OI/Ddjj4f3I4pb+AOOT3fTiIf3w4xpq+OFLYSzkwzgw5ueZtODVk\r\nNTlPPss4plglOefGODlKdAc55F9lODXy2zhqKtI4HDrGOGJ3Xjgg4cg4wn0kOVvAEzlATIc5bEB3\r\nOFgzZziun9w4pqijOLKcMzlichQ5CMBkOCS/ZDgMG3Y4UNNoOCP5XjjbF4A4rOdGOM6ZWzhqClA4\r\nXd1LOMipcTjSOVk49stBOMwvVjg6sYE4/NxpOJCHSzjm7Wo4UqM7OGAKRjgaOFc4jPtBOISHSjhU\r\nBjE4qDFXOOR3VTj47E84k8xHOGLKQDg6TGY4GsptOMruPDgYBGM4lpE9OLP7QjgsHks4jgVmOFCj\r\nYDgYQlA48FBBOD1DQTgaWFs4Av4gONW0TDhIUTU4XEM4OFI0dzii3zA45j4hOAQyXDjHWEE4WklB\r\nOGABPTjcwT84LDhbOAKrTTjZ7Cg4tEUsOKAuRzhvTEo4YFgmOGIjJDiGR0s4G4I7ONBtOjgA+UQ4\r\nZg44ODQYPjjITEE4rBMxOGKSQjifWz44KIcyOJx1QzgSY0E4amI0OIRzKzi4Thw4HWEmOMxgHjgk\r\n9CQ4g8UeOBh4KjjaKjE4UCMiOJCRKDiWcz44qho9OKpuLDjBEC04FAE7OOhYKDgKcRQ4sactOJCW\r\nJThGdis46okUOH6SNTgdF1E4PtswOHP/cjjGzoY48qQzOPGZCDg6qh043jU0OJU4LzhuhxU4cYUd\r\nOLgCJTja4TE4Vl5CODE/MTh9VyU4eoEgOBGqJDg+FiA4B8MROGKXFTjARSU4FFgUOGTHEjjejhs4\r\ntfv2Nz9kHDhtjwM4HN0VOE3YOzjtLQg4hLoOOGSXDzgBoCk4Ju72N1JcFDiQJhI4uIMUOOa5DDjH\r\n4Sk4fDcFOF4YDDiqbSg43bkaOD8EDjgGFSk4gq4JONDxDjiiqQE4S54XOJiDDzjMAxI4yI8VOEsa\r\nMjgcvQQ4dvTrN6QRGzieCQs4FvAeOOL6FTg5yQE4UysGOKy6DjjwFQY4PGMIOCgFCDgrwAo4mo8Q\r\nOPJtFDjwHfI3UkwOOJzZ7jcZewk4HKnrNxzEAziPXR045W0DOPd6DjgVKxE4IRf4NwCoDDio7hQ4\r\nJccZOAps/TdSNgA4FaT6N9T7EzgrOhU4vKQLOLVw9DdD4RI4xPcmOLgRCjiYOug3wV4COP5aADj0\r\nawo4yeXXN8pSDTho0QE4QqX+N66CAzgYpfE3n3IDOKKmBThdoQI4RiIHONx17zc00w04zGHvN4pG\r\nDTgDVQc4wOLuNyX1EDiU8OA3KpHTNx713zfQ5gA4G5zjNyEPADjKkOU3hLoMOP/PzDe0UPw3kRXu\r\nN2v8FTgDw/c3cEkTOCLB6jdBBOM3HNPyNyqd5jc1DOk3e+UUOCRVAjgr2wQ4mHj2NzYm7zcx7+k3\r\n0qr/N85M3zdHT9o3f/vmN3OtAzheg/s3LycGOMq47Dfbqd03HowEOLJE5jcZRAA4U5/wN595zjeo\r\nGPg3mGYCOJ3m+zcJRPo3OkzrNwZX9DdE1cE3X1vVN/PC9zcTTus3Pc8DOASUyzcSYPY3cHjuN1g4\r\n9TehNMk3ICfIN1EC6zflzOM3Wdz4N4MOzDe0A/w3hlfzN1gw4De59MM3cnnlNyVQ4DciVug3grrq\r\nN6531jfyHNU3bCzXN8cjxDel3uQ3xqe/NxJc1jfQous3cxj0N52YADixw9I3BAvON3p81jci6O43\r\n8471Nz7x5jfki983TI7KN2bC8Td8H/U37/TfNzrH0Td+aOE3M+3HNyh15zd9CO831UQHODy02Dcy\r\nnMw3jRz7N1L4yDf4i9s32VL2N9tJvjcgVeA3qMD6NyTJAzhHjNg356/XN1Uc2Dfm4Ls3dGPRN3df\r\nxDdiP+A3GRzhN0jNwjdqEbI3iXzYN8gi+TdWK703lvnIN/ou3Tfznfg3ILe7N5LR0jeubcI3GoPY\r\nN2bCxTe7g8s3zWLGN4yszTfZ3cs3hODbN4/LwTeIcMY32re9NxtP5jdDw8c3B/vKN74RxTfJ+O03\r\nejTuNxjy3TcJzqc34lPtN0G5tzfm49w3x9EKOLT6xDfwGcA38lUCOEFduzdyBs030GWxN5wQqjdh\r\n4tU3/t3QNxZeyDdEldE3zZfFN+Zs1zc7tck3FRXnNzqL7zcjAeM3NeHRN7Y9mDddvas3qpbCN6A+\r\n6Tee5M83EHO8NxhLxjdPzNQ3rRPQN9VXzTfpXcA3Q/HAN+VtvDdKqcU3FE+1N65Ynzdmx9s3gliP\r\nN0J9AjhO6qk34iPHN/aN6Df3zc03IgShN/KUwjexd8I3qO+qNzHOmjfKDrA3EOfTN1DJ4Ddn07Q3\r\nZDi6N859rjcooZA3tnSxNzyvuTc3v9E3FXeYN9ICljcC0LY3sY/rNwRUxDfl/6U3TImGNyh3pjer\r\nIds3TovQN2tLoTctxMo3j1TAN5k6mTerysI33TemNwcGqTcK/OM3Z7zvN5ht7zeF8K43puqYN7ru\r\nrDfp16w3synKNzkYmDeWRt43ea7DN0oeuzcxbbU3Bn6wNyUr8Dc2Nao3Rwe2N4yvsTeHS8s3ZHTQ\r\nNzvD3zebMMY3EqXAN9ZutzdF2so3yUveN7DP5jfenJw3ouzTNzhlyzdFU6I3WviPNzkXkjePmtA3\r\n7Mu1N7dDvDfU6Lo3DDqtN6CTnDcrkso31wq9NzVUszfoarE3E0rLN4o7xzcChaw3UrmwN2GntzfH\r\n2Kk3j3uiN4yltDf2Kqo3bvHaN1MmuTedz7c3QEKmN0JjsjemVMg3NS64N1C34Tf58LE33ouaN55s\r\nqDeI3MA3OafkN+U+0DdvQr83zX2uN3cVxDfXero3GzG/N7z7yDd7YcE3TwDDNyC0zjd6oKk3U+C4\r\nN+g00Te0C8Y3MvKlN5ZE4DfgO6E3BGe5N95VjjdBOaI3V6vANzRApzezHr0379usN6WXzTeV75E3\r\niCKXN8ixxDfZL8U3vRqmN03qxTfs1rY3+hilN9Q72zdG0q83ZsC8N8OOwDfco6s32TXKN050qTeG\r\nNc43FrqXNwzl0TeQ2bE3coO4N2senzcE4NE3N1ijN2LuqDfA+q03baPQN7G/qTdyFLI3D1W0NxLW\r\nojczhKs3JKq4N3sHrzfFKLo3PEixNwOmsjfqZbI3MrnRNwaKjDeOAaw3XYu8NwBM0TdKBLg3ya2U\r\nN5h6yzd6SLw3mqSdN23dkjdcLrE33KCnN5HX3jc7usk3GVO9NyO3rTdpebc3TBfQNwAIwzd5JoY+\r\n90P8Pnae5T4zvWc/vnDNQNaU6kHezlxAkNGtP/y5CkAzZq5ASLbaPvgBgD9+oI4/eo3ZQCNrI0BH\r\nAvs+rSlWPpLYGz+nJZw+TWRqPoU3sj4uqb8++yWfPjkZdj+AeFA/T/oOP6oPjz4tdlY/JapPPwrC\r\nQkA36DtBrf2WQDjEVUEmN4hBjnx3QURRmUDTs9VBzaGGQFne90AzqqVAQjhxP+hjeT++os4/RAgW\r\nP6PYZD/UYGE/2DmHP+rZnj8O2CxAK1NEP1NUGz/uIs8/lEeEP6yDWT+LwI8/tzZbP/jE0D6HmBo/\r\ngkTNPo/oEz/mPQ8/ufrwPvKypD/HKSNAIRtkQEuyST8mZQY/urKxPwd3PD8yDopABfhuPxCXPz/m\r\nGXE+5VkGPy1B5j8xdv8+nFCCPtjkLj+wFPs+Oj1nPnf3nz4ulrw9ySvVPa+bHT6yjTg+OIFVP4D6\r\nYj7Ro5k9goipPdA00j1Y5lo9ZVgJPtNetz7dbpA+fupaPkExJz4KRic9on4rPVJjLD5QD1s+XRQ2\r\nPaY5kT24uP08KPVRPaPhKD0wTbc9pARBPhHLBD5lY6g9K/niPFUf1j2TrQw9wo8zPXGgiD0wQOc9\r\nDJqKPsW+iz4vOxc/RujcPlIS9z5CxjU//EHTPFKUTT0/FZs+wVahPh9fuz7E02U/J4WrP8W+tT9m\r\nABE+lD8CPxuJDz77sUE8hTeuPrPGRj/M/Mg+3r0AQIqR1z6BT089Ay1dPUlwST3zxpg9ctqxPqji\r\nND93bCw/1qEbP23mwT+GZYs/GRqtP2k+bD9JXf09uiJWPjopij3m7708FfwWPvKz8j2Q7xM/LW8I\r\nP21rOj9U3QY/j4+MPleHBj1/E+A+GdPPPgpH6D4I0EA+7nOdPptQ8D2jg8U+JuECP6zX0z4BLPY+\r\n1k59P3Qj2D+flIdAOuG7QHm1PEF9wU1B+UZ5QTEzlkGEx6VBGkDiQZ/cAEKcRuxBXUbDQfEpQkE8\r\nspRBFsSKQenul0ECWr5BNTOaQUKavUHDd7hB2hOwQfokwkFKO8ZBsgrGQRMSGEEil5BB4ls5QUGA\r\nz0Cg5BRAYG4SQHH4JkA5zLI/URMLP/jVAj1RRug9JdvKPUNyAD3TY6Y9jgEVPsYe+D5sw9Y+eoPK\r\nPm7j7z7GjV0/Pv9sP4QP/T5UOx0+MWiUPlkKLz5p/tI8My2ePGixQT0TWEg9n/cHPW11mT14Zd49\r\nE0QOPcriaTwm67Y8QsE4Pb6hIjw1s7c8ec3MPJBXLz1Q/+c9soapPnV2IT/bf9o9XblWQKpxlD/R\r\nIWg/G+0FP+JXJkBiBho+sABcPm89dD8vO61AOp9gP6AHvj7VHqo/KllKQUzbbEDaE1FBm1ELQdrm\r\nAkGsFIJADOnhQKS0Q0FUS0JBFXEiQbgEBEGL2KRAsju0P2hhZz7nTiFAMcKEP1jf8j+0+sE+0c0P\r\nQAQRC0Bgrr8/2HiOP1UHsT54qh8/r46QPvPDYz4gBqU8WgY2Pm9sST44NfM+1E6zPUoUxz6PhJc+\r\ndf/FPXp61z2OHkc+VxjMPmYWxT+k+nZAIt4pQV70f0GOFLZBj/xoQiu4mEIafqxC+4OIQqcVj0Jw\r\nE2hCKHBcQkpwB0JFXBtCCp/UQRY11UF+9AlBdYiCQdwLQUH34xBBpvDWQDVrCEFV51pB9n6WQV+9\r\n2kEmDvxB9YcJQjBa9kFTiAFCV431QT008EF/WNFBajWtQfOxaUH5yH1BteNQQQfTeEHKlEhBbsc3\r\nQdWU/UAOGrJAq4ZmQIyCLUDXo7E/sxr1PzO6/T+SfRxA0CYlQGe+WEBlNyxALvENQDFX8D9UBNU/\r\nnsmwPw+Ynj9+4l4/KLE0P7Az/j5p/t0+bovDPggEkT5+TQU+H0DAPQoEdT0BiX09uO39PEEwFT2h\r\njZc8O+jnO0gRkTuxbHc7nJedOwqoFDuahW07s6buOkGo+DrGcrY6u3FjOhF/tDqvYGU5reNoOnbH\r\nDTnNkRY6gFjpOEHSIzoSvQM5M/c9OvpV7jhnXBw6b20HOSsO0jnOnpg5lP1MOXp+3jkbVbQ4abyf\r\nOTxqbjkJMTg5Zku7OTB7vji7vyM5xDjCOZD0kDnqCxY5++HiOIxoozjA0sc4+PCyOfn06DmbdQw5\r\nZFeQOEyMQTmmqOw40Q0DOS0TjTmbpqg4XnuHOA+5CDnqPqQ4MLy3OBwajjga0as4IuqHONWBjDi0\r\n/3w4cHR/OGBJgTiHDnk4j8N2OPh/cjilv4A45Pd9OIh/fDjGmr44UthLOTDODDm55m04NWQ1OU8+\r\nyzimWCU558Y4OUp0BznkX2U4NfLbOGoq0jgcOsY4YndeOCDhyDjCfSQ5W8ATOUBMhzlsQHc4WDNn\r\nOK6f3DimqKM4spwzOWJyFDkIwGQ4JL9kOAwbdjhQ02g4I/leONsXgDis50Y4zplbOGoKUDhd3Us4\r\nyKlxONI5WTj2y0E4zC9WODqxgTj83Gk4kIdLOObtajhSozs4YApGOBo4VziM+0E4hIdKOFQGMTio\r\nMVc45HdVOPjsTziTzEc4YspAODpMZjgaym04yu48OBgEYziWkT04s/tCOCweSziOBWY4UKNgOBhC\r\nUDjwUEE4PUNBOBpYWzgC/iA41bRMOEhRNThcQzg4UjR3OKLfMDjmPiE4BDJcOMdYQThaSUE4YAE9\r\nONzBPzgsOFs4AqtNONnsKDi0RSw4oC5HOG9MSjhgWCY4YiMkOIZHSzgbgjs40G06OAD5RDhmDjg4\r\nNBg+OMhMQTisEzE4YpJCOJ9bPjgohzI4nHVDOBJjQThqYjQ4hHMrOLhOHDgdYSY4zGAeOCT0JDiD\r\nxR44GHgqONoqMThQIyI4kJEoOJZzPjiqGj04qm4sOMEQLTgUATs46FgoOApxFDixpy04kJYlOEZ2\r\nKzjqiRQ4fpI1OB0XUTg+2zA4c/9yOMbOhjjypDM48ZkIODqqHTjeNTQ4lTgvOG6HFThxhR04uAIl\r\nONrhMThWXkI4MT8xOH1XJTh6gSA4EaokOD4WIDgHwxE4YpcVOMBFJTgUWBQ4ZMcSON6OGzi1+/Y3\r\nP2QcOG2PAzgc3RU4Tdg7OO0tCDiEug44ZJcPOAGgKTgm7vY3UlwUOJAmEji4gxQ45rkMOMfhKTh8\r\nNwU4XhgMOKptKDjduRo4PwQOOAYVKTiCrgk40PEOOKKpAThLnhc4mIMPOMwDEjjIjxU4SxoyOBy9\r\nBDh29Os3pBEbOJ4JCzgW8B444voVODnJAThTKwY4rLoOOPAVBjg8Ywg4KAUIOCvACjiajxA48m0U\r\nOPAd8jdSTA44nNnuNxl7CTgcqes3HMQDOI9dHTjlbQM493oOOBUrETghF/g3AKgMOKjuFDglxxk4\r\nCmz9N1I2ADgVpPo31PsTOCs6FTi8pAs4tXD0N0PhEjjE9yY4uBEKOJg66DfBXgI4/loAOPRrCjjJ\r\n5dc3ylINOGjRAThCpf43roIDOBil8TefcgM4oqYFOF2hAjhGIgc43HXvNzTTDTjMYe83ikYNOANV\r\nBzjA4u43JfUQOJTw4DcqkdM3HvXfN9DmADgbnOM3IQ8AOMqQ5TeEugw4/8/MN7RQ/DeRFe43a/wV\r\nOAPD9zdwSRM4IsHqN0EE4zcc0/I3Kp3mNzUM6Td75RQ4JFUCOCvbBDiYePY3NibvNzHv6TfSqv83\r\nzkzfN0dP2jd/++Y3c60DOF6D+zcvJwY4yrjsN9up3TcejAQ4skTmNxlEADhTn/A3n3nON6gY+DeY\r\nZgI4neb7NwlE+jc6TOs3Blf0N0TVwTdfW9U388L3NxNO6zc9zwM4BJTLNxJg9jdweO43WDj1N6E0\r\nyTcgJ8g3UQLrN+XM4zdZ3Pg3gw7MN7QD/DeGV/M3WDDgN7n0wzdyeeU3JVDgNyJW6DeCuuo3rnfW\r\nN/Ic1TdsLNc3xyPEN6Xe5DfGp783ElzWN9Ci6zdzGPQ3nZgAOLHD0jcEC843enzWNyLo7jfzjvU3\r\nPvHmN+SL3zdMjso3ZsLxN3wf9Tfv9N83OsfRN35o4Tcz7cc3KHXnN30I7zfVRAc4PLTYNzKczDeN\r\nHPs3UvjIN/iL2zfZUvY320m+NyBV4DeowPo3JMkDOEeM2Dfnr9c3VRzYN+bguzd0Y9E3d1/EN2I/\r\n4DcZHOE3SM3CN2oRsjeJfNg3yCL5N1YrvTeW+cg3+i7dN/Od+Dcgt7s3ktHSN65twjcag9g3ZsLF\r\nN7uDyzfNYsY3jKzNN9ndyzeE4Ns3j8vBN4hwxjfat703G0/mN0PDxzcH+8o3vhHFN8n47Td6NO43\r\nGPLdNwnOpzfiU+03Qbm3N+bj3DfH0Qo4tPrEN/AZwDfyVQI4QV27N3IGzTfQZbE3nBCqN2Hi1Tf+\r\n3dA3Fl7IN0SV0TfNl8U35mzXNzu1yTcVFec3OovvNyMB4zc14dE3tj2YN129qzeqlsI3oD7pN57k\r\nzzcQc7w3GEvGN0/M1DetE9A31VfNN+ldwDdD8cA35W28N0qpxTcUT7U3rlifN2bH2zeCWI83Qn0C\r\nOE7qqTfiI8c39o3oN/fNzTciBKE38pTCN7F3wjeo76o3Mc6aN8oOsDcQ59M3UMngN2fTtDdkOLo3\r\nzn2uNyihkDe2dLE3PK+5Nze/0TcVd5g30gKWNwLQtjexj+s3BFTEN+X/pTdMiYY3KHemN6sh2zdO\r\ni9A3a0uhNy3EyjePVMA3mTqZN6vKwjfdN6Y3BwapNwr84zdnvO83mG3vN4Xwrjem6pg3uu6sN+nX\r\nrDezKco3ORiYN5ZG3jd5rsM3Sh67NzFttTcGfrA3JSvwNzY1qjdHB7Y3jK+xN4dLyzdkdNA3O8Pf\r\nN5swxjcSpcA31m63N0XayjfJS943sM/mN96cnDei7NM3OGXLN0VTojda+I83OReSN4+a0Dfsy7U3\r\nt0O8N9ToujcMOq03oJOcNyuSyjfXCr03NVSzN+hqsTcTSss3ijvHNwKFrDdSubA3Yae3N8fYqTeP\r\ne6I3jKW0N/Yqqjdu8do3Uya5N53PtzdAQqY3QmOyN6ZUyDc1Lrg3ULfhN/nwsTfei5o3nmyoN4jc\r\nwDc5p+Q35T7QN29CvzfNfa43dxXEN9d6ujcbMb83vPvIN3thwTdPAMM3ILTON3qgqTdT4Lg36DTR\r\nN7QLxjcy8qU3lkTgN+A7oTcEZ7k33lWON0E5ojdXq8A3NECnN7MevTfv26w3pZfNN5XvkTeIIpc3\r\nyLHEN9kvxTe9GqY3TerFN+zWtjf6GKU31DvbN0bSrzdmwLw3w47AN9yjqzfZNco3TnSpN4Y1zjcW\r\nupc3DOXRN5DZsTdyg7g3ax6fNwTg0Tc3WKM3Yu6oN8D6rTdto9A3sb+pN3IUsjcPVbQ3EtaiNzOE\r\nqzckqrg3ewevN8Uoujc8SLE3A6ayN+plsjcyudE3BoqMN44BrDddi7w3AEzRN0oEuDfJrZQ3mHrL\r\nN3pIvDeapJ03bd2SN1wusTfcoKc3kdfeNzu6yTcZU703I7etN2l5tzdMF9A3AAjDNw==",
                            "noiseTrainingType" : "default"
                          }
                        }
                    ],
                    "start" : 7499,
                    "duration" : 178,
                    "mediaStart" : 4786,
                    "mediaDuration" : 178,
                    "scalar" : 1,
                    "metadata" : {
                      "WinSubProjectDisplayName" : "",
                      "clipSpeedAttribute" : false
                    },
                    "animationTracks" : {

                    }
                  },
                  {
                    "id" : 141,
                    "_type" : "AMFile",
                    "src" : 3,
                    "trackNumber" : 1,
                    "attributes" : {
                      "ident" : "tower-columns-03",
                      "sampleRate" : 44100,
                      "bitDepth" : 16,
                      "gain" : 1.0,
                      "mixToMono" : false
                    },
                      "channelNumber" : "0,1",
                    "effects" : [
                        {
                          "effectName" : "NoiseReduction",
                          "category" : "categoryAudioEffects",
                          "parameters" : {
                            "denoiserAmount" : 20.0,
                            "denoiserThreshold" : 0.0,
                            "noiseProfile" : "eSaGPvdD/D52nuU+M71nP75wzUDWlOpB3s5cQJDRrT/8uQpAM2auQEi22j74AYA/fqCOP3qN2UAj\r\nayNARwL7Pq0pVj6v3Rs/pyWcPk1kaj6FN7I+Lqm/Pvslnz45GXY/gHhQP0/6Dj+qD48+LXZWPyWq\r\nTz8KwkJAeug7Qa39lkA4xFVBJjeIQY58d0FEUZlA7LXVQc2hhkBZ3vdAWbGlQPg8cT/oY3k/hJjO\r\nP3/sFT+j2GQ/1GBhP9g5hz/q2Z4/DtgsQCtTRD9TVBs/7iLPP5RHhD+sg1k/i8CPP7c2Wz/4xNA+\r\nh5gaP4JEzT6P6BM/5j0PP7n68D7ysqQ/xykjQCEbZECIn0k/JmUGP7qysT8Hdzw/rg2KQAgObz8Q\r\nlz8/5hlxPuVZBj8tQeY/MXb/PpxQgj7u8y4/rxj7Pjo9Zz53958+Lpa8Pckr1T2vmx0+so04PjiB\r\nVT+A+mI+0aOZPYKIqT3QNNI9WOZaPWVYCT7TXrc+pnOQPhQOWz5BMSc+CkYnPaJ+Kz1SYyw+UA9b\r\nPl0UNj2mOZE9uLj9PPoBUj2j4Sg9ME23PaQEQT4RywQ+ZWOoPSv54jxVH9Y9k60MPTV1Mz1xoIg9\r\nvqfnPQyaij7Fvos+LzsXP0bo3D5SEvc+QsY1P/xB0zxSlE09PxWbPsFWoT4fX7s+xNNlPyeFqz/F\r\nvrU/ZgARPpQ/Aj8biQ8++7FBPIU3rj6zxkY/zPzIPt69AECKkdc+gU9PPQMtXT1JcEk988aYPXLa\r\nsT6o4jQ/d2wsP9ahGz9t5sE/hmWLPxkarT9pPmw/SV39PboiVj46KYo95u+9PBX8Fj7ys/I9kO8T\r\nPy1vCD9tazo/VN0GP4+PjD5XhwY9fxPgPhnTzz4KR+g+CNBAPu5znT6bUPA9o4PFPibhAj+s19M+\r\nASz2PtZOfT90I9g/n5SHQDrhu0B5tTxBfcFNQflGeUExM5ZBhMelQRpA4kGf3ABCnEbsQV1Gw0Hx\r\nKUJBPLKUQRbEikHp7pdBAlq+QTUzmkFCmr1Bw3e4QdoTsEH6JMJBSjvGQbIKxkETEhhBIpeQQeJb\r\nOUFBgM9AoOQUQGBuEkBx+CZAOcyyP1ETCz/41QI9UUboPSXbyj1DcgA902OmPY4BFT7GHvg+bMPW\r\nPnqDyj5u4+8+xo1dPz7/bD+ED/0+VDsdPjFolD5ZCi8+af7SPDMtnjxosUE9E1hIPZ/3Bz1tdZk9\r\neGXePRNEDj3K4mk8Juu2PELBOD2+oSI8NbO3PHnNzDyQVy89UP/nPbKGqT51diE/23/aPV25VkCq\r\ncZQ/0SFoPxvtBT/iVyZAYgYaPrAAXD5vPXQ/LzutQDqfYD+gB74+1R6qPypZSkFM22xA2hNRQZtR\r\nC0Ha5gJBrBSCQAzp4UCktENBVEtCQRVxIkG4BARBi9ikQLI7tD9oYWc+504hQDHChD9Y3/I/tPrB\r\nPtHND0AEEQtAYK6/P9h4jj9VB7E+eKofP6+OkD7zw2M+YDqlPFoGNj5vbEk+ODXzPtROsz1KFMc+\r\nj4SXPnX/xT16etc9jh5HPlcYzD5mFsU/pPp2QCLeKUFe9H9BjhS2QY/8aEIruJhCGn6sQvuDiEKn\r\nFY9CcBNoQihwXEJKcAdCRVwbQgqf1EEWNdVBfvQJQXWIgkHcC0FB9+MQQabw1kA1awhBVedaQfZ+\r\nlkFfvdpBJg78QfWHCUIwWvZBU4gBQleN9UE9NPBBf1jRQWo1rUHzsWlB+ch9QbXjUEEH03hBypRI\r\nQW7HN0HVlP1ADhqyQKuGZkCMgi1A16OxP7Ma9T8zuv0/kn0cQNAmJUBnvlhAZTcsQC7xDUAxV/A/\r\nVATVP57JsD8PmJ4/fuJePyixND+wM/4+af7dPm6Lwz4IBJE+fk0FPh9AwD0KBHU9AYl9Pbjt/TxB\r\nMBU9oY2XPDvo5ztIEZE7sWx3O5yXnTsKqBQ7moVtO7Om7jpBqPg6xnK2OrtxYzoRf7Q6r2BlOa3j\r\naDp2xw05zZEWOoBY6ThB0iM6Er0DOTP3PTr6Ve44Z1wcOm9tBzkrDtI5zp6YOZT9TDl6ft45G1W0\r\nOGm8nzk8am45CTE4OWZLuzkwe744u78jOcQ4wjmQ9JA56gsWOfvh4jiMaKM4wNLHOPjwsjn59Og5\r\nm3UMOWRXkDhMjEE5pqjsONENAzktE405m6aoOF57hzgPuQg56j6kODC8tzgcGo44GtGrOCLqhzjV\r\ngYw4tP98OHB0fzhgSYE4hw55OI/Ddjj4f3I4pb+AOOT3fTiIf3w4xpq+OFLYSzkwzgw5ueZtODVk\r\nNTlPPss4plglOefGODlKdAc55F9lODXy2zhqKtI4HDrGOGJ3Xjgg4cg4wn0kOVvAEzlATIc5bEB3\r\nOFgzZziun9w4pqijOLKcMzlichQ5CMBkOCS/ZDgMG3Y4UNNoOCP5XjjbF4A4rOdGOM6ZWzhqClA4\r\nXd1LOMipcTjSOVk49stBOMwvVjg6sYE4/NxpOJCHSzjm7Wo4UqM7OGAKRjgaOFc4jPtBOISHSjhU\r\nBjE4qDFXOOR3VTj47E84k8xHOGLKQDg6TGY4GsptOMruPDgYBGM4lpE9OLP7QjgsHks4jgVmOFCj\r\nYDgYQlA48FBBOD1DQTgaWFs4Av4gONW0TDhIUTU4XEM4OFI0dzii3zA45j4hOAQyXDjHWEE4WklB\r\nOGABPTjcwT84LDhbOAKrTTjZ7Cg4tEUsOKAuRzhvTEo4YFgmOGIjJDiGR0s4G4I7ONBtOjgA+UQ4\r\nZg44ODQYPjjITEE4rBMxOGKSQjifWz44KIcyOJx1QzgSY0E4amI0OIRzKzi4Thw4HWEmOMxgHjgk\r\n9CQ4g8UeOBh4KjjaKjE4UCMiOJCRKDiWcz44qho9OKpuLDjBEC04FAE7OOhYKDgKcRQ4sactOJCW\r\nJThGdis46okUOH6SNTgdF1E4PtswOHP/cjjGzoY48qQzOPGZCDg6qh043jU0OJU4LzhuhxU4cYUd\r\nOLgCJTja4TE4Vl5CODE/MTh9VyU4eoEgOBGqJDg+FiA4B8MROGKXFTjARSU4FFgUOGTHEjjejhs4\r\ntfv2Nz9kHDhtjwM4HN0VOE3YOzjtLQg4hLoOOGSXDzgBoCk4Ju72N1JcFDiQJhI4uIMUOOa5DDjH\r\n4Sk4fDcFOF4YDDiqbSg43bkaOD8EDjgGFSk4gq4JONDxDjiiqQE4S54XOJiDDzjMAxI4yI8VOEsa\r\nMjgcvQQ4dvTrN6QRGzieCQs4FvAeOOL6FTg5yQE4UysGOKy6DjjwFQY4PGMIOCgFCDgrwAo4mo8Q\r\nOPJtFDjwHfI3UkwOOJzZ7jcZewk4HKnrNxzEAziPXR045W0DOPd6DjgVKxE4IRf4NwCoDDio7hQ4\r\nJccZOAps/TdSNgA4FaT6N9T7EzgrOhU4vKQLOLVw9DdD4RI4xPcmOLgRCjiYOug3wV4COP5aADj0\r\nawo4yeXXN8pSDTho0QE4QqX+N66CAzgYpfE3n3IDOKKmBThdoQI4RiIHONx17zc00w04zGHvN4pG\r\nDTgDVQc4wOLuNyX1EDiU8OA3KpHTNx713zfQ5gA4G5zjNyEPADjKkOU3hLoMOP/PzDe0UPw3kRXu\r\nN2v8FTgDw/c3cEkTOCLB6jdBBOM3HNPyNyqd5jc1DOk3e+UUOCRVAjgr2wQ4mHj2NzYm7zcx7+k3\r\n0qr/N85M3zdHT9o3f/vmN3OtAzheg/s3LycGOMq47Dfbqd03HowEOLJE5jcZRAA4U5/wN595zjeo\r\nGPg3mGYCOJ3m+zcJRPo3OkzrNwZX9DdE1cE3X1vVN/PC9zcTTus3Pc8DOASUyzcSYPY3cHjuN1g4\r\n9TehNMk3ICfIN1EC6zflzOM3Wdz4N4MOzDe0A/w3hlfzN1gw4De59MM3cnnlNyVQ4DciVug3grrq\r\nN6531jfyHNU3bCzXN8cjxDel3uQ3xqe/NxJc1jfQous3cxj0N52YADixw9I3BAvON3p81jci6O43\r\n8471Nz7x5jfki983TI7KN2bC8Td8H/U37/TfNzrH0Td+aOE3M+3HNyh15zd9CO831UQHODy02Dcy\r\nnMw3jRz7N1L4yDf4i9s32VL2N9tJvjcgVeA3qMD6NyTJAzhHjNg356/XN1Uc2Dfm4Ls3dGPRN3df\r\nxDdiP+A3GRzhN0jNwjdqEbI3iXzYN8gi+TdWK703lvnIN/ou3Tfznfg3ILe7N5LR0jeubcI3GoPY\r\nN2bCxTe7g8s3zWLGN4yszTfZ3cs3hODbN4/LwTeIcMY32re9NxtP5jdDw8c3B/vKN74RxTfJ+O03\r\nejTuNxjy3TcJzqc34lPtN0G5tzfm49w3x9EKOLT6xDfwGcA38lUCOEFduzdyBs030GWxN5wQqjdh\r\n4tU3/t3QNxZeyDdEldE3zZfFN+Zs1zc7tck3FRXnNzqL7zcjAeM3NeHRN7Y9mDddvas3qpbCN6A+\r\n6Tee5M83EHO8NxhLxjdPzNQ3rRPQN9VXzTfpXcA3Q/HAN+VtvDdKqcU3FE+1N65Ynzdmx9s3gliP\r\nN0J9AjhO6qk34iPHN/aN6Df3zc03IgShN/KUwjexd8I3qO+qNzHOmjfKDrA3EOfTN1DJ4Ddn07Q3\r\nZDi6N859rjcooZA3tnSxNzyvuTc3v9E3FXeYN9ICljcC0LY3sY/rNwRUxDfl/6U3TImGNyh3pjer\r\nIds3TovQN2tLoTctxMo3j1TAN5k6mTerysI33TemNwcGqTcK/OM3Z7zvN5ht7zeF8K43puqYN7ru\r\nrDfp16w3synKNzkYmDeWRt43ea7DN0oeuzcxbbU3Bn6wNyUr8Dc2Nao3Rwe2N4yvsTeHS8s3ZHTQ\r\nNzvD3zebMMY3EqXAN9ZutzdF2so3yUveN7DP5jfenJw3ouzTNzhlyzdFU6I3WviPNzkXkjePmtA3\r\n7Mu1N7dDvDfU6Lo3DDqtN6CTnDcrkso31wq9NzVUszfoarE3E0rLN4o7xzcChaw3UrmwN2GntzfH\r\n2Kk3j3uiN4yltDf2Kqo3bvHaN1MmuTedz7c3QEKmN0JjsjemVMg3NS64N1C34Tf58LE33ouaN55s\r\nqDeI3MA3OafkN+U+0DdvQr83zX2uN3cVxDfXero3GzG/N7z7yDd7YcE3TwDDNyC0zjd6oKk3U+C4\r\nN+g00Te0C8Y3MvKlN5ZE4DfgO6E3BGe5N95VjjdBOaI3V6vANzRApzezHr0379usN6WXzTeV75E3\r\niCKXN8ixxDfZL8U3vRqmN03qxTfs1rY3+hilN9Q72zdG0q83ZsC8N8OOwDfco6s32TXKN050qTeG\r\nNc43FrqXNwzl0TeQ2bE3coO4N2senzcE4NE3N1ijN2LuqDfA+q03baPQN7G/qTdyFLI3D1W0NxLW\r\nojczhKs3JKq4N3sHrzfFKLo3PEixNwOmsjfqZbI3MrnRNwaKjDeOAaw3XYu8NwBM0TdKBLg3ya2U\r\nN5h6yzd6SLw3mqSdN23dkjdcLrE33KCnN5HX3jc7usk3GVO9NyO3rTdpebc3TBfQNwAIwzd5JoY+\r\n90P8Pnae5T4zvWc/vnDNQNaU6kHezlxAkNGtP/y5CkAzZq5ASLbaPvgBgD9+oI4/eo3ZQCNrI0BH\r\nAvs+rSlWPpLYGz+nJZw+TWRqPoU3sj4uqb8++yWfPjkZdj+AeFA/T/oOP6oPjz4tdlY/JapPPwrC\r\nQkA36DtBrf2WQDjEVUEmN4hBjnx3QURRmUDTs9VBzaGGQFne90AzqqVAQjhxP+hjeT++os4/RAgW\r\nP6PYZD/UYGE/2DmHP+rZnj8O2CxAK1NEP1NUGz/uIs8/lEeEP6yDWT+LwI8/tzZbP/jE0D6HmBo/\r\ngkTNPo/oEz/mPQ8/ufrwPvKypD/HKSNAIRtkQEuyST8mZQY/urKxPwd3PD8yDopABfhuPxCXPz/m\r\nGXE+5VkGPy1B5j8xdv8+nFCCPtjkLj+wFPs+Oj1nPnf3nz4ulrw9ySvVPa+bHT6yjTg+OIFVP4D6\r\nYj7Ro5k9goipPdA00j1Y5lo9ZVgJPtNetz7dbpA+fupaPkExJz4KRic9on4rPVJjLD5QD1s+XRQ2\r\nPaY5kT24uP08KPVRPaPhKD0wTbc9pARBPhHLBD5lY6g9K/niPFUf1j2TrQw9wo8zPXGgiD0wQOc9\r\nDJqKPsW+iz4vOxc/RujcPlIS9z5CxjU//EHTPFKUTT0/FZs+wVahPh9fuz7E02U/J4WrP8W+tT9m\r\nABE+lD8CPxuJDz77sUE8hTeuPrPGRj/M/Mg+3r0AQIqR1z6BT089Ay1dPUlwST3zxpg9ctqxPqji\r\nND93bCw/1qEbP23mwT+GZYs/GRqtP2k+bD9JXf09uiJWPjopij3m7708FfwWPvKz8j2Q7xM/LW8I\r\nP21rOj9U3QY/j4+MPleHBj1/E+A+GdPPPgpH6D4I0EA+7nOdPptQ8D2jg8U+JuECP6zX0z4BLPY+\r\n1k59P3Qj2D+flIdAOuG7QHm1PEF9wU1B+UZ5QTEzlkGEx6VBGkDiQZ/cAEKcRuxBXUbDQfEpQkE8\r\nspRBFsSKQenul0ECWr5BNTOaQUKavUHDd7hB2hOwQfokwkFKO8ZBsgrGQRMSGEEil5BB4ls5QUGA\r\nz0Cg5BRAYG4SQHH4JkA5zLI/URMLP/jVAj1RRug9JdvKPUNyAD3TY6Y9jgEVPsYe+D5sw9Y+eoPK\r\nPm7j7z7GjV0/Pv9sP4QP/T5UOx0+MWiUPlkKLz5p/tI8My2ePGixQT0TWEg9n/cHPW11mT14Zd49\r\nE0QOPcriaTwm67Y8QsE4Pb6hIjw1s7c8ec3MPJBXLz1Q/+c9soapPnV2IT/bf9o9XblWQKpxlD/R\r\nIWg/G+0FP+JXJkBiBho+sABcPm89dD8vO61AOp9gP6AHvj7VHqo/KllKQUzbbEDaE1FBm1ELQdrm\r\nAkGsFIJADOnhQKS0Q0FUS0JBFXEiQbgEBEGL2KRAsju0P2hhZz7nTiFAMcKEP1jf8j+0+sE+0c0P\r\nQAQRC0Bgrr8/2HiOP1UHsT54qh8/r46QPvPDYz4gBqU8WgY2Pm9sST44NfM+1E6zPUoUxz6PhJc+\r\ndf/FPXp61z2OHkc+VxjMPmYWxT+k+nZAIt4pQV70f0GOFLZBj/xoQiu4mEIafqxC+4OIQqcVj0Jw\r\nE2hCKHBcQkpwB0JFXBtCCp/UQRY11UF+9AlBdYiCQdwLQUH34xBBpvDWQDVrCEFV51pB9n6WQV+9\r\n2kEmDvxB9YcJQjBa9kFTiAFCV431QT008EF/WNFBajWtQfOxaUH5yH1BteNQQQfTeEHKlEhBbsc3\r\nQdWU/UAOGrJAq4ZmQIyCLUDXo7E/sxr1PzO6/T+SfRxA0CYlQGe+WEBlNyxALvENQDFX8D9UBNU/\r\nnsmwPw+Ynj9+4l4/KLE0P7Az/j5p/t0+bovDPggEkT5+TQU+H0DAPQoEdT0BiX09uO39PEEwFT2h\r\njZc8O+jnO0gRkTuxbHc7nJedOwqoFDuahW07s6buOkGo+DrGcrY6u3FjOhF/tDqvYGU5reNoOnbH\r\nDTnNkRY6gFjpOEHSIzoSvQM5M/c9OvpV7jhnXBw6b20HOSsO0jnOnpg5lP1MOXp+3jkbVbQ4abyf\r\nOTxqbjkJMTg5Zku7OTB7vji7vyM5xDjCOZD0kDnqCxY5++HiOIxoozjA0sc4+PCyOfn06DmbdQw5\r\nZFeQOEyMQTmmqOw40Q0DOS0TjTmbpqg4XnuHOA+5CDnqPqQ4MLy3OBwajjga0as4IuqHONWBjDi0\r\n/3w4cHR/OGBJgTiHDnk4j8N2OPh/cjilv4A45Pd9OIh/fDjGmr44UthLOTDODDm55m04NWQ1OU8+\r\nyzimWCU558Y4OUp0BznkX2U4NfLbOGoq0jgcOsY4YndeOCDhyDjCfSQ5W8ATOUBMhzlsQHc4WDNn\r\nOK6f3DimqKM4spwzOWJyFDkIwGQ4JL9kOAwbdjhQ02g4I/leONsXgDis50Y4zplbOGoKUDhd3Us4\r\nyKlxONI5WTj2y0E4zC9WODqxgTj83Gk4kIdLOObtajhSozs4YApGOBo4VziM+0E4hIdKOFQGMTio\r\nMVc45HdVOPjsTziTzEc4YspAODpMZjgaym04yu48OBgEYziWkT04s/tCOCweSziOBWY4UKNgOBhC\r\nUDjwUEE4PUNBOBpYWzgC/iA41bRMOEhRNThcQzg4UjR3OKLfMDjmPiE4BDJcOMdYQThaSUE4YAE9\r\nONzBPzgsOFs4AqtNONnsKDi0RSw4oC5HOG9MSjhgWCY4YiMkOIZHSzgbgjs40G06OAD5RDhmDjg4\r\nNBg+OMhMQTisEzE4YpJCOJ9bPjgohzI4nHVDOBJjQThqYjQ4hHMrOLhOHDgdYSY4zGAeOCT0JDiD\r\nxR44GHgqONoqMThQIyI4kJEoOJZzPjiqGj04qm4sOMEQLTgUATs46FgoOApxFDixpy04kJYlOEZ2\r\nKzjqiRQ4fpI1OB0XUTg+2zA4c/9yOMbOhjjypDM48ZkIODqqHTjeNTQ4lTgvOG6HFThxhR04uAIl\r\nONrhMThWXkI4MT8xOH1XJTh6gSA4EaokOD4WIDgHwxE4YpcVOMBFJTgUWBQ4ZMcSON6OGzi1+/Y3\r\nP2QcOG2PAzgc3RU4Tdg7OO0tCDiEug44ZJcPOAGgKTgm7vY3UlwUOJAmEji4gxQ45rkMOMfhKTh8\r\nNwU4XhgMOKptKDjduRo4PwQOOAYVKTiCrgk40PEOOKKpAThLnhc4mIMPOMwDEjjIjxU4SxoyOBy9\r\nBDh29Os3pBEbOJ4JCzgW8B444voVODnJAThTKwY4rLoOOPAVBjg8Ywg4KAUIOCvACjiajxA48m0U\r\nOPAd8jdSTA44nNnuNxl7CTgcqes3HMQDOI9dHTjlbQM493oOOBUrETghF/g3AKgMOKjuFDglxxk4\r\nCmz9N1I2ADgVpPo31PsTOCs6FTi8pAs4tXD0N0PhEjjE9yY4uBEKOJg66DfBXgI4/loAOPRrCjjJ\r\n5dc3ylINOGjRAThCpf43roIDOBil8TefcgM4oqYFOF2hAjhGIgc43HXvNzTTDTjMYe83ikYNOANV\r\nBzjA4u43JfUQOJTw4DcqkdM3HvXfN9DmADgbnOM3IQ8AOMqQ5TeEugw4/8/MN7RQ/DeRFe43a/wV\r\nOAPD9zdwSRM4IsHqN0EE4zcc0/I3Kp3mNzUM6Td75RQ4JFUCOCvbBDiYePY3NibvNzHv6TfSqv83\r\nzkzfN0dP2jd/++Y3c60DOF6D+zcvJwY4yrjsN9up3TcejAQ4skTmNxlEADhTn/A3n3nON6gY+DeY\r\nZgI4neb7NwlE+jc6TOs3Blf0N0TVwTdfW9U388L3NxNO6zc9zwM4BJTLNxJg9jdweO43WDj1N6E0\r\nyTcgJ8g3UQLrN+XM4zdZ3Pg3gw7MN7QD/DeGV/M3WDDgN7n0wzdyeeU3JVDgNyJW6DeCuuo3rnfW\r\nN/Ic1TdsLNc3xyPEN6Xe5DfGp783ElzWN9Ci6zdzGPQ3nZgAOLHD0jcEC843enzWNyLo7jfzjvU3\r\nPvHmN+SL3zdMjso3ZsLxN3wf9Tfv9N83OsfRN35o4Tcz7cc3KHXnN30I7zfVRAc4PLTYNzKczDeN\r\nHPs3UvjIN/iL2zfZUvY320m+NyBV4DeowPo3JMkDOEeM2Dfnr9c3VRzYN+bguzd0Y9E3d1/EN2I/\r\n4DcZHOE3SM3CN2oRsjeJfNg3yCL5N1YrvTeW+cg3+i7dN/Od+Dcgt7s3ktHSN65twjcag9g3ZsLF\r\nN7uDyzfNYsY3jKzNN9ndyzeE4Ns3j8vBN4hwxjfat703G0/mN0PDxzcH+8o3vhHFN8n47Td6NO43\r\nGPLdNwnOpzfiU+03Qbm3N+bj3DfH0Qo4tPrEN/AZwDfyVQI4QV27N3IGzTfQZbE3nBCqN2Hi1Tf+\r\n3dA3Fl7IN0SV0TfNl8U35mzXNzu1yTcVFec3OovvNyMB4zc14dE3tj2YN129qzeqlsI3oD7pN57k\r\nzzcQc7w3GEvGN0/M1DetE9A31VfNN+ldwDdD8cA35W28N0qpxTcUT7U3rlifN2bH2zeCWI83Qn0C\r\nOE7qqTfiI8c39o3oN/fNzTciBKE38pTCN7F3wjeo76o3Mc6aN8oOsDcQ59M3UMngN2fTtDdkOLo3\r\nzn2uNyihkDe2dLE3PK+5Nze/0TcVd5g30gKWNwLQtjexj+s3BFTEN+X/pTdMiYY3KHemN6sh2zdO\r\ni9A3a0uhNy3EyjePVMA3mTqZN6vKwjfdN6Y3BwapNwr84zdnvO83mG3vN4Xwrjem6pg3uu6sN+nX\r\nrDezKco3ORiYN5ZG3jd5rsM3Sh67NzFttTcGfrA3JSvwNzY1qjdHB7Y3jK+xN4dLyzdkdNA3O8Pf\r\nN5swxjcSpcA31m63N0XayjfJS943sM/mN96cnDei7NM3OGXLN0VTojda+I83OReSN4+a0Dfsy7U3\r\nt0O8N9ToujcMOq03oJOcNyuSyjfXCr03NVSzN+hqsTcTSss3ijvHNwKFrDdSubA3Yae3N8fYqTeP\r\ne6I3jKW0N/Yqqjdu8do3Uya5N53PtzdAQqY3QmOyN6ZUyDc1Lrg3ULfhN/nwsTfei5o3nmyoN4jc\r\nwDc5p+Q35T7QN29CvzfNfa43dxXEN9d6ujcbMb83vPvIN3thwTdPAMM3ILTON3qgqTdT4Lg36DTR\r\nN7QLxjcy8qU3lkTgN+A7oTcEZ7k33lWON0E5ojdXq8A3NECnN7MevTfv26w3pZfNN5XvkTeIIpc3\r\nyLHEN9kvxTe9GqY3TerFN+zWtjf6GKU31DvbN0bSrzdmwLw3w47AN9yjqzfZNco3TnSpN4Y1zjcW\r\nupc3DOXRN5DZsTdyg7g3ax6fNwTg0Tc3WKM3Yu6oN8D6rTdto9A3sb+pN3IUsjcPVbQ3EtaiNzOE\r\nqzckqrg3ewevN8Uoujc8SLE3A6ayN+plsjcyudE3BoqMN44BrDddi7w3AEzRN0oEuDfJrZQ3mHrL\r\nN3pIvDeapJ03bd2SN1wusTfcoKc3kdfeNzu6yTcZU703I7etN2l5tzdMF9A3AAjDNw==",
                            "noiseTrainingType" : "default"
                          }
                        }
                    ],
                    "start" : 7677,
                    "duration" : 175,
                    "mediaStart" : 5583,
                    "mediaDuration" : 175,
                    "scalar" : 1,
                    "metadata" : {
                      "WinSubProjectDisplayName" : "",
                      "clipSpeedAttribute" : false
                    },
                    "animationTracks" : {

                    }
                  },
                  {
                    "id" : 142,
                    "_type" : "StitchedMedia",
                    "minMediaStart" : 0,
                    "attributes" : {
                      "ident" : "tower-columns-03",
                      "gain" : 1.0,
                      "mixToMono" : false
                    },
                    "parameters" : {
                      "volume" : 1.0,
                      "cursorOpacity" : 1.0,
                      "cursorScale" : 1.0
                    },
                    "medias" : [
                        {
                          "id" : 143,
                          "_type" : "AMFile",
                          "src" : 3,
                          "trackNumber" : 1,
                          "attributes" : {
                            "ident" : "Rec 02-03-20_010",
                            "sampleRate" : 44100,
                            "bitDepth" : 16,
                            "gain" : 1.0,
                            "mixToMono" : false
                          },
                            "channelNumber" : "0,1",
                          "effects" : [

                          ],
                          "start" : 0,
                          "duration" : 6591,
                          "mediaStart" : 0,
                          "mediaDuration" : 6591,
                          "scalar" : 1,
                          "metadata" : {
                            "WinSubProjectDisplayName" : "",
                            "clipSpeedAttribute" : false
                          },
                          "animationTracks" : {

                          }
                        },
                        {
                          "id" : 144,
                          "_type" : "AMFile",
                          "src" : 3,
                          "trackNumber" : 1,
                          "attributes" : {
                            "ident" : "Rec 02-03-20_010",
                            "sampleRate" : 44100,
                            "bitDepth" : 16,
                            "gain" : 1.0,
                            "mixToMono" : false
                          },
                            "channelNumber" : "0,1",
                          "effects" : [

                          ],
                          "start" : 6591,
                          "duration" : 1951,
                          "mediaStart" : 6915,
                          "mediaDuration" : 1951,
                          "scalar" : 1,
                          "metadata" : {
                            "WinSubProjectDisplayName" : "",
                            "clipSpeedAttribute" : false
                          },
                          "animationTracks" : {

                          }
                        }
                    ],
                    "effects" : [
                        {
                          "effectName" : "NoiseReduction",
                          "category" : "categoryAudioEffects",
                          "parameters" : {
                            "denoiserAmount" : 20.0,
                            "denoiserThreshold" : 0.0,
                            "noiseProfile" : "eSaGPvdD/D52nuU+M71nP75wzUDWlOpB3s5cQJDRrT/8uQpAM2auQEi22j74AYA/fqCOP3qN2UAj\r\nayNARwL7Pq0pVj6v3Rs/pyWcPk1kaj6FN7I+Lqm/Pvslnz45GXY/gHhQP0/6Dj+qD48+LXZWPyWq\r\nTz8KwkJAeug7Qa39lkA4xFVBJjeIQY58d0FEUZlA7LXVQc2hhkBZ3vdAWbGlQPg8cT/oY3k/hJjO\r\nP3/sFT+j2GQ/1GBhP9g5hz/q2Z4/DtgsQCtTRD9TVBs/7iLPP5RHhD+sg1k/i8CPP7c2Wz/4xNA+\r\nh5gaP4JEzT6P6BM/5j0PP7n68D7ysqQ/xykjQCEbZECIn0k/JmUGP7qysT8Hdzw/rg2KQAgObz8Q\r\nlz8/5hlxPuVZBj8tQeY/MXb/PpxQgj7u8y4/rxj7Pjo9Zz53958+Lpa8Pckr1T2vmx0+so04PjiB\r\nVT+A+mI+0aOZPYKIqT3QNNI9WOZaPWVYCT7TXrc+pnOQPhQOWz5BMSc+CkYnPaJ+Kz1SYyw+UA9b\r\nPl0UNj2mOZE9uLj9PPoBUj2j4Sg9ME23PaQEQT4RywQ+ZWOoPSv54jxVH9Y9k60MPTV1Mz1xoIg9\r\nvqfnPQyaij7Fvos+LzsXP0bo3D5SEvc+QsY1P/xB0zxSlE09PxWbPsFWoT4fX7s+xNNlPyeFqz/F\r\nvrU/ZgARPpQ/Aj8biQ8++7FBPIU3rj6zxkY/zPzIPt69AECKkdc+gU9PPQMtXT1JcEk988aYPXLa\r\nsT6o4jQ/d2wsP9ahGz9t5sE/hmWLPxkarT9pPmw/SV39PboiVj46KYo95u+9PBX8Fj7ys/I9kO8T\r\nPy1vCD9tazo/VN0GP4+PjD5XhwY9fxPgPhnTzz4KR+g+CNBAPu5znT6bUPA9o4PFPibhAj+s19M+\r\nASz2PtZOfT90I9g/n5SHQDrhu0B5tTxBfcFNQflGeUExM5ZBhMelQRpA4kGf3ABCnEbsQV1Gw0Hx\r\nKUJBPLKUQRbEikHp7pdBAlq+QTUzmkFCmr1Bw3e4QdoTsEH6JMJBSjvGQbIKxkETEhhBIpeQQeJb\r\nOUFBgM9AoOQUQGBuEkBx+CZAOcyyP1ETCz/41QI9UUboPSXbyj1DcgA902OmPY4BFT7GHvg+bMPW\r\nPnqDyj5u4+8+xo1dPz7/bD+ED/0+VDsdPjFolD5ZCi8+af7SPDMtnjxosUE9E1hIPZ/3Bz1tdZk9\r\neGXePRNEDj3K4mk8Juu2PELBOD2+oSI8NbO3PHnNzDyQVy89UP/nPbKGqT51diE/23/aPV25VkCq\r\ncZQ/0SFoPxvtBT/iVyZAYgYaPrAAXD5vPXQ/LzutQDqfYD+gB74+1R6qPypZSkFM22xA2hNRQZtR\r\nC0Ha5gJBrBSCQAzp4UCktENBVEtCQRVxIkG4BARBi9ikQLI7tD9oYWc+504hQDHChD9Y3/I/tPrB\r\nPtHND0AEEQtAYK6/P9h4jj9VB7E+eKofP6+OkD7zw2M+YDqlPFoGNj5vbEk+ODXzPtROsz1KFMc+\r\nj4SXPnX/xT16etc9jh5HPlcYzD5mFsU/pPp2QCLeKUFe9H9BjhS2QY/8aEIruJhCGn6sQvuDiEKn\r\nFY9CcBNoQihwXEJKcAdCRVwbQgqf1EEWNdVBfvQJQXWIgkHcC0FB9+MQQabw1kA1awhBVedaQfZ+\r\nlkFfvdpBJg78QfWHCUIwWvZBU4gBQleN9UE9NPBBf1jRQWo1rUHzsWlB+ch9QbXjUEEH03hBypRI\r\nQW7HN0HVlP1ADhqyQKuGZkCMgi1A16OxP7Ma9T8zuv0/kn0cQNAmJUBnvlhAZTcsQC7xDUAxV/A/\r\nVATVP57JsD8PmJ4/fuJePyixND+wM/4+af7dPm6Lwz4IBJE+fk0FPh9AwD0KBHU9AYl9Pbjt/TxB\r\nMBU9oY2XPDvo5ztIEZE7sWx3O5yXnTsKqBQ7moVtO7Om7jpBqPg6xnK2OrtxYzoRf7Q6r2BlOa3j\r\naDp2xw05zZEWOoBY6ThB0iM6Er0DOTP3PTr6Ve44Z1wcOm9tBzkrDtI5zp6YOZT9TDl6ft45G1W0\r\nOGm8nzk8am45CTE4OWZLuzkwe744u78jOcQ4wjmQ9JA56gsWOfvh4jiMaKM4wNLHOPjwsjn59Og5\r\nm3UMOWRXkDhMjEE5pqjsONENAzktE405m6aoOF57hzgPuQg56j6kODC8tzgcGo44GtGrOCLqhzjV\r\ngYw4tP98OHB0fzhgSYE4hw55OI/Ddjj4f3I4pb+AOOT3fTiIf3w4xpq+OFLYSzkwzgw5ueZtODVk\r\nNTlPPss4plglOefGODlKdAc55F9lODXy2zhqKtI4HDrGOGJ3Xjgg4cg4wn0kOVvAEzlATIc5bEB3\r\nOFgzZziun9w4pqijOLKcMzlichQ5CMBkOCS/ZDgMG3Y4UNNoOCP5XjjbF4A4rOdGOM6ZWzhqClA4\r\nXd1LOMipcTjSOVk49stBOMwvVjg6sYE4/NxpOJCHSzjm7Wo4UqM7OGAKRjgaOFc4jPtBOISHSjhU\r\nBjE4qDFXOOR3VTj47E84k8xHOGLKQDg6TGY4GsptOMruPDgYBGM4lpE9OLP7QjgsHks4jgVmOFCj\r\nYDgYQlA48FBBOD1DQTgaWFs4Av4gONW0TDhIUTU4XEM4OFI0dzii3zA45j4hOAQyXDjHWEE4WklB\r\nOGABPTjcwT84LDhbOAKrTTjZ7Cg4tEUsOKAuRzhvTEo4YFgmOGIjJDiGR0s4G4I7ONBtOjgA+UQ4\r\nZg44ODQYPjjITEE4rBMxOGKSQjifWz44KIcyOJx1QzgSY0E4amI0OIRzKzi4Thw4HWEmOMxgHjgk\r\n9CQ4g8UeOBh4KjjaKjE4UCMiOJCRKDiWcz44qho9OKpuLDjBEC04FAE7OOhYKDgKcRQ4sactOJCW\r\nJThGdis46okUOH6SNTgdF1E4PtswOHP/cjjGzoY48qQzOPGZCDg6qh043jU0OJU4LzhuhxU4cYUd\r\nOLgCJTja4TE4Vl5CODE/MTh9VyU4eoEgOBGqJDg+FiA4B8MROGKXFTjARSU4FFgUOGTHEjjejhs4\r\ntfv2Nz9kHDhtjwM4HN0VOE3YOzjtLQg4hLoOOGSXDzgBoCk4Ju72N1JcFDiQJhI4uIMUOOa5DDjH\r\n4Sk4fDcFOF4YDDiqbSg43bkaOD8EDjgGFSk4gq4JONDxDjiiqQE4S54XOJiDDzjMAxI4yI8VOEsa\r\nMjgcvQQ4dvTrN6QRGzieCQs4FvAeOOL6FTg5yQE4UysGOKy6DjjwFQY4PGMIOCgFCDgrwAo4mo8Q\r\nOPJtFDjwHfI3UkwOOJzZ7jcZewk4HKnrNxzEAziPXR045W0DOPd6DjgVKxE4IRf4NwCoDDio7hQ4\r\nJccZOAps/TdSNgA4FaT6N9T7EzgrOhU4vKQLOLVw9DdD4RI4xPcmOLgRCjiYOug3wV4COP5aADj0\r\nawo4yeXXN8pSDTho0QE4QqX+N66CAzgYpfE3n3IDOKKmBThdoQI4RiIHONx17zc00w04zGHvN4pG\r\nDTgDVQc4wOLuNyX1EDiU8OA3KpHTNx713zfQ5gA4G5zjNyEPADjKkOU3hLoMOP/PzDe0UPw3kRXu\r\nN2v8FTgDw/c3cEkTOCLB6jdBBOM3HNPyNyqd5jc1DOk3e+UUOCRVAjgr2wQ4mHj2NzYm7zcx7+k3\r\n0qr/N85M3zdHT9o3f/vmN3OtAzheg/s3LycGOMq47Dfbqd03HowEOLJE5jcZRAA4U5/wN595zjeo\r\nGPg3mGYCOJ3m+zcJRPo3OkzrNwZX9DdE1cE3X1vVN/PC9zcTTus3Pc8DOASUyzcSYPY3cHjuN1g4\r\n9TehNMk3ICfIN1EC6zflzOM3Wdz4N4MOzDe0A/w3hlfzN1gw4De59MM3cnnlNyVQ4DciVug3grrq\r\nN6531jfyHNU3bCzXN8cjxDel3uQ3xqe/NxJc1jfQous3cxj0N52YADixw9I3BAvON3p81jci6O43\r\n8471Nz7x5jfki983TI7KN2bC8Td8H/U37/TfNzrH0Td+aOE3M+3HNyh15zd9CO831UQHODy02Dcy\r\nnMw3jRz7N1L4yDf4i9s32VL2N9tJvjcgVeA3qMD6NyTJAzhHjNg356/XN1Uc2Dfm4Ls3dGPRN3df\r\nxDdiP+A3GRzhN0jNwjdqEbI3iXzYN8gi+TdWK703lvnIN/ou3Tfznfg3ILe7N5LR0jeubcI3GoPY\r\nN2bCxTe7g8s3zWLGN4yszTfZ3cs3hODbN4/LwTeIcMY32re9NxtP5jdDw8c3B/vKN74RxTfJ+O03\r\nejTuNxjy3TcJzqc34lPtN0G5tzfm49w3x9EKOLT6xDfwGcA38lUCOEFduzdyBs030GWxN5wQqjdh\r\n4tU3/t3QNxZeyDdEldE3zZfFN+Zs1zc7tck3FRXnNzqL7zcjAeM3NeHRN7Y9mDddvas3qpbCN6A+\r\n6Tee5M83EHO8NxhLxjdPzNQ3rRPQN9VXzTfpXcA3Q/HAN+VtvDdKqcU3FE+1N65Ynzdmx9s3gliP\r\nN0J9AjhO6qk34iPHN/aN6Df3zc03IgShN/KUwjexd8I3qO+qNzHOmjfKDrA3EOfTN1DJ4Ddn07Q3\r\nZDi6N859rjcooZA3tnSxNzyvuTc3v9E3FXeYN9ICljcC0LY3sY/rNwRUxDfl/6U3TImGNyh3pjer\r\nIds3TovQN2tLoTctxMo3j1TAN5k6mTerysI33TemNwcGqTcK/OM3Z7zvN5ht7zeF8K43puqYN7ru\r\nrDfp16w3synKNzkYmDeWRt43ea7DN0oeuzcxbbU3Bn6wNyUr8Dc2Nao3Rwe2N4yvsTeHS8s3ZHTQ\r\nNzvD3zebMMY3EqXAN9ZutzdF2so3yUveN7DP5jfenJw3ouzTNzhlyzdFU6I3WviPNzkXkjePmtA3\r\n7Mu1N7dDvDfU6Lo3DDqtN6CTnDcrkso31wq9NzVUszfoarE3E0rLN4o7xzcChaw3UrmwN2GntzfH\r\n2Kk3j3uiN4yltDf2Kqo3bvHaN1MmuTedz7c3QEKmN0JjsjemVMg3NS64N1C34Tf58LE33ouaN55s\r\nqDeI3MA3OafkN+U+0DdvQr83zX2uN3cVxDfXero3GzG/N7z7yDd7YcE3TwDDNyC0zjd6oKk3U+C4\r\nN+g00Te0C8Y3MvKlN5ZE4DfgO6E3BGe5N95VjjdBOaI3V6vANzRApzezHr0379usN6WXzTeV75E3\r\niCKXN8ixxDfZL8U3vRqmN03qxTfs1rY3+hilN9Q72zdG0q83ZsC8N8OOwDfco6s32TXKN050qTeG\r\nNc43FrqXNwzl0TeQ2bE3coO4N2senzcE4NE3N1ijN2LuqDfA+q03baPQN7G/qTdyFLI3D1W0NxLW\r\nojczhKs3JKq4N3sHrzfFKLo3PEixNwOmsjfqZbI3MrnRNwaKjDeOAaw3XYu8NwBM0TdKBLg3ya2U\r\nN5h6yzd6SLw3mqSdN23dkjdcLrE33KCnN5HX3jc7usk3GVO9NyO3rTdpebc3TBfQNwAIwzd5JoY+\r\n90P8Pnae5T4zvWc/vnDNQNaU6kHezlxAkNGtP/y5CkAzZq5ASLbaPvgBgD9+oI4/eo3ZQCNrI0BH\r\nAvs+rSlWPpLYGz+nJZw+TWRqPoU3sj4uqb8++yWfPjkZdj+AeFA/T/oOP6oPjz4tdlY/JapPPwrC\r\nQkA36DtBrf2WQDjEVUEmN4hBjnx3QURRmUDTs9VBzaGGQFne90AzqqVAQjhxP+hjeT++os4/RAgW\r\nP6PYZD/UYGE/2DmHP+rZnj8O2CxAK1NEP1NUGz/uIs8/lEeEP6yDWT+LwI8/tzZbP/jE0D6HmBo/\r\ngkTNPo/oEz/mPQ8/ufrwPvKypD/HKSNAIRtkQEuyST8mZQY/urKxPwd3PD8yDopABfhuPxCXPz/m\r\nGXE+5VkGPy1B5j8xdv8+nFCCPtjkLj+wFPs+Oj1nPnf3nz4ulrw9ySvVPa+bHT6yjTg+OIFVP4D6\r\nYj7Ro5k9goipPdA00j1Y5lo9ZVgJPtNetz7dbpA+fupaPkExJz4KRic9on4rPVJjLD5QD1s+XRQ2\r\nPaY5kT24uP08KPVRPaPhKD0wTbc9pARBPhHLBD5lY6g9K/niPFUf1j2TrQw9wo8zPXGgiD0wQOc9\r\nDJqKPsW+iz4vOxc/RujcPlIS9z5CxjU//EHTPFKUTT0/FZs+wVahPh9fuz7E02U/J4WrP8W+tT9m\r\nABE+lD8CPxuJDz77sUE8hTeuPrPGRj/M/Mg+3r0AQIqR1z6BT089Ay1dPUlwST3zxpg9ctqxPqji\r\nND93bCw/1qEbP23mwT+GZYs/GRqtP2k+bD9JXf09uiJWPjopij3m7708FfwWPvKz8j2Q7xM/LW8I\r\nP21rOj9U3QY/j4+MPleHBj1/E+A+GdPPPgpH6D4I0EA+7nOdPptQ8D2jg8U+JuECP6zX0z4BLPY+\r\n1k59P3Qj2D+flIdAOuG7QHm1PEF9wU1B+UZ5QTEzlkGEx6VBGkDiQZ/cAEKcRuxBXUbDQfEpQkE8\r\nspRBFsSKQenul0ECWr5BNTOaQUKavUHDd7hB2hOwQfokwkFKO8ZBsgrGQRMSGEEil5BB4ls5QUGA\r\nz0Cg5BRAYG4SQHH4JkA5zLI/URMLP/jVAj1RRug9JdvKPUNyAD3TY6Y9jgEVPsYe+D5sw9Y+eoPK\r\nPm7j7z7GjV0/Pv9sP4QP/T5UOx0+MWiUPlkKLz5p/tI8My2ePGixQT0TWEg9n/cHPW11mT14Zd49\r\nE0QOPcriaTwm67Y8QsE4Pb6hIjw1s7c8ec3MPJBXLz1Q/+c9soapPnV2IT/bf9o9XblWQKpxlD/R\r\nIWg/G+0FP+JXJkBiBho+sABcPm89dD8vO61AOp9gP6AHvj7VHqo/KllKQUzbbEDaE1FBm1ELQdrm\r\nAkGsFIJADOnhQKS0Q0FUS0JBFXEiQbgEBEGL2KRAsju0P2hhZz7nTiFAMcKEP1jf8j+0+sE+0c0P\r\nQAQRC0Bgrr8/2HiOP1UHsT54qh8/r46QPvPDYz4gBqU8WgY2Pm9sST44NfM+1E6zPUoUxz6PhJc+\r\ndf/FPXp61z2OHkc+VxjMPmYWxT+k+nZAIt4pQV70f0GOFLZBj/xoQiu4mEIafqxC+4OIQqcVj0Jw\r\nE2hCKHBcQkpwB0JFXBtCCp/UQRY11UF+9AlBdYiCQdwLQUH34xBBpvDWQDVrCEFV51pB9n6WQV+9\r\n2kEmDvxB9YcJQjBa9kFTiAFCV431QT008EF/WNFBajWtQfOxaUH5yH1BteNQQQfTeEHKlEhBbsc3\r\nQdWU/UAOGrJAq4ZmQIyCLUDXo7E/sxr1PzO6/T+SfRxA0CYlQGe+WEBlNyxALvENQDFX8D9UBNU/\r\nnsmwPw+Ynj9+4l4/KLE0P7Az/j5p/t0+bovDPggEkT5+TQU+H0DAPQoEdT0BiX09uO39PEEwFT2h\r\njZc8O+jnO0gRkTuxbHc7nJedOwqoFDuahW07s6buOkGo+DrGcrY6u3FjOhF/tDqvYGU5reNoOnbH\r\nDTnNkRY6gFjpOEHSIzoSvQM5M/c9OvpV7jhnXBw6b20HOSsO0jnOnpg5lP1MOXp+3jkbVbQ4abyf\r\nOTxqbjkJMTg5Zku7OTB7vji7vyM5xDjCOZD0kDnqCxY5++HiOIxoozjA0sc4+PCyOfn06DmbdQw5\r\nZFeQOEyMQTmmqOw40Q0DOS0TjTmbpqg4XnuHOA+5CDnqPqQ4MLy3OBwajjga0as4IuqHONWBjDi0\r\n/3w4cHR/OGBJgTiHDnk4j8N2OPh/cjilv4A45Pd9OIh/fDjGmr44UthLOTDODDm55m04NWQ1OU8+\r\nyzimWCU558Y4OUp0BznkX2U4NfLbOGoq0jgcOsY4YndeOCDhyDjCfSQ5W8ATOUBMhzlsQHc4WDNn\r\nOK6f3DimqKM4spwzOWJyFDkIwGQ4JL9kOAwbdjhQ02g4I/leONsXgDis50Y4zplbOGoKUDhd3Us4\r\nyKlxONI5WTj2y0E4zC9WODqxgTj83Gk4kIdLOObtajhSozs4YApGOBo4VziM+0E4hIdKOFQGMTio\r\nMVc45HdVOPjsTziTzEc4YspAODpMZjgaym04yu48OBgEYziWkT04s/tCOCweSziOBWY4UKNgOBhC\r\nUDjwUEE4PUNBOBpYWzgC/iA41bRMOEhRNThcQzg4UjR3OKLfMDjmPiE4BDJcOMdYQThaSUE4YAE9\r\nONzBPzgsOFs4AqtNONnsKDi0RSw4oC5HOG9MSjhgWCY4YiMkOIZHSzgbgjs40G06OAD5RDhmDjg4\r\nNBg+OMhMQTisEzE4YpJCOJ9bPjgohzI4nHVDOBJjQThqYjQ4hHMrOLhOHDgdYSY4zGAeOCT0JDiD\r\nxR44GHgqONoqMThQIyI4kJEoOJZzPjiqGj04qm4sOMEQLTgUATs46FgoOApxFDixpy04kJYlOEZ2\r\nKzjqiRQ4fpI1OB0XUTg+2zA4c/9yOMbOhjjypDM48ZkIODqqHTjeNTQ4lTgvOG6HFThxhR04uAIl\r\nONrhMThWXkI4MT8xOH1XJTh6gSA4EaokOD4WIDgHwxE4YpcVOMBFJTgUWBQ4ZMcSON6OGzi1+/Y3\r\nP2QcOG2PAzgc3RU4Tdg7OO0tCDiEug44ZJcPOAGgKTgm7vY3UlwUOJAmEji4gxQ45rkMOMfhKTh8\r\nNwU4XhgMOKptKDjduRo4PwQOOAYVKTiCrgk40PEOOKKpAThLnhc4mIMPOMwDEjjIjxU4SxoyOBy9\r\nBDh29Os3pBEbOJ4JCzgW8B444voVODnJAThTKwY4rLoOOPAVBjg8Ywg4KAUIOCvACjiajxA48m0U\r\nOPAd8jdSTA44nNnuNxl7CTgcqes3HMQDOI9dHTjlbQM493oOOBUrETghF/g3AKgMOKjuFDglxxk4\r\nCmz9N1I2ADgVpPo31PsTOCs6FTi8pAs4tXD0N0PhEjjE9yY4uBEKOJg66DfBXgI4/loAOPRrCjjJ\r\n5dc3ylINOGjRAThCpf43roIDOBil8TefcgM4oqYFOF2hAjhGIgc43HXvNzTTDTjMYe83ikYNOANV\r\nBzjA4u43JfUQOJTw4DcqkdM3HvXfN9DmADgbnOM3IQ8AOMqQ5TeEugw4/8/MN7RQ/DeRFe43a/wV\r\nOAPD9zdwSRM4IsHqN0EE4zcc0/I3Kp3mNzUM6Td75RQ4JFUCOCvbBDiYePY3NibvNzHv6TfSqv83\r\nzkzfN0dP2jd/++Y3c60DOF6D+zcvJwY4yrjsN9up3TcejAQ4skTmNxlEADhTn/A3n3nON6gY+DeY\r\nZgI4neb7NwlE+jc6TOs3Blf0N0TVwTdfW9U388L3NxNO6zc9zwM4BJTLNxJg9jdweO43WDj1N6E0\r\nyTcgJ8g3UQLrN+XM4zdZ3Pg3gw7MN7QD/DeGV/M3WDDgN7n0wzdyeeU3JVDgNyJW6DeCuuo3rnfW\r\nN/Ic1TdsLNc3xyPEN6Xe5DfGp783ElzWN9Ci6zdzGPQ3nZgAOLHD0jcEC843enzWNyLo7jfzjvU3\r\nPvHmN+SL3zdMjso3ZsLxN3wf9Tfv9N83OsfRN35o4Tcz7cc3KHXnN30I7zfVRAc4PLTYNzKczDeN\r\nHPs3UvjIN/iL2zfZUvY320m+NyBV4DeowPo3JMkDOEeM2Dfnr9c3VRzYN+bguzd0Y9E3d1/EN2I/\r\n4DcZHOE3SM3CN2oRsjeJfNg3yCL5N1YrvTeW+cg3+i7dN/Od+Dcgt7s3ktHSN65twjcag9g3ZsLF\r\nN7uDyzfNYsY3jKzNN9ndyzeE4Ns3j8vBN4hwxjfat703G0/mN0PDxzcH+8o3vhHFN8n47Td6NO43\r\nGPLdNwnOpzfiU+03Qbm3N+bj3DfH0Qo4tPrEN/AZwDfyVQI4QV27N3IGzTfQZbE3nBCqN2Hi1Tf+\r\n3dA3Fl7IN0SV0TfNl8U35mzXNzu1yTcVFec3OovvNyMB4zc14dE3tj2YN129qzeqlsI3oD7pN57k\r\nzzcQc7w3GEvGN0/M1DetE9A31VfNN+ldwDdD8cA35W28N0qpxTcUT7U3rlifN2bH2zeCWI83Qn0C\r\nOE7qqTfiI8c39o3oN/fNzTciBKE38pTCN7F3wjeo76o3Mc6aN8oOsDcQ59M3UMngN2fTtDdkOLo3\r\nzn2uNyihkDe2dLE3PK+5Nze/0TcVd5g30gKWNwLQtjexj+s3BFTEN+X/pTdMiYY3KHemN6sh2zdO\r\ni9A3a0uhNy3EyjePVMA3mTqZN6vKwjfdN6Y3BwapNwr84zdnvO83mG3vN4Xwrjem6pg3uu6sN+nX\r\nrDezKco3ORiYN5ZG3jd5rsM3Sh67NzFttTcGfrA3JSvwNzY1qjdHB7Y3jK+xN4dLyzdkdNA3O8Pf\r\nN5swxjcSpcA31m63N0XayjfJS943sM/mN96cnDei7NM3OGXLN0VTojda+I83OReSN4+a0Dfsy7U3\r\nt0O8N9ToujcMOq03oJOcNyuSyjfXCr03NVSzN+hqsTcTSss3ijvHNwKFrDdSubA3Yae3N8fYqTeP\r\ne6I3jKW0N/Yqqjdu8do3Uya5N53PtzdAQqY3QmOyN6ZUyDc1Lrg3ULfhN/nwsTfei5o3nmyoN4jc\r\nwDc5p+Q35T7QN29CvzfNfa43dxXEN9d6ujcbMb83vPvIN3thwTdPAMM3ILTON3qgqTdT4Lg36DTR\r\nN7QLxjcy8qU3lkTgN+A7oTcEZ7k33lWON0E5ojdXq8A3NECnN7MevTfv26w3pZfNN5XvkTeIIpc3\r\nyLHEN9kvxTe9GqY3TerFN+zWtjf6GKU31DvbN0bSrzdmwLw3w47AN9yjqzfZNco3TnSpN4Y1zjcW\r\nupc3DOXRN5DZsTdyg7g3ax6fNwTg0Tc3WKM3Yu6oN8D6rTdto9A3sb+pN3IUsjcPVbQ3EtaiNzOE\r\nqzckqrg3ewevN8Uoujc8SLE3A6ayN+plsjcyudE3BoqMN44BrDddi7w3AEzRN0oEuDfJrZQ3mHrL\r\nN3pIvDeapJ03bd2SN1wusTfcoKc3kdfeNzu6yTcZU703I7etN2l5tzdMF9A3AAjDNw==",
                            "noiseTrainingType" : "default"
                          }
                        }
                    ],
                    "start" : 7852,
                    "duration" : 1360,
                    "mediaStart" : 5787,
                    "mediaDuration" : 1360,
                    "scalar" : 1,
                    "metadata" : {
                      "WinSubProjectDisplayName" : "",
                      "clipSpeedAttribute" : false
                    },
                    "animationTracks" : {

                    }
                  },
                  {
                    "id" : 145,
                    "_type" : "StitchedMedia",
                    "minMediaStart" : 0,
                    "attributes" : {
                      "ident" : "tower-columns-03",
                      "gain" : 1.0,
                      "mixToMono" : false
                    },
                    "parameters" : {
                      "volume" : 1.0,
                      "cursorOpacity" : 1.0,
                      "cursorScale" : 1.0
                    },
                    "medias" : [
                        {
                          "id" : 146,
                          "_type" : "AMFile",
                          "src" : 3,
                          "trackNumber" : 1,
                          "attributes" : {
                            "ident" : "Rec 02-03-20_010",
                            "sampleRate" : 44100,
                            "bitDepth" : 16,
                            "gain" : 1.0,
                            "mixToMono" : false
                          },
                            "channelNumber" : "0,1",
                          "effects" : [

                          ],
                          "start" : 0,
                          "duration" : 6591,
                          "mediaStart" : 0,
                          "mediaDuration" : 6591,
                          "scalar" : 1,
                          "metadata" : {
                            "WinSubProjectDisplayName" : "",
                            "clipSpeedAttribute" : false
                          },
                          "animationTracks" : {

                          }
                        },
                        {
                          "id" : 147,
                          "_type" : "AMFile",
                          "src" : 3,
                          "trackNumber" : 1,
                          "attributes" : {
                            "ident" : "Rec 02-03-20_010",
                            "sampleRate" : 44100,
                            "bitDepth" : 16,
                            "gain" : 1.0,
                            "mixToMono" : false
                          },
                            "channelNumber" : "0,1",
                          "effects" : [

                          ],
                          "start" : 6591,
                          "duration" : 1235,
                          "mediaStart" : 6915,
                          "mediaDuration" : 1235,
                          "scalar" : 1,
                          "metadata" : {
                            "WinSubProjectDisplayName" : "",
                            "clipSpeedAttribute" : false
                          },
                          "animationTracks" : {

                          }
                        },
                        {
                          "id" : 148,
                          "_type" : "AMFile",
                          "src" : 3,
                          "trackNumber" : 1,
                          "attributes" : {
                            "ident" : "Rec 02-03-20_010",
                            "sampleRate" : 44100,
                            "bitDepth" : 16,
                            "gain" : 1.0,
                            "mixToMono" : false
                          },
                            "channelNumber" : "0,1",
                          "effects" : [

                          ],
                          "start" : 7826,
                          "duration" : 244,
                          "mediaStart" : 8622,
                          "mediaDuration" : 244,
                          "scalar" : 1,
                          "metadata" : {
                            "WinSubProjectDisplayName" : "",
                            "clipSpeedAttribute" : false
                          },
                          "animationTracks" : {

                          }
                        }
                    ],
                    "effects" : [
                        {
                          "effectName" : "NoiseReduction",
                          "category" : "categoryAudioEffects",
                          "parameters" : {
                            "denoiserAmount" : 20.0,
                            "denoiserThreshold" : 0.0,
                            "noiseProfile" : "eSaGPvdD/D52nuU+M71nP75wzUDWlOpB3s5cQJDRrT/8uQpAM2auQEi22j74AYA/fqCOP3qN2UAj\r\nayNARwL7Pq0pVj6v3Rs/pyWcPk1kaj6FN7I+Lqm/Pvslnz45GXY/gHhQP0/6Dj+qD48+LXZWPyWq\r\nTz8KwkJAeug7Qa39lkA4xFVBJjeIQY58d0FEUZlA7LXVQc2hhkBZ3vdAWbGlQPg8cT/oY3k/hJjO\r\nP3/sFT+j2GQ/1GBhP9g5hz/q2Z4/DtgsQCtTRD9TVBs/7iLPP5RHhD+sg1k/i8CPP7c2Wz/4xNA+\r\nh5gaP4JEzT6P6BM/5j0PP7n68D7ysqQ/xykjQCEbZECIn0k/JmUGP7qysT8Hdzw/rg2KQAgObz8Q\r\nlz8/5hlxPuVZBj8tQeY/MXb/PpxQgj7u8y4/rxj7Pjo9Zz53958+Lpa8Pckr1T2vmx0+so04PjiB\r\nVT+A+mI+0aOZPYKIqT3QNNI9WOZaPWVYCT7TXrc+pnOQPhQOWz5BMSc+CkYnPaJ+Kz1SYyw+UA9b\r\nPl0UNj2mOZE9uLj9PPoBUj2j4Sg9ME23PaQEQT4RywQ+ZWOoPSv54jxVH9Y9k60MPTV1Mz1xoIg9\r\nvqfnPQyaij7Fvos+LzsXP0bo3D5SEvc+QsY1P/xB0zxSlE09PxWbPsFWoT4fX7s+xNNlPyeFqz/F\r\nvrU/ZgARPpQ/Aj8biQ8++7FBPIU3rj6zxkY/zPzIPt69AECKkdc+gU9PPQMtXT1JcEk988aYPXLa\r\nsT6o4jQ/d2wsP9ahGz9t5sE/hmWLPxkarT9pPmw/SV39PboiVj46KYo95u+9PBX8Fj7ys/I9kO8T\r\nPy1vCD9tazo/VN0GP4+PjD5XhwY9fxPgPhnTzz4KR+g+CNBAPu5znT6bUPA9o4PFPibhAj+s19M+\r\nASz2PtZOfT90I9g/n5SHQDrhu0B5tTxBfcFNQflGeUExM5ZBhMelQRpA4kGf3ABCnEbsQV1Gw0Hx\r\nKUJBPLKUQRbEikHp7pdBAlq+QTUzmkFCmr1Bw3e4QdoTsEH6JMJBSjvGQbIKxkETEhhBIpeQQeJb\r\nOUFBgM9AoOQUQGBuEkBx+CZAOcyyP1ETCz/41QI9UUboPSXbyj1DcgA902OmPY4BFT7GHvg+bMPW\r\nPnqDyj5u4+8+xo1dPz7/bD+ED/0+VDsdPjFolD5ZCi8+af7SPDMtnjxosUE9E1hIPZ/3Bz1tdZk9\r\neGXePRNEDj3K4mk8Juu2PELBOD2+oSI8NbO3PHnNzDyQVy89UP/nPbKGqT51diE/23/aPV25VkCq\r\ncZQ/0SFoPxvtBT/iVyZAYgYaPrAAXD5vPXQ/LzutQDqfYD+gB74+1R6qPypZSkFM22xA2hNRQZtR\r\nC0Ha5gJBrBSCQAzp4UCktENBVEtCQRVxIkG4BARBi9ikQLI7tD9oYWc+504hQDHChD9Y3/I/tPrB\r\nPtHND0AEEQtAYK6/P9h4jj9VB7E+eKofP6+OkD7zw2M+YDqlPFoGNj5vbEk+ODXzPtROsz1KFMc+\r\nj4SXPnX/xT16etc9jh5HPlcYzD5mFsU/pPp2QCLeKUFe9H9BjhS2QY/8aEIruJhCGn6sQvuDiEKn\r\nFY9CcBNoQihwXEJKcAdCRVwbQgqf1EEWNdVBfvQJQXWIgkHcC0FB9+MQQabw1kA1awhBVedaQfZ+\r\nlkFfvdpBJg78QfWHCUIwWvZBU4gBQleN9UE9NPBBf1jRQWo1rUHzsWlB+ch9QbXjUEEH03hBypRI\r\nQW7HN0HVlP1ADhqyQKuGZkCMgi1A16OxP7Ma9T8zuv0/kn0cQNAmJUBnvlhAZTcsQC7xDUAxV/A/\r\nVATVP57JsD8PmJ4/fuJePyixND+wM/4+af7dPm6Lwz4IBJE+fk0FPh9AwD0KBHU9AYl9Pbjt/TxB\r\nMBU9oY2XPDvo5ztIEZE7sWx3O5yXnTsKqBQ7moVtO7Om7jpBqPg6xnK2OrtxYzoRf7Q6r2BlOa3j\r\naDp2xw05zZEWOoBY6ThB0iM6Er0DOTP3PTr6Ve44Z1wcOm9tBzkrDtI5zp6YOZT9TDl6ft45G1W0\r\nOGm8nzk8am45CTE4OWZLuzkwe744u78jOcQ4wjmQ9JA56gsWOfvh4jiMaKM4wNLHOPjwsjn59Og5\r\nm3UMOWRXkDhMjEE5pqjsONENAzktE405m6aoOF57hzgPuQg56j6kODC8tzgcGo44GtGrOCLqhzjV\r\ngYw4tP98OHB0fzhgSYE4hw55OI/Ddjj4f3I4pb+AOOT3fTiIf3w4xpq+OFLYSzkwzgw5ueZtODVk\r\nNTlPPss4plglOefGODlKdAc55F9lODXy2zhqKtI4HDrGOGJ3Xjgg4cg4wn0kOVvAEzlATIc5bEB3\r\nOFgzZziun9w4pqijOLKcMzlichQ5CMBkOCS/ZDgMG3Y4UNNoOCP5XjjbF4A4rOdGOM6ZWzhqClA4\r\nXd1LOMipcTjSOVk49stBOMwvVjg6sYE4/NxpOJCHSzjm7Wo4UqM7OGAKRjgaOFc4jPtBOISHSjhU\r\nBjE4qDFXOOR3VTj47E84k8xHOGLKQDg6TGY4GsptOMruPDgYBGM4lpE9OLP7QjgsHks4jgVmOFCj\r\nYDgYQlA48FBBOD1DQTgaWFs4Av4gONW0TDhIUTU4XEM4OFI0dzii3zA45j4hOAQyXDjHWEE4WklB\r\nOGABPTjcwT84LDhbOAKrTTjZ7Cg4tEUsOKAuRzhvTEo4YFgmOGIjJDiGR0s4G4I7ONBtOjgA+UQ4\r\nZg44ODQYPjjITEE4rBMxOGKSQjifWz44KIcyOJx1QzgSY0E4amI0OIRzKzi4Thw4HWEmOMxgHjgk\r\n9CQ4g8UeOBh4KjjaKjE4UCMiOJCRKDiWcz44qho9OKpuLDjBEC04FAE7OOhYKDgKcRQ4sactOJCW\r\nJThGdis46okUOH6SNTgdF1E4PtswOHP/cjjGzoY48qQzOPGZCDg6qh043jU0OJU4LzhuhxU4cYUd\r\nOLgCJTja4TE4Vl5CODE/MTh9VyU4eoEgOBGqJDg+FiA4B8MROGKXFTjARSU4FFgUOGTHEjjejhs4\r\ntfv2Nz9kHDhtjwM4HN0VOE3YOzjtLQg4hLoOOGSXDzgBoCk4Ju72N1JcFDiQJhI4uIMUOOa5DDjH\r\n4Sk4fDcFOF4YDDiqbSg43bkaOD8EDjgGFSk4gq4JONDxDjiiqQE4S54XOJiDDzjMAxI4yI8VOEsa\r\nMjgcvQQ4dvTrN6QRGzieCQs4FvAeOOL6FTg5yQE4UysGOKy6DjjwFQY4PGMIOCgFCDgrwAo4mo8Q\r\nOPJtFDjwHfI3UkwOOJzZ7jcZewk4HKnrNxzEAziPXR045W0DOPd6DjgVKxE4IRf4NwCoDDio7hQ4\r\nJccZOAps/TdSNgA4FaT6N9T7EzgrOhU4vKQLOLVw9DdD4RI4xPcmOLgRCjiYOug3wV4COP5aADj0\r\nawo4yeXXN8pSDTho0QE4QqX+N66CAzgYpfE3n3IDOKKmBThdoQI4RiIHONx17zc00w04zGHvN4pG\r\nDTgDVQc4wOLuNyX1EDiU8OA3KpHTNx713zfQ5gA4G5zjNyEPADjKkOU3hLoMOP/PzDe0UPw3kRXu\r\nN2v8FTgDw/c3cEkTOCLB6jdBBOM3HNPyNyqd5jc1DOk3e+UUOCRVAjgr2wQ4mHj2NzYm7zcx7+k3\r\n0qr/N85M3zdHT9o3f/vmN3OtAzheg/s3LycGOMq47Dfbqd03HowEOLJE5jcZRAA4U5/wN595zjeo\r\nGPg3mGYCOJ3m+zcJRPo3OkzrNwZX9DdE1cE3X1vVN/PC9zcTTus3Pc8DOASUyzcSYPY3cHjuN1g4\r\n9TehNMk3ICfIN1EC6zflzOM3Wdz4N4MOzDe0A/w3hlfzN1gw4De59MM3cnnlNyVQ4DciVug3grrq\r\nN6531jfyHNU3bCzXN8cjxDel3uQ3xqe/NxJc1jfQous3cxj0N52YADixw9I3BAvON3p81jci6O43\r\n8471Nz7x5jfki983TI7KN2bC8Td8H/U37/TfNzrH0Td+aOE3M+3HNyh15zd9CO831UQHODy02Dcy\r\nnMw3jRz7N1L4yDf4i9s32VL2N9tJvjcgVeA3qMD6NyTJAzhHjNg356/XN1Uc2Dfm4Ls3dGPRN3df\r\nxDdiP+A3GRzhN0jNwjdqEbI3iXzYN8gi+TdWK703lvnIN/ou3Tfznfg3ILe7N5LR0jeubcI3GoPY\r\nN2bCxTe7g8s3zWLGN4yszTfZ3cs3hODbN4/LwTeIcMY32re9NxtP5jdDw8c3B/vKN74RxTfJ+O03\r\nejTuNxjy3TcJzqc34lPtN0G5tzfm49w3x9EKOLT6xDfwGcA38lUCOEFduzdyBs030GWxN5wQqjdh\r\n4tU3/t3QNxZeyDdEldE3zZfFN+Zs1zc7tck3FRXnNzqL7zcjAeM3NeHRN7Y9mDddvas3qpbCN6A+\r\n6Tee5M83EHO8NxhLxjdPzNQ3rRPQN9VXzTfpXcA3Q/HAN+VtvDdKqcU3FE+1N65Ynzdmx9s3gliP\r\nN0J9AjhO6qk34iPHN/aN6Df3zc03IgShN/KUwjexd8I3qO+qNzHOmjfKDrA3EOfTN1DJ4Ddn07Q3\r\nZDi6N859rjcooZA3tnSxNzyvuTc3v9E3FXeYN9ICljcC0LY3sY/rNwRUxDfl/6U3TImGNyh3pjer\r\nIds3TovQN2tLoTctxMo3j1TAN5k6mTerysI33TemNwcGqTcK/OM3Z7zvN5ht7zeF8K43puqYN7ru\r\nrDfp16w3synKNzkYmDeWRt43ea7DN0oeuzcxbbU3Bn6wNyUr8Dc2Nao3Rwe2N4yvsTeHS8s3ZHTQ\r\nNzvD3zebMMY3EqXAN9ZutzdF2so3yUveN7DP5jfenJw3ouzTNzhlyzdFU6I3WviPNzkXkjePmtA3\r\n7Mu1N7dDvDfU6Lo3DDqtN6CTnDcrkso31wq9NzVUszfoarE3E0rLN4o7xzcChaw3UrmwN2GntzfH\r\n2Kk3j3uiN4yltDf2Kqo3bvHaN1MmuTedz7c3QEKmN0JjsjemVMg3NS64N1C34Tf58LE33ouaN55s\r\nqDeI3MA3OafkN+U+0DdvQr83zX2uN3cVxDfXero3GzG/N7z7yDd7YcE3TwDDNyC0zjd6oKk3U+C4\r\nN+g00Te0C8Y3MvKlN5ZE4DfgO6E3BGe5N95VjjdBOaI3V6vANzRApzezHr0379usN6WXzTeV75E3\r\niCKXN8ixxDfZL8U3vRqmN03qxTfs1rY3+hilN9Q72zdG0q83ZsC8N8OOwDfco6s32TXKN050qTeG\r\nNc43FrqXNwzl0TeQ2bE3coO4N2senzcE4NE3N1ijN2LuqDfA+q03baPQN7G/qTdyFLI3D1W0NxLW\r\nojczhKs3JKq4N3sHrzfFKLo3PEixNwOmsjfqZbI3MrnRNwaKjDeOAaw3XYu8NwBM0TdKBLg3ya2U\r\nN5h6yzd6SLw3mqSdN23dkjdcLrE33KCnN5HX3jc7usk3GVO9NyO3rTdpebc3TBfQNwAIwzd5JoY+\r\n90P8Pnae5T4zvWc/vnDNQNaU6kHezlxAkNGtP/y5CkAzZq5ASLbaPvgBgD9+oI4/eo3ZQCNrI0BH\r\nAvs+rSlWPpLYGz+nJZw+TWRqPoU3sj4uqb8++yWfPjkZdj+AeFA/T/oOP6oPjz4tdlY/JapPPwrC\r\nQkA36DtBrf2WQDjEVUEmN4hBjnx3QURRmUDTs9VBzaGGQFne90AzqqVAQjhxP+hjeT++os4/RAgW\r\nP6PYZD/UYGE/2DmHP+rZnj8O2CxAK1NEP1NUGz/uIs8/lEeEP6yDWT+LwI8/tzZbP/jE0D6HmBo/\r\ngkTNPo/oEz/mPQ8/ufrwPvKypD/HKSNAIRtkQEuyST8mZQY/urKxPwd3PD8yDopABfhuPxCXPz/m\r\nGXE+5VkGPy1B5j8xdv8+nFCCPtjkLj+wFPs+Oj1nPnf3nz4ulrw9ySvVPa+bHT6yjTg+OIFVP4D6\r\nYj7Ro5k9goipPdA00j1Y5lo9ZVgJPtNetz7dbpA+fupaPkExJz4KRic9on4rPVJjLD5QD1s+XRQ2\r\nPaY5kT24uP08KPVRPaPhKD0wTbc9pARBPhHLBD5lY6g9K/niPFUf1j2TrQw9wo8zPXGgiD0wQOc9\r\nDJqKPsW+iz4vOxc/RujcPlIS9z5CxjU//EHTPFKUTT0/FZs+wVahPh9fuz7E02U/J4WrP8W+tT9m\r\nABE+lD8CPxuJDz77sUE8hTeuPrPGRj/M/Mg+3r0AQIqR1z6BT089Ay1dPUlwST3zxpg9ctqxPqji\r\nND93bCw/1qEbP23mwT+GZYs/GRqtP2k+bD9JXf09uiJWPjopij3m7708FfwWPvKz8j2Q7xM/LW8I\r\nP21rOj9U3QY/j4+MPleHBj1/E+A+GdPPPgpH6D4I0EA+7nOdPptQ8D2jg8U+JuECP6zX0z4BLPY+\r\n1k59P3Qj2D+flIdAOuG7QHm1PEF9wU1B+UZ5QTEzlkGEx6VBGkDiQZ/cAEKcRuxBXUbDQfEpQkE8\r\nspRBFsSKQenul0ECWr5BNTOaQUKavUHDd7hB2hOwQfokwkFKO8ZBsgrGQRMSGEEil5BB4ls5QUGA\r\nz0Cg5BRAYG4SQHH4JkA5zLI/URMLP/jVAj1RRug9JdvKPUNyAD3TY6Y9jgEVPsYe+D5sw9Y+eoPK\r\nPm7j7z7GjV0/Pv9sP4QP/T5UOx0+MWiUPlkKLz5p/tI8My2ePGixQT0TWEg9n/cHPW11mT14Zd49\r\nE0QOPcriaTwm67Y8QsE4Pb6hIjw1s7c8ec3MPJBXLz1Q/+c9soapPnV2IT/bf9o9XblWQKpxlD/R\r\nIWg/G+0FP+JXJkBiBho+sABcPm89dD8vO61AOp9gP6AHvj7VHqo/KllKQUzbbEDaE1FBm1ELQdrm\r\nAkGsFIJADOnhQKS0Q0FUS0JBFXEiQbgEBEGL2KRAsju0P2hhZz7nTiFAMcKEP1jf8j+0+sE+0c0P\r\nQAQRC0Bgrr8/2HiOP1UHsT54qh8/r46QPvPDYz4gBqU8WgY2Pm9sST44NfM+1E6zPUoUxz6PhJc+\r\ndf/FPXp61z2OHkc+VxjMPmYWxT+k+nZAIt4pQV70f0GOFLZBj/xoQiu4mEIafqxC+4OIQqcVj0Jw\r\nE2hCKHBcQkpwB0JFXBtCCp/UQRY11UF+9AlBdYiCQdwLQUH34xBBpvDWQDVrCEFV51pB9n6WQV+9\r\n2kEmDvxB9YcJQjBa9kFTiAFCV431QT008EF/WNFBajWtQfOxaUH5yH1BteNQQQfTeEHKlEhBbsc3\r\nQdWU/UAOGrJAq4ZmQIyCLUDXo7E/sxr1PzO6/T+SfRxA0CYlQGe+WEBlNyxALvENQDFX8D9UBNU/\r\nnsmwPw+Ynj9+4l4/KLE0P7Az/j5p/t0+bovDPggEkT5+TQU+H0DAPQoEdT0BiX09uO39PEEwFT2h\r\njZc8O+jnO0gRkTuxbHc7nJedOwqoFDuahW07s6buOkGo+DrGcrY6u3FjOhF/tDqvYGU5reNoOnbH\r\nDTnNkRY6gFjpOEHSIzoSvQM5M/c9OvpV7jhnXBw6b20HOSsO0jnOnpg5lP1MOXp+3jkbVbQ4abyf\r\nOTxqbjkJMTg5Zku7OTB7vji7vyM5xDjCOZD0kDnqCxY5++HiOIxoozjA0sc4+PCyOfn06DmbdQw5\r\nZFeQOEyMQTmmqOw40Q0DOS0TjTmbpqg4XnuHOA+5CDnqPqQ4MLy3OBwajjga0as4IuqHONWBjDi0\r\n/3w4cHR/OGBJgTiHDnk4j8N2OPh/cjilv4A45Pd9OIh/fDjGmr44UthLOTDODDm55m04NWQ1OU8+\r\nyzimWCU558Y4OUp0BznkX2U4NfLbOGoq0jgcOsY4YndeOCDhyDjCfSQ5W8ATOUBMhzlsQHc4WDNn\r\nOK6f3DimqKM4spwzOWJyFDkIwGQ4JL9kOAwbdjhQ02g4I/leONsXgDis50Y4zplbOGoKUDhd3Us4\r\nyKlxONI5WTj2y0E4zC9WODqxgTj83Gk4kIdLOObtajhSozs4YApGOBo4VziM+0E4hIdKOFQGMTio\r\nMVc45HdVOPjsTziTzEc4YspAODpMZjgaym04yu48OBgEYziWkT04s/tCOCweSziOBWY4UKNgOBhC\r\nUDjwUEE4PUNBOBpYWzgC/iA41bRMOEhRNThcQzg4UjR3OKLfMDjmPiE4BDJcOMdYQThaSUE4YAE9\r\nONzBPzgsOFs4AqtNONnsKDi0RSw4oC5HOG9MSjhgWCY4YiMkOIZHSzgbgjs40G06OAD5RDhmDjg4\r\nNBg+OMhMQTisEzE4YpJCOJ9bPjgohzI4nHVDOBJjQThqYjQ4hHMrOLhOHDgdYSY4zGAeOCT0JDiD\r\nxR44GHgqONoqMThQIyI4kJEoOJZzPjiqGj04qm4sOMEQLTgUATs46FgoOApxFDixpy04kJYlOEZ2\r\nKzjqiRQ4fpI1OB0XUTg+2zA4c/9yOMbOhjjypDM48ZkIODqqHTjeNTQ4lTgvOG6HFThxhR04uAIl\r\nONrhMThWXkI4MT8xOH1XJTh6gSA4EaokOD4WIDgHwxE4YpcVOMBFJTgUWBQ4ZMcSON6OGzi1+/Y3\r\nP2QcOG2PAzgc3RU4Tdg7OO0tCDiEug44ZJcPOAGgKTgm7vY3UlwUOJAmEji4gxQ45rkMOMfhKTh8\r\nNwU4XhgMOKptKDjduRo4PwQOOAYVKTiCrgk40PEOOKKpAThLnhc4mIMPOMwDEjjIjxU4SxoyOBy9\r\nBDh29Os3pBEbOJ4JCzgW8B444voVODnJAThTKwY4rLoOOPAVBjg8Ywg4KAUIOCvACjiajxA48m0U\r\nOPAd8jdSTA44nNnuNxl7CTgcqes3HMQDOI9dHTjlbQM493oOOBUrETghF/g3AKgMOKjuFDglxxk4\r\nCmz9N1I2ADgVpPo31PsTOCs6FTi8pAs4tXD0N0PhEjjE9yY4uBEKOJg66DfBXgI4/loAOPRrCjjJ\r\n5dc3ylINOGjRAThCpf43roIDOBil8TefcgM4oqYFOF2hAjhGIgc43HXvNzTTDTjMYe83ikYNOANV\r\nBzjA4u43JfUQOJTw4DcqkdM3HvXfN9DmADgbnOM3IQ8AOMqQ5TeEugw4/8/MN7RQ/DeRFe43a/wV\r\nOAPD9zdwSRM4IsHqN0EE4zcc0/I3Kp3mNzUM6Td75RQ4JFUCOCvbBDiYePY3NibvNzHv6TfSqv83\r\nzkzfN0dP2jd/++Y3c60DOF6D+zcvJwY4yrjsN9up3TcejAQ4skTmNxlEADhTn/A3n3nON6gY+DeY\r\nZgI4neb7NwlE+jc6TOs3Blf0N0TVwTdfW9U388L3NxNO6zc9zwM4BJTLNxJg9jdweO43WDj1N6E0\r\nyTcgJ8g3UQLrN+XM4zdZ3Pg3gw7MN7QD/DeGV/M3WDDgN7n0wzdyeeU3JVDgNyJW6DeCuuo3rnfW\r\nN/Ic1TdsLNc3xyPEN6Xe5DfGp783ElzWN9Ci6zdzGPQ3nZgAOLHD0jcEC843enzWNyLo7jfzjvU3\r\nPvHmN+SL3zdMjso3ZsLxN3wf9Tfv9N83OsfRN35o4Tcz7cc3KHXnN30I7zfVRAc4PLTYNzKczDeN\r\nHPs3UvjIN/iL2zfZUvY320m+NyBV4DeowPo3JMkDOEeM2Dfnr9c3VRzYN+bguzd0Y9E3d1/EN2I/\r\n4DcZHOE3SM3CN2oRsjeJfNg3yCL5N1YrvTeW+cg3+i7dN/Od+Dcgt7s3ktHSN65twjcag9g3ZsLF\r\nN7uDyzfNYsY3jKzNN9ndyzeE4Ns3j8vBN4hwxjfat703G0/mN0PDxzcH+8o3vhHFN8n47Td6NO43\r\nGPLdNwnOpzfiU+03Qbm3N+bj3DfH0Qo4tPrEN/AZwDfyVQI4QV27N3IGzTfQZbE3nBCqN2Hi1Tf+\r\n3dA3Fl7IN0SV0TfNl8U35mzXNzu1yTcVFec3OovvNyMB4zc14dE3tj2YN129qzeqlsI3oD7pN57k\r\nzzcQc7w3GEvGN0/M1DetE9A31VfNN+ldwDdD8cA35W28N0qpxTcUT7U3rlifN2bH2zeCWI83Qn0C\r\nOE7qqTfiI8c39o3oN/fNzTciBKE38pTCN7F3wjeo76o3Mc6aN8oOsDcQ59M3UMngN2fTtDdkOLo3\r\nzn2uNyihkDe2dLE3PK+5Nze/0TcVd5g30gKWNwLQtjexj+s3BFTEN+X/pTdMiYY3KHemN6sh2zdO\r\ni9A3a0uhNy3EyjePVMA3mTqZN6vKwjfdN6Y3BwapNwr84zdnvO83mG3vN4Xwrjem6pg3uu6sN+nX\r\nrDezKco3ORiYN5ZG3jd5rsM3Sh67NzFttTcGfrA3JSvwNzY1qjdHB7Y3jK+xN4dLyzdkdNA3O8Pf\r\nN5swxjcSpcA31m63N0XayjfJS943sM/mN96cnDei7NM3OGXLN0VTojda+I83OReSN4+a0Dfsy7U3\r\nt0O8N9ToujcMOq03oJOcNyuSyjfXCr03NVSzN+hqsTcTSss3ijvHNwKFrDdSubA3Yae3N8fYqTeP\r\ne6I3jKW0N/Yqqjdu8do3Uya5N53PtzdAQqY3QmOyN6ZUyDc1Lrg3ULfhN/nwsTfei5o3nmyoN4jc\r\nwDc5p+Q35T7QN29CvzfNfa43dxXEN9d6ujcbMb83vPvIN3thwTdPAMM3ILTON3qgqTdT4Lg36DTR\r\nN7QLxjcy8qU3lkTgN+A7oTcEZ7k33lWON0E5ojdXq8A3NECnN7MevTfv26w3pZfNN5XvkTeIIpc3\r\nyLHEN9kvxTe9GqY3TerFN+zWtjf6GKU31DvbN0bSrzdmwLw3w47AN9yjqzfZNco3TnSpN4Y1zjcW\r\nupc3DOXRN5DZsTdyg7g3ax6fNwTg0Tc3WKM3Yu6oN8D6rTdto9A3sb+pN3IUsjcPVbQ3EtaiNzOE\r\nqzckqrg3ewevN8Uoujc8SLE3A6ayN+plsjcyudE3BoqMN44BrDddi7w3AEzRN0oEuDfJrZQ3mHrL\r\nN3pIvDeapJ03bd2SN1wusTfcoKc3kdfeNzu6yTcZU703I7etN2l5tzdMF9A3AAjDNw==",
                            "noiseTrainingType" : "default"
                          }
                        }
                    ],
                    "start" : 9212,
                    "duration" : 433,
                    "mediaStart" : 7634,
                    "mediaDuration" : 433,
                    "scalar" : 1,
                    "metadata" : {
                      "WinSubProjectDisplayName" : "",
                      "clipSpeedAttribute" : false
                    },
                    "animationTracks" : {

                    }
                  }
                ]
              },
              {
                "trackIndex" : 3,
                "medias" : [
                ]
              },
              {
                "trackIndex" : 4,
                "medias" : [
                ]
              }
            ]
          }
        }
      ]
    },
    "trackAttributes" : [
      {
        "ident" : "",
        "audioMuted" : false,
        "videoHidden" : false,
        "magnetic" : false,
        "metadata" : {
          "IsLocked" : "False",
          "WinTrackHeight" : "56"
        }
      },
      {
        "ident" : "",
        "audioMuted" : false,
        "videoHidden" : false,
        "magnetic" : false,
        "metadata" : {
          "IsLocked" : "False",
          "WinTrackHeight" : "56"
        }
      },
      {
        "ident" : "",
        "audioMuted" : false,
        "videoHidden" : false,
        "magnetic" : false,
        "metadata" : {
          "IsLocked" : "False",
          "WinTrackHeight" : "56"
        }
      },
      {
        "ident" : "",
        "audioMuted" : false,
        "videoHidden" : false,
        "magnetic" : false,
        "metadata" : {
          "IsLocked" : "False",
          "WinTrackHeight" : "56"
        }
      },
      {
        "ident" : "",
        "audioMuted" : false,
        "videoHidden" : false,
        "magnetic" : false,
        "metadata" : {
          "IsLocked" : "False",
          "WinTrackHeight" : "56"
        }
      }
    ],
    "captionAttributes" : {
      "enabled" : true,
      "fontName" : "Arial",
      "fontSize" : 64,
      "backgroundColor" : [ 0, 0, 0, 191],
      "foregroundColor" : [ 255, 255, 255, 255],
      "lang" : "en",
      "alignment" : 0,
      "defaultFontSize" : true,
      "opacity" : 0.5,
      "backgroundEnabled" : true,
      "backgroundOnlyAroundText" : true
    },
    "backgroundColor" : [ 0, 0, 0, 255]
  },
  "metadata" : {
    "AutoSaveFile" : "C:\\Users\\Ding\\AppData\\Local\\TechSmith\\Camtasia Studio\\19.0\\Auto-Saves\\tower-columns6a13ab9.autosave.tscproj",
    "CanvasZoom" : 85,
    "Date" : "2020-02-03 07:52:38 PM",
    "Fit" : 0,
    "IsAutoSave" : "0",
    "Language" : "ENU",
    "ProfileName" : "MP4 only (up to 1080p)",
    "ProjectDimensionsChanged" : "1",
    "Title" : "tower-columns",
    "audioNarrationNotes" : "",
    "calloutStyle" : "Basic",
    "canvasDetached" : "False",
    "canvasPositionHeight" : "0",
    "canvasPositionLeft" : "0",
    "canvasPositionTop" : "0",
    "canvasPositionWidth" : "0"
  },
  "audioFormatSampleRate" : 44100
,
  "themeFile" : null

}
