{
  "title" : "",
  "description" : "",
  "author" : "",
  "targetLoudness" : -18.0,
  "shouldApplyLoudnessNormalization" : true,
  "videoFormatFrameRate" : 30,
  "audioFormatSampleRate" : 44100,
  "width" : 1920.0,
  "height" : 1080.0,
  "version" : "3.0",
  "editRate" : 30,
  "authoringClientName" :  {
    "name" : "Camtasia",
    "platform" : "Windows",
    "version" : "19.0"
  },
  "sourceBin" : [
    {
      "id" : 1,
      "src" : "E:\\Document\\Camtasia\\tower-01.trec",
      "rect" : [0, 0, 1920, 1080],
      "lastMod" : "20200204T115754",
      "sourceTracks" : [
        {
          "range" : [0, 9964],
          "type" : 0,
          "editRate" : 30,
          "trackRect" : [0, 0, 1920, 1080],
          "sampleRate" : 0,
          "bitDepth" : 0,
          "numChannels" : 0,
          "integratedLUFS" : 100.0,
          "peakLevel" : -1.0,
          "metaData" : "2b7b6a00-7a1f-11e2-83d0-0017f200be7f;2b7b6aef-7a1f-11e2-83d0-0017f200be7f;2b7b6af0-7a1f-11e2-83d0-0017f200be7f;2b7b6af1-7a1f-11e2-83d0-0017f200be7f;2b7b6af2-7a1f-11e2-83d0-0017f200be7f;2b7b6af3-7a1f-11e2-83d0-0017f200be7f;2b7b6af5-7a1f-11e2-83d0-0017f200be7f;2b7b6af6-7a1f-11e2-83d0-0017f200be7f;2b7b6af7-7a1f-11e2-83d0-0017f200be7f;2b7b6af8-7a1f-11e2-83d0-0017f200be7f;2b7b6af9-7a1f-11e2-83d0-0017f200be7f;2b7b6afa-7a1f-11e2-83d0-0017f200be7f;"
        },
        {
          "range" : [0, 14643200],
          "type" : 2,
          "editRate" : 44100,
          "trackRect" : [0, 0, 0, 0],
          "sampleRate" : 44100,
          "bitDepth" : 16,
          "numChannels" : 2,
          "integratedLUFS" : -9.20636080256561,
          "peakLevel" : 1.0,
          "metaData" : ""
        }
      ]
    },
    {
      "id" : 2,
      "src" : "E:\\Document\\Camtasia\\tower-02.trec",
      "rect" : [0, 0, 1920, 1080],
      "lastMod" : "20200204T121202",
      "sourceTracks" : [
        {
          "range" : [0, 9660],
          "type" : 0,
          "editRate" : 30,
          "trackRect" : [0, 0, 1920, 1080],
          "sampleRate" : 0,
          "bitDepth" : 0,
          "numChannels" : 0,
          "integratedLUFS" : 100.0,
          "peakLevel" : -1.0,
          "metaData" : "2b7b6a00-7a1f-11e2-83d0-0017f200be7f;2b7b6aef-7a1f-11e2-83d0-0017f200be7f;2b7b6af0-7a1f-11e2-83d0-0017f200be7f;2b7b6af1-7a1f-11e2-83d0-0017f200be7f;2b7b6af2-7a1f-11e2-83d0-0017f200be7f;2b7b6af3-7a1f-11e2-83d0-0017f200be7f;2b7b6af5-7a1f-11e2-83d0-0017f200be7f;2b7b6af6-7a1f-11e2-83d0-0017f200be7f;2b7b6af7-7a1f-11e2-83d0-0017f200be7f;2b7b6af8-7a1f-11e2-83d0-0017f200be7f;2b7b6af9-7a1f-11e2-83d0-0017f200be7f;2b7b6afa-7a1f-11e2-83d0-0017f200be7f;"
        },
        {
          "range" : [0, 14201856],
          "type" : 2,
          "editRate" : 44100,
          "trackRect" : [0, 0, 0, 0],
          "sampleRate" : 44100,
          "bitDepth" : 16,
          "numChannels" : 2,
          "integratedLUFS" : -9.11844440845683,
          "peakLevel" : 1.0,
          "metaData" : ""
        }
      ]
    },
    {
      "id" : 3,
      "src" : "E:\\Document\\Camtasia\\tower-03.trec",
      "rect" : [0, 0, 1920, 1080],
      "lastMod" : "20200204T122456",
      "sourceTracks" : [
        {
          "range" : [0, 7676],
          "type" : 0,
          "editRate" : 30,
          "trackRect" : [0, 0, 1920, 1080],
          "sampleRate" : 0,
          "bitDepth" : 0,
          "numChannels" : 0,
          "integratedLUFS" : 100.0,
          "peakLevel" : -1.0,
          "metaData" : "2b7b6a00-7a1f-11e2-83d0-0017f200be7f;2b7b6aef-7a1f-11e2-83d0-0017f200be7f;2b7b6af0-7a1f-11e2-83d0-0017f200be7f;2b7b6af1-7a1f-11e2-83d0-0017f200be7f;2b7b6af2-7a1f-11e2-83d0-0017f200be7f;2b7b6af3-7a1f-11e2-83d0-0017f200be7f;2b7b6af5-7a1f-11e2-83d0-0017f200be7f;2b7b6af6-7a1f-11e2-83d0-0017f200be7f;2b7b6af7-7a1f-11e2-83d0-0017f200be7f;2b7b6af8-7a1f-11e2-83d0-0017f200be7f;2b7b6af9-7a1f-11e2-83d0-0017f200be7f;2b7b6afa-7a1f-11e2-83d0-0017f200be7f;"
        },
        {
          "range" : [0, 11269120],
          "type" : 2,
          "editRate" : 44100,
          "trackRect" : [0, 0, 0, 0],
          "sampleRate" : 44100,
          "bitDepth" : 16,
          "numChannels" : 2,
          "integratedLUFS" : -9.52032298965421,
          "peakLevel" : 1.0,
          "metaData" : ""
        }
      ]
    },
    {
      "id" : 4,
      "src" : "E:\\Document\\Camtasia\\tower-04.trec",
      "rect" : [0, 0, 1920, 1080],
      "lastMod" : "20200204T123816",
      "sourceTracks" : [
        {
          "range" : [0, 15863],
          "type" : 0,
          "editRate" : 30,
          "trackRect" : [0, 0, 1920, 1080],
          "sampleRate" : 0,
          "bitDepth" : 0,
          "numChannels" : 0,
          "integratedLUFS" : 100.0,
          "peakLevel" : -1.0,
          "metaData" : "2b7b6a00-7a1f-11e2-83d0-0017f200be7f;2b7b6aef-7a1f-11e2-83d0-0017f200be7f;2b7b6af0-7a1f-11e2-83d0-0017f200be7f;2b7b6af1-7a1f-11e2-83d0-0017f200be7f;2b7b6af2-7a1f-11e2-83d0-0017f200be7f;2b7b6af3-7a1f-11e2-83d0-0017f200be7f;2b7b6af5-7a1f-11e2-83d0-0017f200be7f;2b7b6af6-7a1f-11e2-83d0-0017f200be7f;2b7b6af7-7a1f-11e2-83d0-0017f200be7f;2b7b6af8-7a1f-11e2-83d0-0017f200be7f;2b7b6af9-7a1f-11e2-83d0-0017f200be7f;2b7b6afa-7a1f-11e2-83d0-0017f200be7f;"
        },
        {
          "range" : [0, 23308288],
          "type" : 2,
          "editRate" : 44100,
          "trackRect" : [0, 0, 0, 0],
          "sampleRate" : 44100,
          "bitDepth" : 16,
          "numChannels" : 2,
          "integratedLUFS" : -9.37492668127343,
          "peakLevel" : 1.0,
          "metaData" : ""
        }
      ]
    },
    {
      "id" : 5,
      "src" : "E:\\Document\\Camtasia\\tower-05.trec",
      "rect" : [0, 0, 1920, 1080],
      "lastMod" : "20200204T125702",
      "sourceTracks" : [
        {
          "range" : [0, 15797],
          "type" : 0,
          "editRate" : 30,
          "trackRect" : [0, 0, 1920, 1080],
          "sampleRate" : 0,
          "bitDepth" : 0,
          "numChannels" : 0,
          "integratedLUFS" : 100.0,
          "peakLevel" : -1.0,
          "metaData" : "2b7b6a00-7a1f-11e2-83d0-0017f200be7f;2b7b6aef-7a1f-11e2-83d0-0017f200be7f;2b7b6af0-7a1f-11e2-83d0-0017f200be7f;2b7b6af1-7a1f-11e2-83d0-0017f200be7f;2b7b6af2-7a1f-11e2-83d0-0017f200be7f;2b7b6af3-7a1f-11e2-83d0-0017f200be7f;2b7b6af5-7a1f-11e2-83d0-0017f200be7f;2b7b6af6-7a1f-11e2-83d0-0017f200be7f;2b7b6af7-7a1f-11e2-83d0-0017f200be7f;2b7b6af8-7a1f-11e2-83d0-0017f200be7f;2b7b6af9-7a1f-11e2-83d0-0017f200be7f;2b7b6afa-7a1f-11e2-83d0-0017f200be7f;"
        },
        {
          "range" : [0, 23220224],
          "type" : 2,
          "editRate" : 44100,
          "trackRect" : [0, 0, 0, 0],
          "sampleRate" : 44100,
          "bitDepth" : 16,
          "numChannels" : 2,
          "integratedLUFS" : -9.33273534961097,
          "peakLevel" : 1.0,
          "metaData" : ""
        }
      ]
    },
    {
      "id" : 6,
      "src" : "E:\\Document\\Camtasia\\tower-06.trec",
      "rect" : [0, 0, 1920, 1080],
      "lastMod" : "20200204T133842",
      "sourceTracks" : [
        {
          "range" : [0, 169],
          "type" : 0,
          "editRate" : 30,
          "trackRect" : [0, 0, 1920, 1080],
          "sampleRate" : 0,
          "bitDepth" : 0,
          "numChannels" : 0,
          "integratedLUFS" : 100.0,
          "peakLevel" : -1.0,
          "metaData" : "2b7b6a00-7a1f-11e2-83d0-0017f200be7f;2b7b6aef-7a1f-11e2-83d0-0017f200be7f;2b7b6af0-7a1f-11e2-83d0-0017f200be7f;2b7b6af1-7a1f-11e2-83d0-0017f200be7f;2b7b6af2-7a1f-11e2-83d0-0017f200be7f;2b7b6af3-7a1f-11e2-83d0-0017f200be7f;2b7b6af5-7a1f-11e2-83d0-0017f200be7f;2b7b6af6-7a1f-11e2-83d0-0017f200be7f;2b7b6af7-7a1f-11e2-83d0-0017f200be7f;2b7b6af8-7a1f-11e2-83d0-0017f200be7f;2b7b6af9-7a1f-11e2-83d0-0017f200be7f;2b7b6afa-7a1f-11e2-83d0-0017f200be7f;"
        },
        {
          "range" : [0, 243712],
          "type" : 2,
          "editRate" : 44100,
          "trackRect" : [0, 0, 0, 0],
          "sampleRate" : 44100,
          "bitDepth" : 16,
          "numChannels" : 2,
          "integratedLUFS" : -11.7971670946103,
          "peakLevel" : 0.997344970703125,
          "metaData" : ""
        }
      ]
    },
    {
      "id" : 7,
      "src" : "E:\\Document\\Camtasia\\tower-07.trec",
      "rect" : [0, 0, 1920, 1080],
      "lastMod" : "20200204T134026",
      "sourceTracks" : [
        {
          "range" : [0, 1571],
          "type" : 0,
          "editRate" : 30,
          "trackRect" : [0, 0, 1920, 1080],
          "sampleRate" : 0,
          "bitDepth" : 0,
          "numChannels" : 0,
          "integratedLUFS" : 100.0,
          "peakLevel" : -1.0,
          "metaData" : "2b7b6a00-7a1f-11e2-83d0-0017f200be7f;2b7b6aef-7a1f-11e2-83d0-0017f200be7f;2b7b6af0-7a1f-11e2-83d0-0017f200be7f;2b7b6af1-7a1f-11e2-83d0-0017f200be7f;2b7b6af2-7a1f-11e2-83d0-0017f200be7f;2b7b6af3-7a1f-11e2-83d0-0017f200be7f;2b7b6af5-7a1f-11e2-83d0-0017f200be7f;2b7b6af6-7a1f-11e2-83d0-0017f200be7f;2b7b6af7-7a1f-11e2-83d0-0017f200be7f;2b7b6af8-7a1f-11e2-83d0-0017f200be7f;2b7b6af9-7a1f-11e2-83d0-0017f200be7f;2b7b6afa-7a1f-11e2-83d0-0017f200be7f;"
        },
        {
          "range" : [0, 2294784],
          "type" : 2,
          "editRate" : 44100,
          "trackRect" : [0, 0, 0, 0],
          "sampleRate" : 44100,
          "bitDepth" : 16,
          "numChannels" : 2,
          "integratedLUFS" : -9.33067687422171,
          "peakLevel" : 1.0,
          "metaData" : ""
        }
      ]
    }
  ],
  "timeline" : {
    "id" : 8,
    "sceneTrack" : {
      "scenes" : [
        {
          "duration" : 775.533333333333,
          "title" : "",
          "type" : "",
          "csml" : {
            "tracks" : [
              {
                "trackIndex" : 0,
                "medias" : [
                  {
                    "id" : 9,
                    "_type" : "StitchedMedia",
                    "minMediaStart" : 0,
                    "attributes" : {
                      "ident" : "tower-01",
                      "gain" : 1.0,
                      "mixToMono" : false
                    },
                    "parameters" : {
                      "volume" : 1.0,
                      "cursorOpacity" : 1.0,
                      "cursorScale" : 1.0
                    },
                    "medias" : [
                        {
                          "id" : 10,
                          "_type" : "UnifiedMedia",
                          "video" : 
                              {
                                "id" : 11,
                                "_type" : "ScreenVMFile",
                                "src" : 1,
                                "trackNumber" : 0,
                                "attributes" : {
                                  "ident" : "Rec 02-04-20_003"
                                },
                                "parameters" : {
                                  "cursorScale" : {
                                    "type" : "double",
                                    "defaultValue" : 0.0,
                                    "interp" : "linr"
                                  },
                                  "cursorOpacity" : {
                                    "type" : "double",
                                    "defaultValue" : 0.0,
                                    "interp" : "linr"
                                  }
                                },
                                "effects" : [

                                ],
                                "start" : 0,
                                "duration" : 552,
                                "mediaStart" : 0,
                                "mediaDuration" : 552,
                                "scalar" : 1,
                                "animationTracks" : {

                                }
                              },
                          "audio" : 
                              {
                                "id" : 12,
                                "_type" : "AMFile",
                                "src" : 1,
                                "trackNumber" : 1,
                                "attributes" : {
                                  "ident" : "",
                                  "sampleRate" : 44100,
                                  "bitDepth" : 16,
                                  "gain" : 1.0,
                                  "mixToMono" : false
                                },
                                  "channelNumber" : "0,1",
                                "effects" : [

                                ],
                                "start" : 0,
                                "duration" : 552,
                                "mediaStart" : 0,
                                "mediaDuration" : 552,
                                "scalar" : 1,
                                "animationTracks" : {

                                }
                              }
,
                          "start" : 0,
                          "duration" : 552,
                          "mediaStart" : 0,
                          "mediaDuration" : 9961,
                          "scalar" : 1,
                          "metadata" : {
                            "AutoAppliedSmartFocus" : "False",
                            "WinSubProjectDisplayName" : "",
                            "clipSpeedAttribute" : false
                          }
                        },
                        {
                          "id" : 13,
                          "_type" : "UnifiedMedia",
                          "video" : 
                              {
                                "id" : 14,
                                "_type" : "ScreenVMFile",
                                "src" : 1,
                                "trackNumber" : 0,
                                "attributes" : {
                                  "ident" : "Rec 02-04-20_003"
                                },
                                "parameters" : {
                                  "cursorScale" : {
                                    "type" : "double",
                                    "defaultValue" : 0.0,
                                    "interp" : "linr"
                                  },
                                  "cursorOpacity" : {
                                    "type" : "double",
                                    "defaultValue" : 0.0,
                                    "interp" : "linr"
                                  }
                                },
                                "effects" : [

                                ],
                                "start" : 552,
                                "duration" : 312,
                                "mediaStart" : 745,
                                "mediaDuration" : 312,
                                "scalar" : 1,
                                "animationTracks" : {

                                }
                              },
                          "audio" : 
                              {
                                "id" : 15,
                                "_type" : "AMFile",
                                "src" : 1,
                                "trackNumber" : 1,
                                "attributes" : {
                                  "ident" : "",
                                  "sampleRate" : 44100,
                                  "bitDepth" : 16,
                                  "gain" : 1.0,
                                  "mixToMono" : false
                                },
                                  "channelNumber" : "0,1",
                                "effects" : [

                                ],
                                "start" : 552,
                                "duration" : 312,
                                "mediaStart" : 745,
                                "mediaDuration" : 312,
                                "scalar" : 1,
                                "animationTracks" : {

                                }
                              }
,
                          "start" : 552,
                          "duration" : 312,
                          "mediaStart" : 0,
                          "mediaDuration" : 9961,
                          "scalar" : 1,
                          "metadata" : {
                            "AutoAppliedSmartFocus" : "False",
                            "WinSubProjectDisplayName" : "",
                            "clipSpeedAttribute" : false
                          }
                        },
                        {
                          "id" : 16,
                          "_type" : "UnifiedMedia",
                          "video" : 
                              {
                                "id" : 17,
                                "_type" : "ScreenVMFile",
                                "src" : 1,
                                "trackNumber" : 0,
                                "attributes" : {
                                  "ident" : "Rec 02-04-20_003"
                                },
                                "parameters" : {
                                  "cursorScale" : {
                                    "type" : "double",
                                    "defaultValue" : 0.0,
                                    "interp" : "linr"
                                  },
                                  "cursorOpacity" : {
                                    "type" : "double",
                                    "defaultValue" : 0.0,
                                    "interp" : "linr"
                                  }
                                },
                                "effects" : [

                                ],
                                "start" : 864,
                                "duration" : 168,
                                "mediaStart" : 1271,
                                "mediaDuration" : 168,
                                "scalar" : 1,
                                "animationTracks" : {

                                }
                              },
                          "audio" : 
                              {
                                "id" : 18,
                                "_type" : "AMFile",
                                "src" : 1,
                                "trackNumber" : 1,
                                "attributes" : {
                                  "ident" : "",
                                  "sampleRate" : 44100,
                                  "bitDepth" : 16,
                                  "gain" : 1.0,
                                  "mixToMono" : false
                                },
                                  "channelNumber" : "0,1",
                                "effects" : [

                                ],
                                "start" : 864,
                                "duration" : 168,
                                "mediaStart" : 1271,
                                "mediaDuration" : 168,
                                "scalar" : 1,
                                "animationTracks" : {

                                }
                              }
,
                          "start" : 864,
                          "duration" : 168,
                          "mediaStart" : 0,
                          "mediaDuration" : 9961,
                          "scalar" : 1,
                          "metadata" : {
                            "AutoAppliedSmartFocus" : "False",
                            "WinSubProjectDisplayName" : "",
                            "clipSpeedAttribute" : false
                          }
                        },
                        {
                          "id" : 19,
                          "_type" : "UnifiedMedia",
                          "video" : 
                              {
                                "id" : 20,
                                "_type" : "ScreenVMFile",
                                "src" : 1,
                                "trackNumber" : 0,
                                "attributes" : {
                                  "ident" : "Rec 02-04-20_003"
                                },
                                "parameters" : {
                                  "cursorScale" : {
                                    "type" : "double",
                                    "defaultValue" : 0.0,
                                    "interp" : "linr"
                                  },
                                  "cursorOpacity" : {
                                    "type" : "double",
                                    "defaultValue" : 0.0,
                                    "interp" : "linr"
                                  }
                                },
                                "effects" : [

                                ],
                                "start" : 1032,
                                "duration" : 397,
                                "mediaStart" : 1777,
                                "mediaDuration" : 397,
                                "scalar" : 1,
                                "animationTracks" : {

                                }
                              },
                          "audio" : 
                              {
                                "id" : 21,
                                "_type" : "AMFile",
                                "src" : 1,
                                "trackNumber" : 1,
                                "attributes" : {
                                  "ident" : "",
                                  "sampleRate" : 44100,
                                  "bitDepth" : 16,
                                  "gain" : 1.0,
                                  "mixToMono" : false
                                },
                                  "channelNumber" : "0,1",
                                "effects" : [

                                ],
                                "start" : 1032,
                                "duration" : 397,
                                "mediaStart" : 1777,
                                "mediaDuration" : 397,
                                "scalar" : 1,
                                "animationTracks" : {

                                }
                              }
,
                          "start" : 1032,
                          "duration" : 397,
                          "mediaStart" : 0,
                          "mediaDuration" : 9961,
                          "scalar" : 1,
                          "metadata" : {
                            "AutoAppliedSmartFocus" : "False",
                            "WinSubProjectDisplayName" : "",
                            "clipSpeedAttribute" : false
                          }
                        },
                        {
                          "id" : 22,
                          "_type" : "UnifiedMedia",
                          "video" : 
                              {
                                "id" : 23,
                                "_type" : "ScreenVMFile",
                                "src" : 1,
                                "trackNumber" : 0,
                                "attributes" : {
                                  "ident" : "Rec 02-04-20_003"
                                },
                                "parameters" : {
                                  "cursorScale" : {
                                    "type" : "double",
                                    "defaultValue" : 0.0,
                                    "interp" : "linr"
                                  },
                                  "cursorOpacity" : {
                                    "type" : "double",
                                    "defaultValue" : 0.0,
                                    "interp" : "linr"
                                  }
                                },
                                "effects" : [

                                ],
                                "start" : 1429,
                                "duration" : 265,
                                "mediaStart" : 2259,
                                "mediaDuration" : 265,
                                "scalar" : 1,
                                "animationTracks" : {

                                }
                              },
                          "audio" : 
                              {
                                "id" : 24,
                                "_type" : "AMFile",
                                "src" : 1,
                                "trackNumber" : 1,
                                "attributes" : {
                                  "ident" : "",
                                  "sampleRate" : 44100,
                                  "bitDepth" : 16,
                                  "gain" : 1.0,
                                  "mixToMono" : false
                                },
                                  "channelNumber" : "0,1",
                                "effects" : [

                                ],
                                "start" : 1429,
                                "duration" : 265,
                                "mediaStart" : 2259,
                                "mediaDuration" : 265,
                                "scalar" : 1,
                                "animationTracks" : {

                                }
                              }
,
                          "start" : 1429,
                          "duration" : 265,
                          "mediaStart" : 0,
                          "mediaDuration" : 9961,
                          "scalar" : 1,
                          "metadata" : {
                            "AutoAppliedSmartFocus" : "False",
                            "WinSubProjectDisplayName" : "",
                            "clipSpeedAttribute" : false
                          }
                        },
                        {
                          "id" : 25,
                          "_type" : "UnifiedMedia",
                          "video" : 
                              {
                                "id" : 26,
                                "_type" : "ScreenVMFile",
                                "src" : 1,
                                "trackNumber" : 0,
                                "attributes" : {
                                  "ident" : "Rec 02-04-20_003"
                                },
                                "parameters" : {
                                  "cursorScale" : {
                                    "type" : "double",
                                    "defaultValue" : 0.0,
                                    "interp" : "linr"
                                  },
                                  "cursorOpacity" : {
                                    "type" : "double",
                                    "defaultValue" : 0.0,
                                    "interp" : "linr"
                                  }
                                },
                                "effects" : [

                                ],
                                "start" : 1694,
                                "duration" : 193,
                                "mediaStart" : 2551,
                                "mediaDuration" : 193,
                                "scalar" : 1,
                                "animationTracks" : {

                                }
                              },
                          "audio" : 
                              {
                                "id" : 27,
                                "_type" : "AMFile",
                                "src" : 1,
                                "trackNumber" : 1,
                                "attributes" : {
                                  "ident" : "",
                                  "sampleRate" : 44100,
                                  "bitDepth" : 16,
                                  "gain" : 1.0,
                                  "mixToMono" : false
                                },
                                  "channelNumber" : "0,1",
                                "effects" : [

                                ],
                                "start" : 1694,
                                "duration" : 193,
                                "mediaStart" : 2551,
                                "mediaDuration" : 193,
                                "scalar" : 1,
                                "animationTracks" : {

                                }
                              }
,
                          "start" : 1694,
                          "duration" : 193,
                          "mediaStart" : 0,
                          "mediaDuration" : 9961,
                          "scalar" : 1,
                          "metadata" : {
                            "AutoAppliedSmartFocus" : "False",
                            "WinSubProjectDisplayName" : "",
                            "clipSpeedAttribute" : false
                          }
                        },
                        {
                          "id" : 28,
                          "_type" : "UnifiedMedia",
                          "video" : 
                              {
                                "id" : 29,
                                "_type" : "ScreenVMFile",
                                "src" : 1,
                                "trackNumber" : 0,
                                "attributes" : {
                                  "ident" : "Rec 02-04-20_003"
                                },
                                "parameters" : {
                                  "cursorScale" : {
                                    "type" : "double",
                                    "defaultValue" : 0.0,
                                    "interp" : "linr"
                                  },
                                  "cursorOpacity" : {
                                    "type" : "double",
                                    "defaultValue" : 0.0,
                                    "interp" : "linr"
                                  }
                                },
                                "effects" : [

                                ],
                                "start" : 1887,
                                "duration" : 7142,
                                "mediaStart" : 2819,
                                "mediaDuration" : 7142,
                                "scalar" : 1,
                                "animationTracks" : {

                                }
                              },
                          "audio" : 
                              {
                                "id" : 30,
                                "_type" : "AMFile",
                                "src" : 1,
                                "trackNumber" : 1,
                                "attributes" : {
                                  "ident" : "",
                                  "sampleRate" : 44100,
                                  "bitDepth" : 16,
                                  "gain" : 1.0,
                                  "mixToMono" : false
                                },
                                  "channelNumber" : "0,1",
                                "effects" : [

                                ],
                                "start" : 1887,
                                "duration" : 7142,
                                "mediaStart" : 2819,
                                "mediaDuration" : 7142,
                                "scalar" : 1,
                                "animationTracks" : {

                                }
                              }
,
                          "start" : 1887,
                          "duration" : 7142,
                          "mediaStart" : 0,
                          "mediaDuration" : 9961,
                          "scalar" : 1,
                          "metadata" : {
                            "AutoAppliedSmartFocus" : "False",
                            "WinSubProjectDisplayName" : "",
                            "clipSpeedAttribute" : false
                          }
                        }
                    ],
                    "effects" : [
                        {
                          "effectName" : "NoiseReduction",
                          "category" : "categoryAudioEffects",
                          "parameters" : {
                            "denoiserAmount" : 20.0,
                            "denoiserThreshold" : 0.0,
                            "noiseProfile" : "ehKgPn9kAz8cBEo/2q0yP4rc5kA0Q7JCpPdrQezjHUAF54s/lk4IQTz2aT+/j6NAMtYfP8GLoD7U\r\n44E/wv1cPth60T7qRTc/5MtIP2IvbkBANrI/jrUbQPM/XUBzfa9ALlvDQGbiHkACoaBA+JE7QByH\r\nEEClimZACKKLQOFZKUD+mPVA8UGeQQvYWUEMc/VAM5ldP1QfiD/NZHg/6CYfP7eB6D+BihtAIfE9\r\nQRXijEF1j/tANISCQOjYvD8h5HE/WHxLQL3+lUA+qyZA558kQairf0Dy7NM/srd/QEXZGz9agi0/\r\nVfKyPo12Hz9u5MY+34uEQKlFTj/wkk9AY1IZP7aHij9b7gBBsPCEQZ177kHqgMdBbqLbQGiJE0Cq\r\nsyBA3nnjQTvBoEJ6gZVCupCmQdYfWEGk/25An50TQZpIeT/yEhdB3hagQcbpkkLBv8ZB6LQ4Qb7j\r\nK0Hna2FBQtGAQtnF60FdBCRBvanUQOP04EHxrFFBgQ1TQGMpF0GIT7xAzMHVQB93Y0EIsGFAQyog\r\nQIYeUkCF4Kg/uBl2QC/JAEBCB/k/YrP0P2nCr0C7bG5ABHHEPwHn3z/X5lw+NLHQPiDI9T31w3g+\r\nDCLSPt3dqD25vQI+vplzPrqOw0BiljM+a36NPpbqtj1sfVU9B2j5PhGmlz9yxnA+TtKIPVhbdT3m\r\nw5g9JQvaPV2Iqj60JNI+5jxOP6zmvD76TXc/cJG8QGUl4EBlO4tAnr1VQI6zwUB5ufJBX4SKQcx0\r\n6kFDWtdAQZaEQbW84EES0S9AGqpGQGdzvkACMDtBctCfQGYSrD/5p78/JKo3QevVEUDLhZk/gjMo\r\nQY4OJUGVNhpC4kUtQuyaukBpFnFAIiGPQTBs0UGKFP5BwhikQX+JBkH5WxJCcTDnQoxkNEI30IZB\r\nbX/LQT50vkH60YtBDIPuQbzZLEKJE6ZBRenhQSpK7UEv3VxB2eqFQtLMaUJYNBZBttIqQaK/rkBZ\r\ncIRA1EnaQAJrWkCvIAU/MYkMPyRTJj+bBhw+QHslP3Cp3j2t94o+Q0XfPXDH5j3d5xg+4sMEPuzh\r\nBD9CFLo+/Z+LPv30ZT6wswI/0mkNPxb5gD8qp54/lw6jP0kKEkA+OQ9AoizdP3n6hUCwkKVA1TXP\r\nQBG2e0FlsJBAnWOvQObCPUFtPuJBp/6gQMd/GUFeww1B5RUSQY6ly0Fub6FBqysdQRA0o0ClMoRA\r\nLNkIQd72n0DfDYA/TBsvQDwI7j7k+QVBc6wMQDVDvz/VybhAkiYvQYrZukCA9yZA7HgFP7K9UUAc\r\nR5ZAXzvGP+EPGT8kwF8+OLB6Pkf6Kj59e2A/9WX1PgXS1j4qEzc+J4WLPZ7g6D3I4vw8zLWPPjQR\r\nDj056bQ8uxYIPQxfPz29dYU+LR34PkII1D3OJWE+nnoXPtSGdT74znc+w9llPokWKT7QFR0+0bLF\r\nPar5Pj6YfIc9K5BJPXuWBz9osl8/3lqZPhBgpj+t7ZA+/VgdP31QfT+WBS1AvodYP02dHz8g9C0/\r\nmov0PgMfWj9TaI4//NFgP1XwGz8PxAY/uBFdP8CMcj4k6eg9vk07Ph0POz7i4u89ormNPqLMLz5m\r\n9Jg+Oe+ZPhWVJz5ajBI/n7mnPsrRLj6IDB09k6e1PhRchz50nsg+Dsv4P1e+Dz92Ka4/AHQFP9lT\r\nEUDINL0/FEiwPgl4MEAQMxA/XL+DP23m7z6SKk8/YI+qPskUGD+T4Ys+/t+FPrUPQD8gF509Nz/H\r\nPWT9wj5n4Ok97BYiPo0lDT1bE0Q+jTA/Pt4ddTwG46c8+J/EPAsC1zxpl4Y8prZnPLKDiDzPMl49\r\nUqaWPFHlgT3rghY8aECBO6C4JTtvIBM8b0UFPECrlTuqi407VIAtPAEncjvwBGo7CwTsO9iwODsr\r\ncF47tE/0Ou55ljsaKII70nuIO6bbNDsmkyc7dGHqOqPACjunKRw7wJMMOz3uDzujZw079AkRO66l\r\nFTuUmBM78gMKOyRbFDt+CxM7DEoRO7L5DDtE5hM74hIGOyG7AzugHwY7rnQHO9QzCzv45gM7IikO\r\nOzqVCjuTCwU7YVIBOyg4BDtY0wM71Aj/Onr0+zqmefE6LCrxOhb56zqIbvI6qAnuOuoW6TqRwus6\r\nYFjsOlil5zr49ek6u6XoOn4k5zr+BOE68kfiOpxS2DoY1Nk6CVzYOlpS2Tr6AdY6piXYOvPE0zpD\r\ntdc68tHOOqSA0TpubMg6HV3OOpgBwzqMos46r4HGOk+dzDpC48w6PAXAOvYtzTqA9L46wgHHOuL+\r\nujoUqLI6tFzEOtaTsjrSALQ6BwXWOtx4uDqkFrg6iOirOuZTpzoCPLI6bCmzOrJOsToBubU6Epyx\r\nOgjqtDoM2a463byrOulnoDrIZqw6zu+nOtC8pTo21qk6iZewOgnpqzpFKKo6tKyoOuzGmzr+l6s6\r\nFKOaOnxZozoo1qQ6ozOcOgR8mToYPKE6yrCZOnvhpDr8QaQ6QvmbOgKJkzpyRp86BUqOOseGnjp2\r\n45M6DX2cOgKXmzpEJ5U6EbKVOmDOjjra65s6zd2OOvXPljrX54k68ZmSOsoUkzqq1IY6AFyIOi/P\r\njDrImYY6dlWPOqopjDpXGoo6OE+EOkqghzoR/Ic63G6EOj81gjrCr4Q6DIqHOg3rgzr43IM6XQt9\r\nOmMniDqM9oc6mt1WOvLEkDqx5IE6edpsOjqwWTrVBy46vsw2OoKHcjoo8Go62Q+aOncZhTqQgX46\r\n0iN/OujhhzrU74o6jhWDOgB/czoixXU6EjCDOtTrfjpzm3k68hN3OijPbDrIelE6B8BMOkWgZDq0\r\nAHU64E2IOqEqKzoY9GA6xvdYOko+mDpulWQ60m6EOhTPaToJ+3w6U+tPOrzvejpGanM6yJ1kOpOW\r\ndjomNm46JEhwOv2AWjrG0GM6LMpkOuLSWjrYy186CA5nOkCNYjqmOmU68TZcOmpZWToirFw6yENg\r\nOgImXDp2OWQ6GBNeOsClWDoNSl46fnxZOgg8TDpskIg6/vtXOrrxUjraBnI6hMBMOvw9bzrWyoE6\r\nHH2QOkH2Dzr0PXo67Fk7OnJ/eTpfHIg6jKUXOuIdGDrA0Fk6SOAeOnIqOTr2mD86SdpPOhN3Ljpf\r\nrD864JBGOv8CVjrVMk06MMZVOvIaSjoVfEo6t6pIOlVASzq7sUQ6xFFGOgJWSTo+ckY68ExHOk70\r\nPzoDCEE689JJOvD9PDpyF0c6iK4iOnnYQjq8Zjw6JsRJOjqKLjqZ3zk6wo44OglJOTpoLDk6peM1\r\nOrQfPjpyhjs6o1s2Ou4fODpmcDI6LH80OjpyMjq7MjY6RtgyOmKyNDpI7i86yvM5OmLTNjrQoTI6\r\nLH8yOgQMMDryozE6wEw1OvJ4KTp1dTQ6Q68yOoaAMzq4KDE69b0nOtnJLDoRki06MIMsOkrlMDpW\r\ndCo6rUcsOjSjMDq/Myw6DCwpOgizLDrGHys6LqQpOh8SJzpTOCo6pJMmOigVKzr/HCs6Hj8cOgWv\r\nJDo2VyQ6HoIjOgi1KDpOcyU6ayIjOhnSIToMnig6L0MnOlApJDqq+yU6lbEfOj1tKDp1tyI6xgEf\r\nOjPFIjrjayM6EqAgOqKZIjq7RyA6CJodOgC8HzoveRk6izkcOrpwHzo/Dxs6VqkcOluuHDoylRw6\r\nSwAeOo5mHDpq2hg6BiUZOujWFzo+Wxw6NmwcOtl7GTpqBxc6N4wYOuEpITogFR068NYhOobRGzps\r\nlhg6qM8WOua+Fjo+8xU6gYgWOiR0FDrwShw6ersWOnGCFDpQ/hg6U7oUOlXZGTrFNxQ65bcTOuiD\r\nHTrpdxg6yfQYOg5JGDpaUBQ6cPcSOlG8FjqH9Q461igZOgWhETqOoRY6Cz0OOizREDrXvRQ6bI4K\r\nOhgbDzrveA06tfUNOqjjEzqYzg46nIgROmgYCjomHgw6HlcNOrF6ETqL6Qk62fQJOlGYDjq7Igw6\r\nvJMQOkHdDzrsDAg6DokFOrtpDjr3egw60lMPOtCqDDogSwk6hnIHOpfADTqSQAg6wLoIOm9zCTrJ\r\neg06FfsEOuxBDjpAcws6HyMNOgaUCDr3NgQ6x0kDOmEiCzoL3Qs65iIGOnNfDjo2VQc6bFMJOuw6\r\nATo7LQM6b1sKOvnuADrBsQk69HoIOqwxBTrQJgc6DN4LOl7oBzoLSQI6yLkEOlceBTrPoQI6rlcI\r\nOv/6BTo+kAc6pG4COtzqBjpDAQc6VW0AOkBICDrkjAQ6QgIEOnOpBzrZlQU6fzQCOmmKAjq4yQI6\r\nSO4BOuaHBTqOQgI61/kCOnNLBDrOvQM6JuX9OXpQ+Dmi6AI6DDsAOq9YAjqH3v85q6EEOuujATqO\r\nMPw5+mgCOqMJATpSWQI68v8GOtECAzo6wQA6MuoBOq5r+DmWRQA6Jw79OSGjAjpSh+05Dp78OW/L\r\n/DlKO/45r93yOd4BATr49gA6DIYBOl3B9Tny8fs5gev0ORG79DlaZ/M5Rlj1ORrI7zkVz/o5u8/2\r\nOXCG/TlZTfQ51t78OY7C/TlyHPM5PAX9OSrS9zlMD/s5XZ7+Ob3m/DkCEPQ5yKH6OUbl+Tlw5vU5\r\nPKL3OY5c7DlutfU5jdX7ORxG7zkMQOo5zdztORUk8jmiyfI5r1zsOTWQ9znGfvk5wJTjOUFc9DnE\r\nC+c5nHPwOQ3j9DlOgu85Tgz8ORdX6jljJ/A5DT38ORHj6TkqHfA5eKL0OXB17jlaGek5R0HoOZv9\r\n6jmyRvA5SBTzObHB5znGGew5O+zpOcsm8jlN7PI5Ak/xOVrR7jkelfE5TNDrOQtH7DmaDeY5qqnx\r\nOT2+9Tmc8ek5z6PyObG58jmBifk53ODqOWU98DmjPPE5bmHkOVc+6Tkep+45l9btOWkG6Tn/wu05\r\n5MnqOaXS7TnAD+055yPtOaoZ7Tljm+w58ubsOd8I8znzp+w5eVjuOYD27Tn6NOw5DqTmOXro5TlN\r\navY5TkjvOeEI4zlaMuI58NDiORvN7TnDi+c5y+TqOQjF8znWo9o5AjrxOblh3jkdLfU5sX7lOXkF\r\n8jk6/eA523bmOZjc6jnxnuc5KTTlOW5S4TkZPPE5O9bhOeWP5znFpN85hOniOTTv5DkALuU5jZXu\r\nOdgu6Tl+A+w5ZmjoOZcY3jldVeU5pmbgOTBZ5jlXcOs5d6fpOZkI+TmLKeg5G6bqOeDB6jminPU5\r\n0U/fOXg85TkkteM5MMXiOYEJ5jnx6t857SLmOQkM4TkTNug5wdPtOdYl5znoTuw57HTjObM+9DkN\r\nEuQ5jubuOVnr5jllBus5aA3pOYd+4zms9uU5wBXoObt05DlE8eM5ICvmOYZE4TlV4+o5DYjmOdfk\r\n3DlUp+k5eZTeOUhU4DkN5Oc5J47rOeBD4DlA0+E5kP7lOYM25Tk2wO45aEndOeWx3TnfFOM5BS7j\r\nORF04zmRaeQ5r6zkOYAD4TmEGOM5L7PcOc4I4jmdrt05WlbXOS6W5jkcMOc5S7TjOSAe4Tl6EqA+\r\n2lIDP6YTSj8ymjI/otPmQEhCskKk92tBMPEdQAXniz+7UAhBPPZpP7+Po0Ay1h8/wYugPonBgT/C\r\n/Vw+2HrRPupFNz/ky0g/Yi9uQEA2sj+OtRtA8z9dQHN9r0D2YMNAZuIeQAKhoED4kTtAHIcQQAeC\r\nZkDAn4tA4VkpQBSY9UDZQZ5BC9hZQcF+9UAzmV0/VB+IP81keD/oJh8/JIroP4GKG0Ah8T1BFeKM\r\nQXWP+0A0hIJA6Ni8PyHkcT9YfEtAvf6VQD6rJkDnnyRBqKt/QPLs0z+yt39ARdkbP1qCLT8q9rI+\r\nYW0fP27kxj7fi4RAqUVOP0qNT0BjUhk/vJGKP1vuAEGw8IRBnXvuQeqAx0FuottAaIkTQKqzIEDe\r\neeNBO8GgQgiDlUK6kKZB1h9YQaT/bkCfnRNBmkh5P/ISF0HeFqBBxumSQsG/xkHotDhBvuMrQedr\r\nYUFC0YBC2cXrQV0EJEG9qdRA4/TgQfGsUUGBDVNAYykXQYhPvEDMwdVAH3djQQiwYUBDKiBAhh5S\r\nQIXgqD+4GXZAL8kAQOUK+T9is/Q/acKvQLtsbkCZacQ/AeffPzAIXT5UotA+IMj1PfXDeD4MItI+\r\n3d2oPbm9Aj6+mXM+uo7DQGKWMz5rfo0+luq2PWx9VT0HaPk+EaaXP3LGcD5O0og9WFt1PebDmD0l\r\nC9o9XYiqPrQk0j7mPE4/rOa8PvpNdz9wkbxAZSXgQGU7i0CevVVAjrPBQHm58kFfhIpBzHTqQUNa\r\n10BBloRBtbzgQRLRL0AaqkZAZ3O+QAIwO0Fy0J9AZhKsP/mnvz8kqjdB69URQMuFmT+CMyhBjg4l\r\nQZU2GkLiRS1C7Jq6QGkWcUAiIY9Bsm/RQYoU/kHCGKRBf4kGQflbEkJxMOdCjGQ0QhDShkFtf8tB\r\nPnS+QfrRi0EMg+5BvNksQokTpkFF6eFBKkrtQS/dXEHZ6oVC0sxpQlg0FkG20ipBor+uQFlwhEDU\r\nSdpAAmtaQK8gBT8xiQw/JFMmP5sGHD5AeyU/OI7ePa33ij5DRd89cMfmPd3nGD7iwwQ+7OEEP0IU\r\nuj79n4s+/fRlPrCzAj/SaQ0/FvmAPyqnnj+XDqM/SQoSQD45D0CiLN0/efqFQLCQpUDVNc9AEbZ7\r\nQWWwkECdY69A5sI9QW0+4kGn/qBAx38ZQV7DDUHlFRJBjqXLQW5voUGrKx1BEDSjQKUyhEAs2QhB\r\n3vafQN8NgD9MGy9APAjuPuT5BUFzrAxANUO/P9XJuECSJi9Bitm6QID3JkDseAU/sr1RQBxHlkBf\r\nO8Y/kOoYPyTAXz44sHo+fyQrPn17YD/1ZfU+BdLWPioTNz4nhYs9nuDoPcji/DzMtY8+NBEOPTnp\r\ntDy7Fgg9DF8/Pb11hT4tHfg+QgjUPc4lYT6eehc+1IZ1PvjOdz7D2WU+iRYpPtAVHT7RssU9qvk+\r\nPph8hz0rkEk9e5YHP2iyXz/eWpk+EGCmP63tkD79WB0/fVB9P5YFLUC+h1g/TZ0fPyD0LT+ai/Q+\r\nAx9aP1Nojj/80WA/VfAbPw/EBj+4EV0/wIxyPiTp6D2+TTs+HQ87PuLi7z2iuY0+oswvPmb0mD45\r\n75k+FZUnPlqMEj+fuac+ytEuPogMHT2Tp7U+FFyHPnSeyD4Oy/g/V74PP3Yprj8AdAU/2VMRQMg0\r\nvT8USLA+CXgwQBAzED9cv4M/bebvPpIqTz9gj6o+yRQYP5Phiz7+34U+tQ9APyAXnT03P8c9ZP3C\r\nPmfg6T3sFiI+jSUNPVsTRD6NMD8+/UN1PAbjpzz4n8Q8CwLXPGmXhjymtmc8soOIPM8yXj1SppY8\r\nUeWBPeuCFjxoQIE7oLglO28gEzxvRQU8QKuVO6qLjTtUgC08ASdyO/AEajsLBOw72LA4OytwXju0\r\nT/Q67nmWOxoogjvSe4g7pts0OyaTJzt0Yeo6o8AKO6cpHDvAkww7Pe4PO6NnDTv0CRE7rqUVO5SY\r\nEzvyAwo7JFsUO34LEzsMShE7svkMO0TmEzviEgY7IbsDO6AfBjuudAc71DMLO/jmAzsiKQ47OpUK\r\nO5MLBTthUgE7KDgEO1jTAzvUCP86evT7OqZ58TosKvE6FvnrOohu8jqoCe466hbpOpHC6zpgWOw6\r\nWKXnOvj16Tq7peg6fiTnOv4E4TryR+I6nFLYOhjU2ToJXNg6WlLZOvoB1jqmJdg688TTOkO11zry\r\n0c46pIDROm5syDodXc46mAHDOoyizjqvgcY6T53MOkLjzDo8BcA69i3NOoD0vjrCAcc64v66OhSo\r\nsjq0XMQ61pOyOtIAtDoHBdY63Hi4OqQWuDqI6Ks65lOnOgI8sjpsKbM6sk6xOgG5tToSnLE6COq0\r\nOgzZrjrdvKs66WegOshmrDrO76c60LylOjbWqTqJl7A6CemrOkUoqjq0rKg67MabOv6XqzoUo5o6\r\nfFmjOijWpDqjM5w6BHyZOhg8oTrKsJk6e+GkOvxBpDpC+Zs6AomTOnJGnzoFSo46x4aeOnbjkzoN\r\nfZw6ApebOkQnlToRspU6YM6OOtrrmzrN3Y469c+WOtfniTrxmZI6yhSTOqrUhjoAXIg6L8+MOsiZ\r\nhjp2VY86qimMOlcaijo4T4Q6SqCHOhH8hzrcboQ6PzWCOsKvhDoMioc6DeuDOvjcgzpdC306YyeI\r\nOoz2hzqa3VY68sSQOrHkgTp52mw6OrBZOtUHLjq+zDY6godyOijwajrZD5o6dxmFOpCBfjrSI386\r\n6OGHOtTvijqOFYM6AH9zOiLFdToSMIM61Ot+OnObeTryE3c6KM9sOsh6UToHwEw6RaBkOrQAdTrg\r\nTYg6oSorOhj0YDrG91g6Sj6YOm6VZDrSboQ6FM9pOgn7fDpT6086vO96OkZqczrInWQ6k5Z2OiY2\r\nbjokSHA6/YBaOsbQYzosymQ64tJaOtjLXzoIDmc6QI1iOqY6ZTrxNlw6allZOiKsXDrIQ2A6AiZc\r\nOnY5ZDoYE146wKVYOg1KXjp+fFk6CDxMOmyQiDr++1c6uvFSOtoGcjqEwEw6/D1vOtbKgTocfZA6\r\nQfYPOvQ9ejrsWTs6cn95Ol8ciDqMpRc64h0YOsDQWTpI4B46cio5OvaYPzpJ2k86E3cuOl+sPzrg\r\nkEY6/wJWOtUyTTowxlU68hpKOhV8Sjq3qkg6VUBLOruxRDrEUUY6AlZJOj5yRjrwTEc6TvQ/OgMI\r\nQTrz0kk68P08OnIXRzqIriI6edhCOrxmPDomxEk6OoouOpnfOTrCjjg6CUk5OmgsOTql4zU6tB8+\r\nOnKGOzqjWzY67h84OmZwMjosfzQ6OnIyOrsyNjpG2DI6YrI0OkjuLzrK8zk6YtM2OtChMjosfzI6\r\nBAwwOvKjMTrATDU68ngpOnV1NDpDrzI6hoAzOrgoMTr1vSc62cksOhGSLTowgyw6SuUwOlZ0Kjqt\r\nRyw6NKMwOr8zLDoMLCk6CLMsOsYfKzoupCk6HxInOlM4KjqkkyY6KBUrOv8cKzoePxw6Ba8kOjZX\r\nJDoegiM6CLUoOk5zJTprIiM6GdIhOgyeKDovQyc6UCkkOqr7JTqVsR86PW0oOnW3IjrGAR86M8Ui\r\nOuNrIzoSoCA6opkiOrtHIDoImh06ALwfOi95GTqLORw6unAfOj8PGzpWqRw6W64cOjKVHDpLAB46\r\njmYcOmraGDoGJRk66NYXOj5bHDo2bBw62XsZOmoHFzo3jBg64SkhOiAVHTrw1iE6htEbOmyWGDqo\r\nzxY65r4WOj7zFTqBiBY6JHQUOvBKHDp6uxY6cYIUOlD+GDpTuhQ6VdkZOsU3FDrltxM66IMdOul3\r\nGDrJ9Bg6DkkYOlpQFDpw9xI6UbwWOof1DjrWKBk6BaEROo6hFjoLPQ46LNEQOte9FDpsjgo6GBsP\r\nOu94DTq19Q06qOMTOpjODjqciBE6aBgKOiYeDDoeVw06sXoROovpCTrZ9Ak6UZgOOrsiDDq8kxA6\r\nQd0POuwMCDoOiQU6u2kOOvd6DDrSUw860KoMOiBLCTqGcgc6l8ANOpJACDrAugg6b3MJOsl6DToV\r\n+wQ67EEOOkBzCzofIw06BpQIOvc2BDrHSQM6YSILOgvdCzrmIgY6c18OOjZVBzpsUwk67DoBOjst\r\nAzpvWwo6+e4AOsGxCTr0egg6rDEFOtAmBzoM3gs6XugHOgtJAjrIuQQ6Vx4FOs+hAjquVwg6//oF\r\nOj6QBzqkbgI63OoGOkMBBzpVbQA6QEgIOuSMBDpCAgQ6c6kHOtmVBTp/NAI6aYoCOrjJAjpI7gE6\r\n5ocFOo5CAjrX+QI6c0sEOs69Azom5f05elD4OaLoAjoMOwA6r1gCOofe/zmroQQ666MBOo4w/Dn6\r\naAI6owkBOlJZAjry/wY60QIDOjrBADoy6gE6rmv4OZZFADonDv05IaMCOlKH7TkOnvw5b8v8OUo7\r\n/jmv3fI53gEBOvj2ADoMhgE6XcH1OfLx+zmB6/Q5Ebv0OVpn8zlGWPU5GsjvORXP+jm7z/Y5cIb9\r\nOVlN9DnW3vw5jsL9OXIc8zk8Bf05KtL3OUwP+zldnv45veb8OQIQ9DnIofo5RuX5OXDm9Tk8ovc5\r\njlzsOW619TmN1fs5HEbvOQxA6jnN3O05FSTyOaLJ8jmvXOw5NZD3OcZ++TnAlOM5QVz0OcQL5zmc\r\nc/A5DeP0OU6C7zlODPw5F1fqOWMn8DkNPfw5EePpOSod8Dl4ovQ5cHXuOVoZ6TlHQeg5m/3qObJG\r\n8DlIFPM5scHnOcYZ7Dk77Ok5yybyOU3s8jkCT/E5WtHuOR6V8TlM0Os5C0fsOZoN5jmqqfE5Pb71\r\nOZzx6TnPo/I5sbnyOYGJ+Tnc4Oo5ZT3wOaM88TluYeQ5Vz7pOR6n7jmX1u05aQbpOf/C7Tnkyeo5\r\npdLtOcAP7TnnI+05qhntOWOb7Dny5uw53wjzOfOn7Dl5WO45gPbtOfo07DkOpOY5eujlOU1q9jlO\r\nSO854QjjOVoy4jnw0OI5G83tOcOL5znL5Oo5CMXzOdaj2jkCOvE5uWHeOR0t9TmxfuU5eQXyOTr9\r\n4DnbduY5mNzqOfGe5zkpNOU5blLhORk88Tk71uE55Y/nOcWk3zmE6eI5NO/kOQAu5TmNle452C7p\r\nOX4D7DlmaOg5lxjeOV1V5TmmZuA5MFnmOVdw6zl3p+k5mQj5OYsp6Dkbpuo54MHqOaKc9TnRT985\r\neDzlOSS14zkwxeI5gQnmOfHq3zntIuY5CQzhORM26DnB0+051iXnOehO7DnsdOM5sz70OQ0S5DmO\r\n5u45WevmOWUG6zloDek5h37jOaz25TnAFeg5u3TkOUTx4zkgK+Y5hkThOVXj6jkNiOY51+TcOVSn\r\n6Tl5lN45SFTgOQ3k5zknjus54EPgOUDT4TmQ/uU5gzblOTbA7jloSd055bHdOd8U4zkFLuM5EXTj\r\nOZFp5DmvrOQ5gAPhOYQY4zkvs9w5zgjiOZ2u3TlaVtc5LpbmORww5zlLtOM5IB7hOQ==",
                            "noiseTrainingType" : "default"
                          }
                        }
                    ],
                    "start" : 0,
                    "duration" : 2789,
                    "mediaStart" : 84,
                    "mediaDuration" : 2789,
                    "scalar" : 1,
                    "metadata" : {
                      "AutoAppliedSmartFocus" : "False",
                      "WinSubProjectDisplayName" : "",
                      "clipSpeedAttribute" : false
                    },
                    "animationTracks" : {

                    }
                  },
                  {
                    "id" : 31,
                    "_type" : "StitchedMedia",
                    "minMediaStart" : 0,
                    "attributes" : {
                      "ident" : "tower-01",
                      "gain" : 1.0,
                      "mixToMono" : false
                    },
                    "parameters" : {
                      "volume" : 1.0,
                      "cursorOpacity" : 1.0,
                      "cursorScale" : 1.0
                    },
                    "medias" : [
                        {
                          "id" : 32,
                          "_type" : "UnifiedMedia",
                          "video" : 
                              {
                                "id" : 33,
                                "_type" : "ScreenVMFile",
                                "src" : 1,
                                "trackNumber" : 0,
                                "attributes" : {
                                  "ident" : "Rec 02-04-20_003"
                                },
                                "parameters" : {
                                  "cursorScale" : {
                                    "type" : "double",
                                    "defaultValue" : 0.0,
                                    "interp" : "linr"
                                  },
                                  "cursorOpacity" : {
                                    "type" : "double",
                                    "defaultValue" : 0.0,
                                    "interp" : "linr"
                                  }
                                },
                                "effects" : [

                                ],
                                "start" : 0,
                                "duration" : 552,
                                "mediaStart" : 0,
                                "mediaDuration" : 552,
                                "scalar" : 1,
                                "animationTracks" : {

                                }
                              },
                          "audio" : 
                              {
                                "id" : 34,
                                "_type" : "AMFile",
                                "src" : 1,
                                "trackNumber" : 1,
                                "attributes" : {
                                  "ident" : "",
                                  "sampleRate" : 44100,
                                  "bitDepth" : 16,
                                  "gain" : 1.0,
                                  "mixToMono" : false
                                },
                                  "channelNumber" : "0,1",
                                "effects" : [

                                ],
                                "start" : 0,
                                "duration" : 552,
                                "mediaStart" : 0,
                                "mediaDuration" : 552,
                                "scalar" : 1,
                                "animationTracks" : {

                                }
                              }
,
                          "start" : 0,
                          "duration" : 552,
                          "mediaStart" : 0,
                          "mediaDuration" : 9961,
                          "scalar" : 1,
                          "metadata" : {
                            "AutoAppliedSmartFocus" : "False",
                            "WinSubProjectDisplayName" : "",
                            "clipSpeedAttribute" : false
                          }
                        },
                        {
                          "id" : 35,
                          "_type" : "UnifiedMedia",
                          "video" : 
                              {
                                "id" : 36,
                                "_type" : "ScreenVMFile",
                                "src" : 1,
                                "trackNumber" : 0,
                                "attributes" : {
                                  "ident" : "Rec 02-04-20_003"
                                },
                                "parameters" : {
                                  "cursorScale" : {
                                    "type" : "double",
                                    "defaultValue" : 0.0,
                                    "interp" : "linr"
                                  },
                                  "cursorOpacity" : {
                                    "type" : "double",
                                    "defaultValue" : 0.0,
                                    "interp" : "linr"
                                  }
                                },
                                "effects" : [

                                ],
                                "start" : 552,
                                "duration" : 312,
                                "mediaStart" : 745,
                                "mediaDuration" : 312,
                                "scalar" : 1,
                                "animationTracks" : {

                                }
                              },
                          "audio" : 
                              {
                                "id" : 37,
                                "_type" : "AMFile",
                                "src" : 1,
                                "trackNumber" : 1,
                                "attributes" : {
                                  "ident" : "",
                                  "sampleRate" : 44100,
                                  "bitDepth" : 16,
                                  "gain" : 1.0,
                                  "mixToMono" : false
                                },
                                  "channelNumber" : "0,1",
                                "effects" : [

                                ],
                                "start" : 552,
                                "duration" : 312,
                                "mediaStart" : 745,
                                "mediaDuration" : 312,
                                "scalar" : 1,
                                "animationTracks" : {

                                }
                              }
,
                          "start" : 552,
                          "duration" : 312,
                          "mediaStart" : 0,
                          "mediaDuration" : 9961,
                          "scalar" : 1,
                          "metadata" : {
                            "AutoAppliedSmartFocus" : "False",
                            "WinSubProjectDisplayName" : "",
                            "clipSpeedAttribute" : false
                          }
                        },
                        {
                          "id" : 38,
                          "_type" : "UnifiedMedia",
                          "video" : 
                              {
                                "id" : 39,
                                "_type" : "ScreenVMFile",
                                "src" : 1,
                                "trackNumber" : 0,
                                "attributes" : {
                                  "ident" : "Rec 02-04-20_003"
                                },
                                "parameters" : {
                                  "cursorScale" : {
                                    "type" : "double",
                                    "defaultValue" : 0.0,
                                    "interp" : "linr"
                                  },
                                  "cursorOpacity" : {
                                    "type" : "double",
                                    "defaultValue" : 0.0,
                                    "interp" : "linr"
                                  }
                                },
                                "effects" : [

                                ],
                                "start" : 864,
                                "duration" : 168,
                                "mediaStart" : 1271,
                                "mediaDuration" : 168,
                                "scalar" : 1,
                                "animationTracks" : {

                                }
                              },
                          "audio" : 
                              {
                                "id" : 40,
                                "_type" : "AMFile",
                                "src" : 1,
                                "trackNumber" : 1,
                                "attributes" : {
                                  "ident" : "",
                                  "sampleRate" : 44100,
                                  "bitDepth" : 16,
                                  "gain" : 1.0,
                                  "mixToMono" : false
                                },
                                  "channelNumber" : "0,1",
                                "effects" : [

                                ],
                                "start" : 864,
                                "duration" : 168,
                                "mediaStart" : 1271,
                                "mediaDuration" : 168,
                                "scalar" : 1,
                                "animationTracks" : {

                                }
                              }
,
                          "start" : 864,
                          "duration" : 168,
                          "mediaStart" : 0,
                          "mediaDuration" : 9961,
                          "scalar" : 1,
                          "metadata" : {
                            "AutoAppliedSmartFocus" : "False",
                            "WinSubProjectDisplayName" : "",
                            "clipSpeedAttribute" : false
                          }
                        },
                        {
                          "id" : 41,
                          "_type" : "UnifiedMedia",
                          "video" : 
                              {
                                "id" : 42,
                                "_type" : "ScreenVMFile",
                                "src" : 1,
                                "trackNumber" : 0,
                                "attributes" : {
                                  "ident" : "Rec 02-04-20_003"
                                },
                                "parameters" : {
                                  "cursorScale" : {
                                    "type" : "double",
                                    "defaultValue" : 0.0,
                                    "interp" : "linr"
                                  },
                                  "cursorOpacity" : {
                                    "type" : "double",
                                    "defaultValue" : 0.0,
                                    "interp" : "linr"
                                  }
                                },
                                "effects" : [

                                ],
                                "start" : 1032,
                                "duration" : 397,
                                "mediaStart" : 1777,
                                "mediaDuration" : 397,
                                "scalar" : 1,
                                "animationTracks" : {

                                }
                              },
                          "audio" : 
                              {
                                "id" : 43,
                                "_type" : "AMFile",
                                "src" : 1,
                                "trackNumber" : 1,
                                "attributes" : {
                                  "ident" : "",
                                  "sampleRate" : 44100,
                                  "bitDepth" : 16,
                                  "gain" : 1.0,
                                  "mixToMono" : false
                                },
                                  "channelNumber" : "0,1",
                                "effects" : [

                                ],
                                "start" : 1032,
                                "duration" : 397,
                                "mediaStart" : 1777,
                                "mediaDuration" : 397,
                                "scalar" : 1,
                                "animationTracks" : {

                                }
                              }
,
                          "start" : 1032,
                          "duration" : 397,
                          "mediaStart" : 0,
                          "mediaDuration" : 9961,
                          "scalar" : 1,
                          "metadata" : {
                            "AutoAppliedSmartFocus" : "False",
                            "WinSubProjectDisplayName" : "",
                            "clipSpeedAttribute" : false
                          }
                        },
                        {
                          "id" : 44,
                          "_type" : "UnifiedMedia",
                          "video" : 
                              {
                                "id" : 45,
                                "_type" : "ScreenVMFile",
                                "src" : 1,
                                "trackNumber" : 0,
                                "attributes" : {
                                  "ident" : "Rec 02-04-20_003"
                                },
                                "parameters" : {
                                  "cursorScale" : {
                                    "type" : "double",
                                    "defaultValue" : 0.0,
                                    "interp" : "linr"
                                  },
                                  "cursorOpacity" : {
                                    "type" : "double",
                                    "defaultValue" : 0.0,
                                    "interp" : "linr"
                                  }
                                },
                                "effects" : [

                                ],
                                "start" : 1429,
                                "duration" : 265,
                                "mediaStart" : 2259,
                                "mediaDuration" : 265,
                                "scalar" : 1,
                                "animationTracks" : {

                                }
                              },
                          "audio" : 
                              {
                                "id" : 46,
                                "_type" : "AMFile",
                                "src" : 1,
                                "trackNumber" : 1,
                                "attributes" : {
                                  "ident" : "",
                                  "sampleRate" : 44100,
                                  "bitDepth" : 16,
                                  "gain" : 1.0,
                                  "mixToMono" : false
                                },
                                  "channelNumber" : "0,1",
                                "effects" : [

                                ],
                                "start" : 1429,
                                "duration" : 265,
                                "mediaStart" : 2259,
                                "mediaDuration" : 265,
                                "scalar" : 1,
                                "animationTracks" : {

                                }
                              }
,
                          "start" : 1429,
                          "duration" : 265,
                          "mediaStart" : 0,
                          "mediaDuration" : 9961,
                          "scalar" : 1,
                          "metadata" : {
                            "AutoAppliedSmartFocus" : "False",
                            "WinSubProjectDisplayName" : "",
                            "clipSpeedAttribute" : false
                          }
                        },
                        {
                          "id" : 47,
                          "_type" : "UnifiedMedia",
                          "video" : 
                              {
                                "id" : 48,
                                "_type" : "ScreenVMFile",
                                "src" : 1,
                                "trackNumber" : 0,
                                "attributes" : {
                                  "ident" : "Rec 02-04-20_003"
                                },
                                "parameters" : {
                                  "cursorScale" : {
                                    "type" : "double",
                                    "defaultValue" : 0.0,
                                    "interp" : "linr"
                                  },
                                  "cursorOpacity" : {
                                    "type" : "double",
                                    "defaultValue" : 0.0,
                                    "interp" : "linr"
                                  }
                                },
                                "effects" : [

                                ],
                                "start" : 1694,
                                "duration" : 193,
                                "mediaStart" : 2551,
                                "mediaDuration" : 193,
                                "scalar" : 1,
                                "animationTracks" : {

                                }
                              },
                          "audio" : 
                              {
                                "id" : 49,
                                "_type" : "AMFile",
                                "src" : 1,
                                "trackNumber" : 1,
                                "attributes" : {
                                  "ident" : "",
                                  "sampleRate" : 44100,
                                  "bitDepth" : 16,
                                  "gain" : 1.0,
                                  "mixToMono" : false
                                },
                                  "channelNumber" : "0,1",
                                "effects" : [

                                ],
                                "start" : 1694,
                                "duration" : 193,
                                "mediaStart" : 2551,
                                "mediaDuration" : 193,
                                "scalar" : 1,
                                "animationTracks" : {

                                }
                              }
,
                          "start" : 1694,
                          "duration" : 193,
                          "mediaStart" : 0,
                          "mediaDuration" : 9961,
                          "scalar" : 1,
                          "metadata" : {
                            "AutoAppliedSmartFocus" : "False",
                            "WinSubProjectDisplayName" : "",
                            "clipSpeedAttribute" : false
                          }
                        },
                        {
                          "id" : 50,
                          "_type" : "UnifiedMedia",
                          "video" : 
                              {
                                "id" : 51,
                                "_type" : "ScreenVMFile",
                                "src" : 1,
                                "trackNumber" : 0,
                                "attributes" : {
                                  "ident" : "Rec 02-04-20_003"
                                },
                                "parameters" : {
                                  "cursorScale" : {
                                    "type" : "double",
                                    "defaultValue" : 0.0,
                                    "interp" : "linr"
                                  },
                                  "cursorOpacity" : {
                                    "type" : "double",
                                    "defaultValue" : 0.0,
                                    "interp" : "linr"
                                  }
                                },
                                "effects" : [

                                ],
                                "start" : 1887,
                                "duration" : 7142,
                                "mediaStart" : 2819,
                                "mediaDuration" : 7142,
                                "scalar" : 1,
                                "animationTracks" : {

                                }
                              },
                          "audio" : 
                              {
                                "id" : 52,
                                "_type" : "AMFile",
                                "src" : 1,
                                "trackNumber" : 1,
                                "attributes" : {
                                  "ident" : "",
                                  "sampleRate" : 44100,
                                  "bitDepth" : 16,
                                  "gain" : 1.0,
                                  "mixToMono" : false
                                },
                                  "channelNumber" : "0,1",
                                "effects" : [

                                ],
                                "start" : 1887,
                                "duration" : 7142,
                                "mediaStart" : 2819,
                                "mediaDuration" : 7142,
                                "scalar" : 1,
                                "animationTracks" : {

                                }
                              }
,
                          "start" : 1887,
                          "duration" : 7142,
                          "mediaStart" : 0,
                          "mediaDuration" : 9961,
                          "scalar" : 1,
                          "metadata" : {
                            "AutoAppliedSmartFocus" : "False",
                            "WinSubProjectDisplayName" : "",
                            "clipSpeedAttribute" : false
                          }
                        }
                    ],
                    "effects" : [
                        {
                          "effectName" : "NoiseReduction",
                          "category" : "categoryAudioEffects",
                          "parameters" : {
                            "denoiserAmount" : 20.0,
                            "denoiserThreshold" : 0.0,
                            "noiseProfile" : "ehKgPn9kAz8cBEo/2q0yP4rc5kA0Q7JCpPdrQezjHUAF54s/lk4IQTz2aT+/j6NAMtYfP8GLoD7U\r\n44E/wv1cPth60T7qRTc/5MtIP2IvbkBANrI/jrUbQPM/XUBzfa9ALlvDQGbiHkACoaBA+JE7QByH\r\nEEClimZACKKLQOFZKUD+mPVA8UGeQQvYWUEMc/VAM5ldP1QfiD/NZHg/6CYfP7eB6D+BihtAIfE9\r\nQRXijEF1j/tANISCQOjYvD8h5HE/WHxLQL3+lUA+qyZA558kQairf0Dy7NM/srd/QEXZGz9agi0/\r\nVfKyPo12Hz9u5MY+34uEQKlFTj/wkk9AY1IZP7aHij9b7gBBsPCEQZ177kHqgMdBbqLbQGiJE0Cq\r\nsyBA3nnjQTvBoEJ6gZVCupCmQdYfWEGk/25An50TQZpIeT/yEhdB3hagQcbpkkLBv8ZB6LQ4Qb7j\r\nK0Hna2FBQtGAQtnF60FdBCRBvanUQOP04EHxrFFBgQ1TQGMpF0GIT7xAzMHVQB93Y0EIsGFAQyog\r\nQIYeUkCF4Kg/uBl2QC/JAEBCB/k/YrP0P2nCr0C7bG5ABHHEPwHn3z/X5lw+NLHQPiDI9T31w3g+\r\nDCLSPt3dqD25vQI+vplzPrqOw0BiljM+a36NPpbqtj1sfVU9B2j5PhGmlz9yxnA+TtKIPVhbdT3m\r\nw5g9JQvaPV2Iqj60JNI+5jxOP6zmvD76TXc/cJG8QGUl4EBlO4tAnr1VQI6zwUB5ufJBX4SKQcx0\r\n6kFDWtdAQZaEQbW84EES0S9AGqpGQGdzvkACMDtBctCfQGYSrD/5p78/JKo3QevVEUDLhZk/gjMo\r\nQY4OJUGVNhpC4kUtQuyaukBpFnFAIiGPQTBs0UGKFP5BwhikQX+JBkH5WxJCcTDnQoxkNEI30IZB\r\nbX/LQT50vkH60YtBDIPuQbzZLEKJE6ZBRenhQSpK7UEv3VxB2eqFQtLMaUJYNBZBttIqQaK/rkBZ\r\ncIRA1EnaQAJrWkCvIAU/MYkMPyRTJj+bBhw+QHslP3Cp3j2t94o+Q0XfPXDH5j3d5xg+4sMEPuzh\r\nBD9CFLo+/Z+LPv30ZT6wswI/0mkNPxb5gD8qp54/lw6jP0kKEkA+OQ9AoizdP3n6hUCwkKVA1TXP\r\nQBG2e0FlsJBAnWOvQObCPUFtPuJBp/6gQMd/GUFeww1B5RUSQY6ly0Fub6FBqysdQRA0o0ClMoRA\r\nLNkIQd72n0DfDYA/TBsvQDwI7j7k+QVBc6wMQDVDvz/VybhAkiYvQYrZukCA9yZA7HgFP7K9UUAc\r\nR5ZAXzvGP+EPGT8kwF8+OLB6Pkf6Kj59e2A/9WX1PgXS1j4qEzc+J4WLPZ7g6D3I4vw8zLWPPjQR\r\nDj056bQ8uxYIPQxfPz29dYU+LR34PkII1D3OJWE+nnoXPtSGdT74znc+w9llPokWKT7QFR0+0bLF\r\nPar5Pj6YfIc9K5BJPXuWBz9osl8/3lqZPhBgpj+t7ZA+/VgdP31QfT+WBS1AvodYP02dHz8g9C0/\r\nmov0PgMfWj9TaI4//NFgP1XwGz8PxAY/uBFdP8CMcj4k6eg9vk07Ph0POz7i4u89ormNPqLMLz5m\r\n9Jg+Oe+ZPhWVJz5ajBI/n7mnPsrRLj6IDB09k6e1PhRchz50nsg+Dsv4P1e+Dz92Ka4/AHQFP9lT\r\nEUDINL0/FEiwPgl4MEAQMxA/XL+DP23m7z6SKk8/YI+qPskUGD+T4Ys+/t+FPrUPQD8gF509Nz/H\r\nPWT9wj5n4Ok97BYiPo0lDT1bE0Q+jTA/Pt4ddTwG46c8+J/EPAsC1zxpl4Y8prZnPLKDiDzPMl49\r\nUqaWPFHlgT3rghY8aECBO6C4JTtvIBM8b0UFPECrlTuqi407VIAtPAEncjvwBGo7CwTsO9iwODsr\r\ncF47tE/0Ou55ljsaKII70nuIO6bbNDsmkyc7dGHqOqPACjunKRw7wJMMOz3uDzujZw079AkRO66l\r\nFTuUmBM78gMKOyRbFDt+CxM7DEoRO7L5DDtE5hM74hIGOyG7AzugHwY7rnQHO9QzCzv45gM7IikO\r\nOzqVCjuTCwU7YVIBOyg4BDtY0wM71Aj/Onr0+zqmefE6LCrxOhb56zqIbvI6qAnuOuoW6TqRwus6\r\nYFjsOlil5zr49ek6u6XoOn4k5zr+BOE68kfiOpxS2DoY1Nk6CVzYOlpS2Tr6AdY6piXYOvPE0zpD\r\ntdc68tHOOqSA0TpubMg6HV3OOpgBwzqMos46r4HGOk+dzDpC48w6PAXAOvYtzTqA9L46wgHHOuL+\r\nujoUqLI6tFzEOtaTsjrSALQ6BwXWOtx4uDqkFrg6iOirOuZTpzoCPLI6bCmzOrJOsToBubU6Epyx\r\nOgjqtDoM2a463byrOulnoDrIZqw6zu+nOtC8pTo21qk6iZewOgnpqzpFKKo6tKyoOuzGmzr+l6s6\r\nFKOaOnxZozoo1qQ6ozOcOgR8mToYPKE6yrCZOnvhpDr8QaQ6QvmbOgKJkzpyRp86BUqOOseGnjp2\r\n45M6DX2cOgKXmzpEJ5U6EbKVOmDOjjra65s6zd2OOvXPljrX54k68ZmSOsoUkzqq1IY6AFyIOi/P\r\njDrImYY6dlWPOqopjDpXGoo6OE+EOkqghzoR/Ic63G6EOj81gjrCr4Q6DIqHOg3rgzr43IM6XQt9\r\nOmMniDqM9oc6mt1WOvLEkDqx5IE6edpsOjqwWTrVBy46vsw2OoKHcjoo8Go62Q+aOncZhTqQgX46\r\n0iN/OujhhzrU74o6jhWDOgB/czoixXU6EjCDOtTrfjpzm3k68hN3OijPbDrIelE6B8BMOkWgZDq0\r\nAHU64E2IOqEqKzoY9GA6xvdYOko+mDpulWQ60m6EOhTPaToJ+3w6U+tPOrzvejpGanM6yJ1kOpOW\r\ndjomNm46JEhwOv2AWjrG0GM6LMpkOuLSWjrYy186CA5nOkCNYjqmOmU68TZcOmpZWToirFw6yENg\r\nOgImXDp2OWQ6GBNeOsClWDoNSl46fnxZOgg8TDpskIg6/vtXOrrxUjraBnI6hMBMOvw9bzrWyoE6\r\nHH2QOkH2Dzr0PXo67Fk7OnJ/eTpfHIg6jKUXOuIdGDrA0Fk6SOAeOnIqOTr2mD86SdpPOhN3Ljpf\r\nrD864JBGOv8CVjrVMk06MMZVOvIaSjoVfEo6t6pIOlVASzq7sUQ6xFFGOgJWSTo+ckY68ExHOk70\r\nPzoDCEE689JJOvD9PDpyF0c6iK4iOnnYQjq8Zjw6JsRJOjqKLjqZ3zk6wo44OglJOTpoLDk6peM1\r\nOrQfPjpyhjs6o1s2Ou4fODpmcDI6LH80OjpyMjq7MjY6RtgyOmKyNDpI7i86yvM5OmLTNjrQoTI6\r\nLH8yOgQMMDryozE6wEw1OvJ4KTp1dTQ6Q68yOoaAMzq4KDE69b0nOtnJLDoRki06MIMsOkrlMDpW\r\ndCo6rUcsOjSjMDq/Myw6DCwpOgizLDrGHys6LqQpOh8SJzpTOCo6pJMmOigVKzr/HCs6Hj8cOgWv\r\nJDo2VyQ6HoIjOgi1KDpOcyU6ayIjOhnSIToMnig6L0MnOlApJDqq+yU6lbEfOj1tKDp1tyI6xgEf\r\nOjPFIjrjayM6EqAgOqKZIjq7RyA6CJodOgC8HzoveRk6izkcOrpwHzo/Dxs6VqkcOluuHDoylRw6\r\nSwAeOo5mHDpq2hg6BiUZOujWFzo+Wxw6NmwcOtl7GTpqBxc6N4wYOuEpITogFR068NYhOobRGzps\r\nlhg6qM8WOua+Fjo+8xU6gYgWOiR0FDrwShw6ersWOnGCFDpQ/hg6U7oUOlXZGTrFNxQ65bcTOuiD\r\nHTrpdxg6yfQYOg5JGDpaUBQ6cPcSOlG8FjqH9Q461igZOgWhETqOoRY6Cz0OOizREDrXvRQ6bI4K\r\nOhgbDzrveA06tfUNOqjjEzqYzg46nIgROmgYCjomHgw6HlcNOrF6ETqL6Qk62fQJOlGYDjq7Igw6\r\nvJMQOkHdDzrsDAg6DokFOrtpDjr3egw60lMPOtCqDDogSwk6hnIHOpfADTqSQAg6wLoIOm9zCTrJ\r\neg06FfsEOuxBDjpAcws6HyMNOgaUCDr3NgQ6x0kDOmEiCzoL3Qs65iIGOnNfDjo2VQc6bFMJOuw6\r\nATo7LQM6b1sKOvnuADrBsQk69HoIOqwxBTrQJgc6DN4LOl7oBzoLSQI6yLkEOlceBTrPoQI6rlcI\r\nOv/6BTo+kAc6pG4COtzqBjpDAQc6VW0AOkBICDrkjAQ6QgIEOnOpBzrZlQU6fzQCOmmKAjq4yQI6\r\nSO4BOuaHBTqOQgI61/kCOnNLBDrOvQM6JuX9OXpQ+Dmi6AI6DDsAOq9YAjqH3v85q6EEOuujATqO\r\nMPw5+mgCOqMJATpSWQI68v8GOtECAzo6wQA6MuoBOq5r+DmWRQA6Jw79OSGjAjpSh+05Dp78OW/L\r\n/DlKO/45r93yOd4BATr49gA6DIYBOl3B9Tny8fs5gev0ORG79DlaZ/M5Rlj1ORrI7zkVz/o5u8/2\r\nOXCG/TlZTfQ51t78OY7C/TlyHPM5PAX9OSrS9zlMD/s5XZ7+Ob3m/DkCEPQ5yKH6OUbl+Tlw5vU5\r\nPKL3OY5c7DlutfU5jdX7ORxG7zkMQOo5zdztORUk8jmiyfI5r1zsOTWQ9znGfvk5wJTjOUFc9DnE\r\nC+c5nHPwOQ3j9DlOgu85Tgz8ORdX6jljJ/A5DT38ORHj6TkqHfA5eKL0OXB17jlaGek5R0HoOZv9\r\n6jmyRvA5SBTzObHB5znGGew5O+zpOcsm8jlN7PI5Ak/xOVrR7jkelfE5TNDrOQtH7DmaDeY5qqnx\r\nOT2+9Tmc8ek5z6PyObG58jmBifk53ODqOWU98DmjPPE5bmHkOVc+6Tkep+45l9btOWkG6Tn/wu05\r\n5MnqOaXS7TnAD+055yPtOaoZ7Tljm+w58ubsOd8I8znzp+w5eVjuOYD27Tn6NOw5DqTmOXro5TlN\r\navY5TkjvOeEI4zlaMuI58NDiORvN7TnDi+c5y+TqOQjF8znWo9o5AjrxOblh3jkdLfU5sX7lOXkF\r\n8jk6/eA523bmOZjc6jnxnuc5KTTlOW5S4TkZPPE5O9bhOeWP5znFpN85hOniOTTv5DkALuU5jZXu\r\nOdgu6Tl+A+w5ZmjoOZcY3jldVeU5pmbgOTBZ5jlXcOs5d6fpOZkI+TmLKeg5G6bqOeDB6jminPU5\r\n0U/fOXg85TkkteM5MMXiOYEJ5jnx6t857SLmOQkM4TkTNug5wdPtOdYl5znoTuw57HTjObM+9DkN\r\nEuQ5jubuOVnr5jllBus5aA3pOYd+4zms9uU5wBXoObt05DlE8eM5ICvmOYZE4TlV4+o5DYjmOdfk\r\n3DlUp+k5eZTeOUhU4DkN5Oc5J47rOeBD4DlA0+E5kP7lOYM25Tk2wO45aEndOeWx3TnfFOM5BS7j\r\nORF04zmRaeQ5r6zkOYAD4TmEGOM5L7PcOc4I4jmdrt05WlbXOS6W5jkcMOc5S7TjOSAe4Tl6EqA+\r\n2lIDP6YTSj8ymjI/otPmQEhCskKk92tBMPEdQAXniz+7UAhBPPZpP7+Po0Ay1h8/wYugPonBgT/C\r\n/Vw+2HrRPupFNz/ky0g/Yi9uQEA2sj+OtRtA8z9dQHN9r0D2YMNAZuIeQAKhoED4kTtAHIcQQAeC\r\nZkDAn4tA4VkpQBSY9UDZQZ5BC9hZQcF+9UAzmV0/VB+IP81keD/oJh8/JIroP4GKG0Ah8T1BFeKM\r\nQXWP+0A0hIJA6Ni8PyHkcT9YfEtAvf6VQD6rJkDnnyRBqKt/QPLs0z+yt39ARdkbP1qCLT8q9rI+\r\nYW0fP27kxj7fi4RAqUVOP0qNT0BjUhk/vJGKP1vuAEGw8IRBnXvuQeqAx0FuottAaIkTQKqzIEDe\r\neeNBO8GgQgiDlUK6kKZB1h9YQaT/bkCfnRNBmkh5P/ISF0HeFqBBxumSQsG/xkHotDhBvuMrQedr\r\nYUFC0YBC2cXrQV0EJEG9qdRA4/TgQfGsUUGBDVNAYykXQYhPvEDMwdVAH3djQQiwYUBDKiBAhh5S\r\nQIXgqD+4GXZAL8kAQOUK+T9is/Q/acKvQLtsbkCZacQ/AeffPzAIXT5UotA+IMj1PfXDeD4MItI+\r\n3d2oPbm9Aj6+mXM+uo7DQGKWMz5rfo0+luq2PWx9VT0HaPk+EaaXP3LGcD5O0og9WFt1PebDmD0l\r\nC9o9XYiqPrQk0j7mPE4/rOa8PvpNdz9wkbxAZSXgQGU7i0CevVVAjrPBQHm58kFfhIpBzHTqQUNa\r\n10BBloRBtbzgQRLRL0AaqkZAZ3O+QAIwO0Fy0J9AZhKsP/mnvz8kqjdB69URQMuFmT+CMyhBjg4l\r\nQZU2GkLiRS1C7Jq6QGkWcUAiIY9Bsm/RQYoU/kHCGKRBf4kGQflbEkJxMOdCjGQ0QhDShkFtf8tB\r\nPnS+QfrRi0EMg+5BvNksQokTpkFF6eFBKkrtQS/dXEHZ6oVC0sxpQlg0FkG20ipBor+uQFlwhEDU\r\nSdpAAmtaQK8gBT8xiQw/JFMmP5sGHD5AeyU/OI7ePa33ij5DRd89cMfmPd3nGD7iwwQ+7OEEP0IU\r\nuj79n4s+/fRlPrCzAj/SaQ0/FvmAPyqnnj+XDqM/SQoSQD45D0CiLN0/efqFQLCQpUDVNc9AEbZ7\r\nQWWwkECdY69A5sI9QW0+4kGn/qBAx38ZQV7DDUHlFRJBjqXLQW5voUGrKx1BEDSjQKUyhEAs2QhB\r\n3vafQN8NgD9MGy9APAjuPuT5BUFzrAxANUO/P9XJuECSJi9Bitm6QID3JkDseAU/sr1RQBxHlkBf\r\nO8Y/kOoYPyTAXz44sHo+fyQrPn17YD/1ZfU+BdLWPioTNz4nhYs9nuDoPcji/DzMtY8+NBEOPTnp\r\ntDy7Fgg9DF8/Pb11hT4tHfg+QgjUPc4lYT6eehc+1IZ1PvjOdz7D2WU+iRYpPtAVHT7RssU9qvk+\r\nPph8hz0rkEk9e5YHP2iyXz/eWpk+EGCmP63tkD79WB0/fVB9P5YFLUC+h1g/TZ0fPyD0LT+ai/Q+\r\nAx9aP1Nojj/80WA/VfAbPw/EBj+4EV0/wIxyPiTp6D2+TTs+HQ87PuLi7z2iuY0+oswvPmb0mD45\r\n75k+FZUnPlqMEj+fuac+ytEuPogMHT2Tp7U+FFyHPnSeyD4Oy/g/V74PP3Yprj8AdAU/2VMRQMg0\r\nvT8USLA+CXgwQBAzED9cv4M/bebvPpIqTz9gj6o+yRQYP5Phiz7+34U+tQ9APyAXnT03P8c9ZP3C\r\nPmfg6T3sFiI+jSUNPVsTRD6NMD8+/UN1PAbjpzz4n8Q8CwLXPGmXhjymtmc8soOIPM8yXj1SppY8\r\nUeWBPeuCFjxoQIE7oLglO28gEzxvRQU8QKuVO6qLjTtUgC08ASdyO/AEajsLBOw72LA4OytwXju0\r\nT/Q67nmWOxoogjvSe4g7pts0OyaTJzt0Yeo6o8AKO6cpHDvAkww7Pe4PO6NnDTv0CRE7rqUVO5SY\r\nEzvyAwo7JFsUO34LEzsMShE7svkMO0TmEzviEgY7IbsDO6AfBjuudAc71DMLO/jmAzsiKQ47OpUK\r\nO5MLBTthUgE7KDgEO1jTAzvUCP86evT7OqZ58TosKvE6FvnrOohu8jqoCe466hbpOpHC6zpgWOw6\r\nWKXnOvj16Tq7peg6fiTnOv4E4TryR+I6nFLYOhjU2ToJXNg6WlLZOvoB1jqmJdg688TTOkO11zry\r\n0c46pIDROm5syDodXc46mAHDOoyizjqvgcY6T53MOkLjzDo8BcA69i3NOoD0vjrCAcc64v66OhSo\r\nsjq0XMQ61pOyOtIAtDoHBdY63Hi4OqQWuDqI6Ks65lOnOgI8sjpsKbM6sk6xOgG5tToSnLE6COq0\r\nOgzZrjrdvKs66WegOshmrDrO76c60LylOjbWqTqJl7A6CemrOkUoqjq0rKg67MabOv6XqzoUo5o6\r\nfFmjOijWpDqjM5w6BHyZOhg8oTrKsJk6e+GkOvxBpDpC+Zs6AomTOnJGnzoFSo46x4aeOnbjkzoN\r\nfZw6ApebOkQnlToRspU6YM6OOtrrmzrN3Y469c+WOtfniTrxmZI6yhSTOqrUhjoAXIg6L8+MOsiZ\r\nhjp2VY86qimMOlcaijo4T4Q6SqCHOhH8hzrcboQ6PzWCOsKvhDoMioc6DeuDOvjcgzpdC306YyeI\r\nOoz2hzqa3VY68sSQOrHkgTp52mw6OrBZOtUHLjq+zDY6godyOijwajrZD5o6dxmFOpCBfjrSI386\r\n6OGHOtTvijqOFYM6AH9zOiLFdToSMIM61Ot+OnObeTryE3c6KM9sOsh6UToHwEw6RaBkOrQAdTrg\r\nTYg6oSorOhj0YDrG91g6Sj6YOm6VZDrSboQ6FM9pOgn7fDpT6086vO96OkZqczrInWQ6k5Z2OiY2\r\nbjokSHA6/YBaOsbQYzosymQ64tJaOtjLXzoIDmc6QI1iOqY6ZTrxNlw6allZOiKsXDrIQ2A6AiZc\r\nOnY5ZDoYE146wKVYOg1KXjp+fFk6CDxMOmyQiDr++1c6uvFSOtoGcjqEwEw6/D1vOtbKgTocfZA6\r\nQfYPOvQ9ejrsWTs6cn95Ol8ciDqMpRc64h0YOsDQWTpI4B46cio5OvaYPzpJ2k86E3cuOl+sPzrg\r\nkEY6/wJWOtUyTTowxlU68hpKOhV8Sjq3qkg6VUBLOruxRDrEUUY6AlZJOj5yRjrwTEc6TvQ/OgMI\r\nQTrz0kk68P08OnIXRzqIriI6edhCOrxmPDomxEk6OoouOpnfOTrCjjg6CUk5OmgsOTql4zU6tB8+\r\nOnKGOzqjWzY67h84OmZwMjosfzQ6OnIyOrsyNjpG2DI6YrI0OkjuLzrK8zk6YtM2OtChMjosfzI6\r\nBAwwOvKjMTrATDU68ngpOnV1NDpDrzI6hoAzOrgoMTr1vSc62cksOhGSLTowgyw6SuUwOlZ0Kjqt\r\nRyw6NKMwOr8zLDoMLCk6CLMsOsYfKzoupCk6HxInOlM4KjqkkyY6KBUrOv8cKzoePxw6Ba8kOjZX\r\nJDoegiM6CLUoOk5zJTprIiM6GdIhOgyeKDovQyc6UCkkOqr7JTqVsR86PW0oOnW3IjrGAR86M8Ui\r\nOuNrIzoSoCA6opkiOrtHIDoImh06ALwfOi95GTqLORw6unAfOj8PGzpWqRw6W64cOjKVHDpLAB46\r\njmYcOmraGDoGJRk66NYXOj5bHDo2bBw62XsZOmoHFzo3jBg64SkhOiAVHTrw1iE6htEbOmyWGDqo\r\nzxY65r4WOj7zFTqBiBY6JHQUOvBKHDp6uxY6cYIUOlD+GDpTuhQ6VdkZOsU3FDrltxM66IMdOul3\r\nGDrJ9Bg6DkkYOlpQFDpw9xI6UbwWOof1DjrWKBk6BaEROo6hFjoLPQ46LNEQOte9FDpsjgo6GBsP\r\nOu94DTq19Q06qOMTOpjODjqciBE6aBgKOiYeDDoeVw06sXoROovpCTrZ9Ak6UZgOOrsiDDq8kxA6\r\nQd0POuwMCDoOiQU6u2kOOvd6DDrSUw860KoMOiBLCTqGcgc6l8ANOpJACDrAugg6b3MJOsl6DToV\r\n+wQ67EEOOkBzCzofIw06BpQIOvc2BDrHSQM6YSILOgvdCzrmIgY6c18OOjZVBzpsUwk67DoBOjst\r\nAzpvWwo6+e4AOsGxCTr0egg6rDEFOtAmBzoM3gs6XugHOgtJAjrIuQQ6Vx4FOs+hAjquVwg6//oF\r\nOj6QBzqkbgI63OoGOkMBBzpVbQA6QEgIOuSMBDpCAgQ6c6kHOtmVBTp/NAI6aYoCOrjJAjpI7gE6\r\n5ocFOo5CAjrX+QI6c0sEOs69Azom5f05elD4OaLoAjoMOwA6r1gCOofe/zmroQQ666MBOo4w/Dn6\r\naAI6owkBOlJZAjry/wY60QIDOjrBADoy6gE6rmv4OZZFADonDv05IaMCOlKH7TkOnvw5b8v8OUo7\r\n/jmv3fI53gEBOvj2ADoMhgE6XcH1OfLx+zmB6/Q5Ebv0OVpn8zlGWPU5GsjvORXP+jm7z/Y5cIb9\r\nOVlN9DnW3vw5jsL9OXIc8zk8Bf05KtL3OUwP+zldnv45veb8OQIQ9DnIofo5RuX5OXDm9Tk8ovc5\r\njlzsOW619TmN1fs5HEbvOQxA6jnN3O05FSTyOaLJ8jmvXOw5NZD3OcZ++TnAlOM5QVz0OcQL5zmc\r\nc/A5DeP0OU6C7zlODPw5F1fqOWMn8DkNPfw5EePpOSod8Dl4ovQ5cHXuOVoZ6TlHQeg5m/3qObJG\r\n8DlIFPM5scHnOcYZ7Dk77Ok5yybyOU3s8jkCT/E5WtHuOR6V8TlM0Os5C0fsOZoN5jmqqfE5Pb71\r\nOZzx6TnPo/I5sbnyOYGJ+Tnc4Oo5ZT3wOaM88TluYeQ5Vz7pOR6n7jmX1u05aQbpOf/C7Tnkyeo5\r\npdLtOcAP7TnnI+05qhntOWOb7Dny5uw53wjzOfOn7Dl5WO45gPbtOfo07DkOpOY5eujlOU1q9jlO\r\nSO854QjjOVoy4jnw0OI5G83tOcOL5znL5Oo5CMXzOdaj2jkCOvE5uWHeOR0t9TmxfuU5eQXyOTr9\r\n4DnbduY5mNzqOfGe5zkpNOU5blLhORk88Tk71uE55Y/nOcWk3zmE6eI5NO/kOQAu5TmNle452C7p\r\nOX4D7DlmaOg5lxjeOV1V5TmmZuA5MFnmOVdw6zl3p+k5mQj5OYsp6Dkbpuo54MHqOaKc9TnRT985\r\neDzlOSS14zkwxeI5gQnmOfHq3zntIuY5CQzhORM26DnB0+051iXnOehO7DnsdOM5sz70OQ0S5DmO\r\n5u45WevmOWUG6zloDek5h37jOaz25TnAFeg5u3TkOUTx4zkgK+Y5hkThOVXj6jkNiOY51+TcOVSn\r\n6Tl5lN45SFTgOQ3k5zknjus54EPgOUDT4TmQ/uU5gzblOTbA7jloSd055bHdOd8U4zkFLuM5EXTj\r\nOZFp5DmvrOQ5gAPhOYQY4zkvs9w5zgjiOZ2u3TlaVtc5LpbmORww5zlLtOM5IB7hOQ==",
                            "noiseTrainingType" : "default"
                          }
                        }
                    ],
                    "start" : 2789,
                    "duration" : 676,
                    "mediaStart" : 3257,
                    "mediaDuration" : 676,
                    "scalar" : 1,
                    "metadata" : {
                      "AutoAppliedSmartFocus" : "False",
                      "WinSubProjectDisplayName" : "",
                      "clipSpeedAttribute" : false
                    },
                    "animationTracks" : {

                    }
                  },
                  {
                    "id" : 53,
                    "_type" : "StitchedMedia",
                    "minMediaStart" : 0,
                    "attributes" : {
                      "ident" : "tower-02",
                      "gain" : 1.0,
                      "mixToMono" : false
                    },
                    "parameters" : {
                      "volume" : 1.0,
                      "cursorOpacity" : 1.0,
                      "cursorScale" : 1.0
                    },
                    "medias" : [
                        {
                          "id" : 54,
                          "_type" : "UnifiedMedia",
                          "video" : 
                              {
                                "id" : 55,
                                "_type" : "ScreenVMFile",
                                "src" : 2,
                                "trackNumber" : 0,
                                "attributes" : {
                                  "ident" : "Rec 02-04-20_004"
                                },
                                "parameters" : {
                                  "cursorScale" : {
                                    "type" : "double",
                                    "defaultValue" : 0.0,
                                    "interp" : "linr"
                                  },
                                  "cursorOpacity" : {
                                    "type" : "double",
                                    "defaultValue" : 0.0,
                                    "interp" : "linr"
                                  }
                                },
                                "effects" : [

                                ],
                                "start" : 0,
                                "duration" : 1233,
                                "mediaStart" : 0,
                                "mediaDuration" : 1233,
                                "scalar" : 1,
                                "animationTracks" : {

                                }
                              },
                          "audio" : 
                              {
                                "id" : 56,
                                "_type" : "AMFile",
                                "src" : 2,
                                "trackNumber" : 1,
                                "attributes" : {
                                  "ident" : "",
                                  "sampleRate" : 44100,
                                  "bitDepth" : 16,
                                  "gain" : 1.0,
                                  "mixToMono" : false
                                },
                                  "channelNumber" : "0,1",
                                "effects" : [

                                ],
                                "start" : 0,
                                "duration" : 1233,
                                "mediaStart" : 0,
                                "mediaDuration" : 1233,
                                "scalar" : 1,
                                "animationTracks" : {

                                }
                              }
,
                          "start" : 0,
                          "duration" : 1233,
                          "mediaStart" : 0,
                          "mediaDuration" : 9660,
                          "scalar" : 1,
                          "metadata" : {
                            "AutoAppliedSmartFocus" : "False",
                            "WinSubProjectDisplayName" : "",
                            "clipSpeedAttribute" : false
                          }
                        },
                        {
                          "id" : 57,
                          "_type" : "UnifiedMedia",
                          "video" : 
                              {
                                "id" : 58,
                                "_type" : "ScreenVMFile",
                                "src" : 2,
                                "trackNumber" : 0,
                                "attributes" : {
                                  "ident" : "Rec 02-04-20_004"
                                },
                                "parameters" : {
                                  "cursorScale" : {
                                    "type" : "double",
                                    "defaultValue" : 0.0,
                                    "interp" : "linr"
                                  },
                                  "cursorOpacity" : {
                                    "type" : "double",
                                    "defaultValue" : 0.0,
                                    "interp" : "linr"
                                  }
                                },
                                "effects" : [

                                ],
                                "start" : 1233,
                                "duration" : 8414,
                                "mediaStart" : 1246,
                                "mediaDuration" : 8414,
                                "scalar" : 1,
                                "animationTracks" : {

                                }
                              },
                          "audio" : 
                              {
                                "id" : 59,
                                "_type" : "AMFile",
                                "src" : 2,
                                "trackNumber" : 1,
                                "attributes" : {
                                  "ident" : "",
                                  "sampleRate" : 44100,
                                  "bitDepth" : 16,
                                  "gain" : 1.0,
                                  "mixToMono" : false
                                },
                                  "channelNumber" : "0,1",
                                "effects" : [

                                ],
                                "start" : 1233,
                                "duration" : 8414,
                                "mediaStart" : 1246,
                                "mediaDuration" : 8414,
                                "scalar" : 1,
                                "animationTracks" : {

                                }
                              }
,
                          "start" : 1233,
                          "duration" : 8414,
                          "mediaStart" : 0,
                          "mediaDuration" : 9660,
                          "scalar" : 1,
                          "metadata" : {
                            "AutoAppliedSmartFocus" : "False",
                            "WinSubProjectDisplayName" : "",
                            "clipSpeedAttribute" : false
                          }
                        }
                    ],
                    "effects" : [
                        {
                          "effectName" : "NoiseReduction",
                          "category" : "categoryAudioEffects",
                          "parameters" : {
                            "denoiserAmount" : 20.0,
                            "denoiserThreshold" : 0.0,
                            "noiseProfile" : "yHDGPgrayz9e5i4/dHeoQDQMqkFz0O1CJhtZQbM6gUDBXC9AYi4tQHvmvj8GzZM/T1XjPmkTaz8P\r\nhxA/mqnLPvSEdz8DGYQ+nY6bPiCqJT6808o+rUP4PlWCKj9ycaU/QnHIP5cp+D9zyDM/PPbeP2Kl\r\nRkA7vYhB3vqwQO2ig0B4eEBCjwcsQbR0TUEudYlAqKZfQFLhzT/cFvtAXkxIQB4gsz98uFo/TJWc\r\nP3ADDEBKZdQ/RVwsP2oT8D9WiYk/rPJSQMlVzj+yNYw+JtMkPpksCj7MV3Q+NAVPPwrAuj8YqOM/\r\nyeKMPzjmRz+gDtY/r+ykPyF5HT+jVFw/mj06P7R8PT88aSk/y4uWP47EOT+zcts/bcoAP/bX/T5L\r\nX4Q/JKECP3/C2D6g1uo/eDypP6jMcD9Zrd4+QxeCP9oiCz6t2Pw9kD7fPXq3PD6crRI+5IYMPq4h\r\nkD2Lk+U9cQmRPQIvGT5UpkQ+80qoPbr4BD5J0mo9no3IPcSK5T1qJmE+McnCPUVI1zw2yi49CEGN\r\nPYGOij1OTRA+fPCBPXGUoD1tRrU9RI8GPfORkD0bbBE+pDPTPXCPLj2d25k8K7AzPVQdNz0VGYw9\r\noU0XPWoC7zxYoZM9C6KyPfgQIz2N8sk8rsA8PUiFXD2YP108ISKMPDnFNz22fDM+AMBDPX/GvjwE\r\nEEA88w1nPanzjT701mo/9BgSPhczMT1gb6A8OI1QPaADCz1SyZs82trbPG7J0jx4S2c8VY8fPb4Q\r\njDzarwI9zlIJPDeABT2SFcc8peo0PbmXpj1Rrwg9FLBcPTS6fz2bo9Q8IKHAPJYRSj2UJwA97OqO\r\nPeO5OD3+bIY9OFFkPNhpgzwmSAs9GvPIPCavDD4zIxM9u5+GPPQ+UDxOjLw8T8DbPKKNKzzqoPE8\r\nTtyPPAkFoTwLLZE9I4fVPVHDjjzlwlg8NW2NPEQ53DxXMrk8fVq2PByoqzzyARQ96IfePJlypTw6\r\nnqU8onisPPnogTzQeYk8YnwFPe+gPTzuM0w8gthnPMqmiT1EPJc8rClQPEerQTyAzvY7V6qvPNkf\r\nfTwua4A8F7BFPEYplDx6zFo8lejFOzjfZjx+KdY7DtIaPO2JhDztEYE8GHFOPKMdEDxoqnY8W2WD\r\nPHA72TxdtD08l5TROyZFWzz4VCA9HsK6PDX3FDxUaDI8Dl95PMyShzvrb4o8xNVLPMmHjTyYseA7\r\nGhgnPOQBIjyrLDg8m7dvPHX8MTw5z2I856ckPKpHCDyLJZo75GwFPLYanjt2Qo88+s27PBBf+Dz2\r\nhMY8mWSXPMJhiz0kY6c9GJxOPZCmnzyyPoQ8mnjwOzr3BTyU4pE8KZC4PKTPyDwW51I8X6soPPyX\r\nHzz+bPU7iDBCPA156jteiKo8RKocPGKIBT3lUFc9Li/YPAALMj2Ewwc9Fa/cO5KQCjwQn8s7NvrA\r\nO4ZBFzxjeLg8yaPWPDLhTzxbEIY88zKoPG3LPjy2/1c8Y6vEPB6l2TyWihM9vgXEPBVtJjz8DeE7\r\nGLjOPALRnT2o7ac7EluNPDMdnzsG71c8EMuDO4CMPTw4RKg8A834Oz0/zTuOpo88HEo6PHrn+Tv+\r\nQLs7POEtPPVyODuatoQ7kjudO6FSsTwmYYM7UhWTOz7j8juWEQo8VP+sPFNSDTwgzm47OlhJPEH6\r\nZjso2E87+FsDOwW/JDvDUc07vxvMO9qEAzyVjDQ7oOZLO4/zPzwlQwk7dUCKOmPszjobSh47IAqA\r\nOqEcrTrbIj077+2BOsr8iToDEqI6cGE4O2a5sDoYcyo6FrgvOnLyHDqK3VU6ju31OdVmETo4oEw6\r\nFuwROrR9sjnwnsY57F/UOShF1TnUwag5EVLqOQ/0ITnrQwo6RvQLOvZEizn3DaI5R5e7OSmHpjl7\r\nZqA55LLYOQyeljmxS545NDy0OYi5rzkq+rI5ThCfOcmylznAqZA53kemOTfMmDldXpc5lFSMOTHP\r\nlDlXD6s52hmeORG6nDnkrY4547SeOY9GkTngLJM58EaLOTaUlzmXlIw5Ro2UORKKlTk9f5I5UreH\r\nOfA4hDkR54Y5zhSJOaxsgzmIx4I5hf2FOQEvhznCa4U53A+UObeRhTk3b4k5yIKLOYD4gjn7x4Q5\r\nDNeBOQ25iTmKvH45omNsOSBzezmbuHY5JAN9OcVrejlIs3Y5CTBxOUbagDnghnA5bup0OUD7ezmJ\r\noYI54uJzOVgTZTn+LG05biFlOSFzazlk12w5kuZlOX2xXzmCS2Q5gpptOXBTXjl6RGY5UB9oOZgz\r\nbzkd0Gw5WCRSOVz1bzlHFV05lF5bOVftTTmsrFU5UrRjOR61Xjlze0g50hxEOfplYzk6RlI5L8hW\r\nOYuCXznaTlI5TMs/OYRcXzkGl045a05ROWYtSjno1E05EnFWOTlrSzmhG1U5+hlKOZIJRjlrRDM5\r\n0JJLOUKyPTmqszk5QnhLORovOTlO1Fk5h+M3OUVFRjloLzQ5oZ83OWxISzn21jY5Pz04OSqDPznp\r\nyDo5h08/OVgpPTmuKDE5ppJDOdaIOTk7kzQ52nczOWz6MTm0Nic5TZoyObThJTkc8Uk5cFY+OYRt\r\nKTnqnTc5eOIpOTWHNDkOPx855zwsOb7DKjmiSyg5Qow0OXBbMzliazg5UDMoObyALTldNi450Psm\r\nOeovLzn4/io5KI8aOaWfLTlVESM5djwmOYTeIjlyfiU5hVMjOa4UJjneuyw5DNAeOQJFKDmA6h85\r\nIMsVOSwGKDmn6CU5Y/0QOYh+HTkgPSI5+rsZOemwEznSNCw5alYdOfpsHznuux855REYOTIdITlb\r\npxY5XFseOZoUEzmphh45DfQVObnpFDm0xB05SvwOOQi3HDlUliI5sMsbOb31IDk0Gxw5014VOUGZ\r\nDTkjORg52AgSOQWjETloNRQ5M38QOU7BEjnGAQ457foJObTgDzlMYws5+AAYOYYWBzk0ews5VQQO\r\nOeYlDTknpww5CIgTOfiVBzmKBwY5i2YIOeomEDm1CAQ5hxIGOdacAjn5ngM53GUMOeIHDTmrBgk5\r\nbWEMOQzEDjkunQY5I1QLOb5WATlWfwI5rwcHOTCG/jhDl/s4/B0BOVZr9TjEiQQ5A/YEOVATAzl0\r\nEwE5JsP/OPhd/jiFBQA50UQDOc9rBDkyLAA5sgr4OPEPCTluIuk44TYBOUMjAzm8Lvg4W1DzOAki\r\n/zhoygc5pKb4ON7YBjlbbgY5jH3xOGl59jhM2AA5UZfvOOLd4TjNav04TJTvOMJgBTmk+Os4h7/6\r\nOCN9AjkH+fU4Q9LrOL8X+jiqpOc4DrD1OD4p/DhG8u84db3mOHSu6zjrBfc4evHlOBn5/TjyQPM4\r\nnuv5OA5m7zg8W+04FhbpOHxA8DgXvOM4Fl/fOHUk0zh0Dd44ZazXOCoy5DhmAdY4bk7NODpdyDjm\r\nM/I4ov3aODhZ5DjkbPA4OlPzOJiY5Tjdh9o4LDDfOET86TiPXdY4KOTXON5z3jiuONU4xLjjOHQm\r\nzDg8YuQ4YfPQONWF3DgqcNo4qjrJOPBiyzhVnuY4swjVOLfH4zgyqt84hgvROMWk3Tg+0NU4fgPS\r\nOP60xDjMF9A4dgnQOPZn5jhPVMw44lzJOGjS1jgQ1Mw4OujUOIbw1jhEm+I4yoHTOGkn1jjlWec4\r\nrkvQOJQU3DjW+do4wbDHOBg2yDir4Mc4fg7aOI+w1zgrgM44ji/aOLK+5DhP4tI4dbnSOPgIzjiy\r\n0tU46dfnOOcg2ziurd44Dk3SOFu0xzhIlMU4VVvJOLp9xjh6Ir84PpnEOEDjwTjgDcc4WgXPOIIs\r\nxDhOOL44cnjPOGFMvDihrrg4RVjGOBuPyTirSdM4K2C+OFQnxzi+wMc4YyrLODy9wDg0Kdc4LkrK\r\nOKfnzDi1W7Y41PbCOHTfqzjWddY4L9C2OCyQxThK08Q42AHOOIJPyTjOxdE4Iw7COL5ZrTh/yL44\r\nUDexOLBZwjgy4bg4DLLAOFuJvThe2qw4PVCnOHMpxji0Q7U4HAzHONADvzj6PLo48pe0OF8Gvjji\r\nD7o4XbzvOC1BujjgfbE4bc28OFBGwzjEUME4Wg60OC+/wDiwkLY4gMzFOAi90zidf7I4kyq7ODFB\r\nsDg9V7U42Ne0OOppyTj0y7Q4LanAOA3+rTgN8K44cyG2OPV+tDj/RLc4aaKnOArqvzhm08w4Cuys\r\nOFkntDh2oKc4tGy6ON6LsTinjck4GAPAOH2kqDj5GbY4QaOrOH1bpTiC7bQ40NKtODASwDggc7s4\r\nxc27OLb5uTj+Wp04buSUOFtpqziIV7Q4FYq5ONuuszgcl8Q4MRKxOBhZtDhhuaI4Pg+qODYzqjje\r\n1qo4IyO0OGSfuzjBvqQ4jLOpOFJFpzg41qs4oQeTOAnipjgwQaU447aQOBycrjjHGqc4giewODgt\r\nkDiwrrI4oju2OOpfszgnc9A4yWepOFAZsjirrrg4dzKZOHHGnzi9u7M4RVGjODIPtzg36LA48Nmi\r\nOEW3kzgbAZ44BEC7OLLOnjht/qc4x1CyOP1ysTg3Rr44V3eeOD76qTgm+KU446SgOBmguDiCj6E4\r\nMGyrOL8UtDhQt6k4kEirOH+gtTjrgag4bD6eOCXhlzhIzZ44cruqOCD9mjhllI84qRCuOD8LrThI\r\n2bU4YZywOMojtDgBwcA4m1+aOLQEsDhm7bI4CFybOF8ylTjIi5o444WdOIK+qjicM6A47XmjOET9\r\npzgfcp04BkKbOOampzgEu6M4rAWqOHWeljhIe6g4s1WsOA9UmjgNZZE4n76cOMWHrDhAubI4156h\r\nOFP3tThasaE4Zp+mOIfHtjisW5k41oCfOManpDjN0KA4usKqOI/WmzgVmKs44vmzOMNQojgC7qQ4\r\nYKucOGGHmzhsbKs4Ir+YOG8mpzjxEaI4EAiuOPh0izgOSK04lE+tONbPozi7nZg4PsqcOABklzhY\r\niKg4MqGhOI3oiTiSYp04OaucOCj5pzgwz5042JqoOKhCqTjbfpA49KWbOLVrnTjw2aU4z1OZON0r\r\nsjgneqg4VqqsOHnApTjAsqA4LGSIOBHlkThbzqY4+l2MOCzSozj37584YQCiONAemzj3+qc42A2j\r\nOF4QrzgNSao44FGPOFPTmThtHKA4ZE6oOGRrkzhzfaA4v+COOL4+nzh6ZJY4zYGjOMpImDjNop04\r\nDwKfOCK8qDgGAJ84s+mSOEZFnDhXhpo4gZGGOB5dmjg0NKg4EJKTOLPQmzh8Zrk4tticOJKbnzje\r\nO5k4zSuaOGA2sTjL3Zs4qByNOF66lDi7oqQ4fkSTOI9jlDjAJpI4rPOZOMnZiDgS7Yw4bcOoOIHf\r\nnjjW6Jk4BRqjOB6LkzgDAo44ThaJOJyLijjgk5s4sYWVOBBklzilR5Q4MD2eOFJVujhY6Jw4TfGZ\r\nOEM3nDi5FZ04GuueOFa4oDhj+5I4v/6fON8VoziCs5k4Qi2JOAzctDjkh7Q41nOWOACikjirjsY+\r\nCtrLP17mLj90d6hANAyqQXPQ7UImG1lBszqBQMFcL0BiLi1Ae+a+PwbNkz9PVeM+aRNrPw+HED+a\r\nqcs+9IR3PwMZhD6djps+IKolPrzTyj6tQ/g+VYIqP3JxpT9Cccg/lyn4P3PIMz9v/t4//qBGQNa7\r\niEHe+rBA7aKDQHh4QEKPByxBtHRNQS51iUCopl9AUuHNP9wW+0BeTEhAHiCzP3y4Wj9MlZw/cAMM\r\nQEpl1D9FXCw/WBLwP1aJiT+s8lJAyVXOP7I1jD4m0yQ+mSwKPsxXdD40BU8/CsC6Pxio4z/J4ow/\r\nOOZHPzgI1j+v7KQ/IXkdP6NUXD+aPTo/tHw9PzxpKT/Li5Y/jsQ5P8dX2z9tygA/9tf9PktfhD8k\r\noQI/f8LYPqDW6j94PKk/qMxwP1mt3j5DF4I/2iILPq3Y/D2QPt89Ld88PpvREj7khgw+riGQPYuT\r\n5T299JA9L0MZPjPjRD7zSqg9uvgEPknSaj2ejcg9oo7lPWwLYT4xycI9RUjXPDbKLj0IQY09b6iK\r\nPcsAED6gpYE9cZSgPW1GtT1EjwY985GQPRtsET54CdM9vmkuPR7bmTwrsDM9Ui83PfD4iz2hTRc9\r\nagLvPAymkz0LorI9+BAjPY3yyTyuwDw9SIVcPZg/XTyYXYs8OcU3PbZ8Mz4AwEM9f8a+PAQQQDzz\r\nDWc9qfONPvTWaj/0GBI+FzMxPWBvoDw4jVA9IwsLPVLJmzza2ts8bsnSPHhLZzxVjx89vhCMPNqv\r\nAj2j5Qk8N4AFPbbpxjxGkzQ9k9emPVGvCD0UsFw9NLp/PZuj1DwgocA8lhFKPZQnAD3s6o4947k4\r\nPf5shj04UWQ82GmDPCZICz1bvcg8kpsMPplbEz27n4Y89D5QPE6MvDxPwNs8oo0rPOqg8Tw7mpA8\r\nCQWhPAstkT2fs9U9UcOOPOaqWDw1bY08WanbPFcyuTx9WrY8HKirPPIBFD0APt48mXKlPDqepTyi\r\neKw8QA2CPNB5iTxifAU976A9PO4zTDyC2Gc8yqaJPUQ8lzwUVlE8Gk1CPAsj9jsJLq88Kqd8PNti\r\ngDwXsEU8RimUPJpnWzykecc7ON9mPH4p1jsO0ho87YmEPO9GgTyUfU08ox0QPGiqdjxbZYM8cDvZ\r\nPF20PTyXlNE7JkVbPPhUID0ewro8NfcUPFRoMjwOX3k8zJKHO+tvijzE1Us8yYeNPJix4DsaGCc8\r\n5AEiPKssODyyBm88dfwxPOxhYzwZtiQ8qkcIPIslmjvkbAU8thqeO3ZCjzz6zbs8EAn4PPaExjyZ\r\nZJc8wmGLPSRjpz0YnE49kKafPLI+hDyaePA7OvcFPJTikTwpkLg8pM/IPBbnUjxfqyg8/JcfPP5s\r\n9TuIMEI8JPzoO16IqjxEqhw8ts8FPeRIVz0uL9g8AAsyPYTDBz0Vr9w7kpAKPBCfyzs2+sA7hkEX\r\nPN2uuDzQw9Y8jAlPPFsQhjwhaKg8bcs+PLh5WDy2KsQ8tM/YPJaKEz2+BcQ8FW0mPPwN4TsYuM48\r\nAtGdPajtpzukOY088E2gO2DQVzx4rIM7gIw9PL3cqDwDzfg7PT/NO46mjzw37Tk8euf5O/5Auzs8\r\n4S08QWo2O5q2hDuSO507yxexPCZhgzvgt5M7oL7zO5YRCjxU/6w8U1INPCDObjs6WEk8QfpmO3I/\r\nUDsbTwI7Bb8kO8NRzTu/G8w72oQDPJWMNDug5ks7j/M/PCVDCTt1QIo6Y+zOOhtKHjsgCoA6oRyt\r\nOtsiPTsIKoc6yvyJOgMSojpwYTg7m12yOhhzKjoWuC86cvIcOordVTqO7fU51WYROjigTDoW7BE6\r\ntH2yOfCexjnsX9Q5KEXVOdTBqDkRUuo5D/QhOetDCjpG9As69kSLOfcNojlHl7s5KYemOXtmoDnk\r\nstg5DJ6WObFLnjk0PLQ5iLmvOSr6sjlOEJ85ybKXOcCpkDneR6Y5N8yYOV1elzmUVIw5Mc+UOVcP\r\nqznaGZ45EbqcOeStjjnjtJ45j0aROeAskznwRos5NpSXOZeUjDlGjZQ5EoqVOT1/kjlSt4c58DiE\r\nORHnhjnOFIk5rGyDOYjHgjmF/YU5AS+HOcJrhTncD5Q5t5GFOTdviTnIgos5gPiCOfvHhDkM14E5\r\nDbmJOYq8fjmiY2w5IHN7OZu4djkkA305xWt6OUizdjkJMHE5RtqAOeCGcDlu6nQ5QPt7OYmhgjni\r\n4nM5WBNlOf4sbTluIWU5IXNrOWTXbDmS5mU5fbFfOYJLZDmCmm05cFNeOXpEZjlQH2g5mDNvOR3Q\r\nbDlYJFI5XPVvOUcVXTmUXls5V+1NOaysVTlStGM5HrVeOXN7SDnSHEQ5+mVjOTpGUjkvyFY5i4Jf\r\nOdpOUjlMyz85hFxfOQaXTjlrTlE5Zi1KOejUTTkScVY5OWtLOaEbVTn6GUo5kglGOWtEMznQkks5\r\nQrI9OaqzOTlCeEs5Gi85OU7UWTmH4zc5RUVGOWgvNDmhnzc5bEhLOfbWNjk/PTg5KoM/OenIOjmH\r\nTz85WCk9Oa4oMTmmkkM51og5OTuTNDnadzM5bPoxObQ2JzlNmjI5tOElORzxSTlwVj45hG0pOeqd\r\nNzl44ik5NYc0OQ4/HznnPCw5vsMqOaJLKDlCjDQ5cFszOWJrODlQMyg5vIAtOV02LjnQ+yY56i8v\r\nOfj+Kjkojxo5pZ8tOVURIzl2PCY5hN4iOXJ+JTmFUyM5rhQmOd67LDkM0B45AkUoOYDqHzkgyxU5\r\nLAYoOafoJTlj/RA5iH4dOSA9Ijn6uxk56bATOdI0LDlqVh05+mwfOe67HznlERg5Mh0hOVunFjlc\r\nWx45mhQTOamGHjkN9BU5uekUObTEHTlK/A45CLccOVSWIjmwyxs5vfUgOTQbHDnTXhU5QZkNOSM5\r\nGDnYCBI5BaMROWg1FDkzfxA5TsESOcYBDjnt+gk5tOAPOUxjCzn4ABg5hhYHOTR7CzlVBA455iUN\r\nOSenDDkIiBM5+JUHOYoHBjmLZgg56iYQObUIBDmHEgY51pwCOfmeAzncZQw54gcNOasGCTltYQw5\r\nDMQOOS6dBjkjVAs5vlYBOVZ/AjmvBwc5MIb+OEOX+zj8HQE5Vmv1OMSJBDkD9gQ5UBMDOXQTATkm\r\nw/84+F3+OIUFADnRRAM5z2sEOTIsADmyCvg48Q8JOW4i6TjhNgE5QyMDObwu+DhbUPM4CSL/OGjK\r\nBzmkpvg43tgGOVtuBjmMffE4aXn2OEzYADlRl+844t3hOM1q/ThMlO84wmAFOaT46ziHv/o4I30C\r\nOQf59ThD0us4vxf6OKqk5zgOsPU4Pin8OEby7zh1veY4dK7rOOsF9zh68eU4Gfn9OPJA8zie6/k4\r\nDmbvODxb7TgWFuk4fEDwOBe84zgWX984dSTTOHQN3jhlrNc4KjLkOGYB1jhuTs04Ol3IOOYz8jii\r\n/do4OFnkOORs8Dg6U/M4mJjlON2H2jgsMN84RPzpOI9d1jgo5Nc43nPeOK441TjEuOM4dCbMODxi\r\n5Dhh89A41YXcOCpw2jiqOsk48GLLOFWe5jizCNU4t8fjODKq3ziGC9E4xaTdOD7Q1Th+A9I4/rTE\r\nOMwX0Dh2CdA49mfmOE9UzDjiXMk4aNLWOBDUzDg66NQ4hvDWOESb4jjKgdM4aSfWOOVZ5ziuS9A4\r\nlBTcONb52jjBsMc4GDbIOKvgxzh+Dto4j7DXOCuAzjiOL9o4sr7kOE/i0jh1udI4+AjOOLLS1Tjp\r\n1+c45yDbOK6t3jgOTdI4W7THOEiUxThVW8k4un3GOHoivzg+mcQ4QOPBOOANxzhaBc84gizEOE44\r\nvjhyeM84YUy8OKGuuDhFWMY4G4/JOKtJ0zgrYL44VCfHOL7AxzhjKss4PL3AODQp1zguSso4p+fM\r\nOLVbtjjU9sI4dN+rONZ11jgv0LY4LJDFOErTxDjYAc44gk/JOM7F0TgjDsI4vlmtOH/IvjhQN7E4\r\nsFnCODLhuDgMssA4W4m9OF7arDg9UKc4cynGOLRDtTgcDMc40AO/OPo8ujjyl7Q4Xwa+OOIPujhd\r\nvO84LUG6OOB9sThtzbw4UEbDOMRQwThaDrQ4L7/AOLCQtjiAzMU4CL3TOJ1/sjiTKrs4MUGwOD1X\r\ntTjY17Q46mnJOPTLtDgtqcA4Df6tOA3wrjhzIbY49X60OP9Etzhpoqc4Cuq/OGbTzDgK7Kw4WSe0\r\nOHagpzi0bLo43ouxOKeNyTgYA8A4faSoOPkZtjhBo6s4fVulOILttDjQ0q04MBLAOCBzuzjFzbs4\r\ntvm5OP5anThu5JQ4W2mrOIhXtDgVirk4266zOByXxDgxErE4GFm0OGG5ojg+D6o4NjOqON7Wqjgj\r\nI7Q4ZJ+7OMG+pDiMs6k4UkWnODjWqzihB5M4CeKmODBBpTjjtpA4HJyuOMcapziCJ7A4OC2QOLCu\r\nsjiiO7Y46l+zOCdz0DjJZ6k4UBmyOKuuuDh3Mpk4ccafOL27szhFUaM4Mg+3ODfosDjw2aI4RbeT\r\nOBsBnjgEQLs4ss6eOG3+pzjHULI4/XKxODdGvjhXd544PvqpOCb4pTjjpKA4GaC4OIKPoTgwbKs4\r\nvxS0OFC3qTiQSKs4f6C1OOuBqDhsPp44JeGXOEjNnjhyu6o4IP2aOGWUjzipEK44PwutOEjZtThh\r\nnLA4yiO0OAHBwDibX5o4tASwOGbtsjgIXJs4XzKVOMiLmjjjhZ04gr6qOJwzoDjteaM4RP2nOB9y\r\nnTgGQps45qanOAS7ozisBao4dZ6WOEh7qDizVaw4D1SaOA1lkTifvpw4xYesOEC5sjjXnqE4U/e1\r\nOFqxoThmn6Y4h8e2OKxbmTjWgJ84xqekOM3QoDi6wqo4j9abOBWYqzji+bM4w1CiOALupDhgq5w4\r\nYYebOGxsqzgiv5g4byanOPERojgQCK44+HSLOA5IrTiUT6041s+jOLudmDg+ypw4AGSXOFiIqDgy\r\noaE4jeiJOJJinTg5q5w4KPmnODDPnTjYmqg4qEKpONt+kDj0pZs4tWudOPDZpTjPU5k43SuyOCd6\r\nqDhWqqw4ecClOMCyoDgsZIg4EeWROFvOpjj6XYw4LNKjOPfvnzhhAKI40B6bOPf6pzjYDaM4XhCv\r\nOA1JqjjgUY84U9OZOG0coDhkTqg4ZGuTOHN9oDi/4I44vj6fOHpkljjNgaM4ykiYOM2inTgPAp84\r\nIryoOAYAnziz6ZI4RkWcOFeGmjiBkYY4Hl2aODQ0qDgQkpM4s9CbOHxmuTi22Jw4kpufON47mTjN\r\nK5o4YDaxOMvdmzioHI04XrqUOLuipDh+RJM4j2OUOMAmkjis85k4ydmIOBLtjDhtw6g4gd+eONbo\r\nmTgFGqM4HouTOAMCjjhOFok4nIuKOOCTmzixhZU4EGSXOKVHlDgwPZ44UlW6OFjonDhN8Zk4Qzec\r\nOLkVnTga6544VrigOGP7kji//p843xWjOIKzmThCLYk4DNy0OOSHtDjWc5Y4AKKSOA==",
                            "noiseTrainingType" : "default"
                          },
                          "metadata" : {
                            "effectIndex" : "0"
                          }
                        }
                    ],
                    "start" : 3465,
                    "duration" : 337,
                    "mediaStart" : 305,
                    "mediaDuration" : 337,
                    "scalar" : 1,
                    "metadata" : {
                      "AutoAppliedSmartFocus" : "False",
                      "WinSubProjectDisplayName" : "",
                      "clipSpeedAttribute" : false
                    },
                    "animationTracks" : {

                    }
                  },
                  {
                    "id" : 60,
                    "_type" : "StitchedMedia",
                    "minMediaStart" : 0,
                    "attributes" : {
                      "ident" : "tower-02",
                      "gain" : 1.0,
                      "mixToMono" : false
                    },
                    "parameters" : {
                      "volume" : 1.0,
                      "cursorOpacity" : 1.0,
                      "cursorScale" : 1.0
                    },
                    "medias" : [
                        {
                          "id" : 61,
                          "_type" : "UnifiedMedia",
                          "video" : 
                              {
                                "id" : 62,
                                "_type" : "ScreenVMFile",
                                "src" : 2,
                                "trackNumber" : 0,
                                "attributes" : {
                                  "ident" : "Rec 02-04-20_004"
                                },
                                "parameters" : {
                                  "cursorScale" : {
                                    "type" : "double",
                                    "defaultValue" : 0.0,
                                    "interp" : "linr"
                                  },
                                  "cursorOpacity" : {
                                    "type" : "double",
                                    "defaultValue" : 0.0,
                                    "interp" : "linr"
                                  }
                                },
                                "effects" : [

                                ],
                                "start" : 0,
                                "duration" : 1233,
                                "mediaStart" : 0,
                                "mediaDuration" : 1233,
                                "scalar" : 1,
                                "animationTracks" : {

                                }
                              },
                          "audio" : 
                              {
                                "id" : 63,
                                "_type" : "AMFile",
                                "src" : 2,
                                "trackNumber" : 1,
                                "attributes" : {
                                  "ident" : "",
                                  "sampleRate" : 44100,
                                  "bitDepth" : 16,
                                  "gain" : 1.0,
                                  "mixToMono" : false
                                },
                                  "channelNumber" : "0,1",
                                "effects" : [

                                ],
                                "start" : 0,
                                "duration" : 1233,
                                "mediaStart" : 0,
                                "mediaDuration" : 1233,
                                "scalar" : 1,
                                "animationTracks" : {

                                }
                              }
,
                          "start" : 0,
                          "duration" : 1233,
                          "mediaStart" : 0,
                          "mediaDuration" : 9660,
                          "scalar" : 1,
                          "metadata" : {
                            "AutoAppliedSmartFocus" : "False",
                            "WinSubProjectDisplayName" : "",
                            "clipSpeedAttribute" : false
                          }
                        },
                        {
                          "id" : 64,
                          "_type" : "UnifiedMedia",
                          "video" : 
                              {
                                "id" : 65,
                                "_type" : "ScreenVMFile",
                                "src" : 2,
                                "trackNumber" : 0,
                                "attributes" : {
                                  "ident" : "Rec 02-04-20_004"
                                },
                                "parameters" : {
                                  "cursorScale" : {
                                    "type" : "double",
                                    "defaultValue" : 0.0,
                                    "interp" : "linr"
                                  },
                                  "cursorOpacity" : {
                                    "type" : "double",
                                    "defaultValue" : 0.0,
                                    "interp" : "linr"
                                  }
                                },
                                "effects" : [

                                ],
                                "start" : 1233,
                                "duration" : 8414,
                                "mediaStart" : 1246,
                                "mediaDuration" : 8414,
                                "scalar" : 1,
                                "animationTracks" : {

                                }
                              },
                          "audio" : 
                              {
                                "id" : 66,
                                "_type" : "AMFile",
                                "src" : 2,
                                "trackNumber" : 1,
                                "attributes" : {
                                  "ident" : "",
                                  "sampleRate" : 44100,
                                  "bitDepth" : 16,
                                  "gain" : 1.0,
                                  "mixToMono" : false
                                },
                                  "channelNumber" : "0,1",
                                "effects" : [

                                ],
                                "start" : 1233,
                                "duration" : 8414,
                                "mediaStart" : 1246,
                                "mediaDuration" : 8414,
                                "scalar" : 1,
                                "animationTracks" : {

                                }
                              }
,
                          "start" : 1233,
                          "duration" : 8414,
                          "mediaStart" : 0,
                          "mediaDuration" : 9660,
                          "scalar" : 1,
                          "metadata" : {
                            "AutoAppliedSmartFocus" : "False",
                            "WinSubProjectDisplayName" : "",
                            "clipSpeedAttribute" : false
                          }
                        }
                    ],
                    "effects" : [
                        {
                          "effectName" : "NoiseReduction",
                          "category" : "categoryAudioEffects",
                          "parameters" : {
                            "denoiserAmount" : 20.0,
                            "denoiserThreshold" : 0.0,
                            "noiseProfile" : "yHDGPgrayz9e5i4/dHeoQDQMqkFz0O1CJhtZQbM6gUDBXC9AYi4tQHvmvj8GzZM/T1XjPmkTaz8P\r\nhxA/mqnLPvSEdz8DGYQ+nY6bPiCqJT6808o+rUP4PlWCKj9ycaU/QnHIP5cp+D9zyDM/PPbeP2Kl\r\nRkA7vYhB3vqwQO2ig0B4eEBCjwcsQbR0TUEudYlAqKZfQFLhzT/cFvtAXkxIQB4gsz98uFo/TJWc\r\nP3ADDEBKZdQ/RVwsP2oT8D9WiYk/rPJSQMlVzj+yNYw+JtMkPpksCj7MV3Q+NAVPPwrAuj8YqOM/\r\nyeKMPzjmRz+gDtY/r+ykPyF5HT+jVFw/mj06P7R8PT88aSk/y4uWP47EOT+zcts/bcoAP/bX/T5L\r\nX4Q/JKECP3/C2D6g1uo/eDypP6jMcD9Zrd4+QxeCP9oiCz6t2Pw9kD7fPXq3PD6crRI+5IYMPq4h\r\nkD2Lk+U9cQmRPQIvGT5UpkQ+80qoPbr4BD5J0mo9no3IPcSK5T1qJmE+McnCPUVI1zw2yi49CEGN\r\nPYGOij1OTRA+fPCBPXGUoD1tRrU9RI8GPfORkD0bbBE+pDPTPXCPLj2d25k8K7AzPVQdNz0VGYw9\r\noU0XPWoC7zxYoZM9C6KyPfgQIz2N8sk8rsA8PUiFXD2YP108ISKMPDnFNz22fDM+AMBDPX/GvjwE\r\nEEA88w1nPanzjT701mo/9BgSPhczMT1gb6A8OI1QPaADCz1SyZs82trbPG7J0jx4S2c8VY8fPb4Q\r\njDzarwI9zlIJPDeABT2SFcc8peo0PbmXpj1Rrwg9FLBcPTS6fz2bo9Q8IKHAPJYRSj2UJwA97OqO\r\nPeO5OD3+bIY9OFFkPNhpgzwmSAs9GvPIPCavDD4zIxM9u5+GPPQ+UDxOjLw8T8DbPKKNKzzqoPE8\r\nTtyPPAkFoTwLLZE9I4fVPVHDjjzlwlg8NW2NPEQ53DxXMrk8fVq2PByoqzzyARQ96IfePJlypTw6\r\nnqU8onisPPnogTzQeYk8YnwFPe+gPTzuM0w8gthnPMqmiT1EPJc8rClQPEerQTyAzvY7V6qvPNkf\r\nfTwua4A8F7BFPEYplDx6zFo8lejFOzjfZjx+KdY7DtIaPO2JhDztEYE8GHFOPKMdEDxoqnY8W2WD\r\nPHA72TxdtD08l5TROyZFWzz4VCA9HsK6PDX3FDxUaDI8Dl95PMyShzvrb4o8xNVLPMmHjTyYseA7\r\nGhgnPOQBIjyrLDg8m7dvPHX8MTw5z2I856ckPKpHCDyLJZo75GwFPLYanjt2Qo88+s27PBBf+Dz2\r\nhMY8mWSXPMJhiz0kY6c9GJxOPZCmnzyyPoQ8mnjwOzr3BTyU4pE8KZC4PKTPyDwW51I8X6soPPyX\r\nHzz+bPU7iDBCPA156jteiKo8RKocPGKIBT3lUFc9Li/YPAALMj2Ewwc9Fa/cO5KQCjwQn8s7NvrA\r\nO4ZBFzxjeLg8yaPWPDLhTzxbEIY88zKoPG3LPjy2/1c8Y6vEPB6l2TyWihM9vgXEPBVtJjz8DeE7\r\nGLjOPALRnT2o7ac7EluNPDMdnzsG71c8EMuDO4CMPTw4RKg8A834Oz0/zTuOpo88HEo6PHrn+Tv+\r\nQLs7POEtPPVyODuatoQ7kjudO6FSsTwmYYM7UhWTOz7j8juWEQo8VP+sPFNSDTwgzm47OlhJPEH6\r\nZjso2E87+FsDOwW/JDvDUc07vxvMO9qEAzyVjDQ7oOZLO4/zPzwlQwk7dUCKOmPszjobSh47IAqA\r\nOqEcrTrbIj077+2BOsr8iToDEqI6cGE4O2a5sDoYcyo6FrgvOnLyHDqK3VU6ju31OdVmETo4oEw6\r\nFuwROrR9sjnwnsY57F/UOShF1TnUwag5EVLqOQ/0ITnrQwo6RvQLOvZEizn3DaI5R5e7OSmHpjl7\r\nZqA55LLYOQyeljmxS545NDy0OYi5rzkq+rI5ThCfOcmylznAqZA53kemOTfMmDldXpc5lFSMOTHP\r\nlDlXD6s52hmeORG6nDnkrY4547SeOY9GkTngLJM58EaLOTaUlzmXlIw5Ro2UORKKlTk9f5I5UreH\r\nOfA4hDkR54Y5zhSJOaxsgzmIx4I5hf2FOQEvhznCa4U53A+UObeRhTk3b4k5yIKLOYD4gjn7x4Q5\r\nDNeBOQ25iTmKvH45omNsOSBzezmbuHY5JAN9OcVrejlIs3Y5CTBxOUbagDnghnA5bup0OUD7ezmJ\r\noYI54uJzOVgTZTn+LG05biFlOSFzazlk12w5kuZlOX2xXzmCS2Q5gpptOXBTXjl6RGY5UB9oOZgz\r\nbzkd0Gw5WCRSOVz1bzlHFV05lF5bOVftTTmsrFU5UrRjOR61Xjlze0g50hxEOfplYzk6RlI5L8hW\r\nOYuCXznaTlI5TMs/OYRcXzkGl045a05ROWYtSjno1E05EnFWOTlrSzmhG1U5+hlKOZIJRjlrRDM5\r\n0JJLOUKyPTmqszk5QnhLORovOTlO1Fk5h+M3OUVFRjloLzQ5oZ83OWxISzn21jY5Pz04OSqDPznp\r\nyDo5h08/OVgpPTmuKDE5ppJDOdaIOTk7kzQ52nczOWz6MTm0Nic5TZoyObThJTkc8Uk5cFY+OYRt\r\nKTnqnTc5eOIpOTWHNDkOPx855zwsOb7DKjmiSyg5Qow0OXBbMzliazg5UDMoObyALTldNi450Psm\r\nOeovLzn4/io5KI8aOaWfLTlVESM5djwmOYTeIjlyfiU5hVMjOa4UJjneuyw5DNAeOQJFKDmA6h85\r\nIMsVOSwGKDmn6CU5Y/0QOYh+HTkgPSI5+rsZOemwEznSNCw5alYdOfpsHznuux855REYOTIdITlb\r\npxY5XFseOZoUEzmphh45DfQVObnpFDm0xB05SvwOOQi3HDlUliI5sMsbOb31IDk0Gxw5014VOUGZ\r\nDTkjORg52AgSOQWjETloNRQ5M38QOU7BEjnGAQ457foJObTgDzlMYws5+AAYOYYWBzk0ews5VQQO\r\nOeYlDTknpww5CIgTOfiVBzmKBwY5i2YIOeomEDm1CAQ5hxIGOdacAjn5ngM53GUMOeIHDTmrBgk5\r\nbWEMOQzEDjkunQY5I1QLOb5WATlWfwI5rwcHOTCG/jhDl/s4/B0BOVZr9TjEiQQ5A/YEOVATAzl0\r\nEwE5JsP/OPhd/jiFBQA50UQDOc9rBDkyLAA5sgr4OPEPCTluIuk44TYBOUMjAzm8Lvg4W1DzOAki\r\n/zhoygc5pKb4ON7YBjlbbgY5jH3xOGl59jhM2AA5UZfvOOLd4TjNav04TJTvOMJgBTmk+Os4h7/6\r\nOCN9AjkH+fU4Q9LrOL8X+jiqpOc4DrD1OD4p/DhG8u84db3mOHSu6zjrBfc4evHlOBn5/TjyQPM4\r\nnuv5OA5m7zg8W+04FhbpOHxA8DgXvOM4Fl/fOHUk0zh0Dd44ZazXOCoy5DhmAdY4bk7NODpdyDjm\r\nM/I4ov3aODhZ5DjkbPA4OlPzOJiY5Tjdh9o4LDDfOET86TiPXdY4KOTXON5z3jiuONU4xLjjOHQm\r\nzDg8YuQ4YfPQONWF3DgqcNo4qjrJOPBiyzhVnuY4swjVOLfH4zgyqt84hgvROMWk3Tg+0NU4fgPS\r\nOP60xDjMF9A4dgnQOPZn5jhPVMw44lzJOGjS1jgQ1Mw4OujUOIbw1jhEm+I4yoHTOGkn1jjlWec4\r\nrkvQOJQU3DjW+do4wbDHOBg2yDir4Mc4fg7aOI+w1zgrgM44ji/aOLK+5DhP4tI4dbnSOPgIzjiy\r\n0tU46dfnOOcg2ziurd44Dk3SOFu0xzhIlMU4VVvJOLp9xjh6Ir84PpnEOEDjwTjgDcc4WgXPOIIs\r\nxDhOOL44cnjPOGFMvDihrrg4RVjGOBuPyTirSdM4K2C+OFQnxzi+wMc4YyrLODy9wDg0Kdc4LkrK\r\nOKfnzDi1W7Y41PbCOHTfqzjWddY4L9C2OCyQxThK08Q42AHOOIJPyTjOxdE4Iw7COL5ZrTh/yL44\r\nUDexOLBZwjgy4bg4DLLAOFuJvThe2qw4PVCnOHMpxji0Q7U4HAzHONADvzj6PLo48pe0OF8Gvjji\r\nD7o4XbzvOC1BujjgfbE4bc28OFBGwzjEUME4Wg60OC+/wDiwkLY4gMzFOAi90zidf7I4kyq7ODFB\r\nsDg9V7U42Ne0OOppyTj0y7Q4LanAOA3+rTgN8K44cyG2OPV+tDj/RLc4aaKnOArqvzhm08w4Cuys\r\nOFkntDh2oKc4tGy6ON6LsTinjck4GAPAOH2kqDj5GbY4QaOrOH1bpTiC7bQ40NKtODASwDggc7s4\r\nxc27OLb5uTj+Wp04buSUOFtpqziIV7Q4FYq5ONuuszgcl8Q4MRKxOBhZtDhhuaI4Pg+qODYzqjje\r\n1qo4IyO0OGSfuzjBvqQ4jLOpOFJFpzg41qs4oQeTOAnipjgwQaU447aQOBycrjjHGqc4giewODgt\r\nkDiwrrI4oju2OOpfszgnc9A4yWepOFAZsjirrrg4dzKZOHHGnzi9u7M4RVGjODIPtzg36LA48Nmi\r\nOEW3kzgbAZ44BEC7OLLOnjht/qc4x1CyOP1ysTg3Rr44V3eeOD76qTgm+KU446SgOBmguDiCj6E4\r\nMGyrOL8UtDhQt6k4kEirOH+gtTjrgag4bD6eOCXhlzhIzZ44cruqOCD9mjhllI84qRCuOD8LrThI\r\n2bU4YZywOMojtDgBwcA4m1+aOLQEsDhm7bI4CFybOF8ylTjIi5o444WdOIK+qjicM6A47XmjOET9\r\npzgfcp04BkKbOOampzgEu6M4rAWqOHWeljhIe6g4s1WsOA9UmjgNZZE4n76cOMWHrDhAubI4156h\r\nOFP3tThasaE4Zp+mOIfHtjisW5k41oCfOManpDjN0KA4usKqOI/WmzgVmKs44vmzOMNQojgC7qQ4\r\nYKucOGGHmzhsbKs4Ir+YOG8mpzjxEaI4EAiuOPh0izgOSK04lE+tONbPozi7nZg4PsqcOABklzhY\r\niKg4MqGhOI3oiTiSYp04OaucOCj5pzgwz5042JqoOKhCqTjbfpA49KWbOLVrnTjw2aU4z1OZON0r\r\nsjgneqg4VqqsOHnApTjAsqA4LGSIOBHlkThbzqY4+l2MOCzSozj37584YQCiONAemzj3+qc42A2j\r\nOF4QrzgNSao44FGPOFPTmThtHKA4ZE6oOGRrkzhzfaA4v+COOL4+nzh6ZJY4zYGjOMpImDjNop04\r\nDwKfOCK8qDgGAJ84s+mSOEZFnDhXhpo4gZGGOB5dmjg0NKg4EJKTOLPQmzh8Zrk4tticOJKbnzje\r\nO5k4zSuaOGA2sTjL3Zs4qByNOF66lDi7oqQ4fkSTOI9jlDjAJpI4rPOZOMnZiDgS7Yw4bcOoOIHf\r\nnjjW6Jk4BRqjOB6LkzgDAo44ThaJOJyLijjgk5s4sYWVOBBklzilR5Q4MD2eOFJVujhY6Jw4TfGZ\r\nOEM3nDi5FZ04GuueOFa4oDhj+5I4v/6fON8VoziCs5k4Qi2JOAzctDjkh7Q41nOWOACikjirjsY+\r\nCtrLP17mLj90d6hANAyqQXPQ7UImG1lBszqBQMFcL0BiLi1Ae+a+PwbNkz9PVeM+aRNrPw+HED+a\r\nqcs+9IR3PwMZhD6djps+IKolPrzTyj6tQ/g+VYIqP3JxpT9Cccg/lyn4P3PIMz9v/t4//qBGQNa7\r\niEHe+rBA7aKDQHh4QEKPByxBtHRNQS51iUCopl9AUuHNP9wW+0BeTEhAHiCzP3y4Wj9MlZw/cAMM\r\nQEpl1D9FXCw/WBLwP1aJiT+s8lJAyVXOP7I1jD4m0yQ+mSwKPsxXdD40BU8/CsC6Pxio4z/J4ow/\r\nOOZHPzgI1j+v7KQ/IXkdP6NUXD+aPTo/tHw9PzxpKT/Li5Y/jsQ5P8dX2z9tygA/9tf9PktfhD8k\r\noQI/f8LYPqDW6j94PKk/qMxwP1mt3j5DF4I/2iILPq3Y/D2QPt89Ld88PpvREj7khgw+riGQPYuT\r\n5T299JA9L0MZPjPjRD7zSqg9uvgEPknSaj2ejcg9oo7lPWwLYT4xycI9RUjXPDbKLj0IQY09b6iK\r\nPcsAED6gpYE9cZSgPW1GtT1EjwY985GQPRtsET54CdM9vmkuPR7bmTwrsDM9Ui83PfD4iz2hTRc9\r\nagLvPAymkz0LorI9+BAjPY3yyTyuwDw9SIVcPZg/XTyYXYs8OcU3PbZ8Mz4AwEM9f8a+PAQQQDzz\r\nDWc9qfONPvTWaj/0GBI+FzMxPWBvoDw4jVA9IwsLPVLJmzza2ts8bsnSPHhLZzxVjx89vhCMPNqv\r\nAj2j5Qk8N4AFPbbpxjxGkzQ9k9emPVGvCD0UsFw9NLp/PZuj1DwgocA8lhFKPZQnAD3s6o4947k4\r\nPf5shj04UWQ82GmDPCZICz1bvcg8kpsMPplbEz27n4Y89D5QPE6MvDxPwNs8oo0rPOqg8Tw7mpA8\r\nCQWhPAstkT2fs9U9UcOOPOaqWDw1bY08WanbPFcyuTx9WrY8HKirPPIBFD0APt48mXKlPDqepTyi\r\neKw8QA2CPNB5iTxifAU976A9PO4zTDyC2Gc8yqaJPUQ8lzwUVlE8Gk1CPAsj9jsJLq88Kqd8PNti\r\ngDwXsEU8RimUPJpnWzykecc7ON9mPH4p1jsO0ho87YmEPO9GgTyUfU08ox0QPGiqdjxbZYM8cDvZ\r\nPF20PTyXlNE7JkVbPPhUID0ewro8NfcUPFRoMjwOX3k8zJKHO+tvijzE1Us8yYeNPJix4DsaGCc8\r\n5AEiPKssODyyBm88dfwxPOxhYzwZtiQ8qkcIPIslmjvkbAU8thqeO3ZCjzz6zbs8EAn4PPaExjyZ\r\nZJc8wmGLPSRjpz0YnE49kKafPLI+hDyaePA7OvcFPJTikTwpkLg8pM/IPBbnUjxfqyg8/JcfPP5s\r\n9TuIMEI8JPzoO16IqjxEqhw8ts8FPeRIVz0uL9g8AAsyPYTDBz0Vr9w7kpAKPBCfyzs2+sA7hkEX\r\nPN2uuDzQw9Y8jAlPPFsQhjwhaKg8bcs+PLh5WDy2KsQ8tM/YPJaKEz2+BcQ8FW0mPPwN4TsYuM48\r\nAtGdPajtpzukOY088E2gO2DQVzx4rIM7gIw9PL3cqDwDzfg7PT/NO46mjzw37Tk8euf5O/5Auzs8\r\n4S08QWo2O5q2hDuSO507yxexPCZhgzvgt5M7oL7zO5YRCjxU/6w8U1INPCDObjs6WEk8QfpmO3I/\r\nUDsbTwI7Bb8kO8NRzTu/G8w72oQDPJWMNDug5ks7j/M/PCVDCTt1QIo6Y+zOOhtKHjsgCoA6oRyt\r\nOtsiPTsIKoc6yvyJOgMSojpwYTg7m12yOhhzKjoWuC86cvIcOordVTqO7fU51WYROjigTDoW7BE6\r\ntH2yOfCexjnsX9Q5KEXVOdTBqDkRUuo5D/QhOetDCjpG9As69kSLOfcNojlHl7s5KYemOXtmoDnk\r\nstg5DJ6WObFLnjk0PLQ5iLmvOSr6sjlOEJ85ybKXOcCpkDneR6Y5N8yYOV1elzmUVIw5Mc+UOVcP\r\nqznaGZ45EbqcOeStjjnjtJ45j0aROeAskznwRos5NpSXOZeUjDlGjZQ5EoqVOT1/kjlSt4c58DiE\r\nORHnhjnOFIk5rGyDOYjHgjmF/YU5AS+HOcJrhTncD5Q5t5GFOTdviTnIgos5gPiCOfvHhDkM14E5\r\nDbmJOYq8fjmiY2w5IHN7OZu4djkkA305xWt6OUizdjkJMHE5RtqAOeCGcDlu6nQ5QPt7OYmhgjni\r\n4nM5WBNlOf4sbTluIWU5IXNrOWTXbDmS5mU5fbFfOYJLZDmCmm05cFNeOXpEZjlQH2g5mDNvOR3Q\r\nbDlYJFI5XPVvOUcVXTmUXls5V+1NOaysVTlStGM5HrVeOXN7SDnSHEQ5+mVjOTpGUjkvyFY5i4Jf\r\nOdpOUjlMyz85hFxfOQaXTjlrTlE5Zi1KOejUTTkScVY5OWtLOaEbVTn6GUo5kglGOWtEMznQkks5\r\nQrI9OaqzOTlCeEs5Gi85OU7UWTmH4zc5RUVGOWgvNDmhnzc5bEhLOfbWNjk/PTg5KoM/OenIOjmH\r\nTz85WCk9Oa4oMTmmkkM51og5OTuTNDnadzM5bPoxObQ2JzlNmjI5tOElORzxSTlwVj45hG0pOeqd\r\nNzl44ik5NYc0OQ4/HznnPCw5vsMqOaJLKDlCjDQ5cFszOWJrODlQMyg5vIAtOV02LjnQ+yY56i8v\r\nOfj+Kjkojxo5pZ8tOVURIzl2PCY5hN4iOXJ+JTmFUyM5rhQmOd67LDkM0B45AkUoOYDqHzkgyxU5\r\nLAYoOafoJTlj/RA5iH4dOSA9Ijn6uxk56bATOdI0LDlqVh05+mwfOe67HznlERg5Mh0hOVunFjlc\r\nWx45mhQTOamGHjkN9BU5uekUObTEHTlK/A45CLccOVSWIjmwyxs5vfUgOTQbHDnTXhU5QZkNOSM5\r\nGDnYCBI5BaMROWg1FDkzfxA5TsESOcYBDjnt+gk5tOAPOUxjCzn4ABg5hhYHOTR7CzlVBA455iUN\r\nOSenDDkIiBM5+JUHOYoHBjmLZgg56iYQObUIBDmHEgY51pwCOfmeAzncZQw54gcNOasGCTltYQw5\r\nDMQOOS6dBjkjVAs5vlYBOVZ/AjmvBwc5MIb+OEOX+zj8HQE5Vmv1OMSJBDkD9gQ5UBMDOXQTATkm\r\nw/84+F3+OIUFADnRRAM5z2sEOTIsADmyCvg48Q8JOW4i6TjhNgE5QyMDObwu+DhbUPM4CSL/OGjK\r\nBzmkpvg43tgGOVtuBjmMffE4aXn2OEzYADlRl+844t3hOM1q/ThMlO84wmAFOaT46ziHv/o4I30C\r\nOQf59ThD0us4vxf6OKqk5zgOsPU4Pin8OEby7zh1veY4dK7rOOsF9zh68eU4Gfn9OPJA8zie6/k4\r\nDmbvODxb7TgWFuk4fEDwOBe84zgWX984dSTTOHQN3jhlrNc4KjLkOGYB1jhuTs04Ol3IOOYz8jii\r\n/do4OFnkOORs8Dg6U/M4mJjlON2H2jgsMN84RPzpOI9d1jgo5Nc43nPeOK441TjEuOM4dCbMODxi\r\n5Dhh89A41YXcOCpw2jiqOsk48GLLOFWe5jizCNU4t8fjODKq3ziGC9E4xaTdOD7Q1Th+A9I4/rTE\r\nOMwX0Dh2CdA49mfmOE9UzDjiXMk4aNLWOBDUzDg66NQ4hvDWOESb4jjKgdM4aSfWOOVZ5ziuS9A4\r\nlBTcONb52jjBsMc4GDbIOKvgxzh+Dto4j7DXOCuAzjiOL9o4sr7kOE/i0jh1udI4+AjOOLLS1Tjp\r\n1+c45yDbOK6t3jgOTdI4W7THOEiUxThVW8k4un3GOHoivzg+mcQ4QOPBOOANxzhaBc84gizEOE44\r\nvjhyeM84YUy8OKGuuDhFWMY4G4/JOKtJ0zgrYL44VCfHOL7AxzhjKss4PL3AODQp1zguSso4p+fM\r\nOLVbtjjU9sI4dN+rONZ11jgv0LY4LJDFOErTxDjYAc44gk/JOM7F0TgjDsI4vlmtOH/IvjhQN7E4\r\nsFnCODLhuDgMssA4W4m9OF7arDg9UKc4cynGOLRDtTgcDMc40AO/OPo8ujjyl7Q4Xwa+OOIPujhd\r\nvO84LUG6OOB9sThtzbw4UEbDOMRQwThaDrQ4L7/AOLCQtjiAzMU4CL3TOJ1/sjiTKrs4MUGwOD1X\r\ntTjY17Q46mnJOPTLtDgtqcA4Df6tOA3wrjhzIbY49X60OP9Etzhpoqc4Cuq/OGbTzDgK7Kw4WSe0\r\nOHagpzi0bLo43ouxOKeNyTgYA8A4faSoOPkZtjhBo6s4fVulOILttDjQ0q04MBLAOCBzuzjFzbs4\r\ntvm5OP5anThu5JQ4W2mrOIhXtDgVirk4266zOByXxDgxErE4GFm0OGG5ojg+D6o4NjOqON7Wqjgj\r\nI7Q4ZJ+7OMG+pDiMs6k4UkWnODjWqzihB5M4CeKmODBBpTjjtpA4HJyuOMcapziCJ7A4OC2QOLCu\r\nsjiiO7Y46l+zOCdz0DjJZ6k4UBmyOKuuuDh3Mpk4ccafOL27szhFUaM4Mg+3ODfosDjw2aI4RbeT\r\nOBsBnjgEQLs4ss6eOG3+pzjHULI4/XKxODdGvjhXd544PvqpOCb4pTjjpKA4GaC4OIKPoTgwbKs4\r\nvxS0OFC3qTiQSKs4f6C1OOuBqDhsPp44JeGXOEjNnjhyu6o4IP2aOGWUjzipEK44PwutOEjZtThh\r\nnLA4yiO0OAHBwDibX5o4tASwOGbtsjgIXJs4XzKVOMiLmjjjhZ04gr6qOJwzoDjteaM4RP2nOB9y\r\nnTgGQps45qanOAS7ozisBao4dZ6WOEh7qDizVaw4D1SaOA1lkTifvpw4xYesOEC5sjjXnqE4U/e1\r\nOFqxoThmn6Y4h8e2OKxbmTjWgJ84xqekOM3QoDi6wqo4j9abOBWYqzji+bM4w1CiOALupDhgq5w4\r\nYYebOGxsqzgiv5g4byanOPERojgQCK44+HSLOA5IrTiUT6041s+jOLudmDg+ypw4AGSXOFiIqDgy\r\noaE4jeiJOJJinTg5q5w4KPmnODDPnTjYmqg4qEKpONt+kDj0pZs4tWudOPDZpTjPU5k43SuyOCd6\r\nqDhWqqw4ecClOMCyoDgsZIg4EeWROFvOpjj6XYw4LNKjOPfvnzhhAKI40B6bOPf6pzjYDaM4XhCv\r\nOA1JqjjgUY84U9OZOG0coDhkTqg4ZGuTOHN9oDi/4I44vj6fOHpkljjNgaM4ykiYOM2inTgPAp84\r\nIryoOAYAnziz6ZI4RkWcOFeGmjiBkYY4Hl2aODQ0qDgQkpM4s9CbOHxmuTi22Jw4kpufON47mTjN\r\nK5o4YDaxOMvdmzioHI04XrqUOLuipDh+RJM4j2OUOMAmkjis85k4ydmIOBLtjDhtw6g4gd+eONbo\r\nmTgFGqM4HouTOAMCjjhOFok4nIuKOOCTmzixhZU4EGSXOKVHlDgwPZ44UlW6OFjonDhN8Zk4Qzec\r\nOLkVnTga6544VrigOGP7kji//p843xWjOIKzmThCLYk4DNy0OOSHtDjWc5Y4AKKSOA==",
                            "noiseTrainingType" : "default"
                          },
                          "metadata" : {
                            "effectIndex" : "0"
                          }
                        }
                    ],
                    "start" : 3802,
                    "duration" : 6420,
                    "mediaStart" : 1319,
                    "mediaDuration" : 6420,
                    "scalar" : 1,
                    "metadata" : {
                      "AutoAppliedSmartFocus" : "False",
                      "WinSubProjectDisplayName" : "",
                      "clipSpeedAttribute" : false
                    },
                    "animationTracks" : {

                    }
                  },
                  {
                    "id" : 67,
                    "_type" : "StitchedMedia",
                    "minMediaStart" : 0,
                    "attributes" : {
                      "ident" : "tower-03",
                      "gain" : 1.0,
                      "mixToMono" : false
                    },
                    "parameters" : {
                      "volume" : 1.0,
                      "cursorOpacity" : 1.0,
                      "cursorScale" : 1.0
                    },
                    "medias" : [
                        {
                          "id" : 68,
                          "_type" : "UnifiedMedia",
                          "video" : 
                              {
                                "id" : 69,
                                "_type" : "ScreenVMFile",
                                "src" : 3,
                                "trackNumber" : 0,
                                "attributes" : {
                                  "ident" : "Rec 02-04-20_005"
                                },
                                "parameters" : {
                                  "cursorScale" : {
                                    "type" : "double",
                                    "defaultValue" : 0.0,
                                    "interp" : "linr"
                                  },
                                  "cursorOpacity" : {
                                    "type" : "double",
                                    "defaultValue" : 0.0,
                                    "interp" : "linr"
                                  }
                                },
                                "effects" : [

                                ],
                                "start" : 0,
                                "duration" : 686,
                                "mediaStart" : 0,
                                "mediaDuration" : 686,
                                "scalar" : 1,
                                "animationTracks" : {

                                }
                              },
                          "audio" : 
                              {
                                "id" : 70,
                                "_type" : "AMFile",
                                "src" : 3,
                                "trackNumber" : 1,
                                "attributes" : {
                                  "ident" : "",
                                  "sampleRate" : 44100,
                                  "bitDepth" : 16,
                                  "gain" : 1.0,
                                  "mixToMono" : false
                                },
                                  "channelNumber" : "0,1",
                                "effects" : [

                                ],
                                "start" : 0,
                                "duration" : 686,
                                "mediaStart" : 0,
                                "mediaDuration" : 686,
                                "scalar" : 1,
                                "animationTracks" : {

                                }
                              }
,
                          "start" : 0,
                          "duration" : 686,
                          "mediaStart" : 0,
                          "mediaDuration" : 7666,
                          "scalar" : 1,
                          "metadata" : {
                            "AutoAppliedSmartFocus" : "False",
                            "WinSubProjectDisplayName" : "",
                            "clipSpeedAttribute" : false
                          }
                        },
                        {
                          "id" : 71,
                          "_type" : "UnifiedMedia",
                          "video" : 
                              {
                                "id" : 72,
                                "_type" : "ScreenVMFile",
                                "src" : 3,
                                "trackNumber" : 0,
                                "attributes" : {
                                  "ident" : "Rec 02-04-20_005"
                                },
                                "parameters" : {
                                  "cursorScale" : {
                                    "type" : "double",
                                    "defaultValue" : 0.0,
                                    "interp" : "linr"
                                  },
                                  "cursorOpacity" : {
                                    "type" : "double",
                                    "defaultValue" : 0.0,
                                    "interp" : "linr"
                                  }
                                },
                                "effects" : [

                                ],
                                "start" : 686,
                                "duration" : 6971,
                                "mediaStart" : 695,
                                "mediaDuration" : 6971,
                                "scalar" : 1,
                                "animationTracks" : {

                                }
                              },
                          "audio" : 
                              {
                                "id" : 73,
                                "_type" : "AMFile",
                                "src" : 3,
                                "trackNumber" : 1,
                                "attributes" : {
                                  "ident" : "",
                                  "sampleRate" : 44100,
                                  "bitDepth" : 16,
                                  "gain" : 1.0,
                                  "mixToMono" : false
                                },
                                  "channelNumber" : "0,1",
                                "effects" : [

                                ],
                                "start" : 686,
                                "duration" : 6971,
                                "mediaStart" : 695,
                                "mediaDuration" : 6971,
                                "scalar" : 1,
                                "animationTracks" : {

                                }
                              }
,
                          "start" : 686,
                          "duration" : 6971,
                          "mediaStart" : 0,
                          "mediaDuration" : 7666,
                          "scalar" : 1,
                          "metadata" : {
                            "AutoAppliedSmartFocus" : "False",
                            "WinSubProjectDisplayName" : "",
                            "clipSpeedAttribute" : false
                          }
                        }
                    ],
                    "effects" : [
                        {
                          "effectName" : "NoiseReduction",
                          "category" : "categoryAudioEffects",
                          "parameters" : {
                            "denoiserAmount" : 20.0,
                            "denoiserThreshold" : 0.0,
                            "noiseProfile" : "gDMcPldJMT+YOs0+rn8IP31z5z9/+C9CqGKxQSqQaEDjcow/+H+yP/Vw0T7O8JM/EU8JP8Z6Aj8K\r\n4VM+740tPq5u7D6kzCk/VCWBP8JzFz/fPIQ/BedoPg95gz+ZIcg+0MncP4v8+j8d8gI/82g2QL9r\r\nZj/cFVVBPqf1QAu7Y0CKVqNAZnn6Pz5W10DjpCRARTYgQACeaj9rtiBA6epXP2pLj0DokXdAeiG9\r\nQGTB7kAxMoJAcPEsQNDsFkDfsVJA4nUmQQTbEUA/b8k/KQQ/PxjbID+oo8c/A2oCQbUvgT95W4E/\r\n8LLZPh4m2D9++rg/pmgoP5v8HT+LIhE/OWH9PrI3VT+mpSNA6J6DP5PDmj/vjU4/DIezP9KfmUDo\r\n7Qo/zeMaP5Ir4D5Eklc+8S2rPtIQvD5jpZo+dJvVP3a+Pj+lBUs+f9/7PeQ5sz4uoSM+9W3fPW/6\r\nHT75qNo9wGukPdrcND52gkA+H7/VPfUfRz65Kuc+p2e3PkGfOz+w8sE/KHTHP1C8BD+wB2M/3N5d\r\nP9SEyT3iVM4+aY1tPnvn5T254sI9B35lPZzfbj5KU649uj/PPXDMST7Bcgk+zv7nPGXgIz1UO/E8\r\nHNuiPXrOoD0Lmw4+231NPSu6Fz0lMZI8jRJ6PLqRVz2kLO48E5nKPbAXAD22Uc488o/TPL+cVj33\r\nP9g9+zkXPiLbgj2URYE9cqoLPYYaQD3N9Ag9v+SWPdCDfT2QL9I9podFPZl9Az0W9sM+d8RhPrtQ\r\ncT4GB+U+bNnJPuINSj7C2jc+TCU7Pd14Rz5o32g9JtD4Pb+RJj7bJA89i8MGPSvPKzxGB4M8sgFQ\r\nPDYm0DxZUBo99vBfPWdA0Tywpq485TMSPUEQ3DyLPWQ8jGi6PGf9Fj1iPgQ9HNLdPH6olj1s9y49\r\n/nP9PJ3hGD6dwp091t48PfGZijwulpY8MjatPGB6lz30LWE9aAgPPUjTejyKhtw8RBEyPOKsJTzN\r\nNpY8GFmXPJrmPjyc2YI86q13PNKUHz2Gu/M8+POrPOhEGzy6xtc8WxWTPJbRDz12aV88u0pFPBca\r\nqjxKagQ8UTGLPOm6uzvUF6Y8e4kNPQFBsjurAvI8UpVePEzPfDwC7tA8hrnUPPGpbzyE8as8gKNN\r\nPQ4N6TxicQw9wp8ePdT/tDznDeI9TEjIPQRznTypHws8vIYAPII82TsZ9JY8W+y2PLOtkT1LpoM9\r\nzgEMPT7snDwJrP88PjACPRgpgjz5Wg48HOmfPKIavDs3a/g7jSjeO8pwFz3Kal492ongPMDHzjzv\r\nK5c8kFzrO8xKljyme807kDSuPKaTUTwPG6w8uC9lPM2ujTv/5dg8PyHqPBVhgjwYojc8ALLcOzwM\r\nVTs3wEM8w8XUO9yaGDwQhYk8EV5pPEtUQDyW4+k7xCT8POz6uDzAa688R60/PNaGeDwCPC88qtKo\r\nPF7OMTy0+tU8/uMhPP8zqjssGIY8frAgPBJSijsD0x8847ZhPJodjTwe6hY8qgkQPMaMkDuesk48\r\nGXVqPDbNUTtMALs76Xk4PGr20Tv12oc7wiyeO9VW0TvXCbg874QHPszm9j3dyQw82QycPHouijtI\r\nxBc8Pqd/Ozci8DtzsEw7YwbdO44NaDv9EqY7vG1BPCrZKjysswI88WN8O6N04jurWNM8wAocPeAv\r\nwjsaEqQ8ZDZ7PNrnxTxEOys9Z67oPNCHozs4QI08N9s3PFeXLTx2QIk7uC+bO7UAnjutjU48Zp4h\r\nPNPrODx29hA8dLRPPPskmTtH3zw7FYojO2eG6zoV5ys6Po4YOgUwezpmTlE6MAdgOooY/DlmuAg6\r\nfw8aOu19lzqgDIo5tQDnOci4oDnJEag59JPEOdimVjnSauQ4/d8POfWoMTn60Dw5KbOCOSTyADkz\r\n7AA5r8cZOaiiCDkgixY5zvwaOeB2RznUvhU5ewW4OKrM1TjmCAc5VznVOGkh3jh6UeE47bHpOGWS\r\n5jjATyI5UwUMOdU26zg+L684s7jKOFiL9jjss8g4a6j4OJBfzTg5YcI4nn7IOFrV+Tgq8M44fmvN\r\nOB1HyTgsetQ49Y/eOP0oyzgYRbs4h0XDOByXujgrDbo4JifBOOtQujjos8Q4r0y8OGWByDg2b884\r\nzQ+5OLD5sTigo7A4YZjBOM7kuzjAuMU4XRLIOEB+sjhnacE4QgepOGA7qTh4IbU4lEStOCx/qTg4\r\nirw4KsjEOEhVsDjeN7s44PjCOKbDozgCi6I4y/uvOGd6yzikAqQ4CvytOGdjszhTO584pcGhOAgx\r\npTiliqc4RGufOALtsjhDT5g4Nxa6OBC8oTjucaQ4RH6dODoDkzilVqk4tl+TOI5kijj1upE4yXuW\r\nOJoynzgvpqM484qjOIgDmjhjVKA4IP2WOJBooTg3nJk4ohqROBgfpzi02ZQ4QBicOBjklzhdOoc4\r\nXryYOKpeljh6BKM4P0WVOA7bkDgbxoE4+muLODJ3lziio4o4pg6OOPRGnTgq2pE4ChmUOGBsizhS\r\noJU4eYSOOBxAfzi99YA4hdCNOOvdijiZ4pE4P3mLOHjgiDjjnX84BfeBOBDtfzgjjII4MuqLOEYn\r\nbziwtoU4fFt9OFK4kzgpw4o4nLltOFmugDjlz4U4ypNhOHrPgDhSlIg4I5RwOOx+bzg0WYY4eIKG\r\nOJrScjgkkXo4Sg51OKvPjziAuH84ElGFOB4KczhYhXk4Xjx8OM6mfTjzznE42oBYOOyyYTgA0Xs4\r\nyIOHOBqbdzh+AXQ42G9lOHZZdDhmXog49a1pOHZWgzgEL1k4OulfOALLcThZm2442vlWOKCDVjgq\r\ncG84tFlzOBCiYDjFHHE497F0OJCdXjite3A4OFtMOHWyYzg17104/GNPOOPKdjgZ1184UJdiOIyR\r\nYzjvZ204ziRbOO6/ajg1WlM4jpVjOD7ATTgWUmg4hKxKOJBzQji5jEg4+iRIOELqPDihm104TCRM\r\nOP5dRDjo5VY4hZxEOLxdTzhkN2g4+WteOMBAXThACz84uk1HOGk5PzhKMEQ4/ixCOPZkZzgIbVI4\r\n4BJBOD4LTjicIUY45BZbOCDHMjgMzT04aG5ROOEJXzgKFTc4zOQ+OPGVPjiK9z04bO1COBL3TzjA\r\nXUI4Bq4tOPM1UzjC6lI4smIuOAq3QzgAfUg4Pk8yOByVQThJwyo4L3g8OCS1Qzhra0Q4sphDOGpn\r\nPjiMpU84m0pXOO6JQDhUNlY4qP03OHJHSDgE8Sg4tMs3OOYUNzgkPio4vNEqOB7DOjjkJzk4bjQ/\r\nOOSbNTh2SzM4rtUvOLa/SjhaiT04CjI/OHovQDiGVzM4FSwxOG56OjgKjjc4sSgjOG0FUjjgUFU4\r\nHN8VOL4NJzjGPSI4f/VGOGSqFjhMlS84HosROF+BKThwZyY4Yn0nOOPKQji+xRs4fBYuOPmIJDgm\r\n0Sw4CPolOLGGLjh1NAo4tZYyOEibOzhsux443cIWOB8sIjjaBTU420kpOHJiMzjEaj84AWAjODEY\r\nHTgWdio45E4zOJLeHjj7WSA4pBIqOFfRHTjhTDM4Wgc0OPMwLTiSGCA4D60ZOPRHETh/YjA4WkEi\r\nOCopMjho4Ss4H8Q5OB4QFzh4rCE4b+YcODF2MThhpyU4I6giODy6KDgH3hA4yhQUOCgHIDg4QyM4\r\nTqQ4ON52Hjg20Cw4TwIeOMXgGTgKNQo4Y4QMOKRBDzgvgBE4zu4gOKXlFzjOQCQ4OJQXOMkQDzgM\r\nkxY4ulc9OEDfKziOtSI4FtASOJkEPDgueB04yeUdOB8nEziYbBA4cowtOOatJTjQzCc4pqb2N3oj\r\nDjg1YAc4XFcZOCiTETjahR04BTsTOEioDTh4SgI4RWcIOERjDziFBhI4/0UYOJLrIDifugk4rsoO\r\nOA5uADjAI+83QAQYOPglIjheYw04KUwTOLDsCzhTpBU40A8WOCXNAzji0Bw42wkiOBdjBzgdsxI4\r\numwLOGltIzgpTAw4PjUMOJ/a5Dexjf83oVoUOIY7EDioTgY4obYLOIpdEzgaqxY4UToBOBSJ+zf8\r\nNhM4MJ7pN4rNAzgffP43AnsHOM+DDDh+Jx04UkkIOO/8DDihrQ44oJQUOCcY+TfsFS44wn8COLAB\r\nBji81vA3zLESOGty6DeM6w04mDIaOLKtATh+OgY4IP32N5qPCzhImhU4poD5NxqS8Tcy5Qo4W93h\r\nN7cIADhPbRE4tKf2N8nBATi+NAM4urEFOFNxAjhO1v43zqYeOPI49zc50Qc4v4cROO0rCzgV7Ns3\r\n0OQGOP6z+jcf3hY4RBv9N3Km7jeeLQk4PHoGODrhBzi8NAc48MYHOALrDzjpkCA4v8oRODczEji7\r\nZ/s3RtgBOHYcFjiQHw44T9H3N5I25DeKfvk3v7ADOFRC/De4gOw3WLD1NxJd+TcGEQM44yr5NywZ\r\nBziEXgY4CNUCOEhvEDgLiQk4gGkIOD5v6DeQLPY3nj0AONLO9jcZrPM3btgAOIke8Dcfufk3wCfW\r\nN58H8DdefM43t1kTOBMDFTggWPw3xMXqN83zATj2Xxw4pgntN4z3CTjxAAc4i8YBOEFz7DcpPeI3\r\nRBX7N/T19zcO9eg3JlL1N2UEAzgTa+o39b8POO577Td+2QM4JHPzN0/uBTgKlgQ427INOH6nDThV\r\nDPA32CzoN1l9ATh1LQs4RN7oN4Bh7Te5EPw31N/TNxBF+Dd2h/43hy3nNw5x/TcI5803SMznN3F9\r\n+DeSf/E35abpN0b55TdcuAA4uinTN3Si5zcXqdw3aoD+N9sT2zerHAU4epflN41X4zf9jfM3od8I\r\nOBYWDzhXIsY3ein6N/zzAjj6nfo31DPwN7nF0jfMJvc3fnEROOww8Tc+UfA3EBf7N01k5DelbAA4\r\n7gjmN5zM+jdCxO43oCTZN7ClADh26P83ek8QOPF4ATjoKO43hB3vN5CaxDc8W/s3r+HxNwwB5jeq\r\nIOk3Kd7+N56M6zdKl+s3NdDqN9Ho1TfT/eA355vDN1Wx6TfVAeQ3pvf3N5Kd5zeXsd43lavnN0Kf\r\ntzfBA/Y34TnCNx1x1DfpdeE3laHNN7Coyzd2OwM4n3rlN72e5Deexws4q2boN1KR+TeGOtw38dP0\r\nN/3i5DeeQgc4jdnUN7TM2zdUSQA4zHj6NyzU3zfFs983574FOHud4DfzUgU4MlXlN2fA6DfLwOg3\r\n2PHzNz+qyTdfKto3WbDhNys45DfIM+c3iUneN05F3Dd2ZOM3N2/tN4Yq9Dflgek31dfnN9DJ3jcE\r\nScQ3IVXoN0q6yzcZjP43kSMCOPXx5TdngPU3297VN31Q6Tf4m9c3b0zYN+rH/DcIe/c3wtHmN4jq\r\n8jecte03fFfSN/COyTfGKdo3BvcAOFgx6DcgsgE4zfHnN/w88jdSDtU3P6rZN6Dn2jd50v03KPAM\r\nONPw8DdvruM3/uPgN4wO9jfQ+7s3oLfHN4PqFDiQjfY3Y9gFOChR4jeyOcc3XGvsNwCBDjiAMxw+\r\n2VAxP8JezT6ufwg/fXPnPyn8L0KoYrFBKpBoQEuCjD/4f7I/9XDRPmfpkz8RTwk/xnoCP4R1Uz5G\r\noC0+rm7sPqTMKT9UJYE/wnMXP988hD98AGk+D3mDP5khyD7Qydw/i/z6Px3yAj/zaDZAj35mP9wV\r\nVUE+p/VAC7tjQIpWo0Ayifo/PlbXQOOkJECOKSBAAJ5qP8e3IEBey1c/akuPQOiRd0B6Ib1AZMHu\r\nQDEygkBw8SxA0OwWQN+xUkDidSZBBNsRQD9vyT8pBD8/GNsgP6ijxz8DagJBzi2BP3lbgT/wstk+\r\nHibYP376uD+maCg/zw0eP4siET85Yf0+sjdVP6alI0DIm4M/k8OaP0DHTj8Mh7M/0p+ZQOjtCj9u\r\n1Bo/kivgPkSSVz7xLas+0hC8PmOlmj50m9U/dr4+P6UFSz5/3/s95DmzPi6hIz71bd89b/odPvmo\r\n2j2NxKQ9TtY0PtoNQD6cRdY99R9HPrkq5z6nZ7c+QZ87P7DywT8odMc/ULwEP7AHYz/c3l0/1ITJ\r\nPeJUzj5pjW0+e+flPbniwj0HfmU9nN9uPkpTrj26P889cMxJPsFyCT6z0+c85/AjPVQ78Twc26I9\r\nes6gPQubDj6Glk09K7oXPQCEkTyNEno8upFXPaQs7jwTmco9sBcAPfkWzjzyj9M8v5xWPfc/2D37\r\nORc+ItuCPSdWgT1yqgs9hhpAPc30CD2/5JY90IN9PZAv0j2mh0U9mX0DPRb2wz53xGE+u1BxPgYH\r\n5T5s2ck+4g1KPsLaNz5MJTs93XhHPmjfaD0m0Pg9v5EmPtskDz2LwwY9K88rPEYHgzyyAVA8NibQ\r\nPFlQGj328F89ztvQPDTZrTzlMxI9+VXbPIs9ZDyEGLo8Z/0WPXj1Az0c0t08fqiWPWz3Lj3+c/08\r\nneEYPp3CnT3W3jw9ILGKPC6WljwyNq08YHqXPfQtYT1oCA89SNN6PPWT3DxEETI84qwlPM02ljwY\r\nWZc8muY+PJzZgjzqrXc80pQfPYa78zz486s86EQbPLrG1zxbFZM8ltEPPXZpXzwil0Q8FxqqPEpq\r\nBDxRMYs86bq7O9QXpjx7iQ09DICyO6sC8jxSlV48TM98PALu0DyGudQ88alvPITxqzyAo009Dg3p\r\nPGJxDD3Cnx491P+0POcN4j1MSMg9BHOdPKkfCzy8hgA8gjzZOxn0ljxb7LY8s62RPUumgz3OAQw9\r\nPuycPHYS/zw+MAI9GCmCPPlaDjzTQaA8ohq8Ozdr+Dtoats7ynAXPcpqXj3aieA8wMfOPO8rlzyQ\r\nXOs7cJ2WPKZ7zTvctK08ppNRPGUPrDytb2U8za6NO//l2Dw/Ieo8FWGCPD68Nzz7u9s7PAxVOzfA\r\nQzzDxdQ73JoYPBCFiTwRXmk8S1RAPJbj6TusV/w87Pq4PJDvrjxHrT881oZ4PAI8Lzyq0qg8Xs4x\r\nPLT61Tz+4yE8/zOqOywYhjzSqiA88saIOwPTHzzjtmE8mh2NPB7qFjyqCRA8T+OPO56yTjwZdWo8\r\nNs1RO0wAuzvpeTg8avbRO/XahzvCLJ471VbRO9cJuDzvhAc+zOb2Pd3JDDzZDJw8ei6KO0jEFzw+\r\np387NyLwO3OwTDtjBt07jg1oO/0Spju2v0A8rBksPKyzAjzxY3w7o3TiO6tY0zzAChw94C/COxoS\r\npDxkNns82ufFPEQ7Kz1nrug80IejOzhAjTw32zc8V5ctPHZAiTu4L5s7tQCeO62NTjxmniE80+s4\r\nPHb2EDx0tE88+ySZO0ffPDsViiM7Z4brOhXnKzo+jhg6BTB7OnY/UzowB2A6QEb5OWa4CDp/Dxo6\r\n7X2XOqAMijm1AOc511SeOckRqDn0k8Q52KZWOdJq5Dgyvxc59agxOdiXOTkps4I5JPIAOTPsADm4\r\nHgY5jf4VOfjM/TitSyY54HZHOcavBzn4/sI4qszVOBbcATlXOdU4ztrJOHpR4TjAIv44WwP2OMBP\r\nIjlTBQw5xP3mOAnk1jizuMo49Mj9OKaX+zhEx+w4kF/NODSyxTiqtN04rt/oOAQK5jj8LdU4mK7B\r\nOGIW4zgontE4GPzBOOljvTh8k8843fvBOEh4tTg2xsA4WRK/OMghyjhRe7A4eLrQOFiPyDgOsbI4\r\nOLa9ONHsrDicKb04WZrBOCZrwTgXC7U4XmHKOGkbujic97U4j2GpODBsrTiFPq04gtClOLTItzim\r\nZsM4htyxOD0CwTiB9MU49O+gOAw1ozjzAq44rIm7OECHrDjU7ak4lluuOPBUpTgCOpk4+/KlOORE\r\npTh2u6o4wtOjOE3/ozhCYa845yyhOMwLoTiXPpE4BtGbOFiFoThudZc42FOJOPJpmjiik5Y4yj2g\r\nOPxLmTjOlqA4VjGnOMWCmThNC5U49OuXOKV9nThyeJQ4h/WhONwXizis7ZM4yu6UOOhMkDgKiZY4\r\ntxeQOHLmoziI6Yo4HAeYOIDehDhYbYk4cemZOGrAmzjKrIU4yTmoOOC4jDjGKos4QMiJOBcskDid\r\n/pw4Wq1vOJaSdDjSIoo4oKeKONlPiziMIpQ42x2gOPzecTghGX04//uCOCs1ZjiyvYg47yGHOCF8\r\nZzgUv384yiqZOJUyhjjp4Hs4Ni14OO24fzhqvYQ42Hd3ONMUgzhdl3Y4OqWEOPNIcTge7YQ4Jqlx\r\nOCtjjTgp44Q4Nyh+OLgRkjieYW44HgpzOMYUgjgqlX44wPmCOPPOcTioQFM4m45ZOABJhDhbAoU4\r\n3SuAOJGEbTj5mXY4yzmIOPKRZTj1rWk4hGiEOKbIYDgKzWE4AstxOG73XDiw8WE4YeZzOBhmgzgo\r\nDnQ4iuJhOCUacTjH74A4+HxLONMwcDgQwlM4QKBWOBLUUDjMGV04bN9lOIuKcjj++2w4nLhXOMaj\r\nZTialV442khoODVaUzhMgG44btNbOOwjWjhPzFs48qxROEltSTgQ/0s40ts8OMwyPDiTR1c43jVB\r\nODjYSDg8c1I4uKBhOLhvWjja8WM4wEBdOFGATjg8UEw4aTk/OMakSTj+LEI41o9TOOimXDjgEkE4\r\nEus9OGBAWTiw50U4XpQtOKqLRzhoblE4kMlTODhQSDgQUUY48ZU+OGKyTTjE0zY4+LVeOFxJRjj9\r\nSzc46BtOOJ6JOziyYi44SVg7OC/nSzi3Oj04gVlBOEnDKjhPy0o42Ls0OKL+RDgbKFU4VDs4ONAl\r\nWDjqPkU4JlJHOMNtOzio/Tc4uAZEONa1MTi48Tk4nlQrOBozMTiupiw4bmk2OOQnOTgL+DU4It8x\r\nOGQFOjhutSk4brhZOON2LzhGLTo4UhU2OEz2QDhk9TU4cPomOOLTLTgZWic4P+E6OJgUWTjsaBU4\r\nzqkoOKJIHzjhiTc4Rlc2OAKRHDjkqQ44BvkyOFNFOjj1pyA4hAE0OOr8MDiU7Bw4+YgkOHFiMjhC\r\nCCI4lQATOHU0CjhkACg47bA/OIGxJDjgaxk4vT0yOLaNKDjsCCo4WEIxOHRbQjjOUiU4MRgdOMCP\r\nLDgeewo4d5QXOPtZIDjacSw4jrIzOBDyGDjyuDA4CikvOKSCMTiGLxA4lEQXOOVTKTjKkiU4o2kx\r\nOM37MzgUxR44IFwROMGPNjhqrR04ItUnOKrhKzguKxE4RA4yOAfeEDgbnw84zLoqOCgjLDhHuy04\r\npsYKODbQLDgL8h048sMROB4+ETjiLRg4pEEPOKTEFTgS4RI4rO0bOM5AJDifTys4yRAPOH45Fjjg\r\n9UE4iDYhOKjNLTgDbyE4NjYvOEKFCjjJ5R044MgaOJhsEDgXzRs4XjUjOEPnNTglJ/43OI8PODVg\r\nBzhcVxk4K/8SOJanHzi+KA44P5wQOJVkCDgkKBc4GncSOHCtKDg9Oh44qxEXOMXnBjhQCRc4iE8A\r\nOKAw8TdZse836DAkOI78DzgEaiE4RQgeOKovCjhiujA4oFsXOBL4GDjbCSI4DfEFOGIkBDi91hc4\r\ne54VOIYhADiiSRU4OTLqN7GN/zebYxU4hjsQOKhOBjjQSxQ40rsSOGAtDzhpCAA4JksFOPw2EziI\r\nDvg3zIgGOFVOBDgQCAs4QG0GOJwmOThJFAA46YIYOKwXCjg3owU4cVQEOH88IzioNBA4sAEGOP/Y\r\nBzjW3v83LRMMOB9WETi40Ao4ZgAKOCkJBjjRQQA4P6IMOFJFBDgX5Ac4AQbyNx7bBjh5FOA3aMwG\r\nOO2RDTi0p/Y3eQwCOPf8/TcU0vQ3Rc0VOCo4CzhGuwo4pUn7NwZ98TeqOgQ42/QKOEJ11zfQ5AY4\r\ncJIJOLxg+zdyUwA4/TYIOJXyEjgtBgw4lBcGOBxADjjwxgc4vTgGOPkjIzjYnQU4+E8VOLtn+zdG\r\n2AE4Qh0QOOcH9Ddl4AE437roN3C3+zdXvP03SIsNOLiA7DfH6xA4PbfkNwYRAzj0FwE4Ly4KOKPN\r\n+DdG4+U3yWwOOLuABTjZJw44xRrlNzax7Td2QAY4Tq78N76qBjgcIfk3Pr3dNyot+DfAJ9Y3w23j\r\nN2Rr3jdpzh04/PcAOJ+q/jcLSu03zfMBOKPlCzg1o+03fUsROO3O/zfmOwA4K7L8N4oV1zfGxeE3\r\nvHEBOFxzyjet7AY46a0DOB/35TeuPwo4xTnpNwhHBjitAAQ4y3sLOFcM8Tc0pQM4lksNOGqqAjiT\r\nF/w3qAjpN3vrDjgZQuY3+Q7uN1uM/DfaX9o3nBfYN2kA/TejtNc329fWN+dj4jdxZdY3QuL0N0sU\r\nADgrxwY49xnjN4jrADjqywI4qTfqN50A7TcmdAA4/YjJN/kwBzjA4N03jVfjN+9MATjyuPY3qffs\r\nN826xzd9Tec3sTsIOFf5EDjUM/A3CTDQN9GX7Td+cRE4kJ/VNzvHEThfG9s3TWTkN5JuBjjuCOY3\r\nnMz6N+kIvjfJ9+030Mj/N+InDDi1Fv838XgBOMnU+TeD6fg36q3pN2pQ6zf3q+o3HP4AOLVr/Ddn\r\nCN034Cj9N9v//jfFqt83hBr3N9P94DdoBNY3ZP3lN2IS0Dem9/c3bZPmN7UP1Df76AI4TUW2N6GS\r\n9DfhOcI3HXHUN3IB6Dc71eA3GH/aNyNg1zfSieM3yUrhNz5M5zfUVwM4PVP+N1aW5DdBtfc3JjgD\r\nODlf+Dc0deY3ok3KNyMZDjgwjOU3AafNN4Uv+Tdafuo38F/ON8O+/zfbtfA3iNgBOAswvzcoQfI3\r\nORjTN05R3DfVM+s3EJ7+N8gz5zeJSd43Bp8BON2W4DfJG+s3ClQBOLHO4jf6ls43XPnfNwRJxDfR\r\nGds3SfvnNw6e3zfE5hM46yruN4ZS1jdk0+Q3w5/vNzUk4zdX3Pw3BS7rNwKG8De7uAM4xP3vN7xN\r\nuzdYmsE38I7JNyQ1/Tebj+o3dSvyNzbW7zdRAus3Lvv6N6Vh4Tc/qtk3oOfaN3nS/TcoGgk4RgLb\r\nN0052Tf+4+A37jryNzwW1Dew/NY3Zv70N2fI9Ddj2AU4w1vKN0b/0jdDlgI4AFL6Nw==",
                            "noiseTrainingType" : "default"
                          }
                        }
                    ],
                    "start" : 10222,
                    "duration" : 454,
                    "mediaStart" : 274,
                    "mediaDuration" : 454,
                    "scalar" : 1,
                    "metadata" : {
                      "AutoAppliedSmartFocus" : "False",
                      "WinSubProjectDisplayName" : "",
                      "clipSpeedAttribute" : false
                    },
                    "animationTracks" : {

                    }
                  },
                  {
                    "id" : 74,
                    "_type" : "UnifiedMedia",
                    "video" : 
                        {
                          "id" : 75,
                          "_type" : "ScreenVMFile",
                          "src" : 3,
                          "trackNumber" : 0,
                          "attributes" : {
                            "ident" : "tower-03"
                          },
                          "parameters" : {
                            "cursorScale" : {
                              "type" : "double",
                              "defaultValue" : 1.0,
                              "interp" : "linr"
                            },
                            "cursorOpacity" : {
                              "type" : "double",
                              "defaultValue" : 1.0,
                              "interp" : "linr"
                            }
                          },
                          "effects" : [

                          ],
                          "start" : 10676,
                          "duration" : 865,
                          "mediaStart" : 2477,
                          "mediaDuration" : 865,
                          "scalar" : 1,
                          "animationTracks" : {

                          }
                        },
                    "audio" : 
                        {
                          "id" : 76,
                          "_type" : "AMFile",
                          "src" : 3,
                          "trackNumber" : 1,
                          "attributes" : {
                            "ident" : "",
                            "sampleRate" : 44100,
                            "bitDepth" : 16,
                            "gain" : 1.0,
                            "mixToMono" : false
                          },
                            "channelNumber" : "0,1",
                          "effects" : [
                              {
                                "effectName" : "NoiseReduction",
                                "category" : "categoryAudioEffects",
                                "parameters" : {
                                  "denoiserAmount" : 20.0,
                                  "denoiserThreshold" : 0.0,
                                  "noiseProfile" : "gDMcPldJMT+YOs0+rn8IP31z5z9/+C9CqGKxQSqQaEDjcow/+H+yP/Vw0T7O8JM/EU8JP8Z6Aj8K\r\n4VM+740tPq5u7D6kzCk/VCWBP8JzFz/fPIQ/BedoPg95gz+ZIcg+0MncP4v8+j8d8gI/82g2QL9r\r\nZj/cFVVBPqf1QAu7Y0CKVqNAZnn6Pz5W10DjpCRARTYgQACeaj9rtiBA6epXP2pLj0DokXdAeiG9\r\nQGTB7kAxMoJAcPEsQNDsFkDfsVJA4nUmQQTbEUA/b8k/KQQ/PxjbID+oo8c/A2oCQbUvgT95W4E/\r\n8LLZPh4m2D9++rg/pmgoP5v8HT+LIhE/OWH9PrI3VT+mpSNA6J6DP5PDmj/vjU4/DIezP9KfmUDo\r\n7Qo/zeMaP5Ir4D5Eklc+8S2rPtIQvD5jpZo+dJvVP3a+Pj+lBUs+f9/7PeQ5sz4uoSM+9W3fPW/6\r\nHT75qNo9wGukPdrcND52gkA+H7/VPfUfRz65Kuc+p2e3PkGfOz+w8sE/KHTHP1C8BD+wB2M/3N5d\r\nP9SEyT3iVM4+aY1tPnvn5T254sI9B35lPZzfbj5KU649uj/PPXDMST7Bcgk+zv7nPGXgIz1UO/E8\r\nHNuiPXrOoD0Lmw4+231NPSu6Fz0lMZI8jRJ6PLqRVz2kLO48E5nKPbAXAD22Uc488o/TPL+cVj33\r\nP9g9+zkXPiLbgj2URYE9cqoLPYYaQD3N9Ag9v+SWPdCDfT2QL9I9podFPZl9Az0W9sM+d8RhPrtQ\r\ncT4GB+U+bNnJPuINSj7C2jc+TCU7Pd14Rz5o32g9JtD4Pb+RJj7bJA89i8MGPSvPKzxGB4M8sgFQ\r\nPDYm0DxZUBo99vBfPWdA0Tywpq485TMSPUEQ3DyLPWQ8jGi6PGf9Fj1iPgQ9HNLdPH6olj1s9y49\r\n/nP9PJ3hGD6dwp091t48PfGZijwulpY8MjatPGB6lz30LWE9aAgPPUjTejyKhtw8RBEyPOKsJTzN\r\nNpY8GFmXPJrmPjyc2YI86q13PNKUHz2Gu/M8+POrPOhEGzy6xtc8WxWTPJbRDz12aV88u0pFPBca\r\nqjxKagQ8UTGLPOm6uzvUF6Y8e4kNPQFBsjurAvI8UpVePEzPfDwC7tA8hrnUPPGpbzyE8as8gKNN\r\nPQ4N6TxicQw9wp8ePdT/tDznDeI9TEjIPQRznTypHws8vIYAPII82TsZ9JY8W+y2PLOtkT1LpoM9\r\nzgEMPT7snDwJrP88PjACPRgpgjz5Wg48HOmfPKIavDs3a/g7jSjeO8pwFz3Kal492ongPMDHzjzv\r\nK5c8kFzrO8xKljyme807kDSuPKaTUTwPG6w8uC9lPM2ujTv/5dg8PyHqPBVhgjwYojc8ALLcOzwM\r\nVTs3wEM8w8XUO9yaGDwQhYk8EV5pPEtUQDyW4+k7xCT8POz6uDzAa688R60/PNaGeDwCPC88qtKo\r\nPF7OMTy0+tU8/uMhPP8zqjssGIY8frAgPBJSijsD0x8847ZhPJodjTwe6hY8qgkQPMaMkDuesk48\r\nGXVqPDbNUTtMALs76Xk4PGr20Tv12oc7wiyeO9VW0TvXCbg874QHPszm9j3dyQw82QycPHouijtI\r\nxBc8Pqd/Ozci8DtzsEw7YwbdO44NaDv9EqY7vG1BPCrZKjysswI88WN8O6N04jurWNM8wAocPeAv\r\nwjsaEqQ8ZDZ7PNrnxTxEOys9Z67oPNCHozs4QI08N9s3PFeXLTx2QIk7uC+bO7UAnjutjU48Zp4h\r\nPNPrODx29hA8dLRPPPskmTtH3zw7FYojO2eG6zoV5ys6Po4YOgUwezpmTlE6MAdgOooY/DlmuAg6\r\nfw8aOu19lzqgDIo5tQDnOci4oDnJEag59JPEOdimVjnSauQ4/d8POfWoMTn60Dw5KbOCOSTyADkz\r\n7AA5r8cZOaiiCDkgixY5zvwaOeB2RznUvhU5ewW4OKrM1TjmCAc5VznVOGkh3jh6UeE47bHpOGWS\r\n5jjATyI5UwUMOdU26zg+L684s7jKOFiL9jjss8g4a6j4OJBfzTg5YcI4nn7IOFrV+Tgq8M44fmvN\r\nOB1HyTgsetQ49Y/eOP0oyzgYRbs4h0XDOByXujgrDbo4JifBOOtQujjos8Q4r0y8OGWByDg2b884\r\nzQ+5OLD5sTigo7A4YZjBOM7kuzjAuMU4XRLIOEB+sjhnacE4QgepOGA7qTh4IbU4lEStOCx/qTg4\r\nirw4KsjEOEhVsDjeN7s44PjCOKbDozgCi6I4y/uvOGd6yzikAqQ4CvytOGdjszhTO584pcGhOAgx\r\npTiliqc4RGufOALtsjhDT5g4Nxa6OBC8oTjucaQ4RH6dODoDkzilVqk4tl+TOI5kijj1upE4yXuW\r\nOJoynzgvpqM484qjOIgDmjhjVKA4IP2WOJBooTg3nJk4ohqROBgfpzi02ZQ4QBicOBjklzhdOoc4\r\nXryYOKpeljh6BKM4P0WVOA7bkDgbxoE4+muLODJ3lziio4o4pg6OOPRGnTgq2pE4ChmUOGBsizhS\r\noJU4eYSOOBxAfzi99YA4hdCNOOvdijiZ4pE4P3mLOHjgiDjjnX84BfeBOBDtfzgjjII4MuqLOEYn\r\nbziwtoU4fFt9OFK4kzgpw4o4nLltOFmugDjlz4U4ypNhOHrPgDhSlIg4I5RwOOx+bzg0WYY4eIKG\r\nOJrScjgkkXo4Sg51OKvPjziAuH84ElGFOB4KczhYhXk4Xjx8OM6mfTjzznE42oBYOOyyYTgA0Xs4\r\nyIOHOBqbdzh+AXQ42G9lOHZZdDhmXog49a1pOHZWgzgEL1k4OulfOALLcThZm2442vlWOKCDVjgq\r\ncG84tFlzOBCiYDjFHHE497F0OJCdXjite3A4OFtMOHWyYzg17104/GNPOOPKdjgZ1184UJdiOIyR\r\nYzjvZ204ziRbOO6/ajg1WlM4jpVjOD7ATTgWUmg4hKxKOJBzQji5jEg4+iRIOELqPDihm104TCRM\r\nOP5dRDjo5VY4hZxEOLxdTzhkN2g4+WteOMBAXThACz84uk1HOGk5PzhKMEQ4/ixCOPZkZzgIbVI4\r\n4BJBOD4LTjicIUY45BZbOCDHMjgMzT04aG5ROOEJXzgKFTc4zOQ+OPGVPjiK9z04bO1COBL3TzjA\r\nXUI4Bq4tOPM1UzjC6lI4smIuOAq3QzgAfUg4Pk8yOByVQThJwyo4L3g8OCS1Qzhra0Q4sphDOGpn\r\nPjiMpU84m0pXOO6JQDhUNlY4qP03OHJHSDgE8Sg4tMs3OOYUNzgkPio4vNEqOB7DOjjkJzk4bjQ/\r\nOOSbNTh2SzM4rtUvOLa/SjhaiT04CjI/OHovQDiGVzM4FSwxOG56OjgKjjc4sSgjOG0FUjjgUFU4\r\nHN8VOL4NJzjGPSI4f/VGOGSqFjhMlS84HosROF+BKThwZyY4Yn0nOOPKQji+xRs4fBYuOPmIJDgm\r\n0Sw4CPolOLGGLjh1NAo4tZYyOEibOzhsux443cIWOB8sIjjaBTU420kpOHJiMzjEaj84AWAjODEY\r\nHTgWdio45E4zOJLeHjj7WSA4pBIqOFfRHTjhTDM4Wgc0OPMwLTiSGCA4D60ZOPRHETh/YjA4WkEi\r\nOCopMjho4Ss4H8Q5OB4QFzh4rCE4b+YcODF2MThhpyU4I6giODy6KDgH3hA4yhQUOCgHIDg4QyM4\r\nTqQ4ON52Hjg20Cw4TwIeOMXgGTgKNQo4Y4QMOKRBDzgvgBE4zu4gOKXlFzjOQCQ4OJQXOMkQDzgM\r\nkxY4ulc9OEDfKziOtSI4FtASOJkEPDgueB04yeUdOB8nEziYbBA4cowtOOatJTjQzCc4pqb2N3oj\r\nDjg1YAc4XFcZOCiTETjahR04BTsTOEioDTh4SgI4RWcIOERjDziFBhI4/0UYOJLrIDifugk4rsoO\r\nOA5uADjAI+83QAQYOPglIjheYw04KUwTOLDsCzhTpBU40A8WOCXNAzji0Bw42wkiOBdjBzgdsxI4\r\numwLOGltIzgpTAw4PjUMOJ/a5Dexjf83oVoUOIY7EDioTgY4obYLOIpdEzgaqxY4UToBOBSJ+zf8\r\nNhM4MJ7pN4rNAzgffP43AnsHOM+DDDh+Jx04UkkIOO/8DDihrQ44oJQUOCcY+TfsFS44wn8COLAB\r\nBji81vA3zLESOGty6DeM6w04mDIaOLKtATh+OgY4IP32N5qPCzhImhU4poD5NxqS8Tcy5Qo4W93h\r\nN7cIADhPbRE4tKf2N8nBATi+NAM4urEFOFNxAjhO1v43zqYeOPI49zc50Qc4v4cROO0rCzgV7Ns3\r\n0OQGOP6z+jcf3hY4RBv9N3Km7jeeLQk4PHoGODrhBzi8NAc48MYHOALrDzjpkCA4v8oRODczEji7\r\nZ/s3RtgBOHYcFjiQHw44T9H3N5I25DeKfvk3v7ADOFRC/De4gOw3WLD1NxJd+TcGEQM44yr5NywZ\r\nBziEXgY4CNUCOEhvEDgLiQk4gGkIOD5v6DeQLPY3nj0AONLO9jcZrPM3btgAOIke8Dcfufk3wCfW\r\nN58H8DdefM43t1kTOBMDFTggWPw3xMXqN83zATj2Xxw4pgntN4z3CTjxAAc4i8YBOEFz7DcpPeI3\r\nRBX7N/T19zcO9eg3JlL1N2UEAzgTa+o39b8POO577Td+2QM4JHPzN0/uBTgKlgQ427INOH6nDThV\r\nDPA32CzoN1l9ATh1LQs4RN7oN4Bh7Te5EPw31N/TNxBF+Dd2h/43hy3nNw5x/TcI5803SMznN3F9\r\n+DeSf/E35abpN0b55TdcuAA4uinTN3Si5zcXqdw3aoD+N9sT2zerHAU4epflN41X4zf9jfM3od8I\r\nOBYWDzhXIsY3ein6N/zzAjj6nfo31DPwN7nF0jfMJvc3fnEROOww8Tc+UfA3EBf7N01k5DelbAA4\r\n7gjmN5zM+jdCxO43oCTZN7ClADh26P83ek8QOPF4ATjoKO43hB3vN5CaxDc8W/s3r+HxNwwB5jeq\r\nIOk3Kd7+N56M6zdKl+s3NdDqN9Ho1TfT/eA355vDN1Wx6TfVAeQ3pvf3N5Kd5zeXsd43lavnN0Kf\r\ntzfBA/Y34TnCNx1x1DfpdeE3laHNN7Coyzd2OwM4n3rlN72e5Deexws4q2boN1KR+TeGOtw38dP0\r\nN/3i5DeeQgc4jdnUN7TM2zdUSQA4zHj6NyzU3zfFs983574FOHud4DfzUgU4MlXlN2fA6DfLwOg3\r\n2PHzNz+qyTdfKto3WbDhNys45DfIM+c3iUneN05F3Dd2ZOM3N2/tN4Yq9Dflgek31dfnN9DJ3jcE\r\nScQ3IVXoN0q6yzcZjP43kSMCOPXx5TdngPU3297VN31Q6Tf4m9c3b0zYN+rH/DcIe/c3wtHmN4jq\r\n8jecte03fFfSN/COyTfGKdo3BvcAOFgx6DcgsgE4zfHnN/w88jdSDtU3P6rZN6Dn2jd50v03KPAM\r\nONPw8DdvruM3/uPgN4wO9jfQ+7s3oLfHN4PqFDiQjfY3Y9gFOChR4jeyOcc3XGvsNwCBDjiAMxw+\r\n2VAxP8JezT6ufwg/fXPnPyn8L0KoYrFBKpBoQEuCjD/4f7I/9XDRPmfpkz8RTwk/xnoCP4R1Uz5G\r\noC0+rm7sPqTMKT9UJYE/wnMXP988hD98AGk+D3mDP5khyD7Qydw/i/z6Px3yAj/zaDZAj35mP9wV\r\nVUE+p/VAC7tjQIpWo0Ayifo/PlbXQOOkJECOKSBAAJ5qP8e3IEBey1c/akuPQOiRd0B6Ib1AZMHu\r\nQDEygkBw8SxA0OwWQN+xUkDidSZBBNsRQD9vyT8pBD8/GNsgP6ijxz8DagJBzi2BP3lbgT/wstk+\r\nHibYP376uD+maCg/zw0eP4siET85Yf0+sjdVP6alI0DIm4M/k8OaP0DHTj8Mh7M/0p+ZQOjtCj9u\r\n1Bo/kivgPkSSVz7xLas+0hC8PmOlmj50m9U/dr4+P6UFSz5/3/s95DmzPi6hIz71bd89b/odPvmo\r\n2j2NxKQ9TtY0PtoNQD6cRdY99R9HPrkq5z6nZ7c+QZ87P7DywT8odMc/ULwEP7AHYz/c3l0/1ITJ\r\nPeJUzj5pjW0+e+flPbniwj0HfmU9nN9uPkpTrj26P889cMxJPsFyCT6z0+c85/AjPVQ78Twc26I9\r\nes6gPQubDj6Glk09K7oXPQCEkTyNEno8upFXPaQs7jwTmco9sBcAPfkWzjzyj9M8v5xWPfc/2D37\r\nORc+ItuCPSdWgT1yqgs9hhpAPc30CD2/5JY90IN9PZAv0j2mh0U9mX0DPRb2wz53xGE+u1BxPgYH\r\n5T5s2ck+4g1KPsLaNz5MJTs93XhHPmjfaD0m0Pg9v5EmPtskDz2LwwY9K88rPEYHgzyyAVA8NibQ\r\nPFlQGj328F89ztvQPDTZrTzlMxI9+VXbPIs9ZDyEGLo8Z/0WPXj1Az0c0t08fqiWPWz3Lj3+c/08\r\nneEYPp3CnT3W3jw9ILGKPC6WljwyNq08YHqXPfQtYT1oCA89SNN6PPWT3DxEETI84qwlPM02ljwY\r\nWZc8muY+PJzZgjzqrXc80pQfPYa78zz486s86EQbPLrG1zxbFZM8ltEPPXZpXzwil0Q8FxqqPEpq\r\nBDxRMYs86bq7O9QXpjx7iQ09DICyO6sC8jxSlV48TM98PALu0DyGudQ88alvPITxqzyAo009Dg3p\r\nPGJxDD3Cnx491P+0POcN4j1MSMg9BHOdPKkfCzy8hgA8gjzZOxn0ljxb7LY8s62RPUumgz3OAQw9\r\nPuycPHYS/zw+MAI9GCmCPPlaDjzTQaA8ohq8Ozdr+Dtoats7ynAXPcpqXj3aieA8wMfOPO8rlzyQ\r\nXOs7cJ2WPKZ7zTvctK08ppNRPGUPrDytb2U8za6NO//l2Dw/Ieo8FWGCPD68Nzz7u9s7PAxVOzfA\r\nQzzDxdQ73JoYPBCFiTwRXmk8S1RAPJbj6TusV/w87Pq4PJDvrjxHrT881oZ4PAI8Lzyq0qg8Xs4x\r\nPLT61Tz+4yE8/zOqOywYhjzSqiA88saIOwPTHzzjtmE8mh2NPB7qFjyqCRA8T+OPO56yTjwZdWo8\r\nNs1RO0wAuzvpeTg8avbRO/XahzvCLJ471VbRO9cJuDzvhAc+zOb2Pd3JDDzZDJw8ei6KO0jEFzw+\r\np387NyLwO3OwTDtjBt07jg1oO/0Spju2v0A8rBksPKyzAjzxY3w7o3TiO6tY0zzAChw94C/COxoS\r\npDxkNns82ufFPEQ7Kz1nrug80IejOzhAjTw32zc8V5ctPHZAiTu4L5s7tQCeO62NTjxmniE80+s4\r\nPHb2EDx0tE88+ySZO0ffPDsViiM7Z4brOhXnKzo+jhg6BTB7OnY/UzowB2A6QEb5OWa4CDp/Dxo6\r\n7X2XOqAMijm1AOc511SeOckRqDn0k8Q52KZWOdJq5Dgyvxc59agxOdiXOTkps4I5JPIAOTPsADm4\r\nHgY5jf4VOfjM/TitSyY54HZHOcavBzn4/sI4qszVOBbcATlXOdU4ztrJOHpR4TjAIv44WwP2OMBP\r\nIjlTBQw5xP3mOAnk1jizuMo49Mj9OKaX+zhEx+w4kF/NODSyxTiqtN04rt/oOAQK5jj8LdU4mK7B\r\nOGIW4zgontE4GPzBOOljvTh8k8843fvBOEh4tTg2xsA4WRK/OMghyjhRe7A4eLrQOFiPyDgOsbI4\r\nOLa9ONHsrDicKb04WZrBOCZrwTgXC7U4XmHKOGkbujic97U4j2GpODBsrTiFPq04gtClOLTItzim\r\nZsM4htyxOD0CwTiB9MU49O+gOAw1ozjzAq44rIm7OECHrDjU7ak4lluuOPBUpTgCOpk4+/KlOORE\r\npTh2u6o4wtOjOE3/ozhCYa845yyhOMwLoTiXPpE4BtGbOFiFoThudZc42FOJOPJpmjiik5Y4yj2g\r\nOPxLmTjOlqA4VjGnOMWCmThNC5U49OuXOKV9nThyeJQ4h/WhONwXizis7ZM4yu6UOOhMkDgKiZY4\r\ntxeQOHLmoziI6Yo4HAeYOIDehDhYbYk4cemZOGrAmzjKrIU4yTmoOOC4jDjGKos4QMiJOBcskDid\r\n/pw4Wq1vOJaSdDjSIoo4oKeKONlPiziMIpQ42x2gOPzecTghGX04//uCOCs1ZjiyvYg47yGHOCF8\r\nZzgUv384yiqZOJUyhjjp4Hs4Ni14OO24fzhqvYQ42Hd3ONMUgzhdl3Y4OqWEOPNIcTge7YQ4Jqlx\r\nOCtjjTgp44Q4Nyh+OLgRkjieYW44HgpzOMYUgjgqlX44wPmCOPPOcTioQFM4m45ZOABJhDhbAoU4\r\n3SuAOJGEbTj5mXY4yzmIOPKRZTj1rWk4hGiEOKbIYDgKzWE4AstxOG73XDiw8WE4YeZzOBhmgzgo\r\nDnQ4iuJhOCUacTjH74A4+HxLONMwcDgQwlM4QKBWOBLUUDjMGV04bN9lOIuKcjj++2w4nLhXOMaj\r\nZTialV442khoODVaUzhMgG44btNbOOwjWjhPzFs48qxROEltSTgQ/0s40ts8OMwyPDiTR1c43jVB\r\nODjYSDg8c1I4uKBhOLhvWjja8WM4wEBdOFGATjg8UEw4aTk/OMakSTj+LEI41o9TOOimXDjgEkE4\r\nEus9OGBAWTiw50U4XpQtOKqLRzhoblE4kMlTODhQSDgQUUY48ZU+OGKyTTjE0zY4+LVeOFxJRjj9\r\nSzc46BtOOJ6JOziyYi44SVg7OC/nSzi3Oj04gVlBOEnDKjhPy0o42Ls0OKL+RDgbKFU4VDs4ONAl\r\nWDjqPkU4JlJHOMNtOzio/Tc4uAZEONa1MTi48Tk4nlQrOBozMTiupiw4bmk2OOQnOTgL+DU4It8x\r\nOGQFOjhutSk4brhZOON2LzhGLTo4UhU2OEz2QDhk9TU4cPomOOLTLTgZWic4P+E6OJgUWTjsaBU4\r\nzqkoOKJIHzjhiTc4Rlc2OAKRHDjkqQ44BvkyOFNFOjj1pyA4hAE0OOr8MDiU7Bw4+YgkOHFiMjhC\r\nCCI4lQATOHU0CjhkACg47bA/OIGxJDjgaxk4vT0yOLaNKDjsCCo4WEIxOHRbQjjOUiU4MRgdOMCP\r\nLDgeewo4d5QXOPtZIDjacSw4jrIzOBDyGDjyuDA4CikvOKSCMTiGLxA4lEQXOOVTKTjKkiU4o2kx\r\nOM37MzgUxR44IFwROMGPNjhqrR04ItUnOKrhKzguKxE4RA4yOAfeEDgbnw84zLoqOCgjLDhHuy04\r\npsYKODbQLDgL8h048sMROB4+ETjiLRg4pEEPOKTEFTgS4RI4rO0bOM5AJDifTys4yRAPOH45Fjjg\r\n9UE4iDYhOKjNLTgDbyE4NjYvOEKFCjjJ5R044MgaOJhsEDgXzRs4XjUjOEPnNTglJ/43OI8PODVg\r\nBzhcVxk4K/8SOJanHzi+KA44P5wQOJVkCDgkKBc4GncSOHCtKDg9Oh44qxEXOMXnBjhQCRc4iE8A\r\nOKAw8TdZse836DAkOI78DzgEaiE4RQgeOKovCjhiujA4oFsXOBL4GDjbCSI4DfEFOGIkBDi91hc4\r\ne54VOIYhADiiSRU4OTLqN7GN/zebYxU4hjsQOKhOBjjQSxQ40rsSOGAtDzhpCAA4JksFOPw2EziI\r\nDvg3zIgGOFVOBDgQCAs4QG0GOJwmOThJFAA46YIYOKwXCjg3owU4cVQEOH88IzioNBA4sAEGOP/Y\r\nBzjW3v83LRMMOB9WETi40Ao4ZgAKOCkJBjjRQQA4P6IMOFJFBDgX5Ac4AQbyNx7bBjh5FOA3aMwG\r\nOO2RDTi0p/Y3eQwCOPf8/TcU0vQ3Rc0VOCo4CzhGuwo4pUn7NwZ98TeqOgQ42/QKOEJ11zfQ5AY4\r\ncJIJOLxg+zdyUwA4/TYIOJXyEjgtBgw4lBcGOBxADjjwxgc4vTgGOPkjIzjYnQU4+E8VOLtn+zdG\r\n2AE4Qh0QOOcH9Ddl4AE437roN3C3+zdXvP03SIsNOLiA7DfH6xA4PbfkNwYRAzj0FwE4Ly4KOKPN\r\n+DdG4+U3yWwOOLuABTjZJw44xRrlNzax7Td2QAY4Tq78N76qBjgcIfk3Pr3dNyot+DfAJ9Y3w23j\r\nN2Rr3jdpzh04/PcAOJ+q/jcLSu03zfMBOKPlCzg1o+03fUsROO3O/zfmOwA4K7L8N4oV1zfGxeE3\r\nvHEBOFxzyjet7AY46a0DOB/35TeuPwo4xTnpNwhHBjitAAQ4y3sLOFcM8Tc0pQM4lksNOGqqAjiT\r\nF/w3qAjpN3vrDjgZQuY3+Q7uN1uM/DfaX9o3nBfYN2kA/TejtNc329fWN+dj4jdxZdY3QuL0N0sU\r\nADgrxwY49xnjN4jrADjqywI4qTfqN50A7TcmdAA4/YjJN/kwBzjA4N03jVfjN+9MATjyuPY3qffs\r\nN826xzd9Tec3sTsIOFf5EDjUM/A3CTDQN9GX7Td+cRE4kJ/VNzvHEThfG9s3TWTkN5JuBjjuCOY3\r\nnMz6N+kIvjfJ9+030Mj/N+InDDi1Fv838XgBOMnU+TeD6fg36q3pN2pQ6zf3q+o3HP4AOLVr/Ddn\r\nCN034Cj9N9v//jfFqt83hBr3N9P94DdoBNY3ZP3lN2IS0Dem9/c3bZPmN7UP1Df76AI4TUW2N6GS\r\n9DfhOcI3HXHUN3IB6Dc71eA3GH/aNyNg1zfSieM3yUrhNz5M5zfUVwM4PVP+N1aW5DdBtfc3JjgD\r\nODlf+Dc0deY3ok3KNyMZDjgwjOU3AafNN4Uv+Tdafuo38F/ON8O+/zfbtfA3iNgBOAswvzcoQfI3\r\nORjTN05R3DfVM+s3EJ7+N8gz5zeJSd43Bp8BON2W4DfJG+s3ClQBOLHO4jf6ls43XPnfNwRJxDfR\r\nGds3SfvnNw6e3zfE5hM46yruN4ZS1jdk0+Q3w5/vNzUk4zdX3Pw3BS7rNwKG8De7uAM4xP3vN7xN\r\nuzdYmsE38I7JNyQ1/Tebj+o3dSvyNzbW7zdRAus3Lvv6N6Vh4Tc/qtk3oOfaN3nS/TcoGgk4RgLb\r\nN0052Tf+4+A37jryNzwW1Dew/NY3Zv70N2fI9Ddj2AU4w1vKN0b/0jdDlgI4AFL6Nw==",
                                  "noiseTrainingType" : "default"
                                },
                                "metadata" : {
                                  "effectIndex" : "0"
                                }
                              }
                          ],
                          "start" : 10676,
                          "duration" : 865,
                          "mediaStart" : 2477,
                          "mediaDuration" : 865,
                          "scalar" : 1,
                          "animationTracks" : {

                          }
                        }
,
                    "start" : 10676,
                    "duration" : 865,
                    "mediaStart" : 0,
                    "mediaDuration" : 7666,
                    "scalar" : 1,
                    "metadata" : {
                      "AutoAppliedSmartFocus" : "False",
                      "WinSubProjectDisplayName" : "",
                      "clipSpeedAttribute" : false
                    }
                  },
                  {
                    "id" : 77,
                    "_type" : "StitchedMedia",
                    "minMediaStart" : 0,
                    "attributes" : {
                      "ident" : "tower-04",
                      "gain" : 1.0,
                      "mixToMono" : false
                    },
                    "parameters" : {
                      "volume" : 1.0,
                      "cursorOpacity" : 1.0,
                      "cursorScale" : 1.0
                    },
                    "medias" : [
                        {
                          "id" : 78,
                          "_type" : "UnifiedMedia",
                          "video" : 
                              {
                                "id" : 79,
                                "_type" : "ScreenVMFile",
                                "src" : 4,
                                "trackNumber" : 0,
                                "attributes" : {
                                  "ident" : "Rec 02-04-20_006"
                                },
                                "parameters" : {
                                  "cursorScale" : {
                                    "type" : "double",
                                    "defaultValue" : 0.0,
                                    "interp" : "linr"
                                  },
                                  "cursorOpacity" : {
                                    "type" : "double",
                                    "defaultValue" : 0.0,
                                    "interp" : "linr"
                                  }
                                },
                                "effects" : [

                                ],
                                "start" : 0,
                                "duration" : 588,
                                "mediaStart" : 0,
                                "mediaDuration" : 588,
                                "scalar" : 1,
                                "animationTracks" : {

                                }
                              },
                          "audio" : 
                              {
                                "id" : 80,
                                "_type" : "AMFile",
                                "src" : 4,
                                "trackNumber" : 1,
                                "attributes" : {
                                  "ident" : "",
                                  "sampleRate" : 44100,
                                  "bitDepth" : 16,
                                  "gain" : 1.0,
                                  "mixToMono" : false
                                },
                                  "channelNumber" : "0,1",
                                "effects" : [

                                ],
                                "start" : 0,
                                "duration" : 588,
                                "mediaStart" : 0,
                                "mediaDuration" : 588,
                                "scalar" : 1,
                                "animationTracks" : {

                                }
                              }
,
                          "start" : 0,
                          "duration" : 588,
                          "mediaStart" : 0,
                          "mediaDuration" : 15856,
                          "scalar" : 1,
                          "metadata" : {
                            "AutoAppliedSmartFocus" : "False",
                            "WinSubProjectDisplayName" : "",
                            "clipSpeedAttribute" : false
                          }
                        },
                        {
                          "id" : 81,
                          "_type" : "UnifiedMedia",
                          "video" : 
                              {
                                "id" : 82,
                                "_type" : "ScreenVMFile",
                                "src" : 4,
                                "trackNumber" : 0,
                                "attributes" : {
                                  "ident" : "Rec 02-04-20_006"
                                },
                                "parameters" : {
                                  "cursorScale" : {
                                    "type" : "double",
                                    "defaultValue" : 0.0,
                                    "interp" : "linr"
                                  },
                                  "cursorOpacity" : {
                                    "type" : "double",
                                    "defaultValue" : 0.0,
                                    "interp" : "linr"
                                  }
                                },
                                "effects" : [

                                ],
                                "start" : 588,
                                "duration" : 63,
                                "mediaStart" : 678,
                                "mediaDuration" : 63,
                                "scalar" : 1,
                                "animationTracks" : {

                                }
                              },
                          "audio" : 
                              {
                                "id" : 83,
                                "_type" : "AMFile",
                                "src" : 4,
                                "trackNumber" : 1,
                                "attributes" : {
                                  "ident" : "",
                                  "sampleRate" : 44100,
                                  "bitDepth" : 16,
                                  "gain" : 1.0,
                                  "mixToMono" : false
                                },
                                  "channelNumber" : "0,1",
                                "effects" : [

                                ],
                                "start" : 588,
                                "duration" : 63,
                                "mediaStart" : 678,
                                "mediaDuration" : 63,
                                "scalar" : 1,
                                "animationTracks" : {

                                }
                              }
,
                          "start" : 588,
                          "duration" : 63,
                          "mediaStart" : 0,
                          "mediaDuration" : 15856,
                          "scalar" : 1,
                          "metadata" : {
                            "AutoAppliedSmartFocus" : "False",
                            "WinSubProjectDisplayName" : "",
                            "clipSpeedAttribute" : false
                          }
                        },
                        {
                          "id" : 84,
                          "_type" : "UnifiedMedia",
                          "video" : 
                              {
                                "id" : 85,
                                "_type" : "ScreenVMFile",
                                "src" : 4,
                                "trackNumber" : 0,
                                "attributes" : {
                                  "ident" : "Rec 02-04-20_006"
                                },
                                "parameters" : {
                                  "cursorScale" : {
                                    "type" : "double",
                                    "defaultValue" : 0.0,
                                    "interp" : "linr"
                                  },
                                  "cursorOpacity" : {
                                    "type" : "double",
                                    "defaultValue" : 0.0,
                                    "interp" : "linr"
                                  }
                                },
                                "effects" : [

                                ],
                                "start" : 651,
                                "duration" : 547,
                                "mediaStart" : 802,
                                "mediaDuration" : 547,
                                "scalar" : 1,
                                "animationTracks" : {

                                }
                              },
                          "audio" : 
                              {
                                "id" : 86,
                                "_type" : "AMFile",
                                "src" : 4,
                                "trackNumber" : 1,
                                "attributes" : {
                                  "ident" : "",
                                  "sampleRate" : 44100,
                                  "bitDepth" : 16,
                                  "gain" : 1.0,
                                  "mixToMono" : false
                                },
                                  "channelNumber" : "0,1",
                                "effects" : [

                                ],
                                "start" : 651,
                                "duration" : 547,
                                "mediaStart" : 802,
                                "mediaDuration" : 547,
                                "scalar" : 1,
                                "animationTracks" : {

                                }
                              }
,
                          "start" : 651,
                          "duration" : 547,
                          "mediaStart" : 0,
                          "mediaDuration" : 15856,
                          "scalar" : 1,
                          "metadata" : {
                            "AutoAppliedSmartFocus" : "False",
                            "WinSubProjectDisplayName" : "",
                            "clipSpeedAttribute" : false
                          }
                        },
                        {
                          "id" : 87,
                          "_type" : "UnifiedMedia",
                          "video" : 
                              {
                                "id" : 88,
                                "_type" : "ScreenVMFile",
                                "src" : 4,
                                "trackNumber" : 0,
                                "attributes" : {
                                  "ident" : "Rec 02-04-20_006"
                                },
                                "parameters" : {
                                  "cursorScale" : {
                                    "type" : "double",
                                    "defaultValue" : 0.0,
                                    "interp" : "linr"
                                  },
                                  "cursorOpacity" : {
                                    "type" : "double",
                                    "defaultValue" : 0.0,
                                    "interp" : "linr"
                                  }
                                },
                                "effects" : [

                                ],
                                "start" : 1198,
                                "duration" : 328,
                                "mediaStart" : 1470,
                                "mediaDuration" : 328,
                                "scalar" : 1,
                                "animationTracks" : {

                                }
                              },
                          "audio" : 
                              {
                                "id" : 89,
                                "_type" : "AMFile",
                                "src" : 4,
                                "trackNumber" : 1,
                                "attributes" : {
                                  "ident" : "",
                                  "sampleRate" : 44100,
                                  "bitDepth" : 16,
                                  "gain" : 1.0,
                                  "mixToMono" : false
                                },
                                  "channelNumber" : "0,1",
                                "effects" : [

                                ],
                                "start" : 1198,
                                "duration" : 328,
                                "mediaStart" : 1470,
                                "mediaDuration" : 328,
                                "scalar" : 1,
                                "animationTracks" : {

                                }
                              }
,
                          "start" : 1198,
                          "duration" : 328,
                          "mediaStart" : 0,
                          "mediaDuration" : 15856,
                          "scalar" : 1,
                          "metadata" : {
                            "AutoAppliedSmartFocus" : "False",
                            "WinSubProjectDisplayName" : "",
                            "clipSpeedAttribute" : false
                          }
                        },
                        {
                          "id" : 90,
                          "_type" : "UnifiedMedia",
                          "video" : 
                              {
                                "id" : 91,
                                "_type" : "ScreenVMFile",
                                "src" : 4,
                                "trackNumber" : 0,
                                "attributes" : {
                                  "ident" : "Rec 02-04-20_006"
                                },
                                "parameters" : {
                                  "cursorScale" : {
                                    "type" : "double",
                                    "defaultValue" : 0.0,
                                    "interp" : "linr"
                                  },
                                  "cursorOpacity" : {
                                    "type" : "double",
                                    "defaultValue" : 0.0,
                                    "interp" : "linr"
                                  }
                                },
                                "effects" : [

                                ],
                                "start" : 1526,
                                "duration" : 14045,
                                "mediaStart" : 1811,
                                "mediaDuration" : 14045,
                                "scalar" : 1,
                                "animationTracks" : {

                                }
                              },
                          "audio" : 
                              {
                                "id" : 92,
                                "_type" : "AMFile",
                                "src" : 4,
                                "trackNumber" : 1,
                                "attributes" : {
                                  "ident" : "",
                                  "sampleRate" : 44100,
                                  "bitDepth" : 16,
                                  "gain" : 1.0,
                                  "mixToMono" : false
                                },
                                  "channelNumber" : "0,1",
                                "effects" : [

                                ],
                                "start" : 1526,
                                "duration" : 14045,
                                "mediaStart" : 1811,
                                "mediaDuration" : 14045,
                                "scalar" : 1,
                                "animationTracks" : {

                                }
                              }
,
                          "start" : 1526,
                          "duration" : 14045,
                          "mediaStart" : 0,
                          "mediaDuration" : 15856,
                          "scalar" : 1,
                          "metadata" : {
                            "AutoAppliedSmartFocus" : "False",
                            "WinSubProjectDisplayName" : "",
                            "clipSpeedAttribute" : false
                          }
                        }
                    ],
                    "effects" : [
                        {
                          "effectName" : "NoiseReduction",
                          "category" : "categoryAudioEffects",
                          "parameters" : {
                            "denoiserAmount" : 20.0,
                            "denoiserThreshold" : 0.0,
                            "noiseProfile" : "F6ArPnYqRUC4+Qs/Z9AOQM8NhUDCThlCnykdQqAKSkCLhZI/Bz8WQBzFOj/aWu0/AtkXPzXx/D8X\r\nY+I+OWgxPqpSED+cje49WvmsPa44hT3tvPY9VLAhPicThD6vm58+RtXnP9Yc1z8aR3M+yGCePyIt\r\nmD/lGphAw6tTQCXsnEBZ87xAKe+WQIOqa0AFb80/lxfdPyJYBUBMm1I/6c0tQKQuBUCux5c/9W8x\r\nPwUVCT9Qt5k/MjYXQA4ziT/mVyM/ukmsPnB1pD5y0eE/3keRP7A1WD+39P8+EaD8PnMysj7Utho+\r\nW+UuP5/tgT4rX3c/gyO6PyLJfz+z2jM/T1KAP8JWj0BD/cA/rBKtP/1uiz9spuQ+BvesPrMv6j/D\r\nsbY+rWKQP2VlND9Hsjs/AH09P4UZDz61jJk9ME78PVyQsD64KYk9PiU4PnEcuD1PbVI+MMb/PQI/\r\n0j03E8M9u3CsPZDMtj0no6k9hq9UPaBKzz2cNrk9eFM3PSgYdD3M8os9XyD1PbVkvT7iF5o9MJRo\r\nPTbOlz1GqZw9JSM2Po6nuz3281E9qD8/PSaLTz2gwcQ9DneGPSpqLD2yuRg9E5i5PW6mAz3hVGE9\r\nNXQsPSabRD0qNd895WMjPa7W3z1AR8Y8sS6yPJmYTD1A9eY9iAQgPVfYnDwghXA8AEXtPDaxBT1e\r\nDJ88qRmVPPSKHj0ES+Q9X8f8PGFEujw9aMo8cnolPoLubz1gjVI91tubPZ8n0jzQBrE9QqvePEGO\r\n8z0mR4g9TcjqPPPwbD0QV7E8vlEbPUso5TyM+O88d+ywPL5p3DwVqjk9GsMdPf23pj1uz7I8GvPH\r\nPOtpOD3/a5s8qi5KPViRBT4uc389yIiZPS7cFj2CNOw8mHrOPMAMaz2CZhQ9cBOuPFndEz2oN+A8\r\n1mviPLufFT0wIvE9sJsGPi+aCz1hgWE82kJ1PGiBJz1ijp4805EePCZx/zuAhbE8kNfbPFK+ojwn\r\njv4853rvOx57ETw69UU9UjEoPX5Ulj05wf885gSMPP/EtzxrHco9Xj4hPY6tiTxQWKI8IIQUPSDO\r\nQj0tsI48dUhVPChyTjz5r4s8tT0mPVOtgT2KIJs8ozKDPJ4BuDxUJfM8Fi6gPa9ULDwdxJ8833+/\r\nPBhU5jy4/ws9PvFBPNAC7Tt2AAg8PBmnO5mP2Dz5ztU8r8IxPCi/FTzuBaI8dZ/iPKRJUDyCTGY8\r\nFV0tPMo//jv+Xeo7Xuc6O3bj1jvCSpA8MiGnPA2UaTwQPVo8/u4FPah9pDyYJLA8nogUPMViSTxm\r\n9KU7NADOOwvGDDxBdAA8fplPPKB0njsxM5g8nGTrPBPX2DxQi5Y8vHLXPOL3Wj25tmk+rfq4PS1l\r\nmjwfaMc889v2OwKM8jtX5No8TPUqPPkv+Tvgy7c7bvxtPFoXZTtepQE7BI4mPFQuijxi/cc7AzHN\r\nO/MknDuyFJo7LD23O2zCTjwAHG88pFs+PDcAXTyIoVI7mLEcPJY+Fjw+FZw8OHvtO7APkjty04s8\r\nguaiPHStEzwEGpA7tEsJPNkqBjx3xJA8U65cPPJ2MTxi5/88mjhMPIelLTx+PsM7aJ4xPHrdDDxy\r\nX7w8q9KlPO6/DTxUb448aoUtPDPCEz3wGVY7h4GdO7r8PzuGE/06EBoiO2IBTDufmHE886UCO9y0\r\n6TrxISo71qK3Ol63NTvROgM7GzqnO5J9lzsyx5g6qh6MO8f4yTpqtJ46QKz4OkewiDuJGOE87pB2\r\nO6A4tToaNIQ6+dJbOshG5jo+a+o5iqhCOjLOODr95kA6TtptOgs20zlGECo6staiOaM2sjnCr4M5\r\np29YOS4HGjluOqU5Vl1iOeuZYjnWN4M5x4I0OS8QfTl+wAU5pMFOOS7gFjkCEdI4omVMOaycJDn6\r\nQew4k8sCOUhTCTlAZh45GaIHOXrTGzm83Qw5qnYIObGoMTmi2hg5Wx0jOb9CBTmMHB85NFIQOVXw\r\n2DhaLAQ5ZMj2OCxJ+Dj2TwE5aTEKOVWbETm3NAg5U375OA5GGjkSS+I4lyAaOf4vBjkyzvo4/gLy\r\nOMssCznAtQ05qUgAOd+KBDl0n/o4SFYHOcbdAjnRrQE5kzz/ONXVATnsXvE4BDXpOBop/DhsBfQ4\r\n3UrzOCyf7zg4+ew4kkfgONXA5jgX3f045AX7OP778zgKY/Y4ZEcCOeMNATnukuQ4gnP0OAux3jjI\r\nbvk4qMb3OFwe9jh4sOg4h7fsOA1Z5DjyzOA4DsDgOHYa7Dgzutk4zDbeONOK4zhGmN84oYHWOLQ8\r\n9jjged44N+reOC62xzhYzM84TBvtOPxRzThoZNI48MjROPhDzjg2KtY4tTfUOEhvwjgWb904paTK\r\nOJKV0ThTzc44BGK/OEiLwTg8lNY4j1u9OOjSwTjqr9I4/FOuOL14zjj48OI4MUTVOEMzrThUyNc4\r\nCl2/OGIcqThgUcY4mrnQODplxDgtFMA4PB/FOFzhzTiJ4Lw4+ErTOFhCuzgvHcQ4VH2yOE2JpjhA\r\nf8Y4mPHGOEbOuTiaQbY4kzOwOIDuuTigorM4OFPAOKg2vjhw7K44kzWbODyavTianLk4WCGyOHjx\r\nrjggvbk4tinBOMKftTi667Y4NFC9OKBlrDg2Cqg4HR2yOBogszixbag4oAitOJ9BoDjWlrs4bZSq\r\nOPCFnTg+q6c4aPKuOPZTvTgqwaM4dzupOL5JnDiK1LQ4koGrONSmqDhegJM4HNiTOFZWoTgAkZE4\r\nL0eYOPDkjjg6+K44xaafOATwmTiu7ao4rBSpOJ7BoDjcIpc4BG+iOF4xkziiR5k4yMynOB7qnjj4\r\nw6I48vyUOCaclziM76E4eGOfOL8ZlTj2S6Q4TGqgOH7CnTgEhqo4X0ahOH4LkTjgKZU4sIijOOaU\r\nmzj88Y84utieOEjmdTg0qJQ4/G+AOCp/izgSD5M4r6KSOE9VnDgePIE4tDuSOMnZkjghT4g4dBCQ\r\nOC5ZiTjmhos4aWyPOLwlkDiIC5Q4PBSUODFhizjoKYE4+DaROJD5dThlgHg46y55OHVPmDgv74A4\r\nJ06UONqMizhbP584Ar6MOLaxhjgShII4XOGNOCZEgzilCIo4ZM2FOGjXijgeE4A4uLCOOO/Hijje\r\nNI84rjSDOP5ilTgKmIQ4IWiHOAGFhThx/Hc40+iCOFP2jzjADYc4bER2ODYOZTjDFZQ4JNV2OIo8\r\nfzgSgWM4JEqJOHbGhjir94Q4KWmBOKXDgjg1f4M4ph2MOLUVljhtdYs4LEN+OLyRgThPcX84+Clo\r\nOORtdTjwL4E4GJZqOJaKfzhRwV84slJeONpjVThgZGo4x6J9OB4pdTg2l384MFhpOE7CYjiAo244\r\niDRpOHg1eziQeYM41gOCOITNYTjCe1Y4WGRmONazfzgkHVM4SiB5OExZdzisB3I4VuBnOBlCajj2\r\nNHc4HONkOG+oWzh8cFk4+4ZZODLhVTheYVs4TK1mOOJFXjgudlg4/GZwOAryZDjQGGM4YXRMOF8J\r\nbThiZ184mj1dOEZBYzgyKmc4KoWBOPQvczhC1m44kBRPOKP6bjizgVE4+hdrOMY9ajjA5E84Avtg\r\nOLcpeDhRWkw4LoZfOEZ9XzjZi184bndaOLTMUjh3cF84YGE/OMCvYTikcFE4bBdYOMoeVDjfeFQ4\r\nGBVAOOIWRDiwe1444oVQOHxbSTi5XDU48LN0OBZGXjjX/2I4N/4/OKaFTDheC1Q444BXOGE9Tjju\r\nx044CWE6OLjdPjiI2VQ4lI9YOO8YJTi/AE84toNPOBqIRDjkY0I4IaBgOG97UDgh+EM4oBFCOFSF\r\nVDiiiE44D/o/OCPrNTgsLT04r2k3OCF5LjgZzFc4REtDOKVpTjgQiUg4XrU/OI8qRDhCr0o4qIhl\r\nOHVRJDjY20I4AZgyODgGTjjf+1w4mG48OB+bMzh5kys4zghKOCUnMDiGLkY4gnAuODExSzhFfTk4\r\nKRMnOImOQzi6s0E4fEFeOP/0PTjmflA4NOJCOCzIQzhUOiQ4Os1MOA/NRDheG244P542OJeDNzjD\r\nhks49ANYOOiOQDi8Ozg4bl42OIznPDj4fjs4PopQONI+OjiNQEU4hqsxOBz9IzirVEA46S4/OA7w\r\nNzhk+V84ypEyOM4mNTg47jk49NsfOFlQPTgpsjw4TUI2OL5NMjie6D44Q7VDOJjDMzi1HD84BAk4\r\nOJ/GPTh8qDA4AGBHOBSpODi7tTo4WF48OMKAJDhDrT049LQiOF1hODhuBkU4v4QiOB6XJDi/CCA4\r\ngGJHODB3OzjRNzQ4xq8+OG+HHDjw/DU4J9kzOP+FFzjfdDc4UfwuOGiULzhURDA41XkoOHZlMzih\r\njD44aI4yOAR9RTiihkA4r0cwOK+OIjhykDo4rRAnOMKiLTgXIjQ4gkJJOMASMTg6Cio4a7Y4OKUp\r\nHzj64i446nM3OFT0Hzicziw43JYnOLo+ITgeRkU4Yk4tOI1yKzhp1Rk4TXA0OJSIDzje7C44Oq8t\r\nOCJjHDiR/y848KwwOObmQzhHjzA4wtAnOLfAKThdKC84//4cODBPJzjlSxo4qQw9OPqiIzigSSQ4\r\nmLsmOGxkCThk7yY4c8o+OD0MKjht0zE4SZYpOHQmHTgWPxU4HnIyONe4ITicshE41fosOM/lMTgN\r\n6SI4npkaOAFkJjihVRQ4H5g3OLhPPTiObyY4DMAkOKIgHzjpwhw4bJUbOJQGPjik8TI4gs0qOPDB\r\nIjh7+yU42/opOGlQLjjhBRQ48jQhOMEtLTiTsC84G5kuOOYvKTiggAU4xbYuOBYqKTjZCSY4TYAa\r\nOOY1MTjOlyk4/yg4OD/iHzgrySA45JQiOB4BEDgTdh049wwAOLv9GjiC2yc46tIoOLnUHjjtEC04\r\nsYAqOLqxFziGwiw4MlcyOILIFzi7PRQ4FhwuOH+DJDhrLBo43cMNONA8MziK0iQ4o3ojOODqJjjU\r\njBY4J80nOB+xGzh+pSI4ansUOJOlLThzKiU4S2IqOHyMKzghVig4msIgOHEUIzg4tSk4smslOPo0\r\nKjiOZh84eXIDODNJIjjncC84XOUOOKc4ITjHlxU4iK0VOJL4MDivdCg4huErOAWkHDhukwc4mwEj\r\nOCv+IjjqaR4483AnODGhKDhX0Sw4MvUqOO3cFThsriQ4TR8hOCndHDiKDg44qn8UOJ+LKjhelBY4\r\nC/UoOMdhHjiEQC04KUQXOK/KJzjOXys4LxAiOMucHziIpiw4sdkVOCnGDziTiEI41gUkOPNrGzjY\r\nHhI4C/8JOMYSLTjJ4Qs4i8AhOJxJHzhO9xo4D2UzOLIHGzjWexs4nHYiOJdZCjiN2CI4jIEaOM3o\r\nLTjxxB84SiYSOMxKIzjVLBE40mkiOAv+Gzh4XDE4L30iOG7TAjgmaiQ4/g0WOAPKCDjNLDo4Vicr\r\nOH1IJjiG9B04XVgrOBjKJTgzaSE4kgkmOIpvGTgjBQ84ros5OGKRHThw1yI4thsnOAAkBzgXoCs+\r\ndipFQLj5Cz9n0A5AMwOFQMJOGUKfKR1CnvpJQIuFkj8HPxZAHMU6P1Zk7T/r+Bc/8uD8Pxdj4j45\r\naDE+qlIQP5yN7j0GJq09rjiFPe289j1UsCE+ww2EPq+bnz5G1ec/1hzXPxpHcz5zZp4/SEGYP+Ua\r\nmEDDq1NAbuqcQFnzvEC05JZAg6prQAVvzT+XF90/IlgFQEybUj/Qxy1ApC4FQK7Hlz8xczE/eAUJ\r\nP1C3mT9sPBdADjOJP0ZDIz+ePKw+cHWkPnLR4T/kRpE/sDVYP7f0/z4RoPw+10OyPua/Gj6O5i4/\r\nkv+BPpdVdz+wEbo/Isl/PxrHMz9PUoA/wlaPQEP9wD+sEq0//W6LP2ym5D4G96w+sy/qP8Oxtj6t\r\nYpA/ZWU0P0eyOz8AfT0/hRkPPhhnmT30xfw9gXWwPhgmiT0+JTg+cRy4PYU9Uj5QGAA+eQzSPeb+\r\nwj27cKw9kMy2PSejqT2Gr1Q9oErPPZw2uT14Uzc9KBh0Pczyiz0yKvU9tWS9PuIXmj2QNGg9ASmY\r\nPUapnD0wHDY+Ua+7PVgiUj2oPz899EFQPYDOxD0Od4Y9QKssPbK5GD0Pork9FdUDPdlLYT10pSw9\r\nBF9EPaBs3z3lYyM9rtbfPeQJxzyxLrI8mZhMPUD15j2CnyA98gOdPCD/cDzrm+08NrEFPeMTnzxD\r\ntJQ8dV0ePeJy5D0q5/08jrq6PPrLyTwlNiU+qoVvPWCNUj3W25s9nyfSPNAGsT0nsN48wcTzPah2\r\niD23qOo8xzZtPQorsTy+URs9/ZDlPPXG7zwpfLE8vmncPFt9Oj3OLR49djinPZqzsTyvqcc862k4\r\nPdpsmzyeX0k9FUMFPgrQfz1uz5k9LtwWPYI07Dzioc48wAxrPYJmFD1wE648XX4TPag34Dzy9+I8\r\nu58VPRD98D3QiwY+L5oLPWGBYTzaQnU8ZCwnPWKOnjxDuR48KNT/O4CFsTxMENw8Ur6iPCeO/jzg\r\nn+47HnsRPKDbRT3PSSg9AH+WPcFt/zzmBIw815i4PGsdyj1ePiE9GVeKPFBYojwghBQ9faJCPS2w\r\njjxKXFY8GmpPPPmvizy1PSY9U62BPUIUmzyjMoM8ngG4PFQl8zwWLqA9r1QsPB3Enzztdb88GFTm\r\nPInfCz37DkI8JvjuO3YACDy8X6k78IbYPPnO1TyvwjE8KL8VPO4FojyAPuM866NQPIJMZjytPi08\r\n15r+O/5d6jte5zo7duPWO8JKkDxYq6c8p55nPDRtWTyKfwY9o+mjPJgksDyeiBQ85NBIPGb0pTsy\r\ngs47C8YMPEF0ADx+mU88oHSeOzEzmDycZOs8E9fYPFCLljy8ctc8LUBbPW/IaT7oa7k9LWWaPB9o\r\nxzzz2/Y7AozyO1fk2jyP2is8C9n3O7hwuDtsc248m9FqOzLt/joEjiY8VC6KPGL9xzsDMc07y82b\r\nO7IUmjsIebk7bMJOPAAcbzykWz48NwBdPIihUjuYsRw8pzAWPD4VnDw4e+07sA+SO1HiijxnEaM8\r\ndK0TPAQakDs3Bwo8pukGPAr+kDxoQV08vsEyPM67/jzmX008bj0uPH4+wzvxxzA8et0MPHJfvDyr\r\n0qU8LlYOPCSujTxqhS08M8ITPfAZVjuHgZ07uvw/Ow3//zossh87YgFMO5+YcTzzpQI73LTpOvEh\r\nKjvWorc6Xrc1O9E6AzsbOqc7kn2XOzLHmDoLh4s7egjKOmq0njpArPg6R7CIO4kY4TzukHY7oDi1\r\nOho0hDokZFg6yEbmOj5r6jklT0U6Elw3Ov3mQDq24206cpjYOUYQKjqy1qI5ozayOcKvgzmQkVc5\r\nUvcXObXsoDk62mM5n+JmOVzpgzniQjk5Hvh8OSjCATlMRU85LuAWObMG2jhYC0s59mwwOTaC1Tio\r\nlwM5YGoTOSpEGzlM/iI58bwXOV5H8Dj+8QE5Pk0ZOf4vHjlyJyg5yQgiORDZDzmgPN043S8GORQg\r\nAzmszxM56M/kOHf9/ThOgAc5pEMJOaUCATlHdAk5T7wHOSpP6zjOUA450rAQOQAA/jjuXfM44oUF\r\nOWfBBjm0SgM5TKYEOVLzAzlL4Qc5d6IEOfi8/jhwIQA5u9z/OIBM8zggCPo42hfvOFtO9Di8pu44\r\nbYzuOOlJ9DiyH+E4/JLpOC4YBDlkO/04fLvwOMydATligwE5qUv+OO6j7jgcotY4wJDcOK1D9Tgg\r\nQOw4EcD2OBq78zgiZOY44oX0OJU22zgq9d44ns3vOMurzDgeJuo42uLXODZB2TiyLuc4gqPoOG5Y\r\n3jjYdcY4HBLQODKm5DgcUNE4BrLZOEIMzDjQl9k4lALTOMV01jhU/9w44JHSOES5yThGOss4L3Hg\r\nOOEm1TgE7rw4VkWvOBZa4TjqSLA4a0jMOH/mxTg6icg4eibQONjy1zjsz9E4vvq2OE1eyzi2ar44\r\nFQq3OILVtTi+fsU4a/LFOJYQtTiQT8k4MYnSOE4dyDhsNLo4PHi7OM4ewziZy604/nquODQTyji0\r\nar04IPu8ONS6xjhmvbo49t28OAgVvjgRObI4nOnGOLoQsziqNZ44bD69ONJUpjj9lbI4/BCpOBSH\r\nuThAhLk4HjC0OLS7yzgxrrk4snujODAYqTg5I6Y4XBqvOFQesziSobE4OdCvOOYntzhseKw43M+b\r\nOEg4nDj8IK84fuaxOBQGqDg42K84TMimON72ojiiQLQ4WHWgOAfOhziwDK049VSfOAAqoTge7pQ4\r\njouQODy8ojjCYaU4lX2dOG4HtTj0oJ44SA2ZOPz7nTgXdqA4GCCZOH8omzig3p04+Y2pOH3Epzh2\r\n06E4F/ibOIoeoDgmQJk4WoKSOF2npTinnKM4hEeeOLSuoTg5FJU4QPaMODbXnTiRNKQ4b12VON4X\r\nljhEBJE4QHeROGjPjjgI3484DLGNON4Uizhk/Zo4+V+NOBBPlTjRB4g4LKCUOAx4fTiYFJE40cuS\r\nOPwCkjgouIM4zKCROLZ+oDh77pE44up5OHHniTj7/Ic4zEeCOFG1gDg28YE4IFaPOIgCfDhm+IY4\r\n8pqKOBOdmDjqbI44PlSGOL+uhjgDKIc4kfiAOGCBhTiTXYI49kmROOIDgjiZ2os4JDqHOKwMkjho\r\nq4E4pW6POHqEgziHrYQ4Q5GEOEQFhDhuUoc4Jq2JOJE+iThUkoc44flnOJc1iDi+/ZE4flp9OCjr\r\nWjixcYg4bMKFOKyDgzgyUYQ4rmmEONYbgjghX4I455mPOGxBejiDkXk49+KJOEzWezg6vGc4xAx/\r\nOCZnZDgC7Hw4eIp8OFVpdDhONGw4NLlXOK5ebjhDr3E4YCRnOBLJfTg4umM4CmxxOAMDajhpCm04\r\n24J0OJ0Cfzi013E4rhRbOGDEaDi2vWs4gkxvOPp7bTiuBHk4WgBrOKYUbziwA2Y42HN0OOixajgA\r\nIGM4krlXOMzZVjhw1Fk4/3w+ODBucjjwi2E4drJiOKYkWTh0/F04CAJSOD4IUzgPdEw4ti9eOPRS\r\najjp1Vg4N/hUOEasUTh7ZoY41OBjOKp/YjhAzF04/H91ODDIUjgMr2I49iVdOPdxYzignFY4RkFv\r\nOG4SUDgNFUs4OnRsOEzeZzjJ/Fk40hNFOIFNYDj3+Vg4U6ldOBNHUzhRS1M4dlxROC/3VDiwGTQ4\r\nqKRaOF3MTziQoV44jJ9IOLb+QDhVwWI4Ot5OOBDRVTj//D042XBFOKm6Tzi8Lls4dOpOOJiFTDgy\r\nU0s4Hr9COJAETzjAPEg4hPk0OCF9QTjSEFM4neI+ODInUThCak84KO9GOKrFJzgWSFQ4bVxGOOX7\r\nXzgozis4DBhFOKDGPjhNaUg4u583OBURUjg0tkQ4+kZEOJqSNDjelEU4lEdUOIP6QDj2nEI4DH1D\r\nOHcyOTjEaTY4KdpAOFpmTjg+7kQ4mDJDODY7TDgGKUk4zYgpOJKqSTjRQi04DPpXOOcBJjhIl0c4\r\nElNCOFqwNDgTuFI4lgFGOPztTTgbNkI4MgZEOHm9MjhDc044i5lLONXdVDhGEzg4bZYxOEPLPzi/\r\ng0s4fWU3OBR0RDgcbD842XYjOJZvKThaHFI4I44+OE2iMjg04ys4yrwyODr/NzjhuUE4mQhBOKFX\r\nXjioWTM4KfRAOMLoODgigiQ4bnclONDLJjijdT44vmI5OAokPjgobkQ4Rl1HOM4qHDgwHDM4ZeM5\r\nOJjfKjh2KEw49RQ+OLyMPzjxDyg4FpJHOITGNji1FUY46Ro6OOyANziIQiI4FKImOF44MDim2zk4\r\n1FQoOO41Nji4xzA4aRY+OFLkMjhcpCk4YbMjOFanHzgxcTA4128wOM5nPTjukyc4wpYoOK1yLDhk\r\n6jE4GVNNONJtPjieZTA4QngtOBnUODiAIiU4b6kiOGWSRDjlXTc4zxshOObALThgNjg4qk4oONaM\r\nHjgf/Tw4bssjOG2iMjg7Uyw4RGkVOFFJPDiEIS44/icnOPS3KDi1kiA487giOG6kKDivWzM4G+Qs\r\nOJUnOzimADg4aPFCOGpKOTibFBY4Jl8wOLM1NjizPiI4iLQhOMlcHTjkxxo4yvQvOHzWHzio3yk4\r\n/74UOOhcJzgQUyw4gQAWOMtZQDi8fys4PYAuOAkZJTggVy84IpAkOAC4IzgMnh04KgMrOJWtLjj8\r\nbBc4RUwrOFxIITgcQy842Ck4OPLyNDjEZR44O90VOAJrIjiYCyA49SIwOE5sKjgpYh842PohOPAD\r\nLzgWoCc4EqY0OMlYETjzTCQ4FD8pONMHIzg0lCs494kmOKZOATiMbDU4vOYbODl4HjgymBs4++Qu\r\nOCmUKzj8pCs4TIUZOG15MzjAdAg4C6UrOANlFTha2Q04YaQNOOyOGjidbh84DkorON6IMDj4FjQ4\r\npNIfOC1OITjQEzA4/TIlOCTZDjiXQTY4f8QhOLuDGjgi3BI4CsksOFPjITh/LiM4GbgmOJDNEzj+\r\nmyk4L/kkODBKBzj1MxE4lhwjOGlqKjhMbyo46s4zOJ+jJTgwBys4+TgqOMNUIDjuDis4v7UoON/u\r\nEDiPjRI4D2oMONkrKThWYhs47f4NOGZfHDhiBSU4qeUSOGmQJjgl+Sk4ZCEhOIkdEzh0SC04wYUY\r\nOFIvGzgs4R04Mz8+OOHqGjgrTx4404kdOIFgJjgtgxQ4ficdOJUCHDgoLAk4S1guOMbQFjhiiSI4\r\nzWcSOFFIHDjpzR04pukVOIwfNDim5yA4qdYhOOnHMjh7gh04+aQZOFYEIjhy/BU4jjcLOLneEDhl\r\n+w44fGQfOLgWFjgFtSM4a+gwOF/yIDi3rB8401kTODYnIjiX2xM4A4sNODf7CzgynSs4PM0rOPy3\r\nCDgkrRM4l54sOPlpEThxqDI4aRYgODIcHzgP1g44Vh0XOCLDIjjxWyk4OQUhOAdnLjhFbi04k50R\r\nOMemIzhNwi04H64qOChzHjgz1CM4F98aOKpjEDh4bTg4JvEiOD8sJzgKPiU4AAQTOA==",
                            "noiseTrainingType" : "default"
                          }
                        }
                    ],
                    "start" : 11541,
                    "duration" : 2447,
                    "mediaStart" : 199,
                    "mediaDuration" : 2447,
                    "scalar" : 1,
                    "metadata" : {
                      "AutoAppliedSmartFocus" : "False",
                      "WinSubProjectDisplayName" : "",
                      "clipSpeedAttribute" : false
                    },
                    "animationTracks" : {

                    }
                  },
                  {
                    "id" : 93,
                    "_type" : "StitchedMedia",
                    "minMediaStart" : 0,
                    "attributes" : {
                      "ident" : "tower-04",
                      "gain" : 1.0,
                      "mixToMono" : false
                    },
                    "parameters" : {
                      "volume" : 1.0,
                      "cursorOpacity" : 1.0,
                      "cursorScale" : 1.0
                    },
                    "medias" : [
                        {
                          "id" : 94,
                          "_type" : "UnifiedMedia",
                          "video" : 
                              {
                                "id" : 95,
                                "_type" : "ScreenVMFile",
                                "src" : 4,
                                "trackNumber" : 0,
                                "attributes" : {
                                  "ident" : "Rec 02-04-20_006"
                                },
                                "parameters" : {
                                  "cursorScale" : {
                                    "type" : "double",
                                    "defaultValue" : 0.0,
                                    "interp" : "linr"
                                  },
                                  "cursorOpacity" : {
                                    "type" : "double",
                                    "defaultValue" : 0.0,
                                    "interp" : "linr"
                                  }
                                },
                                "effects" : [

                                ],
                                "start" : 0,
                                "duration" : 588,
                                "mediaStart" : 0,
                                "mediaDuration" : 588,
                                "scalar" : 1,
                                "animationTracks" : {

                                }
                              },
                          "audio" : 
                              {
                                "id" : 96,
                                "_type" : "AMFile",
                                "src" : 4,
                                "trackNumber" : 1,
                                "attributes" : {
                                  "ident" : "",
                                  "sampleRate" : 44100,
                                  "bitDepth" : 16,
                                  "gain" : 1.0,
                                  "mixToMono" : false
                                },
                                  "channelNumber" : "0,1",
                                "effects" : [

                                ],
                                "start" : 0,
                                "duration" : 588,
                                "mediaStart" : 0,
                                "mediaDuration" : 588,
                                "scalar" : 1,
                                "animationTracks" : {

                                }
                              }
,
                          "start" : 0,
                          "duration" : 588,
                          "mediaStart" : 0,
                          "mediaDuration" : 15856,
                          "scalar" : 1,
                          "metadata" : {
                            "AutoAppliedSmartFocus" : "False",
                            "WinSubProjectDisplayName" : "",
                            "clipSpeedAttribute" : false
                          }
                        },
                        {
                          "id" : 97,
                          "_type" : "UnifiedMedia",
                          "video" : 
                              {
                                "id" : 98,
                                "_type" : "ScreenVMFile",
                                "src" : 4,
                                "trackNumber" : 0,
                                "attributes" : {
                                  "ident" : "Rec 02-04-20_006"
                                },
                                "parameters" : {
                                  "cursorScale" : {
                                    "type" : "double",
                                    "defaultValue" : 0.0,
                                    "interp" : "linr"
                                  },
                                  "cursorOpacity" : {
                                    "type" : "double",
                                    "defaultValue" : 0.0,
                                    "interp" : "linr"
                                  }
                                },
                                "effects" : [

                                ],
                                "start" : 588,
                                "duration" : 63,
                                "mediaStart" : 678,
                                "mediaDuration" : 63,
                                "scalar" : 1,
                                "animationTracks" : {

                                }
                              },
                          "audio" : 
                              {
                                "id" : 99,
                                "_type" : "AMFile",
                                "src" : 4,
                                "trackNumber" : 1,
                                "attributes" : {
                                  "ident" : "",
                                  "sampleRate" : 44100,
                                  "bitDepth" : 16,
                                  "gain" : 1.0,
                                  "mixToMono" : false
                                },
                                  "channelNumber" : "0,1",
                                "effects" : [

                                ],
                                "start" : 588,
                                "duration" : 63,
                                "mediaStart" : 678,
                                "mediaDuration" : 63,
                                "scalar" : 1,
                                "animationTracks" : {

                                }
                              }
,
                          "start" : 588,
                          "duration" : 63,
                          "mediaStart" : 0,
                          "mediaDuration" : 15856,
                          "scalar" : 1,
                          "metadata" : {
                            "AutoAppliedSmartFocus" : "False",
                            "WinSubProjectDisplayName" : "",
                            "clipSpeedAttribute" : false
                          }
                        },
                        {
                          "id" : 100,
                          "_type" : "UnifiedMedia",
                          "video" : 
                              {
                                "id" : 101,
                                "_type" : "ScreenVMFile",
                                "src" : 4,
                                "trackNumber" : 0,
                                "attributes" : {
                                  "ident" : "Rec 02-04-20_006"
                                },
                                "parameters" : {
                                  "cursorScale" : {
                                    "type" : "double",
                                    "defaultValue" : 0.0,
                                    "interp" : "linr"
                                  },
                                  "cursorOpacity" : {
                                    "type" : "double",
                                    "defaultValue" : 0.0,
                                    "interp" : "linr"
                                  }
                                },
                                "effects" : [

                                ],
                                "start" : 651,
                                "duration" : 547,
                                "mediaStart" : 802,
                                "mediaDuration" : 547,
                                "scalar" : 1,
                                "animationTracks" : {

                                }
                              },
                          "audio" : 
                              {
                                "id" : 102,
                                "_type" : "AMFile",
                                "src" : 4,
                                "trackNumber" : 1,
                                "attributes" : {
                                  "ident" : "",
                                  "sampleRate" : 44100,
                                  "bitDepth" : 16,
                                  "gain" : 1.0,
                                  "mixToMono" : false
                                },
                                  "channelNumber" : "0,1",
                                "effects" : [

                                ],
                                "start" : 651,
                                "duration" : 547,
                                "mediaStart" : 802,
                                "mediaDuration" : 547,
                                "scalar" : 1,
                                "animationTracks" : {

                                }
                              }
,
                          "start" : 651,
                          "duration" : 547,
                          "mediaStart" : 0,
                          "mediaDuration" : 15856,
                          "scalar" : 1,
                          "metadata" : {
                            "AutoAppliedSmartFocus" : "False",
                            "WinSubProjectDisplayName" : "",
                            "clipSpeedAttribute" : false
                          }
                        },
                        {
                          "id" : 103,
                          "_type" : "UnifiedMedia",
                          "video" : 
                              {
                                "id" : 104,
                                "_type" : "ScreenVMFile",
                                "src" : 4,
                                "trackNumber" : 0,
                                "attributes" : {
                                  "ident" : "Rec 02-04-20_006"
                                },
                                "parameters" : {
                                  "cursorScale" : {
                                    "type" : "double",
                                    "defaultValue" : 0.0,
                                    "interp" : "linr"
                                  },
                                  "cursorOpacity" : {
                                    "type" : "double",
                                    "defaultValue" : 0.0,
                                    "interp" : "linr"
                                  }
                                },
                                "effects" : [

                                ],
                                "start" : 1198,
                                "duration" : 328,
                                "mediaStart" : 1470,
                                "mediaDuration" : 328,
                                "scalar" : 1,
                                "animationTracks" : {

                                }
                              },
                          "audio" : 
                              {
                                "id" : 105,
                                "_type" : "AMFile",
                                "src" : 4,
                                "trackNumber" : 1,
                                "attributes" : {
                                  "ident" : "",
                                  "sampleRate" : 44100,
                                  "bitDepth" : 16,
                                  "gain" : 1.0,
                                  "mixToMono" : false
                                },
                                  "channelNumber" : "0,1",
                                "effects" : [

                                ],
                                "start" : 1198,
                                "duration" : 328,
                                "mediaStart" : 1470,
                                "mediaDuration" : 328,
                                "scalar" : 1,
                                "animationTracks" : {

                                }
                              }
,
                          "start" : 1198,
                          "duration" : 328,
                          "mediaStart" : 0,
                          "mediaDuration" : 15856,
                          "scalar" : 1,
                          "metadata" : {
                            "AutoAppliedSmartFocus" : "False",
                            "WinSubProjectDisplayName" : "",
                            "clipSpeedAttribute" : false
                          }
                        },
                        {
                          "id" : 106,
                          "_type" : "UnifiedMedia",
                          "video" : 
                              {
                                "id" : 107,
                                "_type" : "ScreenVMFile",
                                "src" : 4,
                                "trackNumber" : 0,
                                "attributes" : {
                                  "ident" : "Rec 02-04-20_006"
                                },
                                "parameters" : {
                                  "cursorScale" : {
                                    "type" : "double",
                                    "defaultValue" : 0.0,
                                    "interp" : "linr"
                                  },
                                  "cursorOpacity" : {
                                    "type" : "double",
                                    "defaultValue" : 0.0,
                                    "interp" : "linr"
                                  }
                                },
                                "effects" : [

                                ],
                                "start" : 1526,
                                "duration" : 1562,
                                "mediaStart" : 1811,
                                "mediaDuration" : 1562,
                                "scalar" : 1,
                                "animationTracks" : {

                                }
                              },
                          "audio" : 
                              {
                                "id" : 108,
                                "_type" : "AMFile",
                                "src" : 4,
                                "trackNumber" : 1,
                                "attributes" : {
                                  "ident" : "",
                                  "sampleRate" : 44100,
                                  "bitDepth" : 16,
                                  "gain" : 1.0,
                                  "mixToMono" : false
                                },
                                  "channelNumber" : "0,1",
                                "effects" : [

                                ],
                                "start" : 1526,
                                "duration" : 1562,
                                "mediaStart" : 1811,
                                "mediaDuration" : 1562,
                                "scalar" : 1,
                                "animationTracks" : {

                                }
                              }
,
                          "start" : 1526,
                          "duration" : 1562,
                          "mediaStart" : 0,
                          "mediaDuration" : 15856,
                          "scalar" : 1,
                          "metadata" : {
                            "AutoAppliedSmartFocus" : "False",
                            "WinSubProjectDisplayName" : "",
                            "clipSpeedAttribute" : false
                          }
                        },
                        {
                          "id" : 109,
                          "_type" : "UnifiedMedia",
                          "video" : 
                              {
                                "id" : 110,
                                "_type" : "ScreenVMFile",
                                "src" : 4,
                                "trackNumber" : 0,
                                "attributes" : {
                                  "ident" : "Rec 02-04-20_006"
                                },
                                "parameters" : {
                                  "cursorScale" : {
                                    "type" : "double",
                                    "defaultValue" : 0.0,
                                    "interp" : "linr"
                                  },
                                  "cursorOpacity" : {
                                    "type" : "double",
                                    "defaultValue" : 0.0,
                                    "interp" : "linr"
                                  }
                                },
                                "effects" : [

                                ],
                                "start" : 3088,
                                "duration" : 976,
                                "mediaStart" : 3378,
                                "mediaDuration" : 976,
                                "scalar" : 1,
                                "animationTracks" : {

                                }
                              },
                          "audio" : 
                              {
                                "id" : 111,
                                "_type" : "AMFile",
                                "src" : 4,
                                "trackNumber" : 1,
                                "attributes" : {
                                  "ident" : "",
                                  "sampleRate" : 44100,
                                  "bitDepth" : 16,
                                  "gain" : 1.0,
                                  "mixToMono" : false
                                },
                                  "channelNumber" : "0,1",
                                "effects" : [

                                ],
                                "start" : 3088,
                                "duration" : 976,
                                "mediaStart" : 3378,
                                "mediaDuration" : 976,
                                "scalar" : 1,
                                "animationTracks" : {

                                }
                              }
,
                          "start" : 3088,
                          "duration" : 976,
                          "mediaStart" : 0,
                          "mediaDuration" : 15856,
                          "scalar" : 1,
                          "metadata" : {
                            "AutoAppliedSmartFocus" : "False",
                            "WinSubProjectDisplayName" : "",
                            "clipSpeedAttribute" : false
                          }
                        },
                        {
                          "id" : 112,
                          "_type" : "UnifiedMedia",
                          "video" : 
                              {
                                "id" : 113,
                                "_type" : "ScreenVMFile",
                                "src" : 4,
                                "trackNumber" : 0,
                                "attributes" : {
                                  "ident" : "Rec 02-04-20_006"
                                },
                                "parameters" : {
                                  "cursorScale" : {
                                    "type" : "double",
                                    "defaultValue" : 0.0,
                                    "interp" : "linr"
                                  },
                                  "cursorOpacity" : {
                                    "type" : "double",
                                    "defaultValue" : 0.0,
                                    "interp" : "linr"
                                  }
                                },
                                "effects" : [

                                ],
                                "start" : 4064,
                                "duration" : 11435,
                                "mediaStart" : 4421,
                                "mediaDuration" : 11435,
                                "scalar" : 1,
                                "animationTracks" : {

                                }
                              },
                          "audio" : 
                              {
                                "id" : 114,
                                "_type" : "AMFile",
                                "src" : 4,
                                "trackNumber" : 1,
                                "attributes" : {
                                  "ident" : "",
                                  "sampleRate" : 44100,
                                  "bitDepth" : 16,
                                  "gain" : 1.0,
                                  "mixToMono" : false
                                },
                                  "channelNumber" : "0,1",
                                "effects" : [

                                ],
                                "start" : 4064,
                                "duration" : 11435,
                                "mediaStart" : 4421,
                                "mediaDuration" : 11435,
                                "scalar" : 1,
                                "animationTracks" : {

                                }
                              }
,
                          "start" : 4064,
                          "duration" : 11435,
                          "mediaStart" : 0,
                          "mediaDuration" : 15856,
                          "scalar" : 1,
                          "metadata" : {
                            "AutoAppliedSmartFocus" : "False",
                            "WinSubProjectDisplayName" : "",
                            "clipSpeedAttribute" : false
                          }
                        }
                    ],
                    "effects" : [
                        {
                          "effectName" : "NoiseReduction",
                          "category" : "categoryAudioEffects",
                          "parameters" : {
                            "denoiserAmount" : 20.0,
                            "denoiserThreshold" : 0.0,
                            "noiseProfile" : "F6ArPnYqRUC4+Qs/Z9AOQM8NhUDCThlCnykdQqAKSkCLhZI/Bz8WQBzFOj/aWu0/AtkXPzXx/D8X\r\nY+I+OWgxPqpSED+cje49WvmsPa44hT3tvPY9VLAhPicThD6vm58+RtXnP9Yc1z8aR3M+yGCePyIt\r\nmD/lGphAw6tTQCXsnEBZ87xAKe+WQIOqa0AFb80/lxfdPyJYBUBMm1I/6c0tQKQuBUCux5c/9W8x\r\nPwUVCT9Qt5k/MjYXQA4ziT/mVyM/ukmsPnB1pD5y0eE/3keRP7A1WD+39P8+EaD8PnMysj7Utho+\r\nW+UuP5/tgT4rX3c/gyO6PyLJfz+z2jM/T1KAP8JWj0BD/cA/rBKtP/1uiz9spuQ+BvesPrMv6j/D\r\nsbY+rWKQP2VlND9Hsjs/AH09P4UZDz61jJk9ME78PVyQsD64KYk9PiU4PnEcuD1PbVI+MMb/PQI/\r\n0j03E8M9u3CsPZDMtj0no6k9hq9UPaBKzz2cNrk9eFM3PSgYdD3M8os9XyD1PbVkvT7iF5o9MJRo\r\nPTbOlz1GqZw9JSM2Po6nuz3281E9qD8/PSaLTz2gwcQ9DneGPSpqLD2yuRg9E5i5PW6mAz3hVGE9\r\nNXQsPSabRD0qNd895WMjPa7W3z1AR8Y8sS6yPJmYTD1A9eY9iAQgPVfYnDwghXA8AEXtPDaxBT1e\r\nDJ88qRmVPPSKHj0ES+Q9X8f8PGFEujw9aMo8cnolPoLubz1gjVI91tubPZ8n0jzQBrE9QqvePEGO\r\n8z0mR4g9TcjqPPPwbD0QV7E8vlEbPUso5TyM+O88d+ywPL5p3DwVqjk9GsMdPf23pj1uz7I8GvPH\r\nPOtpOD3/a5s8qi5KPViRBT4uc389yIiZPS7cFj2CNOw8mHrOPMAMaz2CZhQ9cBOuPFndEz2oN+A8\r\n1mviPLufFT0wIvE9sJsGPi+aCz1hgWE82kJ1PGiBJz1ijp4805EePCZx/zuAhbE8kNfbPFK+ojwn\r\njv4853rvOx57ETw69UU9UjEoPX5Ulj05wf885gSMPP/EtzxrHco9Xj4hPY6tiTxQWKI8IIQUPSDO\r\nQj0tsI48dUhVPChyTjz5r4s8tT0mPVOtgT2KIJs8ozKDPJ4BuDxUJfM8Fi6gPa9ULDwdxJ8833+/\r\nPBhU5jy4/ws9PvFBPNAC7Tt2AAg8PBmnO5mP2Dz5ztU8r8IxPCi/FTzuBaI8dZ/iPKRJUDyCTGY8\r\nFV0tPMo//jv+Xeo7Xuc6O3bj1jvCSpA8MiGnPA2UaTwQPVo8/u4FPah9pDyYJLA8nogUPMViSTxm\r\n9KU7NADOOwvGDDxBdAA8fplPPKB0njsxM5g8nGTrPBPX2DxQi5Y8vHLXPOL3Wj25tmk+rfq4PS1l\r\nmjwfaMc889v2OwKM8jtX5No8TPUqPPkv+Tvgy7c7bvxtPFoXZTtepQE7BI4mPFQuijxi/cc7AzHN\r\nO/MknDuyFJo7LD23O2zCTjwAHG88pFs+PDcAXTyIoVI7mLEcPJY+Fjw+FZw8OHvtO7APkjty04s8\r\nguaiPHStEzwEGpA7tEsJPNkqBjx3xJA8U65cPPJ2MTxi5/88mjhMPIelLTx+PsM7aJ4xPHrdDDxy\r\nX7w8q9KlPO6/DTxUb448aoUtPDPCEz3wGVY7h4GdO7r8PzuGE/06EBoiO2IBTDufmHE886UCO9y0\r\n6TrxISo71qK3Ol63NTvROgM7GzqnO5J9lzsyx5g6qh6MO8f4yTpqtJ46QKz4OkewiDuJGOE87pB2\r\nO6A4tToaNIQ6+dJbOshG5jo+a+o5iqhCOjLOODr95kA6TtptOgs20zlGECo6staiOaM2sjnCr4M5\r\np29YOS4HGjluOqU5Vl1iOeuZYjnWN4M5x4I0OS8QfTl+wAU5pMFOOS7gFjkCEdI4omVMOaycJDn6\r\nQew4k8sCOUhTCTlAZh45GaIHOXrTGzm83Qw5qnYIObGoMTmi2hg5Wx0jOb9CBTmMHB85NFIQOVXw\r\n2DhaLAQ5ZMj2OCxJ+Dj2TwE5aTEKOVWbETm3NAg5U375OA5GGjkSS+I4lyAaOf4vBjkyzvo4/gLy\r\nOMssCznAtQ05qUgAOd+KBDl0n/o4SFYHOcbdAjnRrQE5kzz/ONXVATnsXvE4BDXpOBop/DhsBfQ4\r\n3UrzOCyf7zg4+ew4kkfgONXA5jgX3f045AX7OP778zgKY/Y4ZEcCOeMNATnukuQ4gnP0OAux3jjI\r\nbvk4qMb3OFwe9jh4sOg4h7fsOA1Z5DjyzOA4DsDgOHYa7Dgzutk4zDbeONOK4zhGmN84oYHWOLQ8\r\n9jjged44N+reOC62xzhYzM84TBvtOPxRzThoZNI48MjROPhDzjg2KtY4tTfUOEhvwjgWb904paTK\r\nOJKV0ThTzc44BGK/OEiLwTg8lNY4j1u9OOjSwTjqr9I4/FOuOL14zjj48OI4MUTVOEMzrThUyNc4\r\nCl2/OGIcqThgUcY4mrnQODplxDgtFMA4PB/FOFzhzTiJ4Lw4+ErTOFhCuzgvHcQ4VH2yOE2JpjhA\r\nf8Y4mPHGOEbOuTiaQbY4kzOwOIDuuTigorM4OFPAOKg2vjhw7K44kzWbODyavTianLk4WCGyOHjx\r\nrjggvbk4tinBOMKftTi667Y4NFC9OKBlrDg2Cqg4HR2yOBogszixbag4oAitOJ9BoDjWlrs4bZSq\r\nOPCFnTg+q6c4aPKuOPZTvTgqwaM4dzupOL5JnDiK1LQ4koGrONSmqDhegJM4HNiTOFZWoTgAkZE4\r\nL0eYOPDkjjg6+K44xaafOATwmTiu7ao4rBSpOJ7BoDjcIpc4BG+iOF4xkziiR5k4yMynOB7qnjj4\r\nw6I48vyUOCaclziM76E4eGOfOL8ZlTj2S6Q4TGqgOH7CnTgEhqo4X0ahOH4LkTjgKZU4sIijOOaU\r\nmzj88Y84utieOEjmdTg0qJQ4/G+AOCp/izgSD5M4r6KSOE9VnDgePIE4tDuSOMnZkjghT4g4dBCQ\r\nOC5ZiTjmhos4aWyPOLwlkDiIC5Q4PBSUODFhizjoKYE4+DaROJD5dThlgHg46y55OHVPmDgv74A4\r\nJ06UONqMizhbP584Ar6MOLaxhjgShII4XOGNOCZEgzilCIo4ZM2FOGjXijgeE4A4uLCOOO/Hijje\r\nNI84rjSDOP5ilTgKmIQ4IWiHOAGFhThx/Hc40+iCOFP2jzjADYc4bER2ODYOZTjDFZQ4JNV2OIo8\r\nfzgSgWM4JEqJOHbGhjir94Q4KWmBOKXDgjg1f4M4ph2MOLUVljhtdYs4LEN+OLyRgThPcX84+Clo\r\nOORtdTjwL4E4GJZqOJaKfzhRwV84slJeONpjVThgZGo4x6J9OB4pdTg2l384MFhpOE7CYjiAo244\r\niDRpOHg1eziQeYM41gOCOITNYTjCe1Y4WGRmONazfzgkHVM4SiB5OExZdzisB3I4VuBnOBlCajj2\r\nNHc4HONkOG+oWzh8cFk4+4ZZODLhVTheYVs4TK1mOOJFXjgudlg4/GZwOAryZDjQGGM4YXRMOF8J\r\nbThiZ184mj1dOEZBYzgyKmc4KoWBOPQvczhC1m44kBRPOKP6bjizgVE4+hdrOMY9ajjA5E84Avtg\r\nOLcpeDhRWkw4LoZfOEZ9XzjZi184bndaOLTMUjh3cF84YGE/OMCvYTikcFE4bBdYOMoeVDjfeFQ4\r\nGBVAOOIWRDiwe1444oVQOHxbSTi5XDU48LN0OBZGXjjX/2I4N/4/OKaFTDheC1Q444BXOGE9Tjju\r\nx044CWE6OLjdPjiI2VQ4lI9YOO8YJTi/AE84toNPOBqIRDjkY0I4IaBgOG97UDgh+EM4oBFCOFSF\r\nVDiiiE44D/o/OCPrNTgsLT04r2k3OCF5LjgZzFc4REtDOKVpTjgQiUg4XrU/OI8qRDhCr0o4qIhl\r\nOHVRJDjY20I4AZgyODgGTjjf+1w4mG48OB+bMzh5kys4zghKOCUnMDiGLkY4gnAuODExSzhFfTk4\r\nKRMnOImOQzi6s0E4fEFeOP/0PTjmflA4NOJCOCzIQzhUOiQ4Os1MOA/NRDheG244P542OJeDNzjD\r\nhks49ANYOOiOQDi8Ozg4bl42OIznPDj4fjs4PopQONI+OjiNQEU4hqsxOBz9IzirVEA46S4/OA7w\r\nNzhk+V84ypEyOM4mNTg47jk49NsfOFlQPTgpsjw4TUI2OL5NMjie6D44Q7VDOJjDMzi1HD84BAk4\r\nOJ/GPTh8qDA4AGBHOBSpODi7tTo4WF48OMKAJDhDrT049LQiOF1hODhuBkU4v4QiOB6XJDi/CCA4\r\ngGJHODB3OzjRNzQ4xq8+OG+HHDjw/DU4J9kzOP+FFzjfdDc4UfwuOGiULzhURDA41XkoOHZlMzih\r\njD44aI4yOAR9RTiihkA4r0cwOK+OIjhykDo4rRAnOMKiLTgXIjQ4gkJJOMASMTg6Cio4a7Y4OKUp\r\nHzj64i446nM3OFT0Hzicziw43JYnOLo+ITgeRkU4Yk4tOI1yKzhp1Rk4TXA0OJSIDzje7C44Oq8t\r\nOCJjHDiR/y848KwwOObmQzhHjzA4wtAnOLfAKThdKC84//4cODBPJzjlSxo4qQw9OPqiIzigSSQ4\r\nmLsmOGxkCThk7yY4c8o+OD0MKjht0zE4SZYpOHQmHTgWPxU4HnIyONe4ITicshE41fosOM/lMTgN\r\n6SI4npkaOAFkJjihVRQ4H5g3OLhPPTiObyY4DMAkOKIgHzjpwhw4bJUbOJQGPjik8TI4gs0qOPDB\r\nIjh7+yU42/opOGlQLjjhBRQ48jQhOMEtLTiTsC84G5kuOOYvKTiggAU4xbYuOBYqKTjZCSY4TYAa\r\nOOY1MTjOlyk4/yg4OD/iHzgrySA45JQiOB4BEDgTdh049wwAOLv9GjiC2yc46tIoOLnUHjjtEC04\r\nsYAqOLqxFziGwiw4MlcyOILIFzi7PRQ4FhwuOH+DJDhrLBo43cMNONA8MziK0iQ4o3ojOODqJjjU\r\njBY4J80nOB+xGzh+pSI4ansUOJOlLThzKiU4S2IqOHyMKzghVig4msIgOHEUIzg4tSk4smslOPo0\r\nKjiOZh84eXIDODNJIjjncC84XOUOOKc4ITjHlxU4iK0VOJL4MDivdCg4huErOAWkHDhukwc4mwEj\r\nOCv+IjjqaR4483AnODGhKDhX0Sw4MvUqOO3cFThsriQ4TR8hOCndHDiKDg44qn8UOJ+LKjhelBY4\r\nC/UoOMdhHjiEQC04KUQXOK/KJzjOXys4LxAiOMucHziIpiw4sdkVOCnGDziTiEI41gUkOPNrGzjY\r\nHhI4C/8JOMYSLTjJ4Qs4i8AhOJxJHzhO9xo4D2UzOLIHGzjWexs4nHYiOJdZCjiN2CI4jIEaOM3o\r\nLTjxxB84SiYSOMxKIzjVLBE40mkiOAv+Gzh4XDE4L30iOG7TAjgmaiQ4/g0WOAPKCDjNLDo4Vicr\r\nOH1IJjiG9B04XVgrOBjKJTgzaSE4kgkmOIpvGTgjBQ84ros5OGKRHThw1yI4thsnOAAkBzgXoCs+\r\ndipFQLj5Cz9n0A5AMwOFQMJOGUKfKR1CnvpJQIuFkj8HPxZAHMU6P1Zk7T/r+Bc/8uD8Pxdj4j45\r\naDE+qlIQP5yN7j0GJq09rjiFPe289j1UsCE+ww2EPq+bnz5G1ec/1hzXPxpHcz5zZp4/SEGYP+Ua\r\nmEDDq1NAbuqcQFnzvEC05JZAg6prQAVvzT+XF90/IlgFQEybUj/Qxy1ApC4FQK7Hlz8xczE/eAUJ\r\nP1C3mT9sPBdADjOJP0ZDIz+ePKw+cHWkPnLR4T/kRpE/sDVYP7f0/z4RoPw+10OyPua/Gj6O5i4/\r\nkv+BPpdVdz+wEbo/Isl/PxrHMz9PUoA/wlaPQEP9wD+sEq0//W6LP2ym5D4G96w+sy/qP8Oxtj6t\r\nYpA/ZWU0P0eyOz8AfT0/hRkPPhhnmT30xfw9gXWwPhgmiT0+JTg+cRy4PYU9Uj5QGAA+eQzSPeb+\r\nwj27cKw9kMy2PSejqT2Gr1Q9oErPPZw2uT14Uzc9KBh0Pczyiz0yKvU9tWS9PuIXmj2QNGg9ASmY\r\nPUapnD0wHDY+Ua+7PVgiUj2oPz899EFQPYDOxD0Od4Y9QKssPbK5GD0Pork9FdUDPdlLYT10pSw9\r\nBF9EPaBs3z3lYyM9rtbfPeQJxzyxLrI8mZhMPUD15j2CnyA98gOdPCD/cDzrm+08NrEFPeMTnzxD\r\ntJQ8dV0ePeJy5D0q5/08jrq6PPrLyTwlNiU+qoVvPWCNUj3W25s9nyfSPNAGsT0nsN48wcTzPah2\r\niD23qOo8xzZtPQorsTy+URs9/ZDlPPXG7zwpfLE8vmncPFt9Oj3OLR49djinPZqzsTyvqcc862k4\r\nPdpsmzyeX0k9FUMFPgrQfz1uz5k9LtwWPYI07Dzioc48wAxrPYJmFD1wE648XX4TPag34Dzy9+I8\r\nu58VPRD98D3QiwY+L5oLPWGBYTzaQnU8ZCwnPWKOnjxDuR48KNT/O4CFsTxMENw8Ur6iPCeO/jzg\r\nn+47HnsRPKDbRT3PSSg9AH+WPcFt/zzmBIw815i4PGsdyj1ePiE9GVeKPFBYojwghBQ9faJCPS2w\r\njjxKXFY8GmpPPPmvizy1PSY9U62BPUIUmzyjMoM8ngG4PFQl8zwWLqA9r1QsPB3Enzztdb88GFTm\r\nPInfCz37DkI8JvjuO3YACDy8X6k78IbYPPnO1TyvwjE8KL8VPO4FojyAPuM866NQPIJMZjytPi08\r\n15r+O/5d6jte5zo7duPWO8JKkDxYq6c8p55nPDRtWTyKfwY9o+mjPJgksDyeiBQ85NBIPGb0pTsy\r\ngs47C8YMPEF0ADx+mU88oHSeOzEzmDycZOs8E9fYPFCLljy8ctc8LUBbPW/IaT7oa7k9LWWaPB9o\r\nxzzz2/Y7AozyO1fk2jyP2is8C9n3O7hwuDtsc248m9FqOzLt/joEjiY8VC6KPGL9xzsDMc07y82b\r\nO7IUmjsIebk7bMJOPAAcbzykWz48NwBdPIihUjuYsRw8pzAWPD4VnDw4e+07sA+SO1HiijxnEaM8\r\ndK0TPAQakDs3Bwo8pukGPAr+kDxoQV08vsEyPM67/jzmX008bj0uPH4+wzvxxzA8et0MPHJfvDyr\r\n0qU8LlYOPCSujTxqhS08M8ITPfAZVjuHgZ07uvw/Ow3//zossh87YgFMO5+YcTzzpQI73LTpOvEh\r\nKjvWorc6Xrc1O9E6AzsbOqc7kn2XOzLHmDoLh4s7egjKOmq0njpArPg6R7CIO4kY4TzukHY7oDi1\r\nOho0hDokZFg6yEbmOj5r6jklT0U6Elw3Ov3mQDq24206cpjYOUYQKjqy1qI5ozayOcKvgzmQkVc5\r\nUvcXObXsoDk62mM5n+JmOVzpgzniQjk5Hvh8OSjCATlMRU85LuAWObMG2jhYC0s59mwwOTaC1Tio\r\nlwM5YGoTOSpEGzlM/iI58bwXOV5H8Dj+8QE5Pk0ZOf4vHjlyJyg5yQgiORDZDzmgPN043S8GORQg\r\nAzmszxM56M/kOHf9/ThOgAc5pEMJOaUCATlHdAk5T7wHOSpP6zjOUA450rAQOQAA/jjuXfM44oUF\r\nOWfBBjm0SgM5TKYEOVLzAzlL4Qc5d6IEOfi8/jhwIQA5u9z/OIBM8zggCPo42hfvOFtO9Di8pu44\r\nbYzuOOlJ9DiyH+E4/JLpOC4YBDlkO/04fLvwOMydATligwE5qUv+OO6j7jgcotY4wJDcOK1D9Tgg\r\nQOw4EcD2OBq78zgiZOY44oX0OJU22zgq9d44ns3vOMurzDgeJuo42uLXODZB2TiyLuc4gqPoOG5Y\r\n3jjYdcY4HBLQODKm5DgcUNE4BrLZOEIMzDjQl9k4lALTOMV01jhU/9w44JHSOES5yThGOss4L3Hg\r\nOOEm1TgE7rw4VkWvOBZa4TjqSLA4a0jMOH/mxTg6icg4eibQONjy1zjsz9E4vvq2OE1eyzi2ar44\r\nFQq3OILVtTi+fsU4a/LFOJYQtTiQT8k4MYnSOE4dyDhsNLo4PHi7OM4ewziZy604/nquODQTyji0\r\nar04IPu8ONS6xjhmvbo49t28OAgVvjgRObI4nOnGOLoQsziqNZ44bD69ONJUpjj9lbI4/BCpOBSH\r\nuThAhLk4HjC0OLS7yzgxrrk4snujODAYqTg5I6Y4XBqvOFQesziSobE4OdCvOOYntzhseKw43M+b\r\nOEg4nDj8IK84fuaxOBQGqDg42K84TMimON72ojiiQLQ4WHWgOAfOhziwDK049VSfOAAqoTge7pQ4\r\njouQODy8ojjCYaU4lX2dOG4HtTj0oJ44SA2ZOPz7nTgXdqA4GCCZOH8omzig3p04+Y2pOH3Epzh2\r\n06E4F/ibOIoeoDgmQJk4WoKSOF2npTinnKM4hEeeOLSuoTg5FJU4QPaMODbXnTiRNKQ4b12VON4X\r\nljhEBJE4QHeROGjPjjgI3484DLGNON4Uizhk/Zo4+V+NOBBPlTjRB4g4LKCUOAx4fTiYFJE40cuS\r\nOPwCkjgouIM4zKCROLZ+oDh77pE44up5OHHniTj7/Ic4zEeCOFG1gDg28YE4IFaPOIgCfDhm+IY4\r\n8pqKOBOdmDjqbI44PlSGOL+uhjgDKIc4kfiAOGCBhTiTXYI49kmROOIDgjiZ2os4JDqHOKwMkjho\r\nq4E4pW6POHqEgziHrYQ4Q5GEOEQFhDhuUoc4Jq2JOJE+iThUkoc44flnOJc1iDi+/ZE4flp9OCjr\r\nWjixcYg4bMKFOKyDgzgyUYQ4rmmEONYbgjghX4I455mPOGxBejiDkXk49+KJOEzWezg6vGc4xAx/\r\nOCZnZDgC7Hw4eIp8OFVpdDhONGw4NLlXOK5ebjhDr3E4YCRnOBLJfTg4umM4CmxxOAMDajhpCm04\r\n24J0OJ0Cfzi013E4rhRbOGDEaDi2vWs4gkxvOPp7bTiuBHk4WgBrOKYUbziwA2Y42HN0OOixajgA\r\nIGM4krlXOMzZVjhw1Fk4/3w+ODBucjjwi2E4drJiOKYkWTh0/F04CAJSOD4IUzgPdEw4ti9eOPRS\r\najjp1Vg4N/hUOEasUTh7ZoY41OBjOKp/YjhAzF04/H91ODDIUjgMr2I49iVdOPdxYzignFY4RkFv\r\nOG4SUDgNFUs4OnRsOEzeZzjJ/Fk40hNFOIFNYDj3+Vg4U6ldOBNHUzhRS1M4dlxROC/3VDiwGTQ4\r\nqKRaOF3MTziQoV44jJ9IOLb+QDhVwWI4Ot5OOBDRVTj//D042XBFOKm6Tzi8Lls4dOpOOJiFTDgy\r\nU0s4Hr9COJAETzjAPEg4hPk0OCF9QTjSEFM4neI+ODInUThCak84KO9GOKrFJzgWSFQ4bVxGOOX7\r\nXzgozis4DBhFOKDGPjhNaUg4u583OBURUjg0tkQ4+kZEOJqSNDjelEU4lEdUOIP6QDj2nEI4DH1D\r\nOHcyOTjEaTY4KdpAOFpmTjg+7kQ4mDJDODY7TDgGKUk4zYgpOJKqSTjRQi04DPpXOOcBJjhIl0c4\r\nElNCOFqwNDgTuFI4lgFGOPztTTgbNkI4MgZEOHm9MjhDc044i5lLONXdVDhGEzg4bZYxOEPLPzi/\r\ng0s4fWU3OBR0RDgcbD842XYjOJZvKThaHFI4I44+OE2iMjg04ys4yrwyODr/NzjhuUE4mQhBOKFX\r\nXjioWTM4KfRAOMLoODgigiQ4bnclONDLJjijdT44vmI5OAokPjgobkQ4Rl1HOM4qHDgwHDM4ZeM5\r\nOJjfKjh2KEw49RQ+OLyMPzjxDyg4FpJHOITGNji1FUY46Ro6OOyANziIQiI4FKImOF44MDim2zk4\r\n1FQoOO41Nji4xzA4aRY+OFLkMjhcpCk4YbMjOFanHzgxcTA4128wOM5nPTjukyc4wpYoOK1yLDhk\r\n6jE4GVNNONJtPjieZTA4QngtOBnUODiAIiU4b6kiOGWSRDjlXTc4zxshOObALThgNjg4qk4oONaM\r\nHjgf/Tw4bssjOG2iMjg7Uyw4RGkVOFFJPDiEIS44/icnOPS3KDi1kiA487giOG6kKDivWzM4G+Qs\r\nOJUnOzimADg4aPFCOGpKOTibFBY4Jl8wOLM1NjizPiI4iLQhOMlcHTjkxxo4yvQvOHzWHzio3yk4\r\n/74UOOhcJzgQUyw4gQAWOMtZQDi8fys4PYAuOAkZJTggVy84IpAkOAC4IzgMnh04KgMrOJWtLjj8\r\nbBc4RUwrOFxIITgcQy842Ck4OPLyNDjEZR44O90VOAJrIjiYCyA49SIwOE5sKjgpYh842PohOPAD\r\nLzgWoCc4EqY0OMlYETjzTCQ4FD8pONMHIzg0lCs494kmOKZOATiMbDU4vOYbODl4HjgymBs4++Qu\r\nOCmUKzj8pCs4TIUZOG15MzjAdAg4C6UrOANlFTha2Q04YaQNOOyOGjidbh84DkorON6IMDj4FjQ4\r\npNIfOC1OITjQEzA4/TIlOCTZDjiXQTY4f8QhOLuDGjgi3BI4CsksOFPjITh/LiM4GbgmOJDNEzj+\r\nmyk4L/kkODBKBzj1MxE4lhwjOGlqKjhMbyo46s4zOJ+jJTgwBys4+TgqOMNUIDjuDis4v7UoON/u\r\nEDiPjRI4D2oMONkrKThWYhs47f4NOGZfHDhiBSU4qeUSOGmQJjgl+Sk4ZCEhOIkdEzh0SC04wYUY\r\nOFIvGzgs4R04Mz8+OOHqGjgrTx4404kdOIFgJjgtgxQ4ficdOJUCHDgoLAk4S1guOMbQFjhiiSI4\r\nzWcSOFFIHDjpzR04pukVOIwfNDim5yA4qdYhOOnHMjh7gh04+aQZOFYEIjhy/BU4jjcLOLneEDhl\r\n+w44fGQfOLgWFjgFtSM4a+gwOF/yIDi3rB8401kTODYnIjiX2xM4A4sNODf7CzgynSs4PM0rOPy3\r\nCDgkrRM4l54sOPlpEThxqDI4aRYgODIcHzgP1g44Vh0XOCLDIjjxWyk4OQUhOAdnLjhFbi04k50R\r\nOMemIzhNwi04H64qOChzHjgz1CM4F98aOKpjEDh4bTg4JvEiOD8sJzgKPiU4AAQTOA==",
                            "noiseTrainingType" : "default"
                          }
                        }
                    ],
                    "start" : 13988,
                    "duration" : 1412,
                    "mediaStart" : 2878,
                    "mediaDuration" : 1412,
                    "scalar" : 1,
                    "metadata" : {
                      "AutoAppliedSmartFocus" : "False",
                      "WinSubProjectDisplayName" : "",
                      "clipSpeedAttribute" : false
                    },
                    "animationTracks" : {

                    }
                  },
                  {
                    "id" : 115,
                    "_type" : "StitchedMedia",
                    "minMediaStart" : 0,
                    "attributes" : {
                      "ident" : "tower-05",
                      "gain" : 1.0,
                      "mixToMono" : false
                    },
                    "parameters" : {
                      "volume" : 1.0,
                      "cursorOpacity" : 1.0,
                      "cursorScale" : 1.0
                    },
                    "medias" : [
                        {
                          "id" : 116,
                          "_type" : "UnifiedMedia",
                          "video" : 
                              {
                                "id" : 117,
                                "_type" : "ScreenVMFile",
                                "src" : 5,
                                "trackNumber" : 0,
                                "attributes" : {
                                  "ident" : "Rec 02-04-20_007"
                                },
                                "parameters" : {
                                  "cursorScale" : {
                                    "type" : "double",
                                    "defaultValue" : 0.0,
                                    "interp" : "linr"
                                  },
                                  "cursorOpacity" : {
                                    "type" : "double",
                                    "defaultValue" : 0.0,
                                    "interp" : "linr"
                                  }
                                },
                                "effects" : [

                                ],
                                "start" : 0,
                                "duration" : 1383,
                                "mediaStart" : 0,
                                "mediaDuration" : 1383,
                                "scalar" : 1,
                                "animationTracks" : {

                                }
                              },
                          "audio" : 
                              {
                                "id" : 118,
                                "_type" : "AMFile",
                                "src" : 5,
                                "trackNumber" : 1,
                                "attributes" : {
                                  "ident" : "",
                                  "sampleRate" : 44100,
                                  "bitDepth" : 16,
                                  "gain" : 1.0,
                                  "mixToMono" : false
                                },
                                  "channelNumber" : "0,1",
                                "effects" : [

                                ],
                                "start" : 0,
                                "duration" : 1383,
                                "mediaStart" : 0,
                                "mediaDuration" : 1383,
                                "scalar" : 1,
                                "animationTracks" : {

                                }
                              }
,
                          "start" : 0,
                          "duration" : 1383,
                          "mediaStart" : 0,
                          "mediaDuration" : 15796,
                          "scalar" : 1,
                          "metadata" : {
                            "AutoAppliedSmartFocus" : "False",
                            "WinSubProjectDisplayName" : "",
                            "clipSpeedAttribute" : false
                          }
                        },
                        {
                          "id" : 119,
                          "_type" : "UnifiedMedia",
                          "video" : 
                              {
                                "id" : 120,
                                "_type" : "ScreenVMFile",
                                "src" : 5,
                                "trackNumber" : 0,
                                "attributes" : {
                                  "ident" : "Rec 02-04-20_007"
                                },
                                "parameters" : {
                                  "cursorScale" : {
                                    "type" : "double",
                                    "defaultValue" : 0.0,
                                    "interp" : "linr"
                                  },
                                  "cursorOpacity" : {
                                    "type" : "double",
                                    "defaultValue" : 0.0,
                                    "interp" : "linr"
                                  }
                                },
                                "effects" : [

                                ],
                                "start" : 1383,
                                "duration" : 42,
                                "mediaStart" : 1406,
                                "mediaDuration" : 42,
                                "scalar" : 1,
                                "animationTracks" : {

                                }
                              },
                          "audio" : 
                              {
                                "id" : 121,
                                "_type" : "AMFile",
                                "src" : 5,
                                "trackNumber" : 1,
                                "attributes" : {
                                  "ident" : "",
                                  "sampleRate" : 44100,
                                  "bitDepth" : 16,
                                  "gain" : 1.0,
                                  "mixToMono" : false
                                },
                                  "channelNumber" : "0,1",
                                "effects" : [

                                ],
                                "start" : 1383,
                                "duration" : 42,
                                "mediaStart" : 1406,
                                "mediaDuration" : 42,
                                "scalar" : 1,
                                "animationTracks" : {

                                }
                              }
,
                          "start" : 1383,
                          "duration" : 42,
                          "mediaStart" : 0,
                          "mediaDuration" : 15796,
                          "scalar" : 1,
                          "metadata" : {
                            "AutoAppliedSmartFocus" : "False",
                            "WinSubProjectDisplayName" : "",
                            "clipSpeedAttribute" : false
                          }
                        },
                        {
                          "id" : 122,
                          "_type" : "UnifiedMedia",
                          "video" : 
                              {
                                "id" : 123,
                                "_type" : "ScreenVMFile",
                                "src" : 5,
                                "trackNumber" : 0,
                                "attributes" : {
                                  "ident" : "Rec 02-04-20_007"
                                },
                                "parameters" : {
                                  "cursorScale" : {
                                    "type" : "double",
                                    "defaultValue" : 0.0,
                                    "interp" : "linr"
                                  },
                                  "cursorOpacity" : {
                                    "type" : "double",
                                    "defaultValue" : 0.0,
                                    "interp" : "linr"
                                  }
                                },
                                "effects" : [

                                ],
                                "start" : 1425,
                                "duration" : 14211,
                                "mediaStart" : 1585,
                                "mediaDuration" : 14211,
                                "scalar" : 1,
                                "animationTracks" : {

                                }
                              },
                          "audio" : 
                              {
                                "id" : 124,
                                "_type" : "AMFile",
                                "src" : 5,
                                "trackNumber" : 1,
                                "attributes" : {
                                  "ident" : "",
                                  "sampleRate" : 44100,
                                  "bitDepth" : 16,
                                  "gain" : 1.0,
                                  "mixToMono" : false
                                },
                                  "channelNumber" : "0,1",
                                "effects" : [

                                ],
                                "start" : 1425,
                                "duration" : 14211,
                                "mediaStart" : 1585,
                                "mediaDuration" : 14211,
                                "scalar" : 1,
                                "animationTracks" : {

                                }
                              }
,
                          "start" : 1425,
                          "duration" : 14211,
                          "mediaStart" : 0,
                          "mediaDuration" : 15796,
                          "scalar" : 1,
                          "metadata" : {
                            "AutoAppliedSmartFocus" : "False",
                            "WinSubProjectDisplayName" : "",
                            "clipSpeedAttribute" : false
                          }
                        }
                    ],
                    "effects" : [
                        {
                          "effectName" : "NoiseReduction",
                          "category" : "categoryAudioEffects",
                          "parameters" : {
                            "denoiserAmount" : 20.0,
                            "denoiserThreshold" : 0.0,
                            "noiseProfile" : "0DLBQIHdHEFkF58/DucDP0ozzT57KmtAgMC/QJeMVkBqXPY/DM/ZQMiezz4uXQw/LmsPQAr6XUGb\r\n61tADcoFP5xdJz9feBE+k96HPoV1gT5t5ts+891TP321qT//4kpAYZFVP/Y5SEBV+cA/y9mkP1TE\r\nkD/IwDdBlGu3QPEnIECKjZ9A9zQeQR6sIkGDqRBB+MoTQPG91D8HiIJAV1n+P6aiLT8BC0o/tL6y\r\nP4CKdz+TTwpAgu3+PkNWRT+gxcc+oUg2QHnaPj+xh5U+dknYPzLVOT+xOLQ/CVWQP9L/V0A8xUNA\r\nPD0eQBE0C0C2arA/IDIFQIzaBkBP6ZFAYESvPzzwVz9stXM/LdNnP2R7TkDbvPU/3LQ9P2b3aD9/\r\nmdU+KgmKPggnJj9cFxpA+r7IP2xSjz7uI6Q+OPvAPooxbz7i1P49VuHhPVCFqD7keyZAx+LaPlz+\r\nbz6Fdvs9U1juPU5/Gj4RaoA+nEsSPn4JCD++RKM+d6QKPnB8oT0yKPA9nJBCPngjQz6ubLY9ileG\r\nPPKgSj1Jxbc94G0JPQxPYzwmXi092efQPdtqCT27jQc9Ky4yPXjt1z3+Y4Q+qWOVPRtdAT1ibEI9\r\nbSiFPa/kCT29bPQ8t1R6PWIuej338o4+YoobPVYHdT3irwI9Id5BPVQizzyal4o8Oto7PZQljz3V\r\nVZc8BPSuPOS1Ez1OsUA95umjPcrnGT0o+Qo95M01PRHiED31CgU9I94CPbQJQzzaG/o8ONkxPUKJ\r\n8zwMEV09eMDQPBrVQjzliHo8g0i2PEAUFD0MYwI9A+aRPWZo9jznDdY8L6VbPTI5Ej1qNRM9D5qt\r\nPNhShDzTRIs8oNaMPNNNRDzbawQ9wukyPRCmfT167cQ96HjXPFl3JT3pBr49dLyJPefi/jwg2lE9\r\nW2UKPV69tTzDfAA979SIPfaIGD2t9wY9pCWePJvaKz0PsKs81p2VPJCygzwfY6g8aMFRPDbiejy0\r\niq88JgMLPW22izx8hyQ9JVzIPEIyED0kHZc8kANAPASCmzyRv4Q8UaQKPaDdOTya/qY8SONgPO7m\r\nZj2SBMM8St5bPMcEFzySSNo7oXU1PIkPtTyHwME91CxcPbHibzzXumc8mZ7LPISshzzP8xs82rQj\r\nPBt37Dy9K0Y82igzPCOeyjttD9E7ffAqPBVpajyVa1U8L2iaPGWgnTwHWew7nXnIO3F0WTyf8RQ8\r\ncJ4rPFdMdzys2Qw9uZnrPBAoMDwjkYw8ZSrhO/YQrTvamQo86wSBPOe0Nz2l/wo9m3koPNV4hTsy\r\nH088fZQ9PLqm5Du70Qw8V98lPJuToDvGLYU81seCPI1N1DxMYPM79xOPPKw1/DzXfzA8KaJkPNHx\r\nFzwUl8M85ikqPTntpzzko9A8hCIcPGXopzvWlcM7H2AVPHi0OzybEZ47v2A6PPGfkzwEStg7ulaX\r\nO9ozhDymjo48xoL+PBELnzy7Co07q9xBPFfThzsPfUE8RaCDPL6FgjyIzSA8+oFWPLHJAjykVI87\r\nKsUbPJLaDTxgNq48I8asO1eRJDw3iso7flx+PNXbiDv0r4E8oCVaPBAKsTue9oE8wyc0PCIKpTtz\r\nqDA83NG1PNxFLjyyaac7A/NoOy3vpjs2ul87YvhsO+SNXzu82Hw78QEcPMkEOTxIsoM8elKOO4sD\r\nfjuwZ+Y7Fkz/O5JKyztCihU7prwPPDrVyTx0Bao80GnGPLkwJTzykXg7AE3MOuvpQjuwUVA7VIPF\r\nOsqWTjskaoE6vVaZOj+m0DpDQJ86vAAXOxrIRjrO2/I5rVkcOjy2DjoUuHM5HikWOgDpmzk2qrg5\r\nDNTKOQuAwTlKYZA5RZqnOcC+vjl6IMI5trduOaJGkTnid6E5QBqnOWXiHTk5Q0I5GJ2SOReokDmO\r\nrVE5spNOOYKTcznOllU5MAVuOWJaXTnR5VU5SgdqOcFKizm96m059pCAOWJxbzk2i2g5duKBOeQ3\r\nQznIUHc5w6hdOXh0RTkpQXg52sxvOSZKdzlqc2Q52JF4OUQXXjnwr1A5pItXOeI4Pzn1C3E5WM1V\r\nOUJGNTn2vE85yJNLOZZxQjmEDlI5hVJROWh6RTms10M5uQ88ObaQPTkQxUw5XUc2OedjPznSh0k5\r\n+jsyOdz8RDlbkS85BqlKOcVYQDnqsko5sm5DOeajPDlcFzc5MME0Ob87Lznq5Tg5nu43OY6rODmo\r\nKzk5HGw4OVduRTkqpDU5g8ssOY0ELTnQrDg5iNQzObkKJTlGsi05NnwuOaIULTn83zI5T3YkOTIj\r\nMTlKuyI5NOIeOYqlHDmukjU5Xs8kOaCrNDk7jDI5q8AoObeyLDnq/yY53uMlOUm3HDm0wR45ki8b\r\nOdfnFjkorCE5xLUeOZwEJDlw8CE5DNMhORyQFTnach05/zwgOfPAFDnqFho5guUjOVjtHjlo1Q05\r\nWjgaOWIAFDnmZgo5QxMSOYPdJDmTFRY5tH8WOWYODzl8Hg85Tw0ROU4qEjl+ShA5COIHOSWGCTmV\r\nBRM5JNMUOUSVCTkFiQ45Cs4OOYIeCznAxQk5JI0POa5CDzlWqw45JesQOQxZCDm89xw59qMSOfIK\r\nDDnLmgc5N33+OKKnCTkevvo4Sf8GOYQpDDmV2ws5NKgKOe7XBTk8ogg5n0kFOS55BDnY2wk5D0IE\r\nOSNFATnVZgU5fCf+OGi+9jiYhQQ5IzEBOdCV9jiuDQY5Eq/pOE6W8jhG3uk4WiP+OMD8BjmAgPE4\r\ncTHqOOTE9TjRUvA4KEj5OGp+Ajl8XOQ4WyPnOP5b+DgiSfE4OFzrOF1rATmsceI4O9YDObiw9ThT\r\nhfU4s1DzOGcR/Timm+o4rIj/OOH/9jinhPA44urWOGrn9jiWSfI4NuL3OIIPzji1Les4sB7dOKxP\r\n+ThAE+o4QJjdOERe8Tiwe8U42mTmOGIJ1TjJDt84UEXhOLyD2zjEfu04dezVOK033DgOZcQ4jyTb\r\nOIq+4jgC/tw4zmLjODrj1jhCyNc4A+fKOFyBzjgEBdU49TfcOFdG4DhqGMM4HFvQOG6UzTh4I9I4\r\nARbWOMaOzTiMYsA4ltfjOPeswjiGCNs4GgHeOJ5pzThMAs44k6fVOCASwzhJnMY4TAzSOJJY1TjG\r\nLdY4ykrWODJBwTin0ME4l5i7OBnWuDjgOb444d3FOEKqzDg+Vso4rAbOOM7Xyjg82rk4hLvHOEpz\r\nwDh8PMM4jRzIOBR0xThVMsE4Qtq/OA6HuTg0qs44ryi6OCLexziHKcM4nKDJOMFtuTjYVbY4rX3H\r\nOOb0wTg82sg4uu3FOII0wDg1eLw40XHAONnQxzimObg45yDBOJs1zTiVO7g4rPKzOK4GwjhaZb04\r\nO/y9OI5CwjgcKLE4mSfFOGe2pzjogb44gNC1OCb1tDiVq6848HW8OJmhvzg4Hrs406OmOIQDqTjl\r\nrZo4gvalOM66qDhr47M4+UG8OAXXsjjCSsI4VgqpOGVuoTh8ksk4HBeuOI4fszh0AKw4jTGxOEEl\r\npThziKw4Hn+iOLvBrjgPkrs40jqnOMNOrzhQI6I4FniVOOgcsDj0Apw4lq+vOIgArzgaZbM4HLOi\r\nOFcYpDjGmqc4CMKiOPHJmziPnKA44IWmOCqJnDh6z604uWauOGHYsTiGs5c4CGSVOMYEnTh+Pak4\r\nGJKYOIeeoDiKbJs4EDueONWooziPJ6o4YdaqOOjPkDgRZZ446qSyOGAxmjgD9qE44dOeOJpqmDgk\r\npq44yQSoOPw0lzjCyak4pEmiOIF3qzgbJ5s4/BygOKtfpzgYtJ04aZWZOHxGmDi0VLI4PGaXOISm\r\niThAw5o4yGioOLCDjzhEXJ44mnyeOFC6pDhu6Js486ikOM/XmTiVppk4XmuaOBLClzjFmIY4wk+O\r\nOBgApDh1/aA4YlWfOHRwpTjmlJg4XrKMODoFizgy5KM4bvSfOAr9jThHIJ04mZWZOIXKZzhw0Is4\r\n0+KiOIIqijgwlZM4GlaCOGGapTj1L5E4NjqeOI5JjTgGr5k4VBmDOJuOjDjCrZk4ckmBOGfPlziT\r\nuZM4Rm2AOGcMqzgKt544ZmyNOOLNkDg5DI44/paNOLm5jjh7eJE4jYyOOE0giTg40aQ4B3aIOMjE\r\nmDhNDYM4PGSGODkomDiW1Jo4CH2GOFL9kDht7oQ442uMOGtAjDi5Uow4ArOfOJGCiTh4C54485qI\r\nOCcPbDhnK5Y4HzqUOEiziTgqAoY48VeNOKmBjTiAcZI4fguHONQPjjiC2IU40PuNOEJfijhFKGw4\r\nHKyCOD7jkzgREYM4PC6GODFVizj2NIQ4ni2HOAxEiDh+UIA41i98OBK/gDjyjpI4EweJOOCEgzj+\r\nopQ4YHaPONCKmDhoKJo4Fn9yOHbgmTg6r5A44i2HOFcejji/o4o46nKVOH7Xjzhxu344/JWEOE1c\r\neThqs4o4nv+GODmFmzj9v5E4CU2WOAGEezizgog44S+UOJbNhzjCNHs4AFV/OPHehDiaUHM4iPyR\r\nOKRrbjhFU4w4I3GYOCHrjTho2ZE4PwOPOD5ZiDiDfI44qqKPOL2iizgseIk4HkCLOIUufDi9T4c4\r\n/35sOLcUkzh8+Ig40hRhONTpijj3uGw4C0SQOEJBgziJrYM4ubNvOG3WhThmP484dUh6OAAoeTg5\r\nIno42J6IOPgLgzh/OYc4fyllOKXjhjhsxFU4wcKROPv0ijhLy3U4dc9/OH5DaDgmfYk4RXmCOM8V\r\ndzhAJHw4m6eBOF0Rbzg2AH84T1h8OJMfczinC5A4AlaMOOLfRjiDMoQ4X4+CODh5hjhIw484eA6B\r\nOA1CkDiu1Y049r2NOLfUfjiIMoA4KGeNOJLFaDgZ0mc4FJ6AODT4VThtQ1c4EJaJOKAobziEUYU4\r\nTDh7OH5ocDiYKmA4SupvOKJuczg0kow4/997OBccbjh5KXg4odyJOF/ZbDjE6Xo4MaR2OFP4aDh9\r\n3II4DglgOIhHYTgG31845X9/ODqzXjjgGm04Hsp0OONMeThtroU4NfZ1ONTTdTj0Elk4fYeCOGfb\r\ngDht7m44ha9zOOYXgDi/nYE4JGWAOJRMcTijSYk4fhqNODcWYzjOfXI4bhxrONa7eTgcP184Xit9\r\nOHXEbTg1PFo43jNlONpLZjiCA4U4m2FYOB0WfDguqWQ4yZ6KOAonfDjI3Wc4NNhiOADlhjgc7l84\r\n2cuAONqyazisAYA4DGJ7OFk2fjgj/Ws4CzWBODZiczgdGoY4GtxROIXWhDh4omU4XY9sOPGZhjje\r\nsXE4zsp4ODWfdTg8d3Q4pPJvOPVjhTir2XE4ifR5OMfOaTgtB1w4Rk+FOEi8bDgwgXI4iCyAOA2g\r\nfTgfKGU4QHdjOOHOgDhaAYc4pu6EOBWadzjmnWk4SkyDOBxjfzhHe3M4M4xpOAQ/hzi7bWQ4Uqxv\r\nOIUkgzhRFoA424VdOFN8dDim0lM4FHp4OKQzgjiF5mg4LBRzOFLEgjiF2Fs4wU2EOIAAgTjQMsFA\r\ngd0cQWQXnz8O5wM/TCzNPnsqa0CAwL9Al4xWQI5T9j8Mz9lAyJ7PPi5dDD8uaw9A9vZdQQ/yW0AL\r\n5wU/BIQnP5uPET6L/Yc+hXWBPm3m2z7z3VM/fbWpP//iSkBhkVU/aExIQCfowD8P26Q/VMSQP3LE\r\nN0FyZbdA8ScgQAaMn0DRMB5BsbMiQYOpEEH4yhNA777UP1J9gkBXWf4/R64tPwELSj+0vrI/gIp3\r\nP1BPCkDjnf4+NDdFP6DFxz6hSDZAedo+P0KElT52Sdg/e945P7E4tD8JVZA/0v9XQDzFQ0BPNx5A\r\nETQLQCiKsD8gMgVAjNoGQE/pkUDrQa8/PPBXP2y1cz+RvGc/ZHtOQNu89T8M4z0/4NloP3W81T4q\r\nCYo+CCcmP3QwGkCEusg/nWyPPioMpD7K8sA+ijFvPsJ8/j1W4eE9ZJeoPiplJkDH4to+/fxvPhqB\r\n+z1uTu498KcaPpKggD5BgxI+fgkIP62joz6JCws+cHyhPTIo8D2ckEI+eCNDPh2Itj0lsYY8nClL\r\nPQx3tz3gbQk9DE9jPE4iLj14QtE922oJPbuNBz1QpjI9CPfXPTdphD6pY5U9sHEBPWJsQj1tKIU9\r\nr+QJPcFt9Dy8P3o9GiR6PaP3jj5iihs9r4x1PdwqAj0h3kE9TODOPBoNizw62js9lCWPPaiFlzwE\r\n9K485LUTPZl6QD3n6qM9yucZPSj5Cj3kzTU98zQRPVkqBD0j3gI9FBhDPNob+jwyijE9G6DyPAwR\r\nXT22nNA8BLtEPOWIejyDSLY8QBQUPXh+Aj0D5pE9MFj2PPD/1Txn1lo9MjkSPWo1Ez2vK6082FKE\r\nPNNEizyg1ow8J8hEPJpDBD3C6TI9EKZ9PXrtxD3oeNc8WXclPekGvj10vIk95+L+PCDaUT1bZQo9\r\nXr21PDCBAT3JqYg99ogYPa33Bj2kJZ48/r8rPfYArTwlkpU8YLSDPGkEqDxwz1E8lNF6PLT6rzwm\r\nAws9bbaLPHyHJD0lXMg8jw8QPZK2ljwmzz88BIKbPJG/hDxRpAo9RH85PJr+pjxI42A87uZmPZIE\r\nwzwosFw80QcYPIzd2DuhdTU8fDG1PIfAwT3ULFw9QKhvPNe6ZzyZnss8hKyHPNowGzxLmiM8G3fs\r\nPL0rRjzRmTM8PBDKO20P0Tv0JCw89sRpPJVrVTwvaJo8ZaCdPAdZ7Dudecg76+ZYPJ/xFDzFRyw8\r\nV0x3PDuFDD3Bcus8ECgwPCORjDyPUOE7FBywO30KCzzrBIE857Q3PaX/Cj2beSg81lOFO6TpTjx9\r\nlD08bdPkOxSsCzxX3yU8FiGgO82jhDyLGYM8jU3UPJvr8zv3E488rDX8PNd/MDwpomQ80fEXPEyi\r\nwjzmKSo9bDaoPO760DyEIhw8ZeinO9aVwzuzfxU8eLQ7PCH5nDvyWjo8W7yTPC8s2Du6Vpc79rqD\r\nPKaOjjysVP48EQufPF4zjjujJUI8V9OHO1tYQTxFoIM8tsOCPIjNIDz6gVY8+qgCPKRUjzsqxRs8\r\nktoNPGA2rjw3Ia47V5EkPDe8yTvxPX486euHO5gbgjygJVo8EAqxOyYSgzybvDQ8nnGkO3OoMDzc\r\n0bU83EUuPPNXpzsNXmo71uWmO/82XTsSgGk7ykVeO5b0fDuViBw8yQQ5PPFOgzx6Uo47iwN+O3lO\r\n5jtiw/87vOLKO2XaEjumvA88OtXJPFSmqTzQacY8uTAlPMOYeTsATcw66+lCOwNGUDtUg8U6zf9N\r\nO6c4gTogNZw6EanWOkTGozp8fhU7w7lFOs7b8jmtWRw66n8OOhS4cznKkBU65s6XOd49vzkM1Mo5\r\n60e5OblIkjmk5KM5I1fFOfnKvznMVXU5adqKOQjimzmwO6o5Fp0kOWlGLzk/m4857HWGOUbgZznY\r\nCUU5WS6WOWVZSDkjZlE52iB5OZqTXTkouDo5gZqSOdBaXDnK8ls5oFBxORDVdzkG4Hk59HBjOfg5\r\nSDm4XWM54R10Oe6NWTm8FVs59h9qObFOTDkar1s56BhmOTwbXTk7oFg5Qk1SOfVERzmjhFU5RKRH\r\nOZeURjk0qUM55GFMOUoXRznU8Uk5cs9KOUiyPzndSU054qJAOcqASzlwzDo5EKBGOT44QzmjvjQ5\r\nqlJMOYpHNTlTnUQ5p+o5OQJVRjmIfU85Tpo7OZdtQzmlOUA5as8xOSpgPzma6T45SBI2OUamOjnO\r\nWDs5ERJCOQBnMjk6x0A53sA0OWakLjlQXDc5fqghOZotMTlYKy05L9IvOdZJITnoySM5uO41Oc3W\r\nHTnnkiQ57uwhOaS7LTm8Kys5R6Q5Obj1MTlTISk5SO4nOQ+BLjlyfS05Xn0fOfp/GTnMpxo5KzMU\r\nOZ4ZHTn8aSY5FNYcOX5FIjmu3SE5vrgVOT1LJzmu3xo5H6okOUmKFzntgBo50i0dOTBJETkc/SQ5\r\nxqYROVuxFTn8vBc5yuoeOXzOGDn4DCE51KUkOc9bGzmY+gU5BvoeOblFBzmIFg05A3EQORj0Dzmg\r\nCxA5FjQWOUGvEjnEzRQ5ZdINORrBDjlyexg5ybkLOXZiBTnIZwU5+gwGOXBYFDlCGBo5mlEMOYo3\r\nBDnYOgU59qkAOY4P9ThoRAo5RkH+OIYiEjmyVwc5bvYGOZFiBzlf1QE5sgAGOaq8DjkuNgI5sRD+\r\nOK9r+DgaDOk4YfHiOH7h+Ti3gQk5QpX7OLPH8DhDhug4EsPyOH7/9DioE/A4FDf/OAAK+jhyzes4\r\nJcTtOLqlAjnOx/k4Zn8COURm8DjXz+w4s0joOCdf7zgHt+44ZET7OJpK4zgbWgU5bOTkONCX7DgS\r\n8AQ5JkT6ODBO/zgwPvE4kgkAOfNU+DgMleg4fJT7OJ9N4TiA/+046iXoOJIu7jj7I+I4ADL4OFEV\r\n6Ti7zeg4FwjVOJ3n0DhTMfY4QsrQOPK20zhqgtw4F5bjOPsz+ThFI7s4JjjaODUi1zgKJNc4raq7\r\nOLSr2jgweuc49ULhOCAp4DgcFNE43nnEOI61zziPf9E4Et7kOM284Dh0YMw43j3cOD7u1jgItsg4\r\ntgnYOLJZwDjgFdE4lNLeOJep3zihC8s4tKnMOOFvyjhnDdI4kITbOIw9xDgoRsY4eBHMOMX3zzgJ\r\nj8Y47hvOOE0VujjjesA47CPWOAAe2jgP4MU47LLKONRbszgYWNk4iv7AOFiVsjjYpMY4ogDLOFy2\r\nvDiFwcs4QB3FOIxBxjg+Or04HOHHOPFRwzijKbs4KuW/ODzmwzgCLsM4s2G8OKN9tTjnJsA4wgax\r\nOAhYwTgXt8k4mqfGOJ4WvzjUIs44GlDCOIxXwTj6jcQ4dxXDOPDltzjzlaI4pDK/OBD6rzj4s7s4\r\n+jPEOD3Ltjg+sbc4ysK1OH9SsThaja04nnWyOAChujiuh8A4b+a4OKEZpjgyo7A4V2m5OIovljiX\r\nNKs4PoKzOBRMrDhNErQ4Aj2zOCmFtjhYPag4JkihOMOwtjh92a04dC2lOA0cqDiN0ac4TGKkOOPi\r\npDj4R604+O+yOGSCwDh4y5o4pnmuOPN6nzgKM5c4KEe0OC7kmzixJb04JYqsOE9Brji4tpc4Inyh\r\nOFE3rTikw6Y4suOoOPwtnjiSkaI4khupOCRanjg0X7A4bBagOKG0rTjUVaQ4tLmdOOrekzjqVas4\r\npmajOAGAnDhC8a84vaCPOAMBnjhI8qg4/42bONJ1mThgdKI4QCaqODTSrDgWmKo44GOcOCaXsThq\r\nsqA41nKYOAgyqDjCOqs4aSefOGO0ozjpLpE49iumOJ2Sljjor5g4ZcubOCkmrTgrApc4ARybOFRT\r\nkTggl6U4ZIeROPIhoDjXyJI44OKfOLwJkzg7h6Q4SW2UOLVrkjg2SZE4qyuiOHIjjDhTapc4CICp\r\nOBquozi7I4g4hfWYOIxsoTioRpA4WVSZOMYWnTjdTqA4oBiTOCRunDhim6Y4/pKEOGNllziZH504\r\n8MOLONeCnTgedok4LXaYOIZKhjhUwq04Rx+aONjDlDhEqI44vTSMONv+hTi4qYI4RNedOL1pjTi+\r\nOp048SqnOLYqojgPOKE4ljKSOILvgjh/nZc4yy2SOJe0jjgZO4k4/s6IOBjJnDinboM4W/OZOE3q\r\nijig75k4AEuTOL/rizhuzIE4/cByOEtGnDhf3pU4YsCMOPl8izhhQJY4P0iPODulozi8+IY4RY+C\r\nOCGviThar5E4IsyOOOuPiTiKwoo4WmeOOIctjjiXC4s4ibqDOKh6eDhaC4c4PfKJOA7XizhYm344\r\nHIWiOGwzgzjYdo04a1ekOMnxgziCTYs4AauFOIXcazghLow4IleTOKOpjzhRh4I4QNyGOIhDlDgz\r\nKI84/3SSOClpnTi4yI44dBqPOJN9mjgzfIc4FkyNOLRchTiO84s49ct8ONoQZzjbbY84RoV3OLOq\r\nhTi9N4M4PIaXOEHGmzgOfYw4ZjCKOEHeizgIL4s46RFyOCFwfTh2I2s4dfWJOAbjiTh7n4Q4buxy\r\nOO98gDgDFJA4xlWCOC1sgDhoXYk4TceLOJKjkDjAsYQ4nA+PONXIgTjiC404Yq54OHGDjDgUC3k4\r\nuZWAOGDphjhcAmU4/72LOD0lgjgK2Is4IgaIOMCIgjgTnns4f2eDOPe8bThkgH04dA2DOBQNdjje\r\nRoA4qxaHOP81hTgQyXE44GaGOJR6gTgHM4g4kBuJOLkjbTg3S3E4806HOCi/gDh2LYA4mv6LONwC\r\ndzjhZ4M4DK1fOM5hgThTlWA4hluGONazfzgDBHs4tS5jOMq0gThKu4w4hvR7OK62fjjEGIk4vi+N\r\nOI70gDjJ1YI4sqKPOEZgbDjg/Y04R+F0OKS2aDhlFJA4WAFqOP/XZDhxS444RVpsOA3XdDjy+HU4\r\nHdtqODRvZjhRJWA4CGuDONP0fjhD9Xg4DCpnOJI/gjgyUpA4q+5TOEEkYzgxjY04uSFhOP9YgTgm\r\n3WQ4Io1hOO9VeDi9woM4tqByODnxaDiYlnI4jcB/OOgAdjh+CXI4ZnJqOBtRXjjbyH04ZIeBOBJc\r\neDjr0n84w8qJODaggDgNunM4wrSCOIzXfDi6YoI4fQZiOK4aYTju5YE4BZVfOKiLXDhUY3g45N11\r\nOH9OajgFuGc41pl6OA5sZjiGP0k4rw9iOH/3dzgTG4k4n5JeOIlEaTjJeIU4rxWCOB0xZDhmMYE4\r\nm7aCOG2VczhKIl04RaVnOEDgdTgwiGw4n8SAOGjUdTgyAWA4kpqIOO1peTi5pnQ4tdF+OPV3jTjZ\r\nKGk4hzlkOFNyhTi6WXY43e94OLBEbjizQ2E4uIRqOE0VbTgZ2HU4G3J8OHnFZTgk0GY4RBKCODBr\r\niDhzjHc4lbN5OGojeTi034E4/Ex5ODuueziHQ4c4HQ53OKqzizixomw4ufWKOMi+eDif72w48/SB\r\nODxGcTjj0F04yoNoOMQWZji4q3w4UtdzOMeXgjjTx4Q4OkBrONP1dzj4nHA4ADKKOA==",
                            "noiseTrainingType" : "default"
                          }
                        }
                    ],
                    "start" : 15400,
                    "duration" : 813,
                    "mediaStart" : 756,
                    "mediaDuration" : 813,
                    "scalar" : 1,
                    "metadata" : {
                      "AutoAppliedSmartFocus" : "False",
                      "WinSubProjectDisplayName" : "",
                      "clipSpeedAttribute" : false
                    },
                    "animationTracks" : {

                    }
                  },
                  {
                    "id" : 125,
                    "_type" : "StitchedMedia",
                    "minMediaStart" : 0,
                    "attributes" : {
                      "ident" : "tower-05",
                      "gain" : 1.0,
                      "mixToMono" : false
                    },
                    "parameters" : {
                      "volume" : 1.0,
                      "cursorOpacity" : 1.0,
                      "cursorScale" : 1.0
                    },
                    "medias" : [
                        {
                          "id" : 126,
                          "_type" : "UnifiedMedia",
                          "video" : 
                              {
                                "id" : 127,
                                "_type" : "ScreenVMFile",
                                "src" : 5,
                                "trackNumber" : 0,
                                "attributes" : {
                                  "ident" : "Rec 02-04-20_007"
                                },
                                "parameters" : {
                                  "cursorScale" : {
                                    "type" : "double",
                                    "defaultValue" : 0.0,
                                    "interp" : "linr"
                                  },
                                  "cursorOpacity" : {
                                    "type" : "double",
                                    "defaultValue" : 0.0,
                                    "interp" : "linr"
                                  }
                                },
                                "effects" : [

                                ],
                                "start" : 0,
                                "duration" : 1383,
                                "mediaStart" : 0,
                                "mediaDuration" : 1383,
                                "scalar" : 1,
                                "animationTracks" : {

                                }
                              },
                          "audio" : 
                              {
                                "id" : 128,
                                "_type" : "AMFile",
                                "src" : 5,
                                "trackNumber" : 1,
                                "attributes" : {
                                  "ident" : "",
                                  "sampleRate" : 44100,
                                  "bitDepth" : 16,
                                  "gain" : 1.0,
                                  "mixToMono" : false
                                },
                                  "channelNumber" : "0,1",
                                "effects" : [

                                ],
                                "start" : 0,
                                "duration" : 1383,
                                "mediaStart" : 0,
                                "mediaDuration" : 1383,
                                "scalar" : 1,
                                "animationTracks" : {

                                }
                              }
,
                          "start" : 0,
                          "duration" : 1383,
                          "mediaStart" : 0,
                          "mediaDuration" : 15796,
                          "scalar" : 1,
                          "metadata" : {
                            "AutoAppliedSmartFocus" : "False",
                            "WinSubProjectDisplayName" : "",
                            "clipSpeedAttribute" : false
                          }
                        },
                        {
                          "id" : 129,
                          "_type" : "UnifiedMedia",
                          "video" : 
                              {
                                "id" : 130,
                                "_type" : "ScreenVMFile",
                                "src" : 5,
                                "trackNumber" : 0,
                                "attributes" : {
                                  "ident" : "Rec 02-04-20_007"
                                },
                                "parameters" : {
                                  "cursorScale" : {
                                    "type" : "double",
                                    "defaultValue" : 0.0,
                                    "interp" : "linr"
                                  },
                                  "cursorOpacity" : {
                                    "type" : "double",
                                    "defaultValue" : 0.0,
                                    "interp" : "linr"
                                  }
                                },
                                "effects" : [

                                ],
                                "start" : 1383,
                                "duration" : 14390,
                                "mediaStart" : 1406,
                                "mediaDuration" : 14390,
                                "scalar" : 1,
                                "animationTracks" : {

                                }
                              },
                          "audio" : 
                              {
                                "id" : 131,
                                "_type" : "AMFile",
                                "src" : 5,
                                "trackNumber" : 1,
                                "attributes" : {
                                  "ident" : "",
                                  "sampleRate" : 44100,
                                  "bitDepth" : 16,
                                  "gain" : 1.0,
                                  "mixToMono" : false
                                },
                                  "channelNumber" : "0,1",
                                "effects" : [

                                ],
                                "start" : 1383,
                                "duration" : 14390,
                                "mediaStart" : 1406,
                                "mediaDuration" : 14390,
                                "scalar" : 1,
                                "animationTracks" : {

                                }
                              }
,
                          "start" : 1383,
                          "duration" : 14390,
                          "mediaStart" : 0,
                          "mediaDuration" : 15796,
                          "scalar" : 1,
                          "metadata" : {
                            "AutoAppliedSmartFocus" : "False",
                            "WinSubProjectDisplayName" : "",
                            "clipSpeedAttribute" : false
                          }
                        }
                    ],
                    "effects" : [
                        {
                          "effectName" : "NoiseReduction",
                          "category" : "categoryAudioEffects",
                          "parameters" : {
                            "denoiserAmount" : 20.0,
                            "denoiserThreshold" : 0.0,
                            "noiseProfile" : "0DLBQIHdHEFkF58/DucDP0ozzT57KmtAgMC/QJeMVkBqXPY/DM/ZQMiezz4uXQw/LmsPQAr6XUGb\r\n61tADcoFP5xdJz9feBE+k96HPoV1gT5t5ts+891TP321qT//4kpAYZFVP/Y5SEBV+cA/y9mkP1TE\r\nkD/IwDdBlGu3QPEnIECKjZ9A9zQeQR6sIkGDqRBB+MoTQPG91D8HiIJAV1n+P6aiLT8BC0o/tL6y\r\nP4CKdz+TTwpAgu3+PkNWRT+gxcc+oUg2QHnaPj+xh5U+dknYPzLVOT+xOLQ/CVWQP9L/V0A8xUNA\r\nPD0eQBE0C0C2arA/IDIFQIzaBkBP6ZFAYESvPzzwVz9stXM/LdNnP2R7TkDbvPU/3LQ9P2b3aD9/\r\nmdU+KgmKPggnJj9cFxpA+r7IP2xSjz7uI6Q+OPvAPooxbz7i1P49VuHhPVCFqD7keyZAx+LaPlz+\r\nbz6Fdvs9U1juPU5/Gj4RaoA+nEsSPn4JCD++RKM+d6QKPnB8oT0yKPA9nJBCPngjQz6ubLY9ileG\r\nPPKgSj1Jxbc94G0JPQxPYzwmXi092efQPdtqCT27jQc9Ky4yPXjt1z3+Y4Q+qWOVPRtdAT1ibEI9\r\nbSiFPa/kCT29bPQ8t1R6PWIuej338o4+YoobPVYHdT3irwI9Id5BPVQizzyal4o8Oto7PZQljz3V\r\nVZc8BPSuPOS1Ez1OsUA95umjPcrnGT0o+Qo95M01PRHiED31CgU9I94CPbQJQzzaG/o8ONkxPUKJ\r\n8zwMEV09eMDQPBrVQjzliHo8g0i2PEAUFD0MYwI9A+aRPWZo9jznDdY8L6VbPTI5Ej1qNRM9D5qt\r\nPNhShDzTRIs8oNaMPNNNRDzbawQ9wukyPRCmfT167cQ96HjXPFl3JT3pBr49dLyJPefi/jwg2lE9\r\nW2UKPV69tTzDfAA979SIPfaIGD2t9wY9pCWePJvaKz0PsKs81p2VPJCygzwfY6g8aMFRPDbiejy0\r\niq88JgMLPW22izx8hyQ9JVzIPEIyED0kHZc8kANAPASCmzyRv4Q8UaQKPaDdOTya/qY8SONgPO7m\r\nZj2SBMM8St5bPMcEFzySSNo7oXU1PIkPtTyHwME91CxcPbHibzzXumc8mZ7LPISshzzP8xs82rQj\r\nPBt37Dy9K0Y82igzPCOeyjttD9E7ffAqPBVpajyVa1U8L2iaPGWgnTwHWew7nXnIO3F0WTyf8RQ8\r\ncJ4rPFdMdzys2Qw9uZnrPBAoMDwjkYw8ZSrhO/YQrTvamQo86wSBPOe0Nz2l/wo9m3koPNV4hTsy\r\nH088fZQ9PLqm5Du70Qw8V98lPJuToDvGLYU81seCPI1N1DxMYPM79xOPPKw1/DzXfzA8KaJkPNHx\r\nFzwUl8M85ikqPTntpzzko9A8hCIcPGXopzvWlcM7H2AVPHi0OzybEZ47v2A6PPGfkzwEStg7ulaX\r\nO9ozhDymjo48xoL+PBELnzy7Co07q9xBPFfThzsPfUE8RaCDPL6FgjyIzSA8+oFWPLHJAjykVI87\r\nKsUbPJLaDTxgNq48I8asO1eRJDw3iso7flx+PNXbiDv0r4E8oCVaPBAKsTue9oE8wyc0PCIKpTtz\r\nqDA83NG1PNxFLjyyaac7A/NoOy3vpjs2ul87YvhsO+SNXzu82Hw78QEcPMkEOTxIsoM8elKOO4sD\r\nfjuwZ+Y7Fkz/O5JKyztCihU7prwPPDrVyTx0Bao80GnGPLkwJTzykXg7AE3MOuvpQjuwUVA7VIPF\r\nOsqWTjskaoE6vVaZOj+m0DpDQJ86vAAXOxrIRjrO2/I5rVkcOjy2DjoUuHM5HikWOgDpmzk2qrg5\r\nDNTKOQuAwTlKYZA5RZqnOcC+vjl6IMI5trduOaJGkTnid6E5QBqnOWXiHTk5Q0I5GJ2SOReokDmO\r\nrVE5spNOOYKTcznOllU5MAVuOWJaXTnR5VU5SgdqOcFKizm96m059pCAOWJxbzk2i2g5duKBOeQ3\r\nQznIUHc5w6hdOXh0RTkpQXg52sxvOSZKdzlqc2Q52JF4OUQXXjnwr1A5pItXOeI4Pzn1C3E5WM1V\r\nOUJGNTn2vE85yJNLOZZxQjmEDlI5hVJROWh6RTms10M5uQ88ObaQPTkQxUw5XUc2OedjPznSh0k5\r\n+jsyOdz8RDlbkS85BqlKOcVYQDnqsko5sm5DOeajPDlcFzc5MME0Ob87Lznq5Tg5nu43OY6rODmo\r\nKzk5HGw4OVduRTkqpDU5g8ssOY0ELTnQrDg5iNQzObkKJTlGsi05NnwuOaIULTn83zI5T3YkOTIj\r\nMTlKuyI5NOIeOYqlHDmukjU5Xs8kOaCrNDk7jDI5q8AoObeyLDnq/yY53uMlOUm3HDm0wR45ki8b\r\nOdfnFjkorCE5xLUeOZwEJDlw8CE5DNMhORyQFTnach05/zwgOfPAFDnqFho5guUjOVjtHjlo1Q05\r\nWjgaOWIAFDnmZgo5QxMSOYPdJDmTFRY5tH8WOWYODzl8Hg85Tw0ROU4qEjl+ShA5COIHOSWGCTmV\r\nBRM5JNMUOUSVCTkFiQ45Cs4OOYIeCznAxQk5JI0POa5CDzlWqw45JesQOQxZCDm89xw59qMSOfIK\r\nDDnLmgc5N33+OKKnCTkevvo4Sf8GOYQpDDmV2ws5NKgKOe7XBTk8ogg5n0kFOS55BDnY2wk5D0IE\r\nOSNFATnVZgU5fCf+OGi+9jiYhQQ5IzEBOdCV9jiuDQY5Eq/pOE6W8jhG3uk4WiP+OMD8BjmAgPE4\r\ncTHqOOTE9TjRUvA4KEj5OGp+Ajl8XOQ4WyPnOP5b+DgiSfE4OFzrOF1rATmsceI4O9YDObiw9ThT\r\nhfU4s1DzOGcR/Timm+o4rIj/OOH/9jinhPA44urWOGrn9jiWSfI4NuL3OIIPzji1Les4sB7dOKxP\r\n+ThAE+o4QJjdOERe8Tiwe8U42mTmOGIJ1TjJDt84UEXhOLyD2zjEfu04dezVOK033DgOZcQ4jyTb\r\nOIq+4jgC/tw4zmLjODrj1jhCyNc4A+fKOFyBzjgEBdU49TfcOFdG4DhqGMM4HFvQOG6UzTh4I9I4\r\nARbWOMaOzTiMYsA4ltfjOPeswjiGCNs4GgHeOJ5pzThMAs44k6fVOCASwzhJnMY4TAzSOJJY1TjG\r\nLdY4ykrWODJBwTin0ME4l5i7OBnWuDjgOb444d3FOEKqzDg+Vso4rAbOOM7Xyjg82rk4hLvHOEpz\r\nwDh8PMM4jRzIOBR0xThVMsE4Qtq/OA6HuTg0qs44ryi6OCLexziHKcM4nKDJOMFtuTjYVbY4rX3H\r\nOOb0wTg82sg4uu3FOII0wDg1eLw40XHAONnQxzimObg45yDBOJs1zTiVO7g4rPKzOK4GwjhaZb04\r\nO/y9OI5CwjgcKLE4mSfFOGe2pzjogb44gNC1OCb1tDiVq6848HW8OJmhvzg4Hrs406OmOIQDqTjl\r\nrZo4gvalOM66qDhr47M4+UG8OAXXsjjCSsI4VgqpOGVuoTh8ksk4HBeuOI4fszh0AKw4jTGxOEEl\r\npThziKw4Hn+iOLvBrjgPkrs40jqnOMNOrzhQI6I4FniVOOgcsDj0Apw4lq+vOIgArzgaZbM4HLOi\r\nOFcYpDjGmqc4CMKiOPHJmziPnKA44IWmOCqJnDh6z604uWauOGHYsTiGs5c4CGSVOMYEnTh+Pak4\r\nGJKYOIeeoDiKbJs4EDueONWooziPJ6o4YdaqOOjPkDgRZZ446qSyOGAxmjgD9qE44dOeOJpqmDgk\r\npq44yQSoOPw0lzjCyak4pEmiOIF3qzgbJ5s4/BygOKtfpzgYtJ04aZWZOHxGmDi0VLI4PGaXOISm\r\niThAw5o4yGioOLCDjzhEXJ44mnyeOFC6pDhu6Js486ikOM/XmTiVppk4XmuaOBLClzjFmIY4wk+O\r\nOBgApDh1/aA4YlWfOHRwpTjmlJg4XrKMODoFizgy5KM4bvSfOAr9jThHIJ04mZWZOIXKZzhw0Is4\r\n0+KiOIIqijgwlZM4GlaCOGGapTj1L5E4NjqeOI5JjTgGr5k4VBmDOJuOjDjCrZk4ckmBOGfPlziT\r\nuZM4Rm2AOGcMqzgKt544ZmyNOOLNkDg5DI44/paNOLm5jjh7eJE4jYyOOE0giTg40aQ4B3aIOMjE\r\nmDhNDYM4PGSGODkomDiW1Jo4CH2GOFL9kDht7oQ442uMOGtAjDi5Uow4ArOfOJGCiTh4C54485qI\r\nOCcPbDhnK5Y4HzqUOEiziTgqAoY48VeNOKmBjTiAcZI4fguHONQPjjiC2IU40PuNOEJfijhFKGw4\r\nHKyCOD7jkzgREYM4PC6GODFVizj2NIQ4ni2HOAxEiDh+UIA41i98OBK/gDjyjpI4EweJOOCEgzj+\r\nopQ4YHaPONCKmDhoKJo4Fn9yOHbgmTg6r5A44i2HOFcejji/o4o46nKVOH7Xjzhxu344/JWEOE1c\r\neThqs4o4nv+GODmFmzj9v5E4CU2WOAGEezizgog44S+UOJbNhzjCNHs4AFV/OPHehDiaUHM4iPyR\r\nOKRrbjhFU4w4I3GYOCHrjTho2ZE4PwOPOD5ZiDiDfI44qqKPOL2iizgseIk4HkCLOIUufDi9T4c4\r\n/35sOLcUkzh8+Ig40hRhONTpijj3uGw4C0SQOEJBgziJrYM4ubNvOG3WhThmP484dUh6OAAoeTg5\r\nIno42J6IOPgLgzh/OYc4fyllOKXjhjhsxFU4wcKROPv0ijhLy3U4dc9/OH5DaDgmfYk4RXmCOM8V\r\ndzhAJHw4m6eBOF0Rbzg2AH84T1h8OJMfczinC5A4AlaMOOLfRjiDMoQ4X4+CODh5hjhIw484eA6B\r\nOA1CkDiu1Y049r2NOLfUfjiIMoA4KGeNOJLFaDgZ0mc4FJ6AODT4VThtQ1c4EJaJOKAobziEUYU4\r\nTDh7OH5ocDiYKmA4SupvOKJuczg0kow4/997OBccbjh5KXg4odyJOF/ZbDjE6Xo4MaR2OFP4aDh9\r\n3II4DglgOIhHYTgG31845X9/ODqzXjjgGm04Hsp0OONMeThtroU4NfZ1ONTTdTj0Elk4fYeCOGfb\r\ngDht7m44ha9zOOYXgDi/nYE4JGWAOJRMcTijSYk4fhqNODcWYzjOfXI4bhxrONa7eTgcP184Xit9\r\nOHXEbTg1PFo43jNlONpLZjiCA4U4m2FYOB0WfDguqWQ4yZ6KOAonfDjI3Wc4NNhiOADlhjgc7l84\r\n2cuAONqyazisAYA4DGJ7OFk2fjgj/Ws4CzWBODZiczgdGoY4GtxROIXWhDh4omU4XY9sOPGZhjje\r\nsXE4zsp4ODWfdTg8d3Q4pPJvOPVjhTir2XE4ifR5OMfOaTgtB1w4Rk+FOEi8bDgwgXI4iCyAOA2g\r\nfTgfKGU4QHdjOOHOgDhaAYc4pu6EOBWadzjmnWk4SkyDOBxjfzhHe3M4M4xpOAQ/hzi7bWQ4Uqxv\r\nOIUkgzhRFoA424VdOFN8dDim0lM4FHp4OKQzgjiF5mg4LBRzOFLEgjiF2Fs4wU2EOIAAgTjQMsFA\r\ngd0cQWQXnz8O5wM/TCzNPnsqa0CAwL9Al4xWQI5T9j8Mz9lAyJ7PPi5dDD8uaw9A9vZdQQ/yW0AL\r\n5wU/BIQnP5uPET6L/Yc+hXWBPm3m2z7z3VM/fbWpP//iSkBhkVU/aExIQCfowD8P26Q/VMSQP3LE\r\nN0FyZbdA8ScgQAaMn0DRMB5BsbMiQYOpEEH4yhNA777UP1J9gkBXWf4/R64tPwELSj+0vrI/gIp3\r\nP1BPCkDjnf4+NDdFP6DFxz6hSDZAedo+P0KElT52Sdg/e945P7E4tD8JVZA/0v9XQDzFQ0BPNx5A\r\nETQLQCiKsD8gMgVAjNoGQE/pkUDrQa8/PPBXP2y1cz+RvGc/ZHtOQNu89T8M4z0/4NloP3W81T4q\r\nCYo+CCcmP3QwGkCEusg/nWyPPioMpD7K8sA+ijFvPsJ8/j1W4eE9ZJeoPiplJkDH4to+/fxvPhqB\r\n+z1uTu498KcaPpKggD5BgxI+fgkIP62joz6JCws+cHyhPTIo8D2ckEI+eCNDPh2Itj0lsYY8nClL\r\nPQx3tz3gbQk9DE9jPE4iLj14QtE922oJPbuNBz1QpjI9CPfXPTdphD6pY5U9sHEBPWJsQj1tKIU9\r\nr+QJPcFt9Dy8P3o9GiR6PaP3jj5iihs9r4x1PdwqAj0h3kE9TODOPBoNizw62js9lCWPPaiFlzwE\r\n9K485LUTPZl6QD3n6qM9yucZPSj5Cj3kzTU98zQRPVkqBD0j3gI9FBhDPNob+jwyijE9G6DyPAwR\r\nXT22nNA8BLtEPOWIejyDSLY8QBQUPXh+Aj0D5pE9MFj2PPD/1Txn1lo9MjkSPWo1Ez2vK6082FKE\r\nPNNEizyg1ow8J8hEPJpDBD3C6TI9EKZ9PXrtxD3oeNc8WXclPekGvj10vIk95+L+PCDaUT1bZQo9\r\nXr21PDCBAT3JqYg99ogYPa33Bj2kJZ48/r8rPfYArTwlkpU8YLSDPGkEqDxwz1E8lNF6PLT6rzwm\r\nAws9bbaLPHyHJD0lXMg8jw8QPZK2ljwmzz88BIKbPJG/hDxRpAo9RH85PJr+pjxI42A87uZmPZIE\r\nwzwosFw80QcYPIzd2DuhdTU8fDG1PIfAwT3ULFw9QKhvPNe6ZzyZnss8hKyHPNowGzxLmiM8G3fs\r\nPL0rRjzRmTM8PBDKO20P0Tv0JCw89sRpPJVrVTwvaJo8ZaCdPAdZ7Dudecg76+ZYPJ/xFDzFRyw8\r\nV0x3PDuFDD3Bcus8ECgwPCORjDyPUOE7FBywO30KCzzrBIE857Q3PaX/Cj2beSg81lOFO6TpTjx9\r\nlD08bdPkOxSsCzxX3yU8FiGgO82jhDyLGYM8jU3UPJvr8zv3E488rDX8PNd/MDwpomQ80fEXPEyi\r\nwjzmKSo9bDaoPO760DyEIhw8ZeinO9aVwzuzfxU8eLQ7PCH5nDvyWjo8W7yTPC8s2Du6Vpc79rqD\r\nPKaOjjysVP48EQufPF4zjjujJUI8V9OHO1tYQTxFoIM8tsOCPIjNIDz6gVY8+qgCPKRUjzsqxRs8\r\nktoNPGA2rjw3Ia47V5EkPDe8yTvxPX486euHO5gbgjygJVo8EAqxOyYSgzybvDQ8nnGkO3OoMDzc\r\n0bU83EUuPPNXpzsNXmo71uWmO/82XTsSgGk7ykVeO5b0fDuViBw8yQQ5PPFOgzx6Uo47iwN+O3lO\r\n5jtiw/87vOLKO2XaEjumvA88OtXJPFSmqTzQacY8uTAlPMOYeTsATcw66+lCOwNGUDtUg8U6zf9N\r\nO6c4gTogNZw6EanWOkTGozp8fhU7w7lFOs7b8jmtWRw66n8OOhS4cznKkBU65s6XOd49vzkM1Mo5\r\n60e5OblIkjmk5KM5I1fFOfnKvznMVXU5adqKOQjimzmwO6o5Fp0kOWlGLzk/m4857HWGOUbgZznY\r\nCUU5WS6WOWVZSDkjZlE52iB5OZqTXTkouDo5gZqSOdBaXDnK8ls5oFBxORDVdzkG4Hk59HBjOfg5\r\nSDm4XWM54R10Oe6NWTm8FVs59h9qObFOTDkar1s56BhmOTwbXTk7oFg5Qk1SOfVERzmjhFU5RKRH\r\nOZeURjk0qUM55GFMOUoXRznU8Uk5cs9KOUiyPzndSU054qJAOcqASzlwzDo5EKBGOT44QzmjvjQ5\r\nqlJMOYpHNTlTnUQ5p+o5OQJVRjmIfU85Tpo7OZdtQzmlOUA5as8xOSpgPzma6T45SBI2OUamOjnO\r\nWDs5ERJCOQBnMjk6x0A53sA0OWakLjlQXDc5fqghOZotMTlYKy05L9IvOdZJITnoySM5uO41Oc3W\r\nHTnnkiQ57uwhOaS7LTm8Kys5R6Q5Obj1MTlTISk5SO4nOQ+BLjlyfS05Xn0fOfp/GTnMpxo5KzMU\r\nOZ4ZHTn8aSY5FNYcOX5FIjmu3SE5vrgVOT1LJzmu3xo5H6okOUmKFzntgBo50i0dOTBJETkc/SQ5\r\nxqYROVuxFTn8vBc5yuoeOXzOGDn4DCE51KUkOc9bGzmY+gU5BvoeOblFBzmIFg05A3EQORj0Dzmg\r\nCxA5FjQWOUGvEjnEzRQ5ZdINORrBDjlyexg5ybkLOXZiBTnIZwU5+gwGOXBYFDlCGBo5mlEMOYo3\r\nBDnYOgU59qkAOY4P9ThoRAo5RkH+OIYiEjmyVwc5bvYGOZFiBzlf1QE5sgAGOaq8DjkuNgI5sRD+\r\nOK9r+DgaDOk4YfHiOH7h+Ti3gQk5QpX7OLPH8DhDhug4EsPyOH7/9DioE/A4FDf/OAAK+jhyzes4\r\nJcTtOLqlAjnOx/k4Zn8COURm8DjXz+w4s0joOCdf7zgHt+44ZET7OJpK4zgbWgU5bOTkONCX7DgS\r\n8AQ5JkT6ODBO/zgwPvE4kgkAOfNU+DgMleg4fJT7OJ9N4TiA/+046iXoOJIu7jj7I+I4ADL4OFEV\r\n6Ti7zeg4FwjVOJ3n0DhTMfY4QsrQOPK20zhqgtw4F5bjOPsz+ThFI7s4JjjaODUi1zgKJNc4raq7\r\nOLSr2jgweuc49ULhOCAp4DgcFNE43nnEOI61zziPf9E4Et7kOM284Dh0YMw43j3cOD7u1jgItsg4\r\ntgnYOLJZwDjgFdE4lNLeOJep3zihC8s4tKnMOOFvyjhnDdI4kITbOIw9xDgoRsY4eBHMOMX3zzgJ\r\nj8Y47hvOOE0VujjjesA47CPWOAAe2jgP4MU47LLKONRbszgYWNk4iv7AOFiVsjjYpMY4ogDLOFy2\r\nvDiFwcs4QB3FOIxBxjg+Or04HOHHOPFRwzijKbs4KuW/ODzmwzgCLsM4s2G8OKN9tTjnJsA4wgax\r\nOAhYwTgXt8k4mqfGOJ4WvzjUIs44GlDCOIxXwTj6jcQ4dxXDOPDltzjzlaI4pDK/OBD6rzj4s7s4\r\n+jPEOD3Ltjg+sbc4ysK1OH9SsThaja04nnWyOAChujiuh8A4b+a4OKEZpjgyo7A4V2m5OIovljiX\r\nNKs4PoKzOBRMrDhNErQ4Aj2zOCmFtjhYPag4JkihOMOwtjh92a04dC2lOA0cqDiN0ac4TGKkOOPi\r\npDj4R604+O+yOGSCwDh4y5o4pnmuOPN6nzgKM5c4KEe0OC7kmzixJb04JYqsOE9Brji4tpc4Inyh\r\nOFE3rTikw6Y4suOoOPwtnjiSkaI4khupOCRanjg0X7A4bBagOKG0rTjUVaQ4tLmdOOrekzjqVas4\r\npmajOAGAnDhC8a84vaCPOAMBnjhI8qg4/42bONJ1mThgdKI4QCaqODTSrDgWmKo44GOcOCaXsThq\r\nsqA41nKYOAgyqDjCOqs4aSefOGO0ozjpLpE49iumOJ2Sljjor5g4ZcubOCkmrTgrApc4ARybOFRT\r\nkTggl6U4ZIeROPIhoDjXyJI44OKfOLwJkzg7h6Q4SW2UOLVrkjg2SZE4qyuiOHIjjDhTapc4CICp\r\nOBquozi7I4g4hfWYOIxsoTioRpA4WVSZOMYWnTjdTqA4oBiTOCRunDhim6Y4/pKEOGNllziZH504\r\n8MOLONeCnTgedok4LXaYOIZKhjhUwq04Rx+aONjDlDhEqI44vTSMONv+hTi4qYI4RNedOL1pjTi+\r\nOp048SqnOLYqojgPOKE4ljKSOILvgjh/nZc4yy2SOJe0jjgZO4k4/s6IOBjJnDinboM4W/OZOE3q\r\nijig75k4AEuTOL/rizhuzIE4/cByOEtGnDhf3pU4YsCMOPl8izhhQJY4P0iPODulozi8+IY4RY+C\r\nOCGviThar5E4IsyOOOuPiTiKwoo4WmeOOIctjjiXC4s4ibqDOKh6eDhaC4c4PfKJOA7XizhYm344\r\nHIWiOGwzgzjYdo04a1ekOMnxgziCTYs4AauFOIXcazghLow4IleTOKOpjzhRh4I4QNyGOIhDlDgz\r\nKI84/3SSOClpnTi4yI44dBqPOJN9mjgzfIc4FkyNOLRchTiO84s49ct8ONoQZzjbbY84RoV3OLOq\r\nhTi9N4M4PIaXOEHGmzgOfYw4ZjCKOEHeizgIL4s46RFyOCFwfTh2I2s4dfWJOAbjiTh7n4Q4buxy\r\nOO98gDgDFJA4xlWCOC1sgDhoXYk4TceLOJKjkDjAsYQ4nA+PONXIgTjiC404Yq54OHGDjDgUC3k4\r\nuZWAOGDphjhcAmU4/72LOD0lgjgK2Is4IgaIOMCIgjgTnns4f2eDOPe8bThkgH04dA2DOBQNdjje\r\nRoA4qxaHOP81hTgQyXE44GaGOJR6gTgHM4g4kBuJOLkjbTg3S3E4806HOCi/gDh2LYA4mv6LONwC\r\ndzjhZ4M4DK1fOM5hgThTlWA4hluGONazfzgDBHs4tS5jOMq0gThKu4w4hvR7OK62fjjEGIk4vi+N\r\nOI70gDjJ1YI4sqKPOEZgbDjg/Y04R+F0OKS2aDhlFJA4WAFqOP/XZDhxS444RVpsOA3XdDjy+HU4\r\nHdtqODRvZjhRJWA4CGuDONP0fjhD9Xg4DCpnOJI/gjgyUpA4q+5TOEEkYzgxjY04uSFhOP9YgTgm\r\n3WQ4Io1hOO9VeDi9woM4tqByODnxaDiYlnI4jcB/OOgAdjh+CXI4ZnJqOBtRXjjbyH04ZIeBOBJc\r\neDjr0n84w8qJODaggDgNunM4wrSCOIzXfDi6YoI4fQZiOK4aYTju5YE4BZVfOKiLXDhUY3g45N11\r\nOH9OajgFuGc41pl6OA5sZjiGP0k4rw9iOH/3dzgTG4k4n5JeOIlEaTjJeIU4rxWCOB0xZDhmMYE4\r\nm7aCOG2VczhKIl04RaVnOEDgdTgwiGw4n8SAOGjUdTgyAWA4kpqIOO1peTi5pnQ4tdF+OPV3jTjZ\r\nKGk4hzlkOFNyhTi6WXY43e94OLBEbjizQ2E4uIRqOE0VbTgZ2HU4G3J8OHnFZTgk0GY4RBKCODBr\r\niDhzjHc4lbN5OGojeTi034E4/Ex5ODuueziHQ4c4HQ53OKqzizixomw4ufWKOMi+eDif72w48/SB\r\nODxGcTjj0F04yoNoOMQWZji4q3w4UtdzOMeXgjjTx4Q4OkBrONP1dzj4nHA4ADKKOA==",
                            "noiseTrainingType" : "default"
                          }
                        }
                    ],
                    "start" : 16213,
                    "duration" : 297,
                    "mediaStart" : 2015,
                    "mediaDuration" : 297,
                    "scalar" : 1,
                    "metadata" : {
                      "AutoAppliedSmartFocus" : "False",
                      "WinSubProjectDisplayName" : "",
                      "clipSpeedAttribute" : false
                    },
                    "animationTracks" : {

                    }
                  },
                  {
                    "id" : 132,
                    "_type" : "StitchedMedia",
                    "minMediaStart" : 0,
                    "attributes" : {
                      "ident" : "tower-05",
                      "gain" : 1.0,
                      "mixToMono" : false
                    },
                    "parameters" : {
                      "volume" : 1.0,
                      "cursorOpacity" : 1.0,
                      "cursorScale" : 1.0
                    },
                    "medias" : [
                        {
                          "id" : 133,
                          "_type" : "UnifiedMedia",
                          "video" : 
                              {
                                "id" : 134,
                                "_type" : "ScreenVMFile",
                                "src" : 5,
                                "trackNumber" : 0,
                                "attributes" : {
                                  "ident" : "Rec 02-04-20_007"
                                },
                                "parameters" : {
                                  "cursorScale" : {
                                    "type" : "double",
                                    "defaultValue" : 0.0,
                                    "interp" : "linr"
                                  },
                                  "cursorOpacity" : {
                                    "type" : "double",
                                    "defaultValue" : 0.0,
                                    "interp" : "linr"
                                  }
                                },
                                "effects" : [

                                ],
                                "start" : 0,
                                "duration" : 1383,
                                "mediaStart" : 0,
                                "mediaDuration" : 1383,
                                "scalar" : 1,
                                "animationTracks" : {

                                }
                              },
                          "audio" : 
                              {
                                "id" : 135,
                                "_type" : "AMFile",
                                "src" : 5,
                                "trackNumber" : 1,
                                "attributes" : {
                                  "ident" : "",
                                  "sampleRate" : 44100,
                                  "bitDepth" : 16,
                                  "gain" : 1.0,
                                  "mixToMono" : false
                                },
                                  "channelNumber" : "0,1",
                                "effects" : [

                                ],
                                "start" : 0,
                                "duration" : 1383,
                                "mediaStart" : 0,
                                "mediaDuration" : 1383,
                                "scalar" : 1,
                                "animationTracks" : {

                                }
                              }
,
                          "start" : 0,
                          "duration" : 1383,
                          "mediaStart" : 0,
                          "mediaDuration" : 15796,
                          "scalar" : 1,
                          "metadata" : {
                            "AutoAppliedSmartFocus" : "False",
                            "WinSubProjectDisplayName" : "",
                            "clipSpeedAttribute" : false
                          }
                        },
                        {
                          "id" : 136,
                          "_type" : "UnifiedMedia",
                          "video" : 
                              {
                                "id" : 137,
                                "_type" : "ScreenVMFile",
                                "src" : 5,
                                "trackNumber" : 0,
                                "attributes" : {
                                  "ident" : "Rec 02-04-20_007"
                                },
                                "parameters" : {
                                  "cursorScale" : {
                                    "type" : "double",
                                    "defaultValue" : 0.0,
                                    "interp" : "linr"
                                  },
                                  "cursorOpacity" : {
                                    "type" : "double",
                                    "defaultValue" : 0.0,
                                    "interp" : "linr"
                                  }
                                },
                                "effects" : [

                                ],
                                "start" : 1383,
                                "duration" : 14390,
                                "mediaStart" : 1406,
                                "mediaDuration" : 14390,
                                "scalar" : 1,
                                "animationTracks" : {

                                }
                              },
                          "audio" : 
                              {
                                "id" : 138,
                                "_type" : "AMFile",
                                "src" : 5,
                                "trackNumber" : 1,
                                "attributes" : {
                                  "ident" : "",
                                  "sampleRate" : 44100,
                                  "bitDepth" : 16,
                                  "gain" : 1.0,
                                  "mixToMono" : false
                                },
                                  "channelNumber" : "0,1",
                                "effects" : [

                                ],
                                "start" : 1383,
                                "duration" : 14390,
                                "mediaStart" : 1406,
                                "mediaDuration" : 14390,
                                "scalar" : 1,
                                "animationTracks" : {

                                }
                              }
,
                          "start" : 1383,
                          "duration" : 14390,
                          "mediaStart" : 0,
                          "mediaDuration" : 15796,
                          "scalar" : 1,
                          "metadata" : {
                            "AutoAppliedSmartFocus" : "False",
                            "WinSubProjectDisplayName" : "",
                            "clipSpeedAttribute" : false
                          }
                        }
                    ],
                    "effects" : [
                        {
                          "effectName" : "NoiseReduction",
                          "category" : "categoryAudioEffects",
                          "parameters" : {
                            "denoiserAmount" : 20.0,
                            "denoiserThreshold" : 0.0,
                            "noiseProfile" : "0DLBQIHdHEFkF58/DucDP0ozzT57KmtAgMC/QJeMVkBqXPY/DM/ZQMiezz4uXQw/LmsPQAr6XUGb\r\n61tADcoFP5xdJz9feBE+k96HPoV1gT5t5ts+891TP321qT//4kpAYZFVP/Y5SEBV+cA/y9mkP1TE\r\nkD/IwDdBlGu3QPEnIECKjZ9A9zQeQR6sIkGDqRBB+MoTQPG91D8HiIJAV1n+P6aiLT8BC0o/tL6y\r\nP4CKdz+TTwpAgu3+PkNWRT+gxcc+oUg2QHnaPj+xh5U+dknYPzLVOT+xOLQ/CVWQP9L/V0A8xUNA\r\nPD0eQBE0C0C2arA/IDIFQIzaBkBP6ZFAYESvPzzwVz9stXM/LdNnP2R7TkDbvPU/3LQ9P2b3aD9/\r\nmdU+KgmKPggnJj9cFxpA+r7IP2xSjz7uI6Q+OPvAPooxbz7i1P49VuHhPVCFqD7keyZAx+LaPlz+\r\nbz6Fdvs9U1juPU5/Gj4RaoA+nEsSPn4JCD++RKM+d6QKPnB8oT0yKPA9nJBCPngjQz6ubLY9ileG\r\nPPKgSj1Jxbc94G0JPQxPYzwmXi092efQPdtqCT27jQc9Ky4yPXjt1z3+Y4Q+qWOVPRtdAT1ibEI9\r\nbSiFPa/kCT29bPQ8t1R6PWIuej338o4+YoobPVYHdT3irwI9Id5BPVQizzyal4o8Oto7PZQljz3V\r\nVZc8BPSuPOS1Ez1OsUA95umjPcrnGT0o+Qo95M01PRHiED31CgU9I94CPbQJQzzaG/o8ONkxPUKJ\r\n8zwMEV09eMDQPBrVQjzliHo8g0i2PEAUFD0MYwI9A+aRPWZo9jznDdY8L6VbPTI5Ej1qNRM9D5qt\r\nPNhShDzTRIs8oNaMPNNNRDzbawQ9wukyPRCmfT167cQ96HjXPFl3JT3pBr49dLyJPefi/jwg2lE9\r\nW2UKPV69tTzDfAA979SIPfaIGD2t9wY9pCWePJvaKz0PsKs81p2VPJCygzwfY6g8aMFRPDbiejy0\r\niq88JgMLPW22izx8hyQ9JVzIPEIyED0kHZc8kANAPASCmzyRv4Q8UaQKPaDdOTya/qY8SONgPO7m\r\nZj2SBMM8St5bPMcEFzySSNo7oXU1PIkPtTyHwME91CxcPbHibzzXumc8mZ7LPISshzzP8xs82rQj\r\nPBt37Dy9K0Y82igzPCOeyjttD9E7ffAqPBVpajyVa1U8L2iaPGWgnTwHWew7nXnIO3F0WTyf8RQ8\r\ncJ4rPFdMdzys2Qw9uZnrPBAoMDwjkYw8ZSrhO/YQrTvamQo86wSBPOe0Nz2l/wo9m3koPNV4hTsy\r\nH088fZQ9PLqm5Du70Qw8V98lPJuToDvGLYU81seCPI1N1DxMYPM79xOPPKw1/DzXfzA8KaJkPNHx\r\nFzwUl8M85ikqPTntpzzko9A8hCIcPGXopzvWlcM7H2AVPHi0OzybEZ47v2A6PPGfkzwEStg7ulaX\r\nO9ozhDymjo48xoL+PBELnzy7Co07q9xBPFfThzsPfUE8RaCDPL6FgjyIzSA8+oFWPLHJAjykVI87\r\nKsUbPJLaDTxgNq48I8asO1eRJDw3iso7flx+PNXbiDv0r4E8oCVaPBAKsTue9oE8wyc0PCIKpTtz\r\nqDA83NG1PNxFLjyyaac7A/NoOy3vpjs2ul87YvhsO+SNXzu82Hw78QEcPMkEOTxIsoM8elKOO4sD\r\nfjuwZ+Y7Fkz/O5JKyztCihU7prwPPDrVyTx0Bao80GnGPLkwJTzykXg7AE3MOuvpQjuwUVA7VIPF\r\nOsqWTjskaoE6vVaZOj+m0DpDQJ86vAAXOxrIRjrO2/I5rVkcOjy2DjoUuHM5HikWOgDpmzk2qrg5\r\nDNTKOQuAwTlKYZA5RZqnOcC+vjl6IMI5trduOaJGkTnid6E5QBqnOWXiHTk5Q0I5GJ2SOReokDmO\r\nrVE5spNOOYKTcznOllU5MAVuOWJaXTnR5VU5SgdqOcFKizm96m059pCAOWJxbzk2i2g5duKBOeQ3\r\nQznIUHc5w6hdOXh0RTkpQXg52sxvOSZKdzlqc2Q52JF4OUQXXjnwr1A5pItXOeI4Pzn1C3E5WM1V\r\nOUJGNTn2vE85yJNLOZZxQjmEDlI5hVJROWh6RTms10M5uQ88ObaQPTkQxUw5XUc2OedjPznSh0k5\r\n+jsyOdz8RDlbkS85BqlKOcVYQDnqsko5sm5DOeajPDlcFzc5MME0Ob87Lznq5Tg5nu43OY6rODmo\r\nKzk5HGw4OVduRTkqpDU5g8ssOY0ELTnQrDg5iNQzObkKJTlGsi05NnwuOaIULTn83zI5T3YkOTIj\r\nMTlKuyI5NOIeOYqlHDmukjU5Xs8kOaCrNDk7jDI5q8AoObeyLDnq/yY53uMlOUm3HDm0wR45ki8b\r\nOdfnFjkorCE5xLUeOZwEJDlw8CE5DNMhORyQFTnach05/zwgOfPAFDnqFho5guUjOVjtHjlo1Q05\r\nWjgaOWIAFDnmZgo5QxMSOYPdJDmTFRY5tH8WOWYODzl8Hg85Tw0ROU4qEjl+ShA5COIHOSWGCTmV\r\nBRM5JNMUOUSVCTkFiQ45Cs4OOYIeCznAxQk5JI0POa5CDzlWqw45JesQOQxZCDm89xw59qMSOfIK\r\nDDnLmgc5N33+OKKnCTkevvo4Sf8GOYQpDDmV2ws5NKgKOe7XBTk8ogg5n0kFOS55BDnY2wk5D0IE\r\nOSNFATnVZgU5fCf+OGi+9jiYhQQ5IzEBOdCV9jiuDQY5Eq/pOE6W8jhG3uk4WiP+OMD8BjmAgPE4\r\ncTHqOOTE9TjRUvA4KEj5OGp+Ajl8XOQ4WyPnOP5b+DgiSfE4OFzrOF1rATmsceI4O9YDObiw9ThT\r\nhfU4s1DzOGcR/Timm+o4rIj/OOH/9jinhPA44urWOGrn9jiWSfI4NuL3OIIPzji1Les4sB7dOKxP\r\n+ThAE+o4QJjdOERe8Tiwe8U42mTmOGIJ1TjJDt84UEXhOLyD2zjEfu04dezVOK033DgOZcQ4jyTb\r\nOIq+4jgC/tw4zmLjODrj1jhCyNc4A+fKOFyBzjgEBdU49TfcOFdG4DhqGMM4HFvQOG6UzTh4I9I4\r\nARbWOMaOzTiMYsA4ltfjOPeswjiGCNs4GgHeOJ5pzThMAs44k6fVOCASwzhJnMY4TAzSOJJY1TjG\r\nLdY4ykrWODJBwTin0ME4l5i7OBnWuDjgOb444d3FOEKqzDg+Vso4rAbOOM7Xyjg82rk4hLvHOEpz\r\nwDh8PMM4jRzIOBR0xThVMsE4Qtq/OA6HuTg0qs44ryi6OCLexziHKcM4nKDJOMFtuTjYVbY4rX3H\r\nOOb0wTg82sg4uu3FOII0wDg1eLw40XHAONnQxzimObg45yDBOJs1zTiVO7g4rPKzOK4GwjhaZb04\r\nO/y9OI5CwjgcKLE4mSfFOGe2pzjogb44gNC1OCb1tDiVq6848HW8OJmhvzg4Hrs406OmOIQDqTjl\r\nrZo4gvalOM66qDhr47M4+UG8OAXXsjjCSsI4VgqpOGVuoTh8ksk4HBeuOI4fszh0AKw4jTGxOEEl\r\npThziKw4Hn+iOLvBrjgPkrs40jqnOMNOrzhQI6I4FniVOOgcsDj0Apw4lq+vOIgArzgaZbM4HLOi\r\nOFcYpDjGmqc4CMKiOPHJmziPnKA44IWmOCqJnDh6z604uWauOGHYsTiGs5c4CGSVOMYEnTh+Pak4\r\nGJKYOIeeoDiKbJs4EDueONWooziPJ6o4YdaqOOjPkDgRZZ446qSyOGAxmjgD9qE44dOeOJpqmDgk\r\npq44yQSoOPw0lzjCyak4pEmiOIF3qzgbJ5s4/BygOKtfpzgYtJ04aZWZOHxGmDi0VLI4PGaXOISm\r\niThAw5o4yGioOLCDjzhEXJ44mnyeOFC6pDhu6Js486ikOM/XmTiVppk4XmuaOBLClzjFmIY4wk+O\r\nOBgApDh1/aA4YlWfOHRwpTjmlJg4XrKMODoFizgy5KM4bvSfOAr9jThHIJ04mZWZOIXKZzhw0Is4\r\n0+KiOIIqijgwlZM4GlaCOGGapTj1L5E4NjqeOI5JjTgGr5k4VBmDOJuOjDjCrZk4ckmBOGfPlziT\r\nuZM4Rm2AOGcMqzgKt544ZmyNOOLNkDg5DI44/paNOLm5jjh7eJE4jYyOOE0giTg40aQ4B3aIOMjE\r\nmDhNDYM4PGSGODkomDiW1Jo4CH2GOFL9kDht7oQ442uMOGtAjDi5Uow4ArOfOJGCiTh4C54485qI\r\nOCcPbDhnK5Y4HzqUOEiziTgqAoY48VeNOKmBjTiAcZI4fguHONQPjjiC2IU40PuNOEJfijhFKGw4\r\nHKyCOD7jkzgREYM4PC6GODFVizj2NIQ4ni2HOAxEiDh+UIA41i98OBK/gDjyjpI4EweJOOCEgzj+\r\nopQ4YHaPONCKmDhoKJo4Fn9yOHbgmTg6r5A44i2HOFcejji/o4o46nKVOH7Xjzhxu344/JWEOE1c\r\neThqs4o4nv+GODmFmzj9v5E4CU2WOAGEezizgog44S+UOJbNhzjCNHs4AFV/OPHehDiaUHM4iPyR\r\nOKRrbjhFU4w4I3GYOCHrjTho2ZE4PwOPOD5ZiDiDfI44qqKPOL2iizgseIk4HkCLOIUufDi9T4c4\r\n/35sOLcUkzh8+Ig40hRhONTpijj3uGw4C0SQOEJBgziJrYM4ubNvOG3WhThmP484dUh6OAAoeTg5\r\nIno42J6IOPgLgzh/OYc4fyllOKXjhjhsxFU4wcKROPv0ijhLy3U4dc9/OH5DaDgmfYk4RXmCOM8V\r\ndzhAJHw4m6eBOF0Rbzg2AH84T1h8OJMfczinC5A4AlaMOOLfRjiDMoQ4X4+CODh5hjhIw484eA6B\r\nOA1CkDiu1Y049r2NOLfUfjiIMoA4KGeNOJLFaDgZ0mc4FJ6AODT4VThtQ1c4EJaJOKAobziEUYU4\r\nTDh7OH5ocDiYKmA4SupvOKJuczg0kow4/997OBccbjh5KXg4odyJOF/ZbDjE6Xo4MaR2OFP4aDh9\r\n3II4DglgOIhHYTgG31845X9/ODqzXjjgGm04Hsp0OONMeThtroU4NfZ1ONTTdTj0Elk4fYeCOGfb\r\ngDht7m44ha9zOOYXgDi/nYE4JGWAOJRMcTijSYk4fhqNODcWYzjOfXI4bhxrONa7eTgcP184Xit9\r\nOHXEbTg1PFo43jNlONpLZjiCA4U4m2FYOB0WfDguqWQ4yZ6KOAonfDjI3Wc4NNhiOADlhjgc7l84\r\n2cuAONqyazisAYA4DGJ7OFk2fjgj/Ws4CzWBODZiczgdGoY4GtxROIXWhDh4omU4XY9sOPGZhjje\r\nsXE4zsp4ODWfdTg8d3Q4pPJvOPVjhTir2XE4ifR5OMfOaTgtB1w4Rk+FOEi8bDgwgXI4iCyAOA2g\r\nfTgfKGU4QHdjOOHOgDhaAYc4pu6EOBWadzjmnWk4SkyDOBxjfzhHe3M4M4xpOAQ/hzi7bWQ4Uqxv\r\nOIUkgzhRFoA424VdOFN8dDim0lM4FHp4OKQzgjiF5mg4LBRzOFLEgjiF2Fs4wU2EOIAAgTjQMsFA\r\ngd0cQWQXnz8O5wM/TCzNPnsqa0CAwL9Al4xWQI5T9j8Mz9lAyJ7PPi5dDD8uaw9A9vZdQQ/yW0AL\r\n5wU/BIQnP5uPET6L/Yc+hXWBPm3m2z7z3VM/fbWpP//iSkBhkVU/aExIQCfowD8P26Q/VMSQP3LE\r\nN0FyZbdA8ScgQAaMn0DRMB5BsbMiQYOpEEH4yhNA777UP1J9gkBXWf4/R64tPwELSj+0vrI/gIp3\r\nP1BPCkDjnf4+NDdFP6DFxz6hSDZAedo+P0KElT52Sdg/e945P7E4tD8JVZA/0v9XQDzFQ0BPNx5A\r\nETQLQCiKsD8gMgVAjNoGQE/pkUDrQa8/PPBXP2y1cz+RvGc/ZHtOQNu89T8M4z0/4NloP3W81T4q\r\nCYo+CCcmP3QwGkCEusg/nWyPPioMpD7K8sA+ijFvPsJ8/j1W4eE9ZJeoPiplJkDH4to+/fxvPhqB\r\n+z1uTu498KcaPpKggD5BgxI+fgkIP62joz6JCws+cHyhPTIo8D2ckEI+eCNDPh2Itj0lsYY8nClL\r\nPQx3tz3gbQk9DE9jPE4iLj14QtE922oJPbuNBz1QpjI9CPfXPTdphD6pY5U9sHEBPWJsQj1tKIU9\r\nr+QJPcFt9Dy8P3o9GiR6PaP3jj5iihs9r4x1PdwqAj0h3kE9TODOPBoNizw62js9lCWPPaiFlzwE\r\n9K485LUTPZl6QD3n6qM9yucZPSj5Cj3kzTU98zQRPVkqBD0j3gI9FBhDPNob+jwyijE9G6DyPAwR\r\nXT22nNA8BLtEPOWIejyDSLY8QBQUPXh+Aj0D5pE9MFj2PPD/1Txn1lo9MjkSPWo1Ez2vK6082FKE\r\nPNNEizyg1ow8J8hEPJpDBD3C6TI9EKZ9PXrtxD3oeNc8WXclPekGvj10vIk95+L+PCDaUT1bZQo9\r\nXr21PDCBAT3JqYg99ogYPa33Bj2kJZ48/r8rPfYArTwlkpU8YLSDPGkEqDxwz1E8lNF6PLT6rzwm\r\nAws9bbaLPHyHJD0lXMg8jw8QPZK2ljwmzz88BIKbPJG/hDxRpAo9RH85PJr+pjxI42A87uZmPZIE\r\nwzwosFw80QcYPIzd2DuhdTU8fDG1PIfAwT3ULFw9QKhvPNe6ZzyZnss8hKyHPNowGzxLmiM8G3fs\r\nPL0rRjzRmTM8PBDKO20P0Tv0JCw89sRpPJVrVTwvaJo8ZaCdPAdZ7Dudecg76+ZYPJ/xFDzFRyw8\r\nV0x3PDuFDD3Bcus8ECgwPCORjDyPUOE7FBywO30KCzzrBIE857Q3PaX/Cj2beSg81lOFO6TpTjx9\r\nlD08bdPkOxSsCzxX3yU8FiGgO82jhDyLGYM8jU3UPJvr8zv3E488rDX8PNd/MDwpomQ80fEXPEyi\r\nwjzmKSo9bDaoPO760DyEIhw8ZeinO9aVwzuzfxU8eLQ7PCH5nDvyWjo8W7yTPC8s2Du6Vpc79rqD\r\nPKaOjjysVP48EQufPF4zjjujJUI8V9OHO1tYQTxFoIM8tsOCPIjNIDz6gVY8+qgCPKRUjzsqxRs8\r\nktoNPGA2rjw3Ia47V5EkPDe8yTvxPX486euHO5gbgjygJVo8EAqxOyYSgzybvDQ8nnGkO3OoMDzc\r\n0bU83EUuPPNXpzsNXmo71uWmO/82XTsSgGk7ykVeO5b0fDuViBw8yQQ5PPFOgzx6Uo47iwN+O3lO\r\n5jtiw/87vOLKO2XaEjumvA88OtXJPFSmqTzQacY8uTAlPMOYeTsATcw66+lCOwNGUDtUg8U6zf9N\r\nO6c4gTogNZw6EanWOkTGozp8fhU7w7lFOs7b8jmtWRw66n8OOhS4cznKkBU65s6XOd49vzkM1Mo5\r\n60e5OblIkjmk5KM5I1fFOfnKvznMVXU5adqKOQjimzmwO6o5Fp0kOWlGLzk/m4857HWGOUbgZznY\r\nCUU5WS6WOWVZSDkjZlE52iB5OZqTXTkouDo5gZqSOdBaXDnK8ls5oFBxORDVdzkG4Hk59HBjOfg5\r\nSDm4XWM54R10Oe6NWTm8FVs59h9qObFOTDkar1s56BhmOTwbXTk7oFg5Qk1SOfVERzmjhFU5RKRH\r\nOZeURjk0qUM55GFMOUoXRznU8Uk5cs9KOUiyPzndSU054qJAOcqASzlwzDo5EKBGOT44QzmjvjQ5\r\nqlJMOYpHNTlTnUQ5p+o5OQJVRjmIfU85Tpo7OZdtQzmlOUA5as8xOSpgPzma6T45SBI2OUamOjnO\r\nWDs5ERJCOQBnMjk6x0A53sA0OWakLjlQXDc5fqghOZotMTlYKy05L9IvOdZJITnoySM5uO41Oc3W\r\nHTnnkiQ57uwhOaS7LTm8Kys5R6Q5Obj1MTlTISk5SO4nOQ+BLjlyfS05Xn0fOfp/GTnMpxo5KzMU\r\nOZ4ZHTn8aSY5FNYcOX5FIjmu3SE5vrgVOT1LJzmu3xo5H6okOUmKFzntgBo50i0dOTBJETkc/SQ5\r\nxqYROVuxFTn8vBc5yuoeOXzOGDn4DCE51KUkOc9bGzmY+gU5BvoeOblFBzmIFg05A3EQORj0Dzmg\r\nCxA5FjQWOUGvEjnEzRQ5ZdINORrBDjlyexg5ybkLOXZiBTnIZwU5+gwGOXBYFDlCGBo5mlEMOYo3\r\nBDnYOgU59qkAOY4P9ThoRAo5RkH+OIYiEjmyVwc5bvYGOZFiBzlf1QE5sgAGOaq8DjkuNgI5sRD+\r\nOK9r+DgaDOk4YfHiOH7h+Ti3gQk5QpX7OLPH8DhDhug4EsPyOH7/9DioE/A4FDf/OAAK+jhyzes4\r\nJcTtOLqlAjnOx/k4Zn8COURm8DjXz+w4s0joOCdf7zgHt+44ZET7OJpK4zgbWgU5bOTkONCX7DgS\r\n8AQ5JkT6ODBO/zgwPvE4kgkAOfNU+DgMleg4fJT7OJ9N4TiA/+046iXoOJIu7jj7I+I4ADL4OFEV\r\n6Ti7zeg4FwjVOJ3n0DhTMfY4QsrQOPK20zhqgtw4F5bjOPsz+ThFI7s4JjjaODUi1zgKJNc4raq7\r\nOLSr2jgweuc49ULhOCAp4DgcFNE43nnEOI61zziPf9E4Et7kOM284Dh0YMw43j3cOD7u1jgItsg4\r\ntgnYOLJZwDjgFdE4lNLeOJep3zihC8s4tKnMOOFvyjhnDdI4kITbOIw9xDgoRsY4eBHMOMX3zzgJ\r\nj8Y47hvOOE0VujjjesA47CPWOAAe2jgP4MU47LLKONRbszgYWNk4iv7AOFiVsjjYpMY4ogDLOFy2\r\nvDiFwcs4QB3FOIxBxjg+Or04HOHHOPFRwzijKbs4KuW/ODzmwzgCLsM4s2G8OKN9tTjnJsA4wgax\r\nOAhYwTgXt8k4mqfGOJ4WvzjUIs44GlDCOIxXwTj6jcQ4dxXDOPDltzjzlaI4pDK/OBD6rzj4s7s4\r\n+jPEOD3Ltjg+sbc4ysK1OH9SsThaja04nnWyOAChujiuh8A4b+a4OKEZpjgyo7A4V2m5OIovljiX\r\nNKs4PoKzOBRMrDhNErQ4Aj2zOCmFtjhYPag4JkihOMOwtjh92a04dC2lOA0cqDiN0ac4TGKkOOPi\r\npDj4R604+O+yOGSCwDh4y5o4pnmuOPN6nzgKM5c4KEe0OC7kmzixJb04JYqsOE9Brji4tpc4Inyh\r\nOFE3rTikw6Y4suOoOPwtnjiSkaI4khupOCRanjg0X7A4bBagOKG0rTjUVaQ4tLmdOOrekzjqVas4\r\npmajOAGAnDhC8a84vaCPOAMBnjhI8qg4/42bONJ1mThgdKI4QCaqODTSrDgWmKo44GOcOCaXsThq\r\nsqA41nKYOAgyqDjCOqs4aSefOGO0ozjpLpE49iumOJ2Sljjor5g4ZcubOCkmrTgrApc4ARybOFRT\r\nkTggl6U4ZIeROPIhoDjXyJI44OKfOLwJkzg7h6Q4SW2UOLVrkjg2SZE4qyuiOHIjjDhTapc4CICp\r\nOBquozi7I4g4hfWYOIxsoTioRpA4WVSZOMYWnTjdTqA4oBiTOCRunDhim6Y4/pKEOGNllziZH504\r\n8MOLONeCnTgedok4LXaYOIZKhjhUwq04Rx+aONjDlDhEqI44vTSMONv+hTi4qYI4RNedOL1pjTi+\r\nOp048SqnOLYqojgPOKE4ljKSOILvgjh/nZc4yy2SOJe0jjgZO4k4/s6IOBjJnDinboM4W/OZOE3q\r\nijig75k4AEuTOL/rizhuzIE4/cByOEtGnDhf3pU4YsCMOPl8izhhQJY4P0iPODulozi8+IY4RY+C\r\nOCGviThar5E4IsyOOOuPiTiKwoo4WmeOOIctjjiXC4s4ibqDOKh6eDhaC4c4PfKJOA7XizhYm344\r\nHIWiOGwzgzjYdo04a1ekOMnxgziCTYs4AauFOIXcazghLow4IleTOKOpjzhRh4I4QNyGOIhDlDgz\r\nKI84/3SSOClpnTi4yI44dBqPOJN9mjgzfIc4FkyNOLRchTiO84s49ct8ONoQZzjbbY84RoV3OLOq\r\nhTi9N4M4PIaXOEHGmzgOfYw4ZjCKOEHeizgIL4s46RFyOCFwfTh2I2s4dfWJOAbjiTh7n4Q4buxy\r\nOO98gDgDFJA4xlWCOC1sgDhoXYk4TceLOJKjkDjAsYQ4nA+PONXIgTjiC404Yq54OHGDjDgUC3k4\r\nuZWAOGDphjhcAmU4/72LOD0lgjgK2Is4IgaIOMCIgjgTnns4f2eDOPe8bThkgH04dA2DOBQNdjje\r\nRoA4qxaHOP81hTgQyXE44GaGOJR6gTgHM4g4kBuJOLkjbTg3S3E4806HOCi/gDh2LYA4mv6LONwC\r\ndzjhZ4M4DK1fOM5hgThTlWA4hluGONazfzgDBHs4tS5jOMq0gThKu4w4hvR7OK62fjjEGIk4vi+N\r\nOI70gDjJ1YI4sqKPOEZgbDjg/Y04R+F0OKS2aDhlFJA4WAFqOP/XZDhxS444RVpsOA3XdDjy+HU4\r\nHdtqODRvZjhRJWA4CGuDONP0fjhD9Xg4DCpnOJI/gjgyUpA4q+5TOEEkYzgxjY04uSFhOP9YgTgm\r\n3WQ4Io1hOO9VeDi9woM4tqByODnxaDiYlnI4jcB/OOgAdjh+CXI4ZnJqOBtRXjjbyH04ZIeBOBJc\r\neDjr0n84w8qJODaggDgNunM4wrSCOIzXfDi6YoI4fQZiOK4aYTju5YE4BZVfOKiLXDhUY3g45N11\r\nOH9OajgFuGc41pl6OA5sZjiGP0k4rw9iOH/3dzgTG4k4n5JeOIlEaTjJeIU4rxWCOB0xZDhmMYE4\r\nm7aCOG2VczhKIl04RaVnOEDgdTgwiGw4n8SAOGjUdTgyAWA4kpqIOO1peTi5pnQ4tdF+OPV3jTjZ\r\nKGk4hzlkOFNyhTi6WXY43e94OLBEbjizQ2E4uIRqOE0VbTgZ2HU4G3J8OHnFZTgk0GY4RBKCODBr\r\niDhzjHc4lbN5OGojeTi034E4/Ex5ODuueziHQ4c4HQ53OKqzizixomw4ufWKOMi+eDif72w48/SB\r\nODxGcTjj0F04yoNoOMQWZji4q3w4UtdzOMeXgjjTx4Q4OkBrONP1dzj4nHA4ADKKOA==",
                            "noiseTrainingType" : "default"
                          }
                        }
                    ],
                    "start" : 16510,
                    "duration" : 207,
                    "mediaStart" : 2393,
                    "mediaDuration" : 207,
                    "scalar" : 1,
                    "metadata" : {
                      "AutoAppliedSmartFocus" : "False",
                      "WinSubProjectDisplayName" : "",
                      "clipSpeedAttribute" : false
                    },
                    "animationTracks" : {

                    }
                  },
                  {
                    "id" : 139,
                    "_type" : "StitchedMedia",
                    "minMediaStart" : 0,
                    "attributes" : {
                      "ident" : "tower-05",
                      "gain" : 1.0,
                      "mixToMono" : false
                    },
                    "parameters" : {
                      "volume" : 1.0,
                      "cursorOpacity" : 1.0,
                      "cursorScale" : 1.0
                    },
                    "medias" : [
                        {
                          "id" : 140,
                          "_type" : "UnifiedMedia",
                          "video" : 
                              {
                                "id" : 141,
                                "_type" : "ScreenVMFile",
                                "src" : 5,
                                "trackNumber" : 0,
                                "attributes" : {
                                  "ident" : "Rec 02-04-20_007"
                                },
                                "parameters" : {
                                  "cursorScale" : {
                                    "type" : "double",
                                    "defaultValue" : 0.0,
                                    "interp" : "linr"
                                  },
                                  "cursorOpacity" : {
                                    "type" : "double",
                                    "defaultValue" : 0.0,
                                    "interp" : "linr"
                                  }
                                },
                                "effects" : [

                                ],
                                "start" : 0,
                                "duration" : 1383,
                                "mediaStart" : 0,
                                "mediaDuration" : 1383,
                                "scalar" : 1,
                                "animationTracks" : {

                                }
                              },
                          "audio" : 
                              {
                                "id" : 142,
                                "_type" : "AMFile",
                                "src" : 5,
                                "trackNumber" : 1,
                                "attributes" : {
                                  "ident" : "",
                                  "sampleRate" : 44100,
                                  "bitDepth" : 16,
                                  "gain" : 1.0,
                                  "mixToMono" : false
                                },
                                  "channelNumber" : "0,1",
                                "effects" : [

                                ],
                                "start" : 0,
                                "duration" : 1383,
                                "mediaStart" : 0,
                                "mediaDuration" : 1383,
                                "scalar" : 1,
                                "animationTracks" : {

                                }
                              }
,
                          "start" : 0,
                          "duration" : 1383,
                          "mediaStart" : 0,
                          "mediaDuration" : 15796,
                          "scalar" : 1,
                          "metadata" : {
                            "AutoAppliedSmartFocus" : "False",
                            "WinSubProjectDisplayName" : "",
                            "clipSpeedAttribute" : false
                          }
                        },
                        {
                          "id" : 143,
                          "_type" : "UnifiedMedia",
                          "video" : 
                              {
                                "id" : 144,
                                "_type" : "ScreenVMFile",
                                "src" : 5,
                                "trackNumber" : 0,
                                "attributes" : {
                                  "ident" : "Rec 02-04-20_007"
                                },
                                "parameters" : {
                                  "cursorScale" : {
                                    "type" : "double",
                                    "defaultValue" : 0.0,
                                    "interp" : "linr"
                                  },
                                  "cursorOpacity" : {
                                    "type" : "double",
                                    "defaultValue" : 0.0,
                                    "interp" : "linr"
                                  }
                                },
                                "effects" : [

                                ],
                                "start" : 1383,
                                "duration" : 2726,
                                "mediaStart" : 1406,
                                "mediaDuration" : 2726,
                                "scalar" : 1,
                                "animationTracks" : {

                                }
                              },
                          "audio" : 
                              {
                                "id" : 145,
                                "_type" : "AMFile",
                                "src" : 5,
                                "trackNumber" : 1,
                                "attributes" : {
                                  "ident" : "",
                                  "sampleRate" : 44100,
                                  "bitDepth" : 16,
                                  "gain" : 1.0,
                                  "mixToMono" : false
                                },
                                  "channelNumber" : "0,1",
                                "effects" : [

                                ],
                                "start" : 1383,
                                "duration" : 2726,
                                "mediaStart" : 1406,
                                "mediaDuration" : 2726,
                                "scalar" : 1,
                                "animationTracks" : {

                                }
                              }
,
                          "start" : 1383,
                          "duration" : 2726,
                          "mediaStart" : 0,
                          "mediaDuration" : 15796,
                          "scalar" : 1,
                          "metadata" : {
                            "AutoAppliedSmartFocus" : "False",
                            "WinSubProjectDisplayName" : "",
                            "clipSpeedAttribute" : false
                          }
                        },
                        {
                          "id" : 146,
                          "_type" : "UnifiedMedia",
                          "video" : 
                              {
                                "id" : 147,
                                "_type" : "ScreenVMFile",
                                "src" : 5,
                                "trackNumber" : 0,
                                "attributes" : {
                                  "ident" : "Rec 02-04-20_007"
                                },
                                "parameters" : {
                                  "cursorScale" : {
                                    "type" : "double",
                                    "defaultValue" : 0.0,
                                    "interp" : "linr"
                                  },
                                  "cursorOpacity" : {
                                    "type" : "double",
                                    "defaultValue" : 0.0,
                                    "interp" : "linr"
                                  }
                                },
                                "effects" : [

                                ],
                                "start" : 4109,
                                "duration" : 424,
                                "mediaStart" : 4173,
                                "mediaDuration" : 424,
                                "scalar" : 1,
                                "animationTracks" : {

                                }
                              },
                          "audio" : 
                              {
                                "id" : 148,
                                "_type" : "AMFile",
                                "src" : 5,
                                "trackNumber" : 1,
                                "attributes" : {
                                  "ident" : "",
                                  "sampleRate" : 44100,
                                  "bitDepth" : 16,
                                  "gain" : 1.0,
                                  "mixToMono" : false
                                },
                                  "channelNumber" : "0,1",
                                "effects" : [

                                ],
                                "start" : 4109,
                                "duration" : 424,
                                "mediaStart" : 4173,
                                "mediaDuration" : 424,
                                "scalar" : 1,
                                "animationTracks" : {

                                }
                              }
,
                          "start" : 4109,
                          "duration" : 424,
                          "mediaStart" : 0,
                          "mediaDuration" : 15796,
                          "scalar" : 1,
                          "metadata" : {
                            "AutoAppliedSmartFocus" : "False",
                            "WinSubProjectDisplayName" : "",
                            "clipSpeedAttribute" : false
                          }
                        },
                        {
                          "id" : 149,
                          "_type" : "UnifiedMedia",
                          "video" : 
                              {
                                "id" : 150,
                                "_type" : "ScreenVMFile",
                                "src" : 5,
                                "trackNumber" : 0,
                                "attributes" : {
                                  "ident" : "Rec 02-04-20_007"
                                },
                                "parameters" : {
                                  "cursorScale" : {
                                    "type" : "double",
                                    "defaultValue" : 0.0,
                                    "interp" : "linr"
                                  },
                                  "cursorOpacity" : {
                                    "type" : "double",
                                    "defaultValue" : 0.0,
                                    "interp" : "linr"
                                  }
                                },
                                "effects" : [

                                ],
                                "start" : 4533,
                                "duration" : 139,
                                "mediaStart" : 4741,
                                "mediaDuration" : 139,
                                "scalar" : 1,
                                "animationTracks" : {

                                }
                              },
                          "audio" : 
                              {
                                "id" : 151,
                                "_type" : "AMFile",
                                "src" : 5,
                                "trackNumber" : 1,
                                "attributes" : {
                                  "ident" : "",
                                  "sampleRate" : 44100,
                                  "bitDepth" : 16,
                                  "gain" : 1.0,
                                  "mixToMono" : false
                                },
                                  "channelNumber" : "0,1",
                                "effects" : [

                                ],
                                "start" : 4533,
                                "duration" : 139,
                                "mediaStart" : 4741,
                                "mediaDuration" : 139,
                                "scalar" : 1,
                                "animationTracks" : {

                                }
                              }
,
                          "start" : 4533,
                          "duration" : 139,
                          "mediaStart" : 0,
                          "mediaDuration" : 15796,
                          "scalar" : 1,
                          "metadata" : {
                            "AutoAppliedSmartFocus" : "False",
                            "WinSubProjectDisplayName" : "",
                            "clipSpeedAttribute" : false
                          }
                        },
                        {
                          "id" : 152,
                          "_type" : "UnifiedMedia",
                          "video" : 
                              {
                                "id" : 153,
                                "_type" : "ScreenVMFile",
                                "src" : 5,
                                "trackNumber" : 0,
                                "attributes" : {
                                  "ident" : "Rec 02-04-20_007"
                                },
                                "parameters" : {
                                  "cursorScale" : {
                                    "type" : "double",
                                    "defaultValue" : 0.0,
                                    "interp" : "linr"
                                  },
                                  "cursorOpacity" : {
                                    "type" : "double",
                                    "defaultValue" : 0.0,
                                    "interp" : "linr"
                                  }
                                },
                                "effects" : [

                                ],
                                "start" : 4672,
                                "duration" : 212,
                                "mediaStart" : 5022,
                                "mediaDuration" : 212,
                                "scalar" : 1,
                                "animationTracks" : {

                                }
                              },
                          "audio" : 
                              {
                                "id" : 154,
                                "_type" : "AMFile",
                                "src" : 5,
                                "trackNumber" : 1,
                                "attributes" : {
                                  "ident" : "",
                                  "sampleRate" : 44100,
                                  "bitDepth" : 16,
                                  "gain" : 1.0,
                                  "mixToMono" : false
                                },
                                  "channelNumber" : "0,1",
                                "effects" : [

                                ],
                                "start" : 4672,
                                "duration" : 212,
                                "mediaStart" : 5022,
                                "mediaDuration" : 212,
                                "scalar" : 1,
                                "animationTracks" : {

                                }
                              }
,
                          "start" : 4672,
                          "duration" : 212,
                          "mediaStart" : 0,
                          "mediaDuration" : 15796,
                          "scalar" : 1,
                          "metadata" : {
                            "AutoAppliedSmartFocus" : "False",
                            "WinSubProjectDisplayName" : "",
                            "clipSpeedAttribute" : false
                          }
                        },
                        {
                          "id" : 155,
                          "_type" : "UnifiedMedia",
                          "video" : 
                              {
                                "id" : 156,
                                "_type" : "ScreenVMFile",
                                "src" : 5,
                                "trackNumber" : 0,
                                "attributes" : {
                                  "ident" : "Rec 02-04-20_007"
                                },
                                "parameters" : {
                                  "cursorScale" : {
                                    "type" : "double",
                                    "defaultValue" : 0.0,
                                    "interp" : "linr"
                                  },
                                  "cursorOpacity" : {
                                    "type" : "double",
                                    "defaultValue" : 0.0,
                                    "interp" : "linr"
                                  }
                                },
                                "effects" : [

                                ],
                                "start" : 4884,
                                "duration" : 10553,
                                "mediaStart" : 5243,
                                "mediaDuration" : 10553,
                                "scalar" : 1,
                                "animationTracks" : {

                                }
                              },
                          "audio" : 
                              {
                                "id" : 157,
                                "_type" : "AMFile",
                                "src" : 5,
                                "trackNumber" : 1,
                                "attributes" : {
                                  "ident" : "",
                                  "sampleRate" : 44100,
                                  "bitDepth" : 16,
                                  "gain" : 1.0,
                                  "mixToMono" : false
                                },
                                  "channelNumber" : "0,1",
                                "effects" : [

                                ],
                                "start" : 4884,
                                "duration" : 10553,
                                "mediaStart" : 5243,
                                "mediaDuration" : 10553,
                                "scalar" : 1,
                                "animationTracks" : {

                                }
                              }
,
                          "start" : 4884,
                          "duration" : 10553,
                          "mediaStart" : 0,
                          "mediaDuration" : 15796,
                          "scalar" : 1,
                          "metadata" : {
                            "AutoAppliedSmartFocus" : "False",
                            "WinSubProjectDisplayName" : "",
                            "clipSpeedAttribute" : false
                          }
                        }
                    ],
                    "effects" : [
                        {
                          "effectName" : "NoiseReduction",
                          "category" : "categoryAudioEffects",
                          "parameters" : {
                            "denoiserAmount" : 20.0,
                            "denoiserThreshold" : 0.0,
                            "noiseProfile" : "0DLBQIHdHEFkF58/DucDP0ozzT57KmtAgMC/QJeMVkBqXPY/DM/ZQMiezz4uXQw/LmsPQAr6XUGb\r\n61tADcoFP5xdJz9feBE+k96HPoV1gT5t5ts+891TP321qT//4kpAYZFVP/Y5SEBV+cA/y9mkP1TE\r\nkD/IwDdBlGu3QPEnIECKjZ9A9zQeQR6sIkGDqRBB+MoTQPG91D8HiIJAV1n+P6aiLT8BC0o/tL6y\r\nP4CKdz+TTwpAgu3+PkNWRT+gxcc+oUg2QHnaPj+xh5U+dknYPzLVOT+xOLQ/CVWQP9L/V0A8xUNA\r\nPD0eQBE0C0C2arA/IDIFQIzaBkBP6ZFAYESvPzzwVz9stXM/LdNnP2R7TkDbvPU/3LQ9P2b3aD9/\r\nmdU+KgmKPggnJj9cFxpA+r7IP2xSjz7uI6Q+OPvAPooxbz7i1P49VuHhPVCFqD7keyZAx+LaPlz+\r\nbz6Fdvs9U1juPU5/Gj4RaoA+nEsSPn4JCD++RKM+d6QKPnB8oT0yKPA9nJBCPngjQz6ubLY9ileG\r\nPPKgSj1Jxbc94G0JPQxPYzwmXi092efQPdtqCT27jQc9Ky4yPXjt1z3+Y4Q+qWOVPRtdAT1ibEI9\r\nbSiFPa/kCT29bPQ8t1R6PWIuej338o4+YoobPVYHdT3irwI9Id5BPVQizzyal4o8Oto7PZQljz3V\r\nVZc8BPSuPOS1Ez1OsUA95umjPcrnGT0o+Qo95M01PRHiED31CgU9I94CPbQJQzzaG/o8ONkxPUKJ\r\n8zwMEV09eMDQPBrVQjzliHo8g0i2PEAUFD0MYwI9A+aRPWZo9jznDdY8L6VbPTI5Ej1qNRM9D5qt\r\nPNhShDzTRIs8oNaMPNNNRDzbawQ9wukyPRCmfT167cQ96HjXPFl3JT3pBr49dLyJPefi/jwg2lE9\r\nW2UKPV69tTzDfAA979SIPfaIGD2t9wY9pCWePJvaKz0PsKs81p2VPJCygzwfY6g8aMFRPDbiejy0\r\niq88JgMLPW22izx8hyQ9JVzIPEIyED0kHZc8kANAPASCmzyRv4Q8UaQKPaDdOTya/qY8SONgPO7m\r\nZj2SBMM8St5bPMcEFzySSNo7oXU1PIkPtTyHwME91CxcPbHibzzXumc8mZ7LPISshzzP8xs82rQj\r\nPBt37Dy9K0Y82igzPCOeyjttD9E7ffAqPBVpajyVa1U8L2iaPGWgnTwHWew7nXnIO3F0WTyf8RQ8\r\ncJ4rPFdMdzys2Qw9uZnrPBAoMDwjkYw8ZSrhO/YQrTvamQo86wSBPOe0Nz2l/wo9m3koPNV4hTsy\r\nH088fZQ9PLqm5Du70Qw8V98lPJuToDvGLYU81seCPI1N1DxMYPM79xOPPKw1/DzXfzA8KaJkPNHx\r\nFzwUl8M85ikqPTntpzzko9A8hCIcPGXopzvWlcM7H2AVPHi0OzybEZ47v2A6PPGfkzwEStg7ulaX\r\nO9ozhDymjo48xoL+PBELnzy7Co07q9xBPFfThzsPfUE8RaCDPL6FgjyIzSA8+oFWPLHJAjykVI87\r\nKsUbPJLaDTxgNq48I8asO1eRJDw3iso7flx+PNXbiDv0r4E8oCVaPBAKsTue9oE8wyc0PCIKpTtz\r\nqDA83NG1PNxFLjyyaac7A/NoOy3vpjs2ul87YvhsO+SNXzu82Hw78QEcPMkEOTxIsoM8elKOO4sD\r\nfjuwZ+Y7Fkz/O5JKyztCihU7prwPPDrVyTx0Bao80GnGPLkwJTzykXg7AE3MOuvpQjuwUVA7VIPF\r\nOsqWTjskaoE6vVaZOj+m0DpDQJ86vAAXOxrIRjrO2/I5rVkcOjy2DjoUuHM5HikWOgDpmzk2qrg5\r\nDNTKOQuAwTlKYZA5RZqnOcC+vjl6IMI5trduOaJGkTnid6E5QBqnOWXiHTk5Q0I5GJ2SOReokDmO\r\nrVE5spNOOYKTcznOllU5MAVuOWJaXTnR5VU5SgdqOcFKizm96m059pCAOWJxbzk2i2g5duKBOeQ3\r\nQznIUHc5w6hdOXh0RTkpQXg52sxvOSZKdzlqc2Q52JF4OUQXXjnwr1A5pItXOeI4Pzn1C3E5WM1V\r\nOUJGNTn2vE85yJNLOZZxQjmEDlI5hVJROWh6RTms10M5uQ88ObaQPTkQxUw5XUc2OedjPznSh0k5\r\n+jsyOdz8RDlbkS85BqlKOcVYQDnqsko5sm5DOeajPDlcFzc5MME0Ob87Lznq5Tg5nu43OY6rODmo\r\nKzk5HGw4OVduRTkqpDU5g8ssOY0ELTnQrDg5iNQzObkKJTlGsi05NnwuOaIULTn83zI5T3YkOTIj\r\nMTlKuyI5NOIeOYqlHDmukjU5Xs8kOaCrNDk7jDI5q8AoObeyLDnq/yY53uMlOUm3HDm0wR45ki8b\r\nOdfnFjkorCE5xLUeOZwEJDlw8CE5DNMhORyQFTnach05/zwgOfPAFDnqFho5guUjOVjtHjlo1Q05\r\nWjgaOWIAFDnmZgo5QxMSOYPdJDmTFRY5tH8WOWYODzl8Hg85Tw0ROU4qEjl+ShA5COIHOSWGCTmV\r\nBRM5JNMUOUSVCTkFiQ45Cs4OOYIeCznAxQk5JI0POa5CDzlWqw45JesQOQxZCDm89xw59qMSOfIK\r\nDDnLmgc5N33+OKKnCTkevvo4Sf8GOYQpDDmV2ws5NKgKOe7XBTk8ogg5n0kFOS55BDnY2wk5D0IE\r\nOSNFATnVZgU5fCf+OGi+9jiYhQQ5IzEBOdCV9jiuDQY5Eq/pOE6W8jhG3uk4WiP+OMD8BjmAgPE4\r\ncTHqOOTE9TjRUvA4KEj5OGp+Ajl8XOQ4WyPnOP5b+DgiSfE4OFzrOF1rATmsceI4O9YDObiw9ThT\r\nhfU4s1DzOGcR/Timm+o4rIj/OOH/9jinhPA44urWOGrn9jiWSfI4NuL3OIIPzji1Les4sB7dOKxP\r\n+ThAE+o4QJjdOERe8Tiwe8U42mTmOGIJ1TjJDt84UEXhOLyD2zjEfu04dezVOK033DgOZcQ4jyTb\r\nOIq+4jgC/tw4zmLjODrj1jhCyNc4A+fKOFyBzjgEBdU49TfcOFdG4DhqGMM4HFvQOG6UzTh4I9I4\r\nARbWOMaOzTiMYsA4ltfjOPeswjiGCNs4GgHeOJ5pzThMAs44k6fVOCASwzhJnMY4TAzSOJJY1TjG\r\nLdY4ykrWODJBwTin0ME4l5i7OBnWuDjgOb444d3FOEKqzDg+Vso4rAbOOM7Xyjg82rk4hLvHOEpz\r\nwDh8PMM4jRzIOBR0xThVMsE4Qtq/OA6HuTg0qs44ryi6OCLexziHKcM4nKDJOMFtuTjYVbY4rX3H\r\nOOb0wTg82sg4uu3FOII0wDg1eLw40XHAONnQxzimObg45yDBOJs1zTiVO7g4rPKzOK4GwjhaZb04\r\nO/y9OI5CwjgcKLE4mSfFOGe2pzjogb44gNC1OCb1tDiVq6848HW8OJmhvzg4Hrs406OmOIQDqTjl\r\nrZo4gvalOM66qDhr47M4+UG8OAXXsjjCSsI4VgqpOGVuoTh8ksk4HBeuOI4fszh0AKw4jTGxOEEl\r\npThziKw4Hn+iOLvBrjgPkrs40jqnOMNOrzhQI6I4FniVOOgcsDj0Apw4lq+vOIgArzgaZbM4HLOi\r\nOFcYpDjGmqc4CMKiOPHJmziPnKA44IWmOCqJnDh6z604uWauOGHYsTiGs5c4CGSVOMYEnTh+Pak4\r\nGJKYOIeeoDiKbJs4EDueONWooziPJ6o4YdaqOOjPkDgRZZ446qSyOGAxmjgD9qE44dOeOJpqmDgk\r\npq44yQSoOPw0lzjCyak4pEmiOIF3qzgbJ5s4/BygOKtfpzgYtJ04aZWZOHxGmDi0VLI4PGaXOISm\r\niThAw5o4yGioOLCDjzhEXJ44mnyeOFC6pDhu6Js486ikOM/XmTiVppk4XmuaOBLClzjFmIY4wk+O\r\nOBgApDh1/aA4YlWfOHRwpTjmlJg4XrKMODoFizgy5KM4bvSfOAr9jThHIJ04mZWZOIXKZzhw0Is4\r\n0+KiOIIqijgwlZM4GlaCOGGapTj1L5E4NjqeOI5JjTgGr5k4VBmDOJuOjDjCrZk4ckmBOGfPlziT\r\nuZM4Rm2AOGcMqzgKt544ZmyNOOLNkDg5DI44/paNOLm5jjh7eJE4jYyOOE0giTg40aQ4B3aIOMjE\r\nmDhNDYM4PGSGODkomDiW1Jo4CH2GOFL9kDht7oQ442uMOGtAjDi5Uow4ArOfOJGCiTh4C54485qI\r\nOCcPbDhnK5Y4HzqUOEiziTgqAoY48VeNOKmBjTiAcZI4fguHONQPjjiC2IU40PuNOEJfijhFKGw4\r\nHKyCOD7jkzgREYM4PC6GODFVizj2NIQ4ni2HOAxEiDh+UIA41i98OBK/gDjyjpI4EweJOOCEgzj+\r\nopQ4YHaPONCKmDhoKJo4Fn9yOHbgmTg6r5A44i2HOFcejji/o4o46nKVOH7Xjzhxu344/JWEOE1c\r\neThqs4o4nv+GODmFmzj9v5E4CU2WOAGEezizgog44S+UOJbNhzjCNHs4AFV/OPHehDiaUHM4iPyR\r\nOKRrbjhFU4w4I3GYOCHrjTho2ZE4PwOPOD5ZiDiDfI44qqKPOL2iizgseIk4HkCLOIUufDi9T4c4\r\n/35sOLcUkzh8+Ig40hRhONTpijj3uGw4C0SQOEJBgziJrYM4ubNvOG3WhThmP484dUh6OAAoeTg5\r\nIno42J6IOPgLgzh/OYc4fyllOKXjhjhsxFU4wcKROPv0ijhLy3U4dc9/OH5DaDgmfYk4RXmCOM8V\r\ndzhAJHw4m6eBOF0Rbzg2AH84T1h8OJMfczinC5A4AlaMOOLfRjiDMoQ4X4+CODh5hjhIw484eA6B\r\nOA1CkDiu1Y049r2NOLfUfjiIMoA4KGeNOJLFaDgZ0mc4FJ6AODT4VThtQ1c4EJaJOKAobziEUYU4\r\nTDh7OH5ocDiYKmA4SupvOKJuczg0kow4/997OBccbjh5KXg4odyJOF/ZbDjE6Xo4MaR2OFP4aDh9\r\n3II4DglgOIhHYTgG31845X9/ODqzXjjgGm04Hsp0OONMeThtroU4NfZ1ONTTdTj0Elk4fYeCOGfb\r\ngDht7m44ha9zOOYXgDi/nYE4JGWAOJRMcTijSYk4fhqNODcWYzjOfXI4bhxrONa7eTgcP184Xit9\r\nOHXEbTg1PFo43jNlONpLZjiCA4U4m2FYOB0WfDguqWQ4yZ6KOAonfDjI3Wc4NNhiOADlhjgc7l84\r\n2cuAONqyazisAYA4DGJ7OFk2fjgj/Ws4CzWBODZiczgdGoY4GtxROIXWhDh4omU4XY9sOPGZhjje\r\nsXE4zsp4ODWfdTg8d3Q4pPJvOPVjhTir2XE4ifR5OMfOaTgtB1w4Rk+FOEi8bDgwgXI4iCyAOA2g\r\nfTgfKGU4QHdjOOHOgDhaAYc4pu6EOBWadzjmnWk4SkyDOBxjfzhHe3M4M4xpOAQ/hzi7bWQ4Uqxv\r\nOIUkgzhRFoA424VdOFN8dDim0lM4FHp4OKQzgjiF5mg4LBRzOFLEgjiF2Fs4wU2EOIAAgTjQMsFA\r\ngd0cQWQXnz8O5wM/TCzNPnsqa0CAwL9Al4xWQI5T9j8Mz9lAyJ7PPi5dDD8uaw9A9vZdQQ/yW0AL\r\n5wU/BIQnP5uPET6L/Yc+hXWBPm3m2z7z3VM/fbWpP//iSkBhkVU/aExIQCfowD8P26Q/VMSQP3LE\r\nN0FyZbdA8ScgQAaMn0DRMB5BsbMiQYOpEEH4yhNA777UP1J9gkBXWf4/R64tPwELSj+0vrI/gIp3\r\nP1BPCkDjnf4+NDdFP6DFxz6hSDZAedo+P0KElT52Sdg/e945P7E4tD8JVZA/0v9XQDzFQ0BPNx5A\r\nETQLQCiKsD8gMgVAjNoGQE/pkUDrQa8/PPBXP2y1cz+RvGc/ZHtOQNu89T8M4z0/4NloP3W81T4q\r\nCYo+CCcmP3QwGkCEusg/nWyPPioMpD7K8sA+ijFvPsJ8/j1W4eE9ZJeoPiplJkDH4to+/fxvPhqB\r\n+z1uTu498KcaPpKggD5BgxI+fgkIP62joz6JCws+cHyhPTIo8D2ckEI+eCNDPh2Itj0lsYY8nClL\r\nPQx3tz3gbQk9DE9jPE4iLj14QtE922oJPbuNBz1QpjI9CPfXPTdphD6pY5U9sHEBPWJsQj1tKIU9\r\nr+QJPcFt9Dy8P3o9GiR6PaP3jj5iihs9r4x1PdwqAj0h3kE9TODOPBoNizw62js9lCWPPaiFlzwE\r\n9K485LUTPZl6QD3n6qM9yucZPSj5Cj3kzTU98zQRPVkqBD0j3gI9FBhDPNob+jwyijE9G6DyPAwR\r\nXT22nNA8BLtEPOWIejyDSLY8QBQUPXh+Aj0D5pE9MFj2PPD/1Txn1lo9MjkSPWo1Ez2vK6082FKE\r\nPNNEizyg1ow8J8hEPJpDBD3C6TI9EKZ9PXrtxD3oeNc8WXclPekGvj10vIk95+L+PCDaUT1bZQo9\r\nXr21PDCBAT3JqYg99ogYPa33Bj2kJZ48/r8rPfYArTwlkpU8YLSDPGkEqDxwz1E8lNF6PLT6rzwm\r\nAws9bbaLPHyHJD0lXMg8jw8QPZK2ljwmzz88BIKbPJG/hDxRpAo9RH85PJr+pjxI42A87uZmPZIE\r\nwzwosFw80QcYPIzd2DuhdTU8fDG1PIfAwT3ULFw9QKhvPNe6ZzyZnss8hKyHPNowGzxLmiM8G3fs\r\nPL0rRjzRmTM8PBDKO20P0Tv0JCw89sRpPJVrVTwvaJo8ZaCdPAdZ7Dudecg76+ZYPJ/xFDzFRyw8\r\nV0x3PDuFDD3Bcus8ECgwPCORjDyPUOE7FBywO30KCzzrBIE857Q3PaX/Cj2beSg81lOFO6TpTjx9\r\nlD08bdPkOxSsCzxX3yU8FiGgO82jhDyLGYM8jU3UPJvr8zv3E488rDX8PNd/MDwpomQ80fEXPEyi\r\nwjzmKSo9bDaoPO760DyEIhw8ZeinO9aVwzuzfxU8eLQ7PCH5nDvyWjo8W7yTPC8s2Du6Vpc79rqD\r\nPKaOjjysVP48EQufPF4zjjujJUI8V9OHO1tYQTxFoIM8tsOCPIjNIDz6gVY8+qgCPKRUjzsqxRs8\r\nktoNPGA2rjw3Ia47V5EkPDe8yTvxPX486euHO5gbgjygJVo8EAqxOyYSgzybvDQ8nnGkO3OoMDzc\r\n0bU83EUuPPNXpzsNXmo71uWmO/82XTsSgGk7ykVeO5b0fDuViBw8yQQ5PPFOgzx6Uo47iwN+O3lO\r\n5jtiw/87vOLKO2XaEjumvA88OtXJPFSmqTzQacY8uTAlPMOYeTsATcw66+lCOwNGUDtUg8U6zf9N\r\nO6c4gTogNZw6EanWOkTGozp8fhU7w7lFOs7b8jmtWRw66n8OOhS4cznKkBU65s6XOd49vzkM1Mo5\r\n60e5OblIkjmk5KM5I1fFOfnKvznMVXU5adqKOQjimzmwO6o5Fp0kOWlGLzk/m4857HWGOUbgZznY\r\nCUU5WS6WOWVZSDkjZlE52iB5OZqTXTkouDo5gZqSOdBaXDnK8ls5oFBxORDVdzkG4Hk59HBjOfg5\r\nSDm4XWM54R10Oe6NWTm8FVs59h9qObFOTDkar1s56BhmOTwbXTk7oFg5Qk1SOfVERzmjhFU5RKRH\r\nOZeURjk0qUM55GFMOUoXRznU8Uk5cs9KOUiyPzndSU054qJAOcqASzlwzDo5EKBGOT44QzmjvjQ5\r\nqlJMOYpHNTlTnUQ5p+o5OQJVRjmIfU85Tpo7OZdtQzmlOUA5as8xOSpgPzma6T45SBI2OUamOjnO\r\nWDs5ERJCOQBnMjk6x0A53sA0OWakLjlQXDc5fqghOZotMTlYKy05L9IvOdZJITnoySM5uO41Oc3W\r\nHTnnkiQ57uwhOaS7LTm8Kys5R6Q5Obj1MTlTISk5SO4nOQ+BLjlyfS05Xn0fOfp/GTnMpxo5KzMU\r\nOZ4ZHTn8aSY5FNYcOX5FIjmu3SE5vrgVOT1LJzmu3xo5H6okOUmKFzntgBo50i0dOTBJETkc/SQ5\r\nxqYROVuxFTn8vBc5yuoeOXzOGDn4DCE51KUkOc9bGzmY+gU5BvoeOblFBzmIFg05A3EQORj0Dzmg\r\nCxA5FjQWOUGvEjnEzRQ5ZdINORrBDjlyexg5ybkLOXZiBTnIZwU5+gwGOXBYFDlCGBo5mlEMOYo3\r\nBDnYOgU59qkAOY4P9ThoRAo5RkH+OIYiEjmyVwc5bvYGOZFiBzlf1QE5sgAGOaq8DjkuNgI5sRD+\r\nOK9r+DgaDOk4YfHiOH7h+Ti3gQk5QpX7OLPH8DhDhug4EsPyOH7/9DioE/A4FDf/OAAK+jhyzes4\r\nJcTtOLqlAjnOx/k4Zn8COURm8DjXz+w4s0joOCdf7zgHt+44ZET7OJpK4zgbWgU5bOTkONCX7DgS\r\n8AQ5JkT6ODBO/zgwPvE4kgkAOfNU+DgMleg4fJT7OJ9N4TiA/+046iXoOJIu7jj7I+I4ADL4OFEV\r\n6Ti7zeg4FwjVOJ3n0DhTMfY4QsrQOPK20zhqgtw4F5bjOPsz+ThFI7s4JjjaODUi1zgKJNc4raq7\r\nOLSr2jgweuc49ULhOCAp4DgcFNE43nnEOI61zziPf9E4Et7kOM284Dh0YMw43j3cOD7u1jgItsg4\r\ntgnYOLJZwDjgFdE4lNLeOJep3zihC8s4tKnMOOFvyjhnDdI4kITbOIw9xDgoRsY4eBHMOMX3zzgJ\r\nj8Y47hvOOE0VujjjesA47CPWOAAe2jgP4MU47LLKONRbszgYWNk4iv7AOFiVsjjYpMY4ogDLOFy2\r\nvDiFwcs4QB3FOIxBxjg+Or04HOHHOPFRwzijKbs4KuW/ODzmwzgCLsM4s2G8OKN9tTjnJsA4wgax\r\nOAhYwTgXt8k4mqfGOJ4WvzjUIs44GlDCOIxXwTj6jcQ4dxXDOPDltzjzlaI4pDK/OBD6rzj4s7s4\r\n+jPEOD3Ltjg+sbc4ysK1OH9SsThaja04nnWyOAChujiuh8A4b+a4OKEZpjgyo7A4V2m5OIovljiX\r\nNKs4PoKzOBRMrDhNErQ4Aj2zOCmFtjhYPag4JkihOMOwtjh92a04dC2lOA0cqDiN0ac4TGKkOOPi\r\npDj4R604+O+yOGSCwDh4y5o4pnmuOPN6nzgKM5c4KEe0OC7kmzixJb04JYqsOE9Brji4tpc4Inyh\r\nOFE3rTikw6Y4suOoOPwtnjiSkaI4khupOCRanjg0X7A4bBagOKG0rTjUVaQ4tLmdOOrekzjqVas4\r\npmajOAGAnDhC8a84vaCPOAMBnjhI8qg4/42bONJ1mThgdKI4QCaqODTSrDgWmKo44GOcOCaXsThq\r\nsqA41nKYOAgyqDjCOqs4aSefOGO0ozjpLpE49iumOJ2Sljjor5g4ZcubOCkmrTgrApc4ARybOFRT\r\nkTggl6U4ZIeROPIhoDjXyJI44OKfOLwJkzg7h6Q4SW2UOLVrkjg2SZE4qyuiOHIjjDhTapc4CICp\r\nOBquozi7I4g4hfWYOIxsoTioRpA4WVSZOMYWnTjdTqA4oBiTOCRunDhim6Y4/pKEOGNllziZH504\r\n8MOLONeCnTgedok4LXaYOIZKhjhUwq04Rx+aONjDlDhEqI44vTSMONv+hTi4qYI4RNedOL1pjTi+\r\nOp048SqnOLYqojgPOKE4ljKSOILvgjh/nZc4yy2SOJe0jjgZO4k4/s6IOBjJnDinboM4W/OZOE3q\r\nijig75k4AEuTOL/rizhuzIE4/cByOEtGnDhf3pU4YsCMOPl8izhhQJY4P0iPODulozi8+IY4RY+C\r\nOCGviThar5E4IsyOOOuPiTiKwoo4WmeOOIctjjiXC4s4ibqDOKh6eDhaC4c4PfKJOA7XizhYm344\r\nHIWiOGwzgzjYdo04a1ekOMnxgziCTYs4AauFOIXcazghLow4IleTOKOpjzhRh4I4QNyGOIhDlDgz\r\nKI84/3SSOClpnTi4yI44dBqPOJN9mjgzfIc4FkyNOLRchTiO84s49ct8ONoQZzjbbY84RoV3OLOq\r\nhTi9N4M4PIaXOEHGmzgOfYw4ZjCKOEHeizgIL4s46RFyOCFwfTh2I2s4dfWJOAbjiTh7n4Q4buxy\r\nOO98gDgDFJA4xlWCOC1sgDhoXYk4TceLOJKjkDjAsYQ4nA+PONXIgTjiC404Yq54OHGDjDgUC3k4\r\nuZWAOGDphjhcAmU4/72LOD0lgjgK2Is4IgaIOMCIgjgTnns4f2eDOPe8bThkgH04dA2DOBQNdjje\r\nRoA4qxaHOP81hTgQyXE44GaGOJR6gTgHM4g4kBuJOLkjbTg3S3E4806HOCi/gDh2LYA4mv6LONwC\r\ndzjhZ4M4DK1fOM5hgThTlWA4hluGONazfzgDBHs4tS5jOMq0gThKu4w4hvR7OK62fjjEGIk4vi+N\r\nOI70gDjJ1YI4sqKPOEZgbDjg/Y04R+F0OKS2aDhlFJA4WAFqOP/XZDhxS444RVpsOA3XdDjy+HU4\r\nHdtqODRvZjhRJWA4CGuDONP0fjhD9Xg4DCpnOJI/gjgyUpA4q+5TOEEkYzgxjY04uSFhOP9YgTgm\r\n3WQ4Io1hOO9VeDi9woM4tqByODnxaDiYlnI4jcB/OOgAdjh+CXI4ZnJqOBtRXjjbyH04ZIeBOBJc\r\neDjr0n84w8qJODaggDgNunM4wrSCOIzXfDi6YoI4fQZiOK4aYTju5YE4BZVfOKiLXDhUY3g45N11\r\nOH9OajgFuGc41pl6OA5sZjiGP0k4rw9iOH/3dzgTG4k4n5JeOIlEaTjJeIU4rxWCOB0xZDhmMYE4\r\nm7aCOG2VczhKIl04RaVnOEDgdTgwiGw4n8SAOGjUdTgyAWA4kpqIOO1peTi5pnQ4tdF+OPV3jTjZ\r\nKGk4hzlkOFNyhTi6WXY43e94OLBEbjizQ2E4uIRqOE0VbTgZ2HU4G3J8OHnFZTgk0GY4RBKCODBr\r\niDhzjHc4lbN5OGojeTi034E4/Ex5ODuueziHQ4c4HQ53OKqzizixomw4ufWKOMi+eDif72w48/SB\r\nODxGcTjj0F04yoNoOMQWZji4q3w4UtdzOMeXgjjTx4Q4OkBrONP1dzj4nHA4ADKKOA==",
                            "noiseTrainingType" : "default"
                          }
                        }
                    ],
                    "start" : 16717,
                    "duration" : 1885,
                    "mediaStart" : 2962,
                    "mediaDuration" : 1885,
                    "scalar" : 1,
                    "metadata" : {
                      "AutoAppliedSmartFocus" : "False",
                      "WinSubProjectDisplayName" : "",
                      "clipSpeedAttribute" : false
                    },
                    "animationTracks" : {

                    }
                  },
                  {
                    "id" : 158,
                    "_type" : "StitchedMedia",
                    "minMediaStart" : 0,
                    "attributes" : {
                      "ident" : "tower-05",
                      "gain" : 1.0,
                      "mixToMono" : false
                    },
                    "parameters" : {
                      "volume" : {
                        "type" : "double",
                        "keyframes" : [
                          {
                            "endTime" : 0,
                            "time" : 0,
                            "value" : 1.0,
                            "duration" : 0
                          },
                          {
                            "endTime" : 4858,
                            "time" : 4858,
                            "value" : 1.0,
                            "duration" : 0
                          },
                          {
                            "endTime" : 4859,
                            "time" : 4859,
                            "value" : 0.0,
                            "duration" : 0
                          },
                          {
                            "endTime" : 4860,
                            "time" : 4860,
                            "value" : 1.0,
                            "duration" : 0
                          }
                        ]
                      },
                      "cursorOpacity" : 1.0,
                      "cursorScale" : 1.0
                    },
                    "medias" : [
                        {
                          "id" : 159,
                          "_type" : "UnifiedMedia",
                          "video" : 
                              {
                                "id" : 160,
                                "_type" : "ScreenVMFile",
                                "src" : 5,
                                "trackNumber" : 0,
                                "attributes" : {
                                  "ident" : "Rec 02-04-20_007"
                                },
                                "parameters" : {
                                  "cursorScale" : {
                                    "type" : "double",
                                    "defaultValue" : 0.0,
                                    "interp" : "linr"
                                  },
                                  "cursorOpacity" : {
                                    "type" : "double",
                                    "defaultValue" : 0.0,
                                    "interp" : "linr"
                                  }
                                },
                                "effects" : [

                                ],
                                "start" : 0,
                                "duration" : 1383,
                                "mediaStart" : 0,
                                "mediaDuration" : 1383,
                                "scalar" : 1,
                                "animationTracks" : {

                                }
                              },
                          "audio" : 
                              {
                                "id" : 161,
                                "_type" : "AMFile",
                                "src" : 5,
                                "trackNumber" : 1,
                                "attributes" : {
                                  "ident" : "",
                                  "sampleRate" : 44100,
                                  "bitDepth" : 16,
                                  "gain" : 1.0,
                                  "mixToMono" : false
                                },
                                  "channelNumber" : "0,1",
                                "effects" : [

                                ],
                                "start" : 0,
                                "duration" : 1383,
                                "mediaStart" : 0,
                                "mediaDuration" : 1383,
                                "scalar" : 1,
                                "animationTracks" : {

                                }
                              }
,
                          "start" : 0,
                          "duration" : 1383,
                          "mediaStart" : 0,
                          "mediaDuration" : 15796,
                          "scalar" : 1,
                          "metadata" : {
                            "AutoAppliedSmartFocus" : "False",
                            "WinSubProjectDisplayName" : "",
                            "clipSpeedAttribute" : false
                          }
                        },
                        {
                          "id" : 162,
                          "_type" : "UnifiedMedia",
                          "video" : 
                              {
                                "id" : 163,
                                "_type" : "ScreenVMFile",
                                "src" : 5,
                                "trackNumber" : 0,
                                "attributes" : {
                                  "ident" : "Rec 02-04-20_007"
                                },
                                "parameters" : {
                                  "cursorScale" : {
                                    "type" : "double",
                                    "defaultValue" : 0.0,
                                    "interp" : "linr"
                                  },
                                  "cursorOpacity" : {
                                    "type" : "double",
                                    "defaultValue" : 0.0,
                                    "interp" : "linr"
                                  }
                                },
                                "effects" : [

                                ],
                                "start" : 1383,
                                "duration" : 2726,
                                "mediaStart" : 1406,
                                "mediaDuration" : 2726,
                                "scalar" : 1,
                                "animationTracks" : {

                                }
                              },
                          "audio" : 
                              {
                                "id" : 164,
                                "_type" : "AMFile",
                                "src" : 5,
                                "trackNumber" : 1,
                                "attributes" : {
                                  "ident" : "",
                                  "sampleRate" : 44100,
                                  "bitDepth" : 16,
                                  "gain" : 1.0,
                                  "mixToMono" : false
                                },
                                  "channelNumber" : "0,1",
                                "effects" : [

                                ],
                                "start" : 1383,
                                "duration" : 2726,
                                "mediaStart" : 1406,
                                "mediaDuration" : 2726,
                                "scalar" : 1,
                                "animationTracks" : {

                                }
                              }
,
                          "start" : 1383,
                          "duration" : 2726,
                          "mediaStart" : 0,
                          "mediaDuration" : 15796,
                          "scalar" : 1,
                          "metadata" : {
                            "AutoAppliedSmartFocus" : "False",
                            "WinSubProjectDisplayName" : "",
                            "clipSpeedAttribute" : false
                          }
                        },
                        {
                          "id" : 165,
                          "_type" : "UnifiedMedia",
                          "video" : 
                              {
                                "id" : 166,
                                "_type" : "ScreenVMFile",
                                "src" : 5,
                                "trackNumber" : 0,
                                "attributes" : {
                                  "ident" : "Rec 02-04-20_007"
                                },
                                "parameters" : {
                                  "cursorScale" : {
                                    "type" : "double",
                                    "defaultValue" : 0.0,
                                    "interp" : "linr"
                                  },
                                  "cursorOpacity" : {
                                    "type" : "double",
                                    "defaultValue" : 0.0,
                                    "interp" : "linr"
                                  }
                                },
                                "effects" : [

                                ],
                                "start" : 4109,
                                "duration" : 424,
                                "mediaStart" : 4173,
                                "mediaDuration" : 424,
                                "scalar" : 1,
                                "animationTracks" : {

                                }
                              },
                          "audio" : 
                              {
                                "id" : 167,
                                "_type" : "AMFile",
                                "src" : 5,
                                "trackNumber" : 1,
                                "attributes" : {
                                  "ident" : "",
                                  "sampleRate" : 44100,
                                  "bitDepth" : 16,
                                  "gain" : 1.0,
                                  "mixToMono" : false
                                },
                                  "channelNumber" : "0,1",
                                "effects" : [

                                ],
                                "start" : 4109,
                                "duration" : 424,
                                "mediaStart" : 4173,
                                "mediaDuration" : 424,
                                "scalar" : 1,
                                "animationTracks" : {

                                }
                              }
,
                          "start" : 4109,
                          "duration" : 424,
                          "mediaStart" : 0,
                          "mediaDuration" : 15796,
                          "scalar" : 1,
                          "metadata" : {
                            "AutoAppliedSmartFocus" : "False",
                            "WinSubProjectDisplayName" : "",
                            "clipSpeedAttribute" : false
                          }
                        },
                        {
                          "id" : 168,
                          "_type" : "UnifiedMedia",
                          "video" : 
                              {
                                "id" : 169,
                                "_type" : "ScreenVMFile",
                                "src" : 5,
                                "trackNumber" : 0,
                                "attributes" : {
                                  "ident" : "Rec 02-04-20_007"
                                },
                                "parameters" : {
                                  "cursorScale" : {
                                    "type" : "double",
                                    "defaultValue" : 0.0,
                                    "interp" : "linr"
                                  },
                                  "cursorOpacity" : {
                                    "type" : "double",
                                    "defaultValue" : 0.0,
                                    "interp" : "linr"
                                  }
                                },
                                "effects" : [

                                ],
                                "start" : 4533,
                                "duration" : 139,
                                "mediaStart" : 4741,
                                "mediaDuration" : 139,
                                "scalar" : 1,
                                "animationTracks" : {

                                }
                              },
                          "audio" : 
                              {
                                "id" : 170,
                                "_type" : "AMFile",
                                "src" : 5,
                                "trackNumber" : 1,
                                "attributes" : {
                                  "ident" : "",
                                  "sampleRate" : 44100,
                                  "bitDepth" : 16,
                                  "gain" : 1.0,
                                  "mixToMono" : false
                                },
                                  "channelNumber" : "0,1",
                                "effects" : [

                                ],
                                "start" : 4533,
                                "duration" : 139,
                                "mediaStart" : 4741,
                                "mediaDuration" : 139,
                                "scalar" : 1,
                                "animationTracks" : {

                                }
                              }
,
                          "start" : 4533,
                          "duration" : 139,
                          "mediaStart" : 0,
                          "mediaDuration" : 15796,
                          "scalar" : 1,
                          "metadata" : {
                            "AutoAppliedSmartFocus" : "False",
                            "WinSubProjectDisplayName" : "",
                            "clipSpeedAttribute" : false
                          }
                        },
                        {
                          "id" : 171,
                          "_type" : "UnifiedMedia",
                          "video" : 
                              {
                                "id" : 172,
                                "_type" : "ScreenVMFile",
                                "src" : 5,
                                "trackNumber" : 0,
                                "attributes" : {
                                  "ident" : "Rec 02-04-20_007"
                                },
                                "parameters" : {
                                  "cursorScale" : {
                                    "type" : "double",
                                    "defaultValue" : 0.0,
                                    "interp" : "linr"
                                  },
                                  "cursorOpacity" : {
                                    "type" : "double",
                                    "defaultValue" : 0.0,
                                    "interp" : "linr"
                                  }
                                },
                                "effects" : [

                                ],
                                "start" : 4672,
                                "duration" : 212,
                                "mediaStart" : 5022,
                                "mediaDuration" : 212,
                                "scalar" : 1,
                                "animationTracks" : {

                                }
                              },
                          "audio" : 
                              {
                                "id" : 173,
                                "_type" : "AMFile",
                                "src" : 5,
                                "trackNumber" : 1,
                                "attributes" : {
                                  "ident" : "",
                                  "sampleRate" : 44100,
                                  "bitDepth" : 16,
                                  "gain" : 1.0,
                                  "mixToMono" : false
                                },
                                  "channelNumber" : "0,1",
                                "effects" : [

                                ],
                                "start" : 4672,
                                "duration" : 212,
                                "mediaStart" : 5022,
                                "mediaDuration" : 212,
                                "scalar" : 1,
                                "animationTracks" : {

                                }
                              }
,
                          "start" : 4672,
                          "duration" : 212,
                          "mediaStart" : 0,
                          "mediaDuration" : 15796,
                          "scalar" : 1,
                          "metadata" : {
                            "AutoAppliedSmartFocus" : "False",
                            "WinSubProjectDisplayName" : "",
                            "clipSpeedAttribute" : false
                          }
                        },
                        {
                          "id" : 174,
                          "_type" : "UnifiedMedia",
                          "video" : 
                              {
                                "id" : 175,
                                "_type" : "ScreenVMFile",
                                "src" : 5,
                                "trackNumber" : 0,
                                "attributes" : {
                                  "ident" : "Rec 02-04-20_007"
                                },
                                "parameters" : {
                                  "cursorScale" : {
                                    "type" : "double",
                                    "defaultValue" : 0.0,
                                    "interp" : "linr"
                                  },
                                  "cursorOpacity" : {
                                    "type" : "double",
                                    "defaultValue" : 0.0,
                                    "interp" : "linr"
                                  }
                                },
                                "effects" : [

                                ],
                                "start" : 4884,
                                "duration" : 10553,
                                "mediaStart" : 5243,
                                "mediaDuration" : 10553,
                                "scalar" : 1,
                                "animationTracks" : {

                                }
                              },
                          "audio" : 
                              {
                                "id" : 176,
                                "_type" : "AMFile",
                                "src" : 5,
                                "trackNumber" : 1,
                                "attributes" : {
                                  "ident" : "",
                                  "sampleRate" : 44100,
                                  "bitDepth" : 16,
                                  "gain" : 1.0,
                                  "mixToMono" : false
                                },
                                  "channelNumber" : "0,1",
                                "effects" : [

                                ],
                                "start" : 4884,
                                "duration" : 10553,
                                "mediaStart" : 5243,
                                "mediaDuration" : 10553,
                                "scalar" : 1,
                                "animationTracks" : {

                                }
                              }
,
                          "start" : 4884,
                          "duration" : 10553,
                          "mediaStart" : 0,
                          "mediaDuration" : 15796,
                          "scalar" : 1,
                          "metadata" : {
                            "AutoAppliedSmartFocus" : "False",
                            "WinSubProjectDisplayName" : "",
                            "clipSpeedAttribute" : false
                          }
                        }
                    ],
                    "effects" : [
                        {
                          "effectName" : "NoiseReduction",
                          "category" : "categoryAudioEffects",
                          "parameters" : {
                            "denoiserAmount" : 20.0,
                            "denoiserThreshold" : 0.0,
                            "noiseProfile" : "0DLBQIHdHEFkF58/DucDP0ozzT57KmtAgMC/QJeMVkBqXPY/DM/ZQMiezz4uXQw/LmsPQAr6XUGb\r\n61tADcoFP5xdJz9feBE+k96HPoV1gT5t5ts+891TP321qT//4kpAYZFVP/Y5SEBV+cA/y9mkP1TE\r\nkD/IwDdBlGu3QPEnIECKjZ9A9zQeQR6sIkGDqRBB+MoTQPG91D8HiIJAV1n+P6aiLT8BC0o/tL6y\r\nP4CKdz+TTwpAgu3+PkNWRT+gxcc+oUg2QHnaPj+xh5U+dknYPzLVOT+xOLQ/CVWQP9L/V0A8xUNA\r\nPD0eQBE0C0C2arA/IDIFQIzaBkBP6ZFAYESvPzzwVz9stXM/LdNnP2R7TkDbvPU/3LQ9P2b3aD9/\r\nmdU+KgmKPggnJj9cFxpA+r7IP2xSjz7uI6Q+OPvAPooxbz7i1P49VuHhPVCFqD7keyZAx+LaPlz+\r\nbz6Fdvs9U1juPU5/Gj4RaoA+nEsSPn4JCD++RKM+d6QKPnB8oT0yKPA9nJBCPngjQz6ubLY9ileG\r\nPPKgSj1Jxbc94G0JPQxPYzwmXi092efQPdtqCT27jQc9Ky4yPXjt1z3+Y4Q+qWOVPRtdAT1ibEI9\r\nbSiFPa/kCT29bPQ8t1R6PWIuej338o4+YoobPVYHdT3irwI9Id5BPVQizzyal4o8Oto7PZQljz3V\r\nVZc8BPSuPOS1Ez1OsUA95umjPcrnGT0o+Qo95M01PRHiED31CgU9I94CPbQJQzzaG/o8ONkxPUKJ\r\n8zwMEV09eMDQPBrVQjzliHo8g0i2PEAUFD0MYwI9A+aRPWZo9jznDdY8L6VbPTI5Ej1qNRM9D5qt\r\nPNhShDzTRIs8oNaMPNNNRDzbawQ9wukyPRCmfT167cQ96HjXPFl3JT3pBr49dLyJPefi/jwg2lE9\r\nW2UKPV69tTzDfAA979SIPfaIGD2t9wY9pCWePJvaKz0PsKs81p2VPJCygzwfY6g8aMFRPDbiejy0\r\niq88JgMLPW22izx8hyQ9JVzIPEIyED0kHZc8kANAPASCmzyRv4Q8UaQKPaDdOTya/qY8SONgPO7m\r\nZj2SBMM8St5bPMcEFzySSNo7oXU1PIkPtTyHwME91CxcPbHibzzXumc8mZ7LPISshzzP8xs82rQj\r\nPBt37Dy9K0Y82igzPCOeyjttD9E7ffAqPBVpajyVa1U8L2iaPGWgnTwHWew7nXnIO3F0WTyf8RQ8\r\ncJ4rPFdMdzys2Qw9uZnrPBAoMDwjkYw8ZSrhO/YQrTvamQo86wSBPOe0Nz2l/wo9m3koPNV4hTsy\r\nH088fZQ9PLqm5Du70Qw8V98lPJuToDvGLYU81seCPI1N1DxMYPM79xOPPKw1/DzXfzA8KaJkPNHx\r\nFzwUl8M85ikqPTntpzzko9A8hCIcPGXopzvWlcM7H2AVPHi0OzybEZ47v2A6PPGfkzwEStg7ulaX\r\nO9ozhDymjo48xoL+PBELnzy7Co07q9xBPFfThzsPfUE8RaCDPL6FgjyIzSA8+oFWPLHJAjykVI87\r\nKsUbPJLaDTxgNq48I8asO1eRJDw3iso7flx+PNXbiDv0r4E8oCVaPBAKsTue9oE8wyc0PCIKpTtz\r\nqDA83NG1PNxFLjyyaac7A/NoOy3vpjs2ul87YvhsO+SNXzu82Hw78QEcPMkEOTxIsoM8elKOO4sD\r\nfjuwZ+Y7Fkz/O5JKyztCihU7prwPPDrVyTx0Bao80GnGPLkwJTzykXg7AE3MOuvpQjuwUVA7VIPF\r\nOsqWTjskaoE6vVaZOj+m0DpDQJ86vAAXOxrIRjrO2/I5rVkcOjy2DjoUuHM5HikWOgDpmzk2qrg5\r\nDNTKOQuAwTlKYZA5RZqnOcC+vjl6IMI5trduOaJGkTnid6E5QBqnOWXiHTk5Q0I5GJ2SOReokDmO\r\nrVE5spNOOYKTcznOllU5MAVuOWJaXTnR5VU5SgdqOcFKizm96m059pCAOWJxbzk2i2g5duKBOeQ3\r\nQznIUHc5w6hdOXh0RTkpQXg52sxvOSZKdzlqc2Q52JF4OUQXXjnwr1A5pItXOeI4Pzn1C3E5WM1V\r\nOUJGNTn2vE85yJNLOZZxQjmEDlI5hVJROWh6RTms10M5uQ88ObaQPTkQxUw5XUc2OedjPznSh0k5\r\n+jsyOdz8RDlbkS85BqlKOcVYQDnqsko5sm5DOeajPDlcFzc5MME0Ob87Lznq5Tg5nu43OY6rODmo\r\nKzk5HGw4OVduRTkqpDU5g8ssOY0ELTnQrDg5iNQzObkKJTlGsi05NnwuOaIULTn83zI5T3YkOTIj\r\nMTlKuyI5NOIeOYqlHDmukjU5Xs8kOaCrNDk7jDI5q8AoObeyLDnq/yY53uMlOUm3HDm0wR45ki8b\r\nOdfnFjkorCE5xLUeOZwEJDlw8CE5DNMhORyQFTnach05/zwgOfPAFDnqFho5guUjOVjtHjlo1Q05\r\nWjgaOWIAFDnmZgo5QxMSOYPdJDmTFRY5tH8WOWYODzl8Hg85Tw0ROU4qEjl+ShA5COIHOSWGCTmV\r\nBRM5JNMUOUSVCTkFiQ45Cs4OOYIeCznAxQk5JI0POa5CDzlWqw45JesQOQxZCDm89xw59qMSOfIK\r\nDDnLmgc5N33+OKKnCTkevvo4Sf8GOYQpDDmV2ws5NKgKOe7XBTk8ogg5n0kFOS55BDnY2wk5D0IE\r\nOSNFATnVZgU5fCf+OGi+9jiYhQQ5IzEBOdCV9jiuDQY5Eq/pOE6W8jhG3uk4WiP+OMD8BjmAgPE4\r\ncTHqOOTE9TjRUvA4KEj5OGp+Ajl8XOQ4WyPnOP5b+DgiSfE4OFzrOF1rATmsceI4O9YDObiw9ThT\r\nhfU4s1DzOGcR/Timm+o4rIj/OOH/9jinhPA44urWOGrn9jiWSfI4NuL3OIIPzji1Les4sB7dOKxP\r\n+ThAE+o4QJjdOERe8Tiwe8U42mTmOGIJ1TjJDt84UEXhOLyD2zjEfu04dezVOK033DgOZcQ4jyTb\r\nOIq+4jgC/tw4zmLjODrj1jhCyNc4A+fKOFyBzjgEBdU49TfcOFdG4DhqGMM4HFvQOG6UzTh4I9I4\r\nARbWOMaOzTiMYsA4ltfjOPeswjiGCNs4GgHeOJ5pzThMAs44k6fVOCASwzhJnMY4TAzSOJJY1TjG\r\nLdY4ykrWODJBwTin0ME4l5i7OBnWuDjgOb444d3FOEKqzDg+Vso4rAbOOM7Xyjg82rk4hLvHOEpz\r\nwDh8PMM4jRzIOBR0xThVMsE4Qtq/OA6HuTg0qs44ryi6OCLexziHKcM4nKDJOMFtuTjYVbY4rX3H\r\nOOb0wTg82sg4uu3FOII0wDg1eLw40XHAONnQxzimObg45yDBOJs1zTiVO7g4rPKzOK4GwjhaZb04\r\nO/y9OI5CwjgcKLE4mSfFOGe2pzjogb44gNC1OCb1tDiVq6848HW8OJmhvzg4Hrs406OmOIQDqTjl\r\nrZo4gvalOM66qDhr47M4+UG8OAXXsjjCSsI4VgqpOGVuoTh8ksk4HBeuOI4fszh0AKw4jTGxOEEl\r\npThziKw4Hn+iOLvBrjgPkrs40jqnOMNOrzhQI6I4FniVOOgcsDj0Apw4lq+vOIgArzgaZbM4HLOi\r\nOFcYpDjGmqc4CMKiOPHJmziPnKA44IWmOCqJnDh6z604uWauOGHYsTiGs5c4CGSVOMYEnTh+Pak4\r\nGJKYOIeeoDiKbJs4EDueONWooziPJ6o4YdaqOOjPkDgRZZ446qSyOGAxmjgD9qE44dOeOJpqmDgk\r\npq44yQSoOPw0lzjCyak4pEmiOIF3qzgbJ5s4/BygOKtfpzgYtJ04aZWZOHxGmDi0VLI4PGaXOISm\r\niThAw5o4yGioOLCDjzhEXJ44mnyeOFC6pDhu6Js486ikOM/XmTiVppk4XmuaOBLClzjFmIY4wk+O\r\nOBgApDh1/aA4YlWfOHRwpTjmlJg4XrKMODoFizgy5KM4bvSfOAr9jThHIJ04mZWZOIXKZzhw0Is4\r\n0+KiOIIqijgwlZM4GlaCOGGapTj1L5E4NjqeOI5JjTgGr5k4VBmDOJuOjDjCrZk4ckmBOGfPlziT\r\nuZM4Rm2AOGcMqzgKt544ZmyNOOLNkDg5DI44/paNOLm5jjh7eJE4jYyOOE0giTg40aQ4B3aIOMjE\r\nmDhNDYM4PGSGODkomDiW1Jo4CH2GOFL9kDht7oQ442uMOGtAjDi5Uow4ArOfOJGCiTh4C54485qI\r\nOCcPbDhnK5Y4HzqUOEiziTgqAoY48VeNOKmBjTiAcZI4fguHONQPjjiC2IU40PuNOEJfijhFKGw4\r\nHKyCOD7jkzgREYM4PC6GODFVizj2NIQ4ni2HOAxEiDh+UIA41i98OBK/gDjyjpI4EweJOOCEgzj+\r\nopQ4YHaPONCKmDhoKJo4Fn9yOHbgmTg6r5A44i2HOFcejji/o4o46nKVOH7Xjzhxu344/JWEOE1c\r\neThqs4o4nv+GODmFmzj9v5E4CU2WOAGEezizgog44S+UOJbNhzjCNHs4AFV/OPHehDiaUHM4iPyR\r\nOKRrbjhFU4w4I3GYOCHrjTho2ZE4PwOPOD5ZiDiDfI44qqKPOL2iizgseIk4HkCLOIUufDi9T4c4\r\n/35sOLcUkzh8+Ig40hRhONTpijj3uGw4C0SQOEJBgziJrYM4ubNvOG3WhThmP484dUh6OAAoeTg5\r\nIno42J6IOPgLgzh/OYc4fyllOKXjhjhsxFU4wcKROPv0ijhLy3U4dc9/OH5DaDgmfYk4RXmCOM8V\r\ndzhAJHw4m6eBOF0Rbzg2AH84T1h8OJMfczinC5A4AlaMOOLfRjiDMoQ4X4+CODh5hjhIw484eA6B\r\nOA1CkDiu1Y049r2NOLfUfjiIMoA4KGeNOJLFaDgZ0mc4FJ6AODT4VThtQ1c4EJaJOKAobziEUYU4\r\nTDh7OH5ocDiYKmA4SupvOKJuczg0kow4/997OBccbjh5KXg4odyJOF/ZbDjE6Xo4MaR2OFP4aDh9\r\n3II4DglgOIhHYTgG31845X9/ODqzXjjgGm04Hsp0OONMeThtroU4NfZ1ONTTdTj0Elk4fYeCOGfb\r\ngDht7m44ha9zOOYXgDi/nYE4JGWAOJRMcTijSYk4fhqNODcWYzjOfXI4bhxrONa7eTgcP184Xit9\r\nOHXEbTg1PFo43jNlONpLZjiCA4U4m2FYOB0WfDguqWQ4yZ6KOAonfDjI3Wc4NNhiOADlhjgc7l84\r\n2cuAONqyazisAYA4DGJ7OFk2fjgj/Ws4CzWBODZiczgdGoY4GtxROIXWhDh4omU4XY9sOPGZhjje\r\nsXE4zsp4ODWfdTg8d3Q4pPJvOPVjhTir2XE4ifR5OMfOaTgtB1w4Rk+FOEi8bDgwgXI4iCyAOA2g\r\nfTgfKGU4QHdjOOHOgDhaAYc4pu6EOBWadzjmnWk4SkyDOBxjfzhHe3M4M4xpOAQ/hzi7bWQ4Uqxv\r\nOIUkgzhRFoA424VdOFN8dDim0lM4FHp4OKQzgjiF5mg4LBRzOFLEgjiF2Fs4wU2EOIAAgTjQMsFA\r\ngd0cQWQXnz8O5wM/TCzNPnsqa0CAwL9Al4xWQI5T9j8Mz9lAyJ7PPi5dDD8uaw9A9vZdQQ/yW0AL\r\n5wU/BIQnP5uPET6L/Yc+hXWBPm3m2z7z3VM/fbWpP//iSkBhkVU/aExIQCfowD8P26Q/VMSQP3LE\r\nN0FyZbdA8ScgQAaMn0DRMB5BsbMiQYOpEEH4yhNA777UP1J9gkBXWf4/R64tPwELSj+0vrI/gIp3\r\nP1BPCkDjnf4+NDdFP6DFxz6hSDZAedo+P0KElT52Sdg/e945P7E4tD8JVZA/0v9XQDzFQ0BPNx5A\r\nETQLQCiKsD8gMgVAjNoGQE/pkUDrQa8/PPBXP2y1cz+RvGc/ZHtOQNu89T8M4z0/4NloP3W81T4q\r\nCYo+CCcmP3QwGkCEusg/nWyPPioMpD7K8sA+ijFvPsJ8/j1W4eE9ZJeoPiplJkDH4to+/fxvPhqB\r\n+z1uTu498KcaPpKggD5BgxI+fgkIP62joz6JCws+cHyhPTIo8D2ckEI+eCNDPh2Itj0lsYY8nClL\r\nPQx3tz3gbQk9DE9jPE4iLj14QtE922oJPbuNBz1QpjI9CPfXPTdphD6pY5U9sHEBPWJsQj1tKIU9\r\nr+QJPcFt9Dy8P3o9GiR6PaP3jj5iihs9r4x1PdwqAj0h3kE9TODOPBoNizw62js9lCWPPaiFlzwE\r\n9K485LUTPZl6QD3n6qM9yucZPSj5Cj3kzTU98zQRPVkqBD0j3gI9FBhDPNob+jwyijE9G6DyPAwR\r\nXT22nNA8BLtEPOWIejyDSLY8QBQUPXh+Aj0D5pE9MFj2PPD/1Txn1lo9MjkSPWo1Ez2vK6082FKE\r\nPNNEizyg1ow8J8hEPJpDBD3C6TI9EKZ9PXrtxD3oeNc8WXclPekGvj10vIk95+L+PCDaUT1bZQo9\r\nXr21PDCBAT3JqYg99ogYPa33Bj2kJZ48/r8rPfYArTwlkpU8YLSDPGkEqDxwz1E8lNF6PLT6rzwm\r\nAws9bbaLPHyHJD0lXMg8jw8QPZK2ljwmzz88BIKbPJG/hDxRpAo9RH85PJr+pjxI42A87uZmPZIE\r\nwzwosFw80QcYPIzd2DuhdTU8fDG1PIfAwT3ULFw9QKhvPNe6ZzyZnss8hKyHPNowGzxLmiM8G3fs\r\nPL0rRjzRmTM8PBDKO20P0Tv0JCw89sRpPJVrVTwvaJo8ZaCdPAdZ7Dudecg76+ZYPJ/xFDzFRyw8\r\nV0x3PDuFDD3Bcus8ECgwPCORjDyPUOE7FBywO30KCzzrBIE857Q3PaX/Cj2beSg81lOFO6TpTjx9\r\nlD08bdPkOxSsCzxX3yU8FiGgO82jhDyLGYM8jU3UPJvr8zv3E488rDX8PNd/MDwpomQ80fEXPEyi\r\nwjzmKSo9bDaoPO760DyEIhw8ZeinO9aVwzuzfxU8eLQ7PCH5nDvyWjo8W7yTPC8s2Du6Vpc79rqD\r\nPKaOjjysVP48EQufPF4zjjujJUI8V9OHO1tYQTxFoIM8tsOCPIjNIDz6gVY8+qgCPKRUjzsqxRs8\r\nktoNPGA2rjw3Ia47V5EkPDe8yTvxPX486euHO5gbgjygJVo8EAqxOyYSgzybvDQ8nnGkO3OoMDzc\r\n0bU83EUuPPNXpzsNXmo71uWmO/82XTsSgGk7ykVeO5b0fDuViBw8yQQ5PPFOgzx6Uo47iwN+O3lO\r\n5jtiw/87vOLKO2XaEjumvA88OtXJPFSmqTzQacY8uTAlPMOYeTsATcw66+lCOwNGUDtUg8U6zf9N\r\nO6c4gTogNZw6EanWOkTGozp8fhU7w7lFOs7b8jmtWRw66n8OOhS4cznKkBU65s6XOd49vzkM1Mo5\r\n60e5OblIkjmk5KM5I1fFOfnKvznMVXU5adqKOQjimzmwO6o5Fp0kOWlGLzk/m4857HWGOUbgZznY\r\nCUU5WS6WOWVZSDkjZlE52iB5OZqTXTkouDo5gZqSOdBaXDnK8ls5oFBxORDVdzkG4Hk59HBjOfg5\r\nSDm4XWM54R10Oe6NWTm8FVs59h9qObFOTDkar1s56BhmOTwbXTk7oFg5Qk1SOfVERzmjhFU5RKRH\r\nOZeURjk0qUM55GFMOUoXRznU8Uk5cs9KOUiyPzndSU054qJAOcqASzlwzDo5EKBGOT44QzmjvjQ5\r\nqlJMOYpHNTlTnUQ5p+o5OQJVRjmIfU85Tpo7OZdtQzmlOUA5as8xOSpgPzma6T45SBI2OUamOjnO\r\nWDs5ERJCOQBnMjk6x0A53sA0OWakLjlQXDc5fqghOZotMTlYKy05L9IvOdZJITnoySM5uO41Oc3W\r\nHTnnkiQ57uwhOaS7LTm8Kys5R6Q5Obj1MTlTISk5SO4nOQ+BLjlyfS05Xn0fOfp/GTnMpxo5KzMU\r\nOZ4ZHTn8aSY5FNYcOX5FIjmu3SE5vrgVOT1LJzmu3xo5H6okOUmKFzntgBo50i0dOTBJETkc/SQ5\r\nxqYROVuxFTn8vBc5yuoeOXzOGDn4DCE51KUkOc9bGzmY+gU5BvoeOblFBzmIFg05A3EQORj0Dzmg\r\nCxA5FjQWOUGvEjnEzRQ5ZdINORrBDjlyexg5ybkLOXZiBTnIZwU5+gwGOXBYFDlCGBo5mlEMOYo3\r\nBDnYOgU59qkAOY4P9ThoRAo5RkH+OIYiEjmyVwc5bvYGOZFiBzlf1QE5sgAGOaq8DjkuNgI5sRD+\r\nOK9r+DgaDOk4YfHiOH7h+Ti3gQk5QpX7OLPH8DhDhug4EsPyOH7/9DioE/A4FDf/OAAK+jhyzes4\r\nJcTtOLqlAjnOx/k4Zn8COURm8DjXz+w4s0joOCdf7zgHt+44ZET7OJpK4zgbWgU5bOTkONCX7DgS\r\n8AQ5JkT6ODBO/zgwPvE4kgkAOfNU+DgMleg4fJT7OJ9N4TiA/+046iXoOJIu7jj7I+I4ADL4OFEV\r\n6Ti7zeg4FwjVOJ3n0DhTMfY4QsrQOPK20zhqgtw4F5bjOPsz+ThFI7s4JjjaODUi1zgKJNc4raq7\r\nOLSr2jgweuc49ULhOCAp4DgcFNE43nnEOI61zziPf9E4Et7kOM284Dh0YMw43j3cOD7u1jgItsg4\r\ntgnYOLJZwDjgFdE4lNLeOJep3zihC8s4tKnMOOFvyjhnDdI4kITbOIw9xDgoRsY4eBHMOMX3zzgJ\r\nj8Y47hvOOE0VujjjesA47CPWOAAe2jgP4MU47LLKONRbszgYWNk4iv7AOFiVsjjYpMY4ogDLOFy2\r\nvDiFwcs4QB3FOIxBxjg+Or04HOHHOPFRwzijKbs4KuW/ODzmwzgCLsM4s2G8OKN9tTjnJsA4wgax\r\nOAhYwTgXt8k4mqfGOJ4WvzjUIs44GlDCOIxXwTj6jcQ4dxXDOPDltzjzlaI4pDK/OBD6rzj4s7s4\r\n+jPEOD3Ltjg+sbc4ysK1OH9SsThaja04nnWyOAChujiuh8A4b+a4OKEZpjgyo7A4V2m5OIovljiX\r\nNKs4PoKzOBRMrDhNErQ4Aj2zOCmFtjhYPag4JkihOMOwtjh92a04dC2lOA0cqDiN0ac4TGKkOOPi\r\npDj4R604+O+yOGSCwDh4y5o4pnmuOPN6nzgKM5c4KEe0OC7kmzixJb04JYqsOE9Brji4tpc4Inyh\r\nOFE3rTikw6Y4suOoOPwtnjiSkaI4khupOCRanjg0X7A4bBagOKG0rTjUVaQ4tLmdOOrekzjqVas4\r\npmajOAGAnDhC8a84vaCPOAMBnjhI8qg4/42bONJ1mThgdKI4QCaqODTSrDgWmKo44GOcOCaXsThq\r\nsqA41nKYOAgyqDjCOqs4aSefOGO0ozjpLpE49iumOJ2Sljjor5g4ZcubOCkmrTgrApc4ARybOFRT\r\nkTggl6U4ZIeROPIhoDjXyJI44OKfOLwJkzg7h6Q4SW2UOLVrkjg2SZE4qyuiOHIjjDhTapc4CICp\r\nOBquozi7I4g4hfWYOIxsoTioRpA4WVSZOMYWnTjdTqA4oBiTOCRunDhim6Y4/pKEOGNllziZH504\r\n8MOLONeCnTgedok4LXaYOIZKhjhUwq04Rx+aONjDlDhEqI44vTSMONv+hTi4qYI4RNedOL1pjTi+\r\nOp048SqnOLYqojgPOKE4ljKSOILvgjh/nZc4yy2SOJe0jjgZO4k4/s6IOBjJnDinboM4W/OZOE3q\r\nijig75k4AEuTOL/rizhuzIE4/cByOEtGnDhf3pU4YsCMOPl8izhhQJY4P0iPODulozi8+IY4RY+C\r\nOCGviThar5E4IsyOOOuPiTiKwoo4WmeOOIctjjiXC4s4ibqDOKh6eDhaC4c4PfKJOA7XizhYm344\r\nHIWiOGwzgzjYdo04a1ekOMnxgziCTYs4AauFOIXcazghLow4IleTOKOpjzhRh4I4QNyGOIhDlDgz\r\nKI84/3SSOClpnTi4yI44dBqPOJN9mjgzfIc4FkyNOLRchTiO84s49ct8ONoQZzjbbY84RoV3OLOq\r\nhTi9N4M4PIaXOEHGmzgOfYw4ZjCKOEHeizgIL4s46RFyOCFwfTh2I2s4dfWJOAbjiTh7n4Q4buxy\r\nOO98gDgDFJA4xlWCOC1sgDhoXYk4TceLOJKjkDjAsYQ4nA+PONXIgTjiC404Yq54OHGDjDgUC3k4\r\nuZWAOGDphjhcAmU4/72LOD0lgjgK2Is4IgaIOMCIgjgTnns4f2eDOPe8bThkgH04dA2DOBQNdjje\r\nRoA4qxaHOP81hTgQyXE44GaGOJR6gTgHM4g4kBuJOLkjbTg3S3E4806HOCi/gDh2LYA4mv6LONwC\r\ndzjhZ4M4DK1fOM5hgThTlWA4hluGONazfzgDBHs4tS5jOMq0gThKu4w4hvR7OK62fjjEGIk4vi+N\r\nOI70gDjJ1YI4sqKPOEZgbDjg/Y04R+F0OKS2aDhlFJA4WAFqOP/XZDhxS444RVpsOA3XdDjy+HU4\r\nHdtqODRvZjhRJWA4CGuDONP0fjhD9Xg4DCpnOJI/gjgyUpA4q+5TOEEkYzgxjY04uSFhOP9YgTgm\r\n3WQ4Io1hOO9VeDi9woM4tqByODnxaDiYlnI4jcB/OOgAdjh+CXI4ZnJqOBtRXjjbyH04ZIeBOBJc\r\neDjr0n84w8qJODaggDgNunM4wrSCOIzXfDi6YoI4fQZiOK4aYTju5YE4BZVfOKiLXDhUY3g45N11\r\nOH9OajgFuGc41pl6OA5sZjiGP0k4rw9iOH/3dzgTG4k4n5JeOIlEaTjJeIU4rxWCOB0xZDhmMYE4\r\nm7aCOG2VczhKIl04RaVnOEDgdTgwiGw4n8SAOGjUdTgyAWA4kpqIOO1peTi5pnQ4tdF+OPV3jTjZ\r\nKGk4hzlkOFNyhTi6WXY43e94OLBEbjizQ2E4uIRqOE0VbTgZ2HU4G3J8OHnFZTgk0GY4RBKCODBr\r\niDhzjHc4lbN5OGojeTi034E4/Ex5ODuueziHQ4c4HQ53OKqzizixomw4ufWKOMi+eDif72w48/SB\r\nODxGcTjj0F04yoNoOMQWZji4q3w4UtdzOMeXgjjTx4Q4OkBrONP1dzj4nHA4ADKKOA==",
                            "noiseTrainingType" : "default"
                          }
                        }
                    ],
                    "start" : 18602,
                    "duration" : 245,
                    "mediaStart" : 4859,
                    "mediaDuration" : 245,
                    "scalar" : 1,
                    "metadata" : {
                      "AutoAppliedSmartFocus" : "False",
                      "WinSubProjectDisplayName" : "",
                      "clipSpeedAttribute" : false
                    },
                    "animationTracks" : {

                    }
                  },
                  {
                    "id" : 177,
                    "_type" : "StitchedMedia",
                    "minMediaStart" : 0,
                    "attributes" : {
                      "ident" : "tower-05",
                      "gain" : 1.0,
                      "mixToMono" : false
                    },
                    "parameters" : {
                      "volume" : {
                        "type" : "double",
                        "keyframes" : [
                          {
                            "endTime" : 0,
                            "time" : 0,
                            "value" : 1.0,
                            "duration" : 0
                          },
                          {
                            "endTime" : 4858,
                            "time" : 4858,
                            "value" : 1.0,
                            "duration" : 0
                          },
                          {
                            "endTime" : 4859,
                            "time" : 4859,
                            "value" : 0.0,
                            "duration" : 0
                          },
                          {
                            "endTime" : 4860,
                            "time" : 4860,
                            "value" : 1.0,
                            "duration" : 0
                          }
                        ]
                      },
                      "cursorOpacity" : 1.0,
                      "cursorScale" : 1.0
                    },
                    "medias" : [
                        {
                          "id" : 178,
                          "_type" : "UnifiedMedia",
                          "video" : 
                              {
                                "id" : 179,
                                "_type" : "ScreenVMFile",
                                "src" : 5,
                                "trackNumber" : 0,
                                "attributes" : {
                                  "ident" : "Rec 02-04-20_007"
                                },
                                "parameters" : {
                                  "cursorScale" : {
                                    "type" : "double",
                                    "defaultValue" : 0.0,
                                    "interp" : "linr"
                                  },
                                  "cursorOpacity" : {
                                    "type" : "double",
                                    "defaultValue" : 0.0,
                                    "interp" : "linr"
                                  }
                                },
                                "effects" : [

                                ],
                                "start" : 0,
                                "duration" : 1383,
                                "mediaStart" : 0,
                                "mediaDuration" : 1383,
                                "scalar" : 1,
                                "animationTracks" : {

                                }
                              },
                          "audio" : 
                              {
                                "id" : 180,
                                "_type" : "AMFile",
                                "src" : 5,
                                "trackNumber" : 1,
                                "attributes" : {
                                  "ident" : "",
                                  "sampleRate" : 44100,
                                  "bitDepth" : 16,
                                  "gain" : 1.0,
                                  "mixToMono" : false
                                },
                                  "channelNumber" : "0,1",
                                "effects" : [

                                ],
                                "start" : 0,
                                "duration" : 1383,
                                "mediaStart" : 0,
                                "mediaDuration" : 1383,
                                "scalar" : 1,
                                "animationTracks" : {

                                }
                              }
,
                          "start" : 0,
                          "duration" : 1383,
                          "mediaStart" : 0,
                          "mediaDuration" : 15796,
                          "scalar" : 1,
                          "metadata" : {
                            "AutoAppliedSmartFocus" : "False",
                            "WinSubProjectDisplayName" : "",
                            "clipSpeedAttribute" : false
                          }
                        },
                        {
                          "id" : 181,
                          "_type" : "UnifiedMedia",
                          "video" : 
                              {
                                "id" : 182,
                                "_type" : "ScreenVMFile",
                                "src" : 5,
                                "trackNumber" : 0,
                                "attributes" : {
                                  "ident" : "Rec 02-04-20_007"
                                },
                                "parameters" : {
                                  "cursorScale" : {
                                    "type" : "double",
                                    "defaultValue" : 0.0,
                                    "interp" : "linr"
                                  },
                                  "cursorOpacity" : {
                                    "type" : "double",
                                    "defaultValue" : 0.0,
                                    "interp" : "linr"
                                  }
                                },
                                "effects" : [

                                ],
                                "start" : 1383,
                                "duration" : 2726,
                                "mediaStart" : 1406,
                                "mediaDuration" : 2726,
                                "scalar" : 1,
                                "animationTracks" : {

                                }
                              },
                          "audio" : 
                              {
                                "id" : 183,
                                "_type" : "AMFile",
                                "src" : 5,
                                "trackNumber" : 1,
                                "attributes" : {
                                  "ident" : "",
                                  "sampleRate" : 44100,
                                  "bitDepth" : 16,
                                  "gain" : 1.0,
                                  "mixToMono" : false
                                },
                                  "channelNumber" : "0,1",
                                "effects" : [

                                ],
                                "start" : 1383,
                                "duration" : 2726,
                                "mediaStart" : 1406,
                                "mediaDuration" : 2726,
                                "scalar" : 1,
                                "animationTracks" : {

                                }
                              }
,
                          "start" : 1383,
                          "duration" : 2726,
                          "mediaStart" : 0,
                          "mediaDuration" : 15796,
                          "scalar" : 1,
                          "metadata" : {
                            "AutoAppliedSmartFocus" : "False",
                            "WinSubProjectDisplayName" : "",
                            "clipSpeedAttribute" : false
                          }
                        },
                        {
                          "id" : 184,
                          "_type" : "UnifiedMedia",
                          "video" : 
                              {
                                "id" : 185,
                                "_type" : "ScreenVMFile",
                                "src" : 5,
                                "trackNumber" : 0,
                                "attributes" : {
                                  "ident" : "Rec 02-04-20_007"
                                },
                                "parameters" : {
                                  "cursorScale" : {
                                    "type" : "double",
                                    "defaultValue" : 0.0,
                                    "interp" : "linr"
                                  },
                                  "cursorOpacity" : {
                                    "type" : "double",
                                    "defaultValue" : 0.0,
                                    "interp" : "linr"
                                  }
                                },
                                "effects" : [

                                ],
                                "start" : 4109,
                                "duration" : 424,
                                "mediaStart" : 4173,
                                "mediaDuration" : 424,
                                "scalar" : 1,
                                "animationTracks" : {

                                }
                              },
                          "audio" : 
                              {
                                "id" : 186,
                                "_type" : "AMFile",
                                "src" : 5,
                                "trackNumber" : 1,
                                "attributes" : {
                                  "ident" : "",
                                  "sampleRate" : 44100,
                                  "bitDepth" : 16,
                                  "gain" : 1.0,
                                  "mixToMono" : false
                                },
                                  "channelNumber" : "0,1",
                                "effects" : [

                                ],
                                "start" : 4109,
                                "duration" : 424,
                                "mediaStart" : 4173,
                                "mediaDuration" : 424,
                                "scalar" : 1,
                                "animationTracks" : {

                                }
                              }
,
                          "start" : 4109,
                          "duration" : 424,
                          "mediaStart" : 0,
                          "mediaDuration" : 15796,
                          "scalar" : 1,
                          "metadata" : {
                            "AutoAppliedSmartFocus" : "False",
                            "WinSubProjectDisplayName" : "",
                            "clipSpeedAttribute" : false
                          }
                        },
                        {
                          "id" : 187,
                          "_type" : "UnifiedMedia",
                          "video" : 
                              {
                                "id" : 188,
                                "_type" : "ScreenVMFile",
                                "src" : 5,
                                "trackNumber" : 0,
                                "attributes" : {
                                  "ident" : "Rec 02-04-20_007"
                                },
                                "parameters" : {
                                  "cursorScale" : {
                                    "type" : "double",
                                    "defaultValue" : 0.0,
                                    "interp" : "linr"
                                  },
                                  "cursorOpacity" : {
                                    "type" : "double",
                                    "defaultValue" : 0.0,
                                    "interp" : "linr"
                                  }
                                },
                                "effects" : [

                                ],
                                "start" : 4533,
                                "duration" : 139,
                                "mediaStart" : 4741,
                                "mediaDuration" : 139,
                                "scalar" : 1,
                                "animationTracks" : {

                                }
                              },
                          "audio" : 
                              {
                                "id" : 189,
                                "_type" : "AMFile",
                                "src" : 5,
                                "trackNumber" : 1,
                                "attributes" : {
                                  "ident" : "",
                                  "sampleRate" : 44100,
                                  "bitDepth" : 16,
                                  "gain" : 1.0,
                                  "mixToMono" : false
                                },
                                  "channelNumber" : "0,1",
                                "effects" : [

                                ],
                                "start" : 4533,
                                "duration" : 139,
                                "mediaStart" : 4741,
                                "mediaDuration" : 139,
                                "scalar" : 1,
                                "animationTracks" : {

                                }
                              }
,
                          "start" : 4533,
                          "duration" : 139,
                          "mediaStart" : 0,
                          "mediaDuration" : 15796,
                          "scalar" : 1,
                          "metadata" : {
                            "AutoAppliedSmartFocus" : "False",
                            "WinSubProjectDisplayName" : "",
                            "clipSpeedAttribute" : false
                          }
                        },
                        {
                          "id" : 190,
                          "_type" : "UnifiedMedia",
                          "video" : 
                              {
                                "id" : 191,
                                "_type" : "ScreenVMFile",
                                "src" : 5,
                                "trackNumber" : 0,
                                "attributes" : {
                                  "ident" : "Rec 02-04-20_007"
                                },
                                "parameters" : {
                                  "cursorScale" : {
                                    "type" : "double",
                                    "defaultValue" : 0.0,
                                    "interp" : "linr"
                                  },
                                  "cursorOpacity" : {
                                    "type" : "double",
                                    "defaultValue" : 0.0,
                                    "interp" : "linr"
                                  }
                                },
                                "effects" : [

                                ],
                                "start" : 4672,
                                "duration" : 212,
                                "mediaStart" : 5022,
                                "mediaDuration" : 212,
                                "scalar" : 1,
                                "animationTracks" : {

                                }
                              },
                          "audio" : 
                              {
                                "id" : 192,
                                "_type" : "AMFile",
                                "src" : 5,
                                "trackNumber" : 1,
                                "attributes" : {
                                  "ident" : "",
                                  "sampleRate" : 44100,
                                  "bitDepth" : 16,
                                  "gain" : 1.0,
                                  "mixToMono" : false
                                },
                                  "channelNumber" : "0,1",
                                "effects" : [

                                ],
                                "start" : 4672,
                                "duration" : 212,
                                "mediaStart" : 5022,
                                "mediaDuration" : 212,
                                "scalar" : 1,
                                "animationTracks" : {

                                }
                              }
,
                          "start" : 4672,
                          "duration" : 212,
                          "mediaStart" : 0,
                          "mediaDuration" : 15796,
                          "scalar" : 1,
                          "metadata" : {
                            "AutoAppliedSmartFocus" : "False",
                            "WinSubProjectDisplayName" : "",
                            "clipSpeedAttribute" : false
                          }
                        },
                        {
                          "id" : 193,
                          "_type" : "UnifiedMedia",
                          "video" : 
                              {
                                "id" : 194,
                                "_type" : "ScreenVMFile",
                                "src" : 5,
                                "trackNumber" : 0,
                                "attributes" : {
                                  "ident" : "Rec 02-04-20_007"
                                },
                                "parameters" : {
                                  "cursorScale" : {
                                    "type" : "double",
                                    "defaultValue" : 0.0,
                                    "interp" : "linr"
                                  },
                                  "cursorOpacity" : {
                                    "type" : "double",
                                    "defaultValue" : 0.0,
                                    "interp" : "linr"
                                  }
                                },
                                "effects" : [

                                ],
                                "start" : 4884,
                                "duration" : 634,
                                "mediaStart" : 5243,
                                "mediaDuration" : 634,
                                "scalar" : 1,
                                "animationTracks" : {

                                }
                              },
                          "audio" : 
                              {
                                "id" : 195,
                                "_type" : "AMFile",
                                "src" : 5,
                                "trackNumber" : 1,
                                "attributes" : {
                                  "ident" : "",
                                  "sampleRate" : 44100,
                                  "bitDepth" : 16,
                                  "gain" : 1.0,
                                  "mixToMono" : false
                                },
                                  "channelNumber" : "0,1",
                                "effects" : [

                                ],
                                "start" : 4884,
                                "duration" : 634,
                                "mediaStart" : 5243,
                                "mediaDuration" : 634,
                                "scalar" : 1,
                                "animationTracks" : {

                                }
                              }
,
                          "start" : 4884,
                          "duration" : 634,
                          "mediaStart" : 0,
                          "mediaDuration" : 15796,
                          "scalar" : 1,
                          "metadata" : {
                            "AutoAppliedSmartFocus" : "False",
                            "WinSubProjectDisplayName" : "",
                            "clipSpeedAttribute" : false
                          }
                        },
                        {
                          "id" : 196,
                          "_type" : "UnifiedMedia",
                          "video" : 
                              {
                                "id" : 197,
                                "_type" : "ScreenVMFile",
                                "src" : 5,
                                "trackNumber" : 0,
                                "attributes" : {
                                  "ident" : "Rec 02-04-20_007"
                                },
                                "parameters" : {
                                  "cursorScale" : {
                                    "type" : "double",
                                    "defaultValue" : 0.0,
                                    "interp" : "linr"
                                  },
                                  "cursorOpacity" : {
                                    "type" : "double",
                                    "defaultValue" : 0.0,
                                    "interp" : "linr"
                                  }
                                },
                                "effects" : [

                                ],
                                "start" : 5518,
                                "duration" : 188,
                                "mediaStart" : 5894,
                                "mediaDuration" : 188,
                                "scalar" : 1,
                                "animationTracks" : {

                                }
                              },
                          "audio" : 
                              {
                                "id" : 198,
                                "_type" : "AMFile",
                                "src" : 5,
                                "trackNumber" : 1,
                                "attributes" : {
                                  "ident" : "",
                                  "sampleRate" : 44100,
                                  "bitDepth" : 16,
                                  "gain" : 1.0,
                                  "mixToMono" : false
                                },
                                  "channelNumber" : "0,1",
                                "effects" : [

                                ],
                                "start" : 5518,
                                "duration" : 188,
                                "mediaStart" : 5894,
                                "mediaDuration" : 188,
                                "scalar" : 1,
                                "animationTracks" : {

                                }
                              }
,
                          "start" : 5518,
                          "duration" : 188,
                          "mediaStart" : 0,
                          "mediaDuration" : 15796,
                          "scalar" : 1,
                          "metadata" : {
                            "AutoAppliedSmartFocus" : "False",
                            "WinSubProjectDisplayName" : "",
                            "clipSpeedAttribute" : false
                          }
                        },
                        {
                          "id" : 199,
                          "_type" : "UnifiedMedia",
                          "video" : 
                              {
                                "id" : 200,
                                "_type" : "ScreenVMFile",
                                "src" : 5,
                                "trackNumber" : 0,
                                "attributes" : {
                                  "ident" : "Rec 02-04-20_007"
                                },
                                "parameters" : {
                                  "cursorScale" : {
                                    "type" : "double",
                                    "defaultValue" : 0.0,
                                    "interp" : "linr"
                                  },
                                  "cursorOpacity" : {
                                    "type" : "double",
                                    "defaultValue" : 0.0,
                                    "interp" : "linr"
                                  }
                                },
                                "effects" : [

                                ],
                                "start" : 5706,
                                "duration" : 19,
                                "mediaStart" : 6089,
                                "mediaDuration" : 19,
                                "scalar" : 1,
                                "animationTracks" : {

                                }
                              },
                          "audio" : 
                              {
                                "id" : 201,
                                "_type" : "AMFile",
                                "src" : 5,
                                "trackNumber" : 1,
                                "attributes" : {
                                  "ident" : "",
                                  "sampleRate" : 44100,
                                  "bitDepth" : 16,
                                  "gain" : 1.0,
                                  "mixToMono" : false
                                },
                                  "channelNumber" : "0,1",
                                "effects" : [

                                ],
                                "start" : 5706,
                                "duration" : 19,
                                "mediaStart" : 6089,
                                "mediaDuration" : 19,
                                "scalar" : 1,
                                "animationTracks" : {

                                }
                              }
,
                          "start" : 5706,
                          "duration" : 19,
                          "mediaStart" : 0,
                          "mediaDuration" : 15796,
                          "scalar" : 1,
                          "metadata" : {
                            "AutoAppliedSmartFocus" : "False",
                            "WinSubProjectDisplayName" : "",
                            "clipSpeedAttribute" : false
                          }
                        },
                        {
                          "id" : 202,
                          "_type" : "UnifiedMedia",
                          "video" : 
                              {
                                "id" : 203,
                                "_type" : "ScreenVMFile",
                                "src" : 5,
                                "trackNumber" : 0,
                                "attributes" : {
                                  "ident" : "Rec 02-04-20_007"
                                },
                                "parameters" : {
                                  "cursorScale" : {
                                    "type" : "double",
                                    "defaultValue" : 0.0,
                                    "interp" : "linr"
                                  },
                                  "cursorOpacity" : {
                                    "type" : "double",
                                    "defaultValue" : 0.0,
                                    "interp" : "linr"
                                  }
                                },
                                "effects" : [

                                ],
                                "start" : 5725,
                                "duration" : 18,
                                "mediaStart" : 6117,
                                "mediaDuration" : 18,
                                "scalar" : 1,
                                "animationTracks" : {

                                }
                              },
                          "audio" : 
                              {
                                "id" : 204,
                                "_type" : "AMFile",
                                "src" : 5,
                                "trackNumber" : 1,
                                "attributes" : {
                                  "ident" : "",
                                  "sampleRate" : 44100,
                                  "bitDepth" : 16,
                                  "gain" : 1.0,
                                  "mixToMono" : false
                                },
                                  "channelNumber" : "0,1",
                                "effects" : [

                                ],
                                "start" : 5725,
                                "duration" : 18,
                                "mediaStart" : 6117,
                                "mediaDuration" : 18,
                                "scalar" : 1,
                                "animationTracks" : {

                                }
                              }
,
                          "start" : 5725,
                          "duration" : 18,
                          "mediaStart" : 0,
                          "mediaDuration" : 15796,
                          "scalar" : 1,
                          "metadata" : {
                            "AutoAppliedSmartFocus" : "False",
                            "WinSubProjectDisplayName" : "",
                            "clipSpeedAttribute" : false
                          }
                        },
                        {
                          "id" : 205,
                          "_type" : "UnifiedMedia",
                          "video" : 
                              {
                                "id" : 206,
                                "_type" : "ScreenVMFile",
                                "src" : 5,
                                "trackNumber" : 0,
                                "attributes" : {
                                  "ident" : "Rec 02-04-20_007"
                                },
                                "parameters" : {
                                  "cursorScale" : {
                                    "type" : "double",
                                    "defaultValue" : 0.0,
                                    "interp" : "linr"
                                  },
                                  "cursorOpacity" : {
                                    "type" : "double",
                                    "defaultValue" : 0.0,
                                    "interp" : "linr"
                                  }
                                },
                                "effects" : [

                                ],
                                "start" : 5743,
                                "duration" : 9657,
                                "mediaStart" : 6139,
                                "mediaDuration" : 9657,
                                "scalar" : 1,
                                "animationTracks" : {

                                }
                              },
                          "audio" : 
                              {
                                "id" : 207,
                                "_type" : "AMFile",
                                "src" : 5,
                                "trackNumber" : 1,
                                "attributes" : {
                                  "ident" : "",
                                  "sampleRate" : 44100,
                                  "bitDepth" : 16,
                                  "gain" : 1.0,
                                  "mixToMono" : false
                                },
                                  "channelNumber" : "0,1",
                                "effects" : [

                                ],
                                "start" : 5743,
                                "duration" : 9657,
                                "mediaStart" : 6139,
                                "mediaDuration" : 9657,
                                "scalar" : 1,
                                "animationTracks" : {

                                }
                              }
,
                          "start" : 5743,
                          "duration" : 9657,
                          "mediaStart" : 0,
                          "mediaDuration" : 15796,
                          "scalar" : 1,
                          "metadata" : {
                            "AutoAppliedSmartFocus" : "False",
                            "WinSubProjectDisplayName" : "",
                            "clipSpeedAttribute" : false
                          }
                        }
                    ],
                    "effects" : [
                        {
                          "effectName" : "NoiseReduction",
                          "category" : "categoryAudioEffects",
                          "parameters" : {
                            "denoiserAmount" : 20.0,
                            "denoiserThreshold" : 0.0,
                            "noiseProfile" : "0DLBQIHdHEFkF58/DucDP0ozzT57KmtAgMC/QJeMVkBqXPY/DM/ZQMiezz4uXQw/LmsPQAr6XUGb\r\n61tADcoFP5xdJz9feBE+k96HPoV1gT5t5ts+891TP321qT//4kpAYZFVP/Y5SEBV+cA/y9mkP1TE\r\nkD/IwDdBlGu3QPEnIECKjZ9A9zQeQR6sIkGDqRBB+MoTQPG91D8HiIJAV1n+P6aiLT8BC0o/tL6y\r\nP4CKdz+TTwpAgu3+PkNWRT+gxcc+oUg2QHnaPj+xh5U+dknYPzLVOT+xOLQ/CVWQP9L/V0A8xUNA\r\nPD0eQBE0C0C2arA/IDIFQIzaBkBP6ZFAYESvPzzwVz9stXM/LdNnP2R7TkDbvPU/3LQ9P2b3aD9/\r\nmdU+KgmKPggnJj9cFxpA+r7IP2xSjz7uI6Q+OPvAPooxbz7i1P49VuHhPVCFqD7keyZAx+LaPlz+\r\nbz6Fdvs9U1juPU5/Gj4RaoA+nEsSPn4JCD++RKM+d6QKPnB8oT0yKPA9nJBCPngjQz6ubLY9ileG\r\nPPKgSj1Jxbc94G0JPQxPYzwmXi092efQPdtqCT27jQc9Ky4yPXjt1z3+Y4Q+qWOVPRtdAT1ibEI9\r\nbSiFPa/kCT29bPQ8t1R6PWIuej338o4+YoobPVYHdT3irwI9Id5BPVQizzyal4o8Oto7PZQljz3V\r\nVZc8BPSuPOS1Ez1OsUA95umjPcrnGT0o+Qo95M01PRHiED31CgU9I94CPbQJQzzaG/o8ONkxPUKJ\r\n8zwMEV09eMDQPBrVQjzliHo8g0i2PEAUFD0MYwI9A+aRPWZo9jznDdY8L6VbPTI5Ej1qNRM9D5qt\r\nPNhShDzTRIs8oNaMPNNNRDzbawQ9wukyPRCmfT167cQ96HjXPFl3JT3pBr49dLyJPefi/jwg2lE9\r\nW2UKPV69tTzDfAA979SIPfaIGD2t9wY9pCWePJvaKz0PsKs81p2VPJCygzwfY6g8aMFRPDbiejy0\r\niq88JgMLPW22izx8hyQ9JVzIPEIyED0kHZc8kANAPASCmzyRv4Q8UaQKPaDdOTya/qY8SONgPO7m\r\nZj2SBMM8St5bPMcEFzySSNo7oXU1PIkPtTyHwME91CxcPbHibzzXumc8mZ7LPISshzzP8xs82rQj\r\nPBt37Dy9K0Y82igzPCOeyjttD9E7ffAqPBVpajyVa1U8L2iaPGWgnTwHWew7nXnIO3F0WTyf8RQ8\r\ncJ4rPFdMdzys2Qw9uZnrPBAoMDwjkYw8ZSrhO/YQrTvamQo86wSBPOe0Nz2l/wo9m3koPNV4hTsy\r\nH088fZQ9PLqm5Du70Qw8V98lPJuToDvGLYU81seCPI1N1DxMYPM79xOPPKw1/DzXfzA8KaJkPNHx\r\nFzwUl8M85ikqPTntpzzko9A8hCIcPGXopzvWlcM7H2AVPHi0OzybEZ47v2A6PPGfkzwEStg7ulaX\r\nO9ozhDymjo48xoL+PBELnzy7Co07q9xBPFfThzsPfUE8RaCDPL6FgjyIzSA8+oFWPLHJAjykVI87\r\nKsUbPJLaDTxgNq48I8asO1eRJDw3iso7flx+PNXbiDv0r4E8oCVaPBAKsTue9oE8wyc0PCIKpTtz\r\nqDA83NG1PNxFLjyyaac7A/NoOy3vpjs2ul87YvhsO+SNXzu82Hw78QEcPMkEOTxIsoM8elKOO4sD\r\nfjuwZ+Y7Fkz/O5JKyztCihU7prwPPDrVyTx0Bao80GnGPLkwJTzykXg7AE3MOuvpQjuwUVA7VIPF\r\nOsqWTjskaoE6vVaZOj+m0DpDQJ86vAAXOxrIRjrO2/I5rVkcOjy2DjoUuHM5HikWOgDpmzk2qrg5\r\nDNTKOQuAwTlKYZA5RZqnOcC+vjl6IMI5trduOaJGkTnid6E5QBqnOWXiHTk5Q0I5GJ2SOReokDmO\r\nrVE5spNOOYKTcznOllU5MAVuOWJaXTnR5VU5SgdqOcFKizm96m059pCAOWJxbzk2i2g5duKBOeQ3\r\nQznIUHc5w6hdOXh0RTkpQXg52sxvOSZKdzlqc2Q52JF4OUQXXjnwr1A5pItXOeI4Pzn1C3E5WM1V\r\nOUJGNTn2vE85yJNLOZZxQjmEDlI5hVJROWh6RTms10M5uQ88ObaQPTkQxUw5XUc2OedjPznSh0k5\r\n+jsyOdz8RDlbkS85BqlKOcVYQDnqsko5sm5DOeajPDlcFzc5MME0Ob87Lznq5Tg5nu43OY6rODmo\r\nKzk5HGw4OVduRTkqpDU5g8ssOY0ELTnQrDg5iNQzObkKJTlGsi05NnwuOaIULTn83zI5T3YkOTIj\r\nMTlKuyI5NOIeOYqlHDmukjU5Xs8kOaCrNDk7jDI5q8AoObeyLDnq/yY53uMlOUm3HDm0wR45ki8b\r\nOdfnFjkorCE5xLUeOZwEJDlw8CE5DNMhORyQFTnach05/zwgOfPAFDnqFho5guUjOVjtHjlo1Q05\r\nWjgaOWIAFDnmZgo5QxMSOYPdJDmTFRY5tH8WOWYODzl8Hg85Tw0ROU4qEjl+ShA5COIHOSWGCTmV\r\nBRM5JNMUOUSVCTkFiQ45Cs4OOYIeCznAxQk5JI0POa5CDzlWqw45JesQOQxZCDm89xw59qMSOfIK\r\nDDnLmgc5N33+OKKnCTkevvo4Sf8GOYQpDDmV2ws5NKgKOe7XBTk8ogg5n0kFOS55BDnY2wk5D0IE\r\nOSNFATnVZgU5fCf+OGi+9jiYhQQ5IzEBOdCV9jiuDQY5Eq/pOE6W8jhG3uk4WiP+OMD8BjmAgPE4\r\ncTHqOOTE9TjRUvA4KEj5OGp+Ajl8XOQ4WyPnOP5b+DgiSfE4OFzrOF1rATmsceI4O9YDObiw9ThT\r\nhfU4s1DzOGcR/Timm+o4rIj/OOH/9jinhPA44urWOGrn9jiWSfI4NuL3OIIPzji1Les4sB7dOKxP\r\n+ThAE+o4QJjdOERe8Tiwe8U42mTmOGIJ1TjJDt84UEXhOLyD2zjEfu04dezVOK033DgOZcQ4jyTb\r\nOIq+4jgC/tw4zmLjODrj1jhCyNc4A+fKOFyBzjgEBdU49TfcOFdG4DhqGMM4HFvQOG6UzTh4I9I4\r\nARbWOMaOzTiMYsA4ltfjOPeswjiGCNs4GgHeOJ5pzThMAs44k6fVOCASwzhJnMY4TAzSOJJY1TjG\r\nLdY4ykrWODJBwTin0ME4l5i7OBnWuDjgOb444d3FOEKqzDg+Vso4rAbOOM7Xyjg82rk4hLvHOEpz\r\nwDh8PMM4jRzIOBR0xThVMsE4Qtq/OA6HuTg0qs44ryi6OCLexziHKcM4nKDJOMFtuTjYVbY4rX3H\r\nOOb0wTg82sg4uu3FOII0wDg1eLw40XHAONnQxzimObg45yDBOJs1zTiVO7g4rPKzOK4GwjhaZb04\r\nO/y9OI5CwjgcKLE4mSfFOGe2pzjogb44gNC1OCb1tDiVq6848HW8OJmhvzg4Hrs406OmOIQDqTjl\r\nrZo4gvalOM66qDhr47M4+UG8OAXXsjjCSsI4VgqpOGVuoTh8ksk4HBeuOI4fszh0AKw4jTGxOEEl\r\npThziKw4Hn+iOLvBrjgPkrs40jqnOMNOrzhQI6I4FniVOOgcsDj0Apw4lq+vOIgArzgaZbM4HLOi\r\nOFcYpDjGmqc4CMKiOPHJmziPnKA44IWmOCqJnDh6z604uWauOGHYsTiGs5c4CGSVOMYEnTh+Pak4\r\nGJKYOIeeoDiKbJs4EDueONWooziPJ6o4YdaqOOjPkDgRZZ446qSyOGAxmjgD9qE44dOeOJpqmDgk\r\npq44yQSoOPw0lzjCyak4pEmiOIF3qzgbJ5s4/BygOKtfpzgYtJ04aZWZOHxGmDi0VLI4PGaXOISm\r\niThAw5o4yGioOLCDjzhEXJ44mnyeOFC6pDhu6Js486ikOM/XmTiVppk4XmuaOBLClzjFmIY4wk+O\r\nOBgApDh1/aA4YlWfOHRwpTjmlJg4XrKMODoFizgy5KM4bvSfOAr9jThHIJ04mZWZOIXKZzhw0Is4\r\n0+KiOIIqijgwlZM4GlaCOGGapTj1L5E4NjqeOI5JjTgGr5k4VBmDOJuOjDjCrZk4ckmBOGfPlziT\r\nuZM4Rm2AOGcMqzgKt544ZmyNOOLNkDg5DI44/paNOLm5jjh7eJE4jYyOOE0giTg40aQ4B3aIOMjE\r\nmDhNDYM4PGSGODkomDiW1Jo4CH2GOFL9kDht7oQ442uMOGtAjDi5Uow4ArOfOJGCiTh4C54485qI\r\nOCcPbDhnK5Y4HzqUOEiziTgqAoY48VeNOKmBjTiAcZI4fguHONQPjjiC2IU40PuNOEJfijhFKGw4\r\nHKyCOD7jkzgREYM4PC6GODFVizj2NIQ4ni2HOAxEiDh+UIA41i98OBK/gDjyjpI4EweJOOCEgzj+\r\nopQ4YHaPONCKmDhoKJo4Fn9yOHbgmTg6r5A44i2HOFcejji/o4o46nKVOH7Xjzhxu344/JWEOE1c\r\neThqs4o4nv+GODmFmzj9v5E4CU2WOAGEezizgog44S+UOJbNhzjCNHs4AFV/OPHehDiaUHM4iPyR\r\nOKRrbjhFU4w4I3GYOCHrjTho2ZE4PwOPOD5ZiDiDfI44qqKPOL2iizgseIk4HkCLOIUufDi9T4c4\r\n/35sOLcUkzh8+Ig40hRhONTpijj3uGw4C0SQOEJBgziJrYM4ubNvOG3WhThmP484dUh6OAAoeTg5\r\nIno42J6IOPgLgzh/OYc4fyllOKXjhjhsxFU4wcKROPv0ijhLy3U4dc9/OH5DaDgmfYk4RXmCOM8V\r\ndzhAJHw4m6eBOF0Rbzg2AH84T1h8OJMfczinC5A4AlaMOOLfRjiDMoQ4X4+CODh5hjhIw484eA6B\r\nOA1CkDiu1Y049r2NOLfUfjiIMoA4KGeNOJLFaDgZ0mc4FJ6AODT4VThtQ1c4EJaJOKAobziEUYU4\r\nTDh7OH5ocDiYKmA4SupvOKJuczg0kow4/997OBccbjh5KXg4odyJOF/ZbDjE6Xo4MaR2OFP4aDh9\r\n3II4DglgOIhHYTgG31845X9/ODqzXjjgGm04Hsp0OONMeThtroU4NfZ1ONTTdTj0Elk4fYeCOGfb\r\ngDht7m44ha9zOOYXgDi/nYE4JGWAOJRMcTijSYk4fhqNODcWYzjOfXI4bhxrONa7eTgcP184Xit9\r\nOHXEbTg1PFo43jNlONpLZjiCA4U4m2FYOB0WfDguqWQ4yZ6KOAonfDjI3Wc4NNhiOADlhjgc7l84\r\n2cuAONqyazisAYA4DGJ7OFk2fjgj/Ws4CzWBODZiczgdGoY4GtxROIXWhDh4omU4XY9sOPGZhjje\r\nsXE4zsp4ODWfdTg8d3Q4pPJvOPVjhTir2XE4ifR5OMfOaTgtB1w4Rk+FOEi8bDgwgXI4iCyAOA2g\r\nfTgfKGU4QHdjOOHOgDhaAYc4pu6EOBWadzjmnWk4SkyDOBxjfzhHe3M4M4xpOAQ/hzi7bWQ4Uqxv\r\nOIUkgzhRFoA424VdOFN8dDim0lM4FHp4OKQzgjiF5mg4LBRzOFLEgjiF2Fs4wU2EOIAAgTjQMsFA\r\ngd0cQWQXnz8O5wM/TCzNPnsqa0CAwL9Al4xWQI5T9j8Mz9lAyJ7PPi5dDD8uaw9A9vZdQQ/yW0AL\r\n5wU/BIQnP5uPET6L/Yc+hXWBPm3m2z7z3VM/fbWpP//iSkBhkVU/aExIQCfowD8P26Q/VMSQP3LE\r\nN0FyZbdA8ScgQAaMn0DRMB5BsbMiQYOpEEH4yhNA777UP1J9gkBXWf4/R64tPwELSj+0vrI/gIp3\r\nP1BPCkDjnf4+NDdFP6DFxz6hSDZAedo+P0KElT52Sdg/e945P7E4tD8JVZA/0v9XQDzFQ0BPNx5A\r\nETQLQCiKsD8gMgVAjNoGQE/pkUDrQa8/PPBXP2y1cz+RvGc/ZHtOQNu89T8M4z0/4NloP3W81T4q\r\nCYo+CCcmP3QwGkCEusg/nWyPPioMpD7K8sA+ijFvPsJ8/j1W4eE9ZJeoPiplJkDH4to+/fxvPhqB\r\n+z1uTu498KcaPpKggD5BgxI+fgkIP62joz6JCws+cHyhPTIo8D2ckEI+eCNDPh2Itj0lsYY8nClL\r\nPQx3tz3gbQk9DE9jPE4iLj14QtE922oJPbuNBz1QpjI9CPfXPTdphD6pY5U9sHEBPWJsQj1tKIU9\r\nr+QJPcFt9Dy8P3o9GiR6PaP3jj5iihs9r4x1PdwqAj0h3kE9TODOPBoNizw62js9lCWPPaiFlzwE\r\n9K485LUTPZl6QD3n6qM9yucZPSj5Cj3kzTU98zQRPVkqBD0j3gI9FBhDPNob+jwyijE9G6DyPAwR\r\nXT22nNA8BLtEPOWIejyDSLY8QBQUPXh+Aj0D5pE9MFj2PPD/1Txn1lo9MjkSPWo1Ez2vK6082FKE\r\nPNNEizyg1ow8J8hEPJpDBD3C6TI9EKZ9PXrtxD3oeNc8WXclPekGvj10vIk95+L+PCDaUT1bZQo9\r\nXr21PDCBAT3JqYg99ogYPa33Bj2kJZ48/r8rPfYArTwlkpU8YLSDPGkEqDxwz1E8lNF6PLT6rzwm\r\nAws9bbaLPHyHJD0lXMg8jw8QPZK2ljwmzz88BIKbPJG/hDxRpAo9RH85PJr+pjxI42A87uZmPZIE\r\nwzwosFw80QcYPIzd2DuhdTU8fDG1PIfAwT3ULFw9QKhvPNe6ZzyZnss8hKyHPNowGzxLmiM8G3fs\r\nPL0rRjzRmTM8PBDKO20P0Tv0JCw89sRpPJVrVTwvaJo8ZaCdPAdZ7Dudecg76+ZYPJ/xFDzFRyw8\r\nV0x3PDuFDD3Bcus8ECgwPCORjDyPUOE7FBywO30KCzzrBIE857Q3PaX/Cj2beSg81lOFO6TpTjx9\r\nlD08bdPkOxSsCzxX3yU8FiGgO82jhDyLGYM8jU3UPJvr8zv3E488rDX8PNd/MDwpomQ80fEXPEyi\r\nwjzmKSo9bDaoPO760DyEIhw8ZeinO9aVwzuzfxU8eLQ7PCH5nDvyWjo8W7yTPC8s2Du6Vpc79rqD\r\nPKaOjjysVP48EQufPF4zjjujJUI8V9OHO1tYQTxFoIM8tsOCPIjNIDz6gVY8+qgCPKRUjzsqxRs8\r\nktoNPGA2rjw3Ia47V5EkPDe8yTvxPX486euHO5gbgjygJVo8EAqxOyYSgzybvDQ8nnGkO3OoMDzc\r\n0bU83EUuPPNXpzsNXmo71uWmO/82XTsSgGk7ykVeO5b0fDuViBw8yQQ5PPFOgzx6Uo47iwN+O3lO\r\n5jtiw/87vOLKO2XaEjumvA88OtXJPFSmqTzQacY8uTAlPMOYeTsATcw66+lCOwNGUDtUg8U6zf9N\r\nO6c4gTogNZw6EanWOkTGozp8fhU7w7lFOs7b8jmtWRw66n8OOhS4cznKkBU65s6XOd49vzkM1Mo5\r\n60e5OblIkjmk5KM5I1fFOfnKvznMVXU5adqKOQjimzmwO6o5Fp0kOWlGLzk/m4857HWGOUbgZznY\r\nCUU5WS6WOWVZSDkjZlE52iB5OZqTXTkouDo5gZqSOdBaXDnK8ls5oFBxORDVdzkG4Hk59HBjOfg5\r\nSDm4XWM54R10Oe6NWTm8FVs59h9qObFOTDkar1s56BhmOTwbXTk7oFg5Qk1SOfVERzmjhFU5RKRH\r\nOZeURjk0qUM55GFMOUoXRznU8Uk5cs9KOUiyPzndSU054qJAOcqASzlwzDo5EKBGOT44QzmjvjQ5\r\nqlJMOYpHNTlTnUQ5p+o5OQJVRjmIfU85Tpo7OZdtQzmlOUA5as8xOSpgPzma6T45SBI2OUamOjnO\r\nWDs5ERJCOQBnMjk6x0A53sA0OWakLjlQXDc5fqghOZotMTlYKy05L9IvOdZJITnoySM5uO41Oc3W\r\nHTnnkiQ57uwhOaS7LTm8Kys5R6Q5Obj1MTlTISk5SO4nOQ+BLjlyfS05Xn0fOfp/GTnMpxo5KzMU\r\nOZ4ZHTn8aSY5FNYcOX5FIjmu3SE5vrgVOT1LJzmu3xo5H6okOUmKFzntgBo50i0dOTBJETkc/SQ5\r\nxqYROVuxFTn8vBc5yuoeOXzOGDn4DCE51KUkOc9bGzmY+gU5BvoeOblFBzmIFg05A3EQORj0Dzmg\r\nCxA5FjQWOUGvEjnEzRQ5ZdINORrBDjlyexg5ybkLOXZiBTnIZwU5+gwGOXBYFDlCGBo5mlEMOYo3\r\nBDnYOgU59qkAOY4P9ThoRAo5RkH+OIYiEjmyVwc5bvYGOZFiBzlf1QE5sgAGOaq8DjkuNgI5sRD+\r\nOK9r+DgaDOk4YfHiOH7h+Ti3gQk5QpX7OLPH8DhDhug4EsPyOH7/9DioE/A4FDf/OAAK+jhyzes4\r\nJcTtOLqlAjnOx/k4Zn8COURm8DjXz+w4s0joOCdf7zgHt+44ZET7OJpK4zgbWgU5bOTkONCX7DgS\r\n8AQ5JkT6ODBO/zgwPvE4kgkAOfNU+DgMleg4fJT7OJ9N4TiA/+046iXoOJIu7jj7I+I4ADL4OFEV\r\n6Ti7zeg4FwjVOJ3n0DhTMfY4QsrQOPK20zhqgtw4F5bjOPsz+ThFI7s4JjjaODUi1zgKJNc4raq7\r\nOLSr2jgweuc49ULhOCAp4DgcFNE43nnEOI61zziPf9E4Et7kOM284Dh0YMw43j3cOD7u1jgItsg4\r\ntgnYOLJZwDjgFdE4lNLeOJep3zihC8s4tKnMOOFvyjhnDdI4kITbOIw9xDgoRsY4eBHMOMX3zzgJ\r\nj8Y47hvOOE0VujjjesA47CPWOAAe2jgP4MU47LLKONRbszgYWNk4iv7AOFiVsjjYpMY4ogDLOFy2\r\nvDiFwcs4QB3FOIxBxjg+Or04HOHHOPFRwzijKbs4KuW/ODzmwzgCLsM4s2G8OKN9tTjnJsA4wgax\r\nOAhYwTgXt8k4mqfGOJ4WvzjUIs44GlDCOIxXwTj6jcQ4dxXDOPDltzjzlaI4pDK/OBD6rzj4s7s4\r\n+jPEOD3Ltjg+sbc4ysK1OH9SsThaja04nnWyOAChujiuh8A4b+a4OKEZpjgyo7A4V2m5OIovljiX\r\nNKs4PoKzOBRMrDhNErQ4Aj2zOCmFtjhYPag4JkihOMOwtjh92a04dC2lOA0cqDiN0ac4TGKkOOPi\r\npDj4R604+O+yOGSCwDh4y5o4pnmuOPN6nzgKM5c4KEe0OC7kmzixJb04JYqsOE9Brji4tpc4Inyh\r\nOFE3rTikw6Y4suOoOPwtnjiSkaI4khupOCRanjg0X7A4bBagOKG0rTjUVaQ4tLmdOOrekzjqVas4\r\npmajOAGAnDhC8a84vaCPOAMBnjhI8qg4/42bONJ1mThgdKI4QCaqODTSrDgWmKo44GOcOCaXsThq\r\nsqA41nKYOAgyqDjCOqs4aSefOGO0ozjpLpE49iumOJ2Sljjor5g4ZcubOCkmrTgrApc4ARybOFRT\r\nkTggl6U4ZIeROPIhoDjXyJI44OKfOLwJkzg7h6Q4SW2UOLVrkjg2SZE4qyuiOHIjjDhTapc4CICp\r\nOBquozi7I4g4hfWYOIxsoTioRpA4WVSZOMYWnTjdTqA4oBiTOCRunDhim6Y4/pKEOGNllziZH504\r\n8MOLONeCnTgedok4LXaYOIZKhjhUwq04Rx+aONjDlDhEqI44vTSMONv+hTi4qYI4RNedOL1pjTi+\r\nOp048SqnOLYqojgPOKE4ljKSOILvgjh/nZc4yy2SOJe0jjgZO4k4/s6IOBjJnDinboM4W/OZOE3q\r\nijig75k4AEuTOL/rizhuzIE4/cByOEtGnDhf3pU4YsCMOPl8izhhQJY4P0iPODulozi8+IY4RY+C\r\nOCGviThar5E4IsyOOOuPiTiKwoo4WmeOOIctjjiXC4s4ibqDOKh6eDhaC4c4PfKJOA7XizhYm344\r\nHIWiOGwzgzjYdo04a1ekOMnxgziCTYs4AauFOIXcazghLow4IleTOKOpjzhRh4I4QNyGOIhDlDgz\r\nKI84/3SSOClpnTi4yI44dBqPOJN9mjgzfIc4FkyNOLRchTiO84s49ct8ONoQZzjbbY84RoV3OLOq\r\nhTi9N4M4PIaXOEHGmzgOfYw4ZjCKOEHeizgIL4s46RFyOCFwfTh2I2s4dfWJOAbjiTh7n4Q4buxy\r\nOO98gDgDFJA4xlWCOC1sgDhoXYk4TceLOJKjkDjAsYQ4nA+PONXIgTjiC404Yq54OHGDjDgUC3k4\r\nuZWAOGDphjhcAmU4/72LOD0lgjgK2Is4IgaIOMCIgjgTnns4f2eDOPe8bThkgH04dA2DOBQNdjje\r\nRoA4qxaHOP81hTgQyXE44GaGOJR6gTgHM4g4kBuJOLkjbTg3S3E4806HOCi/gDh2LYA4mv6LONwC\r\ndzjhZ4M4DK1fOM5hgThTlWA4hluGONazfzgDBHs4tS5jOMq0gThKu4w4hvR7OK62fjjEGIk4vi+N\r\nOI70gDjJ1YI4sqKPOEZgbDjg/Y04R+F0OKS2aDhlFJA4WAFqOP/XZDhxS444RVpsOA3XdDjy+HU4\r\nHdtqODRvZjhRJWA4CGuDONP0fjhD9Xg4DCpnOJI/gjgyUpA4q+5TOEEkYzgxjY04uSFhOP9YgTgm\r\n3WQ4Io1hOO9VeDi9woM4tqByODnxaDiYlnI4jcB/OOgAdjh+CXI4ZnJqOBtRXjjbyH04ZIeBOBJc\r\neDjr0n84w8qJODaggDgNunM4wrSCOIzXfDi6YoI4fQZiOK4aYTju5YE4BZVfOKiLXDhUY3g45N11\r\nOH9OajgFuGc41pl6OA5sZjiGP0k4rw9iOH/3dzgTG4k4n5JeOIlEaTjJeIU4rxWCOB0xZDhmMYE4\r\nm7aCOG2VczhKIl04RaVnOEDgdTgwiGw4n8SAOGjUdTgyAWA4kpqIOO1peTi5pnQ4tdF+OPV3jTjZ\r\nKGk4hzlkOFNyhTi6WXY43e94OLBEbjizQ2E4uIRqOE0VbTgZ2HU4G3J8OHnFZTgk0GY4RBKCODBr\r\niDhzjHc4lbN5OGojeTi034E4/Ex5ODuueziHQ4c4HQ53OKqzizixomw4ufWKOMi+eDif72w48/SB\r\nODxGcTjj0F04yoNoOMQWZji4q3w4UtdzOMeXgjjTx4Q4OkBrONP1dzj4nHA4ADKKOA==",
                            "noiseTrainingType" : "default"
                          }
                        }
                    ],
                    "start" : 18847,
                    "duration" : 599,
                    "mediaStart" : 5167,
                    "mediaDuration" : 599,
                    "scalar" : 1,
                    "metadata" : {
                      "AutoAppliedSmartFocus" : "False",
                      "WinSubProjectDisplayName" : "",
                      "clipSpeedAttribute" : false
                    },
                    "animationTracks" : {

                    }
                  },
                  {
                    "id" : 208,
                    "_type" : "StitchedMedia",
                    "minMediaStart" : 0,
                    "attributes" : {
                      "ident" : "tower-05",
                      "gain" : 1.0,
                      "mixToMono" : false
                    },
                    "parameters" : {
                      "volume" : {
                        "type" : "double",
                        "keyframes" : [
                          {
                            "endTime" : 0,
                            "time" : 0,
                            "value" : 1.0,
                            "duration" : 0
                          },
                          {
                            "endTime" : 4858,
                            "time" : 4858,
                            "value" : 1.0,
                            "duration" : 0
                          },
                          {
                            "endTime" : 4859,
                            "time" : 4859,
                            "value" : 0.0,
                            "duration" : 0
                          },
                          {
                            "endTime" : 4860,
                            "time" : 4860,
                            "value" : 1.0,
                            "duration" : 0
                          }
                        ]
                      },
                      "cursorOpacity" : 1.0,
                      "cursorScale" : 1.0
                    },
                    "medias" : [
                        {
                          "id" : 209,
                          "_type" : "UnifiedMedia",
                          "video" : 
                              {
                                "id" : 210,
                                "_type" : "ScreenVMFile",
                                "src" : 5,
                                "trackNumber" : 0,
                                "attributes" : {
                                  "ident" : "Rec 02-04-20_007"
                                },
                                "parameters" : {
                                  "cursorScale" : {
                                    "type" : "double",
                                    "defaultValue" : 0.0,
                                    "interp" : "linr"
                                  },
                                  "cursorOpacity" : {
                                    "type" : "double",
                                    "defaultValue" : 0.0,
                                    "interp" : "linr"
                                  }
                                },
                                "effects" : [

                                ],
                                "start" : 0,
                                "duration" : 1383,
                                "mediaStart" : 0,
                                "mediaDuration" : 1383,
                                "scalar" : 1,
                                "animationTracks" : {

                                }
                              },
                          "audio" : 
                              {
                                "id" : 211,
                                "_type" : "AMFile",
                                "src" : 5,
                                "trackNumber" : 1,
                                "attributes" : {
                                  "ident" : "",
                                  "sampleRate" : 44100,
                                  "bitDepth" : 16,
                                  "gain" : 1.0,
                                  "mixToMono" : false
                                },
                                  "channelNumber" : "0,1",
                                "effects" : [

                                ],
                                "start" : 0,
                                "duration" : 1383,
                                "mediaStart" : 0,
                                "mediaDuration" : 1383,
                                "scalar" : 1,
                                "animationTracks" : {

                                }
                              }
,
                          "start" : 0,
                          "duration" : 1383,
                          "mediaStart" : 0,
                          "mediaDuration" : 15796,
                          "scalar" : 1,
                          "metadata" : {
                            "AutoAppliedSmartFocus" : "False",
                            "WinSubProjectDisplayName" : "",
                            "clipSpeedAttribute" : false
                          }
                        },
                        {
                          "id" : 212,
                          "_type" : "UnifiedMedia",
                          "video" : 
                              {
                                "id" : 213,
                                "_type" : "ScreenVMFile",
                                "src" : 5,
                                "trackNumber" : 0,
                                "attributes" : {
                                  "ident" : "Rec 02-04-20_007"
                                },
                                "parameters" : {
                                  "cursorScale" : {
                                    "type" : "double",
                                    "defaultValue" : 0.0,
                                    "interp" : "linr"
                                  },
                                  "cursorOpacity" : {
                                    "type" : "double",
                                    "defaultValue" : 0.0,
                                    "interp" : "linr"
                                  }
                                },
                                "effects" : [

                                ],
                                "start" : 1383,
                                "duration" : 2726,
                                "mediaStart" : 1406,
                                "mediaDuration" : 2726,
                                "scalar" : 1,
                                "animationTracks" : {

                                }
                              },
                          "audio" : 
                              {
                                "id" : 214,
                                "_type" : "AMFile",
                                "src" : 5,
                                "trackNumber" : 1,
                                "attributes" : {
                                  "ident" : "",
                                  "sampleRate" : 44100,
                                  "bitDepth" : 16,
                                  "gain" : 1.0,
                                  "mixToMono" : false
                                },
                                  "channelNumber" : "0,1",
                                "effects" : [

                                ],
                                "start" : 1383,
                                "duration" : 2726,
                                "mediaStart" : 1406,
                                "mediaDuration" : 2726,
                                "scalar" : 1,
                                "animationTracks" : {

                                }
                              }
,
                          "start" : 1383,
                          "duration" : 2726,
                          "mediaStart" : 0,
                          "mediaDuration" : 15796,
                          "scalar" : 1,
                          "metadata" : {
                            "AutoAppliedSmartFocus" : "False",
                            "WinSubProjectDisplayName" : "",
                            "clipSpeedAttribute" : false
                          }
                        },
                        {
                          "id" : 215,
                          "_type" : "UnifiedMedia",
                          "video" : 
                              {
                                "id" : 216,
                                "_type" : "ScreenVMFile",
                                "src" : 5,
                                "trackNumber" : 0,
                                "attributes" : {
                                  "ident" : "Rec 02-04-20_007"
                                },
                                "parameters" : {
                                  "cursorScale" : {
                                    "type" : "double",
                                    "defaultValue" : 0.0,
                                    "interp" : "linr"
                                  },
                                  "cursorOpacity" : {
                                    "type" : "double",
                                    "defaultValue" : 0.0,
                                    "interp" : "linr"
                                  }
                                },
                                "effects" : [

                                ],
                                "start" : 4109,
                                "duration" : 424,
                                "mediaStart" : 4173,
                                "mediaDuration" : 424,
                                "scalar" : 1,
                                "animationTracks" : {

                                }
                              },
                          "audio" : 
                              {
                                "id" : 217,
                                "_type" : "AMFile",
                                "src" : 5,
                                "trackNumber" : 1,
                                "attributes" : {
                                  "ident" : "",
                                  "sampleRate" : 44100,
                                  "bitDepth" : 16,
                                  "gain" : 1.0,
                                  "mixToMono" : false
                                },
                                  "channelNumber" : "0,1",
                                "effects" : [

                                ],
                                "start" : 4109,
                                "duration" : 424,
                                "mediaStart" : 4173,
                                "mediaDuration" : 424,
                                "scalar" : 1,
                                "animationTracks" : {

                                }
                              }
,
                          "start" : 4109,
                          "duration" : 424,
                          "mediaStart" : 0,
                          "mediaDuration" : 15796,
                          "scalar" : 1,
                          "metadata" : {
                            "AutoAppliedSmartFocus" : "False",
                            "WinSubProjectDisplayName" : "",
                            "clipSpeedAttribute" : false
                          }
                        },
                        {
                          "id" : 218,
                          "_type" : "UnifiedMedia",
                          "video" : 
                              {
                                "id" : 219,
                                "_type" : "ScreenVMFile",
                                "src" : 5,
                                "trackNumber" : 0,
                                "attributes" : {
                                  "ident" : "Rec 02-04-20_007"
                                },
                                "parameters" : {
                                  "cursorScale" : {
                                    "type" : "double",
                                    "defaultValue" : 0.0,
                                    "interp" : "linr"
                                  },
                                  "cursorOpacity" : {
                                    "type" : "double",
                                    "defaultValue" : 0.0,
                                    "interp" : "linr"
                                  }
                                },
                                "effects" : [

                                ],
                                "start" : 4533,
                                "duration" : 139,
                                "mediaStart" : 4741,
                                "mediaDuration" : 139,
                                "scalar" : 1,
                                "animationTracks" : {

                                }
                              },
                          "audio" : 
                              {
                                "id" : 220,
                                "_type" : "AMFile",
                                "src" : 5,
                                "trackNumber" : 1,
                                "attributes" : {
                                  "ident" : "",
                                  "sampleRate" : 44100,
                                  "bitDepth" : 16,
                                  "gain" : 1.0,
                                  "mixToMono" : false
                                },
                                  "channelNumber" : "0,1",
                                "effects" : [

                                ],
                                "start" : 4533,
                                "duration" : 139,
                                "mediaStart" : 4741,
                                "mediaDuration" : 139,
                                "scalar" : 1,
                                "animationTracks" : {

                                }
                              }
,
                          "start" : 4533,
                          "duration" : 139,
                          "mediaStart" : 0,
                          "mediaDuration" : 15796,
                          "scalar" : 1,
                          "metadata" : {
                            "AutoAppliedSmartFocus" : "False",
                            "WinSubProjectDisplayName" : "",
                            "clipSpeedAttribute" : false
                          }
                        },
                        {
                          "id" : 221,
                          "_type" : "UnifiedMedia",
                          "video" : 
                              {
                                "id" : 222,
                                "_type" : "ScreenVMFile",
                                "src" : 5,
                                "trackNumber" : 0,
                                "attributes" : {
                                  "ident" : "Rec 02-04-20_007"
                                },
                                "parameters" : {
                                  "cursorScale" : {
                                    "type" : "double",
                                    "defaultValue" : 0.0,
                                    "interp" : "linr"
                                  },
                                  "cursorOpacity" : {
                                    "type" : "double",
                                    "defaultValue" : 0.0,
                                    "interp" : "linr"
                                  }
                                },
                                "effects" : [

                                ],
                                "start" : 4672,
                                "duration" : 212,
                                "mediaStart" : 5022,
                                "mediaDuration" : 212,
                                "scalar" : 1,
                                "animationTracks" : {

                                }
                              },
                          "audio" : 
                              {
                                "id" : 223,
                                "_type" : "AMFile",
                                "src" : 5,
                                "trackNumber" : 1,
                                "attributes" : {
                                  "ident" : "",
                                  "sampleRate" : 44100,
                                  "bitDepth" : 16,
                                  "gain" : 1.0,
                                  "mixToMono" : false
                                },
                                  "channelNumber" : "0,1",
                                "effects" : [

                                ],
                                "start" : 4672,
                                "duration" : 212,
                                "mediaStart" : 5022,
                                "mediaDuration" : 212,
                                "scalar" : 1,
                                "animationTracks" : {

                                }
                              }
,
                          "start" : 4672,
                          "duration" : 212,
                          "mediaStart" : 0,
                          "mediaDuration" : 15796,
                          "scalar" : 1,
                          "metadata" : {
                            "AutoAppliedSmartFocus" : "False",
                            "WinSubProjectDisplayName" : "",
                            "clipSpeedAttribute" : false
                          }
                        },
                        {
                          "id" : 224,
                          "_type" : "UnifiedMedia",
                          "video" : 
                              {
                                "id" : 225,
                                "_type" : "ScreenVMFile",
                                "src" : 5,
                                "trackNumber" : 0,
                                "attributes" : {
                                  "ident" : "Rec 02-04-20_007"
                                },
                                "parameters" : {
                                  "cursorScale" : {
                                    "type" : "double",
                                    "defaultValue" : 0.0,
                                    "interp" : "linr"
                                  },
                                  "cursorOpacity" : {
                                    "type" : "double",
                                    "defaultValue" : 0.0,
                                    "interp" : "linr"
                                  }
                                },
                                "effects" : [

                                ],
                                "start" : 4884,
                                "duration" : 634,
                                "mediaStart" : 5243,
                                "mediaDuration" : 634,
                                "scalar" : 1,
                                "animationTracks" : {

                                }
                              },
                          "audio" : 
                              {
                                "id" : 226,
                                "_type" : "AMFile",
                                "src" : 5,
                                "trackNumber" : 1,
                                "attributes" : {
                                  "ident" : "",
                                  "sampleRate" : 44100,
                                  "bitDepth" : 16,
                                  "gain" : 1.0,
                                  "mixToMono" : false
                                },
                                  "channelNumber" : "0,1",
                                "effects" : [

                                ],
                                "start" : 4884,
                                "duration" : 634,
                                "mediaStart" : 5243,
                                "mediaDuration" : 634,
                                "scalar" : 1,
                                "animationTracks" : {

                                }
                              }
,
                          "start" : 4884,
                          "duration" : 634,
                          "mediaStart" : 0,
                          "mediaDuration" : 15796,
                          "scalar" : 1,
                          "metadata" : {
                            "AutoAppliedSmartFocus" : "False",
                            "WinSubProjectDisplayName" : "",
                            "clipSpeedAttribute" : false
                          }
                        },
                        {
                          "id" : 227,
                          "_type" : "UnifiedMedia",
                          "video" : 
                              {
                                "id" : 228,
                                "_type" : "ScreenVMFile",
                                "src" : 5,
                                "trackNumber" : 0,
                                "attributes" : {
                                  "ident" : "Rec 02-04-20_007"
                                },
                                "parameters" : {
                                  "cursorScale" : {
                                    "type" : "double",
                                    "defaultValue" : 0.0,
                                    "interp" : "linr"
                                  },
                                  "cursorOpacity" : {
                                    "type" : "double",
                                    "defaultValue" : 0.0,
                                    "interp" : "linr"
                                  }
                                },
                                "effects" : [

                                ],
                                "start" : 5518,
                                "duration" : 3511,
                                "mediaStart" : 5894,
                                "mediaDuration" : 3511,
                                "scalar" : 1,
                                "animationTracks" : {

                                }
                              },
                          "audio" : 
                              {
                                "id" : 229,
                                "_type" : "AMFile",
                                "src" : 5,
                                "trackNumber" : 1,
                                "attributes" : {
                                  "ident" : "",
                                  "sampleRate" : 44100,
                                  "bitDepth" : 16,
                                  "gain" : 1.0,
                                  "mixToMono" : false
                                },
                                  "channelNumber" : "0,1",
                                "effects" : [

                                ],
                                "start" : 5518,
                                "duration" : 3511,
                                "mediaStart" : 5894,
                                "mediaDuration" : 3511,
                                "scalar" : 1,
                                "animationTracks" : {

                                }
                              }
,
                          "start" : 5518,
                          "duration" : 3511,
                          "mediaStart" : 0,
                          "mediaDuration" : 15796,
                          "scalar" : 1,
                          "metadata" : {
                            "AutoAppliedSmartFocus" : "False",
                            "WinSubProjectDisplayName" : "",
                            "clipSpeedAttribute" : false
                          }
                        },
                        {
                          "id" : 230,
                          "_type" : "UnifiedMedia",
                          "video" : 
                              {
                                "id" : 231,
                                "_type" : "ScreenVMFile",
                                "src" : 5,
                                "trackNumber" : 0,
                                "attributes" : {
                                  "ident" : "Rec 02-04-20_007"
                                },
                                "parameters" : {
                                  "cursorScale" : {
                                    "type" : "double",
                                    "defaultValue" : 0.0,
                                    "interp" : "linr"
                                  },
                                  "cursorOpacity" : {
                                    "type" : "double",
                                    "defaultValue" : 0.0,
                                    "interp" : "linr"
                                  }
                                },
                                "effects" : [

                                ],
                                "start" : 9029,
                                "duration" : 45,
                                "mediaStart" : 9418,
                                "mediaDuration" : 45,
                                "scalar" : 1,
                                "animationTracks" : {

                                }
                              },
                          "audio" : 
                              {
                                "id" : 232,
                                "_type" : "AMFile",
                                "src" : 5,
                                "trackNumber" : 1,
                                "attributes" : {
                                  "ident" : "",
                                  "sampleRate" : 44100,
                                  "bitDepth" : 16,
                                  "gain" : 1.0,
                                  "mixToMono" : false
                                },
                                  "channelNumber" : "0,1",
                                "effects" : [

                                ],
                                "start" : 9029,
                                "duration" : 45,
                                "mediaStart" : 9418,
                                "mediaDuration" : 45,
                                "scalar" : 1,
                                "animationTracks" : {

                                }
                              }
,
                          "start" : 9029,
                          "duration" : 45,
                          "mediaStart" : 0,
                          "mediaDuration" : 15796,
                          "scalar" : 1,
                          "metadata" : {
                            "AutoAppliedSmartFocus" : "False",
                            "WinSubProjectDisplayName" : "",
                            "clipSpeedAttribute" : false
                          }
                        },
                        {
                          "id" : 233,
                          "_type" : "UnifiedMedia",
                          "video" : 
                              {
                                "id" : 234,
                                "_type" : "ScreenVMFile",
                                "src" : 5,
                                "trackNumber" : 0,
                                "attributes" : {
                                  "ident" : "Rec 02-04-20_007"
                                },
                                "parameters" : {
                                  "cursorScale" : {
                                    "type" : "double",
                                    "defaultValue" : 0.0,
                                    "interp" : "linr"
                                  },
                                  "cursorOpacity" : {
                                    "type" : "double",
                                    "defaultValue" : 0.0,
                                    "interp" : "linr"
                                  }
                                },
                                "effects" : [

                                ],
                                "start" : 9074,
                                "duration" : 90,
                                "mediaStart" : 9508,
                                "mediaDuration" : 90,
                                "scalar" : 1,
                                "animationTracks" : {

                                }
                              },
                          "audio" : 
                              {
                                "id" : 235,
                                "_type" : "AMFile",
                                "src" : 5,
                                "trackNumber" : 1,
                                "attributes" : {
                                  "ident" : "",
                                  "sampleRate" : 44100,
                                  "bitDepth" : 16,
                                  "gain" : 1.0,
                                  "mixToMono" : false
                                },
                                  "channelNumber" : "0,1",
                                "effects" : [

                                ],
                                "start" : 9074,
                                "duration" : 90,
                                "mediaStart" : 9508,
                                "mediaDuration" : 90,
                                "scalar" : 1,
                                "animationTracks" : {

                                }
                              }
,
                          "start" : 9074,
                          "duration" : 90,
                          "mediaStart" : 0,
                          "mediaDuration" : 15796,
                          "scalar" : 1,
                          "metadata" : {
                            "AutoAppliedSmartFocus" : "False",
                            "WinSubProjectDisplayName" : "",
                            "clipSpeedAttribute" : false
                          }
                        },
                        {
                          "id" : 236,
                          "_type" : "UnifiedMedia",
                          "video" : 
                              {
                                "id" : 237,
                                "_type" : "ScreenVMFile",
                                "src" : 5,
                                "trackNumber" : 0,
                                "attributes" : {
                                  "ident" : "Rec 02-04-20_007"
                                },
                                "parameters" : {
                                  "cursorScale" : {
                                    "type" : "double",
                                    "defaultValue" : 0.0,
                                    "interp" : "linr"
                                  },
                                  "cursorOpacity" : {
                                    "type" : "double",
                                    "defaultValue" : 0.0,
                                    "interp" : "linr"
                                  }
                                },
                                "effects" : [

                                ],
                                "start" : 9164,
                                "duration" : 156,
                                "mediaStart" : 9606,
                                "mediaDuration" : 156,
                                "scalar" : 1,
                                "animationTracks" : {

                                }
                              },
                          "audio" : 
                              {
                                "id" : 238,
                                "_type" : "AMFile",
                                "src" : 5,
                                "trackNumber" : 1,
                                "attributes" : {
                                  "ident" : "",
                                  "sampleRate" : 44100,
                                  "bitDepth" : 16,
                                  "gain" : 1.0,
                                  "mixToMono" : false
                                },
                                  "channelNumber" : "0,1",
                                "effects" : [

                                ],
                                "start" : 9164,
                                "duration" : 156,
                                "mediaStart" : 9606,
                                "mediaDuration" : 156,
                                "scalar" : 1,
                                "animationTracks" : {

                                }
                              }
,
                          "start" : 9164,
                          "duration" : 156,
                          "mediaStart" : 0,
                          "mediaDuration" : 15796,
                          "scalar" : 1,
                          "metadata" : {
                            "AutoAppliedSmartFocus" : "False",
                            "WinSubProjectDisplayName" : "",
                            "clipSpeedAttribute" : false
                          }
                        },
                        {
                          "id" : 239,
                          "_type" : "UnifiedMedia",
                          "video" : 
                              {
                                "id" : 240,
                                "_type" : "ScreenVMFile",
                                "src" : 5,
                                "trackNumber" : 0,
                                "attributes" : {
                                  "ident" : "Rec 02-04-20_007"
                                },
                                "parameters" : {
                                  "cursorScale" : {
                                    "type" : "double",
                                    "defaultValue" : 0.0,
                                    "interp" : "linr"
                                  },
                                  "cursorOpacity" : {
                                    "type" : "double",
                                    "defaultValue" : 0.0,
                                    "interp" : "linr"
                                  }
                                },
                                "effects" : [

                                ],
                                "start" : 9320,
                                "duration" : 6000,
                                "mediaStart" : 9796,
                                "mediaDuration" : 6000,
                                "scalar" : 1,
                                "animationTracks" : {

                                }
                              },
                          "audio" : 
                              {
                                "id" : 241,
                                "_type" : "AMFile",
                                "src" : 5,
                                "trackNumber" : 1,
                                "attributes" : {
                                  "ident" : "",
                                  "sampleRate" : 44100,
                                  "bitDepth" : 16,
                                  "gain" : 1.0,
                                  "mixToMono" : false
                                },
                                  "channelNumber" : "0,1",
                                "effects" : [

                                ],
                                "start" : 9320,
                                "duration" : 6000,
                                "mediaStart" : 9796,
                                "mediaDuration" : 6000,
                                "scalar" : 1,
                                "animationTracks" : {

                                }
                              }
,
                          "start" : 9320,
                          "duration" : 6000,
                          "mediaStart" : 0,
                          "mediaDuration" : 15796,
                          "scalar" : 1,
                          "metadata" : {
                            "AutoAppliedSmartFocus" : "False",
                            "WinSubProjectDisplayName" : "",
                            "clipSpeedAttribute" : false
                          }
                        }
                    ],
                    "effects" : [
                        {
                          "effectName" : "NoiseReduction",
                          "category" : "categoryAudioEffects",
                          "parameters" : {
                            "denoiserAmount" : 20.0,
                            "denoiserThreshold" : 0.0,
                            "noiseProfile" : "0DLBQIHdHEFkF58/DucDP0ozzT57KmtAgMC/QJeMVkBqXPY/DM/ZQMiezz4uXQw/LmsPQAr6XUGb\r\n61tADcoFP5xdJz9feBE+k96HPoV1gT5t5ts+891TP321qT//4kpAYZFVP/Y5SEBV+cA/y9mkP1TE\r\nkD/IwDdBlGu3QPEnIECKjZ9A9zQeQR6sIkGDqRBB+MoTQPG91D8HiIJAV1n+P6aiLT8BC0o/tL6y\r\nP4CKdz+TTwpAgu3+PkNWRT+gxcc+oUg2QHnaPj+xh5U+dknYPzLVOT+xOLQ/CVWQP9L/V0A8xUNA\r\nPD0eQBE0C0C2arA/IDIFQIzaBkBP6ZFAYESvPzzwVz9stXM/LdNnP2R7TkDbvPU/3LQ9P2b3aD9/\r\nmdU+KgmKPggnJj9cFxpA+r7IP2xSjz7uI6Q+OPvAPooxbz7i1P49VuHhPVCFqD7keyZAx+LaPlz+\r\nbz6Fdvs9U1juPU5/Gj4RaoA+nEsSPn4JCD++RKM+d6QKPnB8oT0yKPA9nJBCPngjQz6ubLY9ileG\r\nPPKgSj1Jxbc94G0JPQxPYzwmXi092efQPdtqCT27jQc9Ky4yPXjt1z3+Y4Q+qWOVPRtdAT1ibEI9\r\nbSiFPa/kCT29bPQ8t1R6PWIuej338o4+YoobPVYHdT3irwI9Id5BPVQizzyal4o8Oto7PZQljz3V\r\nVZc8BPSuPOS1Ez1OsUA95umjPcrnGT0o+Qo95M01PRHiED31CgU9I94CPbQJQzzaG/o8ONkxPUKJ\r\n8zwMEV09eMDQPBrVQjzliHo8g0i2PEAUFD0MYwI9A+aRPWZo9jznDdY8L6VbPTI5Ej1qNRM9D5qt\r\nPNhShDzTRIs8oNaMPNNNRDzbawQ9wukyPRCmfT167cQ96HjXPFl3JT3pBr49dLyJPefi/jwg2lE9\r\nW2UKPV69tTzDfAA979SIPfaIGD2t9wY9pCWePJvaKz0PsKs81p2VPJCygzwfY6g8aMFRPDbiejy0\r\niq88JgMLPW22izx8hyQ9JVzIPEIyED0kHZc8kANAPASCmzyRv4Q8UaQKPaDdOTya/qY8SONgPO7m\r\nZj2SBMM8St5bPMcEFzySSNo7oXU1PIkPtTyHwME91CxcPbHibzzXumc8mZ7LPISshzzP8xs82rQj\r\nPBt37Dy9K0Y82igzPCOeyjttD9E7ffAqPBVpajyVa1U8L2iaPGWgnTwHWew7nXnIO3F0WTyf8RQ8\r\ncJ4rPFdMdzys2Qw9uZnrPBAoMDwjkYw8ZSrhO/YQrTvamQo86wSBPOe0Nz2l/wo9m3koPNV4hTsy\r\nH088fZQ9PLqm5Du70Qw8V98lPJuToDvGLYU81seCPI1N1DxMYPM79xOPPKw1/DzXfzA8KaJkPNHx\r\nFzwUl8M85ikqPTntpzzko9A8hCIcPGXopzvWlcM7H2AVPHi0OzybEZ47v2A6PPGfkzwEStg7ulaX\r\nO9ozhDymjo48xoL+PBELnzy7Co07q9xBPFfThzsPfUE8RaCDPL6FgjyIzSA8+oFWPLHJAjykVI87\r\nKsUbPJLaDTxgNq48I8asO1eRJDw3iso7flx+PNXbiDv0r4E8oCVaPBAKsTue9oE8wyc0PCIKpTtz\r\nqDA83NG1PNxFLjyyaac7A/NoOy3vpjs2ul87YvhsO+SNXzu82Hw78QEcPMkEOTxIsoM8elKOO4sD\r\nfjuwZ+Y7Fkz/O5JKyztCihU7prwPPDrVyTx0Bao80GnGPLkwJTzykXg7AE3MOuvpQjuwUVA7VIPF\r\nOsqWTjskaoE6vVaZOj+m0DpDQJ86vAAXOxrIRjrO2/I5rVkcOjy2DjoUuHM5HikWOgDpmzk2qrg5\r\nDNTKOQuAwTlKYZA5RZqnOcC+vjl6IMI5trduOaJGkTnid6E5QBqnOWXiHTk5Q0I5GJ2SOReokDmO\r\nrVE5spNOOYKTcznOllU5MAVuOWJaXTnR5VU5SgdqOcFKizm96m059pCAOWJxbzk2i2g5duKBOeQ3\r\nQznIUHc5w6hdOXh0RTkpQXg52sxvOSZKdzlqc2Q52JF4OUQXXjnwr1A5pItXOeI4Pzn1C3E5WM1V\r\nOUJGNTn2vE85yJNLOZZxQjmEDlI5hVJROWh6RTms10M5uQ88ObaQPTkQxUw5XUc2OedjPznSh0k5\r\n+jsyOdz8RDlbkS85BqlKOcVYQDnqsko5sm5DOeajPDlcFzc5MME0Ob87Lznq5Tg5nu43OY6rODmo\r\nKzk5HGw4OVduRTkqpDU5g8ssOY0ELTnQrDg5iNQzObkKJTlGsi05NnwuOaIULTn83zI5T3YkOTIj\r\nMTlKuyI5NOIeOYqlHDmukjU5Xs8kOaCrNDk7jDI5q8AoObeyLDnq/yY53uMlOUm3HDm0wR45ki8b\r\nOdfnFjkorCE5xLUeOZwEJDlw8CE5DNMhORyQFTnach05/zwgOfPAFDnqFho5guUjOVjtHjlo1Q05\r\nWjgaOWIAFDnmZgo5QxMSOYPdJDmTFRY5tH8WOWYODzl8Hg85Tw0ROU4qEjl+ShA5COIHOSWGCTmV\r\nBRM5JNMUOUSVCTkFiQ45Cs4OOYIeCznAxQk5JI0POa5CDzlWqw45JesQOQxZCDm89xw59qMSOfIK\r\nDDnLmgc5N33+OKKnCTkevvo4Sf8GOYQpDDmV2ws5NKgKOe7XBTk8ogg5n0kFOS55BDnY2wk5D0IE\r\nOSNFATnVZgU5fCf+OGi+9jiYhQQ5IzEBOdCV9jiuDQY5Eq/pOE6W8jhG3uk4WiP+OMD8BjmAgPE4\r\ncTHqOOTE9TjRUvA4KEj5OGp+Ajl8XOQ4WyPnOP5b+DgiSfE4OFzrOF1rATmsceI4O9YDObiw9ThT\r\nhfU4s1DzOGcR/Timm+o4rIj/OOH/9jinhPA44urWOGrn9jiWSfI4NuL3OIIPzji1Les4sB7dOKxP\r\n+ThAE+o4QJjdOERe8Tiwe8U42mTmOGIJ1TjJDt84UEXhOLyD2zjEfu04dezVOK033DgOZcQ4jyTb\r\nOIq+4jgC/tw4zmLjODrj1jhCyNc4A+fKOFyBzjgEBdU49TfcOFdG4DhqGMM4HFvQOG6UzTh4I9I4\r\nARbWOMaOzTiMYsA4ltfjOPeswjiGCNs4GgHeOJ5pzThMAs44k6fVOCASwzhJnMY4TAzSOJJY1TjG\r\nLdY4ykrWODJBwTin0ME4l5i7OBnWuDjgOb444d3FOEKqzDg+Vso4rAbOOM7Xyjg82rk4hLvHOEpz\r\nwDh8PMM4jRzIOBR0xThVMsE4Qtq/OA6HuTg0qs44ryi6OCLexziHKcM4nKDJOMFtuTjYVbY4rX3H\r\nOOb0wTg82sg4uu3FOII0wDg1eLw40XHAONnQxzimObg45yDBOJs1zTiVO7g4rPKzOK4GwjhaZb04\r\nO/y9OI5CwjgcKLE4mSfFOGe2pzjogb44gNC1OCb1tDiVq6848HW8OJmhvzg4Hrs406OmOIQDqTjl\r\nrZo4gvalOM66qDhr47M4+UG8OAXXsjjCSsI4VgqpOGVuoTh8ksk4HBeuOI4fszh0AKw4jTGxOEEl\r\npThziKw4Hn+iOLvBrjgPkrs40jqnOMNOrzhQI6I4FniVOOgcsDj0Apw4lq+vOIgArzgaZbM4HLOi\r\nOFcYpDjGmqc4CMKiOPHJmziPnKA44IWmOCqJnDh6z604uWauOGHYsTiGs5c4CGSVOMYEnTh+Pak4\r\nGJKYOIeeoDiKbJs4EDueONWooziPJ6o4YdaqOOjPkDgRZZ446qSyOGAxmjgD9qE44dOeOJpqmDgk\r\npq44yQSoOPw0lzjCyak4pEmiOIF3qzgbJ5s4/BygOKtfpzgYtJ04aZWZOHxGmDi0VLI4PGaXOISm\r\niThAw5o4yGioOLCDjzhEXJ44mnyeOFC6pDhu6Js486ikOM/XmTiVppk4XmuaOBLClzjFmIY4wk+O\r\nOBgApDh1/aA4YlWfOHRwpTjmlJg4XrKMODoFizgy5KM4bvSfOAr9jThHIJ04mZWZOIXKZzhw0Is4\r\n0+KiOIIqijgwlZM4GlaCOGGapTj1L5E4NjqeOI5JjTgGr5k4VBmDOJuOjDjCrZk4ckmBOGfPlziT\r\nuZM4Rm2AOGcMqzgKt544ZmyNOOLNkDg5DI44/paNOLm5jjh7eJE4jYyOOE0giTg40aQ4B3aIOMjE\r\nmDhNDYM4PGSGODkomDiW1Jo4CH2GOFL9kDht7oQ442uMOGtAjDi5Uow4ArOfOJGCiTh4C54485qI\r\nOCcPbDhnK5Y4HzqUOEiziTgqAoY48VeNOKmBjTiAcZI4fguHONQPjjiC2IU40PuNOEJfijhFKGw4\r\nHKyCOD7jkzgREYM4PC6GODFVizj2NIQ4ni2HOAxEiDh+UIA41i98OBK/gDjyjpI4EweJOOCEgzj+\r\nopQ4YHaPONCKmDhoKJo4Fn9yOHbgmTg6r5A44i2HOFcejji/o4o46nKVOH7Xjzhxu344/JWEOE1c\r\neThqs4o4nv+GODmFmzj9v5E4CU2WOAGEezizgog44S+UOJbNhzjCNHs4AFV/OPHehDiaUHM4iPyR\r\nOKRrbjhFU4w4I3GYOCHrjTho2ZE4PwOPOD5ZiDiDfI44qqKPOL2iizgseIk4HkCLOIUufDi9T4c4\r\n/35sOLcUkzh8+Ig40hRhONTpijj3uGw4C0SQOEJBgziJrYM4ubNvOG3WhThmP484dUh6OAAoeTg5\r\nIno42J6IOPgLgzh/OYc4fyllOKXjhjhsxFU4wcKROPv0ijhLy3U4dc9/OH5DaDgmfYk4RXmCOM8V\r\ndzhAJHw4m6eBOF0Rbzg2AH84T1h8OJMfczinC5A4AlaMOOLfRjiDMoQ4X4+CODh5hjhIw484eA6B\r\nOA1CkDiu1Y049r2NOLfUfjiIMoA4KGeNOJLFaDgZ0mc4FJ6AODT4VThtQ1c4EJaJOKAobziEUYU4\r\nTDh7OH5ocDiYKmA4SupvOKJuczg0kow4/997OBccbjh5KXg4odyJOF/ZbDjE6Xo4MaR2OFP4aDh9\r\n3II4DglgOIhHYTgG31845X9/ODqzXjjgGm04Hsp0OONMeThtroU4NfZ1ONTTdTj0Elk4fYeCOGfb\r\ngDht7m44ha9zOOYXgDi/nYE4JGWAOJRMcTijSYk4fhqNODcWYzjOfXI4bhxrONa7eTgcP184Xit9\r\nOHXEbTg1PFo43jNlONpLZjiCA4U4m2FYOB0WfDguqWQ4yZ6KOAonfDjI3Wc4NNhiOADlhjgc7l84\r\n2cuAONqyazisAYA4DGJ7OFk2fjgj/Ws4CzWBODZiczgdGoY4GtxROIXWhDh4omU4XY9sOPGZhjje\r\nsXE4zsp4ODWfdTg8d3Q4pPJvOPVjhTir2XE4ifR5OMfOaTgtB1w4Rk+FOEi8bDgwgXI4iCyAOA2g\r\nfTgfKGU4QHdjOOHOgDhaAYc4pu6EOBWadzjmnWk4SkyDOBxjfzhHe3M4M4xpOAQ/hzi7bWQ4Uqxv\r\nOIUkgzhRFoA424VdOFN8dDim0lM4FHp4OKQzgjiF5mg4LBRzOFLEgjiF2Fs4wU2EOIAAgTjQMsFA\r\ngd0cQWQXnz8O5wM/TCzNPnsqa0CAwL9Al4xWQI5T9j8Mz9lAyJ7PPi5dDD8uaw9A9vZdQQ/yW0AL\r\n5wU/BIQnP5uPET6L/Yc+hXWBPm3m2z7z3VM/fbWpP//iSkBhkVU/aExIQCfowD8P26Q/VMSQP3LE\r\nN0FyZbdA8ScgQAaMn0DRMB5BsbMiQYOpEEH4yhNA777UP1J9gkBXWf4/R64tPwELSj+0vrI/gIp3\r\nP1BPCkDjnf4+NDdFP6DFxz6hSDZAedo+P0KElT52Sdg/e945P7E4tD8JVZA/0v9XQDzFQ0BPNx5A\r\nETQLQCiKsD8gMgVAjNoGQE/pkUDrQa8/PPBXP2y1cz+RvGc/ZHtOQNu89T8M4z0/4NloP3W81T4q\r\nCYo+CCcmP3QwGkCEusg/nWyPPioMpD7K8sA+ijFvPsJ8/j1W4eE9ZJeoPiplJkDH4to+/fxvPhqB\r\n+z1uTu498KcaPpKggD5BgxI+fgkIP62joz6JCws+cHyhPTIo8D2ckEI+eCNDPh2Itj0lsYY8nClL\r\nPQx3tz3gbQk9DE9jPE4iLj14QtE922oJPbuNBz1QpjI9CPfXPTdphD6pY5U9sHEBPWJsQj1tKIU9\r\nr+QJPcFt9Dy8P3o9GiR6PaP3jj5iihs9r4x1PdwqAj0h3kE9TODOPBoNizw62js9lCWPPaiFlzwE\r\n9K485LUTPZl6QD3n6qM9yucZPSj5Cj3kzTU98zQRPVkqBD0j3gI9FBhDPNob+jwyijE9G6DyPAwR\r\nXT22nNA8BLtEPOWIejyDSLY8QBQUPXh+Aj0D5pE9MFj2PPD/1Txn1lo9MjkSPWo1Ez2vK6082FKE\r\nPNNEizyg1ow8J8hEPJpDBD3C6TI9EKZ9PXrtxD3oeNc8WXclPekGvj10vIk95+L+PCDaUT1bZQo9\r\nXr21PDCBAT3JqYg99ogYPa33Bj2kJZ48/r8rPfYArTwlkpU8YLSDPGkEqDxwz1E8lNF6PLT6rzwm\r\nAws9bbaLPHyHJD0lXMg8jw8QPZK2ljwmzz88BIKbPJG/hDxRpAo9RH85PJr+pjxI42A87uZmPZIE\r\nwzwosFw80QcYPIzd2DuhdTU8fDG1PIfAwT3ULFw9QKhvPNe6ZzyZnss8hKyHPNowGzxLmiM8G3fs\r\nPL0rRjzRmTM8PBDKO20P0Tv0JCw89sRpPJVrVTwvaJo8ZaCdPAdZ7Dudecg76+ZYPJ/xFDzFRyw8\r\nV0x3PDuFDD3Bcus8ECgwPCORjDyPUOE7FBywO30KCzzrBIE857Q3PaX/Cj2beSg81lOFO6TpTjx9\r\nlD08bdPkOxSsCzxX3yU8FiGgO82jhDyLGYM8jU3UPJvr8zv3E488rDX8PNd/MDwpomQ80fEXPEyi\r\nwjzmKSo9bDaoPO760DyEIhw8ZeinO9aVwzuzfxU8eLQ7PCH5nDvyWjo8W7yTPC8s2Du6Vpc79rqD\r\nPKaOjjysVP48EQufPF4zjjujJUI8V9OHO1tYQTxFoIM8tsOCPIjNIDz6gVY8+qgCPKRUjzsqxRs8\r\nktoNPGA2rjw3Ia47V5EkPDe8yTvxPX486euHO5gbgjygJVo8EAqxOyYSgzybvDQ8nnGkO3OoMDzc\r\n0bU83EUuPPNXpzsNXmo71uWmO/82XTsSgGk7ykVeO5b0fDuViBw8yQQ5PPFOgzx6Uo47iwN+O3lO\r\n5jtiw/87vOLKO2XaEjumvA88OtXJPFSmqTzQacY8uTAlPMOYeTsATcw66+lCOwNGUDtUg8U6zf9N\r\nO6c4gTogNZw6EanWOkTGozp8fhU7w7lFOs7b8jmtWRw66n8OOhS4cznKkBU65s6XOd49vzkM1Mo5\r\n60e5OblIkjmk5KM5I1fFOfnKvznMVXU5adqKOQjimzmwO6o5Fp0kOWlGLzk/m4857HWGOUbgZznY\r\nCUU5WS6WOWVZSDkjZlE52iB5OZqTXTkouDo5gZqSOdBaXDnK8ls5oFBxORDVdzkG4Hk59HBjOfg5\r\nSDm4XWM54R10Oe6NWTm8FVs59h9qObFOTDkar1s56BhmOTwbXTk7oFg5Qk1SOfVERzmjhFU5RKRH\r\nOZeURjk0qUM55GFMOUoXRznU8Uk5cs9KOUiyPzndSU054qJAOcqASzlwzDo5EKBGOT44QzmjvjQ5\r\nqlJMOYpHNTlTnUQ5p+o5OQJVRjmIfU85Tpo7OZdtQzmlOUA5as8xOSpgPzma6T45SBI2OUamOjnO\r\nWDs5ERJCOQBnMjk6x0A53sA0OWakLjlQXDc5fqghOZotMTlYKy05L9IvOdZJITnoySM5uO41Oc3W\r\nHTnnkiQ57uwhOaS7LTm8Kys5R6Q5Obj1MTlTISk5SO4nOQ+BLjlyfS05Xn0fOfp/GTnMpxo5KzMU\r\nOZ4ZHTn8aSY5FNYcOX5FIjmu3SE5vrgVOT1LJzmu3xo5H6okOUmKFzntgBo50i0dOTBJETkc/SQ5\r\nxqYROVuxFTn8vBc5yuoeOXzOGDn4DCE51KUkOc9bGzmY+gU5BvoeOblFBzmIFg05A3EQORj0Dzmg\r\nCxA5FjQWOUGvEjnEzRQ5ZdINORrBDjlyexg5ybkLOXZiBTnIZwU5+gwGOXBYFDlCGBo5mlEMOYo3\r\nBDnYOgU59qkAOY4P9ThoRAo5RkH+OIYiEjmyVwc5bvYGOZFiBzlf1QE5sgAGOaq8DjkuNgI5sRD+\r\nOK9r+DgaDOk4YfHiOH7h+Ti3gQk5QpX7OLPH8DhDhug4EsPyOH7/9DioE/A4FDf/OAAK+jhyzes4\r\nJcTtOLqlAjnOx/k4Zn8COURm8DjXz+w4s0joOCdf7zgHt+44ZET7OJpK4zgbWgU5bOTkONCX7DgS\r\n8AQ5JkT6ODBO/zgwPvE4kgkAOfNU+DgMleg4fJT7OJ9N4TiA/+046iXoOJIu7jj7I+I4ADL4OFEV\r\n6Ti7zeg4FwjVOJ3n0DhTMfY4QsrQOPK20zhqgtw4F5bjOPsz+ThFI7s4JjjaODUi1zgKJNc4raq7\r\nOLSr2jgweuc49ULhOCAp4DgcFNE43nnEOI61zziPf9E4Et7kOM284Dh0YMw43j3cOD7u1jgItsg4\r\ntgnYOLJZwDjgFdE4lNLeOJep3zihC8s4tKnMOOFvyjhnDdI4kITbOIw9xDgoRsY4eBHMOMX3zzgJ\r\nj8Y47hvOOE0VujjjesA47CPWOAAe2jgP4MU47LLKONRbszgYWNk4iv7AOFiVsjjYpMY4ogDLOFy2\r\nvDiFwcs4QB3FOIxBxjg+Or04HOHHOPFRwzijKbs4KuW/ODzmwzgCLsM4s2G8OKN9tTjnJsA4wgax\r\nOAhYwTgXt8k4mqfGOJ4WvzjUIs44GlDCOIxXwTj6jcQ4dxXDOPDltzjzlaI4pDK/OBD6rzj4s7s4\r\n+jPEOD3Ltjg+sbc4ysK1OH9SsThaja04nnWyOAChujiuh8A4b+a4OKEZpjgyo7A4V2m5OIovljiX\r\nNKs4PoKzOBRMrDhNErQ4Aj2zOCmFtjhYPag4JkihOMOwtjh92a04dC2lOA0cqDiN0ac4TGKkOOPi\r\npDj4R604+O+yOGSCwDh4y5o4pnmuOPN6nzgKM5c4KEe0OC7kmzixJb04JYqsOE9Brji4tpc4Inyh\r\nOFE3rTikw6Y4suOoOPwtnjiSkaI4khupOCRanjg0X7A4bBagOKG0rTjUVaQ4tLmdOOrekzjqVas4\r\npmajOAGAnDhC8a84vaCPOAMBnjhI8qg4/42bONJ1mThgdKI4QCaqODTSrDgWmKo44GOcOCaXsThq\r\nsqA41nKYOAgyqDjCOqs4aSefOGO0ozjpLpE49iumOJ2Sljjor5g4ZcubOCkmrTgrApc4ARybOFRT\r\nkTggl6U4ZIeROPIhoDjXyJI44OKfOLwJkzg7h6Q4SW2UOLVrkjg2SZE4qyuiOHIjjDhTapc4CICp\r\nOBquozi7I4g4hfWYOIxsoTioRpA4WVSZOMYWnTjdTqA4oBiTOCRunDhim6Y4/pKEOGNllziZH504\r\n8MOLONeCnTgedok4LXaYOIZKhjhUwq04Rx+aONjDlDhEqI44vTSMONv+hTi4qYI4RNedOL1pjTi+\r\nOp048SqnOLYqojgPOKE4ljKSOILvgjh/nZc4yy2SOJe0jjgZO4k4/s6IOBjJnDinboM4W/OZOE3q\r\nijig75k4AEuTOL/rizhuzIE4/cByOEtGnDhf3pU4YsCMOPl8izhhQJY4P0iPODulozi8+IY4RY+C\r\nOCGviThar5E4IsyOOOuPiTiKwoo4WmeOOIctjjiXC4s4ibqDOKh6eDhaC4c4PfKJOA7XizhYm344\r\nHIWiOGwzgzjYdo04a1ekOMnxgziCTYs4AauFOIXcazghLow4IleTOKOpjzhRh4I4QNyGOIhDlDgz\r\nKI84/3SSOClpnTi4yI44dBqPOJN9mjgzfIc4FkyNOLRchTiO84s49ct8ONoQZzjbbY84RoV3OLOq\r\nhTi9N4M4PIaXOEHGmzgOfYw4ZjCKOEHeizgIL4s46RFyOCFwfTh2I2s4dfWJOAbjiTh7n4Q4buxy\r\nOO98gDgDFJA4xlWCOC1sgDhoXYk4TceLOJKjkDjAsYQ4nA+PONXIgTjiC404Yq54OHGDjDgUC3k4\r\nuZWAOGDphjhcAmU4/72LOD0lgjgK2Is4IgaIOMCIgjgTnns4f2eDOPe8bThkgH04dA2DOBQNdjje\r\nRoA4qxaHOP81hTgQyXE44GaGOJR6gTgHM4g4kBuJOLkjbTg3S3E4806HOCi/gDh2LYA4mv6LONwC\r\ndzjhZ4M4DK1fOM5hgThTlWA4hluGONazfzgDBHs4tS5jOMq0gThKu4w4hvR7OK62fjjEGIk4vi+N\r\nOI70gDjJ1YI4sqKPOEZgbDjg/Y04R+F0OKS2aDhlFJA4WAFqOP/XZDhxS444RVpsOA3XdDjy+HU4\r\nHdtqODRvZjhRJWA4CGuDONP0fjhD9Xg4DCpnOJI/gjgyUpA4q+5TOEEkYzgxjY04uSFhOP9YgTgm\r\n3WQ4Io1hOO9VeDi9woM4tqByODnxaDiYlnI4jcB/OOgAdjh+CXI4ZnJqOBtRXjjbyH04ZIeBOBJc\r\neDjr0n84w8qJODaggDgNunM4wrSCOIzXfDi6YoI4fQZiOK4aYTju5YE4BZVfOKiLXDhUY3g45N11\r\nOH9OajgFuGc41pl6OA5sZjiGP0k4rw9iOH/3dzgTG4k4n5JeOIlEaTjJeIU4rxWCOB0xZDhmMYE4\r\nm7aCOG2VczhKIl04RaVnOEDgdTgwiGw4n8SAOGjUdTgyAWA4kpqIOO1peTi5pnQ4tdF+OPV3jTjZ\r\nKGk4hzlkOFNyhTi6WXY43e94OLBEbjizQ2E4uIRqOE0VbTgZ2HU4G3J8OHnFZTgk0GY4RBKCODBr\r\niDhzjHc4lbN5OGojeTi034E4/Ex5ODuueziHQ4c4HQ53OKqzizixomw4ufWKOMi+eDif72w48/SB\r\nODxGcTjj0F04yoNoOMQWZji4q3w4UtdzOMeXgjjTx4Q4OkBrONP1dzj4nHA4ADKKOA==",
                            "noiseTrainingType" : "default"
                          }
                        }
                    ],
                    "start" : 19446,
                    "duration" : 1898,
                    "mediaStart" : 7570,
                    "mediaDuration" : 1898,
                    "scalar" : 1,
                    "metadata" : {
                      "AutoAppliedSmartFocus" : "False",
                      "WinSubProjectDisplayName" : "",
                      "clipSpeedAttribute" : false
                    },
                    "animationTracks" : {

                    }
                  },
                  {
                    "id" : 242,
                    "_type" : "StitchedMedia",
                    "minMediaStart" : 0,
                    "attributes" : {
                      "ident" : "tower-05",
                      "gain" : 1.0,
                      "mixToMono" : false
                    },
                    "parameters" : {
                      "cursorOpacity" : 1.0,
                      "cursorScale" : 1.0
                    },
                    "medias" : [
                        {
                          "id" : 243,
                          "_type" : "ScreenVMFile",
                          "src" : 5,
                          "trackNumber" : 0,
                          "attributes" : {
                            "ident" : "Rec 02-04-20_007"
                          },
                          "parameters" : {
                            "cursorScale" : {
                              "type" : "double",
                              "defaultValue" : 0.0,
                              "interp" : "linr"
                            },
                            "cursorOpacity" : {
                              "type" : "double",
                              "defaultValue" : 0.0,
                              "interp" : "linr"
                            }
                          },
                          "effects" : [

                          ],
                          "start" : 0,
                          "duration" : 1383,
                          "mediaStart" : 0,
                          "mediaDuration" : 1383,
                          "scalar" : 1,
                          "metadata" : {
                            "AutoAppliedSmartFocus" : "False",
                            "WinSubProjectDisplayName" : ""
                          },
                          "animationTracks" : {

                          }
                        },
                        {
                          "id" : 244,
                          "_type" : "ScreenVMFile",
                          "src" : 5,
                          "trackNumber" : 0,
                          "attributes" : {
                            "ident" : "Rec 02-04-20_007"
                          },
                          "parameters" : {
                            "cursorScale" : {
                              "type" : "double",
                              "defaultValue" : 0.0,
                              "interp" : "linr"
                            },
                            "cursorOpacity" : {
                              "type" : "double",
                              "defaultValue" : 0.0,
                              "interp" : "linr"
                            }
                          },
                          "effects" : [

                          ],
                          "start" : 1383,
                          "duration" : 2726,
                          "mediaStart" : 1406,
                          "mediaDuration" : 2726,
                          "scalar" : 1,
                          "metadata" : {
                            "AutoAppliedSmartFocus" : "False",
                            "WinSubProjectDisplayName" : ""
                          },
                          "animationTracks" : {

                          }
                        },
                        {
                          "id" : 245,
                          "_type" : "ScreenVMFile",
                          "src" : 5,
                          "trackNumber" : 0,
                          "attributes" : {
                            "ident" : "Rec 02-04-20_007"
                          },
                          "parameters" : {
                            "cursorScale" : {
                              "type" : "double",
                              "defaultValue" : 0.0,
                              "interp" : "linr"
                            },
                            "cursorOpacity" : {
                              "type" : "double",
                              "defaultValue" : 0.0,
                              "interp" : "linr"
                            }
                          },
                          "effects" : [

                          ],
                          "start" : 4109,
                          "duration" : 424,
                          "mediaStart" : 4173,
                          "mediaDuration" : 424,
                          "scalar" : 1,
                          "metadata" : {
                            "AutoAppliedSmartFocus" : "False",
                            "WinSubProjectDisplayName" : ""
                          },
                          "animationTracks" : {

                          }
                        },
                        {
                          "id" : 246,
                          "_type" : "ScreenVMFile",
                          "src" : 5,
                          "trackNumber" : 0,
                          "attributes" : {
                            "ident" : "Rec 02-04-20_007"
                          },
                          "parameters" : {
                            "cursorScale" : {
                              "type" : "double",
                              "defaultValue" : 0.0,
                              "interp" : "linr"
                            },
                            "cursorOpacity" : {
                              "type" : "double",
                              "defaultValue" : 0.0,
                              "interp" : "linr"
                            }
                          },
                          "effects" : [

                          ],
                          "start" : 4533,
                          "duration" : 139,
                          "mediaStart" : 4741,
                          "mediaDuration" : 139,
                          "scalar" : 1,
                          "metadata" : {
                            "AutoAppliedSmartFocus" : "False",
                            "WinSubProjectDisplayName" : ""
                          },
                          "animationTracks" : {

                          }
                        },
                        {
                          "id" : 247,
                          "_type" : "ScreenVMFile",
                          "src" : 5,
                          "trackNumber" : 0,
                          "attributes" : {
                            "ident" : "Rec 02-04-20_007"
                          },
                          "parameters" : {
                            "cursorScale" : {
                              "type" : "double",
                              "defaultValue" : 0.0,
                              "interp" : "linr"
                            },
                            "cursorOpacity" : {
                              "type" : "double",
                              "defaultValue" : 0.0,
                              "interp" : "linr"
                            }
                          },
                          "effects" : [

                          ],
                          "start" : 4672,
                          "duration" : 212,
                          "mediaStart" : 5022,
                          "mediaDuration" : 212,
                          "scalar" : 1,
                          "metadata" : {
                            "AutoAppliedSmartFocus" : "False",
                            "WinSubProjectDisplayName" : ""
                          },
                          "animationTracks" : {

                          }
                        },
                        {
                          "id" : 248,
                          "_type" : "ScreenVMFile",
                          "src" : 5,
                          "trackNumber" : 0,
                          "attributes" : {
                            "ident" : "Rec 02-04-20_007"
                          },
                          "parameters" : {
                            "cursorScale" : {
                              "type" : "double",
                              "defaultValue" : 0.0,
                              "interp" : "linr"
                            },
                            "cursorOpacity" : {
                              "type" : "double",
                              "defaultValue" : 0.0,
                              "interp" : "linr"
                            }
                          },
                          "effects" : [

                          ],
                          "start" : 4884,
                          "duration" : 634,
                          "mediaStart" : 5243,
                          "mediaDuration" : 634,
                          "scalar" : 1,
                          "metadata" : {
                            "AutoAppliedSmartFocus" : "False",
                            "WinSubProjectDisplayName" : ""
                          },
                          "animationTracks" : {

                          }
                        },
                        {
                          "id" : 249,
                          "_type" : "ScreenVMFile",
                          "src" : 5,
                          "trackNumber" : 0,
                          "attributes" : {
                            "ident" : "Rec 02-04-20_007"
                          },
                          "parameters" : {
                            "cursorScale" : {
                              "type" : "double",
                              "defaultValue" : 0.0,
                              "interp" : "linr"
                            },
                            "cursorOpacity" : {
                              "type" : "double",
                              "defaultValue" : 0.0,
                              "interp" : "linr"
                            }
                          },
                          "effects" : [

                          ],
                          "start" : 5518,
                          "duration" : 3511,
                          "mediaStart" : 5894,
                          "mediaDuration" : 3511,
                          "scalar" : 1,
                          "metadata" : {
                            "AutoAppliedSmartFocus" : "False",
                            "WinSubProjectDisplayName" : ""
                          },
                          "animationTracks" : {

                          }
                        },
                        {
                          "id" : 250,
                          "_type" : "ScreenVMFile",
                          "src" : 5,
                          "trackNumber" : 0,
                          "attributes" : {
                            "ident" : "Rec 02-04-20_007"
                          },
                          "parameters" : {
                            "cursorScale" : {
                              "type" : "double",
                              "defaultValue" : 0.0,
                              "interp" : "linr"
                            },
                            "cursorOpacity" : {
                              "type" : "double",
                              "defaultValue" : 0.0,
                              "interp" : "linr"
                            }
                          },
                          "effects" : [

                          ],
                          "start" : 9029,
                          "duration" : 45,
                          "mediaStart" : 9418,
                          "mediaDuration" : 45,
                          "scalar" : 1,
                          "metadata" : {
                            "AutoAppliedSmartFocus" : "False",
                            "WinSubProjectDisplayName" : ""
                          },
                          "animationTracks" : {

                          }
                        },
                        {
                          "id" : 251,
                          "_type" : "ScreenVMFile",
                          "src" : 5,
                          "trackNumber" : 0,
                          "attributes" : {
                            "ident" : "Rec 02-04-20_007"
                          },
                          "parameters" : {
                            "cursorScale" : {
                              "type" : "double",
                              "defaultValue" : 0.0,
                              "interp" : "linr"
                            },
                            "cursorOpacity" : {
                              "type" : "double",
                              "defaultValue" : 0.0,
                              "interp" : "linr"
                            }
                          },
                          "effects" : [

                          ],
                          "start" : 9074,
                          "duration" : 90,
                          "mediaStart" : 9508,
                          "mediaDuration" : 90,
                          "scalar" : 1,
                          "metadata" : {
                            "AutoAppliedSmartFocus" : "False",
                            "WinSubProjectDisplayName" : ""
                          },
                          "animationTracks" : {

                          }
                        },
                        {
                          "id" : 252,
                          "_type" : "ScreenVMFile",
                          "src" : 5,
                          "trackNumber" : 0,
                          "attributes" : {
                            "ident" : "Rec 02-04-20_007"
                          },
                          "parameters" : {
                            "cursorScale" : {
                              "type" : "double",
                              "defaultValue" : 0.0,
                              "interp" : "linr"
                            },
                            "cursorOpacity" : {
                              "type" : "double",
                              "defaultValue" : 0.0,
                              "interp" : "linr"
                            }
                          },
                          "effects" : [

                          ],
                          "start" : 9164,
                          "duration" : 156,
                          "mediaStart" : 9606,
                          "mediaDuration" : 156,
                          "scalar" : 1,
                          "metadata" : {
                            "AutoAppliedSmartFocus" : "False",
                            "WinSubProjectDisplayName" : ""
                          },
                          "animationTracks" : {

                          }
                        },
                        {
                          "id" : 253,
                          "_type" : "ScreenVMFile",
                          "src" : 5,
                          "trackNumber" : 0,
                          "attributes" : {
                            "ident" : "Rec 02-04-20_007"
                          },
                          "parameters" : {
                            "cursorScale" : {
                              "type" : "double",
                              "defaultValue" : 0.0,
                              "interp" : "linr"
                            },
                            "cursorOpacity" : {
                              "type" : "double",
                              "defaultValue" : 0.0,
                              "interp" : "linr"
                            }
                          },
                          "effects" : [

                          ],
                          "start" : 9320,
                          "duration" : 6000,
                          "mediaStart" : 9796,
                          "mediaDuration" : 6000,
                          "scalar" : 1,
                          "metadata" : {
                            "AutoAppliedSmartFocus" : "False",
                            "WinSubProjectDisplayName" : ""
                          },
                          "animationTracks" : {

                          }
                        }
                    ],
                    "effects" : [

                    ],
                    "start" : 21344,
                    "duration" : 26,
                    "mediaStart" : 9468,
                    "mediaDuration" : 26,
                    "scalar" : 1,
                    "metadata" : {
                      "AutoAppliedSmartFocus" : "False",
                      "WinSubProjectDisplayName" : "",
                      "clipSpeedAttribute" : false
                    },
                    "animationTracks" : {

                    }
                  },
                  {
                    "id" : 254,
                    "_type" : "StitchedMedia",
                    "minMediaStart" : 0,
                    "attributes" : {
                      "ident" : "tower-05",
                      "gain" : 1.0,
                      "mixToMono" : false
                    },
                    "parameters" : {
                      "volume" : {
                        "type" : "double",
                        "keyframes" : [
                          {
                            "endTime" : 0,
                            "time" : 0,
                            "value" : 1.0,
                            "duration" : 0
                          },
                          {
                            "endTime" : 4858,
                            "time" : 4858,
                            "value" : 1.0,
                            "duration" : 0
                          },
                          {
                            "endTime" : 4859,
                            "time" : 4859,
                            "value" : 0.0,
                            "duration" : 0
                          },
                          {
                            "endTime" : 4860,
                            "time" : 4860,
                            "value" : 1.0,
                            "duration" : 0
                          }
                        ]
                      },
                      "cursorOpacity" : 1.0,
                      "cursorScale" : 1.0
                    },
                    "medias" : [
                        {
                          "id" : 255,
                          "_type" : "UnifiedMedia",
                          "video" : 
                              {
                                "id" : 256,
                                "_type" : "ScreenVMFile",
                                "src" : 5,
                                "trackNumber" : 0,
                                "attributes" : {
                                  "ident" : "Rec 02-04-20_007"
                                },
                                "parameters" : {
                                  "cursorScale" : {
                                    "type" : "double",
                                    "defaultValue" : 0.0,
                                    "interp" : "linr"
                                  },
                                  "cursorOpacity" : {
                                    "type" : "double",
                                    "defaultValue" : 0.0,
                                    "interp" : "linr"
                                  }
                                },
                                "effects" : [

                                ],
                                "start" : 0,
                                "duration" : 1383,
                                "mediaStart" : 0,
                                "mediaDuration" : 1383,
                                "scalar" : 1,
                                "animationTracks" : {

                                }
                              },
                          "audio" : 
                              {
                                "id" : 257,
                                "_type" : "AMFile",
                                "src" : 5,
                                "trackNumber" : 1,
                                "attributes" : {
                                  "ident" : "",
                                  "sampleRate" : 44100,
                                  "bitDepth" : 16,
                                  "gain" : 1.0,
                                  "mixToMono" : false
                                },
                                  "channelNumber" : "0,1",
                                "effects" : [

                                ],
                                "start" : 0,
                                "duration" : 1383,
                                "mediaStart" : 0,
                                "mediaDuration" : 1383,
                                "scalar" : 1,
                                "animationTracks" : {

                                }
                              }
,
                          "start" : 0,
                          "duration" : 1383,
                          "mediaStart" : 0,
                          "mediaDuration" : 15796,
                          "scalar" : 1,
                          "metadata" : {
                            "AutoAppliedSmartFocus" : "False",
                            "WinSubProjectDisplayName" : "",
                            "clipSpeedAttribute" : false
                          }
                        },
                        {
                          "id" : 258,
                          "_type" : "UnifiedMedia",
                          "video" : 
                              {
                                "id" : 259,
                                "_type" : "ScreenVMFile",
                                "src" : 5,
                                "trackNumber" : 0,
                                "attributes" : {
                                  "ident" : "Rec 02-04-20_007"
                                },
                                "parameters" : {
                                  "cursorScale" : {
                                    "type" : "double",
                                    "defaultValue" : 0.0,
                                    "interp" : "linr"
                                  },
                                  "cursorOpacity" : {
                                    "type" : "double",
                                    "defaultValue" : 0.0,
                                    "interp" : "linr"
                                  }
                                },
                                "effects" : [

                                ],
                                "start" : 1383,
                                "duration" : 2726,
                                "mediaStart" : 1406,
                                "mediaDuration" : 2726,
                                "scalar" : 1,
                                "animationTracks" : {

                                }
                              },
                          "audio" : 
                              {
                                "id" : 260,
                                "_type" : "AMFile",
                                "src" : 5,
                                "trackNumber" : 1,
                                "attributes" : {
                                  "ident" : "",
                                  "sampleRate" : 44100,
                                  "bitDepth" : 16,
                                  "gain" : 1.0,
                                  "mixToMono" : false
                                },
                                  "channelNumber" : "0,1",
                                "effects" : [

                                ],
                                "start" : 1383,
                                "duration" : 2726,
                                "mediaStart" : 1406,
                                "mediaDuration" : 2726,
                                "scalar" : 1,
                                "animationTracks" : {

                                }
                              }
,
                          "start" : 1383,
                          "duration" : 2726,
                          "mediaStart" : 0,
                          "mediaDuration" : 15796,
                          "scalar" : 1,
                          "metadata" : {
                            "AutoAppliedSmartFocus" : "False",
                            "WinSubProjectDisplayName" : "",
                            "clipSpeedAttribute" : false
                          }
                        },
                        {
                          "id" : 261,
                          "_type" : "UnifiedMedia",
                          "video" : 
                              {
                                "id" : 262,
                                "_type" : "ScreenVMFile",
                                "src" : 5,
                                "trackNumber" : 0,
                                "attributes" : {
                                  "ident" : "Rec 02-04-20_007"
                                },
                                "parameters" : {
                                  "cursorScale" : {
                                    "type" : "double",
                                    "defaultValue" : 0.0,
                                    "interp" : "linr"
                                  },
                                  "cursorOpacity" : {
                                    "type" : "double",
                                    "defaultValue" : 0.0,
                                    "interp" : "linr"
                                  }
                                },
                                "effects" : [

                                ],
                                "start" : 4109,
                                "duration" : 424,
                                "mediaStart" : 4173,
                                "mediaDuration" : 424,
                                "scalar" : 1,
                                "animationTracks" : {

                                }
                              },
                          "audio" : 
                              {
                                "id" : 263,
                                "_type" : "AMFile",
                                "src" : 5,
                                "trackNumber" : 1,
                                "attributes" : {
                                  "ident" : "",
                                  "sampleRate" : 44100,
                                  "bitDepth" : 16,
                                  "gain" : 1.0,
                                  "mixToMono" : false
                                },
                                  "channelNumber" : "0,1",
                                "effects" : [

                                ],
                                "start" : 4109,
                                "duration" : 424,
                                "mediaStart" : 4173,
                                "mediaDuration" : 424,
                                "scalar" : 1,
                                "animationTracks" : {

                                }
                              }
,
                          "start" : 4109,
                          "duration" : 424,
                          "mediaStart" : 0,
                          "mediaDuration" : 15796,
                          "scalar" : 1,
                          "metadata" : {
                            "AutoAppliedSmartFocus" : "False",
                            "WinSubProjectDisplayName" : "",
                            "clipSpeedAttribute" : false
                          }
                        },
                        {
                          "id" : 264,
                          "_type" : "UnifiedMedia",
                          "video" : 
                              {
                                "id" : 265,
                                "_type" : "ScreenVMFile",
                                "src" : 5,
                                "trackNumber" : 0,
                                "attributes" : {
                                  "ident" : "Rec 02-04-20_007"
                                },
                                "parameters" : {
                                  "cursorScale" : {
                                    "type" : "double",
                                    "defaultValue" : 0.0,
                                    "interp" : "linr"
                                  },
                                  "cursorOpacity" : {
                                    "type" : "double",
                                    "defaultValue" : 0.0,
                                    "interp" : "linr"
                                  }
                                },
                                "effects" : [

                                ],
                                "start" : 4533,
                                "duration" : 139,
                                "mediaStart" : 4741,
                                "mediaDuration" : 139,
                                "scalar" : 1,
                                "animationTracks" : {

                                }
                              },
                          "audio" : 
                              {
                                "id" : 266,
                                "_type" : "AMFile",
                                "src" : 5,
                                "trackNumber" : 1,
                                "attributes" : {
                                  "ident" : "",
                                  "sampleRate" : 44100,
                                  "bitDepth" : 16,
                                  "gain" : 1.0,
                                  "mixToMono" : false
                                },
                                  "channelNumber" : "0,1",
                                "effects" : [

                                ],
                                "start" : 4533,
                                "duration" : 139,
                                "mediaStart" : 4741,
                                "mediaDuration" : 139,
                                "scalar" : 1,
                                "animationTracks" : {

                                }
                              }
,
                          "start" : 4533,
                          "duration" : 139,
                          "mediaStart" : 0,
                          "mediaDuration" : 15796,
                          "scalar" : 1,
                          "metadata" : {
                            "AutoAppliedSmartFocus" : "False",
                            "WinSubProjectDisplayName" : "",
                            "clipSpeedAttribute" : false
                          }
                        },
                        {
                          "id" : 267,
                          "_type" : "UnifiedMedia",
                          "video" : 
                              {
                                "id" : 268,
                                "_type" : "ScreenVMFile",
                                "src" : 5,
                                "trackNumber" : 0,
                                "attributes" : {
                                  "ident" : "Rec 02-04-20_007"
                                },
                                "parameters" : {
                                  "cursorScale" : {
                                    "type" : "double",
                                    "defaultValue" : 0.0,
                                    "interp" : "linr"
                                  },
                                  "cursorOpacity" : {
                                    "type" : "double",
                                    "defaultValue" : 0.0,
                                    "interp" : "linr"
                                  }
                                },
                                "effects" : [

                                ],
                                "start" : 4672,
                                "duration" : 212,
                                "mediaStart" : 5022,
                                "mediaDuration" : 212,
                                "scalar" : 1,
                                "animationTracks" : {

                                }
                              },
                          "audio" : 
                              {
                                "id" : 269,
                                "_type" : "AMFile",
                                "src" : 5,
                                "trackNumber" : 1,
                                "attributes" : {
                                  "ident" : "",
                                  "sampleRate" : 44100,
                                  "bitDepth" : 16,
                                  "gain" : 1.0,
                                  "mixToMono" : false
                                },
                                  "channelNumber" : "0,1",
                                "effects" : [

                                ],
                                "start" : 4672,
                                "duration" : 212,
                                "mediaStart" : 5022,
                                "mediaDuration" : 212,
                                "scalar" : 1,
                                "animationTracks" : {

                                }
                              }
,
                          "start" : 4672,
                          "duration" : 212,
                          "mediaStart" : 0,
                          "mediaDuration" : 15796,
                          "scalar" : 1,
                          "metadata" : {
                            "AutoAppliedSmartFocus" : "False",
                            "WinSubProjectDisplayName" : "",
                            "clipSpeedAttribute" : false
                          }
                        },
                        {
                          "id" : 270,
                          "_type" : "UnifiedMedia",
                          "video" : 
                              {
                                "id" : 271,
                                "_type" : "ScreenVMFile",
                                "src" : 5,
                                "trackNumber" : 0,
                                "attributes" : {
                                  "ident" : "Rec 02-04-20_007"
                                },
                                "parameters" : {
                                  "cursorScale" : {
                                    "type" : "double",
                                    "defaultValue" : 0.0,
                                    "interp" : "linr"
                                  },
                                  "cursorOpacity" : {
                                    "type" : "double",
                                    "defaultValue" : 0.0,
                                    "interp" : "linr"
                                  }
                                },
                                "effects" : [

                                ],
                                "start" : 4884,
                                "duration" : 634,
                                "mediaStart" : 5243,
                                "mediaDuration" : 634,
                                "scalar" : 1,
                                "animationTracks" : {

                                }
                              },
                          "audio" : 
                              {
                                "id" : 272,
                                "_type" : "AMFile",
                                "src" : 5,
                                "trackNumber" : 1,
                                "attributes" : {
                                  "ident" : "",
                                  "sampleRate" : 44100,
                                  "bitDepth" : 16,
                                  "gain" : 1.0,
                                  "mixToMono" : false
                                },
                                  "channelNumber" : "0,1",
                                "effects" : [

                                ],
                                "start" : 4884,
                                "duration" : 634,
                                "mediaStart" : 5243,
                                "mediaDuration" : 634,
                                "scalar" : 1,
                                "animationTracks" : {

                                }
                              }
,
                          "start" : 4884,
                          "duration" : 634,
                          "mediaStart" : 0,
                          "mediaDuration" : 15796,
                          "scalar" : 1,
                          "metadata" : {
                            "AutoAppliedSmartFocus" : "False",
                            "WinSubProjectDisplayName" : "",
                            "clipSpeedAttribute" : false
                          }
                        },
                        {
                          "id" : 273,
                          "_type" : "UnifiedMedia",
                          "video" : 
                              {
                                "id" : 274,
                                "_type" : "ScreenVMFile",
                                "src" : 5,
                                "trackNumber" : 0,
                                "attributes" : {
                                  "ident" : "Rec 02-04-20_007"
                                },
                                "parameters" : {
                                  "cursorScale" : {
                                    "type" : "double",
                                    "defaultValue" : 0.0,
                                    "interp" : "linr"
                                  },
                                  "cursorOpacity" : {
                                    "type" : "double",
                                    "defaultValue" : 0.0,
                                    "interp" : "linr"
                                  }
                                },
                                "effects" : [

                                ],
                                "start" : 5518,
                                "duration" : 3511,
                                "mediaStart" : 5894,
                                "mediaDuration" : 3511,
                                "scalar" : 1,
                                "animationTracks" : {

                                }
                              },
                          "audio" : 
                              {
                                "id" : 275,
                                "_type" : "AMFile",
                                "src" : 5,
                                "trackNumber" : 1,
                                "attributes" : {
                                  "ident" : "",
                                  "sampleRate" : 44100,
                                  "bitDepth" : 16,
                                  "gain" : 1.0,
                                  "mixToMono" : false
                                },
                                  "channelNumber" : "0,1",
                                "effects" : [

                                ],
                                "start" : 5518,
                                "duration" : 3511,
                                "mediaStart" : 5894,
                                "mediaDuration" : 3511,
                                "scalar" : 1,
                                "animationTracks" : {

                                }
                              }
,
                          "start" : 5518,
                          "duration" : 3511,
                          "mediaStart" : 0,
                          "mediaDuration" : 15796,
                          "scalar" : 1,
                          "metadata" : {
                            "AutoAppliedSmartFocus" : "False",
                            "WinSubProjectDisplayName" : "",
                            "clipSpeedAttribute" : false
                          }
                        },
                        {
                          "id" : 276,
                          "_type" : "UnifiedMedia",
                          "video" : 
                              {
                                "id" : 277,
                                "_type" : "ScreenVMFile",
                                "src" : 5,
                                "trackNumber" : 0,
                                "attributes" : {
                                  "ident" : "Rec 02-04-20_007"
                                },
                                "parameters" : {
                                  "cursorScale" : {
                                    "type" : "double",
                                    "defaultValue" : 0.0,
                                    "interp" : "linr"
                                  },
                                  "cursorOpacity" : {
                                    "type" : "double",
                                    "defaultValue" : 0.0,
                                    "interp" : "linr"
                                  }
                                },
                                "effects" : [

                                ],
                                "start" : 9029,
                                "duration" : 45,
                                "mediaStart" : 9418,
                                "mediaDuration" : 45,
                                "scalar" : 1,
                                "animationTracks" : {

                                }
                              },
                          "audio" : 
                              {
                                "id" : 278,
                                "_type" : "AMFile",
                                "src" : 5,
                                "trackNumber" : 1,
                                "attributes" : {
                                  "ident" : "",
                                  "sampleRate" : 44100,
                                  "bitDepth" : 16,
                                  "gain" : 1.0,
                                  "mixToMono" : false
                                },
                                  "channelNumber" : "0,1",
                                "effects" : [

                                ],
                                "start" : 9029,
                                "duration" : 45,
                                "mediaStart" : 9418,
                                "mediaDuration" : 45,
                                "scalar" : 1,
                                "animationTracks" : {

                                }
                              }
,
                          "start" : 9029,
                          "duration" : 45,
                          "mediaStart" : 0,
                          "mediaDuration" : 15796,
                          "scalar" : 1,
                          "metadata" : {
                            "AutoAppliedSmartFocus" : "False",
                            "WinSubProjectDisplayName" : "",
                            "clipSpeedAttribute" : false
                          }
                        },
                        {
                          "id" : 279,
                          "_type" : "UnifiedMedia",
                          "video" : 
                              {
                                "id" : 280,
                                "_type" : "ScreenVMFile",
                                "src" : 5,
                                "trackNumber" : 0,
                                "attributes" : {
                                  "ident" : "Rec 02-04-20_007"
                                },
                                "parameters" : {
                                  "cursorScale" : {
                                    "type" : "double",
                                    "defaultValue" : 0.0,
                                    "interp" : "linr"
                                  },
                                  "cursorOpacity" : {
                                    "type" : "double",
                                    "defaultValue" : 0.0,
                                    "interp" : "linr"
                                  }
                                },
                                "effects" : [

                                ],
                                "start" : 9074,
                                "duration" : 90,
                                "mediaStart" : 9508,
                                "mediaDuration" : 90,
                                "scalar" : 1,
                                "animationTracks" : {

                                }
                              },
                          "audio" : 
                              {
                                "id" : 281,
                                "_type" : "AMFile",
                                "src" : 5,
                                "trackNumber" : 1,
                                "attributes" : {
                                  "ident" : "",
                                  "sampleRate" : 44100,
                                  "bitDepth" : 16,
                                  "gain" : 1.0,
                                  "mixToMono" : false
                                },
                                  "channelNumber" : "0,1",
                                "effects" : [

                                ],
                                "start" : 9074,
                                "duration" : 90,
                                "mediaStart" : 9508,
                                "mediaDuration" : 90,
                                "scalar" : 1,
                                "animationTracks" : {

                                }
                              }
,
                          "start" : 9074,
                          "duration" : 90,
                          "mediaStart" : 0,
                          "mediaDuration" : 15796,
                          "scalar" : 1,
                          "metadata" : {
                            "AutoAppliedSmartFocus" : "False",
                            "WinSubProjectDisplayName" : "",
                            "clipSpeedAttribute" : false
                          }
                        },
                        {
                          "id" : 282,
                          "_type" : "UnifiedMedia",
                          "video" : 
                              {
                                "id" : 283,
                                "_type" : "ScreenVMFile",
                                "src" : 5,
                                "trackNumber" : 0,
                                "attributes" : {
                                  "ident" : "Rec 02-04-20_007"
                                },
                                "parameters" : {
                                  "cursorScale" : {
                                    "type" : "double",
                                    "defaultValue" : 0.0,
                                    "interp" : "linr"
                                  },
                                  "cursorOpacity" : {
                                    "type" : "double",
                                    "defaultValue" : 0.0,
                                    "interp" : "linr"
                                  }
                                },
                                "effects" : [

                                ],
                                "start" : 9164,
                                "duration" : 156,
                                "mediaStart" : 9606,
                                "mediaDuration" : 156,
                                "scalar" : 1,
                                "animationTracks" : {

                                }
                              },
                          "audio" : 
                              {
                                "id" : 284,
                                "_type" : "AMFile",
                                "src" : 5,
                                "trackNumber" : 1,
                                "attributes" : {
                                  "ident" : "",
                                  "sampleRate" : 44100,
                                  "bitDepth" : 16,
                                  "gain" : 1.0,
                                  "mixToMono" : false
                                },
                                  "channelNumber" : "0,1",
                                "effects" : [

                                ],
                                "start" : 9164,
                                "duration" : 156,
                                "mediaStart" : 9606,
                                "mediaDuration" : 156,
                                "scalar" : 1,
                                "animationTracks" : {

                                }
                              }
,
                          "start" : 9164,
                          "duration" : 156,
                          "mediaStart" : 0,
                          "mediaDuration" : 15796,
                          "scalar" : 1,
                          "metadata" : {
                            "AutoAppliedSmartFocus" : "False",
                            "WinSubProjectDisplayName" : "",
                            "clipSpeedAttribute" : false
                          }
                        },
                        {
                          "id" : 285,
                          "_type" : "UnifiedMedia",
                          "video" : 
                              {
                                "id" : 286,
                                "_type" : "ScreenVMFile",
                                "src" : 5,
                                "trackNumber" : 0,
                                "attributes" : {
                                  "ident" : "Rec 02-04-20_007"
                                },
                                "parameters" : {
                                  "cursorScale" : {
                                    "type" : "double",
                                    "defaultValue" : 0.0,
                                    "interp" : "linr"
                                  },
                                  "cursorOpacity" : {
                                    "type" : "double",
                                    "defaultValue" : 0.0,
                                    "interp" : "linr"
                                  }
                                },
                                "effects" : [

                                ],
                                "start" : 9320,
                                "duration" : 6000,
                                "mediaStart" : 9796,
                                "mediaDuration" : 6000,
                                "scalar" : 1,
                                "animationTracks" : {

                                }
                              },
                          "audio" : 
                              {
                                "id" : 287,
                                "_type" : "AMFile",
                                "src" : 5,
                                "trackNumber" : 1,
                                "attributes" : {
                                  "ident" : "",
                                  "sampleRate" : 44100,
                                  "bitDepth" : 16,
                                  "gain" : 1.0,
                                  "mixToMono" : false
                                },
                                  "channelNumber" : "0,1",
                                "effects" : [

                                ],
                                "start" : 9320,
                                "duration" : 6000,
                                "mediaStart" : 9796,
                                "mediaDuration" : 6000,
                                "scalar" : 1,
                                "animationTracks" : {

                                }
                              }
,
                          "start" : 9320,
                          "duration" : 6000,
                          "mediaStart" : 0,
                          "mediaDuration" : 15796,
                          "scalar" : 1,
                          "metadata" : {
                            "AutoAppliedSmartFocus" : "False",
                            "WinSubProjectDisplayName" : "",
                            "clipSpeedAttribute" : false
                          }
                        }
                    ],
                    "effects" : [
                        {
                          "effectName" : "NoiseReduction",
                          "category" : "categoryAudioEffects",
                          "parameters" : {
                            "denoiserAmount" : 20.0,
                            "denoiserThreshold" : 0.0,
                            "noiseProfile" : "0DLBQIHdHEFkF58/DucDP0ozzT57KmtAgMC/QJeMVkBqXPY/DM/ZQMiezz4uXQw/LmsPQAr6XUGb\r\n61tADcoFP5xdJz9feBE+k96HPoV1gT5t5ts+891TP321qT//4kpAYZFVP/Y5SEBV+cA/y9mkP1TE\r\nkD/IwDdBlGu3QPEnIECKjZ9A9zQeQR6sIkGDqRBB+MoTQPG91D8HiIJAV1n+P6aiLT8BC0o/tL6y\r\nP4CKdz+TTwpAgu3+PkNWRT+gxcc+oUg2QHnaPj+xh5U+dknYPzLVOT+xOLQ/CVWQP9L/V0A8xUNA\r\nPD0eQBE0C0C2arA/IDIFQIzaBkBP6ZFAYESvPzzwVz9stXM/LdNnP2R7TkDbvPU/3LQ9P2b3aD9/\r\nmdU+KgmKPggnJj9cFxpA+r7IP2xSjz7uI6Q+OPvAPooxbz7i1P49VuHhPVCFqD7keyZAx+LaPlz+\r\nbz6Fdvs9U1juPU5/Gj4RaoA+nEsSPn4JCD++RKM+d6QKPnB8oT0yKPA9nJBCPngjQz6ubLY9ileG\r\nPPKgSj1Jxbc94G0JPQxPYzwmXi092efQPdtqCT27jQc9Ky4yPXjt1z3+Y4Q+qWOVPRtdAT1ibEI9\r\nbSiFPa/kCT29bPQ8t1R6PWIuej338o4+YoobPVYHdT3irwI9Id5BPVQizzyal4o8Oto7PZQljz3V\r\nVZc8BPSuPOS1Ez1OsUA95umjPcrnGT0o+Qo95M01PRHiED31CgU9I94CPbQJQzzaG/o8ONkxPUKJ\r\n8zwMEV09eMDQPBrVQjzliHo8g0i2PEAUFD0MYwI9A+aRPWZo9jznDdY8L6VbPTI5Ej1qNRM9D5qt\r\nPNhShDzTRIs8oNaMPNNNRDzbawQ9wukyPRCmfT167cQ96HjXPFl3JT3pBr49dLyJPefi/jwg2lE9\r\nW2UKPV69tTzDfAA979SIPfaIGD2t9wY9pCWePJvaKz0PsKs81p2VPJCygzwfY6g8aMFRPDbiejy0\r\niq88JgMLPW22izx8hyQ9JVzIPEIyED0kHZc8kANAPASCmzyRv4Q8UaQKPaDdOTya/qY8SONgPO7m\r\nZj2SBMM8St5bPMcEFzySSNo7oXU1PIkPtTyHwME91CxcPbHibzzXumc8mZ7LPISshzzP8xs82rQj\r\nPBt37Dy9K0Y82igzPCOeyjttD9E7ffAqPBVpajyVa1U8L2iaPGWgnTwHWew7nXnIO3F0WTyf8RQ8\r\ncJ4rPFdMdzys2Qw9uZnrPBAoMDwjkYw8ZSrhO/YQrTvamQo86wSBPOe0Nz2l/wo9m3koPNV4hTsy\r\nH088fZQ9PLqm5Du70Qw8V98lPJuToDvGLYU81seCPI1N1DxMYPM79xOPPKw1/DzXfzA8KaJkPNHx\r\nFzwUl8M85ikqPTntpzzko9A8hCIcPGXopzvWlcM7H2AVPHi0OzybEZ47v2A6PPGfkzwEStg7ulaX\r\nO9ozhDymjo48xoL+PBELnzy7Co07q9xBPFfThzsPfUE8RaCDPL6FgjyIzSA8+oFWPLHJAjykVI87\r\nKsUbPJLaDTxgNq48I8asO1eRJDw3iso7flx+PNXbiDv0r4E8oCVaPBAKsTue9oE8wyc0PCIKpTtz\r\nqDA83NG1PNxFLjyyaac7A/NoOy3vpjs2ul87YvhsO+SNXzu82Hw78QEcPMkEOTxIsoM8elKOO4sD\r\nfjuwZ+Y7Fkz/O5JKyztCihU7prwPPDrVyTx0Bao80GnGPLkwJTzykXg7AE3MOuvpQjuwUVA7VIPF\r\nOsqWTjskaoE6vVaZOj+m0DpDQJ86vAAXOxrIRjrO2/I5rVkcOjy2DjoUuHM5HikWOgDpmzk2qrg5\r\nDNTKOQuAwTlKYZA5RZqnOcC+vjl6IMI5trduOaJGkTnid6E5QBqnOWXiHTk5Q0I5GJ2SOReokDmO\r\nrVE5spNOOYKTcznOllU5MAVuOWJaXTnR5VU5SgdqOcFKizm96m059pCAOWJxbzk2i2g5duKBOeQ3\r\nQznIUHc5w6hdOXh0RTkpQXg52sxvOSZKdzlqc2Q52JF4OUQXXjnwr1A5pItXOeI4Pzn1C3E5WM1V\r\nOUJGNTn2vE85yJNLOZZxQjmEDlI5hVJROWh6RTms10M5uQ88ObaQPTkQxUw5XUc2OedjPznSh0k5\r\n+jsyOdz8RDlbkS85BqlKOcVYQDnqsko5sm5DOeajPDlcFzc5MME0Ob87Lznq5Tg5nu43OY6rODmo\r\nKzk5HGw4OVduRTkqpDU5g8ssOY0ELTnQrDg5iNQzObkKJTlGsi05NnwuOaIULTn83zI5T3YkOTIj\r\nMTlKuyI5NOIeOYqlHDmukjU5Xs8kOaCrNDk7jDI5q8AoObeyLDnq/yY53uMlOUm3HDm0wR45ki8b\r\nOdfnFjkorCE5xLUeOZwEJDlw8CE5DNMhORyQFTnach05/zwgOfPAFDnqFho5guUjOVjtHjlo1Q05\r\nWjgaOWIAFDnmZgo5QxMSOYPdJDmTFRY5tH8WOWYODzl8Hg85Tw0ROU4qEjl+ShA5COIHOSWGCTmV\r\nBRM5JNMUOUSVCTkFiQ45Cs4OOYIeCznAxQk5JI0POa5CDzlWqw45JesQOQxZCDm89xw59qMSOfIK\r\nDDnLmgc5N33+OKKnCTkevvo4Sf8GOYQpDDmV2ws5NKgKOe7XBTk8ogg5n0kFOS55BDnY2wk5D0IE\r\nOSNFATnVZgU5fCf+OGi+9jiYhQQ5IzEBOdCV9jiuDQY5Eq/pOE6W8jhG3uk4WiP+OMD8BjmAgPE4\r\ncTHqOOTE9TjRUvA4KEj5OGp+Ajl8XOQ4WyPnOP5b+DgiSfE4OFzrOF1rATmsceI4O9YDObiw9ThT\r\nhfU4s1DzOGcR/Timm+o4rIj/OOH/9jinhPA44urWOGrn9jiWSfI4NuL3OIIPzji1Les4sB7dOKxP\r\n+ThAE+o4QJjdOERe8Tiwe8U42mTmOGIJ1TjJDt84UEXhOLyD2zjEfu04dezVOK033DgOZcQ4jyTb\r\nOIq+4jgC/tw4zmLjODrj1jhCyNc4A+fKOFyBzjgEBdU49TfcOFdG4DhqGMM4HFvQOG6UzTh4I9I4\r\nARbWOMaOzTiMYsA4ltfjOPeswjiGCNs4GgHeOJ5pzThMAs44k6fVOCASwzhJnMY4TAzSOJJY1TjG\r\nLdY4ykrWODJBwTin0ME4l5i7OBnWuDjgOb444d3FOEKqzDg+Vso4rAbOOM7Xyjg82rk4hLvHOEpz\r\nwDh8PMM4jRzIOBR0xThVMsE4Qtq/OA6HuTg0qs44ryi6OCLexziHKcM4nKDJOMFtuTjYVbY4rX3H\r\nOOb0wTg82sg4uu3FOII0wDg1eLw40XHAONnQxzimObg45yDBOJs1zTiVO7g4rPKzOK4GwjhaZb04\r\nO/y9OI5CwjgcKLE4mSfFOGe2pzjogb44gNC1OCb1tDiVq6848HW8OJmhvzg4Hrs406OmOIQDqTjl\r\nrZo4gvalOM66qDhr47M4+UG8OAXXsjjCSsI4VgqpOGVuoTh8ksk4HBeuOI4fszh0AKw4jTGxOEEl\r\npThziKw4Hn+iOLvBrjgPkrs40jqnOMNOrzhQI6I4FniVOOgcsDj0Apw4lq+vOIgArzgaZbM4HLOi\r\nOFcYpDjGmqc4CMKiOPHJmziPnKA44IWmOCqJnDh6z604uWauOGHYsTiGs5c4CGSVOMYEnTh+Pak4\r\nGJKYOIeeoDiKbJs4EDueONWooziPJ6o4YdaqOOjPkDgRZZ446qSyOGAxmjgD9qE44dOeOJpqmDgk\r\npq44yQSoOPw0lzjCyak4pEmiOIF3qzgbJ5s4/BygOKtfpzgYtJ04aZWZOHxGmDi0VLI4PGaXOISm\r\niThAw5o4yGioOLCDjzhEXJ44mnyeOFC6pDhu6Js486ikOM/XmTiVppk4XmuaOBLClzjFmIY4wk+O\r\nOBgApDh1/aA4YlWfOHRwpTjmlJg4XrKMODoFizgy5KM4bvSfOAr9jThHIJ04mZWZOIXKZzhw0Is4\r\n0+KiOIIqijgwlZM4GlaCOGGapTj1L5E4NjqeOI5JjTgGr5k4VBmDOJuOjDjCrZk4ckmBOGfPlziT\r\nuZM4Rm2AOGcMqzgKt544ZmyNOOLNkDg5DI44/paNOLm5jjh7eJE4jYyOOE0giTg40aQ4B3aIOMjE\r\nmDhNDYM4PGSGODkomDiW1Jo4CH2GOFL9kDht7oQ442uMOGtAjDi5Uow4ArOfOJGCiTh4C54485qI\r\nOCcPbDhnK5Y4HzqUOEiziTgqAoY48VeNOKmBjTiAcZI4fguHONQPjjiC2IU40PuNOEJfijhFKGw4\r\nHKyCOD7jkzgREYM4PC6GODFVizj2NIQ4ni2HOAxEiDh+UIA41i98OBK/gDjyjpI4EweJOOCEgzj+\r\nopQ4YHaPONCKmDhoKJo4Fn9yOHbgmTg6r5A44i2HOFcejji/o4o46nKVOH7Xjzhxu344/JWEOE1c\r\neThqs4o4nv+GODmFmzj9v5E4CU2WOAGEezizgog44S+UOJbNhzjCNHs4AFV/OPHehDiaUHM4iPyR\r\nOKRrbjhFU4w4I3GYOCHrjTho2ZE4PwOPOD5ZiDiDfI44qqKPOL2iizgseIk4HkCLOIUufDi9T4c4\r\n/35sOLcUkzh8+Ig40hRhONTpijj3uGw4C0SQOEJBgziJrYM4ubNvOG3WhThmP484dUh6OAAoeTg5\r\nIno42J6IOPgLgzh/OYc4fyllOKXjhjhsxFU4wcKROPv0ijhLy3U4dc9/OH5DaDgmfYk4RXmCOM8V\r\ndzhAJHw4m6eBOF0Rbzg2AH84T1h8OJMfczinC5A4AlaMOOLfRjiDMoQ4X4+CODh5hjhIw484eA6B\r\nOA1CkDiu1Y049r2NOLfUfjiIMoA4KGeNOJLFaDgZ0mc4FJ6AODT4VThtQ1c4EJaJOKAobziEUYU4\r\nTDh7OH5ocDiYKmA4SupvOKJuczg0kow4/997OBccbjh5KXg4odyJOF/ZbDjE6Xo4MaR2OFP4aDh9\r\n3II4DglgOIhHYTgG31845X9/ODqzXjjgGm04Hsp0OONMeThtroU4NfZ1ONTTdTj0Elk4fYeCOGfb\r\ngDht7m44ha9zOOYXgDi/nYE4JGWAOJRMcTijSYk4fhqNODcWYzjOfXI4bhxrONa7eTgcP184Xit9\r\nOHXEbTg1PFo43jNlONpLZjiCA4U4m2FYOB0WfDguqWQ4yZ6KOAonfDjI3Wc4NNhiOADlhjgc7l84\r\n2cuAONqyazisAYA4DGJ7OFk2fjgj/Ws4CzWBODZiczgdGoY4GtxROIXWhDh4omU4XY9sOPGZhjje\r\nsXE4zsp4ODWfdTg8d3Q4pPJvOPVjhTir2XE4ifR5OMfOaTgtB1w4Rk+FOEi8bDgwgXI4iCyAOA2g\r\nfTgfKGU4QHdjOOHOgDhaAYc4pu6EOBWadzjmnWk4SkyDOBxjfzhHe3M4M4xpOAQ/hzi7bWQ4Uqxv\r\nOIUkgzhRFoA424VdOFN8dDim0lM4FHp4OKQzgjiF5mg4LBRzOFLEgjiF2Fs4wU2EOIAAgTjQMsFA\r\ngd0cQWQXnz8O5wM/TCzNPnsqa0CAwL9Al4xWQI5T9j8Mz9lAyJ7PPi5dDD8uaw9A9vZdQQ/yW0AL\r\n5wU/BIQnP5uPET6L/Yc+hXWBPm3m2z7z3VM/fbWpP//iSkBhkVU/aExIQCfowD8P26Q/VMSQP3LE\r\nN0FyZbdA8ScgQAaMn0DRMB5BsbMiQYOpEEH4yhNA777UP1J9gkBXWf4/R64tPwELSj+0vrI/gIp3\r\nP1BPCkDjnf4+NDdFP6DFxz6hSDZAedo+P0KElT52Sdg/e945P7E4tD8JVZA/0v9XQDzFQ0BPNx5A\r\nETQLQCiKsD8gMgVAjNoGQE/pkUDrQa8/PPBXP2y1cz+RvGc/ZHtOQNu89T8M4z0/4NloP3W81T4q\r\nCYo+CCcmP3QwGkCEusg/nWyPPioMpD7K8sA+ijFvPsJ8/j1W4eE9ZJeoPiplJkDH4to+/fxvPhqB\r\n+z1uTu498KcaPpKggD5BgxI+fgkIP62joz6JCws+cHyhPTIo8D2ckEI+eCNDPh2Itj0lsYY8nClL\r\nPQx3tz3gbQk9DE9jPE4iLj14QtE922oJPbuNBz1QpjI9CPfXPTdphD6pY5U9sHEBPWJsQj1tKIU9\r\nr+QJPcFt9Dy8P3o9GiR6PaP3jj5iihs9r4x1PdwqAj0h3kE9TODOPBoNizw62js9lCWPPaiFlzwE\r\n9K485LUTPZl6QD3n6qM9yucZPSj5Cj3kzTU98zQRPVkqBD0j3gI9FBhDPNob+jwyijE9G6DyPAwR\r\nXT22nNA8BLtEPOWIejyDSLY8QBQUPXh+Aj0D5pE9MFj2PPD/1Txn1lo9MjkSPWo1Ez2vK6082FKE\r\nPNNEizyg1ow8J8hEPJpDBD3C6TI9EKZ9PXrtxD3oeNc8WXclPekGvj10vIk95+L+PCDaUT1bZQo9\r\nXr21PDCBAT3JqYg99ogYPa33Bj2kJZ48/r8rPfYArTwlkpU8YLSDPGkEqDxwz1E8lNF6PLT6rzwm\r\nAws9bbaLPHyHJD0lXMg8jw8QPZK2ljwmzz88BIKbPJG/hDxRpAo9RH85PJr+pjxI42A87uZmPZIE\r\nwzwosFw80QcYPIzd2DuhdTU8fDG1PIfAwT3ULFw9QKhvPNe6ZzyZnss8hKyHPNowGzxLmiM8G3fs\r\nPL0rRjzRmTM8PBDKO20P0Tv0JCw89sRpPJVrVTwvaJo8ZaCdPAdZ7Dudecg76+ZYPJ/xFDzFRyw8\r\nV0x3PDuFDD3Bcus8ECgwPCORjDyPUOE7FBywO30KCzzrBIE857Q3PaX/Cj2beSg81lOFO6TpTjx9\r\nlD08bdPkOxSsCzxX3yU8FiGgO82jhDyLGYM8jU3UPJvr8zv3E488rDX8PNd/MDwpomQ80fEXPEyi\r\nwjzmKSo9bDaoPO760DyEIhw8ZeinO9aVwzuzfxU8eLQ7PCH5nDvyWjo8W7yTPC8s2Du6Vpc79rqD\r\nPKaOjjysVP48EQufPF4zjjujJUI8V9OHO1tYQTxFoIM8tsOCPIjNIDz6gVY8+qgCPKRUjzsqxRs8\r\nktoNPGA2rjw3Ia47V5EkPDe8yTvxPX486euHO5gbgjygJVo8EAqxOyYSgzybvDQ8nnGkO3OoMDzc\r\n0bU83EUuPPNXpzsNXmo71uWmO/82XTsSgGk7ykVeO5b0fDuViBw8yQQ5PPFOgzx6Uo47iwN+O3lO\r\n5jtiw/87vOLKO2XaEjumvA88OtXJPFSmqTzQacY8uTAlPMOYeTsATcw66+lCOwNGUDtUg8U6zf9N\r\nO6c4gTogNZw6EanWOkTGozp8fhU7w7lFOs7b8jmtWRw66n8OOhS4cznKkBU65s6XOd49vzkM1Mo5\r\n60e5OblIkjmk5KM5I1fFOfnKvznMVXU5adqKOQjimzmwO6o5Fp0kOWlGLzk/m4857HWGOUbgZznY\r\nCUU5WS6WOWVZSDkjZlE52iB5OZqTXTkouDo5gZqSOdBaXDnK8ls5oFBxORDVdzkG4Hk59HBjOfg5\r\nSDm4XWM54R10Oe6NWTm8FVs59h9qObFOTDkar1s56BhmOTwbXTk7oFg5Qk1SOfVERzmjhFU5RKRH\r\nOZeURjk0qUM55GFMOUoXRznU8Uk5cs9KOUiyPzndSU054qJAOcqASzlwzDo5EKBGOT44QzmjvjQ5\r\nqlJMOYpHNTlTnUQ5p+o5OQJVRjmIfU85Tpo7OZdtQzmlOUA5as8xOSpgPzma6T45SBI2OUamOjnO\r\nWDs5ERJCOQBnMjk6x0A53sA0OWakLjlQXDc5fqghOZotMTlYKy05L9IvOdZJITnoySM5uO41Oc3W\r\nHTnnkiQ57uwhOaS7LTm8Kys5R6Q5Obj1MTlTISk5SO4nOQ+BLjlyfS05Xn0fOfp/GTnMpxo5KzMU\r\nOZ4ZHTn8aSY5FNYcOX5FIjmu3SE5vrgVOT1LJzmu3xo5H6okOUmKFzntgBo50i0dOTBJETkc/SQ5\r\nxqYROVuxFTn8vBc5yuoeOXzOGDn4DCE51KUkOc9bGzmY+gU5BvoeOblFBzmIFg05A3EQORj0Dzmg\r\nCxA5FjQWOUGvEjnEzRQ5ZdINORrBDjlyexg5ybkLOXZiBTnIZwU5+gwGOXBYFDlCGBo5mlEMOYo3\r\nBDnYOgU59qkAOY4P9ThoRAo5RkH+OIYiEjmyVwc5bvYGOZFiBzlf1QE5sgAGOaq8DjkuNgI5sRD+\r\nOK9r+DgaDOk4YfHiOH7h+Ti3gQk5QpX7OLPH8DhDhug4EsPyOH7/9DioE/A4FDf/OAAK+jhyzes4\r\nJcTtOLqlAjnOx/k4Zn8COURm8DjXz+w4s0joOCdf7zgHt+44ZET7OJpK4zgbWgU5bOTkONCX7DgS\r\n8AQ5JkT6ODBO/zgwPvE4kgkAOfNU+DgMleg4fJT7OJ9N4TiA/+046iXoOJIu7jj7I+I4ADL4OFEV\r\n6Ti7zeg4FwjVOJ3n0DhTMfY4QsrQOPK20zhqgtw4F5bjOPsz+ThFI7s4JjjaODUi1zgKJNc4raq7\r\nOLSr2jgweuc49ULhOCAp4DgcFNE43nnEOI61zziPf9E4Et7kOM284Dh0YMw43j3cOD7u1jgItsg4\r\ntgnYOLJZwDjgFdE4lNLeOJep3zihC8s4tKnMOOFvyjhnDdI4kITbOIw9xDgoRsY4eBHMOMX3zzgJ\r\nj8Y47hvOOE0VujjjesA47CPWOAAe2jgP4MU47LLKONRbszgYWNk4iv7AOFiVsjjYpMY4ogDLOFy2\r\nvDiFwcs4QB3FOIxBxjg+Or04HOHHOPFRwzijKbs4KuW/ODzmwzgCLsM4s2G8OKN9tTjnJsA4wgax\r\nOAhYwTgXt8k4mqfGOJ4WvzjUIs44GlDCOIxXwTj6jcQ4dxXDOPDltzjzlaI4pDK/OBD6rzj4s7s4\r\n+jPEOD3Ltjg+sbc4ysK1OH9SsThaja04nnWyOAChujiuh8A4b+a4OKEZpjgyo7A4V2m5OIovljiX\r\nNKs4PoKzOBRMrDhNErQ4Aj2zOCmFtjhYPag4JkihOMOwtjh92a04dC2lOA0cqDiN0ac4TGKkOOPi\r\npDj4R604+O+yOGSCwDh4y5o4pnmuOPN6nzgKM5c4KEe0OC7kmzixJb04JYqsOE9Brji4tpc4Inyh\r\nOFE3rTikw6Y4suOoOPwtnjiSkaI4khupOCRanjg0X7A4bBagOKG0rTjUVaQ4tLmdOOrekzjqVas4\r\npmajOAGAnDhC8a84vaCPOAMBnjhI8qg4/42bONJ1mThgdKI4QCaqODTSrDgWmKo44GOcOCaXsThq\r\nsqA41nKYOAgyqDjCOqs4aSefOGO0ozjpLpE49iumOJ2Sljjor5g4ZcubOCkmrTgrApc4ARybOFRT\r\nkTggl6U4ZIeROPIhoDjXyJI44OKfOLwJkzg7h6Q4SW2UOLVrkjg2SZE4qyuiOHIjjDhTapc4CICp\r\nOBquozi7I4g4hfWYOIxsoTioRpA4WVSZOMYWnTjdTqA4oBiTOCRunDhim6Y4/pKEOGNllziZH504\r\n8MOLONeCnTgedok4LXaYOIZKhjhUwq04Rx+aONjDlDhEqI44vTSMONv+hTi4qYI4RNedOL1pjTi+\r\nOp048SqnOLYqojgPOKE4ljKSOILvgjh/nZc4yy2SOJe0jjgZO4k4/s6IOBjJnDinboM4W/OZOE3q\r\nijig75k4AEuTOL/rizhuzIE4/cByOEtGnDhf3pU4YsCMOPl8izhhQJY4P0iPODulozi8+IY4RY+C\r\nOCGviThar5E4IsyOOOuPiTiKwoo4WmeOOIctjjiXC4s4ibqDOKh6eDhaC4c4PfKJOA7XizhYm344\r\nHIWiOGwzgzjYdo04a1ekOMnxgziCTYs4AauFOIXcazghLow4IleTOKOpjzhRh4I4QNyGOIhDlDgz\r\nKI84/3SSOClpnTi4yI44dBqPOJN9mjgzfIc4FkyNOLRchTiO84s49ct8ONoQZzjbbY84RoV3OLOq\r\nhTi9N4M4PIaXOEHGmzgOfYw4ZjCKOEHeizgIL4s46RFyOCFwfTh2I2s4dfWJOAbjiTh7n4Q4buxy\r\nOO98gDgDFJA4xlWCOC1sgDhoXYk4TceLOJKjkDjAsYQ4nA+PONXIgTjiC404Yq54OHGDjDgUC3k4\r\nuZWAOGDphjhcAmU4/72LOD0lgjgK2Is4IgaIOMCIgjgTnns4f2eDOPe8bThkgH04dA2DOBQNdjje\r\nRoA4qxaHOP81hTgQyXE44GaGOJR6gTgHM4g4kBuJOLkjbTg3S3E4806HOCi/gDh2LYA4mv6LONwC\r\ndzjhZ4M4DK1fOM5hgThTlWA4hluGONazfzgDBHs4tS5jOMq0gThKu4w4hvR7OK62fjjEGIk4vi+N\r\nOI70gDjJ1YI4sqKPOEZgbDjg/Y04R+F0OKS2aDhlFJA4WAFqOP/XZDhxS444RVpsOA3XdDjy+HU4\r\nHdtqODRvZjhRJWA4CGuDONP0fjhD9Xg4DCpnOJI/gjgyUpA4q+5TOEEkYzgxjY04uSFhOP9YgTgm\r\n3WQ4Io1hOO9VeDi9woM4tqByODnxaDiYlnI4jcB/OOgAdjh+CXI4ZnJqOBtRXjjbyH04ZIeBOBJc\r\neDjr0n84w8qJODaggDgNunM4wrSCOIzXfDi6YoI4fQZiOK4aYTju5YE4BZVfOKiLXDhUY3g45N11\r\nOH9OajgFuGc41pl6OA5sZjiGP0k4rw9iOH/3dzgTG4k4n5JeOIlEaTjJeIU4rxWCOB0xZDhmMYE4\r\nm7aCOG2VczhKIl04RaVnOEDgdTgwiGw4n8SAOGjUdTgyAWA4kpqIOO1peTi5pnQ4tdF+OPV3jTjZ\r\nKGk4hzlkOFNyhTi6WXY43e94OLBEbjizQ2E4uIRqOE0VbTgZ2HU4G3J8OHnFZTgk0GY4RBKCODBr\r\niDhzjHc4lbN5OGojeTi034E4/Ex5ODuueziHQ4c4HQ53OKqzizixomw4ufWKOMi+eDif72w48/SB\r\nODxGcTjj0F04yoNoOMQWZji4q3w4UtdzOMeXgjjTx4Q4OkBrONP1dzj4nHA4ADKKOA==",
                            "noiseTrainingType" : "default"
                          }
                        }
                    ],
                    "start" : 21370,
                    "duration" : 807,
                    "mediaStart" : 9494,
                    "mediaDuration" : 807,
                    "scalar" : 1,
                    "metadata" : {
                      "AutoAppliedSmartFocus" : "False",
                      "WinSubProjectDisplayName" : "",
                      "clipSpeedAttribute" : false
                    },
                    "animationTracks" : {

                    }
                  },
                  {
                    "id" : 288,
                    "_type" : "StitchedMedia",
                    "minMediaStart" : 0,
                    "attributes" : {
                      "ident" : "tower-05",
                      "gain" : 1.0,
                      "mixToMono" : false
                    },
                    "parameters" : {
                      "cursorOpacity" : 1.0,
                      "cursorScale" : 1.0
                    },
                    "medias" : [
                        {
                          "id" : 289,
                          "_type" : "ScreenVMFile",
                          "src" : 5,
                          "trackNumber" : 0,
                          "attributes" : {
                            "ident" : "Rec 02-04-20_007"
                          },
                          "parameters" : {
                            "cursorScale" : {
                              "type" : "double",
                              "defaultValue" : 0.0,
                              "interp" : "linr"
                            },
                            "cursorOpacity" : {
                              "type" : "double",
                              "defaultValue" : 0.0,
                              "interp" : "linr"
                            }
                          },
                          "effects" : [

                          ],
                          "start" : 0,
                          "duration" : 1383,
                          "mediaStart" : 0,
                          "mediaDuration" : 1383,
                          "scalar" : 1,
                          "metadata" : {
                            "AutoAppliedSmartFocus" : "False",
                            "WinSubProjectDisplayName" : ""
                          },
                          "animationTracks" : {

                          }
                        },
                        {
                          "id" : 290,
                          "_type" : "ScreenVMFile",
                          "src" : 5,
                          "trackNumber" : 0,
                          "attributes" : {
                            "ident" : "Rec 02-04-20_007"
                          },
                          "parameters" : {
                            "cursorScale" : {
                              "type" : "double",
                              "defaultValue" : 0.0,
                              "interp" : "linr"
                            },
                            "cursorOpacity" : {
                              "type" : "double",
                              "defaultValue" : 0.0,
                              "interp" : "linr"
                            }
                          },
                          "effects" : [

                          ],
                          "start" : 1383,
                          "duration" : 2726,
                          "mediaStart" : 1406,
                          "mediaDuration" : 2726,
                          "scalar" : 1,
                          "metadata" : {
                            "AutoAppliedSmartFocus" : "False",
                            "WinSubProjectDisplayName" : ""
                          },
                          "animationTracks" : {

                          }
                        },
                        {
                          "id" : 291,
                          "_type" : "ScreenVMFile",
                          "src" : 5,
                          "trackNumber" : 0,
                          "attributes" : {
                            "ident" : "Rec 02-04-20_007"
                          },
                          "parameters" : {
                            "cursorScale" : {
                              "type" : "double",
                              "defaultValue" : 0.0,
                              "interp" : "linr"
                            },
                            "cursorOpacity" : {
                              "type" : "double",
                              "defaultValue" : 0.0,
                              "interp" : "linr"
                            }
                          },
                          "effects" : [

                          ],
                          "start" : 4109,
                          "duration" : 424,
                          "mediaStart" : 4173,
                          "mediaDuration" : 424,
                          "scalar" : 1,
                          "metadata" : {
                            "AutoAppliedSmartFocus" : "False",
                            "WinSubProjectDisplayName" : ""
                          },
                          "animationTracks" : {

                          }
                        },
                        {
                          "id" : 292,
                          "_type" : "ScreenVMFile",
                          "src" : 5,
                          "trackNumber" : 0,
                          "attributes" : {
                            "ident" : "Rec 02-04-20_007"
                          },
                          "parameters" : {
                            "cursorScale" : {
                              "type" : "double",
                              "defaultValue" : 0.0,
                              "interp" : "linr"
                            },
                            "cursorOpacity" : {
                              "type" : "double",
                              "defaultValue" : 0.0,
                              "interp" : "linr"
                            }
                          },
                          "effects" : [

                          ],
                          "start" : 4533,
                          "duration" : 139,
                          "mediaStart" : 4741,
                          "mediaDuration" : 139,
                          "scalar" : 1,
                          "metadata" : {
                            "AutoAppliedSmartFocus" : "False",
                            "WinSubProjectDisplayName" : ""
                          },
                          "animationTracks" : {

                          }
                        },
                        {
                          "id" : 293,
                          "_type" : "ScreenVMFile",
                          "src" : 5,
                          "trackNumber" : 0,
                          "attributes" : {
                            "ident" : "Rec 02-04-20_007"
                          },
                          "parameters" : {
                            "cursorScale" : {
                              "type" : "double",
                              "defaultValue" : 0.0,
                              "interp" : "linr"
                            },
                            "cursorOpacity" : {
                              "type" : "double",
                              "defaultValue" : 0.0,
                              "interp" : "linr"
                            }
                          },
                          "effects" : [

                          ],
                          "start" : 4672,
                          "duration" : 212,
                          "mediaStart" : 5022,
                          "mediaDuration" : 212,
                          "scalar" : 1,
                          "metadata" : {
                            "AutoAppliedSmartFocus" : "False",
                            "WinSubProjectDisplayName" : ""
                          },
                          "animationTracks" : {

                          }
                        },
                        {
                          "id" : 294,
                          "_type" : "ScreenVMFile",
                          "src" : 5,
                          "trackNumber" : 0,
                          "attributes" : {
                            "ident" : "Rec 02-04-20_007"
                          },
                          "parameters" : {
                            "cursorScale" : {
                              "type" : "double",
                              "defaultValue" : 0.0,
                              "interp" : "linr"
                            },
                            "cursorOpacity" : {
                              "type" : "double",
                              "defaultValue" : 0.0,
                              "interp" : "linr"
                            }
                          },
                          "effects" : [

                          ],
                          "start" : 4884,
                          "duration" : 634,
                          "mediaStart" : 5243,
                          "mediaDuration" : 634,
                          "scalar" : 1,
                          "metadata" : {
                            "AutoAppliedSmartFocus" : "False",
                            "WinSubProjectDisplayName" : ""
                          },
                          "animationTracks" : {

                          }
                        },
                        {
                          "id" : 295,
                          "_type" : "ScreenVMFile",
                          "src" : 5,
                          "trackNumber" : 0,
                          "attributes" : {
                            "ident" : "Rec 02-04-20_007"
                          },
                          "parameters" : {
                            "cursorScale" : {
                              "type" : "double",
                              "defaultValue" : 0.0,
                              "interp" : "linr"
                            },
                            "cursorOpacity" : {
                              "type" : "double",
                              "defaultValue" : 0.0,
                              "interp" : "linr"
                            }
                          },
                          "effects" : [

                          ],
                          "start" : 5518,
                          "duration" : 3511,
                          "mediaStart" : 5894,
                          "mediaDuration" : 3511,
                          "scalar" : 1,
                          "metadata" : {
                            "AutoAppliedSmartFocus" : "False",
                            "WinSubProjectDisplayName" : ""
                          },
                          "animationTracks" : {

                          }
                        },
                        {
                          "id" : 296,
                          "_type" : "ScreenVMFile",
                          "src" : 5,
                          "trackNumber" : 0,
                          "attributes" : {
                            "ident" : "Rec 02-04-20_007"
                          },
                          "parameters" : {
                            "cursorScale" : {
                              "type" : "double",
                              "defaultValue" : 0.0,
                              "interp" : "linr"
                            },
                            "cursorOpacity" : {
                              "type" : "double",
                              "defaultValue" : 0.0,
                              "interp" : "linr"
                            }
                          },
                          "effects" : [

                          ],
                          "start" : 9029,
                          "duration" : 45,
                          "mediaStart" : 9418,
                          "mediaDuration" : 45,
                          "scalar" : 1,
                          "metadata" : {
                            "AutoAppliedSmartFocus" : "False",
                            "WinSubProjectDisplayName" : ""
                          },
                          "animationTracks" : {

                          }
                        },
                        {
                          "id" : 297,
                          "_type" : "ScreenVMFile",
                          "src" : 5,
                          "trackNumber" : 0,
                          "attributes" : {
                            "ident" : "Rec 02-04-20_007"
                          },
                          "parameters" : {
                            "cursorScale" : {
                              "type" : "double",
                              "defaultValue" : 0.0,
                              "interp" : "linr"
                            },
                            "cursorOpacity" : {
                              "type" : "double",
                              "defaultValue" : 0.0,
                              "interp" : "linr"
                            }
                          },
                          "effects" : [

                          ],
                          "start" : 9074,
                          "duration" : 90,
                          "mediaStart" : 9508,
                          "mediaDuration" : 90,
                          "scalar" : 1,
                          "metadata" : {
                            "AutoAppliedSmartFocus" : "False",
                            "WinSubProjectDisplayName" : ""
                          },
                          "animationTracks" : {

                          }
                        },
                        {
                          "id" : 298,
                          "_type" : "ScreenVMFile",
                          "src" : 5,
                          "trackNumber" : 0,
                          "attributes" : {
                            "ident" : "Rec 02-04-20_007"
                          },
                          "parameters" : {
                            "cursorScale" : {
                              "type" : "double",
                              "defaultValue" : 0.0,
                              "interp" : "linr"
                            },
                            "cursorOpacity" : {
                              "type" : "double",
                              "defaultValue" : 0.0,
                              "interp" : "linr"
                            }
                          },
                          "effects" : [

                          ],
                          "start" : 9164,
                          "duration" : 6190,
                          "mediaStart" : 9606,
                          "mediaDuration" : 6190,
                          "scalar" : 1,
                          "metadata" : {
                            "AutoAppliedSmartFocus" : "False",
                            "WinSubProjectDisplayName" : ""
                          },
                          "animationTracks" : {

                          }
                        }
                    ],
                    "effects" : [

                    ],
                    "start" : 22177,
                    "duration" : 566,
                    "mediaStart" : 10335,
                    "mediaDuration" : 1700,
                    "scalar" : "283/850",
                    "metadata" : {
                      "AutoAppliedSmartFocus" : "False",
                      "WinSubProjectDisplayName" : "",
                      "clipSpeedAttribute" : true
                    },
                    "animationTracks" : {

                    }
                  },
                  {
                    "id" : 299,
                    "_type" : "StitchedMedia",
                    "minMediaStart" : 0,
                    "attributes" : {
                      "ident" : "tower-05",
                      "gain" : 1.0,
                      "mixToMono" : false
                    },
                    "parameters" : {
                      "cursorOpacity" : 1.0,
                      "cursorScale" : 1.0
                    },
                    "medias" : [
                        {
                          "id" : 300,
                          "_type" : "ScreenVMFile",
                          "src" : 5,
                          "trackNumber" : 0,
                          "attributes" : {
                            "ident" : "Rec 02-04-20_007"
                          },
                          "parameters" : {
                            "cursorScale" : {
                              "type" : "double",
                              "defaultValue" : 0.0,
                              "interp" : "linr"
                            },
                            "cursorOpacity" : {
                              "type" : "double",
                              "defaultValue" : 0.0,
                              "interp" : "linr"
                            }
                          },
                          "effects" : [

                          ],
                          "start" : 0,
                          "duration" : 1383,
                          "mediaStart" : 0,
                          "mediaDuration" : 1383,
                          "scalar" : 1,
                          "metadata" : {
                            "AutoAppliedSmartFocus" : "False",
                            "WinSubProjectDisplayName" : ""
                          },
                          "animationTracks" : {

                          }
                        },
                        {
                          "id" : 301,
                          "_type" : "ScreenVMFile",
                          "src" : 5,
                          "trackNumber" : 0,
                          "attributes" : {
                            "ident" : "Rec 02-04-20_007"
                          },
                          "parameters" : {
                            "cursorScale" : {
                              "type" : "double",
                              "defaultValue" : 0.0,
                              "interp" : "linr"
                            },
                            "cursorOpacity" : {
                              "type" : "double",
                              "defaultValue" : 0.0,
                              "interp" : "linr"
                            }
                          },
                          "effects" : [

                          ],
                          "start" : 1383,
                          "duration" : 2726,
                          "mediaStart" : 1406,
                          "mediaDuration" : 2726,
                          "scalar" : 1,
                          "metadata" : {
                            "AutoAppliedSmartFocus" : "False",
                            "WinSubProjectDisplayName" : ""
                          },
                          "animationTracks" : {

                          }
                        },
                        {
                          "id" : 302,
                          "_type" : "ScreenVMFile",
                          "src" : 5,
                          "trackNumber" : 0,
                          "attributes" : {
                            "ident" : "Rec 02-04-20_007"
                          },
                          "parameters" : {
                            "cursorScale" : {
                              "type" : "double",
                              "defaultValue" : 0.0,
                              "interp" : "linr"
                            },
                            "cursorOpacity" : {
                              "type" : "double",
                              "defaultValue" : 0.0,
                              "interp" : "linr"
                            }
                          },
                          "effects" : [

                          ],
                          "start" : 4109,
                          "duration" : 424,
                          "mediaStart" : 4173,
                          "mediaDuration" : 424,
                          "scalar" : 1,
                          "metadata" : {
                            "AutoAppliedSmartFocus" : "False",
                            "WinSubProjectDisplayName" : ""
                          },
                          "animationTracks" : {

                          }
                        },
                        {
                          "id" : 303,
                          "_type" : "ScreenVMFile",
                          "src" : 5,
                          "trackNumber" : 0,
                          "attributes" : {
                            "ident" : "Rec 02-04-20_007"
                          },
                          "parameters" : {
                            "cursorScale" : {
                              "type" : "double",
                              "defaultValue" : 0.0,
                              "interp" : "linr"
                            },
                            "cursorOpacity" : {
                              "type" : "double",
                              "defaultValue" : 0.0,
                              "interp" : "linr"
                            }
                          },
                          "effects" : [

                          ],
                          "start" : 4533,
                          "duration" : 139,
                          "mediaStart" : 4741,
                          "mediaDuration" : 139,
                          "scalar" : 1,
                          "metadata" : {
                            "AutoAppliedSmartFocus" : "False",
                            "WinSubProjectDisplayName" : ""
                          },
                          "animationTracks" : {

                          }
                        },
                        {
                          "id" : 304,
                          "_type" : "ScreenVMFile",
                          "src" : 5,
                          "trackNumber" : 0,
                          "attributes" : {
                            "ident" : "Rec 02-04-20_007"
                          },
                          "parameters" : {
                            "cursorScale" : {
                              "type" : "double",
                              "defaultValue" : 0.0,
                              "interp" : "linr"
                            },
                            "cursorOpacity" : {
                              "type" : "double",
                              "defaultValue" : 0.0,
                              "interp" : "linr"
                            }
                          },
                          "effects" : [

                          ],
                          "start" : 4672,
                          "duration" : 212,
                          "mediaStart" : 5022,
                          "mediaDuration" : 212,
                          "scalar" : 1,
                          "metadata" : {
                            "AutoAppliedSmartFocus" : "False",
                            "WinSubProjectDisplayName" : ""
                          },
                          "animationTracks" : {

                          }
                        },
                        {
                          "id" : 305,
                          "_type" : "ScreenVMFile",
                          "src" : 5,
                          "trackNumber" : 0,
                          "attributes" : {
                            "ident" : "Rec 02-04-20_007"
                          },
                          "parameters" : {
                            "cursorScale" : {
                              "type" : "double",
                              "defaultValue" : 0.0,
                              "interp" : "linr"
                            },
                            "cursorOpacity" : {
                              "type" : "double",
                              "defaultValue" : 0.0,
                              "interp" : "linr"
                            }
                          },
                          "effects" : [

                          ],
                          "start" : 4884,
                          "duration" : 634,
                          "mediaStart" : 5243,
                          "mediaDuration" : 634,
                          "scalar" : 1,
                          "metadata" : {
                            "AutoAppliedSmartFocus" : "False",
                            "WinSubProjectDisplayName" : ""
                          },
                          "animationTracks" : {

                          }
                        },
                        {
                          "id" : 306,
                          "_type" : "ScreenVMFile",
                          "src" : 5,
                          "trackNumber" : 0,
                          "attributes" : {
                            "ident" : "Rec 02-04-20_007"
                          },
                          "parameters" : {
                            "cursorScale" : {
                              "type" : "double",
                              "defaultValue" : 0.0,
                              "interp" : "linr"
                            },
                            "cursorOpacity" : {
                              "type" : "double",
                              "defaultValue" : 0.0,
                              "interp" : "linr"
                            }
                          },
                          "effects" : [

                          ],
                          "start" : 5518,
                          "duration" : 3511,
                          "mediaStart" : 5894,
                          "mediaDuration" : 3511,
                          "scalar" : 1,
                          "metadata" : {
                            "AutoAppliedSmartFocus" : "False",
                            "WinSubProjectDisplayName" : ""
                          },
                          "animationTracks" : {

                          }
                        },
                        {
                          "id" : 307,
                          "_type" : "ScreenVMFile",
                          "src" : 5,
                          "trackNumber" : 0,
                          "attributes" : {
                            "ident" : "Rec 02-04-20_007"
                          },
                          "parameters" : {
                            "cursorScale" : {
                              "type" : "double",
                              "defaultValue" : 0.0,
                              "interp" : "linr"
                            },
                            "cursorOpacity" : {
                              "type" : "double",
                              "defaultValue" : 0.0,
                              "interp" : "linr"
                            }
                          },
                          "effects" : [

                          ],
                          "start" : 9029,
                          "duration" : 45,
                          "mediaStart" : 9418,
                          "mediaDuration" : 45,
                          "scalar" : 1,
                          "metadata" : {
                            "AutoAppliedSmartFocus" : "False",
                            "WinSubProjectDisplayName" : ""
                          },
                          "animationTracks" : {

                          }
                        },
                        {
                          "id" : 308,
                          "_type" : "ScreenVMFile",
                          "src" : 5,
                          "trackNumber" : 0,
                          "attributes" : {
                            "ident" : "Rec 02-04-20_007"
                          },
                          "parameters" : {
                            "cursorScale" : {
                              "type" : "double",
                              "defaultValue" : 0.0,
                              "interp" : "linr"
                            },
                            "cursorOpacity" : {
                              "type" : "double",
                              "defaultValue" : 0.0,
                              "interp" : "linr"
                            }
                          },
                          "effects" : [

                          ],
                          "start" : 9074,
                          "duration" : 90,
                          "mediaStart" : 9508,
                          "mediaDuration" : 90,
                          "scalar" : 1,
                          "metadata" : {
                            "AutoAppliedSmartFocus" : "False",
                            "WinSubProjectDisplayName" : ""
                          },
                          "animationTracks" : {

                          }
                        },
                        {
                          "id" : 309,
                          "_type" : "ScreenVMFile",
                          "src" : 5,
                          "trackNumber" : 0,
                          "attributes" : {
                            "ident" : "Rec 02-04-20_007"
                          },
                          "parameters" : {
                            "cursorScale" : {
                              "type" : "double",
                              "defaultValue" : 0.0,
                              "interp" : "linr"
                            },
                            "cursorOpacity" : {
                              "type" : "double",
                              "defaultValue" : 0.0,
                              "interp" : "linr"
                            }
                          },
                          "effects" : [

                          ],
                          "start" : 9164,
                          "duration" : 6190,
                          "mediaStart" : 9606,
                          "mediaDuration" : 6190,
                          "scalar" : 1,
                          "metadata" : {
                            "AutoAppliedSmartFocus" : "False",
                            "WinSubProjectDisplayName" : ""
                          },
                          "animationTracks" : {

                          }
                        }
                    ],
                    "effects" : [

                    ],
                    "start" : 22743,
                    "duration" : 523,
                    "mediaStart" : 12035,
                    "mediaDuration" : 523,
                    "scalar" : 1,
                    "metadata" : {
                      "AutoAppliedSmartFocus" : "False",
                      "WinSubProjectDisplayName" : "",
                      "clipSpeedAttribute" : false
                    },
                    "animationTracks" : {

                    }
                  }
                ],
                "transitions" : [
                  {
                    "name" : "Fade",
                    "duration" : 7,
                    "trivial" : false,
                    "useAudioPreRoll" : true,
                    "useVisualPreRoll" : true,
                    "leftMedia" : 9,
                    "rightMedia" : 31
                  },
                  {
                    "name" : "Fade",
                    "duration" : 7,
                    "trivial" : false,
                    "useAudioPreRoll" : true,
                    "useVisualPreRoll" : true,
                    "leftMedia" : 31,
                    "rightMedia" : 53
                  },
                  {
                    "name" : "Fade",
                    "duration" : 7,
                    "trivial" : false,
                    "useAudioPreRoll" : true,
                    "useVisualPreRoll" : true,
                    "leftMedia" : 53,
                    "rightMedia" : 60
                  },
                  {
                    "name" : "Fade",
                    "duration" : 7,
                    "trivial" : false,
                    "useAudioPreRoll" : true,
                    "useVisualPreRoll" : true,
                    "leftMedia" : 60,
                    "rightMedia" : 67
                  },
                  {
                    "name" : "Fade",
                    "duration" : 7,
                    "trivial" : false,
                    "useAudioPreRoll" : true,
                    "useVisualPreRoll" : true,
                    "leftMedia" : 74,
                    "rightMedia" : 77
                  },
                  {
                    "name" : "Fade",
                    "duration" : 7,
                    "trivial" : false,
                    "useAudioPreRoll" : true,
                    "useVisualPreRoll" : true,
                    "leftMedia" : 77,
                    "rightMedia" : 93
                  },
                  {
                    "name" : "Fade",
                    "duration" : 7,
                    "trivial" : false,
                    "useAudioPreRoll" : true,
                    "useVisualPreRoll" : true,
                    "leftMedia" : 93,
                    "rightMedia" : 115
                  },
                  {
                    "name" : "Fade",
                    "duration" : 7,
                    "trivial" : false,
                    "useAudioPreRoll" : true,
                    "useVisualPreRoll" : true,
                    "leftMedia" : 132,
                    "rightMedia" : 139
                  }
                ]
              },
              {
                "trackIndex" : 1,
                "medias" : [
                  {
                    "id" : 310,
                    "_type" : "StitchedMedia",
                    "minMediaStart" : 0,
                    "attributes" : {
                      "ident" : "tower-05",
                      "gain" : 1.0,
                      "mixToMono" : false
                    },
                    "parameters" : {
                      "volume" : {
                        "type" : "double",
                        "keyframes" : [
                          {
                            "endTime" : 0,
                            "time" : 0,
                            "value" : 1.0,
                            "duration" : 0
                          },
                          {
                            "endTime" : 10335,
                            "time" : 10335,
                            "value" : 1.0,
                            "duration" : 0
                          }
                        ]
                      },
                      "cursorOpacity" : 1.0,
                      "cursorScale" : 1.0
                    },
                    "medias" : [
                        {
                          "id" : 311,
                          "_type" : "AMFile",
                          "src" : 5,
                          "trackNumber" : 1,
                          "attributes" : {
                            "ident" : "",
                            "sampleRate" : 44100,
                            "bitDepth" : 16,
                            "gain" : 1.0,
                            "mixToMono" : false
                          },
                            "channelNumber" : "0,1",
                          "effects" : [

                          ],
                          "start" : 0,
                          "duration" : 1383,
                          "mediaStart" : 0,
                          "mediaDuration" : 1383,
                          "scalar" : 1,
                          "metadata" : {
                            "WinSubProjectDisplayName" : ""
                          },
                          "animationTracks" : {

                          }
                        },
                        {
                          "id" : 312,
                          "_type" : "AMFile",
                          "src" : 5,
                          "trackNumber" : 1,
                          "attributes" : {
                            "ident" : "",
                            "sampleRate" : 44100,
                            "bitDepth" : 16,
                            "gain" : 1.0,
                            "mixToMono" : false
                          },
                            "channelNumber" : "0,1",
                          "effects" : [

                          ],
                          "start" : 1383,
                          "duration" : 2726,
                          "mediaStart" : 1406,
                          "mediaDuration" : 2726,
                          "scalar" : 1,
                          "metadata" : {
                            "WinSubProjectDisplayName" : ""
                          },
                          "animationTracks" : {

                          }
                        },
                        {
                          "id" : 313,
                          "_type" : "AMFile",
                          "src" : 5,
                          "trackNumber" : 1,
                          "attributes" : {
                            "ident" : "",
                            "sampleRate" : 44100,
                            "bitDepth" : 16,
                            "gain" : 1.0,
                            "mixToMono" : false
                          },
                            "channelNumber" : "0,1",
                          "effects" : [

                          ],
                          "start" : 4109,
                          "duration" : 424,
                          "mediaStart" : 4173,
                          "mediaDuration" : 424,
                          "scalar" : 1,
                          "metadata" : {
                            "WinSubProjectDisplayName" : ""
                          },
                          "animationTracks" : {

                          }
                        },
                        {
                          "id" : 314,
                          "_type" : "AMFile",
                          "src" : 5,
                          "trackNumber" : 1,
                          "attributes" : {
                            "ident" : "",
                            "sampleRate" : 44100,
                            "bitDepth" : 16,
                            "gain" : 1.0,
                            "mixToMono" : false
                          },
                            "channelNumber" : "0,1",
                          "effects" : [

                          ],
                          "start" : 4533,
                          "duration" : 139,
                          "mediaStart" : 4741,
                          "mediaDuration" : 139,
                          "scalar" : 1,
                          "metadata" : {
                            "WinSubProjectDisplayName" : ""
                          },
                          "animationTracks" : {

                          }
                        },
                        {
                          "id" : 315,
                          "_type" : "AMFile",
                          "src" : 5,
                          "trackNumber" : 1,
                          "attributes" : {
                            "ident" : "",
                            "sampleRate" : 44100,
                            "bitDepth" : 16,
                            "gain" : 1.0,
                            "mixToMono" : false
                          },
                            "channelNumber" : "0,1",
                          "effects" : [

                          ],
                          "start" : 4672,
                          "duration" : 212,
                          "mediaStart" : 5022,
                          "mediaDuration" : 212,
                          "scalar" : 1,
                          "metadata" : {
                            "WinSubProjectDisplayName" : ""
                          },
                          "animationTracks" : {

                          }
                        },
                        {
                          "id" : 316,
                          "_type" : "AMFile",
                          "src" : 5,
                          "trackNumber" : 1,
                          "attributes" : {
                            "ident" : "",
                            "sampleRate" : 44100,
                            "bitDepth" : 16,
                            "gain" : 1.0,
                            "mixToMono" : false
                          },
                            "channelNumber" : "0,1",
                          "effects" : [

                          ],
                          "start" : 4884,
                          "duration" : 634,
                          "mediaStart" : 5243,
                          "mediaDuration" : 634,
                          "scalar" : 1,
                          "metadata" : {
                            "WinSubProjectDisplayName" : ""
                          },
                          "animationTracks" : {

                          }
                        },
                        {
                          "id" : 317,
                          "_type" : "AMFile",
                          "src" : 5,
                          "trackNumber" : 1,
                          "attributes" : {
                            "ident" : "",
                            "sampleRate" : 44100,
                            "bitDepth" : 16,
                            "gain" : 1.0,
                            "mixToMono" : false
                          },
                            "channelNumber" : "0,1",
                          "effects" : [

                          ],
                          "start" : 5518,
                          "duration" : 3511,
                          "mediaStart" : 5894,
                          "mediaDuration" : 3511,
                          "scalar" : 1,
                          "metadata" : {
                            "WinSubProjectDisplayName" : ""
                          },
                          "animationTracks" : {

                          }
                        },
                        {
                          "id" : 318,
                          "_type" : "AMFile",
                          "src" : 5,
                          "trackNumber" : 1,
                          "attributes" : {
                            "ident" : "",
                            "sampleRate" : 44100,
                            "bitDepth" : 16,
                            "gain" : 1.0,
                            "mixToMono" : false
                          },
                            "channelNumber" : "0,1",
                          "effects" : [

                          ],
                          "start" : 9029,
                          "duration" : 45,
                          "mediaStart" : 9418,
                          "mediaDuration" : 45,
                          "scalar" : 1,
                          "metadata" : {
                            "WinSubProjectDisplayName" : ""
                          },
                          "animationTracks" : {

                          }
                        },
                        {
                          "id" : 319,
                          "_type" : "AMFile",
                          "src" : 5,
                          "trackNumber" : 1,
                          "attributes" : {
                            "ident" : "",
                            "sampleRate" : 44100,
                            "bitDepth" : 16,
                            "gain" : 1.0,
                            "mixToMono" : false
                          },
                            "channelNumber" : "0,1",
                          "effects" : [

                          ],
                          "start" : 9074,
                          "duration" : 90,
                          "mediaStart" : 9508,
                          "mediaDuration" : 90,
                          "scalar" : 1,
                          "metadata" : {
                            "WinSubProjectDisplayName" : ""
                          },
                          "animationTracks" : {

                          }
                        },
                        {
                          "id" : 320,
                          "_type" : "AMFile",
                          "src" : 5,
                          "trackNumber" : 1,
                          "attributes" : {
                            "ident" : "",
                            "sampleRate" : 44100,
                            "bitDepth" : 16,
                            "gain" : 1.0,
                            "mixToMono" : false
                          },
                            "channelNumber" : "0,1",
                          "effects" : [

                          ],
                          "start" : 9164,
                          "duration" : 6190,
                          "mediaStart" : 9606,
                          "mediaDuration" : 6190,
                          "scalar" : 1,
                          "metadata" : {
                            "WinSubProjectDisplayName" : ""
                          },
                          "animationTracks" : {

                          }
                        }
                    ],
                    "effects" : [
                        {
                          "effectName" : "NoiseReduction",
                          "category" : "categoryAudioEffects",
                          "parameters" : {
                            "denoiserAmount" : 20.0,
                            "denoiserThreshold" : 0.0,
                            "noiseProfile" : "0DLBQIHdHEFkF58/DucDP0ozzT57KmtAgMC/QJeMVkBqXPY/DM/ZQMiezz4uXQw/LmsPQAr6XUGb\r\n61tADcoFP5xdJz9feBE+k96HPoV1gT5t5ts+891TP321qT//4kpAYZFVP/Y5SEBV+cA/y9mkP1TE\r\nkD/IwDdBlGu3QPEnIECKjZ9A9zQeQR6sIkGDqRBB+MoTQPG91D8HiIJAV1n+P6aiLT8BC0o/tL6y\r\nP4CKdz+TTwpAgu3+PkNWRT+gxcc+oUg2QHnaPj+xh5U+dknYPzLVOT+xOLQ/CVWQP9L/V0A8xUNA\r\nPD0eQBE0C0C2arA/IDIFQIzaBkBP6ZFAYESvPzzwVz9stXM/LdNnP2R7TkDbvPU/3LQ9P2b3aD9/\r\nmdU+KgmKPggnJj9cFxpA+r7IP2xSjz7uI6Q+OPvAPooxbz7i1P49VuHhPVCFqD7keyZAx+LaPlz+\r\nbz6Fdvs9U1juPU5/Gj4RaoA+nEsSPn4JCD++RKM+d6QKPnB8oT0yKPA9nJBCPngjQz6ubLY9ileG\r\nPPKgSj1Jxbc94G0JPQxPYzwmXi092efQPdtqCT27jQc9Ky4yPXjt1z3+Y4Q+qWOVPRtdAT1ibEI9\r\nbSiFPa/kCT29bPQ8t1R6PWIuej338o4+YoobPVYHdT3irwI9Id5BPVQizzyal4o8Oto7PZQljz3V\r\nVZc8BPSuPOS1Ez1OsUA95umjPcrnGT0o+Qo95M01PRHiED31CgU9I94CPbQJQzzaG/o8ONkxPUKJ\r\n8zwMEV09eMDQPBrVQjzliHo8g0i2PEAUFD0MYwI9A+aRPWZo9jznDdY8L6VbPTI5Ej1qNRM9D5qt\r\nPNhShDzTRIs8oNaMPNNNRDzbawQ9wukyPRCmfT167cQ96HjXPFl3JT3pBr49dLyJPefi/jwg2lE9\r\nW2UKPV69tTzDfAA979SIPfaIGD2t9wY9pCWePJvaKz0PsKs81p2VPJCygzwfY6g8aMFRPDbiejy0\r\niq88JgMLPW22izx8hyQ9JVzIPEIyED0kHZc8kANAPASCmzyRv4Q8UaQKPaDdOTya/qY8SONgPO7m\r\nZj2SBMM8St5bPMcEFzySSNo7oXU1PIkPtTyHwME91CxcPbHibzzXumc8mZ7LPISshzzP8xs82rQj\r\nPBt37Dy9K0Y82igzPCOeyjttD9E7ffAqPBVpajyVa1U8L2iaPGWgnTwHWew7nXnIO3F0WTyf8RQ8\r\ncJ4rPFdMdzys2Qw9uZnrPBAoMDwjkYw8ZSrhO/YQrTvamQo86wSBPOe0Nz2l/wo9m3koPNV4hTsy\r\nH088fZQ9PLqm5Du70Qw8V98lPJuToDvGLYU81seCPI1N1DxMYPM79xOPPKw1/DzXfzA8KaJkPNHx\r\nFzwUl8M85ikqPTntpzzko9A8hCIcPGXopzvWlcM7H2AVPHi0OzybEZ47v2A6PPGfkzwEStg7ulaX\r\nO9ozhDymjo48xoL+PBELnzy7Co07q9xBPFfThzsPfUE8RaCDPL6FgjyIzSA8+oFWPLHJAjykVI87\r\nKsUbPJLaDTxgNq48I8asO1eRJDw3iso7flx+PNXbiDv0r4E8oCVaPBAKsTue9oE8wyc0PCIKpTtz\r\nqDA83NG1PNxFLjyyaac7A/NoOy3vpjs2ul87YvhsO+SNXzu82Hw78QEcPMkEOTxIsoM8elKOO4sD\r\nfjuwZ+Y7Fkz/O5JKyztCihU7prwPPDrVyTx0Bao80GnGPLkwJTzykXg7AE3MOuvpQjuwUVA7VIPF\r\nOsqWTjskaoE6vVaZOj+m0DpDQJ86vAAXOxrIRjrO2/I5rVkcOjy2DjoUuHM5HikWOgDpmzk2qrg5\r\nDNTKOQuAwTlKYZA5RZqnOcC+vjl6IMI5trduOaJGkTnid6E5QBqnOWXiHTk5Q0I5GJ2SOReokDmO\r\nrVE5spNOOYKTcznOllU5MAVuOWJaXTnR5VU5SgdqOcFKizm96m059pCAOWJxbzk2i2g5duKBOeQ3\r\nQznIUHc5w6hdOXh0RTkpQXg52sxvOSZKdzlqc2Q52JF4OUQXXjnwr1A5pItXOeI4Pzn1C3E5WM1V\r\nOUJGNTn2vE85yJNLOZZxQjmEDlI5hVJROWh6RTms10M5uQ88ObaQPTkQxUw5XUc2OedjPznSh0k5\r\n+jsyOdz8RDlbkS85BqlKOcVYQDnqsko5sm5DOeajPDlcFzc5MME0Ob87Lznq5Tg5nu43OY6rODmo\r\nKzk5HGw4OVduRTkqpDU5g8ssOY0ELTnQrDg5iNQzObkKJTlGsi05NnwuOaIULTn83zI5T3YkOTIj\r\nMTlKuyI5NOIeOYqlHDmukjU5Xs8kOaCrNDk7jDI5q8AoObeyLDnq/yY53uMlOUm3HDm0wR45ki8b\r\nOdfnFjkorCE5xLUeOZwEJDlw8CE5DNMhORyQFTnach05/zwgOfPAFDnqFho5guUjOVjtHjlo1Q05\r\nWjgaOWIAFDnmZgo5QxMSOYPdJDmTFRY5tH8WOWYODzl8Hg85Tw0ROU4qEjl+ShA5COIHOSWGCTmV\r\nBRM5JNMUOUSVCTkFiQ45Cs4OOYIeCznAxQk5JI0POa5CDzlWqw45JesQOQxZCDm89xw59qMSOfIK\r\nDDnLmgc5N33+OKKnCTkevvo4Sf8GOYQpDDmV2ws5NKgKOe7XBTk8ogg5n0kFOS55BDnY2wk5D0IE\r\nOSNFATnVZgU5fCf+OGi+9jiYhQQ5IzEBOdCV9jiuDQY5Eq/pOE6W8jhG3uk4WiP+OMD8BjmAgPE4\r\ncTHqOOTE9TjRUvA4KEj5OGp+Ajl8XOQ4WyPnOP5b+DgiSfE4OFzrOF1rATmsceI4O9YDObiw9ThT\r\nhfU4s1DzOGcR/Timm+o4rIj/OOH/9jinhPA44urWOGrn9jiWSfI4NuL3OIIPzji1Les4sB7dOKxP\r\n+ThAE+o4QJjdOERe8Tiwe8U42mTmOGIJ1TjJDt84UEXhOLyD2zjEfu04dezVOK033DgOZcQ4jyTb\r\nOIq+4jgC/tw4zmLjODrj1jhCyNc4A+fKOFyBzjgEBdU49TfcOFdG4DhqGMM4HFvQOG6UzTh4I9I4\r\nARbWOMaOzTiMYsA4ltfjOPeswjiGCNs4GgHeOJ5pzThMAs44k6fVOCASwzhJnMY4TAzSOJJY1TjG\r\nLdY4ykrWODJBwTin0ME4l5i7OBnWuDjgOb444d3FOEKqzDg+Vso4rAbOOM7Xyjg82rk4hLvHOEpz\r\nwDh8PMM4jRzIOBR0xThVMsE4Qtq/OA6HuTg0qs44ryi6OCLexziHKcM4nKDJOMFtuTjYVbY4rX3H\r\nOOb0wTg82sg4uu3FOII0wDg1eLw40XHAONnQxzimObg45yDBOJs1zTiVO7g4rPKzOK4GwjhaZb04\r\nO/y9OI5CwjgcKLE4mSfFOGe2pzjogb44gNC1OCb1tDiVq6848HW8OJmhvzg4Hrs406OmOIQDqTjl\r\nrZo4gvalOM66qDhr47M4+UG8OAXXsjjCSsI4VgqpOGVuoTh8ksk4HBeuOI4fszh0AKw4jTGxOEEl\r\npThziKw4Hn+iOLvBrjgPkrs40jqnOMNOrzhQI6I4FniVOOgcsDj0Apw4lq+vOIgArzgaZbM4HLOi\r\nOFcYpDjGmqc4CMKiOPHJmziPnKA44IWmOCqJnDh6z604uWauOGHYsTiGs5c4CGSVOMYEnTh+Pak4\r\nGJKYOIeeoDiKbJs4EDueONWooziPJ6o4YdaqOOjPkDgRZZ446qSyOGAxmjgD9qE44dOeOJpqmDgk\r\npq44yQSoOPw0lzjCyak4pEmiOIF3qzgbJ5s4/BygOKtfpzgYtJ04aZWZOHxGmDi0VLI4PGaXOISm\r\niThAw5o4yGioOLCDjzhEXJ44mnyeOFC6pDhu6Js486ikOM/XmTiVppk4XmuaOBLClzjFmIY4wk+O\r\nOBgApDh1/aA4YlWfOHRwpTjmlJg4XrKMODoFizgy5KM4bvSfOAr9jThHIJ04mZWZOIXKZzhw0Is4\r\n0+KiOIIqijgwlZM4GlaCOGGapTj1L5E4NjqeOI5JjTgGr5k4VBmDOJuOjDjCrZk4ckmBOGfPlziT\r\nuZM4Rm2AOGcMqzgKt544ZmyNOOLNkDg5DI44/paNOLm5jjh7eJE4jYyOOE0giTg40aQ4B3aIOMjE\r\nmDhNDYM4PGSGODkomDiW1Jo4CH2GOFL9kDht7oQ442uMOGtAjDi5Uow4ArOfOJGCiTh4C54485qI\r\nOCcPbDhnK5Y4HzqUOEiziTgqAoY48VeNOKmBjTiAcZI4fguHONQPjjiC2IU40PuNOEJfijhFKGw4\r\nHKyCOD7jkzgREYM4PC6GODFVizj2NIQ4ni2HOAxEiDh+UIA41i98OBK/gDjyjpI4EweJOOCEgzj+\r\nopQ4YHaPONCKmDhoKJo4Fn9yOHbgmTg6r5A44i2HOFcejji/o4o46nKVOH7Xjzhxu344/JWEOE1c\r\neThqs4o4nv+GODmFmzj9v5E4CU2WOAGEezizgog44S+UOJbNhzjCNHs4AFV/OPHehDiaUHM4iPyR\r\nOKRrbjhFU4w4I3GYOCHrjTho2ZE4PwOPOD5ZiDiDfI44qqKPOL2iizgseIk4HkCLOIUufDi9T4c4\r\n/35sOLcUkzh8+Ig40hRhONTpijj3uGw4C0SQOEJBgziJrYM4ubNvOG3WhThmP484dUh6OAAoeTg5\r\nIno42J6IOPgLgzh/OYc4fyllOKXjhjhsxFU4wcKROPv0ijhLy3U4dc9/OH5DaDgmfYk4RXmCOM8V\r\ndzhAJHw4m6eBOF0Rbzg2AH84T1h8OJMfczinC5A4AlaMOOLfRjiDMoQ4X4+CODh5hjhIw484eA6B\r\nOA1CkDiu1Y049r2NOLfUfjiIMoA4KGeNOJLFaDgZ0mc4FJ6AODT4VThtQ1c4EJaJOKAobziEUYU4\r\nTDh7OH5ocDiYKmA4SupvOKJuczg0kow4/997OBccbjh5KXg4odyJOF/ZbDjE6Xo4MaR2OFP4aDh9\r\n3II4DglgOIhHYTgG31845X9/ODqzXjjgGm04Hsp0OONMeThtroU4NfZ1ONTTdTj0Elk4fYeCOGfb\r\ngDht7m44ha9zOOYXgDi/nYE4JGWAOJRMcTijSYk4fhqNODcWYzjOfXI4bhxrONa7eTgcP184Xit9\r\nOHXEbTg1PFo43jNlONpLZjiCA4U4m2FYOB0WfDguqWQ4yZ6KOAonfDjI3Wc4NNhiOADlhjgc7l84\r\n2cuAONqyazisAYA4DGJ7OFk2fjgj/Ws4CzWBODZiczgdGoY4GtxROIXWhDh4omU4XY9sOPGZhjje\r\nsXE4zsp4ODWfdTg8d3Q4pPJvOPVjhTir2XE4ifR5OMfOaTgtB1w4Rk+FOEi8bDgwgXI4iCyAOA2g\r\nfTgfKGU4QHdjOOHOgDhaAYc4pu6EOBWadzjmnWk4SkyDOBxjfzhHe3M4M4xpOAQ/hzi7bWQ4Uqxv\r\nOIUkgzhRFoA424VdOFN8dDim0lM4FHp4OKQzgjiF5mg4LBRzOFLEgjiF2Fs4wU2EOIAAgTjQMsFA\r\ngd0cQWQXnz8O5wM/TCzNPnsqa0CAwL9Al4xWQI5T9j8Mz9lAyJ7PPi5dDD8uaw9A9vZdQQ/yW0AL\r\n5wU/BIQnP5uPET6L/Yc+hXWBPm3m2z7z3VM/fbWpP//iSkBhkVU/aExIQCfowD8P26Q/VMSQP3LE\r\nN0FyZbdA8ScgQAaMn0DRMB5BsbMiQYOpEEH4yhNA777UP1J9gkBXWf4/R64tPwELSj+0vrI/gIp3\r\nP1BPCkDjnf4+NDdFP6DFxz6hSDZAedo+P0KElT52Sdg/e945P7E4tD8JVZA/0v9XQDzFQ0BPNx5A\r\nETQLQCiKsD8gMgVAjNoGQE/pkUDrQa8/PPBXP2y1cz+RvGc/ZHtOQNu89T8M4z0/4NloP3W81T4q\r\nCYo+CCcmP3QwGkCEusg/nWyPPioMpD7K8sA+ijFvPsJ8/j1W4eE9ZJeoPiplJkDH4to+/fxvPhqB\r\n+z1uTu498KcaPpKggD5BgxI+fgkIP62joz6JCws+cHyhPTIo8D2ckEI+eCNDPh2Itj0lsYY8nClL\r\nPQx3tz3gbQk9DE9jPE4iLj14QtE922oJPbuNBz1QpjI9CPfXPTdphD6pY5U9sHEBPWJsQj1tKIU9\r\nr+QJPcFt9Dy8P3o9GiR6PaP3jj5iihs9r4x1PdwqAj0h3kE9TODOPBoNizw62js9lCWPPaiFlzwE\r\n9K485LUTPZl6QD3n6qM9yucZPSj5Cj3kzTU98zQRPVkqBD0j3gI9FBhDPNob+jwyijE9G6DyPAwR\r\nXT22nNA8BLtEPOWIejyDSLY8QBQUPXh+Aj0D5pE9MFj2PPD/1Txn1lo9MjkSPWo1Ez2vK6082FKE\r\nPNNEizyg1ow8J8hEPJpDBD3C6TI9EKZ9PXrtxD3oeNc8WXclPekGvj10vIk95+L+PCDaUT1bZQo9\r\nXr21PDCBAT3JqYg99ogYPa33Bj2kJZ48/r8rPfYArTwlkpU8YLSDPGkEqDxwz1E8lNF6PLT6rzwm\r\nAws9bbaLPHyHJD0lXMg8jw8QPZK2ljwmzz88BIKbPJG/hDxRpAo9RH85PJr+pjxI42A87uZmPZIE\r\nwzwosFw80QcYPIzd2DuhdTU8fDG1PIfAwT3ULFw9QKhvPNe6ZzyZnss8hKyHPNowGzxLmiM8G3fs\r\nPL0rRjzRmTM8PBDKO20P0Tv0JCw89sRpPJVrVTwvaJo8ZaCdPAdZ7Dudecg76+ZYPJ/xFDzFRyw8\r\nV0x3PDuFDD3Bcus8ECgwPCORjDyPUOE7FBywO30KCzzrBIE857Q3PaX/Cj2beSg81lOFO6TpTjx9\r\nlD08bdPkOxSsCzxX3yU8FiGgO82jhDyLGYM8jU3UPJvr8zv3E488rDX8PNd/MDwpomQ80fEXPEyi\r\nwjzmKSo9bDaoPO760DyEIhw8ZeinO9aVwzuzfxU8eLQ7PCH5nDvyWjo8W7yTPC8s2Du6Vpc79rqD\r\nPKaOjjysVP48EQufPF4zjjujJUI8V9OHO1tYQTxFoIM8tsOCPIjNIDz6gVY8+qgCPKRUjzsqxRs8\r\nktoNPGA2rjw3Ia47V5EkPDe8yTvxPX486euHO5gbgjygJVo8EAqxOyYSgzybvDQ8nnGkO3OoMDzc\r\n0bU83EUuPPNXpzsNXmo71uWmO/82XTsSgGk7ykVeO5b0fDuViBw8yQQ5PPFOgzx6Uo47iwN+O3lO\r\n5jtiw/87vOLKO2XaEjumvA88OtXJPFSmqTzQacY8uTAlPMOYeTsATcw66+lCOwNGUDtUg8U6zf9N\r\nO6c4gTogNZw6EanWOkTGozp8fhU7w7lFOs7b8jmtWRw66n8OOhS4cznKkBU65s6XOd49vzkM1Mo5\r\n60e5OblIkjmk5KM5I1fFOfnKvznMVXU5adqKOQjimzmwO6o5Fp0kOWlGLzk/m4857HWGOUbgZznY\r\nCUU5WS6WOWVZSDkjZlE52iB5OZqTXTkouDo5gZqSOdBaXDnK8ls5oFBxORDVdzkG4Hk59HBjOfg5\r\nSDm4XWM54R10Oe6NWTm8FVs59h9qObFOTDkar1s56BhmOTwbXTk7oFg5Qk1SOfVERzmjhFU5RKRH\r\nOZeURjk0qUM55GFMOUoXRznU8Uk5cs9KOUiyPzndSU054qJAOcqASzlwzDo5EKBGOT44QzmjvjQ5\r\nqlJMOYpHNTlTnUQ5p+o5OQJVRjmIfU85Tpo7OZdtQzmlOUA5as8xOSpgPzma6T45SBI2OUamOjnO\r\nWDs5ERJCOQBnMjk6x0A53sA0OWakLjlQXDc5fqghOZotMTlYKy05L9IvOdZJITnoySM5uO41Oc3W\r\nHTnnkiQ57uwhOaS7LTm8Kys5R6Q5Obj1MTlTISk5SO4nOQ+BLjlyfS05Xn0fOfp/GTnMpxo5KzMU\r\nOZ4ZHTn8aSY5FNYcOX5FIjmu3SE5vrgVOT1LJzmu3xo5H6okOUmKFzntgBo50i0dOTBJETkc/SQ5\r\nxqYROVuxFTn8vBc5yuoeOXzOGDn4DCE51KUkOc9bGzmY+gU5BvoeOblFBzmIFg05A3EQORj0Dzmg\r\nCxA5FjQWOUGvEjnEzRQ5ZdINORrBDjlyexg5ybkLOXZiBTnIZwU5+gwGOXBYFDlCGBo5mlEMOYo3\r\nBDnYOgU59qkAOY4P9ThoRAo5RkH+OIYiEjmyVwc5bvYGOZFiBzlf1QE5sgAGOaq8DjkuNgI5sRD+\r\nOK9r+DgaDOk4YfHiOH7h+Ti3gQk5QpX7OLPH8DhDhug4EsPyOH7/9DioE/A4FDf/OAAK+jhyzes4\r\nJcTtOLqlAjnOx/k4Zn8COURm8DjXz+w4s0joOCdf7zgHt+44ZET7OJpK4zgbWgU5bOTkONCX7DgS\r\n8AQ5JkT6ODBO/zgwPvE4kgkAOfNU+DgMleg4fJT7OJ9N4TiA/+046iXoOJIu7jj7I+I4ADL4OFEV\r\n6Ti7zeg4FwjVOJ3n0DhTMfY4QsrQOPK20zhqgtw4F5bjOPsz+ThFI7s4JjjaODUi1zgKJNc4raq7\r\nOLSr2jgweuc49ULhOCAp4DgcFNE43nnEOI61zziPf9E4Et7kOM284Dh0YMw43j3cOD7u1jgItsg4\r\ntgnYOLJZwDjgFdE4lNLeOJep3zihC8s4tKnMOOFvyjhnDdI4kITbOIw9xDgoRsY4eBHMOMX3zzgJ\r\nj8Y47hvOOE0VujjjesA47CPWOAAe2jgP4MU47LLKONRbszgYWNk4iv7AOFiVsjjYpMY4ogDLOFy2\r\nvDiFwcs4QB3FOIxBxjg+Or04HOHHOPFRwzijKbs4KuW/ODzmwzgCLsM4s2G8OKN9tTjnJsA4wgax\r\nOAhYwTgXt8k4mqfGOJ4WvzjUIs44GlDCOIxXwTj6jcQ4dxXDOPDltzjzlaI4pDK/OBD6rzj4s7s4\r\n+jPEOD3Ltjg+sbc4ysK1OH9SsThaja04nnWyOAChujiuh8A4b+a4OKEZpjgyo7A4V2m5OIovljiX\r\nNKs4PoKzOBRMrDhNErQ4Aj2zOCmFtjhYPag4JkihOMOwtjh92a04dC2lOA0cqDiN0ac4TGKkOOPi\r\npDj4R604+O+yOGSCwDh4y5o4pnmuOPN6nzgKM5c4KEe0OC7kmzixJb04JYqsOE9Brji4tpc4Inyh\r\nOFE3rTikw6Y4suOoOPwtnjiSkaI4khupOCRanjg0X7A4bBagOKG0rTjUVaQ4tLmdOOrekzjqVas4\r\npmajOAGAnDhC8a84vaCPOAMBnjhI8qg4/42bONJ1mThgdKI4QCaqODTSrDgWmKo44GOcOCaXsThq\r\nsqA41nKYOAgyqDjCOqs4aSefOGO0ozjpLpE49iumOJ2Sljjor5g4ZcubOCkmrTgrApc4ARybOFRT\r\nkTggl6U4ZIeROPIhoDjXyJI44OKfOLwJkzg7h6Q4SW2UOLVrkjg2SZE4qyuiOHIjjDhTapc4CICp\r\nOBquozi7I4g4hfWYOIxsoTioRpA4WVSZOMYWnTjdTqA4oBiTOCRunDhim6Y4/pKEOGNllziZH504\r\n8MOLONeCnTgedok4LXaYOIZKhjhUwq04Rx+aONjDlDhEqI44vTSMONv+hTi4qYI4RNedOL1pjTi+\r\nOp048SqnOLYqojgPOKE4ljKSOILvgjh/nZc4yy2SOJe0jjgZO4k4/s6IOBjJnDinboM4W/OZOE3q\r\nijig75k4AEuTOL/rizhuzIE4/cByOEtGnDhf3pU4YsCMOPl8izhhQJY4P0iPODulozi8+IY4RY+C\r\nOCGviThar5E4IsyOOOuPiTiKwoo4WmeOOIctjjiXC4s4ibqDOKh6eDhaC4c4PfKJOA7XizhYm344\r\nHIWiOGwzgzjYdo04a1ekOMnxgziCTYs4AauFOIXcazghLow4IleTOKOpjzhRh4I4QNyGOIhDlDgz\r\nKI84/3SSOClpnTi4yI44dBqPOJN9mjgzfIc4FkyNOLRchTiO84s49ct8ONoQZzjbbY84RoV3OLOq\r\nhTi9N4M4PIaXOEHGmzgOfYw4ZjCKOEHeizgIL4s46RFyOCFwfTh2I2s4dfWJOAbjiTh7n4Q4buxy\r\nOO98gDgDFJA4xlWCOC1sgDhoXYk4TceLOJKjkDjAsYQ4nA+PONXIgTjiC404Yq54OHGDjDgUC3k4\r\nuZWAOGDphjhcAmU4/72LOD0lgjgK2Is4IgaIOMCIgjgTnns4f2eDOPe8bThkgH04dA2DOBQNdjje\r\nRoA4qxaHOP81hTgQyXE44GaGOJR6gTgHM4g4kBuJOLkjbTg3S3E4806HOCi/gDh2LYA4mv6LONwC\r\ndzjhZ4M4DK1fOM5hgThTlWA4hluGONazfzgDBHs4tS5jOMq0gThKu4w4hvR7OK62fjjEGIk4vi+N\r\nOI70gDjJ1YI4sqKPOEZgbDjg/Y04R+F0OKS2aDhlFJA4WAFqOP/XZDhxS444RVpsOA3XdDjy+HU4\r\nHdtqODRvZjhRJWA4CGuDONP0fjhD9Xg4DCpnOJI/gjgyUpA4q+5TOEEkYzgxjY04uSFhOP9YgTgm\r\n3WQ4Io1hOO9VeDi9woM4tqByODnxaDiYlnI4jcB/OOgAdjh+CXI4ZnJqOBtRXjjbyH04ZIeBOBJc\r\neDjr0n84w8qJODaggDgNunM4wrSCOIzXfDi6YoI4fQZiOK4aYTju5YE4BZVfOKiLXDhUY3g45N11\r\nOH9OajgFuGc41pl6OA5sZjiGP0k4rw9iOH/3dzgTG4k4n5JeOIlEaTjJeIU4rxWCOB0xZDhmMYE4\r\nm7aCOG2VczhKIl04RaVnOEDgdTgwiGw4n8SAOGjUdTgyAWA4kpqIOO1peTi5pnQ4tdF+OPV3jTjZ\r\nKGk4hzlkOFNyhTi6WXY43e94OLBEbjizQ2E4uIRqOE0VbTgZ2HU4G3J8OHnFZTgk0GY4RBKCODBr\r\niDhzjHc4lbN5OGojeTi034E4/Ex5ODuueziHQ4c4HQ53OKqzizixomw4ufWKOMi+eDif72w48/SB\r\nODxGcTjj0F04yoNoOMQWZji4q3w4UtdzOMeXgjjTx4Q4OkBrONP1dzj4nHA4ADKKOA==",
                            "noiseTrainingType" : "default"
                          }
                        }
                    ],
                    "start" : 22177,
                    "duration" : 52,
                    "mediaStart" : 10355,
                    "mediaDuration" : 52,
                    "scalar" : 1,
                    "metadata" : {
                      "WinSubProjectDisplayName" : "",
                      "clipSpeedAttribute" : false
                    },
                    "animationTracks" : {

                    }
                  },
                  {
                    "id" : 321,
                    "_type" : "StitchedMedia",
                    "minMediaStart" : 0,
                    "attributes" : {
                      "ident" : "tower-05",
                      "gain" : 1.0,
                      "mixToMono" : false
                    },
                    "parameters" : {
                      "volume" : {
                        "type" : "double",
                        "keyframes" : [
                          {
                            "endTime" : 0,
                            "time" : 0,
                            "value" : 1.0,
                            "duration" : 0
                          },
                          {
                            "endTime" : 10335,
                            "time" : 10335,
                            "value" : 1.0,
                            "duration" : 0
                          }
                        ]
                      },
                      "cursorOpacity" : 1.0,
                      "cursorScale" : 1.0
                    },
                    "medias" : [
                        {
                          "id" : 322,
                          "_type" : "AMFile",
                          "src" : 5,
                          "trackNumber" : 1,
                          "attributes" : {
                            "ident" : "",
                            "sampleRate" : 44100,
                            "bitDepth" : 16,
                            "gain" : 1.0,
                            "mixToMono" : false
                          },
                            "channelNumber" : "0,1",
                          "effects" : [

                          ],
                          "start" : 0,
                          "duration" : 1383,
                          "mediaStart" : 0,
                          "mediaDuration" : 1383,
                          "scalar" : 1,
                          "metadata" : {
                            "WinSubProjectDisplayName" : ""
                          },
                          "animationTracks" : {

                          }
                        },
                        {
                          "id" : 323,
                          "_type" : "AMFile",
                          "src" : 5,
                          "trackNumber" : 1,
                          "attributes" : {
                            "ident" : "",
                            "sampleRate" : 44100,
                            "bitDepth" : 16,
                            "gain" : 1.0,
                            "mixToMono" : false
                          },
                            "channelNumber" : "0,1",
                          "effects" : [

                          ],
                          "start" : 1383,
                          "duration" : 2726,
                          "mediaStart" : 1406,
                          "mediaDuration" : 2726,
                          "scalar" : 1,
                          "metadata" : {
                            "WinSubProjectDisplayName" : ""
                          },
                          "animationTracks" : {

                          }
                        },
                        {
                          "id" : 324,
                          "_type" : "AMFile",
                          "src" : 5,
                          "trackNumber" : 1,
                          "attributes" : {
                            "ident" : "",
                            "sampleRate" : 44100,
                            "bitDepth" : 16,
                            "gain" : 1.0,
                            "mixToMono" : false
                          },
                            "channelNumber" : "0,1",
                          "effects" : [

                          ],
                          "start" : 4109,
                          "duration" : 424,
                          "mediaStart" : 4173,
                          "mediaDuration" : 424,
                          "scalar" : 1,
                          "metadata" : {
                            "WinSubProjectDisplayName" : ""
                          },
                          "animationTracks" : {

                          }
                        },
                        {
                          "id" : 325,
                          "_type" : "AMFile",
                          "src" : 5,
                          "trackNumber" : 1,
                          "attributes" : {
                            "ident" : "",
                            "sampleRate" : 44100,
                            "bitDepth" : 16,
                            "gain" : 1.0,
                            "mixToMono" : false
                          },
                            "channelNumber" : "0,1",
                          "effects" : [

                          ],
                          "start" : 4533,
                          "duration" : 139,
                          "mediaStart" : 4741,
                          "mediaDuration" : 139,
                          "scalar" : 1,
                          "metadata" : {
                            "WinSubProjectDisplayName" : ""
                          },
                          "animationTracks" : {

                          }
                        },
                        {
                          "id" : 326,
                          "_type" : "AMFile",
                          "src" : 5,
                          "trackNumber" : 1,
                          "attributes" : {
                            "ident" : "",
                            "sampleRate" : 44100,
                            "bitDepth" : 16,
                            "gain" : 1.0,
                            "mixToMono" : false
                          },
                            "channelNumber" : "0,1",
                          "effects" : [

                          ],
                          "start" : 4672,
                          "duration" : 212,
                          "mediaStart" : 5022,
                          "mediaDuration" : 212,
                          "scalar" : 1,
                          "metadata" : {
                            "WinSubProjectDisplayName" : ""
                          },
                          "animationTracks" : {

                          }
                        },
                        {
                          "id" : 327,
                          "_type" : "AMFile",
                          "src" : 5,
                          "trackNumber" : 1,
                          "attributes" : {
                            "ident" : "",
                            "sampleRate" : 44100,
                            "bitDepth" : 16,
                            "gain" : 1.0,
                            "mixToMono" : false
                          },
                            "channelNumber" : "0,1",
                          "effects" : [

                          ],
                          "start" : 4884,
                          "duration" : 634,
                          "mediaStart" : 5243,
                          "mediaDuration" : 634,
                          "scalar" : 1,
                          "metadata" : {
                            "WinSubProjectDisplayName" : ""
                          },
                          "animationTracks" : {

                          }
                        },
                        {
                          "id" : 328,
                          "_type" : "AMFile",
                          "src" : 5,
                          "trackNumber" : 1,
                          "attributes" : {
                            "ident" : "",
                            "sampleRate" : 44100,
                            "bitDepth" : 16,
                            "gain" : 1.0,
                            "mixToMono" : false
                          },
                            "channelNumber" : "0,1",
                          "effects" : [

                          ],
                          "start" : 5518,
                          "duration" : 3511,
                          "mediaStart" : 5894,
                          "mediaDuration" : 3511,
                          "scalar" : 1,
                          "metadata" : {
                            "WinSubProjectDisplayName" : ""
                          },
                          "animationTracks" : {

                          }
                        },
                        {
                          "id" : 329,
                          "_type" : "AMFile",
                          "src" : 5,
                          "trackNumber" : 1,
                          "attributes" : {
                            "ident" : "",
                            "sampleRate" : 44100,
                            "bitDepth" : 16,
                            "gain" : 1.0,
                            "mixToMono" : false
                          },
                            "channelNumber" : "0,1",
                          "effects" : [

                          ],
                          "start" : 9029,
                          "duration" : 45,
                          "mediaStart" : 9418,
                          "mediaDuration" : 45,
                          "scalar" : 1,
                          "metadata" : {
                            "WinSubProjectDisplayName" : ""
                          },
                          "animationTracks" : {

                          }
                        },
                        {
                          "id" : 330,
                          "_type" : "AMFile",
                          "src" : 5,
                          "trackNumber" : 1,
                          "attributes" : {
                            "ident" : "",
                            "sampleRate" : 44100,
                            "bitDepth" : 16,
                            "gain" : 1.0,
                            "mixToMono" : false
                          },
                            "channelNumber" : "0,1",
                          "effects" : [

                          ],
                          "start" : 9074,
                          "duration" : 90,
                          "mediaStart" : 9508,
                          "mediaDuration" : 90,
                          "scalar" : 1,
                          "metadata" : {
                            "WinSubProjectDisplayName" : ""
                          },
                          "animationTracks" : {

                          }
                        },
                        {
                          "id" : 331,
                          "_type" : "AMFile",
                          "src" : 5,
                          "trackNumber" : 1,
                          "attributes" : {
                            "ident" : "",
                            "sampleRate" : 44100,
                            "bitDepth" : 16,
                            "gain" : 1.0,
                            "mixToMono" : false
                          },
                            "channelNumber" : "0,1",
                          "effects" : [

                          ],
                          "start" : 9164,
                          "duration" : 6190,
                          "mediaStart" : 9606,
                          "mediaDuration" : 6190,
                          "scalar" : 1,
                          "metadata" : {
                            "WinSubProjectDisplayName" : ""
                          },
                          "animationTracks" : {

                          }
                        }
                    ],
                    "effects" : [
                        {
                          "effectName" : "NoiseReduction",
                          "category" : "categoryAudioEffects",
                          "parameters" : {
                            "denoiserAmount" : 20.0,
                            "denoiserThreshold" : 0.0,
                            "noiseProfile" : "0DLBQIHdHEFkF58/DucDP0ozzT57KmtAgMC/QJeMVkBqXPY/DM/ZQMiezz4uXQw/LmsPQAr6XUGb\r\n61tADcoFP5xdJz9feBE+k96HPoV1gT5t5ts+891TP321qT//4kpAYZFVP/Y5SEBV+cA/y9mkP1TE\r\nkD/IwDdBlGu3QPEnIECKjZ9A9zQeQR6sIkGDqRBB+MoTQPG91D8HiIJAV1n+P6aiLT8BC0o/tL6y\r\nP4CKdz+TTwpAgu3+PkNWRT+gxcc+oUg2QHnaPj+xh5U+dknYPzLVOT+xOLQ/CVWQP9L/V0A8xUNA\r\nPD0eQBE0C0C2arA/IDIFQIzaBkBP6ZFAYESvPzzwVz9stXM/LdNnP2R7TkDbvPU/3LQ9P2b3aD9/\r\nmdU+KgmKPggnJj9cFxpA+r7IP2xSjz7uI6Q+OPvAPooxbz7i1P49VuHhPVCFqD7keyZAx+LaPlz+\r\nbz6Fdvs9U1juPU5/Gj4RaoA+nEsSPn4JCD++RKM+d6QKPnB8oT0yKPA9nJBCPngjQz6ubLY9ileG\r\nPPKgSj1Jxbc94G0JPQxPYzwmXi092efQPdtqCT27jQc9Ky4yPXjt1z3+Y4Q+qWOVPRtdAT1ibEI9\r\nbSiFPa/kCT29bPQ8t1R6PWIuej338o4+YoobPVYHdT3irwI9Id5BPVQizzyal4o8Oto7PZQljz3V\r\nVZc8BPSuPOS1Ez1OsUA95umjPcrnGT0o+Qo95M01PRHiED31CgU9I94CPbQJQzzaG/o8ONkxPUKJ\r\n8zwMEV09eMDQPBrVQjzliHo8g0i2PEAUFD0MYwI9A+aRPWZo9jznDdY8L6VbPTI5Ej1qNRM9D5qt\r\nPNhShDzTRIs8oNaMPNNNRDzbawQ9wukyPRCmfT167cQ96HjXPFl3JT3pBr49dLyJPefi/jwg2lE9\r\nW2UKPV69tTzDfAA979SIPfaIGD2t9wY9pCWePJvaKz0PsKs81p2VPJCygzwfY6g8aMFRPDbiejy0\r\niq88JgMLPW22izx8hyQ9JVzIPEIyED0kHZc8kANAPASCmzyRv4Q8UaQKPaDdOTya/qY8SONgPO7m\r\nZj2SBMM8St5bPMcEFzySSNo7oXU1PIkPtTyHwME91CxcPbHibzzXumc8mZ7LPISshzzP8xs82rQj\r\nPBt37Dy9K0Y82igzPCOeyjttD9E7ffAqPBVpajyVa1U8L2iaPGWgnTwHWew7nXnIO3F0WTyf8RQ8\r\ncJ4rPFdMdzys2Qw9uZnrPBAoMDwjkYw8ZSrhO/YQrTvamQo86wSBPOe0Nz2l/wo9m3koPNV4hTsy\r\nH088fZQ9PLqm5Du70Qw8V98lPJuToDvGLYU81seCPI1N1DxMYPM79xOPPKw1/DzXfzA8KaJkPNHx\r\nFzwUl8M85ikqPTntpzzko9A8hCIcPGXopzvWlcM7H2AVPHi0OzybEZ47v2A6PPGfkzwEStg7ulaX\r\nO9ozhDymjo48xoL+PBELnzy7Co07q9xBPFfThzsPfUE8RaCDPL6FgjyIzSA8+oFWPLHJAjykVI87\r\nKsUbPJLaDTxgNq48I8asO1eRJDw3iso7flx+PNXbiDv0r4E8oCVaPBAKsTue9oE8wyc0PCIKpTtz\r\nqDA83NG1PNxFLjyyaac7A/NoOy3vpjs2ul87YvhsO+SNXzu82Hw78QEcPMkEOTxIsoM8elKOO4sD\r\nfjuwZ+Y7Fkz/O5JKyztCihU7prwPPDrVyTx0Bao80GnGPLkwJTzykXg7AE3MOuvpQjuwUVA7VIPF\r\nOsqWTjskaoE6vVaZOj+m0DpDQJ86vAAXOxrIRjrO2/I5rVkcOjy2DjoUuHM5HikWOgDpmzk2qrg5\r\nDNTKOQuAwTlKYZA5RZqnOcC+vjl6IMI5trduOaJGkTnid6E5QBqnOWXiHTk5Q0I5GJ2SOReokDmO\r\nrVE5spNOOYKTcznOllU5MAVuOWJaXTnR5VU5SgdqOcFKizm96m059pCAOWJxbzk2i2g5duKBOeQ3\r\nQznIUHc5w6hdOXh0RTkpQXg52sxvOSZKdzlqc2Q52JF4OUQXXjnwr1A5pItXOeI4Pzn1C3E5WM1V\r\nOUJGNTn2vE85yJNLOZZxQjmEDlI5hVJROWh6RTms10M5uQ88ObaQPTkQxUw5XUc2OedjPznSh0k5\r\n+jsyOdz8RDlbkS85BqlKOcVYQDnqsko5sm5DOeajPDlcFzc5MME0Ob87Lznq5Tg5nu43OY6rODmo\r\nKzk5HGw4OVduRTkqpDU5g8ssOY0ELTnQrDg5iNQzObkKJTlGsi05NnwuOaIULTn83zI5T3YkOTIj\r\nMTlKuyI5NOIeOYqlHDmukjU5Xs8kOaCrNDk7jDI5q8AoObeyLDnq/yY53uMlOUm3HDm0wR45ki8b\r\nOdfnFjkorCE5xLUeOZwEJDlw8CE5DNMhORyQFTnach05/zwgOfPAFDnqFho5guUjOVjtHjlo1Q05\r\nWjgaOWIAFDnmZgo5QxMSOYPdJDmTFRY5tH8WOWYODzl8Hg85Tw0ROU4qEjl+ShA5COIHOSWGCTmV\r\nBRM5JNMUOUSVCTkFiQ45Cs4OOYIeCznAxQk5JI0POa5CDzlWqw45JesQOQxZCDm89xw59qMSOfIK\r\nDDnLmgc5N33+OKKnCTkevvo4Sf8GOYQpDDmV2ws5NKgKOe7XBTk8ogg5n0kFOS55BDnY2wk5D0IE\r\nOSNFATnVZgU5fCf+OGi+9jiYhQQ5IzEBOdCV9jiuDQY5Eq/pOE6W8jhG3uk4WiP+OMD8BjmAgPE4\r\ncTHqOOTE9TjRUvA4KEj5OGp+Ajl8XOQ4WyPnOP5b+DgiSfE4OFzrOF1rATmsceI4O9YDObiw9ThT\r\nhfU4s1DzOGcR/Timm+o4rIj/OOH/9jinhPA44urWOGrn9jiWSfI4NuL3OIIPzji1Les4sB7dOKxP\r\n+ThAE+o4QJjdOERe8Tiwe8U42mTmOGIJ1TjJDt84UEXhOLyD2zjEfu04dezVOK033DgOZcQ4jyTb\r\nOIq+4jgC/tw4zmLjODrj1jhCyNc4A+fKOFyBzjgEBdU49TfcOFdG4DhqGMM4HFvQOG6UzTh4I9I4\r\nARbWOMaOzTiMYsA4ltfjOPeswjiGCNs4GgHeOJ5pzThMAs44k6fVOCASwzhJnMY4TAzSOJJY1TjG\r\nLdY4ykrWODJBwTin0ME4l5i7OBnWuDjgOb444d3FOEKqzDg+Vso4rAbOOM7Xyjg82rk4hLvHOEpz\r\nwDh8PMM4jRzIOBR0xThVMsE4Qtq/OA6HuTg0qs44ryi6OCLexziHKcM4nKDJOMFtuTjYVbY4rX3H\r\nOOb0wTg82sg4uu3FOII0wDg1eLw40XHAONnQxzimObg45yDBOJs1zTiVO7g4rPKzOK4GwjhaZb04\r\nO/y9OI5CwjgcKLE4mSfFOGe2pzjogb44gNC1OCb1tDiVq6848HW8OJmhvzg4Hrs406OmOIQDqTjl\r\nrZo4gvalOM66qDhr47M4+UG8OAXXsjjCSsI4VgqpOGVuoTh8ksk4HBeuOI4fszh0AKw4jTGxOEEl\r\npThziKw4Hn+iOLvBrjgPkrs40jqnOMNOrzhQI6I4FniVOOgcsDj0Apw4lq+vOIgArzgaZbM4HLOi\r\nOFcYpDjGmqc4CMKiOPHJmziPnKA44IWmOCqJnDh6z604uWauOGHYsTiGs5c4CGSVOMYEnTh+Pak4\r\nGJKYOIeeoDiKbJs4EDueONWooziPJ6o4YdaqOOjPkDgRZZ446qSyOGAxmjgD9qE44dOeOJpqmDgk\r\npq44yQSoOPw0lzjCyak4pEmiOIF3qzgbJ5s4/BygOKtfpzgYtJ04aZWZOHxGmDi0VLI4PGaXOISm\r\niThAw5o4yGioOLCDjzhEXJ44mnyeOFC6pDhu6Js486ikOM/XmTiVppk4XmuaOBLClzjFmIY4wk+O\r\nOBgApDh1/aA4YlWfOHRwpTjmlJg4XrKMODoFizgy5KM4bvSfOAr9jThHIJ04mZWZOIXKZzhw0Is4\r\n0+KiOIIqijgwlZM4GlaCOGGapTj1L5E4NjqeOI5JjTgGr5k4VBmDOJuOjDjCrZk4ckmBOGfPlziT\r\nuZM4Rm2AOGcMqzgKt544ZmyNOOLNkDg5DI44/paNOLm5jjh7eJE4jYyOOE0giTg40aQ4B3aIOMjE\r\nmDhNDYM4PGSGODkomDiW1Jo4CH2GOFL9kDht7oQ442uMOGtAjDi5Uow4ArOfOJGCiTh4C54485qI\r\nOCcPbDhnK5Y4HzqUOEiziTgqAoY48VeNOKmBjTiAcZI4fguHONQPjjiC2IU40PuNOEJfijhFKGw4\r\nHKyCOD7jkzgREYM4PC6GODFVizj2NIQ4ni2HOAxEiDh+UIA41i98OBK/gDjyjpI4EweJOOCEgzj+\r\nopQ4YHaPONCKmDhoKJo4Fn9yOHbgmTg6r5A44i2HOFcejji/o4o46nKVOH7Xjzhxu344/JWEOE1c\r\neThqs4o4nv+GODmFmzj9v5E4CU2WOAGEezizgog44S+UOJbNhzjCNHs4AFV/OPHehDiaUHM4iPyR\r\nOKRrbjhFU4w4I3GYOCHrjTho2ZE4PwOPOD5ZiDiDfI44qqKPOL2iizgseIk4HkCLOIUufDi9T4c4\r\n/35sOLcUkzh8+Ig40hRhONTpijj3uGw4C0SQOEJBgziJrYM4ubNvOG3WhThmP484dUh6OAAoeTg5\r\nIno42J6IOPgLgzh/OYc4fyllOKXjhjhsxFU4wcKROPv0ijhLy3U4dc9/OH5DaDgmfYk4RXmCOM8V\r\ndzhAJHw4m6eBOF0Rbzg2AH84T1h8OJMfczinC5A4AlaMOOLfRjiDMoQ4X4+CODh5hjhIw484eA6B\r\nOA1CkDiu1Y049r2NOLfUfjiIMoA4KGeNOJLFaDgZ0mc4FJ6AODT4VThtQ1c4EJaJOKAobziEUYU4\r\nTDh7OH5ocDiYKmA4SupvOKJuczg0kow4/997OBccbjh5KXg4odyJOF/ZbDjE6Xo4MaR2OFP4aDh9\r\n3II4DglgOIhHYTgG31845X9/ODqzXjjgGm04Hsp0OONMeThtroU4NfZ1ONTTdTj0Elk4fYeCOGfb\r\ngDht7m44ha9zOOYXgDi/nYE4JGWAOJRMcTijSYk4fhqNODcWYzjOfXI4bhxrONa7eTgcP184Xit9\r\nOHXEbTg1PFo43jNlONpLZjiCA4U4m2FYOB0WfDguqWQ4yZ6KOAonfDjI3Wc4NNhiOADlhjgc7l84\r\n2cuAONqyazisAYA4DGJ7OFk2fjgj/Ws4CzWBODZiczgdGoY4GtxROIXWhDh4omU4XY9sOPGZhjje\r\nsXE4zsp4ODWfdTg8d3Q4pPJvOPVjhTir2XE4ifR5OMfOaTgtB1w4Rk+FOEi8bDgwgXI4iCyAOA2g\r\nfTgfKGU4QHdjOOHOgDhaAYc4pu6EOBWadzjmnWk4SkyDOBxjfzhHe3M4M4xpOAQ/hzi7bWQ4Uqxv\r\nOIUkgzhRFoA424VdOFN8dDim0lM4FHp4OKQzgjiF5mg4LBRzOFLEgjiF2Fs4wU2EOIAAgTjQMsFA\r\ngd0cQWQXnz8O5wM/TCzNPnsqa0CAwL9Al4xWQI5T9j8Mz9lAyJ7PPi5dDD8uaw9A9vZdQQ/yW0AL\r\n5wU/BIQnP5uPET6L/Yc+hXWBPm3m2z7z3VM/fbWpP//iSkBhkVU/aExIQCfowD8P26Q/VMSQP3LE\r\nN0FyZbdA8ScgQAaMn0DRMB5BsbMiQYOpEEH4yhNA777UP1J9gkBXWf4/R64tPwELSj+0vrI/gIp3\r\nP1BPCkDjnf4+NDdFP6DFxz6hSDZAedo+P0KElT52Sdg/e945P7E4tD8JVZA/0v9XQDzFQ0BPNx5A\r\nETQLQCiKsD8gMgVAjNoGQE/pkUDrQa8/PPBXP2y1cz+RvGc/ZHtOQNu89T8M4z0/4NloP3W81T4q\r\nCYo+CCcmP3QwGkCEusg/nWyPPioMpD7K8sA+ijFvPsJ8/j1W4eE9ZJeoPiplJkDH4to+/fxvPhqB\r\n+z1uTu498KcaPpKggD5BgxI+fgkIP62joz6JCws+cHyhPTIo8D2ckEI+eCNDPh2Itj0lsYY8nClL\r\nPQx3tz3gbQk9DE9jPE4iLj14QtE922oJPbuNBz1QpjI9CPfXPTdphD6pY5U9sHEBPWJsQj1tKIU9\r\nr+QJPcFt9Dy8P3o9GiR6PaP3jj5iihs9r4x1PdwqAj0h3kE9TODOPBoNizw62js9lCWPPaiFlzwE\r\n9K485LUTPZl6QD3n6qM9yucZPSj5Cj3kzTU98zQRPVkqBD0j3gI9FBhDPNob+jwyijE9G6DyPAwR\r\nXT22nNA8BLtEPOWIejyDSLY8QBQUPXh+Aj0D5pE9MFj2PPD/1Txn1lo9MjkSPWo1Ez2vK6082FKE\r\nPNNEizyg1ow8J8hEPJpDBD3C6TI9EKZ9PXrtxD3oeNc8WXclPekGvj10vIk95+L+PCDaUT1bZQo9\r\nXr21PDCBAT3JqYg99ogYPa33Bj2kJZ48/r8rPfYArTwlkpU8YLSDPGkEqDxwz1E8lNF6PLT6rzwm\r\nAws9bbaLPHyHJD0lXMg8jw8QPZK2ljwmzz88BIKbPJG/hDxRpAo9RH85PJr+pjxI42A87uZmPZIE\r\nwzwosFw80QcYPIzd2DuhdTU8fDG1PIfAwT3ULFw9QKhvPNe6ZzyZnss8hKyHPNowGzxLmiM8G3fs\r\nPL0rRjzRmTM8PBDKO20P0Tv0JCw89sRpPJVrVTwvaJo8ZaCdPAdZ7Dudecg76+ZYPJ/xFDzFRyw8\r\nV0x3PDuFDD3Bcus8ECgwPCORjDyPUOE7FBywO30KCzzrBIE857Q3PaX/Cj2beSg81lOFO6TpTjx9\r\nlD08bdPkOxSsCzxX3yU8FiGgO82jhDyLGYM8jU3UPJvr8zv3E488rDX8PNd/MDwpomQ80fEXPEyi\r\nwjzmKSo9bDaoPO760DyEIhw8ZeinO9aVwzuzfxU8eLQ7PCH5nDvyWjo8W7yTPC8s2Du6Vpc79rqD\r\nPKaOjjysVP48EQufPF4zjjujJUI8V9OHO1tYQTxFoIM8tsOCPIjNIDz6gVY8+qgCPKRUjzsqxRs8\r\nktoNPGA2rjw3Ia47V5EkPDe8yTvxPX486euHO5gbgjygJVo8EAqxOyYSgzybvDQ8nnGkO3OoMDzc\r\n0bU83EUuPPNXpzsNXmo71uWmO/82XTsSgGk7ykVeO5b0fDuViBw8yQQ5PPFOgzx6Uo47iwN+O3lO\r\n5jtiw/87vOLKO2XaEjumvA88OtXJPFSmqTzQacY8uTAlPMOYeTsATcw66+lCOwNGUDtUg8U6zf9N\r\nO6c4gTogNZw6EanWOkTGozp8fhU7w7lFOs7b8jmtWRw66n8OOhS4cznKkBU65s6XOd49vzkM1Mo5\r\n60e5OblIkjmk5KM5I1fFOfnKvznMVXU5adqKOQjimzmwO6o5Fp0kOWlGLzk/m4857HWGOUbgZznY\r\nCUU5WS6WOWVZSDkjZlE52iB5OZqTXTkouDo5gZqSOdBaXDnK8ls5oFBxORDVdzkG4Hk59HBjOfg5\r\nSDm4XWM54R10Oe6NWTm8FVs59h9qObFOTDkar1s56BhmOTwbXTk7oFg5Qk1SOfVERzmjhFU5RKRH\r\nOZeURjk0qUM55GFMOUoXRznU8Uk5cs9KOUiyPzndSU054qJAOcqASzlwzDo5EKBGOT44QzmjvjQ5\r\nqlJMOYpHNTlTnUQ5p+o5OQJVRjmIfU85Tpo7OZdtQzmlOUA5as8xOSpgPzma6T45SBI2OUamOjnO\r\nWDs5ERJCOQBnMjk6x0A53sA0OWakLjlQXDc5fqghOZotMTlYKy05L9IvOdZJITnoySM5uO41Oc3W\r\nHTnnkiQ57uwhOaS7LTm8Kys5R6Q5Obj1MTlTISk5SO4nOQ+BLjlyfS05Xn0fOfp/GTnMpxo5KzMU\r\nOZ4ZHTn8aSY5FNYcOX5FIjmu3SE5vrgVOT1LJzmu3xo5H6okOUmKFzntgBo50i0dOTBJETkc/SQ5\r\nxqYROVuxFTn8vBc5yuoeOXzOGDn4DCE51KUkOc9bGzmY+gU5BvoeOblFBzmIFg05A3EQORj0Dzmg\r\nCxA5FjQWOUGvEjnEzRQ5ZdINORrBDjlyexg5ybkLOXZiBTnIZwU5+gwGOXBYFDlCGBo5mlEMOYo3\r\nBDnYOgU59qkAOY4P9ThoRAo5RkH+OIYiEjmyVwc5bvYGOZFiBzlf1QE5sgAGOaq8DjkuNgI5sRD+\r\nOK9r+DgaDOk4YfHiOH7h+Ti3gQk5QpX7OLPH8DhDhug4EsPyOH7/9DioE/A4FDf/OAAK+jhyzes4\r\nJcTtOLqlAjnOx/k4Zn8COURm8DjXz+w4s0joOCdf7zgHt+44ZET7OJpK4zgbWgU5bOTkONCX7DgS\r\n8AQ5JkT6ODBO/zgwPvE4kgkAOfNU+DgMleg4fJT7OJ9N4TiA/+046iXoOJIu7jj7I+I4ADL4OFEV\r\n6Ti7zeg4FwjVOJ3n0DhTMfY4QsrQOPK20zhqgtw4F5bjOPsz+ThFI7s4JjjaODUi1zgKJNc4raq7\r\nOLSr2jgweuc49ULhOCAp4DgcFNE43nnEOI61zziPf9E4Et7kOM284Dh0YMw43j3cOD7u1jgItsg4\r\ntgnYOLJZwDjgFdE4lNLeOJep3zihC8s4tKnMOOFvyjhnDdI4kITbOIw9xDgoRsY4eBHMOMX3zzgJ\r\nj8Y47hvOOE0VujjjesA47CPWOAAe2jgP4MU47LLKONRbszgYWNk4iv7AOFiVsjjYpMY4ogDLOFy2\r\nvDiFwcs4QB3FOIxBxjg+Or04HOHHOPFRwzijKbs4KuW/ODzmwzgCLsM4s2G8OKN9tTjnJsA4wgax\r\nOAhYwTgXt8k4mqfGOJ4WvzjUIs44GlDCOIxXwTj6jcQ4dxXDOPDltzjzlaI4pDK/OBD6rzj4s7s4\r\n+jPEOD3Ltjg+sbc4ysK1OH9SsThaja04nnWyOAChujiuh8A4b+a4OKEZpjgyo7A4V2m5OIovljiX\r\nNKs4PoKzOBRMrDhNErQ4Aj2zOCmFtjhYPag4JkihOMOwtjh92a04dC2lOA0cqDiN0ac4TGKkOOPi\r\npDj4R604+O+yOGSCwDh4y5o4pnmuOPN6nzgKM5c4KEe0OC7kmzixJb04JYqsOE9Brji4tpc4Inyh\r\nOFE3rTikw6Y4suOoOPwtnjiSkaI4khupOCRanjg0X7A4bBagOKG0rTjUVaQ4tLmdOOrekzjqVas4\r\npmajOAGAnDhC8a84vaCPOAMBnjhI8qg4/42bONJ1mThgdKI4QCaqODTSrDgWmKo44GOcOCaXsThq\r\nsqA41nKYOAgyqDjCOqs4aSefOGO0ozjpLpE49iumOJ2Sljjor5g4ZcubOCkmrTgrApc4ARybOFRT\r\nkTggl6U4ZIeROPIhoDjXyJI44OKfOLwJkzg7h6Q4SW2UOLVrkjg2SZE4qyuiOHIjjDhTapc4CICp\r\nOBquozi7I4g4hfWYOIxsoTioRpA4WVSZOMYWnTjdTqA4oBiTOCRunDhim6Y4/pKEOGNllziZH504\r\n8MOLONeCnTgedok4LXaYOIZKhjhUwq04Rx+aONjDlDhEqI44vTSMONv+hTi4qYI4RNedOL1pjTi+\r\nOp048SqnOLYqojgPOKE4ljKSOILvgjh/nZc4yy2SOJe0jjgZO4k4/s6IOBjJnDinboM4W/OZOE3q\r\nijig75k4AEuTOL/rizhuzIE4/cByOEtGnDhf3pU4YsCMOPl8izhhQJY4P0iPODulozi8+IY4RY+C\r\nOCGviThar5E4IsyOOOuPiTiKwoo4WmeOOIctjjiXC4s4ibqDOKh6eDhaC4c4PfKJOA7XizhYm344\r\nHIWiOGwzgzjYdo04a1ekOMnxgziCTYs4AauFOIXcazghLow4IleTOKOpjzhRh4I4QNyGOIhDlDgz\r\nKI84/3SSOClpnTi4yI44dBqPOJN9mjgzfIc4FkyNOLRchTiO84s49ct8ONoQZzjbbY84RoV3OLOq\r\nhTi9N4M4PIaXOEHGmzgOfYw4ZjCKOEHeizgIL4s46RFyOCFwfTh2I2s4dfWJOAbjiTh7n4Q4buxy\r\nOO98gDgDFJA4xlWCOC1sgDhoXYk4TceLOJKjkDjAsYQ4nA+PONXIgTjiC404Yq54OHGDjDgUC3k4\r\nuZWAOGDphjhcAmU4/72LOD0lgjgK2Is4IgaIOMCIgjgTnns4f2eDOPe8bThkgH04dA2DOBQNdjje\r\nRoA4qxaHOP81hTgQyXE44GaGOJR6gTgHM4g4kBuJOLkjbTg3S3E4806HOCi/gDh2LYA4mv6LONwC\r\ndzjhZ4M4DK1fOM5hgThTlWA4hluGONazfzgDBHs4tS5jOMq0gThKu4w4hvR7OK62fjjEGIk4vi+N\r\nOI70gDjJ1YI4sqKPOEZgbDjg/Y04R+F0OKS2aDhlFJA4WAFqOP/XZDhxS444RVpsOA3XdDjy+HU4\r\nHdtqODRvZjhRJWA4CGuDONP0fjhD9Xg4DCpnOJI/gjgyUpA4q+5TOEEkYzgxjY04uSFhOP9YgTgm\r\n3WQ4Io1hOO9VeDi9woM4tqByODnxaDiYlnI4jcB/OOgAdjh+CXI4ZnJqOBtRXjjbyH04ZIeBOBJc\r\neDjr0n84w8qJODaggDgNunM4wrSCOIzXfDi6YoI4fQZiOK4aYTju5YE4BZVfOKiLXDhUY3g45N11\r\nOH9OajgFuGc41pl6OA5sZjiGP0k4rw9iOH/3dzgTG4k4n5JeOIlEaTjJeIU4rxWCOB0xZDhmMYE4\r\nm7aCOG2VczhKIl04RaVnOEDgdTgwiGw4n8SAOGjUdTgyAWA4kpqIOO1peTi5pnQ4tdF+OPV3jTjZ\r\nKGk4hzlkOFNyhTi6WXY43e94OLBEbjizQ2E4uIRqOE0VbTgZ2HU4G3J8OHnFZTgk0GY4RBKCODBr\r\niDhzjHc4lbN5OGojeTi034E4/Ex5ODuueziHQ4c4HQ53OKqzizixomw4ufWKOMi+eDif72w48/SB\r\nODxGcTjj0F04yoNoOMQWZji4q3w4UtdzOMeXgjjTx4Q4OkBrONP1dzj4nHA4ADKKOA==",
                            "noiseTrainingType" : "default"
                          }
                        }
                    ],
                    "start" : 22229,
                    "duration" : 28,
                    "mediaStart" : 10411,
                    "mediaDuration" : 28,
                    "scalar" : 1,
                    "metadata" : {
                      "WinSubProjectDisplayName" : "",
                      "clipSpeedAttribute" : false
                    },
                    "animationTracks" : {

                    }
                  },
                  {
                    "id" : 332,
                    "_type" : "StitchedMedia",
                    "minMediaStart" : 0,
                    "attributes" : {
                      "ident" : "tower-05",
                      "gain" : 1.0,
                      "mixToMono" : false
                    },
                    "parameters" : {
                      "volume" : {
                        "type" : "double",
                        "keyframes" : [
                          {
                            "endTime" : 0,
                            "time" : 0,
                            "value" : 1.0,
                            "duration" : 0
                          },
                          {
                            "endTime" : 10335,
                            "time" : 10335,
                            "value" : 1.0,
                            "duration" : 0
                          }
                        ]
                      },
                      "cursorOpacity" : 1.0,
                      "cursorScale" : 1.0
                    },
                    "medias" : [
                        {
                          "id" : 333,
                          "_type" : "AMFile",
                          "src" : 5,
                          "trackNumber" : 1,
                          "attributes" : {
                            "ident" : "",
                            "sampleRate" : 44100,
                            "bitDepth" : 16,
                            "gain" : 1.0,
                            "mixToMono" : false
                          },
                            "channelNumber" : "0,1",
                          "effects" : [

                          ],
                          "start" : 0,
                          "duration" : 1383,
                          "mediaStart" : 0,
                          "mediaDuration" : 1383,
                          "scalar" : 1,
                          "metadata" : {
                            "WinSubProjectDisplayName" : ""
                          },
                          "animationTracks" : {

                          }
                        },
                        {
                          "id" : 334,
                          "_type" : "AMFile",
                          "src" : 5,
                          "trackNumber" : 1,
                          "attributes" : {
                            "ident" : "",
                            "sampleRate" : 44100,
                            "bitDepth" : 16,
                            "gain" : 1.0,
                            "mixToMono" : false
                          },
                            "channelNumber" : "0,1",
                          "effects" : [

                          ],
                          "start" : 1383,
                          "duration" : 2726,
                          "mediaStart" : 1406,
                          "mediaDuration" : 2726,
                          "scalar" : 1,
                          "metadata" : {
                            "WinSubProjectDisplayName" : ""
                          },
                          "animationTracks" : {

                          }
                        },
                        {
                          "id" : 335,
                          "_type" : "AMFile",
                          "src" : 5,
                          "trackNumber" : 1,
                          "attributes" : {
                            "ident" : "",
                            "sampleRate" : 44100,
                            "bitDepth" : 16,
                            "gain" : 1.0,
                            "mixToMono" : false
                          },
                            "channelNumber" : "0,1",
                          "effects" : [

                          ],
                          "start" : 4109,
                          "duration" : 424,
                          "mediaStart" : 4173,
                          "mediaDuration" : 424,
                          "scalar" : 1,
                          "metadata" : {
                            "WinSubProjectDisplayName" : ""
                          },
                          "animationTracks" : {

                          }
                        },
                        {
                          "id" : 336,
                          "_type" : "AMFile",
                          "src" : 5,
                          "trackNumber" : 1,
                          "attributes" : {
                            "ident" : "",
                            "sampleRate" : 44100,
                            "bitDepth" : 16,
                            "gain" : 1.0,
                            "mixToMono" : false
                          },
                            "channelNumber" : "0,1",
                          "effects" : [

                          ],
                          "start" : 4533,
                          "duration" : 139,
                          "mediaStart" : 4741,
                          "mediaDuration" : 139,
                          "scalar" : 1,
                          "metadata" : {
                            "WinSubProjectDisplayName" : ""
                          },
                          "animationTracks" : {

                          }
                        },
                        {
                          "id" : 337,
                          "_type" : "AMFile",
                          "src" : 5,
                          "trackNumber" : 1,
                          "attributes" : {
                            "ident" : "",
                            "sampleRate" : 44100,
                            "bitDepth" : 16,
                            "gain" : 1.0,
                            "mixToMono" : false
                          },
                            "channelNumber" : "0,1",
                          "effects" : [

                          ],
                          "start" : 4672,
                          "duration" : 212,
                          "mediaStart" : 5022,
                          "mediaDuration" : 212,
                          "scalar" : 1,
                          "metadata" : {
                            "WinSubProjectDisplayName" : ""
                          },
                          "animationTracks" : {

                          }
                        },
                        {
                          "id" : 338,
                          "_type" : "AMFile",
                          "src" : 5,
                          "trackNumber" : 1,
                          "attributes" : {
                            "ident" : "",
                            "sampleRate" : 44100,
                            "bitDepth" : 16,
                            "gain" : 1.0,
                            "mixToMono" : false
                          },
                            "channelNumber" : "0,1",
                          "effects" : [

                          ],
                          "start" : 4884,
                          "duration" : 634,
                          "mediaStart" : 5243,
                          "mediaDuration" : 634,
                          "scalar" : 1,
                          "metadata" : {
                            "WinSubProjectDisplayName" : ""
                          },
                          "animationTracks" : {

                          }
                        },
                        {
                          "id" : 339,
                          "_type" : "AMFile",
                          "src" : 5,
                          "trackNumber" : 1,
                          "attributes" : {
                            "ident" : "",
                            "sampleRate" : 44100,
                            "bitDepth" : 16,
                            "gain" : 1.0,
                            "mixToMono" : false
                          },
                            "channelNumber" : "0,1",
                          "effects" : [

                          ],
                          "start" : 5518,
                          "duration" : 3511,
                          "mediaStart" : 5894,
                          "mediaDuration" : 3511,
                          "scalar" : 1,
                          "metadata" : {
                            "WinSubProjectDisplayName" : ""
                          },
                          "animationTracks" : {

                          }
                        },
                        {
                          "id" : 340,
                          "_type" : "AMFile",
                          "src" : 5,
                          "trackNumber" : 1,
                          "attributes" : {
                            "ident" : "",
                            "sampleRate" : 44100,
                            "bitDepth" : 16,
                            "gain" : 1.0,
                            "mixToMono" : false
                          },
                            "channelNumber" : "0,1",
                          "effects" : [

                          ],
                          "start" : 9029,
                          "duration" : 45,
                          "mediaStart" : 9418,
                          "mediaDuration" : 45,
                          "scalar" : 1,
                          "metadata" : {
                            "WinSubProjectDisplayName" : ""
                          },
                          "animationTracks" : {

                          }
                        },
                        {
                          "id" : 341,
                          "_type" : "AMFile",
                          "src" : 5,
                          "trackNumber" : 1,
                          "attributes" : {
                            "ident" : "",
                            "sampleRate" : 44100,
                            "bitDepth" : 16,
                            "gain" : 1.0,
                            "mixToMono" : false
                          },
                            "channelNumber" : "0,1",
                          "effects" : [

                          ],
                          "start" : 9074,
                          "duration" : 90,
                          "mediaStart" : 9508,
                          "mediaDuration" : 90,
                          "scalar" : 1,
                          "metadata" : {
                            "WinSubProjectDisplayName" : ""
                          },
                          "animationTracks" : {

                          }
                        },
                        {
                          "id" : 342,
                          "_type" : "AMFile",
                          "src" : 5,
                          "trackNumber" : 1,
                          "attributes" : {
                            "ident" : "",
                            "sampleRate" : 44100,
                            "bitDepth" : 16,
                            "gain" : 1.0,
                            "mixToMono" : false
                          },
                            "channelNumber" : "0,1",
                          "effects" : [

                          ],
                          "start" : 9164,
                          "duration" : 6190,
                          "mediaStart" : 9606,
                          "mediaDuration" : 6190,
                          "scalar" : 1,
                          "metadata" : {
                            "WinSubProjectDisplayName" : ""
                          },
                          "animationTracks" : {

                          }
                        }
                    ],
                    "effects" : [
                        {
                          "effectName" : "NoiseReduction",
                          "category" : "categoryAudioEffects",
                          "parameters" : {
                            "denoiserAmount" : 20.0,
                            "denoiserThreshold" : 0.0,
                            "noiseProfile" : "0DLBQIHdHEFkF58/DucDP0ozzT57KmtAgMC/QJeMVkBqXPY/DM/ZQMiezz4uXQw/LmsPQAr6XUGb\r\n61tADcoFP5xdJz9feBE+k96HPoV1gT5t5ts+891TP321qT//4kpAYZFVP/Y5SEBV+cA/y9mkP1TE\r\nkD/IwDdBlGu3QPEnIECKjZ9A9zQeQR6sIkGDqRBB+MoTQPG91D8HiIJAV1n+P6aiLT8BC0o/tL6y\r\nP4CKdz+TTwpAgu3+PkNWRT+gxcc+oUg2QHnaPj+xh5U+dknYPzLVOT+xOLQ/CVWQP9L/V0A8xUNA\r\nPD0eQBE0C0C2arA/IDIFQIzaBkBP6ZFAYESvPzzwVz9stXM/LdNnP2R7TkDbvPU/3LQ9P2b3aD9/\r\nmdU+KgmKPggnJj9cFxpA+r7IP2xSjz7uI6Q+OPvAPooxbz7i1P49VuHhPVCFqD7keyZAx+LaPlz+\r\nbz6Fdvs9U1juPU5/Gj4RaoA+nEsSPn4JCD++RKM+d6QKPnB8oT0yKPA9nJBCPngjQz6ubLY9ileG\r\nPPKgSj1Jxbc94G0JPQxPYzwmXi092efQPdtqCT27jQc9Ky4yPXjt1z3+Y4Q+qWOVPRtdAT1ibEI9\r\nbSiFPa/kCT29bPQ8t1R6PWIuej338o4+YoobPVYHdT3irwI9Id5BPVQizzyal4o8Oto7PZQljz3V\r\nVZc8BPSuPOS1Ez1OsUA95umjPcrnGT0o+Qo95M01PRHiED31CgU9I94CPbQJQzzaG/o8ONkxPUKJ\r\n8zwMEV09eMDQPBrVQjzliHo8g0i2PEAUFD0MYwI9A+aRPWZo9jznDdY8L6VbPTI5Ej1qNRM9D5qt\r\nPNhShDzTRIs8oNaMPNNNRDzbawQ9wukyPRCmfT167cQ96HjXPFl3JT3pBr49dLyJPefi/jwg2lE9\r\nW2UKPV69tTzDfAA979SIPfaIGD2t9wY9pCWePJvaKz0PsKs81p2VPJCygzwfY6g8aMFRPDbiejy0\r\niq88JgMLPW22izx8hyQ9JVzIPEIyED0kHZc8kANAPASCmzyRv4Q8UaQKPaDdOTya/qY8SONgPO7m\r\nZj2SBMM8St5bPMcEFzySSNo7oXU1PIkPtTyHwME91CxcPbHibzzXumc8mZ7LPISshzzP8xs82rQj\r\nPBt37Dy9K0Y82igzPCOeyjttD9E7ffAqPBVpajyVa1U8L2iaPGWgnTwHWew7nXnIO3F0WTyf8RQ8\r\ncJ4rPFdMdzys2Qw9uZnrPBAoMDwjkYw8ZSrhO/YQrTvamQo86wSBPOe0Nz2l/wo9m3koPNV4hTsy\r\nH088fZQ9PLqm5Du70Qw8V98lPJuToDvGLYU81seCPI1N1DxMYPM79xOPPKw1/DzXfzA8KaJkPNHx\r\nFzwUl8M85ikqPTntpzzko9A8hCIcPGXopzvWlcM7H2AVPHi0OzybEZ47v2A6PPGfkzwEStg7ulaX\r\nO9ozhDymjo48xoL+PBELnzy7Co07q9xBPFfThzsPfUE8RaCDPL6FgjyIzSA8+oFWPLHJAjykVI87\r\nKsUbPJLaDTxgNq48I8asO1eRJDw3iso7flx+PNXbiDv0r4E8oCVaPBAKsTue9oE8wyc0PCIKpTtz\r\nqDA83NG1PNxFLjyyaac7A/NoOy3vpjs2ul87YvhsO+SNXzu82Hw78QEcPMkEOTxIsoM8elKOO4sD\r\nfjuwZ+Y7Fkz/O5JKyztCihU7prwPPDrVyTx0Bao80GnGPLkwJTzykXg7AE3MOuvpQjuwUVA7VIPF\r\nOsqWTjskaoE6vVaZOj+m0DpDQJ86vAAXOxrIRjrO2/I5rVkcOjy2DjoUuHM5HikWOgDpmzk2qrg5\r\nDNTKOQuAwTlKYZA5RZqnOcC+vjl6IMI5trduOaJGkTnid6E5QBqnOWXiHTk5Q0I5GJ2SOReokDmO\r\nrVE5spNOOYKTcznOllU5MAVuOWJaXTnR5VU5SgdqOcFKizm96m059pCAOWJxbzk2i2g5duKBOeQ3\r\nQznIUHc5w6hdOXh0RTkpQXg52sxvOSZKdzlqc2Q52JF4OUQXXjnwr1A5pItXOeI4Pzn1C3E5WM1V\r\nOUJGNTn2vE85yJNLOZZxQjmEDlI5hVJROWh6RTms10M5uQ88ObaQPTkQxUw5XUc2OedjPznSh0k5\r\n+jsyOdz8RDlbkS85BqlKOcVYQDnqsko5sm5DOeajPDlcFzc5MME0Ob87Lznq5Tg5nu43OY6rODmo\r\nKzk5HGw4OVduRTkqpDU5g8ssOY0ELTnQrDg5iNQzObkKJTlGsi05NnwuOaIULTn83zI5T3YkOTIj\r\nMTlKuyI5NOIeOYqlHDmukjU5Xs8kOaCrNDk7jDI5q8AoObeyLDnq/yY53uMlOUm3HDm0wR45ki8b\r\nOdfnFjkorCE5xLUeOZwEJDlw8CE5DNMhORyQFTnach05/zwgOfPAFDnqFho5guUjOVjtHjlo1Q05\r\nWjgaOWIAFDnmZgo5QxMSOYPdJDmTFRY5tH8WOWYODzl8Hg85Tw0ROU4qEjl+ShA5COIHOSWGCTmV\r\nBRM5JNMUOUSVCTkFiQ45Cs4OOYIeCznAxQk5JI0POa5CDzlWqw45JesQOQxZCDm89xw59qMSOfIK\r\nDDnLmgc5N33+OKKnCTkevvo4Sf8GOYQpDDmV2ws5NKgKOe7XBTk8ogg5n0kFOS55BDnY2wk5D0IE\r\nOSNFATnVZgU5fCf+OGi+9jiYhQQ5IzEBOdCV9jiuDQY5Eq/pOE6W8jhG3uk4WiP+OMD8BjmAgPE4\r\ncTHqOOTE9TjRUvA4KEj5OGp+Ajl8XOQ4WyPnOP5b+DgiSfE4OFzrOF1rATmsceI4O9YDObiw9ThT\r\nhfU4s1DzOGcR/Timm+o4rIj/OOH/9jinhPA44urWOGrn9jiWSfI4NuL3OIIPzji1Les4sB7dOKxP\r\n+ThAE+o4QJjdOERe8Tiwe8U42mTmOGIJ1TjJDt84UEXhOLyD2zjEfu04dezVOK033DgOZcQ4jyTb\r\nOIq+4jgC/tw4zmLjODrj1jhCyNc4A+fKOFyBzjgEBdU49TfcOFdG4DhqGMM4HFvQOG6UzTh4I9I4\r\nARbWOMaOzTiMYsA4ltfjOPeswjiGCNs4GgHeOJ5pzThMAs44k6fVOCASwzhJnMY4TAzSOJJY1TjG\r\nLdY4ykrWODJBwTin0ME4l5i7OBnWuDjgOb444d3FOEKqzDg+Vso4rAbOOM7Xyjg82rk4hLvHOEpz\r\nwDh8PMM4jRzIOBR0xThVMsE4Qtq/OA6HuTg0qs44ryi6OCLexziHKcM4nKDJOMFtuTjYVbY4rX3H\r\nOOb0wTg82sg4uu3FOII0wDg1eLw40XHAONnQxzimObg45yDBOJs1zTiVO7g4rPKzOK4GwjhaZb04\r\nO/y9OI5CwjgcKLE4mSfFOGe2pzjogb44gNC1OCb1tDiVq6848HW8OJmhvzg4Hrs406OmOIQDqTjl\r\nrZo4gvalOM66qDhr47M4+UG8OAXXsjjCSsI4VgqpOGVuoTh8ksk4HBeuOI4fszh0AKw4jTGxOEEl\r\npThziKw4Hn+iOLvBrjgPkrs40jqnOMNOrzhQI6I4FniVOOgcsDj0Apw4lq+vOIgArzgaZbM4HLOi\r\nOFcYpDjGmqc4CMKiOPHJmziPnKA44IWmOCqJnDh6z604uWauOGHYsTiGs5c4CGSVOMYEnTh+Pak4\r\nGJKYOIeeoDiKbJs4EDueONWooziPJ6o4YdaqOOjPkDgRZZ446qSyOGAxmjgD9qE44dOeOJpqmDgk\r\npq44yQSoOPw0lzjCyak4pEmiOIF3qzgbJ5s4/BygOKtfpzgYtJ04aZWZOHxGmDi0VLI4PGaXOISm\r\niThAw5o4yGioOLCDjzhEXJ44mnyeOFC6pDhu6Js486ikOM/XmTiVppk4XmuaOBLClzjFmIY4wk+O\r\nOBgApDh1/aA4YlWfOHRwpTjmlJg4XrKMODoFizgy5KM4bvSfOAr9jThHIJ04mZWZOIXKZzhw0Is4\r\n0+KiOIIqijgwlZM4GlaCOGGapTj1L5E4NjqeOI5JjTgGr5k4VBmDOJuOjDjCrZk4ckmBOGfPlziT\r\nuZM4Rm2AOGcMqzgKt544ZmyNOOLNkDg5DI44/paNOLm5jjh7eJE4jYyOOE0giTg40aQ4B3aIOMjE\r\nmDhNDYM4PGSGODkomDiW1Jo4CH2GOFL9kDht7oQ442uMOGtAjDi5Uow4ArOfOJGCiTh4C54485qI\r\nOCcPbDhnK5Y4HzqUOEiziTgqAoY48VeNOKmBjTiAcZI4fguHONQPjjiC2IU40PuNOEJfijhFKGw4\r\nHKyCOD7jkzgREYM4PC6GODFVizj2NIQ4ni2HOAxEiDh+UIA41i98OBK/gDjyjpI4EweJOOCEgzj+\r\nopQ4YHaPONCKmDhoKJo4Fn9yOHbgmTg6r5A44i2HOFcejji/o4o46nKVOH7Xjzhxu344/JWEOE1c\r\neThqs4o4nv+GODmFmzj9v5E4CU2WOAGEezizgog44S+UOJbNhzjCNHs4AFV/OPHehDiaUHM4iPyR\r\nOKRrbjhFU4w4I3GYOCHrjTho2ZE4PwOPOD5ZiDiDfI44qqKPOL2iizgseIk4HkCLOIUufDi9T4c4\r\n/35sOLcUkzh8+Ig40hRhONTpijj3uGw4C0SQOEJBgziJrYM4ubNvOG3WhThmP484dUh6OAAoeTg5\r\nIno42J6IOPgLgzh/OYc4fyllOKXjhjhsxFU4wcKROPv0ijhLy3U4dc9/OH5DaDgmfYk4RXmCOM8V\r\ndzhAJHw4m6eBOF0Rbzg2AH84T1h8OJMfczinC5A4AlaMOOLfRjiDMoQ4X4+CODh5hjhIw484eA6B\r\nOA1CkDiu1Y049r2NOLfUfjiIMoA4KGeNOJLFaDgZ0mc4FJ6AODT4VThtQ1c4EJaJOKAobziEUYU4\r\nTDh7OH5ocDiYKmA4SupvOKJuczg0kow4/997OBccbjh5KXg4odyJOF/ZbDjE6Xo4MaR2OFP4aDh9\r\n3II4DglgOIhHYTgG31845X9/ODqzXjjgGm04Hsp0OONMeThtroU4NfZ1ONTTdTj0Elk4fYeCOGfb\r\ngDht7m44ha9zOOYXgDi/nYE4JGWAOJRMcTijSYk4fhqNODcWYzjOfXI4bhxrONa7eTgcP184Xit9\r\nOHXEbTg1PFo43jNlONpLZjiCA4U4m2FYOB0WfDguqWQ4yZ6KOAonfDjI3Wc4NNhiOADlhjgc7l84\r\n2cuAONqyazisAYA4DGJ7OFk2fjgj/Ws4CzWBODZiczgdGoY4GtxROIXWhDh4omU4XY9sOPGZhjje\r\nsXE4zsp4ODWfdTg8d3Q4pPJvOPVjhTir2XE4ifR5OMfOaTgtB1w4Rk+FOEi8bDgwgXI4iCyAOA2g\r\nfTgfKGU4QHdjOOHOgDhaAYc4pu6EOBWadzjmnWk4SkyDOBxjfzhHe3M4M4xpOAQ/hzi7bWQ4Uqxv\r\nOIUkgzhRFoA424VdOFN8dDim0lM4FHp4OKQzgjiF5mg4LBRzOFLEgjiF2Fs4wU2EOIAAgTjQMsFA\r\ngd0cQWQXnz8O5wM/TCzNPnsqa0CAwL9Al4xWQI5T9j8Mz9lAyJ7PPi5dDD8uaw9A9vZdQQ/yW0AL\r\n5wU/BIQnP5uPET6L/Yc+hXWBPm3m2z7z3VM/fbWpP//iSkBhkVU/aExIQCfowD8P26Q/VMSQP3LE\r\nN0FyZbdA8ScgQAaMn0DRMB5BsbMiQYOpEEH4yhNA777UP1J9gkBXWf4/R64tPwELSj+0vrI/gIp3\r\nP1BPCkDjnf4+NDdFP6DFxz6hSDZAedo+P0KElT52Sdg/e945P7E4tD8JVZA/0v9XQDzFQ0BPNx5A\r\nETQLQCiKsD8gMgVAjNoGQE/pkUDrQa8/PPBXP2y1cz+RvGc/ZHtOQNu89T8M4z0/4NloP3W81T4q\r\nCYo+CCcmP3QwGkCEusg/nWyPPioMpD7K8sA+ijFvPsJ8/j1W4eE9ZJeoPiplJkDH4to+/fxvPhqB\r\n+z1uTu498KcaPpKggD5BgxI+fgkIP62joz6JCws+cHyhPTIo8D2ckEI+eCNDPh2Itj0lsYY8nClL\r\nPQx3tz3gbQk9DE9jPE4iLj14QtE922oJPbuNBz1QpjI9CPfXPTdphD6pY5U9sHEBPWJsQj1tKIU9\r\nr+QJPcFt9Dy8P3o9GiR6PaP3jj5iihs9r4x1PdwqAj0h3kE9TODOPBoNizw62js9lCWPPaiFlzwE\r\n9K485LUTPZl6QD3n6qM9yucZPSj5Cj3kzTU98zQRPVkqBD0j3gI9FBhDPNob+jwyijE9G6DyPAwR\r\nXT22nNA8BLtEPOWIejyDSLY8QBQUPXh+Aj0D5pE9MFj2PPD/1Txn1lo9MjkSPWo1Ez2vK6082FKE\r\nPNNEizyg1ow8J8hEPJpDBD3C6TI9EKZ9PXrtxD3oeNc8WXclPekGvj10vIk95+L+PCDaUT1bZQo9\r\nXr21PDCBAT3JqYg99ogYPa33Bj2kJZ48/r8rPfYArTwlkpU8YLSDPGkEqDxwz1E8lNF6PLT6rzwm\r\nAws9bbaLPHyHJD0lXMg8jw8QPZK2ljwmzz88BIKbPJG/hDxRpAo9RH85PJr+pjxI42A87uZmPZIE\r\nwzwosFw80QcYPIzd2DuhdTU8fDG1PIfAwT3ULFw9QKhvPNe6ZzyZnss8hKyHPNowGzxLmiM8G3fs\r\nPL0rRjzRmTM8PBDKO20P0Tv0JCw89sRpPJVrVTwvaJo8ZaCdPAdZ7Dudecg76+ZYPJ/xFDzFRyw8\r\nV0x3PDuFDD3Bcus8ECgwPCORjDyPUOE7FBywO30KCzzrBIE857Q3PaX/Cj2beSg81lOFO6TpTjx9\r\nlD08bdPkOxSsCzxX3yU8FiGgO82jhDyLGYM8jU3UPJvr8zv3E488rDX8PNd/MDwpomQ80fEXPEyi\r\nwjzmKSo9bDaoPO760DyEIhw8ZeinO9aVwzuzfxU8eLQ7PCH5nDvyWjo8W7yTPC8s2Du6Vpc79rqD\r\nPKaOjjysVP48EQufPF4zjjujJUI8V9OHO1tYQTxFoIM8tsOCPIjNIDz6gVY8+qgCPKRUjzsqxRs8\r\nktoNPGA2rjw3Ia47V5EkPDe8yTvxPX486euHO5gbgjygJVo8EAqxOyYSgzybvDQ8nnGkO3OoMDzc\r\n0bU83EUuPPNXpzsNXmo71uWmO/82XTsSgGk7ykVeO5b0fDuViBw8yQQ5PPFOgzx6Uo47iwN+O3lO\r\n5jtiw/87vOLKO2XaEjumvA88OtXJPFSmqTzQacY8uTAlPMOYeTsATcw66+lCOwNGUDtUg8U6zf9N\r\nO6c4gTogNZw6EanWOkTGozp8fhU7w7lFOs7b8jmtWRw66n8OOhS4cznKkBU65s6XOd49vzkM1Mo5\r\n60e5OblIkjmk5KM5I1fFOfnKvznMVXU5adqKOQjimzmwO6o5Fp0kOWlGLzk/m4857HWGOUbgZznY\r\nCUU5WS6WOWVZSDkjZlE52iB5OZqTXTkouDo5gZqSOdBaXDnK8ls5oFBxORDVdzkG4Hk59HBjOfg5\r\nSDm4XWM54R10Oe6NWTm8FVs59h9qObFOTDkar1s56BhmOTwbXTk7oFg5Qk1SOfVERzmjhFU5RKRH\r\nOZeURjk0qUM55GFMOUoXRznU8Uk5cs9KOUiyPzndSU054qJAOcqASzlwzDo5EKBGOT44QzmjvjQ5\r\nqlJMOYpHNTlTnUQ5p+o5OQJVRjmIfU85Tpo7OZdtQzmlOUA5as8xOSpgPzma6T45SBI2OUamOjnO\r\nWDs5ERJCOQBnMjk6x0A53sA0OWakLjlQXDc5fqghOZotMTlYKy05L9IvOdZJITnoySM5uO41Oc3W\r\nHTnnkiQ57uwhOaS7LTm8Kys5R6Q5Obj1MTlTISk5SO4nOQ+BLjlyfS05Xn0fOfp/GTnMpxo5KzMU\r\nOZ4ZHTn8aSY5FNYcOX5FIjmu3SE5vrgVOT1LJzmu3xo5H6okOUmKFzntgBo50i0dOTBJETkc/SQ5\r\nxqYROVuxFTn8vBc5yuoeOXzOGDn4DCE51KUkOc9bGzmY+gU5BvoeOblFBzmIFg05A3EQORj0Dzmg\r\nCxA5FjQWOUGvEjnEzRQ5ZdINORrBDjlyexg5ybkLOXZiBTnIZwU5+gwGOXBYFDlCGBo5mlEMOYo3\r\nBDnYOgU59qkAOY4P9ThoRAo5RkH+OIYiEjmyVwc5bvYGOZFiBzlf1QE5sgAGOaq8DjkuNgI5sRD+\r\nOK9r+DgaDOk4YfHiOH7h+Ti3gQk5QpX7OLPH8DhDhug4EsPyOH7/9DioE/A4FDf/OAAK+jhyzes4\r\nJcTtOLqlAjnOx/k4Zn8COURm8DjXz+w4s0joOCdf7zgHt+44ZET7OJpK4zgbWgU5bOTkONCX7DgS\r\n8AQ5JkT6ODBO/zgwPvE4kgkAOfNU+DgMleg4fJT7OJ9N4TiA/+046iXoOJIu7jj7I+I4ADL4OFEV\r\n6Ti7zeg4FwjVOJ3n0DhTMfY4QsrQOPK20zhqgtw4F5bjOPsz+ThFI7s4JjjaODUi1zgKJNc4raq7\r\nOLSr2jgweuc49ULhOCAp4DgcFNE43nnEOI61zziPf9E4Et7kOM284Dh0YMw43j3cOD7u1jgItsg4\r\ntgnYOLJZwDjgFdE4lNLeOJep3zihC8s4tKnMOOFvyjhnDdI4kITbOIw9xDgoRsY4eBHMOMX3zzgJ\r\nj8Y47hvOOE0VujjjesA47CPWOAAe2jgP4MU47LLKONRbszgYWNk4iv7AOFiVsjjYpMY4ogDLOFy2\r\nvDiFwcs4QB3FOIxBxjg+Or04HOHHOPFRwzijKbs4KuW/ODzmwzgCLsM4s2G8OKN9tTjnJsA4wgax\r\nOAhYwTgXt8k4mqfGOJ4WvzjUIs44GlDCOIxXwTj6jcQ4dxXDOPDltzjzlaI4pDK/OBD6rzj4s7s4\r\n+jPEOD3Ltjg+sbc4ysK1OH9SsThaja04nnWyOAChujiuh8A4b+a4OKEZpjgyo7A4V2m5OIovljiX\r\nNKs4PoKzOBRMrDhNErQ4Aj2zOCmFtjhYPag4JkihOMOwtjh92a04dC2lOA0cqDiN0ac4TGKkOOPi\r\npDj4R604+O+yOGSCwDh4y5o4pnmuOPN6nzgKM5c4KEe0OC7kmzixJb04JYqsOE9Brji4tpc4Inyh\r\nOFE3rTikw6Y4suOoOPwtnjiSkaI4khupOCRanjg0X7A4bBagOKG0rTjUVaQ4tLmdOOrekzjqVas4\r\npmajOAGAnDhC8a84vaCPOAMBnjhI8qg4/42bONJ1mThgdKI4QCaqODTSrDgWmKo44GOcOCaXsThq\r\nsqA41nKYOAgyqDjCOqs4aSefOGO0ozjpLpE49iumOJ2Sljjor5g4ZcubOCkmrTgrApc4ARybOFRT\r\nkTggl6U4ZIeROPIhoDjXyJI44OKfOLwJkzg7h6Q4SW2UOLVrkjg2SZE4qyuiOHIjjDhTapc4CICp\r\nOBquozi7I4g4hfWYOIxsoTioRpA4WVSZOMYWnTjdTqA4oBiTOCRunDhim6Y4/pKEOGNllziZH504\r\n8MOLONeCnTgedok4LXaYOIZKhjhUwq04Rx+aONjDlDhEqI44vTSMONv+hTi4qYI4RNedOL1pjTi+\r\nOp048SqnOLYqojgPOKE4ljKSOILvgjh/nZc4yy2SOJe0jjgZO4k4/s6IOBjJnDinboM4W/OZOE3q\r\nijig75k4AEuTOL/rizhuzIE4/cByOEtGnDhf3pU4YsCMOPl8izhhQJY4P0iPODulozi8+IY4RY+C\r\nOCGviThar5E4IsyOOOuPiTiKwoo4WmeOOIctjjiXC4s4ibqDOKh6eDhaC4c4PfKJOA7XizhYm344\r\nHIWiOGwzgzjYdo04a1ekOMnxgziCTYs4AauFOIXcazghLow4IleTOKOpjzhRh4I4QNyGOIhDlDgz\r\nKI84/3SSOClpnTi4yI44dBqPOJN9mjgzfIc4FkyNOLRchTiO84s49ct8ONoQZzjbbY84RoV3OLOq\r\nhTi9N4M4PIaXOEHGmzgOfYw4ZjCKOEHeizgIL4s46RFyOCFwfTh2I2s4dfWJOAbjiTh7n4Q4buxy\r\nOO98gDgDFJA4xlWCOC1sgDhoXYk4TceLOJKjkDjAsYQ4nA+PONXIgTjiC404Yq54OHGDjDgUC3k4\r\nuZWAOGDphjhcAmU4/72LOD0lgjgK2Is4IgaIOMCIgjgTnns4f2eDOPe8bThkgH04dA2DOBQNdjje\r\nRoA4qxaHOP81hTgQyXE44GaGOJR6gTgHM4g4kBuJOLkjbTg3S3E4806HOCi/gDh2LYA4mv6LONwC\r\ndzjhZ4M4DK1fOM5hgThTlWA4hluGONazfzgDBHs4tS5jOMq0gThKu4w4hvR7OK62fjjEGIk4vi+N\r\nOI70gDjJ1YI4sqKPOEZgbDjg/Y04R+F0OKS2aDhlFJA4WAFqOP/XZDhxS444RVpsOA3XdDjy+HU4\r\nHdtqODRvZjhRJWA4CGuDONP0fjhD9Xg4DCpnOJI/gjgyUpA4q+5TOEEkYzgxjY04uSFhOP9YgTgm\r\n3WQ4Io1hOO9VeDi9woM4tqByODnxaDiYlnI4jcB/OOgAdjh+CXI4ZnJqOBtRXjjbyH04ZIeBOBJc\r\neDjr0n84w8qJODaggDgNunM4wrSCOIzXfDi6YoI4fQZiOK4aYTju5YE4BZVfOKiLXDhUY3g45N11\r\nOH9OajgFuGc41pl6OA5sZjiGP0k4rw9iOH/3dzgTG4k4n5JeOIlEaTjJeIU4rxWCOB0xZDhmMYE4\r\nm7aCOG2VczhKIl04RaVnOEDgdTgwiGw4n8SAOGjUdTgyAWA4kpqIOO1peTi5pnQ4tdF+OPV3jTjZ\r\nKGk4hzlkOFNyhTi6WXY43e94OLBEbjizQ2E4uIRqOE0VbTgZ2HU4G3J8OHnFZTgk0GY4RBKCODBr\r\niDhzjHc4lbN5OGojeTi034E4/Ex5ODuueziHQ4c4HQ53OKqzizixomw4ufWKOMi+eDif72w48/SB\r\nODxGcTjj0F04yoNoOMQWZji4q3w4UtdzOMeXgjjTx4Q4OkBrONP1dzj4nHA4ADKKOA==",
                            "noiseTrainingType" : "default"
                          }
                        }
                    ],
                    "start" : 22257,
                    "duration" : 18,
                    "mediaStart" : 10464,
                    "mediaDuration" : 18,
                    "scalar" : 1,
                    "metadata" : {
                      "WinSubProjectDisplayName" : "",
                      "clipSpeedAttribute" : false
                    },
                    "animationTracks" : {

                    }
                  },
                  {
                    "id" : 343,
                    "_type" : "StitchedMedia",
                    "minMediaStart" : 0,
                    "attributes" : {
                      "ident" : "tower-05",
                      "gain" : 1.0,
                      "mixToMono" : false
                    },
                    "parameters" : {
                      "volume" : {
                        "type" : "double",
                        "keyframes" : [
                          {
                            "endTime" : 0,
                            "time" : 0,
                            "value" : 1.0,
                            "duration" : 0
                          },
                          {
                            "endTime" : 10335,
                            "time" : 10335,
                            "value" : 1.0,
                            "duration" : 0
                          }
                        ]
                      },
                      "cursorOpacity" : 1.0,
                      "cursorScale" : 1.0
                    },
                    "medias" : [
                        {
                          "id" : 344,
                          "_type" : "AMFile",
                          "src" : 5,
                          "trackNumber" : 1,
                          "attributes" : {
                            "ident" : "",
                            "sampleRate" : 44100,
                            "bitDepth" : 16,
                            "gain" : 1.0,
                            "mixToMono" : false
                          },
                            "channelNumber" : "0,1",
                          "effects" : [

                          ],
                          "start" : 0,
                          "duration" : 1383,
                          "mediaStart" : 0,
                          "mediaDuration" : 1383,
                          "scalar" : 1,
                          "metadata" : {
                            "WinSubProjectDisplayName" : ""
                          },
                          "animationTracks" : {

                          }
                        },
                        {
                          "id" : 345,
                          "_type" : "AMFile",
                          "src" : 5,
                          "trackNumber" : 1,
                          "attributes" : {
                            "ident" : "",
                            "sampleRate" : 44100,
                            "bitDepth" : 16,
                            "gain" : 1.0,
                            "mixToMono" : false
                          },
                            "channelNumber" : "0,1",
                          "effects" : [

                          ],
                          "start" : 1383,
                          "duration" : 2726,
                          "mediaStart" : 1406,
                          "mediaDuration" : 2726,
                          "scalar" : 1,
                          "metadata" : {
                            "WinSubProjectDisplayName" : ""
                          },
                          "animationTracks" : {

                          }
                        },
                        {
                          "id" : 346,
                          "_type" : "AMFile",
                          "src" : 5,
                          "trackNumber" : 1,
                          "attributes" : {
                            "ident" : "",
                            "sampleRate" : 44100,
                            "bitDepth" : 16,
                            "gain" : 1.0,
                            "mixToMono" : false
                          },
                            "channelNumber" : "0,1",
                          "effects" : [

                          ],
                          "start" : 4109,
                          "duration" : 424,
                          "mediaStart" : 4173,
                          "mediaDuration" : 424,
                          "scalar" : 1,
                          "metadata" : {
                            "WinSubProjectDisplayName" : ""
                          },
                          "animationTracks" : {

                          }
                        },
                        {
                          "id" : 347,
                          "_type" : "AMFile",
                          "src" : 5,
                          "trackNumber" : 1,
                          "attributes" : {
                            "ident" : "",
                            "sampleRate" : 44100,
                            "bitDepth" : 16,
                            "gain" : 1.0,
                            "mixToMono" : false
                          },
                            "channelNumber" : "0,1",
                          "effects" : [

                          ],
                          "start" : 4533,
                          "duration" : 139,
                          "mediaStart" : 4741,
                          "mediaDuration" : 139,
                          "scalar" : 1,
                          "metadata" : {
                            "WinSubProjectDisplayName" : ""
                          },
                          "animationTracks" : {

                          }
                        },
                        {
                          "id" : 348,
                          "_type" : "AMFile",
                          "src" : 5,
                          "trackNumber" : 1,
                          "attributes" : {
                            "ident" : "",
                            "sampleRate" : 44100,
                            "bitDepth" : 16,
                            "gain" : 1.0,
                            "mixToMono" : false
                          },
                            "channelNumber" : "0,1",
                          "effects" : [

                          ],
                          "start" : 4672,
                          "duration" : 212,
                          "mediaStart" : 5022,
                          "mediaDuration" : 212,
                          "scalar" : 1,
                          "metadata" : {
                            "WinSubProjectDisplayName" : ""
                          },
                          "animationTracks" : {

                          }
                        },
                        {
                          "id" : 349,
                          "_type" : "AMFile",
                          "src" : 5,
                          "trackNumber" : 1,
                          "attributes" : {
                            "ident" : "",
                            "sampleRate" : 44100,
                            "bitDepth" : 16,
                            "gain" : 1.0,
                            "mixToMono" : false
                          },
                            "channelNumber" : "0,1",
                          "effects" : [

                          ],
                          "start" : 4884,
                          "duration" : 634,
                          "mediaStart" : 5243,
                          "mediaDuration" : 634,
                          "scalar" : 1,
                          "metadata" : {
                            "WinSubProjectDisplayName" : ""
                          },
                          "animationTracks" : {

                          }
                        },
                        {
                          "id" : 350,
                          "_type" : "AMFile",
                          "src" : 5,
                          "trackNumber" : 1,
                          "attributes" : {
                            "ident" : "",
                            "sampleRate" : 44100,
                            "bitDepth" : 16,
                            "gain" : 1.0,
                            "mixToMono" : false
                          },
                            "channelNumber" : "0,1",
                          "effects" : [

                          ],
                          "start" : 5518,
                          "duration" : 3511,
                          "mediaStart" : 5894,
                          "mediaDuration" : 3511,
                          "scalar" : 1,
                          "metadata" : {
                            "WinSubProjectDisplayName" : ""
                          },
                          "animationTracks" : {

                          }
                        },
                        {
                          "id" : 351,
                          "_type" : "AMFile",
                          "src" : 5,
                          "trackNumber" : 1,
                          "attributes" : {
                            "ident" : "",
                            "sampleRate" : 44100,
                            "bitDepth" : 16,
                            "gain" : 1.0,
                            "mixToMono" : false
                          },
                            "channelNumber" : "0,1",
                          "effects" : [

                          ],
                          "start" : 9029,
                          "duration" : 45,
                          "mediaStart" : 9418,
                          "mediaDuration" : 45,
                          "scalar" : 1,
                          "metadata" : {
                            "WinSubProjectDisplayName" : ""
                          },
                          "animationTracks" : {

                          }
                        },
                        {
                          "id" : 352,
                          "_type" : "AMFile",
                          "src" : 5,
                          "trackNumber" : 1,
                          "attributes" : {
                            "ident" : "",
                            "sampleRate" : 44100,
                            "bitDepth" : 16,
                            "gain" : 1.0,
                            "mixToMono" : false
                          },
                            "channelNumber" : "0,1",
                          "effects" : [

                          ],
                          "start" : 9074,
                          "duration" : 90,
                          "mediaStart" : 9508,
                          "mediaDuration" : 90,
                          "scalar" : 1,
                          "metadata" : {
                            "WinSubProjectDisplayName" : ""
                          },
                          "animationTracks" : {

                          }
                        },
                        {
                          "id" : 353,
                          "_type" : "AMFile",
                          "src" : 5,
                          "trackNumber" : 1,
                          "attributes" : {
                            "ident" : "",
                            "sampleRate" : 44100,
                            "bitDepth" : 16,
                            "gain" : 1.0,
                            "mixToMono" : false
                          },
                            "channelNumber" : "0,1",
                          "effects" : [

                          ],
                          "start" : 9164,
                          "duration" : 6190,
                          "mediaStart" : 9606,
                          "mediaDuration" : 6190,
                          "scalar" : 1,
                          "metadata" : {
                            "WinSubProjectDisplayName" : ""
                          },
                          "animationTracks" : {

                          }
                        }
                    ],
                    "effects" : [
                        {
                          "effectName" : "NoiseReduction",
                          "category" : "categoryAudioEffects",
                          "parameters" : {
                            "denoiserAmount" : 20.0,
                            "denoiserThreshold" : 0.0,
                            "noiseProfile" : "0DLBQIHdHEFkF58/DucDP0ozzT57KmtAgMC/QJeMVkBqXPY/DM/ZQMiezz4uXQw/LmsPQAr6XUGb\r\n61tADcoFP5xdJz9feBE+k96HPoV1gT5t5ts+891TP321qT//4kpAYZFVP/Y5SEBV+cA/y9mkP1TE\r\nkD/IwDdBlGu3QPEnIECKjZ9A9zQeQR6sIkGDqRBB+MoTQPG91D8HiIJAV1n+P6aiLT8BC0o/tL6y\r\nP4CKdz+TTwpAgu3+PkNWRT+gxcc+oUg2QHnaPj+xh5U+dknYPzLVOT+xOLQ/CVWQP9L/V0A8xUNA\r\nPD0eQBE0C0C2arA/IDIFQIzaBkBP6ZFAYESvPzzwVz9stXM/LdNnP2R7TkDbvPU/3LQ9P2b3aD9/\r\nmdU+KgmKPggnJj9cFxpA+r7IP2xSjz7uI6Q+OPvAPooxbz7i1P49VuHhPVCFqD7keyZAx+LaPlz+\r\nbz6Fdvs9U1juPU5/Gj4RaoA+nEsSPn4JCD++RKM+d6QKPnB8oT0yKPA9nJBCPngjQz6ubLY9ileG\r\nPPKgSj1Jxbc94G0JPQxPYzwmXi092efQPdtqCT27jQc9Ky4yPXjt1z3+Y4Q+qWOVPRtdAT1ibEI9\r\nbSiFPa/kCT29bPQ8t1R6PWIuej338o4+YoobPVYHdT3irwI9Id5BPVQizzyal4o8Oto7PZQljz3V\r\nVZc8BPSuPOS1Ez1OsUA95umjPcrnGT0o+Qo95M01PRHiED31CgU9I94CPbQJQzzaG/o8ONkxPUKJ\r\n8zwMEV09eMDQPBrVQjzliHo8g0i2PEAUFD0MYwI9A+aRPWZo9jznDdY8L6VbPTI5Ej1qNRM9D5qt\r\nPNhShDzTRIs8oNaMPNNNRDzbawQ9wukyPRCmfT167cQ96HjXPFl3JT3pBr49dLyJPefi/jwg2lE9\r\nW2UKPV69tTzDfAA979SIPfaIGD2t9wY9pCWePJvaKz0PsKs81p2VPJCygzwfY6g8aMFRPDbiejy0\r\niq88JgMLPW22izx8hyQ9JVzIPEIyED0kHZc8kANAPASCmzyRv4Q8UaQKPaDdOTya/qY8SONgPO7m\r\nZj2SBMM8St5bPMcEFzySSNo7oXU1PIkPtTyHwME91CxcPbHibzzXumc8mZ7LPISshzzP8xs82rQj\r\nPBt37Dy9K0Y82igzPCOeyjttD9E7ffAqPBVpajyVa1U8L2iaPGWgnTwHWew7nXnIO3F0WTyf8RQ8\r\ncJ4rPFdMdzys2Qw9uZnrPBAoMDwjkYw8ZSrhO/YQrTvamQo86wSBPOe0Nz2l/wo9m3koPNV4hTsy\r\nH088fZQ9PLqm5Du70Qw8V98lPJuToDvGLYU81seCPI1N1DxMYPM79xOPPKw1/DzXfzA8KaJkPNHx\r\nFzwUl8M85ikqPTntpzzko9A8hCIcPGXopzvWlcM7H2AVPHi0OzybEZ47v2A6PPGfkzwEStg7ulaX\r\nO9ozhDymjo48xoL+PBELnzy7Co07q9xBPFfThzsPfUE8RaCDPL6FgjyIzSA8+oFWPLHJAjykVI87\r\nKsUbPJLaDTxgNq48I8asO1eRJDw3iso7flx+PNXbiDv0r4E8oCVaPBAKsTue9oE8wyc0PCIKpTtz\r\nqDA83NG1PNxFLjyyaac7A/NoOy3vpjs2ul87YvhsO+SNXzu82Hw78QEcPMkEOTxIsoM8elKOO4sD\r\nfjuwZ+Y7Fkz/O5JKyztCihU7prwPPDrVyTx0Bao80GnGPLkwJTzykXg7AE3MOuvpQjuwUVA7VIPF\r\nOsqWTjskaoE6vVaZOj+m0DpDQJ86vAAXOxrIRjrO2/I5rVkcOjy2DjoUuHM5HikWOgDpmzk2qrg5\r\nDNTKOQuAwTlKYZA5RZqnOcC+vjl6IMI5trduOaJGkTnid6E5QBqnOWXiHTk5Q0I5GJ2SOReokDmO\r\nrVE5spNOOYKTcznOllU5MAVuOWJaXTnR5VU5SgdqOcFKizm96m059pCAOWJxbzk2i2g5duKBOeQ3\r\nQznIUHc5w6hdOXh0RTkpQXg52sxvOSZKdzlqc2Q52JF4OUQXXjnwr1A5pItXOeI4Pzn1C3E5WM1V\r\nOUJGNTn2vE85yJNLOZZxQjmEDlI5hVJROWh6RTms10M5uQ88ObaQPTkQxUw5XUc2OedjPznSh0k5\r\n+jsyOdz8RDlbkS85BqlKOcVYQDnqsko5sm5DOeajPDlcFzc5MME0Ob87Lznq5Tg5nu43OY6rODmo\r\nKzk5HGw4OVduRTkqpDU5g8ssOY0ELTnQrDg5iNQzObkKJTlGsi05NnwuOaIULTn83zI5T3YkOTIj\r\nMTlKuyI5NOIeOYqlHDmukjU5Xs8kOaCrNDk7jDI5q8AoObeyLDnq/yY53uMlOUm3HDm0wR45ki8b\r\nOdfnFjkorCE5xLUeOZwEJDlw8CE5DNMhORyQFTnach05/zwgOfPAFDnqFho5guUjOVjtHjlo1Q05\r\nWjgaOWIAFDnmZgo5QxMSOYPdJDmTFRY5tH8WOWYODzl8Hg85Tw0ROU4qEjl+ShA5COIHOSWGCTmV\r\nBRM5JNMUOUSVCTkFiQ45Cs4OOYIeCznAxQk5JI0POa5CDzlWqw45JesQOQxZCDm89xw59qMSOfIK\r\nDDnLmgc5N33+OKKnCTkevvo4Sf8GOYQpDDmV2ws5NKgKOe7XBTk8ogg5n0kFOS55BDnY2wk5D0IE\r\nOSNFATnVZgU5fCf+OGi+9jiYhQQ5IzEBOdCV9jiuDQY5Eq/pOE6W8jhG3uk4WiP+OMD8BjmAgPE4\r\ncTHqOOTE9TjRUvA4KEj5OGp+Ajl8XOQ4WyPnOP5b+DgiSfE4OFzrOF1rATmsceI4O9YDObiw9ThT\r\nhfU4s1DzOGcR/Timm+o4rIj/OOH/9jinhPA44urWOGrn9jiWSfI4NuL3OIIPzji1Les4sB7dOKxP\r\n+ThAE+o4QJjdOERe8Tiwe8U42mTmOGIJ1TjJDt84UEXhOLyD2zjEfu04dezVOK033DgOZcQ4jyTb\r\nOIq+4jgC/tw4zmLjODrj1jhCyNc4A+fKOFyBzjgEBdU49TfcOFdG4DhqGMM4HFvQOG6UzTh4I9I4\r\nARbWOMaOzTiMYsA4ltfjOPeswjiGCNs4GgHeOJ5pzThMAs44k6fVOCASwzhJnMY4TAzSOJJY1TjG\r\nLdY4ykrWODJBwTin0ME4l5i7OBnWuDjgOb444d3FOEKqzDg+Vso4rAbOOM7Xyjg82rk4hLvHOEpz\r\nwDh8PMM4jRzIOBR0xThVMsE4Qtq/OA6HuTg0qs44ryi6OCLexziHKcM4nKDJOMFtuTjYVbY4rX3H\r\nOOb0wTg82sg4uu3FOII0wDg1eLw40XHAONnQxzimObg45yDBOJs1zTiVO7g4rPKzOK4GwjhaZb04\r\nO/y9OI5CwjgcKLE4mSfFOGe2pzjogb44gNC1OCb1tDiVq6848HW8OJmhvzg4Hrs406OmOIQDqTjl\r\nrZo4gvalOM66qDhr47M4+UG8OAXXsjjCSsI4VgqpOGVuoTh8ksk4HBeuOI4fszh0AKw4jTGxOEEl\r\npThziKw4Hn+iOLvBrjgPkrs40jqnOMNOrzhQI6I4FniVOOgcsDj0Apw4lq+vOIgArzgaZbM4HLOi\r\nOFcYpDjGmqc4CMKiOPHJmziPnKA44IWmOCqJnDh6z604uWauOGHYsTiGs5c4CGSVOMYEnTh+Pak4\r\nGJKYOIeeoDiKbJs4EDueONWooziPJ6o4YdaqOOjPkDgRZZ446qSyOGAxmjgD9qE44dOeOJpqmDgk\r\npq44yQSoOPw0lzjCyak4pEmiOIF3qzgbJ5s4/BygOKtfpzgYtJ04aZWZOHxGmDi0VLI4PGaXOISm\r\niThAw5o4yGioOLCDjzhEXJ44mnyeOFC6pDhu6Js486ikOM/XmTiVppk4XmuaOBLClzjFmIY4wk+O\r\nOBgApDh1/aA4YlWfOHRwpTjmlJg4XrKMODoFizgy5KM4bvSfOAr9jThHIJ04mZWZOIXKZzhw0Is4\r\n0+KiOIIqijgwlZM4GlaCOGGapTj1L5E4NjqeOI5JjTgGr5k4VBmDOJuOjDjCrZk4ckmBOGfPlziT\r\nuZM4Rm2AOGcMqzgKt544ZmyNOOLNkDg5DI44/paNOLm5jjh7eJE4jYyOOE0giTg40aQ4B3aIOMjE\r\nmDhNDYM4PGSGODkomDiW1Jo4CH2GOFL9kDht7oQ442uMOGtAjDi5Uow4ArOfOJGCiTh4C54485qI\r\nOCcPbDhnK5Y4HzqUOEiziTgqAoY48VeNOKmBjTiAcZI4fguHONQPjjiC2IU40PuNOEJfijhFKGw4\r\nHKyCOD7jkzgREYM4PC6GODFVizj2NIQ4ni2HOAxEiDh+UIA41i98OBK/gDjyjpI4EweJOOCEgzj+\r\nopQ4YHaPONCKmDhoKJo4Fn9yOHbgmTg6r5A44i2HOFcejji/o4o46nKVOH7Xjzhxu344/JWEOE1c\r\neThqs4o4nv+GODmFmzj9v5E4CU2WOAGEezizgog44S+UOJbNhzjCNHs4AFV/OPHehDiaUHM4iPyR\r\nOKRrbjhFU4w4I3GYOCHrjTho2ZE4PwOPOD5ZiDiDfI44qqKPOL2iizgseIk4HkCLOIUufDi9T4c4\r\n/35sOLcUkzh8+Ig40hRhONTpijj3uGw4C0SQOEJBgziJrYM4ubNvOG3WhThmP484dUh6OAAoeTg5\r\nIno42J6IOPgLgzh/OYc4fyllOKXjhjhsxFU4wcKROPv0ijhLy3U4dc9/OH5DaDgmfYk4RXmCOM8V\r\ndzhAJHw4m6eBOF0Rbzg2AH84T1h8OJMfczinC5A4AlaMOOLfRjiDMoQ4X4+CODh5hjhIw484eA6B\r\nOA1CkDiu1Y049r2NOLfUfjiIMoA4KGeNOJLFaDgZ0mc4FJ6AODT4VThtQ1c4EJaJOKAobziEUYU4\r\nTDh7OH5ocDiYKmA4SupvOKJuczg0kow4/997OBccbjh5KXg4odyJOF/ZbDjE6Xo4MaR2OFP4aDh9\r\n3II4DglgOIhHYTgG31845X9/ODqzXjjgGm04Hsp0OONMeThtroU4NfZ1ONTTdTj0Elk4fYeCOGfb\r\ngDht7m44ha9zOOYXgDi/nYE4JGWAOJRMcTijSYk4fhqNODcWYzjOfXI4bhxrONa7eTgcP184Xit9\r\nOHXEbTg1PFo43jNlONpLZjiCA4U4m2FYOB0WfDguqWQ4yZ6KOAonfDjI3Wc4NNhiOADlhjgc7l84\r\n2cuAONqyazisAYA4DGJ7OFk2fjgj/Ws4CzWBODZiczgdGoY4GtxROIXWhDh4omU4XY9sOPGZhjje\r\nsXE4zsp4ODWfdTg8d3Q4pPJvOPVjhTir2XE4ifR5OMfOaTgtB1w4Rk+FOEi8bDgwgXI4iCyAOA2g\r\nfTgfKGU4QHdjOOHOgDhaAYc4pu6EOBWadzjmnWk4SkyDOBxjfzhHe3M4M4xpOAQ/hzi7bWQ4Uqxv\r\nOIUkgzhRFoA424VdOFN8dDim0lM4FHp4OKQzgjiF5mg4LBRzOFLEgjiF2Fs4wU2EOIAAgTjQMsFA\r\ngd0cQWQXnz8O5wM/TCzNPnsqa0CAwL9Al4xWQI5T9j8Mz9lAyJ7PPi5dDD8uaw9A9vZdQQ/yW0AL\r\n5wU/BIQnP5uPET6L/Yc+hXWBPm3m2z7z3VM/fbWpP//iSkBhkVU/aExIQCfowD8P26Q/VMSQP3LE\r\nN0FyZbdA8ScgQAaMn0DRMB5BsbMiQYOpEEH4yhNA777UP1J9gkBXWf4/R64tPwELSj+0vrI/gIp3\r\nP1BPCkDjnf4+NDdFP6DFxz6hSDZAedo+P0KElT52Sdg/e945P7E4tD8JVZA/0v9XQDzFQ0BPNx5A\r\nETQLQCiKsD8gMgVAjNoGQE/pkUDrQa8/PPBXP2y1cz+RvGc/ZHtOQNu89T8M4z0/4NloP3W81T4q\r\nCYo+CCcmP3QwGkCEusg/nWyPPioMpD7K8sA+ijFvPsJ8/j1W4eE9ZJeoPiplJkDH4to+/fxvPhqB\r\n+z1uTu498KcaPpKggD5BgxI+fgkIP62joz6JCws+cHyhPTIo8D2ckEI+eCNDPh2Itj0lsYY8nClL\r\nPQx3tz3gbQk9DE9jPE4iLj14QtE922oJPbuNBz1QpjI9CPfXPTdphD6pY5U9sHEBPWJsQj1tKIU9\r\nr+QJPcFt9Dy8P3o9GiR6PaP3jj5iihs9r4x1PdwqAj0h3kE9TODOPBoNizw62js9lCWPPaiFlzwE\r\n9K485LUTPZl6QD3n6qM9yucZPSj5Cj3kzTU98zQRPVkqBD0j3gI9FBhDPNob+jwyijE9G6DyPAwR\r\nXT22nNA8BLtEPOWIejyDSLY8QBQUPXh+Aj0D5pE9MFj2PPD/1Txn1lo9MjkSPWo1Ez2vK6082FKE\r\nPNNEizyg1ow8J8hEPJpDBD3C6TI9EKZ9PXrtxD3oeNc8WXclPekGvj10vIk95+L+PCDaUT1bZQo9\r\nXr21PDCBAT3JqYg99ogYPa33Bj2kJZ48/r8rPfYArTwlkpU8YLSDPGkEqDxwz1E8lNF6PLT6rzwm\r\nAws9bbaLPHyHJD0lXMg8jw8QPZK2ljwmzz88BIKbPJG/hDxRpAo9RH85PJr+pjxI42A87uZmPZIE\r\nwzwosFw80QcYPIzd2DuhdTU8fDG1PIfAwT3ULFw9QKhvPNe6ZzyZnss8hKyHPNowGzxLmiM8G3fs\r\nPL0rRjzRmTM8PBDKO20P0Tv0JCw89sRpPJVrVTwvaJo8ZaCdPAdZ7Dudecg76+ZYPJ/xFDzFRyw8\r\nV0x3PDuFDD3Bcus8ECgwPCORjDyPUOE7FBywO30KCzzrBIE857Q3PaX/Cj2beSg81lOFO6TpTjx9\r\nlD08bdPkOxSsCzxX3yU8FiGgO82jhDyLGYM8jU3UPJvr8zv3E488rDX8PNd/MDwpomQ80fEXPEyi\r\nwjzmKSo9bDaoPO760DyEIhw8ZeinO9aVwzuzfxU8eLQ7PCH5nDvyWjo8W7yTPC8s2Du6Vpc79rqD\r\nPKaOjjysVP48EQufPF4zjjujJUI8V9OHO1tYQTxFoIM8tsOCPIjNIDz6gVY8+qgCPKRUjzsqxRs8\r\nktoNPGA2rjw3Ia47V5EkPDe8yTvxPX486euHO5gbgjygJVo8EAqxOyYSgzybvDQ8nnGkO3OoMDzc\r\n0bU83EUuPPNXpzsNXmo71uWmO/82XTsSgGk7ykVeO5b0fDuViBw8yQQ5PPFOgzx6Uo47iwN+O3lO\r\n5jtiw/87vOLKO2XaEjumvA88OtXJPFSmqTzQacY8uTAlPMOYeTsATcw66+lCOwNGUDtUg8U6zf9N\r\nO6c4gTogNZw6EanWOkTGozp8fhU7w7lFOs7b8jmtWRw66n8OOhS4cznKkBU65s6XOd49vzkM1Mo5\r\n60e5OblIkjmk5KM5I1fFOfnKvznMVXU5adqKOQjimzmwO6o5Fp0kOWlGLzk/m4857HWGOUbgZznY\r\nCUU5WS6WOWVZSDkjZlE52iB5OZqTXTkouDo5gZqSOdBaXDnK8ls5oFBxORDVdzkG4Hk59HBjOfg5\r\nSDm4XWM54R10Oe6NWTm8FVs59h9qObFOTDkar1s56BhmOTwbXTk7oFg5Qk1SOfVERzmjhFU5RKRH\r\nOZeURjk0qUM55GFMOUoXRznU8Uk5cs9KOUiyPzndSU054qJAOcqASzlwzDo5EKBGOT44QzmjvjQ5\r\nqlJMOYpHNTlTnUQ5p+o5OQJVRjmIfU85Tpo7OZdtQzmlOUA5as8xOSpgPzma6T45SBI2OUamOjnO\r\nWDs5ERJCOQBnMjk6x0A53sA0OWakLjlQXDc5fqghOZotMTlYKy05L9IvOdZJITnoySM5uO41Oc3W\r\nHTnnkiQ57uwhOaS7LTm8Kys5R6Q5Obj1MTlTISk5SO4nOQ+BLjlyfS05Xn0fOfp/GTnMpxo5KzMU\r\nOZ4ZHTn8aSY5FNYcOX5FIjmu3SE5vrgVOT1LJzmu3xo5H6okOUmKFzntgBo50i0dOTBJETkc/SQ5\r\nxqYROVuxFTn8vBc5yuoeOXzOGDn4DCE51KUkOc9bGzmY+gU5BvoeOblFBzmIFg05A3EQORj0Dzmg\r\nCxA5FjQWOUGvEjnEzRQ5ZdINORrBDjlyexg5ybkLOXZiBTnIZwU5+gwGOXBYFDlCGBo5mlEMOYo3\r\nBDnYOgU59qkAOY4P9ThoRAo5RkH+OIYiEjmyVwc5bvYGOZFiBzlf1QE5sgAGOaq8DjkuNgI5sRD+\r\nOK9r+DgaDOk4YfHiOH7h+Ti3gQk5QpX7OLPH8DhDhug4EsPyOH7/9DioE/A4FDf/OAAK+jhyzes4\r\nJcTtOLqlAjnOx/k4Zn8COURm8DjXz+w4s0joOCdf7zgHt+44ZET7OJpK4zgbWgU5bOTkONCX7DgS\r\n8AQ5JkT6ODBO/zgwPvE4kgkAOfNU+DgMleg4fJT7OJ9N4TiA/+046iXoOJIu7jj7I+I4ADL4OFEV\r\n6Ti7zeg4FwjVOJ3n0DhTMfY4QsrQOPK20zhqgtw4F5bjOPsz+ThFI7s4JjjaODUi1zgKJNc4raq7\r\nOLSr2jgweuc49ULhOCAp4DgcFNE43nnEOI61zziPf9E4Et7kOM284Dh0YMw43j3cOD7u1jgItsg4\r\ntgnYOLJZwDjgFdE4lNLeOJep3zihC8s4tKnMOOFvyjhnDdI4kITbOIw9xDgoRsY4eBHMOMX3zzgJ\r\nj8Y47hvOOE0VujjjesA47CPWOAAe2jgP4MU47LLKONRbszgYWNk4iv7AOFiVsjjYpMY4ogDLOFy2\r\nvDiFwcs4QB3FOIxBxjg+Or04HOHHOPFRwzijKbs4KuW/ODzmwzgCLsM4s2G8OKN9tTjnJsA4wgax\r\nOAhYwTgXt8k4mqfGOJ4WvzjUIs44GlDCOIxXwTj6jcQ4dxXDOPDltzjzlaI4pDK/OBD6rzj4s7s4\r\n+jPEOD3Ltjg+sbc4ysK1OH9SsThaja04nnWyOAChujiuh8A4b+a4OKEZpjgyo7A4V2m5OIovljiX\r\nNKs4PoKzOBRMrDhNErQ4Aj2zOCmFtjhYPag4JkihOMOwtjh92a04dC2lOA0cqDiN0ac4TGKkOOPi\r\npDj4R604+O+yOGSCwDh4y5o4pnmuOPN6nzgKM5c4KEe0OC7kmzixJb04JYqsOE9Brji4tpc4Inyh\r\nOFE3rTikw6Y4suOoOPwtnjiSkaI4khupOCRanjg0X7A4bBagOKG0rTjUVaQ4tLmdOOrekzjqVas4\r\npmajOAGAnDhC8a84vaCPOAMBnjhI8qg4/42bONJ1mThgdKI4QCaqODTSrDgWmKo44GOcOCaXsThq\r\nsqA41nKYOAgyqDjCOqs4aSefOGO0ozjpLpE49iumOJ2Sljjor5g4ZcubOCkmrTgrApc4ARybOFRT\r\nkTggl6U4ZIeROPIhoDjXyJI44OKfOLwJkzg7h6Q4SW2UOLVrkjg2SZE4qyuiOHIjjDhTapc4CICp\r\nOBquozi7I4g4hfWYOIxsoTioRpA4WVSZOMYWnTjdTqA4oBiTOCRunDhim6Y4/pKEOGNllziZH504\r\n8MOLONeCnTgedok4LXaYOIZKhjhUwq04Rx+aONjDlDhEqI44vTSMONv+hTi4qYI4RNedOL1pjTi+\r\nOp048SqnOLYqojgPOKE4ljKSOILvgjh/nZc4yy2SOJe0jjgZO4k4/s6IOBjJnDinboM4W/OZOE3q\r\nijig75k4AEuTOL/rizhuzIE4/cByOEtGnDhf3pU4YsCMOPl8izhhQJY4P0iPODulozi8+IY4RY+C\r\nOCGviThar5E4IsyOOOuPiTiKwoo4WmeOOIctjjiXC4s4ibqDOKh6eDhaC4c4PfKJOA7XizhYm344\r\nHIWiOGwzgzjYdo04a1ekOMnxgziCTYs4AauFOIXcazghLow4IleTOKOpjzhRh4I4QNyGOIhDlDgz\r\nKI84/3SSOClpnTi4yI44dBqPOJN9mjgzfIc4FkyNOLRchTiO84s49ct8ONoQZzjbbY84RoV3OLOq\r\nhTi9N4M4PIaXOEHGmzgOfYw4ZjCKOEHeizgIL4s46RFyOCFwfTh2I2s4dfWJOAbjiTh7n4Q4buxy\r\nOO98gDgDFJA4xlWCOC1sgDhoXYk4TceLOJKjkDjAsYQ4nA+PONXIgTjiC404Yq54OHGDjDgUC3k4\r\nuZWAOGDphjhcAmU4/72LOD0lgjgK2Is4IgaIOMCIgjgTnns4f2eDOPe8bThkgH04dA2DOBQNdjje\r\nRoA4qxaHOP81hTgQyXE44GaGOJR6gTgHM4g4kBuJOLkjbTg3S3E4806HOCi/gDh2LYA4mv6LONwC\r\ndzjhZ4M4DK1fOM5hgThTlWA4hluGONazfzgDBHs4tS5jOMq0gThKu4w4hvR7OK62fjjEGIk4vi+N\r\nOI70gDjJ1YI4sqKPOEZgbDjg/Y04R+F0OKS2aDhlFJA4WAFqOP/XZDhxS444RVpsOA3XdDjy+HU4\r\nHdtqODRvZjhRJWA4CGuDONP0fjhD9Xg4DCpnOJI/gjgyUpA4q+5TOEEkYzgxjY04uSFhOP9YgTgm\r\n3WQ4Io1hOO9VeDi9woM4tqByODnxaDiYlnI4jcB/OOgAdjh+CXI4ZnJqOBtRXjjbyH04ZIeBOBJc\r\neDjr0n84w8qJODaggDgNunM4wrSCOIzXfDi6YoI4fQZiOK4aYTju5YE4BZVfOKiLXDhUY3g45N11\r\nOH9OajgFuGc41pl6OA5sZjiGP0k4rw9iOH/3dzgTG4k4n5JeOIlEaTjJeIU4rxWCOB0xZDhmMYE4\r\nm7aCOG2VczhKIl04RaVnOEDgdTgwiGw4n8SAOGjUdTgyAWA4kpqIOO1peTi5pnQ4tdF+OPV3jTjZ\r\nKGk4hzlkOFNyhTi6WXY43e94OLBEbjizQ2E4uIRqOE0VbTgZ2HU4G3J8OHnFZTgk0GY4RBKCODBr\r\niDhzjHc4lbN5OGojeTi034E4/Ex5ODuueziHQ4c4HQ53OKqzizixomw4ufWKOMi+eDif72w48/SB\r\nODxGcTjj0F04yoNoOMQWZji4q3w4UtdzOMeXgjjTx4Q4OkBrONP1dzj4nHA4ADKKOA==",
                            "noiseTrainingType" : "default"
                          }
                        }
                    ],
                    "start" : 22275,
                    "duration" : 14,
                    "mediaStart" : 10643,
                    "mediaDuration" : 14,
                    "scalar" : 1,
                    "metadata" : {
                      "WinSubProjectDisplayName" : "",
                      "clipSpeedAttribute" : false
                    },
                    "animationTracks" : {

                    }
                  },
                  {
                    "id" : 354,
                    "_type" : "StitchedMedia",
                    "minMediaStart" : 0,
                    "attributes" : {
                      "ident" : "tower-05",
                      "gain" : 1.0,
                      "mixToMono" : false
                    },
                    "parameters" : {
                      "volume" : {
                        "type" : "double",
                        "keyframes" : [
                          {
                            "endTime" : 0,
                            "time" : 0,
                            "value" : 1.0,
                            "duration" : 0
                          },
                          {
                            "endTime" : 10335,
                            "time" : 10335,
                            "value" : 1.0,
                            "duration" : 0
                          }
                        ]
                      },
                      "cursorOpacity" : 1.0,
                      "cursorScale" : 1.0
                    },
                    "medias" : [
                        {
                          "id" : 355,
                          "_type" : "AMFile",
                          "src" : 5,
                          "trackNumber" : 1,
                          "attributes" : {
                            "ident" : "",
                            "sampleRate" : 44100,
                            "bitDepth" : 16,
                            "gain" : 1.0,
                            "mixToMono" : false
                          },
                            "channelNumber" : "0,1",
                          "effects" : [

                          ],
                          "start" : 0,
                          "duration" : 1383,
                          "mediaStart" : 0,
                          "mediaDuration" : 1383,
                          "scalar" : 1,
                          "metadata" : {
                            "WinSubProjectDisplayName" : ""
                          },
                          "animationTracks" : {

                          }
                        },
                        {
                          "id" : 356,
                          "_type" : "AMFile",
                          "src" : 5,
                          "trackNumber" : 1,
                          "attributes" : {
                            "ident" : "",
                            "sampleRate" : 44100,
                            "bitDepth" : 16,
                            "gain" : 1.0,
                            "mixToMono" : false
                          },
                            "channelNumber" : "0,1",
                          "effects" : [

                          ],
                          "start" : 1383,
                          "duration" : 2726,
                          "mediaStart" : 1406,
                          "mediaDuration" : 2726,
                          "scalar" : 1,
                          "metadata" : {
                            "WinSubProjectDisplayName" : ""
                          },
                          "animationTracks" : {

                          }
                        },
                        {
                          "id" : 357,
                          "_type" : "AMFile",
                          "src" : 5,
                          "trackNumber" : 1,
                          "attributes" : {
                            "ident" : "",
                            "sampleRate" : 44100,
                            "bitDepth" : 16,
                            "gain" : 1.0,
                            "mixToMono" : false
                          },
                            "channelNumber" : "0,1",
                          "effects" : [

                          ],
                          "start" : 4109,
                          "duration" : 424,
                          "mediaStart" : 4173,
                          "mediaDuration" : 424,
                          "scalar" : 1,
                          "metadata" : {
                            "WinSubProjectDisplayName" : ""
                          },
                          "animationTracks" : {

                          }
                        },
                        {
                          "id" : 358,
                          "_type" : "AMFile",
                          "src" : 5,
                          "trackNumber" : 1,
                          "attributes" : {
                            "ident" : "",
                            "sampleRate" : 44100,
                            "bitDepth" : 16,
                            "gain" : 1.0,
                            "mixToMono" : false
                          },
                            "channelNumber" : "0,1",
                          "effects" : [

                          ],
                          "start" : 4533,
                          "duration" : 139,
                          "mediaStart" : 4741,
                          "mediaDuration" : 139,
                          "scalar" : 1,
                          "metadata" : {
                            "WinSubProjectDisplayName" : ""
                          },
                          "animationTracks" : {

                          }
                        },
                        {
                          "id" : 359,
                          "_type" : "AMFile",
                          "src" : 5,
                          "trackNumber" : 1,
                          "attributes" : {
                            "ident" : "",
                            "sampleRate" : 44100,
                            "bitDepth" : 16,
                            "gain" : 1.0,
                            "mixToMono" : false
                          },
                            "channelNumber" : "0,1",
                          "effects" : [

                          ],
                          "start" : 4672,
                          "duration" : 212,
                          "mediaStart" : 5022,
                          "mediaDuration" : 212,
                          "scalar" : 1,
                          "metadata" : {
                            "WinSubProjectDisplayName" : ""
                          },
                          "animationTracks" : {

                          }
                        },
                        {
                          "id" : 360,
                          "_type" : "AMFile",
                          "src" : 5,
                          "trackNumber" : 1,
                          "attributes" : {
                            "ident" : "",
                            "sampleRate" : 44100,
                            "bitDepth" : 16,
                            "gain" : 1.0,
                            "mixToMono" : false
                          },
                            "channelNumber" : "0,1",
                          "effects" : [

                          ],
                          "start" : 4884,
                          "duration" : 634,
                          "mediaStart" : 5243,
                          "mediaDuration" : 634,
                          "scalar" : 1,
                          "metadata" : {
                            "WinSubProjectDisplayName" : ""
                          },
                          "animationTracks" : {

                          }
                        },
                        {
                          "id" : 361,
                          "_type" : "AMFile",
                          "src" : 5,
                          "trackNumber" : 1,
                          "attributes" : {
                            "ident" : "",
                            "sampleRate" : 44100,
                            "bitDepth" : 16,
                            "gain" : 1.0,
                            "mixToMono" : false
                          },
                            "channelNumber" : "0,1",
                          "effects" : [

                          ],
                          "start" : 5518,
                          "duration" : 3511,
                          "mediaStart" : 5894,
                          "mediaDuration" : 3511,
                          "scalar" : 1,
                          "metadata" : {
                            "WinSubProjectDisplayName" : ""
                          },
                          "animationTracks" : {

                          }
                        },
                        {
                          "id" : 362,
                          "_type" : "AMFile",
                          "src" : 5,
                          "trackNumber" : 1,
                          "attributes" : {
                            "ident" : "",
                            "sampleRate" : 44100,
                            "bitDepth" : 16,
                            "gain" : 1.0,
                            "mixToMono" : false
                          },
                            "channelNumber" : "0,1",
                          "effects" : [

                          ],
                          "start" : 9029,
                          "duration" : 45,
                          "mediaStart" : 9418,
                          "mediaDuration" : 45,
                          "scalar" : 1,
                          "metadata" : {
                            "WinSubProjectDisplayName" : ""
                          },
                          "animationTracks" : {

                          }
                        },
                        {
                          "id" : 363,
                          "_type" : "AMFile",
                          "src" : 5,
                          "trackNumber" : 1,
                          "attributes" : {
                            "ident" : "",
                            "sampleRate" : 44100,
                            "bitDepth" : 16,
                            "gain" : 1.0,
                            "mixToMono" : false
                          },
                            "channelNumber" : "0,1",
                          "effects" : [

                          ],
                          "start" : 9074,
                          "duration" : 90,
                          "mediaStart" : 9508,
                          "mediaDuration" : 90,
                          "scalar" : 1,
                          "metadata" : {
                            "WinSubProjectDisplayName" : ""
                          },
                          "animationTracks" : {

                          }
                        },
                        {
                          "id" : 364,
                          "_type" : "AMFile",
                          "src" : 5,
                          "trackNumber" : 1,
                          "attributes" : {
                            "ident" : "",
                            "sampleRate" : 44100,
                            "bitDepth" : 16,
                            "gain" : 1.0,
                            "mixToMono" : false
                          },
                            "channelNumber" : "0,1",
                          "effects" : [

                          ],
                          "start" : 9164,
                          "duration" : 6190,
                          "mediaStart" : 9606,
                          "mediaDuration" : 6190,
                          "scalar" : 1,
                          "metadata" : {
                            "WinSubProjectDisplayName" : ""
                          },
                          "animationTracks" : {

                          }
                        }
                    ],
                    "effects" : [
                        {
                          "effectName" : "NoiseReduction",
                          "category" : "categoryAudioEffects",
                          "parameters" : {
                            "denoiserAmount" : 20.0,
                            "denoiserThreshold" : 0.0,
                            "noiseProfile" : "0DLBQIHdHEFkF58/DucDP0ozzT57KmtAgMC/QJeMVkBqXPY/DM/ZQMiezz4uXQw/LmsPQAr6XUGb\r\n61tADcoFP5xdJz9feBE+k96HPoV1gT5t5ts+891TP321qT//4kpAYZFVP/Y5SEBV+cA/y9mkP1TE\r\nkD/IwDdBlGu3QPEnIECKjZ9A9zQeQR6sIkGDqRBB+MoTQPG91D8HiIJAV1n+P6aiLT8BC0o/tL6y\r\nP4CKdz+TTwpAgu3+PkNWRT+gxcc+oUg2QHnaPj+xh5U+dknYPzLVOT+xOLQ/CVWQP9L/V0A8xUNA\r\nPD0eQBE0C0C2arA/IDIFQIzaBkBP6ZFAYESvPzzwVz9stXM/LdNnP2R7TkDbvPU/3LQ9P2b3aD9/\r\nmdU+KgmKPggnJj9cFxpA+r7IP2xSjz7uI6Q+OPvAPooxbz7i1P49VuHhPVCFqD7keyZAx+LaPlz+\r\nbz6Fdvs9U1juPU5/Gj4RaoA+nEsSPn4JCD++RKM+d6QKPnB8oT0yKPA9nJBCPngjQz6ubLY9ileG\r\nPPKgSj1Jxbc94G0JPQxPYzwmXi092efQPdtqCT27jQc9Ky4yPXjt1z3+Y4Q+qWOVPRtdAT1ibEI9\r\nbSiFPa/kCT29bPQ8t1R6PWIuej338o4+YoobPVYHdT3irwI9Id5BPVQizzyal4o8Oto7PZQljz3V\r\nVZc8BPSuPOS1Ez1OsUA95umjPcrnGT0o+Qo95M01PRHiED31CgU9I94CPbQJQzzaG/o8ONkxPUKJ\r\n8zwMEV09eMDQPBrVQjzliHo8g0i2PEAUFD0MYwI9A+aRPWZo9jznDdY8L6VbPTI5Ej1qNRM9D5qt\r\nPNhShDzTRIs8oNaMPNNNRDzbawQ9wukyPRCmfT167cQ96HjXPFl3JT3pBr49dLyJPefi/jwg2lE9\r\nW2UKPV69tTzDfAA979SIPfaIGD2t9wY9pCWePJvaKz0PsKs81p2VPJCygzwfY6g8aMFRPDbiejy0\r\niq88JgMLPW22izx8hyQ9JVzIPEIyED0kHZc8kANAPASCmzyRv4Q8UaQKPaDdOTya/qY8SONgPO7m\r\nZj2SBMM8St5bPMcEFzySSNo7oXU1PIkPtTyHwME91CxcPbHibzzXumc8mZ7LPISshzzP8xs82rQj\r\nPBt37Dy9K0Y82igzPCOeyjttD9E7ffAqPBVpajyVa1U8L2iaPGWgnTwHWew7nXnIO3F0WTyf8RQ8\r\ncJ4rPFdMdzys2Qw9uZnrPBAoMDwjkYw8ZSrhO/YQrTvamQo86wSBPOe0Nz2l/wo9m3koPNV4hTsy\r\nH088fZQ9PLqm5Du70Qw8V98lPJuToDvGLYU81seCPI1N1DxMYPM79xOPPKw1/DzXfzA8KaJkPNHx\r\nFzwUl8M85ikqPTntpzzko9A8hCIcPGXopzvWlcM7H2AVPHi0OzybEZ47v2A6PPGfkzwEStg7ulaX\r\nO9ozhDymjo48xoL+PBELnzy7Co07q9xBPFfThzsPfUE8RaCDPL6FgjyIzSA8+oFWPLHJAjykVI87\r\nKsUbPJLaDTxgNq48I8asO1eRJDw3iso7flx+PNXbiDv0r4E8oCVaPBAKsTue9oE8wyc0PCIKpTtz\r\nqDA83NG1PNxFLjyyaac7A/NoOy3vpjs2ul87YvhsO+SNXzu82Hw78QEcPMkEOTxIsoM8elKOO4sD\r\nfjuwZ+Y7Fkz/O5JKyztCihU7prwPPDrVyTx0Bao80GnGPLkwJTzykXg7AE3MOuvpQjuwUVA7VIPF\r\nOsqWTjskaoE6vVaZOj+m0DpDQJ86vAAXOxrIRjrO2/I5rVkcOjy2DjoUuHM5HikWOgDpmzk2qrg5\r\nDNTKOQuAwTlKYZA5RZqnOcC+vjl6IMI5trduOaJGkTnid6E5QBqnOWXiHTk5Q0I5GJ2SOReokDmO\r\nrVE5spNOOYKTcznOllU5MAVuOWJaXTnR5VU5SgdqOcFKizm96m059pCAOWJxbzk2i2g5duKBOeQ3\r\nQznIUHc5w6hdOXh0RTkpQXg52sxvOSZKdzlqc2Q52JF4OUQXXjnwr1A5pItXOeI4Pzn1C3E5WM1V\r\nOUJGNTn2vE85yJNLOZZxQjmEDlI5hVJROWh6RTms10M5uQ88ObaQPTkQxUw5XUc2OedjPznSh0k5\r\n+jsyOdz8RDlbkS85BqlKOcVYQDnqsko5sm5DOeajPDlcFzc5MME0Ob87Lznq5Tg5nu43OY6rODmo\r\nKzk5HGw4OVduRTkqpDU5g8ssOY0ELTnQrDg5iNQzObkKJTlGsi05NnwuOaIULTn83zI5T3YkOTIj\r\nMTlKuyI5NOIeOYqlHDmukjU5Xs8kOaCrNDk7jDI5q8AoObeyLDnq/yY53uMlOUm3HDm0wR45ki8b\r\nOdfnFjkorCE5xLUeOZwEJDlw8CE5DNMhORyQFTnach05/zwgOfPAFDnqFho5guUjOVjtHjlo1Q05\r\nWjgaOWIAFDnmZgo5QxMSOYPdJDmTFRY5tH8WOWYODzl8Hg85Tw0ROU4qEjl+ShA5COIHOSWGCTmV\r\nBRM5JNMUOUSVCTkFiQ45Cs4OOYIeCznAxQk5JI0POa5CDzlWqw45JesQOQxZCDm89xw59qMSOfIK\r\nDDnLmgc5N33+OKKnCTkevvo4Sf8GOYQpDDmV2ws5NKgKOe7XBTk8ogg5n0kFOS55BDnY2wk5D0IE\r\nOSNFATnVZgU5fCf+OGi+9jiYhQQ5IzEBOdCV9jiuDQY5Eq/pOE6W8jhG3uk4WiP+OMD8BjmAgPE4\r\ncTHqOOTE9TjRUvA4KEj5OGp+Ajl8XOQ4WyPnOP5b+DgiSfE4OFzrOF1rATmsceI4O9YDObiw9ThT\r\nhfU4s1DzOGcR/Timm+o4rIj/OOH/9jinhPA44urWOGrn9jiWSfI4NuL3OIIPzji1Les4sB7dOKxP\r\n+ThAE+o4QJjdOERe8Tiwe8U42mTmOGIJ1TjJDt84UEXhOLyD2zjEfu04dezVOK033DgOZcQ4jyTb\r\nOIq+4jgC/tw4zmLjODrj1jhCyNc4A+fKOFyBzjgEBdU49TfcOFdG4DhqGMM4HFvQOG6UzTh4I9I4\r\nARbWOMaOzTiMYsA4ltfjOPeswjiGCNs4GgHeOJ5pzThMAs44k6fVOCASwzhJnMY4TAzSOJJY1TjG\r\nLdY4ykrWODJBwTin0ME4l5i7OBnWuDjgOb444d3FOEKqzDg+Vso4rAbOOM7Xyjg82rk4hLvHOEpz\r\nwDh8PMM4jRzIOBR0xThVMsE4Qtq/OA6HuTg0qs44ryi6OCLexziHKcM4nKDJOMFtuTjYVbY4rX3H\r\nOOb0wTg82sg4uu3FOII0wDg1eLw40XHAONnQxzimObg45yDBOJs1zTiVO7g4rPKzOK4GwjhaZb04\r\nO/y9OI5CwjgcKLE4mSfFOGe2pzjogb44gNC1OCb1tDiVq6848HW8OJmhvzg4Hrs406OmOIQDqTjl\r\nrZo4gvalOM66qDhr47M4+UG8OAXXsjjCSsI4VgqpOGVuoTh8ksk4HBeuOI4fszh0AKw4jTGxOEEl\r\npThziKw4Hn+iOLvBrjgPkrs40jqnOMNOrzhQI6I4FniVOOgcsDj0Apw4lq+vOIgArzgaZbM4HLOi\r\nOFcYpDjGmqc4CMKiOPHJmziPnKA44IWmOCqJnDh6z604uWauOGHYsTiGs5c4CGSVOMYEnTh+Pak4\r\nGJKYOIeeoDiKbJs4EDueONWooziPJ6o4YdaqOOjPkDgRZZ446qSyOGAxmjgD9qE44dOeOJpqmDgk\r\npq44yQSoOPw0lzjCyak4pEmiOIF3qzgbJ5s4/BygOKtfpzgYtJ04aZWZOHxGmDi0VLI4PGaXOISm\r\niThAw5o4yGioOLCDjzhEXJ44mnyeOFC6pDhu6Js486ikOM/XmTiVppk4XmuaOBLClzjFmIY4wk+O\r\nOBgApDh1/aA4YlWfOHRwpTjmlJg4XrKMODoFizgy5KM4bvSfOAr9jThHIJ04mZWZOIXKZzhw0Is4\r\n0+KiOIIqijgwlZM4GlaCOGGapTj1L5E4NjqeOI5JjTgGr5k4VBmDOJuOjDjCrZk4ckmBOGfPlziT\r\nuZM4Rm2AOGcMqzgKt544ZmyNOOLNkDg5DI44/paNOLm5jjh7eJE4jYyOOE0giTg40aQ4B3aIOMjE\r\nmDhNDYM4PGSGODkomDiW1Jo4CH2GOFL9kDht7oQ442uMOGtAjDi5Uow4ArOfOJGCiTh4C54485qI\r\nOCcPbDhnK5Y4HzqUOEiziTgqAoY48VeNOKmBjTiAcZI4fguHONQPjjiC2IU40PuNOEJfijhFKGw4\r\nHKyCOD7jkzgREYM4PC6GODFVizj2NIQ4ni2HOAxEiDh+UIA41i98OBK/gDjyjpI4EweJOOCEgzj+\r\nopQ4YHaPONCKmDhoKJo4Fn9yOHbgmTg6r5A44i2HOFcejji/o4o46nKVOH7Xjzhxu344/JWEOE1c\r\neThqs4o4nv+GODmFmzj9v5E4CU2WOAGEezizgog44S+UOJbNhzjCNHs4AFV/OPHehDiaUHM4iPyR\r\nOKRrbjhFU4w4I3GYOCHrjTho2ZE4PwOPOD5ZiDiDfI44qqKPOL2iizgseIk4HkCLOIUufDi9T4c4\r\n/35sOLcUkzh8+Ig40hRhONTpijj3uGw4C0SQOEJBgziJrYM4ubNvOG3WhThmP484dUh6OAAoeTg5\r\nIno42J6IOPgLgzh/OYc4fyllOKXjhjhsxFU4wcKROPv0ijhLy3U4dc9/OH5DaDgmfYk4RXmCOM8V\r\ndzhAJHw4m6eBOF0Rbzg2AH84T1h8OJMfczinC5A4AlaMOOLfRjiDMoQ4X4+CODh5hjhIw484eA6B\r\nOA1CkDiu1Y049r2NOLfUfjiIMoA4KGeNOJLFaDgZ0mc4FJ6AODT4VThtQ1c4EJaJOKAobziEUYU4\r\nTDh7OH5ocDiYKmA4SupvOKJuczg0kow4/997OBccbjh5KXg4odyJOF/ZbDjE6Xo4MaR2OFP4aDh9\r\n3II4DglgOIhHYTgG31845X9/ODqzXjjgGm04Hsp0OONMeThtroU4NfZ1ONTTdTj0Elk4fYeCOGfb\r\ngDht7m44ha9zOOYXgDi/nYE4JGWAOJRMcTijSYk4fhqNODcWYzjOfXI4bhxrONa7eTgcP184Xit9\r\nOHXEbTg1PFo43jNlONpLZjiCA4U4m2FYOB0WfDguqWQ4yZ6KOAonfDjI3Wc4NNhiOADlhjgc7l84\r\n2cuAONqyazisAYA4DGJ7OFk2fjgj/Ws4CzWBODZiczgdGoY4GtxROIXWhDh4omU4XY9sOPGZhjje\r\nsXE4zsp4ODWfdTg8d3Q4pPJvOPVjhTir2XE4ifR5OMfOaTgtB1w4Rk+FOEi8bDgwgXI4iCyAOA2g\r\nfTgfKGU4QHdjOOHOgDhaAYc4pu6EOBWadzjmnWk4SkyDOBxjfzhHe3M4M4xpOAQ/hzi7bWQ4Uqxv\r\nOIUkgzhRFoA424VdOFN8dDim0lM4FHp4OKQzgjiF5mg4LBRzOFLEgjiF2Fs4wU2EOIAAgTjQMsFA\r\ngd0cQWQXnz8O5wM/TCzNPnsqa0CAwL9Al4xWQI5T9j8Mz9lAyJ7PPi5dDD8uaw9A9vZdQQ/yW0AL\r\n5wU/BIQnP5uPET6L/Yc+hXWBPm3m2z7z3VM/fbWpP//iSkBhkVU/aExIQCfowD8P26Q/VMSQP3LE\r\nN0FyZbdA8ScgQAaMn0DRMB5BsbMiQYOpEEH4yhNA777UP1J9gkBXWf4/R64tPwELSj+0vrI/gIp3\r\nP1BPCkDjnf4+NDdFP6DFxz6hSDZAedo+P0KElT52Sdg/e945P7E4tD8JVZA/0v9XQDzFQ0BPNx5A\r\nETQLQCiKsD8gMgVAjNoGQE/pkUDrQa8/PPBXP2y1cz+RvGc/ZHtOQNu89T8M4z0/4NloP3W81T4q\r\nCYo+CCcmP3QwGkCEusg/nWyPPioMpD7K8sA+ijFvPsJ8/j1W4eE9ZJeoPiplJkDH4to+/fxvPhqB\r\n+z1uTu498KcaPpKggD5BgxI+fgkIP62joz6JCws+cHyhPTIo8D2ckEI+eCNDPh2Itj0lsYY8nClL\r\nPQx3tz3gbQk9DE9jPE4iLj14QtE922oJPbuNBz1QpjI9CPfXPTdphD6pY5U9sHEBPWJsQj1tKIU9\r\nr+QJPcFt9Dy8P3o9GiR6PaP3jj5iihs9r4x1PdwqAj0h3kE9TODOPBoNizw62js9lCWPPaiFlzwE\r\n9K485LUTPZl6QD3n6qM9yucZPSj5Cj3kzTU98zQRPVkqBD0j3gI9FBhDPNob+jwyijE9G6DyPAwR\r\nXT22nNA8BLtEPOWIejyDSLY8QBQUPXh+Aj0D5pE9MFj2PPD/1Txn1lo9MjkSPWo1Ez2vK6082FKE\r\nPNNEizyg1ow8J8hEPJpDBD3C6TI9EKZ9PXrtxD3oeNc8WXclPekGvj10vIk95+L+PCDaUT1bZQo9\r\nXr21PDCBAT3JqYg99ogYPa33Bj2kJZ48/r8rPfYArTwlkpU8YLSDPGkEqDxwz1E8lNF6PLT6rzwm\r\nAws9bbaLPHyHJD0lXMg8jw8QPZK2ljwmzz88BIKbPJG/hDxRpAo9RH85PJr+pjxI42A87uZmPZIE\r\nwzwosFw80QcYPIzd2DuhdTU8fDG1PIfAwT3ULFw9QKhvPNe6ZzyZnss8hKyHPNowGzxLmiM8G3fs\r\nPL0rRjzRmTM8PBDKO20P0Tv0JCw89sRpPJVrVTwvaJo8ZaCdPAdZ7Dudecg76+ZYPJ/xFDzFRyw8\r\nV0x3PDuFDD3Bcus8ECgwPCORjDyPUOE7FBywO30KCzzrBIE857Q3PaX/Cj2beSg81lOFO6TpTjx9\r\nlD08bdPkOxSsCzxX3yU8FiGgO82jhDyLGYM8jU3UPJvr8zv3E488rDX8PNd/MDwpomQ80fEXPEyi\r\nwjzmKSo9bDaoPO760DyEIhw8ZeinO9aVwzuzfxU8eLQ7PCH5nDvyWjo8W7yTPC8s2Du6Vpc79rqD\r\nPKaOjjysVP48EQufPF4zjjujJUI8V9OHO1tYQTxFoIM8tsOCPIjNIDz6gVY8+qgCPKRUjzsqxRs8\r\nktoNPGA2rjw3Ia47V5EkPDe8yTvxPX486euHO5gbgjygJVo8EAqxOyYSgzybvDQ8nnGkO3OoMDzc\r\n0bU83EUuPPNXpzsNXmo71uWmO/82XTsSgGk7ykVeO5b0fDuViBw8yQQ5PPFOgzx6Uo47iwN+O3lO\r\n5jtiw/87vOLKO2XaEjumvA88OtXJPFSmqTzQacY8uTAlPMOYeTsATcw66+lCOwNGUDtUg8U6zf9N\r\nO6c4gTogNZw6EanWOkTGozp8fhU7w7lFOs7b8jmtWRw66n8OOhS4cznKkBU65s6XOd49vzkM1Mo5\r\n60e5OblIkjmk5KM5I1fFOfnKvznMVXU5adqKOQjimzmwO6o5Fp0kOWlGLzk/m4857HWGOUbgZznY\r\nCUU5WS6WOWVZSDkjZlE52iB5OZqTXTkouDo5gZqSOdBaXDnK8ls5oFBxORDVdzkG4Hk59HBjOfg5\r\nSDm4XWM54R10Oe6NWTm8FVs59h9qObFOTDkar1s56BhmOTwbXTk7oFg5Qk1SOfVERzmjhFU5RKRH\r\nOZeURjk0qUM55GFMOUoXRznU8Uk5cs9KOUiyPzndSU054qJAOcqASzlwzDo5EKBGOT44QzmjvjQ5\r\nqlJMOYpHNTlTnUQ5p+o5OQJVRjmIfU85Tpo7OZdtQzmlOUA5as8xOSpgPzma6T45SBI2OUamOjnO\r\nWDs5ERJCOQBnMjk6x0A53sA0OWakLjlQXDc5fqghOZotMTlYKy05L9IvOdZJITnoySM5uO41Oc3W\r\nHTnnkiQ57uwhOaS7LTm8Kys5R6Q5Obj1MTlTISk5SO4nOQ+BLjlyfS05Xn0fOfp/GTnMpxo5KzMU\r\nOZ4ZHTn8aSY5FNYcOX5FIjmu3SE5vrgVOT1LJzmu3xo5H6okOUmKFzntgBo50i0dOTBJETkc/SQ5\r\nxqYROVuxFTn8vBc5yuoeOXzOGDn4DCE51KUkOc9bGzmY+gU5BvoeOblFBzmIFg05A3EQORj0Dzmg\r\nCxA5FjQWOUGvEjnEzRQ5ZdINORrBDjlyexg5ybkLOXZiBTnIZwU5+gwGOXBYFDlCGBo5mlEMOYo3\r\nBDnYOgU59qkAOY4P9ThoRAo5RkH+OIYiEjmyVwc5bvYGOZFiBzlf1QE5sgAGOaq8DjkuNgI5sRD+\r\nOK9r+DgaDOk4YfHiOH7h+Ti3gQk5QpX7OLPH8DhDhug4EsPyOH7/9DioE/A4FDf/OAAK+jhyzes4\r\nJcTtOLqlAjnOx/k4Zn8COURm8DjXz+w4s0joOCdf7zgHt+44ZET7OJpK4zgbWgU5bOTkONCX7DgS\r\n8AQ5JkT6ODBO/zgwPvE4kgkAOfNU+DgMleg4fJT7OJ9N4TiA/+046iXoOJIu7jj7I+I4ADL4OFEV\r\n6Ti7zeg4FwjVOJ3n0DhTMfY4QsrQOPK20zhqgtw4F5bjOPsz+ThFI7s4JjjaODUi1zgKJNc4raq7\r\nOLSr2jgweuc49ULhOCAp4DgcFNE43nnEOI61zziPf9E4Et7kOM284Dh0YMw43j3cOD7u1jgItsg4\r\ntgnYOLJZwDjgFdE4lNLeOJep3zihC8s4tKnMOOFvyjhnDdI4kITbOIw9xDgoRsY4eBHMOMX3zzgJ\r\nj8Y47hvOOE0VujjjesA47CPWOAAe2jgP4MU47LLKONRbszgYWNk4iv7AOFiVsjjYpMY4ogDLOFy2\r\nvDiFwcs4QB3FOIxBxjg+Or04HOHHOPFRwzijKbs4KuW/ODzmwzgCLsM4s2G8OKN9tTjnJsA4wgax\r\nOAhYwTgXt8k4mqfGOJ4WvzjUIs44GlDCOIxXwTj6jcQ4dxXDOPDltzjzlaI4pDK/OBD6rzj4s7s4\r\n+jPEOD3Ltjg+sbc4ysK1OH9SsThaja04nnWyOAChujiuh8A4b+a4OKEZpjgyo7A4V2m5OIovljiX\r\nNKs4PoKzOBRMrDhNErQ4Aj2zOCmFtjhYPag4JkihOMOwtjh92a04dC2lOA0cqDiN0ac4TGKkOOPi\r\npDj4R604+O+yOGSCwDh4y5o4pnmuOPN6nzgKM5c4KEe0OC7kmzixJb04JYqsOE9Brji4tpc4Inyh\r\nOFE3rTikw6Y4suOoOPwtnjiSkaI4khupOCRanjg0X7A4bBagOKG0rTjUVaQ4tLmdOOrekzjqVas4\r\npmajOAGAnDhC8a84vaCPOAMBnjhI8qg4/42bONJ1mThgdKI4QCaqODTSrDgWmKo44GOcOCaXsThq\r\nsqA41nKYOAgyqDjCOqs4aSefOGO0ozjpLpE49iumOJ2Sljjor5g4ZcubOCkmrTgrApc4ARybOFRT\r\nkTggl6U4ZIeROPIhoDjXyJI44OKfOLwJkzg7h6Q4SW2UOLVrkjg2SZE4qyuiOHIjjDhTapc4CICp\r\nOBquozi7I4g4hfWYOIxsoTioRpA4WVSZOMYWnTjdTqA4oBiTOCRunDhim6Y4/pKEOGNllziZH504\r\n8MOLONeCnTgedok4LXaYOIZKhjhUwq04Rx+aONjDlDhEqI44vTSMONv+hTi4qYI4RNedOL1pjTi+\r\nOp048SqnOLYqojgPOKE4ljKSOILvgjh/nZc4yy2SOJe0jjgZO4k4/s6IOBjJnDinboM4W/OZOE3q\r\nijig75k4AEuTOL/rizhuzIE4/cByOEtGnDhf3pU4YsCMOPl8izhhQJY4P0iPODulozi8+IY4RY+C\r\nOCGviThar5E4IsyOOOuPiTiKwoo4WmeOOIctjjiXC4s4ibqDOKh6eDhaC4c4PfKJOA7XizhYm344\r\nHIWiOGwzgzjYdo04a1ekOMnxgziCTYs4AauFOIXcazghLow4IleTOKOpjzhRh4I4QNyGOIhDlDgz\r\nKI84/3SSOClpnTi4yI44dBqPOJN9mjgzfIc4FkyNOLRchTiO84s49ct8ONoQZzjbbY84RoV3OLOq\r\nhTi9N4M4PIaXOEHGmzgOfYw4ZjCKOEHeizgIL4s46RFyOCFwfTh2I2s4dfWJOAbjiTh7n4Q4buxy\r\nOO98gDgDFJA4xlWCOC1sgDhoXYk4TceLOJKjkDjAsYQ4nA+PONXIgTjiC404Yq54OHGDjDgUC3k4\r\nuZWAOGDphjhcAmU4/72LOD0lgjgK2Is4IgaIOMCIgjgTnns4f2eDOPe8bThkgH04dA2DOBQNdjje\r\nRoA4qxaHOP81hTgQyXE44GaGOJR6gTgHM4g4kBuJOLkjbTg3S3E4806HOCi/gDh2LYA4mv6LONwC\r\ndzjhZ4M4DK1fOM5hgThTlWA4hluGONazfzgDBHs4tS5jOMq0gThKu4w4hvR7OK62fjjEGIk4vi+N\r\nOI70gDjJ1YI4sqKPOEZgbDjg/Y04R+F0OKS2aDhlFJA4WAFqOP/XZDhxS444RVpsOA3XdDjy+HU4\r\nHdtqODRvZjhRJWA4CGuDONP0fjhD9Xg4DCpnOJI/gjgyUpA4q+5TOEEkYzgxjY04uSFhOP9YgTgm\r\n3WQ4Io1hOO9VeDi9woM4tqByODnxaDiYlnI4jcB/OOgAdjh+CXI4ZnJqOBtRXjjbyH04ZIeBOBJc\r\neDjr0n84w8qJODaggDgNunM4wrSCOIzXfDi6YoI4fQZiOK4aYTju5YE4BZVfOKiLXDhUY3g45N11\r\nOH9OajgFuGc41pl6OA5sZjiGP0k4rw9iOH/3dzgTG4k4n5JeOIlEaTjJeIU4rxWCOB0xZDhmMYE4\r\nm7aCOG2VczhKIl04RaVnOEDgdTgwiGw4n8SAOGjUdTgyAWA4kpqIOO1peTi5pnQ4tdF+OPV3jTjZ\r\nKGk4hzlkOFNyhTi6WXY43e94OLBEbjizQ2E4uIRqOE0VbTgZ2HU4G3J8OHnFZTgk0GY4RBKCODBr\r\niDhzjHc4lbN5OGojeTi034E4/Ex5ODuueziHQ4c4HQ53OKqzizixomw4ufWKOMi+eDif72w48/SB\r\nODxGcTjj0F04yoNoOMQWZji4q3w4UtdzOMeXgjjTx4Q4OkBrONP1dzj4nHA4ADKKOA==",
                            "noiseTrainingType" : "default"
                          }
                        }
                    ],
                    "start" : 22289,
                    "duration" : 36,
                    "mediaStart" : 10593,
                    "mediaDuration" : 36,
                    "scalar" : 1,
                    "metadata" : {
                      "WinSubProjectDisplayName" : "",
                      "clipSpeedAttribute" : false
                    },
                    "animationTracks" : {

                    }
                  },
                  {
                    "id" : 365,
                    "_type" : "StitchedMedia",
                    "minMediaStart" : 0,
                    "attributes" : {
                      "ident" : "tower-05",
                      "gain" : 1.0,
                      "mixToMono" : false
                    },
                    "parameters" : {
                      "volume" : {
                        "type" : "double",
                        "keyframes" : [
                          {
                            "endTime" : 0,
                            "time" : 0,
                            "value" : 1.0,
                            "duration" : 0
                          },
                          {
                            "endTime" : 10335,
                            "time" : 10335,
                            "value" : 1.0,
                            "duration" : 0
                          }
                        ]
                      },
                      "cursorOpacity" : 1.0,
                      "cursorScale" : 1.0
                    },
                    "medias" : [
                        {
                          "id" : 366,
                          "_type" : "AMFile",
                          "src" : 5,
                          "trackNumber" : 1,
                          "attributes" : {
                            "ident" : "",
                            "sampleRate" : 44100,
                            "bitDepth" : 16,
                            "gain" : 1.0,
                            "mixToMono" : false
                          },
                            "channelNumber" : "0,1",
                          "effects" : [

                          ],
                          "start" : 0,
                          "duration" : 1383,
                          "mediaStart" : 0,
                          "mediaDuration" : 1383,
                          "scalar" : 1,
                          "metadata" : {
                            "WinSubProjectDisplayName" : ""
                          },
                          "animationTracks" : {

                          }
                        },
                        {
                          "id" : 367,
                          "_type" : "AMFile",
                          "src" : 5,
                          "trackNumber" : 1,
                          "attributes" : {
                            "ident" : "",
                            "sampleRate" : 44100,
                            "bitDepth" : 16,
                            "gain" : 1.0,
                            "mixToMono" : false
                          },
                            "channelNumber" : "0,1",
                          "effects" : [

                          ],
                          "start" : 1383,
                          "duration" : 2726,
                          "mediaStart" : 1406,
                          "mediaDuration" : 2726,
                          "scalar" : 1,
                          "metadata" : {
                            "WinSubProjectDisplayName" : ""
                          },
                          "animationTracks" : {

                          }
                        },
                        {
                          "id" : 368,
                          "_type" : "AMFile",
                          "src" : 5,
                          "trackNumber" : 1,
                          "attributes" : {
                            "ident" : "",
                            "sampleRate" : 44100,
                            "bitDepth" : 16,
                            "gain" : 1.0,
                            "mixToMono" : false
                          },
                            "channelNumber" : "0,1",
                          "effects" : [

                          ],
                          "start" : 4109,
                          "duration" : 424,
                          "mediaStart" : 4173,
                          "mediaDuration" : 424,
                          "scalar" : 1,
                          "metadata" : {
                            "WinSubProjectDisplayName" : ""
                          },
                          "animationTracks" : {

                          }
                        },
                        {
                          "id" : 369,
                          "_type" : "AMFile",
                          "src" : 5,
                          "trackNumber" : 1,
                          "attributes" : {
                            "ident" : "",
                            "sampleRate" : 44100,
                            "bitDepth" : 16,
                            "gain" : 1.0,
                            "mixToMono" : false
                          },
                            "channelNumber" : "0,1",
                          "effects" : [

                          ],
                          "start" : 4533,
                          "duration" : 139,
                          "mediaStart" : 4741,
                          "mediaDuration" : 139,
                          "scalar" : 1,
                          "metadata" : {
                            "WinSubProjectDisplayName" : ""
                          },
                          "animationTracks" : {

                          }
                        },
                        {
                          "id" : 370,
                          "_type" : "AMFile",
                          "src" : 5,
                          "trackNumber" : 1,
                          "attributes" : {
                            "ident" : "",
                            "sampleRate" : 44100,
                            "bitDepth" : 16,
                            "gain" : 1.0,
                            "mixToMono" : false
                          },
                            "channelNumber" : "0,1",
                          "effects" : [

                          ],
                          "start" : 4672,
                          "duration" : 212,
                          "mediaStart" : 5022,
                          "mediaDuration" : 212,
                          "scalar" : 1,
                          "metadata" : {
                            "WinSubProjectDisplayName" : ""
                          },
                          "animationTracks" : {

                          }
                        },
                        {
                          "id" : 371,
                          "_type" : "AMFile",
                          "src" : 5,
                          "trackNumber" : 1,
                          "attributes" : {
                            "ident" : "",
                            "sampleRate" : 44100,
                            "bitDepth" : 16,
                            "gain" : 1.0,
                            "mixToMono" : false
                          },
                            "channelNumber" : "0,1",
                          "effects" : [

                          ],
                          "start" : 4884,
                          "duration" : 634,
                          "mediaStart" : 5243,
                          "mediaDuration" : 634,
                          "scalar" : 1,
                          "metadata" : {
                            "WinSubProjectDisplayName" : ""
                          },
                          "animationTracks" : {

                          }
                        },
                        {
                          "id" : 372,
                          "_type" : "AMFile",
                          "src" : 5,
                          "trackNumber" : 1,
                          "attributes" : {
                            "ident" : "",
                            "sampleRate" : 44100,
                            "bitDepth" : 16,
                            "gain" : 1.0,
                            "mixToMono" : false
                          },
                            "channelNumber" : "0,1",
                          "effects" : [

                          ],
                          "start" : 5518,
                          "duration" : 3511,
                          "mediaStart" : 5894,
                          "mediaDuration" : 3511,
                          "scalar" : 1,
                          "metadata" : {
                            "WinSubProjectDisplayName" : ""
                          },
                          "animationTracks" : {

                          }
                        },
                        {
                          "id" : 373,
                          "_type" : "AMFile",
                          "src" : 5,
                          "trackNumber" : 1,
                          "attributes" : {
                            "ident" : "",
                            "sampleRate" : 44100,
                            "bitDepth" : 16,
                            "gain" : 1.0,
                            "mixToMono" : false
                          },
                            "channelNumber" : "0,1",
                          "effects" : [

                          ],
                          "start" : 9029,
                          "duration" : 45,
                          "mediaStart" : 9418,
                          "mediaDuration" : 45,
                          "scalar" : 1,
                          "metadata" : {
                            "WinSubProjectDisplayName" : ""
                          },
                          "animationTracks" : {

                          }
                        },
                        {
                          "id" : 374,
                          "_type" : "AMFile",
                          "src" : 5,
                          "trackNumber" : 1,
                          "attributes" : {
                            "ident" : "",
                            "sampleRate" : 44100,
                            "bitDepth" : 16,
                            "gain" : 1.0,
                            "mixToMono" : false
                          },
                            "channelNumber" : "0,1",
                          "effects" : [

                          ],
                          "start" : 9074,
                          "duration" : 90,
                          "mediaStart" : 9508,
                          "mediaDuration" : 90,
                          "scalar" : 1,
                          "metadata" : {
                            "WinSubProjectDisplayName" : ""
                          },
                          "animationTracks" : {

                          }
                        },
                        {
                          "id" : 375,
                          "_type" : "AMFile",
                          "src" : 5,
                          "trackNumber" : 1,
                          "attributes" : {
                            "ident" : "",
                            "sampleRate" : 44100,
                            "bitDepth" : 16,
                            "gain" : 1.0,
                            "mixToMono" : false
                          },
                            "channelNumber" : "0,1",
                          "effects" : [

                          ],
                          "start" : 9164,
                          "duration" : 6190,
                          "mediaStart" : 9606,
                          "mediaDuration" : 6190,
                          "scalar" : 1,
                          "metadata" : {
                            "WinSubProjectDisplayName" : ""
                          },
                          "animationTracks" : {

                          }
                        }
                    ],
                    "effects" : [
                        {
                          "effectName" : "NoiseReduction",
                          "category" : "categoryAudioEffects",
                          "parameters" : {
                            "denoiserAmount" : 20.0,
                            "denoiserThreshold" : 0.0,
                            "noiseProfile" : "0DLBQIHdHEFkF58/DucDP0ozzT57KmtAgMC/QJeMVkBqXPY/DM/ZQMiezz4uXQw/LmsPQAr6XUGb\r\n61tADcoFP5xdJz9feBE+k96HPoV1gT5t5ts+891TP321qT//4kpAYZFVP/Y5SEBV+cA/y9mkP1TE\r\nkD/IwDdBlGu3QPEnIECKjZ9A9zQeQR6sIkGDqRBB+MoTQPG91D8HiIJAV1n+P6aiLT8BC0o/tL6y\r\nP4CKdz+TTwpAgu3+PkNWRT+gxcc+oUg2QHnaPj+xh5U+dknYPzLVOT+xOLQ/CVWQP9L/V0A8xUNA\r\nPD0eQBE0C0C2arA/IDIFQIzaBkBP6ZFAYESvPzzwVz9stXM/LdNnP2R7TkDbvPU/3LQ9P2b3aD9/\r\nmdU+KgmKPggnJj9cFxpA+r7IP2xSjz7uI6Q+OPvAPooxbz7i1P49VuHhPVCFqD7keyZAx+LaPlz+\r\nbz6Fdvs9U1juPU5/Gj4RaoA+nEsSPn4JCD++RKM+d6QKPnB8oT0yKPA9nJBCPngjQz6ubLY9ileG\r\nPPKgSj1Jxbc94G0JPQxPYzwmXi092efQPdtqCT27jQc9Ky4yPXjt1z3+Y4Q+qWOVPRtdAT1ibEI9\r\nbSiFPa/kCT29bPQ8t1R6PWIuej338o4+YoobPVYHdT3irwI9Id5BPVQizzyal4o8Oto7PZQljz3V\r\nVZc8BPSuPOS1Ez1OsUA95umjPcrnGT0o+Qo95M01PRHiED31CgU9I94CPbQJQzzaG/o8ONkxPUKJ\r\n8zwMEV09eMDQPBrVQjzliHo8g0i2PEAUFD0MYwI9A+aRPWZo9jznDdY8L6VbPTI5Ej1qNRM9D5qt\r\nPNhShDzTRIs8oNaMPNNNRDzbawQ9wukyPRCmfT167cQ96HjXPFl3JT3pBr49dLyJPefi/jwg2lE9\r\nW2UKPV69tTzDfAA979SIPfaIGD2t9wY9pCWePJvaKz0PsKs81p2VPJCygzwfY6g8aMFRPDbiejy0\r\niq88JgMLPW22izx8hyQ9JVzIPEIyED0kHZc8kANAPASCmzyRv4Q8UaQKPaDdOTya/qY8SONgPO7m\r\nZj2SBMM8St5bPMcEFzySSNo7oXU1PIkPtTyHwME91CxcPbHibzzXumc8mZ7LPISshzzP8xs82rQj\r\nPBt37Dy9K0Y82igzPCOeyjttD9E7ffAqPBVpajyVa1U8L2iaPGWgnTwHWew7nXnIO3F0WTyf8RQ8\r\ncJ4rPFdMdzys2Qw9uZnrPBAoMDwjkYw8ZSrhO/YQrTvamQo86wSBPOe0Nz2l/wo9m3koPNV4hTsy\r\nH088fZQ9PLqm5Du70Qw8V98lPJuToDvGLYU81seCPI1N1DxMYPM79xOPPKw1/DzXfzA8KaJkPNHx\r\nFzwUl8M85ikqPTntpzzko9A8hCIcPGXopzvWlcM7H2AVPHi0OzybEZ47v2A6PPGfkzwEStg7ulaX\r\nO9ozhDymjo48xoL+PBELnzy7Co07q9xBPFfThzsPfUE8RaCDPL6FgjyIzSA8+oFWPLHJAjykVI87\r\nKsUbPJLaDTxgNq48I8asO1eRJDw3iso7flx+PNXbiDv0r4E8oCVaPBAKsTue9oE8wyc0PCIKpTtz\r\nqDA83NG1PNxFLjyyaac7A/NoOy3vpjs2ul87YvhsO+SNXzu82Hw78QEcPMkEOTxIsoM8elKOO4sD\r\nfjuwZ+Y7Fkz/O5JKyztCihU7prwPPDrVyTx0Bao80GnGPLkwJTzykXg7AE3MOuvpQjuwUVA7VIPF\r\nOsqWTjskaoE6vVaZOj+m0DpDQJ86vAAXOxrIRjrO2/I5rVkcOjy2DjoUuHM5HikWOgDpmzk2qrg5\r\nDNTKOQuAwTlKYZA5RZqnOcC+vjl6IMI5trduOaJGkTnid6E5QBqnOWXiHTk5Q0I5GJ2SOReokDmO\r\nrVE5spNOOYKTcznOllU5MAVuOWJaXTnR5VU5SgdqOcFKizm96m059pCAOWJxbzk2i2g5duKBOeQ3\r\nQznIUHc5w6hdOXh0RTkpQXg52sxvOSZKdzlqc2Q52JF4OUQXXjnwr1A5pItXOeI4Pzn1C3E5WM1V\r\nOUJGNTn2vE85yJNLOZZxQjmEDlI5hVJROWh6RTms10M5uQ88ObaQPTkQxUw5XUc2OedjPznSh0k5\r\n+jsyOdz8RDlbkS85BqlKOcVYQDnqsko5sm5DOeajPDlcFzc5MME0Ob87Lznq5Tg5nu43OY6rODmo\r\nKzk5HGw4OVduRTkqpDU5g8ssOY0ELTnQrDg5iNQzObkKJTlGsi05NnwuOaIULTn83zI5T3YkOTIj\r\nMTlKuyI5NOIeOYqlHDmukjU5Xs8kOaCrNDk7jDI5q8AoObeyLDnq/yY53uMlOUm3HDm0wR45ki8b\r\nOdfnFjkorCE5xLUeOZwEJDlw8CE5DNMhORyQFTnach05/zwgOfPAFDnqFho5guUjOVjtHjlo1Q05\r\nWjgaOWIAFDnmZgo5QxMSOYPdJDmTFRY5tH8WOWYODzl8Hg85Tw0ROU4qEjl+ShA5COIHOSWGCTmV\r\nBRM5JNMUOUSVCTkFiQ45Cs4OOYIeCznAxQk5JI0POa5CDzlWqw45JesQOQxZCDm89xw59qMSOfIK\r\nDDnLmgc5N33+OKKnCTkevvo4Sf8GOYQpDDmV2ws5NKgKOe7XBTk8ogg5n0kFOS55BDnY2wk5D0IE\r\nOSNFATnVZgU5fCf+OGi+9jiYhQQ5IzEBOdCV9jiuDQY5Eq/pOE6W8jhG3uk4WiP+OMD8BjmAgPE4\r\ncTHqOOTE9TjRUvA4KEj5OGp+Ajl8XOQ4WyPnOP5b+DgiSfE4OFzrOF1rATmsceI4O9YDObiw9ThT\r\nhfU4s1DzOGcR/Timm+o4rIj/OOH/9jinhPA44urWOGrn9jiWSfI4NuL3OIIPzji1Les4sB7dOKxP\r\n+ThAE+o4QJjdOERe8Tiwe8U42mTmOGIJ1TjJDt84UEXhOLyD2zjEfu04dezVOK033DgOZcQ4jyTb\r\nOIq+4jgC/tw4zmLjODrj1jhCyNc4A+fKOFyBzjgEBdU49TfcOFdG4DhqGMM4HFvQOG6UzTh4I9I4\r\nARbWOMaOzTiMYsA4ltfjOPeswjiGCNs4GgHeOJ5pzThMAs44k6fVOCASwzhJnMY4TAzSOJJY1TjG\r\nLdY4ykrWODJBwTin0ME4l5i7OBnWuDjgOb444d3FOEKqzDg+Vso4rAbOOM7Xyjg82rk4hLvHOEpz\r\nwDh8PMM4jRzIOBR0xThVMsE4Qtq/OA6HuTg0qs44ryi6OCLexziHKcM4nKDJOMFtuTjYVbY4rX3H\r\nOOb0wTg82sg4uu3FOII0wDg1eLw40XHAONnQxzimObg45yDBOJs1zTiVO7g4rPKzOK4GwjhaZb04\r\nO/y9OI5CwjgcKLE4mSfFOGe2pzjogb44gNC1OCb1tDiVq6848HW8OJmhvzg4Hrs406OmOIQDqTjl\r\nrZo4gvalOM66qDhr47M4+UG8OAXXsjjCSsI4VgqpOGVuoTh8ksk4HBeuOI4fszh0AKw4jTGxOEEl\r\npThziKw4Hn+iOLvBrjgPkrs40jqnOMNOrzhQI6I4FniVOOgcsDj0Apw4lq+vOIgArzgaZbM4HLOi\r\nOFcYpDjGmqc4CMKiOPHJmziPnKA44IWmOCqJnDh6z604uWauOGHYsTiGs5c4CGSVOMYEnTh+Pak4\r\nGJKYOIeeoDiKbJs4EDueONWooziPJ6o4YdaqOOjPkDgRZZ446qSyOGAxmjgD9qE44dOeOJpqmDgk\r\npq44yQSoOPw0lzjCyak4pEmiOIF3qzgbJ5s4/BygOKtfpzgYtJ04aZWZOHxGmDi0VLI4PGaXOISm\r\niThAw5o4yGioOLCDjzhEXJ44mnyeOFC6pDhu6Js486ikOM/XmTiVppk4XmuaOBLClzjFmIY4wk+O\r\nOBgApDh1/aA4YlWfOHRwpTjmlJg4XrKMODoFizgy5KM4bvSfOAr9jThHIJ04mZWZOIXKZzhw0Is4\r\n0+KiOIIqijgwlZM4GlaCOGGapTj1L5E4NjqeOI5JjTgGr5k4VBmDOJuOjDjCrZk4ckmBOGfPlziT\r\nuZM4Rm2AOGcMqzgKt544ZmyNOOLNkDg5DI44/paNOLm5jjh7eJE4jYyOOE0giTg40aQ4B3aIOMjE\r\nmDhNDYM4PGSGODkomDiW1Jo4CH2GOFL9kDht7oQ442uMOGtAjDi5Uow4ArOfOJGCiTh4C54485qI\r\nOCcPbDhnK5Y4HzqUOEiziTgqAoY48VeNOKmBjTiAcZI4fguHONQPjjiC2IU40PuNOEJfijhFKGw4\r\nHKyCOD7jkzgREYM4PC6GODFVizj2NIQ4ni2HOAxEiDh+UIA41i98OBK/gDjyjpI4EweJOOCEgzj+\r\nopQ4YHaPONCKmDhoKJo4Fn9yOHbgmTg6r5A44i2HOFcejji/o4o46nKVOH7Xjzhxu344/JWEOE1c\r\neThqs4o4nv+GODmFmzj9v5E4CU2WOAGEezizgog44S+UOJbNhzjCNHs4AFV/OPHehDiaUHM4iPyR\r\nOKRrbjhFU4w4I3GYOCHrjTho2ZE4PwOPOD5ZiDiDfI44qqKPOL2iizgseIk4HkCLOIUufDi9T4c4\r\n/35sOLcUkzh8+Ig40hRhONTpijj3uGw4C0SQOEJBgziJrYM4ubNvOG3WhThmP484dUh6OAAoeTg5\r\nIno42J6IOPgLgzh/OYc4fyllOKXjhjhsxFU4wcKROPv0ijhLy3U4dc9/OH5DaDgmfYk4RXmCOM8V\r\ndzhAJHw4m6eBOF0Rbzg2AH84T1h8OJMfczinC5A4AlaMOOLfRjiDMoQ4X4+CODh5hjhIw484eA6B\r\nOA1CkDiu1Y049r2NOLfUfjiIMoA4KGeNOJLFaDgZ0mc4FJ6AODT4VThtQ1c4EJaJOKAobziEUYU4\r\nTDh7OH5ocDiYKmA4SupvOKJuczg0kow4/997OBccbjh5KXg4odyJOF/ZbDjE6Xo4MaR2OFP4aDh9\r\n3II4DglgOIhHYTgG31845X9/ODqzXjjgGm04Hsp0OONMeThtroU4NfZ1ONTTdTj0Elk4fYeCOGfb\r\ngDht7m44ha9zOOYXgDi/nYE4JGWAOJRMcTijSYk4fhqNODcWYzjOfXI4bhxrONa7eTgcP184Xit9\r\nOHXEbTg1PFo43jNlONpLZjiCA4U4m2FYOB0WfDguqWQ4yZ6KOAonfDjI3Wc4NNhiOADlhjgc7l84\r\n2cuAONqyazisAYA4DGJ7OFk2fjgj/Ws4CzWBODZiczgdGoY4GtxROIXWhDh4omU4XY9sOPGZhjje\r\nsXE4zsp4ODWfdTg8d3Q4pPJvOPVjhTir2XE4ifR5OMfOaTgtB1w4Rk+FOEi8bDgwgXI4iCyAOA2g\r\nfTgfKGU4QHdjOOHOgDhaAYc4pu6EOBWadzjmnWk4SkyDOBxjfzhHe3M4M4xpOAQ/hzi7bWQ4Uqxv\r\nOIUkgzhRFoA424VdOFN8dDim0lM4FHp4OKQzgjiF5mg4LBRzOFLEgjiF2Fs4wU2EOIAAgTjQMsFA\r\ngd0cQWQXnz8O5wM/TCzNPnsqa0CAwL9Al4xWQI5T9j8Mz9lAyJ7PPi5dDD8uaw9A9vZdQQ/yW0AL\r\n5wU/BIQnP5uPET6L/Yc+hXWBPm3m2z7z3VM/fbWpP//iSkBhkVU/aExIQCfowD8P26Q/VMSQP3LE\r\nN0FyZbdA8ScgQAaMn0DRMB5BsbMiQYOpEEH4yhNA777UP1J9gkBXWf4/R64tPwELSj+0vrI/gIp3\r\nP1BPCkDjnf4+NDdFP6DFxz6hSDZAedo+P0KElT52Sdg/e945P7E4tD8JVZA/0v9XQDzFQ0BPNx5A\r\nETQLQCiKsD8gMgVAjNoGQE/pkUDrQa8/PPBXP2y1cz+RvGc/ZHtOQNu89T8M4z0/4NloP3W81T4q\r\nCYo+CCcmP3QwGkCEusg/nWyPPioMpD7K8sA+ijFvPsJ8/j1W4eE9ZJeoPiplJkDH4to+/fxvPhqB\r\n+z1uTu498KcaPpKggD5BgxI+fgkIP62joz6JCws+cHyhPTIo8D2ckEI+eCNDPh2Itj0lsYY8nClL\r\nPQx3tz3gbQk9DE9jPE4iLj14QtE922oJPbuNBz1QpjI9CPfXPTdphD6pY5U9sHEBPWJsQj1tKIU9\r\nr+QJPcFt9Dy8P3o9GiR6PaP3jj5iihs9r4x1PdwqAj0h3kE9TODOPBoNizw62js9lCWPPaiFlzwE\r\n9K485LUTPZl6QD3n6qM9yucZPSj5Cj3kzTU98zQRPVkqBD0j3gI9FBhDPNob+jwyijE9G6DyPAwR\r\nXT22nNA8BLtEPOWIejyDSLY8QBQUPXh+Aj0D5pE9MFj2PPD/1Txn1lo9MjkSPWo1Ez2vK6082FKE\r\nPNNEizyg1ow8J8hEPJpDBD3C6TI9EKZ9PXrtxD3oeNc8WXclPekGvj10vIk95+L+PCDaUT1bZQo9\r\nXr21PDCBAT3JqYg99ogYPa33Bj2kJZ48/r8rPfYArTwlkpU8YLSDPGkEqDxwz1E8lNF6PLT6rzwm\r\nAws9bbaLPHyHJD0lXMg8jw8QPZK2ljwmzz88BIKbPJG/hDxRpAo9RH85PJr+pjxI42A87uZmPZIE\r\nwzwosFw80QcYPIzd2DuhdTU8fDG1PIfAwT3ULFw9QKhvPNe6ZzyZnss8hKyHPNowGzxLmiM8G3fs\r\nPL0rRjzRmTM8PBDKO20P0Tv0JCw89sRpPJVrVTwvaJo8ZaCdPAdZ7Dudecg76+ZYPJ/xFDzFRyw8\r\nV0x3PDuFDD3Bcus8ECgwPCORjDyPUOE7FBywO30KCzzrBIE857Q3PaX/Cj2beSg81lOFO6TpTjx9\r\nlD08bdPkOxSsCzxX3yU8FiGgO82jhDyLGYM8jU3UPJvr8zv3E488rDX8PNd/MDwpomQ80fEXPEyi\r\nwjzmKSo9bDaoPO760DyEIhw8ZeinO9aVwzuzfxU8eLQ7PCH5nDvyWjo8W7yTPC8s2Du6Vpc79rqD\r\nPKaOjjysVP48EQufPF4zjjujJUI8V9OHO1tYQTxFoIM8tsOCPIjNIDz6gVY8+qgCPKRUjzsqxRs8\r\nktoNPGA2rjw3Ia47V5EkPDe8yTvxPX486euHO5gbgjygJVo8EAqxOyYSgzybvDQ8nnGkO3OoMDzc\r\n0bU83EUuPPNXpzsNXmo71uWmO/82XTsSgGk7ykVeO5b0fDuViBw8yQQ5PPFOgzx6Uo47iwN+O3lO\r\n5jtiw/87vOLKO2XaEjumvA88OtXJPFSmqTzQacY8uTAlPMOYeTsATcw66+lCOwNGUDtUg8U6zf9N\r\nO6c4gTogNZw6EanWOkTGozp8fhU7w7lFOs7b8jmtWRw66n8OOhS4cznKkBU65s6XOd49vzkM1Mo5\r\n60e5OblIkjmk5KM5I1fFOfnKvznMVXU5adqKOQjimzmwO6o5Fp0kOWlGLzk/m4857HWGOUbgZznY\r\nCUU5WS6WOWVZSDkjZlE52iB5OZqTXTkouDo5gZqSOdBaXDnK8ls5oFBxORDVdzkG4Hk59HBjOfg5\r\nSDm4XWM54R10Oe6NWTm8FVs59h9qObFOTDkar1s56BhmOTwbXTk7oFg5Qk1SOfVERzmjhFU5RKRH\r\nOZeURjk0qUM55GFMOUoXRznU8Uk5cs9KOUiyPzndSU054qJAOcqASzlwzDo5EKBGOT44QzmjvjQ5\r\nqlJMOYpHNTlTnUQ5p+o5OQJVRjmIfU85Tpo7OZdtQzmlOUA5as8xOSpgPzma6T45SBI2OUamOjnO\r\nWDs5ERJCOQBnMjk6x0A53sA0OWakLjlQXDc5fqghOZotMTlYKy05L9IvOdZJITnoySM5uO41Oc3W\r\nHTnnkiQ57uwhOaS7LTm8Kys5R6Q5Obj1MTlTISk5SO4nOQ+BLjlyfS05Xn0fOfp/GTnMpxo5KzMU\r\nOZ4ZHTn8aSY5FNYcOX5FIjmu3SE5vrgVOT1LJzmu3xo5H6okOUmKFzntgBo50i0dOTBJETkc/SQ5\r\nxqYROVuxFTn8vBc5yuoeOXzOGDn4DCE51KUkOc9bGzmY+gU5BvoeOblFBzmIFg05A3EQORj0Dzmg\r\nCxA5FjQWOUGvEjnEzRQ5ZdINORrBDjlyexg5ybkLOXZiBTnIZwU5+gwGOXBYFDlCGBo5mlEMOYo3\r\nBDnYOgU59qkAOY4P9ThoRAo5RkH+OIYiEjmyVwc5bvYGOZFiBzlf1QE5sgAGOaq8DjkuNgI5sRD+\r\nOK9r+DgaDOk4YfHiOH7h+Ti3gQk5QpX7OLPH8DhDhug4EsPyOH7/9DioE/A4FDf/OAAK+jhyzes4\r\nJcTtOLqlAjnOx/k4Zn8COURm8DjXz+w4s0joOCdf7zgHt+44ZET7OJpK4zgbWgU5bOTkONCX7DgS\r\n8AQ5JkT6ODBO/zgwPvE4kgkAOfNU+DgMleg4fJT7OJ9N4TiA/+046iXoOJIu7jj7I+I4ADL4OFEV\r\n6Ti7zeg4FwjVOJ3n0DhTMfY4QsrQOPK20zhqgtw4F5bjOPsz+ThFI7s4JjjaODUi1zgKJNc4raq7\r\nOLSr2jgweuc49ULhOCAp4DgcFNE43nnEOI61zziPf9E4Et7kOM284Dh0YMw43j3cOD7u1jgItsg4\r\ntgnYOLJZwDjgFdE4lNLeOJep3zihC8s4tKnMOOFvyjhnDdI4kITbOIw9xDgoRsY4eBHMOMX3zzgJ\r\nj8Y47hvOOE0VujjjesA47CPWOAAe2jgP4MU47LLKONRbszgYWNk4iv7AOFiVsjjYpMY4ogDLOFy2\r\nvDiFwcs4QB3FOIxBxjg+Or04HOHHOPFRwzijKbs4KuW/ODzmwzgCLsM4s2G8OKN9tTjnJsA4wgax\r\nOAhYwTgXt8k4mqfGOJ4WvzjUIs44GlDCOIxXwTj6jcQ4dxXDOPDltzjzlaI4pDK/OBD6rzj4s7s4\r\n+jPEOD3Ltjg+sbc4ysK1OH9SsThaja04nnWyOAChujiuh8A4b+a4OKEZpjgyo7A4V2m5OIovljiX\r\nNKs4PoKzOBRMrDhNErQ4Aj2zOCmFtjhYPag4JkihOMOwtjh92a04dC2lOA0cqDiN0ac4TGKkOOPi\r\npDj4R604+O+yOGSCwDh4y5o4pnmuOPN6nzgKM5c4KEe0OC7kmzixJb04JYqsOE9Brji4tpc4Inyh\r\nOFE3rTikw6Y4suOoOPwtnjiSkaI4khupOCRanjg0X7A4bBagOKG0rTjUVaQ4tLmdOOrekzjqVas4\r\npmajOAGAnDhC8a84vaCPOAMBnjhI8qg4/42bONJ1mThgdKI4QCaqODTSrDgWmKo44GOcOCaXsThq\r\nsqA41nKYOAgyqDjCOqs4aSefOGO0ozjpLpE49iumOJ2Sljjor5g4ZcubOCkmrTgrApc4ARybOFRT\r\nkTggl6U4ZIeROPIhoDjXyJI44OKfOLwJkzg7h6Q4SW2UOLVrkjg2SZE4qyuiOHIjjDhTapc4CICp\r\nOBquozi7I4g4hfWYOIxsoTioRpA4WVSZOMYWnTjdTqA4oBiTOCRunDhim6Y4/pKEOGNllziZH504\r\n8MOLONeCnTgedok4LXaYOIZKhjhUwq04Rx+aONjDlDhEqI44vTSMONv+hTi4qYI4RNedOL1pjTi+\r\nOp048SqnOLYqojgPOKE4ljKSOILvgjh/nZc4yy2SOJe0jjgZO4k4/s6IOBjJnDinboM4W/OZOE3q\r\nijig75k4AEuTOL/rizhuzIE4/cByOEtGnDhf3pU4YsCMOPl8izhhQJY4P0iPODulozi8+IY4RY+C\r\nOCGviThar5E4IsyOOOuPiTiKwoo4WmeOOIctjjiXC4s4ibqDOKh6eDhaC4c4PfKJOA7XizhYm344\r\nHIWiOGwzgzjYdo04a1ekOMnxgziCTYs4AauFOIXcazghLow4IleTOKOpjzhRh4I4QNyGOIhDlDgz\r\nKI84/3SSOClpnTi4yI44dBqPOJN9mjgzfIc4FkyNOLRchTiO84s49ct8ONoQZzjbbY84RoV3OLOq\r\nhTi9N4M4PIaXOEHGmzgOfYw4ZjCKOEHeizgIL4s46RFyOCFwfTh2I2s4dfWJOAbjiTh7n4Q4buxy\r\nOO98gDgDFJA4xlWCOC1sgDhoXYk4TceLOJKjkDjAsYQ4nA+PONXIgTjiC404Yq54OHGDjDgUC3k4\r\nuZWAOGDphjhcAmU4/72LOD0lgjgK2Is4IgaIOMCIgjgTnns4f2eDOPe8bThkgH04dA2DOBQNdjje\r\nRoA4qxaHOP81hTgQyXE44GaGOJR6gTgHM4g4kBuJOLkjbTg3S3E4806HOCi/gDh2LYA4mv6LONwC\r\ndzjhZ4M4DK1fOM5hgThTlWA4hluGONazfzgDBHs4tS5jOMq0gThKu4w4hvR7OK62fjjEGIk4vi+N\r\nOI70gDjJ1YI4sqKPOEZgbDjg/Y04R+F0OKS2aDhlFJA4WAFqOP/XZDhxS444RVpsOA3XdDjy+HU4\r\nHdtqODRvZjhRJWA4CGuDONP0fjhD9Xg4DCpnOJI/gjgyUpA4q+5TOEEkYzgxjY04uSFhOP9YgTgm\r\n3WQ4Io1hOO9VeDi9woM4tqByODnxaDiYlnI4jcB/OOgAdjh+CXI4ZnJqOBtRXjjbyH04ZIeBOBJc\r\neDjr0n84w8qJODaggDgNunM4wrSCOIzXfDi6YoI4fQZiOK4aYTju5YE4BZVfOKiLXDhUY3g45N11\r\nOH9OajgFuGc41pl6OA5sZjiGP0k4rw9iOH/3dzgTG4k4n5JeOIlEaTjJeIU4rxWCOB0xZDhmMYE4\r\nm7aCOG2VczhKIl04RaVnOEDgdTgwiGw4n8SAOGjUdTgyAWA4kpqIOO1peTi5pnQ4tdF+OPV3jTjZ\r\nKGk4hzlkOFNyhTi6WXY43e94OLBEbjizQ2E4uIRqOE0VbTgZ2HU4G3J8OHnFZTgk0GY4RBKCODBr\r\niDhzjHc4lbN5OGojeTi034E4/Ex5ODuueziHQ4c4HQ53OKqzizixomw4ufWKOMi+eDif72w48/SB\r\nODxGcTjj0F04yoNoOMQWZji4q3w4UtdzOMeXgjjTx4Q4OkBrONP1dzj4nHA4ADKKOA==",
                            "noiseTrainingType" : "default"
                          }
                        }
                    ],
                    "start" : 22325,
                    "duration" : 255,
                    "mediaStart" : 10668,
                    "mediaDuration" : 255,
                    "scalar" : 1,
                    "metadata" : {
                      "WinSubProjectDisplayName" : "",
                      "clipSpeedAttribute" : false
                    },
                    "animationTracks" : {

                    }
                  },
                  {
                    "id" : 376,
                    "_type" : "StitchedMedia",
                    "minMediaStart" : 0,
                    "attributes" : {
                      "ident" : "tower-05",
                      "gain" : 1.0,
                      "mixToMono" : false
                    },
                    "parameters" : {
                      "volume" : {
                        "type" : "double",
                        "keyframes" : [
                          {
                            "endTime" : 0,
                            "time" : 0,
                            "value" : 1.0,
                            "duration" : 0
                          },
                          {
                            "endTime" : 10335,
                            "time" : 10335,
                            "value" : 1.0,
                            "duration" : 0
                          }
                        ]
                      },
                      "cursorOpacity" : 1.0,
                      "cursorScale" : 1.0
                    },
                    "medias" : [
                        {
                          "id" : 377,
                          "_type" : "AMFile",
                          "src" : 5,
                          "trackNumber" : 1,
                          "attributes" : {
                            "ident" : "",
                            "sampleRate" : 44100,
                            "bitDepth" : 16,
                            "gain" : 1.0,
                            "mixToMono" : false
                          },
                            "channelNumber" : "0,1",
                          "effects" : [

                          ],
                          "start" : 0,
                          "duration" : 1383,
                          "mediaStart" : 0,
                          "mediaDuration" : 1383,
                          "scalar" : 1,
                          "metadata" : {
                            "WinSubProjectDisplayName" : ""
                          },
                          "animationTracks" : {

                          }
                        },
                        {
                          "id" : 378,
                          "_type" : "AMFile",
                          "src" : 5,
                          "trackNumber" : 1,
                          "attributes" : {
                            "ident" : "",
                            "sampleRate" : 44100,
                            "bitDepth" : 16,
                            "gain" : 1.0,
                            "mixToMono" : false
                          },
                            "channelNumber" : "0,1",
                          "effects" : [

                          ],
                          "start" : 1383,
                          "duration" : 2726,
                          "mediaStart" : 1406,
                          "mediaDuration" : 2726,
                          "scalar" : 1,
                          "metadata" : {
                            "WinSubProjectDisplayName" : ""
                          },
                          "animationTracks" : {

                          }
                        },
                        {
                          "id" : 379,
                          "_type" : "AMFile",
                          "src" : 5,
                          "trackNumber" : 1,
                          "attributes" : {
                            "ident" : "",
                            "sampleRate" : 44100,
                            "bitDepth" : 16,
                            "gain" : 1.0,
                            "mixToMono" : false
                          },
                            "channelNumber" : "0,1",
                          "effects" : [

                          ],
                          "start" : 4109,
                          "duration" : 424,
                          "mediaStart" : 4173,
                          "mediaDuration" : 424,
                          "scalar" : 1,
                          "metadata" : {
                            "WinSubProjectDisplayName" : ""
                          },
                          "animationTracks" : {

                          }
                        },
                        {
                          "id" : 380,
                          "_type" : "AMFile",
                          "src" : 5,
                          "trackNumber" : 1,
                          "attributes" : {
                            "ident" : "",
                            "sampleRate" : 44100,
                            "bitDepth" : 16,
                            "gain" : 1.0,
                            "mixToMono" : false
                          },
                            "channelNumber" : "0,1",
                          "effects" : [

                          ],
                          "start" : 4533,
                          "duration" : 139,
                          "mediaStart" : 4741,
                          "mediaDuration" : 139,
                          "scalar" : 1,
                          "metadata" : {
                            "WinSubProjectDisplayName" : ""
                          },
                          "animationTracks" : {

                          }
                        },
                        {
                          "id" : 381,
                          "_type" : "AMFile",
                          "src" : 5,
                          "trackNumber" : 1,
                          "attributes" : {
                            "ident" : "",
                            "sampleRate" : 44100,
                            "bitDepth" : 16,
                            "gain" : 1.0,
                            "mixToMono" : false
                          },
                            "channelNumber" : "0,1",
                          "effects" : [

                          ],
                          "start" : 4672,
                          "duration" : 212,
                          "mediaStart" : 5022,
                          "mediaDuration" : 212,
                          "scalar" : 1,
                          "metadata" : {
                            "WinSubProjectDisplayName" : ""
                          },
                          "animationTracks" : {

                          }
                        },
                        {
                          "id" : 382,
                          "_type" : "AMFile",
                          "src" : 5,
                          "trackNumber" : 1,
                          "attributes" : {
                            "ident" : "",
                            "sampleRate" : 44100,
                            "bitDepth" : 16,
                            "gain" : 1.0,
                            "mixToMono" : false
                          },
                            "channelNumber" : "0,1",
                          "effects" : [

                          ],
                          "start" : 4884,
                          "duration" : 634,
                          "mediaStart" : 5243,
                          "mediaDuration" : 634,
                          "scalar" : 1,
                          "metadata" : {
                            "WinSubProjectDisplayName" : ""
                          },
                          "animationTracks" : {

                          }
                        },
                        {
                          "id" : 383,
                          "_type" : "AMFile",
                          "src" : 5,
                          "trackNumber" : 1,
                          "attributes" : {
                            "ident" : "",
                            "sampleRate" : 44100,
                            "bitDepth" : 16,
                            "gain" : 1.0,
                            "mixToMono" : false
                          },
                            "channelNumber" : "0,1",
                          "effects" : [

                          ],
                          "start" : 5518,
                          "duration" : 3511,
                          "mediaStart" : 5894,
                          "mediaDuration" : 3511,
                          "scalar" : 1,
                          "metadata" : {
                            "WinSubProjectDisplayName" : ""
                          },
                          "animationTracks" : {

                          }
                        },
                        {
                          "id" : 384,
                          "_type" : "AMFile",
                          "src" : 5,
                          "trackNumber" : 1,
                          "attributes" : {
                            "ident" : "",
                            "sampleRate" : 44100,
                            "bitDepth" : 16,
                            "gain" : 1.0,
                            "mixToMono" : false
                          },
                            "channelNumber" : "0,1",
                          "effects" : [

                          ],
                          "start" : 9029,
                          "duration" : 45,
                          "mediaStart" : 9418,
                          "mediaDuration" : 45,
                          "scalar" : 1,
                          "metadata" : {
                            "WinSubProjectDisplayName" : ""
                          },
                          "animationTracks" : {

                          }
                        },
                        {
                          "id" : 385,
                          "_type" : "AMFile",
                          "src" : 5,
                          "trackNumber" : 1,
                          "attributes" : {
                            "ident" : "",
                            "sampleRate" : 44100,
                            "bitDepth" : 16,
                            "gain" : 1.0,
                            "mixToMono" : false
                          },
                            "channelNumber" : "0,1",
                          "effects" : [

                          ],
                          "start" : 9074,
                          "duration" : 90,
                          "mediaStart" : 9508,
                          "mediaDuration" : 90,
                          "scalar" : 1,
                          "metadata" : {
                            "WinSubProjectDisplayName" : ""
                          },
                          "animationTracks" : {

                          }
                        },
                        {
                          "id" : 386,
                          "_type" : "AMFile",
                          "src" : 5,
                          "trackNumber" : 1,
                          "attributes" : {
                            "ident" : "",
                            "sampleRate" : 44100,
                            "bitDepth" : 16,
                            "gain" : 1.0,
                            "mixToMono" : false
                          },
                            "channelNumber" : "0,1",
                          "effects" : [

                          ],
                          "start" : 9164,
                          "duration" : 6190,
                          "mediaStart" : 9606,
                          "mediaDuration" : 6190,
                          "scalar" : 1,
                          "metadata" : {
                            "WinSubProjectDisplayName" : ""
                          },
                          "animationTracks" : {

                          }
                        }
                    ],
                    "effects" : [
                        {
                          "effectName" : "NoiseReduction",
                          "category" : "categoryAudioEffects",
                          "parameters" : {
                            "denoiserAmount" : 20.0,
                            "denoiserThreshold" : 0.0,
                            "noiseProfile" : "0DLBQIHdHEFkF58/DucDP0ozzT57KmtAgMC/QJeMVkBqXPY/DM/ZQMiezz4uXQw/LmsPQAr6XUGb\r\n61tADcoFP5xdJz9feBE+k96HPoV1gT5t5ts+891TP321qT//4kpAYZFVP/Y5SEBV+cA/y9mkP1TE\r\nkD/IwDdBlGu3QPEnIECKjZ9A9zQeQR6sIkGDqRBB+MoTQPG91D8HiIJAV1n+P6aiLT8BC0o/tL6y\r\nP4CKdz+TTwpAgu3+PkNWRT+gxcc+oUg2QHnaPj+xh5U+dknYPzLVOT+xOLQ/CVWQP9L/V0A8xUNA\r\nPD0eQBE0C0C2arA/IDIFQIzaBkBP6ZFAYESvPzzwVz9stXM/LdNnP2R7TkDbvPU/3LQ9P2b3aD9/\r\nmdU+KgmKPggnJj9cFxpA+r7IP2xSjz7uI6Q+OPvAPooxbz7i1P49VuHhPVCFqD7keyZAx+LaPlz+\r\nbz6Fdvs9U1juPU5/Gj4RaoA+nEsSPn4JCD++RKM+d6QKPnB8oT0yKPA9nJBCPngjQz6ubLY9ileG\r\nPPKgSj1Jxbc94G0JPQxPYzwmXi092efQPdtqCT27jQc9Ky4yPXjt1z3+Y4Q+qWOVPRtdAT1ibEI9\r\nbSiFPa/kCT29bPQ8t1R6PWIuej338o4+YoobPVYHdT3irwI9Id5BPVQizzyal4o8Oto7PZQljz3V\r\nVZc8BPSuPOS1Ez1OsUA95umjPcrnGT0o+Qo95M01PRHiED31CgU9I94CPbQJQzzaG/o8ONkxPUKJ\r\n8zwMEV09eMDQPBrVQjzliHo8g0i2PEAUFD0MYwI9A+aRPWZo9jznDdY8L6VbPTI5Ej1qNRM9D5qt\r\nPNhShDzTRIs8oNaMPNNNRDzbawQ9wukyPRCmfT167cQ96HjXPFl3JT3pBr49dLyJPefi/jwg2lE9\r\nW2UKPV69tTzDfAA979SIPfaIGD2t9wY9pCWePJvaKz0PsKs81p2VPJCygzwfY6g8aMFRPDbiejy0\r\niq88JgMLPW22izx8hyQ9JVzIPEIyED0kHZc8kANAPASCmzyRv4Q8UaQKPaDdOTya/qY8SONgPO7m\r\nZj2SBMM8St5bPMcEFzySSNo7oXU1PIkPtTyHwME91CxcPbHibzzXumc8mZ7LPISshzzP8xs82rQj\r\nPBt37Dy9K0Y82igzPCOeyjttD9E7ffAqPBVpajyVa1U8L2iaPGWgnTwHWew7nXnIO3F0WTyf8RQ8\r\ncJ4rPFdMdzys2Qw9uZnrPBAoMDwjkYw8ZSrhO/YQrTvamQo86wSBPOe0Nz2l/wo9m3koPNV4hTsy\r\nH088fZQ9PLqm5Du70Qw8V98lPJuToDvGLYU81seCPI1N1DxMYPM79xOPPKw1/DzXfzA8KaJkPNHx\r\nFzwUl8M85ikqPTntpzzko9A8hCIcPGXopzvWlcM7H2AVPHi0OzybEZ47v2A6PPGfkzwEStg7ulaX\r\nO9ozhDymjo48xoL+PBELnzy7Co07q9xBPFfThzsPfUE8RaCDPL6FgjyIzSA8+oFWPLHJAjykVI87\r\nKsUbPJLaDTxgNq48I8asO1eRJDw3iso7flx+PNXbiDv0r4E8oCVaPBAKsTue9oE8wyc0PCIKpTtz\r\nqDA83NG1PNxFLjyyaac7A/NoOy3vpjs2ul87YvhsO+SNXzu82Hw78QEcPMkEOTxIsoM8elKOO4sD\r\nfjuwZ+Y7Fkz/O5JKyztCihU7prwPPDrVyTx0Bao80GnGPLkwJTzykXg7AE3MOuvpQjuwUVA7VIPF\r\nOsqWTjskaoE6vVaZOj+m0DpDQJ86vAAXOxrIRjrO2/I5rVkcOjy2DjoUuHM5HikWOgDpmzk2qrg5\r\nDNTKOQuAwTlKYZA5RZqnOcC+vjl6IMI5trduOaJGkTnid6E5QBqnOWXiHTk5Q0I5GJ2SOReokDmO\r\nrVE5spNOOYKTcznOllU5MAVuOWJaXTnR5VU5SgdqOcFKizm96m059pCAOWJxbzk2i2g5duKBOeQ3\r\nQznIUHc5w6hdOXh0RTkpQXg52sxvOSZKdzlqc2Q52JF4OUQXXjnwr1A5pItXOeI4Pzn1C3E5WM1V\r\nOUJGNTn2vE85yJNLOZZxQjmEDlI5hVJROWh6RTms10M5uQ88ObaQPTkQxUw5XUc2OedjPznSh0k5\r\n+jsyOdz8RDlbkS85BqlKOcVYQDnqsko5sm5DOeajPDlcFzc5MME0Ob87Lznq5Tg5nu43OY6rODmo\r\nKzk5HGw4OVduRTkqpDU5g8ssOY0ELTnQrDg5iNQzObkKJTlGsi05NnwuOaIULTn83zI5T3YkOTIj\r\nMTlKuyI5NOIeOYqlHDmukjU5Xs8kOaCrNDk7jDI5q8AoObeyLDnq/yY53uMlOUm3HDm0wR45ki8b\r\nOdfnFjkorCE5xLUeOZwEJDlw8CE5DNMhORyQFTnach05/zwgOfPAFDnqFho5guUjOVjtHjlo1Q05\r\nWjgaOWIAFDnmZgo5QxMSOYPdJDmTFRY5tH8WOWYODzl8Hg85Tw0ROU4qEjl+ShA5COIHOSWGCTmV\r\nBRM5JNMUOUSVCTkFiQ45Cs4OOYIeCznAxQk5JI0POa5CDzlWqw45JesQOQxZCDm89xw59qMSOfIK\r\nDDnLmgc5N33+OKKnCTkevvo4Sf8GOYQpDDmV2ws5NKgKOe7XBTk8ogg5n0kFOS55BDnY2wk5D0IE\r\nOSNFATnVZgU5fCf+OGi+9jiYhQQ5IzEBOdCV9jiuDQY5Eq/pOE6W8jhG3uk4WiP+OMD8BjmAgPE4\r\ncTHqOOTE9TjRUvA4KEj5OGp+Ajl8XOQ4WyPnOP5b+DgiSfE4OFzrOF1rATmsceI4O9YDObiw9ThT\r\nhfU4s1DzOGcR/Timm+o4rIj/OOH/9jinhPA44urWOGrn9jiWSfI4NuL3OIIPzji1Les4sB7dOKxP\r\n+ThAE+o4QJjdOERe8Tiwe8U42mTmOGIJ1TjJDt84UEXhOLyD2zjEfu04dezVOK033DgOZcQ4jyTb\r\nOIq+4jgC/tw4zmLjODrj1jhCyNc4A+fKOFyBzjgEBdU49TfcOFdG4DhqGMM4HFvQOG6UzTh4I9I4\r\nARbWOMaOzTiMYsA4ltfjOPeswjiGCNs4GgHeOJ5pzThMAs44k6fVOCASwzhJnMY4TAzSOJJY1TjG\r\nLdY4ykrWODJBwTin0ME4l5i7OBnWuDjgOb444d3FOEKqzDg+Vso4rAbOOM7Xyjg82rk4hLvHOEpz\r\nwDh8PMM4jRzIOBR0xThVMsE4Qtq/OA6HuTg0qs44ryi6OCLexziHKcM4nKDJOMFtuTjYVbY4rX3H\r\nOOb0wTg82sg4uu3FOII0wDg1eLw40XHAONnQxzimObg45yDBOJs1zTiVO7g4rPKzOK4GwjhaZb04\r\nO/y9OI5CwjgcKLE4mSfFOGe2pzjogb44gNC1OCb1tDiVq6848HW8OJmhvzg4Hrs406OmOIQDqTjl\r\nrZo4gvalOM66qDhr47M4+UG8OAXXsjjCSsI4VgqpOGVuoTh8ksk4HBeuOI4fszh0AKw4jTGxOEEl\r\npThziKw4Hn+iOLvBrjgPkrs40jqnOMNOrzhQI6I4FniVOOgcsDj0Apw4lq+vOIgArzgaZbM4HLOi\r\nOFcYpDjGmqc4CMKiOPHJmziPnKA44IWmOCqJnDh6z604uWauOGHYsTiGs5c4CGSVOMYEnTh+Pak4\r\nGJKYOIeeoDiKbJs4EDueONWooziPJ6o4YdaqOOjPkDgRZZ446qSyOGAxmjgD9qE44dOeOJpqmDgk\r\npq44yQSoOPw0lzjCyak4pEmiOIF3qzgbJ5s4/BygOKtfpzgYtJ04aZWZOHxGmDi0VLI4PGaXOISm\r\niThAw5o4yGioOLCDjzhEXJ44mnyeOFC6pDhu6Js486ikOM/XmTiVppk4XmuaOBLClzjFmIY4wk+O\r\nOBgApDh1/aA4YlWfOHRwpTjmlJg4XrKMODoFizgy5KM4bvSfOAr9jThHIJ04mZWZOIXKZzhw0Is4\r\n0+KiOIIqijgwlZM4GlaCOGGapTj1L5E4NjqeOI5JjTgGr5k4VBmDOJuOjDjCrZk4ckmBOGfPlziT\r\nuZM4Rm2AOGcMqzgKt544ZmyNOOLNkDg5DI44/paNOLm5jjh7eJE4jYyOOE0giTg40aQ4B3aIOMjE\r\nmDhNDYM4PGSGODkomDiW1Jo4CH2GOFL9kDht7oQ442uMOGtAjDi5Uow4ArOfOJGCiTh4C54485qI\r\nOCcPbDhnK5Y4HzqUOEiziTgqAoY48VeNOKmBjTiAcZI4fguHONQPjjiC2IU40PuNOEJfijhFKGw4\r\nHKyCOD7jkzgREYM4PC6GODFVizj2NIQ4ni2HOAxEiDh+UIA41i98OBK/gDjyjpI4EweJOOCEgzj+\r\nopQ4YHaPONCKmDhoKJo4Fn9yOHbgmTg6r5A44i2HOFcejji/o4o46nKVOH7Xjzhxu344/JWEOE1c\r\neThqs4o4nv+GODmFmzj9v5E4CU2WOAGEezizgog44S+UOJbNhzjCNHs4AFV/OPHehDiaUHM4iPyR\r\nOKRrbjhFU4w4I3GYOCHrjTho2ZE4PwOPOD5ZiDiDfI44qqKPOL2iizgseIk4HkCLOIUufDi9T4c4\r\n/35sOLcUkzh8+Ig40hRhONTpijj3uGw4C0SQOEJBgziJrYM4ubNvOG3WhThmP484dUh6OAAoeTg5\r\nIno42J6IOPgLgzh/OYc4fyllOKXjhjhsxFU4wcKROPv0ijhLy3U4dc9/OH5DaDgmfYk4RXmCOM8V\r\ndzhAJHw4m6eBOF0Rbzg2AH84T1h8OJMfczinC5A4AlaMOOLfRjiDMoQ4X4+CODh5hjhIw484eA6B\r\nOA1CkDiu1Y049r2NOLfUfjiIMoA4KGeNOJLFaDgZ0mc4FJ6AODT4VThtQ1c4EJaJOKAobziEUYU4\r\nTDh7OH5ocDiYKmA4SupvOKJuczg0kow4/997OBccbjh5KXg4odyJOF/ZbDjE6Xo4MaR2OFP4aDh9\r\n3II4DglgOIhHYTgG31845X9/ODqzXjjgGm04Hsp0OONMeThtroU4NfZ1ONTTdTj0Elk4fYeCOGfb\r\ngDht7m44ha9zOOYXgDi/nYE4JGWAOJRMcTijSYk4fhqNODcWYzjOfXI4bhxrONa7eTgcP184Xit9\r\nOHXEbTg1PFo43jNlONpLZjiCA4U4m2FYOB0WfDguqWQ4yZ6KOAonfDjI3Wc4NNhiOADlhjgc7l84\r\n2cuAONqyazisAYA4DGJ7OFk2fjgj/Ws4CzWBODZiczgdGoY4GtxROIXWhDh4omU4XY9sOPGZhjje\r\nsXE4zsp4ODWfdTg8d3Q4pPJvOPVjhTir2XE4ifR5OMfOaTgtB1w4Rk+FOEi8bDgwgXI4iCyAOA2g\r\nfTgfKGU4QHdjOOHOgDhaAYc4pu6EOBWadzjmnWk4SkyDOBxjfzhHe3M4M4xpOAQ/hzi7bWQ4Uqxv\r\nOIUkgzhRFoA424VdOFN8dDim0lM4FHp4OKQzgjiF5mg4LBRzOFLEgjiF2Fs4wU2EOIAAgTjQMsFA\r\ngd0cQWQXnz8O5wM/TCzNPnsqa0CAwL9Al4xWQI5T9j8Mz9lAyJ7PPi5dDD8uaw9A9vZdQQ/yW0AL\r\n5wU/BIQnP5uPET6L/Yc+hXWBPm3m2z7z3VM/fbWpP//iSkBhkVU/aExIQCfowD8P26Q/VMSQP3LE\r\nN0FyZbdA8ScgQAaMn0DRMB5BsbMiQYOpEEH4yhNA777UP1J9gkBXWf4/R64tPwELSj+0vrI/gIp3\r\nP1BPCkDjnf4+NDdFP6DFxz6hSDZAedo+P0KElT52Sdg/e945P7E4tD8JVZA/0v9XQDzFQ0BPNx5A\r\nETQLQCiKsD8gMgVAjNoGQE/pkUDrQa8/PPBXP2y1cz+RvGc/ZHtOQNu89T8M4z0/4NloP3W81T4q\r\nCYo+CCcmP3QwGkCEusg/nWyPPioMpD7K8sA+ijFvPsJ8/j1W4eE9ZJeoPiplJkDH4to+/fxvPhqB\r\n+z1uTu498KcaPpKggD5BgxI+fgkIP62joz6JCws+cHyhPTIo8D2ckEI+eCNDPh2Itj0lsYY8nClL\r\nPQx3tz3gbQk9DE9jPE4iLj14QtE922oJPbuNBz1QpjI9CPfXPTdphD6pY5U9sHEBPWJsQj1tKIU9\r\nr+QJPcFt9Dy8P3o9GiR6PaP3jj5iihs9r4x1PdwqAj0h3kE9TODOPBoNizw62js9lCWPPaiFlzwE\r\n9K485LUTPZl6QD3n6qM9yucZPSj5Cj3kzTU98zQRPVkqBD0j3gI9FBhDPNob+jwyijE9G6DyPAwR\r\nXT22nNA8BLtEPOWIejyDSLY8QBQUPXh+Aj0D5pE9MFj2PPD/1Txn1lo9MjkSPWo1Ez2vK6082FKE\r\nPNNEizyg1ow8J8hEPJpDBD3C6TI9EKZ9PXrtxD3oeNc8WXclPekGvj10vIk95+L+PCDaUT1bZQo9\r\nXr21PDCBAT3JqYg99ogYPa33Bj2kJZ48/r8rPfYArTwlkpU8YLSDPGkEqDxwz1E8lNF6PLT6rzwm\r\nAws9bbaLPHyHJD0lXMg8jw8QPZK2ljwmzz88BIKbPJG/hDxRpAo9RH85PJr+pjxI42A87uZmPZIE\r\nwzwosFw80QcYPIzd2DuhdTU8fDG1PIfAwT3ULFw9QKhvPNe6ZzyZnss8hKyHPNowGzxLmiM8G3fs\r\nPL0rRjzRmTM8PBDKO20P0Tv0JCw89sRpPJVrVTwvaJo8ZaCdPAdZ7Dudecg76+ZYPJ/xFDzFRyw8\r\nV0x3PDuFDD3Bcus8ECgwPCORjDyPUOE7FBywO30KCzzrBIE857Q3PaX/Cj2beSg81lOFO6TpTjx9\r\nlD08bdPkOxSsCzxX3yU8FiGgO82jhDyLGYM8jU3UPJvr8zv3E488rDX8PNd/MDwpomQ80fEXPEyi\r\nwjzmKSo9bDaoPO760DyEIhw8ZeinO9aVwzuzfxU8eLQ7PCH5nDvyWjo8W7yTPC8s2Du6Vpc79rqD\r\nPKaOjjysVP48EQufPF4zjjujJUI8V9OHO1tYQTxFoIM8tsOCPIjNIDz6gVY8+qgCPKRUjzsqxRs8\r\nktoNPGA2rjw3Ia47V5EkPDe8yTvxPX486euHO5gbgjygJVo8EAqxOyYSgzybvDQ8nnGkO3OoMDzc\r\n0bU83EUuPPNXpzsNXmo71uWmO/82XTsSgGk7ykVeO5b0fDuViBw8yQQ5PPFOgzx6Uo47iwN+O3lO\r\n5jtiw/87vOLKO2XaEjumvA88OtXJPFSmqTzQacY8uTAlPMOYeTsATcw66+lCOwNGUDtUg8U6zf9N\r\nO6c4gTogNZw6EanWOkTGozp8fhU7w7lFOs7b8jmtWRw66n8OOhS4cznKkBU65s6XOd49vzkM1Mo5\r\n60e5OblIkjmk5KM5I1fFOfnKvznMVXU5adqKOQjimzmwO6o5Fp0kOWlGLzk/m4857HWGOUbgZznY\r\nCUU5WS6WOWVZSDkjZlE52iB5OZqTXTkouDo5gZqSOdBaXDnK8ls5oFBxORDVdzkG4Hk59HBjOfg5\r\nSDm4XWM54R10Oe6NWTm8FVs59h9qObFOTDkar1s56BhmOTwbXTk7oFg5Qk1SOfVERzmjhFU5RKRH\r\nOZeURjk0qUM55GFMOUoXRznU8Uk5cs9KOUiyPzndSU054qJAOcqASzlwzDo5EKBGOT44QzmjvjQ5\r\nqlJMOYpHNTlTnUQ5p+o5OQJVRjmIfU85Tpo7OZdtQzmlOUA5as8xOSpgPzma6T45SBI2OUamOjnO\r\nWDs5ERJCOQBnMjk6x0A53sA0OWakLjlQXDc5fqghOZotMTlYKy05L9IvOdZJITnoySM5uO41Oc3W\r\nHTnnkiQ57uwhOaS7LTm8Kys5R6Q5Obj1MTlTISk5SO4nOQ+BLjlyfS05Xn0fOfp/GTnMpxo5KzMU\r\nOZ4ZHTn8aSY5FNYcOX5FIjmu3SE5vrgVOT1LJzmu3xo5H6okOUmKFzntgBo50i0dOTBJETkc/SQ5\r\nxqYROVuxFTn8vBc5yuoeOXzOGDn4DCE51KUkOc9bGzmY+gU5BvoeOblFBzmIFg05A3EQORj0Dzmg\r\nCxA5FjQWOUGvEjnEzRQ5ZdINORrBDjlyexg5ybkLOXZiBTnIZwU5+gwGOXBYFDlCGBo5mlEMOYo3\r\nBDnYOgU59qkAOY4P9ThoRAo5RkH+OIYiEjmyVwc5bvYGOZFiBzlf1QE5sgAGOaq8DjkuNgI5sRD+\r\nOK9r+DgaDOk4YfHiOH7h+Ti3gQk5QpX7OLPH8DhDhug4EsPyOH7/9DioE/A4FDf/OAAK+jhyzes4\r\nJcTtOLqlAjnOx/k4Zn8COURm8DjXz+w4s0joOCdf7zgHt+44ZET7OJpK4zgbWgU5bOTkONCX7DgS\r\n8AQ5JkT6ODBO/zgwPvE4kgkAOfNU+DgMleg4fJT7OJ9N4TiA/+046iXoOJIu7jj7I+I4ADL4OFEV\r\n6Ti7zeg4FwjVOJ3n0DhTMfY4QsrQOPK20zhqgtw4F5bjOPsz+ThFI7s4JjjaODUi1zgKJNc4raq7\r\nOLSr2jgweuc49ULhOCAp4DgcFNE43nnEOI61zziPf9E4Et7kOM284Dh0YMw43j3cOD7u1jgItsg4\r\ntgnYOLJZwDjgFdE4lNLeOJep3zihC8s4tKnMOOFvyjhnDdI4kITbOIw9xDgoRsY4eBHMOMX3zzgJ\r\nj8Y47hvOOE0VujjjesA47CPWOAAe2jgP4MU47LLKONRbszgYWNk4iv7AOFiVsjjYpMY4ogDLOFy2\r\nvDiFwcs4QB3FOIxBxjg+Or04HOHHOPFRwzijKbs4KuW/ODzmwzgCLsM4s2G8OKN9tTjnJsA4wgax\r\nOAhYwTgXt8k4mqfGOJ4WvzjUIs44GlDCOIxXwTj6jcQ4dxXDOPDltzjzlaI4pDK/OBD6rzj4s7s4\r\n+jPEOD3Ltjg+sbc4ysK1OH9SsThaja04nnWyOAChujiuh8A4b+a4OKEZpjgyo7A4V2m5OIovljiX\r\nNKs4PoKzOBRMrDhNErQ4Aj2zOCmFtjhYPag4JkihOMOwtjh92a04dC2lOA0cqDiN0ac4TGKkOOPi\r\npDj4R604+O+yOGSCwDh4y5o4pnmuOPN6nzgKM5c4KEe0OC7kmzixJb04JYqsOE9Brji4tpc4Inyh\r\nOFE3rTikw6Y4suOoOPwtnjiSkaI4khupOCRanjg0X7A4bBagOKG0rTjUVaQ4tLmdOOrekzjqVas4\r\npmajOAGAnDhC8a84vaCPOAMBnjhI8qg4/42bONJ1mThgdKI4QCaqODTSrDgWmKo44GOcOCaXsThq\r\nsqA41nKYOAgyqDjCOqs4aSefOGO0ozjpLpE49iumOJ2Sljjor5g4ZcubOCkmrTgrApc4ARybOFRT\r\nkTggl6U4ZIeROPIhoDjXyJI44OKfOLwJkzg7h6Q4SW2UOLVrkjg2SZE4qyuiOHIjjDhTapc4CICp\r\nOBquozi7I4g4hfWYOIxsoTioRpA4WVSZOMYWnTjdTqA4oBiTOCRunDhim6Y4/pKEOGNllziZH504\r\n8MOLONeCnTgedok4LXaYOIZKhjhUwq04Rx+aONjDlDhEqI44vTSMONv+hTi4qYI4RNedOL1pjTi+\r\nOp048SqnOLYqojgPOKE4ljKSOILvgjh/nZc4yy2SOJe0jjgZO4k4/s6IOBjJnDinboM4W/OZOE3q\r\nijig75k4AEuTOL/rizhuzIE4/cByOEtGnDhf3pU4YsCMOPl8izhhQJY4P0iPODulozi8+IY4RY+C\r\nOCGviThar5E4IsyOOOuPiTiKwoo4WmeOOIctjjiXC4s4ibqDOKh6eDhaC4c4PfKJOA7XizhYm344\r\nHIWiOGwzgzjYdo04a1ekOMnxgziCTYs4AauFOIXcazghLow4IleTOKOpjzhRh4I4QNyGOIhDlDgz\r\nKI84/3SSOClpnTi4yI44dBqPOJN9mjgzfIc4FkyNOLRchTiO84s49ct8ONoQZzjbbY84RoV3OLOq\r\nhTi9N4M4PIaXOEHGmzgOfYw4ZjCKOEHeizgIL4s46RFyOCFwfTh2I2s4dfWJOAbjiTh7n4Q4buxy\r\nOO98gDgDFJA4xlWCOC1sgDhoXYk4TceLOJKjkDjAsYQ4nA+PONXIgTjiC404Yq54OHGDjDgUC3k4\r\nuZWAOGDphjhcAmU4/72LOD0lgjgK2Is4IgaIOMCIgjgTnns4f2eDOPe8bThkgH04dA2DOBQNdjje\r\nRoA4qxaHOP81hTgQyXE44GaGOJR6gTgHM4g4kBuJOLkjbTg3S3E4806HOCi/gDh2LYA4mv6LONwC\r\ndzjhZ4M4DK1fOM5hgThTlWA4hluGONazfzgDBHs4tS5jOMq0gThKu4w4hvR7OK62fjjEGIk4vi+N\r\nOI70gDjJ1YI4sqKPOEZgbDjg/Y04R+F0OKS2aDhlFJA4WAFqOP/XZDhxS444RVpsOA3XdDjy+HU4\r\nHdtqODRvZjhRJWA4CGuDONP0fjhD9Xg4DCpnOJI/gjgyUpA4q+5TOEEkYzgxjY04uSFhOP9YgTgm\r\n3WQ4Io1hOO9VeDi9woM4tqByODnxaDiYlnI4jcB/OOgAdjh+CXI4ZnJqOBtRXjjbyH04ZIeBOBJc\r\neDjr0n84w8qJODaggDgNunM4wrSCOIzXfDi6YoI4fQZiOK4aYTju5YE4BZVfOKiLXDhUY3g45N11\r\nOH9OajgFuGc41pl6OA5sZjiGP0k4rw9iOH/3dzgTG4k4n5JeOIlEaTjJeIU4rxWCOB0xZDhmMYE4\r\nm7aCOG2VczhKIl04RaVnOEDgdTgwiGw4n8SAOGjUdTgyAWA4kpqIOO1peTi5pnQ4tdF+OPV3jTjZ\r\nKGk4hzlkOFNyhTi6WXY43e94OLBEbjizQ2E4uIRqOE0VbTgZ2HU4G3J8OHnFZTgk0GY4RBKCODBr\r\niDhzjHc4lbN5OGojeTi034E4/Ex5ODuueziHQ4c4HQ53OKqzizixomw4ufWKOMi+eDif72w48/SB\r\nODxGcTjj0F04yoNoOMQWZji4q3w4UtdzOMeXgjjTx4Q4OkBrONP1dzj4nHA4ADKKOA==",
                            "noiseTrainingType" : "default"
                          }
                        }
                    ],
                    "start" : 22580,
                    "duration" : 71,
                    "mediaStart" : 11555,
                    "mediaDuration" : 71,
                    "scalar" : 1,
                    "metadata" : {
                      "WinSubProjectDisplayName" : "",
                      "clipSpeedAttribute" : false
                    },
                    "animationTracks" : {

                    }
                  },
                  {
                    "id" : 387,
                    "_type" : "StitchedMedia",
                    "minMediaStart" : 0,
                    "attributes" : {
                      "ident" : "tower-05",
                      "gain" : 1.0,
                      "mixToMono" : false
                    },
                    "parameters" : {
                      "volume" : {
                        "type" : "double",
                        "keyframes" : [
                          {
                            "endTime" : 0,
                            "time" : 0,
                            "value" : 1.0,
                            "duration" : 0
                          },
                          {
                            "endTime" : 10335,
                            "time" : 10335,
                            "value" : 1.0,
                            "duration" : 0
                          }
                        ]
                      },
                      "cursorOpacity" : 1.0,
                      "cursorScale" : 1.0
                    },
                    "medias" : [
                        {
                          "id" : 388,
                          "_type" : "AMFile",
                          "src" : 5,
                          "trackNumber" : 1,
                          "attributes" : {
                            "ident" : "",
                            "sampleRate" : 44100,
                            "bitDepth" : 16,
                            "gain" : 1.0,
                            "mixToMono" : false
                          },
                            "channelNumber" : "0,1",
                          "effects" : [

                          ],
                          "start" : 0,
                          "duration" : 1383,
                          "mediaStart" : 0,
                          "mediaDuration" : 1383,
                          "scalar" : 1,
                          "metadata" : {
                            "WinSubProjectDisplayName" : ""
                          },
                          "animationTracks" : {

                          }
                        },
                        {
                          "id" : 389,
                          "_type" : "AMFile",
                          "src" : 5,
                          "trackNumber" : 1,
                          "attributes" : {
                            "ident" : "",
                            "sampleRate" : 44100,
                            "bitDepth" : 16,
                            "gain" : 1.0,
                            "mixToMono" : false
                          },
                            "channelNumber" : "0,1",
                          "effects" : [

                          ],
                          "start" : 1383,
                          "duration" : 2726,
                          "mediaStart" : 1406,
                          "mediaDuration" : 2726,
                          "scalar" : 1,
                          "metadata" : {
                            "WinSubProjectDisplayName" : ""
                          },
                          "animationTracks" : {

                          }
                        },
                        {
                          "id" : 390,
                          "_type" : "AMFile",
                          "src" : 5,
                          "trackNumber" : 1,
                          "attributes" : {
                            "ident" : "",
                            "sampleRate" : 44100,
                            "bitDepth" : 16,
                            "gain" : 1.0,
                            "mixToMono" : false
                          },
                            "channelNumber" : "0,1",
                          "effects" : [

                          ],
                          "start" : 4109,
                          "duration" : 424,
                          "mediaStart" : 4173,
                          "mediaDuration" : 424,
                          "scalar" : 1,
                          "metadata" : {
                            "WinSubProjectDisplayName" : ""
                          },
                          "animationTracks" : {

                          }
                        },
                        {
                          "id" : 391,
                          "_type" : "AMFile",
                          "src" : 5,
                          "trackNumber" : 1,
                          "attributes" : {
                            "ident" : "",
                            "sampleRate" : 44100,
                            "bitDepth" : 16,
                            "gain" : 1.0,
                            "mixToMono" : false
                          },
                            "channelNumber" : "0,1",
                          "effects" : [

                          ],
                          "start" : 4533,
                          "duration" : 139,
                          "mediaStart" : 4741,
                          "mediaDuration" : 139,
                          "scalar" : 1,
                          "metadata" : {
                            "WinSubProjectDisplayName" : ""
                          },
                          "animationTracks" : {

                          }
                        },
                        {
                          "id" : 392,
                          "_type" : "AMFile",
                          "src" : 5,
                          "trackNumber" : 1,
                          "attributes" : {
                            "ident" : "",
                            "sampleRate" : 44100,
                            "bitDepth" : 16,
                            "gain" : 1.0,
                            "mixToMono" : false
                          },
                            "channelNumber" : "0,1",
                          "effects" : [

                          ],
                          "start" : 4672,
                          "duration" : 212,
                          "mediaStart" : 5022,
                          "mediaDuration" : 212,
                          "scalar" : 1,
                          "metadata" : {
                            "WinSubProjectDisplayName" : ""
                          },
                          "animationTracks" : {

                          }
                        },
                        {
                          "id" : 393,
                          "_type" : "AMFile",
                          "src" : 5,
                          "trackNumber" : 1,
                          "attributes" : {
                            "ident" : "",
                            "sampleRate" : 44100,
                            "bitDepth" : 16,
                            "gain" : 1.0,
                            "mixToMono" : false
                          },
                            "channelNumber" : "0,1",
                          "effects" : [

                          ],
                          "start" : 4884,
                          "duration" : 634,
                          "mediaStart" : 5243,
                          "mediaDuration" : 634,
                          "scalar" : 1,
                          "metadata" : {
                            "WinSubProjectDisplayName" : ""
                          },
                          "animationTracks" : {

                          }
                        },
                        {
                          "id" : 394,
                          "_type" : "AMFile",
                          "src" : 5,
                          "trackNumber" : 1,
                          "attributes" : {
                            "ident" : "",
                            "sampleRate" : 44100,
                            "bitDepth" : 16,
                            "gain" : 1.0,
                            "mixToMono" : false
                          },
                            "channelNumber" : "0,1",
                          "effects" : [

                          ],
                          "start" : 5518,
                          "duration" : 3511,
                          "mediaStart" : 5894,
                          "mediaDuration" : 3511,
                          "scalar" : 1,
                          "metadata" : {
                            "WinSubProjectDisplayName" : ""
                          },
                          "animationTracks" : {

                          }
                        },
                        {
                          "id" : 395,
                          "_type" : "AMFile",
                          "src" : 5,
                          "trackNumber" : 1,
                          "attributes" : {
                            "ident" : "",
                            "sampleRate" : 44100,
                            "bitDepth" : 16,
                            "gain" : 1.0,
                            "mixToMono" : false
                          },
                            "channelNumber" : "0,1",
                          "effects" : [

                          ],
                          "start" : 9029,
                          "duration" : 45,
                          "mediaStart" : 9418,
                          "mediaDuration" : 45,
                          "scalar" : 1,
                          "metadata" : {
                            "WinSubProjectDisplayName" : ""
                          },
                          "animationTracks" : {

                          }
                        },
                        {
                          "id" : 396,
                          "_type" : "AMFile",
                          "src" : 5,
                          "trackNumber" : 1,
                          "attributes" : {
                            "ident" : "",
                            "sampleRate" : 44100,
                            "bitDepth" : 16,
                            "gain" : 1.0,
                            "mixToMono" : false
                          },
                            "channelNumber" : "0,1",
                          "effects" : [

                          ],
                          "start" : 9074,
                          "duration" : 90,
                          "mediaStart" : 9508,
                          "mediaDuration" : 90,
                          "scalar" : 1,
                          "metadata" : {
                            "WinSubProjectDisplayName" : ""
                          },
                          "animationTracks" : {

                          }
                        },
                        {
                          "id" : 397,
                          "_type" : "AMFile",
                          "src" : 5,
                          "trackNumber" : 1,
                          "attributes" : {
                            "ident" : "",
                            "sampleRate" : 44100,
                            "bitDepth" : 16,
                            "gain" : 1.0,
                            "mixToMono" : false
                          },
                            "channelNumber" : "0,1",
                          "effects" : [

                          ],
                          "start" : 9164,
                          "duration" : 6190,
                          "mediaStart" : 9606,
                          "mediaDuration" : 6190,
                          "scalar" : 1,
                          "metadata" : {
                            "WinSubProjectDisplayName" : ""
                          },
                          "animationTracks" : {

                          }
                        }
                    ],
                    "effects" : [
                        {
                          "effectName" : "NoiseReduction",
                          "category" : "categoryAudioEffects",
                          "parameters" : {
                            "denoiserAmount" : 20.0,
                            "denoiserThreshold" : 0.0,
                            "noiseProfile" : "0DLBQIHdHEFkF58/DucDP0ozzT57KmtAgMC/QJeMVkBqXPY/DM/ZQMiezz4uXQw/LmsPQAr6XUGb\r\n61tADcoFP5xdJz9feBE+k96HPoV1gT5t5ts+891TP321qT//4kpAYZFVP/Y5SEBV+cA/y9mkP1TE\r\nkD/IwDdBlGu3QPEnIECKjZ9A9zQeQR6sIkGDqRBB+MoTQPG91D8HiIJAV1n+P6aiLT8BC0o/tL6y\r\nP4CKdz+TTwpAgu3+PkNWRT+gxcc+oUg2QHnaPj+xh5U+dknYPzLVOT+xOLQ/CVWQP9L/V0A8xUNA\r\nPD0eQBE0C0C2arA/IDIFQIzaBkBP6ZFAYESvPzzwVz9stXM/LdNnP2R7TkDbvPU/3LQ9P2b3aD9/\r\nmdU+KgmKPggnJj9cFxpA+r7IP2xSjz7uI6Q+OPvAPooxbz7i1P49VuHhPVCFqD7keyZAx+LaPlz+\r\nbz6Fdvs9U1juPU5/Gj4RaoA+nEsSPn4JCD++RKM+d6QKPnB8oT0yKPA9nJBCPngjQz6ubLY9ileG\r\nPPKgSj1Jxbc94G0JPQxPYzwmXi092efQPdtqCT27jQc9Ky4yPXjt1z3+Y4Q+qWOVPRtdAT1ibEI9\r\nbSiFPa/kCT29bPQ8t1R6PWIuej338o4+YoobPVYHdT3irwI9Id5BPVQizzyal4o8Oto7PZQljz3V\r\nVZc8BPSuPOS1Ez1OsUA95umjPcrnGT0o+Qo95M01PRHiED31CgU9I94CPbQJQzzaG/o8ONkxPUKJ\r\n8zwMEV09eMDQPBrVQjzliHo8g0i2PEAUFD0MYwI9A+aRPWZo9jznDdY8L6VbPTI5Ej1qNRM9D5qt\r\nPNhShDzTRIs8oNaMPNNNRDzbawQ9wukyPRCmfT167cQ96HjXPFl3JT3pBr49dLyJPefi/jwg2lE9\r\nW2UKPV69tTzDfAA979SIPfaIGD2t9wY9pCWePJvaKz0PsKs81p2VPJCygzwfY6g8aMFRPDbiejy0\r\niq88JgMLPW22izx8hyQ9JVzIPEIyED0kHZc8kANAPASCmzyRv4Q8UaQKPaDdOTya/qY8SONgPO7m\r\nZj2SBMM8St5bPMcEFzySSNo7oXU1PIkPtTyHwME91CxcPbHibzzXumc8mZ7LPISshzzP8xs82rQj\r\nPBt37Dy9K0Y82igzPCOeyjttD9E7ffAqPBVpajyVa1U8L2iaPGWgnTwHWew7nXnIO3F0WTyf8RQ8\r\ncJ4rPFdMdzys2Qw9uZnrPBAoMDwjkYw8ZSrhO/YQrTvamQo86wSBPOe0Nz2l/wo9m3koPNV4hTsy\r\nH088fZQ9PLqm5Du70Qw8V98lPJuToDvGLYU81seCPI1N1DxMYPM79xOPPKw1/DzXfzA8KaJkPNHx\r\nFzwUl8M85ikqPTntpzzko9A8hCIcPGXopzvWlcM7H2AVPHi0OzybEZ47v2A6PPGfkzwEStg7ulaX\r\nO9ozhDymjo48xoL+PBELnzy7Co07q9xBPFfThzsPfUE8RaCDPL6FgjyIzSA8+oFWPLHJAjykVI87\r\nKsUbPJLaDTxgNq48I8asO1eRJDw3iso7flx+PNXbiDv0r4E8oCVaPBAKsTue9oE8wyc0PCIKpTtz\r\nqDA83NG1PNxFLjyyaac7A/NoOy3vpjs2ul87YvhsO+SNXzu82Hw78QEcPMkEOTxIsoM8elKOO4sD\r\nfjuwZ+Y7Fkz/O5JKyztCihU7prwPPDrVyTx0Bao80GnGPLkwJTzykXg7AE3MOuvpQjuwUVA7VIPF\r\nOsqWTjskaoE6vVaZOj+m0DpDQJ86vAAXOxrIRjrO2/I5rVkcOjy2DjoUuHM5HikWOgDpmzk2qrg5\r\nDNTKOQuAwTlKYZA5RZqnOcC+vjl6IMI5trduOaJGkTnid6E5QBqnOWXiHTk5Q0I5GJ2SOReokDmO\r\nrVE5spNOOYKTcznOllU5MAVuOWJaXTnR5VU5SgdqOcFKizm96m059pCAOWJxbzk2i2g5duKBOeQ3\r\nQznIUHc5w6hdOXh0RTkpQXg52sxvOSZKdzlqc2Q52JF4OUQXXjnwr1A5pItXOeI4Pzn1C3E5WM1V\r\nOUJGNTn2vE85yJNLOZZxQjmEDlI5hVJROWh6RTms10M5uQ88ObaQPTkQxUw5XUc2OedjPznSh0k5\r\n+jsyOdz8RDlbkS85BqlKOcVYQDnqsko5sm5DOeajPDlcFzc5MME0Ob87Lznq5Tg5nu43OY6rODmo\r\nKzk5HGw4OVduRTkqpDU5g8ssOY0ELTnQrDg5iNQzObkKJTlGsi05NnwuOaIULTn83zI5T3YkOTIj\r\nMTlKuyI5NOIeOYqlHDmukjU5Xs8kOaCrNDk7jDI5q8AoObeyLDnq/yY53uMlOUm3HDm0wR45ki8b\r\nOdfnFjkorCE5xLUeOZwEJDlw8CE5DNMhORyQFTnach05/zwgOfPAFDnqFho5guUjOVjtHjlo1Q05\r\nWjgaOWIAFDnmZgo5QxMSOYPdJDmTFRY5tH8WOWYODzl8Hg85Tw0ROU4qEjl+ShA5COIHOSWGCTmV\r\nBRM5JNMUOUSVCTkFiQ45Cs4OOYIeCznAxQk5JI0POa5CDzlWqw45JesQOQxZCDm89xw59qMSOfIK\r\nDDnLmgc5N33+OKKnCTkevvo4Sf8GOYQpDDmV2ws5NKgKOe7XBTk8ogg5n0kFOS55BDnY2wk5D0IE\r\nOSNFATnVZgU5fCf+OGi+9jiYhQQ5IzEBOdCV9jiuDQY5Eq/pOE6W8jhG3uk4WiP+OMD8BjmAgPE4\r\ncTHqOOTE9TjRUvA4KEj5OGp+Ajl8XOQ4WyPnOP5b+DgiSfE4OFzrOF1rATmsceI4O9YDObiw9ThT\r\nhfU4s1DzOGcR/Timm+o4rIj/OOH/9jinhPA44urWOGrn9jiWSfI4NuL3OIIPzji1Les4sB7dOKxP\r\n+ThAE+o4QJjdOERe8Tiwe8U42mTmOGIJ1TjJDt84UEXhOLyD2zjEfu04dezVOK033DgOZcQ4jyTb\r\nOIq+4jgC/tw4zmLjODrj1jhCyNc4A+fKOFyBzjgEBdU49TfcOFdG4DhqGMM4HFvQOG6UzTh4I9I4\r\nARbWOMaOzTiMYsA4ltfjOPeswjiGCNs4GgHeOJ5pzThMAs44k6fVOCASwzhJnMY4TAzSOJJY1TjG\r\nLdY4ykrWODJBwTin0ME4l5i7OBnWuDjgOb444d3FOEKqzDg+Vso4rAbOOM7Xyjg82rk4hLvHOEpz\r\nwDh8PMM4jRzIOBR0xThVMsE4Qtq/OA6HuTg0qs44ryi6OCLexziHKcM4nKDJOMFtuTjYVbY4rX3H\r\nOOb0wTg82sg4uu3FOII0wDg1eLw40XHAONnQxzimObg45yDBOJs1zTiVO7g4rPKzOK4GwjhaZb04\r\nO/y9OI5CwjgcKLE4mSfFOGe2pzjogb44gNC1OCb1tDiVq6848HW8OJmhvzg4Hrs406OmOIQDqTjl\r\nrZo4gvalOM66qDhr47M4+UG8OAXXsjjCSsI4VgqpOGVuoTh8ksk4HBeuOI4fszh0AKw4jTGxOEEl\r\npThziKw4Hn+iOLvBrjgPkrs40jqnOMNOrzhQI6I4FniVOOgcsDj0Apw4lq+vOIgArzgaZbM4HLOi\r\nOFcYpDjGmqc4CMKiOPHJmziPnKA44IWmOCqJnDh6z604uWauOGHYsTiGs5c4CGSVOMYEnTh+Pak4\r\nGJKYOIeeoDiKbJs4EDueONWooziPJ6o4YdaqOOjPkDgRZZ446qSyOGAxmjgD9qE44dOeOJpqmDgk\r\npq44yQSoOPw0lzjCyak4pEmiOIF3qzgbJ5s4/BygOKtfpzgYtJ04aZWZOHxGmDi0VLI4PGaXOISm\r\niThAw5o4yGioOLCDjzhEXJ44mnyeOFC6pDhu6Js486ikOM/XmTiVppk4XmuaOBLClzjFmIY4wk+O\r\nOBgApDh1/aA4YlWfOHRwpTjmlJg4XrKMODoFizgy5KM4bvSfOAr9jThHIJ04mZWZOIXKZzhw0Is4\r\n0+KiOIIqijgwlZM4GlaCOGGapTj1L5E4NjqeOI5JjTgGr5k4VBmDOJuOjDjCrZk4ckmBOGfPlziT\r\nuZM4Rm2AOGcMqzgKt544ZmyNOOLNkDg5DI44/paNOLm5jjh7eJE4jYyOOE0giTg40aQ4B3aIOMjE\r\nmDhNDYM4PGSGODkomDiW1Jo4CH2GOFL9kDht7oQ442uMOGtAjDi5Uow4ArOfOJGCiTh4C54485qI\r\nOCcPbDhnK5Y4HzqUOEiziTgqAoY48VeNOKmBjTiAcZI4fguHONQPjjiC2IU40PuNOEJfijhFKGw4\r\nHKyCOD7jkzgREYM4PC6GODFVizj2NIQ4ni2HOAxEiDh+UIA41i98OBK/gDjyjpI4EweJOOCEgzj+\r\nopQ4YHaPONCKmDhoKJo4Fn9yOHbgmTg6r5A44i2HOFcejji/o4o46nKVOH7Xjzhxu344/JWEOE1c\r\neThqs4o4nv+GODmFmzj9v5E4CU2WOAGEezizgog44S+UOJbNhzjCNHs4AFV/OPHehDiaUHM4iPyR\r\nOKRrbjhFU4w4I3GYOCHrjTho2ZE4PwOPOD5ZiDiDfI44qqKPOL2iizgseIk4HkCLOIUufDi9T4c4\r\n/35sOLcUkzh8+Ig40hRhONTpijj3uGw4C0SQOEJBgziJrYM4ubNvOG3WhThmP484dUh6OAAoeTg5\r\nIno42J6IOPgLgzh/OYc4fyllOKXjhjhsxFU4wcKROPv0ijhLy3U4dc9/OH5DaDgmfYk4RXmCOM8V\r\ndzhAJHw4m6eBOF0Rbzg2AH84T1h8OJMfczinC5A4AlaMOOLfRjiDMoQ4X4+CODh5hjhIw484eA6B\r\nOA1CkDiu1Y049r2NOLfUfjiIMoA4KGeNOJLFaDgZ0mc4FJ6AODT4VThtQ1c4EJaJOKAobziEUYU4\r\nTDh7OH5ocDiYKmA4SupvOKJuczg0kow4/997OBccbjh5KXg4odyJOF/ZbDjE6Xo4MaR2OFP4aDh9\r\n3II4DglgOIhHYTgG31845X9/ODqzXjjgGm04Hsp0OONMeThtroU4NfZ1ONTTdTj0Elk4fYeCOGfb\r\ngDht7m44ha9zOOYXgDi/nYE4JGWAOJRMcTijSYk4fhqNODcWYzjOfXI4bhxrONa7eTgcP184Xit9\r\nOHXEbTg1PFo43jNlONpLZjiCA4U4m2FYOB0WfDguqWQ4yZ6KOAonfDjI3Wc4NNhiOADlhjgc7l84\r\n2cuAONqyazisAYA4DGJ7OFk2fjgj/Ws4CzWBODZiczgdGoY4GtxROIXWhDh4omU4XY9sOPGZhjje\r\nsXE4zsp4ODWfdTg8d3Q4pPJvOPVjhTir2XE4ifR5OMfOaTgtB1w4Rk+FOEi8bDgwgXI4iCyAOA2g\r\nfTgfKGU4QHdjOOHOgDhaAYc4pu6EOBWadzjmnWk4SkyDOBxjfzhHe3M4M4xpOAQ/hzi7bWQ4Uqxv\r\nOIUkgzhRFoA424VdOFN8dDim0lM4FHp4OKQzgjiF5mg4LBRzOFLEgjiF2Fs4wU2EOIAAgTjQMsFA\r\ngd0cQWQXnz8O5wM/TCzNPnsqa0CAwL9Al4xWQI5T9j8Mz9lAyJ7PPi5dDD8uaw9A9vZdQQ/yW0AL\r\n5wU/BIQnP5uPET6L/Yc+hXWBPm3m2z7z3VM/fbWpP//iSkBhkVU/aExIQCfowD8P26Q/VMSQP3LE\r\nN0FyZbdA8ScgQAaMn0DRMB5BsbMiQYOpEEH4yhNA777UP1J9gkBXWf4/R64tPwELSj+0vrI/gIp3\r\nP1BPCkDjnf4+NDdFP6DFxz6hSDZAedo+P0KElT52Sdg/e945P7E4tD8JVZA/0v9XQDzFQ0BPNx5A\r\nETQLQCiKsD8gMgVAjNoGQE/pkUDrQa8/PPBXP2y1cz+RvGc/ZHtOQNu89T8M4z0/4NloP3W81T4q\r\nCYo+CCcmP3QwGkCEusg/nWyPPioMpD7K8sA+ijFvPsJ8/j1W4eE9ZJeoPiplJkDH4to+/fxvPhqB\r\n+z1uTu498KcaPpKggD5BgxI+fgkIP62joz6JCws+cHyhPTIo8D2ckEI+eCNDPh2Itj0lsYY8nClL\r\nPQx3tz3gbQk9DE9jPE4iLj14QtE922oJPbuNBz1QpjI9CPfXPTdphD6pY5U9sHEBPWJsQj1tKIU9\r\nr+QJPcFt9Dy8P3o9GiR6PaP3jj5iihs9r4x1PdwqAj0h3kE9TODOPBoNizw62js9lCWPPaiFlzwE\r\n9K485LUTPZl6QD3n6qM9yucZPSj5Cj3kzTU98zQRPVkqBD0j3gI9FBhDPNob+jwyijE9G6DyPAwR\r\nXT22nNA8BLtEPOWIejyDSLY8QBQUPXh+Aj0D5pE9MFj2PPD/1Txn1lo9MjkSPWo1Ez2vK6082FKE\r\nPNNEizyg1ow8J8hEPJpDBD3C6TI9EKZ9PXrtxD3oeNc8WXclPekGvj10vIk95+L+PCDaUT1bZQo9\r\nXr21PDCBAT3JqYg99ogYPa33Bj2kJZ48/r8rPfYArTwlkpU8YLSDPGkEqDxwz1E8lNF6PLT6rzwm\r\nAws9bbaLPHyHJD0lXMg8jw8QPZK2ljwmzz88BIKbPJG/hDxRpAo9RH85PJr+pjxI42A87uZmPZIE\r\nwzwosFw80QcYPIzd2DuhdTU8fDG1PIfAwT3ULFw9QKhvPNe6ZzyZnss8hKyHPNowGzxLmiM8G3fs\r\nPL0rRjzRmTM8PBDKO20P0Tv0JCw89sRpPJVrVTwvaJo8ZaCdPAdZ7Dudecg76+ZYPJ/xFDzFRyw8\r\nV0x3PDuFDD3Bcus8ECgwPCORjDyPUOE7FBywO30KCzzrBIE857Q3PaX/Cj2beSg81lOFO6TpTjx9\r\nlD08bdPkOxSsCzxX3yU8FiGgO82jhDyLGYM8jU3UPJvr8zv3E488rDX8PNd/MDwpomQ80fEXPEyi\r\nwjzmKSo9bDaoPO760DyEIhw8ZeinO9aVwzuzfxU8eLQ7PCH5nDvyWjo8W7yTPC8s2Du6Vpc79rqD\r\nPKaOjjysVP48EQufPF4zjjujJUI8V9OHO1tYQTxFoIM8tsOCPIjNIDz6gVY8+qgCPKRUjzsqxRs8\r\nktoNPGA2rjw3Ia47V5EkPDe8yTvxPX486euHO5gbgjygJVo8EAqxOyYSgzybvDQ8nnGkO3OoMDzc\r\n0bU83EUuPPNXpzsNXmo71uWmO/82XTsSgGk7ykVeO5b0fDuViBw8yQQ5PPFOgzx6Uo47iwN+O3lO\r\n5jtiw/87vOLKO2XaEjumvA88OtXJPFSmqTzQacY8uTAlPMOYeTsATcw66+lCOwNGUDtUg8U6zf9N\r\nO6c4gTogNZw6EanWOkTGozp8fhU7w7lFOs7b8jmtWRw66n8OOhS4cznKkBU65s6XOd49vzkM1Mo5\r\n60e5OblIkjmk5KM5I1fFOfnKvznMVXU5adqKOQjimzmwO6o5Fp0kOWlGLzk/m4857HWGOUbgZznY\r\nCUU5WS6WOWVZSDkjZlE52iB5OZqTXTkouDo5gZqSOdBaXDnK8ls5oFBxORDVdzkG4Hk59HBjOfg5\r\nSDm4XWM54R10Oe6NWTm8FVs59h9qObFOTDkar1s56BhmOTwbXTk7oFg5Qk1SOfVERzmjhFU5RKRH\r\nOZeURjk0qUM55GFMOUoXRznU8Uk5cs9KOUiyPzndSU054qJAOcqASzlwzDo5EKBGOT44QzmjvjQ5\r\nqlJMOYpHNTlTnUQ5p+o5OQJVRjmIfU85Tpo7OZdtQzmlOUA5as8xOSpgPzma6T45SBI2OUamOjnO\r\nWDs5ERJCOQBnMjk6x0A53sA0OWakLjlQXDc5fqghOZotMTlYKy05L9IvOdZJITnoySM5uO41Oc3W\r\nHTnnkiQ57uwhOaS7LTm8Kys5R6Q5Obj1MTlTISk5SO4nOQ+BLjlyfS05Xn0fOfp/GTnMpxo5KzMU\r\nOZ4ZHTn8aSY5FNYcOX5FIjmu3SE5vrgVOT1LJzmu3xo5H6okOUmKFzntgBo50i0dOTBJETkc/SQ5\r\nxqYROVuxFTn8vBc5yuoeOXzOGDn4DCE51KUkOc9bGzmY+gU5BvoeOblFBzmIFg05A3EQORj0Dzmg\r\nCxA5FjQWOUGvEjnEzRQ5ZdINORrBDjlyexg5ybkLOXZiBTnIZwU5+gwGOXBYFDlCGBo5mlEMOYo3\r\nBDnYOgU59qkAOY4P9ThoRAo5RkH+OIYiEjmyVwc5bvYGOZFiBzlf1QE5sgAGOaq8DjkuNgI5sRD+\r\nOK9r+DgaDOk4YfHiOH7h+Ti3gQk5QpX7OLPH8DhDhug4EsPyOH7/9DioE/A4FDf/OAAK+jhyzes4\r\nJcTtOLqlAjnOx/k4Zn8COURm8DjXz+w4s0joOCdf7zgHt+44ZET7OJpK4zgbWgU5bOTkONCX7DgS\r\n8AQ5JkT6ODBO/zgwPvE4kgkAOfNU+DgMleg4fJT7OJ9N4TiA/+046iXoOJIu7jj7I+I4ADL4OFEV\r\n6Ti7zeg4FwjVOJ3n0DhTMfY4QsrQOPK20zhqgtw4F5bjOPsz+ThFI7s4JjjaODUi1zgKJNc4raq7\r\nOLSr2jgweuc49ULhOCAp4DgcFNE43nnEOI61zziPf9E4Et7kOM284Dh0YMw43j3cOD7u1jgItsg4\r\ntgnYOLJZwDjgFdE4lNLeOJep3zihC8s4tKnMOOFvyjhnDdI4kITbOIw9xDgoRsY4eBHMOMX3zzgJ\r\nj8Y47hvOOE0VujjjesA47CPWOAAe2jgP4MU47LLKONRbszgYWNk4iv7AOFiVsjjYpMY4ogDLOFy2\r\nvDiFwcs4QB3FOIxBxjg+Or04HOHHOPFRwzijKbs4KuW/ODzmwzgCLsM4s2G8OKN9tTjnJsA4wgax\r\nOAhYwTgXt8k4mqfGOJ4WvzjUIs44GlDCOIxXwTj6jcQ4dxXDOPDltzjzlaI4pDK/OBD6rzj4s7s4\r\n+jPEOD3Ltjg+sbc4ysK1OH9SsThaja04nnWyOAChujiuh8A4b+a4OKEZpjgyo7A4V2m5OIovljiX\r\nNKs4PoKzOBRMrDhNErQ4Aj2zOCmFtjhYPag4JkihOMOwtjh92a04dC2lOA0cqDiN0ac4TGKkOOPi\r\npDj4R604+O+yOGSCwDh4y5o4pnmuOPN6nzgKM5c4KEe0OC7kmzixJb04JYqsOE9Brji4tpc4Inyh\r\nOFE3rTikw6Y4suOoOPwtnjiSkaI4khupOCRanjg0X7A4bBagOKG0rTjUVaQ4tLmdOOrekzjqVas4\r\npmajOAGAnDhC8a84vaCPOAMBnjhI8qg4/42bONJ1mThgdKI4QCaqODTSrDgWmKo44GOcOCaXsThq\r\nsqA41nKYOAgyqDjCOqs4aSefOGO0ozjpLpE49iumOJ2Sljjor5g4ZcubOCkmrTgrApc4ARybOFRT\r\nkTggl6U4ZIeROPIhoDjXyJI44OKfOLwJkzg7h6Q4SW2UOLVrkjg2SZE4qyuiOHIjjDhTapc4CICp\r\nOBquozi7I4g4hfWYOIxsoTioRpA4WVSZOMYWnTjdTqA4oBiTOCRunDhim6Y4/pKEOGNllziZH504\r\n8MOLONeCnTgedok4LXaYOIZKhjhUwq04Rx+aONjDlDhEqI44vTSMONv+hTi4qYI4RNedOL1pjTi+\r\nOp048SqnOLYqojgPOKE4ljKSOILvgjh/nZc4yy2SOJe0jjgZO4k4/s6IOBjJnDinboM4W/OZOE3q\r\nijig75k4AEuTOL/rizhuzIE4/cByOEtGnDhf3pU4YsCMOPl8izhhQJY4P0iPODulozi8+IY4RY+C\r\nOCGviThar5E4IsyOOOuPiTiKwoo4WmeOOIctjjiXC4s4ibqDOKh6eDhaC4c4PfKJOA7XizhYm344\r\nHIWiOGwzgzjYdo04a1ekOMnxgziCTYs4AauFOIXcazghLow4IleTOKOpjzhRh4I4QNyGOIhDlDgz\r\nKI84/3SSOClpnTi4yI44dBqPOJN9mjgzfIc4FkyNOLRchTiO84s49ct8ONoQZzjbbY84RoV3OLOq\r\nhTi9N4M4PIaXOEHGmzgOfYw4ZjCKOEHeizgIL4s46RFyOCFwfTh2I2s4dfWJOAbjiTh7n4Q4buxy\r\nOO98gDgDFJA4xlWCOC1sgDhoXYk4TceLOJKjkDjAsYQ4nA+PONXIgTjiC404Yq54OHGDjDgUC3k4\r\nuZWAOGDphjhcAmU4/72LOD0lgjgK2Is4IgaIOMCIgjgTnns4f2eDOPe8bThkgH04dA2DOBQNdjje\r\nRoA4qxaHOP81hTgQyXE44GaGOJR6gTgHM4g4kBuJOLkjbTg3S3E4806HOCi/gDh2LYA4mv6LONwC\r\ndzjhZ4M4DK1fOM5hgThTlWA4hluGONazfzgDBHs4tS5jOMq0gThKu4w4hvR7OK62fjjEGIk4vi+N\r\nOI70gDjJ1YI4sqKPOEZgbDjg/Y04R+F0OKS2aDhlFJA4WAFqOP/XZDhxS444RVpsOA3XdDjy+HU4\r\nHdtqODRvZjhRJWA4CGuDONP0fjhD9Xg4DCpnOJI/gjgyUpA4q+5TOEEkYzgxjY04uSFhOP9YgTgm\r\n3WQ4Io1hOO9VeDi9woM4tqByODnxaDiYlnI4jcB/OOgAdjh+CXI4ZnJqOBtRXjjbyH04ZIeBOBJc\r\neDjr0n84w8qJODaggDgNunM4wrSCOIzXfDi6YoI4fQZiOK4aYTju5YE4BZVfOKiLXDhUY3g45N11\r\nOH9OajgFuGc41pl6OA5sZjiGP0k4rw9iOH/3dzgTG4k4n5JeOIlEaTjJeIU4rxWCOB0xZDhmMYE4\r\nm7aCOG2VczhKIl04RaVnOEDgdTgwiGw4n8SAOGjUdTgyAWA4kpqIOO1peTi5pnQ4tdF+OPV3jTjZ\r\nKGk4hzlkOFNyhTi6WXY43e94OLBEbjizQ2E4uIRqOE0VbTgZ2HU4G3J8OHnFZTgk0GY4RBKCODBr\r\niDhzjHc4lbN5OGojeTi034E4/Ex5ODuueziHQ4c4HQ53OKqzizixomw4ufWKOMi+eDif72w48/SB\r\nODxGcTjj0F04yoNoOMQWZji4q3w4UtdzOMeXgjjTx4Q4OkBrONP1dzj4nHA4ADKKOA==",
                            "noiseTrainingType" : "default"
                          }
                        }
                    ],
                    "start" : 22651,
                    "duration" : 16,
                    "mediaStart" : 10643,
                    "mediaDuration" : 16,
                    "scalar" : 1,
                    "metadata" : {
                      "WinSubProjectDisplayName" : "",
                      "clipSpeedAttribute" : false
                    },
                    "animationTracks" : {

                    }
                  },
                  {
                    "id" : 398,
                    "_type" : "StitchedMedia",
                    "minMediaStart" : 0,
                    "attributes" : {
                      "ident" : "tower-05",
                      "gain" : 1.0,
                      "mixToMono" : false
                    },
                    "parameters" : {
                      "volume" : {
                        "type" : "double",
                        "keyframes" : [
                          {
                            "endTime" : 0,
                            "time" : 0,
                            "value" : 1.0,
                            "duration" : 0
                          },
                          {
                            "endTime" : 10335,
                            "time" : 10335,
                            "value" : 1.0,
                            "duration" : 0
                          }
                        ]
                      },
                      "cursorOpacity" : 1.0,
                      "cursorScale" : 1.0
                    },
                    "medias" : [
                        {
                          "id" : 399,
                          "_type" : "AMFile",
                          "src" : 5,
                          "trackNumber" : 1,
                          "attributes" : {
                            "ident" : "",
                            "sampleRate" : 44100,
                            "bitDepth" : 16,
                            "gain" : 1.0,
                            "mixToMono" : false
                          },
                            "channelNumber" : "0,1",
                          "effects" : [

                          ],
                          "start" : 0,
                          "duration" : 1383,
                          "mediaStart" : 0,
                          "mediaDuration" : 1383,
                          "scalar" : 1,
                          "metadata" : {
                            "WinSubProjectDisplayName" : ""
                          },
                          "animationTracks" : {

                          }
                        },
                        {
                          "id" : 400,
                          "_type" : "AMFile",
                          "src" : 5,
                          "trackNumber" : 1,
                          "attributes" : {
                            "ident" : "",
                            "sampleRate" : 44100,
                            "bitDepth" : 16,
                            "gain" : 1.0,
                            "mixToMono" : false
                          },
                            "channelNumber" : "0,1",
                          "effects" : [

                          ],
                          "start" : 1383,
                          "duration" : 2726,
                          "mediaStart" : 1406,
                          "mediaDuration" : 2726,
                          "scalar" : 1,
                          "metadata" : {
                            "WinSubProjectDisplayName" : ""
                          },
                          "animationTracks" : {

                          }
                        },
                        {
                          "id" : 401,
                          "_type" : "AMFile",
                          "src" : 5,
                          "trackNumber" : 1,
                          "attributes" : {
                            "ident" : "",
                            "sampleRate" : 44100,
                            "bitDepth" : 16,
                            "gain" : 1.0,
                            "mixToMono" : false
                          },
                            "channelNumber" : "0,1",
                          "effects" : [

                          ],
                          "start" : 4109,
                          "duration" : 424,
                          "mediaStart" : 4173,
                          "mediaDuration" : 424,
                          "scalar" : 1,
                          "metadata" : {
                            "WinSubProjectDisplayName" : ""
                          },
                          "animationTracks" : {

                          }
                        },
                        {
                          "id" : 402,
                          "_type" : "AMFile",
                          "src" : 5,
                          "trackNumber" : 1,
                          "attributes" : {
                            "ident" : "",
                            "sampleRate" : 44100,
                            "bitDepth" : 16,
                            "gain" : 1.0,
                            "mixToMono" : false
                          },
                            "channelNumber" : "0,1",
                          "effects" : [

                          ],
                          "start" : 4533,
                          "duration" : 139,
                          "mediaStart" : 4741,
                          "mediaDuration" : 139,
                          "scalar" : 1,
                          "metadata" : {
                            "WinSubProjectDisplayName" : ""
                          },
                          "animationTracks" : {

                          }
                        },
                        {
                          "id" : 403,
                          "_type" : "AMFile",
                          "src" : 5,
                          "trackNumber" : 1,
                          "attributes" : {
                            "ident" : "",
                            "sampleRate" : 44100,
                            "bitDepth" : 16,
                            "gain" : 1.0,
                            "mixToMono" : false
                          },
                            "channelNumber" : "0,1",
                          "effects" : [

                          ],
                          "start" : 4672,
                          "duration" : 212,
                          "mediaStart" : 5022,
                          "mediaDuration" : 212,
                          "scalar" : 1,
                          "metadata" : {
                            "WinSubProjectDisplayName" : ""
                          },
                          "animationTracks" : {

                          }
                        },
                        {
                          "id" : 404,
                          "_type" : "AMFile",
                          "src" : 5,
                          "trackNumber" : 1,
                          "attributes" : {
                            "ident" : "",
                            "sampleRate" : 44100,
                            "bitDepth" : 16,
                            "gain" : 1.0,
                            "mixToMono" : false
                          },
                            "channelNumber" : "0,1",
                          "effects" : [

                          ],
                          "start" : 4884,
                          "duration" : 634,
                          "mediaStart" : 5243,
                          "mediaDuration" : 634,
                          "scalar" : 1,
                          "metadata" : {
                            "WinSubProjectDisplayName" : ""
                          },
                          "animationTracks" : {

                          }
                        },
                        {
                          "id" : 405,
                          "_type" : "AMFile",
                          "src" : 5,
                          "trackNumber" : 1,
                          "attributes" : {
                            "ident" : "",
                            "sampleRate" : 44100,
                            "bitDepth" : 16,
                            "gain" : 1.0,
                            "mixToMono" : false
                          },
                            "channelNumber" : "0,1",
                          "effects" : [

                          ],
                          "start" : 5518,
                          "duration" : 3511,
                          "mediaStart" : 5894,
                          "mediaDuration" : 3511,
                          "scalar" : 1,
                          "metadata" : {
                            "WinSubProjectDisplayName" : ""
                          },
                          "animationTracks" : {

                          }
                        },
                        {
                          "id" : 406,
                          "_type" : "AMFile",
                          "src" : 5,
                          "trackNumber" : 1,
                          "attributes" : {
                            "ident" : "",
                            "sampleRate" : 44100,
                            "bitDepth" : 16,
                            "gain" : 1.0,
                            "mixToMono" : false
                          },
                            "channelNumber" : "0,1",
                          "effects" : [

                          ],
                          "start" : 9029,
                          "duration" : 45,
                          "mediaStart" : 9418,
                          "mediaDuration" : 45,
                          "scalar" : 1,
                          "metadata" : {
                            "WinSubProjectDisplayName" : ""
                          },
                          "animationTracks" : {

                          }
                        },
                        {
                          "id" : 407,
                          "_type" : "AMFile",
                          "src" : 5,
                          "trackNumber" : 1,
                          "attributes" : {
                            "ident" : "",
                            "sampleRate" : 44100,
                            "bitDepth" : 16,
                            "gain" : 1.0,
                            "mixToMono" : false
                          },
                            "channelNumber" : "0,1",
                          "effects" : [

                          ],
                          "start" : 9074,
                          "duration" : 90,
                          "mediaStart" : 9508,
                          "mediaDuration" : 90,
                          "scalar" : 1,
                          "metadata" : {
                            "WinSubProjectDisplayName" : ""
                          },
                          "animationTracks" : {

                          }
                        },
                        {
                          "id" : 408,
                          "_type" : "AMFile",
                          "src" : 5,
                          "trackNumber" : 1,
                          "attributes" : {
                            "ident" : "",
                            "sampleRate" : 44100,
                            "bitDepth" : 16,
                            "gain" : 1.0,
                            "mixToMono" : false
                          },
                            "channelNumber" : "0,1",
                          "effects" : [

                          ],
                          "start" : 9164,
                          "duration" : 6190,
                          "mediaStart" : 9606,
                          "mediaDuration" : 6190,
                          "scalar" : 1,
                          "metadata" : {
                            "WinSubProjectDisplayName" : ""
                          },
                          "animationTracks" : {

                          }
                        }
                    ],
                    "effects" : [
                        {
                          "effectName" : "NoiseReduction",
                          "category" : "categoryAudioEffects",
                          "parameters" : {
                            "denoiserAmount" : 20.0,
                            "denoiserThreshold" : 0.0,
                            "noiseProfile" : "0DLBQIHdHEFkF58/DucDP0ozzT57KmtAgMC/QJeMVkBqXPY/DM/ZQMiezz4uXQw/LmsPQAr6XUGb\r\n61tADcoFP5xdJz9feBE+k96HPoV1gT5t5ts+891TP321qT//4kpAYZFVP/Y5SEBV+cA/y9mkP1TE\r\nkD/IwDdBlGu3QPEnIECKjZ9A9zQeQR6sIkGDqRBB+MoTQPG91D8HiIJAV1n+P6aiLT8BC0o/tL6y\r\nP4CKdz+TTwpAgu3+PkNWRT+gxcc+oUg2QHnaPj+xh5U+dknYPzLVOT+xOLQ/CVWQP9L/V0A8xUNA\r\nPD0eQBE0C0C2arA/IDIFQIzaBkBP6ZFAYESvPzzwVz9stXM/LdNnP2R7TkDbvPU/3LQ9P2b3aD9/\r\nmdU+KgmKPggnJj9cFxpA+r7IP2xSjz7uI6Q+OPvAPooxbz7i1P49VuHhPVCFqD7keyZAx+LaPlz+\r\nbz6Fdvs9U1juPU5/Gj4RaoA+nEsSPn4JCD++RKM+d6QKPnB8oT0yKPA9nJBCPngjQz6ubLY9ileG\r\nPPKgSj1Jxbc94G0JPQxPYzwmXi092efQPdtqCT27jQc9Ky4yPXjt1z3+Y4Q+qWOVPRtdAT1ibEI9\r\nbSiFPa/kCT29bPQ8t1R6PWIuej338o4+YoobPVYHdT3irwI9Id5BPVQizzyal4o8Oto7PZQljz3V\r\nVZc8BPSuPOS1Ez1OsUA95umjPcrnGT0o+Qo95M01PRHiED31CgU9I94CPbQJQzzaG/o8ONkxPUKJ\r\n8zwMEV09eMDQPBrVQjzliHo8g0i2PEAUFD0MYwI9A+aRPWZo9jznDdY8L6VbPTI5Ej1qNRM9D5qt\r\nPNhShDzTRIs8oNaMPNNNRDzbawQ9wukyPRCmfT167cQ96HjXPFl3JT3pBr49dLyJPefi/jwg2lE9\r\nW2UKPV69tTzDfAA979SIPfaIGD2t9wY9pCWePJvaKz0PsKs81p2VPJCygzwfY6g8aMFRPDbiejy0\r\niq88JgMLPW22izx8hyQ9JVzIPEIyED0kHZc8kANAPASCmzyRv4Q8UaQKPaDdOTya/qY8SONgPO7m\r\nZj2SBMM8St5bPMcEFzySSNo7oXU1PIkPtTyHwME91CxcPbHibzzXumc8mZ7LPISshzzP8xs82rQj\r\nPBt37Dy9K0Y82igzPCOeyjttD9E7ffAqPBVpajyVa1U8L2iaPGWgnTwHWew7nXnIO3F0WTyf8RQ8\r\ncJ4rPFdMdzys2Qw9uZnrPBAoMDwjkYw8ZSrhO/YQrTvamQo86wSBPOe0Nz2l/wo9m3koPNV4hTsy\r\nH088fZQ9PLqm5Du70Qw8V98lPJuToDvGLYU81seCPI1N1DxMYPM79xOPPKw1/DzXfzA8KaJkPNHx\r\nFzwUl8M85ikqPTntpzzko9A8hCIcPGXopzvWlcM7H2AVPHi0OzybEZ47v2A6PPGfkzwEStg7ulaX\r\nO9ozhDymjo48xoL+PBELnzy7Co07q9xBPFfThzsPfUE8RaCDPL6FgjyIzSA8+oFWPLHJAjykVI87\r\nKsUbPJLaDTxgNq48I8asO1eRJDw3iso7flx+PNXbiDv0r4E8oCVaPBAKsTue9oE8wyc0PCIKpTtz\r\nqDA83NG1PNxFLjyyaac7A/NoOy3vpjs2ul87YvhsO+SNXzu82Hw78QEcPMkEOTxIsoM8elKOO4sD\r\nfjuwZ+Y7Fkz/O5JKyztCihU7prwPPDrVyTx0Bao80GnGPLkwJTzykXg7AE3MOuvpQjuwUVA7VIPF\r\nOsqWTjskaoE6vVaZOj+m0DpDQJ86vAAXOxrIRjrO2/I5rVkcOjy2DjoUuHM5HikWOgDpmzk2qrg5\r\nDNTKOQuAwTlKYZA5RZqnOcC+vjl6IMI5trduOaJGkTnid6E5QBqnOWXiHTk5Q0I5GJ2SOReokDmO\r\nrVE5spNOOYKTcznOllU5MAVuOWJaXTnR5VU5SgdqOcFKizm96m059pCAOWJxbzk2i2g5duKBOeQ3\r\nQznIUHc5w6hdOXh0RTkpQXg52sxvOSZKdzlqc2Q52JF4OUQXXjnwr1A5pItXOeI4Pzn1C3E5WM1V\r\nOUJGNTn2vE85yJNLOZZxQjmEDlI5hVJROWh6RTms10M5uQ88ObaQPTkQxUw5XUc2OedjPznSh0k5\r\n+jsyOdz8RDlbkS85BqlKOcVYQDnqsko5sm5DOeajPDlcFzc5MME0Ob87Lznq5Tg5nu43OY6rODmo\r\nKzk5HGw4OVduRTkqpDU5g8ssOY0ELTnQrDg5iNQzObkKJTlGsi05NnwuOaIULTn83zI5T3YkOTIj\r\nMTlKuyI5NOIeOYqlHDmukjU5Xs8kOaCrNDk7jDI5q8AoObeyLDnq/yY53uMlOUm3HDm0wR45ki8b\r\nOdfnFjkorCE5xLUeOZwEJDlw8CE5DNMhORyQFTnach05/zwgOfPAFDnqFho5guUjOVjtHjlo1Q05\r\nWjgaOWIAFDnmZgo5QxMSOYPdJDmTFRY5tH8WOWYODzl8Hg85Tw0ROU4qEjl+ShA5COIHOSWGCTmV\r\nBRM5JNMUOUSVCTkFiQ45Cs4OOYIeCznAxQk5JI0POa5CDzlWqw45JesQOQxZCDm89xw59qMSOfIK\r\nDDnLmgc5N33+OKKnCTkevvo4Sf8GOYQpDDmV2ws5NKgKOe7XBTk8ogg5n0kFOS55BDnY2wk5D0IE\r\nOSNFATnVZgU5fCf+OGi+9jiYhQQ5IzEBOdCV9jiuDQY5Eq/pOE6W8jhG3uk4WiP+OMD8BjmAgPE4\r\ncTHqOOTE9TjRUvA4KEj5OGp+Ajl8XOQ4WyPnOP5b+DgiSfE4OFzrOF1rATmsceI4O9YDObiw9ThT\r\nhfU4s1DzOGcR/Timm+o4rIj/OOH/9jinhPA44urWOGrn9jiWSfI4NuL3OIIPzji1Les4sB7dOKxP\r\n+ThAE+o4QJjdOERe8Tiwe8U42mTmOGIJ1TjJDt84UEXhOLyD2zjEfu04dezVOK033DgOZcQ4jyTb\r\nOIq+4jgC/tw4zmLjODrj1jhCyNc4A+fKOFyBzjgEBdU49TfcOFdG4DhqGMM4HFvQOG6UzTh4I9I4\r\nARbWOMaOzTiMYsA4ltfjOPeswjiGCNs4GgHeOJ5pzThMAs44k6fVOCASwzhJnMY4TAzSOJJY1TjG\r\nLdY4ykrWODJBwTin0ME4l5i7OBnWuDjgOb444d3FOEKqzDg+Vso4rAbOOM7Xyjg82rk4hLvHOEpz\r\nwDh8PMM4jRzIOBR0xThVMsE4Qtq/OA6HuTg0qs44ryi6OCLexziHKcM4nKDJOMFtuTjYVbY4rX3H\r\nOOb0wTg82sg4uu3FOII0wDg1eLw40XHAONnQxzimObg45yDBOJs1zTiVO7g4rPKzOK4GwjhaZb04\r\nO/y9OI5CwjgcKLE4mSfFOGe2pzjogb44gNC1OCb1tDiVq6848HW8OJmhvzg4Hrs406OmOIQDqTjl\r\nrZo4gvalOM66qDhr47M4+UG8OAXXsjjCSsI4VgqpOGVuoTh8ksk4HBeuOI4fszh0AKw4jTGxOEEl\r\npThziKw4Hn+iOLvBrjgPkrs40jqnOMNOrzhQI6I4FniVOOgcsDj0Apw4lq+vOIgArzgaZbM4HLOi\r\nOFcYpDjGmqc4CMKiOPHJmziPnKA44IWmOCqJnDh6z604uWauOGHYsTiGs5c4CGSVOMYEnTh+Pak4\r\nGJKYOIeeoDiKbJs4EDueONWooziPJ6o4YdaqOOjPkDgRZZ446qSyOGAxmjgD9qE44dOeOJpqmDgk\r\npq44yQSoOPw0lzjCyak4pEmiOIF3qzgbJ5s4/BygOKtfpzgYtJ04aZWZOHxGmDi0VLI4PGaXOISm\r\niThAw5o4yGioOLCDjzhEXJ44mnyeOFC6pDhu6Js486ikOM/XmTiVppk4XmuaOBLClzjFmIY4wk+O\r\nOBgApDh1/aA4YlWfOHRwpTjmlJg4XrKMODoFizgy5KM4bvSfOAr9jThHIJ04mZWZOIXKZzhw0Is4\r\n0+KiOIIqijgwlZM4GlaCOGGapTj1L5E4NjqeOI5JjTgGr5k4VBmDOJuOjDjCrZk4ckmBOGfPlziT\r\nuZM4Rm2AOGcMqzgKt544ZmyNOOLNkDg5DI44/paNOLm5jjh7eJE4jYyOOE0giTg40aQ4B3aIOMjE\r\nmDhNDYM4PGSGODkomDiW1Jo4CH2GOFL9kDht7oQ442uMOGtAjDi5Uow4ArOfOJGCiTh4C54485qI\r\nOCcPbDhnK5Y4HzqUOEiziTgqAoY48VeNOKmBjTiAcZI4fguHONQPjjiC2IU40PuNOEJfijhFKGw4\r\nHKyCOD7jkzgREYM4PC6GODFVizj2NIQ4ni2HOAxEiDh+UIA41i98OBK/gDjyjpI4EweJOOCEgzj+\r\nopQ4YHaPONCKmDhoKJo4Fn9yOHbgmTg6r5A44i2HOFcejji/o4o46nKVOH7Xjzhxu344/JWEOE1c\r\neThqs4o4nv+GODmFmzj9v5E4CU2WOAGEezizgog44S+UOJbNhzjCNHs4AFV/OPHehDiaUHM4iPyR\r\nOKRrbjhFU4w4I3GYOCHrjTho2ZE4PwOPOD5ZiDiDfI44qqKPOL2iizgseIk4HkCLOIUufDi9T4c4\r\n/35sOLcUkzh8+Ig40hRhONTpijj3uGw4C0SQOEJBgziJrYM4ubNvOG3WhThmP484dUh6OAAoeTg5\r\nIno42J6IOPgLgzh/OYc4fyllOKXjhjhsxFU4wcKROPv0ijhLy3U4dc9/OH5DaDgmfYk4RXmCOM8V\r\ndzhAJHw4m6eBOF0Rbzg2AH84T1h8OJMfczinC5A4AlaMOOLfRjiDMoQ4X4+CODh5hjhIw484eA6B\r\nOA1CkDiu1Y049r2NOLfUfjiIMoA4KGeNOJLFaDgZ0mc4FJ6AODT4VThtQ1c4EJaJOKAobziEUYU4\r\nTDh7OH5ocDiYKmA4SupvOKJuczg0kow4/997OBccbjh5KXg4odyJOF/ZbDjE6Xo4MaR2OFP4aDh9\r\n3II4DglgOIhHYTgG31845X9/ODqzXjjgGm04Hsp0OONMeThtroU4NfZ1ONTTdTj0Elk4fYeCOGfb\r\ngDht7m44ha9zOOYXgDi/nYE4JGWAOJRMcTijSYk4fhqNODcWYzjOfXI4bhxrONa7eTgcP184Xit9\r\nOHXEbTg1PFo43jNlONpLZjiCA4U4m2FYOB0WfDguqWQ4yZ6KOAonfDjI3Wc4NNhiOADlhjgc7l84\r\n2cuAONqyazisAYA4DGJ7OFk2fjgj/Ws4CzWBODZiczgdGoY4GtxROIXWhDh4omU4XY9sOPGZhjje\r\nsXE4zsp4ODWfdTg8d3Q4pPJvOPVjhTir2XE4ifR5OMfOaTgtB1w4Rk+FOEi8bDgwgXI4iCyAOA2g\r\nfTgfKGU4QHdjOOHOgDhaAYc4pu6EOBWadzjmnWk4SkyDOBxjfzhHe3M4M4xpOAQ/hzi7bWQ4Uqxv\r\nOIUkgzhRFoA424VdOFN8dDim0lM4FHp4OKQzgjiF5mg4LBRzOFLEgjiF2Fs4wU2EOIAAgTjQMsFA\r\ngd0cQWQXnz8O5wM/TCzNPnsqa0CAwL9Al4xWQI5T9j8Mz9lAyJ7PPi5dDD8uaw9A9vZdQQ/yW0AL\r\n5wU/BIQnP5uPET6L/Yc+hXWBPm3m2z7z3VM/fbWpP//iSkBhkVU/aExIQCfowD8P26Q/VMSQP3LE\r\nN0FyZbdA8ScgQAaMn0DRMB5BsbMiQYOpEEH4yhNA777UP1J9gkBXWf4/R64tPwELSj+0vrI/gIp3\r\nP1BPCkDjnf4+NDdFP6DFxz6hSDZAedo+P0KElT52Sdg/e945P7E4tD8JVZA/0v9XQDzFQ0BPNx5A\r\nETQLQCiKsD8gMgVAjNoGQE/pkUDrQa8/PPBXP2y1cz+RvGc/ZHtOQNu89T8M4z0/4NloP3W81T4q\r\nCYo+CCcmP3QwGkCEusg/nWyPPioMpD7K8sA+ijFvPsJ8/j1W4eE9ZJeoPiplJkDH4to+/fxvPhqB\r\n+z1uTu498KcaPpKggD5BgxI+fgkIP62joz6JCws+cHyhPTIo8D2ckEI+eCNDPh2Itj0lsYY8nClL\r\nPQx3tz3gbQk9DE9jPE4iLj14QtE922oJPbuNBz1QpjI9CPfXPTdphD6pY5U9sHEBPWJsQj1tKIU9\r\nr+QJPcFt9Dy8P3o9GiR6PaP3jj5iihs9r4x1PdwqAj0h3kE9TODOPBoNizw62js9lCWPPaiFlzwE\r\n9K485LUTPZl6QD3n6qM9yucZPSj5Cj3kzTU98zQRPVkqBD0j3gI9FBhDPNob+jwyijE9G6DyPAwR\r\nXT22nNA8BLtEPOWIejyDSLY8QBQUPXh+Aj0D5pE9MFj2PPD/1Txn1lo9MjkSPWo1Ez2vK6082FKE\r\nPNNEizyg1ow8J8hEPJpDBD3C6TI9EKZ9PXrtxD3oeNc8WXclPekGvj10vIk95+L+PCDaUT1bZQo9\r\nXr21PDCBAT3JqYg99ogYPa33Bj2kJZ48/r8rPfYArTwlkpU8YLSDPGkEqDxwz1E8lNF6PLT6rzwm\r\nAws9bbaLPHyHJD0lXMg8jw8QPZK2ljwmzz88BIKbPJG/hDxRpAo9RH85PJr+pjxI42A87uZmPZIE\r\nwzwosFw80QcYPIzd2DuhdTU8fDG1PIfAwT3ULFw9QKhvPNe6ZzyZnss8hKyHPNowGzxLmiM8G3fs\r\nPL0rRjzRmTM8PBDKO20P0Tv0JCw89sRpPJVrVTwvaJo8ZaCdPAdZ7Dudecg76+ZYPJ/xFDzFRyw8\r\nV0x3PDuFDD3Bcus8ECgwPCORjDyPUOE7FBywO30KCzzrBIE857Q3PaX/Cj2beSg81lOFO6TpTjx9\r\nlD08bdPkOxSsCzxX3yU8FiGgO82jhDyLGYM8jU3UPJvr8zv3E488rDX8PNd/MDwpomQ80fEXPEyi\r\nwjzmKSo9bDaoPO760DyEIhw8ZeinO9aVwzuzfxU8eLQ7PCH5nDvyWjo8W7yTPC8s2Du6Vpc79rqD\r\nPKaOjjysVP48EQufPF4zjjujJUI8V9OHO1tYQTxFoIM8tsOCPIjNIDz6gVY8+qgCPKRUjzsqxRs8\r\nktoNPGA2rjw3Ia47V5EkPDe8yTvxPX486euHO5gbgjygJVo8EAqxOyYSgzybvDQ8nnGkO3OoMDzc\r\n0bU83EUuPPNXpzsNXmo71uWmO/82XTsSgGk7ykVeO5b0fDuViBw8yQQ5PPFOgzx6Uo47iwN+O3lO\r\n5jtiw/87vOLKO2XaEjumvA88OtXJPFSmqTzQacY8uTAlPMOYeTsATcw66+lCOwNGUDtUg8U6zf9N\r\nO6c4gTogNZw6EanWOkTGozp8fhU7w7lFOs7b8jmtWRw66n8OOhS4cznKkBU65s6XOd49vzkM1Mo5\r\n60e5OblIkjmk5KM5I1fFOfnKvznMVXU5adqKOQjimzmwO6o5Fp0kOWlGLzk/m4857HWGOUbgZznY\r\nCUU5WS6WOWVZSDkjZlE52iB5OZqTXTkouDo5gZqSOdBaXDnK8ls5oFBxORDVdzkG4Hk59HBjOfg5\r\nSDm4XWM54R10Oe6NWTm8FVs59h9qObFOTDkar1s56BhmOTwbXTk7oFg5Qk1SOfVERzmjhFU5RKRH\r\nOZeURjk0qUM55GFMOUoXRznU8Uk5cs9KOUiyPzndSU054qJAOcqASzlwzDo5EKBGOT44QzmjvjQ5\r\nqlJMOYpHNTlTnUQ5p+o5OQJVRjmIfU85Tpo7OZdtQzmlOUA5as8xOSpgPzma6T45SBI2OUamOjnO\r\nWDs5ERJCOQBnMjk6x0A53sA0OWakLjlQXDc5fqghOZotMTlYKy05L9IvOdZJITnoySM5uO41Oc3W\r\nHTnnkiQ57uwhOaS7LTm8Kys5R6Q5Obj1MTlTISk5SO4nOQ+BLjlyfS05Xn0fOfp/GTnMpxo5KzMU\r\nOZ4ZHTn8aSY5FNYcOX5FIjmu3SE5vrgVOT1LJzmu3xo5H6okOUmKFzntgBo50i0dOTBJETkc/SQ5\r\nxqYROVuxFTn8vBc5yuoeOXzOGDn4DCE51KUkOc9bGzmY+gU5BvoeOblFBzmIFg05A3EQORj0Dzmg\r\nCxA5FjQWOUGvEjnEzRQ5ZdINORrBDjlyexg5ybkLOXZiBTnIZwU5+gwGOXBYFDlCGBo5mlEMOYo3\r\nBDnYOgU59qkAOY4P9ThoRAo5RkH+OIYiEjmyVwc5bvYGOZFiBzlf1QE5sgAGOaq8DjkuNgI5sRD+\r\nOK9r+DgaDOk4YfHiOH7h+Ti3gQk5QpX7OLPH8DhDhug4EsPyOH7/9DioE/A4FDf/OAAK+jhyzes4\r\nJcTtOLqlAjnOx/k4Zn8COURm8DjXz+w4s0joOCdf7zgHt+44ZET7OJpK4zgbWgU5bOTkONCX7DgS\r\n8AQ5JkT6ODBO/zgwPvE4kgkAOfNU+DgMleg4fJT7OJ9N4TiA/+046iXoOJIu7jj7I+I4ADL4OFEV\r\n6Ti7zeg4FwjVOJ3n0DhTMfY4QsrQOPK20zhqgtw4F5bjOPsz+ThFI7s4JjjaODUi1zgKJNc4raq7\r\nOLSr2jgweuc49ULhOCAp4DgcFNE43nnEOI61zziPf9E4Et7kOM284Dh0YMw43j3cOD7u1jgItsg4\r\ntgnYOLJZwDjgFdE4lNLeOJep3zihC8s4tKnMOOFvyjhnDdI4kITbOIw9xDgoRsY4eBHMOMX3zzgJ\r\nj8Y47hvOOE0VujjjesA47CPWOAAe2jgP4MU47LLKONRbszgYWNk4iv7AOFiVsjjYpMY4ogDLOFy2\r\nvDiFwcs4QB3FOIxBxjg+Or04HOHHOPFRwzijKbs4KuW/ODzmwzgCLsM4s2G8OKN9tTjnJsA4wgax\r\nOAhYwTgXt8k4mqfGOJ4WvzjUIs44GlDCOIxXwTj6jcQ4dxXDOPDltzjzlaI4pDK/OBD6rzj4s7s4\r\n+jPEOD3Ltjg+sbc4ysK1OH9SsThaja04nnWyOAChujiuh8A4b+a4OKEZpjgyo7A4V2m5OIovljiX\r\nNKs4PoKzOBRMrDhNErQ4Aj2zOCmFtjhYPag4JkihOMOwtjh92a04dC2lOA0cqDiN0ac4TGKkOOPi\r\npDj4R604+O+yOGSCwDh4y5o4pnmuOPN6nzgKM5c4KEe0OC7kmzixJb04JYqsOE9Brji4tpc4Inyh\r\nOFE3rTikw6Y4suOoOPwtnjiSkaI4khupOCRanjg0X7A4bBagOKG0rTjUVaQ4tLmdOOrekzjqVas4\r\npmajOAGAnDhC8a84vaCPOAMBnjhI8qg4/42bONJ1mThgdKI4QCaqODTSrDgWmKo44GOcOCaXsThq\r\nsqA41nKYOAgyqDjCOqs4aSefOGO0ozjpLpE49iumOJ2Sljjor5g4ZcubOCkmrTgrApc4ARybOFRT\r\nkTggl6U4ZIeROPIhoDjXyJI44OKfOLwJkzg7h6Q4SW2UOLVrkjg2SZE4qyuiOHIjjDhTapc4CICp\r\nOBquozi7I4g4hfWYOIxsoTioRpA4WVSZOMYWnTjdTqA4oBiTOCRunDhim6Y4/pKEOGNllziZH504\r\n8MOLONeCnTgedok4LXaYOIZKhjhUwq04Rx+aONjDlDhEqI44vTSMONv+hTi4qYI4RNedOL1pjTi+\r\nOp048SqnOLYqojgPOKE4ljKSOILvgjh/nZc4yy2SOJe0jjgZO4k4/s6IOBjJnDinboM4W/OZOE3q\r\nijig75k4AEuTOL/rizhuzIE4/cByOEtGnDhf3pU4YsCMOPl8izhhQJY4P0iPODulozi8+IY4RY+C\r\nOCGviThar5E4IsyOOOuPiTiKwoo4WmeOOIctjjiXC4s4ibqDOKh6eDhaC4c4PfKJOA7XizhYm344\r\nHIWiOGwzgzjYdo04a1ekOMnxgziCTYs4AauFOIXcazghLow4IleTOKOpjzhRh4I4QNyGOIhDlDgz\r\nKI84/3SSOClpnTi4yI44dBqPOJN9mjgzfIc4FkyNOLRchTiO84s49ct8ONoQZzjbbY84RoV3OLOq\r\nhTi9N4M4PIaXOEHGmzgOfYw4ZjCKOEHeizgIL4s46RFyOCFwfTh2I2s4dfWJOAbjiTh7n4Q4buxy\r\nOO98gDgDFJA4xlWCOC1sgDhoXYk4TceLOJKjkDjAsYQ4nA+PONXIgTjiC404Yq54OHGDjDgUC3k4\r\nuZWAOGDphjhcAmU4/72LOD0lgjgK2Is4IgaIOMCIgjgTnns4f2eDOPe8bThkgH04dA2DOBQNdjje\r\nRoA4qxaHOP81hTgQyXE44GaGOJR6gTgHM4g4kBuJOLkjbTg3S3E4806HOCi/gDh2LYA4mv6LONwC\r\ndzjhZ4M4DK1fOM5hgThTlWA4hluGONazfzgDBHs4tS5jOMq0gThKu4w4hvR7OK62fjjEGIk4vi+N\r\nOI70gDjJ1YI4sqKPOEZgbDjg/Y04R+F0OKS2aDhlFJA4WAFqOP/XZDhxS444RVpsOA3XdDjy+HU4\r\nHdtqODRvZjhRJWA4CGuDONP0fjhD9Xg4DCpnOJI/gjgyUpA4q+5TOEEkYzgxjY04uSFhOP9YgTgm\r\n3WQ4Io1hOO9VeDi9woM4tqByODnxaDiYlnI4jcB/OOgAdjh+CXI4ZnJqOBtRXjjbyH04ZIeBOBJc\r\neDjr0n84w8qJODaggDgNunM4wrSCOIzXfDi6YoI4fQZiOK4aYTju5YE4BZVfOKiLXDhUY3g45N11\r\nOH9OajgFuGc41pl6OA5sZjiGP0k4rw9iOH/3dzgTG4k4n5JeOIlEaTjJeIU4rxWCOB0xZDhmMYE4\r\nm7aCOG2VczhKIl04RaVnOEDgdTgwiGw4n8SAOGjUdTgyAWA4kpqIOO1peTi5pnQ4tdF+OPV3jTjZ\r\nKGk4hzlkOFNyhTi6WXY43e94OLBEbjizQ2E4uIRqOE0VbTgZ2HU4G3J8OHnFZTgk0GY4RBKCODBr\r\niDhzjHc4lbN5OGojeTi034E4/Ex5ODuueziHQ4c4HQ53OKqzizixomw4ufWKOMi+eDif72w48/SB\r\nODxGcTjj0F04yoNoOMQWZji4q3w4UtdzOMeXgjjTx4Q4OkBrONP1dzj4nHA4ADKKOA==",
                            "noiseTrainingType" : "default"
                          }
                        }
                    ],
                    "start" : 22667,
                    "duration" : 76,
                    "mediaStart" : 11858,
                    "mediaDuration" : 76,
                    "scalar" : 1,
                    "metadata" : {
                      "WinSubProjectDisplayName" : "",
                      "clipSpeedAttribute" : false
                    },
                    "animationTracks" : {

                    }
                  },
                  {
                    "id" : 409,
                    "_type" : "AMFile",
                    "src" : 7,
                    "trackNumber" : 1,
                    "attributes" : {
                      "ident" : "tower-07",
                      "sampleRate" : 44100,
                      "bitDepth" : 16,
                      "gain" : 1.0,
                      "mixToMono" : false
                    },
                      "channelNumber" : "0,1",
                    "effects" : [
                        {
                          "effectName" : "NoiseReduction",
                          "category" : "categoryAudioEffects",
                          "parameters" : {
                            "denoiserAmount" : 20.0,
                            "denoiserThreshold" : 0.0,
                            "noiseProfile" : "HYnvPnCR2T4iPRQ/xXdRP6lxO0Bln8VB4iVrQVAX40B9084/gPgjQMJxlj9g+LU+Ya5MPwTgxD9a\r\nbNE+Ad7vPSxEuz6tJL8+WuvKP0qBAz/zQM8+eS66PuDycj6HyCw/eVyvP8yF8D9mFII/hxpYP8Pw\r\nL0AIqTBAFjFuQTEFhEDSUO8/J1MpQYHfwkBEEKxBEsRdQVz0u0BVlLJA4eISQGOY40AUudg/ol+E\r\nP5DGXkDdymtAY7reP3wwtT73A/k+nruSPwgDAUAqQ6A/J6XhPyN5JUA8OOk/qdlgQAL/Lz/VtUpA\r\nATmtQKukD0DY4cs/UjpBPzDm0j66JBo/xK/5Prx6hkCADKw/JNUOQIJh8j+sme5ARu0AQFpDPUC0\r\nbcg/IydYPw5j0j9UHx4//Pe+Ptrdsj5AJaRA4t+ZQLWbDkB8tPI+uGh3Ps5SMD5Fmbc+uiYcPkWo\r\nlD2vRJI9ST4fPpq+Aj5ZLwY+sOnnPRxa5T7Uf8I9sj33PHDdSj0tMsk9QO6EPSozJT8yG8E9/riC\r\nPk6gtD7l9gk+FE/2PQxQET3squE9gLynPaDnlz5vlb09WnZRPflOHj47Fj49YoVKPfKz8j3xUaM9\r\n16s/Ph8uID7I7Jg90qLWPZyoED7NxT4+LAPSPoFtIT1GUZA9Rqn2PfAuFj7Ugac9BETgPdUHlT3Y\r\nUJs9ek4pPjqRYT2lzFk+nHSfPTzF9T0TjWM9FKipPNpOFD0WMPA9oyBUPfjwTD3TqAQ9mVuqPSrU\r\nMz3yBKc9muzJPcVppz09id48uh8SPdbQ3TyMQUU94Kj1PPYdLz1wtmg9mnBSPT9lAz21YFs8gmi3\r\nPXQ6MTzF5DU8knz/PMG8oT1sMeQ8UpaYPOkeEz376a8894vJPOEIOD2TjA09UIQKPYxevD1IUgg9\r\nKFkRPUDh5zyi6u88e8VtPW3d9zwWyLI8YkPFPD44XT2f8aM9WBQzPeJJUT2Mi0M8s6AkPXMXnzw6\r\ncWQ9UioMPYFUFT1GP2w8SgGGPJBBjTyTEVk96F6BPVkEzz163X09V6tgPJWRtDx5vbk8Jfl+PB2t\r\nbjx4Oso84StAPcY54z0bHyE/1uNhPcx2iT5tvIc8YrswPdrRST05GS88L9IXPaYznDyRcCU9wnBu\r\nPUaQpjwAZcc9w00UPZMPkD1FSD8+xj6UPo6hsjyrRGg8qBntOySDCz05X108iHr7OwBANjzhjh49\r\n5ZuxPdixOzx+X7Y98upGPXGgMT1f93w88yKOPPyTjzyXU6k8hs29PBDioDyZzi8922avPLIoOj5q\r\nxqk9IaKLPlp3uz27Vlc9VIXcPFjQwTw0kr08P9mZPCh8cTyRGTw8AwlAPYza9zxvfp085jGIPCIZ\r\npjxtjL073sGNPLoamDsu9rI7HCYWPNngpDyYYuQ8mXg2PMlEvjzC4zw8XbePPCg94zzGLfg7ml2K\r\nPDIzODzK1pc7YSNTPanQED6iOUA9R2yjPfq12DyvOAs9/IVOPBK4wTwoVHs8o3u1O5gydTxgKGk8\r\nb9RmPBY12jzaXAI9RFU1PYtDmDzBKk49cPDVPNiHpDsDTb08nur3O/6qwTuhQAc9dwUbPPRlSTwa\r\nBmQ816xLPdm1gTy/Kjs8qNQbPY9dkjx5OwU9bd9nPIbszDwGnSg9/rH6O27UZDyb4cM7bZYrPGWH\r\nNju40jk7OtwqO416OztYPf07jXY9PK+2Yzy4pbk71DFXPGWKYTx/0bM70ehLPDAWJDwWtLU7oNGQ\r\nOzacNTuq0oU8al+KPBKymzs3K506UUleO1SY5jrHdjU6cz7jOgO8QTobb9c5fmQNO/gNFTrnrTc6\r\nHpJxOiy7Xjo18qA6WvKNOzDI6TkJ6w46ByxMOUdqJznRPA45roD/OH9zgzgc4tQ4wb53ODBjlTil\r\n6D84q7mAOJbAwzi1p7M45ANCOPyugTj08ko4kHR4OIEqKzgWpCY4H65POBj4KzhmVUs4SCwxOK/F\r\nXzgcYKg4bw5/OLWp/zdq2D042mdGOMyUPTjmLzk4cb0COLgtEzjQryk4wksaOImwJzjxVh849IYR\r\nOG9YFjh7HSU4/W4UOMzCHDjXgxk46ggbOJIM+ze3/BI4jQMcOEjA7jfeNiM4oKYfOHpEGjh2CfY3\r\nSbkhOA/15zdhCgw4kpQGOMfS+DdCMf03gLwIOKjh9TeKZRA44JT6N5p3EjjJbPg3b3jqN5B+Bzji\r\nUf43pK/8N6ioBjgTgRI4v8kDOALN/DfkIvY35pD+N9rGEzg26Pg3sw79N9ml8DeBxOg3a3D3N+i9\r\nADiyCgA4Dvr8N3SnDji8FwI4AfHbN0Fb1Te2tPY3UNrmN7bXAzhdVO83mq30N8I54TdGxwg4ZJYF\r\nOMHw3Tf9fOw3Tvj9N8oO/zdtV/g3Uv3ENzFT6zcqje43wM37NzK47zd00PE3cAcBODP88DcoE8o3\r\noIsSOFhuAjjCrOM37I/LN4IV6jeUVe03HqbVN/jR6DeTQdY3CmboN3Rx7DefEQI4PSX6N0BP1zeQ\r\nqOM36GbRN2Eg/zeMDOI3QADjN3gT2jclhvQ3GmrkN8Ik3jdABOs3kIrPN1CH4jf8SPw35H7VN/z2\r\n1jd2RPE3HPbfN5fE3TfiJ+w3fw0FOD1M0DcHkfA3cSfeN3znxTe4hvQ3q93nN2af3jeRt/M3U2nc\r\nN5z/1zeeabs3MtrjN+Qy2jcRW+Y32gfrN9DJyzfOmro3gLHyNxEZ3jfbObI3C7v6N+rE2zcAMuE3\r\nx77GN8ih2Tf4U9A34OqtN/DcwTeOyMM34UjiNxb28jeikfY3pqbfN7wf0jd6o+430dXvN3cX1zfc\r\nUtA3TKjbN0iA9Dccvr43EsjgN0D+wDf0Ut0344ryN1669zeWV/k32OrcN5YJyzcEyec37LK1N2zG\r\n3jf5csQ3MvLMN7Ty1zepUc03Kl/TNzLA6zfko7k3z5LJN+iItjcWDck3S9HTNxhDtDfjCcM3ClXB\r\nN+mKxzcFBck3VlvHN1J9zjfclsQ3r9azN0R/tDfeeco3XP28NzyD4zc8pN438Mz1N6qazjf1WLY3\r\nyOWlNyZWojc+X+w3TJmtN4nE1TcSRq83hGWyN3tLoTcazeg3mAKmNxw02DdazLM3SivCN/7q1jcA\r\ns8o3xKTaN7BPwzfk4ro3/KK7NxBzwzcS7dg3gNG+NxRO2TdSPco30HfJN1gNxzdtUrY3gRyYN4uK\r\nszcjwqc3ahzbN/NexjcWnYs3+u6+NzrmuDcbAZc3/bmzNzD0qTcOSts3UbvJNz6EkzeRaM43uvjD\r\nN6yLqzcgVLg3mNSeN949kTdSR6I3RjjJNxf6qzeqcqQ3fX2WN5HcsTcC6pY3aJmZNyb+tDezc6g3\r\nKDOpN/T40zd8vNk3wsXXN5e4yDc+RMg3PIHANy554TdAq503kCeaN4KEjzeJgaY3JZaiNxFktzem\r\nnYs32HuaN7SLzjcIGro3qEStN2PymTeLXZ43NfWhN3a+yjfeDJk3wguwNzdJ4TcCqJM34N3NN/HL\r\nqDd7S5o3/CKpN9TrvjeJ17U3NlGuN1Q8ojf4XL83DPetN/SnzTeEOHw3gBCkN1rajTfee8Q3t3us\r\nNzfhvTckO4c397hqN1hdkDdIOLI3sK/NN9uirjesq5Q3UtqPN6H1pDee/aM36vqiN68lqzfed7M3\r\nlNC9N5TCqDcDL543a4ysN25HmDcNsaI3cZi1NxhQmjfdaWQ3qo3DN8NdkDdIA4I3gFSzN4CWjzcA\r\nrrA31qKvN5JshDcROaI3NsnDN/8EzzcNKqQ3kP2dN1NxmzctSns3GdCFN3UJiTckj5k3WoGwNyxK\r\nmzfMCos3C8rBNwbxszfthZU3LGupN2wPljceoJE3AWqbNyBaoTdIX7s3tk6eNzK9nDevHZw34lOl\r\nNxwNhzdSgb033K2HNzogozetOWc3WyGYN/4UljcSUqs3fHmQNxCUiTcnbZg3qh60N8R+gTd0spc3\r\nEdmNN4+Bnzdf23U3FCOfN6zumzfP4p4368yTNzTujjderYM3UoixN7NAoDeOCns3VqKhN9pKojeU\r\nzo03TEiKN26usTdu/pM3/5inN9CwgDf2uJw3kG6jN0bQSzdO1o83mIKqN6tqpTdFnII3dN6KN3s5\r\nnTeeNpQ39liBN2MHizcn/JA3hFqeNybdnDdcJIA38cONNxD7gTdtJ603mnemN8vQTDf2Tng3hYSO\r\nN3LEhTf5qaQ3NEZbN0R2rTcnB4Q3AU+CN/0omDeA84k32M+PNxmmkDf6F5Y3TiKdN00KojfttKs3\r\njd6bNzJ6pzfpz4w34kR5N1REnzektJU3JwSbN+EDljciBIA3TMtfN6CshDck8H83tJl5N/eIrDdA\r\nGJY3pJddNwTYqTd/sJU3Rh16N5M0pzd10Ig3Tm+BN95ndTcwI5E3ko+5N0chhjevVJE3pjalN43p\r\ndje4Xnk39febN5qiPDe5LFA3KtmNNzUChDepiYA3WiFbNyM5hTcOt443LrlcN0l0lTeZNkU3YU6g\r\nN2L9ejeq2ow3d+ikNzq0jTclsXE3pEpgN+ojjDfKwKA3YEmaN/Mhgzchk4M3H7U7NwbJjzdrupo3\r\neROTN+gFjDcs41w3gcJfNyuSnjdp5Gs3HVl+N7H3hzepcF433NmJN14+WjeVS4I3VBClNw1SVjdm\r\n/0w3Rph9N0fpoDcuEjU33z6GNwQeijfb8Y03UQV0N+d9dDfo15g3WyyGN/TOkDfoVI83ENOLNxbF\r\ncDekJpM39JCMN+FcWzf8bVU3VB1xN9f5gDcHiGc3GklJNzQBhTfXdIk3BlaDN85CQDe4rIE3n+mg\r\nN8RxmTe20YY3e66INwp3kjdVnJ436OuAN7b8bzdjZXE3H7g5Nymukjd1ums369aINzZwhDe1+Yw3\r\nGciQN87FejfBWJ03rDWdN2Tshze/kp43h5qbN7jsljeX+oo3MtWtN8gtozeeyY83KPWANwX0jDfE\r\nrVw3hjmAN6gdmTeDEWE3e3+IN8++jTd0H4835ISONzCHiDdUtW03NT5YN8BNeTfvM2439y2ZN+UE\r\njTfV/4o3ljmNN9XPgzfioWM3+2qfN8NrbzfEjoM3S+2HN6amfTcvWXE3SfilNwHpiDf7Qow3AmiQ\r\nN45fbzezYnQ3UZtqN+sLQTcPIHA3j52FN/vAgjcNdH03GEyeN+zYdzefRHc3BKeDNy9PVDe9nXw3\r\n06l8N227dDdeKlg3tGWWN4BnmDe1fIw3jACZNz8OkzcnMG83ktdGNzNjljdi1pQ3NGuFN9rpejc3\r\nGoE3NVpxN8wTgzcbrmA3y0aFN1/wczc6ElM3iEpqN+3dWjeoQV436ChqN5/pcjc7wYE3t0WHN8Pa\r\nNzeE9XY3xcqDN0xebDc+uKk3INVmN3QuajfYpX43/+iKN4UoXjekRm83u6g7N/zbkzeOEVA3jA2n\r\nN8o+fDf+WVc3WNdxN3wwjDcOoTg3M0Z5N/cnnDcWEDY3e8pJNz8KYjcR4203XLSCNwBkbDcdie8+\r\ncJHZPiI9FD/Fd1E/qXE7QGWfxUHiJWtBUBfjQH3Tzj+A+CNAwnGWPyj4tT5hrkw/BODEP1ps0T4B\r\n3u89LES7Pq0kvz5a68o/SoEDP/NAzz55Lro+4PJyPofILD95XK8/zIXwP2YUgj+i2Fc/w/AvQAip\r\nMEAWMW5BMQWEQNJQ7z8nUylBgd/CQEQQrEESxF1BXPS7QFWUskCZ4hJAY5jjQNHO2D+iX4Q/kMZe\r\nQN3Ka0Bjut4/fDC1PvcD+T6eu5I/CAMBQCpDoD8npeE/I3klQDw46T+p2WBAAv8vP9W1SkC2Qa1A\r\nMqgPQNjhyz9SOkE/MObSProkGj/Bi/k+vHqGQIAMrD8k1Q5AgmHyPzKY7kBG7QBAWkM9QLRtyD8j\r\nJ1g/z2zSP1QfHj/8974+2t2yPkAlpEDi35lAtZsOQHy08j64aHc+zlIwPkWZtz66Jhw+RaiUPa9E\r\nkj1JPh8+mr4CPlkvBj4A7ec9d5XlPkSNwj2yPfc8GfNKPRwPyj1A1oQ9cC8lPzIbwT3+uII+TqC0\r\nPuX2CT4UT/Y9DFARPeyq4T2AvKc9oOeXPm+VvT1adlE9+U4ePjsWPj1ihUo98rPyPfFRoz3Xqz8+\r\nHy4gPsjsmD3SotY9nKgQPs3FPj4sA9I+r60hPUZRkD1GqfY98C4WPtSBpz0EROA9KlaVPdhQmz16\r\nTik+OpFhPaXMWT6cdJ89PMX1PRONYz14Fqo82k4UPRYw8D2jIFQ9+PBMPdOoBD2ZW6o96dszPfIE\r\npz2a7Mk9xWmnPT2J3jy6HxI91tDdPIxBRT3gqPU89h0vPXC2aD2acFI9zk4DPbVgWzyCaLc92Nwx\r\nPMXkNTySfP88wbyhPQpf5DxSlpg86R4TPfvprzz3i8k84Qg4PZOMDT1QhAo9jF68PUhSCD0oWRE9\r\ntZzoPBIM8Dx8UW09bd33PBbIsjxiQ8U8S59cPZ/xoz1YFDM94klRPYyLQzyzoCQ9cxefPDpxZD1S\r\nKgw9gVQVPUY/bDxKAYY8kEGNPJMRWT3oXoE9WQTPPXrdfT22U2A85ia0PHm9uTwl+X48Ha1uPHg6\r\nyjzhK0A9xjnjPRsfIT/W42E9zHaJPm28hzxiuzA92tFJPTkZLzwv0hc9pjOcPJFwJT3CcG49RpCm\r\nPABlxz3DTRQ9kw+QPUVIPz7GPpQ+jqGyPKtEaDyoGe07JIMLPTlfXTyIevs7AEA2POGOHj3lm7E9\r\n2LE7PH5ftj3y6kY9caAxPXPzfDzzIo48/JOPPJdTqTyGzb08EOKgPJnOLz3bZq88sig6PmrGqT0h\r\noos+Wne7PbtWVz1Uhdw8WNDBPDSSvTygxJk8KHxxPJEZPDwDCUA9jNr3PG9+nTzmMYg8IhmmPOPI\r\nvzvewY08uhqYOy72sjscJhY82eCkPJhi5DyZeDY8yUS+PMLjPDxdt488KD3jPMYt+DuaXYo8MjM4\r\nPMrWlzthI1M9qdAQPqI5QD1HbKM9+rXYPK84Cz38hU48ErjBPChUezyje7U7mDJ1PGAoaTxv1GY8\r\nksLaPNpcAj1EVTU9i0OYPPtcTj1w8NU8xHKjOwNNvTye6vc7/qrBO6FABz13BRs89GVJPBoGZDzX\r\nrEs92bWBPL8qOzyo1Bs9j12SPHk7BT1t32c8huzMPAadKD3+sfo7btRkPJvhwzttlis8ZYc2O7jS\r\nOTs63Co7jXo7O1g9/TuNdj08r7ZjPLiluTvUMVc8ZYphPH/RszvR6Es8MBYkPBa0tTug0ZA7z041\r\nO6rShTxqX4o8ErKbOzcrnTpRSV47VJjmOsd2NTpzPuM6A7xBOhtv1zl+ZA07+A0VOuetNzoeknE6\r\nLLteOjXyoDpa8o07MMjpOQnrDjoHLEw5R2onOdE8DjmugP840oR2OBzi1DjBvnc4MGOVOMKcNjir\r\nuYA4lsDDOLWnszjkA0I4Qm5ZOPTySjiQdHg4gSorOBakJjh4USY4GghQOAXENzhILDE4r8VfOBxg\r\nqDhvDn84tan/N+1OOjhHIwY4uGMoOFlSCThxvQI4IPsnOBTIPDiXYwg4ibAnOEG7KzgLTBM4vwUc\r\nOBn3IjhleQw4RvwWOEgHEDiqtww4X0jwN+qIETjMhx04pePrN343Fjhc+Ro4QJ0xOFBqDDgiKiE4\r\nD/XnN0y+DTgXlRE4ne/4N7I2+zcB+v83PdoCOMB1GTjglPo3mncSOMls+DdveOo3kH4HOHEfCDj/\r\nIAQ4qKgGOBOBEji/yQM4As38N+Qi9jfmkP432sYTOBOtADizDv032aXwN8Ij4jdrcPc36L0AOLIK\r\nADhtL/s3dKcOOLwXAjjpmOA3Po3bN7a09jfyDuk3ttcDOF1U7zearfQ3wjnhN0bHCDhAUPw3MdnT\r\nN/187DdO+P03yg7/N21X+Ddc/8U3MVPrNyqN7jfAzfs3MrjvN3TQ8TdwBwE4M/zwNzq8wDegixI4\r\nWG4COMKs4zfsj8s3ghXqN5RV7TceptU3+NHoN5NB1jcKZug3dHHsN58RAjg9Jfo3Ae3DN5Co4zfo\r\nZtE3YSD/N4wM4jdAAOM3eBPaNyWG9DcaauQ3wiTeN0AE6zeQis83UIfiN/xI/DfkftU3/PbWN3ZE\r\n8Tcc9t83l8TdN+In7Dd/DQU4PUzQNweR8DdxJ943fOfFN7iG9Der3ec3Zp/eN5G38zdTadw3nP/X\r\nN55puzcy2uM35DLaNxFb5jfaB+s30MnLN86aujeAsfI3ERneN9s5sjcLu/o36sTbNwAy4TfHvsY3\r\nyKHZN/hT0Dfg6q038NzBN47IwzfhSOI3FvbyN6KR9jempt83vB/SN3qj7jfR1e83dxfXN9xS0DdM\r\nqNs3SID0Nxy+vjcSyOA3QP7AN/RS3TfjivI3Xrr3N5ZX+TfY6tw3lgnLNwTJ5zfssrU3bMbeN/ly\r\nxDcy8sw3tPLXN6lRzTcqX9M3MsDrN+SjuTfPksk36Ii2NxYNyTdL0dM3GEO0N+MJwzcKVcE36YrH\r\nNwUFyTdWW8c3Un3ON9yWxDev1rM3RH+0N955yjdc/bw3PIPjNzyk3jfwzPU3qprON/VYtjfI5aU3\r\nJlaiNz5f7DdMma03icTVNxJGrzeEZbI3e0uhNxrN6DeYAqY3HDTYN1rMszdKK8I3/urWNwCzyjfE\r\npNo3sE/DN+Tiujf8ors3EHPDNxLt2DeA0b43FE7ZN1I9yjfQd8k3WA3HN21StjeBHJg3i4qzNyPC\r\npzdqHNs3817GNxadizf67r43Oua4NxsBlzf9ubM3MPSpNw5K2zdRu8k3PoSTN5Fozje6+MM3rIur\r\nNyBUuDeY1J433j2RN1JHojdGOMk3F/qrN6pypDd9fZY3kdyxNwLqljdomZk3Jv60N7NzqDcoM6k3\r\n9PjTN3y82TfCxdc3l7jINz5EyDc8gcA3LnnhN0CrnTeQJ5o3goSPN4mBpjcllqI3EWS3N6adizfY\r\ne5o3tIvONwgaujeoRK03Y/KZN4tdnjc19aE3dr7KN94MmTfCC7A3N0nhNwKokzfg3c038cuoN3tL\r\nmjf8Iqk31Ou+N4nXtTc2Ua43VDyiN/hcvzcM96039KfNN4Q4fDeAEKQ3WtqNN957xDe3e6w3N+G9\r\nNyQ7hzf3uGo3WF2QN0g4sjewr80326KuN6yrlDdS2o83ofWkN579ozfq+qI3ryWrN953szeU0L03\r\nlMKoNwMvnjdrjKw3bkeYNw2xojdxmLU3GFCaN91pZDeqjcM3w12QN0gDgjeAVLM3gJaPNwCusDfW\r\noq83kmyENxE5ojc2ycM3/wTPNw0qpDeQ/Z03U3GbNy1KezcZ0IU3dQmJNySPmTdagbA3LEqbN8wK\r\nizcLysE3BvGzN+2FlTcsa6k3bA+WNx6gkTcBaps3IFqhN0hfuze2Tp43Mr2cN68dnDfiU6U3HA2H\r\nN1KBvTfcrYc3OiCjN605ZzdbIZg3/hSWNxJSqzd8eZA3EJSJNydtmDeqHrQ3xH6BN3SylzcR2Y03\r\nj4GfN1/bdTcUI583rO6bN8/injfrzJM3NO6ON16tgzdSiLE3s0CgN44KezdWoqE32kqiN5TOjTdM\r\nSIo3bq6xN27+kzf/mKc30LCAN/a4nDeQbqM3RtBLN07WjzeYgqo3q2qlN0Wcgjd03oo3ezmdN542\r\nlDf2WIE3YweLNyf8kDeEWp43Jt2cN1wkgDfxw403EPuBN20nrTead6Y3y9BMN/ZOeDeFhI43csSF\r\nN/mppDc0Rls3RHatNycHhDcBT4I3/SiYN4DziTfYz483GaaQN/oXljdOIp03TQqiN+20qzeN3ps3\r\nMnqnN+nPjDfiRHk3VESfN6S0lTcnBJs34QOWNyIEgDdMy183oKyENyTwfze0mXk394isN0AYljek\r\nl103BNipN3+wlTdGHXo3kzSnN3XQiDdOb4E33md1NzAjkTeSj7k3RyGGN69UkTemNqU3jel2N7he\r\neTf195s3mqI8N7ksUDcq2Y03NQKEN6mJgDdaIVs3IzmFNw63jjcuuVw3SXSVN5k2RTdhTqA3Yv16\r\nN6rajDd36KQ3OrSNNyWxcTekSmA36iOMN8rAoDdgSZo38yGDNyGTgzcftTs3BsmPN2u6mjd5E5M3\r\n6AWMNyzjXDeBwl83K5KeN2nkazcdWX43sfeHN6lwXjfc2Yk3Xj5aN5VLgjdUEKU3DVJWN2b/TDdG\r\nmH03R+mgNy4SNTffPoY3BB6KN9vxjTdRBXQ35310N+jXmDdbLIY39M6QN+hUjzcQ04s3FsVwN6Qm\r\nkzf0kIw34VxbN/xtVTdUHXE31/mANweIZzcaSUk3NAGFN9d0iTcGVoM3zkJAN7isgTef6aA3xHGZ\r\nN7bRhjd7rog3CneSN1Wcnjfo64A3tvxvN2NlcTcfuDk3Ka6SN3W6azfr1og3NnCEN7X5jDcZyJA3\r\nzsV6N8FYnTesNZ03ZOyHN7+SnjeHmps3uOyWN5f6ijcy1a03yC2jN57Jjzco9YA3BfSMN8StXDeG\r\nOYA3qB2ZN4MRYTd7f4g3z76NN3QfjzfkhI43MIeIN1S1bTc1Plg3wE15N+8zbjf3LZk35QSNN9X/\r\nijeWOY031c+DN+KhYzf7ap83w2tvN8SOgzdL7Yc3pqZ9Ny9ZcTdJ+KU3AemIN/tCjDcCaJA3jl9v\r\nN7NidDdRm2o36wtBNw8gcDePnYU3+8CCNw10fTcYTJ437Nh3N59EdzcEp4M3L09UN72dfDfTqXw3\r\nbbt0N14qWDe0ZZY3gGeYN7V8jDeMAJk3Pw6TNycwbzeS10Y3M2OWN2LWlDc0a4U32ul6NzcagTc1\r\nWnE3zBODNxuuYDfLRoU3X/BzNzoSUzeISmo37d1aN6hBXjfoKGo3n+lyNzvBgTe3RYc3w9o3N4T1\r\ndjfFyoM3TF5sNz64qTcg1WY3dC5qN9ilfjf/6Io3hSheN6RGbze7qDs3/NuTN44RUDeMDac3yj58\r\nN/5ZVzdY13E3fDCMNw6hODczRnk39yecNxYQNjd7ykk3PwpiNxHjbTdctII3AGRsNw==",
                            "noiseTrainingType" : "default"
                          }
                        }
                    ],
                    "start" : 22743,
                    "duration" : 8,
                    "mediaStart" : 1029,
                    "mediaDuration" : 8,
                    "scalar" : 1,
                    "metadata" : {
                      "WinSubProjectDisplayName" : "",
                      "clipSpeedAttribute" : false
                    },
                    "animationTracks" : {

                    }
                  },
                  {
                    "id" : 410,
                    "_type" : "AMFile",
                    "src" : 7,
                    "trackNumber" : 1,
                    "attributes" : {
                      "ident" : "tower-07",
                      "sampleRate" : 44100,
                      "bitDepth" : 16,
                      "gain" : 1.0,
                      "mixToMono" : false
                    },
                      "channelNumber" : "0,1",
                    "effects" : [
                        {
                          "effectName" : "NoiseReduction",
                          "category" : "categoryAudioEffects",
                          "parameters" : {
                            "denoiserAmount" : 20.0,
                            "denoiserThreshold" : 0.0,
                            "noiseProfile" : "HYnvPnCR2T4iPRQ/xXdRP6lxO0Bln8VB4iVrQVAX40B9084/gPgjQMJxlj9g+LU+Ya5MPwTgxD9a\r\nbNE+Ad7vPSxEuz6tJL8+WuvKP0qBAz/zQM8+eS66PuDycj6HyCw/eVyvP8yF8D9mFII/hxpYP8Pw\r\nL0AIqTBAFjFuQTEFhEDSUO8/J1MpQYHfwkBEEKxBEsRdQVz0u0BVlLJA4eISQGOY40AUudg/ol+E\r\nP5DGXkDdymtAY7reP3wwtT73A/k+nruSPwgDAUAqQ6A/J6XhPyN5JUA8OOk/qdlgQAL/Lz/VtUpA\r\nATmtQKukD0DY4cs/UjpBPzDm0j66JBo/xK/5Prx6hkCADKw/JNUOQIJh8j+sme5ARu0AQFpDPUC0\r\nbcg/IydYPw5j0j9UHx4//Pe+Ptrdsj5AJaRA4t+ZQLWbDkB8tPI+uGh3Ps5SMD5Fmbc+uiYcPkWo\r\nlD2vRJI9ST4fPpq+Aj5ZLwY+sOnnPRxa5T7Uf8I9sj33PHDdSj0tMsk9QO6EPSozJT8yG8E9/riC\r\nPk6gtD7l9gk+FE/2PQxQET3squE9gLynPaDnlz5vlb09WnZRPflOHj47Fj49YoVKPfKz8j3xUaM9\r\n16s/Ph8uID7I7Jg90qLWPZyoED7NxT4+LAPSPoFtIT1GUZA9Rqn2PfAuFj7Ugac9BETgPdUHlT3Y\r\nUJs9ek4pPjqRYT2lzFk+nHSfPTzF9T0TjWM9FKipPNpOFD0WMPA9oyBUPfjwTD3TqAQ9mVuqPSrU\r\nMz3yBKc9muzJPcVppz09id48uh8SPdbQ3TyMQUU94Kj1PPYdLz1wtmg9mnBSPT9lAz21YFs8gmi3\r\nPXQ6MTzF5DU8knz/PMG8oT1sMeQ8UpaYPOkeEz376a8894vJPOEIOD2TjA09UIQKPYxevD1IUgg9\r\nKFkRPUDh5zyi6u88e8VtPW3d9zwWyLI8YkPFPD44XT2f8aM9WBQzPeJJUT2Mi0M8s6AkPXMXnzw6\r\ncWQ9UioMPYFUFT1GP2w8SgGGPJBBjTyTEVk96F6BPVkEzz163X09V6tgPJWRtDx5vbk8Jfl+PB2t\r\nbjx4Oso84StAPcY54z0bHyE/1uNhPcx2iT5tvIc8YrswPdrRST05GS88L9IXPaYznDyRcCU9wnBu\r\nPUaQpjwAZcc9w00UPZMPkD1FSD8+xj6UPo6hsjyrRGg8qBntOySDCz05X108iHr7OwBANjzhjh49\r\n5ZuxPdixOzx+X7Y98upGPXGgMT1f93w88yKOPPyTjzyXU6k8hs29PBDioDyZzi8922avPLIoOj5q\r\nxqk9IaKLPlp3uz27Vlc9VIXcPFjQwTw0kr08P9mZPCh8cTyRGTw8AwlAPYza9zxvfp085jGIPCIZ\r\npjxtjL073sGNPLoamDsu9rI7HCYWPNngpDyYYuQ8mXg2PMlEvjzC4zw8XbePPCg94zzGLfg7ml2K\r\nPDIzODzK1pc7YSNTPanQED6iOUA9R2yjPfq12DyvOAs9/IVOPBK4wTwoVHs8o3u1O5gydTxgKGk8\r\nb9RmPBY12jzaXAI9RFU1PYtDmDzBKk49cPDVPNiHpDsDTb08nur3O/6qwTuhQAc9dwUbPPRlSTwa\r\nBmQ816xLPdm1gTy/Kjs8qNQbPY9dkjx5OwU9bd9nPIbszDwGnSg9/rH6O27UZDyb4cM7bZYrPGWH\r\nNju40jk7OtwqO416OztYPf07jXY9PK+2Yzy4pbk71DFXPGWKYTx/0bM70ehLPDAWJDwWtLU7oNGQ\r\nOzacNTuq0oU8al+KPBKymzs3K506UUleO1SY5jrHdjU6cz7jOgO8QTobb9c5fmQNO/gNFTrnrTc6\r\nHpJxOiy7Xjo18qA6WvKNOzDI6TkJ6w46ByxMOUdqJznRPA45roD/OH9zgzgc4tQ4wb53ODBjlTil\r\n6D84q7mAOJbAwzi1p7M45ANCOPyugTj08ko4kHR4OIEqKzgWpCY4H65POBj4KzhmVUs4SCwxOK/F\r\nXzgcYKg4bw5/OLWp/zdq2D042mdGOMyUPTjmLzk4cb0COLgtEzjQryk4wksaOImwJzjxVh849IYR\r\nOG9YFjh7HSU4/W4UOMzCHDjXgxk46ggbOJIM+ze3/BI4jQMcOEjA7jfeNiM4oKYfOHpEGjh2CfY3\r\nSbkhOA/15zdhCgw4kpQGOMfS+DdCMf03gLwIOKjh9TeKZRA44JT6N5p3EjjJbPg3b3jqN5B+Bzji\r\nUf43pK/8N6ioBjgTgRI4v8kDOALN/DfkIvY35pD+N9rGEzg26Pg3sw79N9ml8DeBxOg3a3D3N+i9\r\nADiyCgA4Dvr8N3SnDji8FwI4AfHbN0Fb1Te2tPY3UNrmN7bXAzhdVO83mq30N8I54TdGxwg4ZJYF\r\nOMHw3Tf9fOw3Tvj9N8oO/zdtV/g3Uv3ENzFT6zcqje43wM37NzK47zd00PE3cAcBODP88DcoE8o3\r\noIsSOFhuAjjCrOM37I/LN4IV6jeUVe03HqbVN/jR6DeTQdY3CmboN3Rx7DefEQI4PSX6N0BP1zeQ\r\nqOM36GbRN2Eg/zeMDOI3QADjN3gT2jclhvQ3GmrkN8Ik3jdABOs3kIrPN1CH4jf8SPw35H7VN/z2\r\n1jd2RPE3HPbfN5fE3TfiJ+w3fw0FOD1M0DcHkfA3cSfeN3znxTe4hvQ3q93nN2af3jeRt/M3U2nc\r\nN5z/1zeeabs3MtrjN+Qy2jcRW+Y32gfrN9DJyzfOmro3gLHyNxEZ3jfbObI3C7v6N+rE2zcAMuE3\r\nx77GN8ih2Tf4U9A34OqtN/DcwTeOyMM34UjiNxb28jeikfY3pqbfN7wf0jd6o+430dXvN3cX1zfc\r\nUtA3TKjbN0iA9Dccvr43EsjgN0D+wDf0Ut0344ryN1669zeWV/k32OrcN5YJyzcEyec37LK1N2zG\r\n3jf5csQ3MvLMN7Ty1zepUc03Kl/TNzLA6zfko7k3z5LJN+iItjcWDck3S9HTNxhDtDfjCcM3ClXB\r\nN+mKxzcFBck3VlvHN1J9zjfclsQ3r9azN0R/tDfeeco3XP28NzyD4zc8pN438Mz1N6qazjf1WLY3\r\nyOWlNyZWojc+X+w3TJmtN4nE1TcSRq83hGWyN3tLoTcazeg3mAKmNxw02DdazLM3SivCN/7q1jcA\r\ns8o3xKTaN7BPwzfk4ro3/KK7NxBzwzcS7dg3gNG+NxRO2TdSPco30HfJN1gNxzdtUrY3gRyYN4uK\r\nszcjwqc3ahzbN/NexjcWnYs3+u6+NzrmuDcbAZc3/bmzNzD0qTcOSts3UbvJNz6EkzeRaM43uvjD\r\nN6yLqzcgVLg3mNSeN949kTdSR6I3RjjJNxf6qzeqcqQ3fX2WN5HcsTcC6pY3aJmZNyb+tDezc6g3\r\nKDOpN/T40zd8vNk3wsXXN5e4yDc+RMg3PIHANy554TdAq503kCeaN4KEjzeJgaY3JZaiNxFktzem\r\nnYs32HuaN7SLzjcIGro3qEStN2PymTeLXZ43NfWhN3a+yjfeDJk3wguwNzdJ4TcCqJM34N3NN/HL\r\nqDd7S5o3/CKpN9TrvjeJ17U3NlGuN1Q8ojf4XL83DPetN/SnzTeEOHw3gBCkN1rajTfee8Q3t3us\r\nNzfhvTckO4c397hqN1hdkDdIOLI3sK/NN9uirjesq5Q3UtqPN6H1pDee/aM36vqiN68lqzfed7M3\r\nlNC9N5TCqDcDL543a4ysN25HmDcNsaI3cZi1NxhQmjfdaWQ3qo3DN8NdkDdIA4I3gFSzN4CWjzcA\r\nrrA31qKvN5JshDcROaI3NsnDN/8EzzcNKqQ3kP2dN1NxmzctSns3GdCFN3UJiTckj5k3WoGwNyxK\r\nmzfMCos3C8rBNwbxszfthZU3LGupN2wPljceoJE3AWqbNyBaoTdIX7s3tk6eNzK9nDevHZw34lOl\r\nNxwNhzdSgb033K2HNzogozetOWc3WyGYN/4UljcSUqs3fHmQNxCUiTcnbZg3qh60N8R+gTd0spc3\r\nEdmNN4+Bnzdf23U3FCOfN6zumzfP4p4368yTNzTujjderYM3UoixN7NAoDeOCns3VqKhN9pKojeU\r\nzo03TEiKN26usTdu/pM3/5inN9CwgDf2uJw3kG6jN0bQSzdO1o83mIKqN6tqpTdFnII3dN6KN3s5\r\nnTeeNpQ39liBN2MHizcn/JA3hFqeNybdnDdcJIA38cONNxD7gTdtJ603mnemN8vQTDf2Tng3hYSO\r\nN3LEhTf5qaQ3NEZbN0R2rTcnB4Q3AU+CN/0omDeA84k32M+PNxmmkDf6F5Y3TiKdN00KojfttKs3\r\njd6bNzJ6pzfpz4w34kR5N1REnzektJU3JwSbN+EDljciBIA3TMtfN6CshDck8H83tJl5N/eIrDdA\r\nGJY3pJddNwTYqTd/sJU3Rh16N5M0pzd10Ig3Tm+BN95ndTcwI5E3ko+5N0chhjevVJE3pjalN43p\r\ndje4Xnk39febN5qiPDe5LFA3KtmNNzUChDepiYA3WiFbNyM5hTcOt443LrlcN0l0lTeZNkU3YU6g\r\nN2L9ejeq2ow3d+ikNzq0jTclsXE3pEpgN+ojjDfKwKA3YEmaN/Mhgzchk4M3H7U7NwbJjzdrupo3\r\neROTN+gFjDcs41w3gcJfNyuSnjdp5Gs3HVl+N7H3hzepcF433NmJN14+WjeVS4I3VBClNw1SVjdm\r\n/0w3Rph9N0fpoDcuEjU33z6GNwQeijfb8Y03UQV0N+d9dDfo15g3WyyGN/TOkDfoVI83ENOLNxbF\r\ncDekJpM39JCMN+FcWzf8bVU3VB1xN9f5gDcHiGc3GklJNzQBhTfXdIk3BlaDN85CQDe4rIE3n+mg\r\nN8RxmTe20YY3e66INwp3kjdVnJ436OuAN7b8bzdjZXE3H7g5Nymukjd1ums369aINzZwhDe1+Yw3\r\nGciQN87FejfBWJ03rDWdN2Tshze/kp43h5qbN7jsljeX+oo3MtWtN8gtozeeyY83KPWANwX0jDfE\r\nrVw3hjmAN6gdmTeDEWE3e3+IN8++jTd0H4835ISONzCHiDdUtW03NT5YN8BNeTfvM2439y2ZN+UE\r\njTfV/4o3ljmNN9XPgzfioWM3+2qfN8NrbzfEjoM3S+2HN6amfTcvWXE3SfilNwHpiDf7Qow3AmiQ\r\nN45fbzezYnQ3UZtqN+sLQTcPIHA3j52FN/vAgjcNdH03GEyeN+zYdzefRHc3BKeDNy9PVDe9nXw3\r\n06l8N227dDdeKlg3tGWWN4BnmDe1fIw3jACZNz8OkzcnMG83ktdGNzNjljdi1pQ3NGuFN9rpejc3\r\nGoE3NVpxN8wTgzcbrmA3y0aFN1/wczc6ElM3iEpqN+3dWjeoQV436ChqN5/pcjc7wYE3t0WHN8Pa\r\nNzeE9XY3xcqDN0xebDc+uKk3INVmN3QuajfYpX43/+iKN4UoXjekRm83u6g7N/zbkzeOEVA3jA2n\r\nN8o+fDf+WVc3WNdxN3wwjDcOoTg3M0Z5N/cnnDcWEDY3e8pJNz8KYjcR4203XLSCNwBkbDcdie8+\r\ncJHZPiI9FD/Fd1E/qXE7QGWfxUHiJWtBUBfjQH3Tzj+A+CNAwnGWPyj4tT5hrkw/BODEP1ps0T4B\r\n3u89LES7Pq0kvz5a68o/SoEDP/NAzz55Lro+4PJyPofILD95XK8/zIXwP2YUgj+i2Fc/w/AvQAip\r\nMEAWMW5BMQWEQNJQ7z8nUylBgd/CQEQQrEESxF1BXPS7QFWUskCZ4hJAY5jjQNHO2D+iX4Q/kMZe\r\nQN3Ka0Bjut4/fDC1PvcD+T6eu5I/CAMBQCpDoD8npeE/I3klQDw46T+p2WBAAv8vP9W1SkC2Qa1A\r\nMqgPQNjhyz9SOkE/MObSProkGj/Bi/k+vHqGQIAMrD8k1Q5AgmHyPzKY7kBG7QBAWkM9QLRtyD8j\r\nJ1g/z2zSP1QfHj/8974+2t2yPkAlpEDi35lAtZsOQHy08j64aHc+zlIwPkWZtz66Jhw+RaiUPa9E\r\nkj1JPh8+mr4CPlkvBj4A7ec9d5XlPkSNwj2yPfc8GfNKPRwPyj1A1oQ9cC8lPzIbwT3+uII+TqC0\r\nPuX2CT4UT/Y9DFARPeyq4T2AvKc9oOeXPm+VvT1adlE9+U4ePjsWPj1ihUo98rPyPfFRoz3Xqz8+\r\nHy4gPsjsmD3SotY9nKgQPs3FPj4sA9I+r60hPUZRkD1GqfY98C4WPtSBpz0EROA9KlaVPdhQmz16\r\nTik+OpFhPaXMWT6cdJ89PMX1PRONYz14Fqo82k4UPRYw8D2jIFQ9+PBMPdOoBD2ZW6o96dszPfIE\r\npz2a7Mk9xWmnPT2J3jy6HxI91tDdPIxBRT3gqPU89h0vPXC2aD2acFI9zk4DPbVgWzyCaLc92Nwx\r\nPMXkNTySfP88wbyhPQpf5DxSlpg86R4TPfvprzz3i8k84Qg4PZOMDT1QhAo9jF68PUhSCD0oWRE9\r\ntZzoPBIM8Dx8UW09bd33PBbIsjxiQ8U8S59cPZ/xoz1YFDM94klRPYyLQzyzoCQ9cxefPDpxZD1S\r\nKgw9gVQVPUY/bDxKAYY8kEGNPJMRWT3oXoE9WQTPPXrdfT22U2A85ia0PHm9uTwl+X48Ha1uPHg6\r\nyjzhK0A9xjnjPRsfIT/W42E9zHaJPm28hzxiuzA92tFJPTkZLzwv0hc9pjOcPJFwJT3CcG49RpCm\r\nPABlxz3DTRQ9kw+QPUVIPz7GPpQ+jqGyPKtEaDyoGe07JIMLPTlfXTyIevs7AEA2POGOHj3lm7E9\r\n2LE7PH5ftj3y6kY9caAxPXPzfDzzIo48/JOPPJdTqTyGzb08EOKgPJnOLz3bZq88sig6PmrGqT0h\r\noos+Wne7PbtWVz1Uhdw8WNDBPDSSvTygxJk8KHxxPJEZPDwDCUA9jNr3PG9+nTzmMYg8IhmmPOPI\r\nvzvewY08uhqYOy72sjscJhY82eCkPJhi5DyZeDY8yUS+PMLjPDxdt488KD3jPMYt+DuaXYo8MjM4\r\nPMrWlzthI1M9qdAQPqI5QD1HbKM9+rXYPK84Cz38hU48ErjBPChUezyje7U7mDJ1PGAoaTxv1GY8\r\nksLaPNpcAj1EVTU9i0OYPPtcTj1w8NU8xHKjOwNNvTye6vc7/qrBO6FABz13BRs89GVJPBoGZDzX\r\nrEs92bWBPL8qOzyo1Bs9j12SPHk7BT1t32c8huzMPAadKD3+sfo7btRkPJvhwzttlis8ZYc2O7jS\r\nOTs63Co7jXo7O1g9/TuNdj08r7ZjPLiluTvUMVc8ZYphPH/RszvR6Es8MBYkPBa0tTug0ZA7z041\r\nO6rShTxqX4o8ErKbOzcrnTpRSV47VJjmOsd2NTpzPuM6A7xBOhtv1zl+ZA07+A0VOuetNzoeknE6\r\nLLteOjXyoDpa8o07MMjpOQnrDjoHLEw5R2onOdE8DjmugP840oR2OBzi1DjBvnc4MGOVOMKcNjir\r\nuYA4lsDDOLWnszjkA0I4Qm5ZOPTySjiQdHg4gSorOBakJjh4USY4GghQOAXENzhILDE4r8VfOBxg\r\nqDhvDn84tan/N+1OOjhHIwY4uGMoOFlSCThxvQI4IPsnOBTIPDiXYwg4ibAnOEG7KzgLTBM4vwUc\r\nOBn3IjhleQw4RvwWOEgHEDiqtww4X0jwN+qIETjMhx04pePrN343Fjhc+Ro4QJ0xOFBqDDgiKiE4\r\nD/XnN0y+DTgXlRE4ne/4N7I2+zcB+v83PdoCOMB1GTjglPo3mncSOMls+DdveOo3kH4HOHEfCDj/\r\nIAQ4qKgGOBOBEji/yQM4As38N+Qi9jfmkP432sYTOBOtADizDv032aXwN8Ij4jdrcPc36L0AOLIK\r\nADhtL/s3dKcOOLwXAjjpmOA3Po3bN7a09jfyDuk3ttcDOF1U7zearfQ3wjnhN0bHCDhAUPw3MdnT\r\nN/187DdO+P03yg7/N21X+Ddc/8U3MVPrNyqN7jfAzfs3MrjvN3TQ8TdwBwE4M/zwNzq8wDegixI4\r\nWG4COMKs4zfsj8s3ghXqN5RV7TceptU3+NHoN5NB1jcKZug3dHHsN58RAjg9Jfo3Ae3DN5Co4zfo\r\nZtE3YSD/N4wM4jdAAOM3eBPaNyWG9DcaauQ3wiTeN0AE6zeQis83UIfiN/xI/DfkftU3/PbWN3ZE\r\n8Tcc9t83l8TdN+In7Dd/DQU4PUzQNweR8DdxJ943fOfFN7iG9Der3ec3Zp/eN5G38zdTadw3nP/X\r\nN55puzcy2uM35DLaNxFb5jfaB+s30MnLN86aujeAsfI3ERneN9s5sjcLu/o36sTbNwAy4TfHvsY3\r\nyKHZN/hT0Dfg6q038NzBN47IwzfhSOI3FvbyN6KR9jempt83vB/SN3qj7jfR1e83dxfXN9xS0DdM\r\nqNs3SID0Nxy+vjcSyOA3QP7AN/RS3TfjivI3Xrr3N5ZX+TfY6tw3lgnLNwTJ5zfssrU3bMbeN/ly\r\nxDcy8sw3tPLXN6lRzTcqX9M3MsDrN+SjuTfPksk36Ii2NxYNyTdL0dM3GEO0N+MJwzcKVcE36YrH\r\nNwUFyTdWW8c3Un3ON9yWxDev1rM3RH+0N955yjdc/bw3PIPjNzyk3jfwzPU3qprON/VYtjfI5aU3\r\nJlaiNz5f7DdMma03icTVNxJGrzeEZbI3e0uhNxrN6DeYAqY3HDTYN1rMszdKK8I3/urWNwCzyjfE\r\npNo3sE/DN+Tiujf8ors3EHPDNxLt2DeA0b43FE7ZN1I9yjfQd8k3WA3HN21StjeBHJg3i4qzNyPC\r\npzdqHNs3817GNxadizf67r43Oua4NxsBlzf9ubM3MPSpNw5K2zdRu8k3PoSTN5Fozje6+MM3rIur\r\nNyBUuDeY1J433j2RN1JHojdGOMk3F/qrN6pypDd9fZY3kdyxNwLqljdomZk3Jv60N7NzqDcoM6k3\r\n9PjTN3y82TfCxdc3l7jINz5EyDc8gcA3LnnhN0CrnTeQJ5o3goSPN4mBpjcllqI3EWS3N6adizfY\r\ne5o3tIvONwgaujeoRK03Y/KZN4tdnjc19aE3dr7KN94MmTfCC7A3N0nhNwKokzfg3c038cuoN3tL\r\nmjf8Iqk31Ou+N4nXtTc2Ua43VDyiN/hcvzcM96039KfNN4Q4fDeAEKQ3WtqNN957xDe3e6w3N+G9\r\nNyQ7hzf3uGo3WF2QN0g4sjewr80326KuN6yrlDdS2o83ofWkN579ozfq+qI3ryWrN953szeU0L03\r\nlMKoNwMvnjdrjKw3bkeYNw2xojdxmLU3GFCaN91pZDeqjcM3w12QN0gDgjeAVLM3gJaPNwCusDfW\r\noq83kmyENxE5ojc2ycM3/wTPNw0qpDeQ/Z03U3GbNy1KezcZ0IU3dQmJNySPmTdagbA3LEqbN8wK\r\nizcLysE3BvGzN+2FlTcsa6k3bA+WNx6gkTcBaps3IFqhN0hfuze2Tp43Mr2cN68dnDfiU6U3HA2H\r\nN1KBvTfcrYc3OiCjN605ZzdbIZg3/hSWNxJSqzd8eZA3EJSJNydtmDeqHrQ3xH6BN3SylzcR2Y03\r\nj4GfN1/bdTcUI583rO6bN8/injfrzJM3NO6ON16tgzdSiLE3s0CgN44KezdWoqE32kqiN5TOjTdM\r\nSIo3bq6xN27+kzf/mKc30LCAN/a4nDeQbqM3RtBLN07WjzeYgqo3q2qlN0Wcgjd03oo3ezmdN542\r\nlDf2WIE3YweLNyf8kDeEWp43Jt2cN1wkgDfxw403EPuBN20nrTead6Y3y9BMN/ZOeDeFhI43csSF\r\nN/mppDc0Rls3RHatNycHhDcBT4I3/SiYN4DziTfYz483GaaQN/oXljdOIp03TQqiN+20qzeN3ps3\r\nMnqnN+nPjDfiRHk3VESfN6S0lTcnBJs34QOWNyIEgDdMy183oKyENyTwfze0mXk394isN0AYljek\r\nl103BNipN3+wlTdGHXo3kzSnN3XQiDdOb4E33md1NzAjkTeSj7k3RyGGN69UkTemNqU3jel2N7he\r\neTf195s3mqI8N7ksUDcq2Y03NQKEN6mJgDdaIVs3IzmFNw63jjcuuVw3SXSVN5k2RTdhTqA3Yv16\r\nN6rajDd36KQ3OrSNNyWxcTekSmA36iOMN8rAoDdgSZo38yGDNyGTgzcftTs3BsmPN2u6mjd5E5M3\r\n6AWMNyzjXDeBwl83K5KeN2nkazcdWX43sfeHN6lwXjfc2Yk3Xj5aN5VLgjdUEKU3DVJWN2b/TDdG\r\nmH03R+mgNy4SNTffPoY3BB6KN9vxjTdRBXQ35310N+jXmDdbLIY39M6QN+hUjzcQ04s3FsVwN6Qm\r\nkzf0kIw34VxbN/xtVTdUHXE31/mANweIZzcaSUk3NAGFN9d0iTcGVoM3zkJAN7isgTef6aA3xHGZ\r\nN7bRhjd7rog3CneSN1Wcnjfo64A3tvxvN2NlcTcfuDk3Ka6SN3W6azfr1og3NnCEN7X5jDcZyJA3\r\nzsV6N8FYnTesNZ03ZOyHN7+SnjeHmps3uOyWN5f6ijcy1a03yC2jN57Jjzco9YA3BfSMN8StXDeG\r\nOYA3qB2ZN4MRYTd7f4g3z76NN3QfjzfkhI43MIeIN1S1bTc1Plg3wE15N+8zbjf3LZk35QSNN9X/\r\nijeWOY031c+DN+KhYzf7ap83w2tvN8SOgzdL7Yc3pqZ9Ny9ZcTdJ+KU3AemIN/tCjDcCaJA3jl9v\r\nN7NidDdRm2o36wtBNw8gcDePnYU3+8CCNw10fTcYTJ437Nh3N59EdzcEp4M3L09UN72dfDfTqXw3\r\nbbt0N14qWDe0ZZY3gGeYN7V8jDeMAJk3Pw6TNycwbzeS10Y3M2OWN2LWlDc0a4U32ul6NzcagTc1\r\nWnE3zBODNxuuYDfLRoU3X/BzNzoSUzeISmo37d1aN6hBXjfoKGo3n+lyNzvBgTe3RYc3w9o3N4T1\r\ndjfFyoM3TF5sNz64qTcg1WY3dC5qN9ilfjf/6Io3hSheN6RGbze7qDs3/NuTN44RUDeMDac3yj58\r\nN/5ZVzdY13E3fDCMNw6hODczRnk39yecNxYQNjd7ykk3PwpiNxHjbTdctII3AGRsNw==",
                            "noiseTrainingType" : "default"
                          }
                        }
                    ],
                    "start" : 22751,
                    "duration" : 9,
                    "mediaStart" : 1029,
                    "mediaDuration" : 9,
                    "scalar" : 1,
                    "metadata" : {
                      "WinSubProjectDisplayName" : "",
                      "clipSpeedAttribute" : false
                    },
                    "animationTracks" : {

                    }
                  },
                  {
                    "id" : 411,
                    "_type" : "AMFile",
                    "src" : 7,
                    "trackNumber" : 1,
                    "attributes" : {
                      "ident" : "tower-07",
                      "sampleRate" : 44100,
                      "bitDepth" : 16,
                      "gain" : 1.0,
                      "mixToMono" : false
                    },
                      "channelNumber" : "0,1",
                    "effects" : [
                        {
                          "effectName" : "NoiseReduction",
                          "category" : "categoryAudioEffects",
                          "parameters" : {
                            "denoiserAmount" : 20.0,
                            "denoiserThreshold" : 0.0,
                            "noiseProfile" : "HYnvPnCR2T4iPRQ/xXdRP6lxO0Bln8VB4iVrQVAX40B9084/gPgjQMJxlj9g+LU+Ya5MPwTgxD9a\r\nbNE+Ad7vPSxEuz6tJL8+WuvKP0qBAz/zQM8+eS66PuDycj6HyCw/eVyvP8yF8D9mFII/hxpYP8Pw\r\nL0AIqTBAFjFuQTEFhEDSUO8/J1MpQYHfwkBEEKxBEsRdQVz0u0BVlLJA4eISQGOY40AUudg/ol+E\r\nP5DGXkDdymtAY7reP3wwtT73A/k+nruSPwgDAUAqQ6A/J6XhPyN5JUA8OOk/qdlgQAL/Lz/VtUpA\r\nATmtQKukD0DY4cs/UjpBPzDm0j66JBo/xK/5Prx6hkCADKw/JNUOQIJh8j+sme5ARu0AQFpDPUC0\r\nbcg/IydYPw5j0j9UHx4//Pe+Ptrdsj5AJaRA4t+ZQLWbDkB8tPI+uGh3Ps5SMD5Fmbc+uiYcPkWo\r\nlD2vRJI9ST4fPpq+Aj5ZLwY+sOnnPRxa5T7Uf8I9sj33PHDdSj0tMsk9QO6EPSozJT8yG8E9/riC\r\nPk6gtD7l9gk+FE/2PQxQET3squE9gLynPaDnlz5vlb09WnZRPflOHj47Fj49YoVKPfKz8j3xUaM9\r\n16s/Ph8uID7I7Jg90qLWPZyoED7NxT4+LAPSPoFtIT1GUZA9Rqn2PfAuFj7Ugac9BETgPdUHlT3Y\r\nUJs9ek4pPjqRYT2lzFk+nHSfPTzF9T0TjWM9FKipPNpOFD0WMPA9oyBUPfjwTD3TqAQ9mVuqPSrU\r\nMz3yBKc9muzJPcVppz09id48uh8SPdbQ3TyMQUU94Kj1PPYdLz1wtmg9mnBSPT9lAz21YFs8gmi3\r\nPXQ6MTzF5DU8knz/PMG8oT1sMeQ8UpaYPOkeEz376a8894vJPOEIOD2TjA09UIQKPYxevD1IUgg9\r\nKFkRPUDh5zyi6u88e8VtPW3d9zwWyLI8YkPFPD44XT2f8aM9WBQzPeJJUT2Mi0M8s6AkPXMXnzw6\r\ncWQ9UioMPYFUFT1GP2w8SgGGPJBBjTyTEVk96F6BPVkEzz163X09V6tgPJWRtDx5vbk8Jfl+PB2t\r\nbjx4Oso84StAPcY54z0bHyE/1uNhPcx2iT5tvIc8YrswPdrRST05GS88L9IXPaYznDyRcCU9wnBu\r\nPUaQpjwAZcc9w00UPZMPkD1FSD8+xj6UPo6hsjyrRGg8qBntOySDCz05X108iHr7OwBANjzhjh49\r\n5ZuxPdixOzx+X7Y98upGPXGgMT1f93w88yKOPPyTjzyXU6k8hs29PBDioDyZzi8922avPLIoOj5q\r\nxqk9IaKLPlp3uz27Vlc9VIXcPFjQwTw0kr08P9mZPCh8cTyRGTw8AwlAPYza9zxvfp085jGIPCIZ\r\npjxtjL073sGNPLoamDsu9rI7HCYWPNngpDyYYuQ8mXg2PMlEvjzC4zw8XbePPCg94zzGLfg7ml2K\r\nPDIzODzK1pc7YSNTPanQED6iOUA9R2yjPfq12DyvOAs9/IVOPBK4wTwoVHs8o3u1O5gydTxgKGk8\r\nb9RmPBY12jzaXAI9RFU1PYtDmDzBKk49cPDVPNiHpDsDTb08nur3O/6qwTuhQAc9dwUbPPRlSTwa\r\nBmQ816xLPdm1gTy/Kjs8qNQbPY9dkjx5OwU9bd9nPIbszDwGnSg9/rH6O27UZDyb4cM7bZYrPGWH\r\nNju40jk7OtwqO416OztYPf07jXY9PK+2Yzy4pbk71DFXPGWKYTx/0bM70ehLPDAWJDwWtLU7oNGQ\r\nOzacNTuq0oU8al+KPBKymzs3K506UUleO1SY5jrHdjU6cz7jOgO8QTobb9c5fmQNO/gNFTrnrTc6\r\nHpJxOiy7Xjo18qA6WvKNOzDI6TkJ6w46ByxMOUdqJznRPA45roD/OH9zgzgc4tQ4wb53ODBjlTil\r\n6D84q7mAOJbAwzi1p7M45ANCOPyugTj08ko4kHR4OIEqKzgWpCY4H65POBj4KzhmVUs4SCwxOK/F\r\nXzgcYKg4bw5/OLWp/zdq2D042mdGOMyUPTjmLzk4cb0COLgtEzjQryk4wksaOImwJzjxVh849IYR\r\nOG9YFjh7HSU4/W4UOMzCHDjXgxk46ggbOJIM+ze3/BI4jQMcOEjA7jfeNiM4oKYfOHpEGjh2CfY3\r\nSbkhOA/15zdhCgw4kpQGOMfS+DdCMf03gLwIOKjh9TeKZRA44JT6N5p3EjjJbPg3b3jqN5B+Bzji\r\nUf43pK/8N6ioBjgTgRI4v8kDOALN/DfkIvY35pD+N9rGEzg26Pg3sw79N9ml8DeBxOg3a3D3N+i9\r\nADiyCgA4Dvr8N3SnDji8FwI4AfHbN0Fb1Te2tPY3UNrmN7bXAzhdVO83mq30N8I54TdGxwg4ZJYF\r\nOMHw3Tf9fOw3Tvj9N8oO/zdtV/g3Uv3ENzFT6zcqje43wM37NzK47zd00PE3cAcBODP88DcoE8o3\r\noIsSOFhuAjjCrOM37I/LN4IV6jeUVe03HqbVN/jR6DeTQdY3CmboN3Rx7DefEQI4PSX6N0BP1zeQ\r\nqOM36GbRN2Eg/zeMDOI3QADjN3gT2jclhvQ3GmrkN8Ik3jdABOs3kIrPN1CH4jf8SPw35H7VN/z2\r\n1jd2RPE3HPbfN5fE3TfiJ+w3fw0FOD1M0DcHkfA3cSfeN3znxTe4hvQ3q93nN2af3jeRt/M3U2nc\r\nN5z/1zeeabs3MtrjN+Qy2jcRW+Y32gfrN9DJyzfOmro3gLHyNxEZ3jfbObI3C7v6N+rE2zcAMuE3\r\nx77GN8ih2Tf4U9A34OqtN/DcwTeOyMM34UjiNxb28jeikfY3pqbfN7wf0jd6o+430dXvN3cX1zfc\r\nUtA3TKjbN0iA9Dccvr43EsjgN0D+wDf0Ut0344ryN1669zeWV/k32OrcN5YJyzcEyec37LK1N2zG\r\n3jf5csQ3MvLMN7Ty1zepUc03Kl/TNzLA6zfko7k3z5LJN+iItjcWDck3S9HTNxhDtDfjCcM3ClXB\r\nN+mKxzcFBck3VlvHN1J9zjfclsQ3r9azN0R/tDfeeco3XP28NzyD4zc8pN438Mz1N6qazjf1WLY3\r\nyOWlNyZWojc+X+w3TJmtN4nE1TcSRq83hGWyN3tLoTcazeg3mAKmNxw02DdazLM3SivCN/7q1jcA\r\ns8o3xKTaN7BPwzfk4ro3/KK7NxBzwzcS7dg3gNG+NxRO2TdSPco30HfJN1gNxzdtUrY3gRyYN4uK\r\nszcjwqc3ahzbN/NexjcWnYs3+u6+NzrmuDcbAZc3/bmzNzD0qTcOSts3UbvJNz6EkzeRaM43uvjD\r\nN6yLqzcgVLg3mNSeN949kTdSR6I3RjjJNxf6qzeqcqQ3fX2WN5HcsTcC6pY3aJmZNyb+tDezc6g3\r\nKDOpN/T40zd8vNk3wsXXN5e4yDc+RMg3PIHANy554TdAq503kCeaN4KEjzeJgaY3JZaiNxFktzem\r\nnYs32HuaN7SLzjcIGro3qEStN2PymTeLXZ43NfWhN3a+yjfeDJk3wguwNzdJ4TcCqJM34N3NN/HL\r\nqDd7S5o3/CKpN9TrvjeJ17U3NlGuN1Q8ojf4XL83DPetN/SnzTeEOHw3gBCkN1rajTfee8Q3t3us\r\nNzfhvTckO4c397hqN1hdkDdIOLI3sK/NN9uirjesq5Q3UtqPN6H1pDee/aM36vqiN68lqzfed7M3\r\nlNC9N5TCqDcDL543a4ysN25HmDcNsaI3cZi1NxhQmjfdaWQ3qo3DN8NdkDdIA4I3gFSzN4CWjzcA\r\nrrA31qKvN5JshDcROaI3NsnDN/8EzzcNKqQ3kP2dN1NxmzctSns3GdCFN3UJiTckj5k3WoGwNyxK\r\nmzfMCos3C8rBNwbxszfthZU3LGupN2wPljceoJE3AWqbNyBaoTdIX7s3tk6eNzK9nDevHZw34lOl\r\nNxwNhzdSgb033K2HNzogozetOWc3WyGYN/4UljcSUqs3fHmQNxCUiTcnbZg3qh60N8R+gTd0spc3\r\nEdmNN4+Bnzdf23U3FCOfN6zumzfP4p4368yTNzTujjderYM3UoixN7NAoDeOCns3VqKhN9pKojeU\r\nzo03TEiKN26usTdu/pM3/5inN9CwgDf2uJw3kG6jN0bQSzdO1o83mIKqN6tqpTdFnII3dN6KN3s5\r\nnTeeNpQ39liBN2MHizcn/JA3hFqeNybdnDdcJIA38cONNxD7gTdtJ603mnemN8vQTDf2Tng3hYSO\r\nN3LEhTf5qaQ3NEZbN0R2rTcnB4Q3AU+CN/0omDeA84k32M+PNxmmkDf6F5Y3TiKdN00KojfttKs3\r\njd6bNzJ6pzfpz4w34kR5N1REnzektJU3JwSbN+EDljciBIA3TMtfN6CshDck8H83tJl5N/eIrDdA\r\nGJY3pJddNwTYqTd/sJU3Rh16N5M0pzd10Ig3Tm+BN95ndTcwI5E3ko+5N0chhjevVJE3pjalN43p\r\ndje4Xnk39febN5qiPDe5LFA3KtmNNzUChDepiYA3WiFbNyM5hTcOt443LrlcN0l0lTeZNkU3YU6g\r\nN2L9ejeq2ow3d+ikNzq0jTclsXE3pEpgN+ojjDfKwKA3YEmaN/Mhgzchk4M3H7U7NwbJjzdrupo3\r\neROTN+gFjDcs41w3gcJfNyuSnjdp5Gs3HVl+N7H3hzepcF433NmJN14+WjeVS4I3VBClNw1SVjdm\r\n/0w3Rph9N0fpoDcuEjU33z6GNwQeijfb8Y03UQV0N+d9dDfo15g3WyyGN/TOkDfoVI83ENOLNxbF\r\ncDekJpM39JCMN+FcWzf8bVU3VB1xN9f5gDcHiGc3GklJNzQBhTfXdIk3BlaDN85CQDe4rIE3n+mg\r\nN8RxmTe20YY3e66INwp3kjdVnJ436OuAN7b8bzdjZXE3H7g5Nymukjd1ums369aINzZwhDe1+Yw3\r\nGciQN87FejfBWJ03rDWdN2Tshze/kp43h5qbN7jsljeX+oo3MtWtN8gtozeeyY83KPWANwX0jDfE\r\nrVw3hjmAN6gdmTeDEWE3e3+IN8++jTd0H4835ISONzCHiDdUtW03NT5YN8BNeTfvM2439y2ZN+UE\r\njTfV/4o3ljmNN9XPgzfioWM3+2qfN8NrbzfEjoM3S+2HN6amfTcvWXE3SfilNwHpiDf7Qow3AmiQ\r\nN45fbzezYnQ3UZtqN+sLQTcPIHA3j52FN/vAgjcNdH03GEyeN+zYdzefRHc3BKeDNy9PVDe9nXw3\r\n06l8N227dDdeKlg3tGWWN4BnmDe1fIw3jACZNz8OkzcnMG83ktdGNzNjljdi1pQ3NGuFN9rpejc3\r\nGoE3NVpxN8wTgzcbrmA3y0aFN1/wczc6ElM3iEpqN+3dWjeoQV436ChqN5/pcjc7wYE3t0WHN8Pa\r\nNzeE9XY3xcqDN0xebDc+uKk3INVmN3QuajfYpX43/+iKN4UoXjekRm83u6g7N/zbkzeOEVA3jA2n\r\nN8o+fDf+WVc3WNdxN3wwjDcOoTg3M0Z5N/cnnDcWEDY3e8pJNz8KYjcR4203XLSCNwBkbDcdie8+\r\ncJHZPiI9FD/Fd1E/qXE7QGWfxUHiJWtBUBfjQH3Tzj+A+CNAwnGWPyj4tT5hrkw/BODEP1ps0T4B\r\n3u89LES7Pq0kvz5a68o/SoEDP/NAzz55Lro+4PJyPofILD95XK8/zIXwP2YUgj+i2Fc/w/AvQAip\r\nMEAWMW5BMQWEQNJQ7z8nUylBgd/CQEQQrEESxF1BXPS7QFWUskCZ4hJAY5jjQNHO2D+iX4Q/kMZe\r\nQN3Ka0Bjut4/fDC1PvcD+T6eu5I/CAMBQCpDoD8npeE/I3klQDw46T+p2WBAAv8vP9W1SkC2Qa1A\r\nMqgPQNjhyz9SOkE/MObSProkGj/Bi/k+vHqGQIAMrD8k1Q5AgmHyPzKY7kBG7QBAWkM9QLRtyD8j\r\nJ1g/z2zSP1QfHj/8974+2t2yPkAlpEDi35lAtZsOQHy08j64aHc+zlIwPkWZtz66Jhw+RaiUPa9E\r\nkj1JPh8+mr4CPlkvBj4A7ec9d5XlPkSNwj2yPfc8GfNKPRwPyj1A1oQ9cC8lPzIbwT3+uII+TqC0\r\nPuX2CT4UT/Y9DFARPeyq4T2AvKc9oOeXPm+VvT1adlE9+U4ePjsWPj1ihUo98rPyPfFRoz3Xqz8+\r\nHy4gPsjsmD3SotY9nKgQPs3FPj4sA9I+r60hPUZRkD1GqfY98C4WPtSBpz0EROA9KlaVPdhQmz16\r\nTik+OpFhPaXMWT6cdJ89PMX1PRONYz14Fqo82k4UPRYw8D2jIFQ9+PBMPdOoBD2ZW6o96dszPfIE\r\npz2a7Mk9xWmnPT2J3jy6HxI91tDdPIxBRT3gqPU89h0vPXC2aD2acFI9zk4DPbVgWzyCaLc92Nwx\r\nPMXkNTySfP88wbyhPQpf5DxSlpg86R4TPfvprzz3i8k84Qg4PZOMDT1QhAo9jF68PUhSCD0oWRE9\r\ntZzoPBIM8Dx8UW09bd33PBbIsjxiQ8U8S59cPZ/xoz1YFDM94klRPYyLQzyzoCQ9cxefPDpxZD1S\r\nKgw9gVQVPUY/bDxKAYY8kEGNPJMRWT3oXoE9WQTPPXrdfT22U2A85ia0PHm9uTwl+X48Ha1uPHg6\r\nyjzhK0A9xjnjPRsfIT/W42E9zHaJPm28hzxiuzA92tFJPTkZLzwv0hc9pjOcPJFwJT3CcG49RpCm\r\nPABlxz3DTRQ9kw+QPUVIPz7GPpQ+jqGyPKtEaDyoGe07JIMLPTlfXTyIevs7AEA2POGOHj3lm7E9\r\n2LE7PH5ftj3y6kY9caAxPXPzfDzzIo48/JOPPJdTqTyGzb08EOKgPJnOLz3bZq88sig6PmrGqT0h\r\noos+Wne7PbtWVz1Uhdw8WNDBPDSSvTygxJk8KHxxPJEZPDwDCUA9jNr3PG9+nTzmMYg8IhmmPOPI\r\nvzvewY08uhqYOy72sjscJhY82eCkPJhi5DyZeDY8yUS+PMLjPDxdt488KD3jPMYt+DuaXYo8MjM4\r\nPMrWlzthI1M9qdAQPqI5QD1HbKM9+rXYPK84Cz38hU48ErjBPChUezyje7U7mDJ1PGAoaTxv1GY8\r\nksLaPNpcAj1EVTU9i0OYPPtcTj1w8NU8xHKjOwNNvTye6vc7/qrBO6FABz13BRs89GVJPBoGZDzX\r\nrEs92bWBPL8qOzyo1Bs9j12SPHk7BT1t32c8huzMPAadKD3+sfo7btRkPJvhwzttlis8ZYc2O7jS\r\nOTs63Co7jXo7O1g9/TuNdj08r7ZjPLiluTvUMVc8ZYphPH/RszvR6Es8MBYkPBa0tTug0ZA7z041\r\nO6rShTxqX4o8ErKbOzcrnTpRSV47VJjmOsd2NTpzPuM6A7xBOhtv1zl+ZA07+A0VOuetNzoeknE6\r\nLLteOjXyoDpa8o07MMjpOQnrDjoHLEw5R2onOdE8DjmugP840oR2OBzi1DjBvnc4MGOVOMKcNjir\r\nuYA4lsDDOLWnszjkA0I4Qm5ZOPTySjiQdHg4gSorOBakJjh4USY4GghQOAXENzhILDE4r8VfOBxg\r\nqDhvDn84tan/N+1OOjhHIwY4uGMoOFlSCThxvQI4IPsnOBTIPDiXYwg4ibAnOEG7KzgLTBM4vwUc\r\nOBn3IjhleQw4RvwWOEgHEDiqtww4X0jwN+qIETjMhx04pePrN343Fjhc+Ro4QJ0xOFBqDDgiKiE4\r\nD/XnN0y+DTgXlRE4ne/4N7I2+zcB+v83PdoCOMB1GTjglPo3mncSOMls+DdveOo3kH4HOHEfCDj/\r\nIAQ4qKgGOBOBEji/yQM4As38N+Qi9jfmkP432sYTOBOtADizDv032aXwN8Ij4jdrcPc36L0AOLIK\r\nADhtL/s3dKcOOLwXAjjpmOA3Po3bN7a09jfyDuk3ttcDOF1U7zearfQ3wjnhN0bHCDhAUPw3MdnT\r\nN/187DdO+P03yg7/N21X+Ddc/8U3MVPrNyqN7jfAzfs3MrjvN3TQ8TdwBwE4M/zwNzq8wDegixI4\r\nWG4COMKs4zfsj8s3ghXqN5RV7TceptU3+NHoN5NB1jcKZug3dHHsN58RAjg9Jfo3Ae3DN5Co4zfo\r\nZtE3YSD/N4wM4jdAAOM3eBPaNyWG9DcaauQ3wiTeN0AE6zeQis83UIfiN/xI/DfkftU3/PbWN3ZE\r\n8Tcc9t83l8TdN+In7Dd/DQU4PUzQNweR8DdxJ943fOfFN7iG9Der3ec3Zp/eN5G38zdTadw3nP/X\r\nN55puzcy2uM35DLaNxFb5jfaB+s30MnLN86aujeAsfI3ERneN9s5sjcLu/o36sTbNwAy4TfHvsY3\r\nyKHZN/hT0Dfg6q038NzBN47IwzfhSOI3FvbyN6KR9jempt83vB/SN3qj7jfR1e83dxfXN9xS0DdM\r\nqNs3SID0Nxy+vjcSyOA3QP7AN/RS3TfjivI3Xrr3N5ZX+TfY6tw3lgnLNwTJ5zfssrU3bMbeN/ly\r\nxDcy8sw3tPLXN6lRzTcqX9M3MsDrN+SjuTfPksk36Ii2NxYNyTdL0dM3GEO0N+MJwzcKVcE36YrH\r\nNwUFyTdWW8c3Un3ON9yWxDev1rM3RH+0N955yjdc/bw3PIPjNzyk3jfwzPU3qprON/VYtjfI5aU3\r\nJlaiNz5f7DdMma03icTVNxJGrzeEZbI3e0uhNxrN6DeYAqY3HDTYN1rMszdKK8I3/urWNwCzyjfE\r\npNo3sE/DN+Tiujf8ors3EHPDNxLt2DeA0b43FE7ZN1I9yjfQd8k3WA3HN21StjeBHJg3i4qzNyPC\r\npzdqHNs3817GNxadizf67r43Oua4NxsBlzf9ubM3MPSpNw5K2zdRu8k3PoSTN5Fozje6+MM3rIur\r\nNyBUuDeY1J433j2RN1JHojdGOMk3F/qrN6pypDd9fZY3kdyxNwLqljdomZk3Jv60N7NzqDcoM6k3\r\n9PjTN3y82TfCxdc3l7jINz5EyDc8gcA3LnnhN0CrnTeQJ5o3goSPN4mBpjcllqI3EWS3N6adizfY\r\ne5o3tIvONwgaujeoRK03Y/KZN4tdnjc19aE3dr7KN94MmTfCC7A3N0nhNwKokzfg3c038cuoN3tL\r\nmjf8Iqk31Ou+N4nXtTc2Ua43VDyiN/hcvzcM96039KfNN4Q4fDeAEKQ3WtqNN957xDe3e6w3N+G9\r\nNyQ7hzf3uGo3WF2QN0g4sjewr80326KuN6yrlDdS2o83ofWkN579ozfq+qI3ryWrN953szeU0L03\r\nlMKoNwMvnjdrjKw3bkeYNw2xojdxmLU3GFCaN91pZDeqjcM3w12QN0gDgjeAVLM3gJaPNwCusDfW\r\noq83kmyENxE5ojc2ycM3/wTPNw0qpDeQ/Z03U3GbNy1KezcZ0IU3dQmJNySPmTdagbA3LEqbN8wK\r\nizcLysE3BvGzN+2FlTcsa6k3bA+WNx6gkTcBaps3IFqhN0hfuze2Tp43Mr2cN68dnDfiU6U3HA2H\r\nN1KBvTfcrYc3OiCjN605ZzdbIZg3/hSWNxJSqzd8eZA3EJSJNydtmDeqHrQ3xH6BN3SylzcR2Y03\r\nj4GfN1/bdTcUI583rO6bN8/injfrzJM3NO6ON16tgzdSiLE3s0CgN44KezdWoqE32kqiN5TOjTdM\r\nSIo3bq6xN27+kzf/mKc30LCAN/a4nDeQbqM3RtBLN07WjzeYgqo3q2qlN0Wcgjd03oo3ezmdN542\r\nlDf2WIE3YweLNyf8kDeEWp43Jt2cN1wkgDfxw403EPuBN20nrTead6Y3y9BMN/ZOeDeFhI43csSF\r\nN/mppDc0Rls3RHatNycHhDcBT4I3/SiYN4DziTfYz483GaaQN/oXljdOIp03TQqiN+20qzeN3ps3\r\nMnqnN+nPjDfiRHk3VESfN6S0lTcnBJs34QOWNyIEgDdMy183oKyENyTwfze0mXk394isN0AYljek\r\nl103BNipN3+wlTdGHXo3kzSnN3XQiDdOb4E33md1NzAjkTeSj7k3RyGGN69UkTemNqU3jel2N7he\r\neTf195s3mqI8N7ksUDcq2Y03NQKEN6mJgDdaIVs3IzmFNw63jjcuuVw3SXSVN5k2RTdhTqA3Yv16\r\nN6rajDd36KQ3OrSNNyWxcTekSmA36iOMN8rAoDdgSZo38yGDNyGTgzcftTs3BsmPN2u6mjd5E5M3\r\n6AWMNyzjXDeBwl83K5KeN2nkazcdWX43sfeHN6lwXjfc2Yk3Xj5aN5VLgjdUEKU3DVJWN2b/TDdG\r\nmH03R+mgNy4SNTffPoY3BB6KN9vxjTdRBXQ35310N+jXmDdbLIY39M6QN+hUjzcQ04s3FsVwN6Qm\r\nkzf0kIw34VxbN/xtVTdUHXE31/mANweIZzcaSUk3NAGFN9d0iTcGVoM3zkJAN7isgTef6aA3xHGZ\r\nN7bRhjd7rog3CneSN1Wcnjfo64A3tvxvN2NlcTcfuDk3Ka6SN3W6azfr1og3NnCEN7X5jDcZyJA3\r\nzsV6N8FYnTesNZ03ZOyHN7+SnjeHmps3uOyWN5f6ijcy1a03yC2jN57Jjzco9YA3BfSMN8StXDeG\r\nOYA3qB2ZN4MRYTd7f4g3z76NN3QfjzfkhI43MIeIN1S1bTc1Plg3wE15N+8zbjf3LZk35QSNN9X/\r\nijeWOY031c+DN+KhYzf7ap83w2tvN8SOgzdL7Yc3pqZ9Ny9ZcTdJ+KU3AemIN/tCjDcCaJA3jl9v\r\nN7NidDdRm2o36wtBNw8gcDePnYU3+8CCNw10fTcYTJ437Nh3N59EdzcEp4M3L09UN72dfDfTqXw3\r\nbbt0N14qWDe0ZZY3gGeYN7V8jDeMAJk3Pw6TNycwbzeS10Y3M2OWN2LWlDc0a4U32ul6NzcagTc1\r\nWnE3zBODNxuuYDfLRoU3X/BzNzoSUzeISmo37d1aN6hBXjfoKGo3n+lyNzvBgTe3RYc3w9o3N4T1\r\ndjfFyoM3TF5sNz64qTcg1WY3dC5qN9ilfjf/6Io3hSheN6RGbze7qDs3/NuTN44RUDeMDac3yj58\r\nN/5ZVzdY13E3fDCMNw6hODczRnk39yecNxYQNjd7ykk3PwpiNxHjbTdctII3AGRsNw==",
                            "noiseTrainingType" : "default"
                          }
                        }
                    ],
                    "start" : 22760,
                    "duration" : 506,
                    "mediaStart" : 1046,
                    "mediaDuration" : 506,
                    "scalar" : 1,
                    "metadata" : {
                      "WinSubProjectDisplayName" : "",
                      "clipSpeedAttribute" : false
                    },
                    "animationTracks" : {

                    }
                  }
                ]
              },
              {
                "trackIndex" : 2,
                "medias" : [
                ]
              },
              {
                "trackIndex" : 3,
                "medias" : [
                ]
              },
              {
                "trackIndex" : 4,
                "medias" : [
                ]
              },
              {
                "trackIndex" : 5,
                "medias" : [
                ]
              },
              {
                "trackIndex" : 6,
                "medias" : [
                ]
              },
              {
                "trackIndex" : 7,
                "medias" : [
                ]
              }
            ]
          }
        }
      ]
    },
    "trackAttributes" : [
      {
        "ident" : "",
        "audioMuted" : false,
        "videoHidden" : false,
        "magnetic" : false,
        "metadata" : {
          "IsLocked" : "False",
          "WinTrackHeight" : "56"
        }
      },
      {
        "ident" : "",
        "audioMuted" : false,
        "videoHidden" : false,
        "magnetic" : false,
        "metadata" : {
          "IsLocked" : "False",
          "WinTrackHeight" : "56"
        }
      },
      {
        "ident" : "",
        "audioMuted" : false,
        "videoHidden" : false,
        "magnetic" : false,
        "metadata" : {
          "IsLocked" : "False",
          "WinTrackHeight" : "56"
        }
      },
      {
        "ident" : "",
        "audioMuted" : false,
        "videoHidden" : false,
        "magnetic" : false,
        "metadata" : {
          "IsLocked" : "False",
          "WinTrackHeight" : "56"
        }
      },
      {
        "ident" : "",
        "audioMuted" : false,
        "videoHidden" : false,
        "magnetic" : false,
        "metadata" : {
          "IsLocked" : "False",
          "WinTrackHeight" : "56"
        }
      },
      {
        "ident" : "",
        "audioMuted" : false,
        "videoHidden" : false,
        "magnetic" : false,
        "metadata" : {
          "IsLocked" : "False",
          "WinTrackHeight" : "56"
        }
      },
      {
        "ident" : "",
        "audioMuted" : false,
        "videoHidden" : false,
        "magnetic" : false,
        "metadata" : {
          "IsLocked" : "False",
          "WinTrackHeight" : "56"
        }
      },
      {
        "ident" : "",
        "audioMuted" : false,
        "videoHidden" : false,
        "magnetic" : false,
        "metadata" : {
          "IsLocked" : "False",
          "WinTrackHeight" : "56"
        }
      }
    ],
    "captionAttributes" : {
      "enabled" : true,
      "fontName" : "Arial",
      "fontSize" : 64,
      "backgroundColor" : [ 0, 0, 0, 191],
      "foregroundColor" : [ 255, 255, 255, 255],
      "lang" : "en",
      "alignment" : 0,
      "defaultFontSize" : true,
      "opacity" : 0.5,
      "backgroundEnabled" : true,
      "backgroundOnlyAroundText" : true
    },
    "backgroundColor" : [ 0, 0, 0, 255]
  },
  "metadata" : {
    "AutoSaveFile" : "C:\\Users\\Ding\\AppData\\Local\\TechSmith\\Camtasia Studio\\19.0\\Auto-Saves\\towerbcce1a4.autosave.tscproj",
    "CanvasZoom" : 92,
    "Date" : "2020-02-03 11:21:57 PM",
    "IsAutoSave" : "0",
    "Language" : "ENU",
    "ProfileName" : "MP4 only (up to 1080p)",
    "ProjectDimensionsChanged" : "1",
    "Title" : "tower",
    "audioNarrationNotes" : "",
    "calloutStyle" : "Basic",
    "canvasDetached" : "False",
    "canvasPositionHeight" : "0",
    "canvasPositionLeft" : "0",
    "canvasPositionTop" : "0",
    "canvasPositionWidth" : "0"
  },
  "audioFormatSampleRate" : 44100
,
  "themeFile" : null

}
