{
  "title" : "",
  "description" : "",
  "author" : "",
  "targetLoudness" : -18.0,
  "shouldApplyLoudnessNormalization" : true,
  "videoFormatFrameRate" : 30,
  "audioFormatSampleRate" : 44100,
  "width" : 1920.0,
  "height" : 1080.0,
  "version" : "3.0",
  "editRate" : 30,
  "authoringClientName" :  {
    "name" : "Camtasia",
    "platform" : "Windows",
    "version" : "19.0"
  },
  "sourceBin" : [
    {
      "id" : 1,
      "src" : "C:\\Users\\Ding\\Desktop\\github\\imding.github.io\\pipeline\\data\\technovator_3d_printing_with_tinkercad\\tower-level.png",
      "rect" : [0, 0, 812, 681],
      "lastMod" : "20200203T051847",
      "sourceTracks" : [
        {
          "range" : [0, 1],
          "type" : 1,
          "editRate" : 10000000,
          "trackRect" : [0, 0, 812, 681],
          "sampleRate" : 0,
          "bitDepth" : 32,
          "numChannels" : 0,
          "integratedLUFS" : 100.0,
          "peakLevel" : -1.0,
          "metaData" : ""
        }
      ]
    },
    {
      "id" : 2,
      "src" : "E:\\Document\\Camtasia\\tower-arch-01.trec",
      "rect" : [0, 0, 1092, 612],
      "lastMod" : "20200203T054434",
      "sourceTracks" : [
        {
          "range" : [0, 409],
          "type" : 0,
          "editRate" : 30,
          "trackRect" : [0, 0, 1092, 612],
          "sampleRate" : 0,
          "bitDepth" : 0,
          "numChannels" : 0,
          "integratedLUFS" : 100.0,
          "peakLevel" : -1.0,
          "metaData" : "2b7b6a00-7a1f-11e2-83d0-0017f200be7f;2b7b6aef-7a1f-11e2-83d0-0017f200be7f;2b7b6af0-7a1f-11e2-83d0-0017f200be7f;2b7b6af1-7a1f-11e2-83d0-0017f200be7f;2b7b6af2-7a1f-11e2-83d0-0017f200be7f;2b7b6af3-7a1f-11e2-83d0-0017f200be7f;2b7b6af5-7a1f-11e2-83d0-0017f200be7f;2b7b6af6-7a1f-11e2-83d0-0017f200be7f;2b7b6af7-7a1f-11e2-83d0-0017f200be7f;2b7b6af8-7a1f-11e2-83d0-0017f200be7f;2b7b6af9-7a1f-11e2-83d0-0017f200be7f;2b7b6afa-7a1f-11e2-83d0-0017f200be7f;"
        },
        {
          "range" : [0, 596992],
          "type" : 2,
          "editRate" : 44100,
          "trackRect" : [0, 0, 0, 0],
          "sampleRate" : 44100,
          "bitDepth" : 16,
          "numChannels" : 2,
          "integratedLUFS" : -45.0405706149784,
          "peakLevel" : 0.025054931640625,
          "metaData" : ""
        }
      ]
    },
    {
      "id" : 3,
      "src" : "E:\\Document\\Camtasia\\tower-arch-02.trec",
      "rect" : [0, 0, 1920, 1080],
      "lastMod" : "20200203T075600",
      "sourceTracks" : [
        {
          "range" : [0, 2841],
          "type" : 0,
          "editRate" : 30,
          "trackRect" : [0, 0, 1920, 1080],
          "sampleRate" : 0,
          "bitDepth" : 0,
          "numChannels" : 0,
          "integratedLUFS" : 100.0,
          "peakLevel" : -1.0,
          "metaData" : "2b7b6a00-7a1f-11e2-83d0-0017f200be7f;2b7b6aef-7a1f-11e2-83d0-0017f200be7f;2b7b6af0-7a1f-11e2-83d0-0017f200be7f;2b7b6af1-7a1f-11e2-83d0-0017f200be7f;2b7b6af2-7a1f-11e2-83d0-0017f200be7f;2b7b6af3-7a1f-11e2-83d0-0017f200be7f;2b7b6af5-7a1f-11e2-83d0-0017f200be7f;2b7b6af6-7a1f-11e2-83d0-0017f200be7f;2b7b6af7-7a1f-11e2-83d0-0017f200be7f;2b7b6af8-7a1f-11e2-83d0-0017f200be7f;2b7b6af9-7a1f-11e2-83d0-0017f200be7f;2b7b6afa-7a1f-11e2-83d0-0017f200be7f;"
        },
        {
          "range" : [0, 4168704],
          "type" : 2,
          "editRate" : 44100,
          "trackRect" : [0, 0, 0, 0],
          "sampleRate" : 44100,
          "bitDepth" : 16,
          "numChannels" : 2,
          "integratedLUFS" : -12.1152196340824,
          "peakLevel" : 1.0,
          "metaData" : ""
        }
      ]
    },
    {
      "id" : 4,
      "src" : "E:\\Document\\Camtasia\\tower-arch-03.trec",
      "rect" : [0, 0, 1920, 1080],
      "lastMod" : "20200203T084720",
      "sourceTracks" : [
        {
          "range" : [0, 8469],
          "type" : 0,
          "editRate" : 30,
          "trackRect" : [0, 0, 1920, 1080],
          "sampleRate" : 0,
          "bitDepth" : 0,
          "numChannels" : 0,
          "integratedLUFS" : 100.0,
          "peakLevel" : -1.0,
          "metaData" : "2b7b6a00-7a1f-11e2-83d0-0017f200be7f;2b7b6aef-7a1f-11e2-83d0-0017f200be7f;2b7b6af0-7a1f-11e2-83d0-0017f200be7f;2b7b6af1-7a1f-11e2-83d0-0017f200be7f;2b7b6af2-7a1f-11e2-83d0-0017f200be7f;2b7b6af3-7a1f-11e2-83d0-0017f200be7f;2b7b6af5-7a1f-11e2-83d0-0017f200be7f;2b7b6af6-7a1f-11e2-83d0-0017f200be7f;2b7b6af7-7a1f-11e2-83d0-0017f200be7f;2b7b6af8-7a1f-11e2-83d0-0017f200be7f;2b7b6af9-7a1f-11e2-83d0-0017f200be7f;2b7b6afa-7a1f-11e2-83d0-0017f200be7f;"
        },
        {
          "range" : [0, 12437504],
          "type" : 2,
          "editRate" : 44100,
          "trackRect" : [0, 0, 0, 0],
          "sampleRate" : 44100,
          "bitDepth" : 16,
          "numChannels" : 2,
          "integratedLUFS" : -12.48950001024,
          "peakLevel" : 1.0,
          "metaData" : ""
        }
      ]
    },
    {
      "id" : 5,
      "src" : "E:\\Document\\Camtasia\\tower-arch-04.trec",
      "rect" : [0, 0, 1920, 1080],
      "lastMod" : "20200203T094408",
      "sourceTracks" : [
        {
          "range" : [0, 8840],
          "type" : 0,
          "editRate" : 30,
          "trackRect" : [0, 0, 1920, 1080],
          "sampleRate" : 0,
          "bitDepth" : 0,
          "numChannels" : 0,
          "integratedLUFS" : 100.0,
          "peakLevel" : -1.0,
          "metaData" : "2b7b6a00-7a1f-11e2-83d0-0017f200be7f;2b7b6aef-7a1f-11e2-83d0-0017f200be7f;2b7b6af0-7a1f-11e2-83d0-0017f200be7f;2b7b6af1-7a1f-11e2-83d0-0017f200be7f;2b7b6af2-7a1f-11e2-83d0-0017f200be7f;2b7b6af3-7a1f-11e2-83d0-0017f200be7f;2b7b6af5-7a1f-11e2-83d0-0017f200be7f;2b7b6af6-7a1f-11e2-83d0-0017f200be7f;2b7b6af7-7a1f-11e2-83d0-0017f200be7f;2b7b6af8-7a1f-11e2-83d0-0017f200be7f;2b7b6af9-7a1f-11e2-83d0-0017f200be7f;2b7b6afa-7a1f-11e2-83d0-0017f200be7f;"
        },
        {
          "range" : [0, 12989440],
          "type" : 2,
          "editRate" : 44100,
          "trackRect" : [0, 0, 0, 0],
          "sampleRate" : 44100,
          "bitDepth" : 16,
          "numChannels" : 2,
          "integratedLUFS" : -12.9086325044477,
          "peakLevel" : 1.0,
          "metaData" : ""
        }
      ]
    }
  ],
  "timeline" : {
    "id" : 6,
    "sceneTrack" : {
      "scenes" : [
        {
          "duration" : 509.466666666667,
          "title" : "",
          "type" : "",
          "csml" : {
            "tracks" : [
              {
                "trackIndex" : 0,
                "medias" : [
                  {
                    "id" : 7,
                    "_type" : "AMFile",
                    "src" : 3,
                    "trackNumber" : 1,
                    "attributes" : {
                      "ident" : "tower-arch-02",
                      "sampleRate" : 44100,
                      "bitDepth" : 16,
                      "gain" : 1.0,
                      "mixToMono" : false
                    },
                      "channelNumber" : "0,1",
                    "effects" : [
                        {
                          "effectName" : "NoiseReduction",
                          "category" : "categoryAudioEffects",
                          "parameters" : {
                            "denoiserAmount" : 20.0,
                            "denoiserThreshold" : 0.0,
                            "noiseProfile" : "KdIUP/nTk0DO7ZA/KcmEP4EkX0BgoThCu6REQSL/6D+wZSNAXD1JQGOiej96mxZABPS7PnHDqD5G\r\nb7A+DQZUPqcZjz5qwNI+eJAXPgGSpT4pbTg/tpC2PvqeDT7DnUo/TKWcP6lATT9Ueqc/uJ4rQNfE\r\nUkCiMapAy4y5QJfHjkCc8PRAHTnqQclfWkFbimNAs4JzP81PMEAUaSA/IWJnPzS4CT/Yz+Y/3soK\r\nPzjovT5/67M/abVPP2a8rz8vvxc/Pl9+PhZ47T4E1Fc/rjhrPrXHpj4faJ4+uD9sP7/czT7HzAM/\r\nMlnbP1OpDD/ekMs/ch6xPwJbFj/Kz8E+0P9EP7Aa4T/mIjE/yh3CPsi4Ej8npCtA0H72P1DneT7j\r\n87Q+LphZPwQqrT5adjs/onZ5P2krZD4O+eU9mmdUPo5Hpz+qjYM+1iakPVXc6j2La0o+ZjHHPVNe\r\nRz4LFLs95SBfPex2lj1Ku3w95NWPPYgvCz4Iz0g+HSpHPnOtFT6WAEg9DplqPbBJsz2vMyo92RZA\r\nPV6f5j2qkW0+NAyJPaOMuj3TDoI+ulZIPnghtT5geOg9WvVhPSE+UTwoKdk8E0PvPD4PVz0S9Nc8\r\naxMOPZYXRz2m+wo92jQEPi4eMD2ZWTw9IrCqPKk+zTzPnds8/+I2PWCmVD3ck6g8tEzMPcq5kT3J\r\ndMQ84EZYPX/qzTwwIq08mqbwPGXWxTx47QA93oRDPejOOj3n3Fk8J4QYPWoW4j1CBDM9yKCqPUkK\r\nlT2Ovgw9QbsDPQqvyT1HMHA94/KhPKK1Az0166A9xaM2PVev9zzbF7E8NNPwPAvWSj3SWpM9VDpZ\r\nPaxOFD3YZxo+bDq7PBoZBz0rlAs9wLFMPZuybj2PQ7Q9m1GdPXhwtj4yMgo/LEMGPX7kbD+GxjM/\r\nfjUCPo3qGz0w70Q9rti5PQRGjz1HosA882m1PDMLzTzO0eY8ZZvnPNNOWz4djQc+WGIPQN4nD0BG\r\nYoNAAv2oQCs08kDq7B1Bbce8QC6dQ0DoPRNA+1gGQEJruj/2BiE/BfCHPc0QtTz225g84hBlPBCS\r\nNTz08CU9Wf2CPXzHFT0gXOQ8FpycPNbXTzxrq7E+PficP63X0z6bpw098NlZPUJCiDz6Dt88T13K\r\nPO171T7J3Bg/zB41PnN6AzywSJs9dUoWPkoGWT2LYF89lNMOPoKFVj8PURFA7r8HQEuNuT8Cn9E+\r\nQSGPP8ntAEBZqRJAdiu8P7LpsT+aKBs/GmeFPjsSlj23Jbk9+scIPtQZsj96U1xAV+qOP4ExUD+O\r\ncRQ/thlzPkWv5T7yOc0+qm/BPwiWYEBSRlM/2dKEP6AhxT7apT0+FMlWPuQTCj4G8jU9rkPBPCUf\r\ngT2rH6o97dG4PX7avjyy2DE+CQWIPrwlmD5cwE89GmWtPMPcCD0EfI084zgVPG//dD1b6Eg9HQ5+\r\nPNKl7zthel88qq0KPYuV9DyCy1c8wd+WPCuU1zzDWlg8qPoKPCxGWT1opPA8eysbPXw26Tsf8Qg9\r\ngmZqPDdUAzxYWi08NKVsPO/CgzxADf889KydPELaqT3Qva8+jEIYP/PYOD8ezFA/CUKJPvigAjxY\r\niSU+rmZvPYUcajwgcO89G6p5PXMeWD2QEhA7+MAjPgpIVz5GTok+lOK3PqlpJT+Xwi0/hGgFP8LH\r\nlz2YeJc9pS2hPakrazw0vDY8628KPl2dgD3FcqQ9TK+UPXXQ+zy8R8g9cqttPed3KT1KWDg86CF/\r\nOzIF8DtsgOc7S705Oy6DxTrH47Y6E6ofO4C1ZzvHAzc7axJBOsbfZzqyuXI6d3fUOVrKEjsfXjs8\r\n0jb/PGXCjjy180M8Ke69O6qizzqQOvs6YPedO5M8FztCetA6q6WlOt0jwznJ0RM5bfR1Oa8PxjjQ\r\nVxc6D4GmOQikUjlY6Fk6wuA7OjSWCDoYD6Q5gjSsOJaVODrEZYk56Jh4OHFqpjjbmoI4q0upOdY3\r\nmzix6a048tqvOKAqmzi2Ujo55kN1OCvchzgOnY84k6SMOBYf/jj7/nQ4Wd1yOE5Lyjhz9JY4vcC6\r\nOICpiThkmWM4985lOA6AjDgRdWw4LgKIOHXgjDiC/XQ4eseQOKWajTjKrYI4T7hjOF4SbjhqJoE4\r\nBhh8OI6PiDgwTVc4Bg5sODnmYDjqAoA4XuhtOKhkezhim2A4yj9yOK7PZjhGG2043p9aODBtgDgy\r\nCmk40P1rOJHRaDgca1I4/NdgODWXXDjIYX84wr9kOC5zajgcO1w45dU4OEovRjjzKWM4RJxrOJay\r\nYziUUks43vlFOFaKYzhymUk4cHpfONvWQDgeIHA4qC1BOP6eRzjG/FU4cvBaON+aRTjy/kw49i47\r\nOK+yWzjubiY4jalPOETCODiwjFw4AkpKOG4iNziO/0k4Dj0eOF7BPTi8bTE4dpg4OAwpUDig4nQ4\r\nSpZBOL1nPzht6Dk4j7tPOMO6STiiukU4CRgjOINPMTj6vEY4r10jOBA3RDiy1Ds4wCUlONITPDgg\r\nYjg4Ob1IOIZ3STiAtzk40KULOPRCKzjUHyE4BxUtODBcHjhiNic4xrwbOLp2KTiQbSY4nzYxOOeY\r\nHDjfSEI4/f4eONYLLji2Bj44aOcpOMQzKziVvg04SaBAODNcFjhWKRk4eREqOHD/EjhuQyU4ADwN\r\nONgkMDjF5So412InOJipCji3PBU4SPgPODJBGjh5mho4tNAmOAYDGjhdsRw49/4VOBwTJTgAfQ04\r\ncj0BOCHbLjglHQg4RHkfOCikHTi0Dik4ZTIsOGLzEDh+XRk4vK//N7OzHTi2gxA49B4JOAfTDzg6\r\nyQ84qEEPOIy72TdkXgw4Y3sUOFWZBjh8fgU4zRUnOC3/CzjnLf03HFsBOLf+HDhTCRI4ofALOCBS\r\nFDjGhxc4+BUGOE4w2Ded6wA4svgKOKqsEjia+ho4T8sIONSjBDh+Zgc4hrL2N34kCzja5Bk4HpUE\r\nONhBBTibnfU3zKS2N6b4AjjStxA45JjUN3kE+TdrMwM4LbgNONHCHDh7ZdI3m4AHOFE3BThnBgI4\r\nGGoHOHX+8zfiquY3rh4GOMiK5zfYJO43KrX4N4LZ7DfAqfQ3ihELOExP3TddtxY4zgr8N5p6ETi0\r\niAY4Ol7rNxEuAjjgVvU3jLEBOMJT5DdCsu837738N2ba/jcmv8s3R/vjNzgDCzivVwE4t3YMOJgn\r\n8jdeSuk3hfL3N0or5Tfqcsg3fX/5N7jE3Dd+puw3WM0COOokBDiGhrk3QNX+Nxbk9jeOswg4lrMJ\r\nOD+TxzdP4903mGLFNwJe5DfUbu83+DvlN8V8+TcQNsY3qHDRN3tm6jfjiOQ3Zj/bN/RmuzcOEwQ4\r\n0HHLN9phwTf4c+k3NoO+N40/nTdf+rQ3bmj5N7JxvzfWd6c3woDuNxeC0jf0udo3FenTN7io2DfQ\r\n6tI3TiPIN3Qt3Tdjd6w3BlXvN5VuATh0RKQ35CLdN/I9zjebKdY3Vrf3N6yU6jeuNtI3pMLaNz5s\r\n7De8R903pEPdN+iQEDj+l803aL/BN9kx5Dcn1e83LI/gN3jctjeYjs43xAm3N9o25DcaUcc3M/DJ\r\nN+6/3Tfua8A3xhHoN62ABjj+nNE3HH3LN6IqtjdQ2qo3sIqxN0tJtjeQ97M3DlmxN6aEyzfoKuU3\r\n9W6vN4rH0Tcs+L83WjHIN8yUzDdAp8E3eW6vN78LpjcYlNg3mCPsNyfAwTfPlsQ3mwbWN11U3TfC\r\n2d03Q1+9N/Cfyze1uc03/qLON1TjzDduqaU3cYPBN6CPrzdi47w31JK5Nx5btjdjku03rU65N9id\r\n8jd2bsk3Y/KbN6bIkTcEdqA3XpDLN95PlTfTtbM38mq5NxCSxTcB6ME3iOmuNxeKtDdC58M3jgKw\r\nN67LmDfS8sk3jc6mN4URnTe1Srw3LgnsN542uTca5Jo3Rii9NwiVvTfpvZg3RCy3N3WwqDerR8k3\r\n3mO4Ny4iuDdqq943LluTNzpoqDfap5A39YaxN5qatDefBLg3x+aZNwmqkjcfuNM3aXi4N9h+sjdN\r\nN5U3oFXVNzQjpzeJxcs3Wy+XN+q6tjeEkso3SkC3N9u3xTfOBNU3u7+0N0sBtzcyvJ83PJ6wN3J6\r\nwzfGX6o3VEC2N+YqqjeH6J43nkuON5hMjDfefrE38w2QN3rnkTfduak3IjqiN9gKpzfHH7A3vqnE\r\nN82RujfBrZM3YAeiN66PpjeM4Ys3PLinNyjnrjfvncM3PLGvN3k2jDeDeIc3sD6uN9fsZDf61tk3\r\nfCesN8zLpDeWsJE3sUXLN5R5ijduSqI3N024N2XUsTc2uak3gb+lN88eoje6iL43MEPTN3dvnzfL\r\niJ83Hl/BN3ZIozcNjaI3ZWihN4yRoze4pJQ3ZFepNyVfjDc0vpE3fSelNzFPrjcQ8s43zXmmN2lC\r\nqjeLAMA32EeGN++ZhTcHqZg3cKamN26dyjecBKc369WCNw7jkzdTY5k3PmOeN6vjmzde3J03zTOa\r\nN/KKxDc+oJ43LV+KN74qqDd5y5g3DICiN7raqzfKMrs37RqeN1q8kjfkjpw3jN6UN9pjmjd+q5Q3\r\njXaYN/NYiDegyuU3LLKMN4SIvjenI4M3MlqMN1mfujcnhrw3JxmYN+mEjDcFyL03cru/N66LsDez\r\na5I3oAOFN36FjDeknLc3qoCEN4/kozfoaXA3g8GmNyQhtjcsHYo3kfCON9fGhzcYP6A3TFmBN2KM\r\npDfI6Kc3YHegN6NVjTfIvoA3SpqkNw8pozceZKI3ITKcNxDwhjcPzag30U6CN/Jjkzc3pqw3UP2x\r\nN5KstjeAr4w3M6WFN+FPiDdS3ZI3UYCON1JghTcoUYk37OmZN+7clzeMwXk3AkCVNxDGfjevGpc3\r\nIueoNywXnDfAd7I3qG2YN92qkjd4EHc3Tm6HN/xagDdtgoI3as6iN//cjzey4p83AbOpN1BPuTfo\r\nPLI3G7qBN39YkjdvsJk3abCcNwWKjzdg0Yk3v32gN0mdjTfk35s3/EiSN68FnzdeQaI3m6uMN8hs\r\nljdoIJM3Hmm+N3UXxTd+y243RhNKN5ZEgzeoRpw3WpOEN1S5qDdKTag3ktZaN1zqhDcIYpo3TJ2d\r\nN0VTjDeu6Zc3LmSZNxbChDfCYLI3PpyiNwLvkzcAp5w3fCuGN7uViTc6n5Y3A2WZN/ovkjfP9Hg3\r\njBaMN6rwtDdwhq83kJeRN8lFlzdcsKE3ETGKNxSqhzdfvZI3GReUN6+DlTdPwZU3NSaXN0cWljcb\r\nomw3bOOaN3+rnjetFbk3YL2YN34urTdKKqs3Yz+nN0vKpDeahYc3UJemNw/1hDej67A3T61+Nxt2\r\nojeQ5pM3LfmJN8imgjd/hY03pHmAN7WGhjdOsI83rAGKN1p5izcrKZw3962TN8E1lDcEgZw3dnlc\r\nN21ZhTcSjKE3D+ilN3vqrzc7Zqk3yu+kNxaWpjffK4E3/IijN6IOoTdH23Y3gj/FNwBijjcp0hQ/\r\nFNGTQObskD8pyYQ/OB9fQOqgOEK7pERBIv/oPyRpI0BKUElAhap6P3qbFkAE9Ls+ccOoPkZvsD4N\r\nBlQ+pxmPPmrf0j63+Bc+AZKlPiltOD+2kLY+O/MNPsOdSj9MpZw/qUBNP1R6pz+4nitAlMJSQKIx\r\nqkDLjLlAQdCOQBbs9EDePOpBDl1aQVuKY0Ddp3M/zU8wQByAID8hYmc/NLgJP9jP5j/eygo/OOi9\r\nPn/rsz9ptU8/ZryvPy+/Fz8+X34+FnjtPgTUVz/aEms+tcemPh9onj64P2w/j+nNPqHcAz85V9s/\r\nU6kMP2yJyz8qKLE/AlsWPwzRwT7o9UQ/GBPhP+YiMT/xAcI+yLgSPyekK0Aof/Y/PNN5PuPztD6k\r\niFk/BCqtPlp2Oz+idnk/aStkPg755T0uZlQ+jkenP6qNgz4JG6Q9VdzqPYtrSj5mMcc9U15HPgsU\r\nuz2eSl89CU6WPUq7fD119Y89iC8LPnPXSD5cO0c+irQVPkRkSD12+mo9sEmzPQv6KT3nW0A994Dm\r\nPUBabT5Fq4g9htu5PTYugj7zWkg+WEe1PmB46D1a9WE9IT5RPGas2DwTQ+88Pg9XPRL01zxrEw49\r\nlhdHPab7Cj3YEgQ+s8QvPZlZPD0isKo8qT7NPM+d2zz8TTc9bM5TPcYCqTy0TMw9fdSRPcl0xDzg\r\nRlg9f+rNPDAirTyapvA8envFPHjtAD3ehEM96M46PefcWTwnhBg9ahbiPb8LMz0oiao9SQqVPY6+\r\nDD1BuwM9Cq/JPUcwcD3AjaI8orUDPTXroD3FozY9AED3PNsXsTzum+88C9ZKPdJakz1UOlk9rE4U\r\nPdhnGj6l6Lo8GhkHPSuUCz3AsUw9m7JuPVZ+tD38WZ09QV+2PqQpCj+cMwY91OxsP073Mz91dwI+\r\nc/8bPTDvRD0bM7o9GH6PPXIiwTy837Q8ipnMPM7R5jxYa+c8cUpbPqSLBz6EZw9Axy4PQCleg0AZ\r\n+qhAmiryQNzpHUFav7xAh59DQO1BE0AsXwZAKHe6PxXbID9Hooc9LsG0PAi/mTziEGU89A02PHfg\r\nJT1Z/YI9ZPQVPaTK5DwwaZw81tdPPHuxsT7UC50/fdzTPpunDT3w2Vk94x+IPPoO3zwaWMo8np7V\r\nPlDxGD8OFDU+FoEEPLSRmz10HhY+67pYPSIyXz3+xw4+yplWP71YEUDRxgdAlKS5P7KS0T71Ho8/\r\nBvwAQMqrEkBeJLw/5PSxPygvGz/PW4U+wSmWPbomuT0AcQg+lhGyP+M/XEDc5I4/bRNQPwhWFD+k\r\nPHM+XrblPtTyzD54Y8E/W5JgQFxRUz+F4YQ/lC/FPubPPT5WwFY++j4KPk9VNj0dv8E8Av6APXEe\r\nqj3C2bg9qo6/PMLiMT4MKog+IEKYPjvtTz1YxKw8LksIPQR8jTzjOBU8b/90PVvoSD1VJn480qXv\r\nO9x3XzyqrQo9OOjzPAU1WDzB35Y8K5TXPKFHWDz1Sgs8zi5ZPWik8Dx7Kxs9onTpOx/xCD2Y32o8\r\nN1QDPFhaLTw0pWw878KDPEAN/zz0rJ08YBuqPUzVrz6NVxg/vvg4P37mUD9nfYk++KACPARSJT5e\r\n3G89qipqPDd17z1ADXo9vxNYPZASEDtO1CM+EjpXPilGiT6o+rc+I34lPwbBLT8ETQU/EgyYPdhl\r\nlz0n46A9AgtrPJJ/NjznSgo+zGCAPYD9pD0RiZQ9KL/7PL2kyD0qPW49ubcpPY08NzxOJIA7VJDu\r\nO52w5jvxbTo7LoPFOsfjtjo/zR47IiVmO4+jNztrEkE6xt9nOrK5cjp3d9Q5CvMSO8BKOzwklv88\r\nYauOPBUERDwCPbw7+/jLOvzM+jrfUJ07lPAXOxTazzoGTaQ6U1fPOWjkGTkhFHM50CO8OE81GTqs\r\npqE5N9heObyPXTqA/Tw66CYJOkqsozl5J8k4XyM3OmisiDlya4g4/P+WOKNnhDh94Ko5WKWcOMy7\r\ntTiUta84JguJOKqlPDlTVH447JZzOAL9hTizdZM42xcEOeBcgzipQZ44vtW6ONJkgzg49Lw4vRx3\r\nOGQnZDj4uXU49niJOFx3eDhgUYs4OBeQOLRqdjhs9ZI4O0ODOIRoeTgMPHY4l7BsOJXnfjh5soU4\r\n3uOEOEKuXTgMU2c4kphWOA1KgDiQX3w4tYJ3OP7+aDiAdnk4AqNeOOJbbzhQHVE4+YpzOJ3/eDi3\r\nDls49jxZOJhpXTjuAG44rmlpOAQgijgBUmM47lNmOOgCXzj0d0U4kAFIOC74ajhxhFs44EdTOBhV\r\nWjhfRDA4CnpeOLyETTgyQk44BeFjODQAdjhJ9z04xIpRON0NXDgacmE4kHFFOGgVTDgNty84ZNFf\r\nOOQAKzjusUo4cMA6OGDSUzg1wz04CJU0OLIvUjg8wy04yIZOOO8YMDjfLi84LhVEOASYYTjYOj44\r\nlMU4OJBONjjIRD04tkM8ODIrRzg95iY4NuQ0ON6uQziSEiE4U+RJOESbRDhpiyw4Fho+OFLaODgQ\r\n6jA4h84xON+FLzjD2Bg44yQ0OGPcJDg93Ss4DJ8mOKIaLTjmrRg44vQtONFtLzhQAC84NEgUOHh2\r\nNDgq5Cg4m4gtOMICODiZxSw4bDUnOJsaBDjGhz84VKkWOB6tJTi2fCY4v6MRODLCKjg+IBI4XfIn\r\nOOyfHji+iys4ljIYOEraFDiptRA41cAcOC1CIjhKvyg4tC0TOA7fCzilIRA4oDMjOACQHTg48/83\r\nPL0bOG88DTgxayI4/vQdOMQgMTiGRTU4bwETOFimEjjjPAQ4ViwUOH4mCzjy+As4IJAROMYhGTiY\r\n3SE4oTnsN7WbEzjMVBo4DsECOPI5DDhAByA48gT3NyrF+jfWbAs4CpwtONmmEjjVew441ukQONTQ\r\nEjiVLhg4ATX8N0a8CThzKAY4DHMHOE6K+zcMBvo3CmkCOHVRCzi7v/g3qTQBOA5wJDin5w441XwA\r\nOHgD9Ddu5cU3KJkMOBTNDjgQcuc3DBDtN1oZ/Te/XAo4NzgPOAB1yzdKkA84PtD5NzLM8DdWuws4\r\npDb5N6By3jdBLw04vBruN5668zep4eU3uDz0N6jCAzgDNgc4nqHKNyjgEDh/ifg3Zy8bOHpPBDgL\r\nu/432lMIOJjz4jeOkuw3G8zjN+9QADg2f+w3xMz3N/Pa9TeQn+A3dTkJODgs+De0MwE4wI34N5W4\r\n+jcyvds3ZGHBN8uSzjd/Zvc34NvMN7jfAjh4DPE3z5/9NyYn1jcqLOc3obLmN7BHAjiyu/03XI7k\r\nN2/+2Dd2/rY3DlT0N5GiCDjGDc83Sp3wN1LP7Def6ro3LoHvNxg57DfQx9I3atreN+C98TfRsaw3\r\nqx7AN2ec7jdRPsw30za/N224yTflF9k3lLylN1dSpTdA2e833UjRNzRb9Dd2f8w3cqTYNyRq9Dcj\r\n7N43CDHjN200qDf82NY3zmniN+OItDeYv+03kUm+Nz517jdWH+s3kDfbNywm+jd2PPU3ynzQN5ng\r\n3TeY9tY3vX4LOGaa7DdYqsI33rvDN3WJ4TfeBd83xkC4N3DazjezK803mHLZN/Q+3DezEc03qJXE\r\nN+Z50TejAPw3+Vn2N1raxzeixtA3vEC5N9zCtDfe1es3Yz3ON9RLsjcIQas3EJu0N2rC4Tfbr7I3\r\n7nnBN30wxjfCjr439XrENz6CszeIisA3gTHSN0xA0zdnE8o37AHBN+OuzjdC38I3Dp7MNzHz2TcQ\r\ntqs3Q5zYN2QX0DeiZ8o3W3rdN/tMojccRLw3TTbDN8AvtTe8wZ43niqyN4Y19DdOIJs3kOrKNzyT\r\n0TcZzao3Q0+sN5lTqDfLL8E3qfKfNwpgpzfqpbI3y6GrN26lsDfT/cE3YyumNycR0DcEy6c3VP6F\r\nN52jzzfG+q037k+fNxTHrzdBZOk3TB/mN9hxujf4ebM38HHDN2TKoTdBr603rVekN3J/vDdCZME3\r\ngamgN//dzDduyoc38eyZN3ZiljcqJ7c3rG/CN1iFxDck6po3CrerNwabxjfQB5s39BWwN1z1mjfI\r\n7Mw3SqemN2hHtTdVo5w3TmyvN5zZxzd4r9Y3exfRN6OOzjdN+7Q3/HnBN/OisTcnK6w3qHrTN2Qs\r\npDfkrLA348zAN2neljcEs3c3kMCdN8NIozducow3bpuoNzVbuzef46034t6hN9BypjcUzr43JNa8\r\nN3PfoTfLgJI3b2yuN1y1pzf/4aQ3ABazN1Rivzc+oKA3dUCjN4/ikDfbW7Q3Q59mN+TQzjdvSaQ3\r\nACCgN7dzjzdhNLc3W9aMN9dAsjdlK703+N+zN3s9qTeu3qM3oMOUN7tSoje8sr03ZSeuN83WpTcW\r\njro3DrG3NxMxmDe6N643NXCnNwHcfzcEgbY34fKjNzAtljdMk6M3cZqcN5L3yjesWbM3ZkahN/2L\r\nrjfc+4Q32PWCN3MNqTdU0as3ymPON1NUmzcKmpU3JpqkN/ZWkTejN5c3CJuAN7pKhjef8KU33+rD\r\nN+jWmzcT/4U3MB6VN8x9gzdR37g3+c6rN1IAvzer/KA3hEWVN5mkmzc6mJk3/1CiN+2iiTekCqE3\r\nZwGGNxAdvjf9ApI3MSywN4ezgTc5gI83LXujNwX0tjfU/qU3S1OJN8UOtzdZM8s30xXCN/e7iTc8\r\n3oQ3/uiVNx+AvjdRqnI37KmfN5HkijceHq83M2W9N2SqiDd0TXU3GPGcN12pnzdePn03MIe/N+4R\r\nnjeO9JU3qWaaN93WjDdNaK03PGC5N24uojfwInk3dUKdN2XnvDcFUFE3iKWcNwlYlDeEyYo3NTzL\r\nNwPIlDfjh5s3JFyCN+jBhjdKUqc3evmNN39omzepdI43wOOPNzc7fTd8bJU3m/eNN7brnjc0nKo3\r\niWWTNzE5pDfxzZM354mQN9kuiTckm5M3DO+SN5Ywhzf/Taw3EDyMN/1SlzeLX4039FuqN+wXyDez\r\nMIs3yxGXNzkbnzcmiaA331afN8QjgjeGoJs3UhqRNwFWpje4KYo3SiWmN8gJpDfj14Q3EEqSN7RC\r\nrTcV1bs3G/2VN6AjfDcSZno30EiDN373nDf5Voc3NXaIN4z7lzf4zn83qSJ2N/xooDegvJw3GIh8\r\nNybqojd1upw383V3N9aTpDcudYk35UOANwJLnDelzZw3xDyMN8fGmDeO4503XCOYN0XXjDfL7JM3\r\naFKqN7BFnjfP1I03vkunN0mamjfQxI43pW6XN0xRiDfFSIA32QqGN+OZmDdHa5c3iLyVN+MWeTdl\r\nZpA32jShNwnoxTeMNZo3syG4NyX6rDcptaU3WUKkN5HyhzchPZw36WlzN563ozednmg3C1WiN3Rt\r\nqjd7dnk3Y8KSN2Norjdpx183iXJ9N1gekTflSYg3GiOfN5FSjzcRcnY3zc2PNxwvtTcmlE03VQqD\r\nNzRAoDedGJk3JHm1NzpNwjefHKc3FQugNxIRijfb9KY3l0GeN34LSTdtSMU3ACC+Nw==",
                            "noiseTrainingType" : "default"
                          }
                        }
                    ],
                    "start" : 0,
                    "duration" : 35,
                    "mediaStart" : 94,
                    "mediaDuration" : 35,
                    "scalar" : 1,
                    "metadata" : {
                      "WinSubProjectDisplayName" : "",
                      "clipSpeedAttribute" : false
                    },
                    "animationTracks" : {

                    }
                  },
                  {
                    "id" : 8,
                    "_type" : "AMFile",
                    "src" : 3,
                    "trackNumber" : 1,
                    "attributes" : {
                      "ident" : "tower-arch-02",
                      "sampleRate" : 44100,
                      "bitDepth" : 16,
                      "gain" : 1.0,
                      "mixToMono" : false
                    },
                      "channelNumber" : "0,1",
                    "effects" : [
                        {
                          "effectName" : "NoiseReduction",
                          "category" : "categoryAudioEffects",
                          "parameters" : {
                            "denoiserAmount" : 20.0,
                            "denoiserThreshold" : 0.0,
                            "noiseProfile" : "KdIUP/nTk0DO7ZA/KcmEP4EkX0BgoThCu6REQSL/6D+wZSNAXD1JQGOiej96mxZABPS7PnHDqD5G\r\nb7A+DQZUPqcZjz5qwNI+eJAXPgGSpT4pbTg/tpC2PvqeDT7DnUo/TKWcP6lATT9Ueqc/uJ4rQNfE\r\nUkCiMapAy4y5QJfHjkCc8PRAHTnqQclfWkFbimNAs4JzP81PMEAUaSA/IWJnPzS4CT/Yz+Y/3soK\r\nPzjovT5/67M/abVPP2a8rz8vvxc/Pl9+PhZ47T4E1Fc/rjhrPrXHpj4faJ4+uD9sP7/czT7HzAM/\r\nMlnbP1OpDD/ekMs/ch6xPwJbFj/Kz8E+0P9EP7Aa4T/mIjE/yh3CPsi4Ej8npCtA0H72P1DneT7j\r\n87Q+LphZPwQqrT5adjs/onZ5P2krZD4O+eU9mmdUPo5Hpz+qjYM+1iakPVXc6j2La0o+ZjHHPVNe\r\nRz4LFLs95SBfPex2lj1Ku3w95NWPPYgvCz4Iz0g+HSpHPnOtFT6WAEg9DplqPbBJsz2vMyo92RZA\r\nPV6f5j2qkW0+NAyJPaOMuj3TDoI+ulZIPnghtT5geOg9WvVhPSE+UTwoKdk8E0PvPD4PVz0S9Nc8\r\naxMOPZYXRz2m+wo92jQEPi4eMD2ZWTw9IrCqPKk+zTzPnds8/+I2PWCmVD3ck6g8tEzMPcq5kT3J\r\ndMQ84EZYPX/qzTwwIq08mqbwPGXWxTx47QA93oRDPejOOj3n3Fk8J4QYPWoW4j1CBDM9yKCqPUkK\r\nlT2Ovgw9QbsDPQqvyT1HMHA94/KhPKK1Az0166A9xaM2PVev9zzbF7E8NNPwPAvWSj3SWpM9VDpZ\r\nPaxOFD3YZxo+bDq7PBoZBz0rlAs9wLFMPZuybj2PQ7Q9m1GdPXhwtj4yMgo/LEMGPX7kbD+GxjM/\r\nfjUCPo3qGz0w70Q9rti5PQRGjz1HosA882m1PDMLzTzO0eY8ZZvnPNNOWz4djQc+WGIPQN4nD0BG\r\nYoNAAv2oQCs08kDq7B1Bbce8QC6dQ0DoPRNA+1gGQEJruj/2BiE/BfCHPc0QtTz225g84hBlPBCS\r\nNTz08CU9Wf2CPXzHFT0gXOQ8FpycPNbXTzxrq7E+PficP63X0z6bpw098NlZPUJCiDz6Dt88T13K\r\nPO171T7J3Bg/zB41PnN6AzywSJs9dUoWPkoGWT2LYF89lNMOPoKFVj8PURFA7r8HQEuNuT8Cn9E+\r\nQSGPP8ntAEBZqRJAdiu8P7LpsT+aKBs/GmeFPjsSlj23Jbk9+scIPtQZsj96U1xAV+qOP4ExUD+O\r\ncRQ/thlzPkWv5T7yOc0+qm/BPwiWYEBSRlM/2dKEP6AhxT7apT0+FMlWPuQTCj4G8jU9rkPBPCUf\r\ngT2rH6o97dG4PX7avjyy2DE+CQWIPrwlmD5cwE89GmWtPMPcCD0EfI084zgVPG//dD1b6Eg9HQ5+\r\nPNKl7zthel88qq0KPYuV9DyCy1c8wd+WPCuU1zzDWlg8qPoKPCxGWT1opPA8eysbPXw26Tsf8Qg9\r\ngmZqPDdUAzxYWi08NKVsPO/CgzxADf889KydPELaqT3Qva8+jEIYP/PYOD8ezFA/CUKJPvigAjxY\r\niSU+rmZvPYUcajwgcO89G6p5PXMeWD2QEhA7+MAjPgpIVz5GTok+lOK3PqlpJT+Xwi0/hGgFP8LH\r\nlz2YeJc9pS2hPakrazw0vDY8628KPl2dgD3FcqQ9TK+UPXXQ+zy8R8g9cqttPed3KT1KWDg86CF/\r\nOzIF8DtsgOc7S705Oy6DxTrH47Y6E6ofO4C1ZzvHAzc7axJBOsbfZzqyuXI6d3fUOVrKEjsfXjs8\r\n0jb/PGXCjjy180M8Ke69O6qizzqQOvs6YPedO5M8FztCetA6q6WlOt0jwznJ0RM5bfR1Oa8PxjjQ\r\nVxc6D4GmOQikUjlY6Fk6wuA7OjSWCDoYD6Q5gjSsOJaVODrEZYk56Jh4OHFqpjjbmoI4q0upOdY3\r\nmzix6a048tqvOKAqmzi2Ujo55kN1OCvchzgOnY84k6SMOBYf/jj7/nQ4Wd1yOE5Lyjhz9JY4vcC6\r\nOICpiThkmWM4985lOA6AjDgRdWw4LgKIOHXgjDiC/XQ4eseQOKWajTjKrYI4T7hjOF4SbjhqJoE4\r\nBhh8OI6PiDgwTVc4Bg5sODnmYDjqAoA4XuhtOKhkezhim2A4yj9yOK7PZjhGG2043p9aODBtgDgy\r\nCmk40P1rOJHRaDgca1I4/NdgODWXXDjIYX84wr9kOC5zajgcO1w45dU4OEovRjjzKWM4RJxrOJay\r\nYziUUks43vlFOFaKYzhymUk4cHpfONvWQDgeIHA4qC1BOP6eRzjG/FU4cvBaON+aRTjy/kw49i47\r\nOK+yWzjubiY4jalPOETCODiwjFw4AkpKOG4iNziO/0k4Dj0eOF7BPTi8bTE4dpg4OAwpUDig4nQ4\r\nSpZBOL1nPzht6Dk4j7tPOMO6STiiukU4CRgjOINPMTj6vEY4r10jOBA3RDiy1Ds4wCUlONITPDgg\r\nYjg4Ob1IOIZ3STiAtzk40KULOPRCKzjUHyE4BxUtODBcHjhiNic4xrwbOLp2KTiQbSY4nzYxOOeY\r\nHDjfSEI4/f4eONYLLji2Bj44aOcpOMQzKziVvg04SaBAODNcFjhWKRk4eREqOHD/EjhuQyU4ADwN\r\nONgkMDjF5So412InOJipCji3PBU4SPgPODJBGjh5mho4tNAmOAYDGjhdsRw49/4VOBwTJTgAfQ04\r\ncj0BOCHbLjglHQg4RHkfOCikHTi0Dik4ZTIsOGLzEDh+XRk4vK//N7OzHTi2gxA49B4JOAfTDzg6\r\nyQ84qEEPOIy72TdkXgw4Y3sUOFWZBjh8fgU4zRUnOC3/CzjnLf03HFsBOLf+HDhTCRI4ofALOCBS\r\nFDjGhxc4+BUGOE4w2Ded6wA4svgKOKqsEjia+ho4T8sIONSjBDh+Zgc4hrL2N34kCzja5Bk4HpUE\r\nONhBBTibnfU3zKS2N6b4AjjStxA45JjUN3kE+TdrMwM4LbgNONHCHDh7ZdI3m4AHOFE3BThnBgI4\r\nGGoHOHX+8zfiquY3rh4GOMiK5zfYJO43KrX4N4LZ7DfAqfQ3ihELOExP3TddtxY4zgr8N5p6ETi0\r\niAY4Ol7rNxEuAjjgVvU3jLEBOMJT5DdCsu837738N2ba/jcmv8s3R/vjNzgDCzivVwE4t3YMOJgn\r\n8jdeSuk3hfL3N0or5Tfqcsg3fX/5N7jE3Dd+puw3WM0COOokBDiGhrk3QNX+Nxbk9jeOswg4lrMJ\r\nOD+TxzdP4903mGLFNwJe5DfUbu83+DvlN8V8+TcQNsY3qHDRN3tm6jfjiOQ3Zj/bN/RmuzcOEwQ4\r\n0HHLN9phwTf4c+k3NoO+N40/nTdf+rQ3bmj5N7JxvzfWd6c3woDuNxeC0jf0udo3FenTN7io2DfQ\r\n6tI3TiPIN3Qt3Tdjd6w3BlXvN5VuATh0RKQ35CLdN/I9zjebKdY3Vrf3N6yU6jeuNtI3pMLaNz5s\r\n7De8R903pEPdN+iQEDj+l803aL/BN9kx5Dcn1e83LI/gN3jctjeYjs43xAm3N9o25DcaUcc3M/DJ\r\nN+6/3Tfua8A3xhHoN62ABjj+nNE3HH3LN6IqtjdQ2qo3sIqxN0tJtjeQ97M3DlmxN6aEyzfoKuU3\r\n9W6vN4rH0Tcs+L83WjHIN8yUzDdAp8E3eW6vN78LpjcYlNg3mCPsNyfAwTfPlsQ3mwbWN11U3TfC\r\n2d03Q1+9N/Cfyze1uc03/qLON1TjzDduqaU3cYPBN6CPrzdi47w31JK5Nx5btjdjku03rU65N9id\r\n8jd2bsk3Y/KbN6bIkTcEdqA3XpDLN95PlTfTtbM38mq5NxCSxTcB6ME3iOmuNxeKtDdC58M3jgKw\r\nN67LmDfS8sk3jc6mN4URnTe1Srw3LgnsN542uTca5Jo3Rii9NwiVvTfpvZg3RCy3N3WwqDerR8k3\r\n3mO4Ny4iuDdqq943LluTNzpoqDfap5A39YaxN5qatDefBLg3x+aZNwmqkjcfuNM3aXi4N9h+sjdN\r\nN5U3oFXVNzQjpzeJxcs3Wy+XN+q6tjeEkso3SkC3N9u3xTfOBNU3u7+0N0sBtzcyvJ83PJ6wN3J6\r\nwzfGX6o3VEC2N+YqqjeH6J43nkuON5hMjDfefrE38w2QN3rnkTfduak3IjqiN9gKpzfHH7A3vqnE\r\nN82RujfBrZM3YAeiN66PpjeM4Ys3PLinNyjnrjfvncM3PLGvN3k2jDeDeIc3sD6uN9fsZDf61tk3\r\nfCesN8zLpDeWsJE3sUXLN5R5ijduSqI3N024N2XUsTc2uak3gb+lN88eoje6iL43MEPTN3dvnzfL\r\niJ83Hl/BN3ZIozcNjaI3ZWihN4yRoze4pJQ3ZFepNyVfjDc0vpE3fSelNzFPrjcQ8s43zXmmN2lC\r\nqjeLAMA32EeGN++ZhTcHqZg3cKamN26dyjecBKc369WCNw7jkzdTY5k3PmOeN6vjmzde3J03zTOa\r\nN/KKxDc+oJ43LV+KN74qqDd5y5g3DICiN7raqzfKMrs37RqeN1q8kjfkjpw3jN6UN9pjmjd+q5Q3\r\njXaYN/NYiDegyuU3LLKMN4SIvjenI4M3MlqMN1mfujcnhrw3JxmYN+mEjDcFyL03cru/N66LsDez\r\na5I3oAOFN36FjDeknLc3qoCEN4/kozfoaXA3g8GmNyQhtjcsHYo3kfCON9fGhzcYP6A3TFmBN2KM\r\npDfI6Kc3YHegN6NVjTfIvoA3SpqkNw8pozceZKI3ITKcNxDwhjcPzag30U6CN/Jjkzc3pqw3UP2x\r\nN5KstjeAr4w3M6WFN+FPiDdS3ZI3UYCON1JghTcoUYk37OmZN+7clzeMwXk3AkCVNxDGfjevGpc3\r\nIueoNywXnDfAd7I3qG2YN92qkjd4EHc3Tm6HN/xagDdtgoI3as6iN//cjzey4p83AbOpN1BPuTfo\r\nPLI3G7qBN39YkjdvsJk3abCcNwWKjzdg0Yk3v32gN0mdjTfk35s3/EiSN68FnzdeQaI3m6uMN8hs\r\nljdoIJM3Hmm+N3UXxTd+y243RhNKN5ZEgzeoRpw3WpOEN1S5qDdKTag3ktZaN1zqhDcIYpo3TJ2d\r\nN0VTjDeu6Zc3LmSZNxbChDfCYLI3PpyiNwLvkzcAp5w3fCuGN7uViTc6n5Y3A2WZN/ovkjfP9Hg3\r\njBaMN6rwtDdwhq83kJeRN8lFlzdcsKE3ETGKNxSqhzdfvZI3GReUN6+DlTdPwZU3NSaXN0cWljcb\r\nomw3bOOaN3+rnjetFbk3YL2YN34urTdKKqs3Yz+nN0vKpDeahYc3UJemNw/1hDej67A3T61+Nxt2\r\nojeQ5pM3LfmJN8imgjd/hY03pHmAN7WGhjdOsI83rAGKN1p5izcrKZw3962TN8E1lDcEgZw3dnlc\r\nN21ZhTcSjKE3D+ilN3vqrzc7Zqk3yu+kNxaWpjffK4E3/IijN6IOoTdH23Y3gj/FNwBijjcp0hQ/\r\nFNGTQObskD8pyYQ/OB9fQOqgOEK7pERBIv/oPyRpI0BKUElAhap6P3qbFkAE9Ls+ccOoPkZvsD4N\r\nBlQ+pxmPPmrf0j63+Bc+AZKlPiltOD+2kLY+O/MNPsOdSj9MpZw/qUBNP1R6pz+4nitAlMJSQKIx\r\nqkDLjLlAQdCOQBbs9EDePOpBDl1aQVuKY0Ddp3M/zU8wQByAID8hYmc/NLgJP9jP5j/eygo/OOi9\r\nPn/rsz9ptU8/ZryvPy+/Fz8+X34+FnjtPgTUVz/aEms+tcemPh9onj64P2w/j+nNPqHcAz85V9s/\r\nU6kMP2yJyz8qKLE/AlsWPwzRwT7o9UQ/GBPhP+YiMT/xAcI+yLgSPyekK0Aof/Y/PNN5PuPztD6k\r\niFk/BCqtPlp2Oz+idnk/aStkPg755T0uZlQ+jkenP6qNgz4JG6Q9VdzqPYtrSj5mMcc9U15HPgsU\r\nuz2eSl89CU6WPUq7fD119Y89iC8LPnPXSD5cO0c+irQVPkRkSD12+mo9sEmzPQv6KT3nW0A994Dm\r\nPUBabT5Fq4g9htu5PTYugj7zWkg+WEe1PmB46D1a9WE9IT5RPGas2DwTQ+88Pg9XPRL01zxrEw49\r\nlhdHPab7Cj3YEgQ+s8QvPZlZPD0isKo8qT7NPM+d2zz8TTc9bM5TPcYCqTy0TMw9fdSRPcl0xDzg\r\nRlg9f+rNPDAirTyapvA8envFPHjtAD3ehEM96M46PefcWTwnhBg9ahbiPb8LMz0oiao9SQqVPY6+\r\nDD1BuwM9Cq/JPUcwcD3AjaI8orUDPTXroD3FozY9AED3PNsXsTzum+88C9ZKPdJakz1UOlk9rE4U\r\nPdhnGj6l6Lo8GhkHPSuUCz3AsUw9m7JuPVZ+tD38WZ09QV+2PqQpCj+cMwY91OxsP073Mz91dwI+\r\nc/8bPTDvRD0bM7o9GH6PPXIiwTy837Q8ipnMPM7R5jxYa+c8cUpbPqSLBz6EZw9Axy4PQCleg0AZ\r\n+qhAmiryQNzpHUFav7xAh59DQO1BE0AsXwZAKHe6PxXbID9Hooc9LsG0PAi/mTziEGU89A02PHfg\r\nJT1Z/YI9ZPQVPaTK5DwwaZw81tdPPHuxsT7UC50/fdzTPpunDT3w2Vk94x+IPPoO3zwaWMo8np7V\r\nPlDxGD8OFDU+FoEEPLSRmz10HhY+67pYPSIyXz3+xw4+yplWP71YEUDRxgdAlKS5P7KS0T71Ho8/\r\nBvwAQMqrEkBeJLw/5PSxPygvGz/PW4U+wSmWPbomuT0AcQg+lhGyP+M/XEDc5I4/bRNQPwhWFD+k\r\nPHM+XrblPtTyzD54Y8E/W5JgQFxRUz+F4YQ/lC/FPubPPT5WwFY++j4KPk9VNj0dv8E8Av6APXEe\r\nqj3C2bg9qo6/PMLiMT4MKog+IEKYPjvtTz1YxKw8LksIPQR8jTzjOBU8b/90PVvoSD1VJn480qXv\r\nO9x3XzyqrQo9OOjzPAU1WDzB35Y8K5TXPKFHWDz1Sgs8zi5ZPWik8Dx7Kxs9onTpOx/xCD2Y32o8\r\nN1QDPFhaLTw0pWw878KDPEAN/zz0rJ08YBuqPUzVrz6NVxg/vvg4P37mUD9nfYk++KACPARSJT5e\r\n3G89qipqPDd17z1ADXo9vxNYPZASEDtO1CM+EjpXPilGiT6o+rc+I34lPwbBLT8ETQU/EgyYPdhl\r\nlz0n46A9AgtrPJJ/NjznSgo+zGCAPYD9pD0RiZQ9KL/7PL2kyD0qPW49ubcpPY08NzxOJIA7VJDu\r\nO52w5jvxbTo7LoPFOsfjtjo/zR47IiVmO4+jNztrEkE6xt9nOrK5cjp3d9Q5CvMSO8BKOzwklv88\r\nYauOPBUERDwCPbw7+/jLOvzM+jrfUJ07lPAXOxTazzoGTaQ6U1fPOWjkGTkhFHM50CO8OE81GTqs\r\npqE5N9heObyPXTqA/Tw66CYJOkqsozl5J8k4XyM3OmisiDlya4g4/P+WOKNnhDh94Ko5WKWcOMy7\r\ntTiUta84JguJOKqlPDlTVH447JZzOAL9hTizdZM42xcEOeBcgzipQZ44vtW6ONJkgzg49Lw4vRx3\r\nOGQnZDj4uXU49niJOFx3eDhgUYs4OBeQOLRqdjhs9ZI4O0ODOIRoeTgMPHY4l7BsOJXnfjh5soU4\r\n3uOEOEKuXTgMU2c4kphWOA1KgDiQX3w4tYJ3OP7+aDiAdnk4AqNeOOJbbzhQHVE4+YpzOJ3/eDi3\r\nDls49jxZOJhpXTjuAG44rmlpOAQgijgBUmM47lNmOOgCXzj0d0U4kAFIOC74ajhxhFs44EdTOBhV\r\nWjhfRDA4CnpeOLyETTgyQk44BeFjODQAdjhJ9z04xIpRON0NXDgacmE4kHFFOGgVTDgNty84ZNFf\r\nOOQAKzjusUo4cMA6OGDSUzg1wz04CJU0OLIvUjg8wy04yIZOOO8YMDjfLi84LhVEOASYYTjYOj44\r\nlMU4OJBONjjIRD04tkM8ODIrRzg95iY4NuQ0ON6uQziSEiE4U+RJOESbRDhpiyw4Fho+OFLaODgQ\r\n6jA4h84xON+FLzjD2Bg44yQ0OGPcJDg93Ss4DJ8mOKIaLTjmrRg44vQtONFtLzhQAC84NEgUOHh2\r\nNDgq5Cg4m4gtOMICODiZxSw4bDUnOJsaBDjGhz84VKkWOB6tJTi2fCY4v6MRODLCKjg+IBI4XfIn\r\nOOyfHji+iys4ljIYOEraFDiptRA41cAcOC1CIjhKvyg4tC0TOA7fCzilIRA4oDMjOACQHTg48/83\r\nPL0bOG88DTgxayI4/vQdOMQgMTiGRTU4bwETOFimEjjjPAQ4ViwUOH4mCzjy+As4IJAROMYhGTiY\r\n3SE4oTnsN7WbEzjMVBo4DsECOPI5DDhAByA48gT3NyrF+jfWbAs4CpwtONmmEjjVew441ukQONTQ\r\nEjiVLhg4ATX8N0a8CThzKAY4DHMHOE6K+zcMBvo3CmkCOHVRCzi7v/g3qTQBOA5wJDin5w441XwA\r\nOHgD9Ddu5cU3KJkMOBTNDjgQcuc3DBDtN1oZ/Te/XAo4NzgPOAB1yzdKkA84PtD5NzLM8DdWuws4\r\npDb5N6By3jdBLw04vBruN5668zep4eU3uDz0N6jCAzgDNgc4nqHKNyjgEDh/ifg3Zy8bOHpPBDgL\r\nu/432lMIOJjz4jeOkuw3G8zjN+9QADg2f+w3xMz3N/Pa9TeQn+A3dTkJODgs+De0MwE4wI34N5W4\r\n+jcyvds3ZGHBN8uSzjd/Zvc34NvMN7jfAjh4DPE3z5/9NyYn1jcqLOc3obLmN7BHAjiyu/03XI7k\r\nN2/+2Dd2/rY3DlT0N5GiCDjGDc83Sp3wN1LP7Def6ro3LoHvNxg57DfQx9I3atreN+C98TfRsaw3\r\nqx7AN2ec7jdRPsw30za/N224yTflF9k3lLylN1dSpTdA2e833UjRNzRb9Dd2f8w3cqTYNyRq9Dcj\r\n7N43CDHjN200qDf82NY3zmniN+OItDeYv+03kUm+Nz517jdWH+s3kDfbNywm+jd2PPU3ynzQN5ng\r\n3TeY9tY3vX4LOGaa7DdYqsI33rvDN3WJ4TfeBd83xkC4N3DazjezK803mHLZN/Q+3DezEc03qJXE\r\nN+Z50TejAPw3+Vn2N1raxzeixtA3vEC5N9zCtDfe1es3Yz3ON9RLsjcIQas3EJu0N2rC4Tfbr7I3\r\n7nnBN30wxjfCjr439XrENz6CszeIisA3gTHSN0xA0zdnE8o37AHBN+OuzjdC38I3Dp7MNzHz2TcQ\r\ntqs3Q5zYN2QX0DeiZ8o3W3rdN/tMojccRLw3TTbDN8AvtTe8wZ43niqyN4Y19DdOIJs3kOrKNzyT\r\n0TcZzao3Q0+sN5lTqDfLL8E3qfKfNwpgpzfqpbI3y6GrN26lsDfT/cE3YyumNycR0DcEy6c3VP6F\r\nN52jzzfG+q037k+fNxTHrzdBZOk3TB/mN9hxujf4ebM38HHDN2TKoTdBr603rVekN3J/vDdCZME3\r\ngamgN//dzDduyoc38eyZN3ZiljcqJ7c3rG/CN1iFxDck6po3CrerNwabxjfQB5s39BWwN1z1mjfI\r\n7Mw3SqemN2hHtTdVo5w3TmyvN5zZxzd4r9Y3exfRN6OOzjdN+7Q3/HnBN/OisTcnK6w3qHrTN2Qs\r\npDfkrLA348zAN2neljcEs3c3kMCdN8NIozducow3bpuoNzVbuzef46034t6hN9BypjcUzr43JNa8\r\nN3PfoTfLgJI3b2yuN1y1pzf/4aQ3ABazN1Rivzc+oKA3dUCjN4/ikDfbW7Q3Q59mN+TQzjdvSaQ3\r\nACCgN7dzjzdhNLc3W9aMN9dAsjdlK703+N+zN3s9qTeu3qM3oMOUN7tSoje8sr03ZSeuN83WpTcW\r\njro3DrG3NxMxmDe6N643NXCnNwHcfzcEgbY34fKjNzAtljdMk6M3cZqcN5L3yjesWbM3ZkahN/2L\r\nrjfc+4Q32PWCN3MNqTdU0as3ymPON1NUmzcKmpU3JpqkN/ZWkTejN5c3CJuAN7pKhjef8KU33+rD\r\nN+jWmzcT/4U3MB6VN8x9gzdR37g3+c6rN1IAvzer/KA3hEWVN5mkmzc6mJk3/1CiN+2iiTekCqE3\r\nZwGGNxAdvjf9ApI3MSywN4ezgTc5gI83LXujNwX0tjfU/qU3S1OJN8UOtzdZM8s30xXCN/e7iTc8\r\n3oQ3/uiVNx+AvjdRqnI37KmfN5HkijceHq83M2W9N2SqiDd0TXU3GPGcN12pnzdePn03MIe/N+4R\r\nnjeO9JU3qWaaN93WjDdNaK03PGC5N24uojfwInk3dUKdN2XnvDcFUFE3iKWcNwlYlDeEyYo3NTzL\r\nNwPIlDfjh5s3JFyCN+jBhjdKUqc3evmNN39omzepdI43wOOPNzc7fTd8bJU3m/eNN7brnjc0nKo3\r\niWWTNzE5pDfxzZM354mQN9kuiTckm5M3DO+SN5Ywhzf/Taw3EDyMN/1SlzeLX4039FuqN+wXyDez\r\nMIs3yxGXNzkbnzcmiaA331afN8QjgjeGoJs3UhqRNwFWpje4KYo3SiWmN8gJpDfj14Q3EEqSN7RC\r\nrTcV1bs3G/2VN6AjfDcSZno30EiDN373nDf5Voc3NXaIN4z7lzf4zn83qSJ2N/xooDegvJw3GIh8\r\nNybqojd1upw383V3N9aTpDcudYk35UOANwJLnDelzZw3xDyMN8fGmDeO4503XCOYN0XXjDfL7JM3\r\naFKqN7BFnjfP1I03vkunN0mamjfQxI43pW6XN0xRiDfFSIA32QqGN+OZmDdHa5c3iLyVN+MWeTdl\r\nZpA32jShNwnoxTeMNZo3syG4NyX6rDcptaU3WUKkN5HyhzchPZw36WlzN563ozednmg3C1WiN3Rt\r\nqjd7dnk3Y8KSN2Norjdpx183iXJ9N1gekTflSYg3GiOfN5FSjzcRcnY3zc2PNxwvtTcmlE03VQqD\r\nNzRAoDedGJk3JHm1NzpNwjefHKc3FQugNxIRijfb9KY3l0GeN34LSTdtSMU3ACC+Nw==",
                            "noiseTrainingType" : "default"
                          }
                        }
                    ],
                    "start" : 35,
                    "duration" : 399,
                    "mediaStart" : 129,
                    "mediaDuration" : 399,
                    "scalar" : 1,
                    "metadata" : {
                      "WinSubProjectDisplayName" : "",
                      "clipSpeedAttribute" : false
                    },
                    "animationTracks" : {

                    }
                  },
                  {
                    "id" : 9,
                    "_type" : "AMFile",
                    "src" : 3,
                    "trackNumber" : 1,
                    "attributes" : {
                      "ident" : "tower-arch-02",
                      "sampleRate" : 44100,
                      "bitDepth" : 16,
                      "gain" : 1.0,
                      "mixToMono" : false
                    },
                      "channelNumber" : "0,1",
                    "effects" : [
                        {
                          "effectName" : "NoiseReduction",
                          "category" : "categoryAudioEffects",
                          "parameters" : {
                            "denoiserAmount" : 20.0,
                            "denoiserThreshold" : 0.0,
                            "noiseProfile" : "KdIUP/nTk0DO7ZA/KcmEP4EkX0BgoThCu6REQSL/6D+wZSNAXD1JQGOiej96mxZABPS7PnHDqD5G\r\nb7A+DQZUPqcZjz5qwNI+eJAXPgGSpT4pbTg/tpC2PvqeDT7DnUo/TKWcP6lATT9Ueqc/uJ4rQNfE\r\nUkCiMapAy4y5QJfHjkCc8PRAHTnqQclfWkFbimNAs4JzP81PMEAUaSA/IWJnPzS4CT/Yz+Y/3soK\r\nPzjovT5/67M/abVPP2a8rz8vvxc/Pl9+PhZ47T4E1Fc/rjhrPrXHpj4faJ4+uD9sP7/czT7HzAM/\r\nMlnbP1OpDD/ekMs/ch6xPwJbFj/Kz8E+0P9EP7Aa4T/mIjE/yh3CPsi4Ej8npCtA0H72P1DneT7j\r\n87Q+LphZPwQqrT5adjs/onZ5P2krZD4O+eU9mmdUPo5Hpz+qjYM+1iakPVXc6j2La0o+ZjHHPVNe\r\nRz4LFLs95SBfPex2lj1Ku3w95NWPPYgvCz4Iz0g+HSpHPnOtFT6WAEg9DplqPbBJsz2vMyo92RZA\r\nPV6f5j2qkW0+NAyJPaOMuj3TDoI+ulZIPnghtT5geOg9WvVhPSE+UTwoKdk8E0PvPD4PVz0S9Nc8\r\naxMOPZYXRz2m+wo92jQEPi4eMD2ZWTw9IrCqPKk+zTzPnds8/+I2PWCmVD3ck6g8tEzMPcq5kT3J\r\ndMQ84EZYPX/qzTwwIq08mqbwPGXWxTx47QA93oRDPejOOj3n3Fk8J4QYPWoW4j1CBDM9yKCqPUkK\r\nlT2Ovgw9QbsDPQqvyT1HMHA94/KhPKK1Az0166A9xaM2PVev9zzbF7E8NNPwPAvWSj3SWpM9VDpZ\r\nPaxOFD3YZxo+bDq7PBoZBz0rlAs9wLFMPZuybj2PQ7Q9m1GdPXhwtj4yMgo/LEMGPX7kbD+GxjM/\r\nfjUCPo3qGz0w70Q9rti5PQRGjz1HosA882m1PDMLzTzO0eY8ZZvnPNNOWz4djQc+WGIPQN4nD0BG\r\nYoNAAv2oQCs08kDq7B1Bbce8QC6dQ0DoPRNA+1gGQEJruj/2BiE/BfCHPc0QtTz225g84hBlPBCS\r\nNTz08CU9Wf2CPXzHFT0gXOQ8FpycPNbXTzxrq7E+PficP63X0z6bpw098NlZPUJCiDz6Dt88T13K\r\nPO171T7J3Bg/zB41PnN6AzywSJs9dUoWPkoGWT2LYF89lNMOPoKFVj8PURFA7r8HQEuNuT8Cn9E+\r\nQSGPP8ntAEBZqRJAdiu8P7LpsT+aKBs/GmeFPjsSlj23Jbk9+scIPtQZsj96U1xAV+qOP4ExUD+O\r\ncRQ/thlzPkWv5T7yOc0+qm/BPwiWYEBSRlM/2dKEP6AhxT7apT0+FMlWPuQTCj4G8jU9rkPBPCUf\r\ngT2rH6o97dG4PX7avjyy2DE+CQWIPrwlmD5cwE89GmWtPMPcCD0EfI084zgVPG//dD1b6Eg9HQ5+\r\nPNKl7zthel88qq0KPYuV9DyCy1c8wd+WPCuU1zzDWlg8qPoKPCxGWT1opPA8eysbPXw26Tsf8Qg9\r\ngmZqPDdUAzxYWi08NKVsPO/CgzxADf889KydPELaqT3Qva8+jEIYP/PYOD8ezFA/CUKJPvigAjxY\r\niSU+rmZvPYUcajwgcO89G6p5PXMeWD2QEhA7+MAjPgpIVz5GTok+lOK3PqlpJT+Xwi0/hGgFP8LH\r\nlz2YeJc9pS2hPakrazw0vDY8628KPl2dgD3FcqQ9TK+UPXXQ+zy8R8g9cqttPed3KT1KWDg86CF/\r\nOzIF8DtsgOc7S705Oy6DxTrH47Y6E6ofO4C1ZzvHAzc7axJBOsbfZzqyuXI6d3fUOVrKEjsfXjs8\r\n0jb/PGXCjjy180M8Ke69O6qizzqQOvs6YPedO5M8FztCetA6q6WlOt0jwznJ0RM5bfR1Oa8PxjjQ\r\nVxc6D4GmOQikUjlY6Fk6wuA7OjSWCDoYD6Q5gjSsOJaVODrEZYk56Jh4OHFqpjjbmoI4q0upOdY3\r\nmzix6a048tqvOKAqmzi2Ujo55kN1OCvchzgOnY84k6SMOBYf/jj7/nQ4Wd1yOE5Lyjhz9JY4vcC6\r\nOICpiThkmWM4985lOA6AjDgRdWw4LgKIOHXgjDiC/XQ4eseQOKWajTjKrYI4T7hjOF4SbjhqJoE4\r\nBhh8OI6PiDgwTVc4Bg5sODnmYDjqAoA4XuhtOKhkezhim2A4yj9yOK7PZjhGG2043p9aODBtgDgy\r\nCmk40P1rOJHRaDgca1I4/NdgODWXXDjIYX84wr9kOC5zajgcO1w45dU4OEovRjjzKWM4RJxrOJay\r\nYziUUks43vlFOFaKYzhymUk4cHpfONvWQDgeIHA4qC1BOP6eRzjG/FU4cvBaON+aRTjy/kw49i47\r\nOK+yWzjubiY4jalPOETCODiwjFw4AkpKOG4iNziO/0k4Dj0eOF7BPTi8bTE4dpg4OAwpUDig4nQ4\r\nSpZBOL1nPzht6Dk4j7tPOMO6STiiukU4CRgjOINPMTj6vEY4r10jOBA3RDiy1Ds4wCUlONITPDgg\r\nYjg4Ob1IOIZ3STiAtzk40KULOPRCKzjUHyE4BxUtODBcHjhiNic4xrwbOLp2KTiQbSY4nzYxOOeY\r\nHDjfSEI4/f4eONYLLji2Bj44aOcpOMQzKziVvg04SaBAODNcFjhWKRk4eREqOHD/EjhuQyU4ADwN\r\nONgkMDjF5So412InOJipCji3PBU4SPgPODJBGjh5mho4tNAmOAYDGjhdsRw49/4VOBwTJTgAfQ04\r\ncj0BOCHbLjglHQg4RHkfOCikHTi0Dik4ZTIsOGLzEDh+XRk4vK//N7OzHTi2gxA49B4JOAfTDzg6\r\nyQ84qEEPOIy72TdkXgw4Y3sUOFWZBjh8fgU4zRUnOC3/CzjnLf03HFsBOLf+HDhTCRI4ofALOCBS\r\nFDjGhxc4+BUGOE4w2Ded6wA4svgKOKqsEjia+ho4T8sIONSjBDh+Zgc4hrL2N34kCzja5Bk4HpUE\r\nONhBBTibnfU3zKS2N6b4AjjStxA45JjUN3kE+TdrMwM4LbgNONHCHDh7ZdI3m4AHOFE3BThnBgI4\r\nGGoHOHX+8zfiquY3rh4GOMiK5zfYJO43KrX4N4LZ7DfAqfQ3ihELOExP3TddtxY4zgr8N5p6ETi0\r\niAY4Ol7rNxEuAjjgVvU3jLEBOMJT5DdCsu837738N2ba/jcmv8s3R/vjNzgDCzivVwE4t3YMOJgn\r\n8jdeSuk3hfL3N0or5Tfqcsg3fX/5N7jE3Dd+puw3WM0COOokBDiGhrk3QNX+Nxbk9jeOswg4lrMJ\r\nOD+TxzdP4903mGLFNwJe5DfUbu83+DvlN8V8+TcQNsY3qHDRN3tm6jfjiOQ3Zj/bN/RmuzcOEwQ4\r\n0HHLN9phwTf4c+k3NoO+N40/nTdf+rQ3bmj5N7JxvzfWd6c3woDuNxeC0jf0udo3FenTN7io2DfQ\r\n6tI3TiPIN3Qt3Tdjd6w3BlXvN5VuATh0RKQ35CLdN/I9zjebKdY3Vrf3N6yU6jeuNtI3pMLaNz5s\r\n7De8R903pEPdN+iQEDj+l803aL/BN9kx5Dcn1e83LI/gN3jctjeYjs43xAm3N9o25DcaUcc3M/DJ\r\nN+6/3Tfua8A3xhHoN62ABjj+nNE3HH3LN6IqtjdQ2qo3sIqxN0tJtjeQ97M3DlmxN6aEyzfoKuU3\r\n9W6vN4rH0Tcs+L83WjHIN8yUzDdAp8E3eW6vN78LpjcYlNg3mCPsNyfAwTfPlsQ3mwbWN11U3TfC\r\n2d03Q1+9N/Cfyze1uc03/qLON1TjzDduqaU3cYPBN6CPrzdi47w31JK5Nx5btjdjku03rU65N9id\r\n8jd2bsk3Y/KbN6bIkTcEdqA3XpDLN95PlTfTtbM38mq5NxCSxTcB6ME3iOmuNxeKtDdC58M3jgKw\r\nN67LmDfS8sk3jc6mN4URnTe1Srw3LgnsN542uTca5Jo3Rii9NwiVvTfpvZg3RCy3N3WwqDerR8k3\r\n3mO4Ny4iuDdqq943LluTNzpoqDfap5A39YaxN5qatDefBLg3x+aZNwmqkjcfuNM3aXi4N9h+sjdN\r\nN5U3oFXVNzQjpzeJxcs3Wy+XN+q6tjeEkso3SkC3N9u3xTfOBNU3u7+0N0sBtzcyvJ83PJ6wN3J6\r\nwzfGX6o3VEC2N+YqqjeH6J43nkuON5hMjDfefrE38w2QN3rnkTfduak3IjqiN9gKpzfHH7A3vqnE\r\nN82RujfBrZM3YAeiN66PpjeM4Ys3PLinNyjnrjfvncM3PLGvN3k2jDeDeIc3sD6uN9fsZDf61tk3\r\nfCesN8zLpDeWsJE3sUXLN5R5ijduSqI3N024N2XUsTc2uak3gb+lN88eoje6iL43MEPTN3dvnzfL\r\niJ83Hl/BN3ZIozcNjaI3ZWihN4yRoze4pJQ3ZFepNyVfjDc0vpE3fSelNzFPrjcQ8s43zXmmN2lC\r\nqjeLAMA32EeGN++ZhTcHqZg3cKamN26dyjecBKc369WCNw7jkzdTY5k3PmOeN6vjmzde3J03zTOa\r\nN/KKxDc+oJ43LV+KN74qqDd5y5g3DICiN7raqzfKMrs37RqeN1q8kjfkjpw3jN6UN9pjmjd+q5Q3\r\njXaYN/NYiDegyuU3LLKMN4SIvjenI4M3MlqMN1mfujcnhrw3JxmYN+mEjDcFyL03cru/N66LsDez\r\na5I3oAOFN36FjDeknLc3qoCEN4/kozfoaXA3g8GmNyQhtjcsHYo3kfCON9fGhzcYP6A3TFmBN2KM\r\npDfI6Kc3YHegN6NVjTfIvoA3SpqkNw8pozceZKI3ITKcNxDwhjcPzag30U6CN/Jjkzc3pqw3UP2x\r\nN5KstjeAr4w3M6WFN+FPiDdS3ZI3UYCON1JghTcoUYk37OmZN+7clzeMwXk3AkCVNxDGfjevGpc3\r\nIueoNywXnDfAd7I3qG2YN92qkjd4EHc3Tm6HN/xagDdtgoI3as6iN//cjzey4p83AbOpN1BPuTfo\r\nPLI3G7qBN39YkjdvsJk3abCcNwWKjzdg0Yk3v32gN0mdjTfk35s3/EiSN68FnzdeQaI3m6uMN8hs\r\nljdoIJM3Hmm+N3UXxTd+y243RhNKN5ZEgzeoRpw3WpOEN1S5qDdKTag3ktZaN1zqhDcIYpo3TJ2d\r\nN0VTjDeu6Zc3LmSZNxbChDfCYLI3PpyiNwLvkzcAp5w3fCuGN7uViTc6n5Y3A2WZN/ovkjfP9Hg3\r\njBaMN6rwtDdwhq83kJeRN8lFlzdcsKE3ETGKNxSqhzdfvZI3GReUN6+DlTdPwZU3NSaXN0cWljcb\r\nomw3bOOaN3+rnjetFbk3YL2YN34urTdKKqs3Yz+nN0vKpDeahYc3UJemNw/1hDej67A3T61+Nxt2\r\nojeQ5pM3LfmJN8imgjd/hY03pHmAN7WGhjdOsI83rAGKN1p5izcrKZw3962TN8E1lDcEgZw3dnlc\r\nN21ZhTcSjKE3D+ilN3vqrzc7Zqk3yu+kNxaWpjffK4E3/IijN6IOoTdH23Y3gj/FNwBijjcp0hQ/\r\nFNGTQObskD8pyYQ/OB9fQOqgOEK7pERBIv/oPyRpI0BKUElAhap6P3qbFkAE9Ls+ccOoPkZvsD4N\r\nBlQ+pxmPPmrf0j63+Bc+AZKlPiltOD+2kLY+O/MNPsOdSj9MpZw/qUBNP1R6pz+4nitAlMJSQKIx\r\nqkDLjLlAQdCOQBbs9EDePOpBDl1aQVuKY0Ddp3M/zU8wQByAID8hYmc/NLgJP9jP5j/eygo/OOi9\r\nPn/rsz9ptU8/ZryvPy+/Fz8+X34+FnjtPgTUVz/aEms+tcemPh9onj64P2w/j+nNPqHcAz85V9s/\r\nU6kMP2yJyz8qKLE/AlsWPwzRwT7o9UQ/GBPhP+YiMT/xAcI+yLgSPyekK0Aof/Y/PNN5PuPztD6k\r\niFk/BCqtPlp2Oz+idnk/aStkPg755T0uZlQ+jkenP6qNgz4JG6Q9VdzqPYtrSj5mMcc9U15HPgsU\r\nuz2eSl89CU6WPUq7fD119Y89iC8LPnPXSD5cO0c+irQVPkRkSD12+mo9sEmzPQv6KT3nW0A994Dm\r\nPUBabT5Fq4g9htu5PTYugj7zWkg+WEe1PmB46D1a9WE9IT5RPGas2DwTQ+88Pg9XPRL01zxrEw49\r\nlhdHPab7Cj3YEgQ+s8QvPZlZPD0isKo8qT7NPM+d2zz8TTc9bM5TPcYCqTy0TMw9fdSRPcl0xDzg\r\nRlg9f+rNPDAirTyapvA8envFPHjtAD3ehEM96M46PefcWTwnhBg9ahbiPb8LMz0oiao9SQqVPY6+\r\nDD1BuwM9Cq/JPUcwcD3AjaI8orUDPTXroD3FozY9AED3PNsXsTzum+88C9ZKPdJakz1UOlk9rE4U\r\nPdhnGj6l6Lo8GhkHPSuUCz3AsUw9m7JuPVZ+tD38WZ09QV+2PqQpCj+cMwY91OxsP073Mz91dwI+\r\nc/8bPTDvRD0bM7o9GH6PPXIiwTy837Q8ipnMPM7R5jxYa+c8cUpbPqSLBz6EZw9Axy4PQCleg0AZ\r\n+qhAmiryQNzpHUFav7xAh59DQO1BE0AsXwZAKHe6PxXbID9Hooc9LsG0PAi/mTziEGU89A02PHfg\r\nJT1Z/YI9ZPQVPaTK5DwwaZw81tdPPHuxsT7UC50/fdzTPpunDT3w2Vk94x+IPPoO3zwaWMo8np7V\r\nPlDxGD8OFDU+FoEEPLSRmz10HhY+67pYPSIyXz3+xw4+yplWP71YEUDRxgdAlKS5P7KS0T71Ho8/\r\nBvwAQMqrEkBeJLw/5PSxPygvGz/PW4U+wSmWPbomuT0AcQg+lhGyP+M/XEDc5I4/bRNQPwhWFD+k\r\nPHM+XrblPtTyzD54Y8E/W5JgQFxRUz+F4YQ/lC/FPubPPT5WwFY++j4KPk9VNj0dv8E8Av6APXEe\r\nqj3C2bg9qo6/PMLiMT4MKog+IEKYPjvtTz1YxKw8LksIPQR8jTzjOBU8b/90PVvoSD1VJn480qXv\r\nO9x3XzyqrQo9OOjzPAU1WDzB35Y8K5TXPKFHWDz1Sgs8zi5ZPWik8Dx7Kxs9onTpOx/xCD2Y32o8\r\nN1QDPFhaLTw0pWw878KDPEAN/zz0rJ08YBuqPUzVrz6NVxg/vvg4P37mUD9nfYk++KACPARSJT5e\r\n3G89qipqPDd17z1ADXo9vxNYPZASEDtO1CM+EjpXPilGiT6o+rc+I34lPwbBLT8ETQU/EgyYPdhl\r\nlz0n46A9AgtrPJJ/NjznSgo+zGCAPYD9pD0RiZQ9KL/7PL2kyD0qPW49ubcpPY08NzxOJIA7VJDu\r\nO52w5jvxbTo7LoPFOsfjtjo/zR47IiVmO4+jNztrEkE6xt9nOrK5cjp3d9Q5CvMSO8BKOzwklv88\r\nYauOPBUERDwCPbw7+/jLOvzM+jrfUJ07lPAXOxTazzoGTaQ6U1fPOWjkGTkhFHM50CO8OE81GTqs\r\npqE5N9heObyPXTqA/Tw66CYJOkqsozl5J8k4XyM3OmisiDlya4g4/P+WOKNnhDh94Ko5WKWcOMy7\r\ntTiUta84JguJOKqlPDlTVH447JZzOAL9hTizdZM42xcEOeBcgzipQZ44vtW6ONJkgzg49Lw4vRx3\r\nOGQnZDj4uXU49niJOFx3eDhgUYs4OBeQOLRqdjhs9ZI4O0ODOIRoeTgMPHY4l7BsOJXnfjh5soU4\r\n3uOEOEKuXTgMU2c4kphWOA1KgDiQX3w4tYJ3OP7+aDiAdnk4AqNeOOJbbzhQHVE4+YpzOJ3/eDi3\r\nDls49jxZOJhpXTjuAG44rmlpOAQgijgBUmM47lNmOOgCXzj0d0U4kAFIOC74ajhxhFs44EdTOBhV\r\nWjhfRDA4CnpeOLyETTgyQk44BeFjODQAdjhJ9z04xIpRON0NXDgacmE4kHFFOGgVTDgNty84ZNFf\r\nOOQAKzjusUo4cMA6OGDSUzg1wz04CJU0OLIvUjg8wy04yIZOOO8YMDjfLi84LhVEOASYYTjYOj44\r\nlMU4OJBONjjIRD04tkM8ODIrRzg95iY4NuQ0ON6uQziSEiE4U+RJOESbRDhpiyw4Fho+OFLaODgQ\r\n6jA4h84xON+FLzjD2Bg44yQ0OGPcJDg93Ss4DJ8mOKIaLTjmrRg44vQtONFtLzhQAC84NEgUOHh2\r\nNDgq5Cg4m4gtOMICODiZxSw4bDUnOJsaBDjGhz84VKkWOB6tJTi2fCY4v6MRODLCKjg+IBI4XfIn\r\nOOyfHji+iys4ljIYOEraFDiptRA41cAcOC1CIjhKvyg4tC0TOA7fCzilIRA4oDMjOACQHTg48/83\r\nPL0bOG88DTgxayI4/vQdOMQgMTiGRTU4bwETOFimEjjjPAQ4ViwUOH4mCzjy+As4IJAROMYhGTiY\r\n3SE4oTnsN7WbEzjMVBo4DsECOPI5DDhAByA48gT3NyrF+jfWbAs4CpwtONmmEjjVew441ukQONTQ\r\nEjiVLhg4ATX8N0a8CThzKAY4DHMHOE6K+zcMBvo3CmkCOHVRCzi7v/g3qTQBOA5wJDin5w441XwA\r\nOHgD9Ddu5cU3KJkMOBTNDjgQcuc3DBDtN1oZ/Te/XAo4NzgPOAB1yzdKkA84PtD5NzLM8DdWuws4\r\npDb5N6By3jdBLw04vBruN5668zep4eU3uDz0N6jCAzgDNgc4nqHKNyjgEDh/ifg3Zy8bOHpPBDgL\r\nu/432lMIOJjz4jeOkuw3G8zjN+9QADg2f+w3xMz3N/Pa9TeQn+A3dTkJODgs+De0MwE4wI34N5W4\r\n+jcyvds3ZGHBN8uSzjd/Zvc34NvMN7jfAjh4DPE3z5/9NyYn1jcqLOc3obLmN7BHAjiyu/03XI7k\r\nN2/+2Dd2/rY3DlT0N5GiCDjGDc83Sp3wN1LP7Def6ro3LoHvNxg57DfQx9I3atreN+C98TfRsaw3\r\nqx7AN2ec7jdRPsw30za/N224yTflF9k3lLylN1dSpTdA2e833UjRNzRb9Dd2f8w3cqTYNyRq9Dcj\r\n7N43CDHjN200qDf82NY3zmniN+OItDeYv+03kUm+Nz517jdWH+s3kDfbNywm+jd2PPU3ynzQN5ng\r\n3TeY9tY3vX4LOGaa7DdYqsI33rvDN3WJ4TfeBd83xkC4N3DazjezK803mHLZN/Q+3DezEc03qJXE\r\nN+Z50TejAPw3+Vn2N1raxzeixtA3vEC5N9zCtDfe1es3Yz3ON9RLsjcIQas3EJu0N2rC4Tfbr7I3\r\n7nnBN30wxjfCjr439XrENz6CszeIisA3gTHSN0xA0zdnE8o37AHBN+OuzjdC38I3Dp7MNzHz2TcQ\r\ntqs3Q5zYN2QX0DeiZ8o3W3rdN/tMojccRLw3TTbDN8AvtTe8wZ43niqyN4Y19DdOIJs3kOrKNzyT\r\n0TcZzao3Q0+sN5lTqDfLL8E3qfKfNwpgpzfqpbI3y6GrN26lsDfT/cE3YyumNycR0DcEy6c3VP6F\r\nN52jzzfG+q037k+fNxTHrzdBZOk3TB/mN9hxujf4ebM38HHDN2TKoTdBr603rVekN3J/vDdCZME3\r\ngamgN//dzDduyoc38eyZN3ZiljcqJ7c3rG/CN1iFxDck6po3CrerNwabxjfQB5s39BWwN1z1mjfI\r\n7Mw3SqemN2hHtTdVo5w3TmyvN5zZxzd4r9Y3exfRN6OOzjdN+7Q3/HnBN/OisTcnK6w3qHrTN2Qs\r\npDfkrLA348zAN2neljcEs3c3kMCdN8NIozducow3bpuoNzVbuzef46034t6hN9BypjcUzr43JNa8\r\nN3PfoTfLgJI3b2yuN1y1pzf/4aQ3ABazN1Rivzc+oKA3dUCjN4/ikDfbW7Q3Q59mN+TQzjdvSaQ3\r\nACCgN7dzjzdhNLc3W9aMN9dAsjdlK703+N+zN3s9qTeu3qM3oMOUN7tSoje8sr03ZSeuN83WpTcW\r\njro3DrG3NxMxmDe6N643NXCnNwHcfzcEgbY34fKjNzAtljdMk6M3cZqcN5L3yjesWbM3ZkahN/2L\r\nrjfc+4Q32PWCN3MNqTdU0as3ymPON1NUmzcKmpU3JpqkN/ZWkTejN5c3CJuAN7pKhjef8KU33+rD\r\nN+jWmzcT/4U3MB6VN8x9gzdR37g3+c6rN1IAvzer/KA3hEWVN5mkmzc6mJk3/1CiN+2iiTekCqE3\r\nZwGGNxAdvjf9ApI3MSywN4ezgTc5gI83LXujNwX0tjfU/qU3S1OJN8UOtzdZM8s30xXCN/e7iTc8\r\n3oQ3/uiVNx+AvjdRqnI37KmfN5HkijceHq83M2W9N2SqiDd0TXU3GPGcN12pnzdePn03MIe/N+4R\r\nnjeO9JU3qWaaN93WjDdNaK03PGC5N24uojfwInk3dUKdN2XnvDcFUFE3iKWcNwlYlDeEyYo3NTzL\r\nNwPIlDfjh5s3JFyCN+jBhjdKUqc3evmNN39omzepdI43wOOPNzc7fTd8bJU3m/eNN7brnjc0nKo3\r\niWWTNzE5pDfxzZM354mQN9kuiTckm5M3DO+SN5Ywhzf/Taw3EDyMN/1SlzeLX4039FuqN+wXyDez\r\nMIs3yxGXNzkbnzcmiaA331afN8QjgjeGoJs3UhqRNwFWpje4KYo3SiWmN8gJpDfj14Q3EEqSN7RC\r\nrTcV1bs3G/2VN6AjfDcSZno30EiDN373nDf5Voc3NXaIN4z7lzf4zn83qSJ2N/xooDegvJw3GIh8\r\nNybqojd1upw383V3N9aTpDcudYk35UOANwJLnDelzZw3xDyMN8fGmDeO4503XCOYN0XXjDfL7JM3\r\naFKqN7BFnjfP1I03vkunN0mamjfQxI43pW6XN0xRiDfFSIA32QqGN+OZmDdHa5c3iLyVN+MWeTdl\r\nZpA32jShNwnoxTeMNZo3syG4NyX6rDcptaU3WUKkN5HyhzchPZw36WlzN563ozednmg3C1WiN3Rt\r\nqjd7dnk3Y8KSN2Norjdpx183iXJ9N1gekTflSYg3GiOfN5FSjzcRcnY3zc2PNxwvtTcmlE03VQqD\r\nNzRAoDedGJk3JHm1NzpNwjefHKc3FQugNxIRijfb9KY3l0GeN34LSTdtSMU3ACC+Nw==",
                            "noiseTrainingType" : "default"
                          }
                        }
                    ],
                    "start" : 850,
                    "duration" : 471,
                    "mediaStart" : 1202,
                    "mediaDuration" : 471,
                    "scalar" : 1,
                    "metadata" : {
                      "WinSubProjectDisplayName" : "",
                      "clipSpeedAttribute" : false
                    },
                    "animationTracks" : {

                    }
                  },
                  {
                    "id" : 10,
                    "_type" : "AMFile",
                    "src" : 3,
                    "trackNumber" : 1,
                    "attributes" : {
                      "ident" : "tower-arch-02",
                      "sampleRate" : 44100,
                      "bitDepth" : 16,
                      "gain" : 1.0,
                      "mixToMono" : false
                    },
                      "channelNumber" : "0,1",
                    "effects" : [
                        {
                          "effectName" : "NoiseReduction",
                          "category" : "categoryAudioEffects",
                          "parameters" : {
                            "denoiserAmount" : 20.0,
                            "denoiserThreshold" : 0.0,
                            "noiseProfile" : "KdIUP/nTk0DO7ZA/KcmEP4EkX0BgoThCu6REQSL/6D+wZSNAXD1JQGOiej96mxZABPS7PnHDqD5G\r\nb7A+DQZUPqcZjz5qwNI+eJAXPgGSpT4pbTg/tpC2PvqeDT7DnUo/TKWcP6lATT9Ueqc/uJ4rQNfE\r\nUkCiMapAy4y5QJfHjkCc8PRAHTnqQclfWkFbimNAs4JzP81PMEAUaSA/IWJnPzS4CT/Yz+Y/3soK\r\nPzjovT5/67M/abVPP2a8rz8vvxc/Pl9+PhZ47T4E1Fc/rjhrPrXHpj4faJ4+uD9sP7/czT7HzAM/\r\nMlnbP1OpDD/ekMs/ch6xPwJbFj/Kz8E+0P9EP7Aa4T/mIjE/yh3CPsi4Ej8npCtA0H72P1DneT7j\r\n87Q+LphZPwQqrT5adjs/onZ5P2krZD4O+eU9mmdUPo5Hpz+qjYM+1iakPVXc6j2La0o+ZjHHPVNe\r\nRz4LFLs95SBfPex2lj1Ku3w95NWPPYgvCz4Iz0g+HSpHPnOtFT6WAEg9DplqPbBJsz2vMyo92RZA\r\nPV6f5j2qkW0+NAyJPaOMuj3TDoI+ulZIPnghtT5geOg9WvVhPSE+UTwoKdk8E0PvPD4PVz0S9Nc8\r\naxMOPZYXRz2m+wo92jQEPi4eMD2ZWTw9IrCqPKk+zTzPnds8/+I2PWCmVD3ck6g8tEzMPcq5kT3J\r\ndMQ84EZYPX/qzTwwIq08mqbwPGXWxTx47QA93oRDPejOOj3n3Fk8J4QYPWoW4j1CBDM9yKCqPUkK\r\nlT2Ovgw9QbsDPQqvyT1HMHA94/KhPKK1Az0166A9xaM2PVev9zzbF7E8NNPwPAvWSj3SWpM9VDpZ\r\nPaxOFD3YZxo+bDq7PBoZBz0rlAs9wLFMPZuybj2PQ7Q9m1GdPXhwtj4yMgo/LEMGPX7kbD+GxjM/\r\nfjUCPo3qGz0w70Q9rti5PQRGjz1HosA882m1PDMLzTzO0eY8ZZvnPNNOWz4djQc+WGIPQN4nD0BG\r\nYoNAAv2oQCs08kDq7B1Bbce8QC6dQ0DoPRNA+1gGQEJruj/2BiE/BfCHPc0QtTz225g84hBlPBCS\r\nNTz08CU9Wf2CPXzHFT0gXOQ8FpycPNbXTzxrq7E+PficP63X0z6bpw098NlZPUJCiDz6Dt88T13K\r\nPO171T7J3Bg/zB41PnN6AzywSJs9dUoWPkoGWT2LYF89lNMOPoKFVj8PURFA7r8HQEuNuT8Cn9E+\r\nQSGPP8ntAEBZqRJAdiu8P7LpsT+aKBs/GmeFPjsSlj23Jbk9+scIPtQZsj96U1xAV+qOP4ExUD+O\r\ncRQ/thlzPkWv5T7yOc0+qm/BPwiWYEBSRlM/2dKEP6AhxT7apT0+FMlWPuQTCj4G8jU9rkPBPCUf\r\ngT2rH6o97dG4PX7avjyy2DE+CQWIPrwlmD5cwE89GmWtPMPcCD0EfI084zgVPG//dD1b6Eg9HQ5+\r\nPNKl7zthel88qq0KPYuV9DyCy1c8wd+WPCuU1zzDWlg8qPoKPCxGWT1opPA8eysbPXw26Tsf8Qg9\r\ngmZqPDdUAzxYWi08NKVsPO/CgzxADf889KydPELaqT3Qva8+jEIYP/PYOD8ezFA/CUKJPvigAjxY\r\niSU+rmZvPYUcajwgcO89G6p5PXMeWD2QEhA7+MAjPgpIVz5GTok+lOK3PqlpJT+Xwi0/hGgFP8LH\r\nlz2YeJc9pS2hPakrazw0vDY8628KPl2dgD3FcqQ9TK+UPXXQ+zy8R8g9cqttPed3KT1KWDg86CF/\r\nOzIF8DtsgOc7S705Oy6DxTrH47Y6E6ofO4C1ZzvHAzc7axJBOsbfZzqyuXI6d3fUOVrKEjsfXjs8\r\n0jb/PGXCjjy180M8Ke69O6qizzqQOvs6YPedO5M8FztCetA6q6WlOt0jwznJ0RM5bfR1Oa8PxjjQ\r\nVxc6D4GmOQikUjlY6Fk6wuA7OjSWCDoYD6Q5gjSsOJaVODrEZYk56Jh4OHFqpjjbmoI4q0upOdY3\r\nmzix6a048tqvOKAqmzi2Ujo55kN1OCvchzgOnY84k6SMOBYf/jj7/nQ4Wd1yOE5Lyjhz9JY4vcC6\r\nOICpiThkmWM4985lOA6AjDgRdWw4LgKIOHXgjDiC/XQ4eseQOKWajTjKrYI4T7hjOF4SbjhqJoE4\r\nBhh8OI6PiDgwTVc4Bg5sODnmYDjqAoA4XuhtOKhkezhim2A4yj9yOK7PZjhGG2043p9aODBtgDgy\r\nCmk40P1rOJHRaDgca1I4/NdgODWXXDjIYX84wr9kOC5zajgcO1w45dU4OEovRjjzKWM4RJxrOJay\r\nYziUUks43vlFOFaKYzhymUk4cHpfONvWQDgeIHA4qC1BOP6eRzjG/FU4cvBaON+aRTjy/kw49i47\r\nOK+yWzjubiY4jalPOETCODiwjFw4AkpKOG4iNziO/0k4Dj0eOF7BPTi8bTE4dpg4OAwpUDig4nQ4\r\nSpZBOL1nPzht6Dk4j7tPOMO6STiiukU4CRgjOINPMTj6vEY4r10jOBA3RDiy1Ds4wCUlONITPDgg\r\nYjg4Ob1IOIZ3STiAtzk40KULOPRCKzjUHyE4BxUtODBcHjhiNic4xrwbOLp2KTiQbSY4nzYxOOeY\r\nHDjfSEI4/f4eONYLLji2Bj44aOcpOMQzKziVvg04SaBAODNcFjhWKRk4eREqOHD/EjhuQyU4ADwN\r\nONgkMDjF5So412InOJipCji3PBU4SPgPODJBGjh5mho4tNAmOAYDGjhdsRw49/4VOBwTJTgAfQ04\r\ncj0BOCHbLjglHQg4RHkfOCikHTi0Dik4ZTIsOGLzEDh+XRk4vK//N7OzHTi2gxA49B4JOAfTDzg6\r\nyQ84qEEPOIy72TdkXgw4Y3sUOFWZBjh8fgU4zRUnOC3/CzjnLf03HFsBOLf+HDhTCRI4ofALOCBS\r\nFDjGhxc4+BUGOE4w2Ded6wA4svgKOKqsEjia+ho4T8sIONSjBDh+Zgc4hrL2N34kCzja5Bk4HpUE\r\nONhBBTibnfU3zKS2N6b4AjjStxA45JjUN3kE+TdrMwM4LbgNONHCHDh7ZdI3m4AHOFE3BThnBgI4\r\nGGoHOHX+8zfiquY3rh4GOMiK5zfYJO43KrX4N4LZ7DfAqfQ3ihELOExP3TddtxY4zgr8N5p6ETi0\r\niAY4Ol7rNxEuAjjgVvU3jLEBOMJT5DdCsu837738N2ba/jcmv8s3R/vjNzgDCzivVwE4t3YMOJgn\r\n8jdeSuk3hfL3N0or5Tfqcsg3fX/5N7jE3Dd+puw3WM0COOokBDiGhrk3QNX+Nxbk9jeOswg4lrMJ\r\nOD+TxzdP4903mGLFNwJe5DfUbu83+DvlN8V8+TcQNsY3qHDRN3tm6jfjiOQ3Zj/bN/RmuzcOEwQ4\r\n0HHLN9phwTf4c+k3NoO+N40/nTdf+rQ3bmj5N7JxvzfWd6c3woDuNxeC0jf0udo3FenTN7io2DfQ\r\n6tI3TiPIN3Qt3Tdjd6w3BlXvN5VuATh0RKQ35CLdN/I9zjebKdY3Vrf3N6yU6jeuNtI3pMLaNz5s\r\n7De8R903pEPdN+iQEDj+l803aL/BN9kx5Dcn1e83LI/gN3jctjeYjs43xAm3N9o25DcaUcc3M/DJ\r\nN+6/3Tfua8A3xhHoN62ABjj+nNE3HH3LN6IqtjdQ2qo3sIqxN0tJtjeQ97M3DlmxN6aEyzfoKuU3\r\n9W6vN4rH0Tcs+L83WjHIN8yUzDdAp8E3eW6vN78LpjcYlNg3mCPsNyfAwTfPlsQ3mwbWN11U3TfC\r\n2d03Q1+9N/Cfyze1uc03/qLON1TjzDduqaU3cYPBN6CPrzdi47w31JK5Nx5btjdjku03rU65N9id\r\n8jd2bsk3Y/KbN6bIkTcEdqA3XpDLN95PlTfTtbM38mq5NxCSxTcB6ME3iOmuNxeKtDdC58M3jgKw\r\nN67LmDfS8sk3jc6mN4URnTe1Srw3LgnsN542uTca5Jo3Rii9NwiVvTfpvZg3RCy3N3WwqDerR8k3\r\n3mO4Ny4iuDdqq943LluTNzpoqDfap5A39YaxN5qatDefBLg3x+aZNwmqkjcfuNM3aXi4N9h+sjdN\r\nN5U3oFXVNzQjpzeJxcs3Wy+XN+q6tjeEkso3SkC3N9u3xTfOBNU3u7+0N0sBtzcyvJ83PJ6wN3J6\r\nwzfGX6o3VEC2N+YqqjeH6J43nkuON5hMjDfefrE38w2QN3rnkTfduak3IjqiN9gKpzfHH7A3vqnE\r\nN82RujfBrZM3YAeiN66PpjeM4Ys3PLinNyjnrjfvncM3PLGvN3k2jDeDeIc3sD6uN9fsZDf61tk3\r\nfCesN8zLpDeWsJE3sUXLN5R5ijduSqI3N024N2XUsTc2uak3gb+lN88eoje6iL43MEPTN3dvnzfL\r\niJ83Hl/BN3ZIozcNjaI3ZWihN4yRoze4pJQ3ZFepNyVfjDc0vpE3fSelNzFPrjcQ8s43zXmmN2lC\r\nqjeLAMA32EeGN++ZhTcHqZg3cKamN26dyjecBKc369WCNw7jkzdTY5k3PmOeN6vjmzde3J03zTOa\r\nN/KKxDc+oJ43LV+KN74qqDd5y5g3DICiN7raqzfKMrs37RqeN1q8kjfkjpw3jN6UN9pjmjd+q5Q3\r\njXaYN/NYiDegyuU3LLKMN4SIvjenI4M3MlqMN1mfujcnhrw3JxmYN+mEjDcFyL03cru/N66LsDez\r\na5I3oAOFN36FjDeknLc3qoCEN4/kozfoaXA3g8GmNyQhtjcsHYo3kfCON9fGhzcYP6A3TFmBN2KM\r\npDfI6Kc3YHegN6NVjTfIvoA3SpqkNw8pozceZKI3ITKcNxDwhjcPzag30U6CN/Jjkzc3pqw3UP2x\r\nN5KstjeAr4w3M6WFN+FPiDdS3ZI3UYCON1JghTcoUYk37OmZN+7clzeMwXk3AkCVNxDGfjevGpc3\r\nIueoNywXnDfAd7I3qG2YN92qkjd4EHc3Tm6HN/xagDdtgoI3as6iN//cjzey4p83AbOpN1BPuTfo\r\nPLI3G7qBN39YkjdvsJk3abCcNwWKjzdg0Yk3v32gN0mdjTfk35s3/EiSN68FnzdeQaI3m6uMN8hs\r\nljdoIJM3Hmm+N3UXxTd+y243RhNKN5ZEgzeoRpw3WpOEN1S5qDdKTag3ktZaN1zqhDcIYpo3TJ2d\r\nN0VTjDeu6Zc3LmSZNxbChDfCYLI3PpyiNwLvkzcAp5w3fCuGN7uViTc6n5Y3A2WZN/ovkjfP9Hg3\r\njBaMN6rwtDdwhq83kJeRN8lFlzdcsKE3ETGKNxSqhzdfvZI3GReUN6+DlTdPwZU3NSaXN0cWljcb\r\nomw3bOOaN3+rnjetFbk3YL2YN34urTdKKqs3Yz+nN0vKpDeahYc3UJemNw/1hDej67A3T61+Nxt2\r\nojeQ5pM3LfmJN8imgjd/hY03pHmAN7WGhjdOsI83rAGKN1p5izcrKZw3962TN8E1lDcEgZw3dnlc\r\nN21ZhTcSjKE3D+ilN3vqrzc7Zqk3yu+kNxaWpjffK4E3/IijN6IOoTdH23Y3gj/FNwBijjcp0hQ/\r\nFNGTQObskD8pyYQ/OB9fQOqgOEK7pERBIv/oPyRpI0BKUElAhap6P3qbFkAE9Ls+ccOoPkZvsD4N\r\nBlQ+pxmPPmrf0j63+Bc+AZKlPiltOD+2kLY+O/MNPsOdSj9MpZw/qUBNP1R6pz+4nitAlMJSQKIx\r\nqkDLjLlAQdCOQBbs9EDePOpBDl1aQVuKY0Ddp3M/zU8wQByAID8hYmc/NLgJP9jP5j/eygo/OOi9\r\nPn/rsz9ptU8/ZryvPy+/Fz8+X34+FnjtPgTUVz/aEms+tcemPh9onj64P2w/j+nNPqHcAz85V9s/\r\nU6kMP2yJyz8qKLE/AlsWPwzRwT7o9UQ/GBPhP+YiMT/xAcI+yLgSPyekK0Aof/Y/PNN5PuPztD6k\r\niFk/BCqtPlp2Oz+idnk/aStkPg755T0uZlQ+jkenP6qNgz4JG6Q9VdzqPYtrSj5mMcc9U15HPgsU\r\nuz2eSl89CU6WPUq7fD119Y89iC8LPnPXSD5cO0c+irQVPkRkSD12+mo9sEmzPQv6KT3nW0A994Dm\r\nPUBabT5Fq4g9htu5PTYugj7zWkg+WEe1PmB46D1a9WE9IT5RPGas2DwTQ+88Pg9XPRL01zxrEw49\r\nlhdHPab7Cj3YEgQ+s8QvPZlZPD0isKo8qT7NPM+d2zz8TTc9bM5TPcYCqTy0TMw9fdSRPcl0xDzg\r\nRlg9f+rNPDAirTyapvA8envFPHjtAD3ehEM96M46PefcWTwnhBg9ahbiPb8LMz0oiao9SQqVPY6+\r\nDD1BuwM9Cq/JPUcwcD3AjaI8orUDPTXroD3FozY9AED3PNsXsTzum+88C9ZKPdJakz1UOlk9rE4U\r\nPdhnGj6l6Lo8GhkHPSuUCz3AsUw9m7JuPVZ+tD38WZ09QV+2PqQpCj+cMwY91OxsP073Mz91dwI+\r\nc/8bPTDvRD0bM7o9GH6PPXIiwTy837Q8ipnMPM7R5jxYa+c8cUpbPqSLBz6EZw9Axy4PQCleg0AZ\r\n+qhAmiryQNzpHUFav7xAh59DQO1BE0AsXwZAKHe6PxXbID9Hooc9LsG0PAi/mTziEGU89A02PHfg\r\nJT1Z/YI9ZPQVPaTK5DwwaZw81tdPPHuxsT7UC50/fdzTPpunDT3w2Vk94x+IPPoO3zwaWMo8np7V\r\nPlDxGD8OFDU+FoEEPLSRmz10HhY+67pYPSIyXz3+xw4+yplWP71YEUDRxgdAlKS5P7KS0T71Ho8/\r\nBvwAQMqrEkBeJLw/5PSxPygvGz/PW4U+wSmWPbomuT0AcQg+lhGyP+M/XEDc5I4/bRNQPwhWFD+k\r\nPHM+XrblPtTyzD54Y8E/W5JgQFxRUz+F4YQ/lC/FPubPPT5WwFY++j4KPk9VNj0dv8E8Av6APXEe\r\nqj3C2bg9qo6/PMLiMT4MKog+IEKYPjvtTz1YxKw8LksIPQR8jTzjOBU8b/90PVvoSD1VJn480qXv\r\nO9x3XzyqrQo9OOjzPAU1WDzB35Y8K5TXPKFHWDz1Sgs8zi5ZPWik8Dx7Kxs9onTpOx/xCD2Y32o8\r\nN1QDPFhaLTw0pWw878KDPEAN/zz0rJ08YBuqPUzVrz6NVxg/vvg4P37mUD9nfYk++KACPARSJT5e\r\n3G89qipqPDd17z1ADXo9vxNYPZASEDtO1CM+EjpXPilGiT6o+rc+I34lPwbBLT8ETQU/EgyYPdhl\r\nlz0n46A9AgtrPJJ/NjznSgo+zGCAPYD9pD0RiZQ9KL/7PL2kyD0qPW49ubcpPY08NzxOJIA7VJDu\r\nO52w5jvxbTo7LoPFOsfjtjo/zR47IiVmO4+jNztrEkE6xt9nOrK5cjp3d9Q5CvMSO8BKOzwklv88\r\nYauOPBUERDwCPbw7+/jLOvzM+jrfUJ07lPAXOxTazzoGTaQ6U1fPOWjkGTkhFHM50CO8OE81GTqs\r\npqE5N9heObyPXTqA/Tw66CYJOkqsozl5J8k4XyM3OmisiDlya4g4/P+WOKNnhDh94Ko5WKWcOMy7\r\ntTiUta84JguJOKqlPDlTVH447JZzOAL9hTizdZM42xcEOeBcgzipQZ44vtW6ONJkgzg49Lw4vRx3\r\nOGQnZDj4uXU49niJOFx3eDhgUYs4OBeQOLRqdjhs9ZI4O0ODOIRoeTgMPHY4l7BsOJXnfjh5soU4\r\n3uOEOEKuXTgMU2c4kphWOA1KgDiQX3w4tYJ3OP7+aDiAdnk4AqNeOOJbbzhQHVE4+YpzOJ3/eDi3\r\nDls49jxZOJhpXTjuAG44rmlpOAQgijgBUmM47lNmOOgCXzj0d0U4kAFIOC74ajhxhFs44EdTOBhV\r\nWjhfRDA4CnpeOLyETTgyQk44BeFjODQAdjhJ9z04xIpRON0NXDgacmE4kHFFOGgVTDgNty84ZNFf\r\nOOQAKzjusUo4cMA6OGDSUzg1wz04CJU0OLIvUjg8wy04yIZOOO8YMDjfLi84LhVEOASYYTjYOj44\r\nlMU4OJBONjjIRD04tkM8ODIrRzg95iY4NuQ0ON6uQziSEiE4U+RJOESbRDhpiyw4Fho+OFLaODgQ\r\n6jA4h84xON+FLzjD2Bg44yQ0OGPcJDg93Ss4DJ8mOKIaLTjmrRg44vQtONFtLzhQAC84NEgUOHh2\r\nNDgq5Cg4m4gtOMICODiZxSw4bDUnOJsaBDjGhz84VKkWOB6tJTi2fCY4v6MRODLCKjg+IBI4XfIn\r\nOOyfHji+iys4ljIYOEraFDiptRA41cAcOC1CIjhKvyg4tC0TOA7fCzilIRA4oDMjOACQHTg48/83\r\nPL0bOG88DTgxayI4/vQdOMQgMTiGRTU4bwETOFimEjjjPAQ4ViwUOH4mCzjy+As4IJAROMYhGTiY\r\n3SE4oTnsN7WbEzjMVBo4DsECOPI5DDhAByA48gT3NyrF+jfWbAs4CpwtONmmEjjVew441ukQONTQ\r\nEjiVLhg4ATX8N0a8CThzKAY4DHMHOE6K+zcMBvo3CmkCOHVRCzi7v/g3qTQBOA5wJDin5w441XwA\r\nOHgD9Ddu5cU3KJkMOBTNDjgQcuc3DBDtN1oZ/Te/XAo4NzgPOAB1yzdKkA84PtD5NzLM8DdWuws4\r\npDb5N6By3jdBLw04vBruN5668zep4eU3uDz0N6jCAzgDNgc4nqHKNyjgEDh/ifg3Zy8bOHpPBDgL\r\nu/432lMIOJjz4jeOkuw3G8zjN+9QADg2f+w3xMz3N/Pa9TeQn+A3dTkJODgs+De0MwE4wI34N5W4\r\n+jcyvds3ZGHBN8uSzjd/Zvc34NvMN7jfAjh4DPE3z5/9NyYn1jcqLOc3obLmN7BHAjiyu/03XI7k\r\nN2/+2Dd2/rY3DlT0N5GiCDjGDc83Sp3wN1LP7Def6ro3LoHvNxg57DfQx9I3atreN+C98TfRsaw3\r\nqx7AN2ec7jdRPsw30za/N224yTflF9k3lLylN1dSpTdA2e833UjRNzRb9Dd2f8w3cqTYNyRq9Dcj\r\n7N43CDHjN200qDf82NY3zmniN+OItDeYv+03kUm+Nz517jdWH+s3kDfbNywm+jd2PPU3ynzQN5ng\r\n3TeY9tY3vX4LOGaa7DdYqsI33rvDN3WJ4TfeBd83xkC4N3DazjezK803mHLZN/Q+3DezEc03qJXE\r\nN+Z50TejAPw3+Vn2N1raxzeixtA3vEC5N9zCtDfe1es3Yz3ON9RLsjcIQas3EJu0N2rC4Tfbr7I3\r\n7nnBN30wxjfCjr439XrENz6CszeIisA3gTHSN0xA0zdnE8o37AHBN+OuzjdC38I3Dp7MNzHz2TcQ\r\ntqs3Q5zYN2QX0DeiZ8o3W3rdN/tMojccRLw3TTbDN8AvtTe8wZ43niqyN4Y19DdOIJs3kOrKNzyT\r\n0TcZzao3Q0+sN5lTqDfLL8E3qfKfNwpgpzfqpbI3y6GrN26lsDfT/cE3YyumNycR0DcEy6c3VP6F\r\nN52jzzfG+q037k+fNxTHrzdBZOk3TB/mN9hxujf4ebM38HHDN2TKoTdBr603rVekN3J/vDdCZME3\r\ngamgN//dzDduyoc38eyZN3ZiljcqJ7c3rG/CN1iFxDck6po3CrerNwabxjfQB5s39BWwN1z1mjfI\r\n7Mw3SqemN2hHtTdVo5w3TmyvN5zZxzd4r9Y3exfRN6OOzjdN+7Q3/HnBN/OisTcnK6w3qHrTN2Qs\r\npDfkrLA348zAN2neljcEs3c3kMCdN8NIozducow3bpuoNzVbuzef46034t6hN9BypjcUzr43JNa8\r\nN3PfoTfLgJI3b2yuN1y1pzf/4aQ3ABazN1Rivzc+oKA3dUCjN4/ikDfbW7Q3Q59mN+TQzjdvSaQ3\r\nACCgN7dzjzdhNLc3W9aMN9dAsjdlK703+N+zN3s9qTeu3qM3oMOUN7tSoje8sr03ZSeuN83WpTcW\r\njro3DrG3NxMxmDe6N643NXCnNwHcfzcEgbY34fKjNzAtljdMk6M3cZqcN5L3yjesWbM3ZkahN/2L\r\nrjfc+4Q32PWCN3MNqTdU0as3ymPON1NUmzcKmpU3JpqkN/ZWkTejN5c3CJuAN7pKhjef8KU33+rD\r\nN+jWmzcT/4U3MB6VN8x9gzdR37g3+c6rN1IAvzer/KA3hEWVN5mkmzc6mJk3/1CiN+2iiTekCqE3\r\nZwGGNxAdvjf9ApI3MSywN4ezgTc5gI83LXujNwX0tjfU/qU3S1OJN8UOtzdZM8s30xXCN/e7iTc8\r\n3oQ3/uiVNx+AvjdRqnI37KmfN5HkijceHq83M2W9N2SqiDd0TXU3GPGcN12pnzdePn03MIe/N+4R\r\nnjeO9JU3qWaaN93WjDdNaK03PGC5N24uojfwInk3dUKdN2XnvDcFUFE3iKWcNwlYlDeEyYo3NTzL\r\nNwPIlDfjh5s3JFyCN+jBhjdKUqc3evmNN39omzepdI43wOOPNzc7fTd8bJU3m/eNN7brnjc0nKo3\r\niWWTNzE5pDfxzZM354mQN9kuiTckm5M3DO+SN5Ywhzf/Taw3EDyMN/1SlzeLX4039FuqN+wXyDez\r\nMIs3yxGXNzkbnzcmiaA331afN8QjgjeGoJs3UhqRNwFWpje4KYo3SiWmN8gJpDfj14Q3EEqSN7RC\r\nrTcV1bs3G/2VN6AjfDcSZno30EiDN373nDf5Voc3NXaIN4z7lzf4zn83qSJ2N/xooDegvJw3GIh8\r\nNybqojd1upw383V3N9aTpDcudYk35UOANwJLnDelzZw3xDyMN8fGmDeO4503XCOYN0XXjDfL7JM3\r\naFKqN7BFnjfP1I03vkunN0mamjfQxI43pW6XN0xRiDfFSIA32QqGN+OZmDdHa5c3iLyVN+MWeTdl\r\nZpA32jShNwnoxTeMNZo3syG4NyX6rDcptaU3WUKkN5HyhzchPZw36WlzN563ozednmg3C1WiN3Rt\r\nqjd7dnk3Y8KSN2Norjdpx183iXJ9N1gekTflSYg3GiOfN5FSjzcRcnY3zc2PNxwvtTcmlE03VQqD\r\nNzRAoDedGJk3JHm1NzpNwjefHKc3FQugNxIRijfb9KY3l0GeN34LSTdtSMU3ACC+Nw==",
                            "noiseTrainingType" : "default"
                          }
                        }
                    ],
                    "start" : 1321,
                    "duration" : 16,
                    "mediaStart" : 1689,
                    "mediaDuration" : 16,
                    "scalar" : 1,
                    "metadata" : {
                      "WinSubProjectDisplayName" : "",
                      "clipSpeedAttribute" : false
                    },
                    "animationTracks" : {

                    }
                  },
                  {
                    "id" : 11,
                    "_type" : "AMFile",
                    "src" : 3,
                    "trackNumber" : 1,
                    "attributes" : {
                      "ident" : "tower-arch-02",
                      "sampleRate" : 44100,
                      "bitDepth" : 16,
                      "gain" : 1.0,
                      "mixToMono" : false
                    },
                      "channelNumber" : "0,1",
                    "effects" : [
                        {
                          "effectName" : "NoiseReduction",
                          "category" : "categoryAudioEffects",
                          "parameters" : {
                            "denoiserAmount" : 20.0,
                            "denoiserThreshold" : 0.0,
                            "noiseProfile" : "KdIUP/nTk0DO7ZA/KcmEP4EkX0BgoThCu6REQSL/6D+wZSNAXD1JQGOiej96mxZABPS7PnHDqD5G\r\nb7A+DQZUPqcZjz5qwNI+eJAXPgGSpT4pbTg/tpC2PvqeDT7DnUo/TKWcP6lATT9Ueqc/uJ4rQNfE\r\nUkCiMapAy4y5QJfHjkCc8PRAHTnqQclfWkFbimNAs4JzP81PMEAUaSA/IWJnPzS4CT/Yz+Y/3soK\r\nPzjovT5/67M/abVPP2a8rz8vvxc/Pl9+PhZ47T4E1Fc/rjhrPrXHpj4faJ4+uD9sP7/czT7HzAM/\r\nMlnbP1OpDD/ekMs/ch6xPwJbFj/Kz8E+0P9EP7Aa4T/mIjE/yh3CPsi4Ej8npCtA0H72P1DneT7j\r\n87Q+LphZPwQqrT5adjs/onZ5P2krZD4O+eU9mmdUPo5Hpz+qjYM+1iakPVXc6j2La0o+ZjHHPVNe\r\nRz4LFLs95SBfPex2lj1Ku3w95NWPPYgvCz4Iz0g+HSpHPnOtFT6WAEg9DplqPbBJsz2vMyo92RZA\r\nPV6f5j2qkW0+NAyJPaOMuj3TDoI+ulZIPnghtT5geOg9WvVhPSE+UTwoKdk8E0PvPD4PVz0S9Nc8\r\naxMOPZYXRz2m+wo92jQEPi4eMD2ZWTw9IrCqPKk+zTzPnds8/+I2PWCmVD3ck6g8tEzMPcq5kT3J\r\ndMQ84EZYPX/qzTwwIq08mqbwPGXWxTx47QA93oRDPejOOj3n3Fk8J4QYPWoW4j1CBDM9yKCqPUkK\r\nlT2Ovgw9QbsDPQqvyT1HMHA94/KhPKK1Az0166A9xaM2PVev9zzbF7E8NNPwPAvWSj3SWpM9VDpZ\r\nPaxOFD3YZxo+bDq7PBoZBz0rlAs9wLFMPZuybj2PQ7Q9m1GdPXhwtj4yMgo/LEMGPX7kbD+GxjM/\r\nfjUCPo3qGz0w70Q9rti5PQRGjz1HosA882m1PDMLzTzO0eY8ZZvnPNNOWz4djQc+WGIPQN4nD0BG\r\nYoNAAv2oQCs08kDq7B1Bbce8QC6dQ0DoPRNA+1gGQEJruj/2BiE/BfCHPc0QtTz225g84hBlPBCS\r\nNTz08CU9Wf2CPXzHFT0gXOQ8FpycPNbXTzxrq7E+PficP63X0z6bpw098NlZPUJCiDz6Dt88T13K\r\nPO171T7J3Bg/zB41PnN6AzywSJs9dUoWPkoGWT2LYF89lNMOPoKFVj8PURFA7r8HQEuNuT8Cn9E+\r\nQSGPP8ntAEBZqRJAdiu8P7LpsT+aKBs/GmeFPjsSlj23Jbk9+scIPtQZsj96U1xAV+qOP4ExUD+O\r\ncRQ/thlzPkWv5T7yOc0+qm/BPwiWYEBSRlM/2dKEP6AhxT7apT0+FMlWPuQTCj4G8jU9rkPBPCUf\r\ngT2rH6o97dG4PX7avjyy2DE+CQWIPrwlmD5cwE89GmWtPMPcCD0EfI084zgVPG//dD1b6Eg9HQ5+\r\nPNKl7zthel88qq0KPYuV9DyCy1c8wd+WPCuU1zzDWlg8qPoKPCxGWT1opPA8eysbPXw26Tsf8Qg9\r\ngmZqPDdUAzxYWi08NKVsPO/CgzxADf889KydPELaqT3Qva8+jEIYP/PYOD8ezFA/CUKJPvigAjxY\r\niSU+rmZvPYUcajwgcO89G6p5PXMeWD2QEhA7+MAjPgpIVz5GTok+lOK3PqlpJT+Xwi0/hGgFP8LH\r\nlz2YeJc9pS2hPakrazw0vDY8628KPl2dgD3FcqQ9TK+UPXXQ+zy8R8g9cqttPed3KT1KWDg86CF/\r\nOzIF8DtsgOc7S705Oy6DxTrH47Y6E6ofO4C1ZzvHAzc7axJBOsbfZzqyuXI6d3fUOVrKEjsfXjs8\r\n0jb/PGXCjjy180M8Ke69O6qizzqQOvs6YPedO5M8FztCetA6q6WlOt0jwznJ0RM5bfR1Oa8PxjjQ\r\nVxc6D4GmOQikUjlY6Fk6wuA7OjSWCDoYD6Q5gjSsOJaVODrEZYk56Jh4OHFqpjjbmoI4q0upOdY3\r\nmzix6a048tqvOKAqmzi2Ujo55kN1OCvchzgOnY84k6SMOBYf/jj7/nQ4Wd1yOE5Lyjhz9JY4vcC6\r\nOICpiThkmWM4985lOA6AjDgRdWw4LgKIOHXgjDiC/XQ4eseQOKWajTjKrYI4T7hjOF4SbjhqJoE4\r\nBhh8OI6PiDgwTVc4Bg5sODnmYDjqAoA4XuhtOKhkezhim2A4yj9yOK7PZjhGG2043p9aODBtgDgy\r\nCmk40P1rOJHRaDgca1I4/NdgODWXXDjIYX84wr9kOC5zajgcO1w45dU4OEovRjjzKWM4RJxrOJay\r\nYziUUks43vlFOFaKYzhymUk4cHpfONvWQDgeIHA4qC1BOP6eRzjG/FU4cvBaON+aRTjy/kw49i47\r\nOK+yWzjubiY4jalPOETCODiwjFw4AkpKOG4iNziO/0k4Dj0eOF7BPTi8bTE4dpg4OAwpUDig4nQ4\r\nSpZBOL1nPzht6Dk4j7tPOMO6STiiukU4CRgjOINPMTj6vEY4r10jOBA3RDiy1Ds4wCUlONITPDgg\r\nYjg4Ob1IOIZ3STiAtzk40KULOPRCKzjUHyE4BxUtODBcHjhiNic4xrwbOLp2KTiQbSY4nzYxOOeY\r\nHDjfSEI4/f4eONYLLji2Bj44aOcpOMQzKziVvg04SaBAODNcFjhWKRk4eREqOHD/EjhuQyU4ADwN\r\nONgkMDjF5So412InOJipCji3PBU4SPgPODJBGjh5mho4tNAmOAYDGjhdsRw49/4VOBwTJTgAfQ04\r\ncj0BOCHbLjglHQg4RHkfOCikHTi0Dik4ZTIsOGLzEDh+XRk4vK//N7OzHTi2gxA49B4JOAfTDzg6\r\nyQ84qEEPOIy72TdkXgw4Y3sUOFWZBjh8fgU4zRUnOC3/CzjnLf03HFsBOLf+HDhTCRI4ofALOCBS\r\nFDjGhxc4+BUGOE4w2Ded6wA4svgKOKqsEjia+ho4T8sIONSjBDh+Zgc4hrL2N34kCzja5Bk4HpUE\r\nONhBBTibnfU3zKS2N6b4AjjStxA45JjUN3kE+TdrMwM4LbgNONHCHDh7ZdI3m4AHOFE3BThnBgI4\r\nGGoHOHX+8zfiquY3rh4GOMiK5zfYJO43KrX4N4LZ7DfAqfQ3ihELOExP3TddtxY4zgr8N5p6ETi0\r\niAY4Ol7rNxEuAjjgVvU3jLEBOMJT5DdCsu837738N2ba/jcmv8s3R/vjNzgDCzivVwE4t3YMOJgn\r\n8jdeSuk3hfL3N0or5Tfqcsg3fX/5N7jE3Dd+puw3WM0COOokBDiGhrk3QNX+Nxbk9jeOswg4lrMJ\r\nOD+TxzdP4903mGLFNwJe5DfUbu83+DvlN8V8+TcQNsY3qHDRN3tm6jfjiOQ3Zj/bN/RmuzcOEwQ4\r\n0HHLN9phwTf4c+k3NoO+N40/nTdf+rQ3bmj5N7JxvzfWd6c3woDuNxeC0jf0udo3FenTN7io2DfQ\r\n6tI3TiPIN3Qt3Tdjd6w3BlXvN5VuATh0RKQ35CLdN/I9zjebKdY3Vrf3N6yU6jeuNtI3pMLaNz5s\r\n7De8R903pEPdN+iQEDj+l803aL/BN9kx5Dcn1e83LI/gN3jctjeYjs43xAm3N9o25DcaUcc3M/DJ\r\nN+6/3Tfua8A3xhHoN62ABjj+nNE3HH3LN6IqtjdQ2qo3sIqxN0tJtjeQ97M3DlmxN6aEyzfoKuU3\r\n9W6vN4rH0Tcs+L83WjHIN8yUzDdAp8E3eW6vN78LpjcYlNg3mCPsNyfAwTfPlsQ3mwbWN11U3TfC\r\n2d03Q1+9N/Cfyze1uc03/qLON1TjzDduqaU3cYPBN6CPrzdi47w31JK5Nx5btjdjku03rU65N9id\r\n8jd2bsk3Y/KbN6bIkTcEdqA3XpDLN95PlTfTtbM38mq5NxCSxTcB6ME3iOmuNxeKtDdC58M3jgKw\r\nN67LmDfS8sk3jc6mN4URnTe1Srw3LgnsN542uTca5Jo3Rii9NwiVvTfpvZg3RCy3N3WwqDerR8k3\r\n3mO4Ny4iuDdqq943LluTNzpoqDfap5A39YaxN5qatDefBLg3x+aZNwmqkjcfuNM3aXi4N9h+sjdN\r\nN5U3oFXVNzQjpzeJxcs3Wy+XN+q6tjeEkso3SkC3N9u3xTfOBNU3u7+0N0sBtzcyvJ83PJ6wN3J6\r\nwzfGX6o3VEC2N+YqqjeH6J43nkuON5hMjDfefrE38w2QN3rnkTfduak3IjqiN9gKpzfHH7A3vqnE\r\nN82RujfBrZM3YAeiN66PpjeM4Ys3PLinNyjnrjfvncM3PLGvN3k2jDeDeIc3sD6uN9fsZDf61tk3\r\nfCesN8zLpDeWsJE3sUXLN5R5ijduSqI3N024N2XUsTc2uak3gb+lN88eoje6iL43MEPTN3dvnzfL\r\niJ83Hl/BN3ZIozcNjaI3ZWihN4yRoze4pJQ3ZFepNyVfjDc0vpE3fSelNzFPrjcQ8s43zXmmN2lC\r\nqjeLAMA32EeGN++ZhTcHqZg3cKamN26dyjecBKc369WCNw7jkzdTY5k3PmOeN6vjmzde3J03zTOa\r\nN/KKxDc+oJ43LV+KN74qqDd5y5g3DICiN7raqzfKMrs37RqeN1q8kjfkjpw3jN6UN9pjmjd+q5Q3\r\njXaYN/NYiDegyuU3LLKMN4SIvjenI4M3MlqMN1mfujcnhrw3JxmYN+mEjDcFyL03cru/N66LsDez\r\na5I3oAOFN36FjDeknLc3qoCEN4/kozfoaXA3g8GmNyQhtjcsHYo3kfCON9fGhzcYP6A3TFmBN2KM\r\npDfI6Kc3YHegN6NVjTfIvoA3SpqkNw8pozceZKI3ITKcNxDwhjcPzag30U6CN/Jjkzc3pqw3UP2x\r\nN5KstjeAr4w3M6WFN+FPiDdS3ZI3UYCON1JghTcoUYk37OmZN+7clzeMwXk3AkCVNxDGfjevGpc3\r\nIueoNywXnDfAd7I3qG2YN92qkjd4EHc3Tm6HN/xagDdtgoI3as6iN//cjzey4p83AbOpN1BPuTfo\r\nPLI3G7qBN39YkjdvsJk3abCcNwWKjzdg0Yk3v32gN0mdjTfk35s3/EiSN68FnzdeQaI3m6uMN8hs\r\nljdoIJM3Hmm+N3UXxTd+y243RhNKN5ZEgzeoRpw3WpOEN1S5qDdKTag3ktZaN1zqhDcIYpo3TJ2d\r\nN0VTjDeu6Zc3LmSZNxbChDfCYLI3PpyiNwLvkzcAp5w3fCuGN7uViTc6n5Y3A2WZN/ovkjfP9Hg3\r\njBaMN6rwtDdwhq83kJeRN8lFlzdcsKE3ETGKNxSqhzdfvZI3GReUN6+DlTdPwZU3NSaXN0cWljcb\r\nomw3bOOaN3+rnjetFbk3YL2YN34urTdKKqs3Yz+nN0vKpDeahYc3UJemNw/1hDej67A3T61+Nxt2\r\nojeQ5pM3LfmJN8imgjd/hY03pHmAN7WGhjdOsI83rAGKN1p5izcrKZw3962TN8E1lDcEgZw3dnlc\r\nN21ZhTcSjKE3D+ilN3vqrzc7Zqk3yu+kNxaWpjffK4E3/IijN6IOoTdH23Y3gj/FNwBijjcp0hQ/\r\nFNGTQObskD8pyYQ/OB9fQOqgOEK7pERBIv/oPyRpI0BKUElAhap6P3qbFkAE9Ls+ccOoPkZvsD4N\r\nBlQ+pxmPPmrf0j63+Bc+AZKlPiltOD+2kLY+O/MNPsOdSj9MpZw/qUBNP1R6pz+4nitAlMJSQKIx\r\nqkDLjLlAQdCOQBbs9EDePOpBDl1aQVuKY0Ddp3M/zU8wQByAID8hYmc/NLgJP9jP5j/eygo/OOi9\r\nPn/rsz9ptU8/ZryvPy+/Fz8+X34+FnjtPgTUVz/aEms+tcemPh9onj64P2w/j+nNPqHcAz85V9s/\r\nU6kMP2yJyz8qKLE/AlsWPwzRwT7o9UQ/GBPhP+YiMT/xAcI+yLgSPyekK0Aof/Y/PNN5PuPztD6k\r\niFk/BCqtPlp2Oz+idnk/aStkPg755T0uZlQ+jkenP6qNgz4JG6Q9VdzqPYtrSj5mMcc9U15HPgsU\r\nuz2eSl89CU6WPUq7fD119Y89iC8LPnPXSD5cO0c+irQVPkRkSD12+mo9sEmzPQv6KT3nW0A994Dm\r\nPUBabT5Fq4g9htu5PTYugj7zWkg+WEe1PmB46D1a9WE9IT5RPGas2DwTQ+88Pg9XPRL01zxrEw49\r\nlhdHPab7Cj3YEgQ+s8QvPZlZPD0isKo8qT7NPM+d2zz8TTc9bM5TPcYCqTy0TMw9fdSRPcl0xDzg\r\nRlg9f+rNPDAirTyapvA8envFPHjtAD3ehEM96M46PefcWTwnhBg9ahbiPb8LMz0oiao9SQqVPY6+\r\nDD1BuwM9Cq/JPUcwcD3AjaI8orUDPTXroD3FozY9AED3PNsXsTzum+88C9ZKPdJakz1UOlk9rE4U\r\nPdhnGj6l6Lo8GhkHPSuUCz3AsUw9m7JuPVZ+tD38WZ09QV+2PqQpCj+cMwY91OxsP073Mz91dwI+\r\nc/8bPTDvRD0bM7o9GH6PPXIiwTy837Q8ipnMPM7R5jxYa+c8cUpbPqSLBz6EZw9Axy4PQCleg0AZ\r\n+qhAmiryQNzpHUFav7xAh59DQO1BE0AsXwZAKHe6PxXbID9Hooc9LsG0PAi/mTziEGU89A02PHfg\r\nJT1Z/YI9ZPQVPaTK5DwwaZw81tdPPHuxsT7UC50/fdzTPpunDT3w2Vk94x+IPPoO3zwaWMo8np7V\r\nPlDxGD8OFDU+FoEEPLSRmz10HhY+67pYPSIyXz3+xw4+yplWP71YEUDRxgdAlKS5P7KS0T71Ho8/\r\nBvwAQMqrEkBeJLw/5PSxPygvGz/PW4U+wSmWPbomuT0AcQg+lhGyP+M/XEDc5I4/bRNQPwhWFD+k\r\nPHM+XrblPtTyzD54Y8E/W5JgQFxRUz+F4YQ/lC/FPubPPT5WwFY++j4KPk9VNj0dv8E8Av6APXEe\r\nqj3C2bg9qo6/PMLiMT4MKog+IEKYPjvtTz1YxKw8LksIPQR8jTzjOBU8b/90PVvoSD1VJn480qXv\r\nO9x3XzyqrQo9OOjzPAU1WDzB35Y8K5TXPKFHWDz1Sgs8zi5ZPWik8Dx7Kxs9onTpOx/xCD2Y32o8\r\nN1QDPFhaLTw0pWw878KDPEAN/zz0rJ08YBuqPUzVrz6NVxg/vvg4P37mUD9nfYk++KACPARSJT5e\r\n3G89qipqPDd17z1ADXo9vxNYPZASEDtO1CM+EjpXPilGiT6o+rc+I34lPwbBLT8ETQU/EgyYPdhl\r\nlz0n46A9AgtrPJJ/NjznSgo+zGCAPYD9pD0RiZQ9KL/7PL2kyD0qPW49ubcpPY08NzxOJIA7VJDu\r\nO52w5jvxbTo7LoPFOsfjtjo/zR47IiVmO4+jNztrEkE6xt9nOrK5cjp3d9Q5CvMSO8BKOzwklv88\r\nYauOPBUERDwCPbw7+/jLOvzM+jrfUJ07lPAXOxTazzoGTaQ6U1fPOWjkGTkhFHM50CO8OE81GTqs\r\npqE5N9heObyPXTqA/Tw66CYJOkqsozl5J8k4XyM3OmisiDlya4g4/P+WOKNnhDh94Ko5WKWcOMy7\r\ntTiUta84JguJOKqlPDlTVH447JZzOAL9hTizdZM42xcEOeBcgzipQZ44vtW6ONJkgzg49Lw4vRx3\r\nOGQnZDj4uXU49niJOFx3eDhgUYs4OBeQOLRqdjhs9ZI4O0ODOIRoeTgMPHY4l7BsOJXnfjh5soU4\r\n3uOEOEKuXTgMU2c4kphWOA1KgDiQX3w4tYJ3OP7+aDiAdnk4AqNeOOJbbzhQHVE4+YpzOJ3/eDi3\r\nDls49jxZOJhpXTjuAG44rmlpOAQgijgBUmM47lNmOOgCXzj0d0U4kAFIOC74ajhxhFs44EdTOBhV\r\nWjhfRDA4CnpeOLyETTgyQk44BeFjODQAdjhJ9z04xIpRON0NXDgacmE4kHFFOGgVTDgNty84ZNFf\r\nOOQAKzjusUo4cMA6OGDSUzg1wz04CJU0OLIvUjg8wy04yIZOOO8YMDjfLi84LhVEOASYYTjYOj44\r\nlMU4OJBONjjIRD04tkM8ODIrRzg95iY4NuQ0ON6uQziSEiE4U+RJOESbRDhpiyw4Fho+OFLaODgQ\r\n6jA4h84xON+FLzjD2Bg44yQ0OGPcJDg93Ss4DJ8mOKIaLTjmrRg44vQtONFtLzhQAC84NEgUOHh2\r\nNDgq5Cg4m4gtOMICODiZxSw4bDUnOJsaBDjGhz84VKkWOB6tJTi2fCY4v6MRODLCKjg+IBI4XfIn\r\nOOyfHji+iys4ljIYOEraFDiptRA41cAcOC1CIjhKvyg4tC0TOA7fCzilIRA4oDMjOACQHTg48/83\r\nPL0bOG88DTgxayI4/vQdOMQgMTiGRTU4bwETOFimEjjjPAQ4ViwUOH4mCzjy+As4IJAROMYhGTiY\r\n3SE4oTnsN7WbEzjMVBo4DsECOPI5DDhAByA48gT3NyrF+jfWbAs4CpwtONmmEjjVew441ukQONTQ\r\nEjiVLhg4ATX8N0a8CThzKAY4DHMHOE6K+zcMBvo3CmkCOHVRCzi7v/g3qTQBOA5wJDin5w441XwA\r\nOHgD9Ddu5cU3KJkMOBTNDjgQcuc3DBDtN1oZ/Te/XAo4NzgPOAB1yzdKkA84PtD5NzLM8DdWuws4\r\npDb5N6By3jdBLw04vBruN5668zep4eU3uDz0N6jCAzgDNgc4nqHKNyjgEDh/ifg3Zy8bOHpPBDgL\r\nu/432lMIOJjz4jeOkuw3G8zjN+9QADg2f+w3xMz3N/Pa9TeQn+A3dTkJODgs+De0MwE4wI34N5W4\r\n+jcyvds3ZGHBN8uSzjd/Zvc34NvMN7jfAjh4DPE3z5/9NyYn1jcqLOc3obLmN7BHAjiyu/03XI7k\r\nN2/+2Dd2/rY3DlT0N5GiCDjGDc83Sp3wN1LP7Def6ro3LoHvNxg57DfQx9I3atreN+C98TfRsaw3\r\nqx7AN2ec7jdRPsw30za/N224yTflF9k3lLylN1dSpTdA2e833UjRNzRb9Dd2f8w3cqTYNyRq9Dcj\r\n7N43CDHjN200qDf82NY3zmniN+OItDeYv+03kUm+Nz517jdWH+s3kDfbNywm+jd2PPU3ynzQN5ng\r\n3TeY9tY3vX4LOGaa7DdYqsI33rvDN3WJ4TfeBd83xkC4N3DazjezK803mHLZN/Q+3DezEc03qJXE\r\nN+Z50TejAPw3+Vn2N1raxzeixtA3vEC5N9zCtDfe1es3Yz3ON9RLsjcIQas3EJu0N2rC4Tfbr7I3\r\n7nnBN30wxjfCjr439XrENz6CszeIisA3gTHSN0xA0zdnE8o37AHBN+OuzjdC38I3Dp7MNzHz2TcQ\r\ntqs3Q5zYN2QX0DeiZ8o3W3rdN/tMojccRLw3TTbDN8AvtTe8wZ43niqyN4Y19DdOIJs3kOrKNzyT\r\n0TcZzao3Q0+sN5lTqDfLL8E3qfKfNwpgpzfqpbI3y6GrN26lsDfT/cE3YyumNycR0DcEy6c3VP6F\r\nN52jzzfG+q037k+fNxTHrzdBZOk3TB/mN9hxujf4ebM38HHDN2TKoTdBr603rVekN3J/vDdCZME3\r\ngamgN//dzDduyoc38eyZN3ZiljcqJ7c3rG/CN1iFxDck6po3CrerNwabxjfQB5s39BWwN1z1mjfI\r\n7Mw3SqemN2hHtTdVo5w3TmyvN5zZxzd4r9Y3exfRN6OOzjdN+7Q3/HnBN/OisTcnK6w3qHrTN2Qs\r\npDfkrLA348zAN2neljcEs3c3kMCdN8NIozducow3bpuoNzVbuzef46034t6hN9BypjcUzr43JNa8\r\nN3PfoTfLgJI3b2yuN1y1pzf/4aQ3ABazN1Rivzc+oKA3dUCjN4/ikDfbW7Q3Q59mN+TQzjdvSaQ3\r\nACCgN7dzjzdhNLc3W9aMN9dAsjdlK703+N+zN3s9qTeu3qM3oMOUN7tSoje8sr03ZSeuN83WpTcW\r\njro3DrG3NxMxmDe6N643NXCnNwHcfzcEgbY34fKjNzAtljdMk6M3cZqcN5L3yjesWbM3ZkahN/2L\r\nrjfc+4Q32PWCN3MNqTdU0as3ymPON1NUmzcKmpU3JpqkN/ZWkTejN5c3CJuAN7pKhjef8KU33+rD\r\nN+jWmzcT/4U3MB6VN8x9gzdR37g3+c6rN1IAvzer/KA3hEWVN5mkmzc6mJk3/1CiN+2iiTekCqE3\r\nZwGGNxAdvjf9ApI3MSywN4ezgTc5gI83LXujNwX0tjfU/qU3S1OJN8UOtzdZM8s30xXCN/e7iTc8\r\n3oQ3/uiVNx+AvjdRqnI37KmfN5HkijceHq83M2W9N2SqiDd0TXU3GPGcN12pnzdePn03MIe/N+4R\r\nnjeO9JU3qWaaN93WjDdNaK03PGC5N24uojfwInk3dUKdN2XnvDcFUFE3iKWcNwlYlDeEyYo3NTzL\r\nNwPIlDfjh5s3JFyCN+jBhjdKUqc3evmNN39omzepdI43wOOPNzc7fTd8bJU3m/eNN7brnjc0nKo3\r\niWWTNzE5pDfxzZM354mQN9kuiTckm5M3DO+SN5Ywhzf/Taw3EDyMN/1SlzeLX4039FuqN+wXyDez\r\nMIs3yxGXNzkbnzcmiaA331afN8QjgjeGoJs3UhqRNwFWpje4KYo3SiWmN8gJpDfj14Q3EEqSN7RC\r\nrTcV1bs3G/2VN6AjfDcSZno30EiDN373nDf5Voc3NXaIN4z7lzf4zn83qSJ2N/xooDegvJw3GIh8\r\nNybqojd1upw383V3N9aTpDcudYk35UOANwJLnDelzZw3xDyMN8fGmDeO4503XCOYN0XXjDfL7JM3\r\naFKqN7BFnjfP1I03vkunN0mamjfQxI43pW6XN0xRiDfFSIA32QqGN+OZmDdHa5c3iLyVN+MWeTdl\r\nZpA32jShNwnoxTeMNZo3syG4NyX6rDcptaU3WUKkN5HyhzchPZw36WlzN563ozednmg3C1WiN3Rt\r\nqjd7dnk3Y8KSN2Norjdpx183iXJ9N1gekTflSYg3GiOfN5FSjzcRcnY3zc2PNxwvtTcmlE03VQqD\r\nNzRAoDedGJk3JHm1NzpNwjefHKc3FQugNxIRijfb9KY3l0GeN34LSTdtSMU3ACC+Nw==",
                            "noiseTrainingType" : "default"
                          }
                        }
                    ],
                    "start" : 1337,
                    "duration" : 84,
                    "mediaStart" : 1689,
                    "mediaDuration" : 84,
                    "scalar" : 1,
                    "metadata" : {
                      "WinSubProjectDisplayName" : "",
                      "clipSpeedAttribute" : false
                    },
                    "animationTracks" : {

                    }
                  },
                  {
                    "id" : 12,
                    "_type" : "AMFile",
                    "src" : 3,
                    "trackNumber" : 1,
                    "attributes" : {
                      "ident" : "tower-arch-02",
                      "sampleRate" : 44100,
                      "bitDepth" : 16,
                      "gain" : 1.0,
                      "mixToMono" : false
                    },
                      "channelNumber" : "0,1",
                    "effects" : [
                        {
                          "effectName" : "NoiseReduction",
                          "category" : "categoryAudioEffects",
                          "parameters" : {
                            "denoiserAmount" : 20.0,
                            "denoiserThreshold" : 0.0,
                            "noiseProfile" : "KdIUP/nTk0DO7ZA/KcmEP4EkX0BgoThCu6REQSL/6D+wZSNAXD1JQGOiej96mxZABPS7PnHDqD5G\r\nb7A+DQZUPqcZjz5qwNI+eJAXPgGSpT4pbTg/tpC2PvqeDT7DnUo/TKWcP6lATT9Ueqc/uJ4rQNfE\r\nUkCiMapAy4y5QJfHjkCc8PRAHTnqQclfWkFbimNAs4JzP81PMEAUaSA/IWJnPzS4CT/Yz+Y/3soK\r\nPzjovT5/67M/abVPP2a8rz8vvxc/Pl9+PhZ47T4E1Fc/rjhrPrXHpj4faJ4+uD9sP7/czT7HzAM/\r\nMlnbP1OpDD/ekMs/ch6xPwJbFj/Kz8E+0P9EP7Aa4T/mIjE/yh3CPsi4Ej8npCtA0H72P1DneT7j\r\n87Q+LphZPwQqrT5adjs/onZ5P2krZD4O+eU9mmdUPo5Hpz+qjYM+1iakPVXc6j2La0o+ZjHHPVNe\r\nRz4LFLs95SBfPex2lj1Ku3w95NWPPYgvCz4Iz0g+HSpHPnOtFT6WAEg9DplqPbBJsz2vMyo92RZA\r\nPV6f5j2qkW0+NAyJPaOMuj3TDoI+ulZIPnghtT5geOg9WvVhPSE+UTwoKdk8E0PvPD4PVz0S9Nc8\r\naxMOPZYXRz2m+wo92jQEPi4eMD2ZWTw9IrCqPKk+zTzPnds8/+I2PWCmVD3ck6g8tEzMPcq5kT3J\r\ndMQ84EZYPX/qzTwwIq08mqbwPGXWxTx47QA93oRDPejOOj3n3Fk8J4QYPWoW4j1CBDM9yKCqPUkK\r\nlT2Ovgw9QbsDPQqvyT1HMHA94/KhPKK1Az0166A9xaM2PVev9zzbF7E8NNPwPAvWSj3SWpM9VDpZ\r\nPaxOFD3YZxo+bDq7PBoZBz0rlAs9wLFMPZuybj2PQ7Q9m1GdPXhwtj4yMgo/LEMGPX7kbD+GxjM/\r\nfjUCPo3qGz0w70Q9rti5PQRGjz1HosA882m1PDMLzTzO0eY8ZZvnPNNOWz4djQc+WGIPQN4nD0BG\r\nYoNAAv2oQCs08kDq7B1Bbce8QC6dQ0DoPRNA+1gGQEJruj/2BiE/BfCHPc0QtTz225g84hBlPBCS\r\nNTz08CU9Wf2CPXzHFT0gXOQ8FpycPNbXTzxrq7E+PficP63X0z6bpw098NlZPUJCiDz6Dt88T13K\r\nPO171T7J3Bg/zB41PnN6AzywSJs9dUoWPkoGWT2LYF89lNMOPoKFVj8PURFA7r8HQEuNuT8Cn9E+\r\nQSGPP8ntAEBZqRJAdiu8P7LpsT+aKBs/GmeFPjsSlj23Jbk9+scIPtQZsj96U1xAV+qOP4ExUD+O\r\ncRQ/thlzPkWv5T7yOc0+qm/BPwiWYEBSRlM/2dKEP6AhxT7apT0+FMlWPuQTCj4G8jU9rkPBPCUf\r\ngT2rH6o97dG4PX7avjyy2DE+CQWIPrwlmD5cwE89GmWtPMPcCD0EfI084zgVPG//dD1b6Eg9HQ5+\r\nPNKl7zthel88qq0KPYuV9DyCy1c8wd+WPCuU1zzDWlg8qPoKPCxGWT1opPA8eysbPXw26Tsf8Qg9\r\ngmZqPDdUAzxYWi08NKVsPO/CgzxADf889KydPELaqT3Qva8+jEIYP/PYOD8ezFA/CUKJPvigAjxY\r\niSU+rmZvPYUcajwgcO89G6p5PXMeWD2QEhA7+MAjPgpIVz5GTok+lOK3PqlpJT+Xwi0/hGgFP8LH\r\nlz2YeJc9pS2hPakrazw0vDY8628KPl2dgD3FcqQ9TK+UPXXQ+zy8R8g9cqttPed3KT1KWDg86CF/\r\nOzIF8DtsgOc7S705Oy6DxTrH47Y6E6ofO4C1ZzvHAzc7axJBOsbfZzqyuXI6d3fUOVrKEjsfXjs8\r\n0jb/PGXCjjy180M8Ke69O6qizzqQOvs6YPedO5M8FztCetA6q6WlOt0jwznJ0RM5bfR1Oa8PxjjQ\r\nVxc6D4GmOQikUjlY6Fk6wuA7OjSWCDoYD6Q5gjSsOJaVODrEZYk56Jh4OHFqpjjbmoI4q0upOdY3\r\nmzix6a048tqvOKAqmzi2Ujo55kN1OCvchzgOnY84k6SMOBYf/jj7/nQ4Wd1yOE5Lyjhz9JY4vcC6\r\nOICpiThkmWM4985lOA6AjDgRdWw4LgKIOHXgjDiC/XQ4eseQOKWajTjKrYI4T7hjOF4SbjhqJoE4\r\nBhh8OI6PiDgwTVc4Bg5sODnmYDjqAoA4XuhtOKhkezhim2A4yj9yOK7PZjhGG2043p9aODBtgDgy\r\nCmk40P1rOJHRaDgca1I4/NdgODWXXDjIYX84wr9kOC5zajgcO1w45dU4OEovRjjzKWM4RJxrOJay\r\nYziUUks43vlFOFaKYzhymUk4cHpfONvWQDgeIHA4qC1BOP6eRzjG/FU4cvBaON+aRTjy/kw49i47\r\nOK+yWzjubiY4jalPOETCODiwjFw4AkpKOG4iNziO/0k4Dj0eOF7BPTi8bTE4dpg4OAwpUDig4nQ4\r\nSpZBOL1nPzht6Dk4j7tPOMO6STiiukU4CRgjOINPMTj6vEY4r10jOBA3RDiy1Ds4wCUlONITPDgg\r\nYjg4Ob1IOIZ3STiAtzk40KULOPRCKzjUHyE4BxUtODBcHjhiNic4xrwbOLp2KTiQbSY4nzYxOOeY\r\nHDjfSEI4/f4eONYLLji2Bj44aOcpOMQzKziVvg04SaBAODNcFjhWKRk4eREqOHD/EjhuQyU4ADwN\r\nONgkMDjF5So412InOJipCji3PBU4SPgPODJBGjh5mho4tNAmOAYDGjhdsRw49/4VOBwTJTgAfQ04\r\ncj0BOCHbLjglHQg4RHkfOCikHTi0Dik4ZTIsOGLzEDh+XRk4vK//N7OzHTi2gxA49B4JOAfTDzg6\r\nyQ84qEEPOIy72TdkXgw4Y3sUOFWZBjh8fgU4zRUnOC3/CzjnLf03HFsBOLf+HDhTCRI4ofALOCBS\r\nFDjGhxc4+BUGOE4w2Ded6wA4svgKOKqsEjia+ho4T8sIONSjBDh+Zgc4hrL2N34kCzja5Bk4HpUE\r\nONhBBTibnfU3zKS2N6b4AjjStxA45JjUN3kE+TdrMwM4LbgNONHCHDh7ZdI3m4AHOFE3BThnBgI4\r\nGGoHOHX+8zfiquY3rh4GOMiK5zfYJO43KrX4N4LZ7DfAqfQ3ihELOExP3TddtxY4zgr8N5p6ETi0\r\niAY4Ol7rNxEuAjjgVvU3jLEBOMJT5DdCsu837738N2ba/jcmv8s3R/vjNzgDCzivVwE4t3YMOJgn\r\n8jdeSuk3hfL3N0or5Tfqcsg3fX/5N7jE3Dd+puw3WM0COOokBDiGhrk3QNX+Nxbk9jeOswg4lrMJ\r\nOD+TxzdP4903mGLFNwJe5DfUbu83+DvlN8V8+TcQNsY3qHDRN3tm6jfjiOQ3Zj/bN/RmuzcOEwQ4\r\n0HHLN9phwTf4c+k3NoO+N40/nTdf+rQ3bmj5N7JxvzfWd6c3woDuNxeC0jf0udo3FenTN7io2DfQ\r\n6tI3TiPIN3Qt3Tdjd6w3BlXvN5VuATh0RKQ35CLdN/I9zjebKdY3Vrf3N6yU6jeuNtI3pMLaNz5s\r\n7De8R903pEPdN+iQEDj+l803aL/BN9kx5Dcn1e83LI/gN3jctjeYjs43xAm3N9o25DcaUcc3M/DJ\r\nN+6/3Tfua8A3xhHoN62ABjj+nNE3HH3LN6IqtjdQ2qo3sIqxN0tJtjeQ97M3DlmxN6aEyzfoKuU3\r\n9W6vN4rH0Tcs+L83WjHIN8yUzDdAp8E3eW6vN78LpjcYlNg3mCPsNyfAwTfPlsQ3mwbWN11U3TfC\r\n2d03Q1+9N/Cfyze1uc03/qLON1TjzDduqaU3cYPBN6CPrzdi47w31JK5Nx5btjdjku03rU65N9id\r\n8jd2bsk3Y/KbN6bIkTcEdqA3XpDLN95PlTfTtbM38mq5NxCSxTcB6ME3iOmuNxeKtDdC58M3jgKw\r\nN67LmDfS8sk3jc6mN4URnTe1Srw3LgnsN542uTca5Jo3Rii9NwiVvTfpvZg3RCy3N3WwqDerR8k3\r\n3mO4Ny4iuDdqq943LluTNzpoqDfap5A39YaxN5qatDefBLg3x+aZNwmqkjcfuNM3aXi4N9h+sjdN\r\nN5U3oFXVNzQjpzeJxcs3Wy+XN+q6tjeEkso3SkC3N9u3xTfOBNU3u7+0N0sBtzcyvJ83PJ6wN3J6\r\nwzfGX6o3VEC2N+YqqjeH6J43nkuON5hMjDfefrE38w2QN3rnkTfduak3IjqiN9gKpzfHH7A3vqnE\r\nN82RujfBrZM3YAeiN66PpjeM4Ys3PLinNyjnrjfvncM3PLGvN3k2jDeDeIc3sD6uN9fsZDf61tk3\r\nfCesN8zLpDeWsJE3sUXLN5R5ijduSqI3N024N2XUsTc2uak3gb+lN88eoje6iL43MEPTN3dvnzfL\r\niJ83Hl/BN3ZIozcNjaI3ZWihN4yRoze4pJQ3ZFepNyVfjDc0vpE3fSelNzFPrjcQ8s43zXmmN2lC\r\nqjeLAMA32EeGN++ZhTcHqZg3cKamN26dyjecBKc369WCNw7jkzdTY5k3PmOeN6vjmzde3J03zTOa\r\nN/KKxDc+oJ43LV+KN74qqDd5y5g3DICiN7raqzfKMrs37RqeN1q8kjfkjpw3jN6UN9pjmjd+q5Q3\r\njXaYN/NYiDegyuU3LLKMN4SIvjenI4M3MlqMN1mfujcnhrw3JxmYN+mEjDcFyL03cru/N66LsDez\r\na5I3oAOFN36FjDeknLc3qoCEN4/kozfoaXA3g8GmNyQhtjcsHYo3kfCON9fGhzcYP6A3TFmBN2KM\r\npDfI6Kc3YHegN6NVjTfIvoA3SpqkNw8pozceZKI3ITKcNxDwhjcPzag30U6CN/Jjkzc3pqw3UP2x\r\nN5KstjeAr4w3M6WFN+FPiDdS3ZI3UYCON1JghTcoUYk37OmZN+7clzeMwXk3AkCVNxDGfjevGpc3\r\nIueoNywXnDfAd7I3qG2YN92qkjd4EHc3Tm6HN/xagDdtgoI3as6iN//cjzey4p83AbOpN1BPuTfo\r\nPLI3G7qBN39YkjdvsJk3abCcNwWKjzdg0Yk3v32gN0mdjTfk35s3/EiSN68FnzdeQaI3m6uMN8hs\r\nljdoIJM3Hmm+N3UXxTd+y243RhNKN5ZEgzeoRpw3WpOEN1S5qDdKTag3ktZaN1zqhDcIYpo3TJ2d\r\nN0VTjDeu6Zc3LmSZNxbChDfCYLI3PpyiNwLvkzcAp5w3fCuGN7uViTc6n5Y3A2WZN/ovkjfP9Hg3\r\njBaMN6rwtDdwhq83kJeRN8lFlzdcsKE3ETGKNxSqhzdfvZI3GReUN6+DlTdPwZU3NSaXN0cWljcb\r\nomw3bOOaN3+rnjetFbk3YL2YN34urTdKKqs3Yz+nN0vKpDeahYc3UJemNw/1hDej67A3T61+Nxt2\r\nojeQ5pM3LfmJN8imgjd/hY03pHmAN7WGhjdOsI83rAGKN1p5izcrKZw3962TN8E1lDcEgZw3dnlc\r\nN21ZhTcSjKE3D+ilN3vqrzc7Zqk3yu+kNxaWpjffK4E3/IijN6IOoTdH23Y3gj/FNwBijjcp0hQ/\r\nFNGTQObskD8pyYQ/OB9fQOqgOEK7pERBIv/oPyRpI0BKUElAhap6P3qbFkAE9Ls+ccOoPkZvsD4N\r\nBlQ+pxmPPmrf0j63+Bc+AZKlPiltOD+2kLY+O/MNPsOdSj9MpZw/qUBNP1R6pz+4nitAlMJSQKIx\r\nqkDLjLlAQdCOQBbs9EDePOpBDl1aQVuKY0Ddp3M/zU8wQByAID8hYmc/NLgJP9jP5j/eygo/OOi9\r\nPn/rsz9ptU8/ZryvPy+/Fz8+X34+FnjtPgTUVz/aEms+tcemPh9onj64P2w/j+nNPqHcAz85V9s/\r\nU6kMP2yJyz8qKLE/AlsWPwzRwT7o9UQ/GBPhP+YiMT/xAcI+yLgSPyekK0Aof/Y/PNN5PuPztD6k\r\niFk/BCqtPlp2Oz+idnk/aStkPg755T0uZlQ+jkenP6qNgz4JG6Q9VdzqPYtrSj5mMcc9U15HPgsU\r\nuz2eSl89CU6WPUq7fD119Y89iC8LPnPXSD5cO0c+irQVPkRkSD12+mo9sEmzPQv6KT3nW0A994Dm\r\nPUBabT5Fq4g9htu5PTYugj7zWkg+WEe1PmB46D1a9WE9IT5RPGas2DwTQ+88Pg9XPRL01zxrEw49\r\nlhdHPab7Cj3YEgQ+s8QvPZlZPD0isKo8qT7NPM+d2zz8TTc9bM5TPcYCqTy0TMw9fdSRPcl0xDzg\r\nRlg9f+rNPDAirTyapvA8envFPHjtAD3ehEM96M46PefcWTwnhBg9ahbiPb8LMz0oiao9SQqVPY6+\r\nDD1BuwM9Cq/JPUcwcD3AjaI8orUDPTXroD3FozY9AED3PNsXsTzum+88C9ZKPdJakz1UOlk9rE4U\r\nPdhnGj6l6Lo8GhkHPSuUCz3AsUw9m7JuPVZ+tD38WZ09QV+2PqQpCj+cMwY91OxsP073Mz91dwI+\r\nc/8bPTDvRD0bM7o9GH6PPXIiwTy837Q8ipnMPM7R5jxYa+c8cUpbPqSLBz6EZw9Axy4PQCleg0AZ\r\n+qhAmiryQNzpHUFav7xAh59DQO1BE0AsXwZAKHe6PxXbID9Hooc9LsG0PAi/mTziEGU89A02PHfg\r\nJT1Z/YI9ZPQVPaTK5DwwaZw81tdPPHuxsT7UC50/fdzTPpunDT3w2Vk94x+IPPoO3zwaWMo8np7V\r\nPlDxGD8OFDU+FoEEPLSRmz10HhY+67pYPSIyXz3+xw4+yplWP71YEUDRxgdAlKS5P7KS0T71Ho8/\r\nBvwAQMqrEkBeJLw/5PSxPygvGz/PW4U+wSmWPbomuT0AcQg+lhGyP+M/XEDc5I4/bRNQPwhWFD+k\r\nPHM+XrblPtTyzD54Y8E/W5JgQFxRUz+F4YQ/lC/FPubPPT5WwFY++j4KPk9VNj0dv8E8Av6APXEe\r\nqj3C2bg9qo6/PMLiMT4MKog+IEKYPjvtTz1YxKw8LksIPQR8jTzjOBU8b/90PVvoSD1VJn480qXv\r\nO9x3XzyqrQo9OOjzPAU1WDzB35Y8K5TXPKFHWDz1Sgs8zi5ZPWik8Dx7Kxs9onTpOx/xCD2Y32o8\r\nN1QDPFhaLTw0pWw878KDPEAN/zz0rJ08YBuqPUzVrz6NVxg/vvg4P37mUD9nfYk++KACPARSJT5e\r\n3G89qipqPDd17z1ADXo9vxNYPZASEDtO1CM+EjpXPilGiT6o+rc+I34lPwbBLT8ETQU/EgyYPdhl\r\nlz0n46A9AgtrPJJ/NjznSgo+zGCAPYD9pD0RiZQ9KL/7PL2kyD0qPW49ubcpPY08NzxOJIA7VJDu\r\nO52w5jvxbTo7LoPFOsfjtjo/zR47IiVmO4+jNztrEkE6xt9nOrK5cjp3d9Q5CvMSO8BKOzwklv88\r\nYauOPBUERDwCPbw7+/jLOvzM+jrfUJ07lPAXOxTazzoGTaQ6U1fPOWjkGTkhFHM50CO8OE81GTqs\r\npqE5N9heObyPXTqA/Tw66CYJOkqsozl5J8k4XyM3OmisiDlya4g4/P+WOKNnhDh94Ko5WKWcOMy7\r\ntTiUta84JguJOKqlPDlTVH447JZzOAL9hTizdZM42xcEOeBcgzipQZ44vtW6ONJkgzg49Lw4vRx3\r\nOGQnZDj4uXU49niJOFx3eDhgUYs4OBeQOLRqdjhs9ZI4O0ODOIRoeTgMPHY4l7BsOJXnfjh5soU4\r\n3uOEOEKuXTgMU2c4kphWOA1KgDiQX3w4tYJ3OP7+aDiAdnk4AqNeOOJbbzhQHVE4+YpzOJ3/eDi3\r\nDls49jxZOJhpXTjuAG44rmlpOAQgijgBUmM47lNmOOgCXzj0d0U4kAFIOC74ajhxhFs44EdTOBhV\r\nWjhfRDA4CnpeOLyETTgyQk44BeFjODQAdjhJ9z04xIpRON0NXDgacmE4kHFFOGgVTDgNty84ZNFf\r\nOOQAKzjusUo4cMA6OGDSUzg1wz04CJU0OLIvUjg8wy04yIZOOO8YMDjfLi84LhVEOASYYTjYOj44\r\nlMU4OJBONjjIRD04tkM8ODIrRzg95iY4NuQ0ON6uQziSEiE4U+RJOESbRDhpiyw4Fho+OFLaODgQ\r\n6jA4h84xON+FLzjD2Bg44yQ0OGPcJDg93Ss4DJ8mOKIaLTjmrRg44vQtONFtLzhQAC84NEgUOHh2\r\nNDgq5Cg4m4gtOMICODiZxSw4bDUnOJsaBDjGhz84VKkWOB6tJTi2fCY4v6MRODLCKjg+IBI4XfIn\r\nOOyfHji+iys4ljIYOEraFDiptRA41cAcOC1CIjhKvyg4tC0TOA7fCzilIRA4oDMjOACQHTg48/83\r\nPL0bOG88DTgxayI4/vQdOMQgMTiGRTU4bwETOFimEjjjPAQ4ViwUOH4mCzjy+As4IJAROMYhGTiY\r\n3SE4oTnsN7WbEzjMVBo4DsECOPI5DDhAByA48gT3NyrF+jfWbAs4CpwtONmmEjjVew441ukQONTQ\r\nEjiVLhg4ATX8N0a8CThzKAY4DHMHOE6K+zcMBvo3CmkCOHVRCzi7v/g3qTQBOA5wJDin5w441XwA\r\nOHgD9Ddu5cU3KJkMOBTNDjgQcuc3DBDtN1oZ/Te/XAo4NzgPOAB1yzdKkA84PtD5NzLM8DdWuws4\r\npDb5N6By3jdBLw04vBruN5668zep4eU3uDz0N6jCAzgDNgc4nqHKNyjgEDh/ifg3Zy8bOHpPBDgL\r\nu/432lMIOJjz4jeOkuw3G8zjN+9QADg2f+w3xMz3N/Pa9TeQn+A3dTkJODgs+De0MwE4wI34N5W4\r\n+jcyvds3ZGHBN8uSzjd/Zvc34NvMN7jfAjh4DPE3z5/9NyYn1jcqLOc3obLmN7BHAjiyu/03XI7k\r\nN2/+2Dd2/rY3DlT0N5GiCDjGDc83Sp3wN1LP7Def6ro3LoHvNxg57DfQx9I3atreN+C98TfRsaw3\r\nqx7AN2ec7jdRPsw30za/N224yTflF9k3lLylN1dSpTdA2e833UjRNzRb9Dd2f8w3cqTYNyRq9Dcj\r\n7N43CDHjN200qDf82NY3zmniN+OItDeYv+03kUm+Nz517jdWH+s3kDfbNywm+jd2PPU3ynzQN5ng\r\n3TeY9tY3vX4LOGaa7DdYqsI33rvDN3WJ4TfeBd83xkC4N3DazjezK803mHLZN/Q+3DezEc03qJXE\r\nN+Z50TejAPw3+Vn2N1raxzeixtA3vEC5N9zCtDfe1es3Yz3ON9RLsjcIQas3EJu0N2rC4Tfbr7I3\r\n7nnBN30wxjfCjr439XrENz6CszeIisA3gTHSN0xA0zdnE8o37AHBN+OuzjdC38I3Dp7MNzHz2TcQ\r\ntqs3Q5zYN2QX0DeiZ8o3W3rdN/tMojccRLw3TTbDN8AvtTe8wZ43niqyN4Y19DdOIJs3kOrKNzyT\r\n0TcZzao3Q0+sN5lTqDfLL8E3qfKfNwpgpzfqpbI3y6GrN26lsDfT/cE3YyumNycR0DcEy6c3VP6F\r\nN52jzzfG+q037k+fNxTHrzdBZOk3TB/mN9hxujf4ebM38HHDN2TKoTdBr603rVekN3J/vDdCZME3\r\ngamgN//dzDduyoc38eyZN3ZiljcqJ7c3rG/CN1iFxDck6po3CrerNwabxjfQB5s39BWwN1z1mjfI\r\n7Mw3SqemN2hHtTdVo5w3TmyvN5zZxzd4r9Y3exfRN6OOzjdN+7Q3/HnBN/OisTcnK6w3qHrTN2Qs\r\npDfkrLA348zAN2neljcEs3c3kMCdN8NIozducow3bpuoNzVbuzef46034t6hN9BypjcUzr43JNa8\r\nN3PfoTfLgJI3b2yuN1y1pzf/4aQ3ABazN1Rivzc+oKA3dUCjN4/ikDfbW7Q3Q59mN+TQzjdvSaQ3\r\nACCgN7dzjzdhNLc3W9aMN9dAsjdlK703+N+zN3s9qTeu3qM3oMOUN7tSoje8sr03ZSeuN83WpTcW\r\njro3DrG3NxMxmDe6N643NXCnNwHcfzcEgbY34fKjNzAtljdMk6M3cZqcN5L3yjesWbM3ZkahN/2L\r\nrjfc+4Q32PWCN3MNqTdU0as3ymPON1NUmzcKmpU3JpqkN/ZWkTejN5c3CJuAN7pKhjef8KU33+rD\r\nN+jWmzcT/4U3MB6VN8x9gzdR37g3+c6rN1IAvzer/KA3hEWVN5mkmzc6mJk3/1CiN+2iiTekCqE3\r\nZwGGNxAdvjf9ApI3MSywN4ezgTc5gI83LXujNwX0tjfU/qU3S1OJN8UOtzdZM8s30xXCN/e7iTc8\r\n3oQ3/uiVNx+AvjdRqnI37KmfN5HkijceHq83M2W9N2SqiDd0TXU3GPGcN12pnzdePn03MIe/N+4R\r\nnjeO9JU3qWaaN93WjDdNaK03PGC5N24uojfwInk3dUKdN2XnvDcFUFE3iKWcNwlYlDeEyYo3NTzL\r\nNwPIlDfjh5s3JFyCN+jBhjdKUqc3evmNN39omzepdI43wOOPNzc7fTd8bJU3m/eNN7brnjc0nKo3\r\niWWTNzE5pDfxzZM354mQN9kuiTckm5M3DO+SN5Ywhzf/Taw3EDyMN/1SlzeLX4039FuqN+wXyDez\r\nMIs3yxGXNzkbnzcmiaA331afN8QjgjeGoJs3UhqRNwFWpje4KYo3SiWmN8gJpDfj14Q3EEqSN7RC\r\nrTcV1bs3G/2VN6AjfDcSZno30EiDN373nDf5Voc3NXaIN4z7lzf4zn83qSJ2N/xooDegvJw3GIh8\r\nNybqojd1upw383V3N9aTpDcudYk35UOANwJLnDelzZw3xDyMN8fGmDeO4503XCOYN0XXjDfL7JM3\r\naFKqN7BFnjfP1I03vkunN0mamjfQxI43pW6XN0xRiDfFSIA32QqGN+OZmDdHa5c3iLyVN+MWeTdl\r\nZpA32jShNwnoxTeMNZo3syG4NyX6rDcptaU3WUKkN5HyhzchPZw36WlzN563ozednmg3C1WiN3Rt\r\nqjd7dnk3Y8KSN2Norjdpx183iXJ9N1gekTflSYg3GiOfN5FSjzcRcnY3zc2PNxwvtTcmlE03VQqD\r\nNzRAoDedGJk3JHm1NzpNwjefHKc3FQugNxIRijfb9KY3l0GeN34LSTdtSMU3ACC+Nw==",
                            "noiseTrainingType" : "default"
                          }
                        }
                    ],
                    "start" : 1421,
                    "duration" : 308,
                    "mediaStart" : 1781,
                    "mediaDuration" : 308,
                    "scalar" : 1,
                    "metadata" : {
                      "WinSubProjectDisplayName" : "",
                      "clipSpeedAttribute" : false
                    },
                    "animationTracks" : {

                    }
                  },
                  {
                    "id" : 13,
                    "_type" : "AMFile",
                    "src" : 3,
                    "trackNumber" : 1,
                    "attributes" : {
                      "ident" : "tower-arch-02",
                      "sampleRate" : 44100,
                      "bitDepth" : 16,
                      "gain" : 1.0,
                      "mixToMono" : false
                    },
                      "channelNumber" : "0,1",
                    "effects" : [
                        {
                          "effectName" : "NoiseReduction",
                          "category" : "categoryAudioEffects",
                          "parameters" : {
                            "denoiserAmount" : 20.0,
                            "denoiserThreshold" : 0.0,
                            "noiseProfile" : "KdIUP/nTk0DO7ZA/KcmEP4EkX0BgoThCu6REQSL/6D+wZSNAXD1JQGOiej96mxZABPS7PnHDqD5G\r\nb7A+DQZUPqcZjz5qwNI+eJAXPgGSpT4pbTg/tpC2PvqeDT7DnUo/TKWcP6lATT9Ueqc/uJ4rQNfE\r\nUkCiMapAy4y5QJfHjkCc8PRAHTnqQclfWkFbimNAs4JzP81PMEAUaSA/IWJnPzS4CT/Yz+Y/3soK\r\nPzjovT5/67M/abVPP2a8rz8vvxc/Pl9+PhZ47T4E1Fc/rjhrPrXHpj4faJ4+uD9sP7/czT7HzAM/\r\nMlnbP1OpDD/ekMs/ch6xPwJbFj/Kz8E+0P9EP7Aa4T/mIjE/yh3CPsi4Ej8npCtA0H72P1DneT7j\r\n87Q+LphZPwQqrT5adjs/onZ5P2krZD4O+eU9mmdUPo5Hpz+qjYM+1iakPVXc6j2La0o+ZjHHPVNe\r\nRz4LFLs95SBfPex2lj1Ku3w95NWPPYgvCz4Iz0g+HSpHPnOtFT6WAEg9DplqPbBJsz2vMyo92RZA\r\nPV6f5j2qkW0+NAyJPaOMuj3TDoI+ulZIPnghtT5geOg9WvVhPSE+UTwoKdk8E0PvPD4PVz0S9Nc8\r\naxMOPZYXRz2m+wo92jQEPi4eMD2ZWTw9IrCqPKk+zTzPnds8/+I2PWCmVD3ck6g8tEzMPcq5kT3J\r\ndMQ84EZYPX/qzTwwIq08mqbwPGXWxTx47QA93oRDPejOOj3n3Fk8J4QYPWoW4j1CBDM9yKCqPUkK\r\nlT2Ovgw9QbsDPQqvyT1HMHA94/KhPKK1Az0166A9xaM2PVev9zzbF7E8NNPwPAvWSj3SWpM9VDpZ\r\nPaxOFD3YZxo+bDq7PBoZBz0rlAs9wLFMPZuybj2PQ7Q9m1GdPXhwtj4yMgo/LEMGPX7kbD+GxjM/\r\nfjUCPo3qGz0w70Q9rti5PQRGjz1HosA882m1PDMLzTzO0eY8ZZvnPNNOWz4djQc+WGIPQN4nD0BG\r\nYoNAAv2oQCs08kDq7B1Bbce8QC6dQ0DoPRNA+1gGQEJruj/2BiE/BfCHPc0QtTz225g84hBlPBCS\r\nNTz08CU9Wf2CPXzHFT0gXOQ8FpycPNbXTzxrq7E+PficP63X0z6bpw098NlZPUJCiDz6Dt88T13K\r\nPO171T7J3Bg/zB41PnN6AzywSJs9dUoWPkoGWT2LYF89lNMOPoKFVj8PURFA7r8HQEuNuT8Cn9E+\r\nQSGPP8ntAEBZqRJAdiu8P7LpsT+aKBs/GmeFPjsSlj23Jbk9+scIPtQZsj96U1xAV+qOP4ExUD+O\r\ncRQ/thlzPkWv5T7yOc0+qm/BPwiWYEBSRlM/2dKEP6AhxT7apT0+FMlWPuQTCj4G8jU9rkPBPCUf\r\ngT2rH6o97dG4PX7avjyy2DE+CQWIPrwlmD5cwE89GmWtPMPcCD0EfI084zgVPG//dD1b6Eg9HQ5+\r\nPNKl7zthel88qq0KPYuV9DyCy1c8wd+WPCuU1zzDWlg8qPoKPCxGWT1opPA8eysbPXw26Tsf8Qg9\r\ngmZqPDdUAzxYWi08NKVsPO/CgzxADf889KydPELaqT3Qva8+jEIYP/PYOD8ezFA/CUKJPvigAjxY\r\niSU+rmZvPYUcajwgcO89G6p5PXMeWD2QEhA7+MAjPgpIVz5GTok+lOK3PqlpJT+Xwi0/hGgFP8LH\r\nlz2YeJc9pS2hPakrazw0vDY8628KPl2dgD3FcqQ9TK+UPXXQ+zy8R8g9cqttPed3KT1KWDg86CF/\r\nOzIF8DtsgOc7S705Oy6DxTrH47Y6E6ofO4C1ZzvHAzc7axJBOsbfZzqyuXI6d3fUOVrKEjsfXjs8\r\n0jb/PGXCjjy180M8Ke69O6qizzqQOvs6YPedO5M8FztCetA6q6WlOt0jwznJ0RM5bfR1Oa8PxjjQ\r\nVxc6D4GmOQikUjlY6Fk6wuA7OjSWCDoYD6Q5gjSsOJaVODrEZYk56Jh4OHFqpjjbmoI4q0upOdY3\r\nmzix6a048tqvOKAqmzi2Ujo55kN1OCvchzgOnY84k6SMOBYf/jj7/nQ4Wd1yOE5Lyjhz9JY4vcC6\r\nOICpiThkmWM4985lOA6AjDgRdWw4LgKIOHXgjDiC/XQ4eseQOKWajTjKrYI4T7hjOF4SbjhqJoE4\r\nBhh8OI6PiDgwTVc4Bg5sODnmYDjqAoA4XuhtOKhkezhim2A4yj9yOK7PZjhGG2043p9aODBtgDgy\r\nCmk40P1rOJHRaDgca1I4/NdgODWXXDjIYX84wr9kOC5zajgcO1w45dU4OEovRjjzKWM4RJxrOJay\r\nYziUUks43vlFOFaKYzhymUk4cHpfONvWQDgeIHA4qC1BOP6eRzjG/FU4cvBaON+aRTjy/kw49i47\r\nOK+yWzjubiY4jalPOETCODiwjFw4AkpKOG4iNziO/0k4Dj0eOF7BPTi8bTE4dpg4OAwpUDig4nQ4\r\nSpZBOL1nPzht6Dk4j7tPOMO6STiiukU4CRgjOINPMTj6vEY4r10jOBA3RDiy1Ds4wCUlONITPDgg\r\nYjg4Ob1IOIZ3STiAtzk40KULOPRCKzjUHyE4BxUtODBcHjhiNic4xrwbOLp2KTiQbSY4nzYxOOeY\r\nHDjfSEI4/f4eONYLLji2Bj44aOcpOMQzKziVvg04SaBAODNcFjhWKRk4eREqOHD/EjhuQyU4ADwN\r\nONgkMDjF5So412InOJipCji3PBU4SPgPODJBGjh5mho4tNAmOAYDGjhdsRw49/4VOBwTJTgAfQ04\r\ncj0BOCHbLjglHQg4RHkfOCikHTi0Dik4ZTIsOGLzEDh+XRk4vK//N7OzHTi2gxA49B4JOAfTDzg6\r\nyQ84qEEPOIy72TdkXgw4Y3sUOFWZBjh8fgU4zRUnOC3/CzjnLf03HFsBOLf+HDhTCRI4ofALOCBS\r\nFDjGhxc4+BUGOE4w2Ded6wA4svgKOKqsEjia+ho4T8sIONSjBDh+Zgc4hrL2N34kCzja5Bk4HpUE\r\nONhBBTibnfU3zKS2N6b4AjjStxA45JjUN3kE+TdrMwM4LbgNONHCHDh7ZdI3m4AHOFE3BThnBgI4\r\nGGoHOHX+8zfiquY3rh4GOMiK5zfYJO43KrX4N4LZ7DfAqfQ3ihELOExP3TddtxY4zgr8N5p6ETi0\r\niAY4Ol7rNxEuAjjgVvU3jLEBOMJT5DdCsu837738N2ba/jcmv8s3R/vjNzgDCzivVwE4t3YMOJgn\r\n8jdeSuk3hfL3N0or5Tfqcsg3fX/5N7jE3Dd+puw3WM0COOokBDiGhrk3QNX+Nxbk9jeOswg4lrMJ\r\nOD+TxzdP4903mGLFNwJe5DfUbu83+DvlN8V8+TcQNsY3qHDRN3tm6jfjiOQ3Zj/bN/RmuzcOEwQ4\r\n0HHLN9phwTf4c+k3NoO+N40/nTdf+rQ3bmj5N7JxvzfWd6c3woDuNxeC0jf0udo3FenTN7io2DfQ\r\n6tI3TiPIN3Qt3Tdjd6w3BlXvN5VuATh0RKQ35CLdN/I9zjebKdY3Vrf3N6yU6jeuNtI3pMLaNz5s\r\n7De8R903pEPdN+iQEDj+l803aL/BN9kx5Dcn1e83LI/gN3jctjeYjs43xAm3N9o25DcaUcc3M/DJ\r\nN+6/3Tfua8A3xhHoN62ABjj+nNE3HH3LN6IqtjdQ2qo3sIqxN0tJtjeQ97M3DlmxN6aEyzfoKuU3\r\n9W6vN4rH0Tcs+L83WjHIN8yUzDdAp8E3eW6vN78LpjcYlNg3mCPsNyfAwTfPlsQ3mwbWN11U3TfC\r\n2d03Q1+9N/Cfyze1uc03/qLON1TjzDduqaU3cYPBN6CPrzdi47w31JK5Nx5btjdjku03rU65N9id\r\n8jd2bsk3Y/KbN6bIkTcEdqA3XpDLN95PlTfTtbM38mq5NxCSxTcB6ME3iOmuNxeKtDdC58M3jgKw\r\nN67LmDfS8sk3jc6mN4URnTe1Srw3LgnsN542uTca5Jo3Rii9NwiVvTfpvZg3RCy3N3WwqDerR8k3\r\n3mO4Ny4iuDdqq943LluTNzpoqDfap5A39YaxN5qatDefBLg3x+aZNwmqkjcfuNM3aXi4N9h+sjdN\r\nN5U3oFXVNzQjpzeJxcs3Wy+XN+q6tjeEkso3SkC3N9u3xTfOBNU3u7+0N0sBtzcyvJ83PJ6wN3J6\r\nwzfGX6o3VEC2N+YqqjeH6J43nkuON5hMjDfefrE38w2QN3rnkTfduak3IjqiN9gKpzfHH7A3vqnE\r\nN82RujfBrZM3YAeiN66PpjeM4Ys3PLinNyjnrjfvncM3PLGvN3k2jDeDeIc3sD6uN9fsZDf61tk3\r\nfCesN8zLpDeWsJE3sUXLN5R5ijduSqI3N024N2XUsTc2uak3gb+lN88eoje6iL43MEPTN3dvnzfL\r\niJ83Hl/BN3ZIozcNjaI3ZWihN4yRoze4pJQ3ZFepNyVfjDc0vpE3fSelNzFPrjcQ8s43zXmmN2lC\r\nqjeLAMA32EeGN++ZhTcHqZg3cKamN26dyjecBKc369WCNw7jkzdTY5k3PmOeN6vjmzde3J03zTOa\r\nN/KKxDc+oJ43LV+KN74qqDd5y5g3DICiN7raqzfKMrs37RqeN1q8kjfkjpw3jN6UN9pjmjd+q5Q3\r\njXaYN/NYiDegyuU3LLKMN4SIvjenI4M3MlqMN1mfujcnhrw3JxmYN+mEjDcFyL03cru/N66LsDez\r\na5I3oAOFN36FjDeknLc3qoCEN4/kozfoaXA3g8GmNyQhtjcsHYo3kfCON9fGhzcYP6A3TFmBN2KM\r\npDfI6Kc3YHegN6NVjTfIvoA3SpqkNw8pozceZKI3ITKcNxDwhjcPzag30U6CN/Jjkzc3pqw3UP2x\r\nN5KstjeAr4w3M6WFN+FPiDdS3ZI3UYCON1JghTcoUYk37OmZN+7clzeMwXk3AkCVNxDGfjevGpc3\r\nIueoNywXnDfAd7I3qG2YN92qkjd4EHc3Tm6HN/xagDdtgoI3as6iN//cjzey4p83AbOpN1BPuTfo\r\nPLI3G7qBN39YkjdvsJk3abCcNwWKjzdg0Yk3v32gN0mdjTfk35s3/EiSN68FnzdeQaI3m6uMN8hs\r\nljdoIJM3Hmm+N3UXxTd+y243RhNKN5ZEgzeoRpw3WpOEN1S5qDdKTag3ktZaN1zqhDcIYpo3TJ2d\r\nN0VTjDeu6Zc3LmSZNxbChDfCYLI3PpyiNwLvkzcAp5w3fCuGN7uViTc6n5Y3A2WZN/ovkjfP9Hg3\r\njBaMN6rwtDdwhq83kJeRN8lFlzdcsKE3ETGKNxSqhzdfvZI3GReUN6+DlTdPwZU3NSaXN0cWljcb\r\nomw3bOOaN3+rnjetFbk3YL2YN34urTdKKqs3Yz+nN0vKpDeahYc3UJemNw/1hDej67A3T61+Nxt2\r\nojeQ5pM3LfmJN8imgjd/hY03pHmAN7WGhjdOsI83rAGKN1p5izcrKZw3962TN8E1lDcEgZw3dnlc\r\nN21ZhTcSjKE3D+ilN3vqrzc7Zqk3yu+kNxaWpjffK4E3/IijN6IOoTdH23Y3gj/FNwBijjcp0hQ/\r\nFNGTQObskD8pyYQ/OB9fQOqgOEK7pERBIv/oPyRpI0BKUElAhap6P3qbFkAE9Ls+ccOoPkZvsD4N\r\nBlQ+pxmPPmrf0j63+Bc+AZKlPiltOD+2kLY+O/MNPsOdSj9MpZw/qUBNP1R6pz+4nitAlMJSQKIx\r\nqkDLjLlAQdCOQBbs9EDePOpBDl1aQVuKY0Ddp3M/zU8wQByAID8hYmc/NLgJP9jP5j/eygo/OOi9\r\nPn/rsz9ptU8/ZryvPy+/Fz8+X34+FnjtPgTUVz/aEms+tcemPh9onj64P2w/j+nNPqHcAz85V9s/\r\nU6kMP2yJyz8qKLE/AlsWPwzRwT7o9UQ/GBPhP+YiMT/xAcI+yLgSPyekK0Aof/Y/PNN5PuPztD6k\r\niFk/BCqtPlp2Oz+idnk/aStkPg755T0uZlQ+jkenP6qNgz4JG6Q9VdzqPYtrSj5mMcc9U15HPgsU\r\nuz2eSl89CU6WPUq7fD119Y89iC8LPnPXSD5cO0c+irQVPkRkSD12+mo9sEmzPQv6KT3nW0A994Dm\r\nPUBabT5Fq4g9htu5PTYugj7zWkg+WEe1PmB46D1a9WE9IT5RPGas2DwTQ+88Pg9XPRL01zxrEw49\r\nlhdHPab7Cj3YEgQ+s8QvPZlZPD0isKo8qT7NPM+d2zz8TTc9bM5TPcYCqTy0TMw9fdSRPcl0xDzg\r\nRlg9f+rNPDAirTyapvA8envFPHjtAD3ehEM96M46PefcWTwnhBg9ahbiPb8LMz0oiao9SQqVPY6+\r\nDD1BuwM9Cq/JPUcwcD3AjaI8orUDPTXroD3FozY9AED3PNsXsTzum+88C9ZKPdJakz1UOlk9rE4U\r\nPdhnGj6l6Lo8GhkHPSuUCz3AsUw9m7JuPVZ+tD38WZ09QV+2PqQpCj+cMwY91OxsP073Mz91dwI+\r\nc/8bPTDvRD0bM7o9GH6PPXIiwTy837Q8ipnMPM7R5jxYa+c8cUpbPqSLBz6EZw9Axy4PQCleg0AZ\r\n+qhAmiryQNzpHUFav7xAh59DQO1BE0AsXwZAKHe6PxXbID9Hooc9LsG0PAi/mTziEGU89A02PHfg\r\nJT1Z/YI9ZPQVPaTK5DwwaZw81tdPPHuxsT7UC50/fdzTPpunDT3w2Vk94x+IPPoO3zwaWMo8np7V\r\nPlDxGD8OFDU+FoEEPLSRmz10HhY+67pYPSIyXz3+xw4+yplWP71YEUDRxgdAlKS5P7KS0T71Ho8/\r\nBvwAQMqrEkBeJLw/5PSxPygvGz/PW4U+wSmWPbomuT0AcQg+lhGyP+M/XEDc5I4/bRNQPwhWFD+k\r\nPHM+XrblPtTyzD54Y8E/W5JgQFxRUz+F4YQ/lC/FPubPPT5WwFY++j4KPk9VNj0dv8E8Av6APXEe\r\nqj3C2bg9qo6/PMLiMT4MKog+IEKYPjvtTz1YxKw8LksIPQR8jTzjOBU8b/90PVvoSD1VJn480qXv\r\nO9x3XzyqrQo9OOjzPAU1WDzB35Y8K5TXPKFHWDz1Sgs8zi5ZPWik8Dx7Kxs9onTpOx/xCD2Y32o8\r\nN1QDPFhaLTw0pWw878KDPEAN/zz0rJ08YBuqPUzVrz6NVxg/vvg4P37mUD9nfYk++KACPARSJT5e\r\n3G89qipqPDd17z1ADXo9vxNYPZASEDtO1CM+EjpXPilGiT6o+rc+I34lPwbBLT8ETQU/EgyYPdhl\r\nlz0n46A9AgtrPJJ/NjznSgo+zGCAPYD9pD0RiZQ9KL/7PL2kyD0qPW49ubcpPY08NzxOJIA7VJDu\r\nO52w5jvxbTo7LoPFOsfjtjo/zR47IiVmO4+jNztrEkE6xt9nOrK5cjp3d9Q5CvMSO8BKOzwklv88\r\nYauOPBUERDwCPbw7+/jLOvzM+jrfUJ07lPAXOxTazzoGTaQ6U1fPOWjkGTkhFHM50CO8OE81GTqs\r\npqE5N9heObyPXTqA/Tw66CYJOkqsozl5J8k4XyM3OmisiDlya4g4/P+WOKNnhDh94Ko5WKWcOMy7\r\ntTiUta84JguJOKqlPDlTVH447JZzOAL9hTizdZM42xcEOeBcgzipQZ44vtW6ONJkgzg49Lw4vRx3\r\nOGQnZDj4uXU49niJOFx3eDhgUYs4OBeQOLRqdjhs9ZI4O0ODOIRoeTgMPHY4l7BsOJXnfjh5soU4\r\n3uOEOEKuXTgMU2c4kphWOA1KgDiQX3w4tYJ3OP7+aDiAdnk4AqNeOOJbbzhQHVE4+YpzOJ3/eDi3\r\nDls49jxZOJhpXTjuAG44rmlpOAQgijgBUmM47lNmOOgCXzj0d0U4kAFIOC74ajhxhFs44EdTOBhV\r\nWjhfRDA4CnpeOLyETTgyQk44BeFjODQAdjhJ9z04xIpRON0NXDgacmE4kHFFOGgVTDgNty84ZNFf\r\nOOQAKzjusUo4cMA6OGDSUzg1wz04CJU0OLIvUjg8wy04yIZOOO8YMDjfLi84LhVEOASYYTjYOj44\r\nlMU4OJBONjjIRD04tkM8ODIrRzg95iY4NuQ0ON6uQziSEiE4U+RJOESbRDhpiyw4Fho+OFLaODgQ\r\n6jA4h84xON+FLzjD2Bg44yQ0OGPcJDg93Ss4DJ8mOKIaLTjmrRg44vQtONFtLzhQAC84NEgUOHh2\r\nNDgq5Cg4m4gtOMICODiZxSw4bDUnOJsaBDjGhz84VKkWOB6tJTi2fCY4v6MRODLCKjg+IBI4XfIn\r\nOOyfHji+iys4ljIYOEraFDiptRA41cAcOC1CIjhKvyg4tC0TOA7fCzilIRA4oDMjOACQHTg48/83\r\nPL0bOG88DTgxayI4/vQdOMQgMTiGRTU4bwETOFimEjjjPAQ4ViwUOH4mCzjy+As4IJAROMYhGTiY\r\n3SE4oTnsN7WbEzjMVBo4DsECOPI5DDhAByA48gT3NyrF+jfWbAs4CpwtONmmEjjVew441ukQONTQ\r\nEjiVLhg4ATX8N0a8CThzKAY4DHMHOE6K+zcMBvo3CmkCOHVRCzi7v/g3qTQBOA5wJDin5w441XwA\r\nOHgD9Ddu5cU3KJkMOBTNDjgQcuc3DBDtN1oZ/Te/XAo4NzgPOAB1yzdKkA84PtD5NzLM8DdWuws4\r\npDb5N6By3jdBLw04vBruN5668zep4eU3uDz0N6jCAzgDNgc4nqHKNyjgEDh/ifg3Zy8bOHpPBDgL\r\nu/432lMIOJjz4jeOkuw3G8zjN+9QADg2f+w3xMz3N/Pa9TeQn+A3dTkJODgs+De0MwE4wI34N5W4\r\n+jcyvds3ZGHBN8uSzjd/Zvc34NvMN7jfAjh4DPE3z5/9NyYn1jcqLOc3obLmN7BHAjiyu/03XI7k\r\nN2/+2Dd2/rY3DlT0N5GiCDjGDc83Sp3wN1LP7Def6ro3LoHvNxg57DfQx9I3atreN+C98TfRsaw3\r\nqx7AN2ec7jdRPsw30za/N224yTflF9k3lLylN1dSpTdA2e833UjRNzRb9Dd2f8w3cqTYNyRq9Dcj\r\n7N43CDHjN200qDf82NY3zmniN+OItDeYv+03kUm+Nz517jdWH+s3kDfbNywm+jd2PPU3ynzQN5ng\r\n3TeY9tY3vX4LOGaa7DdYqsI33rvDN3WJ4TfeBd83xkC4N3DazjezK803mHLZN/Q+3DezEc03qJXE\r\nN+Z50TejAPw3+Vn2N1raxzeixtA3vEC5N9zCtDfe1es3Yz3ON9RLsjcIQas3EJu0N2rC4Tfbr7I3\r\n7nnBN30wxjfCjr439XrENz6CszeIisA3gTHSN0xA0zdnE8o37AHBN+OuzjdC38I3Dp7MNzHz2TcQ\r\ntqs3Q5zYN2QX0DeiZ8o3W3rdN/tMojccRLw3TTbDN8AvtTe8wZ43niqyN4Y19DdOIJs3kOrKNzyT\r\n0TcZzao3Q0+sN5lTqDfLL8E3qfKfNwpgpzfqpbI3y6GrN26lsDfT/cE3YyumNycR0DcEy6c3VP6F\r\nN52jzzfG+q037k+fNxTHrzdBZOk3TB/mN9hxujf4ebM38HHDN2TKoTdBr603rVekN3J/vDdCZME3\r\ngamgN//dzDduyoc38eyZN3ZiljcqJ7c3rG/CN1iFxDck6po3CrerNwabxjfQB5s39BWwN1z1mjfI\r\n7Mw3SqemN2hHtTdVo5w3TmyvN5zZxzd4r9Y3exfRN6OOzjdN+7Q3/HnBN/OisTcnK6w3qHrTN2Qs\r\npDfkrLA348zAN2neljcEs3c3kMCdN8NIozducow3bpuoNzVbuzef46034t6hN9BypjcUzr43JNa8\r\nN3PfoTfLgJI3b2yuN1y1pzf/4aQ3ABazN1Rivzc+oKA3dUCjN4/ikDfbW7Q3Q59mN+TQzjdvSaQ3\r\nACCgN7dzjzdhNLc3W9aMN9dAsjdlK703+N+zN3s9qTeu3qM3oMOUN7tSoje8sr03ZSeuN83WpTcW\r\njro3DrG3NxMxmDe6N643NXCnNwHcfzcEgbY34fKjNzAtljdMk6M3cZqcN5L3yjesWbM3ZkahN/2L\r\nrjfc+4Q32PWCN3MNqTdU0as3ymPON1NUmzcKmpU3JpqkN/ZWkTejN5c3CJuAN7pKhjef8KU33+rD\r\nN+jWmzcT/4U3MB6VN8x9gzdR37g3+c6rN1IAvzer/KA3hEWVN5mkmzc6mJk3/1CiN+2iiTekCqE3\r\nZwGGNxAdvjf9ApI3MSywN4ezgTc5gI83LXujNwX0tjfU/qU3S1OJN8UOtzdZM8s30xXCN/e7iTc8\r\n3oQ3/uiVNx+AvjdRqnI37KmfN5HkijceHq83M2W9N2SqiDd0TXU3GPGcN12pnzdePn03MIe/N+4R\r\nnjeO9JU3qWaaN93WjDdNaK03PGC5N24uojfwInk3dUKdN2XnvDcFUFE3iKWcNwlYlDeEyYo3NTzL\r\nNwPIlDfjh5s3JFyCN+jBhjdKUqc3evmNN39omzepdI43wOOPNzc7fTd8bJU3m/eNN7brnjc0nKo3\r\niWWTNzE5pDfxzZM354mQN9kuiTckm5M3DO+SN5Ywhzf/Taw3EDyMN/1SlzeLX4039FuqN+wXyDez\r\nMIs3yxGXNzkbnzcmiaA331afN8QjgjeGoJs3UhqRNwFWpje4KYo3SiWmN8gJpDfj14Q3EEqSN7RC\r\nrTcV1bs3G/2VN6AjfDcSZno30EiDN373nDf5Voc3NXaIN4z7lzf4zn83qSJ2N/xooDegvJw3GIh8\r\nNybqojd1upw383V3N9aTpDcudYk35UOANwJLnDelzZw3xDyMN8fGmDeO4503XCOYN0XXjDfL7JM3\r\naFKqN7BFnjfP1I03vkunN0mamjfQxI43pW6XN0xRiDfFSIA32QqGN+OZmDdHa5c3iLyVN+MWeTdl\r\nZpA32jShNwnoxTeMNZo3syG4NyX6rDcptaU3WUKkN5HyhzchPZw36WlzN563ozednmg3C1WiN3Rt\r\nqjd7dnk3Y8KSN2Norjdpx183iXJ9N1gekTflSYg3GiOfN5FSjzcRcnY3zc2PNxwvtTcmlE03VQqD\r\nNzRAoDedGJk3JHm1NzpNwjefHKc3FQugNxIRijfb9KY3l0GeN34LSTdtSMU3ACC+Nw==",
                            "noiseTrainingType" : "default"
                          }
                        }
                    ],
                    "start" : 1729,
                    "duration" : 92,
                    "mediaStart" : 2199,
                    "mediaDuration" : 92,
                    "scalar" : 1,
                    "metadata" : {
                      "WinSubProjectDisplayName" : "",
                      "clipSpeedAttribute" : false
                    },
                    "animationTracks" : {

                    }
                  },
                  {
                    "id" : 14,
                    "_type" : "AMFile",
                    "src" : 3,
                    "trackNumber" : 1,
                    "attributes" : {
                      "ident" : "tower-arch-02",
                      "sampleRate" : 44100,
                      "bitDepth" : 16,
                      "gain" : 1.0,
                      "mixToMono" : false
                    },
                      "channelNumber" : "0,1",
                    "effects" : [
                        {
                          "effectName" : "NoiseReduction",
                          "category" : "categoryAudioEffects",
                          "parameters" : {
                            "denoiserAmount" : 20.0,
                            "denoiserThreshold" : 0.0,
                            "noiseProfile" : "KdIUP/nTk0DO7ZA/KcmEP4EkX0BgoThCu6REQSL/6D+wZSNAXD1JQGOiej96mxZABPS7PnHDqD5G\r\nb7A+DQZUPqcZjz5qwNI+eJAXPgGSpT4pbTg/tpC2PvqeDT7DnUo/TKWcP6lATT9Ueqc/uJ4rQNfE\r\nUkCiMapAy4y5QJfHjkCc8PRAHTnqQclfWkFbimNAs4JzP81PMEAUaSA/IWJnPzS4CT/Yz+Y/3soK\r\nPzjovT5/67M/abVPP2a8rz8vvxc/Pl9+PhZ47T4E1Fc/rjhrPrXHpj4faJ4+uD9sP7/czT7HzAM/\r\nMlnbP1OpDD/ekMs/ch6xPwJbFj/Kz8E+0P9EP7Aa4T/mIjE/yh3CPsi4Ej8npCtA0H72P1DneT7j\r\n87Q+LphZPwQqrT5adjs/onZ5P2krZD4O+eU9mmdUPo5Hpz+qjYM+1iakPVXc6j2La0o+ZjHHPVNe\r\nRz4LFLs95SBfPex2lj1Ku3w95NWPPYgvCz4Iz0g+HSpHPnOtFT6WAEg9DplqPbBJsz2vMyo92RZA\r\nPV6f5j2qkW0+NAyJPaOMuj3TDoI+ulZIPnghtT5geOg9WvVhPSE+UTwoKdk8E0PvPD4PVz0S9Nc8\r\naxMOPZYXRz2m+wo92jQEPi4eMD2ZWTw9IrCqPKk+zTzPnds8/+I2PWCmVD3ck6g8tEzMPcq5kT3J\r\ndMQ84EZYPX/qzTwwIq08mqbwPGXWxTx47QA93oRDPejOOj3n3Fk8J4QYPWoW4j1CBDM9yKCqPUkK\r\nlT2Ovgw9QbsDPQqvyT1HMHA94/KhPKK1Az0166A9xaM2PVev9zzbF7E8NNPwPAvWSj3SWpM9VDpZ\r\nPaxOFD3YZxo+bDq7PBoZBz0rlAs9wLFMPZuybj2PQ7Q9m1GdPXhwtj4yMgo/LEMGPX7kbD+GxjM/\r\nfjUCPo3qGz0w70Q9rti5PQRGjz1HosA882m1PDMLzTzO0eY8ZZvnPNNOWz4djQc+WGIPQN4nD0BG\r\nYoNAAv2oQCs08kDq7B1Bbce8QC6dQ0DoPRNA+1gGQEJruj/2BiE/BfCHPc0QtTz225g84hBlPBCS\r\nNTz08CU9Wf2CPXzHFT0gXOQ8FpycPNbXTzxrq7E+PficP63X0z6bpw098NlZPUJCiDz6Dt88T13K\r\nPO171T7J3Bg/zB41PnN6AzywSJs9dUoWPkoGWT2LYF89lNMOPoKFVj8PURFA7r8HQEuNuT8Cn9E+\r\nQSGPP8ntAEBZqRJAdiu8P7LpsT+aKBs/GmeFPjsSlj23Jbk9+scIPtQZsj96U1xAV+qOP4ExUD+O\r\ncRQ/thlzPkWv5T7yOc0+qm/BPwiWYEBSRlM/2dKEP6AhxT7apT0+FMlWPuQTCj4G8jU9rkPBPCUf\r\ngT2rH6o97dG4PX7avjyy2DE+CQWIPrwlmD5cwE89GmWtPMPcCD0EfI084zgVPG//dD1b6Eg9HQ5+\r\nPNKl7zthel88qq0KPYuV9DyCy1c8wd+WPCuU1zzDWlg8qPoKPCxGWT1opPA8eysbPXw26Tsf8Qg9\r\ngmZqPDdUAzxYWi08NKVsPO/CgzxADf889KydPELaqT3Qva8+jEIYP/PYOD8ezFA/CUKJPvigAjxY\r\niSU+rmZvPYUcajwgcO89G6p5PXMeWD2QEhA7+MAjPgpIVz5GTok+lOK3PqlpJT+Xwi0/hGgFP8LH\r\nlz2YeJc9pS2hPakrazw0vDY8628KPl2dgD3FcqQ9TK+UPXXQ+zy8R8g9cqttPed3KT1KWDg86CF/\r\nOzIF8DtsgOc7S705Oy6DxTrH47Y6E6ofO4C1ZzvHAzc7axJBOsbfZzqyuXI6d3fUOVrKEjsfXjs8\r\n0jb/PGXCjjy180M8Ke69O6qizzqQOvs6YPedO5M8FztCetA6q6WlOt0jwznJ0RM5bfR1Oa8PxjjQ\r\nVxc6D4GmOQikUjlY6Fk6wuA7OjSWCDoYD6Q5gjSsOJaVODrEZYk56Jh4OHFqpjjbmoI4q0upOdY3\r\nmzix6a048tqvOKAqmzi2Ujo55kN1OCvchzgOnY84k6SMOBYf/jj7/nQ4Wd1yOE5Lyjhz9JY4vcC6\r\nOICpiThkmWM4985lOA6AjDgRdWw4LgKIOHXgjDiC/XQ4eseQOKWajTjKrYI4T7hjOF4SbjhqJoE4\r\nBhh8OI6PiDgwTVc4Bg5sODnmYDjqAoA4XuhtOKhkezhim2A4yj9yOK7PZjhGG2043p9aODBtgDgy\r\nCmk40P1rOJHRaDgca1I4/NdgODWXXDjIYX84wr9kOC5zajgcO1w45dU4OEovRjjzKWM4RJxrOJay\r\nYziUUks43vlFOFaKYzhymUk4cHpfONvWQDgeIHA4qC1BOP6eRzjG/FU4cvBaON+aRTjy/kw49i47\r\nOK+yWzjubiY4jalPOETCODiwjFw4AkpKOG4iNziO/0k4Dj0eOF7BPTi8bTE4dpg4OAwpUDig4nQ4\r\nSpZBOL1nPzht6Dk4j7tPOMO6STiiukU4CRgjOINPMTj6vEY4r10jOBA3RDiy1Ds4wCUlONITPDgg\r\nYjg4Ob1IOIZ3STiAtzk40KULOPRCKzjUHyE4BxUtODBcHjhiNic4xrwbOLp2KTiQbSY4nzYxOOeY\r\nHDjfSEI4/f4eONYLLji2Bj44aOcpOMQzKziVvg04SaBAODNcFjhWKRk4eREqOHD/EjhuQyU4ADwN\r\nONgkMDjF5So412InOJipCji3PBU4SPgPODJBGjh5mho4tNAmOAYDGjhdsRw49/4VOBwTJTgAfQ04\r\ncj0BOCHbLjglHQg4RHkfOCikHTi0Dik4ZTIsOGLzEDh+XRk4vK//N7OzHTi2gxA49B4JOAfTDzg6\r\nyQ84qEEPOIy72TdkXgw4Y3sUOFWZBjh8fgU4zRUnOC3/CzjnLf03HFsBOLf+HDhTCRI4ofALOCBS\r\nFDjGhxc4+BUGOE4w2Ded6wA4svgKOKqsEjia+ho4T8sIONSjBDh+Zgc4hrL2N34kCzja5Bk4HpUE\r\nONhBBTibnfU3zKS2N6b4AjjStxA45JjUN3kE+TdrMwM4LbgNONHCHDh7ZdI3m4AHOFE3BThnBgI4\r\nGGoHOHX+8zfiquY3rh4GOMiK5zfYJO43KrX4N4LZ7DfAqfQ3ihELOExP3TddtxY4zgr8N5p6ETi0\r\niAY4Ol7rNxEuAjjgVvU3jLEBOMJT5DdCsu837738N2ba/jcmv8s3R/vjNzgDCzivVwE4t3YMOJgn\r\n8jdeSuk3hfL3N0or5Tfqcsg3fX/5N7jE3Dd+puw3WM0COOokBDiGhrk3QNX+Nxbk9jeOswg4lrMJ\r\nOD+TxzdP4903mGLFNwJe5DfUbu83+DvlN8V8+TcQNsY3qHDRN3tm6jfjiOQ3Zj/bN/RmuzcOEwQ4\r\n0HHLN9phwTf4c+k3NoO+N40/nTdf+rQ3bmj5N7JxvzfWd6c3woDuNxeC0jf0udo3FenTN7io2DfQ\r\n6tI3TiPIN3Qt3Tdjd6w3BlXvN5VuATh0RKQ35CLdN/I9zjebKdY3Vrf3N6yU6jeuNtI3pMLaNz5s\r\n7De8R903pEPdN+iQEDj+l803aL/BN9kx5Dcn1e83LI/gN3jctjeYjs43xAm3N9o25DcaUcc3M/DJ\r\nN+6/3Tfua8A3xhHoN62ABjj+nNE3HH3LN6IqtjdQ2qo3sIqxN0tJtjeQ97M3DlmxN6aEyzfoKuU3\r\n9W6vN4rH0Tcs+L83WjHIN8yUzDdAp8E3eW6vN78LpjcYlNg3mCPsNyfAwTfPlsQ3mwbWN11U3TfC\r\n2d03Q1+9N/Cfyze1uc03/qLON1TjzDduqaU3cYPBN6CPrzdi47w31JK5Nx5btjdjku03rU65N9id\r\n8jd2bsk3Y/KbN6bIkTcEdqA3XpDLN95PlTfTtbM38mq5NxCSxTcB6ME3iOmuNxeKtDdC58M3jgKw\r\nN67LmDfS8sk3jc6mN4URnTe1Srw3LgnsN542uTca5Jo3Rii9NwiVvTfpvZg3RCy3N3WwqDerR8k3\r\n3mO4Ny4iuDdqq943LluTNzpoqDfap5A39YaxN5qatDefBLg3x+aZNwmqkjcfuNM3aXi4N9h+sjdN\r\nN5U3oFXVNzQjpzeJxcs3Wy+XN+q6tjeEkso3SkC3N9u3xTfOBNU3u7+0N0sBtzcyvJ83PJ6wN3J6\r\nwzfGX6o3VEC2N+YqqjeH6J43nkuON5hMjDfefrE38w2QN3rnkTfduak3IjqiN9gKpzfHH7A3vqnE\r\nN82RujfBrZM3YAeiN66PpjeM4Ys3PLinNyjnrjfvncM3PLGvN3k2jDeDeIc3sD6uN9fsZDf61tk3\r\nfCesN8zLpDeWsJE3sUXLN5R5ijduSqI3N024N2XUsTc2uak3gb+lN88eoje6iL43MEPTN3dvnzfL\r\niJ83Hl/BN3ZIozcNjaI3ZWihN4yRoze4pJQ3ZFepNyVfjDc0vpE3fSelNzFPrjcQ8s43zXmmN2lC\r\nqjeLAMA32EeGN++ZhTcHqZg3cKamN26dyjecBKc369WCNw7jkzdTY5k3PmOeN6vjmzde3J03zTOa\r\nN/KKxDc+oJ43LV+KN74qqDd5y5g3DICiN7raqzfKMrs37RqeN1q8kjfkjpw3jN6UN9pjmjd+q5Q3\r\njXaYN/NYiDegyuU3LLKMN4SIvjenI4M3MlqMN1mfujcnhrw3JxmYN+mEjDcFyL03cru/N66LsDez\r\na5I3oAOFN36FjDeknLc3qoCEN4/kozfoaXA3g8GmNyQhtjcsHYo3kfCON9fGhzcYP6A3TFmBN2KM\r\npDfI6Kc3YHegN6NVjTfIvoA3SpqkNw8pozceZKI3ITKcNxDwhjcPzag30U6CN/Jjkzc3pqw3UP2x\r\nN5KstjeAr4w3M6WFN+FPiDdS3ZI3UYCON1JghTcoUYk37OmZN+7clzeMwXk3AkCVNxDGfjevGpc3\r\nIueoNywXnDfAd7I3qG2YN92qkjd4EHc3Tm6HN/xagDdtgoI3as6iN//cjzey4p83AbOpN1BPuTfo\r\nPLI3G7qBN39YkjdvsJk3abCcNwWKjzdg0Yk3v32gN0mdjTfk35s3/EiSN68FnzdeQaI3m6uMN8hs\r\nljdoIJM3Hmm+N3UXxTd+y243RhNKN5ZEgzeoRpw3WpOEN1S5qDdKTag3ktZaN1zqhDcIYpo3TJ2d\r\nN0VTjDeu6Zc3LmSZNxbChDfCYLI3PpyiNwLvkzcAp5w3fCuGN7uViTc6n5Y3A2WZN/ovkjfP9Hg3\r\njBaMN6rwtDdwhq83kJeRN8lFlzdcsKE3ETGKNxSqhzdfvZI3GReUN6+DlTdPwZU3NSaXN0cWljcb\r\nomw3bOOaN3+rnjetFbk3YL2YN34urTdKKqs3Yz+nN0vKpDeahYc3UJemNw/1hDej67A3T61+Nxt2\r\nojeQ5pM3LfmJN8imgjd/hY03pHmAN7WGhjdOsI83rAGKN1p5izcrKZw3962TN8E1lDcEgZw3dnlc\r\nN21ZhTcSjKE3D+ilN3vqrzc7Zqk3yu+kNxaWpjffK4E3/IijN6IOoTdH23Y3gj/FNwBijjcp0hQ/\r\nFNGTQObskD8pyYQ/OB9fQOqgOEK7pERBIv/oPyRpI0BKUElAhap6P3qbFkAE9Ls+ccOoPkZvsD4N\r\nBlQ+pxmPPmrf0j63+Bc+AZKlPiltOD+2kLY+O/MNPsOdSj9MpZw/qUBNP1R6pz+4nitAlMJSQKIx\r\nqkDLjLlAQdCOQBbs9EDePOpBDl1aQVuKY0Ddp3M/zU8wQByAID8hYmc/NLgJP9jP5j/eygo/OOi9\r\nPn/rsz9ptU8/ZryvPy+/Fz8+X34+FnjtPgTUVz/aEms+tcemPh9onj64P2w/j+nNPqHcAz85V9s/\r\nU6kMP2yJyz8qKLE/AlsWPwzRwT7o9UQ/GBPhP+YiMT/xAcI+yLgSPyekK0Aof/Y/PNN5PuPztD6k\r\niFk/BCqtPlp2Oz+idnk/aStkPg755T0uZlQ+jkenP6qNgz4JG6Q9VdzqPYtrSj5mMcc9U15HPgsU\r\nuz2eSl89CU6WPUq7fD119Y89iC8LPnPXSD5cO0c+irQVPkRkSD12+mo9sEmzPQv6KT3nW0A994Dm\r\nPUBabT5Fq4g9htu5PTYugj7zWkg+WEe1PmB46D1a9WE9IT5RPGas2DwTQ+88Pg9XPRL01zxrEw49\r\nlhdHPab7Cj3YEgQ+s8QvPZlZPD0isKo8qT7NPM+d2zz8TTc9bM5TPcYCqTy0TMw9fdSRPcl0xDzg\r\nRlg9f+rNPDAirTyapvA8envFPHjtAD3ehEM96M46PefcWTwnhBg9ahbiPb8LMz0oiao9SQqVPY6+\r\nDD1BuwM9Cq/JPUcwcD3AjaI8orUDPTXroD3FozY9AED3PNsXsTzum+88C9ZKPdJakz1UOlk9rE4U\r\nPdhnGj6l6Lo8GhkHPSuUCz3AsUw9m7JuPVZ+tD38WZ09QV+2PqQpCj+cMwY91OxsP073Mz91dwI+\r\nc/8bPTDvRD0bM7o9GH6PPXIiwTy837Q8ipnMPM7R5jxYa+c8cUpbPqSLBz6EZw9Axy4PQCleg0AZ\r\n+qhAmiryQNzpHUFav7xAh59DQO1BE0AsXwZAKHe6PxXbID9Hooc9LsG0PAi/mTziEGU89A02PHfg\r\nJT1Z/YI9ZPQVPaTK5DwwaZw81tdPPHuxsT7UC50/fdzTPpunDT3w2Vk94x+IPPoO3zwaWMo8np7V\r\nPlDxGD8OFDU+FoEEPLSRmz10HhY+67pYPSIyXz3+xw4+yplWP71YEUDRxgdAlKS5P7KS0T71Ho8/\r\nBvwAQMqrEkBeJLw/5PSxPygvGz/PW4U+wSmWPbomuT0AcQg+lhGyP+M/XEDc5I4/bRNQPwhWFD+k\r\nPHM+XrblPtTyzD54Y8E/W5JgQFxRUz+F4YQ/lC/FPubPPT5WwFY++j4KPk9VNj0dv8E8Av6APXEe\r\nqj3C2bg9qo6/PMLiMT4MKog+IEKYPjvtTz1YxKw8LksIPQR8jTzjOBU8b/90PVvoSD1VJn480qXv\r\nO9x3XzyqrQo9OOjzPAU1WDzB35Y8K5TXPKFHWDz1Sgs8zi5ZPWik8Dx7Kxs9onTpOx/xCD2Y32o8\r\nN1QDPFhaLTw0pWw878KDPEAN/zz0rJ08YBuqPUzVrz6NVxg/vvg4P37mUD9nfYk++KACPARSJT5e\r\n3G89qipqPDd17z1ADXo9vxNYPZASEDtO1CM+EjpXPilGiT6o+rc+I34lPwbBLT8ETQU/EgyYPdhl\r\nlz0n46A9AgtrPJJ/NjznSgo+zGCAPYD9pD0RiZQ9KL/7PL2kyD0qPW49ubcpPY08NzxOJIA7VJDu\r\nO52w5jvxbTo7LoPFOsfjtjo/zR47IiVmO4+jNztrEkE6xt9nOrK5cjp3d9Q5CvMSO8BKOzwklv88\r\nYauOPBUERDwCPbw7+/jLOvzM+jrfUJ07lPAXOxTazzoGTaQ6U1fPOWjkGTkhFHM50CO8OE81GTqs\r\npqE5N9heObyPXTqA/Tw66CYJOkqsozl5J8k4XyM3OmisiDlya4g4/P+WOKNnhDh94Ko5WKWcOMy7\r\ntTiUta84JguJOKqlPDlTVH447JZzOAL9hTizdZM42xcEOeBcgzipQZ44vtW6ONJkgzg49Lw4vRx3\r\nOGQnZDj4uXU49niJOFx3eDhgUYs4OBeQOLRqdjhs9ZI4O0ODOIRoeTgMPHY4l7BsOJXnfjh5soU4\r\n3uOEOEKuXTgMU2c4kphWOA1KgDiQX3w4tYJ3OP7+aDiAdnk4AqNeOOJbbzhQHVE4+YpzOJ3/eDi3\r\nDls49jxZOJhpXTjuAG44rmlpOAQgijgBUmM47lNmOOgCXzj0d0U4kAFIOC74ajhxhFs44EdTOBhV\r\nWjhfRDA4CnpeOLyETTgyQk44BeFjODQAdjhJ9z04xIpRON0NXDgacmE4kHFFOGgVTDgNty84ZNFf\r\nOOQAKzjusUo4cMA6OGDSUzg1wz04CJU0OLIvUjg8wy04yIZOOO8YMDjfLi84LhVEOASYYTjYOj44\r\nlMU4OJBONjjIRD04tkM8ODIrRzg95iY4NuQ0ON6uQziSEiE4U+RJOESbRDhpiyw4Fho+OFLaODgQ\r\n6jA4h84xON+FLzjD2Bg44yQ0OGPcJDg93Ss4DJ8mOKIaLTjmrRg44vQtONFtLzhQAC84NEgUOHh2\r\nNDgq5Cg4m4gtOMICODiZxSw4bDUnOJsaBDjGhz84VKkWOB6tJTi2fCY4v6MRODLCKjg+IBI4XfIn\r\nOOyfHji+iys4ljIYOEraFDiptRA41cAcOC1CIjhKvyg4tC0TOA7fCzilIRA4oDMjOACQHTg48/83\r\nPL0bOG88DTgxayI4/vQdOMQgMTiGRTU4bwETOFimEjjjPAQ4ViwUOH4mCzjy+As4IJAROMYhGTiY\r\n3SE4oTnsN7WbEzjMVBo4DsECOPI5DDhAByA48gT3NyrF+jfWbAs4CpwtONmmEjjVew441ukQONTQ\r\nEjiVLhg4ATX8N0a8CThzKAY4DHMHOE6K+zcMBvo3CmkCOHVRCzi7v/g3qTQBOA5wJDin5w441XwA\r\nOHgD9Ddu5cU3KJkMOBTNDjgQcuc3DBDtN1oZ/Te/XAo4NzgPOAB1yzdKkA84PtD5NzLM8DdWuws4\r\npDb5N6By3jdBLw04vBruN5668zep4eU3uDz0N6jCAzgDNgc4nqHKNyjgEDh/ifg3Zy8bOHpPBDgL\r\nu/432lMIOJjz4jeOkuw3G8zjN+9QADg2f+w3xMz3N/Pa9TeQn+A3dTkJODgs+De0MwE4wI34N5W4\r\n+jcyvds3ZGHBN8uSzjd/Zvc34NvMN7jfAjh4DPE3z5/9NyYn1jcqLOc3obLmN7BHAjiyu/03XI7k\r\nN2/+2Dd2/rY3DlT0N5GiCDjGDc83Sp3wN1LP7Def6ro3LoHvNxg57DfQx9I3atreN+C98TfRsaw3\r\nqx7AN2ec7jdRPsw30za/N224yTflF9k3lLylN1dSpTdA2e833UjRNzRb9Dd2f8w3cqTYNyRq9Dcj\r\n7N43CDHjN200qDf82NY3zmniN+OItDeYv+03kUm+Nz517jdWH+s3kDfbNywm+jd2PPU3ynzQN5ng\r\n3TeY9tY3vX4LOGaa7DdYqsI33rvDN3WJ4TfeBd83xkC4N3DazjezK803mHLZN/Q+3DezEc03qJXE\r\nN+Z50TejAPw3+Vn2N1raxzeixtA3vEC5N9zCtDfe1es3Yz3ON9RLsjcIQas3EJu0N2rC4Tfbr7I3\r\n7nnBN30wxjfCjr439XrENz6CszeIisA3gTHSN0xA0zdnE8o37AHBN+OuzjdC38I3Dp7MNzHz2TcQ\r\ntqs3Q5zYN2QX0DeiZ8o3W3rdN/tMojccRLw3TTbDN8AvtTe8wZ43niqyN4Y19DdOIJs3kOrKNzyT\r\n0TcZzao3Q0+sN5lTqDfLL8E3qfKfNwpgpzfqpbI3y6GrN26lsDfT/cE3YyumNycR0DcEy6c3VP6F\r\nN52jzzfG+q037k+fNxTHrzdBZOk3TB/mN9hxujf4ebM38HHDN2TKoTdBr603rVekN3J/vDdCZME3\r\ngamgN//dzDduyoc38eyZN3ZiljcqJ7c3rG/CN1iFxDck6po3CrerNwabxjfQB5s39BWwN1z1mjfI\r\n7Mw3SqemN2hHtTdVo5w3TmyvN5zZxzd4r9Y3exfRN6OOzjdN+7Q3/HnBN/OisTcnK6w3qHrTN2Qs\r\npDfkrLA348zAN2neljcEs3c3kMCdN8NIozducow3bpuoNzVbuzef46034t6hN9BypjcUzr43JNa8\r\nN3PfoTfLgJI3b2yuN1y1pzf/4aQ3ABazN1Rivzc+oKA3dUCjN4/ikDfbW7Q3Q59mN+TQzjdvSaQ3\r\nACCgN7dzjzdhNLc3W9aMN9dAsjdlK703+N+zN3s9qTeu3qM3oMOUN7tSoje8sr03ZSeuN83WpTcW\r\njro3DrG3NxMxmDe6N643NXCnNwHcfzcEgbY34fKjNzAtljdMk6M3cZqcN5L3yjesWbM3ZkahN/2L\r\nrjfc+4Q32PWCN3MNqTdU0as3ymPON1NUmzcKmpU3JpqkN/ZWkTejN5c3CJuAN7pKhjef8KU33+rD\r\nN+jWmzcT/4U3MB6VN8x9gzdR37g3+c6rN1IAvzer/KA3hEWVN5mkmzc6mJk3/1CiN+2iiTekCqE3\r\nZwGGNxAdvjf9ApI3MSywN4ezgTc5gI83LXujNwX0tjfU/qU3S1OJN8UOtzdZM8s30xXCN/e7iTc8\r\n3oQ3/uiVNx+AvjdRqnI37KmfN5HkijceHq83M2W9N2SqiDd0TXU3GPGcN12pnzdePn03MIe/N+4R\r\nnjeO9JU3qWaaN93WjDdNaK03PGC5N24uojfwInk3dUKdN2XnvDcFUFE3iKWcNwlYlDeEyYo3NTzL\r\nNwPIlDfjh5s3JFyCN+jBhjdKUqc3evmNN39omzepdI43wOOPNzc7fTd8bJU3m/eNN7brnjc0nKo3\r\niWWTNzE5pDfxzZM354mQN9kuiTckm5M3DO+SN5Ywhzf/Taw3EDyMN/1SlzeLX4039FuqN+wXyDez\r\nMIs3yxGXNzkbnzcmiaA331afN8QjgjeGoJs3UhqRNwFWpje4KYo3SiWmN8gJpDfj14Q3EEqSN7RC\r\nrTcV1bs3G/2VN6AjfDcSZno30EiDN373nDf5Voc3NXaIN4z7lzf4zn83qSJ2N/xooDegvJw3GIh8\r\nNybqojd1upw383V3N9aTpDcudYk35UOANwJLnDelzZw3xDyMN8fGmDeO4503XCOYN0XXjDfL7JM3\r\naFKqN7BFnjfP1I03vkunN0mamjfQxI43pW6XN0xRiDfFSIA32QqGN+OZmDdHa5c3iLyVN+MWeTdl\r\nZpA32jShNwnoxTeMNZo3syG4NyX6rDcptaU3WUKkN5HyhzchPZw36WlzN563ozednmg3C1WiN3Rt\r\nqjd7dnk3Y8KSN2Norjdpx183iXJ9N1gekTflSYg3GiOfN5FSjzcRcnY3zc2PNxwvtTcmlE03VQqD\r\nNzRAoDedGJk3JHm1NzpNwjefHKc3FQugNxIRijfb9KY3l0GeN34LSTdtSMU3ACC+Nw==",
                            "noiseTrainingType" : "default"
                          }
                        }
                    ],
                    "start" : 1821,
                    "duration" : 31,
                    "mediaStart" : 2305,
                    "mediaDuration" : 31,
                    "scalar" : 1,
                    "metadata" : {
                      "WinSubProjectDisplayName" : "",
                      "clipSpeedAttribute" : false
                    },
                    "animationTracks" : {

                    }
                  },
                  {
                    "id" : 15,
                    "_type" : "AMFile",
                    "src" : 3,
                    "trackNumber" : 1,
                    "attributes" : {
                      "ident" : "tower-arch-02",
                      "sampleRate" : 44100,
                      "bitDepth" : 16,
                      "gain" : 1.0,
                      "mixToMono" : false
                    },
                      "channelNumber" : "0,1",
                    "effects" : [
                        {
                          "effectName" : "NoiseReduction",
                          "category" : "categoryAudioEffects",
                          "parameters" : {
                            "denoiserAmount" : 20.0,
                            "denoiserThreshold" : 0.0,
                            "noiseProfile" : "KdIUP/nTk0DO7ZA/KcmEP4EkX0BgoThCu6REQSL/6D+wZSNAXD1JQGOiej96mxZABPS7PnHDqD5G\r\nb7A+DQZUPqcZjz5qwNI+eJAXPgGSpT4pbTg/tpC2PvqeDT7DnUo/TKWcP6lATT9Ueqc/uJ4rQNfE\r\nUkCiMapAy4y5QJfHjkCc8PRAHTnqQclfWkFbimNAs4JzP81PMEAUaSA/IWJnPzS4CT/Yz+Y/3soK\r\nPzjovT5/67M/abVPP2a8rz8vvxc/Pl9+PhZ47T4E1Fc/rjhrPrXHpj4faJ4+uD9sP7/czT7HzAM/\r\nMlnbP1OpDD/ekMs/ch6xPwJbFj/Kz8E+0P9EP7Aa4T/mIjE/yh3CPsi4Ej8npCtA0H72P1DneT7j\r\n87Q+LphZPwQqrT5adjs/onZ5P2krZD4O+eU9mmdUPo5Hpz+qjYM+1iakPVXc6j2La0o+ZjHHPVNe\r\nRz4LFLs95SBfPex2lj1Ku3w95NWPPYgvCz4Iz0g+HSpHPnOtFT6WAEg9DplqPbBJsz2vMyo92RZA\r\nPV6f5j2qkW0+NAyJPaOMuj3TDoI+ulZIPnghtT5geOg9WvVhPSE+UTwoKdk8E0PvPD4PVz0S9Nc8\r\naxMOPZYXRz2m+wo92jQEPi4eMD2ZWTw9IrCqPKk+zTzPnds8/+I2PWCmVD3ck6g8tEzMPcq5kT3J\r\ndMQ84EZYPX/qzTwwIq08mqbwPGXWxTx47QA93oRDPejOOj3n3Fk8J4QYPWoW4j1CBDM9yKCqPUkK\r\nlT2Ovgw9QbsDPQqvyT1HMHA94/KhPKK1Az0166A9xaM2PVev9zzbF7E8NNPwPAvWSj3SWpM9VDpZ\r\nPaxOFD3YZxo+bDq7PBoZBz0rlAs9wLFMPZuybj2PQ7Q9m1GdPXhwtj4yMgo/LEMGPX7kbD+GxjM/\r\nfjUCPo3qGz0w70Q9rti5PQRGjz1HosA882m1PDMLzTzO0eY8ZZvnPNNOWz4djQc+WGIPQN4nD0BG\r\nYoNAAv2oQCs08kDq7B1Bbce8QC6dQ0DoPRNA+1gGQEJruj/2BiE/BfCHPc0QtTz225g84hBlPBCS\r\nNTz08CU9Wf2CPXzHFT0gXOQ8FpycPNbXTzxrq7E+PficP63X0z6bpw098NlZPUJCiDz6Dt88T13K\r\nPO171T7J3Bg/zB41PnN6AzywSJs9dUoWPkoGWT2LYF89lNMOPoKFVj8PURFA7r8HQEuNuT8Cn9E+\r\nQSGPP8ntAEBZqRJAdiu8P7LpsT+aKBs/GmeFPjsSlj23Jbk9+scIPtQZsj96U1xAV+qOP4ExUD+O\r\ncRQ/thlzPkWv5T7yOc0+qm/BPwiWYEBSRlM/2dKEP6AhxT7apT0+FMlWPuQTCj4G8jU9rkPBPCUf\r\ngT2rH6o97dG4PX7avjyy2DE+CQWIPrwlmD5cwE89GmWtPMPcCD0EfI084zgVPG//dD1b6Eg9HQ5+\r\nPNKl7zthel88qq0KPYuV9DyCy1c8wd+WPCuU1zzDWlg8qPoKPCxGWT1opPA8eysbPXw26Tsf8Qg9\r\ngmZqPDdUAzxYWi08NKVsPO/CgzxADf889KydPELaqT3Qva8+jEIYP/PYOD8ezFA/CUKJPvigAjxY\r\niSU+rmZvPYUcajwgcO89G6p5PXMeWD2QEhA7+MAjPgpIVz5GTok+lOK3PqlpJT+Xwi0/hGgFP8LH\r\nlz2YeJc9pS2hPakrazw0vDY8628KPl2dgD3FcqQ9TK+UPXXQ+zy8R8g9cqttPed3KT1KWDg86CF/\r\nOzIF8DtsgOc7S705Oy6DxTrH47Y6E6ofO4C1ZzvHAzc7axJBOsbfZzqyuXI6d3fUOVrKEjsfXjs8\r\n0jb/PGXCjjy180M8Ke69O6qizzqQOvs6YPedO5M8FztCetA6q6WlOt0jwznJ0RM5bfR1Oa8PxjjQ\r\nVxc6D4GmOQikUjlY6Fk6wuA7OjSWCDoYD6Q5gjSsOJaVODrEZYk56Jh4OHFqpjjbmoI4q0upOdY3\r\nmzix6a048tqvOKAqmzi2Ujo55kN1OCvchzgOnY84k6SMOBYf/jj7/nQ4Wd1yOE5Lyjhz9JY4vcC6\r\nOICpiThkmWM4985lOA6AjDgRdWw4LgKIOHXgjDiC/XQ4eseQOKWajTjKrYI4T7hjOF4SbjhqJoE4\r\nBhh8OI6PiDgwTVc4Bg5sODnmYDjqAoA4XuhtOKhkezhim2A4yj9yOK7PZjhGG2043p9aODBtgDgy\r\nCmk40P1rOJHRaDgca1I4/NdgODWXXDjIYX84wr9kOC5zajgcO1w45dU4OEovRjjzKWM4RJxrOJay\r\nYziUUks43vlFOFaKYzhymUk4cHpfONvWQDgeIHA4qC1BOP6eRzjG/FU4cvBaON+aRTjy/kw49i47\r\nOK+yWzjubiY4jalPOETCODiwjFw4AkpKOG4iNziO/0k4Dj0eOF7BPTi8bTE4dpg4OAwpUDig4nQ4\r\nSpZBOL1nPzht6Dk4j7tPOMO6STiiukU4CRgjOINPMTj6vEY4r10jOBA3RDiy1Ds4wCUlONITPDgg\r\nYjg4Ob1IOIZ3STiAtzk40KULOPRCKzjUHyE4BxUtODBcHjhiNic4xrwbOLp2KTiQbSY4nzYxOOeY\r\nHDjfSEI4/f4eONYLLji2Bj44aOcpOMQzKziVvg04SaBAODNcFjhWKRk4eREqOHD/EjhuQyU4ADwN\r\nONgkMDjF5So412InOJipCji3PBU4SPgPODJBGjh5mho4tNAmOAYDGjhdsRw49/4VOBwTJTgAfQ04\r\ncj0BOCHbLjglHQg4RHkfOCikHTi0Dik4ZTIsOGLzEDh+XRk4vK//N7OzHTi2gxA49B4JOAfTDzg6\r\nyQ84qEEPOIy72TdkXgw4Y3sUOFWZBjh8fgU4zRUnOC3/CzjnLf03HFsBOLf+HDhTCRI4ofALOCBS\r\nFDjGhxc4+BUGOE4w2Ded6wA4svgKOKqsEjia+ho4T8sIONSjBDh+Zgc4hrL2N34kCzja5Bk4HpUE\r\nONhBBTibnfU3zKS2N6b4AjjStxA45JjUN3kE+TdrMwM4LbgNONHCHDh7ZdI3m4AHOFE3BThnBgI4\r\nGGoHOHX+8zfiquY3rh4GOMiK5zfYJO43KrX4N4LZ7DfAqfQ3ihELOExP3TddtxY4zgr8N5p6ETi0\r\niAY4Ol7rNxEuAjjgVvU3jLEBOMJT5DdCsu837738N2ba/jcmv8s3R/vjNzgDCzivVwE4t3YMOJgn\r\n8jdeSuk3hfL3N0or5Tfqcsg3fX/5N7jE3Dd+puw3WM0COOokBDiGhrk3QNX+Nxbk9jeOswg4lrMJ\r\nOD+TxzdP4903mGLFNwJe5DfUbu83+DvlN8V8+TcQNsY3qHDRN3tm6jfjiOQ3Zj/bN/RmuzcOEwQ4\r\n0HHLN9phwTf4c+k3NoO+N40/nTdf+rQ3bmj5N7JxvzfWd6c3woDuNxeC0jf0udo3FenTN7io2DfQ\r\n6tI3TiPIN3Qt3Tdjd6w3BlXvN5VuATh0RKQ35CLdN/I9zjebKdY3Vrf3N6yU6jeuNtI3pMLaNz5s\r\n7De8R903pEPdN+iQEDj+l803aL/BN9kx5Dcn1e83LI/gN3jctjeYjs43xAm3N9o25DcaUcc3M/DJ\r\nN+6/3Tfua8A3xhHoN62ABjj+nNE3HH3LN6IqtjdQ2qo3sIqxN0tJtjeQ97M3DlmxN6aEyzfoKuU3\r\n9W6vN4rH0Tcs+L83WjHIN8yUzDdAp8E3eW6vN78LpjcYlNg3mCPsNyfAwTfPlsQ3mwbWN11U3TfC\r\n2d03Q1+9N/Cfyze1uc03/qLON1TjzDduqaU3cYPBN6CPrzdi47w31JK5Nx5btjdjku03rU65N9id\r\n8jd2bsk3Y/KbN6bIkTcEdqA3XpDLN95PlTfTtbM38mq5NxCSxTcB6ME3iOmuNxeKtDdC58M3jgKw\r\nN67LmDfS8sk3jc6mN4URnTe1Srw3LgnsN542uTca5Jo3Rii9NwiVvTfpvZg3RCy3N3WwqDerR8k3\r\n3mO4Ny4iuDdqq943LluTNzpoqDfap5A39YaxN5qatDefBLg3x+aZNwmqkjcfuNM3aXi4N9h+sjdN\r\nN5U3oFXVNzQjpzeJxcs3Wy+XN+q6tjeEkso3SkC3N9u3xTfOBNU3u7+0N0sBtzcyvJ83PJ6wN3J6\r\nwzfGX6o3VEC2N+YqqjeH6J43nkuON5hMjDfefrE38w2QN3rnkTfduak3IjqiN9gKpzfHH7A3vqnE\r\nN82RujfBrZM3YAeiN66PpjeM4Ys3PLinNyjnrjfvncM3PLGvN3k2jDeDeIc3sD6uN9fsZDf61tk3\r\nfCesN8zLpDeWsJE3sUXLN5R5ijduSqI3N024N2XUsTc2uak3gb+lN88eoje6iL43MEPTN3dvnzfL\r\niJ83Hl/BN3ZIozcNjaI3ZWihN4yRoze4pJQ3ZFepNyVfjDc0vpE3fSelNzFPrjcQ8s43zXmmN2lC\r\nqjeLAMA32EeGN++ZhTcHqZg3cKamN26dyjecBKc369WCNw7jkzdTY5k3PmOeN6vjmzde3J03zTOa\r\nN/KKxDc+oJ43LV+KN74qqDd5y5g3DICiN7raqzfKMrs37RqeN1q8kjfkjpw3jN6UN9pjmjd+q5Q3\r\njXaYN/NYiDegyuU3LLKMN4SIvjenI4M3MlqMN1mfujcnhrw3JxmYN+mEjDcFyL03cru/N66LsDez\r\na5I3oAOFN36FjDeknLc3qoCEN4/kozfoaXA3g8GmNyQhtjcsHYo3kfCON9fGhzcYP6A3TFmBN2KM\r\npDfI6Kc3YHegN6NVjTfIvoA3SpqkNw8pozceZKI3ITKcNxDwhjcPzag30U6CN/Jjkzc3pqw3UP2x\r\nN5KstjeAr4w3M6WFN+FPiDdS3ZI3UYCON1JghTcoUYk37OmZN+7clzeMwXk3AkCVNxDGfjevGpc3\r\nIueoNywXnDfAd7I3qG2YN92qkjd4EHc3Tm6HN/xagDdtgoI3as6iN//cjzey4p83AbOpN1BPuTfo\r\nPLI3G7qBN39YkjdvsJk3abCcNwWKjzdg0Yk3v32gN0mdjTfk35s3/EiSN68FnzdeQaI3m6uMN8hs\r\nljdoIJM3Hmm+N3UXxTd+y243RhNKN5ZEgzeoRpw3WpOEN1S5qDdKTag3ktZaN1zqhDcIYpo3TJ2d\r\nN0VTjDeu6Zc3LmSZNxbChDfCYLI3PpyiNwLvkzcAp5w3fCuGN7uViTc6n5Y3A2WZN/ovkjfP9Hg3\r\njBaMN6rwtDdwhq83kJeRN8lFlzdcsKE3ETGKNxSqhzdfvZI3GReUN6+DlTdPwZU3NSaXN0cWljcb\r\nomw3bOOaN3+rnjetFbk3YL2YN34urTdKKqs3Yz+nN0vKpDeahYc3UJemNw/1hDej67A3T61+Nxt2\r\nojeQ5pM3LfmJN8imgjd/hY03pHmAN7WGhjdOsI83rAGKN1p5izcrKZw3962TN8E1lDcEgZw3dnlc\r\nN21ZhTcSjKE3D+ilN3vqrzc7Zqk3yu+kNxaWpjffK4E3/IijN6IOoTdH23Y3gj/FNwBijjcp0hQ/\r\nFNGTQObskD8pyYQ/OB9fQOqgOEK7pERBIv/oPyRpI0BKUElAhap6P3qbFkAE9Ls+ccOoPkZvsD4N\r\nBlQ+pxmPPmrf0j63+Bc+AZKlPiltOD+2kLY+O/MNPsOdSj9MpZw/qUBNP1R6pz+4nitAlMJSQKIx\r\nqkDLjLlAQdCOQBbs9EDePOpBDl1aQVuKY0Ddp3M/zU8wQByAID8hYmc/NLgJP9jP5j/eygo/OOi9\r\nPn/rsz9ptU8/ZryvPy+/Fz8+X34+FnjtPgTUVz/aEms+tcemPh9onj64P2w/j+nNPqHcAz85V9s/\r\nU6kMP2yJyz8qKLE/AlsWPwzRwT7o9UQ/GBPhP+YiMT/xAcI+yLgSPyekK0Aof/Y/PNN5PuPztD6k\r\niFk/BCqtPlp2Oz+idnk/aStkPg755T0uZlQ+jkenP6qNgz4JG6Q9VdzqPYtrSj5mMcc9U15HPgsU\r\nuz2eSl89CU6WPUq7fD119Y89iC8LPnPXSD5cO0c+irQVPkRkSD12+mo9sEmzPQv6KT3nW0A994Dm\r\nPUBabT5Fq4g9htu5PTYugj7zWkg+WEe1PmB46D1a9WE9IT5RPGas2DwTQ+88Pg9XPRL01zxrEw49\r\nlhdHPab7Cj3YEgQ+s8QvPZlZPD0isKo8qT7NPM+d2zz8TTc9bM5TPcYCqTy0TMw9fdSRPcl0xDzg\r\nRlg9f+rNPDAirTyapvA8envFPHjtAD3ehEM96M46PefcWTwnhBg9ahbiPb8LMz0oiao9SQqVPY6+\r\nDD1BuwM9Cq/JPUcwcD3AjaI8orUDPTXroD3FozY9AED3PNsXsTzum+88C9ZKPdJakz1UOlk9rE4U\r\nPdhnGj6l6Lo8GhkHPSuUCz3AsUw9m7JuPVZ+tD38WZ09QV+2PqQpCj+cMwY91OxsP073Mz91dwI+\r\nc/8bPTDvRD0bM7o9GH6PPXIiwTy837Q8ipnMPM7R5jxYa+c8cUpbPqSLBz6EZw9Axy4PQCleg0AZ\r\n+qhAmiryQNzpHUFav7xAh59DQO1BE0AsXwZAKHe6PxXbID9Hooc9LsG0PAi/mTziEGU89A02PHfg\r\nJT1Z/YI9ZPQVPaTK5DwwaZw81tdPPHuxsT7UC50/fdzTPpunDT3w2Vk94x+IPPoO3zwaWMo8np7V\r\nPlDxGD8OFDU+FoEEPLSRmz10HhY+67pYPSIyXz3+xw4+yplWP71YEUDRxgdAlKS5P7KS0T71Ho8/\r\nBvwAQMqrEkBeJLw/5PSxPygvGz/PW4U+wSmWPbomuT0AcQg+lhGyP+M/XEDc5I4/bRNQPwhWFD+k\r\nPHM+XrblPtTyzD54Y8E/W5JgQFxRUz+F4YQ/lC/FPubPPT5WwFY++j4KPk9VNj0dv8E8Av6APXEe\r\nqj3C2bg9qo6/PMLiMT4MKog+IEKYPjvtTz1YxKw8LksIPQR8jTzjOBU8b/90PVvoSD1VJn480qXv\r\nO9x3XzyqrQo9OOjzPAU1WDzB35Y8K5TXPKFHWDz1Sgs8zi5ZPWik8Dx7Kxs9onTpOx/xCD2Y32o8\r\nN1QDPFhaLTw0pWw878KDPEAN/zz0rJ08YBuqPUzVrz6NVxg/vvg4P37mUD9nfYk++KACPARSJT5e\r\n3G89qipqPDd17z1ADXo9vxNYPZASEDtO1CM+EjpXPilGiT6o+rc+I34lPwbBLT8ETQU/EgyYPdhl\r\nlz0n46A9AgtrPJJ/NjznSgo+zGCAPYD9pD0RiZQ9KL/7PL2kyD0qPW49ubcpPY08NzxOJIA7VJDu\r\nO52w5jvxbTo7LoPFOsfjtjo/zR47IiVmO4+jNztrEkE6xt9nOrK5cjp3d9Q5CvMSO8BKOzwklv88\r\nYauOPBUERDwCPbw7+/jLOvzM+jrfUJ07lPAXOxTazzoGTaQ6U1fPOWjkGTkhFHM50CO8OE81GTqs\r\npqE5N9heObyPXTqA/Tw66CYJOkqsozl5J8k4XyM3OmisiDlya4g4/P+WOKNnhDh94Ko5WKWcOMy7\r\ntTiUta84JguJOKqlPDlTVH447JZzOAL9hTizdZM42xcEOeBcgzipQZ44vtW6ONJkgzg49Lw4vRx3\r\nOGQnZDj4uXU49niJOFx3eDhgUYs4OBeQOLRqdjhs9ZI4O0ODOIRoeTgMPHY4l7BsOJXnfjh5soU4\r\n3uOEOEKuXTgMU2c4kphWOA1KgDiQX3w4tYJ3OP7+aDiAdnk4AqNeOOJbbzhQHVE4+YpzOJ3/eDi3\r\nDls49jxZOJhpXTjuAG44rmlpOAQgijgBUmM47lNmOOgCXzj0d0U4kAFIOC74ajhxhFs44EdTOBhV\r\nWjhfRDA4CnpeOLyETTgyQk44BeFjODQAdjhJ9z04xIpRON0NXDgacmE4kHFFOGgVTDgNty84ZNFf\r\nOOQAKzjusUo4cMA6OGDSUzg1wz04CJU0OLIvUjg8wy04yIZOOO8YMDjfLi84LhVEOASYYTjYOj44\r\nlMU4OJBONjjIRD04tkM8ODIrRzg95iY4NuQ0ON6uQziSEiE4U+RJOESbRDhpiyw4Fho+OFLaODgQ\r\n6jA4h84xON+FLzjD2Bg44yQ0OGPcJDg93Ss4DJ8mOKIaLTjmrRg44vQtONFtLzhQAC84NEgUOHh2\r\nNDgq5Cg4m4gtOMICODiZxSw4bDUnOJsaBDjGhz84VKkWOB6tJTi2fCY4v6MRODLCKjg+IBI4XfIn\r\nOOyfHji+iys4ljIYOEraFDiptRA41cAcOC1CIjhKvyg4tC0TOA7fCzilIRA4oDMjOACQHTg48/83\r\nPL0bOG88DTgxayI4/vQdOMQgMTiGRTU4bwETOFimEjjjPAQ4ViwUOH4mCzjy+As4IJAROMYhGTiY\r\n3SE4oTnsN7WbEzjMVBo4DsECOPI5DDhAByA48gT3NyrF+jfWbAs4CpwtONmmEjjVew441ukQONTQ\r\nEjiVLhg4ATX8N0a8CThzKAY4DHMHOE6K+zcMBvo3CmkCOHVRCzi7v/g3qTQBOA5wJDin5w441XwA\r\nOHgD9Ddu5cU3KJkMOBTNDjgQcuc3DBDtN1oZ/Te/XAo4NzgPOAB1yzdKkA84PtD5NzLM8DdWuws4\r\npDb5N6By3jdBLw04vBruN5668zep4eU3uDz0N6jCAzgDNgc4nqHKNyjgEDh/ifg3Zy8bOHpPBDgL\r\nu/432lMIOJjz4jeOkuw3G8zjN+9QADg2f+w3xMz3N/Pa9TeQn+A3dTkJODgs+De0MwE4wI34N5W4\r\n+jcyvds3ZGHBN8uSzjd/Zvc34NvMN7jfAjh4DPE3z5/9NyYn1jcqLOc3obLmN7BHAjiyu/03XI7k\r\nN2/+2Dd2/rY3DlT0N5GiCDjGDc83Sp3wN1LP7Def6ro3LoHvNxg57DfQx9I3atreN+C98TfRsaw3\r\nqx7AN2ec7jdRPsw30za/N224yTflF9k3lLylN1dSpTdA2e833UjRNzRb9Dd2f8w3cqTYNyRq9Dcj\r\n7N43CDHjN200qDf82NY3zmniN+OItDeYv+03kUm+Nz517jdWH+s3kDfbNywm+jd2PPU3ynzQN5ng\r\n3TeY9tY3vX4LOGaa7DdYqsI33rvDN3WJ4TfeBd83xkC4N3DazjezK803mHLZN/Q+3DezEc03qJXE\r\nN+Z50TejAPw3+Vn2N1raxzeixtA3vEC5N9zCtDfe1es3Yz3ON9RLsjcIQas3EJu0N2rC4Tfbr7I3\r\n7nnBN30wxjfCjr439XrENz6CszeIisA3gTHSN0xA0zdnE8o37AHBN+OuzjdC38I3Dp7MNzHz2TcQ\r\ntqs3Q5zYN2QX0DeiZ8o3W3rdN/tMojccRLw3TTbDN8AvtTe8wZ43niqyN4Y19DdOIJs3kOrKNzyT\r\n0TcZzao3Q0+sN5lTqDfLL8E3qfKfNwpgpzfqpbI3y6GrN26lsDfT/cE3YyumNycR0DcEy6c3VP6F\r\nN52jzzfG+q037k+fNxTHrzdBZOk3TB/mN9hxujf4ebM38HHDN2TKoTdBr603rVekN3J/vDdCZME3\r\ngamgN//dzDduyoc38eyZN3ZiljcqJ7c3rG/CN1iFxDck6po3CrerNwabxjfQB5s39BWwN1z1mjfI\r\n7Mw3SqemN2hHtTdVo5w3TmyvN5zZxzd4r9Y3exfRN6OOzjdN+7Q3/HnBN/OisTcnK6w3qHrTN2Qs\r\npDfkrLA348zAN2neljcEs3c3kMCdN8NIozducow3bpuoNzVbuzef46034t6hN9BypjcUzr43JNa8\r\nN3PfoTfLgJI3b2yuN1y1pzf/4aQ3ABazN1Rivzc+oKA3dUCjN4/ikDfbW7Q3Q59mN+TQzjdvSaQ3\r\nACCgN7dzjzdhNLc3W9aMN9dAsjdlK703+N+zN3s9qTeu3qM3oMOUN7tSoje8sr03ZSeuN83WpTcW\r\njro3DrG3NxMxmDe6N643NXCnNwHcfzcEgbY34fKjNzAtljdMk6M3cZqcN5L3yjesWbM3ZkahN/2L\r\nrjfc+4Q32PWCN3MNqTdU0as3ymPON1NUmzcKmpU3JpqkN/ZWkTejN5c3CJuAN7pKhjef8KU33+rD\r\nN+jWmzcT/4U3MB6VN8x9gzdR37g3+c6rN1IAvzer/KA3hEWVN5mkmzc6mJk3/1CiN+2iiTekCqE3\r\nZwGGNxAdvjf9ApI3MSywN4ezgTc5gI83LXujNwX0tjfU/qU3S1OJN8UOtzdZM8s30xXCN/e7iTc8\r\n3oQ3/uiVNx+AvjdRqnI37KmfN5HkijceHq83M2W9N2SqiDd0TXU3GPGcN12pnzdePn03MIe/N+4R\r\nnjeO9JU3qWaaN93WjDdNaK03PGC5N24uojfwInk3dUKdN2XnvDcFUFE3iKWcNwlYlDeEyYo3NTzL\r\nNwPIlDfjh5s3JFyCN+jBhjdKUqc3evmNN39omzepdI43wOOPNzc7fTd8bJU3m/eNN7brnjc0nKo3\r\niWWTNzE5pDfxzZM354mQN9kuiTckm5M3DO+SN5Ywhzf/Taw3EDyMN/1SlzeLX4039FuqN+wXyDez\r\nMIs3yxGXNzkbnzcmiaA331afN8QjgjeGoJs3UhqRNwFWpje4KYo3SiWmN8gJpDfj14Q3EEqSN7RC\r\nrTcV1bs3G/2VN6AjfDcSZno30EiDN373nDf5Voc3NXaIN4z7lzf4zn83qSJ2N/xooDegvJw3GIh8\r\nNybqojd1upw383V3N9aTpDcudYk35UOANwJLnDelzZw3xDyMN8fGmDeO4503XCOYN0XXjDfL7JM3\r\naFKqN7BFnjfP1I03vkunN0mamjfQxI43pW6XN0xRiDfFSIA32QqGN+OZmDdHa5c3iLyVN+MWeTdl\r\nZpA32jShNwnoxTeMNZo3syG4NyX6rDcptaU3WUKkN5HyhzchPZw36WlzN563ozednmg3C1WiN3Rt\r\nqjd7dnk3Y8KSN2Norjdpx183iXJ9N1gekTflSYg3GiOfN5FSjzcRcnY3zc2PNxwvtTcmlE03VQqD\r\nNzRAoDedGJk3JHm1NzpNwjefHKc3FQugNxIRijfb9KY3l0GeN34LSTdtSMU3ACC+Nw==",
                            "noiseTrainingType" : "default"
                          }
                        }
                    ],
                    "start" : 1852,
                    "duration" : 13,
                    "mediaStart" : 2340,
                    "mediaDuration" : 13,
                    "scalar" : 1,
                    "metadata" : {
                      "WinSubProjectDisplayName" : "",
                      "clipSpeedAttribute" : false
                    },
                    "animationTracks" : {

                    }
                  },
                  {
                    "id" : 16,
                    "_type" : "AMFile",
                    "src" : 3,
                    "trackNumber" : 1,
                    "attributes" : {
                      "ident" : "tower-arch-02",
                      "sampleRate" : 44100,
                      "bitDepth" : 16,
                      "gain" : 1.0,
                      "mixToMono" : false
                    },
                      "channelNumber" : "0,1",
                    "effects" : [
                        {
                          "effectName" : "NoiseReduction",
                          "category" : "categoryAudioEffects",
                          "parameters" : {
                            "denoiserAmount" : 20.0,
                            "denoiserThreshold" : 0.0,
                            "noiseProfile" : "KdIUP/nTk0DO7ZA/KcmEP4EkX0BgoThCu6REQSL/6D+wZSNAXD1JQGOiej96mxZABPS7PnHDqD5G\r\nb7A+DQZUPqcZjz5qwNI+eJAXPgGSpT4pbTg/tpC2PvqeDT7DnUo/TKWcP6lATT9Ueqc/uJ4rQNfE\r\nUkCiMapAy4y5QJfHjkCc8PRAHTnqQclfWkFbimNAs4JzP81PMEAUaSA/IWJnPzS4CT/Yz+Y/3soK\r\nPzjovT5/67M/abVPP2a8rz8vvxc/Pl9+PhZ47T4E1Fc/rjhrPrXHpj4faJ4+uD9sP7/czT7HzAM/\r\nMlnbP1OpDD/ekMs/ch6xPwJbFj/Kz8E+0P9EP7Aa4T/mIjE/yh3CPsi4Ej8npCtA0H72P1DneT7j\r\n87Q+LphZPwQqrT5adjs/onZ5P2krZD4O+eU9mmdUPo5Hpz+qjYM+1iakPVXc6j2La0o+ZjHHPVNe\r\nRz4LFLs95SBfPex2lj1Ku3w95NWPPYgvCz4Iz0g+HSpHPnOtFT6WAEg9DplqPbBJsz2vMyo92RZA\r\nPV6f5j2qkW0+NAyJPaOMuj3TDoI+ulZIPnghtT5geOg9WvVhPSE+UTwoKdk8E0PvPD4PVz0S9Nc8\r\naxMOPZYXRz2m+wo92jQEPi4eMD2ZWTw9IrCqPKk+zTzPnds8/+I2PWCmVD3ck6g8tEzMPcq5kT3J\r\ndMQ84EZYPX/qzTwwIq08mqbwPGXWxTx47QA93oRDPejOOj3n3Fk8J4QYPWoW4j1CBDM9yKCqPUkK\r\nlT2Ovgw9QbsDPQqvyT1HMHA94/KhPKK1Az0166A9xaM2PVev9zzbF7E8NNPwPAvWSj3SWpM9VDpZ\r\nPaxOFD3YZxo+bDq7PBoZBz0rlAs9wLFMPZuybj2PQ7Q9m1GdPXhwtj4yMgo/LEMGPX7kbD+GxjM/\r\nfjUCPo3qGz0w70Q9rti5PQRGjz1HosA882m1PDMLzTzO0eY8ZZvnPNNOWz4djQc+WGIPQN4nD0BG\r\nYoNAAv2oQCs08kDq7B1Bbce8QC6dQ0DoPRNA+1gGQEJruj/2BiE/BfCHPc0QtTz225g84hBlPBCS\r\nNTz08CU9Wf2CPXzHFT0gXOQ8FpycPNbXTzxrq7E+PficP63X0z6bpw098NlZPUJCiDz6Dt88T13K\r\nPO171T7J3Bg/zB41PnN6AzywSJs9dUoWPkoGWT2LYF89lNMOPoKFVj8PURFA7r8HQEuNuT8Cn9E+\r\nQSGPP8ntAEBZqRJAdiu8P7LpsT+aKBs/GmeFPjsSlj23Jbk9+scIPtQZsj96U1xAV+qOP4ExUD+O\r\ncRQ/thlzPkWv5T7yOc0+qm/BPwiWYEBSRlM/2dKEP6AhxT7apT0+FMlWPuQTCj4G8jU9rkPBPCUf\r\ngT2rH6o97dG4PX7avjyy2DE+CQWIPrwlmD5cwE89GmWtPMPcCD0EfI084zgVPG//dD1b6Eg9HQ5+\r\nPNKl7zthel88qq0KPYuV9DyCy1c8wd+WPCuU1zzDWlg8qPoKPCxGWT1opPA8eysbPXw26Tsf8Qg9\r\ngmZqPDdUAzxYWi08NKVsPO/CgzxADf889KydPELaqT3Qva8+jEIYP/PYOD8ezFA/CUKJPvigAjxY\r\niSU+rmZvPYUcajwgcO89G6p5PXMeWD2QEhA7+MAjPgpIVz5GTok+lOK3PqlpJT+Xwi0/hGgFP8LH\r\nlz2YeJc9pS2hPakrazw0vDY8628KPl2dgD3FcqQ9TK+UPXXQ+zy8R8g9cqttPed3KT1KWDg86CF/\r\nOzIF8DtsgOc7S705Oy6DxTrH47Y6E6ofO4C1ZzvHAzc7axJBOsbfZzqyuXI6d3fUOVrKEjsfXjs8\r\n0jb/PGXCjjy180M8Ke69O6qizzqQOvs6YPedO5M8FztCetA6q6WlOt0jwznJ0RM5bfR1Oa8PxjjQ\r\nVxc6D4GmOQikUjlY6Fk6wuA7OjSWCDoYD6Q5gjSsOJaVODrEZYk56Jh4OHFqpjjbmoI4q0upOdY3\r\nmzix6a048tqvOKAqmzi2Ujo55kN1OCvchzgOnY84k6SMOBYf/jj7/nQ4Wd1yOE5Lyjhz9JY4vcC6\r\nOICpiThkmWM4985lOA6AjDgRdWw4LgKIOHXgjDiC/XQ4eseQOKWajTjKrYI4T7hjOF4SbjhqJoE4\r\nBhh8OI6PiDgwTVc4Bg5sODnmYDjqAoA4XuhtOKhkezhim2A4yj9yOK7PZjhGG2043p9aODBtgDgy\r\nCmk40P1rOJHRaDgca1I4/NdgODWXXDjIYX84wr9kOC5zajgcO1w45dU4OEovRjjzKWM4RJxrOJay\r\nYziUUks43vlFOFaKYzhymUk4cHpfONvWQDgeIHA4qC1BOP6eRzjG/FU4cvBaON+aRTjy/kw49i47\r\nOK+yWzjubiY4jalPOETCODiwjFw4AkpKOG4iNziO/0k4Dj0eOF7BPTi8bTE4dpg4OAwpUDig4nQ4\r\nSpZBOL1nPzht6Dk4j7tPOMO6STiiukU4CRgjOINPMTj6vEY4r10jOBA3RDiy1Ds4wCUlONITPDgg\r\nYjg4Ob1IOIZ3STiAtzk40KULOPRCKzjUHyE4BxUtODBcHjhiNic4xrwbOLp2KTiQbSY4nzYxOOeY\r\nHDjfSEI4/f4eONYLLji2Bj44aOcpOMQzKziVvg04SaBAODNcFjhWKRk4eREqOHD/EjhuQyU4ADwN\r\nONgkMDjF5So412InOJipCji3PBU4SPgPODJBGjh5mho4tNAmOAYDGjhdsRw49/4VOBwTJTgAfQ04\r\ncj0BOCHbLjglHQg4RHkfOCikHTi0Dik4ZTIsOGLzEDh+XRk4vK//N7OzHTi2gxA49B4JOAfTDzg6\r\nyQ84qEEPOIy72TdkXgw4Y3sUOFWZBjh8fgU4zRUnOC3/CzjnLf03HFsBOLf+HDhTCRI4ofALOCBS\r\nFDjGhxc4+BUGOE4w2Ded6wA4svgKOKqsEjia+ho4T8sIONSjBDh+Zgc4hrL2N34kCzja5Bk4HpUE\r\nONhBBTibnfU3zKS2N6b4AjjStxA45JjUN3kE+TdrMwM4LbgNONHCHDh7ZdI3m4AHOFE3BThnBgI4\r\nGGoHOHX+8zfiquY3rh4GOMiK5zfYJO43KrX4N4LZ7DfAqfQ3ihELOExP3TddtxY4zgr8N5p6ETi0\r\niAY4Ol7rNxEuAjjgVvU3jLEBOMJT5DdCsu837738N2ba/jcmv8s3R/vjNzgDCzivVwE4t3YMOJgn\r\n8jdeSuk3hfL3N0or5Tfqcsg3fX/5N7jE3Dd+puw3WM0COOokBDiGhrk3QNX+Nxbk9jeOswg4lrMJ\r\nOD+TxzdP4903mGLFNwJe5DfUbu83+DvlN8V8+TcQNsY3qHDRN3tm6jfjiOQ3Zj/bN/RmuzcOEwQ4\r\n0HHLN9phwTf4c+k3NoO+N40/nTdf+rQ3bmj5N7JxvzfWd6c3woDuNxeC0jf0udo3FenTN7io2DfQ\r\n6tI3TiPIN3Qt3Tdjd6w3BlXvN5VuATh0RKQ35CLdN/I9zjebKdY3Vrf3N6yU6jeuNtI3pMLaNz5s\r\n7De8R903pEPdN+iQEDj+l803aL/BN9kx5Dcn1e83LI/gN3jctjeYjs43xAm3N9o25DcaUcc3M/DJ\r\nN+6/3Tfua8A3xhHoN62ABjj+nNE3HH3LN6IqtjdQ2qo3sIqxN0tJtjeQ97M3DlmxN6aEyzfoKuU3\r\n9W6vN4rH0Tcs+L83WjHIN8yUzDdAp8E3eW6vN78LpjcYlNg3mCPsNyfAwTfPlsQ3mwbWN11U3TfC\r\n2d03Q1+9N/Cfyze1uc03/qLON1TjzDduqaU3cYPBN6CPrzdi47w31JK5Nx5btjdjku03rU65N9id\r\n8jd2bsk3Y/KbN6bIkTcEdqA3XpDLN95PlTfTtbM38mq5NxCSxTcB6ME3iOmuNxeKtDdC58M3jgKw\r\nN67LmDfS8sk3jc6mN4URnTe1Srw3LgnsN542uTca5Jo3Rii9NwiVvTfpvZg3RCy3N3WwqDerR8k3\r\n3mO4Ny4iuDdqq943LluTNzpoqDfap5A39YaxN5qatDefBLg3x+aZNwmqkjcfuNM3aXi4N9h+sjdN\r\nN5U3oFXVNzQjpzeJxcs3Wy+XN+q6tjeEkso3SkC3N9u3xTfOBNU3u7+0N0sBtzcyvJ83PJ6wN3J6\r\nwzfGX6o3VEC2N+YqqjeH6J43nkuON5hMjDfefrE38w2QN3rnkTfduak3IjqiN9gKpzfHH7A3vqnE\r\nN82RujfBrZM3YAeiN66PpjeM4Ys3PLinNyjnrjfvncM3PLGvN3k2jDeDeIc3sD6uN9fsZDf61tk3\r\nfCesN8zLpDeWsJE3sUXLN5R5ijduSqI3N024N2XUsTc2uak3gb+lN88eoje6iL43MEPTN3dvnzfL\r\niJ83Hl/BN3ZIozcNjaI3ZWihN4yRoze4pJQ3ZFepNyVfjDc0vpE3fSelNzFPrjcQ8s43zXmmN2lC\r\nqjeLAMA32EeGN++ZhTcHqZg3cKamN26dyjecBKc369WCNw7jkzdTY5k3PmOeN6vjmzde3J03zTOa\r\nN/KKxDc+oJ43LV+KN74qqDd5y5g3DICiN7raqzfKMrs37RqeN1q8kjfkjpw3jN6UN9pjmjd+q5Q3\r\njXaYN/NYiDegyuU3LLKMN4SIvjenI4M3MlqMN1mfujcnhrw3JxmYN+mEjDcFyL03cru/N66LsDez\r\na5I3oAOFN36FjDeknLc3qoCEN4/kozfoaXA3g8GmNyQhtjcsHYo3kfCON9fGhzcYP6A3TFmBN2KM\r\npDfI6Kc3YHegN6NVjTfIvoA3SpqkNw8pozceZKI3ITKcNxDwhjcPzag30U6CN/Jjkzc3pqw3UP2x\r\nN5KstjeAr4w3M6WFN+FPiDdS3ZI3UYCON1JghTcoUYk37OmZN+7clzeMwXk3AkCVNxDGfjevGpc3\r\nIueoNywXnDfAd7I3qG2YN92qkjd4EHc3Tm6HN/xagDdtgoI3as6iN//cjzey4p83AbOpN1BPuTfo\r\nPLI3G7qBN39YkjdvsJk3abCcNwWKjzdg0Yk3v32gN0mdjTfk35s3/EiSN68FnzdeQaI3m6uMN8hs\r\nljdoIJM3Hmm+N3UXxTd+y243RhNKN5ZEgzeoRpw3WpOEN1S5qDdKTag3ktZaN1zqhDcIYpo3TJ2d\r\nN0VTjDeu6Zc3LmSZNxbChDfCYLI3PpyiNwLvkzcAp5w3fCuGN7uViTc6n5Y3A2WZN/ovkjfP9Hg3\r\njBaMN6rwtDdwhq83kJeRN8lFlzdcsKE3ETGKNxSqhzdfvZI3GReUN6+DlTdPwZU3NSaXN0cWljcb\r\nomw3bOOaN3+rnjetFbk3YL2YN34urTdKKqs3Yz+nN0vKpDeahYc3UJemNw/1hDej67A3T61+Nxt2\r\nojeQ5pM3LfmJN8imgjd/hY03pHmAN7WGhjdOsI83rAGKN1p5izcrKZw3962TN8E1lDcEgZw3dnlc\r\nN21ZhTcSjKE3D+ilN3vqrzc7Zqk3yu+kNxaWpjffK4E3/IijN6IOoTdH23Y3gj/FNwBijjcp0hQ/\r\nFNGTQObskD8pyYQ/OB9fQOqgOEK7pERBIv/oPyRpI0BKUElAhap6P3qbFkAE9Ls+ccOoPkZvsD4N\r\nBlQ+pxmPPmrf0j63+Bc+AZKlPiltOD+2kLY+O/MNPsOdSj9MpZw/qUBNP1R6pz+4nitAlMJSQKIx\r\nqkDLjLlAQdCOQBbs9EDePOpBDl1aQVuKY0Ddp3M/zU8wQByAID8hYmc/NLgJP9jP5j/eygo/OOi9\r\nPn/rsz9ptU8/ZryvPy+/Fz8+X34+FnjtPgTUVz/aEms+tcemPh9onj64P2w/j+nNPqHcAz85V9s/\r\nU6kMP2yJyz8qKLE/AlsWPwzRwT7o9UQ/GBPhP+YiMT/xAcI+yLgSPyekK0Aof/Y/PNN5PuPztD6k\r\niFk/BCqtPlp2Oz+idnk/aStkPg755T0uZlQ+jkenP6qNgz4JG6Q9VdzqPYtrSj5mMcc9U15HPgsU\r\nuz2eSl89CU6WPUq7fD119Y89iC8LPnPXSD5cO0c+irQVPkRkSD12+mo9sEmzPQv6KT3nW0A994Dm\r\nPUBabT5Fq4g9htu5PTYugj7zWkg+WEe1PmB46D1a9WE9IT5RPGas2DwTQ+88Pg9XPRL01zxrEw49\r\nlhdHPab7Cj3YEgQ+s8QvPZlZPD0isKo8qT7NPM+d2zz8TTc9bM5TPcYCqTy0TMw9fdSRPcl0xDzg\r\nRlg9f+rNPDAirTyapvA8envFPHjtAD3ehEM96M46PefcWTwnhBg9ahbiPb8LMz0oiao9SQqVPY6+\r\nDD1BuwM9Cq/JPUcwcD3AjaI8orUDPTXroD3FozY9AED3PNsXsTzum+88C9ZKPdJakz1UOlk9rE4U\r\nPdhnGj6l6Lo8GhkHPSuUCz3AsUw9m7JuPVZ+tD38WZ09QV+2PqQpCj+cMwY91OxsP073Mz91dwI+\r\nc/8bPTDvRD0bM7o9GH6PPXIiwTy837Q8ipnMPM7R5jxYa+c8cUpbPqSLBz6EZw9Axy4PQCleg0AZ\r\n+qhAmiryQNzpHUFav7xAh59DQO1BE0AsXwZAKHe6PxXbID9Hooc9LsG0PAi/mTziEGU89A02PHfg\r\nJT1Z/YI9ZPQVPaTK5DwwaZw81tdPPHuxsT7UC50/fdzTPpunDT3w2Vk94x+IPPoO3zwaWMo8np7V\r\nPlDxGD8OFDU+FoEEPLSRmz10HhY+67pYPSIyXz3+xw4+yplWP71YEUDRxgdAlKS5P7KS0T71Ho8/\r\nBvwAQMqrEkBeJLw/5PSxPygvGz/PW4U+wSmWPbomuT0AcQg+lhGyP+M/XEDc5I4/bRNQPwhWFD+k\r\nPHM+XrblPtTyzD54Y8E/W5JgQFxRUz+F4YQ/lC/FPubPPT5WwFY++j4KPk9VNj0dv8E8Av6APXEe\r\nqj3C2bg9qo6/PMLiMT4MKog+IEKYPjvtTz1YxKw8LksIPQR8jTzjOBU8b/90PVvoSD1VJn480qXv\r\nO9x3XzyqrQo9OOjzPAU1WDzB35Y8K5TXPKFHWDz1Sgs8zi5ZPWik8Dx7Kxs9onTpOx/xCD2Y32o8\r\nN1QDPFhaLTw0pWw878KDPEAN/zz0rJ08YBuqPUzVrz6NVxg/vvg4P37mUD9nfYk++KACPARSJT5e\r\n3G89qipqPDd17z1ADXo9vxNYPZASEDtO1CM+EjpXPilGiT6o+rc+I34lPwbBLT8ETQU/EgyYPdhl\r\nlz0n46A9AgtrPJJ/NjznSgo+zGCAPYD9pD0RiZQ9KL/7PL2kyD0qPW49ubcpPY08NzxOJIA7VJDu\r\nO52w5jvxbTo7LoPFOsfjtjo/zR47IiVmO4+jNztrEkE6xt9nOrK5cjp3d9Q5CvMSO8BKOzwklv88\r\nYauOPBUERDwCPbw7+/jLOvzM+jrfUJ07lPAXOxTazzoGTaQ6U1fPOWjkGTkhFHM50CO8OE81GTqs\r\npqE5N9heObyPXTqA/Tw66CYJOkqsozl5J8k4XyM3OmisiDlya4g4/P+WOKNnhDh94Ko5WKWcOMy7\r\ntTiUta84JguJOKqlPDlTVH447JZzOAL9hTizdZM42xcEOeBcgzipQZ44vtW6ONJkgzg49Lw4vRx3\r\nOGQnZDj4uXU49niJOFx3eDhgUYs4OBeQOLRqdjhs9ZI4O0ODOIRoeTgMPHY4l7BsOJXnfjh5soU4\r\n3uOEOEKuXTgMU2c4kphWOA1KgDiQX3w4tYJ3OP7+aDiAdnk4AqNeOOJbbzhQHVE4+YpzOJ3/eDi3\r\nDls49jxZOJhpXTjuAG44rmlpOAQgijgBUmM47lNmOOgCXzj0d0U4kAFIOC74ajhxhFs44EdTOBhV\r\nWjhfRDA4CnpeOLyETTgyQk44BeFjODQAdjhJ9z04xIpRON0NXDgacmE4kHFFOGgVTDgNty84ZNFf\r\nOOQAKzjusUo4cMA6OGDSUzg1wz04CJU0OLIvUjg8wy04yIZOOO8YMDjfLi84LhVEOASYYTjYOj44\r\nlMU4OJBONjjIRD04tkM8ODIrRzg95iY4NuQ0ON6uQziSEiE4U+RJOESbRDhpiyw4Fho+OFLaODgQ\r\n6jA4h84xON+FLzjD2Bg44yQ0OGPcJDg93Ss4DJ8mOKIaLTjmrRg44vQtONFtLzhQAC84NEgUOHh2\r\nNDgq5Cg4m4gtOMICODiZxSw4bDUnOJsaBDjGhz84VKkWOB6tJTi2fCY4v6MRODLCKjg+IBI4XfIn\r\nOOyfHji+iys4ljIYOEraFDiptRA41cAcOC1CIjhKvyg4tC0TOA7fCzilIRA4oDMjOACQHTg48/83\r\nPL0bOG88DTgxayI4/vQdOMQgMTiGRTU4bwETOFimEjjjPAQ4ViwUOH4mCzjy+As4IJAROMYhGTiY\r\n3SE4oTnsN7WbEzjMVBo4DsECOPI5DDhAByA48gT3NyrF+jfWbAs4CpwtONmmEjjVew441ukQONTQ\r\nEjiVLhg4ATX8N0a8CThzKAY4DHMHOE6K+zcMBvo3CmkCOHVRCzi7v/g3qTQBOA5wJDin5w441XwA\r\nOHgD9Ddu5cU3KJkMOBTNDjgQcuc3DBDtN1oZ/Te/XAo4NzgPOAB1yzdKkA84PtD5NzLM8DdWuws4\r\npDb5N6By3jdBLw04vBruN5668zep4eU3uDz0N6jCAzgDNgc4nqHKNyjgEDh/ifg3Zy8bOHpPBDgL\r\nu/432lMIOJjz4jeOkuw3G8zjN+9QADg2f+w3xMz3N/Pa9TeQn+A3dTkJODgs+De0MwE4wI34N5W4\r\n+jcyvds3ZGHBN8uSzjd/Zvc34NvMN7jfAjh4DPE3z5/9NyYn1jcqLOc3obLmN7BHAjiyu/03XI7k\r\nN2/+2Dd2/rY3DlT0N5GiCDjGDc83Sp3wN1LP7Def6ro3LoHvNxg57DfQx9I3atreN+C98TfRsaw3\r\nqx7AN2ec7jdRPsw30za/N224yTflF9k3lLylN1dSpTdA2e833UjRNzRb9Dd2f8w3cqTYNyRq9Dcj\r\n7N43CDHjN200qDf82NY3zmniN+OItDeYv+03kUm+Nz517jdWH+s3kDfbNywm+jd2PPU3ynzQN5ng\r\n3TeY9tY3vX4LOGaa7DdYqsI33rvDN3WJ4TfeBd83xkC4N3DazjezK803mHLZN/Q+3DezEc03qJXE\r\nN+Z50TejAPw3+Vn2N1raxzeixtA3vEC5N9zCtDfe1es3Yz3ON9RLsjcIQas3EJu0N2rC4Tfbr7I3\r\n7nnBN30wxjfCjr439XrENz6CszeIisA3gTHSN0xA0zdnE8o37AHBN+OuzjdC38I3Dp7MNzHz2TcQ\r\ntqs3Q5zYN2QX0DeiZ8o3W3rdN/tMojccRLw3TTbDN8AvtTe8wZ43niqyN4Y19DdOIJs3kOrKNzyT\r\n0TcZzao3Q0+sN5lTqDfLL8E3qfKfNwpgpzfqpbI3y6GrN26lsDfT/cE3YyumNycR0DcEy6c3VP6F\r\nN52jzzfG+q037k+fNxTHrzdBZOk3TB/mN9hxujf4ebM38HHDN2TKoTdBr603rVekN3J/vDdCZME3\r\ngamgN//dzDduyoc38eyZN3ZiljcqJ7c3rG/CN1iFxDck6po3CrerNwabxjfQB5s39BWwN1z1mjfI\r\n7Mw3SqemN2hHtTdVo5w3TmyvN5zZxzd4r9Y3exfRN6OOzjdN+7Q3/HnBN/OisTcnK6w3qHrTN2Qs\r\npDfkrLA348zAN2neljcEs3c3kMCdN8NIozducow3bpuoNzVbuzef46034t6hN9BypjcUzr43JNa8\r\nN3PfoTfLgJI3b2yuN1y1pzf/4aQ3ABazN1Rivzc+oKA3dUCjN4/ikDfbW7Q3Q59mN+TQzjdvSaQ3\r\nACCgN7dzjzdhNLc3W9aMN9dAsjdlK703+N+zN3s9qTeu3qM3oMOUN7tSoje8sr03ZSeuN83WpTcW\r\njro3DrG3NxMxmDe6N643NXCnNwHcfzcEgbY34fKjNzAtljdMk6M3cZqcN5L3yjesWbM3ZkahN/2L\r\nrjfc+4Q32PWCN3MNqTdU0as3ymPON1NUmzcKmpU3JpqkN/ZWkTejN5c3CJuAN7pKhjef8KU33+rD\r\nN+jWmzcT/4U3MB6VN8x9gzdR37g3+c6rN1IAvzer/KA3hEWVN5mkmzc6mJk3/1CiN+2iiTekCqE3\r\nZwGGNxAdvjf9ApI3MSywN4ezgTc5gI83LXujNwX0tjfU/qU3S1OJN8UOtzdZM8s30xXCN/e7iTc8\r\n3oQ3/uiVNx+AvjdRqnI37KmfN5HkijceHq83M2W9N2SqiDd0TXU3GPGcN12pnzdePn03MIe/N+4R\r\nnjeO9JU3qWaaN93WjDdNaK03PGC5N24uojfwInk3dUKdN2XnvDcFUFE3iKWcNwlYlDeEyYo3NTzL\r\nNwPIlDfjh5s3JFyCN+jBhjdKUqc3evmNN39omzepdI43wOOPNzc7fTd8bJU3m/eNN7brnjc0nKo3\r\niWWTNzE5pDfxzZM354mQN9kuiTckm5M3DO+SN5Ywhzf/Taw3EDyMN/1SlzeLX4039FuqN+wXyDez\r\nMIs3yxGXNzkbnzcmiaA331afN8QjgjeGoJs3UhqRNwFWpje4KYo3SiWmN8gJpDfj14Q3EEqSN7RC\r\nrTcV1bs3G/2VN6AjfDcSZno30EiDN373nDf5Voc3NXaIN4z7lzf4zn83qSJ2N/xooDegvJw3GIh8\r\nNybqojd1upw383V3N9aTpDcudYk35UOANwJLnDelzZw3xDyMN8fGmDeO4503XCOYN0XXjDfL7JM3\r\naFKqN7BFnjfP1I03vkunN0mamjfQxI43pW6XN0xRiDfFSIA32QqGN+OZmDdHa5c3iLyVN+MWeTdl\r\nZpA32jShNwnoxTeMNZo3syG4NyX6rDcptaU3WUKkN5HyhzchPZw36WlzN563ozednmg3C1WiN3Rt\r\nqjd7dnk3Y8KSN2Norjdpx183iXJ9N1gekTflSYg3GiOfN5FSjzcRcnY3zc2PNxwvtTcmlE03VQqD\r\nNzRAoDedGJk3JHm1NzpNwjefHKc3FQugNxIRijfb9KY3l0GeN34LSTdtSMU3ACC+Nw==",
                            "noiseTrainingType" : "default"
                          }
                        }
                    ],
                    "start" : 1865,
                    "duration" : 28,
                    "mediaStart" : 2355,
                    "mediaDuration" : 28,
                    "scalar" : 1,
                    "metadata" : {
                      "WinSubProjectDisplayName" : "",
                      "clipSpeedAttribute" : false
                    },
                    "animationTracks" : {

                    }
                  },
                  {
                    "id" : 17,
                    "_type" : "AMFile",
                    "src" : 3,
                    "trackNumber" : 1,
                    "attributes" : {
                      "ident" : "tower-arch-02",
                      "sampleRate" : 44100,
                      "bitDepth" : 16,
                      "gain" : 1.0,
                      "mixToMono" : false
                    },
                      "channelNumber" : "0,1",
                    "effects" : [
                        {
                          "effectName" : "NoiseReduction",
                          "category" : "categoryAudioEffects",
                          "parameters" : {
                            "denoiserAmount" : 20.0,
                            "denoiserThreshold" : 0.0,
                            "noiseProfile" : "KdIUP/nTk0DO7ZA/KcmEP4EkX0BgoThCu6REQSL/6D+wZSNAXD1JQGOiej96mxZABPS7PnHDqD5G\r\nb7A+DQZUPqcZjz5qwNI+eJAXPgGSpT4pbTg/tpC2PvqeDT7DnUo/TKWcP6lATT9Ueqc/uJ4rQNfE\r\nUkCiMapAy4y5QJfHjkCc8PRAHTnqQclfWkFbimNAs4JzP81PMEAUaSA/IWJnPzS4CT/Yz+Y/3soK\r\nPzjovT5/67M/abVPP2a8rz8vvxc/Pl9+PhZ47T4E1Fc/rjhrPrXHpj4faJ4+uD9sP7/czT7HzAM/\r\nMlnbP1OpDD/ekMs/ch6xPwJbFj/Kz8E+0P9EP7Aa4T/mIjE/yh3CPsi4Ej8npCtA0H72P1DneT7j\r\n87Q+LphZPwQqrT5adjs/onZ5P2krZD4O+eU9mmdUPo5Hpz+qjYM+1iakPVXc6j2La0o+ZjHHPVNe\r\nRz4LFLs95SBfPex2lj1Ku3w95NWPPYgvCz4Iz0g+HSpHPnOtFT6WAEg9DplqPbBJsz2vMyo92RZA\r\nPV6f5j2qkW0+NAyJPaOMuj3TDoI+ulZIPnghtT5geOg9WvVhPSE+UTwoKdk8E0PvPD4PVz0S9Nc8\r\naxMOPZYXRz2m+wo92jQEPi4eMD2ZWTw9IrCqPKk+zTzPnds8/+I2PWCmVD3ck6g8tEzMPcq5kT3J\r\ndMQ84EZYPX/qzTwwIq08mqbwPGXWxTx47QA93oRDPejOOj3n3Fk8J4QYPWoW4j1CBDM9yKCqPUkK\r\nlT2Ovgw9QbsDPQqvyT1HMHA94/KhPKK1Az0166A9xaM2PVev9zzbF7E8NNPwPAvWSj3SWpM9VDpZ\r\nPaxOFD3YZxo+bDq7PBoZBz0rlAs9wLFMPZuybj2PQ7Q9m1GdPXhwtj4yMgo/LEMGPX7kbD+GxjM/\r\nfjUCPo3qGz0w70Q9rti5PQRGjz1HosA882m1PDMLzTzO0eY8ZZvnPNNOWz4djQc+WGIPQN4nD0BG\r\nYoNAAv2oQCs08kDq7B1Bbce8QC6dQ0DoPRNA+1gGQEJruj/2BiE/BfCHPc0QtTz225g84hBlPBCS\r\nNTz08CU9Wf2CPXzHFT0gXOQ8FpycPNbXTzxrq7E+PficP63X0z6bpw098NlZPUJCiDz6Dt88T13K\r\nPO171T7J3Bg/zB41PnN6AzywSJs9dUoWPkoGWT2LYF89lNMOPoKFVj8PURFA7r8HQEuNuT8Cn9E+\r\nQSGPP8ntAEBZqRJAdiu8P7LpsT+aKBs/GmeFPjsSlj23Jbk9+scIPtQZsj96U1xAV+qOP4ExUD+O\r\ncRQ/thlzPkWv5T7yOc0+qm/BPwiWYEBSRlM/2dKEP6AhxT7apT0+FMlWPuQTCj4G8jU9rkPBPCUf\r\ngT2rH6o97dG4PX7avjyy2DE+CQWIPrwlmD5cwE89GmWtPMPcCD0EfI084zgVPG//dD1b6Eg9HQ5+\r\nPNKl7zthel88qq0KPYuV9DyCy1c8wd+WPCuU1zzDWlg8qPoKPCxGWT1opPA8eysbPXw26Tsf8Qg9\r\ngmZqPDdUAzxYWi08NKVsPO/CgzxADf889KydPELaqT3Qva8+jEIYP/PYOD8ezFA/CUKJPvigAjxY\r\niSU+rmZvPYUcajwgcO89G6p5PXMeWD2QEhA7+MAjPgpIVz5GTok+lOK3PqlpJT+Xwi0/hGgFP8LH\r\nlz2YeJc9pS2hPakrazw0vDY8628KPl2dgD3FcqQ9TK+UPXXQ+zy8R8g9cqttPed3KT1KWDg86CF/\r\nOzIF8DtsgOc7S705Oy6DxTrH47Y6E6ofO4C1ZzvHAzc7axJBOsbfZzqyuXI6d3fUOVrKEjsfXjs8\r\n0jb/PGXCjjy180M8Ke69O6qizzqQOvs6YPedO5M8FztCetA6q6WlOt0jwznJ0RM5bfR1Oa8PxjjQ\r\nVxc6D4GmOQikUjlY6Fk6wuA7OjSWCDoYD6Q5gjSsOJaVODrEZYk56Jh4OHFqpjjbmoI4q0upOdY3\r\nmzix6a048tqvOKAqmzi2Ujo55kN1OCvchzgOnY84k6SMOBYf/jj7/nQ4Wd1yOE5Lyjhz9JY4vcC6\r\nOICpiThkmWM4985lOA6AjDgRdWw4LgKIOHXgjDiC/XQ4eseQOKWajTjKrYI4T7hjOF4SbjhqJoE4\r\nBhh8OI6PiDgwTVc4Bg5sODnmYDjqAoA4XuhtOKhkezhim2A4yj9yOK7PZjhGG2043p9aODBtgDgy\r\nCmk40P1rOJHRaDgca1I4/NdgODWXXDjIYX84wr9kOC5zajgcO1w45dU4OEovRjjzKWM4RJxrOJay\r\nYziUUks43vlFOFaKYzhymUk4cHpfONvWQDgeIHA4qC1BOP6eRzjG/FU4cvBaON+aRTjy/kw49i47\r\nOK+yWzjubiY4jalPOETCODiwjFw4AkpKOG4iNziO/0k4Dj0eOF7BPTi8bTE4dpg4OAwpUDig4nQ4\r\nSpZBOL1nPzht6Dk4j7tPOMO6STiiukU4CRgjOINPMTj6vEY4r10jOBA3RDiy1Ds4wCUlONITPDgg\r\nYjg4Ob1IOIZ3STiAtzk40KULOPRCKzjUHyE4BxUtODBcHjhiNic4xrwbOLp2KTiQbSY4nzYxOOeY\r\nHDjfSEI4/f4eONYLLji2Bj44aOcpOMQzKziVvg04SaBAODNcFjhWKRk4eREqOHD/EjhuQyU4ADwN\r\nONgkMDjF5So412InOJipCji3PBU4SPgPODJBGjh5mho4tNAmOAYDGjhdsRw49/4VOBwTJTgAfQ04\r\ncj0BOCHbLjglHQg4RHkfOCikHTi0Dik4ZTIsOGLzEDh+XRk4vK//N7OzHTi2gxA49B4JOAfTDzg6\r\nyQ84qEEPOIy72TdkXgw4Y3sUOFWZBjh8fgU4zRUnOC3/CzjnLf03HFsBOLf+HDhTCRI4ofALOCBS\r\nFDjGhxc4+BUGOE4w2Ded6wA4svgKOKqsEjia+ho4T8sIONSjBDh+Zgc4hrL2N34kCzja5Bk4HpUE\r\nONhBBTibnfU3zKS2N6b4AjjStxA45JjUN3kE+TdrMwM4LbgNONHCHDh7ZdI3m4AHOFE3BThnBgI4\r\nGGoHOHX+8zfiquY3rh4GOMiK5zfYJO43KrX4N4LZ7DfAqfQ3ihELOExP3TddtxY4zgr8N5p6ETi0\r\niAY4Ol7rNxEuAjjgVvU3jLEBOMJT5DdCsu837738N2ba/jcmv8s3R/vjNzgDCzivVwE4t3YMOJgn\r\n8jdeSuk3hfL3N0or5Tfqcsg3fX/5N7jE3Dd+puw3WM0COOokBDiGhrk3QNX+Nxbk9jeOswg4lrMJ\r\nOD+TxzdP4903mGLFNwJe5DfUbu83+DvlN8V8+TcQNsY3qHDRN3tm6jfjiOQ3Zj/bN/RmuzcOEwQ4\r\n0HHLN9phwTf4c+k3NoO+N40/nTdf+rQ3bmj5N7JxvzfWd6c3woDuNxeC0jf0udo3FenTN7io2DfQ\r\n6tI3TiPIN3Qt3Tdjd6w3BlXvN5VuATh0RKQ35CLdN/I9zjebKdY3Vrf3N6yU6jeuNtI3pMLaNz5s\r\n7De8R903pEPdN+iQEDj+l803aL/BN9kx5Dcn1e83LI/gN3jctjeYjs43xAm3N9o25DcaUcc3M/DJ\r\nN+6/3Tfua8A3xhHoN62ABjj+nNE3HH3LN6IqtjdQ2qo3sIqxN0tJtjeQ97M3DlmxN6aEyzfoKuU3\r\n9W6vN4rH0Tcs+L83WjHIN8yUzDdAp8E3eW6vN78LpjcYlNg3mCPsNyfAwTfPlsQ3mwbWN11U3TfC\r\n2d03Q1+9N/Cfyze1uc03/qLON1TjzDduqaU3cYPBN6CPrzdi47w31JK5Nx5btjdjku03rU65N9id\r\n8jd2bsk3Y/KbN6bIkTcEdqA3XpDLN95PlTfTtbM38mq5NxCSxTcB6ME3iOmuNxeKtDdC58M3jgKw\r\nN67LmDfS8sk3jc6mN4URnTe1Srw3LgnsN542uTca5Jo3Rii9NwiVvTfpvZg3RCy3N3WwqDerR8k3\r\n3mO4Ny4iuDdqq943LluTNzpoqDfap5A39YaxN5qatDefBLg3x+aZNwmqkjcfuNM3aXi4N9h+sjdN\r\nN5U3oFXVNzQjpzeJxcs3Wy+XN+q6tjeEkso3SkC3N9u3xTfOBNU3u7+0N0sBtzcyvJ83PJ6wN3J6\r\nwzfGX6o3VEC2N+YqqjeH6J43nkuON5hMjDfefrE38w2QN3rnkTfduak3IjqiN9gKpzfHH7A3vqnE\r\nN82RujfBrZM3YAeiN66PpjeM4Ys3PLinNyjnrjfvncM3PLGvN3k2jDeDeIc3sD6uN9fsZDf61tk3\r\nfCesN8zLpDeWsJE3sUXLN5R5ijduSqI3N024N2XUsTc2uak3gb+lN88eoje6iL43MEPTN3dvnzfL\r\niJ83Hl/BN3ZIozcNjaI3ZWihN4yRoze4pJQ3ZFepNyVfjDc0vpE3fSelNzFPrjcQ8s43zXmmN2lC\r\nqjeLAMA32EeGN++ZhTcHqZg3cKamN26dyjecBKc369WCNw7jkzdTY5k3PmOeN6vjmzde3J03zTOa\r\nN/KKxDc+oJ43LV+KN74qqDd5y5g3DICiN7raqzfKMrs37RqeN1q8kjfkjpw3jN6UN9pjmjd+q5Q3\r\njXaYN/NYiDegyuU3LLKMN4SIvjenI4M3MlqMN1mfujcnhrw3JxmYN+mEjDcFyL03cru/N66LsDez\r\na5I3oAOFN36FjDeknLc3qoCEN4/kozfoaXA3g8GmNyQhtjcsHYo3kfCON9fGhzcYP6A3TFmBN2KM\r\npDfI6Kc3YHegN6NVjTfIvoA3SpqkNw8pozceZKI3ITKcNxDwhjcPzag30U6CN/Jjkzc3pqw3UP2x\r\nN5KstjeAr4w3M6WFN+FPiDdS3ZI3UYCON1JghTcoUYk37OmZN+7clzeMwXk3AkCVNxDGfjevGpc3\r\nIueoNywXnDfAd7I3qG2YN92qkjd4EHc3Tm6HN/xagDdtgoI3as6iN//cjzey4p83AbOpN1BPuTfo\r\nPLI3G7qBN39YkjdvsJk3abCcNwWKjzdg0Yk3v32gN0mdjTfk35s3/EiSN68FnzdeQaI3m6uMN8hs\r\nljdoIJM3Hmm+N3UXxTd+y243RhNKN5ZEgzeoRpw3WpOEN1S5qDdKTag3ktZaN1zqhDcIYpo3TJ2d\r\nN0VTjDeu6Zc3LmSZNxbChDfCYLI3PpyiNwLvkzcAp5w3fCuGN7uViTc6n5Y3A2WZN/ovkjfP9Hg3\r\njBaMN6rwtDdwhq83kJeRN8lFlzdcsKE3ETGKNxSqhzdfvZI3GReUN6+DlTdPwZU3NSaXN0cWljcb\r\nomw3bOOaN3+rnjetFbk3YL2YN34urTdKKqs3Yz+nN0vKpDeahYc3UJemNw/1hDej67A3T61+Nxt2\r\nojeQ5pM3LfmJN8imgjd/hY03pHmAN7WGhjdOsI83rAGKN1p5izcrKZw3962TN8E1lDcEgZw3dnlc\r\nN21ZhTcSjKE3D+ilN3vqrzc7Zqk3yu+kNxaWpjffK4E3/IijN6IOoTdH23Y3gj/FNwBijjcp0hQ/\r\nFNGTQObskD8pyYQ/OB9fQOqgOEK7pERBIv/oPyRpI0BKUElAhap6P3qbFkAE9Ls+ccOoPkZvsD4N\r\nBlQ+pxmPPmrf0j63+Bc+AZKlPiltOD+2kLY+O/MNPsOdSj9MpZw/qUBNP1R6pz+4nitAlMJSQKIx\r\nqkDLjLlAQdCOQBbs9EDePOpBDl1aQVuKY0Ddp3M/zU8wQByAID8hYmc/NLgJP9jP5j/eygo/OOi9\r\nPn/rsz9ptU8/ZryvPy+/Fz8+X34+FnjtPgTUVz/aEms+tcemPh9onj64P2w/j+nNPqHcAz85V9s/\r\nU6kMP2yJyz8qKLE/AlsWPwzRwT7o9UQ/GBPhP+YiMT/xAcI+yLgSPyekK0Aof/Y/PNN5PuPztD6k\r\niFk/BCqtPlp2Oz+idnk/aStkPg755T0uZlQ+jkenP6qNgz4JG6Q9VdzqPYtrSj5mMcc9U15HPgsU\r\nuz2eSl89CU6WPUq7fD119Y89iC8LPnPXSD5cO0c+irQVPkRkSD12+mo9sEmzPQv6KT3nW0A994Dm\r\nPUBabT5Fq4g9htu5PTYugj7zWkg+WEe1PmB46D1a9WE9IT5RPGas2DwTQ+88Pg9XPRL01zxrEw49\r\nlhdHPab7Cj3YEgQ+s8QvPZlZPD0isKo8qT7NPM+d2zz8TTc9bM5TPcYCqTy0TMw9fdSRPcl0xDzg\r\nRlg9f+rNPDAirTyapvA8envFPHjtAD3ehEM96M46PefcWTwnhBg9ahbiPb8LMz0oiao9SQqVPY6+\r\nDD1BuwM9Cq/JPUcwcD3AjaI8orUDPTXroD3FozY9AED3PNsXsTzum+88C9ZKPdJakz1UOlk9rE4U\r\nPdhnGj6l6Lo8GhkHPSuUCz3AsUw9m7JuPVZ+tD38WZ09QV+2PqQpCj+cMwY91OxsP073Mz91dwI+\r\nc/8bPTDvRD0bM7o9GH6PPXIiwTy837Q8ipnMPM7R5jxYa+c8cUpbPqSLBz6EZw9Axy4PQCleg0AZ\r\n+qhAmiryQNzpHUFav7xAh59DQO1BE0AsXwZAKHe6PxXbID9Hooc9LsG0PAi/mTziEGU89A02PHfg\r\nJT1Z/YI9ZPQVPaTK5DwwaZw81tdPPHuxsT7UC50/fdzTPpunDT3w2Vk94x+IPPoO3zwaWMo8np7V\r\nPlDxGD8OFDU+FoEEPLSRmz10HhY+67pYPSIyXz3+xw4+yplWP71YEUDRxgdAlKS5P7KS0T71Ho8/\r\nBvwAQMqrEkBeJLw/5PSxPygvGz/PW4U+wSmWPbomuT0AcQg+lhGyP+M/XEDc5I4/bRNQPwhWFD+k\r\nPHM+XrblPtTyzD54Y8E/W5JgQFxRUz+F4YQ/lC/FPubPPT5WwFY++j4KPk9VNj0dv8E8Av6APXEe\r\nqj3C2bg9qo6/PMLiMT4MKog+IEKYPjvtTz1YxKw8LksIPQR8jTzjOBU8b/90PVvoSD1VJn480qXv\r\nO9x3XzyqrQo9OOjzPAU1WDzB35Y8K5TXPKFHWDz1Sgs8zi5ZPWik8Dx7Kxs9onTpOx/xCD2Y32o8\r\nN1QDPFhaLTw0pWw878KDPEAN/zz0rJ08YBuqPUzVrz6NVxg/vvg4P37mUD9nfYk++KACPARSJT5e\r\n3G89qipqPDd17z1ADXo9vxNYPZASEDtO1CM+EjpXPilGiT6o+rc+I34lPwbBLT8ETQU/EgyYPdhl\r\nlz0n46A9AgtrPJJ/NjznSgo+zGCAPYD9pD0RiZQ9KL/7PL2kyD0qPW49ubcpPY08NzxOJIA7VJDu\r\nO52w5jvxbTo7LoPFOsfjtjo/zR47IiVmO4+jNztrEkE6xt9nOrK5cjp3d9Q5CvMSO8BKOzwklv88\r\nYauOPBUERDwCPbw7+/jLOvzM+jrfUJ07lPAXOxTazzoGTaQ6U1fPOWjkGTkhFHM50CO8OE81GTqs\r\npqE5N9heObyPXTqA/Tw66CYJOkqsozl5J8k4XyM3OmisiDlya4g4/P+WOKNnhDh94Ko5WKWcOMy7\r\ntTiUta84JguJOKqlPDlTVH447JZzOAL9hTizdZM42xcEOeBcgzipQZ44vtW6ONJkgzg49Lw4vRx3\r\nOGQnZDj4uXU49niJOFx3eDhgUYs4OBeQOLRqdjhs9ZI4O0ODOIRoeTgMPHY4l7BsOJXnfjh5soU4\r\n3uOEOEKuXTgMU2c4kphWOA1KgDiQX3w4tYJ3OP7+aDiAdnk4AqNeOOJbbzhQHVE4+YpzOJ3/eDi3\r\nDls49jxZOJhpXTjuAG44rmlpOAQgijgBUmM47lNmOOgCXzj0d0U4kAFIOC74ajhxhFs44EdTOBhV\r\nWjhfRDA4CnpeOLyETTgyQk44BeFjODQAdjhJ9z04xIpRON0NXDgacmE4kHFFOGgVTDgNty84ZNFf\r\nOOQAKzjusUo4cMA6OGDSUzg1wz04CJU0OLIvUjg8wy04yIZOOO8YMDjfLi84LhVEOASYYTjYOj44\r\nlMU4OJBONjjIRD04tkM8ODIrRzg95iY4NuQ0ON6uQziSEiE4U+RJOESbRDhpiyw4Fho+OFLaODgQ\r\n6jA4h84xON+FLzjD2Bg44yQ0OGPcJDg93Ss4DJ8mOKIaLTjmrRg44vQtONFtLzhQAC84NEgUOHh2\r\nNDgq5Cg4m4gtOMICODiZxSw4bDUnOJsaBDjGhz84VKkWOB6tJTi2fCY4v6MRODLCKjg+IBI4XfIn\r\nOOyfHji+iys4ljIYOEraFDiptRA41cAcOC1CIjhKvyg4tC0TOA7fCzilIRA4oDMjOACQHTg48/83\r\nPL0bOG88DTgxayI4/vQdOMQgMTiGRTU4bwETOFimEjjjPAQ4ViwUOH4mCzjy+As4IJAROMYhGTiY\r\n3SE4oTnsN7WbEzjMVBo4DsECOPI5DDhAByA48gT3NyrF+jfWbAs4CpwtONmmEjjVew441ukQONTQ\r\nEjiVLhg4ATX8N0a8CThzKAY4DHMHOE6K+zcMBvo3CmkCOHVRCzi7v/g3qTQBOA5wJDin5w441XwA\r\nOHgD9Ddu5cU3KJkMOBTNDjgQcuc3DBDtN1oZ/Te/XAo4NzgPOAB1yzdKkA84PtD5NzLM8DdWuws4\r\npDb5N6By3jdBLw04vBruN5668zep4eU3uDz0N6jCAzgDNgc4nqHKNyjgEDh/ifg3Zy8bOHpPBDgL\r\nu/432lMIOJjz4jeOkuw3G8zjN+9QADg2f+w3xMz3N/Pa9TeQn+A3dTkJODgs+De0MwE4wI34N5W4\r\n+jcyvds3ZGHBN8uSzjd/Zvc34NvMN7jfAjh4DPE3z5/9NyYn1jcqLOc3obLmN7BHAjiyu/03XI7k\r\nN2/+2Dd2/rY3DlT0N5GiCDjGDc83Sp3wN1LP7Def6ro3LoHvNxg57DfQx9I3atreN+C98TfRsaw3\r\nqx7AN2ec7jdRPsw30za/N224yTflF9k3lLylN1dSpTdA2e833UjRNzRb9Dd2f8w3cqTYNyRq9Dcj\r\n7N43CDHjN200qDf82NY3zmniN+OItDeYv+03kUm+Nz517jdWH+s3kDfbNywm+jd2PPU3ynzQN5ng\r\n3TeY9tY3vX4LOGaa7DdYqsI33rvDN3WJ4TfeBd83xkC4N3DazjezK803mHLZN/Q+3DezEc03qJXE\r\nN+Z50TejAPw3+Vn2N1raxzeixtA3vEC5N9zCtDfe1es3Yz3ON9RLsjcIQas3EJu0N2rC4Tfbr7I3\r\n7nnBN30wxjfCjr439XrENz6CszeIisA3gTHSN0xA0zdnE8o37AHBN+OuzjdC38I3Dp7MNzHz2TcQ\r\ntqs3Q5zYN2QX0DeiZ8o3W3rdN/tMojccRLw3TTbDN8AvtTe8wZ43niqyN4Y19DdOIJs3kOrKNzyT\r\n0TcZzao3Q0+sN5lTqDfLL8E3qfKfNwpgpzfqpbI3y6GrN26lsDfT/cE3YyumNycR0DcEy6c3VP6F\r\nN52jzzfG+q037k+fNxTHrzdBZOk3TB/mN9hxujf4ebM38HHDN2TKoTdBr603rVekN3J/vDdCZME3\r\ngamgN//dzDduyoc38eyZN3ZiljcqJ7c3rG/CN1iFxDck6po3CrerNwabxjfQB5s39BWwN1z1mjfI\r\n7Mw3SqemN2hHtTdVo5w3TmyvN5zZxzd4r9Y3exfRN6OOzjdN+7Q3/HnBN/OisTcnK6w3qHrTN2Qs\r\npDfkrLA348zAN2neljcEs3c3kMCdN8NIozducow3bpuoNzVbuzef46034t6hN9BypjcUzr43JNa8\r\nN3PfoTfLgJI3b2yuN1y1pzf/4aQ3ABazN1Rivzc+oKA3dUCjN4/ikDfbW7Q3Q59mN+TQzjdvSaQ3\r\nACCgN7dzjzdhNLc3W9aMN9dAsjdlK703+N+zN3s9qTeu3qM3oMOUN7tSoje8sr03ZSeuN83WpTcW\r\njro3DrG3NxMxmDe6N643NXCnNwHcfzcEgbY34fKjNzAtljdMk6M3cZqcN5L3yjesWbM3ZkahN/2L\r\nrjfc+4Q32PWCN3MNqTdU0as3ymPON1NUmzcKmpU3JpqkN/ZWkTejN5c3CJuAN7pKhjef8KU33+rD\r\nN+jWmzcT/4U3MB6VN8x9gzdR37g3+c6rN1IAvzer/KA3hEWVN5mkmzc6mJk3/1CiN+2iiTekCqE3\r\nZwGGNxAdvjf9ApI3MSywN4ezgTc5gI83LXujNwX0tjfU/qU3S1OJN8UOtzdZM8s30xXCN/e7iTc8\r\n3oQ3/uiVNx+AvjdRqnI37KmfN5HkijceHq83M2W9N2SqiDd0TXU3GPGcN12pnzdePn03MIe/N+4R\r\nnjeO9JU3qWaaN93WjDdNaK03PGC5N24uojfwInk3dUKdN2XnvDcFUFE3iKWcNwlYlDeEyYo3NTzL\r\nNwPIlDfjh5s3JFyCN+jBhjdKUqc3evmNN39omzepdI43wOOPNzc7fTd8bJU3m/eNN7brnjc0nKo3\r\niWWTNzE5pDfxzZM354mQN9kuiTckm5M3DO+SN5Ywhzf/Taw3EDyMN/1SlzeLX4039FuqN+wXyDez\r\nMIs3yxGXNzkbnzcmiaA331afN8QjgjeGoJs3UhqRNwFWpje4KYo3SiWmN8gJpDfj14Q3EEqSN7RC\r\nrTcV1bs3G/2VN6AjfDcSZno30EiDN373nDf5Voc3NXaIN4z7lzf4zn83qSJ2N/xooDegvJw3GIh8\r\nNybqojd1upw383V3N9aTpDcudYk35UOANwJLnDelzZw3xDyMN8fGmDeO4503XCOYN0XXjDfL7JM3\r\naFKqN7BFnjfP1I03vkunN0mamjfQxI43pW6XN0xRiDfFSIA32QqGN+OZmDdHa5c3iLyVN+MWeTdl\r\nZpA32jShNwnoxTeMNZo3syG4NyX6rDcptaU3WUKkN5HyhzchPZw36WlzN563ozednmg3C1WiN3Rt\r\nqjd7dnk3Y8KSN2Norjdpx183iXJ9N1gekTflSYg3GiOfN5FSjzcRcnY3zc2PNxwvtTcmlE03VQqD\r\nNzRAoDedGJk3JHm1NzpNwjefHKc3FQugNxIRijfb9KY3l0GeN34LSTdtSMU3ACC+Nw==",
                            "noiseTrainingType" : "default"
                          }
                        }
                    ],
                    "start" : 2180,
                    "duration" : 35,
                    "mediaStart" : 94,
                    "mediaDuration" : 35,
                    "scalar" : 1,
                    "metadata" : {
                      "WinSubProjectDisplayName" : "",
                      "clipSpeedAttribute" : false
                    },
                    "animationTracks" : {

                    }
                  },
                  {
                    "id" : 18,
                    "_type" : "AMFile",
                    "src" : 3,
                    "trackNumber" : 1,
                    "attributes" : {
                      "ident" : "tower-arch-02",
                      "sampleRate" : 44100,
                      "bitDepth" : 16,
                      "gain" : 1.0,
                      "mixToMono" : false
                    },
                      "channelNumber" : "0,1",
                    "effects" : [
                        {
                          "effectName" : "NoiseReduction",
                          "category" : "categoryAudioEffects",
                          "parameters" : {
                            "denoiserAmount" : 20.0,
                            "denoiserThreshold" : 0.0,
                            "noiseProfile" : "KdIUP/nTk0DO7ZA/KcmEP4EkX0BgoThCu6REQSL/6D+wZSNAXD1JQGOiej96mxZABPS7PnHDqD5G\r\nb7A+DQZUPqcZjz5qwNI+eJAXPgGSpT4pbTg/tpC2PvqeDT7DnUo/TKWcP6lATT9Ueqc/uJ4rQNfE\r\nUkCiMapAy4y5QJfHjkCc8PRAHTnqQclfWkFbimNAs4JzP81PMEAUaSA/IWJnPzS4CT/Yz+Y/3soK\r\nPzjovT5/67M/abVPP2a8rz8vvxc/Pl9+PhZ47T4E1Fc/rjhrPrXHpj4faJ4+uD9sP7/czT7HzAM/\r\nMlnbP1OpDD/ekMs/ch6xPwJbFj/Kz8E+0P9EP7Aa4T/mIjE/yh3CPsi4Ej8npCtA0H72P1DneT7j\r\n87Q+LphZPwQqrT5adjs/onZ5P2krZD4O+eU9mmdUPo5Hpz+qjYM+1iakPVXc6j2La0o+ZjHHPVNe\r\nRz4LFLs95SBfPex2lj1Ku3w95NWPPYgvCz4Iz0g+HSpHPnOtFT6WAEg9DplqPbBJsz2vMyo92RZA\r\nPV6f5j2qkW0+NAyJPaOMuj3TDoI+ulZIPnghtT5geOg9WvVhPSE+UTwoKdk8E0PvPD4PVz0S9Nc8\r\naxMOPZYXRz2m+wo92jQEPi4eMD2ZWTw9IrCqPKk+zTzPnds8/+I2PWCmVD3ck6g8tEzMPcq5kT3J\r\ndMQ84EZYPX/qzTwwIq08mqbwPGXWxTx47QA93oRDPejOOj3n3Fk8J4QYPWoW4j1CBDM9yKCqPUkK\r\nlT2Ovgw9QbsDPQqvyT1HMHA94/KhPKK1Az0166A9xaM2PVev9zzbF7E8NNPwPAvWSj3SWpM9VDpZ\r\nPaxOFD3YZxo+bDq7PBoZBz0rlAs9wLFMPZuybj2PQ7Q9m1GdPXhwtj4yMgo/LEMGPX7kbD+GxjM/\r\nfjUCPo3qGz0w70Q9rti5PQRGjz1HosA882m1PDMLzTzO0eY8ZZvnPNNOWz4djQc+WGIPQN4nD0BG\r\nYoNAAv2oQCs08kDq7B1Bbce8QC6dQ0DoPRNA+1gGQEJruj/2BiE/BfCHPc0QtTz225g84hBlPBCS\r\nNTz08CU9Wf2CPXzHFT0gXOQ8FpycPNbXTzxrq7E+PficP63X0z6bpw098NlZPUJCiDz6Dt88T13K\r\nPO171T7J3Bg/zB41PnN6AzywSJs9dUoWPkoGWT2LYF89lNMOPoKFVj8PURFA7r8HQEuNuT8Cn9E+\r\nQSGPP8ntAEBZqRJAdiu8P7LpsT+aKBs/GmeFPjsSlj23Jbk9+scIPtQZsj96U1xAV+qOP4ExUD+O\r\ncRQ/thlzPkWv5T7yOc0+qm/BPwiWYEBSRlM/2dKEP6AhxT7apT0+FMlWPuQTCj4G8jU9rkPBPCUf\r\ngT2rH6o97dG4PX7avjyy2DE+CQWIPrwlmD5cwE89GmWtPMPcCD0EfI084zgVPG//dD1b6Eg9HQ5+\r\nPNKl7zthel88qq0KPYuV9DyCy1c8wd+WPCuU1zzDWlg8qPoKPCxGWT1opPA8eysbPXw26Tsf8Qg9\r\ngmZqPDdUAzxYWi08NKVsPO/CgzxADf889KydPELaqT3Qva8+jEIYP/PYOD8ezFA/CUKJPvigAjxY\r\niSU+rmZvPYUcajwgcO89G6p5PXMeWD2QEhA7+MAjPgpIVz5GTok+lOK3PqlpJT+Xwi0/hGgFP8LH\r\nlz2YeJc9pS2hPakrazw0vDY8628KPl2dgD3FcqQ9TK+UPXXQ+zy8R8g9cqttPed3KT1KWDg86CF/\r\nOzIF8DtsgOc7S705Oy6DxTrH47Y6E6ofO4C1ZzvHAzc7axJBOsbfZzqyuXI6d3fUOVrKEjsfXjs8\r\n0jb/PGXCjjy180M8Ke69O6qizzqQOvs6YPedO5M8FztCetA6q6WlOt0jwznJ0RM5bfR1Oa8PxjjQ\r\nVxc6D4GmOQikUjlY6Fk6wuA7OjSWCDoYD6Q5gjSsOJaVODrEZYk56Jh4OHFqpjjbmoI4q0upOdY3\r\nmzix6a048tqvOKAqmzi2Ujo55kN1OCvchzgOnY84k6SMOBYf/jj7/nQ4Wd1yOE5Lyjhz9JY4vcC6\r\nOICpiThkmWM4985lOA6AjDgRdWw4LgKIOHXgjDiC/XQ4eseQOKWajTjKrYI4T7hjOF4SbjhqJoE4\r\nBhh8OI6PiDgwTVc4Bg5sODnmYDjqAoA4XuhtOKhkezhim2A4yj9yOK7PZjhGG2043p9aODBtgDgy\r\nCmk40P1rOJHRaDgca1I4/NdgODWXXDjIYX84wr9kOC5zajgcO1w45dU4OEovRjjzKWM4RJxrOJay\r\nYziUUks43vlFOFaKYzhymUk4cHpfONvWQDgeIHA4qC1BOP6eRzjG/FU4cvBaON+aRTjy/kw49i47\r\nOK+yWzjubiY4jalPOETCODiwjFw4AkpKOG4iNziO/0k4Dj0eOF7BPTi8bTE4dpg4OAwpUDig4nQ4\r\nSpZBOL1nPzht6Dk4j7tPOMO6STiiukU4CRgjOINPMTj6vEY4r10jOBA3RDiy1Ds4wCUlONITPDgg\r\nYjg4Ob1IOIZ3STiAtzk40KULOPRCKzjUHyE4BxUtODBcHjhiNic4xrwbOLp2KTiQbSY4nzYxOOeY\r\nHDjfSEI4/f4eONYLLji2Bj44aOcpOMQzKziVvg04SaBAODNcFjhWKRk4eREqOHD/EjhuQyU4ADwN\r\nONgkMDjF5So412InOJipCji3PBU4SPgPODJBGjh5mho4tNAmOAYDGjhdsRw49/4VOBwTJTgAfQ04\r\ncj0BOCHbLjglHQg4RHkfOCikHTi0Dik4ZTIsOGLzEDh+XRk4vK//N7OzHTi2gxA49B4JOAfTDzg6\r\nyQ84qEEPOIy72TdkXgw4Y3sUOFWZBjh8fgU4zRUnOC3/CzjnLf03HFsBOLf+HDhTCRI4ofALOCBS\r\nFDjGhxc4+BUGOE4w2Ded6wA4svgKOKqsEjia+ho4T8sIONSjBDh+Zgc4hrL2N34kCzja5Bk4HpUE\r\nONhBBTibnfU3zKS2N6b4AjjStxA45JjUN3kE+TdrMwM4LbgNONHCHDh7ZdI3m4AHOFE3BThnBgI4\r\nGGoHOHX+8zfiquY3rh4GOMiK5zfYJO43KrX4N4LZ7DfAqfQ3ihELOExP3TddtxY4zgr8N5p6ETi0\r\niAY4Ol7rNxEuAjjgVvU3jLEBOMJT5DdCsu837738N2ba/jcmv8s3R/vjNzgDCzivVwE4t3YMOJgn\r\n8jdeSuk3hfL3N0or5Tfqcsg3fX/5N7jE3Dd+puw3WM0COOokBDiGhrk3QNX+Nxbk9jeOswg4lrMJ\r\nOD+TxzdP4903mGLFNwJe5DfUbu83+DvlN8V8+TcQNsY3qHDRN3tm6jfjiOQ3Zj/bN/RmuzcOEwQ4\r\n0HHLN9phwTf4c+k3NoO+N40/nTdf+rQ3bmj5N7JxvzfWd6c3woDuNxeC0jf0udo3FenTN7io2DfQ\r\n6tI3TiPIN3Qt3Tdjd6w3BlXvN5VuATh0RKQ35CLdN/I9zjebKdY3Vrf3N6yU6jeuNtI3pMLaNz5s\r\n7De8R903pEPdN+iQEDj+l803aL/BN9kx5Dcn1e83LI/gN3jctjeYjs43xAm3N9o25DcaUcc3M/DJ\r\nN+6/3Tfua8A3xhHoN62ABjj+nNE3HH3LN6IqtjdQ2qo3sIqxN0tJtjeQ97M3DlmxN6aEyzfoKuU3\r\n9W6vN4rH0Tcs+L83WjHIN8yUzDdAp8E3eW6vN78LpjcYlNg3mCPsNyfAwTfPlsQ3mwbWN11U3TfC\r\n2d03Q1+9N/Cfyze1uc03/qLON1TjzDduqaU3cYPBN6CPrzdi47w31JK5Nx5btjdjku03rU65N9id\r\n8jd2bsk3Y/KbN6bIkTcEdqA3XpDLN95PlTfTtbM38mq5NxCSxTcB6ME3iOmuNxeKtDdC58M3jgKw\r\nN67LmDfS8sk3jc6mN4URnTe1Srw3LgnsN542uTca5Jo3Rii9NwiVvTfpvZg3RCy3N3WwqDerR8k3\r\n3mO4Ny4iuDdqq943LluTNzpoqDfap5A39YaxN5qatDefBLg3x+aZNwmqkjcfuNM3aXi4N9h+sjdN\r\nN5U3oFXVNzQjpzeJxcs3Wy+XN+q6tjeEkso3SkC3N9u3xTfOBNU3u7+0N0sBtzcyvJ83PJ6wN3J6\r\nwzfGX6o3VEC2N+YqqjeH6J43nkuON5hMjDfefrE38w2QN3rnkTfduak3IjqiN9gKpzfHH7A3vqnE\r\nN82RujfBrZM3YAeiN66PpjeM4Ys3PLinNyjnrjfvncM3PLGvN3k2jDeDeIc3sD6uN9fsZDf61tk3\r\nfCesN8zLpDeWsJE3sUXLN5R5ijduSqI3N024N2XUsTc2uak3gb+lN88eoje6iL43MEPTN3dvnzfL\r\niJ83Hl/BN3ZIozcNjaI3ZWihN4yRoze4pJQ3ZFepNyVfjDc0vpE3fSelNzFPrjcQ8s43zXmmN2lC\r\nqjeLAMA32EeGN++ZhTcHqZg3cKamN26dyjecBKc369WCNw7jkzdTY5k3PmOeN6vjmzde3J03zTOa\r\nN/KKxDc+oJ43LV+KN74qqDd5y5g3DICiN7raqzfKMrs37RqeN1q8kjfkjpw3jN6UN9pjmjd+q5Q3\r\njXaYN/NYiDegyuU3LLKMN4SIvjenI4M3MlqMN1mfujcnhrw3JxmYN+mEjDcFyL03cru/N66LsDez\r\na5I3oAOFN36FjDeknLc3qoCEN4/kozfoaXA3g8GmNyQhtjcsHYo3kfCON9fGhzcYP6A3TFmBN2KM\r\npDfI6Kc3YHegN6NVjTfIvoA3SpqkNw8pozceZKI3ITKcNxDwhjcPzag30U6CN/Jjkzc3pqw3UP2x\r\nN5KstjeAr4w3M6WFN+FPiDdS3ZI3UYCON1JghTcoUYk37OmZN+7clzeMwXk3AkCVNxDGfjevGpc3\r\nIueoNywXnDfAd7I3qG2YN92qkjd4EHc3Tm6HN/xagDdtgoI3as6iN//cjzey4p83AbOpN1BPuTfo\r\nPLI3G7qBN39YkjdvsJk3abCcNwWKjzdg0Yk3v32gN0mdjTfk35s3/EiSN68FnzdeQaI3m6uMN8hs\r\nljdoIJM3Hmm+N3UXxTd+y243RhNKN5ZEgzeoRpw3WpOEN1S5qDdKTag3ktZaN1zqhDcIYpo3TJ2d\r\nN0VTjDeu6Zc3LmSZNxbChDfCYLI3PpyiNwLvkzcAp5w3fCuGN7uViTc6n5Y3A2WZN/ovkjfP9Hg3\r\njBaMN6rwtDdwhq83kJeRN8lFlzdcsKE3ETGKNxSqhzdfvZI3GReUN6+DlTdPwZU3NSaXN0cWljcb\r\nomw3bOOaN3+rnjetFbk3YL2YN34urTdKKqs3Yz+nN0vKpDeahYc3UJemNw/1hDej67A3T61+Nxt2\r\nojeQ5pM3LfmJN8imgjd/hY03pHmAN7WGhjdOsI83rAGKN1p5izcrKZw3962TN8E1lDcEgZw3dnlc\r\nN21ZhTcSjKE3D+ilN3vqrzc7Zqk3yu+kNxaWpjffK4E3/IijN6IOoTdH23Y3gj/FNwBijjcp0hQ/\r\nFNGTQObskD8pyYQ/OB9fQOqgOEK7pERBIv/oPyRpI0BKUElAhap6P3qbFkAE9Ls+ccOoPkZvsD4N\r\nBlQ+pxmPPmrf0j63+Bc+AZKlPiltOD+2kLY+O/MNPsOdSj9MpZw/qUBNP1R6pz+4nitAlMJSQKIx\r\nqkDLjLlAQdCOQBbs9EDePOpBDl1aQVuKY0Ddp3M/zU8wQByAID8hYmc/NLgJP9jP5j/eygo/OOi9\r\nPn/rsz9ptU8/ZryvPy+/Fz8+X34+FnjtPgTUVz/aEms+tcemPh9onj64P2w/j+nNPqHcAz85V9s/\r\nU6kMP2yJyz8qKLE/AlsWPwzRwT7o9UQ/GBPhP+YiMT/xAcI+yLgSPyekK0Aof/Y/PNN5PuPztD6k\r\niFk/BCqtPlp2Oz+idnk/aStkPg755T0uZlQ+jkenP6qNgz4JG6Q9VdzqPYtrSj5mMcc9U15HPgsU\r\nuz2eSl89CU6WPUq7fD119Y89iC8LPnPXSD5cO0c+irQVPkRkSD12+mo9sEmzPQv6KT3nW0A994Dm\r\nPUBabT5Fq4g9htu5PTYugj7zWkg+WEe1PmB46D1a9WE9IT5RPGas2DwTQ+88Pg9XPRL01zxrEw49\r\nlhdHPab7Cj3YEgQ+s8QvPZlZPD0isKo8qT7NPM+d2zz8TTc9bM5TPcYCqTy0TMw9fdSRPcl0xDzg\r\nRlg9f+rNPDAirTyapvA8envFPHjtAD3ehEM96M46PefcWTwnhBg9ahbiPb8LMz0oiao9SQqVPY6+\r\nDD1BuwM9Cq/JPUcwcD3AjaI8orUDPTXroD3FozY9AED3PNsXsTzum+88C9ZKPdJakz1UOlk9rE4U\r\nPdhnGj6l6Lo8GhkHPSuUCz3AsUw9m7JuPVZ+tD38WZ09QV+2PqQpCj+cMwY91OxsP073Mz91dwI+\r\nc/8bPTDvRD0bM7o9GH6PPXIiwTy837Q8ipnMPM7R5jxYa+c8cUpbPqSLBz6EZw9Axy4PQCleg0AZ\r\n+qhAmiryQNzpHUFav7xAh59DQO1BE0AsXwZAKHe6PxXbID9Hooc9LsG0PAi/mTziEGU89A02PHfg\r\nJT1Z/YI9ZPQVPaTK5DwwaZw81tdPPHuxsT7UC50/fdzTPpunDT3w2Vk94x+IPPoO3zwaWMo8np7V\r\nPlDxGD8OFDU+FoEEPLSRmz10HhY+67pYPSIyXz3+xw4+yplWP71YEUDRxgdAlKS5P7KS0T71Ho8/\r\nBvwAQMqrEkBeJLw/5PSxPygvGz/PW4U+wSmWPbomuT0AcQg+lhGyP+M/XEDc5I4/bRNQPwhWFD+k\r\nPHM+XrblPtTyzD54Y8E/W5JgQFxRUz+F4YQ/lC/FPubPPT5WwFY++j4KPk9VNj0dv8E8Av6APXEe\r\nqj3C2bg9qo6/PMLiMT4MKog+IEKYPjvtTz1YxKw8LksIPQR8jTzjOBU8b/90PVvoSD1VJn480qXv\r\nO9x3XzyqrQo9OOjzPAU1WDzB35Y8K5TXPKFHWDz1Sgs8zi5ZPWik8Dx7Kxs9onTpOx/xCD2Y32o8\r\nN1QDPFhaLTw0pWw878KDPEAN/zz0rJ08YBuqPUzVrz6NVxg/vvg4P37mUD9nfYk++KACPARSJT5e\r\n3G89qipqPDd17z1ADXo9vxNYPZASEDtO1CM+EjpXPilGiT6o+rc+I34lPwbBLT8ETQU/EgyYPdhl\r\nlz0n46A9AgtrPJJ/NjznSgo+zGCAPYD9pD0RiZQ9KL/7PL2kyD0qPW49ubcpPY08NzxOJIA7VJDu\r\nO52w5jvxbTo7LoPFOsfjtjo/zR47IiVmO4+jNztrEkE6xt9nOrK5cjp3d9Q5CvMSO8BKOzwklv88\r\nYauOPBUERDwCPbw7+/jLOvzM+jrfUJ07lPAXOxTazzoGTaQ6U1fPOWjkGTkhFHM50CO8OE81GTqs\r\npqE5N9heObyPXTqA/Tw66CYJOkqsozl5J8k4XyM3OmisiDlya4g4/P+WOKNnhDh94Ko5WKWcOMy7\r\ntTiUta84JguJOKqlPDlTVH447JZzOAL9hTizdZM42xcEOeBcgzipQZ44vtW6ONJkgzg49Lw4vRx3\r\nOGQnZDj4uXU49niJOFx3eDhgUYs4OBeQOLRqdjhs9ZI4O0ODOIRoeTgMPHY4l7BsOJXnfjh5soU4\r\n3uOEOEKuXTgMU2c4kphWOA1KgDiQX3w4tYJ3OP7+aDiAdnk4AqNeOOJbbzhQHVE4+YpzOJ3/eDi3\r\nDls49jxZOJhpXTjuAG44rmlpOAQgijgBUmM47lNmOOgCXzj0d0U4kAFIOC74ajhxhFs44EdTOBhV\r\nWjhfRDA4CnpeOLyETTgyQk44BeFjODQAdjhJ9z04xIpRON0NXDgacmE4kHFFOGgVTDgNty84ZNFf\r\nOOQAKzjusUo4cMA6OGDSUzg1wz04CJU0OLIvUjg8wy04yIZOOO8YMDjfLi84LhVEOASYYTjYOj44\r\nlMU4OJBONjjIRD04tkM8ODIrRzg95iY4NuQ0ON6uQziSEiE4U+RJOESbRDhpiyw4Fho+OFLaODgQ\r\n6jA4h84xON+FLzjD2Bg44yQ0OGPcJDg93Ss4DJ8mOKIaLTjmrRg44vQtONFtLzhQAC84NEgUOHh2\r\nNDgq5Cg4m4gtOMICODiZxSw4bDUnOJsaBDjGhz84VKkWOB6tJTi2fCY4v6MRODLCKjg+IBI4XfIn\r\nOOyfHji+iys4ljIYOEraFDiptRA41cAcOC1CIjhKvyg4tC0TOA7fCzilIRA4oDMjOACQHTg48/83\r\nPL0bOG88DTgxayI4/vQdOMQgMTiGRTU4bwETOFimEjjjPAQ4ViwUOH4mCzjy+As4IJAROMYhGTiY\r\n3SE4oTnsN7WbEzjMVBo4DsECOPI5DDhAByA48gT3NyrF+jfWbAs4CpwtONmmEjjVew441ukQONTQ\r\nEjiVLhg4ATX8N0a8CThzKAY4DHMHOE6K+zcMBvo3CmkCOHVRCzi7v/g3qTQBOA5wJDin5w441XwA\r\nOHgD9Ddu5cU3KJkMOBTNDjgQcuc3DBDtN1oZ/Te/XAo4NzgPOAB1yzdKkA84PtD5NzLM8DdWuws4\r\npDb5N6By3jdBLw04vBruN5668zep4eU3uDz0N6jCAzgDNgc4nqHKNyjgEDh/ifg3Zy8bOHpPBDgL\r\nu/432lMIOJjz4jeOkuw3G8zjN+9QADg2f+w3xMz3N/Pa9TeQn+A3dTkJODgs+De0MwE4wI34N5W4\r\n+jcyvds3ZGHBN8uSzjd/Zvc34NvMN7jfAjh4DPE3z5/9NyYn1jcqLOc3obLmN7BHAjiyu/03XI7k\r\nN2/+2Dd2/rY3DlT0N5GiCDjGDc83Sp3wN1LP7Def6ro3LoHvNxg57DfQx9I3atreN+C98TfRsaw3\r\nqx7AN2ec7jdRPsw30za/N224yTflF9k3lLylN1dSpTdA2e833UjRNzRb9Dd2f8w3cqTYNyRq9Dcj\r\n7N43CDHjN200qDf82NY3zmniN+OItDeYv+03kUm+Nz517jdWH+s3kDfbNywm+jd2PPU3ynzQN5ng\r\n3TeY9tY3vX4LOGaa7DdYqsI33rvDN3WJ4TfeBd83xkC4N3DazjezK803mHLZN/Q+3DezEc03qJXE\r\nN+Z50TejAPw3+Vn2N1raxzeixtA3vEC5N9zCtDfe1es3Yz3ON9RLsjcIQas3EJu0N2rC4Tfbr7I3\r\n7nnBN30wxjfCjr439XrENz6CszeIisA3gTHSN0xA0zdnE8o37AHBN+OuzjdC38I3Dp7MNzHz2TcQ\r\ntqs3Q5zYN2QX0DeiZ8o3W3rdN/tMojccRLw3TTbDN8AvtTe8wZ43niqyN4Y19DdOIJs3kOrKNzyT\r\n0TcZzao3Q0+sN5lTqDfLL8E3qfKfNwpgpzfqpbI3y6GrN26lsDfT/cE3YyumNycR0DcEy6c3VP6F\r\nN52jzzfG+q037k+fNxTHrzdBZOk3TB/mN9hxujf4ebM38HHDN2TKoTdBr603rVekN3J/vDdCZME3\r\ngamgN//dzDduyoc38eyZN3ZiljcqJ7c3rG/CN1iFxDck6po3CrerNwabxjfQB5s39BWwN1z1mjfI\r\n7Mw3SqemN2hHtTdVo5w3TmyvN5zZxzd4r9Y3exfRN6OOzjdN+7Q3/HnBN/OisTcnK6w3qHrTN2Qs\r\npDfkrLA348zAN2neljcEs3c3kMCdN8NIozducow3bpuoNzVbuzef46034t6hN9BypjcUzr43JNa8\r\nN3PfoTfLgJI3b2yuN1y1pzf/4aQ3ABazN1Rivzc+oKA3dUCjN4/ikDfbW7Q3Q59mN+TQzjdvSaQ3\r\nACCgN7dzjzdhNLc3W9aMN9dAsjdlK703+N+zN3s9qTeu3qM3oMOUN7tSoje8sr03ZSeuN83WpTcW\r\njro3DrG3NxMxmDe6N643NXCnNwHcfzcEgbY34fKjNzAtljdMk6M3cZqcN5L3yjesWbM3ZkahN/2L\r\nrjfc+4Q32PWCN3MNqTdU0as3ymPON1NUmzcKmpU3JpqkN/ZWkTejN5c3CJuAN7pKhjef8KU33+rD\r\nN+jWmzcT/4U3MB6VN8x9gzdR37g3+c6rN1IAvzer/KA3hEWVN5mkmzc6mJk3/1CiN+2iiTekCqE3\r\nZwGGNxAdvjf9ApI3MSywN4ezgTc5gI83LXujNwX0tjfU/qU3S1OJN8UOtzdZM8s30xXCN/e7iTc8\r\n3oQ3/uiVNx+AvjdRqnI37KmfN5HkijceHq83M2W9N2SqiDd0TXU3GPGcN12pnzdePn03MIe/N+4R\r\nnjeO9JU3qWaaN93WjDdNaK03PGC5N24uojfwInk3dUKdN2XnvDcFUFE3iKWcNwlYlDeEyYo3NTzL\r\nNwPIlDfjh5s3JFyCN+jBhjdKUqc3evmNN39omzepdI43wOOPNzc7fTd8bJU3m/eNN7brnjc0nKo3\r\niWWTNzE5pDfxzZM354mQN9kuiTckm5M3DO+SN5Ywhzf/Taw3EDyMN/1SlzeLX4039FuqN+wXyDez\r\nMIs3yxGXNzkbnzcmiaA331afN8QjgjeGoJs3UhqRNwFWpje4KYo3SiWmN8gJpDfj14Q3EEqSN7RC\r\nrTcV1bs3G/2VN6AjfDcSZno30EiDN373nDf5Voc3NXaIN4z7lzf4zn83qSJ2N/xooDegvJw3GIh8\r\nNybqojd1upw383V3N9aTpDcudYk35UOANwJLnDelzZw3xDyMN8fGmDeO4503XCOYN0XXjDfL7JM3\r\naFKqN7BFnjfP1I03vkunN0mamjfQxI43pW6XN0xRiDfFSIA32QqGN+OZmDdHa5c3iLyVN+MWeTdl\r\nZpA32jShNwnoxTeMNZo3syG4NyX6rDcptaU3WUKkN5HyhzchPZw36WlzN563ozednmg3C1WiN3Rt\r\nqjd7dnk3Y8KSN2Norjdpx183iXJ9N1gekTflSYg3GiOfN5FSjzcRcnY3zc2PNxwvtTcmlE03VQqD\r\nNzRAoDedGJk3JHm1NzpNwjefHKc3FQugNxIRijfb9KY3l0GeN34LSTdtSMU3ACC+Nw==",
                            "noiseTrainingType" : "default"
                          }
                        }
                    ],
                    "start" : 2215,
                    "duration" : 13,
                    "mediaStart" : 94,
                    "mediaDuration" : 13,
                    "scalar" : 1,
                    "metadata" : {
                      "WinSubProjectDisplayName" : "",
                      "clipSpeedAttribute" : false
                    },
                    "animationTracks" : {

                    }
                  },
                  {
                    "id" : 19,
                    "_type" : "AMFile",
                    "src" : 4,
                    "trackNumber" : 1,
                    "attributes" : {
                      "ident" : "tower-arch-03",
                      "sampleRate" : 44100,
                      "bitDepth" : 16,
                      "gain" : 1.0,
                      "mixToMono" : false
                    },
                      "channelNumber" : "0,1",
                    "effects" : [
                        {
                          "effectName" : "NoiseReduction",
                          "category" : "categoryAudioEffects",
                          "parameters" : {
                            "denoiserAmount" : 20.0,
                            "denoiserThreshold" : 0.0,
                            "noiseProfile" : "yEjwPvqziz8sEIk+9AoyP+AHVj+8ROlB746fQSL9xz8BV78/kBGFQIa0Kj8mSjNAgbGsPrZT4j7s\r\nRyNAmWOKQD7Vuj78Gz9AZ/+wP6FtDkBjOT9AqOsXQDaVkT/bLppAqakSQPrJAUAkmXY/CtERQFVE\r\nB0Au9W1AsNCaQO4a9z+G3R9AEQmVQI8XgUA13yxBN7qJQDzfC0EoBXlAiPOmP2P9BUBu+YI/l4tN\r\nQMamBUBJ3jRALYcwQaysjECaWP5ARIfaP03vgkD+knpALGA4P04H5j9M9/I+Y3TAPwbDPUCNX4o/\r\nmp2HP42zD0FLYcQ/rBKfPyhOs0Df0I1A61WcQNiSuT8Puqc/wtoUP/vn9j/2Wj9AdabtPt5jhz9N\r\ng8w+mtGCP5/PYT/FKpI/Z6yFP4xKA0ATB9hAUDyzP1i4AEBElqs+UVoiQPAJWEDCyC0/i0EpQU48\r\n3kGUE5NBKqS6QOSqnULxP8NCPoyDQooWjkJCijxDslmEQ8fX1UJeuHRCuNx/QnsWlUPSQZ5BBMq0\r\nQSNfOkGILotCwV2fQqj1hkLKeCRCIgC9QWDdKULRnwRAcpv6PlLycT/87XY/+N2KPkTO4T6cjWg+\r\nvmJ4PmQjNT5vsVc++lrDPeCmBj630XY+ZjqUPkRpTj6YcdY+uj+iPknlED/i2vk+OIOePrfRFD9s\r\nrdM+uGkdQGmhpD4CBS8/zASuPuptjz+BzqU/LDKPP2XwmT8kFjM+q8SRP5CsgD5aDq8/vIcGPzMV\r\nMT+7iVQ/MqPhQDi0gEB/E3hA+GJQP6pGsz5QqjhAF9s+QAychkBMkjhBrgfjQCACVUALxshApHiK\r\nQZnDAkGP4FhBoNMxQb91R0FkvPJA5gt5QN/N4EDHNJ1BfDW9QNp71j87aCpBj2maQObgoEC8JDBB\r\nlIM2QaUF0EF50LlBy/GXQQqYt0GggptAybDVQFjEPUD0tpA/cpoHP7UQAz+emHg+w7MnQGaEvj7h\r\nUYU+iNhPPvKsGD99PvM+VTTxPSvWTz107qQ9BoKDPmKclz1wT689+yX5Pf0hQj7IDyM+lSwbPmlA\r\ndj0hsoM+8zVLPstNjT0f7Co+qfLgPIKFRj7Ia10/45aMP1r6k0AmoR5AH+ufQIXE5EBN5d5AHib4\r\nQMQeMEDXJgZAlJCIP1DmM0DXBNFABULRQF3UUkDnsYdAzsPWQGPcMEGGMz5BkRkkQeFmk0EPGvdB\r\nIyhgQXguFkKA3RZCsP4mQtAsKUKdO45CoBWaQfpnEEI9f+9BDlK7QNBig0HXHJtBkq7MQVwHmEAF\r\nZ5NBS3dKQJBXNUB4nmdBKVdHQvLKs0HPtJ1AtRqIQXg2pUG5gI9AwczUPw0cvD+O/4pAFn3zP68R\r\n3j/Sg/s/dOD3Py5Djz62oi8//iB9PoLugz21tiM92ujHPNaPrz2EcDc98FAJPZooqD7AySE/zPpI\r\nPv8CxD5srU4+AGEVPVWHQT5hpNY+Z1xsPwoa3T+UpVJAXLT4Prp0qT84rYA/42/nP4nGMz83iQE/\r\nYWaeP6ilMkDxS35AL1HFQCCihT9kkkI/EhUPQMqw/T63Ujw/n9m9PqTn9z+GP0Q/cKidP1tajz8G\r\nM+E/WDVfP61Ulz/ukJw9lqOQPlHstz454Zg9JNVVPgPWDz46UDY9PSohPhorIj7Zg4c9PBuKPUZq\r\nXz0mQYo9LDKWPuhPvT53igU9c28PPbb6/z3aoFk+/2lzPrfCPTzpUWY89kvDPOt9qjxOQpg8tNKR\r\nPESR5DsO0dE8QLRpPFqfKz0IqLo8BQkLPKQWyjxq3wc9VScWPU+nmzw1/To9G3wdPbhjrzyvDrY8\r\nWg0vPVIGZDxODhE8VL8vPOTD9zsSbpU8gKuqPKbhDTzrdiY8taoyPF4lvTt/+lE795/fOw0+iTvE\r\nPdY77fN2OyA6ojsOhZg7LFaGO/+khDvqy0g71m11Oym4ejvjnC870uhFO+o/TjtlAEU70GU5OyWy\r\nKjvQ0zg71NA1O4rOLjvxfSM7i3YjO0ZDKzuVmiw7AdsZOyVBIzs3yCY7bxMeO0W+FzvAri87IGQd\r\nOzJjGDs4jyY7R94QO3h3FTu00hY7T9kPO81tFDuvkRA76yQTOxSzDTu2GgI7qmERO1hLCTvZBAg7\r\nmVIJOxI2AzuxhgI7osoAO++7ADt5egA7tDL9Ohgy+DpptPU6dBn2OrVk7DpMTfQ6i3DqOtPr5TrO\r\ndOw6rS/hOoKY4TrdC+Y62hrhOrDW3zog79o6lNDXOtwx2Dp2peA6QVvXOiUk1Dq3/s06NMTQOtcq\r\nzjpDU8069FbOOmULyDpA38w6+RHAOvumxTrMOr86jy/DOtIvwTo+/7w6mlq+OhDLuzpK6bw69oW1\r\nOhFStTpe27U6b9q3Olx0szpA/rc6vSCzOhqLtDqesas6u2urOvLzsDpGJ7U6WGquOqCppjrAWbA6\r\nnF+jOnH+rjrLtas64fykOpBApzrm9qE6rGmjOtElpTpetao6WmemOvpmpjrVtJo6IfqfOuSjmjo0\r\nUpk65L2eOtVVoDpzgpE6/+OROhDTnjpjhqY6bT+bOjx7oTqxIZs6PT6ZOhUenTr0MZs6Iy6WOuIw\r\nlzomeZU6lnWZOlZalzobXpk6tGSYOhTAmzqnPp86yqKiOuj6njrE7qk6SnCgOv1AkTq4jJI69dCY\r\nOnpPoTqywIk6RESBOodviTquyos6blJrOqGarTpYe786NLmzOqnTnjopuKY6GrqZOjlwjDqgJ286\r\n7BfCOsLUnDqv6H86GD1ZOvrFdDobuJI6TK94OsiFhDpl5Hw60WqGOnEdgzp1S4M6pAWBOmB8iDoD\r\nin86Uj94OhRCgTrH5oQ685ScOhbEdjpkJp06ADuNOmQQkToCJH462ml5On4CdzrYk3c6d8x4Ou2C\r\nezqQtWo6eBd3OoYRdDrAknw6N29xOpKXdjqiYHw6PqlvOk2vbToYMG06DFBvOqS7bjqUKnU6TlJu\r\nOvpdXzqKTGM6/btoOiYHVjrQk2s6r15hOijXazr4WGk6jap3OuagUTpaUmQ6YIk5OkfTQTqSRGQ6\r\n/JuZOitjSjqbeHU63N6ZOlZeOzosgWQ6VgRfOvATfDoyGG86MlxsOn7QaDpvlm06Gu5tOj2Fbjo6\r\nC2c66mllOskXYjpIIGE6SMBjOubJYjogFmE6yG9jOgQbYDpY12I6EkNmOrG0VzoynFw6qnJhOi7P\r\nVjrh+Vk6GstYOmTTYDrsdFc6PKVYOjOcXDo+qVQ6EAhYOvRXVzr8hVM6Dw5WOs+GVjrbaVQ6woBP\r\nOsEdUzroHFU6VudLOuHRVzrU8VI6fntSOhPXTjpuEk06BAlPOsQeSDp8PEk6TOVCOmK1SjraIks6\r\nfOxBOki1RDrqfE06285HOp8LQTradkQ6KYdBOvxlPzohoTs6Qrs6Ony1Pzos7y86BNoiOlrKCTr9\r\nBg860iFcOjxOOzpT1hY6BnAQOv7bqzpFGJ46TAgpOj4iMjo0mzI6J4yIOhvaVjoOuKY6CqCAOjhG\r\ngjpw1VA6BkRdOiUGVzpSrFQ6DUVIOjZzSTr4qkU6lR1VOn/bSTokiD06zXk9OiNwQzriWkA6GE43\r\nOtS6RDq7SUs6KndDOqZ6NzrxKkE6kCA/Ou47OzqCtT86ik9OOlOxPzqx/Ds6yA88Oiu8OzoZ9T46\r\nSvI6OsS8PDp+4jk6a8M3Om6qODq4Ijo60GA3OpDYNzroVzY6GnU0Oq6wMToU3DU6nvE6OnhsOTqQ\r\n7TQ6SlYwOqp4OTrCIzg6fIo2OtkrMDq/9jw6DAUuOjZSODoLPio6qAc4OlC2LDpz/DI6gPwvOj+7\r\nLzq85DU68sE3OobeNjqG+jM6CDAsOoQhNDqx1ik6mQEsOjYgLDoBIC06GPUyOiwZNToVczA6Dusx\r\nOpTkLzrCuCo63LMoOl5hKTqyhyw6tkcsOtbiKDpbRCY6LKcvOlDYJzqP1yk6JuwoOsIfLDqf5SU6\r\n+1AoOoEXJzqdHy46AgonOos+LDoq0yw6i5wnOit6JDqJqik6I4ImOu6oLTr71iI6/5cvOmC+Izo3\r\nnCg6NFYkOj5SLTocGic6EVAhOpBrIzqk6SI6BvkjOsccJTo2TCk61/0iOqeiHTrBliI61gQmOsTL\r\nJjo7fiU6MZIdOr34HjroJSI6k18nOquBITo0vB46jTwgOnL2IDq9RiU6NiIfOlRRITrR1iI65G4e\r\nOpcjHzonNhw6wjcdOrZ+IDp75SQ6LkQdOiDCHjrVniE6QtIbOvS2Ijp+fRg6Tv8mOjzjHDp5Exg6\r\nrggeOpiAGjqjWh06+w0fOu68IDpzKho6PsYfOn9FGTqygRs6Ro8hOihGFzq1LhM6aX0aOrUKGjom\r\n1xU608gUOvTrGTqKRBc6zKoSOqIOGjqjYiA6figcOlqKEzp1ERU6s7gZOgJuFDqOxxc6uSIVOnRt\r\nFjpbeRo6INMZOs4IFzqudBY6zfwROoZ8Izo3sRw6XRsUOs+nGTrpARQ6OJwUOpPvGTrgWRo6KigS\r\nOoD5Fzo09RI6IzAVOrniFjovthE62rUQOpKFFzoqGRM6daAWOieNEDrpsg06JGwROk85Ezp0Sw06\r\ngTwSOnbXFDp90Bg6ZwcXOsTnDzqNixY6hu8TOkzWDTr0RBM6R8YSOg0AEjpWlhQ6igIUOq8lGDpw\r\ndxA6wDcTOgGKFDpBBhE6rKsUOgrJCzo3sA866XQSOvbxFDoXoBQ6x3MSOq7+EDpzZAo6Lr4LOmWq\r\nDzoeuRI67RQQOpGMCzrZrxA6QCwROjsjCTpvrxA6QfsSOt0lEzoYVg46QhwTOpJmDjpRWA06/8gJ\r\nOkIWFDobiBE6wCAUOuydDzoPkhE6IQcPOhxcCzrEOA06S3wQOhpWDzrNFQo61I4MOloACjqd/gw6\r\nVhIROs/gCjoQOwc6LtQOOvDLEDqtsQo6NZcHOlbhDzp8GRE60W0OOtUMDDp32wY68YELOiF5ETp6\r\n/g06S6MOOhQfDzooRA06r/sQOt8WBjrP1gw6hdQIOgbqCDqAMQ86DCULOpVoDDqEbAY6sA0OOvVf\r\nDDofzBE6rrYKOlCjEDpNhhM6unUNOpZ5Djr+BQ06rZoOOhnECTpLAAs67VoIOksuCjoyYgw6olEI\r\nOgOwBTpBsgs632QLOl9tCjpGUQU6KAoKOrNeCjoQLgU6bR8LOtY7Dzp70A86ZvMHOkiqCDo3+Aw6\r\nO04LOuhsCDptEAY67BIQOrKOCzrYKQs60aYJOl2XCTofJQ86TpYMOrH9Bjqg8g06ITEFOoAJDzoZ\r\nSws6SiIPOjgiCjq8Yww6t5ULOnubBjplRwU66WMCOuodCjrIsAY6cOMDOluYCzqy5Qo6q00LOidB\r\nBjpIIg46BvcFOu8JBDqXFgQ6Hg0DOkLDDjoTagw6fBQJOoEoDDotBAg67ToIOgEiBTpO+gs69fkN\r\nOkceCTq3EQ06kckLOtVoCDoXNAs6nZANOgRzCDovpgo6VWcNOkL/CDqGiAU6wDAKOhCyCTrISPA+\r\nerOLPywQiT70CjI/4AdWP7xE6UHvjp9BIv3HPwFXvz9CFoVAhrQqPyZKM0CBsaw+tlPiPuxHI0CZ\r\nY4pAPtW6PvwbP0Bn/7A/oW0OQGM5P0Co6xdANpWRP9sumkCpqRJA+skBQCSZdj8K0RFAVUQHQC71\r\nbUCw0JpA7hr3P4bdH0ARCZVAjxeBQDXfLEE3uolAPN8LQXj9eEAW5KY/Y/0FQG75gj+Xi01AxqYF\r\nQEneNEAthzBBrKyMQJpY/kBEh9o/Te+CQP6SekAsYDg/TgfmP7jJ8j76XcA/rq89QI1fij+anYc/\r\njbMPQUthxD+sEp8/KE6zQN/QjUDrVZxA2JK5Pw+6pz/C2hQ/++f2P/ZaP0B1pu0+DmeHP02DzD6a\r\n0YI/n89hP8Uqkj9nrIU/jEoDQBMH2EBQPLM/WLgAQESWqz5RWiJA8AlYQMLILT+LQSlBTjzeQZQT\r\nk0EqpLpA5KqdQvE/w0I+jINCihaOQkKKPEOyWYRDx9fVQl64dEK43H9CexaVQ9JBnkEEyrRBI186\r\nQYgui0LBXZ9CqPWGQsp4JEIiAL1BYN0pQtGfBEBym/o+UvJxP/ztdj/43Yo+RM7hPpyNaD6+Yng+\r\nZCM1Pm+xVz76WsM94KYGPrfRdj5mOpQ+Q0JOPphx1j66P6I+SeUQP+La+T44g54+t9EUP2yt0z64\r\naR1AaaGkPgIFLz/MBK4+6m2PP4HOpT8sMo8/ZfCZPyQWMz6rxJE/kKyAPloOrz+8hwY/MxUxP7uJ\r\nVD8yo+FAOLSAQH8TeED4YlA/qkazPlCqOEAX2z5ADJyGQEySOEGuB+NAIAJVQAvGyECkeIpBmcMC\r\nQY/gWEGg0zFBv3VHQWS88kDmC3lA383gQMc0nUF8Nb1A2nvWPztoKkGPaZpA5uCgQLwkMEGUgzZB\r\npQXQQXnQuUHL8ZdBCpi3QaCCm0DJsNVAWMQ9QPS2kD9ymgc/tRADP56YeD7DsydAZoS+PuFRhT6I\r\n2E8+8qwYP30+8z5VNPE9K9ZPPXTupD0GgoM+YpyXPXBPrz37Jfk9/SFCPsgPIz6VLBs+aUB2PSGy\r\ngz7zNUs+y02NPR/sKj6p8uA8goVGPshrXT/jlow/WvqTQCahHkAf659AhcTkQE3l3kAeJvhAxB4w\r\nQNcmBkCUkIg/UOYzQNcE0UAFQtFAXdRSQOexh0DOw9ZAY9wwQYYzPkGRGSRB4WaTQQ8a90EjKGBB\r\neC4WQoDdFkKw/iZC0CwpQp07jkKgFZpB+mcQQj1/70EOUrtA0GKDQdccm0GSrsxBXAeYQAVnk0FL\r\nd0pAkFc1QHieZ0EpV0dC8sqzQc+0nUC1GohBeDalQbmAj0DBzNQ/DRy8P47/ikAWffM/rxHeP9KD\r\n+z904Pc/LkOPPraiLz/+IH0+gu6DPbW2Iz3a6Mc81o+vPYRwNz3wUAk9miioPsDJIT/M+kg+/wLE\r\nPmytTj4AYRU9VYdBPmGk1j5nXGw/ChrdP5SlUkBctPg+unSpPzitgD/jb+c/icYzPzeJAT9hZp4/\r\nqKUyQPFLfkAvUcVAIKKFP2SSQj8SFQ9AyrD9PrdSPD+f2b0+pOf3P4Y/RD9wqJ0/W1qPPwYz4T9Y\r\nNV8/rVSXP+6QnD2Wo5A+Uey3PjnhmD0k1VU+A9YPPjpQNj09KiE+GisiPtmDhz08G4o9RmpfPSZB\r\nij0sMpY+6E+9PneKBT1zbw89tvr/PdqgWT7/aXM+t8I9POlRZjz2S8M8632qPE5CmDy00pE8RJHk\r\nOw7R0TxAtGk8Wp8rPQioujwFCQs8pBbKPGrfBz1VJxY9T6ebPDX9Oj0bfB09uGOvPK8OtjxaDS89\r\nUgZkPE4OETxUvy885MP3OxJulTyAq6o8puENPOt2Jjy1qjI8XiW9O3/6UTv3n987DT6JO8Q91jvt\r\n83Y7IDqiOw6FmDssVoY7/6SEO+rLSDvWbXU7Kbh6O+OcLzvS6EU76j9OO2UARTvQZTk7JbIqO9DT\r\nODvU0DU7is4uO/F9IzuLdiM7RkMrO5WaLDsB2xk7JUEjOzfIJjtvEx47Rb4XO8CuLzsgZB07MmMY\r\nOziPJjtH3hA7eHcVO7TSFjtP2Q87zW0UO6+REDvrJBM7FLMNO7YaAjuqYRE7WEsJO9kECDuZUgk7\r\nEjYDO7GGAjuiygA777sAO3l6ADu0Mv06GDL4Omm09Tp0GfY6tWTsOkxN9DqLcOo60+vlOs507Dqt\r\nL+E6gpjhOt0L5jraGuE6sNbfOiDv2jqU0Nc63DHYOnal4DpBW9c6JSTUOrf+zTo0xNA61yrOOkNT\r\nzTr0Vs46ZQvIOkDfzDr5EcA6+6bFOsw6vzqPL8M60i/BOj7/vDqaWr46EMu7OkrpvDr2hbU6EVK1\r\nOl7btTpv2rc6XHSzOkD+tzq9ILM6Gou0Op6xqzq7a6s68vOwOkYntTpYaq46oKmmOsBZsDqcX6M6\r\ncf6uOsu1qzrh/KQ6kECnOub2oTqsaaM60SWlOl61qjpaZ6Y6+mamOtW0mjoh+p865KOaOjRSmTrk\r\nvZ461VWgOnOCkTr/45E6ENOeOmOGpjptP5s6PHuhOrEhmzo9Ppk6FR6dOvQxmzojLpY64jCXOiZ5\r\nlTqWdZk6VlqXOhtemTq0ZJg6FMCbOqc+nzrKoqI66PqeOsTuqTpKcKA6/UCROriMkjr10Jg6ek+h\r\nOrLAiTpERIE6h2+JOq7KizpuUms6oZqtOlh7vzo0ubM6qdOeOim4pjoaupk6OXCMOqAnbzrsF8I6\r\nwtScOq/ofzoYPVk6+sV0Ohu4kjpMr3g6yIWEOmXkfDrRaoY6cR2DOnVLgzqkBYE6YHyIOgOKfzpS\r\nP3g6FEKBOsfmhDrzlJw6FsR2OmQmnToAO406ZBCROgIkfjraaXk6fgJ3OtiTdzp3zHg67YJ7OpC1\r\najp4F3c6hhF0OsCSfDo3b3E6kpd2OqJgfDo+qW86Ta9tOhgwbToMUG86pLtuOpQqdTpOUm46+l1f\r\nOopMYzr9u2g6JgdWOtCTazqvXmE6KNdrOvhYaTqNqnc65qBROlpSZDpgiTk6R9NBOpJEZDr8m5k6\r\nK2NKOpt4dTrc3pk6Vl47OiyBZDpWBF868BN8OjIYbzoyXGw6ftBoOm+WbToa7m06PYVuOjoLZzrq\r\naWU6yRdiOkggYTpIwGM65sliOiAWYTrIb2M6BBtgOljXYjoSQ2Y6sbRXOjKcXDqqcmE6Ls9WOuH5\r\nWToay1g6ZNNgOux0Vzo8pVg6M5xcOj6pVDoQCFg69FdXOvyFUzoPDlY6z4ZWOttpVDrCgE86wR1T\r\nOugcVTpW50s64dFXOtTxUjp+e1I6E9dOOm4STToECU86xB5IOnw8STpM5UI6YrVKOtoiSzp87EE6\r\nSLVEOup8TTrbzkc6nwtBOtp2RDoph0E6/GU/OiGhOzpCuzo6fLU/OizvLzoE2iI6WsoJOv0GDzrS\r\nIVw6PE47OlPWFjoGcBA6/turOkUYnjpMCCk6PiIyOjSbMjonjIg6G9pWOg64pjoKoIA6OEaCOnDV\r\nUDoGRF06JQZXOlKsVDoNRUg6NnNJOviqRTqVHVU6f9tJOiSIPTrNeT06I3BDOuJaQDoYTjc61LpE\r\nOrtJSzoqd0M6pno3OvEqQTqQID867js7OoK1PzqKT046U7E/OrH8OzrIDzw6K7w7Ohn1PjpK8jo6\r\nxLw8On7iOTprwzc6bqo4OrgiOjrQYDc6kNg3OuhXNjoadTQ6rrAxOhTcNTqe8To6eGw5OpDtNDpK\r\nVjA6qng5OsIjODp8ijY62SswOr/2PDoMBS46NlI4Ogs+KjqoBzg6ULYsOnP8MjqA/C86P7svOrzk\r\nNTrywTc6ht42Oob6MzoIMCw6hCE0OrHWKTqZASw6NiAsOgEgLToY9TI6LBk1OhVzMDoO6zE6lOQv\r\nOsK4Kjrcsyg6XmEpOrKHLDq2Ryw61uIoOltEJjospy86UNgnOo/XKTom7Cg6wh8sOp/lJTr7UCg6\r\ngRcnOp0fLjoCCic6iz4sOirTLDqLnCc6K3okOomqKTojgiY67qgtOvvWIjr/ly86YL4jOjecKDo0\r\nViQ6PlItOhwaJzoRUCE6kGsjOqTpIjoG+SM6xxwlOjZMKTrX/SI6p6IdOsGWIjrWBCY6xMsmOjt+\r\nJToxkh06vfgeOuglIjqTXyc6q4EhOjS8HjqNPCA6cvYgOr1GJTo2Ih86VFEhOtHWIjrkbh46lyMf\r\nOic2HDrCNx06tn4gOnvlJDouRB06IMIeOtWeITpC0hs69LYiOn59GDpO/yY6POMcOnkTGDquCB46\r\nmIAaOqNaHTr7DR867rwgOnMqGjo+xh86f0UZOrKBGzpGjyE6KEYXOrUuEzppfRo6tQoaOibXFTrT\r\nyBQ69OsZOopEFzrMqhI6og4aOqNiIDp+KBw6WooTOnURFTqzuBk6Am4UOo7HFzq5IhU6dG0WOlt5\r\nGjog0xk6zggXOq50FjrN/BE6hnwjOjexHDpdGxQ6z6cZOukBFDo4nBQ6k+8ZOuBZGjoqKBI6gPkX\r\nOjT1EjojMBU6ueIWOi+2ETratRA6koUXOioZEzp1oBY6J40QOumyDTokbBE6TzkTOnRLDTqBPBI6\r\ndtcUOn3QGDpnBxc6xOcPOo2LFjqG7xM6TNYNOvREEzpHxhI6DQASOlaWFDqKAhQ6ryUYOnB3EDrA\r\nNxM6AYoUOkEGETqsqxQ6CskLOjewDzrpdBI69vEUOhegFDrHcxI6rv4QOnNkCjouvgs6ZaoPOh65\r\nEjrtFBA6kYwLOtmvEDpALBE6OyMJOm+vEDpB+xI63SUTOhhWDjpCHBM6kmYOOlFYDTr/yAk6QhYU\r\nOhuIETrAIBQ67J0POg+SETohBw86HFwLOsQ4DTpLfBA6GlYPOs0VCjrUjgw6WgAKOp3+DDpWEhE6\r\nz+AKOhA7Bzou1A468MsQOq2xCjo1lwc6VuEPOnwZETrRbQ461QwMOnfbBjrxgQs6IXkROnr+DTpL\r\now46FB8POihEDTqv+xA63xYGOs/WDDqF1Ag6BuoIOoAxDzoMJQs6lWgMOoRsBjqwDQ469V8MOh/M\r\nETqutgo6UKMQOk2GEzq6dQ06lnkOOv4FDTqtmg46GcQJOksACzrtWgg6Sy4KOjJiDDqiUQg6A7AF\r\nOkGyCzrfZAs6X20KOkZRBTooCgo6s14KOhAuBTptHws61jsPOnvQDzpm8wc6SKoIOjf4DDo7Tgs6\r\n6GwIOm0QBjrsEhA6so4LOtgpCzrRpgk6XZcJOh8lDzpOlgw6sf0GOqDyDTohMQU6gAkPOhlLCzpK\r\nIg86OCIKOrxjDDq3lQs6e5sGOmVHBTrpYwI66h0KOsiwBjpw4wM6W5gLOrLlCjqrTQs6J0EGOkgi\r\nDjoG9wU67wkEOpcWBDoeDQM6QsMOOhNqDDp8FAk6gSgMOi0ECDrtOgg6ASIFOk76Czr1+Q06Rx4J\r\nOrcRDTqRyQs61WgIOhc0CzqdkA06BHMIOi+mCjpVZw06Qv8IOoaIBTrAMAo6ELIJOg==",
                            "noiseTrainingType" : "default"
                          }
                        }
                    ],
                    "start" : 2228,
                    "duration" : 1015,
                    "mediaStart" : 0,
                    "mediaDuration" : 1015,
                    "scalar" : 1,
                    "metadata" : {
                      "WinSubProjectDisplayName" : "",
                      "clipSpeedAttribute" : false
                    },
                    "animationTracks" : {

                    }
                  },
                  {
                    "id" : 20,
                    "_type" : "AMFile",
                    "src" : 4,
                    "trackNumber" : 1,
                    "attributes" : {
                      "ident" : "tower-arch-03",
                      "sampleRate" : 44100,
                      "bitDepth" : 16,
                      "gain" : 1.0,
                      "mixToMono" : false
                    },
                      "channelNumber" : "0,1",
                    "effects" : [
                        {
                          "effectName" : "NoiseReduction",
                          "category" : "categoryAudioEffects",
                          "parameters" : {
                            "denoiserAmount" : 20.0,
                            "denoiserThreshold" : 0.0,
                            "noiseProfile" : "yEjwPvqziz8sEIk+9AoyP+AHVj+8ROlB746fQSL9xz8BV78/kBGFQIa0Kj8mSjNAgbGsPrZT4j7s\r\nRyNAmWOKQD7Vuj78Gz9AZ/+wP6FtDkBjOT9AqOsXQDaVkT/bLppAqakSQPrJAUAkmXY/CtERQFVE\r\nB0Au9W1AsNCaQO4a9z+G3R9AEQmVQI8XgUA13yxBN7qJQDzfC0EoBXlAiPOmP2P9BUBu+YI/l4tN\r\nQMamBUBJ3jRALYcwQaysjECaWP5ARIfaP03vgkD+knpALGA4P04H5j9M9/I+Y3TAPwbDPUCNX4o/\r\nmp2HP42zD0FLYcQ/rBKfPyhOs0Df0I1A61WcQNiSuT8Puqc/wtoUP/vn9j/2Wj9AdabtPt5jhz9N\r\ng8w+mtGCP5/PYT/FKpI/Z6yFP4xKA0ATB9hAUDyzP1i4AEBElqs+UVoiQPAJWEDCyC0/i0EpQU48\r\n3kGUE5NBKqS6QOSqnULxP8NCPoyDQooWjkJCijxDslmEQ8fX1UJeuHRCuNx/QnsWlUPSQZ5BBMq0\r\nQSNfOkGILotCwV2fQqj1hkLKeCRCIgC9QWDdKULRnwRAcpv6PlLycT/87XY/+N2KPkTO4T6cjWg+\r\nvmJ4PmQjNT5vsVc++lrDPeCmBj630XY+ZjqUPkRpTj6YcdY+uj+iPknlED/i2vk+OIOePrfRFD9s\r\nrdM+uGkdQGmhpD4CBS8/zASuPuptjz+BzqU/LDKPP2XwmT8kFjM+q8SRP5CsgD5aDq8/vIcGPzMV\r\nMT+7iVQ/MqPhQDi0gEB/E3hA+GJQP6pGsz5QqjhAF9s+QAychkBMkjhBrgfjQCACVUALxshApHiK\r\nQZnDAkGP4FhBoNMxQb91R0FkvPJA5gt5QN/N4EDHNJ1BfDW9QNp71j87aCpBj2maQObgoEC8JDBB\r\nlIM2QaUF0EF50LlBy/GXQQqYt0GggptAybDVQFjEPUD0tpA/cpoHP7UQAz+emHg+w7MnQGaEvj7h\r\nUYU+iNhPPvKsGD99PvM+VTTxPSvWTz107qQ9BoKDPmKclz1wT689+yX5Pf0hQj7IDyM+lSwbPmlA\r\ndj0hsoM+8zVLPstNjT0f7Co+qfLgPIKFRj7Ia10/45aMP1r6k0AmoR5AH+ufQIXE5EBN5d5AHib4\r\nQMQeMEDXJgZAlJCIP1DmM0DXBNFABULRQF3UUkDnsYdAzsPWQGPcMEGGMz5BkRkkQeFmk0EPGvdB\r\nIyhgQXguFkKA3RZCsP4mQtAsKUKdO45CoBWaQfpnEEI9f+9BDlK7QNBig0HXHJtBkq7MQVwHmEAF\r\nZ5NBS3dKQJBXNUB4nmdBKVdHQvLKs0HPtJ1AtRqIQXg2pUG5gI9AwczUPw0cvD+O/4pAFn3zP68R\r\n3j/Sg/s/dOD3Py5Djz62oi8//iB9PoLugz21tiM92ujHPNaPrz2EcDc98FAJPZooqD7AySE/zPpI\r\nPv8CxD5srU4+AGEVPVWHQT5hpNY+Z1xsPwoa3T+UpVJAXLT4Prp0qT84rYA/42/nP4nGMz83iQE/\r\nYWaeP6ilMkDxS35AL1HFQCCihT9kkkI/EhUPQMqw/T63Ujw/n9m9PqTn9z+GP0Q/cKidP1tajz8G\r\nM+E/WDVfP61Ulz/ukJw9lqOQPlHstz454Zg9JNVVPgPWDz46UDY9PSohPhorIj7Zg4c9PBuKPUZq\r\nXz0mQYo9LDKWPuhPvT53igU9c28PPbb6/z3aoFk+/2lzPrfCPTzpUWY89kvDPOt9qjxOQpg8tNKR\r\nPESR5DsO0dE8QLRpPFqfKz0IqLo8BQkLPKQWyjxq3wc9VScWPU+nmzw1/To9G3wdPbhjrzyvDrY8\r\nWg0vPVIGZDxODhE8VL8vPOTD9zsSbpU8gKuqPKbhDTzrdiY8taoyPF4lvTt/+lE795/fOw0+iTvE\r\nPdY77fN2OyA6ojsOhZg7LFaGO/+khDvqy0g71m11Oym4ejvjnC870uhFO+o/TjtlAEU70GU5OyWy\r\nKjvQ0zg71NA1O4rOLjvxfSM7i3YjO0ZDKzuVmiw7AdsZOyVBIzs3yCY7bxMeO0W+FzvAri87IGQd\r\nOzJjGDs4jyY7R94QO3h3FTu00hY7T9kPO81tFDuvkRA76yQTOxSzDTu2GgI7qmERO1hLCTvZBAg7\r\nmVIJOxI2AzuxhgI7osoAO++7ADt5egA7tDL9Ohgy+DpptPU6dBn2OrVk7DpMTfQ6i3DqOtPr5TrO\r\ndOw6rS/hOoKY4TrdC+Y62hrhOrDW3zog79o6lNDXOtwx2Dp2peA6QVvXOiUk1Dq3/s06NMTQOtcq\r\nzjpDU8069FbOOmULyDpA38w6+RHAOvumxTrMOr86jy/DOtIvwTo+/7w6mlq+OhDLuzpK6bw69oW1\r\nOhFStTpe27U6b9q3Olx0szpA/rc6vSCzOhqLtDqesas6u2urOvLzsDpGJ7U6WGquOqCppjrAWbA6\r\nnF+jOnH+rjrLtas64fykOpBApzrm9qE6rGmjOtElpTpetao6WmemOvpmpjrVtJo6IfqfOuSjmjo0\r\nUpk65L2eOtVVoDpzgpE6/+OROhDTnjpjhqY6bT+bOjx7oTqxIZs6PT6ZOhUenTr0MZs6Iy6WOuIw\r\nlzomeZU6lnWZOlZalzobXpk6tGSYOhTAmzqnPp86yqKiOuj6njrE7qk6SnCgOv1AkTq4jJI69dCY\r\nOnpPoTqywIk6RESBOodviTquyos6blJrOqGarTpYe786NLmzOqnTnjopuKY6GrqZOjlwjDqgJ286\r\n7BfCOsLUnDqv6H86GD1ZOvrFdDobuJI6TK94OsiFhDpl5Hw60WqGOnEdgzp1S4M6pAWBOmB8iDoD\r\nin86Uj94OhRCgTrH5oQ685ScOhbEdjpkJp06ADuNOmQQkToCJH462ml5On4CdzrYk3c6d8x4Ou2C\r\nezqQtWo6eBd3OoYRdDrAknw6N29xOpKXdjqiYHw6PqlvOk2vbToYMG06DFBvOqS7bjqUKnU6TlJu\r\nOvpdXzqKTGM6/btoOiYHVjrQk2s6r15hOijXazr4WGk6jap3OuagUTpaUmQ6YIk5OkfTQTqSRGQ6\r\n/JuZOitjSjqbeHU63N6ZOlZeOzosgWQ6VgRfOvATfDoyGG86MlxsOn7QaDpvlm06Gu5tOj2Fbjo6\r\nC2c66mllOskXYjpIIGE6SMBjOubJYjogFmE6yG9jOgQbYDpY12I6EkNmOrG0VzoynFw6qnJhOi7P\r\nVjrh+Vk6GstYOmTTYDrsdFc6PKVYOjOcXDo+qVQ6EAhYOvRXVzr8hVM6Dw5WOs+GVjrbaVQ6woBP\r\nOsEdUzroHFU6VudLOuHRVzrU8VI6fntSOhPXTjpuEk06BAlPOsQeSDp8PEk6TOVCOmK1SjraIks6\r\nfOxBOki1RDrqfE06285HOp8LQTradkQ6KYdBOvxlPzohoTs6Qrs6Ony1Pzos7y86BNoiOlrKCTr9\r\nBg860iFcOjxOOzpT1hY6BnAQOv7bqzpFGJ46TAgpOj4iMjo0mzI6J4yIOhvaVjoOuKY6CqCAOjhG\r\ngjpw1VA6BkRdOiUGVzpSrFQ6DUVIOjZzSTr4qkU6lR1VOn/bSTokiD06zXk9OiNwQzriWkA6GE43\r\nOtS6RDq7SUs6KndDOqZ6NzrxKkE6kCA/Ou47OzqCtT86ik9OOlOxPzqx/Ds6yA88Oiu8OzoZ9T46\r\nSvI6OsS8PDp+4jk6a8M3Om6qODq4Ijo60GA3OpDYNzroVzY6GnU0Oq6wMToU3DU6nvE6OnhsOTqQ\r\n7TQ6SlYwOqp4OTrCIzg6fIo2OtkrMDq/9jw6DAUuOjZSODoLPio6qAc4OlC2LDpz/DI6gPwvOj+7\r\nLzq85DU68sE3OobeNjqG+jM6CDAsOoQhNDqx1ik6mQEsOjYgLDoBIC06GPUyOiwZNToVczA6Dusx\r\nOpTkLzrCuCo63LMoOl5hKTqyhyw6tkcsOtbiKDpbRCY6LKcvOlDYJzqP1yk6JuwoOsIfLDqf5SU6\r\n+1AoOoEXJzqdHy46AgonOos+LDoq0yw6i5wnOit6JDqJqik6I4ImOu6oLTr71iI6/5cvOmC+Izo3\r\nnCg6NFYkOj5SLTocGic6EVAhOpBrIzqk6SI6BvkjOsccJTo2TCk61/0iOqeiHTrBliI61gQmOsTL\r\nJjo7fiU6MZIdOr34HjroJSI6k18nOquBITo0vB46jTwgOnL2IDq9RiU6NiIfOlRRITrR1iI65G4e\r\nOpcjHzonNhw6wjcdOrZ+IDp75SQ6LkQdOiDCHjrVniE6QtIbOvS2Ijp+fRg6Tv8mOjzjHDp5Exg6\r\nrggeOpiAGjqjWh06+w0fOu68IDpzKho6PsYfOn9FGTqygRs6Ro8hOihGFzq1LhM6aX0aOrUKGjom\r\n1xU608gUOvTrGTqKRBc6zKoSOqIOGjqjYiA6figcOlqKEzp1ERU6s7gZOgJuFDqOxxc6uSIVOnRt\r\nFjpbeRo6INMZOs4IFzqudBY6zfwROoZ8Izo3sRw6XRsUOs+nGTrpARQ6OJwUOpPvGTrgWRo6KigS\r\nOoD5Fzo09RI6IzAVOrniFjovthE62rUQOpKFFzoqGRM6daAWOieNEDrpsg06JGwROk85Ezp0Sw06\r\ngTwSOnbXFDp90Bg6ZwcXOsTnDzqNixY6hu8TOkzWDTr0RBM6R8YSOg0AEjpWlhQ6igIUOq8lGDpw\r\ndxA6wDcTOgGKFDpBBhE6rKsUOgrJCzo3sA866XQSOvbxFDoXoBQ6x3MSOq7+EDpzZAo6Lr4LOmWq\r\nDzoeuRI67RQQOpGMCzrZrxA6QCwROjsjCTpvrxA6QfsSOt0lEzoYVg46QhwTOpJmDjpRWA06/8gJ\r\nOkIWFDobiBE6wCAUOuydDzoPkhE6IQcPOhxcCzrEOA06S3wQOhpWDzrNFQo61I4MOloACjqd/gw6\r\nVhIROs/gCjoQOwc6LtQOOvDLEDqtsQo6NZcHOlbhDzp8GRE60W0OOtUMDDp32wY68YELOiF5ETp6\r\n/g06S6MOOhQfDzooRA06r/sQOt8WBjrP1gw6hdQIOgbqCDqAMQ86DCULOpVoDDqEbAY6sA0OOvVf\r\nDDofzBE6rrYKOlCjEDpNhhM6unUNOpZ5Djr+BQ06rZoOOhnECTpLAAs67VoIOksuCjoyYgw6olEI\r\nOgOwBTpBsgs632QLOl9tCjpGUQU6KAoKOrNeCjoQLgU6bR8LOtY7Dzp70A86ZvMHOkiqCDo3+Aw6\r\nO04LOuhsCDptEAY67BIQOrKOCzrYKQs60aYJOl2XCTofJQ86TpYMOrH9Bjqg8g06ITEFOoAJDzoZ\r\nSws6SiIPOjgiCjq8Yww6t5ULOnubBjplRwU66WMCOuodCjrIsAY6cOMDOluYCzqy5Qo6q00LOidB\r\nBjpIIg46BvcFOu8JBDqXFgQ6Hg0DOkLDDjoTagw6fBQJOoEoDDotBAg67ToIOgEiBTpO+gs69fkN\r\nOkceCTq3EQ06kckLOtVoCDoXNAs6nZANOgRzCDovpgo6VWcNOkL/CDqGiAU6wDAKOhCyCTrISPA+\r\nerOLPywQiT70CjI/4AdWP7xE6UHvjp9BIv3HPwFXvz9CFoVAhrQqPyZKM0CBsaw+tlPiPuxHI0CZ\r\nY4pAPtW6PvwbP0Bn/7A/oW0OQGM5P0Co6xdANpWRP9sumkCpqRJA+skBQCSZdj8K0RFAVUQHQC71\r\nbUCw0JpA7hr3P4bdH0ARCZVAjxeBQDXfLEE3uolAPN8LQXj9eEAW5KY/Y/0FQG75gj+Xi01AxqYF\r\nQEneNEAthzBBrKyMQJpY/kBEh9o/Te+CQP6SekAsYDg/TgfmP7jJ8j76XcA/rq89QI1fij+anYc/\r\njbMPQUthxD+sEp8/KE6zQN/QjUDrVZxA2JK5Pw+6pz/C2hQ/++f2P/ZaP0B1pu0+DmeHP02DzD6a\r\n0YI/n89hP8Uqkj9nrIU/jEoDQBMH2EBQPLM/WLgAQESWqz5RWiJA8AlYQMLILT+LQSlBTjzeQZQT\r\nk0EqpLpA5KqdQvE/w0I+jINCihaOQkKKPEOyWYRDx9fVQl64dEK43H9CexaVQ9JBnkEEyrRBI186\r\nQYgui0LBXZ9CqPWGQsp4JEIiAL1BYN0pQtGfBEBym/o+UvJxP/ztdj/43Yo+RM7hPpyNaD6+Yng+\r\nZCM1Pm+xVz76WsM94KYGPrfRdj5mOpQ+Q0JOPphx1j66P6I+SeUQP+La+T44g54+t9EUP2yt0z64\r\naR1AaaGkPgIFLz/MBK4+6m2PP4HOpT8sMo8/ZfCZPyQWMz6rxJE/kKyAPloOrz+8hwY/MxUxP7uJ\r\nVD8yo+FAOLSAQH8TeED4YlA/qkazPlCqOEAX2z5ADJyGQEySOEGuB+NAIAJVQAvGyECkeIpBmcMC\r\nQY/gWEGg0zFBv3VHQWS88kDmC3lA383gQMc0nUF8Nb1A2nvWPztoKkGPaZpA5uCgQLwkMEGUgzZB\r\npQXQQXnQuUHL8ZdBCpi3QaCCm0DJsNVAWMQ9QPS2kD9ymgc/tRADP56YeD7DsydAZoS+PuFRhT6I\r\n2E8+8qwYP30+8z5VNPE9K9ZPPXTupD0GgoM+YpyXPXBPrz37Jfk9/SFCPsgPIz6VLBs+aUB2PSGy\r\ngz7zNUs+y02NPR/sKj6p8uA8goVGPshrXT/jlow/WvqTQCahHkAf659AhcTkQE3l3kAeJvhAxB4w\r\nQNcmBkCUkIg/UOYzQNcE0UAFQtFAXdRSQOexh0DOw9ZAY9wwQYYzPkGRGSRB4WaTQQ8a90EjKGBB\r\neC4WQoDdFkKw/iZC0CwpQp07jkKgFZpB+mcQQj1/70EOUrtA0GKDQdccm0GSrsxBXAeYQAVnk0FL\r\nd0pAkFc1QHieZ0EpV0dC8sqzQc+0nUC1GohBeDalQbmAj0DBzNQ/DRy8P47/ikAWffM/rxHeP9KD\r\n+z904Pc/LkOPPraiLz/+IH0+gu6DPbW2Iz3a6Mc81o+vPYRwNz3wUAk9miioPsDJIT/M+kg+/wLE\r\nPmytTj4AYRU9VYdBPmGk1j5nXGw/ChrdP5SlUkBctPg+unSpPzitgD/jb+c/icYzPzeJAT9hZp4/\r\nqKUyQPFLfkAvUcVAIKKFP2SSQj8SFQ9AyrD9PrdSPD+f2b0+pOf3P4Y/RD9wqJ0/W1qPPwYz4T9Y\r\nNV8/rVSXP+6QnD2Wo5A+Uey3PjnhmD0k1VU+A9YPPjpQNj09KiE+GisiPtmDhz08G4o9RmpfPSZB\r\nij0sMpY+6E+9PneKBT1zbw89tvr/PdqgWT7/aXM+t8I9POlRZjz2S8M8632qPE5CmDy00pE8RJHk\r\nOw7R0TxAtGk8Wp8rPQioujwFCQs8pBbKPGrfBz1VJxY9T6ebPDX9Oj0bfB09uGOvPK8OtjxaDS89\r\nUgZkPE4OETxUvy885MP3OxJulTyAq6o8puENPOt2Jjy1qjI8XiW9O3/6UTv3n987DT6JO8Q91jvt\r\n83Y7IDqiOw6FmDssVoY7/6SEO+rLSDvWbXU7Kbh6O+OcLzvS6EU76j9OO2UARTvQZTk7JbIqO9DT\r\nODvU0DU7is4uO/F9IzuLdiM7RkMrO5WaLDsB2xk7JUEjOzfIJjtvEx47Rb4XO8CuLzsgZB07MmMY\r\nOziPJjtH3hA7eHcVO7TSFjtP2Q87zW0UO6+REDvrJBM7FLMNO7YaAjuqYRE7WEsJO9kECDuZUgk7\r\nEjYDO7GGAjuiygA777sAO3l6ADu0Mv06GDL4Omm09Tp0GfY6tWTsOkxN9DqLcOo60+vlOs507Dqt\r\nL+E6gpjhOt0L5jraGuE6sNbfOiDv2jqU0Nc63DHYOnal4DpBW9c6JSTUOrf+zTo0xNA61yrOOkNT\r\nzTr0Vs46ZQvIOkDfzDr5EcA6+6bFOsw6vzqPL8M60i/BOj7/vDqaWr46EMu7OkrpvDr2hbU6EVK1\r\nOl7btTpv2rc6XHSzOkD+tzq9ILM6Gou0Op6xqzq7a6s68vOwOkYntTpYaq46oKmmOsBZsDqcX6M6\r\ncf6uOsu1qzrh/KQ6kECnOub2oTqsaaM60SWlOl61qjpaZ6Y6+mamOtW0mjoh+p865KOaOjRSmTrk\r\nvZ461VWgOnOCkTr/45E6ENOeOmOGpjptP5s6PHuhOrEhmzo9Ppk6FR6dOvQxmzojLpY64jCXOiZ5\r\nlTqWdZk6VlqXOhtemTq0ZJg6FMCbOqc+nzrKoqI66PqeOsTuqTpKcKA6/UCROriMkjr10Jg6ek+h\r\nOrLAiTpERIE6h2+JOq7KizpuUms6oZqtOlh7vzo0ubM6qdOeOim4pjoaupk6OXCMOqAnbzrsF8I6\r\nwtScOq/ofzoYPVk6+sV0Ohu4kjpMr3g6yIWEOmXkfDrRaoY6cR2DOnVLgzqkBYE6YHyIOgOKfzpS\r\nP3g6FEKBOsfmhDrzlJw6FsR2OmQmnToAO406ZBCROgIkfjraaXk6fgJ3OtiTdzp3zHg67YJ7OpC1\r\najp4F3c6hhF0OsCSfDo3b3E6kpd2OqJgfDo+qW86Ta9tOhgwbToMUG86pLtuOpQqdTpOUm46+l1f\r\nOopMYzr9u2g6JgdWOtCTazqvXmE6KNdrOvhYaTqNqnc65qBROlpSZDpgiTk6R9NBOpJEZDr8m5k6\r\nK2NKOpt4dTrc3pk6Vl47OiyBZDpWBF868BN8OjIYbzoyXGw6ftBoOm+WbToa7m06PYVuOjoLZzrq\r\naWU6yRdiOkggYTpIwGM65sliOiAWYTrIb2M6BBtgOljXYjoSQ2Y6sbRXOjKcXDqqcmE6Ls9WOuH5\r\nWToay1g6ZNNgOux0Vzo8pVg6M5xcOj6pVDoQCFg69FdXOvyFUzoPDlY6z4ZWOttpVDrCgE86wR1T\r\nOugcVTpW50s64dFXOtTxUjp+e1I6E9dOOm4STToECU86xB5IOnw8STpM5UI6YrVKOtoiSzp87EE6\r\nSLVEOup8TTrbzkc6nwtBOtp2RDoph0E6/GU/OiGhOzpCuzo6fLU/OizvLzoE2iI6WsoJOv0GDzrS\r\nIVw6PE47OlPWFjoGcBA6/turOkUYnjpMCCk6PiIyOjSbMjonjIg6G9pWOg64pjoKoIA6OEaCOnDV\r\nUDoGRF06JQZXOlKsVDoNRUg6NnNJOviqRTqVHVU6f9tJOiSIPTrNeT06I3BDOuJaQDoYTjc61LpE\r\nOrtJSzoqd0M6pno3OvEqQTqQID867js7OoK1PzqKT046U7E/OrH8OzrIDzw6K7w7Ohn1PjpK8jo6\r\nxLw8On7iOTprwzc6bqo4OrgiOjrQYDc6kNg3OuhXNjoadTQ6rrAxOhTcNTqe8To6eGw5OpDtNDpK\r\nVjA6qng5OsIjODp8ijY62SswOr/2PDoMBS46NlI4Ogs+KjqoBzg6ULYsOnP8MjqA/C86P7svOrzk\r\nNTrywTc6ht42Oob6MzoIMCw6hCE0OrHWKTqZASw6NiAsOgEgLToY9TI6LBk1OhVzMDoO6zE6lOQv\r\nOsK4Kjrcsyg6XmEpOrKHLDq2Ryw61uIoOltEJjospy86UNgnOo/XKTom7Cg6wh8sOp/lJTr7UCg6\r\ngRcnOp0fLjoCCic6iz4sOirTLDqLnCc6K3okOomqKTojgiY67qgtOvvWIjr/ly86YL4jOjecKDo0\r\nViQ6PlItOhwaJzoRUCE6kGsjOqTpIjoG+SM6xxwlOjZMKTrX/SI6p6IdOsGWIjrWBCY6xMsmOjt+\r\nJToxkh06vfgeOuglIjqTXyc6q4EhOjS8HjqNPCA6cvYgOr1GJTo2Ih86VFEhOtHWIjrkbh46lyMf\r\nOic2HDrCNx06tn4gOnvlJDouRB06IMIeOtWeITpC0hs69LYiOn59GDpO/yY6POMcOnkTGDquCB46\r\nmIAaOqNaHTr7DR867rwgOnMqGjo+xh86f0UZOrKBGzpGjyE6KEYXOrUuEzppfRo6tQoaOibXFTrT\r\nyBQ69OsZOopEFzrMqhI6og4aOqNiIDp+KBw6WooTOnURFTqzuBk6Am4UOo7HFzq5IhU6dG0WOlt5\r\nGjog0xk6zggXOq50FjrN/BE6hnwjOjexHDpdGxQ6z6cZOukBFDo4nBQ6k+8ZOuBZGjoqKBI6gPkX\r\nOjT1EjojMBU6ueIWOi+2ETratRA6koUXOioZEzp1oBY6J40QOumyDTokbBE6TzkTOnRLDTqBPBI6\r\ndtcUOn3QGDpnBxc6xOcPOo2LFjqG7xM6TNYNOvREEzpHxhI6DQASOlaWFDqKAhQ6ryUYOnB3EDrA\r\nNxM6AYoUOkEGETqsqxQ6CskLOjewDzrpdBI69vEUOhegFDrHcxI6rv4QOnNkCjouvgs6ZaoPOh65\r\nEjrtFBA6kYwLOtmvEDpALBE6OyMJOm+vEDpB+xI63SUTOhhWDjpCHBM6kmYOOlFYDTr/yAk6QhYU\r\nOhuIETrAIBQ67J0POg+SETohBw86HFwLOsQ4DTpLfBA6GlYPOs0VCjrUjgw6WgAKOp3+DDpWEhE6\r\nz+AKOhA7Bzou1A468MsQOq2xCjo1lwc6VuEPOnwZETrRbQ461QwMOnfbBjrxgQs6IXkROnr+DTpL\r\now46FB8POihEDTqv+xA63xYGOs/WDDqF1Ag6BuoIOoAxDzoMJQs6lWgMOoRsBjqwDQ469V8MOh/M\r\nETqutgo6UKMQOk2GEzq6dQ06lnkOOv4FDTqtmg46GcQJOksACzrtWgg6Sy4KOjJiDDqiUQg6A7AF\r\nOkGyCzrfZAs6X20KOkZRBTooCgo6s14KOhAuBTptHws61jsPOnvQDzpm8wc6SKoIOjf4DDo7Tgs6\r\n6GwIOm0QBjrsEhA6so4LOtgpCzrRpgk6XZcJOh8lDzpOlgw6sf0GOqDyDTohMQU6gAkPOhlLCzpK\r\nIg86OCIKOrxjDDq3lQs6e5sGOmVHBTrpYwI66h0KOsiwBjpw4wM6W5gLOrLlCjqrTQs6J0EGOkgi\r\nDjoG9wU67wkEOpcWBDoeDQM6QsMOOhNqDDp8FAk6gSgMOi0ECDrtOgg6ASIFOk76Czr1+Q06Rx4J\r\nOrcRDTqRyQs61WgIOhc0CzqdkA06BHMIOi+mCjpVZw06Qv8IOoaIBTrAMAo6ELIJOg==",
                            "noiseTrainingType" : "default"
                          }
                        }
                    ],
                    "start" : 3243,
                    "duration" : 44,
                    "mediaStart" : 1015,
                    "mediaDuration" : 44,
                    "scalar" : 1,
                    "metadata" : {
                      "WinSubProjectDisplayName" : "",
                      "clipSpeedAttribute" : false
                    },
                    "animationTracks" : {

                    }
                  },
                  {
                    "id" : 21,
                    "_type" : "StitchedMedia",
                    "minMediaStart" : 0,
                    "attributes" : {
                      "ident" : "tower-arch-03",
                      "gain" : 1.0,
                      "mixToMono" : false
                    },
                    "parameters" : {
                      "volume" : 1.0,
                      "cursorOpacity" : 1.0,
                      "cursorScale" : 1.0
                    },
                    "medias" : [
                        {
                          "id" : 22,
                          "_type" : "AMFile",
                          "src" : 4,
                          "trackNumber" : 1,
                          "attributes" : {
                            "ident" : "Rec 02-03-20_004",
                            "sampleRate" : 44100,
                            "bitDepth" : 16,
                            "gain" : 1.0,
                            "mixToMono" : false
                          },
                            "channelNumber" : "0,1",
                          "effects" : [

                          ],
                          "start" : 0,
                          "duration" : 1550,
                          "mediaStart" : 0,
                          "mediaDuration" : 1550,
                          "scalar" : 1,
                          "metadata" : {
                            "WinSubProjectDisplayName" : "",
                            "clipSpeedAttribute" : false
                          },
                          "animationTracks" : {

                          }
                        },
                        {
                          "id" : 23,
                          "_type" : "AMFile",
                          "src" : 4,
                          "trackNumber" : 1,
                          "attributes" : {
                            "ident" : "Rec 02-03-20_004",
                            "sampleRate" : 44100,
                            "bitDepth" : 16,
                            "gain" : 1.0,
                            "mixToMono" : false
                          },
                            "channelNumber" : "0,1",
                          "effects" : [

                          ],
                          "start" : 1550,
                          "duration" : 367,
                          "mediaStart" : 1641,
                          "mediaDuration" : 367,
                          "scalar" : 1,
                          "metadata" : {
                            "WinSubProjectDisplayName" : "",
                            "clipSpeedAttribute" : false
                          },
                          "animationTracks" : {

                          }
                        },
                        {
                          "id" : 24,
                          "_type" : "AMFile",
                          "src" : 4,
                          "trackNumber" : 1,
                          "attributes" : {
                            "ident" : "Rec 02-03-20_004",
                            "sampleRate" : 44100,
                            "bitDepth" : 16,
                            "gain" : 1.0,
                            "mixToMono" : false
                          },
                            "channelNumber" : "0,1",
                          "effects" : [

                          ],
                          "start" : 1917,
                          "duration" : 205,
                          "mediaStart" : 2028,
                          "mediaDuration" : 205,
                          "scalar" : 1,
                          "metadata" : {
                            "WinSubProjectDisplayName" : "",
                            "clipSpeedAttribute" : false
                          },
                          "animationTracks" : {

                          }
                        },
                        {
                          "id" : 25,
                          "_type" : "AMFile",
                          "src" : 4,
                          "trackNumber" : 1,
                          "attributes" : {
                            "ident" : "Rec 02-03-20_004",
                            "sampleRate" : 44100,
                            "bitDepth" : 16,
                            "gain" : 1.0,
                            "mixToMono" : false
                          },
                            "channelNumber" : "0,1",
                          "effects" : [

                          ],
                          "start" : 2122,
                          "duration" : 5737,
                          "mediaStart" : 2724,
                          "mediaDuration" : 5737,
                          "scalar" : 1,
                          "metadata" : {
                            "WinSubProjectDisplayName" : "",
                            "clipSpeedAttribute" : false
                          },
                          "animationTracks" : {

                          }
                        }
                    ],
                    "effects" : [
                        {
                          "effectName" : "NoiseReduction",
                          "category" : "categoryAudioEffects",
                          "parameters" : {
                            "denoiserAmount" : 20.0,
                            "denoiserThreshold" : 0.0,
                            "noiseProfile" : "yEjwPvqziz8sEIk+9AoyP+AHVj+8ROlB746fQSL9xz8BV78/kBGFQIa0Kj8mSjNAgbGsPrZT4j7s\r\nRyNAmWOKQD7Vuj78Gz9AZ/+wP6FtDkBjOT9AqOsXQDaVkT/bLppAqakSQPrJAUAkmXY/CtERQFVE\r\nB0Au9W1AsNCaQO4a9z+G3R9AEQmVQI8XgUA13yxBN7qJQDzfC0EoBXlAiPOmP2P9BUBu+YI/l4tN\r\nQMamBUBJ3jRALYcwQaysjECaWP5ARIfaP03vgkD+knpALGA4P04H5j9M9/I+Y3TAPwbDPUCNX4o/\r\nmp2HP42zD0FLYcQ/rBKfPyhOs0Df0I1A61WcQNiSuT8Puqc/wtoUP/vn9j/2Wj9AdabtPt5jhz9N\r\ng8w+mtGCP5/PYT/FKpI/Z6yFP4xKA0ATB9hAUDyzP1i4AEBElqs+UVoiQPAJWEDCyC0/i0EpQU48\r\n3kGUE5NBKqS6QOSqnULxP8NCPoyDQooWjkJCijxDslmEQ8fX1UJeuHRCuNx/QnsWlUPSQZ5BBMq0\r\nQSNfOkGILotCwV2fQqj1hkLKeCRCIgC9QWDdKULRnwRAcpv6PlLycT/87XY/+N2KPkTO4T6cjWg+\r\nvmJ4PmQjNT5vsVc++lrDPeCmBj630XY+ZjqUPkRpTj6YcdY+uj+iPknlED/i2vk+OIOePrfRFD9s\r\nrdM+uGkdQGmhpD4CBS8/zASuPuptjz+BzqU/LDKPP2XwmT8kFjM+q8SRP5CsgD5aDq8/vIcGPzMV\r\nMT+7iVQ/MqPhQDi0gEB/E3hA+GJQP6pGsz5QqjhAF9s+QAychkBMkjhBrgfjQCACVUALxshApHiK\r\nQZnDAkGP4FhBoNMxQb91R0FkvPJA5gt5QN/N4EDHNJ1BfDW9QNp71j87aCpBj2maQObgoEC8JDBB\r\nlIM2QaUF0EF50LlBy/GXQQqYt0GggptAybDVQFjEPUD0tpA/cpoHP7UQAz+emHg+w7MnQGaEvj7h\r\nUYU+iNhPPvKsGD99PvM+VTTxPSvWTz107qQ9BoKDPmKclz1wT689+yX5Pf0hQj7IDyM+lSwbPmlA\r\ndj0hsoM+8zVLPstNjT0f7Co+qfLgPIKFRj7Ia10/45aMP1r6k0AmoR5AH+ufQIXE5EBN5d5AHib4\r\nQMQeMEDXJgZAlJCIP1DmM0DXBNFABULRQF3UUkDnsYdAzsPWQGPcMEGGMz5BkRkkQeFmk0EPGvdB\r\nIyhgQXguFkKA3RZCsP4mQtAsKUKdO45CoBWaQfpnEEI9f+9BDlK7QNBig0HXHJtBkq7MQVwHmEAF\r\nZ5NBS3dKQJBXNUB4nmdBKVdHQvLKs0HPtJ1AtRqIQXg2pUG5gI9AwczUPw0cvD+O/4pAFn3zP68R\r\n3j/Sg/s/dOD3Py5Djz62oi8//iB9PoLugz21tiM92ujHPNaPrz2EcDc98FAJPZooqD7AySE/zPpI\r\nPv8CxD5srU4+AGEVPVWHQT5hpNY+Z1xsPwoa3T+UpVJAXLT4Prp0qT84rYA/42/nP4nGMz83iQE/\r\nYWaeP6ilMkDxS35AL1HFQCCihT9kkkI/EhUPQMqw/T63Ujw/n9m9PqTn9z+GP0Q/cKidP1tajz8G\r\nM+E/WDVfP61Ulz/ukJw9lqOQPlHstz454Zg9JNVVPgPWDz46UDY9PSohPhorIj7Zg4c9PBuKPUZq\r\nXz0mQYo9LDKWPuhPvT53igU9c28PPbb6/z3aoFk+/2lzPrfCPTzpUWY89kvDPOt9qjxOQpg8tNKR\r\nPESR5DsO0dE8QLRpPFqfKz0IqLo8BQkLPKQWyjxq3wc9VScWPU+nmzw1/To9G3wdPbhjrzyvDrY8\r\nWg0vPVIGZDxODhE8VL8vPOTD9zsSbpU8gKuqPKbhDTzrdiY8taoyPF4lvTt/+lE795/fOw0+iTvE\r\nPdY77fN2OyA6ojsOhZg7LFaGO/+khDvqy0g71m11Oym4ejvjnC870uhFO+o/TjtlAEU70GU5OyWy\r\nKjvQ0zg71NA1O4rOLjvxfSM7i3YjO0ZDKzuVmiw7AdsZOyVBIzs3yCY7bxMeO0W+FzvAri87IGQd\r\nOzJjGDs4jyY7R94QO3h3FTu00hY7T9kPO81tFDuvkRA76yQTOxSzDTu2GgI7qmERO1hLCTvZBAg7\r\nmVIJOxI2AzuxhgI7osoAO++7ADt5egA7tDL9Ohgy+DpptPU6dBn2OrVk7DpMTfQ6i3DqOtPr5TrO\r\ndOw6rS/hOoKY4TrdC+Y62hrhOrDW3zog79o6lNDXOtwx2Dp2peA6QVvXOiUk1Dq3/s06NMTQOtcq\r\nzjpDU8069FbOOmULyDpA38w6+RHAOvumxTrMOr86jy/DOtIvwTo+/7w6mlq+OhDLuzpK6bw69oW1\r\nOhFStTpe27U6b9q3Olx0szpA/rc6vSCzOhqLtDqesas6u2urOvLzsDpGJ7U6WGquOqCppjrAWbA6\r\nnF+jOnH+rjrLtas64fykOpBApzrm9qE6rGmjOtElpTpetao6WmemOvpmpjrVtJo6IfqfOuSjmjo0\r\nUpk65L2eOtVVoDpzgpE6/+OROhDTnjpjhqY6bT+bOjx7oTqxIZs6PT6ZOhUenTr0MZs6Iy6WOuIw\r\nlzomeZU6lnWZOlZalzobXpk6tGSYOhTAmzqnPp86yqKiOuj6njrE7qk6SnCgOv1AkTq4jJI69dCY\r\nOnpPoTqywIk6RESBOodviTquyos6blJrOqGarTpYe786NLmzOqnTnjopuKY6GrqZOjlwjDqgJ286\r\n7BfCOsLUnDqv6H86GD1ZOvrFdDobuJI6TK94OsiFhDpl5Hw60WqGOnEdgzp1S4M6pAWBOmB8iDoD\r\nin86Uj94OhRCgTrH5oQ685ScOhbEdjpkJp06ADuNOmQQkToCJH462ml5On4CdzrYk3c6d8x4Ou2C\r\nezqQtWo6eBd3OoYRdDrAknw6N29xOpKXdjqiYHw6PqlvOk2vbToYMG06DFBvOqS7bjqUKnU6TlJu\r\nOvpdXzqKTGM6/btoOiYHVjrQk2s6r15hOijXazr4WGk6jap3OuagUTpaUmQ6YIk5OkfTQTqSRGQ6\r\n/JuZOitjSjqbeHU63N6ZOlZeOzosgWQ6VgRfOvATfDoyGG86MlxsOn7QaDpvlm06Gu5tOj2Fbjo6\r\nC2c66mllOskXYjpIIGE6SMBjOubJYjogFmE6yG9jOgQbYDpY12I6EkNmOrG0VzoynFw6qnJhOi7P\r\nVjrh+Vk6GstYOmTTYDrsdFc6PKVYOjOcXDo+qVQ6EAhYOvRXVzr8hVM6Dw5WOs+GVjrbaVQ6woBP\r\nOsEdUzroHFU6VudLOuHRVzrU8VI6fntSOhPXTjpuEk06BAlPOsQeSDp8PEk6TOVCOmK1SjraIks6\r\nfOxBOki1RDrqfE06285HOp8LQTradkQ6KYdBOvxlPzohoTs6Qrs6Ony1Pzos7y86BNoiOlrKCTr9\r\nBg860iFcOjxOOzpT1hY6BnAQOv7bqzpFGJ46TAgpOj4iMjo0mzI6J4yIOhvaVjoOuKY6CqCAOjhG\r\ngjpw1VA6BkRdOiUGVzpSrFQ6DUVIOjZzSTr4qkU6lR1VOn/bSTokiD06zXk9OiNwQzriWkA6GE43\r\nOtS6RDq7SUs6KndDOqZ6NzrxKkE6kCA/Ou47OzqCtT86ik9OOlOxPzqx/Ds6yA88Oiu8OzoZ9T46\r\nSvI6OsS8PDp+4jk6a8M3Om6qODq4Ijo60GA3OpDYNzroVzY6GnU0Oq6wMToU3DU6nvE6OnhsOTqQ\r\n7TQ6SlYwOqp4OTrCIzg6fIo2OtkrMDq/9jw6DAUuOjZSODoLPio6qAc4OlC2LDpz/DI6gPwvOj+7\r\nLzq85DU68sE3OobeNjqG+jM6CDAsOoQhNDqx1ik6mQEsOjYgLDoBIC06GPUyOiwZNToVczA6Dusx\r\nOpTkLzrCuCo63LMoOl5hKTqyhyw6tkcsOtbiKDpbRCY6LKcvOlDYJzqP1yk6JuwoOsIfLDqf5SU6\r\n+1AoOoEXJzqdHy46AgonOos+LDoq0yw6i5wnOit6JDqJqik6I4ImOu6oLTr71iI6/5cvOmC+Izo3\r\nnCg6NFYkOj5SLTocGic6EVAhOpBrIzqk6SI6BvkjOsccJTo2TCk61/0iOqeiHTrBliI61gQmOsTL\r\nJjo7fiU6MZIdOr34HjroJSI6k18nOquBITo0vB46jTwgOnL2IDq9RiU6NiIfOlRRITrR1iI65G4e\r\nOpcjHzonNhw6wjcdOrZ+IDp75SQ6LkQdOiDCHjrVniE6QtIbOvS2Ijp+fRg6Tv8mOjzjHDp5Exg6\r\nrggeOpiAGjqjWh06+w0fOu68IDpzKho6PsYfOn9FGTqygRs6Ro8hOihGFzq1LhM6aX0aOrUKGjom\r\n1xU608gUOvTrGTqKRBc6zKoSOqIOGjqjYiA6figcOlqKEzp1ERU6s7gZOgJuFDqOxxc6uSIVOnRt\r\nFjpbeRo6INMZOs4IFzqudBY6zfwROoZ8Izo3sRw6XRsUOs+nGTrpARQ6OJwUOpPvGTrgWRo6KigS\r\nOoD5Fzo09RI6IzAVOrniFjovthE62rUQOpKFFzoqGRM6daAWOieNEDrpsg06JGwROk85Ezp0Sw06\r\ngTwSOnbXFDp90Bg6ZwcXOsTnDzqNixY6hu8TOkzWDTr0RBM6R8YSOg0AEjpWlhQ6igIUOq8lGDpw\r\ndxA6wDcTOgGKFDpBBhE6rKsUOgrJCzo3sA866XQSOvbxFDoXoBQ6x3MSOq7+EDpzZAo6Lr4LOmWq\r\nDzoeuRI67RQQOpGMCzrZrxA6QCwROjsjCTpvrxA6QfsSOt0lEzoYVg46QhwTOpJmDjpRWA06/8gJ\r\nOkIWFDobiBE6wCAUOuydDzoPkhE6IQcPOhxcCzrEOA06S3wQOhpWDzrNFQo61I4MOloACjqd/gw6\r\nVhIROs/gCjoQOwc6LtQOOvDLEDqtsQo6NZcHOlbhDzp8GRE60W0OOtUMDDp32wY68YELOiF5ETp6\r\n/g06S6MOOhQfDzooRA06r/sQOt8WBjrP1gw6hdQIOgbqCDqAMQ86DCULOpVoDDqEbAY6sA0OOvVf\r\nDDofzBE6rrYKOlCjEDpNhhM6unUNOpZ5Djr+BQ06rZoOOhnECTpLAAs67VoIOksuCjoyYgw6olEI\r\nOgOwBTpBsgs632QLOl9tCjpGUQU6KAoKOrNeCjoQLgU6bR8LOtY7Dzp70A86ZvMHOkiqCDo3+Aw6\r\nO04LOuhsCDptEAY67BIQOrKOCzrYKQs60aYJOl2XCTofJQ86TpYMOrH9Bjqg8g06ITEFOoAJDzoZ\r\nSws6SiIPOjgiCjq8Yww6t5ULOnubBjplRwU66WMCOuodCjrIsAY6cOMDOluYCzqy5Qo6q00LOidB\r\nBjpIIg46BvcFOu8JBDqXFgQ6Hg0DOkLDDjoTagw6fBQJOoEoDDotBAg67ToIOgEiBTpO+gs69fkN\r\nOkceCTq3EQ06kckLOtVoCDoXNAs6nZANOgRzCDovpgo6VWcNOkL/CDqGiAU6wDAKOhCyCTrISPA+\r\nerOLPywQiT70CjI/4AdWP7xE6UHvjp9BIv3HPwFXvz9CFoVAhrQqPyZKM0CBsaw+tlPiPuxHI0CZ\r\nY4pAPtW6PvwbP0Bn/7A/oW0OQGM5P0Co6xdANpWRP9sumkCpqRJA+skBQCSZdj8K0RFAVUQHQC71\r\nbUCw0JpA7hr3P4bdH0ARCZVAjxeBQDXfLEE3uolAPN8LQXj9eEAW5KY/Y/0FQG75gj+Xi01AxqYF\r\nQEneNEAthzBBrKyMQJpY/kBEh9o/Te+CQP6SekAsYDg/TgfmP7jJ8j76XcA/rq89QI1fij+anYc/\r\njbMPQUthxD+sEp8/KE6zQN/QjUDrVZxA2JK5Pw+6pz/C2hQ/++f2P/ZaP0B1pu0+DmeHP02DzD6a\r\n0YI/n89hP8Uqkj9nrIU/jEoDQBMH2EBQPLM/WLgAQESWqz5RWiJA8AlYQMLILT+LQSlBTjzeQZQT\r\nk0EqpLpA5KqdQvE/w0I+jINCihaOQkKKPEOyWYRDx9fVQl64dEK43H9CexaVQ9JBnkEEyrRBI186\r\nQYgui0LBXZ9CqPWGQsp4JEIiAL1BYN0pQtGfBEBym/o+UvJxP/ztdj/43Yo+RM7hPpyNaD6+Yng+\r\nZCM1Pm+xVz76WsM94KYGPrfRdj5mOpQ+Q0JOPphx1j66P6I+SeUQP+La+T44g54+t9EUP2yt0z64\r\naR1AaaGkPgIFLz/MBK4+6m2PP4HOpT8sMo8/ZfCZPyQWMz6rxJE/kKyAPloOrz+8hwY/MxUxP7uJ\r\nVD8yo+FAOLSAQH8TeED4YlA/qkazPlCqOEAX2z5ADJyGQEySOEGuB+NAIAJVQAvGyECkeIpBmcMC\r\nQY/gWEGg0zFBv3VHQWS88kDmC3lA383gQMc0nUF8Nb1A2nvWPztoKkGPaZpA5uCgQLwkMEGUgzZB\r\npQXQQXnQuUHL8ZdBCpi3QaCCm0DJsNVAWMQ9QPS2kD9ymgc/tRADP56YeD7DsydAZoS+PuFRhT6I\r\n2E8+8qwYP30+8z5VNPE9K9ZPPXTupD0GgoM+YpyXPXBPrz37Jfk9/SFCPsgPIz6VLBs+aUB2PSGy\r\ngz7zNUs+y02NPR/sKj6p8uA8goVGPshrXT/jlow/WvqTQCahHkAf659AhcTkQE3l3kAeJvhAxB4w\r\nQNcmBkCUkIg/UOYzQNcE0UAFQtFAXdRSQOexh0DOw9ZAY9wwQYYzPkGRGSRB4WaTQQ8a90EjKGBB\r\neC4WQoDdFkKw/iZC0CwpQp07jkKgFZpB+mcQQj1/70EOUrtA0GKDQdccm0GSrsxBXAeYQAVnk0FL\r\nd0pAkFc1QHieZ0EpV0dC8sqzQc+0nUC1GohBeDalQbmAj0DBzNQ/DRy8P47/ikAWffM/rxHeP9KD\r\n+z904Pc/LkOPPraiLz/+IH0+gu6DPbW2Iz3a6Mc81o+vPYRwNz3wUAk9miioPsDJIT/M+kg+/wLE\r\nPmytTj4AYRU9VYdBPmGk1j5nXGw/ChrdP5SlUkBctPg+unSpPzitgD/jb+c/icYzPzeJAT9hZp4/\r\nqKUyQPFLfkAvUcVAIKKFP2SSQj8SFQ9AyrD9PrdSPD+f2b0+pOf3P4Y/RD9wqJ0/W1qPPwYz4T9Y\r\nNV8/rVSXP+6QnD2Wo5A+Uey3PjnhmD0k1VU+A9YPPjpQNj09KiE+GisiPtmDhz08G4o9RmpfPSZB\r\nij0sMpY+6E+9PneKBT1zbw89tvr/PdqgWT7/aXM+t8I9POlRZjz2S8M8632qPE5CmDy00pE8RJHk\r\nOw7R0TxAtGk8Wp8rPQioujwFCQs8pBbKPGrfBz1VJxY9T6ebPDX9Oj0bfB09uGOvPK8OtjxaDS89\r\nUgZkPE4OETxUvy885MP3OxJulTyAq6o8puENPOt2Jjy1qjI8XiW9O3/6UTv3n987DT6JO8Q91jvt\r\n83Y7IDqiOw6FmDssVoY7/6SEO+rLSDvWbXU7Kbh6O+OcLzvS6EU76j9OO2UARTvQZTk7JbIqO9DT\r\nODvU0DU7is4uO/F9IzuLdiM7RkMrO5WaLDsB2xk7JUEjOzfIJjtvEx47Rb4XO8CuLzsgZB07MmMY\r\nOziPJjtH3hA7eHcVO7TSFjtP2Q87zW0UO6+REDvrJBM7FLMNO7YaAjuqYRE7WEsJO9kECDuZUgk7\r\nEjYDO7GGAjuiygA777sAO3l6ADu0Mv06GDL4Omm09Tp0GfY6tWTsOkxN9DqLcOo60+vlOs507Dqt\r\nL+E6gpjhOt0L5jraGuE6sNbfOiDv2jqU0Nc63DHYOnal4DpBW9c6JSTUOrf+zTo0xNA61yrOOkNT\r\nzTr0Vs46ZQvIOkDfzDr5EcA6+6bFOsw6vzqPL8M60i/BOj7/vDqaWr46EMu7OkrpvDr2hbU6EVK1\r\nOl7btTpv2rc6XHSzOkD+tzq9ILM6Gou0Op6xqzq7a6s68vOwOkYntTpYaq46oKmmOsBZsDqcX6M6\r\ncf6uOsu1qzrh/KQ6kECnOub2oTqsaaM60SWlOl61qjpaZ6Y6+mamOtW0mjoh+p865KOaOjRSmTrk\r\nvZ461VWgOnOCkTr/45E6ENOeOmOGpjptP5s6PHuhOrEhmzo9Ppk6FR6dOvQxmzojLpY64jCXOiZ5\r\nlTqWdZk6VlqXOhtemTq0ZJg6FMCbOqc+nzrKoqI66PqeOsTuqTpKcKA6/UCROriMkjr10Jg6ek+h\r\nOrLAiTpERIE6h2+JOq7KizpuUms6oZqtOlh7vzo0ubM6qdOeOim4pjoaupk6OXCMOqAnbzrsF8I6\r\nwtScOq/ofzoYPVk6+sV0Ohu4kjpMr3g6yIWEOmXkfDrRaoY6cR2DOnVLgzqkBYE6YHyIOgOKfzpS\r\nP3g6FEKBOsfmhDrzlJw6FsR2OmQmnToAO406ZBCROgIkfjraaXk6fgJ3OtiTdzp3zHg67YJ7OpC1\r\najp4F3c6hhF0OsCSfDo3b3E6kpd2OqJgfDo+qW86Ta9tOhgwbToMUG86pLtuOpQqdTpOUm46+l1f\r\nOopMYzr9u2g6JgdWOtCTazqvXmE6KNdrOvhYaTqNqnc65qBROlpSZDpgiTk6R9NBOpJEZDr8m5k6\r\nK2NKOpt4dTrc3pk6Vl47OiyBZDpWBF868BN8OjIYbzoyXGw6ftBoOm+WbToa7m06PYVuOjoLZzrq\r\naWU6yRdiOkggYTpIwGM65sliOiAWYTrIb2M6BBtgOljXYjoSQ2Y6sbRXOjKcXDqqcmE6Ls9WOuH5\r\nWToay1g6ZNNgOux0Vzo8pVg6M5xcOj6pVDoQCFg69FdXOvyFUzoPDlY6z4ZWOttpVDrCgE86wR1T\r\nOugcVTpW50s64dFXOtTxUjp+e1I6E9dOOm4STToECU86xB5IOnw8STpM5UI6YrVKOtoiSzp87EE6\r\nSLVEOup8TTrbzkc6nwtBOtp2RDoph0E6/GU/OiGhOzpCuzo6fLU/OizvLzoE2iI6WsoJOv0GDzrS\r\nIVw6PE47OlPWFjoGcBA6/turOkUYnjpMCCk6PiIyOjSbMjonjIg6G9pWOg64pjoKoIA6OEaCOnDV\r\nUDoGRF06JQZXOlKsVDoNRUg6NnNJOviqRTqVHVU6f9tJOiSIPTrNeT06I3BDOuJaQDoYTjc61LpE\r\nOrtJSzoqd0M6pno3OvEqQTqQID867js7OoK1PzqKT046U7E/OrH8OzrIDzw6K7w7Ohn1PjpK8jo6\r\nxLw8On7iOTprwzc6bqo4OrgiOjrQYDc6kNg3OuhXNjoadTQ6rrAxOhTcNTqe8To6eGw5OpDtNDpK\r\nVjA6qng5OsIjODp8ijY62SswOr/2PDoMBS46NlI4Ogs+KjqoBzg6ULYsOnP8MjqA/C86P7svOrzk\r\nNTrywTc6ht42Oob6MzoIMCw6hCE0OrHWKTqZASw6NiAsOgEgLToY9TI6LBk1OhVzMDoO6zE6lOQv\r\nOsK4Kjrcsyg6XmEpOrKHLDq2Ryw61uIoOltEJjospy86UNgnOo/XKTom7Cg6wh8sOp/lJTr7UCg6\r\ngRcnOp0fLjoCCic6iz4sOirTLDqLnCc6K3okOomqKTojgiY67qgtOvvWIjr/ly86YL4jOjecKDo0\r\nViQ6PlItOhwaJzoRUCE6kGsjOqTpIjoG+SM6xxwlOjZMKTrX/SI6p6IdOsGWIjrWBCY6xMsmOjt+\r\nJToxkh06vfgeOuglIjqTXyc6q4EhOjS8HjqNPCA6cvYgOr1GJTo2Ih86VFEhOtHWIjrkbh46lyMf\r\nOic2HDrCNx06tn4gOnvlJDouRB06IMIeOtWeITpC0hs69LYiOn59GDpO/yY6POMcOnkTGDquCB46\r\nmIAaOqNaHTr7DR867rwgOnMqGjo+xh86f0UZOrKBGzpGjyE6KEYXOrUuEzppfRo6tQoaOibXFTrT\r\nyBQ69OsZOopEFzrMqhI6og4aOqNiIDp+KBw6WooTOnURFTqzuBk6Am4UOo7HFzq5IhU6dG0WOlt5\r\nGjog0xk6zggXOq50FjrN/BE6hnwjOjexHDpdGxQ6z6cZOukBFDo4nBQ6k+8ZOuBZGjoqKBI6gPkX\r\nOjT1EjojMBU6ueIWOi+2ETratRA6koUXOioZEzp1oBY6J40QOumyDTokbBE6TzkTOnRLDTqBPBI6\r\ndtcUOn3QGDpnBxc6xOcPOo2LFjqG7xM6TNYNOvREEzpHxhI6DQASOlaWFDqKAhQ6ryUYOnB3EDrA\r\nNxM6AYoUOkEGETqsqxQ6CskLOjewDzrpdBI69vEUOhegFDrHcxI6rv4QOnNkCjouvgs6ZaoPOh65\r\nEjrtFBA6kYwLOtmvEDpALBE6OyMJOm+vEDpB+xI63SUTOhhWDjpCHBM6kmYOOlFYDTr/yAk6QhYU\r\nOhuIETrAIBQ67J0POg+SETohBw86HFwLOsQ4DTpLfBA6GlYPOs0VCjrUjgw6WgAKOp3+DDpWEhE6\r\nz+AKOhA7Bzou1A468MsQOq2xCjo1lwc6VuEPOnwZETrRbQ461QwMOnfbBjrxgQs6IXkROnr+DTpL\r\now46FB8POihEDTqv+xA63xYGOs/WDDqF1Ag6BuoIOoAxDzoMJQs6lWgMOoRsBjqwDQ469V8MOh/M\r\nETqutgo6UKMQOk2GEzq6dQ06lnkOOv4FDTqtmg46GcQJOksACzrtWgg6Sy4KOjJiDDqiUQg6A7AF\r\nOkGyCzrfZAs6X20KOkZRBTooCgo6s14KOhAuBTptHws61jsPOnvQDzpm8wc6SKoIOjf4DDo7Tgs6\r\n6GwIOm0QBjrsEhA6so4LOtgpCzrRpgk6XZcJOh8lDzpOlgw6sf0GOqDyDTohMQU6gAkPOhlLCzpK\r\nIg86OCIKOrxjDDq3lQs6e5sGOmVHBTrpYwI66h0KOsiwBjpw4wM6W5gLOrLlCjqrTQs6J0EGOkgi\r\nDjoG9wU67wkEOpcWBDoeDQM6QsMOOhNqDDp8FAk6gSgMOi0ECDrtOgg6ASIFOk76Czr1+Q06Rx4J\r\nOrcRDTqRyQs61WgIOhc0CzqdkA06BHMIOi+mCjpVZw06Qv8IOoaIBTrAMAo6ELIJOg==",
                            "noiseTrainingType" : "default"
                          }
                        }
                    ],
                    "start" : 3287,
                    "duration" : 1041,
                    "mediaStart" : 1145,
                    "mediaDuration" : 1041,
                    "scalar" : 1,
                    "metadata" : {
                      "WinSubProjectDisplayName" : "",
                      "clipSpeedAttribute" : false
                    },
                    "animationTracks" : {

                    }
                  },
                  {
                    "id" : 26,
                    "_type" : "StitchedMedia",
                    "minMediaStart" : 0,
                    "attributes" : {
                      "ident" : "tower-arch-03",
                      "gain" : 1.0,
                      "mixToMono" : false
                    },
                    "parameters" : {
                      "volume" : 1.0,
                      "cursorOpacity" : 1.0,
                      "cursorScale" : 1.0
                    },
                    "medias" : [
                        {
                          "id" : 27,
                          "_type" : "AMFile",
                          "src" : 4,
                          "trackNumber" : 1,
                          "attributes" : {
                            "ident" : "Rec 02-03-20_004",
                            "sampleRate" : 44100,
                            "bitDepth" : 16,
                            "gain" : 1.0,
                            "mixToMono" : false
                          },
                            "channelNumber" : "0,1",
                          "effects" : [

                          ],
                          "start" : 0,
                          "duration" : 1550,
                          "mediaStart" : 0,
                          "mediaDuration" : 1550,
                          "scalar" : 1,
                          "metadata" : {
                            "WinSubProjectDisplayName" : "",
                            "clipSpeedAttribute" : false
                          },
                          "animationTracks" : {

                          }
                        },
                        {
                          "id" : 28,
                          "_type" : "AMFile",
                          "src" : 4,
                          "trackNumber" : 1,
                          "attributes" : {
                            "ident" : "Rec 02-03-20_004",
                            "sampleRate" : 44100,
                            "bitDepth" : 16,
                            "gain" : 1.0,
                            "mixToMono" : false
                          },
                            "channelNumber" : "0,1",
                          "effects" : [

                          ],
                          "start" : 1550,
                          "duration" : 367,
                          "mediaStart" : 1641,
                          "mediaDuration" : 367,
                          "scalar" : 1,
                          "metadata" : {
                            "WinSubProjectDisplayName" : "",
                            "clipSpeedAttribute" : false
                          },
                          "animationTracks" : {

                          }
                        },
                        {
                          "id" : 29,
                          "_type" : "AMFile",
                          "src" : 4,
                          "trackNumber" : 1,
                          "attributes" : {
                            "ident" : "Rec 02-03-20_004",
                            "sampleRate" : 44100,
                            "bitDepth" : 16,
                            "gain" : 1.0,
                            "mixToMono" : false
                          },
                            "channelNumber" : "0,1",
                          "effects" : [

                          ],
                          "start" : 1917,
                          "duration" : 205,
                          "mediaStart" : 2028,
                          "mediaDuration" : 205,
                          "scalar" : 1,
                          "metadata" : {
                            "WinSubProjectDisplayName" : "",
                            "clipSpeedAttribute" : false
                          },
                          "animationTracks" : {

                          }
                        },
                        {
                          "id" : 30,
                          "_type" : "AMFile",
                          "src" : 4,
                          "trackNumber" : 1,
                          "attributes" : {
                            "ident" : "Rec 02-03-20_004",
                            "sampleRate" : 44100,
                            "bitDepth" : 16,
                            "gain" : 1.0,
                            "mixToMono" : false
                          },
                            "channelNumber" : "0,1",
                          "effects" : [

                          ],
                          "start" : 2122,
                          "duration" : 5737,
                          "mediaStart" : 2724,
                          "mediaDuration" : 5737,
                          "scalar" : 1,
                          "metadata" : {
                            "WinSubProjectDisplayName" : "",
                            "clipSpeedAttribute" : false
                          },
                          "animationTracks" : {

                          }
                        }
                    ],
                    "effects" : [
                        {
                          "effectName" : "NoiseReduction",
                          "category" : "categoryAudioEffects",
                          "parameters" : {
                            "denoiserAmount" : 20.0,
                            "denoiserThreshold" : 0.0,
                            "noiseProfile" : "yEjwPvqziz8sEIk+9AoyP+AHVj+8ROlB746fQSL9xz8BV78/kBGFQIa0Kj8mSjNAgbGsPrZT4j7s\r\nRyNAmWOKQD7Vuj78Gz9AZ/+wP6FtDkBjOT9AqOsXQDaVkT/bLppAqakSQPrJAUAkmXY/CtERQFVE\r\nB0Au9W1AsNCaQO4a9z+G3R9AEQmVQI8XgUA13yxBN7qJQDzfC0EoBXlAiPOmP2P9BUBu+YI/l4tN\r\nQMamBUBJ3jRALYcwQaysjECaWP5ARIfaP03vgkD+knpALGA4P04H5j9M9/I+Y3TAPwbDPUCNX4o/\r\nmp2HP42zD0FLYcQ/rBKfPyhOs0Df0I1A61WcQNiSuT8Puqc/wtoUP/vn9j/2Wj9AdabtPt5jhz9N\r\ng8w+mtGCP5/PYT/FKpI/Z6yFP4xKA0ATB9hAUDyzP1i4AEBElqs+UVoiQPAJWEDCyC0/i0EpQU48\r\n3kGUE5NBKqS6QOSqnULxP8NCPoyDQooWjkJCijxDslmEQ8fX1UJeuHRCuNx/QnsWlUPSQZ5BBMq0\r\nQSNfOkGILotCwV2fQqj1hkLKeCRCIgC9QWDdKULRnwRAcpv6PlLycT/87XY/+N2KPkTO4T6cjWg+\r\nvmJ4PmQjNT5vsVc++lrDPeCmBj630XY+ZjqUPkRpTj6YcdY+uj+iPknlED/i2vk+OIOePrfRFD9s\r\nrdM+uGkdQGmhpD4CBS8/zASuPuptjz+BzqU/LDKPP2XwmT8kFjM+q8SRP5CsgD5aDq8/vIcGPzMV\r\nMT+7iVQ/MqPhQDi0gEB/E3hA+GJQP6pGsz5QqjhAF9s+QAychkBMkjhBrgfjQCACVUALxshApHiK\r\nQZnDAkGP4FhBoNMxQb91R0FkvPJA5gt5QN/N4EDHNJ1BfDW9QNp71j87aCpBj2maQObgoEC8JDBB\r\nlIM2QaUF0EF50LlBy/GXQQqYt0GggptAybDVQFjEPUD0tpA/cpoHP7UQAz+emHg+w7MnQGaEvj7h\r\nUYU+iNhPPvKsGD99PvM+VTTxPSvWTz107qQ9BoKDPmKclz1wT689+yX5Pf0hQj7IDyM+lSwbPmlA\r\ndj0hsoM+8zVLPstNjT0f7Co+qfLgPIKFRj7Ia10/45aMP1r6k0AmoR5AH+ufQIXE5EBN5d5AHib4\r\nQMQeMEDXJgZAlJCIP1DmM0DXBNFABULRQF3UUkDnsYdAzsPWQGPcMEGGMz5BkRkkQeFmk0EPGvdB\r\nIyhgQXguFkKA3RZCsP4mQtAsKUKdO45CoBWaQfpnEEI9f+9BDlK7QNBig0HXHJtBkq7MQVwHmEAF\r\nZ5NBS3dKQJBXNUB4nmdBKVdHQvLKs0HPtJ1AtRqIQXg2pUG5gI9AwczUPw0cvD+O/4pAFn3zP68R\r\n3j/Sg/s/dOD3Py5Djz62oi8//iB9PoLugz21tiM92ujHPNaPrz2EcDc98FAJPZooqD7AySE/zPpI\r\nPv8CxD5srU4+AGEVPVWHQT5hpNY+Z1xsPwoa3T+UpVJAXLT4Prp0qT84rYA/42/nP4nGMz83iQE/\r\nYWaeP6ilMkDxS35AL1HFQCCihT9kkkI/EhUPQMqw/T63Ujw/n9m9PqTn9z+GP0Q/cKidP1tajz8G\r\nM+E/WDVfP61Ulz/ukJw9lqOQPlHstz454Zg9JNVVPgPWDz46UDY9PSohPhorIj7Zg4c9PBuKPUZq\r\nXz0mQYo9LDKWPuhPvT53igU9c28PPbb6/z3aoFk+/2lzPrfCPTzpUWY89kvDPOt9qjxOQpg8tNKR\r\nPESR5DsO0dE8QLRpPFqfKz0IqLo8BQkLPKQWyjxq3wc9VScWPU+nmzw1/To9G3wdPbhjrzyvDrY8\r\nWg0vPVIGZDxODhE8VL8vPOTD9zsSbpU8gKuqPKbhDTzrdiY8taoyPF4lvTt/+lE795/fOw0+iTvE\r\nPdY77fN2OyA6ojsOhZg7LFaGO/+khDvqy0g71m11Oym4ejvjnC870uhFO+o/TjtlAEU70GU5OyWy\r\nKjvQ0zg71NA1O4rOLjvxfSM7i3YjO0ZDKzuVmiw7AdsZOyVBIzs3yCY7bxMeO0W+FzvAri87IGQd\r\nOzJjGDs4jyY7R94QO3h3FTu00hY7T9kPO81tFDuvkRA76yQTOxSzDTu2GgI7qmERO1hLCTvZBAg7\r\nmVIJOxI2AzuxhgI7osoAO++7ADt5egA7tDL9Ohgy+DpptPU6dBn2OrVk7DpMTfQ6i3DqOtPr5TrO\r\ndOw6rS/hOoKY4TrdC+Y62hrhOrDW3zog79o6lNDXOtwx2Dp2peA6QVvXOiUk1Dq3/s06NMTQOtcq\r\nzjpDU8069FbOOmULyDpA38w6+RHAOvumxTrMOr86jy/DOtIvwTo+/7w6mlq+OhDLuzpK6bw69oW1\r\nOhFStTpe27U6b9q3Olx0szpA/rc6vSCzOhqLtDqesas6u2urOvLzsDpGJ7U6WGquOqCppjrAWbA6\r\nnF+jOnH+rjrLtas64fykOpBApzrm9qE6rGmjOtElpTpetao6WmemOvpmpjrVtJo6IfqfOuSjmjo0\r\nUpk65L2eOtVVoDpzgpE6/+OROhDTnjpjhqY6bT+bOjx7oTqxIZs6PT6ZOhUenTr0MZs6Iy6WOuIw\r\nlzomeZU6lnWZOlZalzobXpk6tGSYOhTAmzqnPp86yqKiOuj6njrE7qk6SnCgOv1AkTq4jJI69dCY\r\nOnpPoTqywIk6RESBOodviTquyos6blJrOqGarTpYe786NLmzOqnTnjopuKY6GrqZOjlwjDqgJ286\r\n7BfCOsLUnDqv6H86GD1ZOvrFdDobuJI6TK94OsiFhDpl5Hw60WqGOnEdgzp1S4M6pAWBOmB8iDoD\r\nin86Uj94OhRCgTrH5oQ685ScOhbEdjpkJp06ADuNOmQQkToCJH462ml5On4CdzrYk3c6d8x4Ou2C\r\nezqQtWo6eBd3OoYRdDrAknw6N29xOpKXdjqiYHw6PqlvOk2vbToYMG06DFBvOqS7bjqUKnU6TlJu\r\nOvpdXzqKTGM6/btoOiYHVjrQk2s6r15hOijXazr4WGk6jap3OuagUTpaUmQ6YIk5OkfTQTqSRGQ6\r\n/JuZOitjSjqbeHU63N6ZOlZeOzosgWQ6VgRfOvATfDoyGG86MlxsOn7QaDpvlm06Gu5tOj2Fbjo6\r\nC2c66mllOskXYjpIIGE6SMBjOubJYjogFmE6yG9jOgQbYDpY12I6EkNmOrG0VzoynFw6qnJhOi7P\r\nVjrh+Vk6GstYOmTTYDrsdFc6PKVYOjOcXDo+qVQ6EAhYOvRXVzr8hVM6Dw5WOs+GVjrbaVQ6woBP\r\nOsEdUzroHFU6VudLOuHRVzrU8VI6fntSOhPXTjpuEk06BAlPOsQeSDp8PEk6TOVCOmK1SjraIks6\r\nfOxBOki1RDrqfE06285HOp8LQTradkQ6KYdBOvxlPzohoTs6Qrs6Ony1Pzos7y86BNoiOlrKCTr9\r\nBg860iFcOjxOOzpT1hY6BnAQOv7bqzpFGJ46TAgpOj4iMjo0mzI6J4yIOhvaVjoOuKY6CqCAOjhG\r\ngjpw1VA6BkRdOiUGVzpSrFQ6DUVIOjZzSTr4qkU6lR1VOn/bSTokiD06zXk9OiNwQzriWkA6GE43\r\nOtS6RDq7SUs6KndDOqZ6NzrxKkE6kCA/Ou47OzqCtT86ik9OOlOxPzqx/Ds6yA88Oiu8OzoZ9T46\r\nSvI6OsS8PDp+4jk6a8M3Om6qODq4Ijo60GA3OpDYNzroVzY6GnU0Oq6wMToU3DU6nvE6OnhsOTqQ\r\n7TQ6SlYwOqp4OTrCIzg6fIo2OtkrMDq/9jw6DAUuOjZSODoLPio6qAc4OlC2LDpz/DI6gPwvOj+7\r\nLzq85DU68sE3OobeNjqG+jM6CDAsOoQhNDqx1ik6mQEsOjYgLDoBIC06GPUyOiwZNToVczA6Dusx\r\nOpTkLzrCuCo63LMoOl5hKTqyhyw6tkcsOtbiKDpbRCY6LKcvOlDYJzqP1yk6JuwoOsIfLDqf5SU6\r\n+1AoOoEXJzqdHy46AgonOos+LDoq0yw6i5wnOit6JDqJqik6I4ImOu6oLTr71iI6/5cvOmC+Izo3\r\nnCg6NFYkOj5SLTocGic6EVAhOpBrIzqk6SI6BvkjOsccJTo2TCk61/0iOqeiHTrBliI61gQmOsTL\r\nJjo7fiU6MZIdOr34HjroJSI6k18nOquBITo0vB46jTwgOnL2IDq9RiU6NiIfOlRRITrR1iI65G4e\r\nOpcjHzonNhw6wjcdOrZ+IDp75SQ6LkQdOiDCHjrVniE6QtIbOvS2Ijp+fRg6Tv8mOjzjHDp5Exg6\r\nrggeOpiAGjqjWh06+w0fOu68IDpzKho6PsYfOn9FGTqygRs6Ro8hOihGFzq1LhM6aX0aOrUKGjom\r\n1xU608gUOvTrGTqKRBc6zKoSOqIOGjqjYiA6figcOlqKEzp1ERU6s7gZOgJuFDqOxxc6uSIVOnRt\r\nFjpbeRo6INMZOs4IFzqudBY6zfwROoZ8Izo3sRw6XRsUOs+nGTrpARQ6OJwUOpPvGTrgWRo6KigS\r\nOoD5Fzo09RI6IzAVOrniFjovthE62rUQOpKFFzoqGRM6daAWOieNEDrpsg06JGwROk85Ezp0Sw06\r\ngTwSOnbXFDp90Bg6ZwcXOsTnDzqNixY6hu8TOkzWDTr0RBM6R8YSOg0AEjpWlhQ6igIUOq8lGDpw\r\ndxA6wDcTOgGKFDpBBhE6rKsUOgrJCzo3sA866XQSOvbxFDoXoBQ6x3MSOq7+EDpzZAo6Lr4LOmWq\r\nDzoeuRI67RQQOpGMCzrZrxA6QCwROjsjCTpvrxA6QfsSOt0lEzoYVg46QhwTOpJmDjpRWA06/8gJ\r\nOkIWFDobiBE6wCAUOuydDzoPkhE6IQcPOhxcCzrEOA06S3wQOhpWDzrNFQo61I4MOloACjqd/gw6\r\nVhIROs/gCjoQOwc6LtQOOvDLEDqtsQo6NZcHOlbhDzp8GRE60W0OOtUMDDp32wY68YELOiF5ETp6\r\n/g06S6MOOhQfDzooRA06r/sQOt8WBjrP1gw6hdQIOgbqCDqAMQ86DCULOpVoDDqEbAY6sA0OOvVf\r\nDDofzBE6rrYKOlCjEDpNhhM6unUNOpZ5Djr+BQ06rZoOOhnECTpLAAs67VoIOksuCjoyYgw6olEI\r\nOgOwBTpBsgs632QLOl9tCjpGUQU6KAoKOrNeCjoQLgU6bR8LOtY7Dzp70A86ZvMHOkiqCDo3+Aw6\r\nO04LOuhsCDptEAY67BIQOrKOCzrYKQs60aYJOl2XCTofJQ86TpYMOrH9Bjqg8g06ITEFOoAJDzoZ\r\nSws6SiIPOjgiCjq8Yww6t5ULOnubBjplRwU66WMCOuodCjrIsAY6cOMDOluYCzqy5Qo6q00LOidB\r\nBjpIIg46BvcFOu8JBDqXFgQ6Hg0DOkLDDjoTagw6fBQJOoEoDDotBAg67ToIOgEiBTpO+gs69fkN\r\nOkceCTq3EQ06kckLOtVoCDoXNAs6nZANOgRzCDovpgo6VWcNOkL/CDqGiAU6wDAKOhCyCTrISPA+\r\nerOLPywQiT70CjI/4AdWP7xE6UHvjp9BIv3HPwFXvz9CFoVAhrQqPyZKM0CBsaw+tlPiPuxHI0CZ\r\nY4pAPtW6PvwbP0Bn/7A/oW0OQGM5P0Co6xdANpWRP9sumkCpqRJA+skBQCSZdj8K0RFAVUQHQC71\r\nbUCw0JpA7hr3P4bdH0ARCZVAjxeBQDXfLEE3uolAPN8LQXj9eEAW5KY/Y/0FQG75gj+Xi01AxqYF\r\nQEneNEAthzBBrKyMQJpY/kBEh9o/Te+CQP6SekAsYDg/TgfmP7jJ8j76XcA/rq89QI1fij+anYc/\r\njbMPQUthxD+sEp8/KE6zQN/QjUDrVZxA2JK5Pw+6pz/C2hQ/++f2P/ZaP0B1pu0+DmeHP02DzD6a\r\n0YI/n89hP8Uqkj9nrIU/jEoDQBMH2EBQPLM/WLgAQESWqz5RWiJA8AlYQMLILT+LQSlBTjzeQZQT\r\nk0EqpLpA5KqdQvE/w0I+jINCihaOQkKKPEOyWYRDx9fVQl64dEK43H9CexaVQ9JBnkEEyrRBI186\r\nQYgui0LBXZ9CqPWGQsp4JEIiAL1BYN0pQtGfBEBym/o+UvJxP/ztdj/43Yo+RM7hPpyNaD6+Yng+\r\nZCM1Pm+xVz76WsM94KYGPrfRdj5mOpQ+Q0JOPphx1j66P6I+SeUQP+La+T44g54+t9EUP2yt0z64\r\naR1AaaGkPgIFLz/MBK4+6m2PP4HOpT8sMo8/ZfCZPyQWMz6rxJE/kKyAPloOrz+8hwY/MxUxP7uJ\r\nVD8yo+FAOLSAQH8TeED4YlA/qkazPlCqOEAX2z5ADJyGQEySOEGuB+NAIAJVQAvGyECkeIpBmcMC\r\nQY/gWEGg0zFBv3VHQWS88kDmC3lA383gQMc0nUF8Nb1A2nvWPztoKkGPaZpA5uCgQLwkMEGUgzZB\r\npQXQQXnQuUHL8ZdBCpi3QaCCm0DJsNVAWMQ9QPS2kD9ymgc/tRADP56YeD7DsydAZoS+PuFRhT6I\r\n2E8+8qwYP30+8z5VNPE9K9ZPPXTupD0GgoM+YpyXPXBPrz37Jfk9/SFCPsgPIz6VLBs+aUB2PSGy\r\ngz7zNUs+y02NPR/sKj6p8uA8goVGPshrXT/jlow/WvqTQCahHkAf659AhcTkQE3l3kAeJvhAxB4w\r\nQNcmBkCUkIg/UOYzQNcE0UAFQtFAXdRSQOexh0DOw9ZAY9wwQYYzPkGRGSRB4WaTQQ8a90EjKGBB\r\neC4WQoDdFkKw/iZC0CwpQp07jkKgFZpB+mcQQj1/70EOUrtA0GKDQdccm0GSrsxBXAeYQAVnk0FL\r\nd0pAkFc1QHieZ0EpV0dC8sqzQc+0nUC1GohBeDalQbmAj0DBzNQ/DRy8P47/ikAWffM/rxHeP9KD\r\n+z904Pc/LkOPPraiLz/+IH0+gu6DPbW2Iz3a6Mc81o+vPYRwNz3wUAk9miioPsDJIT/M+kg+/wLE\r\nPmytTj4AYRU9VYdBPmGk1j5nXGw/ChrdP5SlUkBctPg+unSpPzitgD/jb+c/icYzPzeJAT9hZp4/\r\nqKUyQPFLfkAvUcVAIKKFP2SSQj8SFQ9AyrD9PrdSPD+f2b0+pOf3P4Y/RD9wqJ0/W1qPPwYz4T9Y\r\nNV8/rVSXP+6QnD2Wo5A+Uey3PjnhmD0k1VU+A9YPPjpQNj09KiE+GisiPtmDhz08G4o9RmpfPSZB\r\nij0sMpY+6E+9PneKBT1zbw89tvr/PdqgWT7/aXM+t8I9POlRZjz2S8M8632qPE5CmDy00pE8RJHk\r\nOw7R0TxAtGk8Wp8rPQioujwFCQs8pBbKPGrfBz1VJxY9T6ebPDX9Oj0bfB09uGOvPK8OtjxaDS89\r\nUgZkPE4OETxUvy885MP3OxJulTyAq6o8puENPOt2Jjy1qjI8XiW9O3/6UTv3n987DT6JO8Q91jvt\r\n83Y7IDqiOw6FmDssVoY7/6SEO+rLSDvWbXU7Kbh6O+OcLzvS6EU76j9OO2UARTvQZTk7JbIqO9DT\r\nODvU0DU7is4uO/F9IzuLdiM7RkMrO5WaLDsB2xk7JUEjOzfIJjtvEx47Rb4XO8CuLzsgZB07MmMY\r\nOziPJjtH3hA7eHcVO7TSFjtP2Q87zW0UO6+REDvrJBM7FLMNO7YaAjuqYRE7WEsJO9kECDuZUgk7\r\nEjYDO7GGAjuiygA777sAO3l6ADu0Mv06GDL4Omm09Tp0GfY6tWTsOkxN9DqLcOo60+vlOs507Dqt\r\nL+E6gpjhOt0L5jraGuE6sNbfOiDv2jqU0Nc63DHYOnal4DpBW9c6JSTUOrf+zTo0xNA61yrOOkNT\r\nzTr0Vs46ZQvIOkDfzDr5EcA6+6bFOsw6vzqPL8M60i/BOj7/vDqaWr46EMu7OkrpvDr2hbU6EVK1\r\nOl7btTpv2rc6XHSzOkD+tzq9ILM6Gou0Op6xqzq7a6s68vOwOkYntTpYaq46oKmmOsBZsDqcX6M6\r\ncf6uOsu1qzrh/KQ6kECnOub2oTqsaaM60SWlOl61qjpaZ6Y6+mamOtW0mjoh+p865KOaOjRSmTrk\r\nvZ461VWgOnOCkTr/45E6ENOeOmOGpjptP5s6PHuhOrEhmzo9Ppk6FR6dOvQxmzojLpY64jCXOiZ5\r\nlTqWdZk6VlqXOhtemTq0ZJg6FMCbOqc+nzrKoqI66PqeOsTuqTpKcKA6/UCROriMkjr10Jg6ek+h\r\nOrLAiTpERIE6h2+JOq7KizpuUms6oZqtOlh7vzo0ubM6qdOeOim4pjoaupk6OXCMOqAnbzrsF8I6\r\nwtScOq/ofzoYPVk6+sV0Ohu4kjpMr3g6yIWEOmXkfDrRaoY6cR2DOnVLgzqkBYE6YHyIOgOKfzpS\r\nP3g6FEKBOsfmhDrzlJw6FsR2OmQmnToAO406ZBCROgIkfjraaXk6fgJ3OtiTdzp3zHg67YJ7OpC1\r\najp4F3c6hhF0OsCSfDo3b3E6kpd2OqJgfDo+qW86Ta9tOhgwbToMUG86pLtuOpQqdTpOUm46+l1f\r\nOopMYzr9u2g6JgdWOtCTazqvXmE6KNdrOvhYaTqNqnc65qBROlpSZDpgiTk6R9NBOpJEZDr8m5k6\r\nK2NKOpt4dTrc3pk6Vl47OiyBZDpWBF868BN8OjIYbzoyXGw6ftBoOm+WbToa7m06PYVuOjoLZzrq\r\naWU6yRdiOkggYTpIwGM65sliOiAWYTrIb2M6BBtgOljXYjoSQ2Y6sbRXOjKcXDqqcmE6Ls9WOuH5\r\nWToay1g6ZNNgOux0Vzo8pVg6M5xcOj6pVDoQCFg69FdXOvyFUzoPDlY6z4ZWOttpVDrCgE86wR1T\r\nOugcVTpW50s64dFXOtTxUjp+e1I6E9dOOm4STToECU86xB5IOnw8STpM5UI6YrVKOtoiSzp87EE6\r\nSLVEOup8TTrbzkc6nwtBOtp2RDoph0E6/GU/OiGhOzpCuzo6fLU/OizvLzoE2iI6WsoJOv0GDzrS\r\nIVw6PE47OlPWFjoGcBA6/turOkUYnjpMCCk6PiIyOjSbMjonjIg6G9pWOg64pjoKoIA6OEaCOnDV\r\nUDoGRF06JQZXOlKsVDoNRUg6NnNJOviqRTqVHVU6f9tJOiSIPTrNeT06I3BDOuJaQDoYTjc61LpE\r\nOrtJSzoqd0M6pno3OvEqQTqQID867js7OoK1PzqKT046U7E/OrH8OzrIDzw6K7w7Ohn1PjpK8jo6\r\nxLw8On7iOTprwzc6bqo4OrgiOjrQYDc6kNg3OuhXNjoadTQ6rrAxOhTcNTqe8To6eGw5OpDtNDpK\r\nVjA6qng5OsIjODp8ijY62SswOr/2PDoMBS46NlI4Ogs+KjqoBzg6ULYsOnP8MjqA/C86P7svOrzk\r\nNTrywTc6ht42Oob6MzoIMCw6hCE0OrHWKTqZASw6NiAsOgEgLToY9TI6LBk1OhVzMDoO6zE6lOQv\r\nOsK4Kjrcsyg6XmEpOrKHLDq2Ryw61uIoOltEJjospy86UNgnOo/XKTom7Cg6wh8sOp/lJTr7UCg6\r\ngRcnOp0fLjoCCic6iz4sOirTLDqLnCc6K3okOomqKTojgiY67qgtOvvWIjr/ly86YL4jOjecKDo0\r\nViQ6PlItOhwaJzoRUCE6kGsjOqTpIjoG+SM6xxwlOjZMKTrX/SI6p6IdOsGWIjrWBCY6xMsmOjt+\r\nJToxkh06vfgeOuglIjqTXyc6q4EhOjS8HjqNPCA6cvYgOr1GJTo2Ih86VFEhOtHWIjrkbh46lyMf\r\nOic2HDrCNx06tn4gOnvlJDouRB06IMIeOtWeITpC0hs69LYiOn59GDpO/yY6POMcOnkTGDquCB46\r\nmIAaOqNaHTr7DR867rwgOnMqGjo+xh86f0UZOrKBGzpGjyE6KEYXOrUuEzppfRo6tQoaOibXFTrT\r\nyBQ69OsZOopEFzrMqhI6og4aOqNiIDp+KBw6WooTOnURFTqzuBk6Am4UOo7HFzq5IhU6dG0WOlt5\r\nGjog0xk6zggXOq50FjrN/BE6hnwjOjexHDpdGxQ6z6cZOukBFDo4nBQ6k+8ZOuBZGjoqKBI6gPkX\r\nOjT1EjojMBU6ueIWOi+2ETratRA6koUXOioZEzp1oBY6J40QOumyDTokbBE6TzkTOnRLDTqBPBI6\r\ndtcUOn3QGDpnBxc6xOcPOo2LFjqG7xM6TNYNOvREEzpHxhI6DQASOlaWFDqKAhQ6ryUYOnB3EDrA\r\nNxM6AYoUOkEGETqsqxQ6CskLOjewDzrpdBI69vEUOhegFDrHcxI6rv4QOnNkCjouvgs6ZaoPOh65\r\nEjrtFBA6kYwLOtmvEDpALBE6OyMJOm+vEDpB+xI63SUTOhhWDjpCHBM6kmYOOlFYDTr/yAk6QhYU\r\nOhuIETrAIBQ67J0POg+SETohBw86HFwLOsQ4DTpLfBA6GlYPOs0VCjrUjgw6WgAKOp3+DDpWEhE6\r\nz+AKOhA7Bzou1A468MsQOq2xCjo1lwc6VuEPOnwZETrRbQ461QwMOnfbBjrxgQs6IXkROnr+DTpL\r\now46FB8POihEDTqv+xA63xYGOs/WDDqF1Ag6BuoIOoAxDzoMJQs6lWgMOoRsBjqwDQ469V8MOh/M\r\nETqutgo6UKMQOk2GEzq6dQ06lnkOOv4FDTqtmg46GcQJOksACzrtWgg6Sy4KOjJiDDqiUQg6A7AF\r\nOkGyCzrfZAs6X20KOkZRBTooCgo6s14KOhAuBTptHws61jsPOnvQDzpm8wc6SKoIOjf4DDo7Tgs6\r\n6GwIOm0QBjrsEhA6so4LOtgpCzrRpgk6XZcJOh8lDzpOlgw6sf0GOqDyDTohMQU6gAkPOhlLCzpK\r\nIg86OCIKOrxjDDq3lQs6e5sGOmVHBTrpYwI66h0KOsiwBjpw4wM6W5gLOrLlCjqrTQs6J0EGOkgi\r\nDjoG9wU67wkEOpcWBDoeDQM6QsMOOhNqDDp8FAk6gSgMOi0ECDrtOgg6ASIFOk76Czr1+Q06Rx4J\r\nOrcRDTqRyQs61WgIOhc0CzqdkA06BHMIOi+mCjpVZw06Qv8IOoaIBTrAMAo6ELIJOg==",
                            "noiseTrainingType" : "default"
                          }
                        }
                    ],
                    "start" : 4328,
                    "duration" : 130,
                    "mediaStart" : 2263,
                    "mediaDuration" : 130,
                    "scalar" : 1,
                    "metadata" : {
                      "WinSubProjectDisplayName" : "",
                      "clipSpeedAttribute" : false
                    },
                    "animationTracks" : {

                    }
                  },
                  {
                    "id" : 31,
                    "_type" : "StitchedMedia",
                    "minMediaStart" : 0,
                    "attributes" : {
                      "ident" : "tower-arch-03",
                      "gain" : 1.0,
                      "mixToMono" : false
                    },
                    "parameters" : {
                      "volume" : 1.0,
                      "cursorOpacity" : 1.0,
                      "cursorScale" : 1.0
                    },
                    "medias" : [
                        {
                          "id" : 32,
                          "_type" : "AMFile",
                          "src" : 4,
                          "trackNumber" : 1,
                          "attributes" : {
                            "ident" : "Rec 02-03-20_004",
                            "sampleRate" : 44100,
                            "bitDepth" : 16,
                            "gain" : 1.0,
                            "mixToMono" : false
                          },
                            "channelNumber" : "0,1",
                          "effects" : [

                          ],
                          "start" : 0,
                          "duration" : 1550,
                          "mediaStart" : 0,
                          "mediaDuration" : 1550,
                          "scalar" : 1,
                          "metadata" : {
                            "WinSubProjectDisplayName" : "",
                            "clipSpeedAttribute" : false
                          },
                          "animationTracks" : {

                          }
                        },
                        {
                          "id" : 33,
                          "_type" : "AMFile",
                          "src" : 4,
                          "trackNumber" : 1,
                          "attributes" : {
                            "ident" : "Rec 02-03-20_004",
                            "sampleRate" : 44100,
                            "bitDepth" : 16,
                            "gain" : 1.0,
                            "mixToMono" : false
                          },
                            "channelNumber" : "0,1",
                          "effects" : [

                          ],
                          "start" : 1550,
                          "duration" : 367,
                          "mediaStart" : 1641,
                          "mediaDuration" : 367,
                          "scalar" : 1,
                          "metadata" : {
                            "WinSubProjectDisplayName" : "",
                            "clipSpeedAttribute" : false
                          },
                          "animationTracks" : {

                          }
                        },
                        {
                          "id" : 34,
                          "_type" : "AMFile",
                          "src" : 4,
                          "trackNumber" : 1,
                          "attributes" : {
                            "ident" : "Rec 02-03-20_004",
                            "sampleRate" : 44100,
                            "bitDepth" : 16,
                            "gain" : 1.0,
                            "mixToMono" : false
                          },
                            "channelNumber" : "0,1",
                          "effects" : [

                          ],
                          "start" : 1917,
                          "duration" : 205,
                          "mediaStart" : 2028,
                          "mediaDuration" : 205,
                          "scalar" : 1,
                          "metadata" : {
                            "WinSubProjectDisplayName" : "",
                            "clipSpeedAttribute" : false
                          },
                          "animationTracks" : {

                          }
                        },
                        {
                          "id" : 35,
                          "_type" : "AMFile",
                          "src" : 4,
                          "trackNumber" : 1,
                          "attributes" : {
                            "ident" : "Rec 02-03-20_004",
                            "sampleRate" : 44100,
                            "bitDepth" : 16,
                            "gain" : 1.0,
                            "mixToMono" : false
                          },
                            "channelNumber" : "0,1",
                          "effects" : [

                          ],
                          "start" : 2122,
                          "duration" : 5737,
                          "mediaStart" : 2724,
                          "mediaDuration" : 5737,
                          "scalar" : 1,
                          "metadata" : {
                            "WinSubProjectDisplayName" : "",
                            "clipSpeedAttribute" : false
                          },
                          "animationTracks" : {

                          }
                        }
                    ],
                    "effects" : [
                        {
                          "effectName" : "NoiseReduction",
                          "category" : "categoryAudioEffects",
                          "parameters" : {
                            "denoiserAmount" : 20.0,
                            "denoiserThreshold" : 0.0,
                            "noiseProfile" : "yEjwPvqziz8sEIk+9AoyP+AHVj+8ROlB746fQSL9xz8BV78/kBGFQIa0Kj8mSjNAgbGsPrZT4j7s\r\nRyNAmWOKQD7Vuj78Gz9AZ/+wP6FtDkBjOT9AqOsXQDaVkT/bLppAqakSQPrJAUAkmXY/CtERQFVE\r\nB0Au9W1AsNCaQO4a9z+G3R9AEQmVQI8XgUA13yxBN7qJQDzfC0EoBXlAiPOmP2P9BUBu+YI/l4tN\r\nQMamBUBJ3jRALYcwQaysjECaWP5ARIfaP03vgkD+knpALGA4P04H5j9M9/I+Y3TAPwbDPUCNX4o/\r\nmp2HP42zD0FLYcQ/rBKfPyhOs0Df0I1A61WcQNiSuT8Puqc/wtoUP/vn9j/2Wj9AdabtPt5jhz9N\r\ng8w+mtGCP5/PYT/FKpI/Z6yFP4xKA0ATB9hAUDyzP1i4AEBElqs+UVoiQPAJWEDCyC0/i0EpQU48\r\n3kGUE5NBKqS6QOSqnULxP8NCPoyDQooWjkJCijxDslmEQ8fX1UJeuHRCuNx/QnsWlUPSQZ5BBMq0\r\nQSNfOkGILotCwV2fQqj1hkLKeCRCIgC9QWDdKULRnwRAcpv6PlLycT/87XY/+N2KPkTO4T6cjWg+\r\nvmJ4PmQjNT5vsVc++lrDPeCmBj630XY+ZjqUPkRpTj6YcdY+uj+iPknlED/i2vk+OIOePrfRFD9s\r\nrdM+uGkdQGmhpD4CBS8/zASuPuptjz+BzqU/LDKPP2XwmT8kFjM+q8SRP5CsgD5aDq8/vIcGPzMV\r\nMT+7iVQ/MqPhQDi0gEB/E3hA+GJQP6pGsz5QqjhAF9s+QAychkBMkjhBrgfjQCACVUALxshApHiK\r\nQZnDAkGP4FhBoNMxQb91R0FkvPJA5gt5QN/N4EDHNJ1BfDW9QNp71j87aCpBj2maQObgoEC8JDBB\r\nlIM2QaUF0EF50LlBy/GXQQqYt0GggptAybDVQFjEPUD0tpA/cpoHP7UQAz+emHg+w7MnQGaEvj7h\r\nUYU+iNhPPvKsGD99PvM+VTTxPSvWTz107qQ9BoKDPmKclz1wT689+yX5Pf0hQj7IDyM+lSwbPmlA\r\ndj0hsoM+8zVLPstNjT0f7Co+qfLgPIKFRj7Ia10/45aMP1r6k0AmoR5AH+ufQIXE5EBN5d5AHib4\r\nQMQeMEDXJgZAlJCIP1DmM0DXBNFABULRQF3UUkDnsYdAzsPWQGPcMEGGMz5BkRkkQeFmk0EPGvdB\r\nIyhgQXguFkKA3RZCsP4mQtAsKUKdO45CoBWaQfpnEEI9f+9BDlK7QNBig0HXHJtBkq7MQVwHmEAF\r\nZ5NBS3dKQJBXNUB4nmdBKVdHQvLKs0HPtJ1AtRqIQXg2pUG5gI9AwczUPw0cvD+O/4pAFn3zP68R\r\n3j/Sg/s/dOD3Py5Djz62oi8//iB9PoLugz21tiM92ujHPNaPrz2EcDc98FAJPZooqD7AySE/zPpI\r\nPv8CxD5srU4+AGEVPVWHQT5hpNY+Z1xsPwoa3T+UpVJAXLT4Prp0qT84rYA/42/nP4nGMz83iQE/\r\nYWaeP6ilMkDxS35AL1HFQCCihT9kkkI/EhUPQMqw/T63Ujw/n9m9PqTn9z+GP0Q/cKidP1tajz8G\r\nM+E/WDVfP61Ulz/ukJw9lqOQPlHstz454Zg9JNVVPgPWDz46UDY9PSohPhorIj7Zg4c9PBuKPUZq\r\nXz0mQYo9LDKWPuhPvT53igU9c28PPbb6/z3aoFk+/2lzPrfCPTzpUWY89kvDPOt9qjxOQpg8tNKR\r\nPESR5DsO0dE8QLRpPFqfKz0IqLo8BQkLPKQWyjxq3wc9VScWPU+nmzw1/To9G3wdPbhjrzyvDrY8\r\nWg0vPVIGZDxODhE8VL8vPOTD9zsSbpU8gKuqPKbhDTzrdiY8taoyPF4lvTt/+lE795/fOw0+iTvE\r\nPdY77fN2OyA6ojsOhZg7LFaGO/+khDvqy0g71m11Oym4ejvjnC870uhFO+o/TjtlAEU70GU5OyWy\r\nKjvQ0zg71NA1O4rOLjvxfSM7i3YjO0ZDKzuVmiw7AdsZOyVBIzs3yCY7bxMeO0W+FzvAri87IGQd\r\nOzJjGDs4jyY7R94QO3h3FTu00hY7T9kPO81tFDuvkRA76yQTOxSzDTu2GgI7qmERO1hLCTvZBAg7\r\nmVIJOxI2AzuxhgI7osoAO++7ADt5egA7tDL9Ohgy+DpptPU6dBn2OrVk7DpMTfQ6i3DqOtPr5TrO\r\ndOw6rS/hOoKY4TrdC+Y62hrhOrDW3zog79o6lNDXOtwx2Dp2peA6QVvXOiUk1Dq3/s06NMTQOtcq\r\nzjpDU8069FbOOmULyDpA38w6+RHAOvumxTrMOr86jy/DOtIvwTo+/7w6mlq+OhDLuzpK6bw69oW1\r\nOhFStTpe27U6b9q3Olx0szpA/rc6vSCzOhqLtDqesas6u2urOvLzsDpGJ7U6WGquOqCppjrAWbA6\r\nnF+jOnH+rjrLtas64fykOpBApzrm9qE6rGmjOtElpTpetao6WmemOvpmpjrVtJo6IfqfOuSjmjo0\r\nUpk65L2eOtVVoDpzgpE6/+OROhDTnjpjhqY6bT+bOjx7oTqxIZs6PT6ZOhUenTr0MZs6Iy6WOuIw\r\nlzomeZU6lnWZOlZalzobXpk6tGSYOhTAmzqnPp86yqKiOuj6njrE7qk6SnCgOv1AkTq4jJI69dCY\r\nOnpPoTqywIk6RESBOodviTquyos6blJrOqGarTpYe786NLmzOqnTnjopuKY6GrqZOjlwjDqgJ286\r\n7BfCOsLUnDqv6H86GD1ZOvrFdDobuJI6TK94OsiFhDpl5Hw60WqGOnEdgzp1S4M6pAWBOmB8iDoD\r\nin86Uj94OhRCgTrH5oQ685ScOhbEdjpkJp06ADuNOmQQkToCJH462ml5On4CdzrYk3c6d8x4Ou2C\r\nezqQtWo6eBd3OoYRdDrAknw6N29xOpKXdjqiYHw6PqlvOk2vbToYMG06DFBvOqS7bjqUKnU6TlJu\r\nOvpdXzqKTGM6/btoOiYHVjrQk2s6r15hOijXazr4WGk6jap3OuagUTpaUmQ6YIk5OkfTQTqSRGQ6\r\n/JuZOitjSjqbeHU63N6ZOlZeOzosgWQ6VgRfOvATfDoyGG86MlxsOn7QaDpvlm06Gu5tOj2Fbjo6\r\nC2c66mllOskXYjpIIGE6SMBjOubJYjogFmE6yG9jOgQbYDpY12I6EkNmOrG0VzoynFw6qnJhOi7P\r\nVjrh+Vk6GstYOmTTYDrsdFc6PKVYOjOcXDo+qVQ6EAhYOvRXVzr8hVM6Dw5WOs+GVjrbaVQ6woBP\r\nOsEdUzroHFU6VudLOuHRVzrU8VI6fntSOhPXTjpuEk06BAlPOsQeSDp8PEk6TOVCOmK1SjraIks6\r\nfOxBOki1RDrqfE06285HOp8LQTradkQ6KYdBOvxlPzohoTs6Qrs6Ony1Pzos7y86BNoiOlrKCTr9\r\nBg860iFcOjxOOzpT1hY6BnAQOv7bqzpFGJ46TAgpOj4iMjo0mzI6J4yIOhvaVjoOuKY6CqCAOjhG\r\ngjpw1VA6BkRdOiUGVzpSrFQ6DUVIOjZzSTr4qkU6lR1VOn/bSTokiD06zXk9OiNwQzriWkA6GE43\r\nOtS6RDq7SUs6KndDOqZ6NzrxKkE6kCA/Ou47OzqCtT86ik9OOlOxPzqx/Ds6yA88Oiu8OzoZ9T46\r\nSvI6OsS8PDp+4jk6a8M3Om6qODq4Ijo60GA3OpDYNzroVzY6GnU0Oq6wMToU3DU6nvE6OnhsOTqQ\r\n7TQ6SlYwOqp4OTrCIzg6fIo2OtkrMDq/9jw6DAUuOjZSODoLPio6qAc4OlC2LDpz/DI6gPwvOj+7\r\nLzq85DU68sE3OobeNjqG+jM6CDAsOoQhNDqx1ik6mQEsOjYgLDoBIC06GPUyOiwZNToVczA6Dusx\r\nOpTkLzrCuCo63LMoOl5hKTqyhyw6tkcsOtbiKDpbRCY6LKcvOlDYJzqP1yk6JuwoOsIfLDqf5SU6\r\n+1AoOoEXJzqdHy46AgonOos+LDoq0yw6i5wnOit6JDqJqik6I4ImOu6oLTr71iI6/5cvOmC+Izo3\r\nnCg6NFYkOj5SLTocGic6EVAhOpBrIzqk6SI6BvkjOsccJTo2TCk61/0iOqeiHTrBliI61gQmOsTL\r\nJjo7fiU6MZIdOr34HjroJSI6k18nOquBITo0vB46jTwgOnL2IDq9RiU6NiIfOlRRITrR1iI65G4e\r\nOpcjHzonNhw6wjcdOrZ+IDp75SQ6LkQdOiDCHjrVniE6QtIbOvS2Ijp+fRg6Tv8mOjzjHDp5Exg6\r\nrggeOpiAGjqjWh06+w0fOu68IDpzKho6PsYfOn9FGTqygRs6Ro8hOihGFzq1LhM6aX0aOrUKGjom\r\n1xU608gUOvTrGTqKRBc6zKoSOqIOGjqjYiA6figcOlqKEzp1ERU6s7gZOgJuFDqOxxc6uSIVOnRt\r\nFjpbeRo6INMZOs4IFzqudBY6zfwROoZ8Izo3sRw6XRsUOs+nGTrpARQ6OJwUOpPvGTrgWRo6KigS\r\nOoD5Fzo09RI6IzAVOrniFjovthE62rUQOpKFFzoqGRM6daAWOieNEDrpsg06JGwROk85Ezp0Sw06\r\ngTwSOnbXFDp90Bg6ZwcXOsTnDzqNixY6hu8TOkzWDTr0RBM6R8YSOg0AEjpWlhQ6igIUOq8lGDpw\r\ndxA6wDcTOgGKFDpBBhE6rKsUOgrJCzo3sA866XQSOvbxFDoXoBQ6x3MSOq7+EDpzZAo6Lr4LOmWq\r\nDzoeuRI67RQQOpGMCzrZrxA6QCwROjsjCTpvrxA6QfsSOt0lEzoYVg46QhwTOpJmDjpRWA06/8gJ\r\nOkIWFDobiBE6wCAUOuydDzoPkhE6IQcPOhxcCzrEOA06S3wQOhpWDzrNFQo61I4MOloACjqd/gw6\r\nVhIROs/gCjoQOwc6LtQOOvDLEDqtsQo6NZcHOlbhDzp8GRE60W0OOtUMDDp32wY68YELOiF5ETp6\r\n/g06S6MOOhQfDzooRA06r/sQOt8WBjrP1gw6hdQIOgbqCDqAMQ86DCULOpVoDDqEbAY6sA0OOvVf\r\nDDofzBE6rrYKOlCjEDpNhhM6unUNOpZ5Djr+BQ06rZoOOhnECTpLAAs67VoIOksuCjoyYgw6olEI\r\nOgOwBTpBsgs632QLOl9tCjpGUQU6KAoKOrNeCjoQLgU6bR8LOtY7Dzp70A86ZvMHOkiqCDo3+Aw6\r\nO04LOuhsCDptEAY67BIQOrKOCzrYKQs60aYJOl2XCTofJQ86TpYMOrH9Bjqg8g06ITEFOoAJDzoZ\r\nSws6SiIPOjgiCjq8Yww6t5ULOnubBjplRwU66WMCOuodCjrIsAY6cOMDOluYCzqy5Qo6q00LOidB\r\nBjpIIg46BvcFOu8JBDqXFgQ6Hg0DOkLDDjoTagw6fBQJOoEoDDotBAg67ToIOgEiBTpO+gs69fkN\r\nOkceCTq3EQ06kckLOtVoCDoXNAs6nZANOgRzCDovpgo6VWcNOkL/CDqGiAU6wDAKOhCyCTrISPA+\r\nerOLPywQiT70CjI/4AdWP7xE6UHvjp9BIv3HPwFXvz9CFoVAhrQqPyZKM0CBsaw+tlPiPuxHI0CZ\r\nY4pAPtW6PvwbP0Bn/7A/oW0OQGM5P0Co6xdANpWRP9sumkCpqRJA+skBQCSZdj8K0RFAVUQHQC71\r\nbUCw0JpA7hr3P4bdH0ARCZVAjxeBQDXfLEE3uolAPN8LQXj9eEAW5KY/Y/0FQG75gj+Xi01AxqYF\r\nQEneNEAthzBBrKyMQJpY/kBEh9o/Te+CQP6SekAsYDg/TgfmP7jJ8j76XcA/rq89QI1fij+anYc/\r\njbMPQUthxD+sEp8/KE6zQN/QjUDrVZxA2JK5Pw+6pz/C2hQ/++f2P/ZaP0B1pu0+DmeHP02DzD6a\r\n0YI/n89hP8Uqkj9nrIU/jEoDQBMH2EBQPLM/WLgAQESWqz5RWiJA8AlYQMLILT+LQSlBTjzeQZQT\r\nk0EqpLpA5KqdQvE/w0I+jINCihaOQkKKPEOyWYRDx9fVQl64dEK43H9CexaVQ9JBnkEEyrRBI186\r\nQYgui0LBXZ9CqPWGQsp4JEIiAL1BYN0pQtGfBEBym/o+UvJxP/ztdj/43Yo+RM7hPpyNaD6+Yng+\r\nZCM1Pm+xVz76WsM94KYGPrfRdj5mOpQ+Q0JOPphx1j66P6I+SeUQP+La+T44g54+t9EUP2yt0z64\r\naR1AaaGkPgIFLz/MBK4+6m2PP4HOpT8sMo8/ZfCZPyQWMz6rxJE/kKyAPloOrz+8hwY/MxUxP7uJ\r\nVD8yo+FAOLSAQH8TeED4YlA/qkazPlCqOEAX2z5ADJyGQEySOEGuB+NAIAJVQAvGyECkeIpBmcMC\r\nQY/gWEGg0zFBv3VHQWS88kDmC3lA383gQMc0nUF8Nb1A2nvWPztoKkGPaZpA5uCgQLwkMEGUgzZB\r\npQXQQXnQuUHL8ZdBCpi3QaCCm0DJsNVAWMQ9QPS2kD9ymgc/tRADP56YeD7DsydAZoS+PuFRhT6I\r\n2E8+8qwYP30+8z5VNPE9K9ZPPXTupD0GgoM+YpyXPXBPrz37Jfk9/SFCPsgPIz6VLBs+aUB2PSGy\r\ngz7zNUs+y02NPR/sKj6p8uA8goVGPshrXT/jlow/WvqTQCahHkAf659AhcTkQE3l3kAeJvhAxB4w\r\nQNcmBkCUkIg/UOYzQNcE0UAFQtFAXdRSQOexh0DOw9ZAY9wwQYYzPkGRGSRB4WaTQQ8a90EjKGBB\r\neC4WQoDdFkKw/iZC0CwpQp07jkKgFZpB+mcQQj1/70EOUrtA0GKDQdccm0GSrsxBXAeYQAVnk0FL\r\nd0pAkFc1QHieZ0EpV0dC8sqzQc+0nUC1GohBeDalQbmAj0DBzNQ/DRy8P47/ikAWffM/rxHeP9KD\r\n+z904Pc/LkOPPraiLz/+IH0+gu6DPbW2Iz3a6Mc81o+vPYRwNz3wUAk9miioPsDJIT/M+kg+/wLE\r\nPmytTj4AYRU9VYdBPmGk1j5nXGw/ChrdP5SlUkBctPg+unSpPzitgD/jb+c/icYzPzeJAT9hZp4/\r\nqKUyQPFLfkAvUcVAIKKFP2SSQj8SFQ9AyrD9PrdSPD+f2b0+pOf3P4Y/RD9wqJ0/W1qPPwYz4T9Y\r\nNV8/rVSXP+6QnD2Wo5A+Uey3PjnhmD0k1VU+A9YPPjpQNj09KiE+GisiPtmDhz08G4o9RmpfPSZB\r\nij0sMpY+6E+9PneKBT1zbw89tvr/PdqgWT7/aXM+t8I9POlRZjz2S8M8632qPE5CmDy00pE8RJHk\r\nOw7R0TxAtGk8Wp8rPQioujwFCQs8pBbKPGrfBz1VJxY9T6ebPDX9Oj0bfB09uGOvPK8OtjxaDS89\r\nUgZkPE4OETxUvy885MP3OxJulTyAq6o8puENPOt2Jjy1qjI8XiW9O3/6UTv3n987DT6JO8Q91jvt\r\n83Y7IDqiOw6FmDssVoY7/6SEO+rLSDvWbXU7Kbh6O+OcLzvS6EU76j9OO2UARTvQZTk7JbIqO9DT\r\nODvU0DU7is4uO/F9IzuLdiM7RkMrO5WaLDsB2xk7JUEjOzfIJjtvEx47Rb4XO8CuLzsgZB07MmMY\r\nOziPJjtH3hA7eHcVO7TSFjtP2Q87zW0UO6+REDvrJBM7FLMNO7YaAjuqYRE7WEsJO9kECDuZUgk7\r\nEjYDO7GGAjuiygA777sAO3l6ADu0Mv06GDL4Omm09Tp0GfY6tWTsOkxN9DqLcOo60+vlOs507Dqt\r\nL+E6gpjhOt0L5jraGuE6sNbfOiDv2jqU0Nc63DHYOnal4DpBW9c6JSTUOrf+zTo0xNA61yrOOkNT\r\nzTr0Vs46ZQvIOkDfzDr5EcA6+6bFOsw6vzqPL8M60i/BOj7/vDqaWr46EMu7OkrpvDr2hbU6EVK1\r\nOl7btTpv2rc6XHSzOkD+tzq9ILM6Gou0Op6xqzq7a6s68vOwOkYntTpYaq46oKmmOsBZsDqcX6M6\r\ncf6uOsu1qzrh/KQ6kECnOub2oTqsaaM60SWlOl61qjpaZ6Y6+mamOtW0mjoh+p865KOaOjRSmTrk\r\nvZ461VWgOnOCkTr/45E6ENOeOmOGpjptP5s6PHuhOrEhmzo9Ppk6FR6dOvQxmzojLpY64jCXOiZ5\r\nlTqWdZk6VlqXOhtemTq0ZJg6FMCbOqc+nzrKoqI66PqeOsTuqTpKcKA6/UCROriMkjr10Jg6ek+h\r\nOrLAiTpERIE6h2+JOq7KizpuUms6oZqtOlh7vzo0ubM6qdOeOim4pjoaupk6OXCMOqAnbzrsF8I6\r\nwtScOq/ofzoYPVk6+sV0Ohu4kjpMr3g6yIWEOmXkfDrRaoY6cR2DOnVLgzqkBYE6YHyIOgOKfzpS\r\nP3g6FEKBOsfmhDrzlJw6FsR2OmQmnToAO406ZBCROgIkfjraaXk6fgJ3OtiTdzp3zHg67YJ7OpC1\r\najp4F3c6hhF0OsCSfDo3b3E6kpd2OqJgfDo+qW86Ta9tOhgwbToMUG86pLtuOpQqdTpOUm46+l1f\r\nOopMYzr9u2g6JgdWOtCTazqvXmE6KNdrOvhYaTqNqnc65qBROlpSZDpgiTk6R9NBOpJEZDr8m5k6\r\nK2NKOpt4dTrc3pk6Vl47OiyBZDpWBF868BN8OjIYbzoyXGw6ftBoOm+WbToa7m06PYVuOjoLZzrq\r\naWU6yRdiOkggYTpIwGM65sliOiAWYTrIb2M6BBtgOljXYjoSQ2Y6sbRXOjKcXDqqcmE6Ls9WOuH5\r\nWToay1g6ZNNgOux0Vzo8pVg6M5xcOj6pVDoQCFg69FdXOvyFUzoPDlY6z4ZWOttpVDrCgE86wR1T\r\nOugcVTpW50s64dFXOtTxUjp+e1I6E9dOOm4STToECU86xB5IOnw8STpM5UI6YrVKOtoiSzp87EE6\r\nSLVEOup8TTrbzkc6nwtBOtp2RDoph0E6/GU/OiGhOzpCuzo6fLU/OizvLzoE2iI6WsoJOv0GDzrS\r\nIVw6PE47OlPWFjoGcBA6/turOkUYnjpMCCk6PiIyOjSbMjonjIg6G9pWOg64pjoKoIA6OEaCOnDV\r\nUDoGRF06JQZXOlKsVDoNRUg6NnNJOviqRTqVHVU6f9tJOiSIPTrNeT06I3BDOuJaQDoYTjc61LpE\r\nOrtJSzoqd0M6pno3OvEqQTqQID867js7OoK1PzqKT046U7E/OrH8OzrIDzw6K7w7Ohn1PjpK8jo6\r\nxLw8On7iOTprwzc6bqo4OrgiOjrQYDc6kNg3OuhXNjoadTQ6rrAxOhTcNTqe8To6eGw5OpDtNDpK\r\nVjA6qng5OsIjODp8ijY62SswOr/2PDoMBS46NlI4Ogs+KjqoBzg6ULYsOnP8MjqA/C86P7svOrzk\r\nNTrywTc6ht42Oob6MzoIMCw6hCE0OrHWKTqZASw6NiAsOgEgLToY9TI6LBk1OhVzMDoO6zE6lOQv\r\nOsK4Kjrcsyg6XmEpOrKHLDq2Ryw61uIoOltEJjospy86UNgnOo/XKTom7Cg6wh8sOp/lJTr7UCg6\r\ngRcnOp0fLjoCCic6iz4sOirTLDqLnCc6K3okOomqKTojgiY67qgtOvvWIjr/ly86YL4jOjecKDo0\r\nViQ6PlItOhwaJzoRUCE6kGsjOqTpIjoG+SM6xxwlOjZMKTrX/SI6p6IdOsGWIjrWBCY6xMsmOjt+\r\nJToxkh06vfgeOuglIjqTXyc6q4EhOjS8HjqNPCA6cvYgOr1GJTo2Ih86VFEhOtHWIjrkbh46lyMf\r\nOic2HDrCNx06tn4gOnvlJDouRB06IMIeOtWeITpC0hs69LYiOn59GDpO/yY6POMcOnkTGDquCB46\r\nmIAaOqNaHTr7DR867rwgOnMqGjo+xh86f0UZOrKBGzpGjyE6KEYXOrUuEzppfRo6tQoaOibXFTrT\r\nyBQ69OsZOopEFzrMqhI6og4aOqNiIDp+KBw6WooTOnURFTqzuBk6Am4UOo7HFzq5IhU6dG0WOlt5\r\nGjog0xk6zggXOq50FjrN/BE6hnwjOjexHDpdGxQ6z6cZOukBFDo4nBQ6k+8ZOuBZGjoqKBI6gPkX\r\nOjT1EjojMBU6ueIWOi+2ETratRA6koUXOioZEzp1oBY6J40QOumyDTokbBE6TzkTOnRLDTqBPBI6\r\ndtcUOn3QGDpnBxc6xOcPOo2LFjqG7xM6TNYNOvREEzpHxhI6DQASOlaWFDqKAhQ6ryUYOnB3EDrA\r\nNxM6AYoUOkEGETqsqxQ6CskLOjewDzrpdBI69vEUOhegFDrHcxI6rv4QOnNkCjouvgs6ZaoPOh65\r\nEjrtFBA6kYwLOtmvEDpALBE6OyMJOm+vEDpB+xI63SUTOhhWDjpCHBM6kmYOOlFYDTr/yAk6QhYU\r\nOhuIETrAIBQ67J0POg+SETohBw86HFwLOsQ4DTpLfBA6GlYPOs0VCjrUjgw6WgAKOp3+DDpWEhE6\r\nz+AKOhA7Bzou1A468MsQOq2xCjo1lwc6VuEPOnwZETrRbQ461QwMOnfbBjrxgQs6IXkROnr+DTpL\r\now46FB8POihEDTqv+xA63xYGOs/WDDqF1Ag6BuoIOoAxDzoMJQs6lWgMOoRsBjqwDQ469V8MOh/M\r\nETqutgo6UKMQOk2GEzq6dQ06lnkOOv4FDTqtmg46GcQJOksACzrtWgg6Sy4KOjJiDDqiUQg6A7AF\r\nOkGyCzrfZAs6X20KOkZRBTooCgo6s14KOhAuBTptHws61jsPOnvQDzpm8wc6SKoIOjf4DDo7Tgs6\r\n6GwIOm0QBjrsEhA6so4LOtgpCzrRpgk6XZcJOh8lDzpOlgw6sf0GOqDyDTohMQU6gAkPOhlLCzpK\r\nIg86OCIKOrxjDDq3lQs6e5sGOmVHBTrpYwI66h0KOsiwBjpw4wM6W5gLOrLlCjqrTQs6J0EGOkgi\r\nDjoG9wU67wkEOpcWBDoeDQM6QsMOOhNqDDp8FAk6gSgMOi0ECDrtOgg6ASIFOk76Czr1+Q06Rx4J\r\nOrcRDTqRyQs61WgIOhc0CzqdkA06BHMIOi+mCjpVZw06Qv8IOoaIBTrAMAo6ELIJOg==",
                            "noiseTrainingType" : "default"
                          }
                        }
                    ],
                    "start" : 4458,
                    "duration" : 1554,
                    "mediaStart" : 2393,
                    "mediaDuration" : 1554,
                    "scalar" : 1,
                    "metadata" : {
                      "WinSubProjectDisplayName" : "",
                      "clipSpeedAttribute" : false
                    },
                    "animationTracks" : {

                    }
                  },
                  {
                    "id" : 36,
                    "_type" : "StitchedMedia",
                    "minMediaStart" : 0,
                    "attributes" : {
                      "ident" : "tower-arch-03",
                      "gain" : 1.0,
                      "mixToMono" : false
                    },
                    "parameters" : {
                      "volume" : 1.0,
                      "cursorOpacity" : 1.0,
                      "cursorScale" : 1.0
                    },
                    "medias" : [
                        {
                          "id" : 37,
                          "_type" : "AMFile",
                          "src" : 4,
                          "trackNumber" : 1,
                          "attributes" : {
                            "ident" : "Rec 02-03-20_004",
                            "sampleRate" : 44100,
                            "bitDepth" : 16,
                            "gain" : 1.0,
                            "mixToMono" : false
                          },
                            "channelNumber" : "0,1",
                          "effects" : [

                          ],
                          "start" : 0,
                          "duration" : 1550,
                          "mediaStart" : 0,
                          "mediaDuration" : 1550,
                          "scalar" : 1,
                          "metadata" : {
                            "WinSubProjectDisplayName" : "",
                            "clipSpeedAttribute" : false
                          },
                          "animationTracks" : {

                          }
                        },
                        {
                          "id" : 38,
                          "_type" : "AMFile",
                          "src" : 4,
                          "trackNumber" : 1,
                          "attributes" : {
                            "ident" : "Rec 02-03-20_004",
                            "sampleRate" : 44100,
                            "bitDepth" : 16,
                            "gain" : 1.0,
                            "mixToMono" : false
                          },
                            "channelNumber" : "0,1",
                          "effects" : [

                          ],
                          "start" : 1550,
                          "duration" : 367,
                          "mediaStart" : 1641,
                          "mediaDuration" : 367,
                          "scalar" : 1,
                          "metadata" : {
                            "WinSubProjectDisplayName" : "",
                            "clipSpeedAttribute" : false
                          },
                          "animationTracks" : {

                          }
                        },
                        {
                          "id" : 39,
                          "_type" : "AMFile",
                          "src" : 4,
                          "trackNumber" : 1,
                          "attributes" : {
                            "ident" : "Rec 02-03-20_004",
                            "sampleRate" : 44100,
                            "bitDepth" : 16,
                            "gain" : 1.0,
                            "mixToMono" : false
                          },
                            "channelNumber" : "0,1",
                          "effects" : [

                          ],
                          "start" : 1917,
                          "duration" : 205,
                          "mediaStart" : 2028,
                          "mediaDuration" : 205,
                          "scalar" : 1,
                          "metadata" : {
                            "WinSubProjectDisplayName" : "",
                            "clipSpeedAttribute" : false
                          },
                          "animationTracks" : {

                          }
                        },
                        {
                          "id" : 40,
                          "_type" : "AMFile",
                          "src" : 4,
                          "trackNumber" : 1,
                          "attributes" : {
                            "ident" : "Rec 02-03-20_004",
                            "sampleRate" : 44100,
                            "bitDepth" : 16,
                            "gain" : 1.0,
                            "mixToMono" : false
                          },
                            "channelNumber" : "0,1",
                          "effects" : [

                          ],
                          "start" : 2122,
                          "duration" : 2794,
                          "mediaStart" : 2724,
                          "mediaDuration" : 2794,
                          "scalar" : 1,
                          "metadata" : {
                            "WinSubProjectDisplayName" : "",
                            "clipSpeedAttribute" : false
                          },
                          "animationTracks" : {

                          }
                        },
                        {
                          "id" : 41,
                          "_type" : "AMFile",
                          "src" : 4,
                          "trackNumber" : 1,
                          "attributes" : {
                            "ident" : "Rec 02-03-20_004",
                            "sampleRate" : 44100,
                            "bitDepth" : 16,
                            "gain" : 1.0,
                            "mixToMono" : false
                          },
                            "channelNumber" : "0,1",
                          "effects" : [

                          ],
                          "start" : 4916,
                          "duration" : 177,
                          "mediaStart" : 5626,
                          "mediaDuration" : 177,
                          "scalar" : 1,
                          "metadata" : {
                            "WinSubProjectDisplayName" : "",
                            "clipSpeedAttribute" : false
                          },
                          "animationTracks" : {

                          }
                        },
                        {
                          "id" : 42,
                          "_type" : "AMFile",
                          "src" : 4,
                          "trackNumber" : 1,
                          "attributes" : {
                            "ident" : "Rec 02-03-20_004",
                            "sampleRate" : 44100,
                            "bitDepth" : 16,
                            "gain" : 1.0,
                            "mixToMono" : false
                          },
                            "channelNumber" : "0,1",
                          "effects" : [

                          ],
                          "start" : 5093,
                          "duration" : 60,
                          "mediaStart" : 5877,
                          "mediaDuration" : 60,
                          "scalar" : 1,
                          "metadata" : {
                            "WinSubProjectDisplayName" : "",
                            "clipSpeedAttribute" : false
                          },
                          "animationTracks" : {

                          }
                        },
                        {
                          "id" : 43,
                          "_type" : "AMFile",
                          "src" : 4,
                          "trackNumber" : 1,
                          "attributes" : {
                            "ident" : "Rec 02-03-20_004",
                            "sampleRate" : 44100,
                            "bitDepth" : 16,
                            "gain" : 1.0,
                            "mixToMono" : false
                          },
                            "channelNumber" : "0,1",
                          "effects" : [

                          ],
                          "start" : 5153,
                          "duration" : 289,
                          "mediaStart" : 6009,
                          "mediaDuration" : 289,
                          "scalar" : 1,
                          "metadata" : {
                            "WinSubProjectDisplayName" : "",
                            "clipSpeedAttribute" : false
                          },
                          "animationTracks" : {

                          }
                        },
                        {
                          "id" : 44,
                          "_type" : "AMFile",
                          "src" : 4,
                          "trackNumber" : 1,
                          "attributes" : {
                            "ident" : "Rec 02-03-20_004",
                            "sampleRate" : 44100,
                            "bitDepth" : 16,
                            "gain" : 1.0,
                            "mixToMono" : false
                          },
                            "channelNumber" : "0,1",
                          "effects" : [

                          ],
                          "start" : 5442,
                          "duration" : 1552,
                          "mediaStart" : 6909,
                          "mediaDuration" : 1552,
                          "scalar" : 1,
                          "metadata" : {
                            "WinSubProjectDisplayName" : "",
                            "clipSpeedAttribute" : false
                          },
                          "animationTracks" : {

                          }
                        }
                    ],
                    "effects" : [
                        {
                          "effectName" : "NoiseReduction",
                          "category" : "categoryAudioEffects",
                          "parameters" : {
                            "denoiserAmount" : 20.0,
                            "denoiserThreshold" : 0.0,
                            "noiseProfile" : "yEjwPvqziz8sEIk+9AoyP+AHVj+8ROlB746fQSL9xz8BV78/kBGFQIa0Kj8mSjNAgbGsPrZT4j7s\r\nRyNAmWOKQD7Vuj78Gz9AZ/+wP6FtDkBjOT9AqOsXQDaVkT/bLppAqakSQPrJAUAkmXY/CtERQFVE\r\nB0Au9W1AsNCaQO4a9z+G3R9AEQmVQI8XgUA13yxBN7qJQDzfC0EoBXlAiPOmP2P9BUBu+YI/l4tN\r\nQMamBUBJ3jRALYcwQaysjECaWP5ARIfaP03vgkD+knpALGA4P04H5j9M9/I+Y3TAPwbDPUCNX4o/\r\nmp2HP42zD0FLYcQ/rBKfPyhOs0Df0I1A61WcQNiSuT8Puqc/wtoUP/vn9j/2Wj9AdabtPt5jhz9N\r\ng8w+mtGCP5/PYT/FKpI/Z6yFP4xKA0ATB9hAUDyzP1i4AEBElqs+UVoiQPAJWEDCyC0/i0EpQU48\r\n3kGUE5NBKqS6QOSqnULxP8NCPoyDQooWjkJCijxDslmEQ8fX1UJeuHRCuNx/QnsWlUPSQZ5BBMq0\r\nQSNfOkGILotCwV2fQqj1hkLKeCRCIgC9QWDdKULRnwRAcpv6PlLycT/87XY/+N2KPkTO4T6cjWg+\r\nvmJ4PmQjNT5vsVc++lrDPeCmBj630XY+ZjqUPkRpTj6YcdY+uj+iPknlED/i2vk+OIOePrfRFD9s\r\nrdM+uGkdQGmhpD4CBS8/zASuPuptjz+BzqU/LDKPP2XwmT8kFjM+q8SRP5CsgD5aDq8/vIcGPzMV\r\nMT+7iVQ/MqPhQDi0gEB/E3hA+GJQP6pGsz5QqjhAF9s+QAychkBMkjhBrgfjQCACVUALxshApHiK\r\nQZnDAkGP4FhBoNMxQb91R0FkvPJA5gt5QN/N4EDHNJ1BfDW9QNp71j87aCpBj2maQObgoEC8JDBB\r\nlIM2QaUF0EF50LlBy/GXQQqYt0GggptAybDVQFjEPUD0tpA/cpoHP7UQAz+emHg+w7MnQGaEvj7h\r\nUYU+iNhPPvKsGD99PvM+VTTxPSvWTz107qQ9BoKDPmKclz1wT689+yX5Pf0hQj7IDyM+lSwbPmlA\r\ndj0hsoM+8zVLPstNjT0f7Co+qfLgPIKFRj7Ia10/45aMP1r6k0AmoR5AH+ufQIXE5EBN5d5AHib4\r\nQMQeMEDXJgZAlJCIP1DmM0DXBNFABULRQF3UUkDnsYdAzsPWQGPcMEGGMz5BkRkkQeFmk0EPGvdB\r\nIyhgQXguFkKA3RZCsP4mQtAsKUKdO45CoBWaQfpnEEI9f+9BDlK7QNBig0HXHJtBkq7MQVwHmEAF\r\nZ5NBS3dKQJBXNUB4nmdBKVdHQvLKs0HPtJ1AtRqIQXg2pUG5gI9AwczUPw0cvD+O/4pAFn3zP68R\r\n3j/Sg/s/dOD3Py5Djz62oi8//iB9PoLugz21tiM92ujHPNaPrz2EcDc98FAJPZooqD7AySE/zPpI\r\nPv8CxD5srU4+AGEVPVWHQT5hpNY+Z1xsPwoa3T+UpVJAXLT4Prp0qT84rYA/42/nP4nGMz83iQE/\r\nYWaeP6ilMkDxS35AL1HFQCCihT9kkkI/EhUPQMqw/T63Ujw/n9m9PqTn9z+GP0Q/cKidP1tajz8G\r\nM+E/WDVfP61Ulz/ukJw9lqOQPlHstz454Zg9JNVVPgPWDz46UDY9PSohPhorIj7Zg4c9PBuKPUZq\r\nXz0mQYo9LDKWPuhPvT53igU9c28PPbb6/z3aoFk+/2lzPrfCPTzpUWY89kvDPOt9qjxOQpg8tNKR\r\nPESR5DsO0dE8QLRpPFqfKz0IqLo8BQkLPKQWyjxq3wc9VScWPU+nmzw1/To9G3wdPbhjrzyvDrY8\r\nWg0vPVIGZDxODhE8VL8vPOTD9zsSbpU8gKuqPKbhDTzrdiY8taoyPF4lvTt/+lE795/fOw0+iTvE\r\nPdY77fN2OyA6ojsOhZg7LFaGO/+khDvqy0g71m11Oym4ejvjnC870uhFO+o/TjtlAEU70GU5OyWy\r\nKjvQ0zg71NA1O4rOLjvxfSM7i3YjO0ZDKzuVmiw7AdsZOyVBIzs3yCY7bxMeO0W+FzvAri87IGQd\r\nOzJjGDs4jyY7R94QO3h3FTu00hY7T9kPO81tFDuvkRA76yQTOxSzDTu2GgI7qmERO1hLCTvZBAg7\r\nmVIJOxI2AzuxhgI7osoAO++7ADt5egA7tDL9Ohgy+DpptPU6dBn2OrVk7DpMTfQ6i3DqOtPr5TrO\r\ndOw6rS/hOoKY4TrdC+Y62hrhOrDW3zog79o6lNDXOtwx2Dp2peA6QVvXOiUk1Dq3/s06NMTQOtcq\r\nzjpDU8069FbOOmULyDpA38w6+RHAOvumxTrMOr86jy/DOtIvwTo+/7w6mlq+OhDLuzpK6bw69oW1\r\nOhFStTpe27U6b9q3Olx0szpA/rc6vSCzOhqLtDqesas6u2urOvLzsDpGJ7U6WGquOqCppjrAWbA6\r\nnF+jOnH+rjrLtas64fykOpBApzrm9qE6rGmjOtElpTpetao6WmemOvpmpjrVtJo6IfqfOuSjmjo0\r\nUpk65L2eOtVVoDpzgpE6/+OROhDTnjpjhqY6bT+bOjx7oTqxIZs6PT6ZOhUenTr0MZs6Iy6WOuIw\r\nlzomeZU6lnWZOlZalzobXpk6tGSYOhTAmzqnPp86yqKiOuj6njrE7qk6SnCgOv1AkTq4jJI69dCY\r\nOnpPoTqywIk6RESBOodviTquyos6blJrOqGarTpYe786NLmzOqnTnjopuKY6GrqZOjlwjDqgJ286\r\n7BfCOsLUnDqv6H86GD1ZOvrFdDobuJI6TK94OsiFhDpl5Hw60WqGOnEdgzp1S4M6pAWBOmB8iDoD\r\nin86Uj94OhRCgTrH5oQ685ScOhbEdjpkJp06ADuNOmQQkToCJH462ml5On4CdzrYk3c6d8x4Ou2C\r\nezqQtWo6eBd3OoYRdDrAknw6N29xOpKXdjqiYHw6PqlvOk2vbToYMG06DFBvOqS7bjqUKnU6TlJu\r\nOvpdXzqKTGM6/btoOiYHVjrQk2s6r15hOijXazr4WGk6jap3OuagUTpaUmQ6YIk5OkfTQTqSRGQ6\r\n/JuZOitjSjqbeHU63N6ZOlZeOzosgWQ6VgRfOvATfDoyGG86MlxsOn7QaDpvlm06Gu5tOj2Fbjo6\r\nC2c66mllOskXYjpIIGE6SMBjOubJYjogFmE6yG9jOgQbYDpY12I6EkNmOrG0VzoynFw6qnJhOi7P\r\nVjrh+Vk6GstYOmTTYDrsdFc6PKVYOjOcXDo+qVQ6EAhYOvRXVzr8hVM6Dw5WOs+GVjrbaVQ6woBP\r\nOsEdUzroHFU6VudLOuHRVzrU8VI6fntSOhPXTjpuEk06BAlPOsQeSDp8PEk6TOVCOmK1SjraIks6\r\nfOxBOki1RDrqfE06285HOp8LQTradkQ6KYdBOvxlPzohoTs6Qrs6Ony1Pzos7y86BNoiOlrKCTr9\r\nBg860iFcOjxOOzpT1hY6BnAQOv7bqzpFGJ46TAgpOj4iMjo0mzI6J4yIOhvaVjoOuKY6CqCAOjhG\r\ngjpw1VA6BkRdOiUGVzpSrFQ6DUVIOjZzSTr4qkU6lR1VOn/bSTokiD06zXk9OiNwQzriWkA6GE43\r\nOtS6RDq7SUs6KndDOqZ6NzrxKkE6kCA/Ou47OzqCtT86ik9OOlOxPzqx/Ds6yA88Oiu8OzoZ9T46\r\nSvI6OsS8PDp+4jk6a8M3Om6qODq4Ijo60GA3OpDYNzroVzY6GnU0Oq6wMToU3DU6nvE6OnhsOTqQ\r\n7TQ6SlYwOqp4OTrCIzg6fIo2OtkrMDq/9jw6DAUuOjZSODoLPio6qAc4OlC2LDpz/DI6gPwvOj+7\r\nLzq85DU68sE3OobeNjqG+jM6CDAsOoQhNDqx1ik6mQEsOjYgLDoBIC06GPUyOiwZNToVczA6Dusx\r\nOpTkLzrCuCo63LMoOl5hKTqyhyw6tkcsOtbiKDpbRCY6LKcvOlDYJzqP1yk6JuwoOsIfLDqf5SU6\r\n+1AoOoEXJzqdHy46AgonOos+LDoq0yw6i5wnOit6JDqJqik6I4ImOu6oLTr71iI6/5cvOmC+Izo3\r\nnCg6NFYkOj5SLTocGic6EVAhOpBrIzqk6SI6BvkjOsccJTo2TCk61/0iOqeiHTrBliI61gQmOsTL\r\nJjo7fiU6MZIdOr34HjroJSI6k18nOquBITo0vB46jTwgOnL2IDq9RiU6NiIfOlRRITrR1iI65G4e\r\nOpcjHzonNhw6wjcdOrZ+IDp75SQ6LkQdOiDCHjrVniE6QtIbOvS2Ijp+fRg6Tv8mOjzjHDp5Exg6\r\nrggeOpiAGjqjWh06+w0fOu68IDpzKho6PsYfOn9FGTqygRs6Ro8hOihGFzq1LhM6aX0aOrUKGjom\r\n1xU608gUOvTrGTqKRBc6zKoSOqIOGjqjYiA6figcOlqKEzp1ERU6s7gZOgJuFDqOxxc6uSIVOnRt\r\nFjpbeRo6INMZOs4IFzqudBY6zfwROoZ8Izo3sRw6XRsUOs+nGTrpARQ6OJwUOpPvGTrgWRo6KigS\r\nOoD5Fzo09RI6IzAVOrniFjovthE62rUQOpKFFzoqGRM6daAWOieNEDrpsg06JGwROk85Ezp0Sw06\r\ngTwSOnbXFDp90Bg6ZwcXOsTnDzqNixY6hu8TOkzWDTr0RBM6R8YSOg0AEjpWlhQ6igIUOq8lGDpw\r\ndxA6wDcTOgGKFDpBBhE6rKsUOgrJCzo3sA866XQSOvbxFDoXoBQ6x3MSOq7+EDpzZAo6Lr4LOmWq\r\nDzoeuRI67RQQOpGMCzrZrxA6QCwROjsjCTpvrxA6QfsSOt0lEzoYVg46QhwTOpJmDjpRWA06/8gJ\r\nOkIWFDobiBE6wCAUOuydDzoPkhE6IQcPOhxcCzrEOA06S3wQOhpWDzrNFQo61I4MOloACjqd/gw6\r\nVhIROs/gCjoQOwc6LtQOOvDLEDqtsQo6NZcHOlbhDzp8GRE60W0OOtUMDDp32wY68YELOiF5ETp6\r\n/g06S6MOOhQfDzooRA06r/sQOt8WBjrP1gw6hdQIOgbqCDqAMQ86DCULOpVoDDqEbAY6sA0OOvVf\r\nDDofzBE6rrYKOlCjEDpNhhM6unUNOpZ5Djr+BQ06rZoOOhnECTpLAAs67VoIOksuCjoyYgw6olEI\r\nOgOwBTpBsgs632QLOl9tCjpGUQU6KAoKOrNeCjoQLgU6bR8LOtY7Dzp70A86ZvMHOkiqCDo3+Aw6\r\nO04LOuhsCDptEAY67BIQOrKOCzrYKQs60aYJOl2XCTofJQ86TpYMOrH9Bjqg8g06ITEFOoAJDzoZ\r\nSws6SiIPOjgiCjq8Yww6t5ULOnubBjplRwU66WMCOuodCjrIsAY6cOMDOluYCzqy5Qo6q00LOidB\r\nBjpIIg46BvcFOu8JBDqXFgQ6Hg0DOkLDDjoTagw6fBQJOoEoDDotBAg67ToIOgEiBTpO+gs69fkN\r\nOkceCTq3EQ06kckLOtVoCDoXNAs6nZANOgRzCDovpgo6VWcNOkL/CDqGiAU6wDAKOhCyCTrISPA+\r\nerOLPywQiT70CjI/4AdWP7xE6UHvjp9BIv3HPwFXvz9CFoVAhrQqPyZKM0CBsaw+tlPiPuxHI0CZ\r\nY4pAPtW6PvwbP0Bn/7A/oW0OQGM5P0Co6xdANpWRP9sumkCpqRJA+skBQCSZdj8K0RFAVUQHQC71\r\nbUCw0JpA7hr3P4bdH0ARCZVAjxeBQDXfLEE3uolAPN8LQXj9eEAW5KY/Y/0FQG75gj+Xi01AxqYF\r\nQEneNEAthzBBrKyMQJpY/kBEh9o/Te+CQP6SekAsYDg/TgfmP7jJ8j76XcA/rq89QI1fij+anYc/\r\njbMPQUthxD+sEp8/KE6zQN/QjUDrVZxA2JK5Pw+6pz/C2hQ/++f2P/ZaP0B1pu0+DmeHP02DzD6a\r\n0YI/n89hP8Uqkj9nrIU/jEoDQBMH2EBQPLM/WLgAQESWqz5RWiJA8AlYQMLILT+LQSlBTjzeQZQT\r\nk0EqpLpA5KqdQvE/w0I+jINCihaOQkKKPEOyWYRDx9fVQl64dEK43H9CexaVQ9JBnkEEyrRBI186\r\nQYgui0LBXZ9CqPWGQsp4JEIiAL1BYN0pQtGfBEBym/o+UvJxP/ztdj/43Yo+RM7hPpyNaD6+Yng+\r\nZCM1Pm+xVz76WsM94KYGPrfRdj5mOpQ+Q0JOPphx1j66P6I+SeUQP+La+T44g54+t9EUP2yt0z64\r\naR1AaaGkPgIFLz/MBK4+6m2PP4HOpT8sMo8/ZfCZPyQWMz6rxJE/kKyAPloOrz+8hwY/MxUxP7uJ\r\nVD8yo+FAOLSAQH8TeED4YlA/qkazPlCqOEAX2z5ADJyGQEySOEGuB+NAIAJVQAvGyECkeIpBmcMC\r\nQY/gWEGg0zFBv3VHQWS88kDmC3lA383gQMc0nUF8Nb1A2nvWPztoKkGPaZpA5uCgQLwkMEGUgzZB\r\npQXQQXnQuUHL8ZdBCpi3QaCCm0DJsNVAWMQ9QPS2kD9ymgc/tRADP56YeD7DsydAZoS+PuFRhT6I\r\n2E8+8qwYP30+8z5VNPE9K9ZPPXTupD0GgoM+YpyXPXBPrz37Jfk9/SFCPsgPIz6VLBs+aUB2PSGy\r\ngz7zNUs+y02NPR/sKj6p8uA8goVGPshrXT/jlow/WvqTQCahHkAf659AhcTkQE3l3kAeJvhAxB4w\r\nQNcmBkCUkIg/UOYzQNcE0UAFQtFAXdRSQOexh0DOw9ZAY9wwQYYzPkGRGSRB4WaTQQ8a90EjKGBB\r\neC4WQoDdFkKw/iZC0CwpQp07jkKgFZpB+mcQQj1/70EOUrtA0GKDQdccm0GSrsxBXAeYQAVnk0FL\r\nd0pAkFc1QHieZ0EpV0dC8sqzQc+0nUC1GohBeDalQbmAj0DBzNQ/DRy8P47/ikAWffM/rxHeP9KD\r\n+z904Pc/LkOPPraiLz/+IH0+gu6DPbW2Iz3a6Mc81o+vPYRwNz3wUAk9miioPsDJIT/M+kg+/wLE\r\nPmytTj4AYRU9VYdBPmGk1j5nXGw/ChrdP5SlUkBctPg+unSpPzitgD/jb+c/icYzPzeJAT9hZp4/\r\nqKUyQPFLfkAvUcVAIKKFP2SSQj8SFQ9AyrD9PrdSPD+f2b0+pOf3P4Y/RD9wqJ0/W1qPPwYz4T9Y\r\nNV8/rVSXP+6QnD2Wo5A+Uey3PjnhmD0k1VU+A9YPPjpQNj09KiE+GisiPtmDhz08G4o9RmpfPSZB\r\nij0sMpY+6E+9PneKBT1zbw89tvr/PdqgWT7/aXM+t8I9POlRZjz2S8M8632qPE5CmDy00pE8RJHk\r\nOw7R0TxAtGk8Wp8rPQioujwFCQs8pBbKPGrfBz1VJxY9T6ebPDX9Oj0bfB09uGOvPK8OtjxaDS89\r\nUgZkPE4OETxUvy885MP3OxJulTyAq6o8puENPOt2Jjy1qjI8XiW9O3/6UTv3n987DT6JO8Q91jvt\r\n83Y7IDqiOw6FmDssVoY7/6SEO+rLSDvWbXU7Kbh6O+OcLzvS6EU76j9OO2UARTvQZTk7JbIqO9DT\r\nODvU0DU7is4uO/F9IzuLdiM7RkMrO5WaLDsB2xk7JUEjOzfIJjtvEx47Rb4XO8CuLzsgZB07MmMY\r\nOziPJjtH3hA7eHcVO7TSFjtP2Q87zW0UO6+REDvrJBM7FLMNO7YaAjuqYRE7WEsJO9kECDuZUgk7\r\nEjYDO7GGAjuiygA777sAO3l6ADu0Mv06GDL4Omm09Tp0GfY6tWTsOkxN9DqLcOo60+vlOs507Dqt\r\nL+E6gpjhOt0L5jraGuE6sNbfOiDv2jqU0Nc63DHYOnal4DpBW9c6JSTUOrf+zTo0xNA61yrOOkNT\r\nzTr0Vs46ZQvIOkDfzDr5EcA6+6bFOsw6vzqPL8M60i/BOj7/vDqaWr46EMu7OkrpvDr2hbU6EVK1\r\nOl7btTpv2rc6XHSzOkD+tzq9ILM6Gou0Op6xqzq7a6s68vOwOkYntTpYaq46oKmmOsBZsDqcX6M6\r\ncf6uOsu1qzrh/KQ6kECnOub2oTqsaaM60SWlOl61qjpaZ6Y6+mamOtW0mjoh+p865KOaOjRSmTrk\r\nvZ461VWgOnOCkTr/45E6ENOeOmOGpjptP5s6PHuhOrEhmzo9Ppk6FR6dOvQxmzojLpY64jCXOiZ5\r\nlTqWdZk6VlqXOhtemTq0ZJg6FMCbOqc+nzrKoqI66PqeOsTuqTpKcKA6/UCROriMkjr10Jg6ek+h\r\nOrLAiTpERIE6h2+JOq7KizpuUms6oZqtOlh7vzo0ubM6qdOeOim4pjoaupk6OXCMOqAnbzrsF8I6\r\nwtScOq/ofzoYPVk6+sV0Ohu4kjpMr3g6yIWEOmXkfDrRaoY6cR2DOnVLgzqkBYE6YHyIOgOKfzpS\r\nP3g6FEKBOsfmhDrzlJw6FsR2OmQmnToAO406ZBCROgIkfjraaXk6fgJ3OtiTdzp3zHg67YJ7OpC1\r\najp4F3c6hhF0OsCSfDo3b3E6kpd2OqJgfDo+qW86Ta9tOhgwbToMUG86pLtuOpQqdTpOUm46+l1f\r\nOopMYzr9u2g6JgdWOtCTazqvXmE6KNdrOvhYaTqNqnc65qBROlpSZDpgiTk6R9NBOpJEZDr8m5k6\r\nK2NKOpt4dTrc3pk6Vl47OiyBZDpWBF868BN8OjIYbzoyXGw6ftBoOm+WbToa7m06PYVuOjoLZzrq\r\naWU6yRdiOkggYTpIwGM65sliOiAWYTrIb2M6BBtgOljXYjoSQ2Y6sbRXOjKcXDqqcmE6Ls9WOuH5\r\nWToay1g6ZNNgOux0Vzo8pVg6M5xcOj6pVDoQCFg69FdXOvyFUzoPDlY6z4ZWOttpVDrCgE86wR1T\r\nOugcVTpW50s64dFXOtTxUjp+e1I6E9dOOm4STToECU86xB5IOnw8STpM5UI6YrVKOtoiSzp87EE6\r\nSLVEOup8TTrbzkc6nwtBOtp2RDoph0E6/GU/OiGhOzpCuzo6fLU/OizvLzoE2iI6WsoJOv0GDzrS\r\nIVw6PE47OlPWFjoGcBA6/turOkUYnjpMCCk6PiIyOjSbMjonjIg6G9pWOg64pjoKoIA6OEaCOnDV\r\nUDoGRF06JQZXOlKsVDoNRUg6NnNJOviqRTqVHVU6f9tJOiSIPTrNeT06I3BDOuJaQDoYTjc61LpE\r\nOrtJSzoqd0M6pno3OvEqQTqQID867js7OoK1PzqKT046U7E/OrH8OzrIDzw6K7w7Ohn1PjpK8jo6\r\nxLw8On7iOTprwzc6bqo4OrgiOjrQYDc6kNg3OuhXNjoadTQ6rrAxOhTcNTqe8To6eGw5OpDtNDpK\r\nVjA6qng5OsIjODp8ijY62SswOr/2PDoMBS46NlI4Ogs+KjqoBzg6ULYsOnP8MjqA/C86P7svOrzk\r\nNTrywTc6ht42Oob6MzoIMCw6hCE0OrHWKTqZASw6NiAsOgEgLToY9TI6LBk1OhVzMDoO6zE6lOQv\r\nOsK4Kjrcsyg6XmEpOrKHLDq2Ryw61uIoOltEJjospy86UNgnOo/XKTom7Cg6wh8sOp/lJTr7UCg6\r\ngRcnOp0fLjoCCic6iz4sOirTLDqLnCc6K3okOomqKTojgiY67qgtOvvWIjr/ly86YL4jOjecKDo0\r\nViQ6PlItOhwaJzoRUCE6kGsjOqTpIjoG+SM6xxwlOjZMKTrX/SI6p6IdOsGWIjrWBCY6xMsmOjt+\r\nJToxkh06vfgeOuglIjqTXyc6q4EhOjS8HjqNPCA6cvYgOr1GJTo2Ih86VFEhOtHWIjrkbh46lyMf\r\nOic2HDrCNx06tn4gOnvlJDouRB06IMIeOtWeITpC0hs69LYiOn59GDpO/yY6POMcOnkTGDquCB46\r\nmIAaOqNaHTr7DR867rwgOnMqGjo+xh86f0UZOrKBGzpGjyE6KEYXOrUuEzppfRo6tQoaOibXFTrT\r\nyBQ69OsZOopEFzrMqhI6og4aOqNiIDp+KBw6WooTOnURFTqzuBk6Am4UOo7HFzq5IhU6dG0WOlt5\r\nGjog0xk6zggXOq50FjrN/BE6hnwjOjexHDpdGxQ6z6cZOukBFDo4nBQ6k+8ZOuBZGjoqKBI6gPkX\r\nOjT1EjojMBU6ueIWOi+2ETratRA6koUXOioZEzp1oBY6J40QOumyDTokbBE6TzkTOnRLDTqBPBI6\r\ndtcUOn3QGDpnBxc6xOcPOo2LFjqG7xM6TNYNOvREEzpHxhI6DQASOlaWFDqKAhQ6ryUYOnB3EDrA\r\nNxM6AYoUOkEGETqsqxQ6CskLOjewDzrpdBI69vEUOhegFDrHcxI6rv4QOnNkCjouvgs6ZaoPOh65\r\nEjrtFBA6kYwLOtmvEDpALBE6OyMJOm+vEDpB+xI63SUTOhhWDjpCHBM6kmYOOlFYDTr/yAk6QhYU\r\nOhuIETrAIBQ67J0POg+SETohBw86HFwLOsQ4DTpLfBA6GlYPOs0VCjrUjgw6WgAKOp3+DDpWEhE6\r\nz+AKOhA7Bzou1A468MsQOq2xCjo1lwc6VuEPOnwZETrRbQ461QwMOnfbBjrxgQs6IXkROnr+DTpL\r\now46FB8POihEDTqv+xA63xYGOs/WDDqF1Ag6BuoIOoAxDzoMJQs6lWgMOoRsBjqwDQ469V8MOh/M\r\nETqutgo6UKMQOk2GEzq6dQ06lnkOOv4FDTqtmg46GcQJOksACzrtWgg6Sy4KOjJiDDqiUQg6A7AF\r\nOkGyCzrfZAs6X20KOkZRBTooCgo6s14KOhAuBTptHws61jsPOnvQDzpm8wc6SKoIOjf4DDo7Tgs6\r\n6GwIOm0QBjrsEhA6so4LOtgpCzrRpgk6XZcJOh8lDzpOlgw6sf0GOqDyDTohMQU6gAkPOhlLCzpK\r\nIg86OCIKOrxjDDq3lQs6e5sGOmVHBTrpYwI66h0KOsiwBjpw4wM6W5gLOrLlCjqrTQs6J0EGOkgi\r\nDjoG9wU67wkEOpcWBDoeDQM6QsMOOhNqDDp8FAk6gSgMOi0ECDrtOgg6ASIFOk76Czr1+Q06Rx4J\r\nOrcRDTqRyQs61WgIOhc0CzqdkA06BHMIOi+mCjpVZw06Qv8IOoaIBTrAMAo6ELIJOg==",
                            "noiseTrainingType" : "default"
                          }
                        }
                    ],
                    "start" : 6012,
                    "duration" : 1455,
                    "mediaStart" : 4429,
                    "mediaDuration" : 1455,
                    "scalar" : 1,
                    "metadata" : {
                      "WinSubProjectDisplayName" : "",
                      "clipSpeedAttribute" : false
                    },
                    "animationTracks" : {

                    }
                  },
                  {
                    "id" : 45,
                    "_type" : "StitchedMedia",
                    "minMediaStart" : 0,
                    "attributes" : {
                      "ident" : "tower-arch-03",
                      "gain" : 1.0,
                      "mixToMono" : false
                    },
                    "parameters" : {
                      "volume" : 1.0,
                      "cursorOpacity" : 1.0,
                      "cursorScale" : 1.0
                    },
                    "medias" : [
                        {
                          "id" : 46,
                          "_type" : "AMFile",
                          "src" : 4,
                          "trackNumber" : 1,
                          "attributes" : {
                            "ident" : "Rec 02-03-20_004",
                            "sampleRate" : 44100,
                            "bitDepth" : 16,
                            "gain" : 1.0,
                            "mixToMono" : false
                          },
                            "channelNumber" : "0,1",
                          "effects" : [

                          ],
                          "start" : 0,
                          "duration" : 1550,
                          "mediaStart" : 0,
                          "mediaDuration" : 1550,
                          "scalar" : 1,
                          "metadata" : {
                            "WinSubProjectDisplayName" : "",
                            "clipSpeedAttribute" : false
                          },
                          "animationTracks" : {

                          }
                        },
                        {
                          "id" : 47,
                          "_type" : "AMFile",
                          "src" : 4,
                          "trackNumber" : 1,
                          "attributes" : {
                            "ident" : "Rec 02-03-20_004",
                            "sampleRate" : 44100,
                            "bitDepth" : 16,
                            "gain" : 1.0,
                            "mixToMono" : false
                          },
                            "channelNumber" : "0,1",
                          "effects" : [

                          ],
                          "start" : 1550,
                          "duration" : 367,
                          "mediaStart" : 1641,
                          "mediaDuration" : 367,
                          "scalar" : 1,
                          "metadata" : {
                            "WinSubProjectDisplayName" : "",
                            "clipSpeedAttribute" : false
                          },
                          "animationTracks" : {

                          }
                        },
                        {
                          "id" : 48,
                          "_type" : "AMFile",
                          "src" : 4,
                          "trackNumber" : 1,
                          "attributes" : {
                            "ident" : "Rec 02-03-20_004",
                            "sampleRate" : 44100,
                            "bitDepth" : 16,
                            "gain" : 1.0,
                            "mixToMono" : false
                          },
                            "channelNumber" : "0,1",
                          "effects" : [

                          ],
                          "start" : 1917,
                          "duration" : 205,
                          "mediaStart" : 2028,
                          "mediaDuration" : 205,
                          "scalar" : 1,
                          "metadata" : {
                            "WinSubProjectDisplayName" : "",
                            "clipSpeedAttribute" : false
                          },
                          "animationTracks" : {

                          }
                        },
                        {
                          "id" : 49,
                          "_type" : "AMFile",
                          "src" : 4,
                          "trackNumber" : 1,
                          "attributes" : {
                            "ident" : "Rec 02-03-20_004",
                            "sampleRate" : 44100,
                            "bitDepth" : 16,
                            "gain" : 1.0,
                            "mixToMono" : false
                          },
                            "channelNumber" : "0,1",
                          "effects" : [

                          ],
                          "start" : 2122,
                          "duration" : 2794,
                          "mediaStart" : 2724,
                          "mediaDuration" : 2794,
                          "scalar" : 1,
                          "metadata" : {
                            "WinSubProjectDisplayName" : "",
                            "clipSpeedAttribute" : false
                          },
                          "animationTracks" : {

                          }
                        },
                        {
                          "id" : 50,
                          "_type" : "AMFile",
                          "src" : 4,
                          "trackNumber" : 1,
                          "attributes" : {
                            "ident" : "Rec 02-03-20_004",
                            "sampleRate" : 44100,
                            "bitDepth" : 16,
                            "gain" : 1.0,
                            "mixToMono" : false
                          },
                            "channelNumber" : "0,1",
                          "effects" : [

                          ],
                          "start" : 4916,
                          "duration" : 177,
                          "mediaStart" : 5626,
                          "mediaDuration" : 177,
                          "scalar" : 1,
                          "metadata" : {
                            "WinSubProjectDisplayName" : "",
                            "clipSpeedAttribute" : false
                          },
                          "animationTracks" : {

                          }
                        },
                        {
                          "id" : 51,
                          "_type" : "AMFile",
                          "src" : 4,
                          "trackNumber" : 1,
                          "attributes" : {
                            "ident" : "Rec 02-03-20_004",
                            "sampleRate" : 44100,
                            "bitDepth" : 16,
                            "gain" : 1.0,
                            "mixToMono" : false
                          },
                            "channelNumber" : "0,1",
                          "effects" : [

                          ],
                          "start" : 5093,
                          "duration" : 60,
                          "mediaStart" : 5877,
                          "mediaDuration" : 60,
                          "scalar" : 1,
                          "metadata" : {
                            "WinSubProjectDisplayName" : "",
                            "clipSpeedAttribute" : false
                          },
                          "animationTracks" : {

                          }
                        },
                        {
                          "id" : 52,
                          "_type" : "AMFile",
                          "src" : 4,
                          "trackNumber" : 1,
                          "attributes" : {
                            "ident" : "Rec 02-03-20_004",
                            "sampleRate" : 44100,
                            "bitDepth" : 16,
                            "gain" : 1.0,
                            "mixToMono" : false
                          },
                            "channelNumber" : "0,1",
                          "effects" : [

                          ],
                          "start" : 5153,
                          "duration" : 289,
                          "mediaStart" : 6009,
                          "mediaDuration" : 289,
                          "scalar" : 1,
                          "metadata" : {
                            "WinSubProjectDisplayName" : "",
                            "clipSpeedAttribute" : false
                          },
                          "animationTracks" : {

                          }
                        },
                        {
                          "id" : 53,
                          "_type" : "AMFile",
                          "src" : 4,
                          "trackNumber" : 1,
                          "attributes" : {
                            "ident" : "Rec 02-03-20_004",
                            "sampleRate" : 44100,
                            "bitDepth" : 16,
                            "gain" : 1.0,
                            "mixToMono" : false
                          },
                            "channelNumber" : "0,1",
                          "effects" : [

                          ],
                          "start" : 5442,
                          "duration" : 1552,
                          "mediaStart" : 6909,
                          "mediaDuration" : 1552,
                          "scalar" : 1,
                          "metadata" : {
                            "WinSubProjectDisplayName" : "",
                            "clipSpeedAttribute" : false
                          },
                          "animationTracks" : {

                          }
                        }
                    ],
                    "effects" : [
                        {
                          "effectName" : "NoiseReduction",
                          "category" : "categoryAudioEffects",
                          "parameters" : {
                            "denoiserAmount" : 20.0,
                            "denoiserThreshold" : 0.0,
                            "noiseProfile" : "yEjwPvqziz8sEIk+9AoyP+AHVj+8ROlB746fQSL9xz8BV78/kBGFQIa0Kj8mSjNAgbGsPrZT4j7s\r\nRyNAmWOKQD7Vuj78Gz9AZ/+wP6FtDkBjOT9AqOsXQDaVkT/bLppAqakSQPrJAUAkmXY/CtERQFVE\r\nB0Au9W1AsNCaQO4a9z+G3R9AEQmVQI8XgUA13yxBN7qJQDzfC0EoBXlAiPOmP2P9BUBu+YI/l4tN\r\nQMamBUBJ3jRALYcwQaysjECaWP5ARIfaP03vgkD+knpALGA4P04H5j9M9/I+Y3TAPwbDPUCNX4o/\r\nmp2HP42zD0FLYcQ/rBKfPyhOs0Df0I1A61WcQNiSuT8Puqc/wtoUP/vn9j/2Wj9AdabtPt5jhz9N\r\ng8w+mtGCP5/PYT/FKpI/Z6yFP4xKA0ATB9hAUDyzP1i4AEBElqs+UVoiQPAJWEDCyC0/i0EpQU48\r\n3kGUE5NBKqS6QOSqnULxP8NCPoyDQooWjkJCijxDslmEQ8fX1UJeuHRCuNx/QnsWlUPSQZ5BBMq0\r\nQSNfOkGILotCwV2fQqj1hkLKeCRCIgC9QWDdKULRnwRAcpv6PlLycT/87XY/+N2KPkTO4T6cjWg+\r\nvmJ4PmQjNT5vsVc++lrDPeCmBj630XY+ZjqUPkRpTj6YcdY+uj+iPknlED/i2vk+OIOePrfRFD9s\r\nrdM+uGkdQGmhpD4CBS8/zASuPuptjz+BzqU/LDKPP2XwmT8kFjM+q8SRP5CsgD5aDq8/vIcGPzMV\r\nMT+7iVQ/MqPhQDi0gEB/E3hA+GJQP6pGsz5QqjhAF9s+QAychkBMkjhBrgfjQCACVUALxshApHiK\r\nQZnDAkGP4FhBoNMxQb91R0FkvPJA5gt5QN/N4EDHNJ1BfDW9QNp71j87aCpBj2maQObgoEC8JDBB\r\nlIM2QaUF0EF50LlBy/GXQQqYt0GggptAybDVQFjEPUD0tpA/cpoHP7UQAz+emHg+w7MnQGaEvj7h\r\nUYU+iNhPPvKsGD99PvM+VTTxPSvWTz107qQ9BoKDPmKclz1wT689+yX5Pf0hQj7IDyM+lSwbPmlA\r\ndj0hsoM+8zVLPstNjT0f7Co+qfLgPIKFRj7Ia10/45aMP1r6k0AmoR5AH+ufQIXE5EBN5d5AHib4\r\nQMQeMEDXJgZAlJCIP1DmM0DXBNFABULRQF3UUkDnsYdAzsPWQGPcMEGGMz5BkRkkQeFmk0EPGvdB\r\nIyhgQXguFkKA3RZCsP4mQtAsKUKdO45CoBWaQfpnEEI9f+9BDlK7QNBig0HXHJtBkq7MQVwHmEAF\r\nZ5NBS3dKQJBXNUB4nmdBKVdHQvLKs0HPtJ1AtRqIQXg2pUG5gI9AwczUPw0cvD+O/4pAFn3zP68R\r\n3j/Sg/s/dOD3Py5Djz62oi8//iB9PoLugz21tiM92ujHPNaPrz2EcDc98FAJPZooqD7AySE/zPpI\r\nPv8CxD5srU4+AGEVPVWHQT5hpNY+Z1xsPwoa3T+UpVJAXLT4Prp0qT84rYA/42/nP4nGMz83iQE/\r\nYWaeP6ilMkDxS35AL1HFQCCihT9kkkI/EhUPQMqw/T63Ujw/n9m9PqTn9z+GP0Q/cKidP1tajz8G\r\nM+E/WDVfP61Ulz/ukJw9lqOQPlHstz454Zg9JNVVPgPWDz46UDY9PSohPhorIj7Zg4c9PBuKPUZq\r\nXz0mQYo9LDKWPuhPvT53igU9c28PPbb6/z3aoFk+/2lzPrfCPTzpUWY89kvDPOt9qjxOQpg8tNKR\r\nPESR5DsO0dE8QLRpPFqfKz0IqLo8BQkLPKQWyjxq3wc9VScWPU+nmzw1/To9G3wdPbhjrzyvDrY8\r\nWg0vPVIGZDxODhE8VL8vPOTD9zsSbpU8gKuqPKbhDTzrdiY8taoyPF4lvTt/+lE795/fOw0+iTvE\r\nPdY77fN2OyA6ojsOhZg7LFaGO/+khDvqy0g71m11Oym4ejvjnC870uhFO+o/TjtlAEU70GU5OyWy\r\nKjvQ0zg71NA1O4rOLjvxfSM7i3YjO0ZDKzuVmiw7AdsZOyVBIzs3yCY7bxMeO0W+FzvAri87IGQd\r\nOzJjGDs4jyY7R94QO3h3FTu00hY7T9kPO81tFDuvkRA76yQTOxSzDTu2GgI7qmERO1hLCTvZBAg7\r\nmVIJOxI2AzuxhgI7osoAO++7ADt5egA7tDL9Ohgy+DpptPU6dBn2OrVk7DpMTfQ6i3DqOtPr5TrO\r\ndOw6rS/hOoKY4TrdC+Y62hrhOrDW3zog79o6lNDXOtwx2Dp2peA6QVvXOiUk1Dq3/s06NMTQOtcq\r\nzjpDU8069FbOOmULyDpA38w6+RHAOvumxTrMOr86jy/DOtIvwTo+/7w6mlq+OhDLuzpK6bw69oW1\r\nOhFStTpe27U6b9q3Olx0szpA/rc6vSCzOhqLtDqesas6u2urOvLzsDpGJ7U6WGquOqCppjrAWbA6\r\nnF+jOnH+rjrLtas64fykOpBApzrm9qE6rGmjOtElpTpetao6WmemOvpmpjrVtJo6IfqfOuSjmjo0\r\nUpk65L2eOtVVoDpzgpE6/+OROhDTnjpjhqY6bT+bOjx7oTqxIZs6PT6ZOhUenTr0MZs6Iy6WOuIw\r\nlzomeZU6lnWZOlZalzobXpk6tGSYOhTAmzqnPp86yqKiOuj6njrE7qk6SnCgOv1AkTq4jJI69dCY\r\nOnpPoTqywIk6RESBOodviTquyos6blJrOqGarTpYe786NLmzOqnTnjopuKY6GrqZOjlwjDqgJ286\r\n7BfCOsLUnDqv6H86GD1ZOvrFdDobuJI6TK94OsiFhDpl5Hw60WqGOnEdgzp1S4M6pAWBOmB8iDoD\r\nin86Uj94OhRCgTrH5oQ685ScOhbEdjpkJp06ADuNOmQQkToCJH462ml5On4CdzrYk3c6d8x4Ou2C\r\nezqQtWo6eBd3OoYRdDrAknw6N29xOpKXdjqiYHw6PqlvOk2vbToYMG06DFBvOqS7bjqUKnU6TlJu\r\nOvpdXzqKTGM6/btoOiYHVjrQk2s6r15hOijXazr4WGk6jap3OuagUTpaUmQ6YIk5OkfTQTqSRGQ6\r\n/JuZOitjSjqbeHU63N6ZOlZeOzosgWQ6VgRfOvATfDoyGG86MlxsOn7QaDpvlm06Gu5tOj2Fbjo6\r\nC2c66mllOskXYjpIIGE6SMBjOubJYjogFmE6yG9jOgQbYDpY12I6EkNmOrG0VzoynFw6qnJhOi7P\r\nVjrh+Vk6GstYOmTTYDrsdFc6PKVYOjOcXDo+qVQ6EAhYOvRXVzr8hVM6Dw5WOs+GVjrbaVQ6woBP\r\nOsEdUzroHFU6VudLOuHRVzrU8VI6fntSOhPXTjpuEk06BAlPOsQeSDp8PEk6TOVCOmK1SjraIks6\r\nfOxBOki1RDrqfE06285HOp8LQTradkQ6KYdBOvxlPzohoTs6Qrs6Ony1Pzos7y86BNoiOlrKCTr9\r\nBg860iFcOjxOOzpT1hY6BnAQOv7bqzpFGJ46TAgpOj4iMjo0mzI6J4yIOhvaVjoOuKY6CqCAOjhG\r\ngjpw1VA6BkRdOiUGVzpSrFQ6DUVIOjZzSTr4qkU6lR1VOn/bSTokiD06zXk9OiNwQzriWkA6GE43\r\nOtS6RDq7SUs6KndDOqZ6NzrxKkE6kCA/Ou47OzqCtT86ik9OOlOxPzqx/Ds6yA88Oiu8OzoZ9T46\r\nSvI6OsS8PDp+4jk6a8M3Om6qODq4Ijo60GA3OpDYNzroVzY6GnU0Oq6wMToU3DU6nvE6OnhsOTqQ\r\n7TQ6SlYwOqp4OTrCIzg6fIo2OtkrMDq/9jw6DAUuOjZSODoLPio6qAc4OlC2LDpz/DI6gPwvOj+7\r\nLzq85DU68sE3OobeNjqG+jM6CDAsOoQhNDqx1ik6mQEsOjYgLDoBIC06GPUyOiwZNToVczA6Dusx\r\nOpTkLzrCuCo63LMoOl5hKTqyhyw6tkcsOtbiKDpbRCY6LKcvOlDYJzqP1yk6JuwoOsIfLDqf5SU6\r\n+1AoOoEXJzqdHy46AgonOos+LDoq0yw6i5wnOit6JDqJqik6I4ImOu6oLTr71iI6/5cvOmC+Izo3\r\nnCg6NFYkOj5SLTocGic6EVAhOpBrIzqk6SI6BvkjOsccJTo2TCk61/0iOqeiHTrBliI61gQmOsTL\r\nJjo7fiU6MZIdOr34HjroJSI6k18nOquBITo0vB46jTwgOnL2IDq9RiU6NiIfOlRRITrR1iI65G4e\r\nOpcjHzonNhw6wjcdOrZ+IDp75SQ6LkQdOiDCHjrVniE6QtIbOvS2Ijp+fRg6Tv8mOjzjHDp5Exg6\r\nrggeOpiAGjqjWh06+w0fOu68IDpzKho6PsYfOn9FGTqygRs6Ro8hOihGFzq1LhM6aX0aOrUKGjom\r\n1xU608gUOvTrGTqKRBc6zKoSOqIOGjqjYiA6figcOlqKEzp1ERU6s7gZOgJuFDqOxxc6uSIVOnRt\r\nFjpbeRo6INMZOs4IFzqudBY6zfwROoZ8Izo3sRw6XRsUOs+nGTrpARQ6OJwUOpPvGTrgWRo6KigS\r\nOoD5Fzo09RI6IzAVOrniFjovthE62rUQOpKFFzoqGRM6daAWOieNEDrpsg06JGwROk85Ezp0Sw06\r\ngTwSOnbXFDp90Bg6ZwcXOsTnDzqNixY6hu8TOkzWDTr0RBM6R8YSOg0AEjpWlhQ6igIUOq8lGDpw\r\ndxA6wDcTOgGKFDpBBhE6rKsUOgrJCzo3sA866XQSOvbxFDoXoBQ6x3MSOq7+EDpzZAo6Lr4LOmWq\r\nDzoeuRI67RQQOpGMCzrZrxA6QCwROjsjCTpvrxA6QfsSOt0lEzoYVg46QhwTOpJmDjpRWA06/8gJ\r\nOkIWFDobiBE6wCAUOuydDzoPkhE6IQcPOhxcCzrEOA06S3wQOhpWDzrNFQo61I4MOloACjqd/gw6\r\nVhIROs/gCjoQOwc6LtQOOvDLEDqtsQo6NZcHOlbhDzp8GRE60W0OOtUMDDp32wY68YELOiF5ETp6\r\n/g06S6MOOhQfDzooRA06r/sQOt8WBjrP1gw6hdQIOgbqCDqAMQ86DCULOpVoDDqEbAY6sA0OOvVf\r\nDDofzBE6rrYKOlCjEDpNhhM6unUNOpZ5Djr+BQ06rZoOOhnECTpLAAs67VoIOksuCjoyYgw6olEI\r\nOgOwBTpBsgs632QLOl9tCjpGUQU6KAoKOrNeCjoQLgU6bR8LOtY7Dzp70A86ZvMHOkiqCDo3+Aw6\r\nO04LOuhsCDptEAY67BIQOrKOCzrYKQs60aYJOl2XCTofJQ86TpYMOrH9Bjqg8g06ITEFOoAJDzoZ\r\nSws6SiIPOjgiCjq8Yww6t5ULOnubBjplRwU66WMCOuodCjrIsAY6cOMDOluYCzqy5Qo6q00LOidB\r\nBjpIIg46BvcFOu8JBDqXFgQ6Hg0DOkLDDjoTagw6fBQJOoEoDDotBAg67ToIOgEiBTpO+gs69fkN\r\nOkceCTq3EQ06kckLOtVoCDoXNAs6nZANOgRzCDovpgo6VWcNOkL/CDqGiAU6wDAKOhCyCTrISPA+\r\nerOLPywQiT70CjI/4AdWP7xE6UHvjp9BIv3HPwFXvz9CFoVAhrQqPyZKM0CBsaw+tlPiPuxHI0CZ\r\nY4pAPtW6PvwbP0Bn/7A/oW0OQGM5P0Co6xdANpWRP9sumkCpqRJA+skBQCSZdj8K0RFAVUQHQC71\r\nbUCw0JpA7hr3P4bdH0ARCZVAjxeBQDXfLEE3uolAPN8LQXj9eEAW5KY/Y/0FQG75gj+Xi01AxqYF\r\nQEneNEAthzBBrKyMQJpY/kBEh9o/Te+CQP6SekAsYDg/TgfmP7jJ8j76XcA/rq89QI1fij+anYc/\r\njbMPQUthxD+sEp8/KE6zQN/QjUDrVZxA2JK5Pw+6pz/C2hQ/++f2P/ZaP0B1pu0+DmeHP02DzD6a\r\n0YI/n89hP8Uqkj9nrIU/jEoDQBMH2EBQPLM/WLgAQESWqz5RWiJA8AlYQMLILT+LQSlBTjzeQZQT\r\nk0EqpLpA5KqdQvE/w0I+jINCihaOQkKKPEOyWYRDx9fVQl64dEK43H9CexaVQ9JBnkEEyrRBI186\r\nQYgui0LBXZ9CqPWGQsp4JEIiAL1BYN0pQtGfBEBym/o+UvJxP/ztdj/43Yo+RM7hPpyNaD6+Yng+\r\nZCM1Pm+xVz76WsM94KYGPrfRdj5mOpQ+Q0JOPphx1j66P6I+SeUQP+La+T44g54+t9EUP2yt0z64\r\naR1AaaGkPgIFLz/MBK4+6m2PP4HOpT8sMo8/ZfCZPyQWMz6rxJE/kKyAPloOrz+8hwY/MxUxP7uJ\r\nVD8yo+FAOLSAQH8TeED4YlA/qkazPlCqOEAX2z5ADJyGQEySOEGuB+NAIAJVQAvGyECkeIpBmcMC\r\nQY/gWEGg0zFBv3VHQWS88kDmC3lA383gQMc0nUF8Nb1A2nvWPztoKkGPaZpA5uCgQLwkMEGUgzZB\r\npQXQQXnQuUHL8ZdBCpi3QaCCm0DJsNVAWMQ9QPS2kD9ymgc/tRADP56YeD7DsydAZoS+PuFRhT6I\r\n2E8+8qwYP30+8z5VNPE9K9ZPPXTupD0GgoM+YpyXPXBPrz37Jfk9/SFCPsgPIz6VLBs+aUB2PSGy\r\ngz7zNUs+y02NPR/sKj6p8uA8goVGPshrXT/jlow/WvqTQCahHkAf659AhcTkQE3l3kAeJvhAxB4w\r\nQNcmBkCUkIg/UOYzQNcE0UAFQtFAXdRSQOexh0DOw9ZAY9wwQYYzPkGRGSRB4WaTQQ8a90EjKGBB\r\neC4WQoDdFkKw/iZC0CwpQp07jkKgFZpB+mcQQj1/70EOUrtA0GKDQdccm0GSrsxBXAeYQAVnk0FL\r\nd0pAkFc1QHieZ0EpV0dC8sqzQc+0nUC1GohBeDalQbmAj0DBzNQ/DRy8P47/ikAWffM/rxHeP9KD\r\n+z904Pc/LkOPPraiLz/+IH0+gu6DPbW2Iz3a6Mc81o+vPYRwNz3wUAk9miioPsDJIT/M+kg+/wLE\r\nPmytTj4AYRU9VYdBPmGk1j5nXGw/ChrdP5SlUkBctPg+unSpPzitgD/jb+c/icYzPzeJAT9hZp4/\r\nqKUyQPFLfkAvUcVAIKKFP2SSQj8SFQ9AyrD9PrdSPD+f2b0+pOf3P4Y/RD9wqJ0/W1qPPwYz4T9Y\r\nNV8/rVSXP+6QnD2Wo5A+Uey3PjnhmD0k1VU+A9YPPjpQNj09KiE+GisiPtmDhz08G4o9RmpfPSZB\r\nij0sMpY+6E+9PneKBT1zbw89tvr/PdqgWT7/aXM+t8I9POlRZjz2S8M8632qPE5CmDy00pE8RJHk\r\nOw7R0TxAtGk8Wp8rPQioujwFCQs8pBbKPGrfBz1VJxY9T6ebPDX9Oj0bfB09uGOvPK8OtjxaDS89\r\nUgZkPE4OETxUvy885MP3OxJulTyAq6o8puENPOt2Jjy1qjI8XiW9O3/6UTv3n987DT6JO8Q91jvt\r\n83Y7IDqiOw6FmDssVoY7/6SEO+rLSDvWbXU7Kbh6O+OcLzvS6EU76j9OO2UARTvQZTk7JbIqO9DT\r\nODvU0DU7is4uO/F9IzuLdiM7RkMrO5WaLDsB2xk7JUEjOzfIJjtvEx47Rb4XO8CuLzsgZB07MmMY\r\nOziPJjtH3hA7eHcVO7TSFjtP2Q87zW0UO6+REDvrJBM7FLMNO7YaAjuqYRE7WEsJO9kECDuZUgk7\r\nEjYDO7GGAjuiygA777sAO3l6ADu0Mv06GDL4Omm09Tp0GfY6tWTsOkxN9DqLcOo60+vlOs507Dqt\r\nL+E6gpjhOt0L5jraGuE6sNbfOiDv2jqU0Nc63DHYOnal4DpBW9c6JSTUOrf+zTo0xNA61yrOOkNT\r\nzTr0Vs46ZQvIOkDfzDr5EcA6+6bFOsw6vzqPL8M60i/BOj7/vDqaWr46EMu7OkrpvDr2hbU6EVK1\r\nOl7btTpv2rc6XHSzOkD+tzq9ILM6Gou0Op6xqzq7a6s68vOwOkYntTpYaq46oKmmOsBZsDqcX6M6\r\ncf6uOsu1qzrh/KQ6kECnOub2oTqsaaM60SWlOl61qjpaZ6Y6+mamOtW0mjoh+p865KOaOjRSmTrk\r\nvZ461VWgOnOCkTr/45E6ENOeOmOGpjptP5s6PHuhOrEhmzo9Ppk6FR6dOvQxmzojLpY64jCXOiZ5\r\nlTqWdZk6VlqXOhtemTq0ZJg6FMCbOqc+nzrKoqI66PqeOsTuqTpKcKA6/UCROriMkjr10Jg6ek+h\r\nOrLAiTpERIE6h2+JOq7KizpuUms6oZqtOlh7vzo0ubM6qdOeOim4pjoaupk6OXCMOqAnbzrsF8I6\r\nwtScOq/ofzoYPVk6+sV0Ohu4kjpMr3g6yIWEOmXkfDrRaoY6cR2DOnVLgzqkBYE6YHyIOgOKfzpS\r\nP3g6FEKBOsfmhDrzlJw6FsR2OmQmnToAO406ZBCROgIkfjraaXk6fgJ3OtiTdzp3zHg67YJ7OpC1\r\najp4F3c6hhF0OsCSfDo3b3E6kpd2OqJgfDo+qW86Ta9tOhgwbToMUG86pLtuOpQqdTpOUm46+l1f\r\nOopMYzr9u2g6JgdWOtCTazqvXmE6KNdrOvhYaTqNqnc65qBROlpSZDpgiTk6R9NBOpJEZDr8m5k6\r\nK2NKOpt4dTrc3pk6Vl47OiyBZDpWBF868BN8OjIYbzoyXGw6ftBoOm+WbToa7m06PYVuOjoLZzrq\r\naWU6yRdiOkggYTpIwGM65sliOiAWYTrIb2M6BBtgOljXYjoSQ2Y6sbRXOjKcXDqqcmE6Ls9WOuH5\r\nWToay1g6ZNNgOux0Vzo8pVg6M5xcOj6pVDoQCFg69FdXOvyFUzoPDlY6z4ZWOttpVDrCgE86wR1T\r\nOugcVTpW50s64dFXOtTxUjp+e1I6E9dOOm4STToECU86xB5IOnw8STpM5UI6YrVKOtoiSzp87EE6\r\nSLVEOup8TTrbzkc6nwtBOtp2RDoph0E6/GU/OiGhOzpCuzo6fLU/OizvLzoE2iI6WsoJOv0GDzrS\r\nIVw6PE47OlPWFjoGcBA6/turOkUYnjpMCCk6PiIyOjSbMjonjIg6G9pWOg64pjoKoIA6OEaCOnDV\r\nUDoGRF06JQZXOlKsVDoNRUg6NnNJOviqRTqVHVU6f9tJOiSIPTrNeT06I3BDOuJaQDoYTjc61LpE\r\nOrtJSzoqd0M6pno3OvEqQTqQID867js7OoK1PzqKT046U7E/OrH8OzrIDzw6K7w7Ohn1PjpK8jo6\r\nxLw8On7iOTprwzc6bqo4OrgiOjrQYDc6kNg3OuhXNjoadTQ6rrAxOhTcNTqe8To6eGw5OpDtNDpK\r\nVjA6qng5OsIjODp8ijY62SswOr/2PDoMBS46NlI4Ogs+KjqoBzg6ULYsOnP8MjqA/C86P7svOrzk\r\nNTrywTc6ht42Oob6MzoIMCw6hCE0OrHWKTqZASw6NiAsOgEgLToY9TI6LBk1OhVzMDoO6zE6lOQv\r\nOsK4Kjrcsyg6XmEpOrKHLDq2Ryw61uIoOltEJjospy86UNgnOo/XKTom7Cg6wh8sOp/lJTr7UCg6\r\ngRcnOp0fLjoCCic6iz4sOirTLDqLnCc6K3okOomqKTojgiY67qgtOvvWIjr/ly86YL4jOjecKDo0\r\nViQ6PlItOhwaJzoRUCE6kGsjOqTpIjoG+SM6xxwlOjZMKTrX/SI6p6IdOsGWIjrWBCY6xMsmOjt+\r\nJToxkh06vfgeOuglIjqTXyc6q4EhOjS8HjqNPCA6cvYgOr1GJTo2Ih86VFEhOtHWIjrkbh46lyMf\r\nOic2HDrCNx06tn4gOnvlJDouRB06IMIeOtWeITpC0hs69LYiOn59GDpO/yY6POMcOnkTGDquCB46\r\nmIAaOqNaHTr7DR867rwgOnMqGjo+xh86f0UZOrKBGzpGjyE6KEYXOrUuEzppfRo6tQoaOibXFTrT\r\nyBQ69OsZOopEFzrMqhI6og4aOqNiIDp+KBw6WooTOnURFTqzuBk6Am4UOo7HFzq5IhU6dG0WOlt5\r\nGjog0xk6zggXOq50FjrN/BE6hnwjOjexHDpdGxQ6z6cZOukBFDo4nBQ6k+8ZOuBZGjoqKBI6gPkX\r\nOjT1EjojMBU6ueIWOi+2ETratRA6koUXOioZEzp1oBY6J40QOumyDTokbBE6TzkTOnRLDTqBPBI6\r\ndtcUOn3QGDpnBxc6xOcPOo2LFjqG7xM6TNYNOvREEzpHxhI6DQASOlaWFDqKAhQ6ryUYOnB3EDrA\r\nNxM6AYoUOkEGETqsqxQ6CskLOjewDzrpdBI69vEUOhegFDrHcxI6rv4QOnNkCjouvgs6ZaoPOh65\r\nEjrtFBA6kYwLOtmvEDpALBE6OyMJOm+vEDpB+xI63SUTOhhWDjpCHBM6kmYOOlFYDTr/yAk6QhYU\r\nOhuIETrAIBQ67J0POg+SETohBw86HFwLOsQ4DTpLfBA6GlYPOs0VCjrUjgw6WgAKOp3+DDpWEhE6\r\nz+AKOhA7Bzou1A468MsQOq2xCjo1lwc6VuEPOnwZETrRbQ461QwMOnfbBjrxgQs6IXkROnr+DTpL\r\now46FB8POihEDTqv+xA63xYGOs/WDDqF1Ag6BuoIOoAxDzoMJQs6lWgMOoRsBjqwDQ469V8MOh/M\r\nETqutgo6UKMQOk2GEzq6dQ06lnkOOv4FDTqtmg46GcQJOksACzrtWgg6Sy4KOjJiDDqiUQg6A7AF\r\nOkGyCzrfZAs6X20KOkZRBTooCgo6s14KOhAuBTptHws61jsPOnvQDzpm8wc6SKoIOjf4DDo7Tgs6\r\n6GwIOm0QBjrsEhA6so4LOtgpCzrRpgk6XZcJOh8lDzpOlgw6sf0GOqDyDTohMQU6gAkPOhlLCzpK\r\nIg86OCIKOrxjDDq3lQs6e5sGOmVHBTrpYwI66h0KOsiwBjpw4wM6W5gLOrLlCjqrTQs6J0EGOkgi\r\nDjoG9wU67wkEOpcWBDoeDQM6QsMOOhNqDDp8FAk6gSgMOi0ECDrtOgg6ASIFOk76Czr1+Q06Rx4J\r\nOrcRDTqRyQs61WgIOhc0CzqdkA06BHMIOi+mCjpVZw06Qv8IOoaIBTrAMAo6ELIJOg==",
                            "noiseTrainingType" : "default"
                          }
                        }
                    ],
                    "start" : 7467,
                    "duration" : 85,
                    "mediaStart" : 6159,
                    "mediaDuration" : 85,
                    "scalar" : 1,
                    "metadata" : {
                      "WinSubProjectDisplayName" : "",
                      "clipSpeedAttribute" : false
                    },
                    "animationTracks" : {

                    }
                  },
                  {
                    "id" : 54,
                    "_type" : "StitchedMedia",
                    "minMediaStart" : 0,
                    "attributes" : {
                      "ident" : "tower-arch-03",
                      "gain" : 1.0,
                      "mixToMono" : false
                    },
                    "parameters" : {
                      "volume" : 1.0,
                      "cursorOpacity" : 1.0,
                      "cursorScale" : 1.0
                    },
                    "medias" : [
                        {
                          "id" : 55,
                          "_type" : "AMFile",
                          "src" : 4,
                          "trackNumber" : 1,
                          "attributes" : {
                            "ident" : "Rec 02-03-20_004",
                            "sampleRate" : 44100,
                            "bitDepth" : 16,
                            "gain" : 1.0,
                            "mixToMono" : false
                          },
                            "channelNumber" : "0,1",
                          "effects" : [

                          ],
                          "start" : 0,
                          "duration" : 1550,
                          "mediaStart" : 0,
                          "mediaDuration" : 1550,
                          "scalar" : 1,
                          "metadata" : {
                            "WinSubProjectDisplayName" : "",
                            "clipSpeedAttribute" : false
                          },
                          "animationTracks" : {

                          }
                        },
                        {
                          "id" : 56,
                          "_type" : "AMFile",
                          "src" : 4,
                          "trackNumber" : 1,
                          "attributes" : {
                            "ident" : "Rec 02-03-20_004",
                            "sampleRate" : 44100,
                            "bitDepth" : 16,
                            "gain" : 1.0,
                            "mixToMono" : false
                          },
                            "channelNumber" : "0,1",
                          "effects" : [

                          ],
                          "start" : 1550,
                          "duration" : 367,
                          "mediaStart" : 1641,
                          "mediaDuration" : 367,
                          "scalar" : 1,
                          "metadata" : {
                            "WinSubProjectDisplayName" : "",
                            "clipSpeedAttribute" : false
                          },
                          "animationTracks" : {

                          }
                        },
                        {
                          "id" : 57,
                          "_type" : "AMFile",
                          "src" : 4,
                          "trackNumber" : 1,
                          "attributes" : {
                            "ident" : "Rec 02-03-20_004",
                            "sampleRate" : 44100,
                            "bitDepth" : 16,
                            "gain" : 1.0,
                            "mixToMono" : false
                          },
                            "channelNumber" : "0,1",
                          "effects" : [

                          ],
                          "start" : 1917,
                          "duration" : 205,
                          "mediaStart" : 2028,
                          "mediaDuration" : 205,
                          "scalar" : 1,
                          "metadata" : {
                            "WinSubProjectDisplayName" : "",
                            "clipSpeedAttribute" : false
                          },
                          "animationTracks" : {

                          }
                        },
                        {
                          "id" : 58,
                          "_type" : "AMFile",
                          "src" : 4,
                          "trackNumber" : 1,
                          "attributes" : {
                            "ident" : "Rec 02-03-20_004",
                            "sampleRate" : 44100,
                            "bitDepth" : 16,
                            "gain" : 1.0,
                            "mixToMono" : false
                          },
                            "channelNumber" : "0,1",
                          "effects" : [

                          ],
                          "start" : 2122,
                          "duration" : 2794,
                          "mediaStart" : 2724,
                          "mediaDuration" : 2794,
                          "scalar" : 1,
                          "metadata" : {
                            "WinSubProjectDisplayName" : "",
                            "clipSpeedAttribute" : false
                          },
                          "animationTracks" : {

                          }
                        },
                        {
                          "id" : 59,
                          "_type" : "AMFile",
                          "src" : 4,
                          "trackNumber" : 1,
                          "attributes" : {
                            "ident" : "Rec 02-03-20_004",
                            "sampleRate" : 44100,
                            "bitDepth" : 16,
                            "gain" : 1.0,
                            "mixToMono" : false
                          },
                            "channelNumber" : "0,1",
                          "effects" : [

                          ],
                          "start" : 4916,
                          "duration" : 177,
                          "mediaStart" : 5626,
                          "mediaDuration" : 177,
                          "scalar" : 1,
                          "metadata" : {
                            "WinSubProjectDisplayName" : "",
                            "clipSpeedAttribute" : false
                          },
                          "animationTracks" : {

                          }
                        },
                        {
                          "id" : 60,
                          "_type" : "AMFile",
                          "src" : 4,
                          "trackNumber" : 1,
                          "attributes" : {
                            "ident" : "Rec 02-03-20_004",
                            "sampleRate" : 44100,
                            "bitDepth" : 16,
                            "gain" : 1.0,
                            "mixToMono" : false
                          },
                            "channelNumber" : "0,1",
                          "effects" : [

                          ],
                          "start" : 5093,
                          "duration" : 60,
                          "mediaStart" : 5877,
                          "mediaDuration" : 60,
                          "scalar" : 1,
                          "metadata" : {
                            "WinSubProjectDisplayName" : "",
                            "clipSpeedAttribute" : false
                          },
                          "animationTracks" : {

                          }
                        },
                        {
                          "id" : 61,
                          "_type" : "AMFile",
                          "src" : 4,
                          "trackNumber" : 1,
                          "attributes" : {
                            "ident" : "Rec 02-03-20_004",
                            "sampleRate" : 44100,
                            "bitDepth" : 16,
                            "gain" : 1.0,
                            "mixToMono" : false
                          },
                            "channelNumber" : "0,1",
                          "effects" : [

                          ],
                          "start" : 5153,
                          "duration" : 289,
                          "mediaStart" : 6009,
                          "mediaDuration" : 289,
                          "scalar" : 1,
                          "metadata" : {
                            "WinSubProjectDisplayName" : "",
                            "clipSpeedAttribute" : false
                          },
                          "animationTracks" : {

                          }
                        },
                        {
                          "id" : 62,
                          "_type" : "AMFile",
                          "src" : 4,
                          "trackNumber" : 1,
                          "attributes" : {
                            "ident" : "Rec 02-03-20_004",
                            "sampleRate" : 44100,
                            "bitDepth" : 16,
                            "gain" : 1.0,
                            "mixToMono" : false
                          },
                            "channelNumber" : "0,1",
                          "effects" : [

                          ],
                          "start" : 5442,
                          "duration" : 1552,
                          "mediaStart" : 6909,
                          "mediaDuration" : 1552,
                          "scalar" : 1,
                          "metadata" : {
                            "WinSubProjectDisplayName" : "",
                            "clipSpeedAttribute" : false
                          },
                          "animationTracks" : {

                          }
                        }
                    ],
                    "effects" : [
                        {
                          "effectName" : "NoiseReduction",
                          "category" : "categoryAudioEffects",
                          "parameters" : {
                            "denoiserAmount" : 20.0,
                            "denoiserThreshold" : 0.0,
                            "noiseProfile" : "yEjwPvqziz8sEIk+9AoyP+AHVj+8ROlB746fQSL9xz8BV78/kBGFQIa0Kj8mSjNAgbGsPrZT4j7s\r\nRyNAmWOKQD7Vuj78Gz9AZ/+wP6FtDkBjOT9AqOsXQDaVkT/bLppAqakSQPrJAUAkmXY/CtERQFVE\r\nB0Au9W1AsNCaQO4a9z+G3R9AEQmVQI8XgUA13yxBN7qJQDzfC0EoBXlAiPOmP2P9BUBu+YI/l4tN\r\nQMamBUBJ3jRALYcwQaysjECaWP5ARIfaP03vgkD+knpALGA4P04H5j9M9/I+Y3TAPwbDPUCNX4o/\r\nmp2HP42zD0FLYcQ/rBKfPyhOs0Df0I1A61WcQNiSuT8Puqc/wtoUP/vn9j/2Wj9AdabtPt5jhz9N\r\ng8w+mtGCP5/PYT/FKpI/Z6yFP4xKA0ATB9hAUDyzP1i4AEBElqs+UVoiQPAJWEDCyC0/i0EpQU48\r\n3kGUE5NBKqS6QOSqnULxP8NCPoyDQooWjkJCijxDslmEQ8fX1UJeuHRCuNx/QnsWlUPSQZ5BBMq0\r\nQSNfOkGILotCwV2fQqj1hkLKeCRCIgC9QWDdKULRnwRAcpv6PlLycT/87XY/+N2KPkTO4T6cjWg+\r\nvmJ4PmQjNT5vsVc++lrDPeCmBj630XY+ZjqUPkRpTj6YcdY+uj+iPknlED/i2vk+OIOePrfRFD9s\r\nrdM+uGkdQGmhpD4CBS8/zASuPuptjz+BzqU/LDKPP2XwmT8kFjM+q8SRP5CsgD5aDq8/vIcGPzMV\r\nMT+7iVQ/MqPhQDi0gEB/E3hA+GJQP6pGsz5QqjhAF9s+QAychkBMkjhBrgfjQCACVUALxshApHiK\r\nQZnDAkGP4FhBoNMxQb91R0FkvPJA5gt5QN/N4EDHNJ1BfDW9QNp71j87aCpBj2maQObgoEC8JDBB\r\nlIM2QaUF0EF50LlBy/GXQQqYt0GggptAybDVQFjEPUD0tpA/cpoHP7UQAz+emHg+w7MnQGaEvj7h\r\nUYU+iNhPPvKsGD99PvM+VTTxPSvWTz107qQ9BoKDPmKclz1wT689+yX5Pf0hQj7IDyM+lSwbPmlA\r\ndj0hsoM+8zVLPstNjT0f7Co+qfLgPIKFRj7Ia10/45aMP1r6k0AmoR5AH+ufQIXE5EBN5d5AHib4\r\nQMQeMEDXJgZAlJCIP1DmM0DXBNFABULRQF3UUkDnsYdAzsPWQGPcMEGGMz5BkRkkQeFmk0EPGvdB\r\nIyhgQXguFkKA3RZCsP4mQtAsKUKdO45CoBWaQfpnEEI9f+9BDlK7QNBig0HXHJtBkq7MQVwHmEAF\r\nZ5NBS3dKQJBXNUB4nmdBKVdHQvLKs0HPtJ1AtRqIQXg2pUG5gI9AwczUPw0cvD+O/4pAFn3zP68R\r\n3j/Sg/s/dOD3Py5Djz62oi8//iB9PoLugz21tiM92ujHPNaPrz2EcDc98FAJPZooqD7AySE/zPpI\r\nPv8CxD5srU4+AGEVPVWHQT5hpNY+Z1xsPwoa3T+UpVJAXLT4Prp0qT84rYA/42/nP4nGMz83iQE/\r\nYWaeP6ilMkDxS35AL1HFQCCihT9kkkI/EhUPQMqw/T63Ujw/n9m9PqTn9z+GP0Q/cKidP1tajz8G\r\nM+E/WDVfP61Ulz/ukJw9lqOQPlHstz454Zg9JNVVPgPWDz46UDY9PSohPhorIj7Zg4c9PBuKPUZq\r\nXz0mQYo9LDKWPuhPvT53igU9c28PPbb6/z3aoFk+/2lzPrfCPTzpUWY89kvDPOt9qjxOQpg8tNKR\r\nPESR5DsO0dE8QLRpPFqfKz0IqLo8BQkLPKQWyjxq3wc9VScWPU+nmzw1/To9G3wdPbhjrzyvDrY8\r\nWg0vPVIGZDxODhE8VL8vPOTD9zsSbpU8gKuqPKbhDTzrdiY8taoyPF4lvTt/+lE795/fOw0+iTvE\r\nPdY77fN2OyA6ojsOhZg7LFaGO/+khDvqy0g71m11Oym4ejvjnC870uhFO+o/TjtlAEU70GU5OyWy\r\nKjvQ0zg71NA1O4rOLjvxfSM7i3YjO0ZDKzuVmiw7AdsZOyVBIzs3yCY7bxMeO0W+FzvAri87IGQd\r\nOzJjGDs4jyY7R94QO3h3FTu00hY7T9kPO81tFDuvkRA76yQTOxSzDTu2GgI7qmERO1hLCTvZBAg7\r\nmVIJOxI2AzuxhgI7osoAO++7ADt5egA7tDL9Ohgy+DpptPU6dBn2OrVk7DpMTfQ6i3DqOtPr5TrO\r\ndOw6rS/hOoKY4TrdC+Y62hrhOrDW3zog79o6lNDXOtwx2Dp2peA6QVvXOiUk1Dq3/s06NMTQOtcq\r\nzjpDU8069FbOOmULyDpA38w6+RHAOvumxTrMOr86jy/DOtIvwTo+/7w6mlq+OhDLuzpK6bw69oW1\r\nOhFStTpe27U6b9q3Olx0szpA/rc6vSCzOhqLtDqesas6u2urOvLzsDpGJ7U6WGquOqCppjrAWbA6\r\nnF+jOnH+rjrLtas64fykOpBApzrm9qE6rGmjOtElpTpetao6WmemOvpmpjrVtJo6IfqfOuSjmjo0\r\nUpk65L2eOtVVoDpzgpE6/+OROhDTnjpjhqY6bT+bOjx7oTqxIZs6PT6ZOhUenTr0MZs6Iy6WOuIw\r\nlzomeZU6lnWZOlZalzobXpk6tGSYOhTAmzqnPp86yqKiOuj6njrE7qk6SnCgOv1AkTq4jJI69dCY\r\nOnpPoTqywIk6RESBOodviTquyos6blJrOqGarTpYe786NLmzOqnTnjopuKY6GrqZOjlwjDqgJ286\r\n7BfCOsLUnDqv6H86GD1ZOvrFdDobuJI6TK94OsiFhDpl5Hw60WqGOnEdgzp1S4M6pAWBOmB8iDoD\r\nin86Uj94OhRCgTrH5oQ685ScOhbEdjpkJp06ADuNOmQQkToCJH462ml5On4CdzrYk3c6d8x4Ou2C\r\nezqQtWo6eBd3OoYRdDrAknw6N29xOpKXdjqiYHw6PqlvOk2vbToYMG06DFBvOqS7bjqUKnU6TlJu\r\nOvpdXzqKTGM6/btoOiYHVjrQk2s6r15hOijXazr4WGk6jap3OuagUTpaUmQ6YIk5OkfTQTqSRGQ6\r\n/JuZOitjSjqbeHU63N6ZOlZeOzosgWQ6VgRfOvATfDoyGG86MlxsOn7QaDpvlm06Gu5tOj2Fbjo6\r\nC2c66mllOskXYjpIIGE6SMBjOubJYjogFmE6yG9jOgQbYDpY12I6EkNmOrG0VzoynFw6qnJhOi7P\r\nVjrh+Vk6GstYOmTTYDrsdFc6PKVYOjOcXDo+qVQ6EAhYOvRXVzr8hVM6Dw5WOs+GVjrbaVQ6woBP\r\nOsEdUzroHFU6VudLOuHRVzrU8VI6fntSOhPXTjpuEk06BAlPOsQeSDp8PEk6TOVCOmK1SjraIks6\r\nfOxBOki1RDrqfE06285HOp8LQTradkQ6KYdBOvxlPzohoTs6Qrs6Ony1Pzos7y86BNoiOlrKCTr9\r\nBg860iFcOjxOOzpT1hY6BnAQOv7bqzpFGJ46TAgpOj4iMjo0mzI6J4yIOhvaVjoOuKY6CqCAOjhG\r\ngjpw1VA6BkRdOiUGVzpSrFQ6DUVIOjZzSTr4qkU6lR1VOn/bSTokiD06zXk9OiNwQzriWkA6GE43\r\nOtS6RDq7SUs6KndDOqZ6NzrxKkE6kCA/Ou47OzqCtT86ik9OOlOxPzqx/Ds6yA88Oiu8OzoZ9T46\r\nSvI6OsS8PDp+4jk6a8M3Om6qODq4Ijo60GA3OpDYNzroVzY6GnU0Oq6wMToU3DU6nvE6OnhsOTqQ\r\n7TQ6SlYwOqp4OTrCIzg6fIo2OtkrMDq/9jw6DAUuOjZSODoLPio6qAc4OlC2LDpz/DI6gPwvOj+7\r\nLzq85DU68sE3OobeNjqG+jM6CDAsOoQhNDqx1ik6mQEsOjYgLDoBIC06GPUyOiwZNToVczA6Dusx\r\nOpTkLzrCuCo63LMoOl5hKTqyhyw6tkcsOtbiKDpbRCY6LKcvOlDYJzqP1yk6JuwoOsIfLDqf5SU6\r\n+1AoOoEXJzqdHy46AgonOos+LDoq0yw6i5wnOit6JDqJqik6I4ImOu6oLTr71iI6/5cvOmC+Izo3\r\nnCg6NFYkOj5SLTocGic6EVAhOpBrIzqk6SI6BvkjOsccJTo2TCk61/0iOqeiHTrBliI61gQmOsTL\r\nJjo7fiU6MZIdOr34HjroJSI6k18nOquBITo0vB46jTwgOnL2IDq9RiU6NiIfOlRRITrR1iI65G4e\r\nOpcjHzonNhw6wjcdOrZ+IDp75SQ6LkQdOiDCHjrVniE6QtIbOvS2Ijp+fRg6Tv8mOjzjHDp5Exg6\r\nrggeOpiAGjqjWh06+w0fOu68IDpzKho6PsYfOn9FGTqygRs6Ro8hOihGFzq1LhM6aX0aOrUKGjom\r\n1xU608gUOvTrGTqKRBc6zKoSOqIOGjqjYiA6figcOlqKEzp1ERU6s7gZOgJuFDqOxxc6uSIVOnRt\r\nFjpbeRo6INMZOs4IFzqudBY6zfwROoZ8Izo3sRw6XRsUOs+nGTrpARQ6OJwUOpPvGTrgWRo6KigS\r\nOoD5Fzo09RI6IzAVOrniFjovthE62rUQOpKFFzoqGRM6daAWOieNEDrpsg06JGwROk85Ezp0Sw06\r\ngTwSOnbXFDp90Bg6ZwcXOsTnDzqNixY6hu8TOkzWDTr0RBM6R8YSOg0AEjpWlhQ6igIUOq8lGDpw\r\ndxA6wDcTOgGKFDpBBhE6rKsUOgrJCzo3sA866XQSOvbxFDoXoBQ6x3MSOq7+EDpzZAo6Lr4LOmWq\r\nDzoeuRI67RQQOpGMCzrZrxA6QCwROjsjCTpvrxA6QfsSOt0lEzoYVg46QhwTOpJmDjpRWA06/8gJ\r\nOkIWFDobiBE6wCAUOuydDzoPkhE6IQcPOhxcCzrEOA06S3wQOhpWDzrNFQo61I4MOloACjqd/gw6\r\nVhIROs/gCjoQOwc6LtQOOvDLEDqtsQo6NZcHOlbhDzp8GRE60W0OOtUMDDp32wY68YELOiF5ETp6\r\n/g06S6MOOhQfDzooRA06r/sQOt8WBjrP1gw6hdQIOgbqCDqAMQ86DCULOpVoDDqEbAY6sA0OOvVf\r\nDDofzBE6rrYKOlCjEDpNhhM6unUNOpZ5Djr+BQ06rZoOOhnECTpLAAs67VoIOksuCjoyYgw6olEI\r\nOgOwBTpBsgs632QLOl9tCjpGUQU6KAoKOrNeCjoQLgU6bR8LOtY7Dzp70A86ZvMHOkiqCDo3+Aw6\r\nO04LOuhsCDptEAY67BIQOrKOCzrYKQs60aYJOl2XCTofJQ86TpYMOrH9Bjqg8g06ITEFOoAJDzoZ\r\nSws6SiIPOjgiCjq8Yww6t5ULOnubBjplRwU66WMCOuodCjrIsAY6cOMDOluYCzqy5Qo6q00LOidB\r\nBjpIIg46BvcFOu8JBDqXFgQ6Hg0DOkLDDjoTagw6fBQJOoEoDDotBAg67ToIOgEiBTpO+gs69fkN\r\nOkceCTq3EQ06kckLOtVoCDoXNAs6nZANOgRzCDovpgo6VWcNOkL/CDqGiAU6wDAKOhCyCTrISPA+\r\nerOLPywQiT70CjI/4AdWP7xE6UHvjp9BIv3HPwFXvz9CFoVAhrQqPyZKM0CBsaw+tlPiPuxHI0CZ\r\nY4pAPtW6PvwbP0Bn/7A/oW0OQGM5P0Co6xdANpWRP9sumkCpqRJA+skBQCSZdj8K0RFAVUQHQC71\r\nbUCw0JpA7hr3P4bdH0ARCZVAjxeBQDXfLEE3uolAPN8LQXj9eEAW5KY/Y/0FQG75gj+Xi01AxqYF\r\nQEneNEAthzBBrKyMQJpY/kBEh9o/Te+CQP6SekAsYDg/TgfmP7jJ8j76XcA/rq89QI1fij+anYc/\r\njbMPQUthxD+sEp8/KE6zQN/QjUDrVZxA2JK5Pw+6pz/C2hQ/++f2P/ZaP0B1pu0+DmeHP02DzD6a\r\n0YI/n89hP8Uqkj9nrIU/jEoDQBMH2EBQPLM/WLgAQESWqz5RWiJA8AlYQMLILT+LQSlBTjzeQZQT\r\nk0EqpLpA5KqdQvE/w0I+jINCihaOQkKKPEOyWYRDx9fVQl64dEK43H9CexaVQ9JBnkEEyrRBI186\r\nQYgui0LBXZ9CqPWGQsp4JEIiAL1BYN0pQtGfBEBym/o+UvJxP/ztdj/43Yo+RM7hPpyNaD6+Yng+\r\nZCM1Pm+xVz76WsM94KYGPrfRdj5mOpQ+Q0JOPphx1j66P6I+SeUQP+La+T44g54+t9EUP2yt0z64\r\naR1AaaGkPgIFLz/MBK4+6m2PP4HOpT8sMo8/ZfCZPyQWMz6rxJE/kKyAPloOrz+8hwY/MxUxP7uJ\r\nVD8yo+FAOLSAQH8TeED4YlA/qkazPlCqOEAX2z5ADJyGQEySOEGuB+NAIAJVQAvGyECkeIpBmcMC\r\nQY/gWEGg0zFBv3VHQWS88kDmC3lA383gQMc0nUF8Nb1A2nvWPztoKkGPaZpA5uCgQLwkMEGUgzZB\r\npQXQQXnQuUHL8ZdBCpi3QaCCm0DJsNVAWMQ9QPS2kD9ymgc/tRADP56YeD7DsydAZoS+PuFRhT6I\r\n2E8+8qwYP30+8z5VNPE9K9ZPPXTupD0GgoM+YpyXPXBPrz37Jfk9/SFCPsgPIz6VLBs+aUB2PSGy\r\ngz7zNUs+y02NPR/sKj6p8uA8goVGPshrXT/jlow/WvqTQCahHkAf659AhcTkQE3l3kAeJvhAxB4w\r\nQNcmBkCUkIg/UOYzQNcE0UAFQtFAXdRSQOexh0DOw9ZAY9wwQYYzPkGRGSRB4WaTQQ8a90EjKGBB\r\neC4WQoDdFkKw/iZC0CwpQp07jkKgFZpB+mcQQj1/70EOUrtA0GKDQdccm0GSrsxBXAeYQAVnk0FL\r\nd0pAkFc1QHieZ0EpV0dC8sqzQc+0nUC1GohBeDalQbmAj0DBzNQ/DRy8P47/ikAWffM/rxHeP9KD\r\n+z904Pc/LkOPPraiLz/+IH0+gu6DPbW2Iz3a6Mc81o+vPYRwNz3wUAk9miioPsDJIT/M+kg+/wLE\r\nPmytTj4AYRU9VYdBPmGk1j5nXGw/ChrdP5SlUkBctPg+unSpPzitgD/jb+c/icYzPzeJAT9hZp4/\r\nqKUyQPFLfkAvUcVAIKKFP2SSQj8SFQ9AyrD9PrdSPD+f2b0+pOf3P4Y/RD9wqJ0/W1qPPwYz4T9Y\r\nNV8/rVSXP+6QnD2Wo5A+Uey3PjnhmD0k1VU+A9YPPjpQNj09KiE+GisiPtmDhz08G4o9RmpfPSZB\r\nij0sMpY+6E+9PneKBT1zbw89tvr/PdqgWT7/aXM+t8I9POlRZjz2S8M8632qPE5CmDy00pE8RJHk\r\nOw7R0TxAtGk8Wp8rPQioujwFCQs8pBbKPGrfBz1VJxY9T6ebPDX9Oj0bfB09uGOvPK8OtjxaDS89\r\nUgZkPE4OETxUvy885MP3OxJulTyAq6o8puENPOt2Jjy1qjI8XiW9O3/6UTv3n987DT6JO8Q91jvt\r\n83Y7IDqiOw6FmDssVoY7/6SEO+rLSDvWbXU7Kbh6O+OcLzvS6EU76j9OO2UARTvQZTk7JbIqO9DT\r\nODvU0DU7is4uO/F9IzuLdiM7RkMrO5WaLDsB2xk7JUEjOzfIJjtvEx47Rb4XO8CuLzsgZB07MmMY\r\nOziPJjtH3hA7eHcVO7TSFjtP2Q87zW0UO6+REDvrJBM7FLMNO7YaAjuqYRE7WEsJO9kECDuZUgk7\r\nEjYDO7GGAjuiygA777sAO3l6ADu0Mv06GDL4Omm09Tp0GfY6tWTsOkxN9DqLcOo60+vlOs507Dqt\r\nL+E6gpjhOt0L5jraGuE6sNbfOiDv2jqU0Nc63DHYOnal4DpBW9c6JSTUOrf+zTo0xNA61yrOOkNT\r\nzTr0Vs46ZQvIOkDfzDr5EcA6+6bFOsw6vzqPL8M60i/BOj7/vDqaWr46EMu7OkrpvDr2hbU6EVK1\r\nOl7btTpv2rc6XHSzOkD+tzq9ILM6Gou0Op6xqzq7a6s68vOwOkYntTpYaq46oKmmOsBZsDqcX6M6\r\ncf6uOsu1qzrh/KQ6kECnOub2oTqsaaM60SWlOl61qjpaZ6Y6+mamOtW0mjoh+p865KOaOjRSmTrk\r\nvZ461VWgOnOCkTr/45E6ENOeOmOGpjptP5s6PHuhOrEhmzo9Ppk6FR6dOvQxmzojLpY64jCXOiZ5\r\nlTqWdZk6VlqXOhtemTq0ZJg6FMCbOqc+nzrKoqI66PqeOsTuqTpKcKA6/UCROriMkjr10Jg6ek+h\r\nOrLAiTpERIE6h2+JOq7KizpuUms6oZqtOlh7vzo0ubM6qdOeOim4pjoaupk6OXCMOqAnbzrsF8I6\r\nwtScOq/ofzoYPVk6+sV0Ohu4kjpMr3g6yIWEOmXkfDrRaoY6cR2DOnVLgzqkBYE6YHyIOgOKfzpS\r\nP3g6FEKBOsfmhDrzlJw6FsR2OmQmnToAO406ZBCROgIkfjraaXk6fgJ3OtiTdzp3zHg67YJ7OpC1\r\najp4F3c6hhF0OsCSfDo3b3E6kpd2OqJgfDo+qW86Ta9tOhgwbToMUG86pLtuOpQqdTpOUm46+l1f\r\nOopMYzr9u2g6JgdWOtCTazqvXmE6KNdrOvhYaTqNqnc65qBROlpSZDpgiTk6R9NBOpJEZDr8m5k6\r\nK2NKOpt4dTrc3pk6Vl47OiyBZDpWBF868BN8OjIYbzoyXGw6ftBoOm+WbToa7m06PYVuOjoLZzrq\r\naWU6yRdiOkggYTpIwGM65sliOiAWYTrIb2M6BBtgOljXYjoSQ2Y6sbRXOjKcXDqqcmE6Ls9WOuH5\r\nWToay1g6ZNNgOux0Vzo8pVg6M5xcOj6pVDoQCFg69FdXOvyFUzoPDlY6z4ZWOttpVDrCgE86wR1T\r\nOugcVTpW50s64dFXOtTxUjp+e1I6E9dOOm4STToECU86xB5IOnw8STpM5UI6YrVKOtoiSzp87EE6\r\nSLVEOup8TTrbzkc6nwtBOtp2RDoph0E6/GU/OiGhOzpCuzo6fLU/OizvLzoE2iI6WsoJOv0GDzrS\r\nIVw6PE47OlPWFjoGcBA6/turOkUYnjpMCCk6PiIyOjSbMjonjIg6G9pWOg64pjoKoIA6OEaCOnDV\r\nUDoGRF06JQZXOlKsVDoNRUg6NnNJOviqRTqVHVU6f9tJOiSIPTrNeT06I3BDOuJaQDoYTjc61LpE\r\nOrtJSzoqd0M6pno3OvEqQTqQID867js7OoK1PzqKT046U7E/OrH8OzrIDzw6K7w7Ohn1PjpK8jo6\r\nxLw8On7iOTprwzc6bqo4OrgiOjrQYDc6kNg3OuhXNjoadTQ6rrAxOhTcNTqe8To6eGw5OpDtNDpK\r\nVjA6qng5OsIjODp8ijY62SswOr/2PDoMBS46NlI4Ogs+KjqoBzg6ULYsOnP8MjqA/C86P7svOrzk\r\nNTrywTc6ht42Oob6MzoIMCw6hCE0OrHWKTqZASw6NiAsOgEgLToY9TI6LBk1OhVzMDoO6zE6lOQv\r\nOsK4Kjrcsyg6XmEpOrKHLDq2Ryw61uIoOltEJjospy86UNgnOo/XKTom7Cg6wh8sOp/lJTr7UCg6\r\ngRcnOp0fLjoCCic6iz4sOirTLDqLnCc6K3okOomqKTojgiY67qgtOvvWIjr/ly86YL4jOjecKDo0\r\nViQ6PlItOhwaJzoRUCE6kGsjOqTpIjoG+SM6xxwlOjZMKTrX/SI6p6IdOsGWIjrWBCY6xMsmOjt+\r\nJToxkh06vfgeOuglIjqTXyc6q4EhOjS8HjqNPCA6cvYgOr1GJTo2Ih86VFEhOtHWIjrkbh46lyMf\r\nOic2HDrCNx06tn4gOnvlJDouRB06IMIeOtWeITpC0hs69LYiOn59GDpO/yY6POMcOnkTGDquCB46\r\nmIAaOqNaHTr7DR867rwgOnMqGjo+xh86f0UZOrKBGzpGjyE6KEYXOrUuEzppfRo6tQoaOibXFTrT\r\nyBQ69OsZOopEFzrMqhI6og4aOqNiIDp+KBw6WooTOnURFTqzuBk6Am4UOo7HFzq5IhU6dG0WOlt5\r\nGjog0xk6zggXOq50FjrN/BE6hnwjOjexHDpdGxQ6z6cZOukBFDo4nBQ6k+8ZOuBZGjoqKBI6gPkX\r\nOjT1EjojMBU6ueIWOi+2ETratRA6koUXOioZEzp1oBY6J40QOumyDTokbBE6TzkTOnRLDTqBPBI6\r\ndtcUOn3QGDpnBxc6xOcPOo2LFjqG7xM6TNYNOvREEzpHxhI6DQASOlaWFDqKAhQ6ryUYOnB3EDrA\r\nNxM6AYoUOkEGETqsqxQ6CskLOjewDzrpdBI69vEUOhegFDrHcxI6rv4QOnNkCjouvgs6ZaoPOh65\r\nEjrtFBA6kYwLOtmvEDpALBE6OyMJOm+vEDpB+xI63SUTOhhWDjpCHBM6kmYOOlFYDTr/yAk6QhYU\r\nOhuIETrAIBQ67J0POg+SETohBw86HFwLOsQ4DTpLfBA6GlYPOs0VCjrUjgw6WgAKOp3+DDpWEhE6\r\nz+AKOhA7Bzou1A468MsQOq2xCjo1lwc6VuEPOnwZETrRbQ461QwMOnfbBjrxgQs6IXkROnr+DTpL\r\now46FB8POihEDTqv+xA63xYGOs/WDDqF1Ag6BuoIOoAxDzoMJQs6lWgMOoRsBjqwDQ469V8MOh/M\r\nETqutgo6UKMQOk2GEzq6dQ06lnkOOv4FDTqtmg46GcQJOksACzrtWgg6Sy4KOjJiDDqiUQg6A7AF\r\nOkGyCzrfZAs6X20KOkZRBTooCgo6s14KOhAuBTptHws61jsPOnvQDzpm8wc6SKoIOjf4DDo7Tgs6\r\n6GwIOm0QBjrsEhA6so4LOtgpCzrRpgk6XZcJOh8lDzpOlgw6sf0GOqDyDTohMQU6gAkPOhlLCzpK\r\nIg86OCIKOrxjDDq3lQs6e5sGOmVHBTrpYwI66h0KOsiwBjpw4wM6W5gLOrLlCjqrTQs6J0EGOkgi\r\nDjoG9wU67wkEOpcWBDoeDQM6QsMOOhNqDDp8FAk6gSgMOi0ECDrtOgg6ASIFOk76Czr1+Q06Rx4J\r\nOrcRDTqRyQs61WgIOhc0CzqdkA06BHMIOi+mCjpVZw06Qv8IOoaIBTrAMAo6ELIJOg==",
                            "noiseTrainingType" : "default"
                          }
                        }
                    ],
                    "start" : 7552,
                    "duration" : 49,
                    "mediaStart" : 5969,
                    "mediaDuration" : 49,
                    "scalar" : 1,
                    "metadata" : {
                      "WinSubProjectDisplayName" : "",
                      "clipSpeedAttribute" : false
                    },
                    "animationTracks" : {

                    }
                  },
                  {
                    "id" : 63,
                    "_type" : "StitchedMedia",
                    "minMediaStart" : 0,
                    "attributes" : {
                      "ident" : "tower-arch-03",
                      "gain" : 1.0,
                      "mixToMono" : false
                    },
                    "parameters" : {
                      "volume" : 1.0,
                      "cursorOpacity" : 1.0,
                      "cursorScale" : 1.0
                    },
                    "medias" : [
                        {
                          "id" : 64,
                          "_type" : "AMFile",
                          "src" : 4,
                          "trackNumber" : 1,
                          "attributes" : {
                            "ident" : "Rec 02-03-20_004",
                            "sampleRate" : 44100,
                            "bitDepth" : 16,
                            "gain" : 1.0,
                            "mixToMono" : false
                          },
                            "channelNumber" : "0,1",
                          "effects" : [

                          ],
                          "start" : 0,
                          "duration" : 1550,
                          "mediaStart" : 0,
                          "mediaDuration" : 1550,
                          "scalar" : 1,
                          "metadata" : {
                            "WinSubProjectDisplayName" : "",
                            "clipSpeedAttribute" : false
                          },
                          "animationTracks" : {

                          }
                        },
                        {
                          "id" : 65,
                          "_type" : "AMFile",
                          "src" : 4,
                          "trackNumber" : 1,
                          "attributes" : {
                            "ident" : "Rec 02-03-20_004",
                            "sampleRate" : 44100,
                            "bitDepth" : 16,
                            "gain" : 1.0,
                            "mixToMono" : false
                          },
                            "channelNumber" : "0,1",
                          "effects" : [

                          ],
                          "start" : 1550,
                          "duration" : 367,
                          "mediaStart" : 1641,
                          "mediaDuration" : 367,
                          "scalar" : 1,
                          "metadata" : {
                            "WinSubProjectDisplayName" : "",
                            "clipSpeedAttribute" : false
                          },
                          "animationTracks" : {

                          }
                        },
                        {
                          "id" : 66,
                          "_type" : "AMFile",
                          "src" : 4,
                          "trackNumber" : 1,
                          "attributes" : {
                            "ident" : "Rec 02-03-20_004",
                            "sampleRate" : 44100,
                            "bitDepth" : 16,
                            "gain" : 1.0,
                            "mixToMono" : false
                          },
                            "channelNumber" : "0,1",
                          "effects" : [

                          ],
                          "start" : 1917,
                          "duration" : 205,
                          "mediaStart" : 2028,
                          "mediaDuration" : 205,
                          "scalar" : 1,
                          "metadata" : {
                            "WinSubProjectDisplayName" : "",
                            "clipSpeedAttribute" : false
                          },
                          "animationTracks" : {

                          }
                        },
                        {
                          "id" : 67,
                          "_type" : "AMFile",
                          "src" : 4,
                          "trackNumber" : 1,
                          "attributes" : {
                            "ident" : "Rec 02-03-20_004",
                            "sampleRate" : 44100,
                            "bitDepth" : 16,
                            "gain" : 1.0,
                            "mixToMono" : false
                          },
                            "channelNumber" : "0,1",
                          "effects" : [

                          ],
                          "start" : 2122,
                          "duration" : 2794,
                          "mediaStart" : 2724,
                          "mediaDuration" : 2794,
                          "scalar" : 1,
                          "metadata" : {
                            "WinSubProjectDisplayName" : "",
                            "clipSpeedAttribute" : false
                          },
                          "animationTracks" : {

                          }
                        },
                        {
                          "id" : 68,
                          "_type" : "AMFile",
                          "src" : 4,
                          "trackNumber" : 1,
                          "attributes" : {
                            "ident" : "Rec 02-03-20_004",
                            "sampleRate" : 44100,
                            "bitDepth" : 16,
                            "gain" : 1.0,
                            "mixToMono" : false
                          },
                            "channelNumber" : "0,1",
                          "effects" : [

                          ],
                          "start" : 4916,
                          "duration" : 177,
                          "mediaStart" : 5626,
                          "mediaDuration" : 177,
                          "scalar" : 1,
                          "metadata" : {
                            "WinSubProjectDisplayName" : "",
                            "clipSpeedAttribute" : false
                          },
                          "animationTracks" : {

                          }
                        },
                        {
                          "id" : 69,
                          "_type" : "AMFile",
                          "src" : 4,
                          "trackNumber" : 1,
                          "attributes" : {
                            "ident" : "Rec 02-03-20_004",
                            "sampleRate" : 44100,
                            "bitDepth" : 16,
                            "gain" : 1.0,
                            "mixToMono" : false
                          },
                            "channelNumber" : "0,1",
                          "effects" : [

                          ],
                          "start" : 5093,
                          "duration" : 60,
                          "mediaStart" : 5877,
                          "mediaDuration" : 60,
                          "scalar" : 1,
                          "metadata" : {
                            "WinSubProjectDisplayName" : "",
                            "clipSpeedAttribute" : false
                          },
                          "animationTracks" : {

                          }
                        },
                        {
                          "id" : 70,
                          "_type" : "AMFile",
                          "src" : 4,
                          "trackNumber" : 1,
                          "attributes" : {
                            "ident" : "Rec 02-03-20_004",
                            "sampleRate" : 44100,
                            "bitDepth" : 16,
                            "gain" : 1.0,
                            "mixToMono" : false
                          },
                            "channelNumber" : "0,1",
                          "effects" : [

                          ],
                          "start" : 5153,
                          "duration" : 289,
                          "mediaStart" : 6009,
                          "mediaDuration" : 289,
                          "scalar" : 1,
                          "metadata" : {
                            "WinSubProjectDisplayName" : "",
                            "clipSpeedAttribute" : false
                          },
                          "animationTracks" : {

                          }
                        },
                        {
                          "id" : 71,
                          "_type" : "AMFile",
                          "src" : 4,
                          "trackNumber" : 1,
                          "attributes" : {
                            "ident" : "Rec 02-03-20_004",
                            "sampleRate" : 44100,
                            "bitDepth" : 16,
                            "gain" : 1.0,
                            "mixToMono" : false
                          },
                            "channelNumber" : "0,1",
                          "effects" : [

                          ],
                          "start" : 5442,
                          "duration" : 1552,
                          "mediaStart" : 6909,
                          "mediaDuration" : 1552,
                          "scalar" : 1,
                          "metadata" : {
                            "WinSubProjectDisplayName" : "",
                            "clipSpeedAttribute" : false
                          },
                          "animationTracks" : {

                          }
                        }
                    ],
                    "effects" : [
                        {
                          "effectName" : "NoiseReduction",
                          "category" : "categoryAudioEffects",
                          "parameters" : {
                            "denoiserAmount" : 20.0,
                            "denoiserThreshold" : 0.0,
                            "noiseProfile" : "yEjwPvqziz8sEIk+9AoyP+AHVj+8ROlB746fQSL9xz8BV78/kBGFQIa0Kj8mSjNAgbGsPrZT4j7s\r\nRyNAmWOKQD7Vuj78Gz9AZ/+wP6FtDkBjOT9AqOsXQDaVkT/bLppAqakSQPrJAUAkmXY/CtERQFVE\r\nB0Au9W1AsNCaQO4a9z+G3R9AEQmVQI8XgUA13yxBN7qJQDzfC0EoBXlAiPOmP2P9BUBu+YI/l4tN\r\nQMamBUBJ3jRALYcwQaysjECaWP5ARIfaP03vgkD+knpALGA4P04H5j9M9/I+Y3TAPwbDPUCNX4o/\r\nmp2HP42zD0FLYcQ/rBKfPyhOs0Df0I1A61WcQNiSuT8Puqc/wtoUP/vn9j/2Wj9AdabtPt5jhz9N\r\ng8w+mtGCP5/PYT/FKpI/Z6yFP4xKA0ATB9hAUDyzP1i4AEBElqs+UVoiQPAJWEDCyC0/i0EpQU48\r\n3kGUE5NBKqS6QOSqnULxP8NCPoyDQooWjkJCijxDslmEQ8fX1UJeuHRCuNx/QnsWlUPSQZ5BBMq0\r\nQSNfOkGILotCwV2fQqj1hkLKeCRCIgC9QWDdKULRnwRAcpv6PlLycT/87XY/+N2KPkTO4T6cjWg+\r\nvmJ4PmQjNT5vsVc++lrDPeCmBj630XY+ZjqUPkRpTj6YcdY+uj+iPknlED/i2vk+OIOePrfRFD9s\r\nrdM+uGkdQGmhpD4CBS8/zASuPuptjz+BzqU/LDKPP2XwmT8kFjM+q8SRP5CsgD5aDq8/vIcGPzMV\r\nMT+7iVQ/MqPhQDi0gEB/E3hA+GJQP6pGsz5QqjhAF9s+QAychkBMkjhBrgfjQCACVUALxshApHiK\r\nQZnDAkGP4FhBoNMxQb91R0FkvPJA5gt5QN/N4EDHNJ1BfDW9QNp71j87aCpBj2maQObgoEC8JDBB\r\nlIM2QaUF0EF50LlBy/GXQQqYt0GggptAybDVQFjEPUD0tpA/cpoHP7UQAz+emHg+w7MnQGaEvj7h\r\nUYU+iNhPPvKsGD99PvM+VTTxPSvWTz107qQ9BoKDPmKclz1wT689+yX5Pf0hQj7IDyM+lSwbPmlA\r\ndj0hsoM+8zVLPstNjT0f7Co+qfLgPIKFRj7Ia10/45aMP1r6k0AmoR5AH+ufQIXE5EBN5d5AHib4\r\nQMQeMEDXJgZAlJCIP1DmM0DXBNFABULRQF3UUkDnsYdAzsPWQGPcMEGGMz5BkRkkQeFmk0EPGvdB\r\nIyhgQXguFkKA3RZCsP4mQtAsKUKdO45CoBWaQfpnEEI9f+9BDlK7QNBig0HXHJtBkq7MQVwHmEAF\r\nZ5NBS3dKQJBXNUB4nmdBKVdHQvLKs0HPtJ1AtRqIQXg2pUG5gI9AwczUPw0cvD+O/4pAFn3zP68R\r\n3j/Sg/s/dOD3Py5Djz62oi8//iB9PoLugz21tiM92ujHPNaPrz2EcDc98FAJPZooqD7AySE/zPpI\r\nPv8CxD5srU4+AGEVPVWHQT5hpNY+Z1xsPwoa3T+UpVJAXLT4Prp0qT84rYA/42/nP4nGMz83iQE/\r\nYWaeP6ilMkDxS35AL1HFQCCihT9kkkI/EhUPQMqw/T63Ujw/n9m9PqTn9z+GP0Q/cKidP1tajz8G\r\nM+E/WDVfP61Ulz/ukJw9lqOQPlHstz454Zg9JNVVPgPWDz46UDY9PSohPhorIj7Zg4c9PBuKPUZq\r\nXz0mQYo9LDKWPuhPvT53igU9c28PPbb6/z3aoFk+/2lzPrfCPTzpUWY89kvDPOt9qjxOQpg8tNKR\r\nPESR5DsO0dE8QLRpPFqfKz0IqLo8BQkLPKQWyjxq3wc9VScWPU+nmzw1/To9G3wdPbhjrzyvDrY8\r\nWg0vPVIGZDxODhE8VL8vPOTD9zsSbpU8gKuqPKbhDTzrdiY8taoyPF4lvTt/+lE795/fOw0+iTvE\r\nPdY77fN2OyA6ojsOhZg7LFaGO/+khDvqy0g71m11Oym4ejvjnC870uhFO+o/TjtlAEU70GU5OyWy\r\nKjvQ0zg71NA1O4rOLjvxfSM7i3YjO0ZDKzuVmiw7AdsZOyVBIzs3yCY7bxMeO0W+FzvAri87IGQd\r\nOzJjGDs4jyY7R94QO3h3FTu00hY7T9kPO81tFDuvkRA76yQTOxSzDTu2GgI7qmERO1hLCTvZBAg7\r\nmVIJOxI2AzuxhgI7osoAO++7ADt5egA7tDL9Ohgy+DpptPU6dBn2OrVk7DpMTfQ6i3DqOtPr5TrO\r\ndOw6rS/hOoKY4TrdC+Y62hrhOrDW3zog79o6lNDXOtwx2Dp2peA6QVvXOiUk1Dq3/s06NMTQOtcq\r\nzjpDU8069FbOOmULyDpA38w6+RHAOvumxTrMOr86jy/DOtIvwTo+/7w6mlq+OhDLuzpK6bw69oW1\r\nOhFStTpe27U6b9q3Olx0szpA/rc6vSCzOhqLtDqesas6u2urOvLzsDpGJ7U6WGquOqCppjrAWbA6\r\nnF+jOnH+rjrLtas64fykOpBApzrm9qE6rGmjOtElpTpetao6WmemOvpmpjrVtJo6IfqfOuSjmjo0\r\nUpk65L2eOtVVoDpzgpE6/+OROhDTnjpjhqY6bT+bOjx7oTqxIZs6PT6ZOhUenTr0MZs6Iy6WOuIw\r\nlzomeZU6lnWZOlZalzobXpk6tGSYOhTAmzqnPp86yqKiOuj6njrE7qk6SnCgOv1AkTq4jJI69dCY\r\nOnpPoTqywIk6RESBOodviTquyos6blJrOqGarTpYe786NLmzOqnTnjopuKY6GrqZOjlwjDqgJ286\r\n7BfCOsLUnDqv6H86GD1ZOvrFdDobuJI6TK94OsiFhDpl5Hw60WqGOnEdgzp1S4M6pAWBOmB8iDoD\r\nin86Uj94OhRCgTrH5oQ685ScOhbEdjpkJp06ADuNOmQQkToCJH462ml5On4CdzrYk3c6d8x4Ou2C\r\nezqQtWo6eBd3OoYRdDrAknw6N29xOpKXdjqiYHw6PqlvOk2vbToYMG06DFBvOqS7bjqUKnU6TlJu\r\nOvpdXzqKTGM6/btoOiYHVjrQk2s6r15hOijXazr4WGk6jap3OuagUTpaUmQ6YIk5OkfTQTqSRGQ6\r\n/JuZOitjSjqbeHU63N6ZOlZeOzosgWQ6VgRfOvATfDoyGG86MlxsOn7QaDpvlm06Gu5tOj2Fbjo6\r\nC2c66mllOskXYjpIIGE6SMBjOubJYjogFmE6yG9jOgQbYDpY12I6EkNmOrG0VzoynFw6qnJhOi7P\r\nVjrh+Vk6GstYOmTTYDrsdFc6PKVYOjOcXDo+qVQ6EAhYOvRXVzr8hVM6Dw5WOs+GVjrbaVQ6woBP\r\nOsEdUzroHFU6VudLOuHRVzrU8VI6fntSOhPXTjpuEk06BAlPOsQeSDp8PEk6TOVCOmK1SjraIks6\r\nfOxBOki1RDrqfE06285HOp8LQTradkQ6KYdBOvxlPzohoTs6Qrs6Ony1Pzos7y86BNoiOlrKCTr9\r\nBg860iFcOjxOOzpT1hY6BnAQOv7bqzpFGJ46TAgpOj4iMjo0mzI6J4yIOhvaVjoOuKY6CqCAOjhG\r\ngjpw1VA6BkRdOiUGVzpSrFQ6DUVIOjZzSTr4qkU6lR1VOn/bSTokiD06zXk9OiNwQzriWkA6GE43\r\nOtS6RDq7SUs6KndDOqZ6NzrxKkE6kCA/Ou47OzqCtT86ik9OOlOxPzqx/Ds6yA88Oiu8OzoZ9T46\r\nSvI6OsS8PDp+4jk6a8M3Om6qODq4Ijo60GA3OpDYNzroVzY6GnU0Oq6wMToU3DU6nvE6OnhsOTqQ\r\n7TQ6SlYwOqp4OTrCIzg6fIo2OtkrMDq/9jw6DAUuOjZSODoLPio6qAc4OlC2LDpz/DI6gPwvOj+7\r\nLzq85DU68sE3OobeNjqG+jM6CDAsOoQhNDqx1ik6mQEsOjYgLDoBIC06GPUyOiwZNToVczA6Dusx\r\nOpTkLzrCuCo63LMoOl5hKTqyhyw6tkcsOtbiKDpbRCY6LKcvOlDYJzqP1yk6JuwoOsIfLDqf5SU6\r\n+1AoOoEXJzqdHy46AgonOos+LDoq0yw6i5wnOit6JDqJqik6I4ImOu6oLTr71iI6/5cvOmC+Izo3\r\nnCg6NFYkOj5SLTocGic6EVAhOpBrIzqk6SI6BvkjOsccJTo2TCk61/0iOqeiHTrBliI61gQmOsTL\r\nJjo7fiU6MZIdOr34HjroJSI6k18nOquBITo0vB46jTwgOnL2IDq9RiU6NiIfOlRRITrR1iI65G4e\r\nOpcjHzonNhw6wjcdOrZ+IDp75SQ6LkQdOiDCHjrVniE6QtIbOvS2Ijp+fRg6Tv8mOjzjHDp5Exg6\r\nrggeOpiAGjqjWh06+w0fOu68IDpzKho6PsYfOn9FGTqygRs6Ro8hOihGFzq1LhM6aX0aOrUKGjom\r\n1xU608gUOvTrGTqKRBc6zKoSOqIOGjqjYiA6figcOlqKEzp1ERU6s7gZOgJuFDqOxxc6uSIVOnRt\r\nFjpbeRo6INMZOs4IFzqudBY6zfwROoZ8Izo3sRw6XRsUOs+nGTrpARQ6OJwUOpPvGTrgWRo6KigS\r\nOoD5Fzo09RI6IzAVOrniFjovthE62rUQOpKFFzoqGRM6daAWOieNEDrpsg06JGwROk85Ezp0Sw06\r\ngTwSOnbXFDp90Bg6ZwcXOsTnDzqNixY6hu8TOkzWDTr0RBM6R8YSOg0AEjpWlhQ6igIUOq8lGDpw\r\ndxA6wDcTOgGKFDpBBhE6rKsUOgrJCzo3sA866XQSOvbxFDoXoBQ6x3MSOq7+EDpzZAo6Lr4LOmWq\r\nDzoeuRI67RQQOpGMCzrZrxA6QCwROjsjCTpvrxA6QfsSOt0lEzoYVg46QhwTOpJmDjpRWA06/8gJ\r\nOkIWFDobiBE6wCAUOuydDzoPkhE6IQcPOhxcCzrEOA06S3wQOhpWDzrNFQo61I4MOloACjqd/gw6\r\nVhIROs/gCjoQOwc6LtQOOvDLEDqtsQo6NZcHOlbhDzp8GRE60W0OOtUMDDp32wY68YELOiF5ETp6\r\n/g06S6MOOhQfDzooRA06r/sQOt8WBjrP1gw6hdQIOgbqCDqAMQ86DCULOpVoDDqEbAY6sA0OOvVf\r\nDDofzBE6rrYKOlCjEDpNhhM6unUNOpZ5Djr+BQ06rZoOOhnECTpLAAs67VoIOksuCjoyYgw6olEI\r\nOgOwBTpBsgs632QLOl9tCjpGUQU6KAoKOrNeCjoQLgU6bR8LOtY7Dzp70A86ZvMHOkiqCDo3+Aw6\r\nO04LOuhsCDptEAY67BIQOrKOCzrYKQs60aYJOl2XCTofJQ86TpYMOrH9Bjqg8g06ITEFOoAJDzoZ\r\nSws6SiIPOjgiCjq8Yww6t5ULOnubBjplRwU66WMCOuodCjrIsAY6cOMDOluYCzqy5Qo6q00LOidB\r\nBjpIIg46BvcFOu8JBDqXFgQ6Hg0DOkLDDjoTagw6fBQJOoEoDDotBAg67ToIOgEiBTpO+gs69fkN\r\nOkceCTq3EQ06kckLOtVoCDoXNAs6nZANOgRzCDovpgo6VWcNOkL/CDqGiAU6wDAKOhCyCTrISPA+\r\nerOLPywQiT70CjI/4AdWP7xE6UHvjp9BIv3HPwFXvz9CFoVAhrQqPyZKM0CBsaw+tlPiPuxHI0CZ\r\nY4pAPtW6PvwbP0Bn/7A/oW0OQGM5P0Co6xdANpWRP9sumkCpqRJA+skBQCSZdj8K0RFAVUQHQC71\r\nbUCw0JpA7hr3P4bdH0ARCZVAjxeBQDXfLEE3uolAPN8LQXj9eEAW5KY/Y/0FQG75gj+Xi01AxqYF\r\nQEneNEAthzBBrKyMQJpY/kBEh9o/Te+CQP6SekAsYDg/TgfmP7jJ8j76XcA/rq89QI1fij+anYc/\r\njbMPQUthxD+sEp8/KE6zQN/QjUDrVZxA2JK5Pw+6pz/C2hQ/++f2P/ZaP0B1pu0+DmeHP02DzD6a\r\n0YI/n89hP8Uqkj9nrIU/jEoDQBMH2EBQPLM/WLgAQESWqz5RWiJA8AlYQMLILT+LQSlBTjzeQZQT\r\nk0EqpLpA5KqdQvE/w0I+jINCihaOQkKKPEOyWYRDx9fVQl64dEK43H9CexaVQ9JBnkEEyrRBI186\r\nQYgui0LBXZ9CqPWGQsp4JEIiAL1BYN0pQtGfBEBym/o+UvJxP/ztdj/43Yo+RM7hPpyNaD6+Yng+\r\nZCM1Pm+xVz76WsM94KYGPrfRdj5mOpQ+Q0JOPphx1j66P6I+SeUQP+La+T44g54+t9EUP2yt0z64\r\naR1AaaGkPgIFLz/MBK4+6m2PP4HOpT8sMo8/ZfCZPyQWMz6rxJE/kKyAPloOrz+8hwY/MxUxP7uJ\r\nVD8yo+FAOLSAQH8TeED4YlA/qkazPlCqOEAX2z5ADJyGQEySOEGuB+NAIAJVQAvGyECkeIpBmcMC\r\nQY/gWEGg0zFBv3VHQWS88kDmC3lA383gQMc0nUF8Nb1A2nvWPztoKkGPaZpA5uCgQLwkMEGUgzZB\r\npQXQQXnQuUHL8ZdBCpi3QaCCm0DJsNVAWMQ9QPS2kD9ymgc/tRADP56YeD7DsydAZoS+PuFRhT6I\r\n2E8+8qwYP30+8z5VNPE9K9ZPPXTupD0GgoM+YpyXPXBPrz37Jfk9/SFCPsgPIz6VLBs+aUB2PSGy\r\ngz7zNUs+y02NPR/sKj6p8uA8goVGPshrXT/jlow/WvqTQCahHkAf659AhcTkQE3l3kAeJvhAxB4w\r\nQNcmBkCUkIg/UOYzQNcE0UAFQtFAXdRSQOexh0DOw9ZAY9wwQYYzPkGRGSRB4WaTQQ8a90EjKGBB\r\neC4WQoDdFkKw/iZC0CwpQp07jkKgFZpB+mcQQj1/70EOUrtA0GKDQdccm0GSrsxBXAeYQAVnk0FL\r\nd0pAkFc1QHieZ0EpV0dC8sqzQc+0nUC1GohBeDalQbmAj0DBzNQ/DRy8P47/ikAWffM/rxHeP9KD\r\n+z904Pc/LkOPPraiLz/+IH0+gu6DPbW2Iz3a6Mc81o+vPYRwNz3wUAk9miioPsDJIT/M+kg+/wLE\r\nPmytTj4AYRU9VYdBPmGk1j5nXGw/ChrdP5SlUkBctPg+unSpPzitgD/jb+c/icYzPzeJAT9hZp4/\r\nqKUyQPFLfkAvUcVAIKKFP2SSQj8SFQ9AyrD9PrdSPD+f2b0+pOf3P4Y/RD9wqJ0/W1qPPwYz4T9Y\r\nNV8/rVSXP+6QnD2Wo5A+Uey3PjnhmD0k1VU+A9YPPjpQNj09KiE+GisiPtmDhz08G4o9RmpfPSZB\r\nij0sMpY+6E+9PneKBT1zbw89tvr/PdqgWT7/aXM+t8I9POlRZjz2S8M8632qPE5CmDy00pE8RJHk\r\nOw7R0TxAtGk8Wp8rPQioujwFCQs8pBbKPGrfBz1VJxY9T6ebPDX9Oj0bfB09uGOvPK8OtjxaDS89\r\nUgZkPE4OETxUvy885MP3OxJulTyAq6o8puENPOt2Jjy1qjI8XiW9O3/6UTv3n987DT6JO8Q91jvt\r\n83Y7IDqiOw6FmDssVoY7/6SEO+rLSDvWbXU7Kbh6O+OcLzvS6EU76j9OO2UARTvQZTk7JbIqO9DT\r\nODvU0DU7is4uO/F9IzuLdiM7RkMrO5WaLDsB2xk7JUEjOzfIJjtvEx47Rb4XO8CuLzsgZB07MmMY\r\nOziPJjtH3hA7eHcVO7TSFjtP2Q87zW0UO6+REDvrJBM7FLMNO7YaAjuqYRE7WEsJO9kECDuZUgk7\r\nEjYDO7GGAjuiygA777sAO3l6ADu0Mv06GDL4Omm09Tp0GfY6tWTsOkxN9DqLcOo60+vlOs507Dqt\r\nL+E6gpjhOt0L5jraGuE6sNbfOiDv2jqU0Nc63DHYOnal4DpBW9c6JSTUOrf+zTo0xNA61yrOOkNT\r\nzTr0Vs46ZQvIOkDfzDr5EcA6+6bFOsw6vzqPL8M60i/BOj7/vDqaWr46EMu7OkrpvDr2hbU6EVK1\r\nOl7btTpv2rc6XHSzOkD+tzq9ILM6Gou0Op6xqzq7a6s68vOwOkYntTpYaq46oKmmOsBZsDqcX6M6\r\ncf6uOsu1qzrh/KQ6kECnOub2oTqsaaM60SWlOl61qjpaZ6Y6+mamOtW0mjoh+p865KOaOjRSmTrk\r\nvZ461VWgOnOCkTr/45E6ENOeOmOGpjptP5s6PHuhOrEhmzo9Ppk6FR6dOvQxmzojLpY64jCXOiZ5\r\nlTqWdZk6VlqXOhtemTq0ZJg6FMCbOqc+nzrKoqI66PqeOsTuqTpKcKA6/UCROriMkjr10Jg6ek+h\r\nOrLAiTpERIE6h2+JOq7KizpuUms6oZqtOlh7vzo0ubM6qdOeOim4pjoaupk6OXCMOqAnbzrsF8I6\r\nwtScOq/ofzoYPVk6+sV0Ohu4kjpMr3g6yIWEOmXkfDrRaoY6cR2DOnVLgzqkBYE6YHyIOgOKfzpS\r\nP3g6FEKBOsfmhDrzlJw6FsR2OmQmnToAO406ZBCROgIkfjraaXk6fgJ3OtiTdzp3zHg67YJ7OpC1\r\najp4F3c6hhF0OsCSfDo3b3E6kpd2OqJgfDo+qW86Ta9tOhgwbToMUG86pLtuOpQqdTpOUm46+l1f\r\nOopMYzr9u2g6JgdWOtCTazqvXmE6KNdrOvhYaTqNqnc65qBROlpSZDpgiTk6R9NBOpJEZDr8m5k6\r\nK2NKOpt4dTrc3pk6Vl47OiyBZDpWBF868BN8OjIYbzoyXGw6ftBoOm+WbToa7m06PYVuOjoLZzrq\r\naWU6yRdiOkggYTpIwGM65sliOiAWYTrIb2M6BBtgOljXYjoSQ2Y6sbRXOjKcXDqqcmE6Ls9WOuH5\r\nWToay1g6ZNNgOux0Vzo8pVg6M5xcOj6pVDoQCFg69FdXOvyFUzoPDlY6z4ZWOttpVDrCgE86wR1T\r\nOugcVTpW50s64dFXOtTxUjp+e1I6E9dOOm4STToECU86xB5IOnw8STpM5UI6YrVKOtoiSzp87EE6\r\nSLVEOup8TTrbzkc6nwtBOtp2RDoph0E6/GU/OiGhOzpCuzo6fLU/OizvLzoE2iI6WsoJOv0GDzrS\r\nIVw6PE47OlPWFjoGcBA6/turOkUYnjpMCCk6PiIyOjSbMjonjIg6G9pWOg64pjoKoIA6OEaCOnDV\r\nUDoGRF06JQZXOlKsVDoNRUg6NnNJOviqRTqVHVU6f9tJOiSIPTrNeT06I3BDOuJaQDoYTjc61LpE\r\nOrtJSzoqd0M6pno3OvEqQTqQID867js7OoK1PzqKT046U7E/OrH8OzrIDzw6K7w7Ohn1PjpK8jo6\r\nxLw8On7iOTprwzc6bqo4OrgiOjrQYDc6kNg3OuhXNjoadTQ6rrAxOhTcNTqe8To6eGw5OpDtNDpK\r\nVjA6qng5OsIjODp8ijY62SswOr/2PDoMBS46NlI4Ogs+KjqoBzg6ULYsOnP8MjqA/C86P7svOrzk\r\nNTrywTc6ht42Oob6MzoIMCw6hCE0OrHWKTqZASw6NiAsOgEgLToY9TI6LBk1OhVzMDoO6zE6lOQv\r\nOsK4Kjrcsyg6XmEpOrKHLDq2Ryw61uIoOltEJjospy86UNgnOo/XKTom7Cg6wh8sOp/lJTr7UCg6\r\ngRcnOp0fLjoCCic6iz4sOirTLDqLnCc6K3okOomqKTojgiY67qgtOvvWIjr/ly86YL4jOjecKDo0\r\nViQ6PlItOhwaJzoRUCE6kGsjOqTpIjoG+SM6xxwlOjZMKTrX/SI6p6IdOsGWIjrWBCY6xMsmOjt+\r\nJToxkh06vfgeOuglIjqTXyc6q4EhOjS8HjqNPCA6cvYgOr1GJTo2Ih86VFEhOtHWIjrkbh46lyMf\r\nOic2HDrCNx06tn4gOnvlJDouRB06IMIeOtWeITpC0hs69LYiOn59GDpO/yY6POMcOnkTGDquCB46\r\nmIAaOqNaHTr7DR867rwgOnMqGjo+xh86f0UZOrKBGzpGjyE6KEYXOrUuEzppfRo6tQoaOibXFTrT\r\nyBQ69OsZOopEFzrMqhI6og4aOqNiIDp+KBw6WooTOnURFTqzuBk6Am4UOo7HFzq5IhU6dG0WOlt5\r\nGjog0xk6zggXOq50FjrN/BE6hnwjOjexHDpdGxQ6z6cZOukBFDo4nBQ6k+8ZOuBZGjoqKBI6gPkX\r\nOjT1EjojMBU6ueIWOi+2ETratRA6koUXOioZEzp1oBY6J40QOumyDTokbBE6TzkTOnRLDTqBPBI6\r\ndtcUOn3QGDpnBxc6xOcPOo2LFjqG7xM6TNYNOvREEzpHxhI6DQASOlaWFDqKAhQ6ryUYOnB3EDrA\r\nNxM6AYoUOkEGETqsqxQ6CskLOjewDzrpdBI69vEUOhegFDrHcxI6rv4QOnNkCjouvgs6ZaoPOh65\r\nEjrtFBA6kYwLOtmvEDpALBE6OyMJOm+vEDpB+xI63SUTOhhWDjpCHBM6kmYOOlFYDTr/yAk6QhYU\r\nOhuIETrAIBQ67J0POg+SETohBw86HFwLOsQ4DTpLfBA6GlYPOs0VCjrUjgw6WgAKOp3+DDpWEhE6\r\nz+AKOhA7Bzou1A468MsQOq2xCjo1lwc6VuEPOnwZETrRbQ461QwMOnfbBjrxgQs6IXkROnr+DTpL\r\now46FB8POihEDTqv+xA63xYGOs/WDDqF1Ag6BuoIOoAxDzoMJQs6lWgMOoRsBjqwDQ469V8MOh/M\r\nETqutgo6UKMQOk2GEzq6dQ06lnkOOv4FDTqtmg46GcQJOksACzrtWgg6Sy4KOjJiDDqiUQg6A7AF\r\nOkGyCzrfZAs6X20KOkZRBTooCgo6s14KOhAuBTptHws61jsPOnvQDzpm8wc6SKoIOjf4DDo7Tgs6\r\n6GwIOm0QBjrsEhA6so4LOtgpCzrRpgk6XZcJOh8lDzpOlgw6sf0GOqDyDTohMQU6gAkPOhlLCzpK\r\nIg86OCIKOrxjDDq3lQs6e5sGOmVHBTrpYwI66h0KOsiwBjpw4wM6W5gLOrLlCjqrTQs6J0EGOkgi\r\nDjoG9wU67wkEOpcWBDoeDQM6QsMOOhNqDDp8FAk6gSgMOi0ECDrtOgg6ASIFOk76Czr1+Q06Rx4J\r\nOrcRDTqRyQs61WgIOhc0CzqdkA06BHMIOi+mCjpVZw06Qv8IOoaIBTrAMAo6ELIJOg==",
                            "noiseTrainingType" : "default"
                          }
                        }
                    ],
                    "start" : 7601,
                    "duration" : 747,
                    "mediaStart" : 6232,
                    "mediaDuration" : 747,
                    "scalar" : 1,
                    "metadata" : {
                      "WinSubProjectDisplayName" : "",
                      "clipSpeedAttribute" : false
                    },
                    "animationTracks" : {

                    }
                  },
                  {
                    "id" : 72,
                    "_type" : "StitchedMedia",
                    "minMediaStart" : 0,
                    "attributes" : {
                      "ident" : "tower-arch-04",
                      "gain" : 1.0,
                      "mixToMono" : false
                    },
                    "parameters" : {
                      "volume" : 1.0,
                      "cursorOpacity" : 1.0,
                      "cursorScale" : 1.0
                    },
                    "medias" : [
                        {
                          "id" : 73,
                          "_type" : "AMFile",
                          "src" : 5,
                          "trackNumber" : 1,
                          "attributes" : {
                            "ident" : "Rec 02-03-20_005",
                            "sampleRate" : 44100,
                            "bitDepth" : 16,
                            "gain" : 1.0,
                            "mixToMono" : false
                          },
                            "channelNumber" : "0,1",
                          "effects" : [

                          ],
                          "start" : 0,
                          "duration" : 455,
                          "mediaStart" : 0,
                          "mediaDuration" : 455,
                          "scalar" : 1,
                          "metadata" : {
                            "WinSubProjectDisplayName" : "",
                            "clipSpeedAttribute" : false
                          },
                          "animationTracks" : {

                          }
                        },
                        {
                          "id" : 74,
                          "_type" : "AMFile",
                          "src" : 5,
                          "trackNumber" : 1,
                          "attributes" : {
                            "ident" : "Rec 02-03-20_005",
                            "sampleRate" : 44100,
                            "bitDepth" : 16,
                            "gain" : 1.0,
                            "mixToMono" : false
                          },
                            "channelNumber" : "0,1",
                          "effects" : [

                          ],
                          "start" : 455,
                          "duration" : 26,
                          "mediaStart" : 465,
                          "mediaDuration" : 26,
                          "scalar" : 1,
                          "metadata" : {
                            "WinSubProjectDisplayName" : "",
                            "clipSpeedAttribute" : false
                          },
                          "animationTracks" : {

                          }
                        },
                        {
                          "id" : 75,
                          "_type" : "AMFile",
                          "src" : 5,
                          "trackNumber" : 1,
                          "attributes" : {
                            "ident" : "Rec 02-03-20_005",
                            "sampleRate" : 44100,
                            "bitDepth" : 16,
                            "gain" : 1.0,
                            "mixToMono" : false
                          },
                            "channelNumber" : "0,1",
                          "effects" : [

                          ],
                          "start" : 481,
                          "duration" : 113,
                          "mediaStart" : 505,
                          "mediaDuration" : 113,
                          "scalar" : 1,
                          "metadata" : {
                            "WinSubProjectDisplayName" : "",
                            "clipSpeedAttribute" : false
                          },
                          "animationTracks" : {

                          }
                        },
                        {
                          "id" : 76,
                          "_type" : "AMFile",
                          "src" : 5,
                          "trackNumber" : 1,
                          "attributes" : {
                            "ident" : "Rec 02-03-20_005",
                            "sampleRate" : 44100,
                            "bitDepth" : 16,
                            "gain" : 1.0,
                            "mixToMono" : false
                          },
                            "channelNumber" : "0,1",
                          "effects" : [

                          ],
                          "start" : 594,
                          "duration" : 583,
                          "mediaStart" : 738,
                          "mediaDuration" : 583,
                          "scalar" : 1,
                          "metadata" : {
                            "WinSubProjectDisplayName" : "",
                            "clipSpeedAttribute" : false
                          },
                          "animationTracks" : {

                          }
                        },
                        {
                          "id" : 77,
                          "_type" : "AMFile",
                          "src" : 5,
                          "trackNumber" : 1,
                          "attributes" : {
                            "ident" : "Rec 02-03-20_005",
                            "sampleRate" : 44100,
                            "bitDepth" : 16,
                            "gain" : 1.0,
                            "mixToMono" : false
                          },
                            "channelNumber" : "0,1",
                          "effects" : [

                          ],
                          "start" : 1177,
                          "duration" : 451,
                          "mediaStart" : 1464,
                          "mediaDuration" : 451,
                          "scalar" : 1,
                          "metadata" : {
                            "WinSubProjectDisplayName" : "",
                            "clipSpeedAttribute" : false
                          },
                          "animationTracks" : {

                          }
                        },
                        {
                          "id" : 78,
                          "_type" : "AMFile",
                          "src" : 5,
                          "trackNumber" : 1,
                          "attributes" : {
                            "ident" : "Rec 02-03-20_005",
                            "sampleRate" : 44100,
                            "bitDepth" : 16,
                            "gain" : 1.0,
                            "mixToMono" : false
                          },
                            "channelNumber" : "0,1",
                          "effects" : [

                          ],
                          "start" : 1628,
                          "duration" : 6889,
                          "mediaStart" : 1947,
                          "mediaDuration" : 6889,
                          "scalar" : 1,
                          "metadata" : {
                            "WinSubProjectDisplayName" : "",
                            "clipSpeedAttribute" : false
                          },
                          "animationTracks" : {

                          }
                        }
                    ],
                    "effects" : [
                        {
                          "effectName" : "NoiseReduction",
                          "category" : "categoryAudioEffects",
                          "parameters" : {
                            "denoiserAmount" : 20.0,
                            "denoiserThreshold" : 0.0,
                            "noiseProfile" : "wy93P+yPJkBUPNc+gnV3PoD6Gz8xbytAkbGVP8NEsT881Tg/BFvIP49RsD4GeJc/TGlwPnTfAT8X\r\nS2E/HSptPsgBZz0ND4I99/gmP/5zOT+Sens/SGI4P7sp3j67VfM+8D0dP1SJYT+OkFk/75tpP81/\r\n8T/g3Ys/u3AZQNPJoUCqS5ZAH+vRQKuR1kAHKsg/cyTzQAFE7ECbXSFAOjPNPxlWgEA2dBJAgm6P\r\nQB6m7z9F64ZAOL0NPz4yuz4cgZw+wGx6Ptklkj4WIu0+nC+oPrTLjD5QZaM+3GWHP2DFpz9hHNA+\r\nvBtnPwvAZj+GnLI+haACP9zNMT7+FEY/2PydP70mzz/SnhM/zXdDPzjlWD+MJF9Abg9HQKkCzj/T\r\n1LU/VoXJP4Sypz+XhPc+mK5rP9nnAD/WmTw+QXiAP2O93j6F7BQ+1VYFP8I2+j0hGgY+nqrWPd2a\r\nkD3wraA99WAcPubkiT6+dvY+6KjjPeB+Fz64KQ0+VBwUPnRLFz5mnAI+FEt8PbA1Jz4WNYo9tttb\r\nPczHhT0/GCk9T/+iPQRIqz3JyyI+f803PdihdT2G0rQ9hunaPJGroj2UGKs9s7wKPShlqj28iGU9\r\nx0PwPdITZT6kpSU+2xVlPUg24zwiJ4M9XEmcPZgonj32IME9XY+2PUI/Ej7CVRw+aAcTPUIbwz35\r\nUVI9yERePdZITz1UhtI8GoAtPTqzCj/wUFI+PFehPWDJ0DygThY+n/r6PFxaRD1L7GU98FEtPudM\r\nyD0enDc+TVOpPQ4CHD1jpsw8VKuOPDzm7Dw8wUI9AEKlPDXbvDxB3jI9z3jGPJrMfjxoBsM8WUYM\r\nPdsE7DysNuQ9maNIPbs4ID2LVcs9DhtXPYZYTz2J5wk9EDuIPQrexj2f4eQ8t6ATPdRO9DwtPg89\r\nWN76PPq03TxtZvo85yhYPSQUHD1Dks49RsVLPZTT/TyavjU9VMjAPPF50DxyYOg89EMCPeCRejzS\r\n+yY8VsYyPPXYLz0Sf7085qZRPMhqpDz7AAA8qjrGPM5bij1+Zsc8W9VYPcYoUz0AUME9pJZTPaLR\r\nPz5E2eo8mQwoPaCfTTxxGIU8VOCsPMiGFD6P5oU8HrnpPDsJxTzpFCs8rJskPICdWT3GP/w8QYny\r\nPFQHAD2x10g8pvwXPYnufT2ViHY9aiNhPJmFBj5F0Ho+jL+XPuzuhD7lR0c/B1Q3P0HLOj/W2Bk/\r\nOkrkPpKO9T+H/zFA/lVFPx9DnUCGvr4/A5WYPyqVED6AWYc+MsFEP3pJgDzRBzM/EbW5Pngz4D3Q\r\nSco9ZBf8PfB2sz8qUWY9ob3+P1kZgUCCLm0/DNmhPoiSnj5H1Dk/7GiXPsoyDj7qS1g/gVsfPuuy\r\nAD5EZyE+iX4RPOVVRDyf8AA8UiJDPjY7ND6PlRk8teV3PegE/DzU9ok8KuEWPSlv0TwxpZE8BkgO\r\nPaH/ND1E9Jc8epTiPAjS2D1kP3c9kiVhPI8lJDyTjIc8BSl+PQ8xBD3xkGA8zcgfPB9EojwcBrk7\r\n/5SKOyzFTzwmqDU8DCQXPWQCGzy6wQw8NCYWPATQQTxyuhk9UqWVPENiMTyYnbA73b8SPITfSDuX\r\n3LU7YwgYPDxm1jvcINU7JEeCPNvrRTw+UNw7GnWvO5hQ8Dvelm07tGaaO/kpKj3+OhU9x/MkPNwl\r\n0zsHKJQ7a8ZHPXxseT0j5uo8QHBGPHAFzDzQ5bg7jUq/PLnnnTwhOYo8hKyRPEONnDsSv947891H\r\nO0a5jDvw1no69P6tOsLhuDrQK307QGaBO6irKzvGfP07EMO3OuTe+DnwhL86nxPcOqxnlDpjwC06\r\niz9SObErxTnYjcI5/TS/Oa6AhzlIH/w5aMBgOa9+JDmWe0Q5pvE+Oe4/8ziuA185dSZBOZ0SDTlM\r\nkd44dm4LOQg7Ljn49+g4G7HCOVgGsDgsg8M47undOPMv8TjgO6c4psegOjjahDlM2N84ZbnVOKQX\r\n6Dg68xY5rjnlOG6XzTgguac4VC6zODzBhTgELt04Nn/+OKGZuTglacQ4/7THODc3njiijXk4Pbi+\r\nOHeXjjjGTqE4BgqhOHVsmzj63JU4F9SuOEuDjTgan5w4dfWROAKZjDi3x4w4q3ONOKzekjh9jo04\r\nkAmIOMJDlThSG4s4jU6HODYSlThKdIg4gON7OH13fzia84c4FudxOCiWajjeDIU4wkx+ONcEfjjG\r\nmnI4/oJ6OP2igzgTWII4+SCVOJUHdji/7oA4i/hrOLOVXziWa1w41ONvOLSxTjis5nc4DNVcOPj2\r\ncDhazWQ4yuhuOLvXXTg0F0w4+DlXON1SWTiG7k84xCFdOD7iaDjW7kY4QCxTONZ5VThYGjw4wKVm\r\nOJUSXDgS6zk4dWlNOFVDRDh9+kA4rn1MOMhNWzj8MmI4a0VROL6PUDiZxjU4CihSOJp7TThR/1E4\r\nbHU6OE3hOjjMETw4tTIuOO3eLjhRcyc4jLkxONhMPzg+UCA4CowtOBCiKjjbTzo4+NtEOMc9PjjW\r\n9C44EgJbOF7hMDj/jTU4AoMgOD7PODiCLS84DCVCOIa3PzhVnSI4YH8ZOEgVLjge5TQ4Kp8jOAI7\r\nKjhGfyE4D0kgOFxyKTg2VDE4EoA6OI5TNjiK+SA4RHcgOK8ZGDjLLCk4inogOAn7GDhCBCc4Pnke\r\nOO5CNDgCnCI4LnsgOL9IEThuwhw42G4fOCq5CzjQdRc4Aio1OB8/OzhW5Bk4lsoUOHitFzgAARI4\r\nkrsJOOSiGTjkpCg4mWkqOLQJKzjasTs4DgcoOEyvBjgjVhE4+kkqOG4XLTgiMhI4Uj4hOMpcFjiW\r\nWwk4KBEsOJTSBjgSGxk4dIcIONYTHTjbYx84vwUKOGVWGzhmchU49q8GOKSeGzjMLhg47gvpNw5C\r\n8Dd0XA44EQ/9N//uAjhlgAc4pD79N45RHDgNUv83lN8COFkWFThaXQo42SITOI7i8TdxRhE4okrl\r\nN3Rn9zdNWgQ4gMb8NxWi/Ddusw44zAb4N7xnBDhgXg44ODMVOFRk/zc9Pt83+O8EOPIkDTgyMwY4\r\n2iMHOBo37zeoHgA4lEkUOBBPAjgHcv83mATzN109BTjtI883eHvXN6qfCDgDEvU3XtXXNwwT/zdc\r\nQOI3Cs73N2HGAjhc2e43cDr4N2kt5zdrz9c30Eb+N14Y+jcS7P43llQIOIqn/zcqEdo3zxgBOOAO\r\n+zcSMvc3KM4EOBPC6jfM7gI4flXFN9fN/zcs0OM34ErdN5JW8Dc4d+k3Kt3xN3do1jdrKPk3hXf4\r\nNzxH1jfYdwk4TzPYN+2KAzhKuvI3g+HxN7UTxDd01/U30l/5N7YR1DeaR9s3mAviNzbN2DeChNs3\r\nQTnvN8Qj3DfNSNs3OvDrN47Y5TdGlNA3PbnUN3BW4DevFcc3yDniN1LqBzjgtdg3RtLaN7zKxjfs\r\na88356vSN8mQwzdDIN03PljKN6XHujd6N9k3GHfDN1DjzTdH3fI39qfaN4a1zzeqts03Ja+0N2a4\r\nyjfs/cY3IXQEOH+R3TdjctY3QTPMNy4u1TdGQck3nFDTN0JNzTez+bE3QlbeN2pAyTcYzs83cqK5\r\nN7T6tDeAbOU3BcbON1cS1je6rcU3t9PENyIZ2DdggNo3ZvCzN06kwDcBR8w30ETON8hZzTd2EdE3\r\n9AvENw2vsDd/NdE3ArzYN4eNuTfgTs83PobWN4F8xjdsjL43jODeN2MFsjdoNN03/Cm2N/mr3jfo\r\nmcE3JI62N7cbyzfKje03KceuN4SswjeAgrM3E8fFNzKjzTdsl9E3OSDHN4onvjefJec31qOzN6wN\r\nzDc58ak3u0bAN+BGzje7AL43n4GyN+mXvTdBpsQ3aXCxNzyxwzfcUa03FqLBN9Tq2TfoDrs3aWbA\r\nN9lcojd1mbY3DDKvNyPUsjfYbbU37hebN2xUrzde48U3nOLUN6mu0Tcl7rI3m8GsN84trzciW7A3\r\nfA7UN7Rgzzdfz7U3QkGxN1W3yTfeKJY3VySpN+wRuTdGGaY3ic+kNzj+wjdbhbA3lJC+N8YdpjeE\r\nxMY3baGuN0aukzeMZbY38kCnN1xQqzcnvJg3PpbeN2GDyDfE2pU39JOnN+iqqzeI1Zw3x4+kNz81\r\ntzfcsqQ3rY3ON07RpjfzmKI3MRGzN6YAsTfJwbs39A/ENwT+sTdMCsE30heuN6qqrzfw/aE3tV6s\r\nNxLbtDfEZag355arN1C0ozexeI03f16ON7pspDfUBbw3Ae60NyjfqTe1DMI3Iuu1N6p0tTf3R8o3\r\np46wN5i1sDe4obA3OCOyN0jDnjcvWKY3efakN3bCtjfgFJ83JDfCN//KnDdVB6Y3nKSjNxnN0jfU\r\nNcM3paasN3g+mDcsL683DzG5N8KrsDdqMp03duygN6JqlDer7q83CvevN0K0qzccZ6E3ZqWmNwvJ\r\noTcLvbo3EwGtNxiTuzcr6as3wL6kN4vqhjfp9JM3oEe4N4hIrjcpoZY37OSpNwteqTdIeJE3rJen\r\nN/sBkDe29ZY3qACrN156rzdpKow3PficN1atojfG+po33TGVN+QgmjezH9Y3s0izN/omnjcMP7M3\r\njqKoNw1Ctjcp1Io3xQidN2gKkDeqW5M3cWzAN/aznzdXUpY3c2aZN8bRrzcxE7w359K8N47chzd5\r\nEoE3ktWyN7pxijem3K83bXKBN8CPmDcEX6s3kjKZNwAqnDf4pZ833DyYNxXChDeoUJ43XHGuN5MB\r\nsTex14Q3Wle/N10RjDeQ7p03lUSbNwjalTdzoaY3cAWpN1WrlDeK1qc3vo9/N3DUrDdu5bU39Ryz\r\nN0HXkjdJLoI3vyajN+g3ozf+qZU3GcuMNzCzszcbEqY329WYN6FIbjfLSp03G1+lNz57lzfNnYw3\r\ntDGgN/1HkjePn5I3kYyKNx7+oTd5f4o3J36NN4eEmjcr+rM3d1ujNyX1ujdL0Zc3CbSjNzJcsTc4\r\n1bE39wy4N+E6qjc2GI43hwmNN0EcnTeN8KU3B/+WNwN5tTd8O4U3JHqONxAVuTcVZIg3CregN57j\r\nizd5wKs3P6eVNwOEmDelVrM3UOCbN/cqnzdrspc3CZ+lN8eCpDfjHKM312qSN5jRnDfPWLM3tqCF\r\nN0tKgzfs34U3EMOWN6UQozcLfok3oZyPN0FehDdNrG03C7OlN3V/lzfU4pQ3pQ19N/ZCjzcWd4A3\r\n1BOwN3omozeCXK830g+FN1PLsDdFk5E35qeiN9Q9mTfb4aU3/tKENww5mTfQ04M35d6QNzL9njd/\r\n95Y3QVGZN/v2nTeWSIk3yualN5qkiDd+VXY3hy6WN6XPrDdMu4A3Rl2qN+TFgDcdIp83gz+wN+X0\r\nnDcIxZs3Hr2uNyysfzcGip83sM6MN8S2lTc7VJo36zWHN85PlDdMcak3NFmrN5vBlzeNL4s3Meia\r\nN9hzXDfEpZQ3ZmyuN1TYkDdYk3U3HUinN4/UmzeNhXY36hydN59GnTcN8oI3hvyVNwCikjfDL3c/\r\n7I8mQFQ81z4xXHc+tggcPyJnK0CRsZU/w0SxPzzVOD8TZMg/tYKwPqSGlz9MaXA+dN8BPxdLYT8d\r\nKm0+yAFnPQ0Pgj0l5yY/pDg5P/+Oez8iRjg/5D7ePmY88z60Ph0/9JthP46QWT/vm2k/M4zxP+Dd\r\niz/1YxlAzt2hQKpLlkAf69FAq5HWQAcqyD89IvNAoUvsQJtdIUAdDs0/GVaAQDZ0EkCCbo9AHqbv\r\nP0XrhkCxxA0/PjK7PhyBnD7AbHo+cfKRPhYi7T7ZJ6g+1tCMPlBloz6yYYc//a6nP2Ec0D5EEmc/\r\np6BmP4acsj6FoAI/2r8xPv4URj/Y/J0/vSbPP9KeEz9km0M/OOVYP4wkX0BuD0dAqQLOP4nAtT9W\r\nhck/hLKnP5eE9z6Yrms/2ecAP9aZPD5BeIA/Y73ePuaTFD7VVgU/wjb6PSEaBj6eqtY93ZqQPfCt\r\noD31YBw+5uSJPr529j7oqOM94H4XPrgpDT4qNRQ+dEsXPmacAj4US3w9sDUnPhY1ij2221s9zMeF\r\nPUlOKT1P/6I9BEirPcnLIj5/zTc92KF1PYbStD2G6do8kauiPaR3qz0Umwo9KGWqPRYUZj0Y7O89\r\nQYllPruhJT7bFWU9SDbjPALCgj1cSZw9GrmePfYgwT1dj7Y9wj4SPi53HD40yhI9oQfDPflRUj0K\r\nQ1091khPPbhz0jwagC09OrMKP78kUj48V6E9As/QPKBOFj6f+vo8XFpEPUvsZT3wUS0+I07IPZKX\r\nNz5NU6k9DgIcPWOmzDxUq448PObsPKTAQj0AQqU8Ndu8PKcUMz1i98U8msx+PKOrwjzeMww9a6Xq\r\nPMpi5D2Zo0g9uzggPYtVyz0OG1c9hlhPPYnnCT3gXIg9h7DGPZ/h5Dy3oBM91E70PC0+Dz1Y3vo8\r\n+rTdPDUZ+zznKFg9D9wbPaX2zj2S9ks9lNP9PJq+NT1u48E88XnQPHJg6Dz0QwI94JF6PO44JjxW\r\nxjI89dgvPQhsvTzmplE8MuSkPPsAADyqOsY8zluKPX5mxzxb1Vg9xihTPQBQwT2kllM9otE/PkTZ\r\n6jwP1Sg9yORNPHEYhTxU4Kw8yIYUPo/mhTweuek8OwnFPOkUKzy4lCU8gJ1ZPcY//DxBifI8VAcA\r\nPbHXSDym/Bc9ie59PZWIdj1qI2E8mYUGPkXQej6Mv5c+7O6EPuVHRz8HVDc/Qcs6P9bYGT86SuQ+\r\nko71P4f/MUD+VUU/H0OdQIa+vj8DlZg/KpUQPoBZhz4ywUQ/ekmAPNEHMz8Rtbk+eDPgPdBJyj1k\r\nF/w98HazPypRZj2hvf4/WRmBQIIubT8M2aE+iJKePkfUOT/saJc+yjIOPupLWD+BWx8+67IAPkRn\r\nIT6JfhE85VVEPHrTATxSIkM+Njs0PpUdGjy15Xc96AT8PDnriTwq4RY9KW/RPPzdkTzUXA49GzE1\r\nPSTYlzwyJuE8CNLYPWQ/dz2SJWE8NiwkPJOMhzwFKX49DzEEPfGQYDzmBSA8H0SiPNyguTv/lIo7\r\nLMVPPCaoNTwMJBc9ZAIbPLrBDDw0JhY8DthAPHK6GT0655Q8Q2IxPGpwsTvdvxI8hN9IO4TvtTus\r\nhBc8PGbWO9wg1TskR4I82+tFPLZC2jsada87mFDwO7OdbDu0Zpo7+SkqPf46FT3H8yQ83CXTOwco\r\nlDtrxkc9fGx5PSPm6jxAcEY8cAXMPNDluDuNSr88ueedPCE5ijzV9JA8EZicOxK/3jvz3Uc7RrmM\r\nO/DWejr0/q06f6e4OtArfTtAZoE7qKsrO8Z8/TvRJ7c65N74ObogwDoVd9o6rGeUOj1jLzoQQUg5\r\nUpbGOdiNwjn9NL85x42FOUgf/DlowGA5r34kOZZ7RDmm8T45qunmOK4DXzl1JkE5nRINOUyR3jh2\r\nbgs5CDsuOfj36DgbscI5WAawOCyDwzju6d048y/xOOA7pzimx6A6ONqEOUzY3zhludU4pBfoODrz\r\nFjmuOeU4bpfNOCC5pzhULrM4PMGFOAQu3Tg2f/44oZm5OCVpxDj/tMc4NzeeOKKNeTg9uL44d5eO\r\nOMZOoTgGCqE4dWybOPrclTgX1K44S4ONOBqfnDh19ZE4ApmMOLfHjDirc404rN6SOH2OjTiQCYg4\r\nwkOVOFIbiziNToc4NhKVOEp0iDiA43s4fXd/OJrzhzgW53E4KJZqON4MhTjCTH441wR+OMaacjj+\r\ngno4/aKDOBNYgjj5IJU4lQd2OL/ugDiL+Gs4s5VfOJZrXDjU4284tLFOOKzmdzgM1Vw4+PZwOFrN\r\nZDjK6G44u9ddODQXTDj4OVc43VJZOIbuTzjEIV04PuJoONbuRjhALFM41nlVOFgaPDjApWY4lRJc\r\nOBLrOTh1aU04VUNEOH36QDiufUw4yE1bOPwyYjhrRVE4vo9QOJnGNTgKKFI4mntNOFH/UThsdTo4\r\nTeE6OMwRPDi1Mi447d4uOFFzJziMuTE42Ew/OD5QIDgKjC04EKIqONtPOjj420Q4xz0+ONb0LjgS\r\nAls4XuEwOP+NNTgCgyA4Ps84OIItLzgMJUI4hrc/OFWdIjhgfxk4SBUuOB7lNDgqnyM4AjsqOEZ/\r\nITgPSSA4XHIpODZUMTgSgDo4jlM2OIr5IDhEdyA4rxkYOMssKTiKeiA4CfsYOEIEJzg+eR447kI0\r\nOAKcIjgueyA4v0gROG7CHDjYbh84KrkLONB1FzgCKjU4Hz87OFbkGTiWyhQ4eK0XOAABEjiSuwk4\r\n5KIZOOSkKDiZaSo4tAkrONqxOzgOByg4TK8GOCNWETj6SSo4bhctOCIyEjhSPiE4ylwWOJZbCTgo\r\nESw4lNIGOBIbGTh0hwg41hMdONtjHzi/BQo4ZVYbOGZyFTj2rwY4pJ4bOMwuGDjuC+k3DkLwN3Rc\r\nDjgRD/03/+4COGWABzikPv03jlEcOA1S/zeU3wI4WRYVOFpdCjjZIhM4juLxN3FGETiiSuU3dGf3\r\nN01aBDiAxvw3FaL8N26zDjjMBvg3vGcEOGBeDjg4MxU4VGT/Nz0+3zf47wQ48iQNODIzBjjaIwc4\r\nGjfvN6geADiUSRQ4EE8COAdy/zeYBPM3XT0FOO0jzzd4e9c3qp8IOAMS9Tde1dc3DBP/N1xA4jcK\r\nzvc3YcYCOFzZ7jdwOvg3aS3nN2vP1zfQRv43Xhj6NxLs/jeWVAg4iqf/NyoR2jfPGAE44A77NxIy\r\n9zcozgQ4E8LqN8zuAjh+VcU3183/NyzQ4zfgSt03klbwNzh36Tcq3fE3d2jWN2so+TeFd/g3PEfW\r\nN9h3CThPM9g37YoDOEq68jeD4fE3tRPEN3TX9TfSX/k3thHUN5pH2zeYC+I3Ns3YN4KE2zdBOe83\r\nxCPcN81I2zc68Os3jtjlN0aU0Dc9udQ3cFbgN68VxzfIOeI3UuoHOOC12DdG0to3vMrGN+xrzzfn\r\nq9I3yZDDN0Mg3Tc+WMo3pce6N3o32TcYd8M3UOPNN0fd8jf2p9o3hrXPN6q2zTclr7Q3ZrjKN+z9\r\nxjchdAQ4f5HdN2Ny1jdBM8w3Li7VN0ZByTecUNM3Qk3NN7P5sTdCVt43akDJNxjOzzdyork3tPq0\r\nN4Bs5TcFxs43VxLWN7qtxTe308Q3IhnYN2CA2jdm8LM3TqTANwFHzDfQRM43yFnNN3YR0Tf0C8Q3\r\nDa+wN3810TcCvNg3h425N+BOzzc+htY3gXzGN2yMvjeM4N43YwWyN2g03Tf8KbY3+aveN+iZwTck\r\njrY3txvLN8qN7Tcpx643hKzCN4CCszcTx8U3MqPNN2yX0Tc5IMc3iie+N58l5zfWo7M3rA3MNznx\r\nqTe7RsA34EbON7sAvjefgbI36Ze9N0GmxDdpcLE3PLHDN9xRrTcWosE31OrZN+gOuzdpZsA32Vyi\r\nN3WZtjcMMq83I9SyN9httTfuF5s3bFSvN17jxTec4tQ3qa7RNyXusjebwaw3zi2vNyJbsDd8DtQ3\r\ntGDPN1/PtTdCQbE3VbfJN94oljdXJKk37BG5N0YZpjeJz6Q3OP7CN1uFsDeUkL43xh2mN4TExjdt\r\noa43Rq6TN4xltjfyQKc3XFCrNye8mDc+lt43YYPIN8TalTf0k6c36KqrN4jVnDfHj6Q3PzW3N9yy\r\npDetjc43TtGmN/OYojcxEbM3pgCxN8nBuzf0D8Q3BP6xN0wKwTfSF643qqqvN/D9oTe1Xqw3Etu0\r\nN8RlqDfnlqs3ULSjN7F4jTd/Xo43umykN9QFvDcB7rQ3KN+pN7UMwjci67U3qnS1N/dHyjenjrA3\r\nmLWwN7ihsDc4I7I3SMOeNy9Ypjd59qQ3dsK2N+AUnzckN8I3/8qcN1UHpjecpKM3Gc3SN9Q1wzel\r\npqw3eD6YNywvrzcPMbk3wquwN2oynTd27KA3omqUN6vurzcK9683QrSrNxxnoTdmpaY3C8mhNwu9\r\nujcTAa03GJO7NyvpqzfAvqQ3i+qGN+n0kzegR7g3iEiuNymhljfs5Kk3C16pN0h4kTesl6c3+wGQ\r\nN7b1ljeoAKs3XnqvN2kqjDc9+Jw3Vq2iN8b6mjfdMZU35CCaN7Mf1jezSLM3+iaeNww/szeOoqg3\r\nDUK2NynUijfFCJ03aAqQN6pbkzdxbMA39rOfN1dSljdzZpk3xtGvNzETvDfn0rw3jtyHN3kSgTeS\r\n1bI3unGKN6bcrzdtcoE3wI+YNwRfqzeSMpk3ACqcN/ilnzfcPJg3FcKEN6hQnjdcca43kwGxN7HX\r\nhDdaV783XRGMN5DunTeVRJs3CNqVN3OhpjdwBak3VauUN4rWpze+j383cNSsN27ltTf1HLM3QdeS\r\nN0kugje/JqM36DejN/6plTcZy4w3MLOzNxsSpjfb1Zg3oUhuN8tKnTcbX6U3PnuXN82djDe0MaA3\r\n/UeSN4+fkjeRjIo3Hv6hN3l/ijcnfo03h4SaNyv6szd3W6M3JfW6N0vRlzcJtKM3MlyxNzjVsTf3\r\nDLg34TqqNzYYjjeHCY03QRydN43wpTcH/5Y3A3m1N3w7hTckeo43EBW5NxVkiDcKt6A3nuOLN3nA\r\nqzc/p5U3A4SYN6VWszdQ4Js39yqfN2uylzcJn6U3x4KkN+McozfXapI3mNGcN89Ysze2oIU3S0qD\r\nN+zfhTcQw5Y3pRCjNwt+iTehnI83QV6EN02sbTcLs6U3dX+XN9TilDelDX039kKPNxZ3gDfUE7A3\r\neiajN4JcrzfSD4U3U8uwN0WTkTfmp6I31D2ZN9vhpTf+0oQ3DDmZN9DTgzfl3pA3Mv2eN3/3ljdB\r\nUZk3+/adN5ZIiTfK5qU3mqSIN35VdjeHLpY3pc+sN0y7gDdGXao35MWANx0inzeDP7A35fScNwjF\r\nmzceva43LKx/NwaKnzewzow3xLaVNztUmjfrNYc3zk+UN0xxqTc0Was3m8GXN40vizcx6Jo32HNc\r\nN8SllDdmbK43VNiQN1iTdTcdSKc3j9SbN42FdjfqHJ03n0adNw3ygjeG/JU3AKKSNw==",
                            "noiseTrainingType" : "default"
                          }
                        }
                    ],
                    "start" : 8348,
                    "duration" : 1831,
                    "mediaStart" : 0,
                    "mediaDuration" : 1831,
                    "scalar" : 1,
                    "metadata" : {
                      "WinSubProjectDisplayName" : "",
                      "clipSpeedAttribute" : false
                    },
                    "animationTracks" : {

                    }
                  },
                  {
                    "id" : 79,
                    "_type" : "StitchedMedia",
                    "minMediaStart" : 0,
                    "attributes" : {
                      "ident" : "tower-arch-04",
                      "gain" : 1.0,
                      "mixToMono" : false
                    },
                    "parameters" : {
                      "volume" : 1.0,
                      "cursorOpacity" : 1.0,
                      "cursorScale" : 1.0
                    },
                    "medias" : [
                        {
                          "id" : 80,
                          "_type" : "AMFile",
                          "src" : 5,
                          "trackNumber" : 1,
                          "attributes" : {
                            "ident" : "Rec 02-03-20_005",
                            "sampleRate" : 44100,
                            "bitDepth" : 16,
                            "gain" : 1.0,
                            "mixToMono" : false
                          },
                            "channelNumber" : "0,1",
                          "effects" : [

                          ],
                          "start" : 0,
                          "duration" : 455,
                          "mediaStart" : 0,
                          "mediaDuration" : 455,
                          "scalar" : 1,
                          "metadata" : {
                            "WinSubProjectDisplayName" : "",
                            "clipSpeedAttribute" : false
                          },
                          "animationTracks" : {

                          }
                        },
                        {
                          "id" : 81,
                          "_type" : "AMFile",
                          "src" : 5,
                          "trackNumber" : 1,
                          "attributes" : {
                            "ident" : "Rec 02-03-20_005",
                            "sampleRate" : 44100,
                            "bitDepth" : 16,
                            "gain" : 1.0,
                            "mixToMono" : false
                          },
                            "channelNumber" : "0,1",
                          "effects" : [

                          ],
                          "start" : 455,
                          "duration" : 26,
                          "mediaStart" : 465,
                          "mediaDuration" : 26,
                          "scalar" : 1,
                          "metadata" : {
                            "WinSubProjectDisplayName" : "",
                            "clipSpeedAttribute" : false
                          },
                          "animationTracks" : {

                          }
                        },
                        {
                          "id" : 82,
                          "_type" : "AMFile",
                          "src" : 5,
                          "trackNumber" : 1,
                          "attributes" : {
                            "ident" : "Rec 02-03-20_005",
                            "sampleRate" : 44100,
                            "bitDepth" : 16,
                            "gain" : 1.0,
                            "mixToMono" : false
                          },
                            "channelNumber" : "0,1",
                          "effects" : [

                          ],
                          "start" : 481,
                          "duration" : 113,
                          "mediaStart" : 505,
                          "mediaDuration" : 113,
                          "scalar" : 1,
                          "metadata" : {
                            "WinSubProjectDisplayName" : "",
                            "clipSpeedAttribute" : false
                          },
                          "animationTracks" : {

                          }
                        },
                        {
                          "id" : 83,
                          "_type" : "AMFile",
                          "src" : 5,
                          "trackNumber" : 1,
                          "attributes" : {
                            "ident" : "Rec 02-03-20_005",
                            "sampleRate" : 44100,
                            "bitDepth" : 16,
                            "gain" : 1.0,
                            "mixToMono" : false
                          },
                            "channelNumber" : "0,1",
                          "effects" : [

                          ],
                          "start" : 594,
                          "duration" : 1177,
                          "mediaStart" : 738,
                          "mediaDuration" : 1177,
                          "scalar" : 1,
                          "metadata" : {
                            "WinSubProjectDisplayName" : "",
                            "clipSpeedAttribute" : false
                          },
                          "animationTracks" : {

                          }
                        },
                        {
                          "id" : 84,
                          "_type" : "AMFile",
                          "src" : 5,
                          "trackNumber" : 1,
                          "attributes" : {
                            "ident" : "Rec 02-03-20_005",
                            "sampleRate" : 44100,
                            "bitDepth" : 16,
                            "gain" : 1.0,
                            "mixToMono" : false
                          },
                            "channelNumber" : "0,1",
                          "effects" : [

                          ],
                          "start" : 1771,
                          "duration" : 882,
                          "mediaStart" : 1947,
                          "mediaDuration" : 882,
                          "scalar" : 1,
                          "metadata" : {
                            "WinSubProjectDisplayName" : "",
                            "clipSpeedAttribute" : false
                          },
                          "animationTracks" : {

                          }
                        },
                        {
                          "id" : 85,
                          "_type" : "AMFile",
                          "src" : 5,
                          "trackNumber" : 1,
                          "attributes" : {
                            "ident" : "Rec 02-03-20_005",
                            "sampleRate" : 44100,
                            "bitDepth" : 16,
                            "gain" : 1.0,
                            "mixToMono" : false
                          },
                            "channelNumber" : "0,1",
                          "effects" : [

                          ],
                          "start" : 2653,
                          "duration" : 331,
                          "mediaStart" : 2849,
                          "mediaDuration" : 331,
                          "scalar" : 1,
                          "metadata" : {
                            "WinSubProjectDisplayName" : "",
                            "clipSpeedAttribute" : false
                          },
                          "animationTracks" : {

                          }
                        },
                        {
                          "id" : 86,
                          "_type" : "AMFile",
                          "src" : 5,
                          "trackNumber" : 1,
                          "attributes" : {
                            "ident" : "Rec 02-03-20_005",
                            "sampleRate" : 44100,
                            "bitDepth" : 16,
                            "gain" : 1.0,
                            "mixToMono" : false
                          },
                            "channelNumber" : "0,1",
                          "effects" : [

                          ],
                          "start" : 2984,
                          "duration" : 91,
                          "mediaStart" : 3238,
                          "mediaDuration" : 91,
                          "scalar" : 1,
                          "metadata" : {
                            "WinSubProjectDisplayName" : "",
                            "clipSpeedAttribute" : false
                          },
                          "animationTracks" : {

                          }
                        },
                        {
                          "id" : 87,
                          "_type" : "AMFile",
                          "src" : 5,
                          "trackNumber" : 1,
                          "attributes" : {
                            "ident" : "Rec 02-03-20_005",
                            "sampleRate" : 44100,
                            "bitDepth" : 16,
                            "gain" : 1.0,
                            "mixToMono" : false
                          },
                            "channelNumber" : "0,1",
                          "effects" : [

                          ],
                          "start" : 3075,
                          "duration" : 193,
                          "mediaStart" : 3415,
                          "mediaDuration" : 193,
                          "scalar" : 1,
                          "metadata" : {
                            "WinSubProjectDisplayName" : "",
                            "clipSpeedAttribute" : false
                          },
                          "animationTracks" : {

                          }
                        },
                        {
                          "id" : 88,
                          "_type" : "AMFile",
                          "src" : 5,
                          "trackNumber" : 1,
                          "attributes" : {
                            "ident" : "Rec 02-03-20_005",
                            "sampleRate" : 44100,
                            "bitDepth" : 16,
                            "gain" : 1.0,
                            "mixToMono" : false
                          },
                            "channelNumber" : "0,1",
                          "effects" : [

                          ],
                          "start" : 3268,
                          "duration" : 71,
                          "mediaStart" : 3770,
                          "mediaDuration" : 71,
                          "scalar" : 1,
                          "metadata" : {
                            "WinSubProjectDisplayName" : "",
                            "clipSpeedAttribute" : false
                          },
                          "animationTracks" : {

                          }
                        },
                        {
                          "id" : 89,
                          "_type" : "AMFile",
                          "src" : 5,
                          "trackNumber" : 1,
                          "attributes" : {
                            "ident" : "Rec 02-03-20_005",
                            "sampleRate" : 44100,
                            "bitDepth" : 16,
                            "gain" : 1.0,
                            "mixToMono" : false
                          },
                            "channelNumber" : "0,1",
                          "effects" : [

                          ],
                          "start" : 3339,
                          "duration" : 516,
                          "mediaStart" : 3867,
                          "mediaDuration" : 516,
                          "scalar" : 1,
                          "metadata" : {
                            "WinSubProjectDisplayName" : "",
                            "clipSpeedAttribute" : false
                          },
                          "animationTracks" : {

                          }
                        },
                        {
                          "id" : 90,
                          "_type" : "AMFile",
                          "src" : 5,
                          "trackNumber" : 1,
                          "attributes" : {
                            "ident" : "Rec 02-03-20_005",
                            "sampleRate" : 44100,
                            "bitDepth" : 16,
                            "gain" : 1.0,
                            "mixToMono" : false
                          },
                            "channelNumber" : "0,1",
                          "effects" : [

                          ],
                          "start" : 3855,
                          "duration" : 133,
                          "mediaStart" : 4421,
                          "mediaDuration" : 133,
                          "scalar" : 1,
                          "metadata" : {
                            "WinSubProjectDisplayName" : "",
                            "clipSpeedAttribute" : false
                          },
                          "animationTracks" : {

                          }
                        },
                        {
                          "id" : 91,
                          "_type" : "AMFile",
                          "src" : 5,
                          "trackNumber" : 1,
                          "attributes" : {
                            "ident" : "Rec 02-03-20_005",
                            "sampleRate" : 44100,
                            "bitDepth" : 16,
                            "gain" : 1.0,
                            "mixToMono" : false
                          },
                            "channelNumber" : "0,1",
                          "effects" : [

                          ],
                          "start" : 3988,
                          "duration" : 4244,
                          "mediaStart" : 4592,
                          "mediaDuration" : 4244,
                          "scalar" : 1,
                          "metadata" : {
                            "WinSubProjectDisplayName" : "",
                            "clipSpeedAttribute" : false
                          },
                          "animationTracks" : {

                          }
                        }
                    ],
                    "effects" : [
                        {
                          "effectName" : "NoiseReduction",
                          "category" : "categoryAudioEffects",
                          "parameters" : {
                            "denoiserAmount" : 20.0,
                            "denoiserThreshold" : 0.0,
                            "noiseProfile" : "wy93P+yPJkBUPNc+gnV3PoD6Gz8xbytAkbGVP8NEsT881Tg/BFvIP49RsD4GeJc/TGlwPnTfAT8X\r\nS2E/HSptPsgBZz0ND4I99/gmP/5zOT+Sens/SGI4P7sp3j67VfM+8D0dP1SJYT+OkFk/75tpP81/\r\n8T/g3Ys/u3AZQNPJoUCqS5ZAH+vRQKuR1kAHKsg/cyTzQAFE7ECbXSFAOjPNPxlWgEA2dBJAgm6P\r\nQB6m7z9F64ZAOL0NPz4yuz4cgZw+wGx6Ptklkj4WIu0+nC+oPrTLjD5QZaM+3GWHP2DFpz9hHNA+\r\nvBtnPwvAZj+GnLI+haACP9zNMT7+FEY/2PydP70mzz/SnhM/zXdDPzjlWD+MJF9Abg9HQKkCzj/T\r\n1LU/VoXJP4Sypz+XhPc+mK5rP9nnAD/WmTw+QXiAP2O93j6F7BQ+1VYFP8I2+j0hGgY+nqrWPd2a\r\nkD3wraA99WAcPubkiT6+dvY+6KjjPeB+Fz64KQ0+VBwUPnRLFz5mnAI+FEt8PbA1Jz4WNYo9tttb\r\nPczHhT0/GCk9T/+iPQRIqz3JyyI+f803PdihdT2G0rQ9hunaPJGroj2UGKs9s7wKPShlqj28iGU9\r\nx0PwPdITZT6kpSU+2xVlPUg24zwiJ4M9XEmcPZgonj32IME9XY+2PUI/Ej7CVRw+aAcTPUIbwz35\r\nUVI9yERePdZITz1UhtI8GoAtPTqzCj/wUFI+PFehPWDJ0DygThY+n/r6PFxaRD1L7GU98FEtPudM\r\nyD0enDc+TVOpPQ4CHD1jpsw8VKuOPDzm7Dw8wUI9AEKlPDXbvDxB3jI9z3jGPJrMfjxoBsM8WUYM\r\nPdsE7DysNuQ9maNIPbs4ID2LVcs9DhtXPYZYTz2J5wk9EDuIPQrexj2f4eQ8t6ATPdRO9DwtPg89\r\nWN76PPq03TxtZvo85yhYPSQUHD1Dks49RsVLPZTT/TyavjU9VMjAPPF50DxyYOg89EMCPeCRejzS\r\n+yY8VsYyPPXYLz0Sf7085qZRPMhqpDz7AAA8qjrGPM5bij1+Zsc8W9VYPcYoUz0AUME9pJZTPaLR\r\nPz5E2eo8mQwoPaCfTTxxGIU8VOCsPMiGFD6P5oU8HrnpPDsJxTzpFCs8rJskPICdWT3GP/w8QYny\r\nPFQHAD2x10g8pvwXPYnufT2ViHY9aiNhPJmFBj5F0Ho+jL+XPuzuhD7lR0c/B1Q3P0HLOj/W2Bk/\r\nOkrkPpKO9T+H/zFA/lVFPx9DnUCGvr4/A5WYPyqVED6AWYc+MsFEP3pJgDzRBzM/EbW5Pngz4D3Q\r\nSco9ZBf8PfB2sz8qUWY9ob3+P1kZgUCCLm0/DNmhPoiSnj5H1Dk/7GiXPsoyDj7qS1g/gVsfPuuy\r\nAD5EZyE+iX4RPOVVRDyf8AA8UiJDPjY7ND6PlRk8teV3PegE/DzU9ok8KuEWPSlv0TwxpZE8BkgO\r\nPaH/ND1E9Jc8epTiPAjS2D1kP3c9kiVhPI8lJDyTjIc8BSl+PQ8xBD3xkGA8zcgfPB9EojwcBrk7\r\n/5SKOyzFTzwmqDU8DCQXPWQCGzy6wQw8NCYWPATQQTxyuhk9UqWVPENiMTyYnbA73b8SPITfSDuX\r\n3LU7YwgYPDxm1jvcINU7JEeCPNvrRTw+UNw7GnWvO5hQ8Dvelm07tGaaO/kpKj3+OhU9x/MkPNwl\r\n0zsHKJQ7a8ZHPXxseT0j5uo8QHBGPHAFzDzQ5bg7jUq/PLnnnTwhOYo8hKyRPEONnDsSv947891H\r\nO0a5jDvw1no69P6tOsLhuDrQK307QGaBO6irKzvGfP07EMO3OuTe+DnwhL86nxPcOqxnlDpjwC06\r\niz9SObErxTnYjcI5/TS/Oa6AhzlIH/w5aMBgOa9+JDmWe0Q5pvE+Oe4/8ziuA185dSZBOZ0SDTlM\r\nkd44dm4LOQg7Ljn49+g4G7HCOVgGsDgsg8M47undOPMv8TjgO6c4psegOjjahDlM2N84ZbnVOKQX\r\n6Dg68xY5rjnlOG6XzTgguac4VC6zODzBhTgELt04Nn/+OKGZuTglacQ4/7THODc3njiijXk4Pbi+\r\nOHeXjjjGTqE4BgqhOHVsmzj63JU4F9SuOEuDjTgan5w4dfWROAKZjDi3x4w4q3ONOKzekjh9jo04\r\nkAmIOMJDlThSG4s4jU6HODYSlThKdIg4gON7OH13fzia84c4FudxOCiWajjeDIU4wkx+ONcEfjjG\r\nmnI4/oJ6OP2igzgTWII4+SCVOJUHdji/7oA4i/hrOLOVXziWa1w41ONvOLSxTjis5nc4DNVcOPj2\r\ncDhazWQ4yuhuOLvXXTg0F0w4+DlXON1SWTiG7k84xCFdOD7iaDjW7kY4QCxTONZ5VThYGjw4wKVm\r\nOJUSXDgS6zk4dWlNOFVDRDh9+kA4rn1MOMhNWzj8MmI4a0VROL6PUDiZxjU4CihSOJp7TThR/1E4\r\nbHU6OE3hOjjMETw4tTIuOO3eLjhRcyc4jLkxONhMPzg+UCA4CowtOBCiKjjbTzo4+NtEOMc9PjjW\r\n9C44EgJbOF7hMDj/jTU4AoMgOD7PODiCLS84DCVCOIa3PzhVnSI4YH8ZOEgVLjge5TQ4Kp8jOAI7\r\nKjhGfyE4D0kgOFxyKTg2VDE4EoA6OI5TNjiK+SA4RHcgOK8ZGDjLLCk4inogOAn7GDhCBCc4Pnke\r\nOO5CNDgCnCI4LnsgOL9IEThuwhw42G4fOCq5CzjQdRc4Aio1OB8/OzhW5Bk4lsoUOHitFzgAARI4\r\nkrsJOOSiGTjkpCg4mWkqOLQJKzjasTs4DgcoOEyvBjgjVhE4+kkqOG4XLTgiMhI4Uj4hOMpcFjiW\r\nWwk4KBEsOJTSBjgSGxk4dIcIONYTHTjbYx84vwUKOGVWGzhmchU49q8GOKSeGzjMLhg47gvpNw5C\r\n8Dd0XA44EQ/9N//uAjhlgAc4pD79N45RHDgNUv83lN8COFkWFThaXQo42SITOI7i8TdxRhE4okrl\r\nN3Rn9zdNWgQ4gMb8NxWi/Ddusw44zAb4N7xnBDhgXg44ODMVOFRk/zc9Pt83+O8EOPIkDTgyMwY4\r\n2iMHOBo37zeoHgA4lEkUOBBPAjgHcv83mATzN109BTjtI883eHvXN6qfCDgDEvU3XtXXNwwT/zdc\r\nQOI3Cs73N2HGAjhc2e43cDr4N2kt5zdrz9c30Eb+N14Y+jcS7P43llQIOIqn/zcqEdo3zxgBOOAO\r\n+zcSMvc3KM4EOBPC6jfM7gI4flXFN9fN/zcs0OM34ErdN5JW8Dc4d+k3Kt3xN3do1jdrKPk3hXf4\r\nNzxH1jfYdwk4TzPYN+2KAzhKuvI3g+HxN7UTxDd01/U30l/5N7YR1DeaR9s3mAviNzbN2DeChNs3\r\nQTnvN8Qj3DfNSNs3OvDrN47Y5TdGlNA3PbnUN3BW4DevFcc3yDniN1LqBzjgtdg3RtLaN7zKxjfs\r\na88356vSN8mQwzdDIN03PljKN6XHujd6N9k3GHfDN1DjzTdH3fI39qfaN4a1zzeqts03Ja+0N2a4\r\nyjfs/cY3IXQEOH+R3TdjctY3QTPMNy4u1TdGQck3nFDTN0JNzTez+bE3QlbeN2pAyTcYzs83cqK5\r\nN7T6tDeAbOU3BcbON1cS1je6rcU3t9PENyIZ2DdggNo3ZvCzN06kwDcBR8w30ETON8hZzTd2EdE3\r\n9AvENw2vsDd/NdE3ArzYN4eNuTfgTs83PobWN4F8xjdsjL43jODeN2MFsjdoNN03/Cm2N/mr3jfo\r\nmcE3JI62N7cbyzfKje03KceuN4SswjeAgrM3E8fFNzKjzTdsl9E3OSDHN4onvjefJec31qOzN6wN\r\nzDc58ak3u0bAN+BGzje7AL43n4GyN+mXvTdBpsQ3aXCxNzyxwzfcUa03FqLBN9Tq2TfoDrs3aWbA\r\nN9lcojd1mbY3DDKvNyPUsjfYbbU37hebN2xUrzde48U3nOLUN6mu0Tcl7rI3m8GsN84trzciW7A3\r\nfA7UN7Rgzzdfz7U3QkGxN1W3yTfeKJY3VySpN+wRuTdGGaY3ic+kNzj+wjdbhbA3lJC+N8YdpjeE\r\nxMY3baGuN0aukzeMZbY38kCnN1xQqzcnvJg3PpbeN2GDyDfE2pU39JOnN+iqqzeI1Zw3x4+kNz81\r\ntzfcsqQ3rY3ON07RpjfzmKI3MRGzN6YAsTfJwbs39A/ENwT+sTdMCsE30heuN6qqrzfw/aE3tV6s\r\nNxLbtDfEZag355arN1C0ozexeI03f16ON7pspDfUBbw3Ae60NyjfqTe1DMI3Iuu1N6p0tTf3R8o3\r\np46wN5i1sDe4obA3OCOyN0jDnjcvWKY3efakN3bCtjfgFJ83JDfCN//KnDdVB6Y3nKSjNxnN0jfU\r\nNcM3paasN3g+mDcsL683DzG5N8KrsDdqMp03duygN6JqlDer7q83CvevN0K0qzccZ6E3ZqWmNwvJ\r\noTcLvbo3EwGtNxiTuzcr6as3wL6kN4vqhjfp9JM3oEe4N4hIrjcpoZY37OSpNwteqTdIeJE3rJen\r\nN/sBkDe29ZY3qACrN156rzdpKow3PficN1atojfG+po33TGVN+QgmjezH9Y3s0izN/omnjcMP7M3\r\njqKoNw1Ctjcp1Io3xQidN2gKkDeqW5M3cWzAN/aznzdXUpY3c2aZN8bRrzcxE7w359K8N47chzd5\r\nEoE3ktWyN7pxijem3K83bXKBN8CPmDcEX6s3kjKZNwAqnDf4pZ833DyYNxXChDeoUJ43XHGuN5MB\r\nsTex14Q3Wle/N10RjDeQ7p03lUSbNwjalTdzoaY3cAWpN1WrlDeK1qc3vo9/N3DUrDdu5bU39Ryz\r\nN0HXkjdJLoI3vyajN+g3ozf+qZU3GcuMNzCzszcbEqY329WYN6FIbjfLSp03G1+lNz57lzfNnYw3\r\ntDGgN/1HkjePn5I3kYyKNx7+oTd5f4o3J36NN4eEmjcr+rM3d1ujNyX1ujdL0Zc3CbSjNzJcsTc4\r\n1bE39wy4N+E6qjc2GI43hwmNN0EcnTeN8KU3B/+WNwN5tTd8O4U3JHqONxAVuTcVZIg3CregN57j\r\nizd5wKs3P6eVNwOEmDelVrM3UOCbN/cqnzdrspc3CZ+lN8eCpDfjHKM312qSN5jRnDfPWLM3tqCF\r\nN0tKgzfs34U3EMOWN6UQozcLfok3oZyPN0FehDdNrG03C7OlN3V/lzfU4pQ3pQ19N/ZCjzcWd4A3\r\n1BOwN3omozeCXK830g+FN1PLsDdFk5E35qeiN9Q9mTfb4aU3/tKENww5mTfQ04M35d6QNzL9njd/\r\n95Y3QVGZN/v2nTeWSIk3yualN5qkiDd+VXY3hy6WN6XPrDdMu4A3Rl2qN+TFgDcdIp83gz+wN+X0\r\nnDcIxZs3Hr2uNyysfzcGip83sM6MN8S2lTc7VJo36zWHN85PlDdMcak3NFmrN5vBlzeNL4s3Meia\r\nN9hzXDfEpZQ3ZmyuN1TYkDdYk3U3HUinN4/UmzeNhXY36hydN59GnTcN8oI3hvyVNwCikjfDL3c/\r\n7I8mQFQ81z4xXHc+tggcPyJnK0CRsZU/w0SxPzzVOD8TZMg/tYKwPqSGlz9MaXA+dN8BPxdLYT8d\r\nKm0+yAFnPQ0Pgj0l5yY/pDg5P/+Oez8iRjg/5D7ePmY88z60Ph0/9JthP46QWT/vm2k/M4zxP+Dd\r\niz/1YxlAzt2hQKpLlkAf69FAq5HWQAcqyD89IvNAoUvsQJtdIUAdDs0/GVaAQDZ0EkCCbo9AHqbv\r\nP0XrhkCxxA0/PjK7PhyBnD7AbHo+cfKRPhYi7T7ZJ6g+1tCMPlBloz6yYYc//a6nP2Ec0D5EEmc/\r\np6BmP4acsj6FoAI/2r8xPv4URj/Y/J0/vSbPP9KeEz9km0M/OOVYP4wkX0BuD0dAqQLOP4nAtT9W\r\nhck/hLKnP5eE9z6Yrms/2ecAP9aZPD5BeIA/Y73ePuaTFD7VVgU/wjb6PSEaBj6eqtY93ZqQPfCt\r\noD31YBw+5uSJPr529j7oqOM94H4XPrgpDT4qNRQ+dEsXPmacAj4US3w9sDUnPhY1ij2221s9zMeF\r\nPUlOKT1P/6I9BEirPcnLIj5/zTc92KF1PYbStD2G6do8kauiPaR3qz0Umwo9KGWqPRYUZj0Y7O89\r\nQYllPruhJT7bFWU9SDbjPALCgj1cSZw9GrmePfYgwT1dj7Y9wj4SPi53HD40yhI9oQfDPflRUj0K\r\nQ1091khPPbhz0jwagC09OrMKP78kUj48V6E9As/QPKBOFj6f+vo8XFpEPUvsZT3wUS0+I07IPZKX\r\nNz5NU6k9DgIcPWOmzDxUq448PObsPKTAQj0AQqU8Ndu8PKcUMz1i98U8msx+PKOrwjzeMww9a6Xq\r\nPMpi5D2Zo0g9uzggPYtVyz0OG1c9hlhPPYnnCT3gXIg9h7DGPZ/h5Dy3oBM91E70PC0+Dz1Y3vo8\r\n+rTdPDUZ+zznKFg9D9wbPaX2zj2S9ks9lNP9PJq+NT1u48E88XnQPHJg6Dz0QwI94JF6PO44JjxW\r\nxjI89dgvPQhsvTzmplE8MuSkPPsAADyqOsY8zluKPX5mxzxb1Vg9xihTPQBQwT2kllM9otE/PkTZ\r\n6jwP1Sg9yORNPHEYhTxU4Kw8yIYUPo/mhTweuek8OwnFPOkUKzy4lCU8gJ1ZPcY//DxBifI8VAcA\r\nPbHXSDym/Bc9ie59PZWIdj1qI2E8mYUGPkXQej6Mv5c+7O6EPuVHRz8HVDc/Qcs6P9bYGT86SuQ+\r\nko71P4f/MUD+VUU/H0OdQIa+vj8DlZg/KpUQPoBZhz4ywUQ/ekmAPNEHMz8Rtbk+eDPgPdBJyj1k\r\nF/w98HazPypRZj2hvf4/WRmBQIIubT8M2aE+iJKePkfUOT/saJc+yjIOPupLWD+BWx8+67IAPkRn\r\nIT6JfhE85VVEPHrTATxSIkM+Njs0PpUdGjy15Xc96AT8PDnriTwq4RY9KW/RPPzdkTzUXA49GzE1\r\nPSTYlzwyJuE8CNLYPWQ/dz2SJWE8NiwkPJOMhzwFKX49DzEEPfGQYDzmBSA8H0SiPNyguTv/lIo7\r\nLMVPPCaoNTwMJBc9ZAIbPLrBDDw0JhY8DthAPHK6GT0655Q8Q2IxPGpwsTvdvxI8hN9IO4TvtTus\r\nhBc8PGbWO9wg1TskR4I82+tFPLZC2jsada87mFDwO7OdbDu0Zpo7+SkqPf46FT3H8yQ83CXTOwco\r\nlDtrxkc9fGx5PSPm6jxAcEY8cAXMPNDluDuNSr88ueedPCE5ijzV9JA8EZicOxK/3jvz3Uc7RrmM\r\nO/DWejr0/q06f6e4OtArfTtAZoE7qKsrO8Z8/TvRJ7c65N74ObogwDoVd9o6rGeUOj1jLzoQQUg5\r\nUpbGOdiNwjn9NL85x42FOUgf/DlowGA5r34kOZZ7RDmm8T45qunmOK4DXzl1JkE5nRINOUyR3jh2\r\nbgs5CDsuOfj36DgbscI5WAawOCyDwzju6d048y/xOOA7pzimx6A6ONqEOUzY3zhludU4pBfoODrz\r\nFjmuOeU4bpfNOCC5pzhULrM4PMGFOAQu3Tg2f/44oZm5OCVpxDj/tMc4NzeeOKKNeTg9uL44d5eO\r\nOMZOoTgGCqE4dWybOPrclTgX1K44S4ONOBqfnDh19ZE4ApmMOLfHjDirc404rN6SOH2OjTiQCYg4\r\nwkOVOFIbiziNToc4NhKVOEp0iDiA43s4fXd/OJrzhzgW53E4KJZqON4MhTjCTH441wR+OMaacjj+\r\ngno4/aKDOBNYgjj5IJU4lQd2OL/ugDiL+Gs4s5VfOJZrXDjU4284tLFOOKzmdzgM1Vw4+PZwOFrN\r\nZDjK6G44u9ddODQXTDj4OVc43VJZOIbuTzjEIV04PuJoONbuRjhALFM41nlVOFgaPDjApWY4lRJc\r\nOBLrOTh1aU04VUNEOH36QDiufUw4yE1bOPwyYjhrRVE4vo9QOJnGNTgKKFI4mntNOFH/UThsdTo4\r\nTeE6OMwRPDi1Mi447d4uOFFzJziMuTE42Ew/OD5QIDgKjC04EKIqONtPOjj420Q4xz0+ONb0LjgS\r\nAls4XuEwOP+NNTgCgyA4Ps84OIItLzgMJUI4hrc/OFWdIjhgfxk4SBUuOB7lNDgqnyM4AjsqOEZ/\r\nITgPSSA4XHIpODZUMTgSgDo4jlM2OIr5IDhEdyA4rxkYOMssKTiKeiA4CfsYOEIEJzg+eR447kI0\r\nOAKcIjgueyA4v0gROG7CHDjYbh84KrkLONB1FzgCKjU4Hz87OFbkGTiWyhQ4eK0XOAABEjiSuwk4\r\n5KIZOOSkKDiZaSo4tAkrONqxOzgOByg4TK8GOCNWETj6SSo4bhctOCIyEjhSPiE4ylwWOJZbCTgo\r\nESw4lNIGOBIbGTh0hwg41hMdONtjHzi/BQo4ZVYbOGZyFTj2rwY4pJ4bOMwuGDjuC+k3DkLwN3Rc\r\nDjgRD/03/+4COGWABzikPv03jlEcOA1S/zeU3wI4WRYVOFpdCjjZIhM4juLxN3FGETiiSuU3dGf3\r\nN01aBDiAxvw3FaL8N26zDjjMBvg3vGcEOGBeDjg4MxU4VGT/Nz0+3zf47wQ48iQNODIzBjjaIwc4\r\nGjfvN6geADiUSRQ4EE8COAdy/zeYBPM3XT0FOO0jzzd4e9c3qp8IOAMS9Tde1dc3DBP/N1xA4jcK\r\nzvc3YcYCOFzZ7jdwOvg3aS3nN2vP1zfQRv43Xhj6NxLs/jeWVAg4iqf/NyoR2jfPGAE44A77NxIy\r\n9zcozgQ4E8LqN8zuAjh+VcU3183/NyzQ4zfgSt03klbwNzh36Tcq3fE3d2jWN2so+TeFd/g3PEfW\r\nN9h3CThPM9g37YoDOEq68jeD4fE3tRPEN3TX9TfSX/k3thHUN5pH2zeYC+I3Ns3YN4KE2zdBOe83\r\nxCPcN81I2zc68Os3jtjlN0aU0Dc9udQ3cFbgN68VxzfIOeI3UuoHOOC12DdG0to3vMrGN+xrzzfn\r\nq9I3yZDDN0Mg3Tc+WMo3pce6N3o32TcYd8M3UOPNN0fd8jf2p9o3hrXPN6q2zTclr7Q3ZrjKN+z9\r\nxjchdAQ4f5HdN2Ny1jdBM8w3Li7VN0ZByTecUNM3Qk3NN7P5sTdCVt43akDJNxjOzzdyork3tPq0\r\nN4Bs5TcFxs43VxLWN7qtxTe308Q3IhnYN2CA2jdm8LM3TqTANwFHzDfQRM43yFnNN3YR0Tf0C8Q3\r\nDa+wN3810TcCvNg3h425N+BOzzc+htY3gXzGN2yMvjeM4N43YwWyN2g03Tf8KbY3+aveN+iZwTck\r\njrY3txvLN8qN7Tcpx643hKzCN4CCszcTx8U3MqPNN2yX0Tc5IMc3iie+N58l5zfWo7M3rA3MNznx\r\nqTe7RsA34EbON7sAvjefgbI36Ze9N0GmxDdpcLE3PLHDN9xRrTcWosE31OrZN+gOuzdpZsA32Vyi\r\nN3WZtjcMMq83I9SyN9httTfuF5s3bFSvN17jxTec4tQ3qa7RNyXusjebwaw3zi2vNyJbsDd8DtQ3\r\ntGDPN1/PtTdCQbE3VbfJN94oljdXJKk37BG5N0YZpjeJz6Q3OP7CN1uFsDeUkL43xh2mN4TExjdt\r\noa43Rq6TN4xltjfyQKc3XFCrNye8mDc+lt43YYPIN8TalTf0k6c36KqrN4jVnDfHj6Q3PzW3N9yy\r\npDetjc43TtGmN/OYojcxEbM3pgCxN8nBuzf0D8Q3BP6xN0wKwTfSF643qqqvN/D9oTe1Xqw3Etu0\r\nN8RlqDfnlqs3ULSjN7F4jTd/Xo43umykN9QFvDcB7rQ3KN+pN7UMwjci67U3qnS1N/dHyjenjrA3\r\nmLWwN7ihsDc4I7I3SMOeNy9Ypjd59qQ3dsK2N+AUnzckN8I3/8qcN1UHpjecpKM3Gc3SN9Q1wzel\r\npqw3eD6YNywvrzcPMbk3wquwN2oynTd27KA3omqUN6vurzcK9683QrSrNxxnoTdmpaY3C8mhNwu9\r\nujcTAa03GJO7NyvpqzfAvqQ3i+qGN+n0kzegR7g3iEiuNymhljfs5Kk3C16pN0h4kTesl6c3+wGQ\r\nN7b1ljeoAKs3XnqvN2kqjDc9+Jw3Vq2iN8b6mjfdMZU35CCaN7Mf1jezSLM3+iaeNww/szeOoqg3\r\nDUK2NynUijfFCJ03aAqQN6pbkzdxbMA39rOfN1dSljdzZpk3xtGvNzETvDfn0rw3jtyHN3kSgTeS\r\n1bI3unGKN6bcrzdtcoE3wI+YNwRfqzeSMpk3ACqcN/ilnzfcPJg3FcKEN6hQnjdcca43kwGxN7HX\r\nhDdaV783XRGMN5DunTeVRJs3CNqVN3OhpjdwBak3VauUN4rWpze+j383cNSsN27ltTf1HLM3QdeS\r\nN0kugje/JqM36DejN/6plTcZy4w3MLOzNxsSpjfb1Zg3oUhuN8tKnTcbX6U3PnuXN82djDe0MaA3\r\n/UeSN4+fkjeRjIo3Hv6hN3l/ijcnfo03h4SaNyv6szd3W6M3JfW6N0vRlzcJtKM3MlyxNzjVsTf3\r\nDLg34TqqNzYYjjeHCY03QRydN43wpTcH/5Y3A3m1N3w7hTckeo43EBW5NxVkiDcKt6A3nuOLN3nA\r\nqzc/p5U3A4SYN6VWszdQ4Js39yqfN2uylzcJn6U3x4KkN+McozfXapI3mNGcN89Ysze2oIU3S0qD\r\nN+zfhTcQw5Y3pRCjNwt+iTehnI83QV6EN02sbTcLs6U3dX+XN9TilDelDX039kKPNxZ3gDfUE7A3\r\neiajN4JcrzfSD4U3U8uwN0WTkTfmp6I31D2ZN9vhpTf+0oQ3DDmZN9DTgzfl3pA3Mv2eN3/3ljdB\r\nUZk3+/adN5ZIiTfK5qU3mqSIN35VdjeHLpY3pc+sN0y7gDdGXao35MWANx0inzeDP7A35fScNwjF\r\nmzceva43LKx/NwaKnzewzow3xLaVNztUmjfrNYc3zk+UN0xxqTc0Was3m8GXN40vizcx6Jo32HNc\r\nN8SllDdmbK43VNiQN1iTdTcdSKc3j9SbN42FdjfqHJ03n0adNw3ygjeG/JU3AKKSNw==",
                            "noiseTrainingType" : "default"
                          }
                        }
                    ],
                    "start" : 10179,
                    "duration" : 1859,
                    "mediaStart" : 2452,
                    "mediaDuration" : 1859,
                    "scalar" : 1,
                    "metadata" : {
                      "WinSubProjectDisplayName" : "",
                      "clipSpeedAttribute" : false
                    },
                    "animationTracks" : {

                    }
                  },
                  {
                    "id" : 92,
                    "_type" : "StitchedMedia",
                    "minMediaStart" : 0,
                    "attributes" : {
                      "ident" : "tower-arch-04",
                      "gain" : 1.0,
                      "mixToMono" : false
                    },
                    "parameters" : {
                      "volume" : 1.0,
                      "cursorOpacity" : 1.0,
                      "cursorScale" : 1.0
                    },
                    "medias" : [
                        {
                          "id" : 93,
                          "_type" : "AMFile",
                          "src" : 5,
                          "trackNumber" : 1,
                          "attributes" : {
                            "ident" : "Rec 02-03-20_005",
                            "sampleRate" : 44100,
                            "bitDepth" : 16,
                            "gain" : 1.0,
                            "mixToMono" : false
                          },
                            "channelNumber" : "0,1",
                          "effects" : [

                          ],
                          "start" : 0,
                          "duration" : 455,
                          "mediaStart" : 0,
                          "mediaDuration" : 455,
                          "scalar" : 1,
                          "metadata" : {
                            "WinSubProjectDisplayName" : "",
                            "clipSpeedAttribute" : false
                          },
                          "animationTracks" : {

                          }
                        },
                        {
                          "id" : 94,
                          "_type" : "AMFile",
                          "src" : 5,
                          "trackNumber" : 1,
                          "attributes" : {
                            "ident" : "Rec 02-03-20_005",
                            "sampleRate" : 44100,
                            "bitDepth" : 16,
                            "gain" : 1.0,
                            "mixToMono" : false
                          },
                            "channelNumber" : "0,1",
                          "effects" : [

                          ],
                          "start" : 455,
                          "duration" : 26,
                          "mediaStart" : 465,
                          "mediaDuration" : 26,
                          "scalar" : 1,
                          "metadata" : {
                            "WinSubProjectDisplayName" : "",
                            "clipSpeedAttribute" : false
                          },
                          "animationTracks" : {

                          }
                        },
                        {
                          "id" : 95,
                          "_type" : "AMFile",
                          "src" : 5,
                          "trackNumber" : 1,
                          "attributes" : {
                            "ident" : "Rec 02-03-20_005",
                            "sampleRate" : 44100,
                            "bitDepth" : 16,
                            "gain" : 1.0,
                            "mixToMono" : false
                          },
                            "channelNumber" : "0,1",
                          "effects" : [

                          ],
                          "start" : 481,
                          "duration" : 113,
                          "mediaStart" : 505,
                          "mediaDuration" : 113,
                          "scalar" : 1,
                          "metadata" : {
                            "WinSubProjectDisplayName" : "",
                            "clipSpeedAttribute" : false
                          },
                          "animationTracks" : {

                          }
                        },
                        {
                          "id" : 96,
                          "_type" : "AMFile",
                          "src" : 5,
                          "trackNumber" : 1,
                          "attributes" : {
                            "ident" : "Rec 02-03-20_005",
                            "sampleRate" : 44100,
                            "bitDepth" : 16,
                            "gain" : 1.0,
                            "mixToMono" : false
                          },
                            "channelNumber" : "0,1",
                          "effects" : [

                          ],
                          "start" : 594,
                          "duration" : 1177,
                          "mediaStart" : 738,
                          "mediaDuration" : 1177,
                          "scalar" : 1,
                          "metadata" : {
                            "WinSubProjectDisplayName" : "",
                            "clipSpeedAttribute" : false
                          },
                          "animationTracks" : {

                          }
                        },
                        {
                          "id" : 97,
                          "_type" : "AMFile",
                          "src" : 5,
                          "trackNumber" : 1,
                          "attributes" : {
                            "ident" : "Rec 02-03-20_005",
                            "sampleRate" : 44100,
                            "bitDepth" : 16,
                            "gain" : 1.0,
                            "mixToMono" : false
                          },
                            "channelNumber" : "0,1",
                          "effects" : [

                          ],
                          "start" : 1771,
                          "duration" : 882,
                          "mediaStart" : 1947,
                          "mediaDuration" : 882,
                          "scalar" : 1,
                          "metadata" : {
                            "WinSubProjectDisplayName" : "",
                            "clipSpeedAttribute" : false
                          },
                          "animationTracks" : {

                          }
                        },
                        {
                          "id" : 98,
                          "_type" : "AMFile",
                          "src" : 5,
                          "trackNumber" : 1,
                          "attributes" : {
                            "ident" : "Rec 02-03-20_005",
                            "sampleRate" : 44100,
                            "bitDepth" : 16,
                            "gain" : 1.0,
                            "mixToMono" : false
                          },
                            "channelNumber" : "0,1",
                          "effects" : [

                          ],
                          "start" : 2653,
                          "duration" : 331,
                          "mediaStart" : 2849,
                          "mediaDuration" : 331,
                          "scalar" : 1,
                          "metadata" : {
                            "WinSubProjectDisplayName" : "",
                            "clipSpeedAttribute" : false
                          },
                          "animationTracks" : {

                          }
                        },
                        {
                          "id" : 99,
                          "_type" : "AMFile",
                          "src" : 5,
                          "trackNumber" : 1,
                          "attributes" : {
                            "ident" : "Rec 02-03-20_005",
                            "sampleRate" : 44100,
                            "bitDepth" : 16,
                            "gain" : 1.0,
                            "mixToMono" : false
                          },
                            "channelNumber" : "0,1",
                          "effects" : [

                          ],
                          "start" : 2984,
                          "duration" : 91,
                          "mediaStart" : 3238,
                          "mediaDuration" : 91,
                          "scalar" : 1,
                          "metadata" : {
                            "WinSubProjectDisplayName" : "",
                            "clipSpeedAttribute" : false
                          },
                          "animationTracks" : {

                          }
                        },
                        {
                          "id" : 100,
                          "_type" : "AMFile",
                          "src" : 5,
                          "trackNumber" : 1,
                          "attributes" : {
                            "ident" : "Rec 02-03-20_005",
                            "sampleRate" : 44100,
                            "bitDepth" : 16,
                            "gain" : 1.0,
                            "mixToMono" : false
                          },
                            "channelNumber" : "0,1",
                          "effects" : [

                          ],
                          "start" : 3075,
                          "duration" : 193,
                          "mediaStart" : 3415,
                          "mediaDuration" : 193,
                          "scalar" : 1,
                          "metadata" : {
                            "WinSubProjectDisplayName" : "",
                            "clipSpeedAttribute" : false
                          },
                          "animationTracks" : {

                          }
                        },
                        {
                          "id" : 101,
                          "_type" : "AMFile",
                          "src" : 5,
                          "trackNumber" : 1,
                          "attributes" : {
                            "ident" : "Rec 02-03-20_005",
                            "sampleRate" : 44100,
                            "bitDepth" : 16,
                            "gain" : 1.0,
                            "mixToMono" : false
                          },
                            "channelNumber" : "0,1",
                          "effects" : [

                          ],
                          "start" : 3268,
                          "duration" : 71,
                          "mediaStart" : 3770,
                          "mediaDuration" : 71,
                          "scalar" : 1,
                          "metadata" : {
                            "WinSubProjectDisplayName" : "",
                            "clipSpeedAttribute" : false
                          },
                          "animationTracks" : {

                          }
                        },
                        {
                          "id" : 102,
                          "_type" : "AMFile",
                          "src" : 5,
                          "trackNumber" : 1,
                          "attributes" : {
                            "ident" : "Rec 02-03-20_005",
                            "sampleRate" : 44100,
                            "bitDepth" : 16,
                            "gain" : 1.0,
                            "mixToMono" : false
                          },
                            "channelNumber" : "0,1",
                          "effects" : [

                          ],
                          "start" : 3339,
                          "duration" : 516,
                          "mediaStart" : 3867,
                          "mediaDuration" : 516,
                          "scalar" : 1,
                          "metadata" : {
                            "WinSubProjectDisplayName" : "",
                            "clipSpeedAttribute" : false
                          },
                          "animationTracks" : {

                          }
                        },
                        {
                          "id" : 103,
                          "_type" : "AMFile",
                          "src" : 5,
                          "trackNumber" : 1,
                          "attributes" : {
                            "ident" : "Rec 02-03-20_005",
                            "sampleRate" : 44100,
                            "bitDepth" : 16,
                            "gain" : 1.0,
                            "mixToMono" : false
                          },
                            "channelNumber" : "0,1",
                          "effects" : [

                          ],
                          "start" : 3855,
                          "duration" : 133,
                          "mediaStart" : 4421,
                          "mediaDuration" : 133,
                          "scalar" : 1,
                          "metadata" : {
                            "WinSubProjectDisplayName" : "",
                            "clipSpeedAttribute" : false
                          },
                          "animationTracks" : {

                          }
                        },
                        {
                          "id" : 104,
                          "_type" : "AMFile",
                          "src" : 5,
                          "trackNumber" : 1,
                          "attributes" : {
                            "ident" : "Rec 02-03-20_005",
                            "sampleRate" : 44100,
                            "bitDepth" : 16,
                            "gain" : 1.0,
                            "mixToMono" : false
                          },
                            "channelNumber" : "0,1",
                          "effects" : [

                          ],
                          "start" : 3988,
                          "duration" : 615,
                          "mediaStart" : 4592,
                          "mediaDuration" : 615,
                          "scalar" : 1,
                          "metadata" : {
                            "WinSubProjectDisplayName" : "",
                            "clipSpeedAttribute" : false
                          },
                          "animationTracks" : {

                          }
                        },
                        {
                          "id" : 105,
                          "_type" : "AMFile",
                          "src" : 5,
                          "trackNumber" : 1,
                          "attributes" : {
                            "ident" : "Rec 02-03-20_005",
                            "sampleRate" : 44100,
                            "bitDepth" : 16,
                            "gain" : 1.0,
                            "mixToMono" : false
                          },
                            "channelNumber" : "0,1",
                          "effects" : [

                          ],
                          "start" : 4603,
                          "duration" : 3497,
                          "mediaStart" : 5339,
                          "mediaDuration" : 3497,
                          "scalar" : 1,
                          "metadata" : {
                            "WinSubProjectDisplayName" : "",
                            "clipSpeedAttribute" : false
                          },
                          "animationTracks" : {

                          }
                        }
                    ],
                    "effects" : [
                        {
                          "effectName" : "NoiseReduction",
                          "category" : "categoryAudioEffects",
                          "parameters" : {
                            "denoiserAmount" : 20.0,
                            "denoiserThreshold" : 0.0,
                            "noiseProfile" : "wy93P+yPJkBUPNc+gnV3PoD6Gz8xbytAkbGVP8NEsT881Tg/BFvIP49RsD4GeJc/TGlwPnTfAT8X\r\nS2E/HSptPsgBZz0ND4I99/gmP/5zOT+Sens/SGI4P7sp3j67VfM+8D0dP1SJYT+OkFk/75tpP81/\r\n8T/g3Ys/u3AZQNPJoUCqS5ZAH+vRQKuR1kAHKsg/cyTzQAFE7ECbXSFAOjPNPxlWgEA2dBJAgm6P\r\nQB6m7z9F64ZAOL0NPz4yuz4cgZw+wGx6Ptklkj4WIu0+nC+oPrTLjD5QZaM+3GWHP2DFpz9hHNA+\r\nvBtnPwvAZj+GnLI+haACP9zNMT7+FEY/2PydP70mzz/SnhM/zXdDPzjlWD+MJF9Abg9HQKkCzj/T\r\n1LU/VoXJP4Sypz+XhPc+mK5rP9nnAD/WmTw+QXiAP2O93j6F7BQ+1VYFP8I2+j0hGgY+nqrWPd2a\r\nkD3wraA99WAcPubkiT6+dvY+6KjjPeB+Fz64KQ0+VBwUPnRLFz5mnAI+FEt8PbA1Jz4WNYo9tttb\r\nPczHhT0/GCk9T/+iPQRIqz3JyyI+f803PdihdT2G0rQ9hunaPJGroj2UGKs9s7wKPShlqj28iGU9\r\nx0PwPdITZT6kpSU+2xVlPUg24zwiJ4M9XEmcPZgonj32IME9XY+2PUI/Ej7CVRw+aAcTPUIbwz35\r\nUVI9yERePdZITz1UhtI8GoAtPTqzCj/wUFI+PFehPWDJ0DygThY+n/r6PFxaRD1L7GU98FEtPudM\r\nyD0enDc+TVOpPQ4CHD1jpsw8VKuOPDzm7Dw8wUI9AEKlPDXbvDxB3jI9z3jGPJrMfjxoBsM8WUYM\r\nPdsE7DysNuQ9maNIPbs4ID2LVcs9DhtXPYZYTz2J5wk9EDuIPQrexj2f4eQ8t6ATPdRO9DwtPg89\r\nWN76PPq03TxtZvo85yhYPSQUHD1Dks49RsVLPZTT/TyavjU9VMjAPPF50DxyYOg89EMCPeCRejzS\r\n+yY8VsYyPPXYLz0Sf7085qZRPMhqpDz7AAA8qjrGPM5bij1+Zsc8W9VYPcYoUz0AUME9pJZTPaLR\r\nPz5E2eo8mQwoPaCfTTxxGIU8VOCsPMiGFD6P5oU8HrnpPDsJxTzpFCs8rJskPICdWT3GP/w8QYny\r\nPFQHAD2x10g8pvwXPYnufT2ViHY9aiNhPJmFBj5F0Ho+jL+XPuzuhD7lR0c/B1Q3P0HLOj/W2Bk/\r\nOkrkPpKO9T+H/zFA/lVFPx9DnUCGvr4/A5WYPyqVED6AWYc+MsFEP3pJgDzRBzM/EbW5Pngz4D3Q\r\nSco9ZBf8PfB2sz8qUWY9ob3+P1kZgUCCLm0/DNmhPoiSnj5H1Dk/7GiXPsoyDj7qS1g/gVsfPuuy\r\nAD5EZyE+iX4RPOVVRDyf8AA8UiJDPjY7ND6PlRk8teV3PegE/DzU9ok8KuEWPSlv0TwxpZE8BkgO\r\nPaH/ND1E9Jc8epTiPAjS2D1kP3c9kiVhPI8lJDyTjIc8BSl+PQ8xBD3xkGA8zcgfPB9EojwcBrk7\r\n/5SKOyzFTzwmqDU8DCQXPWQCGzy6wQw8NCYWPATQQTxyuhk9UqWVPENiMTyYnbA73b8SPITfSDuX\r\n3LU7YwgYPDxm1jvcINU7JEeCPNvrRTw+UNw7GnWvO5hQ8Dvelm07tGaaO/kpKj3+OhU9x/MkPNwl\r\n0zsHKJQ7a8ZHPXxseT0j5uo8QHBGPHAFzDzQ5bg7jUq/PLnnnTwhOYo8hKyRPEONnDsSv947891H\r\nO0a5jDvw1no69P6tOsLhuDrQK307QGaBO6irKzvGfP07EMO3OuTe+DnwhL86nxPcOqxnlDpjwC06\r\niz9SObErxTnYjcI5/TS/Oa6AhzlIH/w5aMBgOa9+JDmWe0Q5pvE+Oe4/8ziuA185dSZBOZ0SDTlM\r\nkd44dm4LOQg7Ljn49+g4G7HCOVgGsDgsg8M47undOPMv8TjgO6c4psegOjjahDlM2N84ZbnVOKQX\r\n6Dg68xY5rjnlOG6XzTgguac4VC6zODzBhTgELt04Nn/+OKGZuTglacQ4/7THODc3njiijXk4Pbi+\r\nOHeXjjjGTqE4BgqhOHVsmzj63JU4F9SuOEuDjTgan5w4dfWROAKZjDi3x4w4q3ONOKzekjh9jo04\r\nkAmIOMJDlThSG4s4jU6HODYSlThKdIg4gON7OH13fzia84c4FudxOCiWajjeDIU4wkx+ONcEfjjG\r\nmnI4/oJ6OP2igzgTWII4+SCVOJUHdji/7oA4i/hrOLOVXziWa1w41ONvOLSxTjis5nc4DNVcOPj2\r\ncDhazWQ4yuhuOLvXXTg0F0w4+DlXON1SWTiG7k84xCFdOD7iaDjW7kY4QCxTONZ5VThYGjw4wKVm\r\nOJUSXDgS6zk4dWlNOFVDRDh9+kA4rn1MOMhNWzj8MmI4a0VROL6PUDiZxjU4CihSOJp7TThR/1E4\r\nbHU6OE3hOjjMETw4tTIuOO3eLjhRcyc4jLkxONhMPzg+UCA4CowtOBCiKjjbTzo4+NtEOMc9PjjW\r\n9C44EgJbOF7hMDj/jTU4AoMgOD7PODiCLS84DCVCOIa3PzhVnSI4YH8ZOEgVLjge5TQ4Kp8jOAI7\r\nKjhGfyE4D0kgOFxyKTg2VDE4EoA6OI5TNjiK+SA4RHcgOK8ZGDjLLCk4inogOAn7GDhCBCc4Pnke\r\nOO5CNDgCnCI4LnsgOL9IEThuwhw42G4fOCq5CzjQdRc4Aio1OB8/OzhW5Bk4lsoUOHitFzgAARI4\r\nkrsJOOSiGTjkpCg4mWkqOLQJKzjasTs4DgcoOEyvBjgjVhE4+kkqOG4XLTgiMhI4Uj4hOMpcFjiW\r\nWwk4KBEsOJTSBjgSGxk4dIcIONYTHTjbYx84vwUKOGVWGzhmchU49q8GOKSeGzjMLhg47gvpNw5C\r\n8Dd0XA44EQ/9N//uAjhlgAc4pD79N45RHDgNUv83lN8COFkWFThaXQo42SITOI7i8TdxRhE4okrl\r\nN3Rn9zdNWgQ4gMb8NxWi/Ddusw44zAb4N7xnBDhgXg44ODMVOFRk/zc9Pt83+O8EOPIkDTgyMwY4\r\n2iMHOBo37zeoHgA4lEkUOBBPAjgHcv83mATzN109BTjtI883eHvXN6qfCDgDEvU3XtXXNwwT/zdc\r\nQOI3Cs73N2HGAjhc2e43cDr4N2kt5zdrz9c30Eb+N14Y+jcS7P43llQIOIqn/zcqEdo3zxgBOOAO\r\n+zcSMvc3KM4EOBPC6jfM7gI4flXFN9fN/zcs0OM34ErdN5JW8Dc4d+k3Kt3xN3do1jdrKPk3hXf4\r\nNzxH1jfYdwk4TzPYN+2KAzhKuvI3g+HxN7UTxDd01/U30l/5N7YR1DeaR9s3mAviNzbN2DeChNs3\r\nQTnvN8Qj3DfNSNs3OvDrN47Y5TdGlNA3PbnUN3BW4DevFcc3yDniN1LqBzjgtdg3RtLaN7zKxjfs\r\na88356vSN8mQwzdDIN03PljKN6XHujd6N9k3GHfDN1DjzTdH3fI39qfaN4a1zzeqts03Ja+0N2a4\r\nyjfs/cY3IXQEOH+R3TdjctY3QTPMNy4u1TdGQck3nFDTN0JNzTez+bE3QlbeN2pAyTcYzs83cqK5\r\nN7T6tDeAbOU3BcbON1cS1je6rcU3t9PENyIZ2DdggNo3ZvCzN06kwDcBR8w30ETON8hZzTd2EdE3\r\n9AvENw2vsDd/NdE3ArzYN4eNuTfgTs83PobWN4F8xjdsjL43jODeN2MFsjdoNN03/Cm2N/mr3jfo\r\nmcE3JI62N7cbyzfKje03KceuN4SswjeAgrM3E8fFNzKjzTdsl9E3OSDHN4onvjefJec31qOzN6wN\r\nzDc58ak3u0bAN+BGzje7AL43n4GyN+mXvTdBpsQ3aXCxNzyxwzfcUa03FqLBN9Tq2TfoDrs3aWbA\r\nN9lcojd1mbY3DDKvNyPUsjfYbbU37hebN2xUrzde48U3nOLUN6mu0Tcl7rI3m8GsN84trzciW7A3\r\nfA7UN7Rgzzdfz7U3QkGxN1W3yTfeKJY3VySpN+wRuTdGGaY3ic+kNzj+wjdbhbA3lJC+N8YdpjeE\r\nxMY3baGuN0aukzeMZbY38kCnN1xQqzcnvJg3PpbeN2GDyDfE2pU39JOnN+iqqzeI1Zw3x4+kNz81\r\ntzfcsqQ3rY3ON07RpjfzmKI3MRGzN6YAsTfJwbs39A/ENwT+sTdMCsE30heuN6qqrzfw/aE3tV6s\r\nNxLbtDfEZag355arN1C0ozexeI03f16ON7pspDfUBbw3Ae60NyjfqTe1DMI3Iuu1N6p0tTf3R8o3\r\np46wN5i1sDe4obA3OCOyN0jDnjcvWKY3efakN3bCtjfgFJ83JDfCN//KnDdVB6Y3nKSjNxnN0jfU\r\nNcM3paasN3g+mDcsL683DzG5N8KrsDdqMp03duygN6JqlDer7q83CvevN0K0qzccZ6E3ZqWmNwvJ\r\noTcLvbo3EwGtNxiTuzcr6as3wL6kN4vqhjfp9JM3oEe4N4hIrjcpoZY37OSpNwteqTdIeJE3rJen\r\nN/sBkDe29ZY3qACrN156rzdpKow3PficN1atojfG+po33TGVN+QgmjezH9Y3s0izN/omnjcMP7M3\r\njqKoNw1Ctjcp1Io3xQidN2gKkDeqW5M3cWzAN/aznzdXUpY3c2aZN8bRrzcxE7w359K8N47chzd5\r\nEoE3ktWyN7pxijem3K83bXKBN8CPmDcEX6s3kjKZNwAqnDf4pZ833DyYNxXChDeoUJ43XHGuN5MB\r\nsTex14Q3Wle/N10RjDeQ7p03lUSbNwjalTdzoaY3cAWpN1WrlDeK1qc3vo9/N3DUrDdu5bU39Ryz\r\nN0HXkjdJLoI3vyajN+g3ozf+qZU3GcuMNzCzszcbEqY329WYN6FIbjfLSp03G1+lNz57lzfNnYw3\r\ntDGgN/1HkjePn5I3kYyKNx7+oTd5f4o3J36NN4eEmjcr+rM3d1ujNyX1ujdL0Zc3CbSjNzJcsTc4\r\n1bE39wy4N+E6qjc2GI43hwmNN0EcnTeN8KU3B/+WNwN5tTd8O4U3JHqONxAVuTcVZIg3CregN57j\r\nizd5wKs3P6eVNwOEmDelVrM3UOCbN/cqnzdrspc3CZ+lN8eCpDfjHKM312qSN5jRnDfPWLM3tqCF\r\nN0tKgzfs34U3EMOWN6UQozcLfok3oZyPN0FehDdNrG03C7OlN3V/lzfU4pQ3pQ19N/ZCjzcWd4A3\r\n1BOwN3omozeCXK830g+FN1PLsDdFk5E35qeiN9Q9mTfb4aU3/tKENww5mTfQ04M35d6QNzL9njd/\r\n95Y3QVGZN/v2nTeWSIk3yualN5qkiDd+VXY3hy6WN6XPrDdMu4A3Rl2qN+TFgDcdIp83gz+wN+X0\r\nnDcIxZs3Hr2uNyysfzcGip83sM6MN8S2lTc7VJo36zWHN85PlDdMcak3NFmrN5vBlzeNL4s3Meia\r\nN9hzXDfEpZQ3ZmyuN1TYkDdYk3U3HUinN4/UmzeNhXY36hydN59GnTcN8oI3hvyVNwCikjfDL3c/\r\n7I8mQFQ81z4xXHc+tggcPyJnK0CRsZU/w0SxPzzVOD8TZMg/tYKwPqSGlz9MaXA+dN8BPxdLYT8d\r\nKm0+yAFnPQ0Pgj0l5yY/pDg5P/+Oez8iRjg/5D7ePmY88z60Ph0/9JthP46QWT/vm2k/M4zxP+Dd\r\niz/1YxlAzt2hQKpLlkAf69FAq5HWQAcqyD89IvNAoUvsQJtdIUAdDs0/GVaAQDZ0EkCCbo9AHqbv\r\nP0XrhkCxxA0/PjK7PhyBnD7AbHo+cfKRPhYi7T7ZJ6g+1tCMPlBloz6yYYc//a6nP2Ec0D5EEmc/\r\np6BmP4acsj6FoAI/2r8xPv4URj/Y/J0/vSbPP9KeEz9km0M/OOVYP4wkX0BuD0dAqQLOP4nAtT9W\r\nhck/hLKnP5eE9z6Yrms/2ecAP9aZPD5BeIA/Y73ePuaTFD7VVgU/wjb6PSEaBj6eqtY93ZqQPfCt\r\noD31YBw+5uSJPr529j7oqOM94H4XPrgpDT4qNRQ+dEsXPmacAj4US3w9sDUnPhY1ij2221s9zMeF\r\nPUlOKT1P/6I9BEirPcnLIj5/zTc92KF1PYbStD2G6do8kauiPaR3qz0Umwo9KGWqPRYUZj0Y7O89\r\nQYllPruhJT7bFWU9SDbjPALCgj1cSZw9GrmePfYgwT1dj7Y9wj4SPi53HD40yhI9oQfDPflRUj0K\r\nQ1091khPPbhz0jwagC09OrMKP78kUj48V6E9As/QPKBOFj6f+vo8XFpEPUvsZT3wUS0+I07IPZKX\r\nNz5NU6k9DgIcPWOmzDxUq448PObsPKTAQj0AQqU8Ndu8PKcUMz1i98U8msx+PKOrwjzeMww9a6Xq\r\nPMpi5D2Zo0g9uzggPYtVyz0OG1c9hlhPPYnnCT3gXIg9h7DGPZ/h5Dy3oBM91E70PC0+Dz1Y3vo8\r\n+rTdPDUZ+zznKFg9D9wbPaX2zj2S9ks9lNP9PJq+NT1u48E88XnQPHJg6Dz0QwI94JF6PO44JjxW\r\nxjI89dgvPQhsvTzmplE8MuSkPPsAADyqOsY8zluKPX5mxzxb1Vg9xihTPQBQwT2kllM9otE/PkTZ\r\n6jwP1Sg9yORNPHEYhTxU4Kw8yIYUPo/mhTweuek8OwnFPOkUKzy4lCU8gJ1ZPcY//DxBifI8VAcA\r\nPbHXSDym/Bc9ie59PZWIdj1qI2E8mYUGPkXQej6Mv5c+7O6EPuVHRz8HVDc/Qcs6P9bYGT86SuQ+\r\nko71P4f/MUD+VUU/H0OdQIa+vj8DlZg/KpUQPoBZhz4ywUQ/ekmAPNEHMz8Rtbk+eDPgPdBJyj1k\r\nF/w98HazPypRZj2hvf4/WRmBQIIubT8M2aE+iJKePkfUOT/saJc+yjIOPupLWD+BWx8+67IAPkRn\r\nIT6JfhE85VVEPHrTATxSIkM+Njs0PpUdGjy15Xc96AT8PDnriTwq4RY9KW/RPPzdkTzUXA49GzE1\r\nPSTYlzwyJuE8CNLYPWQ/dz2SJWE8NiwkPJOMhzwFKX49DzEEPfGQYDzmBSA8H0SiPNyguTv/lIo7\r\nLMVPPCaoNTwMJBc9ZAIbPLrBDDw0JhY8DthAPHK6GT0655Q8Q2IxPGpwsTvdvxI8hN9IO4TvtTus\r\nhBc8PGbWO9wg1TskR4I82+tFPLZC2jsada87mFDwO7OdbDu0Zpo7+SkqPf46FT3H8yQ83CXTOwco\r\nlDtrxkc9fGx5PSPm6jxAcEY8cAXMPNDluDuNSr88ueedPCE5ijzV9JA8EZicOxK/3jvz3Uc7RrmM\r\nO/DWejr0/q06f6e4OtArfTtAZoE7qKsrO8Z8/TvRJ7c65N74ObogwDoVd9o6rGeUOj1jLzoQQUg5\r\nUpbGOdiNwjn9NL85x42FOUgf/DlowGA5r34kOZZ7RDmm8T45qunmOK4DXzl1JkE5nRINOUyR3jh2\r\nbgs5CDsuOfj36DgbscI5WAawOCyDwzju6d048y/xOOA7pzimx6A6ONqEOUzY3zhludU4pBfoODrz\r\nFjmuOeU4bpfNOCC5pzhULrM4PMGFOAQu3Tg2f/44oZm5OCVpxDj/tMc4NzeeOKKNeTg9uL44d5eO\r\nOMZOoTgGCqE4dWybOPrclTgX1K44S4ONOBqfnDh19ZE4ApmMOLfHjDirc404rN6SOH2OjTiQCYg4\r\nwkOVOFIbiziNToc4NhKVOEp0iDiA43s4fXd/OJrzhzgW53E4KJZqON4MhTjCTH441wR+OMaacjj+\r\ngno4/aKDOBNYgjj5IJU4lQd2OL/ugDiL+Gs4s5VfOJZrXDjU4284tLFOOKzmdzgM1Vw4+PZwOFrN\r\nZDjK6G44u9ddODQXTDj4OVc43VJZOIbuTzjEIV04PuJoONbuRjhALFM41nlVOFgaPDjApWY4lRJc\r\nOBLrOTh1aU04VUNEOH36QDiufUw4yE1bOPwyYjhrRVE4vo9QOJnGNTgKKFI4mntNOFH/UThsdTo4\r\nTeE6OMwRPDi1Mi447d4uOFFzJziMuTE42Ew/OD5QIDgKjC04EKIqONtPOjj420Q4xz0+ONb0LjgS\r\nAls4XuEwOP+NNTgCgyA4Ps84OIItLzgMJUI4hrc/OFWdIjhgfxk4SBUuOB7lNDgqnyM4AjsqOEZ/\r\nITgPSSA4XHIpODZUMTgSgDo4jlM2OIr5IDhEdyA4rxkYOMssKTiKeiA4CfsYOEIEJzg+eR447kI0\r\nOAKcIjgueyA4v0gROG7CHDjYbh84KrkLONB1FzgCKjU4Hz87OFbkGTiWyhQ4eK0XOAABEjiSuwk4\r\n5KIZOOSkKDiZaSo4tAkrONqxOzgOByg4TK8GOCNWETj6SSo4bhctOCIyEjhSPiE4ylwWOJZbCTgo\r\nESw4lNIGOBIbGTh0hwg41hMdONtjHzi/BQo4ZVYbOGZyFTj2rwY4pJ4bOMwuGDjuC+k3DkLwN3Rc\r\nDjgRD/03/+4COGWABzikPv03jlEcOA1S/zeU3wI4WRYVOFpdCjjZIhM4juLxN3FGETiiSuU3dGf3\r\nN01aBDiAxvw3FaL8N26zDjjMBvg3vGcEOGBeDjg4MxU4VGT/Nz0+3zf47wQ48iQNODIzBjjaIwc4\r\nGjfvN6geADiUSRQ4EE8COAdy/zeYBPM3XT0FOO0jzzd4e9c3qp8IOAMS9Tde1dc3DBP/N1xA4jcK\r\nzvc3YcYCOFzZ7jdwOvg3aS3nN2vP1zfQRv43Xhj6NxLs/jeWVAg4iqf/NyoR2jfPGAE44A77NxIy\r\n9zcozgQ4E8LqN8zuAjh+VcU3183/NyzQ4zfgSt03klbwNzh36Tcq3fE3d2jWN2so+TeFd/g3PEfW\r\nN9h3CThPM9g37YoDOEq68jeD4fE3tRPEN3TX9TfSX/k3thHUN5pH2zeYC+I3Ns3YN4KE2zdBOe83\r\nxCPcN81I2zc68Os3jtjlN0aU0Dc9udQ3cFbgN68VxzfIOeI3UuoHOOC12DdG0to3vMrGN+xrzzfn\r\nq9I3yZDDN0Mg3Tc+WMo3pce6N3o32TcYd8M3UOPNN0fd8jf2p9o3hrXPN6q2zTclr7Q3ZrjKN+z9\r\nxjchdAQ4f5HdN2Ny1jdBM8w3Li7VN0ZByTecUNM3Qk3NN7P5sTdCVt43akDJNxjOzzdyork3tPq0\r\nN4Bs5TcFxs43VxLWN7qtxTe308Q3IhnYN2CA2jdm8LM3TqTANwFHzDfQRM43yFnNN3YR0Tf0C8Q3\r\nDa+wN3810TcCvNg3h425N+BOzzc+htY3gXzGN2yMvjeM4N43YwWyN2g03Tf8KbY3+aveN+iZwTck\r\njrY3txvLN8qN7Tcpx643hKzCN4CCszcTx8U3MqPNN2yX0Tc5IMc3iie+N58l5zfWo7M3rA3MNznx\r\nqTe7RsA34EbON7sAvjefgbI36Ze9N0GmxDdpcLE3PLHDN9xRrTcWosE31OrZN+gOuzdpZsA32Vyi\r\nN3WZtjcMMq83I9SyN9httTfuF5s3bFSvN17jxTec4tQ3qa7RNyXusjebwaw3zi2vNyJbsDd8DtQ3\r\ntGDPN1/PtTdCQbE3VbfJN94oljdXJKk37BG5N0YZpjeJz6Q3OP7CN1uFsDeUkL43xh2mN4TExjdt\r\noa43Rq6TN4xltjfyQKc3XFCrNye8mDc+lt43YYPIN8TalTf0k6c36KqrN4jVnDfHj6Q3PzW3N9yy\r\npDetjc43TtGmN/OYojcxEbM3pgCxN8nBuzf0D8Q3BP6xN0wKwTfSF643qqqvN/D9oTe1Xqw3Etu0\r\nN8RlqDfnlqs3ULSjN7F4jTd/Xo43umykN9QFvDcB7rQ3KN+pN7UMwjci67U3qnS1N/dHyjenjrA3\r\nmLWwN7ihsDc4I7I3SMOeNy9Ypjd59qQ3dsK2N+AUnzckN8I3/8qcN1UHpjecpKM3Gc3SN9Q1wzel\r\npqw3eD6YNywvrzcPMbk3wquwN2oynTd27KA3omqUN6vurzcK9683QrSrNxxnoTdmpaY3C8mhNwu9\r\nujcTAa03GJO7NyvpqzfAvqQ3i+qGN+n0kzegR7g3iEiuNymhljfs5Kk3C16pN0h4kTesl6c3+wGQ\r\nN7b1ljeoAKs3XnqvN2kqjDc9+Jw3Vq2iN8b6mjfdMZU35CCaN7Mf1jezSLM3+iaeNww/szeOoqg3\r\nDUK2NynUijfFCJ03aAqQN6pbkzdxbMA39rOfN1dSljdzZpk3xtGvNzETvDfn0rw3jtyHN3kSgTeS\r\n1bI3unGKN6bcrzdtcoE3wI+YNwRfqzeSMpk3ACqcN/ilnzfcPJg3FcKEN6hQnjdcca43kwGxN7HX\r\nhDdaV783XRGMN5DunTeVRJs3CNqVN3OhpjdwBak3VauUN4rWpze+j383cNSsN27ltTf1HLM3QdeS\r\nN0kugje/JqM36DejN/6plTcZy4w3MLOzNxsSpjfb1Zg3oUhuN8tKnTcbX6U3PnuXN82djDe0MaA3\r\n/UeSN4+fkjeRjIo3Hv6hN3l/ijcnfo03h4SaNyv6szd3W6M3JfW6N0vRlzcJtKM3MlyxNzjVsTf3\r\nDLg34TqqNzYYjjeHCY03QRydN43wpTcH/5Y3A3m1N3w7hTckeo43EBW5NxVkiDcKt6A3nuOLN3nA\r\nqzc/p5U3A4SYN6VWszdQ4Js39yqfN2uylzcJn6U3x4KkN+McozfXapI3mNGcN89Ysze2oIU3S0qD\r\nN+zfhTcQw5Y3pRCjNwt+iTehnI83QV6EN02sbTcLs6U3dX+XN9TilDelDX039kKPNxZ3gDfUE7A3\r\neiajN4JcrzfSD4U3U8uwN0WTkTfmp6I31D2ZN9vhpTf+0oQ3DDmZN9DTgzfl3pA3Mv2eN3/3ljdB\r\nUZk3+/adN5ZIiTfK5qU3mqSIN35VdjeHLpY3pc+sN0y7gDdGXao35MWANx0inzeDP7A35fScNwjF\r\nmzceva43LKx/NwaKnzewzow3xLaVNztUmjfrNYc3zk+UN0xxqTc0Was3m8GXN40vizcx6Jo32HNc\r\nN8SllDdmbK43VNiQN1iTdTcdSKc3j9SbN42FdjfqHJ03n0adNw3ygjeG/JU3AKKSNw==",
                            "noiseTrainingType" : "default"
                          }
                        }
                    ],
                    "start" : 12038,
                    "duration" : 309,
                    "mediaStart" : 4543,
                    "mediaDuration" : 309,
                    "scalar" : 1,
                    "metadata" : {
                      "WinSubProjectDisplayName" : "",
                      "clipSpeedAttribute" : false
                    },
                    "animationTracks" : {

                    }
                  },
                  {
                    "id" : 106,
                    "_type" : "StitchedMedia",
                    "minMediaStart" : 0,
                    "attributes" : {
                      "ident" : "tower-arch-04",
                      "gain" : 1.0,
                      "mixToMono" : false
                    },
                    "parameters" : {
                      "volume" : 1.0,
                      "cursorOpacity" : 1.0,
                      "cursorScale" : 1.0
                    },
                    "medias" : [
                        {
                          "id" : 107,
                          "_type" : "AMFile",
                          "src" : 5,
                          "trackNumber" : 1,
                          "attributes" : {
                            "ident" : "Rec 02-03-20_005",
                            "sampleRate" : 44100,
                            "bitDepth" : 16,
                            "gain" : 1.0,
                            "mixToMono" : false
                          },
                            "channelNumber" : "0,1",
                          "effects" : [

                          ],
                          "start" : 0,
                          "duration" : 455,
                          "mediaStart" : 0,
                          "mediaDuration" : 455,
                          "scalar" : 1,
                          "metadata" : {
                            "WinSubProjectDisplayName" : "",
                            "clipSpeedAttribute" : false
                          },
                          "animationTracks" : {

                          }
                        },
                        {
                          "id" : 108,
                          "_type" : "AMFile",
                          "src" : 5,
                          "trackNumber" : 1,
                          "attributes" : {
                            "ident" : "Rec 02-03-20_005",
                            "sampleRate" : 44100,
                            "bitDepth" : 16,
                            "gain" : 1.0,
                            "mixToMono" : false
                          },
                            "channelNumber" : "0,1",
                          "effects" : [

                          ],
                          "start" : 455,
                          "duration" : 26,
                          "mediaStart" : 465,
                          "mediaDuration" : 26,
                          "scalar" : 1,
                          "metadata" : {
                            "WinSubProjectDisplayName" : "",
                            "clipSpeedAttribute" : false
                          },
                          "animationTracks" : {

                          }
                        },
                        {
                          "id" : 109,
                          "_type" : "AMFile",
                          "src" : 5,
                          "trackNumber" : 1,
                          "attributes" : {
                            "ident" : "Rec 02-03-20_005",
                            "sampleRate" : 44100,
                            "bitDepth" : 16,
                            "gain" : 1.0,
                            "mixToMono" : false
                          },
                            "channelNumber" : "0,1",
                          "effects" : [

                          ],
                          "start" : 481,
                          "duration" : 113,
                          "mediaStart" : 505,
                          "mediaDuration" : 113,
                          "scalar" : 1,
                          "metadata" : {
                            "WinSubProjectDisplayName" : "",
                            "clipSpeedAttribute" : false
                          },
                          "animationTracks" : {

                          }
                        },
                        {
                          "id" : 110,
                          "_type" : "AMFile",
                          "src" : 5,
                          "trackNumber" : 1,
                          "attributes" : {
                            "ident" : "Rec 02-03-20_005",
                            "sampleRate" : 44100,
                            "bitDepth" : 16,
                            "gain" : 1.0,
                            "mixToMono" : false
                          },
                            "channelNumber" : "0,1",
                          "effects" : [

                          ],
                          "start" : 594,
                          "duration" : 1177,
                          "mediaStart" : 738,
                          "mediaDuration" : 1177,
                          "scalar" : 1,
                          "metadata" : {
                            "WinSubProjectDisplayName" : "",
                            "clipSpeedAttribute" : false
                          },
                          "animationTracks" : {

                          }
                        },
                        {
                          "id" : 111,
                          "_type" : "AMFile",
                          "src" : 5,
                          "trackNumber" : 1,
                          "attributes" : {
                            "ident" : "Rec 02-03-20_005",
                            "sampleRate" : 44100,
                            "bitDepth" : 16,
                            "gain" : 1.0,
                            "mixToMono" : false
                          },
                            "channelNumber" : "0,1",
                          "effects" : [

                          ],
                          "start" : 1771,
                          "duration" : 882,
                          "mediaStart" : 1947,
                          "mediaDuration" : 882,
                          "scalar" : 1,
                          "metadata" : {
                            "WinSubProjectDisplayName" : "",
                            "clipSpeedAttribute" : false
                          },
                          "animationTracks" : {

                          }
                        },
                        {
                          "id" : 112,
                          "_type" : "AMFile",
                          "src" : 5,
                          "trackNumber" : 1,
                          "attributes" : {
                            "ident" : "Rec 02-03-20_005",
                            "sampleRate" : 44100,
                            "bitDepth" : 16,
                            "gain" : 1.0,
                            "mixToMono" : false
                          },
                            "channelNumber" : "0,1",
                          "effects" : [

                          ],
                          "start" : 2653,
                          "duration" : 331,
                          "mediaStart" : 2849,
                          "mediaDuration" : 331,
                          "scalar" : 1,
                          "metadata" : {
                            "WinSubProjectDisplayName" : "",
                            "clipSpeedAttribute" : false
                          },
                          "animationTracks" : {

                          }
                        },
                        {
                          "id" : 113,
                          "_type" : "AMFile",
                          "src" : 5,
                          "trackNumber" : 1,
                          "attributes" : {
                            "ident" : "Rec 02-03-20_005",
                            "sampleRate" : 44100,
                            "bitDepth" : 16,
                            "gain" : 1.0,
                            "mixToMono" : false
                          },
                            "channelNumber" : "0,1",
                          "effects" : [

                          ],
                          "start" : 2984,
                          "duration" : 91,
                          "mediaStart" : 3238,
                          "mediaDuration" : 91,
                          "scalar" : 1,
                          "metadata" : {
                            "WinSubProjectDisplayName" : "",
                            "clipSpeedAttribute" : false
                          },
                          "animationTracks" : {

                          }
                        },
                        {
                          "id" : 114,
                          "_type" : "AMFile",
                          "src" : 5,
                          "trackNumber" : 1,
                          "attributes" : {
                            "ident" : "Rec 02-03-20_005",
                            "sampleRate" : 44100,
                            "bitDepth" : 16,
                            "gain" : 1.0,
                            "mixToMono" : false
                          },
                            "channelNumber" : "0,1",
                          "effects" : [

                          ],
                          "start" : 3075,
                          "duration" : 193,
                          "mediaStart" : 3415,
                          "mediaDuration" : 193,
                          "scalar" : 1,
                          "metadata" : {
                            "WinSubProjectDisplayName" : "",
                            "clipSpeedAttribute" : false
                          },
                          "animationTracks" : {

                          }
                        },
                        {
                          "id" : 115,
                          "_type" : "AMFile",
                          "src" : 5,
                          "trackNumber" : 1,
                          "attributes" : {
                            "ident" : "Rec 02-03-20_005",
                            "sampleRate" : 44100,
                            "bitDepth" : 16,
                            "gain" : 1.0,
                            "mixToMono" : false
                          },
                            "channelNumber" : "0,1",
                          "effects" : [

                          ],
                          "start" : 3268,
                          "duration" : 71,
                          "mediaStart" : 3770,
                          "mediaDuration" : 71,
                          "scalar" : 1,
                          "metadata" : {
                            "WinSubProjectDisplayName" : "",
                            "clipSpeedAttribute" : false
                          },
                          "animationTracks" : {

                          }
                        },
                        {
                          "id" : 116,
                          "_type" : "AMFile",
                          "src" : 5,
                          "trackNumber" : 1,
                          "attributes" : {
                            "ident" : "Rec 02-03-20_005",
                            "sampleRate" : 44100,
                            "bitDepth" : 16,
                            "gain" : 1.0,
                            "mixToMono" : false
                          },
                            "channelNumber" : "0,1",
                          "effects" : [

                          ],
                          "start" : 3339,
                          "duration" : 516,
                          "mediaStart" : 3867,
                          "mediaDuration" : 516,
                          "scalar" : 1,
                          "metadata" : {
                            "WinSubProjectDisplayName" : "",
                            "clipSpeedAttribute" : false
                          },
                          "animationTracks" : {

                          }
                        },
                        {
                          "id" : 117,
                          "_type" : "AMFile",
                          "src" : 5,
                          "trackNumber" : 1,
                          "attributes" : {
                            "ident" : "Rec 02-03-20_005",
                            "sampleRate" : 44100,
                            "bitDepth" : 16,
                            "gain" : 1.0,
                            "mixToMono" : false
                          },
                            "channelNumber" : "0,1",
                          "effects" : [

                          ],
                          "start" : 3855,
                          "duration" : 133,
                          "mediaStart" : 4421,
                          "mediaDuration" : 133,
                          "scalar" : 1,
                          "metadata" : {
                            "WinSubProjectDisplayName" : "",
                            "clipSpeedAttribute" : false
                          },
                          "animationTracks" : {

                          }
                        },
                        {
                          "id" : 118,
                          "_type" : "AMFile",
                          "src" : 5,
                          "trackNumber" : 1,
                          "attributes" : {
                            "ident" : "Rec 02-03-20_005",
                            "sampleRate" : 44100,
                            "bitDepth" : 16,
                            "gain" : 1.0,
                            "mixToMono" : false
                          },
                            "channelNumber" : "0,1",
                          "effects" : [

                          ],
                          "start" : 3988,
                          "duration" : 615,
                          "mediaStart" : 4592,
                          "mediaDuration" : 615,
                          "scalar" : 1,
                          "metadata" : {
                            "WinSubProjectDisplayName" : "",
                            "clipSpeedAttribute" : false
                          },
                          "animationTracks" : {

                          }
                        },
                        {
                          "id" : 119,
                          "_type" : "AMFile",
                          "src" : 5,
                          "trackNumber" : 1,
                          "attributes" : {
                            "ident" : "Rec 02-03-20_005",
                            "sampleRate" : 44100,
                            "bitDepth" : 16,
                            "gain" : 1.0,
                            "mixToMono" : false
                          },
                            "channelNumber" : "0,1",
                          "effects" : [

                          ],
                          "start" : 4603,
                          "duration" : 3497,
                          "mediaStart" : 5339,
                          "mediaDuration" : 3497,
                          "scalar" : 1,
                          "metadata" : {
                            "WinSubProjectDisplayName" : "",
                            "clipSpeedAttribute" : false
                          },
                          "animationTracks" : {

                          }
                        }
                    ],
                    "effects" : [
                        {
                          "effectName" : "NoiseReduction",
                          "category" : "categoryAudioEffects",
                          "parameters" : {
                            "denoiserAmount" : 20.0,
                            "denoiserThreshold" : 0.0,
                            "noiseProfile" : "wy93P+yPJkBUPNc+gnV3PoD6Gz8xbytAkbGVP8NEsT881Tg/BFvIP49RsD4GeJc/TGlwPnTfAT8X\r\nS2E/HSptPsgBZz0ND4I99/gmP/5zOT+Sens/SGI4P7sp3j67VfM+8D0dP1SJYT+OkFk/75tpP81/\r\n8T/g3Ys/u3AZQNPJoUCqS5ZAH+vRQKuR1kAHKsg/cyTzQAFE7ECbXSFAOjPNPxlWgEA2dBJAgm6P\r\nQB6m7z9F64ZAOL0NPz4yuz4cgZw+wGx6Ptklkj4WIu0+nC+oPrTLjD5QZaM+3GWHP2DFpz9hHNA+\r\nvBtnPwvAZj+GnLI+haACP9zNMT7+FEY/2PydP70mzz/SnhM/zXdDPzjlWD+MJF9Abg9HQKkCzj/T\r\n1LU/VoXJP4Sypz+XhPc+mK5rP9nnAD/WmTw+QXiAP2O93j6F7BQ+1VYFP8I2+j0hGgY+nqrWPd2a\r\nkD3wraA99WAcPubkiT6+dvY+6KjjPeB+Fz64KQ0+VBwUPnRLFz5mnAI+FEt8PbA1Jz4WNYo9tttb\r\nPczHhT0/GCk9T/+iPQRIqz3JyyI+f803PdihdT2G0rQ9hunaPJGroj2UGKs9s7wKPShlqj28iGU9\r\nx0PwPdITZT6kpSU+2xVlPUg24zwiJ4M9XEmcPZgonj32IME9XY+2PUI/Ej7CVRw+aAcTPUIbwz35\r\nUVI9yERePdZITz1UhtI8GoAtPTqzCj/wUFI+PFehPWDJ0DygThY+n/r6PFxaRD1L7GU98FEtPudM\r\nyD0enDc+TVOpPQ4CHD1jpsw8VKuOPDzm7Dw8wUI9AEKlPDXbvDxB3jI9z3jGPJrMfjxoBsM8WUYM\r\nPdsE7DysNuQ9maNIPbs4ID2LVcs9DhtXPYZYTz2J5wk9EDuIPQrexj2f4eQ8t6ATPdRO9DwtPg89\r\nWN76PPq03TxtZvo85yhYPSQUHD1Dks49RsVLPZTT/TyavjU9VMjAPPF50DxyYOg89EMCPeCRejzS\r\n+yY8VsYyPPXYLz0Sf7085qZRPMhqpDz7AAA8qjrGPM5bij1+Zsc8W9VYPcYoUz0AUME9pJZTPaLR\r\nPz5E2eo8mQwoPaCfTTxxGIU8VOCsPMiGFD6P5oU8HrnpPDsJxTzpFCs8rJskPICdWT3GP/w8QYny\r\nPFQHAD2x10g8pvwXPYnufT2ViHY9aiNhPJmFBj5F0Ho+jL+XPuzuhD7lR0c/B1Q3P0HLOj/W2Bk/\r\nOkrkPpKO9T+H/zFA/lVFPx9DnUCGvr4/A5WYPyqVED6AWYc+MsFEP3pJgDzRBzM/EbW5Pngz4D3Q\r\nSco9ZBf8PfB2sz8qUWY9ob3+P1kZgUCCLm0/DNmhPoiSnj5H1Dk/7GiXPsoyDj7qS1g/gVsfPuuy\r\nAD5EZyE+iX4RPOVVRDyf8AA8UiJDPjY7ND6PlRk8teV3PegE/DzU9ok8KuEWPSlv0TwxpZE8BkgO\r\nPaH/ND1E9Jc8epTiPAjS2D1kP3c9kiVhPI8lJDyTjIc8BSl+PQ8xBD3xkGA8zcgfPB9EojwcBrk7\r\n/5SKOyzFTzwmqDU8DCQXPWQCGzy6wQw8NCYWPATQQTxyuhk9UqWVPENiMTyYnbA73b8SPITfSDuX\r\n3LU7YwgYPDxm1jvcINU7JEeCPNvrRTw+UNw7GnWvO5hQ8Dvelm07tGaaO/kpKj3+OhU9x/MkPNwl\r\n0zsHKJQ7a8ZHPXxseT0j5uo8QHBGPHAFzDzQ5bg7jUq/PLnnnTwhOYo8hKyRPEONnDsSv947891H\r\nO0a5jDvw1no69P6tOsLhuDrQK307QGaBO6irKzvGfP07EMO3OuTe+DnwhL86nxPcOqxnlDpjwC06\r\niz9SObErxTnYjcI5/TS/Oa6AhzlIH/w5aMBgOa9+JDmWe0Q5pvE+Oe4/8ziuA185dSZBOZ0SDTlM\r\nkd44dm4LOQg7Ljn49+g4G7HCOVgGsDgsg8M47undOPMv8TjgO6c4psegOjjahDlM2N84ZbnVOKQX\r\n6Dg68xY5rjnlOG6XzTgguac4VC6zODzBhTgELt04Nn/+OKGZuTglacQ4/7THODc3njiijXk4Pbi+\r\nOHeXjjjGTqE4BgqhOHVsmzj63JU4F9SuOEuDjTgan5w4dfWROAKZjDi3x4w4q3ONOKzekjh9jo04\r\nkAmIOMJDlThSG4s4jU6HODYSlThKdIg4gON7OH13fzia84c4FudxOCiWajjeDIU4wkx+ONcEfjjG\r\nmnI4/oJ6OP2igzgTWII4+SCVOJUHdji/7oA4i/hrOLOVXziWa1w41ONvOLSxTjis5nc4DNVcOPj2\r\ncDhazWQ4yuhuOLvXXTg0F0w4+DlXON1SWTiG7k84xCFdOD7iaDjW7kY4QCxTONZ5VThYGjw4wKVm\r\nOJUSXDgS6zk4dWlNOFVDRDh9+kA4rn1MOMhNWzj8MmI4a0VROL6PUDiZxjU4CihSOJp7TThR/1E4\r\nbHU6OE3hOjjMETw4tTIuOO3eLjhRcyc4jLkxONhMPzg+UCA4CowtOBCiKjjbTzo4+NtEOMc9PjjW\r\n9C44EgJbOF7hMDj/jTU4AoMgOD7PODiCLS84DCVCOIa3PzhVnSI4YH8ZOEgVLjge5TQ4Kp8jOAI7\r\nKjhGfyE4D0kgOFxyKTg2VDE4EoA6OI5TNjiK+SA4RHcgOK8ZGDjLLCk4inogOAn7GDhCBCc4Pnke\r\nOO5CNDgCnCI4LnsgOL9IEThuwhw42G4fOCq5CzjQdRc4Aio1OB8/OzhW5Bk4lsoUOHitFzgAARI4\r\nkrsJOOSiGTjkpCg4mWkqOLQJKzjasTs4DgcoOEyvBjgjVhE4+kkqOG4XLTgiMhI4Uj4hOMpcFjiW\r\nWwk4KBEsOJTSBjgSGxk4dIcIONYTHTjbYx84vwUKOGVWGzhmchU49q8GOKSeGzjMLhg47gvpNw5C\r\n8Dd0XA44EQ/9N//uAjhlgAc4pD79N45RHDgNUv83lN8COFkWFThaXQo42SITOI7i8TdxRhE4okrl\r\nN3Rn9zdNWgQ4gMb8NxWi/Ddusw44zAb4N7xnBDhgXg44ODMVOFRk/zc9Pt83+O8EOPIkDTgyMwY4\r\n2iMHOBo37zeoHgA4lEkUOBBPAjgHcv83mATzN109BTjtI883eHvXN6qfCDgDEvU3XtXXNwwT/zdc\r\nQOI3Cs73N2HGAjhc2e43cDr4N2kt5zdrz9c30Eb+N14Y+jcS7P43llQIOIqn/zcqEdo3zxgBOOAO\r\n+zcSMvc3KM4EOBPC6jfM7gI4flXFN9fN/zcs0OM34ErdN5JW8Dc4d+k3Kt3xN3do1jdrKPk3hXf4\r\nNzxH1jfYdwk4TzPYN+2KAzhKuvI3g+HxN7UTxDd01/U30l/5N7YR1DeaR9s3mAviNzbN2DeChNs3\r\nQTnvN8Qj3DfNSNs3OvDrN47Y5TdGlNA3PbnUN3BW4DevFcc3yDniN1LqBzjgtdg3RtLaN7zKxjfs\r\na88356vSN8mQwzdDIN03PljKN6XHujd6N9k3GHfDN1DjzTdH3fI39qfaN4a1zzeqts03Ja+0N2a4\r\nyjfs/cY3IXQEOH+R3TdjctY3QTPMNy4u1TdGQck3nFDTN0JNzTez+bE3QlbeN2pAyTcYzs83cqK5\r\nN7T6tDeAbOU3BcbON1cS1je6rcU3t9PENyIZ2DdggNo3ZvCzN06kwDcBR8w30ETON8hZzTd2EdE3\r\n9AvENw2vsDd/NdE3ArzYN4eNuTfgTs83PobWN4F8xjdsjL43jODeN2MFsjdoNN03/Cm2N/mr3jfo\r\nmcE3JI62N7cbyzfKje03KceuN4SswjeAgrM3E8fFNzKjzTdsl9E3OSDHN4onvjefJec31qOzN6wN\r\nzDc58ak3u0bAN+BGzje7AL43n4GyN+mXvTdBpsQ3aXCxNzyxwzfcUa03FqLBN9Tq2TfoDrs3aWbA\r\nN9lcojd1mbY3DDKvNyPUsjfYbbU37hebN2xUrzde48U3nOLUN6mu0Tcl7rI3m8GsN84trzciW7A3\r\nfA7UN7Rgzzdfz7U3QkGxN1W3yTfeKJY3VySpN+wRuTdGGaY3ic+kNzj+wjdbhbA3lJC+N8YdpjeE\r\nxMY3baGuN0aukzeMZbY38kCnN1xQqzcnvJg3PpbeN2GDyDfE2pU39JOnN+iqqzeI1Zw3x4+kNz81\r\ntzfcsqQ3rY3ON07RpjfzmKI3MRGzN6YAsTfJwbs39A/ENwT+sTdMCsE30heuN6qqrzfw/aE3tV6s\r\nNxLbtDfEZag355arN1C0ozexeI03f16ON7pspDfUBbw3Ae60NyjfqTe1DMI3Iuu1N6p0tTf3R8o3\r\np46wN5i1sDe4obA3OCOyN0jDnjcvWKY3efakN3bCtjfgFJ83JDfCN//KnDdVB6Y3nKSjNxnN0jfU\r\nNcM3paasN3g+mDcsL683DzG5N8KrsDdqMp03duygN6JqlDer7q83CvevN0K0qzccZ6E3ZqWmNwvJ\r\noTcLvbo3EwGtNxiTuzcr6as3wL6kN4vqhjfp9JM3oEe4N4hIrjcpoZY37OSpNwteqTdIeJE3rJen\r\nN/sBkDe29ZY3qACrN156rzdpKow3PficN1atojfG+po33TGVN+QgmjezH9Y3s0izN/omnjcMP7M3\r\njqKoNw1Ctjcp1Io3xQidN2gKkDeqW5M3cWzAN/aznzdXUpY3c2aZN8bRrzcxE7w359K8N47chzd5\r\nEoE3ktWyN7pxijem3K83bXKBN8CPmDcEX6s3kjKZNwAqnDf4pZ833DyYNxXChDeoUJ43XHGuN5MB\r\nsTex14Q3Wle/N10RjDeQ7p03lUSbNwjalTdzoaY3cAWpN1WrlDeK1qc3vo9/N3DUrDdu5bU39Ryz\r\nN0HXkjdJLoI3vyajN+g3ozf+qZU3GcuMNzCzszcbEqY329WYN6FIbjfLSp03G1+lNz57lzfNnYw3\r\ntDGgN/1HkjePn5I3kYyKNx7+oTd5f4o3J36NN4eEmjcr+rM3d1ujNyX1ujdL0Zc3CbSjNzJcsTc4\r\n1bE39wy4N+E6qjc2GI43hwmNN0EcnTeN8KU3B/+WNwN5tTd8O4U3JHqONxAVuTcVZIg3CregN57j\r\nizd5wKs3P6eVNwOEmDelVrM3UOCbN/cqnzdrspc3CZ+lN8eCpDfjHKM312qSN5jRnDfPWLM3tqCF\r\nN0tKgzfs34U3EMOWN6UQozcLfok3oZyPN0FehDdNrG03C7OlN3V/lzfU4pQ3pQ19N/ZCjzcWd4A3\r\n1BOwN3omozeCXK830g+FN1PLsDdFk5E35qeiN9Q9mTfb4aU3/tKENww5mTfQ04M35d6QNzL9njd/\r\n95Y3QVGZN/v2nTeWSIk3yualN5qkiDd+VXY3hy6WN6XPrDdMu4A3Rl2qN+TFgDcdIp83gz+wN+X0\r\nnDcIxZs3Hr2uNyysfzcGip83sM6MN8S2lTc7VJo36zWHN85PlDdMcak3NFmrN5vBlzeNL4s3Meia\r\nN9hzXDfEpZQ3ZmyuN1TYkDdYk3U3HUinN4/UmzeNhXY36hydN59GnTcN8oI3hvyVNwCikjfDL3c/\r\n7I8mQFQ81z4xXHc+tggcPyJnK0CRsZU/w0SxPzzVOD8TZMg/tYKwPqSGlz9MaXA+dN8BPxdLYT8d\r\nKm0+yAFnPQ0Pgj0l5yY/pDg5P/+Oez8iRjg/5D7ePmY88z60Ph0/9JthP46QWT/vm2k/M4zxP+Dd\r\niz/1YxlAzt2hQKpLlkAf69FAq5HWQAcqyD89IvNAoUvsQJtdIUAdDs0/GVaAQDZ0EkCCbo9AHqbv\r\nP0XrhkCxxA0/PjK7PhyBnD7AbHo+cfKRPhYi7T7ZJ6g+1tCMPlBloz6yYYc//a6nP2Ec0D5EEmc/\r\np6BmP4acsj6FoAI/2r8xPv4URj/Y/J0/vSbPP9KeEz9km0M/OOVYP4wkX0BuD0dAqQLOP4nAtT9W\r\nhck/hLKnP5eE9z6Yrms/2ecAP9aZPD5BeIA/Y73ePuaTFD7VVgU/wjb6PSEaBj6eqtY93ZqQPfCt\r\noD31YBw+5uSJPr529j7oqOM94H4XPrgpDT4qNRQ+dEsXPmacAj4US3w9sDUnPhY1ij2221s9zMeF\r\nPUlOKT1P/6I9BEirPcnLIj5/zTc92KF1PYbStD2G6do8kauiPaR3qz0Umwo9KGWqPRYUZj0Y7O89\r\nQYllPruhJT7bFWU9SDbjPALCgj1cSZw9GrmePfYgwT1dj7Y9wj4SPi53HD40yhI9oQfDPflRUj0K\r\nQ1091khPPbhz0jwagC09OrMKP78kUj48V6E9As/QPKBOFj6f+vo8XFpEPUvsZT3wUS0+I07IPZKX\r\nNz5NU6k9DgIcPWOmzDxUq448PObsPKTAQj0AQqU8Ndu8PKcUMz1i98U8msx+PKOrwjzeMww9a6Xq\r\nPMpi5D2Zo0g9uzggPYtVyz0OG1c9hlhPPYnnCT3gXIg9h7DGPZ/h5Dy3oBM91E70PC0+Dz1Y3vo8\r\n+rTdPDUZ+zznKFg9D9wbPaX2zj2S9ks9lNP9PJq+NT1u48E88XnQPHJg6Dz0QwI94JF6PO44JjxW\r\nxjI89dgvPQhsvTzmplE8MuSkPPsAADyqOsY8zluKPX5mxzxb1Vg9xihTPQBQwT2kllM9otE/PkTZ\r\n6jwP1Sg9yORNPHEYhTxU4Kw8yIYUPo/mhTweuek8OwnFPOkUKzy4lCU8gJ1ZPcY//DxBifI8VAcA\r\nPbHXSDym/Bc9ie59PZWIdj1qI2E8mYUGPkXQej6Mv5c+7O6EPuVHRz8HVDc/Qcs6P9bYGT86SuQ+\r\nko71P4f/MUD+VUU/H0OdQIa+vj8DlZg/KpUQPoBZhz4ywUQ/ekmAPNEHMz8Rtbk+eDPgPdBJyj1k\r\nF/w98HazPypRZj2hvf4/WRmBQIIubT8M2aE+iJKePkfUOT/saJc+yjIOPupLWD+BWx8+67IAPkRn\r\nIT6JfhE85VVEPHrTATxSIkM+Njs0PpUdGjy15Xc96AT8PDnriTwq4RY9KW/RPPzdkTzUXA49GzE1\r\nPSTYlzwyJuE8CNLYPWQ/dz2SJWE8NiwkPJOMhzwFKX49DzEEPfGQYDzmBSA8H0SiPNyguTv/lIo7\r\nLMVPPCaoNTwMJBc9ZAIbPLrBDDw0JhY8DthAPHK6GT0655Q8Q2IxPGpwsTvdvxI8hN9IO4TvtTus\r\nhBc8PGbWO9wg1TskR4I82+tFPLZC2jsada87mFDwO7OdbDu0Zpo7+SkqPf46FT3H8yQ83CXTOwco\r\nlDtrxkc9fGx5PSPm6jxAcEY8cAXMPNDluDuNSr88ueedPCE5ijzV9JA8EZicOxK/3jvz3Uc7RrmM\r\nO/DWejr0/q06f6e4OtArfTtAZoE7qKsrO8Z8/TvRJ7c65N74ObogwDoVd9o6rGeUOj1jLzoQQUg5\r\nUpbGOdiNwjn9NL85x42FOUgf/DlowGA5r34kOZZ7RDmm8T45qunmOK4DXzl1JkE5nRINOUyR3jh2\r\nbgs5CDsuOfj36DgbscI5WAawOCyDwzju6d048y/xOOA7pzimx6A6ONqEOUzY3zhludU4pBfoODrz\r\nFjmuOeU4bpfNOCC5pzhULrM4PMGFOAQu3Tg2f/44oZm5OCVpxDj/tMc4NzeeOKKNeTg9uL44d5eO\r\nOMZOoTgGCqE4dWybOPrclTgX1K44S4ONOBqfnDh19ZE4ApmMOLfHjDirc404rN6SOH2OjTiQCYg4\r\nwkOVOFIbiziNToc4NhKVOEp0iDiA43s4fXd/OJrzhzgW53E4KJZqON4MhTjCTH441wR+OMaacjj+\r\ngno4/aKDOBNYgjj5IJU4lQd2OL/ugDiL+Gs4s5VfOJZrXDjU4284tLFOOKzmdzgM1Vw4+PZwOFrN\r\nZDjK6G44u9ddODQXTDj4OVc43VJZOIbuTzjEIV04PuJoONbuRjhALFM41nlVOFgaPDjApWY4lRJc\r\nOBLrOTh1aU04VUNEOH36QDiufUw4yE1bOPwyYjhrRVE4vo9QOJnGNTgKKFI4mntNOFH/UThsdTo4\r\nTeE6OMwRPDi1Mi447d4uOFFzJziMuTE42Ew/OD5QIDgKjC04EKIqONtPOjj420Q4xz0+ONb0LjgS\r\nAls4XuEwOP+NNTgCgyA4Ps84OIItLzgMJUI4hrc/OFWdIjhgfxk4SBUuOB7lNDgqnyM4AjsqOEZ/\r\nITgPSSA4XHIpODZUMTgSgDo4jlM2OIr5IDhEdyA4rxkYOMssKTiKeiA4CfsYOEIEJzg+eR447kI0\r\nOAKcIjgueyA4v0gROG7CHDjYbh84KrkLONB1FzgCKjU4Hz87OFbkGTiWyhQ4eK0XOAABEjiSuwk4\r\n5KIZOOSkKDiZaSo4tAkrONqxOzgOByg4TK8GOCNWETj6SSo4bhctOCIyEjhSPiE4ylwWOJZbCTgo\r\nESw4lNIGOBIbGTh0hwg41hMdONtjHzi/BQo4ZVYbOGZyFTj2rwY4pJ4bOMwuGDjuC+k3DkLwN3Rc\r\nDjgRD/03/+4COGWABzikPv03jlEcOA1S/zeU3wI4WRYVOFpdCjjZIhM4juLxN3FGETiiSuU3dGf3\r\nN01aBDiAxvw3FaL8N26zDjjMBvg3vGcEOGBeDjg4MxU4VGT/Nz0+3zf47wQ48iQNODIzBjjaIwc4\r\nGjfvN6geADiUSRQ4EE8COAdy/zeYBPM3XT0FOO0jzzd4e9c3qp8IOAMS9Tde1dc3DBP/N1xA4jcK\r\nzvc3YcYCOFzZ7jdwOvg3aS3nN2vP1zfQRv43Xhj6NxLs/jeWVAg4iqf/NyoR2jfPGAE44A77NxIy\r\n9zcozgQ4E8LqN8zuAjh+VcU3183/NyzQ4zfgSt03klbwNzh36Tcq3fE3d2jWN2so+TeFd/g3PEfW\r\nN9h3CThPM9g37YoDOEq68jeD4fE3tRPEN3TX9TfSX/k3thHUN5pH2zeYC+I3Ns3YN4KE2zdBOe83\r\nxCPcN81I2zc68Os3jtjlN0aU0Dc9udQ3cFbgN68VxzfIOeI3UuoHOOC12DdG0to3vMrGN+xrzzfn\r\nq9I3yZDDN0Mg3Tc+WMo3pce6N3o32TcYd8M3UOPNN0fd8jf2p9o3hrXPN6q2zTclr7Q3ZrjKN+z9\r\nxjchdAQ4f5HdN2Ny1jdBM8w3Li7VN0ZByTecUNM3Qk3NN7P5sTdCVt43akDJNxjOzzdyork3tPq0\r\nN4Bs5TcFxs43VxLWN7qtxTe308Q3IhnYN2CA2jdm8LM3TqTANwFHzDfQRM43yFnNN3YR0Tf0C8Q3\r\nDa+wN3810TcCvNg3h425N+BOzzc+htY3gXzGN2yMvjeM4N43YwWyN2g03Tf8KbY3+aveN+iZwTck\r\njrY3txvLN8qN7Tcpx643hKzCN4CCszcTx8U3MqPNN2yX0Tc5IMc3iie+N58l5zfWo7M3rA3MNznx\r\nqTe7RsA34EbON7sAvjefgbI36Ze9N0GmxDdpcLE3PLHDN9xRrTcWosE31OrZN+gOuzdpZsA32Vyi\r\nN3WZtjcMMq83I9SyN9httTfuF5s3bFSvN17jxTec4tQ3qa7RNyXusjebwaw3zi2vNyJbsDd8DtQ3\r\ntGDPN1/PtTdCQbE3VbfJN94oljdXJKk37BG5N0YZpjeJz6Q3OP7CN1uFsDeUkL43xh2mN4TExjdt\r\noa43Rq6TN4xltjfyQKc3XFCrNye8mDc+lt43YYPIN8TalTf0k6c36KqrN4jVnDfHj6Q3PzW3N9yy\r\npDetjc43TtGmN/OYojcxEbM3pgCxN8nBuzf0D8Q3BP6xN0wKwTfSF643qqqvN/D9oTe1Xqw3Etu0\r\nN8RlqDfnlqs3ULSjN7F4jTd/Xo43umykN9QFvDcB7rQ3KN+pN7UMwjci67U3qnS1N/dHyjenjrA3\r\nmLWwN7ihsDc4I7I3SMOeNy9Ypjd59qQ3dsK2N+AUnzckN8I3/8qcN1UHpjecpKM3Gc3SN9Q1wzel\r\npqw3eD6YNywvrzcPMbk3wquwN2oynTd27KA3omqUN6vurzcK9683QrSrNxxnoTdmpaY3C8mhNwu9\r\nujcTAa03GJO7NyvpqzfAvqQ3i+qGN+n0kzegR7g3iEiuNymhljfs5Kk3C16pN0h4kTesl6c3+wGQ\r\nN7b1ljeoAKs3XnqvN2kqjDc9+Jw3Vq2iN8b6mjfdMZU35CCaN7Mf1jezSLM3+iaeNww/szeOoqg3\r\nDUK2NynUijfFCJ03aAqQN6pbkzdxbMA39rOfN1dSljdzZpk3xtGvNzETvDfn0rw3jtyHN3kSgTeS\r\n1bI3unGKN6bcrzdtcoE3wI+YNwRfqzeSMpk3ACqcN/ilnzfcPJg3FcKEN6hQnjdcca43kwGxN7HX\r\nhDdaV783XRGMN5DunTeVRJs3CNqVN3OhpjdwBak3VauUN4rWpze+j383cNSsN27ltTf1HLM3QdeS\r\nN0kugje/JqM36DejN/6plTcZy4w3MLOzNxsSpjfb1Zg3oUhuN8tKnTcbX6U3PnuXN82djDe0MaA3\r\n/UeSN4+fkjeRjIo3Hv6hN3l/ijcnfo03h4SaNyv6szd3W6M3JfW6N0vRlzcJtKM3MlyxNzjVsTf3\r\nDLg34TqqNzYYjjeHCY03QRydN43wpTcH/5Y3A3m1N3w7hTckeo43EBW5NxVkiDcKt6A3nuOLN3nA\r\nqzc/p5U3A4SYN6VWszdQ4Js39yqfN2uylzcJn6U3x4KkN+McozfXapI3mNGcN89Ysze2oIU3S0qD\r\nN+zfhTcQw5Y3pRCjNwt+iTehnI83QV6EN02sbTcLs6U3dX+XN9TilDelDX039kKPNxZ3gDfUE7A3\r\neiajN4JcrzfSD4U3U8uwN0WTkTfmp6I31D2ZN9vhpTf+0oQ3DDmZN9DTgzfl3pA3Mv2eN3/3ljdB\r\nUZk3+/adN5ZIiTfK5qU3mqSIN35VdjeHLpY3pc+sN0y7gDdGXao35MWANx0inzeDP7A35fScNwjF\r\nmzceva43LKx/NwaKnzewzow3xLaVNztUmjfrNYc3zk+UN0xxqTc0Was3m8GXN40vizcx6Jo32HNc\r\nN8SllDdmbK43VNiQN1iTdTcdSKc3j9SbN42FdjfqHJ03n0adNw3ygjeG/JU3AKKSNw==",
                            "noiseTrainingType" : "default"
                          }
                        }
                    ],
                    "start" : 12347,
                    "duration" : 18,
                    "mediaStart" : 4870,
                    "mediaDuration" : 18,
                    "scalar" : 1,
                    "metadata" : {
                      "WinSubProjectDisplayName" : "",
                      "clipSpeedAttribute" : false
                    },
                    "animationTracks" : {

                    }
                  },
                  {
                    "id" : 120,
                    "_type" : "StitchedMedia",
                    "minMediaStart" : 0,
                    "attributes" : {
                      "ident" : "tower-arch-04",
                      "gain" : 1.0,
                      "mixToMono" : false
                    },
                    "parameters" : {
                      "volume" : 1.0,
                      "cursorOpacity" : 1.0,
                      "cursorScale" : 1.0
                    },
                    "medias" : [
                        {
                          "id" : 121,
                          "_type" : "AMFile",
                          "src" : 5,
                          "trackNumber" : 1,
                          "attributes" : {
                            "ident" : "Rec 02-03-20_005",
                            "sampleRate" : 44100,
                            "bitDepth" : 16,
                            "gain" : 1.0,
                            "mixToMono" : false
                          },
                            "channelNumber" : "0,1",
                          "effects" : [

                          ],
                          "start" : 0,
                          "duration" : 455,
                          "mediaStart" : 0,
                          "mediaDuration" : 455,
                          "scalar" : 1,
                          "metadata" : {
                            "WinSubProjectDisplayName" : "",
                            "clipSpeedAttribute" : false
                          },
                          "animationTracks" : {

                          }
                        },
                        {
                          "id" : 122,
                          "_type" : "AMFile",
                          "src" : 5,
                          "trackNumber" : 1,
                          "attributes" : {
                            "ident" : "Rec 02-03-20_005",
                            "sampleRate" : 44100,
                            "bitDepth" : 16,
                            "gain" : 1.0,
                            "mixToMono" : false
                          },
                            "channelNumber" : "0,1",
                          "effects" : [

                          ],
                          "start" : 455,
                          "duration" : 26,
                          "mediaStart" : 465,
                          "mediaDuration" : 26,
                          "scalar" : 1,
                          "metadata" : {
                            "WinSubProjectDisplayName" : "",
                            "clipSpeedAttribute" : false
                          },
                          "animationTracks" : {

                          }
                        },
                        {
                          "id" : 123,
                          "_type" : "AMFile",
                          "src" : 5,
                          "trackNumber" : 1,
                          "attributes" : {
                            "ident" : "Rec 02-03-20_005",
                            "sampleRate" : 44100,
                            "bitDepth" : 16,
                            "gain" : 1.0,
                            "mixToMono" : false
                          },
                            "channelNumber" : "0,1",
                          "effects" : [

                          ],
                          "start" : 481,
                          "duration" : 113,
                          "mediaStart" : 505,
                          "mediaDuration" : 113,
                          "scalar" : 1,
                          "metadata" : {
                            "WinSubProjectDisplayName" : "",
                            "clipSpeedAttribute" : false
                          },
                          "animationTracks" : {

                          }
                        },
                        {
                          "id" : 124,
                          "_type" : "AMFile",
                          "src" : 5,
                          "trackNumber" : 1,
                          "attributes" : {
                            "ident" : "Rec 02-03-20_005",
                            "sampleRate" : 44100,
                            "bitDepth" : 16,
                            "gain" : 1.0,
                            "mixToMono" : false
                          },
                            "channelNumber" : "0,1",
                          "effects" : [

                          ],
                          "start" : 594,
                          "duration" : 1177,
                          "mediaStart" : 738,
                          "mediaDuration" : 1177,
                          "scalar" : 1,
                          "metadata" : {
                            "WinSubProjectDisplayName" : "",
                            "clipSpeedAttribute" : false
                          },
                          "animationTracks" : {

                          }
                        },
                        {
                          "id" : 125,
                          "_type" : "AMFile",
                          "src" : 5,
                          "trackNumber" : 1,
                          "attributes" : {
                            "ident" : "Rec 02-03-20_005",
                            "sampleRate" : 44100,
                            "bitDepth" : 16,
                            "gain" : 1.0,
                            "mixToMono" : false
                          },
                            "channelNumber" : "0,1",
                          "effects" : [

                          ],
                          "start" : 1771,
                          "duration" : 882,
                          "mediaStart" : 1947,
                          "mediaDuration" : 882,
                          "scalar" : 1,
                          "metadata" : {
                            "WinSubProjectDisplayName" : "",
                            "clipSpeedAttribute" : false
                          },
                          "animationTracks" : {

                          }
                        },
                        {
                          "id" : 126,
                          "_type" : "AMFile",
                          "src" : 5,
                          "trackNumber" : 1,
                          "attributes" : {
                            "ident" : "Rec 02-03-20_005",
                            "sampleRate" : 44100,
                            "bitDepth" : 16,
                            "gain" : 1.0,
                            "mixToMono" : false
                          },
                            "channelNumber" : "0,1",
                          "effects" : [

                          ],
                          "start" : 2653,
                          "duration" : 331,
                          "mediaStart" : 2849,
                          "mediaDuration" : 331,
                          "scalar" : 1,
                          "metadata" : {
                            "WinSubProjectDisplayName" : "",
                            "clipSpeedAttribute" : false
                          },
                          "animationTracks" : {

                          }
                        },
                        {
                          "id" : 127,
                          "_type" : "AMFile",
                          "src" : 5,
                          "trackNumber" : 1,
                          "attributes" : {
                            "ident" : "Rec 02-03-20_005",
                            "sampleRate" : 44100,
                            "bitDepth" : 16,
                            "gain" : 1.0,
                            "mixToMono" : false
                          },
                            "channelNumber" : "0,1",
                          "effects" : [

                          ],
                          "start" : 2984,
                          "duration" : 91,
                          "mediaStart" : 3238,
                          "mediaDuration" : 91,
                          "scalar" : 1,
                          "metadata" : {
                            "WinSubProjectDisplayName" : "",
                            "clipSpeedAttribute" : false
                          },
                          "animationTracks" : {

                          }
                        },
                        {
                          "id" : 128,
                          "_type" : "AMFile",
                          "src" : 5,
                          "trackNumber" : 1,
                          "attributes" : {
                            "ident" : "Rec 02-03-20_005",
                            "sampleRate" : 44100,
                            "bitDepth" : 16,
                            "gain" : 1.0,
                            "mixToMono" : false
                          },
                            "channelNumber" : "0,1",
                          "effects" : [

                          ],
                          "start" : 3075,
                          "duration" : 193,
                          "mediaStart" : 3415,
                          "mediaDuration" : 193,
                          "scalar" : 1,
                          "metadata" : {
                            "WinSubProjectDisplayName" : "",
                            "clipSpeedAttribute" : false
                          },
                          "animationTracks" : {

                          }
                        },
                        {
                          "id" : 129,
                          "_type" : "AMFile",
                          "src" : 5,
                          "trackNumber" : 1,
                          "attributes" : {
                            "ident" : "Rec 02-03-20_005",
                            "sampleRate" : 44100,
                            "bitDepth" : 16,
                            "gain" : 1.0,
                            "mixToMono" : false
                          },
                            "channelNumber" : "0,1",
                          "effects" : [

                          ],
                          "start" : 3268,
                          "duration" : 71,
                          "mediaStart" : 3770,
                          "mediaDuration" : 71,
                          "scalar" : 1,
                          "metadata" : {
                            "WinSubProjectDisplayName" : "",
                            "clipSpeedAttribute" : false
                          },
                          "animationTracks" : {

                          }
                        },
                        {
                          "id" : 130,
                          "_type" : "AMFile",
                          "src" : 5,
                          "trackNumber" : 1,
                          "attributes" : {
                            "ident" : "Rec 02-03-20_005",
                            "sampleRate" : 44100,
                            "bitDepth" : 16,
                            "gain" : 1.0,
                            "mixToMono" : false
                          },
                            "channelNumber" : "0,1",
                          "effects" : [

                          ],
                          "start" : 3339,
                          "duration" : 516,
                          "mediaStart" : 3867,
                          "mediaDuration" : 516,
                          "scalar" : 1,
                          "metadata" : {
                            "WinSubProjectDisplayName" : "",
                            "clipSpeedAttribute" : false
                          },
                          "animationTracks" : {

                          }
                        },
                        {
                          "id" : 131,
                          "_type" : "AMFile",
                          "src" : 5,
                          "trackNumber" : 1,
                          "attributes" : {
                            "ident" : "Rec 02-03-20_005",
                            "sampleRate" : 44100,
                            "bitDepth" : 16,
                            "gain" : 1.0,
                            "mixToMono" : false
                          },
                            "channelNumber" : "0,1",
                          "effects" : [

                          ],
                          "start" : 3855,
                          "duration" : 133,
                          "mediaStart" : 4421,
                          "mediaDuration" : 133,
                          "scalar" : 1,
                          "metadata" : {
                            "WinSubProjectDisplayName" : "",
                            "clipSpeedAttribute" : false
                          },
                          "animationTracks" : {

                          }
                        },
                        {
                          "id" : 132,
                          "_type" : "AMFile",
                          "src" : 5,
                          "trackNumber" : 1,
                          "attributes" : {
                            "ident" : "Rec 02-03-20_005",
                            "sampleRate" : 44100,
                            "bitDepth" : 16,
                            "gain" : 1.0,
                            "mixToMono" : false
                          },
                            "channelNumber" : "0,1",
                          "effects" : [

                          ],
                          "start" : 3988,
                          "duration" : 615,
                          "mediaStart" : 4592,
                          "mediaDuration" : 615,
                          "scalar" : 1,
                          "metadata" : {
                            "WinSubProjectDisplayName" : "",
                            "clipSpeedAttribute" : false
                          },
                          "animationTracks" : {

                          }
                        },
                        {
                          "id" : 133,
                          "_type" : "AMFile",
                          "src" : 5,
                          "trackNumber" : 1,
                          "attributes" : {
                            "ident" : "Rec 02-03-20_005",
                            "sampleRate" : 44100,
                            "bitDepth" : 16,
                            "gain" : 1.0,
                            "mixToMono" : false
                          },
                            "channelNumber" : "0,1",
                          "effects" : [

                          ],
                          "start" : 4603,
                          "duration" : 399,
                          "mediaStart" : 5339,
                          "mediaDuration" : 399,
                          "scalar" : 1,
                          "metadata" : {
                            "WinSubProjectDisplayName" : "",
                            "clipSpeedAttribute" : false
                          },
                          "animationTracks" : {

                          }
                        },
                        {
                          "id" : 134,
                          "_type" : "AMFile",
                          "src" : 5,
                          "trackNumber" : 1,
                          "attributes" : {
                            "ident" : "Rec 02-03-20_005",
                            "sampleRate" : 44100,
                            "bitDepth" : 16,
                            "gain" : 1.0,
                            "mixToMono" : false
                          },
                            "channelNumber" : "0,1",
                          "effects" : [

                          ],
                          "start" : 5002,
                          "duration" : 2890,
                          "mediaStart" : 5946,
                          "mediaDuration" : 2890,
                          "scalar" : 1,
                          "metadata" : {
                            "WinSubProjectDisplayName" : "",
                            "clipSpeedAttribute" : false
                          },
                          "animationTracks" : {

                          }
                        }
                    ],
                    "effects" : [
                        {
                          "effectName" : "NoiseReduction",
                          "category" : "categoryAudioEffects",
                          "parameters" : {
                            "denoiserAmount" : 20.0,
                            "denoiserThreshold" : 0.0,
                            "noiseProfile" : "wy93P+yPJkBUPNc+gnV3PoD6Gz8xbytAkbGVP8NEsT881Tg/BFvIP49RsD4GeJc/TGlwPnTfAT8X\r\nS2E/HSptPsgBZz0ND4I99/gmP/5zOT+Sens/SGI4P7sp3j67VfM+8D0dP1SJYT+OkFk/75tpP81/\r\n8T/g3Ys/u3AZQNPJoUCqS5ZAH+vRQKuR1kAHKsg/cyTzQAFE7ECbXSFAOjPNPxlWgEA2dBJAgm6P\r\nQB6m7z9F64ZAOL0NPz4yuz4cgZw+wGx6Ptklkj4WIu0+nC+oPrTLjD5QZaM+3GWHP2DFpz9hHNA+\r\nvBtnPwvAZj+GnLI+haACP9zNMT7+FEY/2PydP70mzz/SnhM/zXdDPzjlWD+MJF9Abg9HQKkCzj/T\r\n1LU/VoXJP4Sypz+XhPc+mK5rP9nnAD/WmTw+QXiAP2O93j6F7BQ+1VYFP8I2+j0hGgY+nqrWPd2a\r\nkD3wraA99WAcPubkiT6+dvY+6KjjPeB+Fz64KQ0+VBwUPnRLFz5mnAI+FEt8PbA1Jz4WNYo9tttb\r\nPczHhT0/GCk9T/+iPQRIqz3JyyI+f803PdihdT2G0rQ9hunaPJGroj2UGKs9s7wKPShlqj28iGU9\r\nx0PwPdITZT6kpSU+2xVlPUg24zwiJ4M9XEmcPZgonj32IME9XY+2PUI/Ej7CVRw+aAcTPUIbwz35\r\nUVI9yERePdZITz1UhtI8GoAtPTqzCj/wUFI+PFehPWDJ0DygThY+n/r6PFxaRD1L7GU98FEtPudM\r\nyD0enDc+TVOpPQ4CHD1jpsw8VKuOPDzm7Dw8wUI9AEKlPDXbvDxB3jI9z3jGPJrMfjxoBsM8WUYM\r\nPdsE7DysNuQ9maNIPbs4ID2LVcs9DhtXPYZYTz2J5wk9EDuIPQrexj2f4eQ8t6ATPdRO9DwtPg89\r\nWN76PPq03TxtZvo85yhYPSQUHD1Dks49RsVLPZTT/TyavjU9VMjAPPF50DxyYOg89EMCPeCRejzS\r\n+yY8VsYyPPXYLz0Sf7085qZRPMhqpDz7AAA8qjrGPM5bij1+Zsc8W9VYPcYoUz0AUME9pJZTPaLR\r\nPz5E2eo8mQwoPaCfTTxxGIU8VOCsPMiGFD6P5oU8HrnpPDsJxTzpFCs8rJskPICdWT3GP/w8QYny\r\nPFQHAD2x10g8pvwXPYnufT2ViHY9aiNhPJmFBj5F0Ho+jL+XPuzuhD7lR0c/B1Q3P0HLOj/W2Bk/\r\nOkrkPpKO9T+H/zFA/lVFPx9DnUCGvr4/A5WYPyqVED6AWYc+MsFEP3pJgDzRBzM/EbW5Pngz4D3Q\r\nSco9ZBf8PfB2sz8qUWY9ob3+P1kZgUCCLm0/DNmhPoiSnj5H1Dk/7GiXPsoyDj7qS1g/gVsfPuuy\r\nAD5EZyE+iX4RPOVVRDyf8AA8UiJDPjY7ND6PlRk8teV3PegE/DzU9ok8KuEWPSlv0TwxpZE8BkgO\r\nPaH/ND1E9Jc8epTiPAjS2D1kP3c9kiVhPI8lJDyTjIc8BSl+PQ8xBD3xkGA8zcgfPB9EojwcBrk7\r\n/5SKOyzFTzwmqDU8DCQXPWQCGzy6wQw8NCYWPATQQTxyuhk9UqWVPENiMTyYnbA73b8SPITfSDuX\r\n3LU7YwgYPDxm1jvcINU7JEeCPNvrRTw+UNw7GnWvO5hQ8Dvelm07tGaaO/kpKj3+OhU9x/MkPNwl\r\n0zsHKJQ7a8ZHPXxseT0j5uo8QHBGPHAFzDzQ5bg7jUq/PLnnnTwhOYo8hKyRPEONnDsSv947891H\r\nO0a5jDvw1no69P6tOsLhuDrQK307QGaBO6irKzvGfP07EMO3OuTe+DnwhL86nxPcOqxnlDpjwC06\r\niz9SObErxTnYjcI5/TS/Oa6AhzlIH/w5aMBgOa9+JDmWe0Q5pvE+Oe4/8ziuA185dSZBOZ0SDTlM\r\nkd44dm4LOQg7Ljn49+g4G7HCOVgGsDgsg8M47undOPMv8TjgO6c4psegOjjahDlM2N84ZbnVOKQX\r\n6Dg68xY5rjnlOG6XzTgguac4VC6zODzBhTgELt04Nn/+OKGZuTglacQ4/7THODc3njiijXk4Pbi+\r\nOHeXjjjGTqE4BgqhOHVsmzj63JU4F9SuOEuDjTgan5w4dfWROAKZjDi3x4w4q3ONOKzekjh9jo04\r\nkAmIOMJDlThSG4s4jU6HODYSlThKdIg4gON7OH13fzia84c4FudxOCiWajjeDIU4wkx+ONcEfjjG\r\nmnI4/oJ6OP2igzgTWII4+SCVOJUHdji/7oA4i/hrOLOVXziWa1w41ONvOLSxTjis5nc4DNVcOPj2\r\ncDhazWQ4yuhuOLvXXTg0F0w4+DlXON1SWTiG7k84xCFdOD7iaDjW7kY4QCxTONZ5VThYGjw4wKVm\r\nOJUSXDgS6zk4dWlNOFVDRDh9+kA4rn1MOMhNWzj8MmI4a0VROL6PUDiZxjU4CihSOJp7TThR/1E4\r\nbHU6OE3hOjjMETw4tTIuOO3eLjhRcyc4jLkxONhMPzg+UCA4CowtOBCiKjjbTzo4+NtEOMc9PjjW\r\n9C44EgJbOF7hMDj/jTU4AoMgOD7PODiCLS84DCVCOIa3PzhVnSI4YH8ZOEgVLjge5TQ4Kp8jOAI7\r\nKjhGfyE4D0kgOFxyKTg2VDE4EoA6OI5TNjiK+SA4RHcgOK8ZGDjLLCk4inogOAn7GDhCBCc4Pnke\r\nOO5CNDgCnCI4LnsgOL9IEThuwhw42G4fOCq5CzjQdRc4Aio1OB8/OzhW5Bk4lsoUOHitFzgAARI4\r\nkrsJOOSiGTjkpCg4mWkqOLQJKzjasTs4DgcoOEyvBjgjVhE4+kkqOG4XLTgiMhI4Uj4hOMpcFjiW\r\nWwk4KBEsOJTSBjgSGxk4dIcIONYTHTjbYx84vwUKOGVWGzhmchU49q8GOKSeGzjMLhg47gvpNw5C\r\n8Dd0XA44EQ/9N//uAjhlgAc4pD79N45RHDgNUv83lN8COFkWFThaXQo42SITOI7i8TdxRhE4okrl\r\nN3Rn9zdNWgQ4gMb8NxWi/Ddusw44zAb4N7xnBDhgXg44ODMVOFRk/zc9Pt83+O8EOPIkDTgyMwY4\r\n2iMHOBo37zeoHgA4lEkUOBBPAjgHcv83mATzN109BTjtI883eHvXN6qfCDgDEvU3XtXXNwwT/zdc\r\nQOI3Cs73N2HGAjhc2e43cDr4N2kt5zdrz9c30Eb+N14Y+jcS7P43llQIOIqn/zcqEdo3zxgBOOAO\r\n+zcSMvc3KM4EOBPC6jfM7gI4flXFN9fN/zcs0OM34ErdN5JW8Dc4d+k3Kt3xN3do1jdrKPk3hXf4\r\nNzxH1jfYdwk4TzPYN+2KAzhKuvI3g+HxN7UTxDd01/U30l/5N7YR1DeaR9s3mAviNzbN2DeChNs3\r\nQTnvN8Qj3DfNSNs3OvDrN47Y5TdGlNA3PbnUN3BW4DevFcc3yDniN1LqBzjgtdg3RtLaN7zKxjfs\r\na88356vSN8mQwzdDIN03PljKN6XHujd6N9k3GHfDN1DjzTdH3fI39qfaN4a1zzeqts03Ja+0N2a4\r\nyjfs/cY3IXQEOH+R3TdjctY3QTPMNy4u1TdGQck3nFDTN0JNzTez+bE3QlbeN2pAyTcYzs83cqK5\r\nN7T6tDeAbOU3BcbON1cS1je6rcU3t9PENyIZ2DdggNo3ZvCzN06kwDcBR8w30ETON8hZzTd2EdE3\r\n9AvENw2vsDd/NdE3ArzYN4eNuTfgTs83PobWN4F8xjdsjL43jODeN2MFsjdoNN03/Cm2N/mr3jfo\r\nmcE3JI62N7cbyzfKje03KceuN4SswjeAgrM3E8fFNzKjzTdsl9E3OSDHN4onvjefJec31qOzN6wN\r\nzDc58ak3u0bAN+BGzje7AL43n4GyN+mXvTdBpsQ3aXCxNzyxwzfcUa03FqLBN9Tq2TfoDrs3aWbA\r\nN9lcojd1mbY3DDKvNyPUsjfYbbU37hebN2xUrzde48U3nOLUN6mu0Tcl7rI3m8GsN84trzciW7A3\r\nfA7UN7Rgzzdfz7U3QkGxN1W3yTfeKJY3VySpN+wRuTdGGaY3ic+kNzj+wjdbhbA3lJC+N8YdpjeE\r\nxMY3baGuN0aukzeMZbY38kCnN1xQqzcnvJg3PpbeN2GDyDfE2pU39JOnN+iqqzeI1Zw3x4+kNz81\r\ntzfcsqQ3rY3ON07RpjfzmKI3MRGzN6YAsTfJwbs39A/ENwT+sTdMCsE30heuN6qqrzfw/aE3tV6s\r\nNxLbtDfEZag355arN1C0ozexeI03f16ON7pspDfUBbw3Ae60NyjfqTe1DMI3Iuu1N6p0tTf3R8o3\r\np46wN5i1sDe4obA3OCOyN0jDnjcvWKY3efakN3bCtjfgFJ83JDfCN//KnDdVB6Y3nKSjNxnN0jfU\r\nNcM3paasN3g+mDcsL683DzG5N8KrsDdqMp03duygN6JqlDer7q83CvevN0K0qzccZ6E3ZqWmNwvJ\r\noTcLvbo3EwGtNxiTuzcr6as3wL6kN4vqhjfp9JM3oEe4N4hIrjcpoZY37OSpNwteqTdIeJE3rJen\r\nN/sBkDe29ZY3qACrN156rzdpKow3PficN1atojfG+po33TGVN+QgmjezH9Y3s0izN/omnjcMP7M3\r\njqKoNw1Ctjcp1Io3xQidN2gKkDeqW5M3cWzAN/aznzdXUpY3c2aZN8bRrzcxE7w359K8N47chzd5\r\nEoE3ktWyN7pxijem3K83bXKBN8CPmDcEX6s3kjKZNwAqnDf4pZ833DyYNxXChDeoUJ43XHGuN5MB\r\nsTex14Q3Wle/N10RjDeQ7p03lUSbNwjalTdzoaY3cAWpN1WrlDeK1qc3vo9/N3DUrDdu5bU39Ryz\r\nN0HXkjdJLoI3vyajN+g3ozf+qZU3GcuMNzCzszcbEqY329WYN6FIbjfLSp03G1+lNz57lzfNnYw3\r\ntDGgN/1HkjePn5I3kYyKNx7+oTd5f4o3J36NN4eEmjcr+rM3d1ujNyX1ujdL0Zc3CbSjNzJcsTc4\r\n1bE39wy4N+E6qjc2GI43hwmNN0EcnTeN8KU3B/+WNwN5tTd8O4U3JHqONxAVuTcVZIg3CregN57j\r\nizd5wKs3P6eVNwOEmDelVrM3UOCbN/cqnzdrspc3CZ+lN8eCpDfjHKM312qSN5jRnDfPWLM3tqCF\r\nN0tKgzfs34U3EMOWN6UQozcLfok3oZyPN0FehDdNrG03C7OlN3V/lzfU4pQ3pQ19N/ZCjzcWd4A3\r\n1BOwN3omozeCXK830g+FN1PLsDdFk5E35qeiN9Q9mTfb4aU3/tKENww5mTfQ04M35d6QNzL9njd/\r\n95Y3QVGZN/v2nTeWSIk3yualN5qkiDd+VXY3hy6WN6XPrDdMu4A3Rl2qN+TFgDcdIp83gz+wN+X0\r\nnDcIxZs3Hr2uNyysfzcGip83sM6MN8S2lTc7VJo36zWHN85PlDdMcak3NFmrN5vBlzeNL4s3Meia\r\nN9hzXDfEpZQ3ZmyuN1TYkDdYk3U3HUinN4/UmzeNhXY36hydN59GnTcN8oI3hvyVNwCikjfDL3c/\r\n7I8mQFQ81z4xXHc+tggcPyJnK0CRsZU/w0SxPzzVOD8TZMg/tYKwPqSGlz9MaXA+dN8BPxdLYT8d\r\nKm0+yAFnPQ0Pgj0l5yY/pDg5P/+Oez8iRjg/5D7ePmY88z60Ph0/9JthP46QWT/vm2k/M4zxP+Dd\r\niz/1YxlAzt2hQKpLlkAf69FAq5HWQAcqyD89IvNAoUvsQJtdIUAdDs0/GVaAQDZ0EkCCbo9AHqbv\r\nP0XrhkCxxA0/PjK7PhyBnD7AbHo+cfKRPhYi7T7ZJ6g+1tCMPlBloz6yYYc//a6nP2Ec0D5EEmc/\r\np6BmP4acsj6FoAI/2r8xPv4URj/Y/J0/vSbPP9KeEz9km0M/OOVYP4wkX0BuD0dAqQLOP4nAtT9W\r\nhck/hLKnP5eE9z6Yrms/2ecAP9aZPD5BeIA/Y73ePuaTFD7VVgU/wjb6PSEaBj6eqtY93ZqQPfCt\r\noD31YBw+5uSJPr529j7oqOM94H4XPrgpDT4qNRQ+dEsXPmacAj4US3w9sDUnPhY1ij2221s9zMeF\r\nPUlOKT1P/6I9BEirPcnLIj5/zTc92KF1PYbStD2G6do8kauiPaR3qz0Umwo9KGWqPRYUZj0Y7O89\r\nQYllPruhJT7bFWU9SDbjPALCgj1cSZw9GrmePfYgwT1dj7Y9wj4SPi53HD40yhI9oQfDPflRUj0K\r\nQ1091khPPbhz0jwagC09OrMKP78kUj48V6E9As/QPKBOFj6f+vo8XFpEPUvsZT3wUS0+I07IPZKX\r\nNz5NU6k9DgIcPWOmzDxUq448PObsPKTAQj0AQqU8Ndu8PKcUMz1i98U8msx+PKOrwjzeMww9a6Xq\r\nPMpi5D2Zo0g9uzggPYtVyz0OG1c9hlhPPYnnCT3gXIg9h7DGPZ/h5Dy3oBM91E70PC0+Dz1Y3vo8\r\n+rTdPDUZ+zznKFg9D9wbPaX2zj2S9ks9lNP9PJq+NT1u48E88XnQPHJg6Dz0QwI94JF6PO44JjxW\r\nxjI89dgvPQhsvTzmplE8MuSkPPsAADyqOsY8zluKPX5mxzxb1Vg9xihTPQBQwT2kllM9otE/PkTZ\r\n6jwP1Sg9yORNPHEYhTxU4Kw8yIYUPo/mhTweuek8OwnFPOkUKzy4lCU8gJ1ZPcY//DxBifI8VAcA\r\nPbHXSDym/Bc9ie59PZWIdj1qI2E8mYUGPkXQej6Mv5c+7O6EPuVHRz8HVDc/Qcs6P9bYGT86SuQ+\r\nko71P4f/MUD+VUU/H0OdQIa+vj8DlZg/KpUQPoBZhz4ywUQ/ekmAPNEHMz8Rtbk+eDPgPdBJyj1k\r\nF/w98HazPypRZj2hvf4/WRmBQIIubT8M2aE+iJKePkfUOT/saJc+yjIOPupLWD+BWx8+67IAPkRn\r\nIT6JfhE85VVEPHrTATxSIkM+Njs0PpUdGjy15Xc96AT8PDnriTwq4RY9KW/RPPzdkTzUXA49GzE1\r\nPSTYlzwyJuE8CNLYPWQ/dz2SJWE8NiwkPJOMhzwFKX49DzEEPfGQYDzmBSA8H0SiPNyguTv/lIo7\r\nLMVPPCaoNTwMJBc9ZAIbPLrBDDw0JhY8DthAPHK6GT0655Q8Q2IxPGpwsTvdvxI8hN9IO4TvtTus\r\nhBc8PGbWO9wg1TskR4I82+tFPLZC2jsada87mFDwO7OdbDu0Zpo7+SkqPf46FT3H8yQ83CXTOwco\r\nlDtrxkc9fGx5PSPm6jxAcEY8cAXMPNDluDuNSr88ueedPCE5ijzV9JA8EZicOxK/3jvz3Uc7RrmM\r\nO/DWejr0/q06f6e4OtArfTtAZoE7qKsrO8Z8/TvRJ7c65N74ObogwDoVd9o6rGeUOj1jLzoQQUg5\r\nUpbGOdiNwjn9NL85x42FOUgf/DlowGA5r34kOZZ7RDmm8T45qunmOK4DXzl1JkE5nRINOUyR3jh2\r\nbgs5CDsuOfj36DgbscI5WAawOCyDwzju6d048y/xOOA7pzimx6A6ONqEOUzY3zhludU4pBfoODrz\r\nFjmuOeU4bpfNOCC5pzhULrM4PMGFOAQu3Tg2f/44oZm5OCVpxDj/tMc4NzeeOKKNeTg9uL44d5eO\r\nOMZOoTgGCqE4dWybOPrclTgX1K44S4ONOBqfnDh19ZE4ApmMOLfHjDirc404rN6SOH2OjTiQCYg4\r\nwkOVOFIbiziNToc4NhKVOEp0iDiA43s4fXd/OJrzhzgW53E4KJZqON4MhTjCTH441wR+OMaacjj+\r\ngno4/aKDOBNYgjj5IJU4lQd2OL/ugDiL+Gs4s5VfOJZrXDjU4284tLFOOKzmdzgM1Vw4+PZwOFrN\r\nZDjK6G44u9ddODQXTDj4OVc43VJZOIbuTzjEIV04PuJoONbuRjhALFM41nlVOFgaPDjApWY4lRJc\r\nOBLrOTh1aU04VUNEOH36QDiufUw4yE1bOPwyYjhrRVE4vo9QOJnGNTgKKFI4mntNOFH/UThsdTo4\r\nTeE6OMwRPDi1Mi447d4uOFFzJziMuTE42Ew/OD5QIDgKjC04EKIqONtPOjj420Q4xz0+ONb0LjgS\r\nAls4XuEwOP+NNTgCgyA4Ps84OIItLzgMJUI4hrc/OFWdIjhgfxk4SBUuOB7lNDgqnyM4AjsqOEZ/\r\nITgPSSA4XHIpODZUMTgSgDo4jlM2OIr5IDhEdyA4rxkYOMssKTiKeiA4CfsYOEIEJzg+eR447kI0\r\nOAKcIjgueyA4v0gROG7CHDjYbh84KrkLONB1FzgCKjU4Hz87OFbkGTiWyhQ4eK0XOAABEjiSuwk4\r\n5KIZOOSkKDiZaSo4tAkrONqxOzgOByg4TK8GOCNWETj6SSo4bhctOCIyEjhSPiE4ylwWOJZbCTgo\r\nESw4lNIGOBIbGTh0hwg41hMdONtjHzi/BQo4ZVYbOGZyFTj2rwY4pJ4bOMwuGDjuC+k3DkLwN3Rc\r\nDjgRD/03/+4COGWABzikPv03jlEcOA1S/zeU3wI4WRYVOFpdCjjZIhM4juLxN3FGETiiSuU3dGf3\r\nN01aBDiAxvw3FaL8N26zDjjMBvg3vGcEOGBeDjg4MxU4VGT/Nz0+3zf47wQ48iQNODIzBjjaIwc4\r\nGjfvN6geADiUSRQ4EE8COAdy/zeYBPM3XT0FOO0jzzd4e9c3qp8IOAMS9Tde1dc3DBP/N1xA4jcK\r\nzvc3YcYCOFzZ7jdwOvg3aS3nN2vP1zfQRv43Xhj6NxLs/jeWVAg4iqf/NyoR2jfPGAE44A77NxIy\r\n9zcozgQ4E8LqN8zuAjh+VcU3183/NyzQ4zfgSt03klbwNzh36Tcq3fE3d2jWN2so+TeFd/g3PEfW\r\nN9h3CThPM9g37YoDOEq68jeD4fE3tRPEN3TX9TfSX/k3thHUN5pH2zeYC+I3Ns3YN4KE2zdBOe83\r\nxCPcN81I2zc68Os3jtjlN0aU0Dc9udQ3cFbgN68VxzfIOeI3UuoHOOC12DdG0to3vMrGN+xrzzfn\r\nq9I3yZDDN0Mg3Tc+WMo3pce6N3o32TcYd8M3UOPNN0fd8jf2p9o3hrXPN6q2zTclr7Q3ZrjKN+z9\r\nxjchdAQ4f5HdN2Ny1jdBM8w3Li7VN0ZByTecUNM3Qk3NN7P5sTdCVt43akDJNxjOzzdyork3tPq0\r\nN4Bs5TcFxs43VxLWN7qtxTe308Q3IhnYN2CA2jdm8LM3TqTANwFHzDfQRM43yFnNN3YR0Tf0C8Q3\r\nDa+wN3810TcCvNg3h425N+BOzzc+htY3gXzGN2yMvjeM4N43YwWyN2g03Tf8KbY3+aveN+iZwTck\r\njrY3txvLN8qN7Tcpx643hKzCN4CCszcTx8U3MqPNN2yX0Tc5IMc3iie+N58l5zfWo7M3rA3MNznx\r\nqTe7RsA34EbON7sAvjefgbI36Ze9N0GmxDdpcLE3PLHDN9xRrTcWosE31OrZN+gOuzdpZsA32Vyi\r\nN3WZtjcMMq83I9SyN9httTfuF5s3bFSvN17jxTec4tQ3qa7RNyXusjebwaw3zi2vNyJbsDd8DtQ3\r\ntGDPN1/PtTdCQbE3VbfJN94oljdXJKk37BG5N0YZpjeJz6Q3OP7CN1uFsDeUkL43xh2mN4TExjdt\r\noa43Rq6TN4xltjfyQKc3XFCrNye8mDc+lt43YYPIN8TalTf0k6c36KqrN4jVnDfHj6Q3PzW3N9yy\r\npDetjc43TtGmN/OYojcxEbM3pgCxN8nBuzf0D8Q3BP6xN0wKwTfSF643qqqvN/D9oTe1Xqw3Etu0\r\nN8RlqDfnlqs3ULSjN7F4jTd/Xo43umykN9QFvDcB7rQ3KN+pN7UMwjci67U3qnS1N/dHyjenjrA3\r\nmLWwN7ihsDc4I7I3SMOeNy9Ypjd59qQ3dsK2N+AUnzckN8I3/8qcN1UHpjecpKM3Gc3SN9Q1wzel\r\npqw3eD6YNywvrzcPMbk3wquwN2oynTd27KA3omqUN6vurzcK9683QrSrNxxnoTdmpaY3C8mhNwu9\r\nujcTAa03GJO7NyvpqzfAvqQ3i+qGN+n0kzegR7g3iEiuNymhljfs5Kk3C16pN0h4kTesl6c3+wGQ\r\nN7b1ljeoAKs3XnqvN2kqjDc9+Jw3Vq2iN8b6mjfdMZU35CCaN7Mf1jezSLM3+iaeNww/szeOoqg3\r\nDUK2NynUijfFCJ03aAqQN6pbkzdxbMA39rOfN1dSljdzZpk3xtGvNzETvDfn0rw3jtyHN3kSgTeS\r\n1bI3unGKN6bcrzdtcoE3wI+YNwRfqzeSMpk3ACqcN/ilnzfcPJg3FcKEN6hQnjdcca43kwGxN7HX\r\nhDdaV783XRGMN5DunTeVRJs3CNqVN3OhpjdwBak3VauUN4rWpze+j383cNSsN27ltTf1HLM3QdeS\r\nN0kugje/JqM36DejN/6plTcZy4w3MLOzNxsSpjfb1Zg3oUhuN8tKnTcbX6U3PnuXN82djDe0MaA3\r\n/UeSN4+fkjeRjIo3Hv6hN3l/ijcnfo03h4SaNyv6szd3W6M3JfW6N0vRlzcJtKM3MlyxNzjVsTf3\r\nDLg34TqqNzYYjjeHCY03QRydN43wpTcH/5Y3A3m1N3w7hTckeo43EBW5NxVkiDcKt6A3nuOLN3nA\r\nqzc/p5U3A4SYN6VWszdQ4Js39yqfN2uylzcJn6U3x4KkN+McozfXapI3mNGcN89Ysze2oIU3S0qD\r\nN+zfhTcQw5Y3pRCjNwt+iTehnI83QV6EN02sbTcLs6U3dX+XN9TilDelDX039kKPNxZ3gDfUE7A3\r\neiajN4JcrzfSD4U3U8uwN0WTkTfmp6I31D2ZN9vhpTf+0oQ3DDmZN9DTgzfl3pA3Mv2eN3/3ljdB\r\nUZk3+/adN5ZIiTfK5qU3mqSIN35VdjeHLpY3pc+sN0y7gDdGXao35MWANx0inzeDP7A35fScNwjF\r\nmzceva43LKx/NwaKnzewzow3xLaVNztUmjfrNYc3zk+UN0xxqTc0Was3m8GXN40vizcx6Jo32HNc\r\nN8SllDdmbK43VNiQN1iTdTcdSKc3j9SbN42FdjfqHJ03n0adNw3ygjeG/JU3AKKSNw==",
                            "noiseTrainingType" : "default"
                          }
                        }
                    ],
                    "start" : 12365,
                    "duration" : 156,
                    "mediaStart" : 4870,
                    "mediaDuration" : 156,
                    "scalar" : 1,
                    "metadata" : {
                      "WinSubProjectDisplayName" : "",
                      "clipSpeedAttribute" : false
                    },
                    "animationTracks" : {

                    }
                  },
                  {
                    "id" : 135,
                    "_type" : "StitchedMedia",
                    "minMediaStart" : 0,
                    "attributes" : {
                      "ident" : "tower-arch-04",
                      "gain" : 1.0,
                      "mixToMono" : false
                    },
                    "parameters" : {
                      "volume" : 1.0,
                      "cursorOpacity" : 1.0,
                      "cursorScale" : 1.0
                    },
                    "medias" : [
                        {
                          "id" : 136,
                          "_type" : "AMFile",
                          "src" : 5,
                          "trackNumber" : 1,
                          "attributes" : {
                            "ident" : "Rec 02-03-20_005",
                            "sampleRate" : 44100,
                            "bitDepth" : 16,
                            "gain" : 1.0,
                            "mixToMono" : false
                          },
                            "channelNumber" : "0,1",
                          "effects" : [

                          ],
                          "start" : 0,
                          "duration" : 455,
                          "mediaStart" : 0,
                          "mediaDuration" : 455,
                          "scalar" : 1,
                          "metadata" : {
                            "WinSubProjectDisplayName" : "",
                            "clipSpeedAttribute" : false
                          },
                          "animationTracks" : {

                          }
                        },
                        {
                          "id" : 137,
                          "_type" : "AMFile",
                          "src" : 5,
                          "trackNumber" : 1,
                          "attributes" : {
                            "ident" : "Rec 02-03-20_005",
                            "sampleRate" : 44100,
                            "bitDepth" : 16,
                            "gain" : 1.0,
                            "mixToMono" : false
                          },
                            "channelNumber" : "0,1",
                          "effects" : [

                          ],
                          "start" : 455,
                          "duration" : 26,
                          "mediaStart" : 465,
                          "mediaDuration" : 26,
                          "scalar" : 1,
                          "metadata" : {
                            "WinSubProjectDisplayName" : "",
                            "clipSpeedAttribute" : false
                          },
                          "animationTracks" : {

                          }
                        },
                        {
                          "id" : 138,
                          "_type" : "AMFile",
                          "src" : 5,
                          "trackNumber" : 1,
                          "attributes" : {
                            "ident" : "Rec 02-03-20_005",
                            "sampleRate" : 44100,
                            "bitDepth" : 16,
                            "gain" : 1.0,
                            "mixToMono" : false
                          },
                            "channelNumber" : "0,1",
                          "effects" : [

                          ],
                          "start" : 481,
                          "duration" : 113,
                          "mediaStart" : 505,
                          "mediaDuration" : 113,
                          "scalar" : 1,
                          "metadata" : {
                            "WinSubProjectDisplayName" : "",
                            "clipSpeedAttribute" : false
                          },
                          "animationTracks" : {

                          }
                        },
                        {
                          "id" : 139,
                          "_type" : "AMFile",
                          "src" : 5,
                          "trackNumber" : 1,
                          "attributes" : {
                            "ident" : "Rec 02-03-20_005",
                            "sampleRate" : 44100,
                            "bitDepth" : 16,
                            "gain" : 1.0,
                            "mixToMono" : false
                          },
                            "channelNumber" : "0,1",
                          "effects" : [

                          ],
                          "start" : 594,
                          "duration" : 1177,
                          "mediaStart" : 738,
                          "mediaDuration" : 1177,
                          "scalar" : 1,
                          "metadata" : {
                            "WinSubProjectDisplayName" : "",
                            "clipSpeedAttribute" : false
                          },
                          "animationTracks" : {

                          }
                        },
                        {
                          "id" : 140,
                          "_type" : "AMFile",
                          "src" : 5,
                          "trackNumber" : 1,
                          "attributes" : {
                            "ident" : "Rec 02-03-20_005",
                            "sampleRate" : 44100,
                            "bitDepth" : 16,
                            "gain" : 1.0,
                            "mixToMono" : false
                          },
                            "channelNumber" : "0,1",
                          "effects" : [

                          ],
                          "start" : 1771,
                          "duration" : 882,
                          "mediaStart" : 1947,
                          "mediaDuration" : 882,
                          "scalar" : 1,
                          "metadata" : {
                            "WinSubProjectDisplayName" : "",
                            "clipSpeedAttribute" : false
                          },
                          "animationTracks" : {

                          }
                        },
                        {
                          "id" : 141,
                          "_type" : "AMFile",
                          "src" : 5,
                          "trackNumber" : 1,
                          "attributes" : {
                            "ident" : "Rec 02-03-20_005",
                            "sampleRate" : 44100,
                            "bitDepth" : 16,
                            "gain" : 1.0,
                            "mixToMono" : false
                          },
                            "channelNumber" : "0,1",
                          "effects" : [

                          ],
                          "start" : 2653,
                          "duration" : 331,
                          "mediaStart" : 2849,
                          "mediaDuration" : 331,
                          "scalar" : 1,
                          "metadata" : {
                            "WinSubProjectDisplayName" : "",
                            "clipSpeedAttribute" : false
                          },
                          "animationTracks" : {

                          }
                        },
                        {
                          "id" : 142,
                          "_type" : "AMFile",
                          "src" : 5,
                          "trackNumber" : 1,
                          "attributes" : {
                            "ident" : "Rec 02-03-20_005",
                            "sampleRate" : 44100,
                            "bitDepth" : 16,
                            "gain" : 1.0,
                            "mixToMono" : false
                          },
                            "channelNumber" : "0,1",
                          "effects" : [

                          ],
                          "start" : 2984,
                          "duration" : 91,
                          "mediaStart" : 3238,
                          "mediaDuration" : 91,
                          "scalar" : 1,
                          "metadata" : {
                            "WinSubProjectDisplayName" : "",
                            "clipSpeedAttribute" : false
                          },
                          "animationTracks" : {

                          }
                        },
                        {
                          "id" : 143,
                          "_type" : "AMFile",
                          "src" : 5,
                          "trackNumber" : 1,
                          "attributes" : {
                            "ident" : "Rec 02-03-20_005",
                            "sampleRate" : 44100,
                            "bitDepth" : 16,
                            "gain" : 1.0,
                            "mixToMono" : false
                          },
                            "channelNumber" : "0,1",
                          "effects" : [

                          ],
                          "start" : 3075,
                          "duration" : 193,
                          "mediaStart" : 3415,
                          "mediaDuration" : 193,
                          "scalar" : 1,
                          "metadata" : {
                            "WinSubProjectDisplayName" : "",
                            "clipSpeedAttribute" : false
                          },
                          "animationTracks" : {

                          }
                        },
                        {
                          "id" : 144,
                          "_type" : "AMFile",
                          "src" : 5,
                          "trackNumber" : 1,
                          "attributes" : {
                            "ident" : "Rec 02-03-20_005",
                            "sampleRate" : 44100,
                            "bitDepth" : 16,
                            "gain" : 1.0,
                            "mixToMono" : false
                          },
                            "channelNumber" : "0,1",
                          "effects" : [

                          ],
                          "start" : 3268,
                          "duration" : 71,
                          "mediaStart" : 3770,
                          "mediaDuration" : 71,
                          "scalar" : 1,
                          "metadata" : {
                            "WinSubProjectDisplayName" : "",
                            "clipSpeedAttribute" : false
                          },
                          "animationTracks" : {

                          }
                        },
                        {
                          "id" : 145,
                          "_type" : "AMFile",
                          "src" : 5,
                          "trackNumber" : 1,
                          "attributes" : {
                            "ident" : "Rec 02-03-20_005",
                            "sampleRate" : 44100,
                            "bitDepth" : 16,
                            "gain" : 1.0,
                            "mixToMono" : false
                          },
                            "channelNumber" : "0,1",
                          "effects" : [

                          ],
                          "start" : 3339,
                          "duration" : 516,
                          "mediaStart" : 3867,
                          "mediaDuration" : 516,
                          "scalar" : 1,
                          "metadata" : {
                            "WinSubProjectDisplayName" : "",
                            "clipSpeedAttribute" : false
                          },
                          "animationTracks" : {

                          }
                        },
                        {
                          "id" : 146,
                          "_type" : "AMFile",
                          "src" : 5,
                          "trackNumber" : 1,
                          "attributes" : {
                            "ident" : "Rec 02-03-20_005",
                            "sampleRate" : 44100,
                            "bitDepth" : 16,
                            "gain" : 1.0,
                            "mixToMono" : false
                          },
                            "channelNumber" : "0,1",
                          "effects" : [

                          ],
                          "start" : 3855,
                          "duration" : 133,
                          "mediaStart" : 4421,
                          "mediaDuration" : 133,
                          "scalar" : 1,
                          "metadata" : {
                            "WinSubProjectDisplayName" : "",
                            "clipSpeedAttribute" : false
                          },
                          "animationTracks" : {

                          }
                        },
                        {
                          "id" : 147,
                          "_type" : "AMFile",
                          "src" : 5,
                          "trackNumber" : 1,
                          "attributes" : {
                            "ident" : "Rec 02-03-20_005",
                            "sampleRate" : 44100,
                            "bitDepth" : 16,
                            "gain" : 1.0,
                            "mixToMono" : false
                          },
                            "channelNumber" : "0,1",
                          "effects" : [

                          ],
                          "start" : 3988,
                          "duration" : 615,
                          "mediaStart" : 4592,
                          "mediaDuration" : 615,
                          "scalar" : 1,
                          "metadata" : {
                            "WinSubProjectDisplayName" : "",
                            "clipSpeedAttribute" : false
                          },
                          "animationTracks" : {

                          }
                        },
                        {
                          "id" : 148,
                          "_type" : "AMFile",
                          "src" : 5,
                          "trackNumber" : 1,
                          "attributes" : {
                            "ident" : "Rec 02-03-20_005",
                            "sampleRate" : 44100,
                            "bitDepth" : 16,
                            "gain" : 1.0,
                            "mixToMono" : false
                          },
                            "channelNumber" : "0,1",
                          "effects" : [

                          ],
                          "start" : 4603,
                          "duration" : 399,
                          "mediaStart" : 5339,
                          "mediaDuration" : 399,
                          "scalar" : 1,
                          "metadata" : {
                            "WinSubProjectDisplayName" : "",
                            "clipSpeedAttribute" : false
                          },
                          "animationTracks" : {

                          }
                        },
                        {
                          "id" : 149,
                          "_type" : "AMFile",
                          "src" : 5,
                          "trackNumber" : 1,
                          "attributes" : {
                            "ident" : "Rec 02-03-20_005",
                            "sampleRate" : 44100,
                            "bitDepth" : 16,
                            "gain" : 1.0,
                            "mixToMono" : false
                          },
                            "channelNumber" : "0,1",
                          "effects" : [

                          ],
                          "start" : 5002,
                          "duration" : 2890,
                          "mediaStart" : 5946,
                          "mediaDuration" : 2890,
                          "scalar" : 1,
                          "metadata" : {
                            "WinSubProjectDisplayName" : "",
                            "clipSpeedAttribute" : false
                          },
                          "animationTracks" : {

                          }
                        }
                    ],
                    "effects" : [
                        {
                          "effectName" : "NoiseReduction",
                          "category" : "categoryAudioEffects",
                          "parameters" : {
                            "denoiserAmount" : 20.0,
                            "denoiserThreshold" : 0.0,
                            "noiseProfile" : "wy93P+yPJkBUPNc+gnV3PoD6Gz8xbytAkbGVP8NEsT881Tg/BFvIP49RsD4GeJc/TGlwPnTfAT8X\r\nS2E/HSptPsgBZz0ND4I99/gmP/5zOT+Sens/SGI4P7sp3j67VfM+8D0dP1SJYT+OkFk/75tpP81/\r\n8T/g3Ys/u3AZQNPJoUCqS5ZAH+vRQKuR1kAHKsg/cyTzQAFE7ECbXSFAOjPNPxlWgEA2dBJAgm6P\r\nQB6m7z9F64ZAOL0NPz4yuz4cgZw+wGx6Ptklkj4WIu0+nC+oPrTLjD5QZaM+3GWHP2DFpz9hHNA+\r\nvBtnPwvAZj+GnLI+haACP9zNMT7+FEY/2PydP70mzz/SnhM/zXdDPzjlWD+MJF9Abg9HQKkCzj/T\r\n1LU/VoXJP4Sypz+XhPc+mK5rP9nnAD/WmTw+QXiAP2O93j6F7BQ+1VYFP8I2+j0hGgY+nqrWPd2a\r\nkD3wraA99WAcPubkiT6+dvY+6KjjPeB+Fz64KQ0+VBwUPnRLFz5mnAI+FEt8PbA1Jz4WNYo9tttb\r\nPczHhT0/GCk9T/+iPQRIqz3JyyI+f803PdihdT2G0rQ9hunaPJGroj2UGKs9s7wKPShlqj28iGU9\r\nx0PwPdITZT6kpSU+2xVlPUg24zwiJ4M9XEmcPZgonj32IME9XY+2PUI/Ej7CVRw+aAcTPUIbwz35\r\nUVI9yERePdZITz1UhtI8GoAtPTqzCj/wUFI+PFehPWDJ0DygThY+n/r6PFxaRD1L7GU98FEtPudM\r\nyD0enDc+TVOpPQ4CHD1jpsw8VKuOPDzm7Dw8wUI9AEKlPDXbvDxB3jI9z3jGPJrMfjxoBsM8WUYM\r\nPdsE7DysNuQ9maNIPbs4ID2LVcs9DhtXPYZYTz2J5wk9EDuIPQrexj2f4eQ8t6ATPdRO9DwtPg89\r\nWN76PPq03TxtZvo85yhYPSQUHD1Dks49RsVLPZTT/TyavjU9VMjAPPF50DxyYOg89EMCPeCRejzS\r\n+yY8VsYyPPXYLz0Sf7085qZRPMhqpDz7AAA8qjrGPM5bij1+Zsc8W9VYPcYoUz0AUME9pJZTPaLR\r\nPz5E2eo8mQwoPaCfTTxxGIU8VOCsPMiGFD6P5oU8HrnpPDsJxTzpFCs8rJskPICdWT3GP/w8QYny\r\nPFQHAD2x10g8pvwXPYnufT2ViHY9aiNhPJmFBj5F0Ho+jL+XPuzuhD7lR0c/B1Q3P0HLOj/W2Bk/\r\nOkrkPpKO9T+H/zFA/lVFPx9DnUCGvr4/A5WYPyqVED6AWYc+MsFEP3pJgDzRBzM/EbW5Pngz4D3Q\r\nSco9ZBf8PfB2sz8qUWY9ob3+P1kZgUCCLm0/DNmhPoiSnj5H1Dk/7GiXPsoyDj7qS1g/gVsfPuuy\r\nAD5EZyE+iX4RPOVVRDyf8AA8UiJDPjY7ND6PlRk8teV3PegE/DzU9ok8KuEWPSlv0TwxpZE8BkgO\r\nPaH/ND1E9Jc8epTiPAjS2D1kP3c9kiVhPI8lJDyTjIc8BSl+PQ8xBD3xkGA8zcgfPB9EojwcBrk7\r\n/5SKOyzFTzwmqDU8DCQXPWQCGzy6wQw8NCYWPATQQTxyuhk9UqWVPENiMTyYnbA73b8SPITfSDuX\r\n3LU7YwgYPDxm1jvcINU7JEeCPNvrRTw+UNw7GnWvO5hQ8Dvelm07tGaaO/kpKj3+OhU9x/MkPNwl\r\n0zsHKJQ7a8ZHPXxseT0j5uo8QHBGPHAFzDzQ5bg7jUq/PLnnnTwhOYo8hKyRPEONnDsSv947891H\r\nO0a5jDvw1no69P6tOsLhuDrQK307QGaBO6irKzvGfP07EMO3OuTe+DnwhL86nxPcOqxnlDpjwC06\r\niz9SObErxTnYjcI5/TS/Oa6AhzlIH/w5aMBgOa9+JDmWe0Q5pvE+Oe4/8ziuA185dSZBOZ0SDTlM\r\nkd44dm4LOQg7Ljn49+g4G7HCOVgGsDgsg8M47undOPMv8TjgO6c4psegOjjahDlM2N84ZbnVOKQX\r\n6Dg68xY5rjnlOG6XzTgguac4VC6zODzBhTgELt04Nn/+OKGZuTglacQ4/7THODc3njiijXk4Pbi+\r\nOHeXjjjGTqE4BgqhOHVsmzj63JU4F9SuOEuDjTgan5w4dfWROAKZjDi3x4w4q3ONOKzekjh9jo04\r\nkAmIOMJDlThSG4s4jU6HODYSlThKdIg4gON7OH13fzia84c4FudxOCiWajjeDIU4wkx+ONcEfjjG\r\nmnI4/oJ6OP2igzgTWII4+SCVOJUHdji/7oA4i/hrOLOVXziWa1w41ONvOLSxTjis5nc4DNVcOPj2\r\ncDhazWQ4yuhuOLvXXTg0F0w4+DlXON1SWTiG7k84xCFdOD7iaDjW7kY4QCxTONZ5VThYGjw4wKVm\r\nOJUSXDgS6zk4dWlNOFVDRDh9+kA4rn1MOMhNWzj8MmI4a0VROL6PUDiZxjU4CihSOJp7TThR/1E4\r\nbHU6OE3hOjjMETw4tTIuOO3eLjhRcyc4jLkxONhMPzg+UCA4CowtOBCiKjjbTzo4+NtEOMc9PjjW\r\n9C44EgJbOF7hMDj/jTU4AoMgOD7PODiCLS84DCVCOIa3PzhVnSI4YH8ZOEgVLjge5TQ4Kp8jOAI7\r\nKjhGfyE4D0kgOFxyKTg2VDE4EoA6OI5TNjiK+SA4RHcgOK8ZGDjLLCk4inogOAn7GDhCBCc4Pnke\r\nOO5CNDgCnCI4LnsgOL9IEThuwhw42G4fOCq5CzjQdRc4Aio1OB8/OzhW5Bk4lsoUOHitFzgAARI4\r\nkrsJOOSiGTjkpCg4mWkqOLQJKzjasTs4DgcoOEyvBjgjVhE4+kkqOG4XLTgiMhI4Uj4hOMpcFjiW\r\nWwk4KBEsOJTSBjgSGxk4dIcIONYTHTjbYx84vwUKOGVWGzhmchU49q8GOKSeGzjMLhg47gvpNw5C\r\n8Dd0XA44EQ/9N//uAjhlgAc4pD79N45RHDgNUv83lN8COFkWFThaXQo42SITOI7i8TdxRhE4okrl\r\nN3Rn9zdNWgQ4gMb8NxWi/Ddusw44zAb4N7xnBDhgXg44ODMVOFRk/zc9Pt83+O8EOPIkDTgyMwY4\r\n2iMHOBo37zeoHgA4lEkUOBBPAjgHcv83mATzN109BTjtI883eHvXN6qfCDgDEvU3XtXXNwwT/zdc\r\nQOI3Cs73N2HGAjhc2e43cDr4N2kt5zdrz9c30Eb+N14Y+jcS7P43llQIOIqn/zcqEdo3zxgBOOAO\r\n+zcSMvc3KM4EOBPC6jfM7gI4flXFN9fN/zcs0OM34ErdN5JW8Dc4d+k3Kt3xN3do1jdrKPk3hXf4\r\nNzxH1jfYdwk4TzPYN+2KAzhKuvI3g+HxN7UTxDd01/U30l/5N7YR1DeaR9s3mAviNzbN2DeChNs3\r\nQTnvN8Qj3DfNSNs3OvDrN47Y5TdGlNA3PbnUN3BW4DevFcc3yDniN1LqBzjgtdg3RtLaN7zKxjfs\r\na88356vSN8mQwzdDIN03PljKN6XHujd6N9k3GHfDN1DjzTdH3fI39qfaN4a1zzeqts03Ja+0N2a4\r\nyjfs/cY3IXQEOH+R3TdjctY3QTPMNy4u1TdGQck3nFDTN0JNzTez+bE3QlbeN2pAyTcYzs83cqK5\r\nN7T6tDeAbOU3BcbON1cS1je6rcU3t9PENyIZ2DdggNo3ZvCzN06kwDcBR8w30ETON8hZzTd2EdE3\r\n9AvENw2vsDd/NdE3ArzYN4eNuTfgTs83PobWN4F8xjdsjL43jODeN2MFsjdoNN03/Cm2N/mr3jfo\r\nmcE3JI62N7cbyzfKje03KceuN4SswjeAgrM3E8fFNzKjzTdsl9E3OSDHN4onvjefJec31qOzN6wN\r\nzDc58ak3u0bAN+BGzje7AL43n4GyN+mXvTdBpsQ3aXCxNzyxwzfcUa03FqLBN9Tq2TfoDrs3aWbA\r\nN9lcojd1mbY3DDKvNyPUsjfYbbU37hebN2xUrzde48U3nOLUN6mu0Tcl7rI3m8GsN84trzciW7A3\r\nfA7UN7Rgzzdfz7U3QkGxN1W3yTfeKJY3VySpN+wRuTdGGaY3ic+kNzj+wjdbhbA3lJC+N8YdpjeE\r\nxMY3baGuN0aukzeMZbY38kCnN1xQqzcnvJg3PpbeN2GDyDfE2pU39JOnN+iqqzeI1Zw3x4+kNz81\r\ntzfcsqQ3rY3ON07RpjfzmKI3MRGzN6YAsTfJwbs39A/ENwT+sTdMCsE30heuN6qqrzfw/aE3tV6s\r\nNxLbtDfEZag355arN1C0ozexeI03f16ON7pspDfUBbw3Ae60NyjfqTe1DMI3Iuu1N6p0tTf3R8o3\r\np46wN5i1sDe4obA3OCOyN0jDnjcvWKY3efakN3bCtjfgFJ83JDfCN//KnDdVB6Y3nKSjNxnN0jfU\r\nNcM3paasN3g+mDcsL683DzG5N8KrsDdqMp03duygN6JqlDer7q83CvevN0K0qzccZ6E3ZqWmNwvJ\r\noTcLvbo3EwGtNxiTuzcr6as3wL6kN4vqhjfp9JM3oEe4N4hIrjcpoZY37OSpNwteqTdIeJE3rJen\r\nN/sBkDe29ZY3qACrN156rzdpKow3PficN1atojfG+po33TGVN+QgmjezH9Y3s0izN/omnjcMP7M3\r\njqKoNw1Ctjcp1Io3xQidN2gKkDeqW5M3cWzAN/aznzdXUpY3c2aZN8bRrzcxE7w359K8N47chzd5\r\nEoE3ktWyN7pxijem3K83bXKBN8CPmDcEX6s3kjKZNwAqnDf4pZ833DyYNxXChDeoUJ43XHGuN5MB\r\nsTex14Q3Wle/N10RjDeQ7p03lUSbNwjalTdzoaY3cAWpN1WrlDeK1qc3vo9/N3DUrDdu5bU39Ryz\r\nN0HXkjdJLoI3vyajN+g3ozf+qZU3GcuMNzCzszcbEqY329WYN6FIbjfLSp03G1+lNz57lzfNnYw3\r\ntDGgN/1HkjePn5I3kYyKNx7+oTd5f4o3J36NN4eEmjcr+rM3d1ujNyX1ujdL0Zc3CbSjNzJcsTc4\r\n1bE39wy4N+E6qjc2GI43hwmNN0EcnTeN8KU3B/+WNwN5tTd8O4U3JHqONxAVuTcVZIg3CregN57j\r\nizd5wKs3P6eVNwOEmDelVrM3UOCbN/cqnzdrspc3CZ+lN8eCpDfjHKM312qSN5jRnDfPWLM3tqCF\r\nN0tKgzfs34U3EMOWN6UQozcLfok3oZyPN0FehDdNrG03C7OlN3V/lzfU4pQ3pQ19N/ZCjzcWd4A3\r\n1BOwN3omozeCXK830g+FN1PLsDdFk5E35qeiN9Q9mTfb4aU3/tKENww5mTfQ04M35d6QNzL9njd/\r\n95Y3QVGZN/v2nTeWSIk3yualN5qkiDd+VXY3hy6WN6XPrDdMu4A3Rl2qN+TFgDcdIp83gz+wN+X0\r\nnDcIxZs3Hr2uNyysfzcGip83sM6MN8S2lTc7VJo36zWHN85PlDdMcak3NFmrN5vBlzeNL4s3Meia\r\nN9hzXDfEpZQ3ZmyuN1TYkDdYk3U3HUinN4/UmzeNhXY36hydN59GnTcN8oI3hvyVNwCikjfDL3c/\r\n7I8mQFQ81z4xXHc+tggcPyJnK0CRsZU/w0SxPzzVOD8TZMg/tYKwPqSGlz9MaXA+dN8BPxdLYT8d\r\nKm0+yAFnPQ0Pgj0l5yY/pDg5P/+Oez8iRjg/5D7ePmY88z60Ph0/9JthP46QWT/vm2k/M4zxP+Dd\r\niz/1YxlAzt2hQKpLlkAf69FAq5HWQAcqyD89IvNAoUvsQJtdIUAdDs0/GVaAQDZ0EkCCbo9AHqbv\r\nP0XrhkCxxA0/PjK7PhyBnD7AbHo+cfKRPhYi7T7ZJ6g+1tCMPlBloz6yYYc//a6nP2Ec0D5EEmc/\r\np6BmP4acsj6FoAI/2r8xPv4URj/Y/J0/vSbPP9KeEz9km0M/OOVYP4wkX0BuD0dAqQLOP4nAtT9W\r\nhck/hLKnP5eE9z6Yrms/2ecAP9aZPD5BeIA/Y73ePuaTFD7VVgU/wjb6PSEaBj6eqtY93ZqQPfCt\r\noD31YBw+5uSJPr529j7oqOM94H4XPrgpDT4qNRQ+dEsXPmacAj4US3w9sDUnPhY1ij2221s9zMeF\r\nPUlOKT1P/6I9BEirPcnLIj5/zTc92KF1PYbStD2G6do8kauiPaR3qz0Umwo9KGWqPRYUZj0Y7O89\r\nQYllPruhJT7bFWU9SDbjPALCgj1cSZw9GrmePfYgwT1dj7Y9wj4SPi53HD40yhI9oQfDPflRUj0K\r\nQ1091khPPbhz0jwagC09OrMKP78kUj48V6E9As/QPKBOFj6f+vo8XFpEPUvsZT3wUS0+I07IPZKX\r\nNz5NU6k9DgIcPWOmzDxUq448PObsPKTAQj0AQqU8Ndu8PKcUMz1i98U8msx+PKOrwjzeMww9a6Xq\r\nPMpi5D2Zo0g9uzggPYtVyz0OG1c9hlhPPYnnCT3gXIg9h7DGPZ/h5Dy3oBM91E70PC0+Dz1Y3vo8\r\n+rTdPDUZ+zznKFg9D9wbPaX2zj2S9ks9lNP9PJq+NT1u48E88XnQPHJg6Dz0QwI94JF6PO44JjxW\r\nxjI89dgvPQhsvTzmplE8MuSkPPsAADyqOsY8zluKPX5mxzxb1Vg9xihTPQBQwT2kllM9otE/PkTZ\r\n6jwP1Sg9yORNPHEYhTxU4Kw8yIYUPo/mhTweuek8OwnFPOkUKzy4lCU8gJ1ZPcY//DxBifI8VAcA\r\nPbHXSDym/Bc9ie59PZWIdj1qI2E8mYUGPkXQej6Mv5c+7O6EPuVHRz8HVDc/Qcs6P9bYGT86SuQ+\r\nko71P4f/MUD+VUU/H0OdQIa+vj8DlZg/KpUQPoBZhz4ywUQ/ekmAPNEHMz8Rtbk+eDPgPdBJyj1k\r\nF/w98HazPypRZj2hvf4/WRmBQIIubT8M2aE+iJKePkfUOT/saJc+yjIOPupLWD+BWx8+67IAPkRn\r\nIT6JfhE85VVEPHrTATxSIkM+Njs0PpUdGjy15Xc96AT8PDnriTwq4RY9KW/RPPzdkTzUXA49GzE1\r\nPSTYlzwyJuE8CNLYPWQ/dz2SJWE8NiwkPJOMhzwFKX49DzEEPfGQYDzmBSA8H0SiPNyguTv/lIo7\r\nLMVPPCaoNTwMJBc9ZAIbPLrBDDw0JhY8DthAPHK6GT0655Q8Q2IxPGpwsTvdvxI8hN9IO4TvtTus\r\nhBc8PGbWO9wg1TskR4I82+tFPLZC2jsada87mFDwO7OdbDu0Zpo7+SkqPf46FT3H8yQ83CXTOwco\r\nlDtrxkc9fGx5PSPm6jxAcEY8cAXMPNDluDuNSr88ueedPCE5ijzV9JA8EZicOxK/3jvz3Uc7RrmM\r\nO/DWejr0/q06f6e4OtArfTtAZoE7qKsrO8Z8/TvRJ7c65N74ObogwDoVd9o6rGeUOj1jLzoQQUg5\r\nUpbGOdiNwjn9NL85x42FOUgf/DlowGA5r34kOZZ7RDmm8T45qunmOK4DXzl1JkE5nRINOUyR3jh2\r\nbgs5CDsuOfj36DgbscI5WAawOCyDwzju6d048y/xOOA7pzimx6A6ONqEOUzY3zhludU4pBfoODrz\r\nFjmuOeU4bpfNOCC5pzhULrM4PMGFOAQu3Tg2f/44oZm5OCVpxDj/tMc4NzeeOKKNeTg9uL44d5eO\r\nOMZOoTgGCqE4dWybOPrclTgX1K44S4ONOBqfnDh19ZE4ApmMOLfHjDirc404rN6SOH2OjTiQCYg4\r\nwkOVOFIbiziNToc4NhKVOEp0iDiA43s4fXd/OJrzhzgW53E4KJZqON4MhTjCTH441wR+OMaacjj+\r\ngno4/aKDOBNYgjj5IJU4lQd2OL/ugDiL+Gs4s5VfOJZrXDjU4284tLFOOKzmdzgM1Vw4+PZwOFrN\r\nZDjK6G44u9ddODQXTDj4OVc43VJZOIbuTzjEIV04PuJoONbuRjhALFM41nlVOFgaPDjApWY4lRJc\r\nOBLrOTh1aU04VUNEOH36QDiufUw4yE1bOPwyYjhrRVE4vo9QOJnGNTgKKFI4mntNOFH/UThsdTo4\r\nTeE6OMwRPDi1Mi447d4uOFFzJziMuTE42Ew/OD5QIDgKjC04EKIqONtPOjj420Q4xz0+ONb0LjgS\r\nAls4XuEwOP+NNTgCgyA4Ps84OIItLzgMJUI4hrc/OFWdIjhgfxk4SBUuOB7lNDgqnyM4AjsqOEZ/\r\nITgPSSA4XHIpODZUMTgSgDo4jlM2OIr5IDhEdyA4rxkYOMssKTiKeiA4CfsYOEIEJzg+eR447kI0\r\nOAKcIjgueyA4v0gROG7CHDjYbh84KrkLONB1FzgCKjU4Hz87OFbkGTiWyhQ4eK0XOAABEjiSuwk4\r\n5KIZOOSkKDiZaSo4tAkrONqxOzgOByg4TK8GOCNWETj6SSo4bhctOCIyEjhSPiE4ylwWOJZbCTgo\r\nESw4lNIGOBIbGTh0hwg41hMdONtjHzi/BQo4ZVYbOGZyFTj2rwY4pJ4bOMwuGDjuC+k3DkLwN3Rc\r\nDjgRD/03/+4COGWABzikPv03jlEcOA1S/zeU3wI4WRYVOFpdCjjZIhM4juLxN3FGETiiSuU3dGf3\r\nN01aBDiAxvw3FaL8N26zDjjMBvg3vGcEOGBeDjg4MxU4VGT/Nz0+3zf47wQ48iQNODIzBjjaIwc4\r\nGjfvN6geADiUSRQ4EE8COAdy/zeYBPM3XT0FOO0jzzd4e9c3qp8IOAMS9Tde1dc3DBP/N1xA4jcK\r\nzvc3YcYCOFzZ7jdwOvg3aS3nN2vP1zfQRv43Xhj6NxLs/jeWVAg4iqf/NyoR2jfPGAE44A77NxIy\r\n9zcozgQ4E8LqN8zuAjh+VcU3183/NyzQ4zfgSt03klbwNzh36Tcq3fE3d2jWN2so+TeFd/g3PEfW\r\nN9h3CThPM9g37YoDOEq68jeD4fE3tRPEN3TX9TfSX/k3thHUN5pH2zeYC+I3Ns3YN4KE2zdBOe83\r\nxCPcN81I2zc68Os3jtjlN0aU0Dc9udQ3cFbgN68VxzfIOeI3UuoHOOC12DdG0to3vMrGN+xrzzfn\r\nq9I3yZDDN0Mg3Tc+WMo3pce6N3o32TcYd8M3UOPNN0fd8jf2p9o3hrXPN6q2zTclr7Q3ZrjKN+z9\r\nxjchdAQ4f5HdN2Ny1jdBM8w3Li7VN0ZByTecUNM3Qk3NN7P5sTdCVt43akDJNxjOzzdyork3tPq0\r\nN4Bs5TcFxs43VxLWN7qtxTe308Q3IhnYN2CA2jdm8LM3TqTANwFHzDfQRM43yFnNN3YR0Tf0C8Q3\r\nDa+wN3810TcCvNg3h425N+BOzzc+htY3gXzGN2yMvjeM4N43YwWyN2g03Tf8KbY3+aveN+iZwTck\r\njrY3txvLN8qN7Tcpx643hKzCN4CCszcTx8U3MqPNN2yX0Tc5IMc3iie+N58l5zfWo7M3rA3MNznx\r\nqTe7RsA34EbON7sAvjefgbI36Ze9N0GmxDdpcLE3PLHDN9xRrTcWosE31OrZN+gOuzdpZsA32Vyi\r\nN3WZtjcMMq83I9SyN9httTfuF5s3bFSvN17jxTec4tQ3qa7RNyXusjebwaw3zi2vNyJbsDd8DtQ3\r\ntGDPN1/PtTdCQbE3VbfJN94oljdXJKk37BG5N0YZpjeJz6Q3OP7CN1uFsDeUkL43xh2mN4TExjdt\r\noa43Rq6TN4xltjfyQKc3XFCrNye8mDc+lt43YYPIN8TalTf0k6c36KqrN4jVnDfHj6Q3PzW3N9yy\r\npDetjc43TtGmN/OYojcxEbM3pgCxN8nBuzf0D8Q3BP6xN0wKwTfSF643qqqvN/D9oTe1Xqw3Etu0\r\nN8RlqDfnlqs3ULSjN7F4jTd/Xo43umykN9QFvDcB7rQ3KN+pN7UMwjci67U3qnS1N/dHyjenjrA3\r\nmLWwN7ihsDc4I7I3SMOeNy9Ypjd59qQ3dsK2N+AUnzckN8I3/8qcN1UHpjecpKM3Gc3SN9Q1wzel\r\npqw3eD6YNywvrzcPMbk3wquwN2oynTd27KA3omqUN6vurzcK9683QrSrNxxnoTdmpaY3C8mhNwu9\r\nujcTAa03GJO7NyvpqzfAvqQ3i+qGN+n0kzegR7g3iEiuNymhljfs5Kk3C16pN0h4kTesl6c3+wGQ\r\nN7b1ljeoAKs3XnqvN2kqjDc9+Jw3Vq2iN8b6mjfdMZU35CCaN7Mf1jezSLM3+iaeNww/szeOoqg3\r\nDUK2NynUijfFCJ03aAqQN6pbkzdxbMA39rOfN1dSljdzZpk3xtGvNzETvDfn0rw3jtyHN3kSgTeS\r\n1bI3unGKN6bcrzdtcoE3wI+YNwRfqzeSMpk3ACqcN/ilnzfcPJg3FcKEN6hQnjdcca43kwGxN7HX\r\nhDdaV783XRGMN5DunTeVRJs3CNqVN3OhpjdwBak3VauUN4rWpze+j383cNSsN27ltTf1HLM3QdeS\r\nN0kugje/JqM36DejN/6plTcZy4w3MLOzNxsSpjfb1Zg3oUhuN8tKnTcbX6U3PnuXN82djDe0MaA3\r\n/UeSN4+fkjeRjIo3Hv6hN3l/ijcnfo03h4SaNyv6szd3W6M3JfW6N0vRlzcJtKM3MlyxNzjVsTf3\r\nDLg34TqqNzYYjjeHCY03QRydN43wpTcH/5Y3A3m1N3w7hTckeo43EBW5NxVkiDcKt6A3nuOLN3nA\r\nqzc/p5U3A4SYN6VWszdQ4Js39yqfN2uylzcJn6U3x4KkN+McozfXapI3mNGcN89Ysze2oIU3S0qD\r\nN+zfhTcQw5Y3pRCjNwt+iTehnI83QV6EN02sbTcLs6U3dX+XN9TilDelDX039kKPNxZ3gDfUE7A3\r\neiajN4JcrzfSD4U3U8uwN0WTkTfmp6I31D2ZN9vhpTf+0oQ3DDmZN9DTgzfl3pA3Mv2eN3/3ljdB\r\nUZk3+/adN5ZIiTfK5qU3mqSIN35VdjeHLpY3pc+sN0y7gDdGXao35MWANx0inzeDP7A35fScNwjF\r\nmzceva43LKx/NwaKnzewzow3xLaVNztUmjfrNYc3zk+UN0xxqTc0Was3m8GXN40vizcx6Jo32HNc\r\nN8SllDdmbK43VNiQN1iTdTcdSKc3j9SbN42FdjfqHJ03n0adNw3ygjeG/JU3AKKSNw==",
                            "noiseTrainingType" : "default"
                          }
                        }
                    ],
                    "start" : 12521,
                    "duration" : 19,
                    "mediaStart" : 5032,
                    "mediaDuration" : 19,
                    "scalar" : 1,
                    "metadata" : {
                      "WinSubProjectDisplayName" : "",
                      "clipSpeedAttribute" : false
                    },
                    "animationTracks" : {

                    }
                  },
                  {
                    "id" : 150,
                    "_type" : "StitchedMedia",
                    "minMediaStart" : 0,
                    "attributes" : {
                      "ident" : "tower-arch-04",
                      "gain" : 1.0,
                      "mixToMono" : false
                    },
                    "parameters" : {
                      "volume" : 1.0,
                      "cursorOpacity" : 1.0,
                      "cursorScale" : 1.0
                    },
                    "medias" : [
                        {
                          "id" : 151,
                          "_type" : "AMFile",
                          "src" : 5,
                          "trackNumber" : 1,
                          "attributes" : {
                            "ident" : "Rec 02-03-20_005",
                            "sampleRate" : 44100,
                            "bitDepth" : 16,
                            "gain" : 1.0,
                            "mixToMono" : false
                          },
                            "channelNumber" : "0,1",
                          "effects" : [

                          ],
                          "start" : 0,
                          "duration" : 455,
                          "mediaStart" : 0,
                          "mediaDuration" : 455,
                          "scalar" : 1,
                          "metadata" : {
                            "WinSubProjectDisplayName" : "",
                            "clipSpeedAttribute" : false
                          },
                          "animationTracks" : {

                          }
                        },
                        {
                          "id" : 152,
                          "_type" : "AMFile",
                          "src" : 5,
                          "trackNumber" : 1,
                          "attributes" : {
                            "ident" : "Rec 02-03-20_005",
                            "sampleRate" : 44100,
                            "bitDepth" : 16,
                            "gain" : 1.0,
                            "mixToMono" : false
                          },
                            "channelNumber" : "0,1",
                          "effects" : [

                          ],
                          "start" : 455,
                          "duration" : 26,
                          "mediaStart" : 465,
                          "mediaDuration" : 26,
                          "scalar" : 1,
                          "metadata" : {
                            "WinSubProjectDisplayName" : "",
                            "clipSpeedAttribute" : false
                          },
                          "animationTracks" : {

                          }
                        },
                        {
                          "id" : 153,
                          "_type" : "AMFile",
                          "src" : 5,
                          "trackNumber" : 1,
                          "attributes" : {
                            "ident" : "Rec 02-03-20_005",
                            "sampleRate" : 44100,
                            "bitDepth" : 16,
                            "gain" : 1.0,
                            "mixToMono" : false
                          },
                            "channelNumber" : "0,1",
                          "effects" : [

                          ],
                          "start" : 481,
                          "duration" : 113,
                          "mediaStart" : 505,
                          "mediaDuration" : 113,
                          "scalar" : 1,
                          "metadata" : {
                            "WinSubProjectDisplayName" : "",
                            "clipSpeedAttribute" : false
                          },
                          "animationTracks" : {

                          }
                        },
                        {
                          "id" : 154,
                          "_type" : "AMFile",
                          "src" : 5,
                          "trackNumber" : 1,
                          "attributes" : {
                            "ident" : "Rec 02-03-20_005",
                            "sampleRate" : 44100,
                            "bitDepth" : 16,
                            "gain" : 1.0,
                            "mixToMono" : false
                          },
                            "channelNumber" : "0,1",
                          "effects" : [

                          ],
                          "start" : 594,
                          "duration" : 1177,
                          "mediaStart" : 738,
                          "mediaDuration" : 1177,
                          "scalar" : 1,
                          "metadata" : {
                            "WinSubProjectDisplayName" : "",
                            "clipSpeedAttribute" : false
                          },
                          "animationTracks" : {

                          }
                        },
                        {
                          "id" : 155,
                          "_type" : "AMFile",
                          "src" : 5,
                          "trackNumber" : 1,
                          "attributes" : {
                            "ident" : "Rec 02-03-20_005",
                            "sampleRate" : 44100,
                            "bitDepth" : 16,
                            "gain" : 1.0,
                            "mixToMono" : false
                          },
                            "channelNumber" : "0,1",
                          "effects" : [

                          ],
                          "start" : 1771,
                          "duration" : 882,
                          "mediaStart" : 1947,
                          "mediaDuration" : 882,
                          "scalar" : 1,
                          "metadata" : {
                            "WinSubProjectDisplayName" : "",
                            "clipSpeedAttribute" : false
                          },
                          "animationTracks" : {

                          }
                        },
                        {
                          "id" : 156,
                          "_type" : "AMFile",
                          "src" : 5,
                          "trackNumber" : 1,
                          "attributes" : {
                            "ident" : "Rec 02-03-20_005",
                            "sampleRate" : 44100,
                            "bitDepth" : 16,
                            "gain" : 1.0,
                            "mixToMono" : false
                          },
                            "channelNumber" : "0,1",
                          "effects" : [

                          ],
                          "start" : 2653,
                          "duration" : 331,
                          "mediaStart" : 2849,
                          "mediaDuration" : 331,
                          "scalar" : 1,
                          "metadata" : {
                            "WinSubProjectDisplayName" : "",
                            "clipSpeedAttribute" : false
                          },
                          "animationTracks" : {

                          }
                        },
                        {
                          "id" : 157,
                          "_type" : "AMFile",
                          "src" : 5,
                          "trackNumber" : 1,
                          "attributes" : {
                            "ident" : "Rec 02-03-20_005",
                            "sampleRate" : 44100,
                            "bitDepth" : 16,
                            "gain" : 1.0,
                            "mixToMono" : false
                          },
                            "channelNumber" : "0,1",
                          "effects" : [

                          ],
                          "start" : 2984,
                          "duration" : 91,
                          "mediaStart" : 3238,
                          "mediaDuration" : 91,
                          "scalar" : 1,
                          "metadata" : {
                            "WinSubProjectDisplayName" : "",
                            "clipSpeedAttribute" : false
                          },
                          "animationTracks" : {

                          }
                        },
                        {
                          "id" : 158,
                          "_type" : "AMFile",
                          "src" : 5,
                          "trackNumber" : 1,
                          "attributes" : {
                            "ident" : "Rec 02-03-20_005",
                            "sampleRate" : 44100,
                            "bitDepth" : 16,
                            "gain" : 1.0,
                            "mixToMono" : false
                          },
                            "channelNumber" : "0,1",
                          "effects" : [

                          ],
                          "start" : 3075,
                          "duration" : 193,
                          "mediaStart" : 3415,
                          "mediaDuration" : 193,
                          "scalar" : 1,
                          "metadata" : {
                            "WinSubProjectDisplayName" : "",
                            "clipSpeedAttribute" : false
                          },
                          "animationTracks" : {

                          }
                        },
                        {
                          "id" : 159,
                          "_type" : "AMFile",
                          "src" : 5,
                          "trackNumber" : 1,
                          "attributes" : {
                            "ident" : "Rec 02-03-20_005",
                            "sampleRate" : 44100,
                            "bitDepth" : 16,
                            "gain" : 1.0,
                            "mixToMono" : false
                          },
                            "channelNumber" : "0,1",
                          "effects" : [

                          ],
                          "start" : 3268,
                          "duration" : 71,
                          "mediaStart" : 3770,
                          "mediaDuration" : 71,
                          "scalar" : 1,
                          "metadata" : {
                            "WinSubProjectDisplayName" : "",
                            "clipSpeedAttribute" : false
                          },
                          "animationTracks" : {

                          }
                        },
                        {
                          "id" : 160,
                          "_type" : "AMFile",
                          "src" : 5,
                          "trackNumber" : 1,
                          "attributes" : {
                            "ident" : "Rec 02-03-20_005",
                            "sampleRate" : 44100,
                            "bitDepth" : 16,
                            "gain" : 1.0,
                            "mixToMono" : false
                          },
                            "channelNumber" : "0,1",
                          "effects" : [

                          ],
                          "start" : 3339,
                          "duration" : 516,
                          "mediaStart" : 3867,
                          "mediaDuration" : 516,
                          "scalar" : 1,
                          "metadata" : {
                            "WinSubProjectDisplayName" : "",
                            "clipSpeedAttribute" : false
                          },
                          "animationTracks" : {

                          }
                        },
                        {
                          "id" : 161,
                          "_type" : "AMFile",
                          "src" : 5,
                          "trackNumber" : 1,
                          "attributes" : {
                            "ident" : "Rec 02-03-20_005",
                            "sampleRate" : 44100,
                            "bitDepth" : 16,
                            "gain" : 1.0,
                            "mixToMono" : false
                          },
                            "channelNumber" : "0,1",
                          "effects" : [

                          ],
                          "start" : 3855,
                          "duration" : 133,
                          "mediaStart" : 4421,
                          "mediaDuration" : 133,
                          "scalar" : 1,
                          "metadata" : {
                            "WinSubProjectDisplayName" : "",
                            "clipSpeedAttribute" : false
                          },
                          "animationTracks" : {

                          }
                        },
                        {
                          "id" : 162,
                          "_type" : "AMFile",
                          "src" : 5,
                          "trackNumber" : 1,
                          "attributes" : {
                            "ident" : "Rec 02-03-20_005",
                            "sampleRate" : 44100,
                            "bitDepth" : 16,
                            "gain" : 1.0,
                            "mixToMono" : false
                          },
                            "channelNumber" : "0,1",
                          "effects" : [

                          ],
                          "start" : 3988,
                          "duration" : 615,
                          "mediaStart" : 4592,
                          "mediaDuration" : 615,
                          "scalar" : 1,
                          "metadata" : {
                            "WinSubProjectDisplayName" : "",
                            "clipSpeedAttribute" : false
                          },
                          "animationTracks" : {

                          }
                        },
                        {
                          "id" : 163,
                          "_type" : "AMFile",
                          "src" : 5,
                          "trackNumber" : 1,
                          "attributes" : {
                            "ident" : "Rec 02-03-20_005",
                            "sampleRate" : 44100,
                            "bitDepth" : 16,
                            "gain" : 1.0,
                            "mixToMono" : false
                          },
                            "channelNumber" : "0,1",
                          "effects" : [

                          ],
                          "start" : 4603,
                          "duration" : 399,
                          "mediaStart" : 5339,
                          "mediaDuration" : 399,
                          "scalar" : 1,
                          "metadata" : {
                            "WinSubProjectDisplayName" : "",
                            "clipSpeedAttribute" : false
                          },
                          "animationTracks" : {

                          }
                        },
                        {
                          "id" : 164,
                          "_type" : "AMFile",
                          "src" : 5,
                          "trackNumber" : 1,
                          "attributes" : {
                            "ident" : "Rec 02-03-20_005",
                            "sampleRate" : 44100,
                            "bitDepth" : 16,
                            "gain" : 1.0,
                            "mixToMono" : false
                          },
                            "channelNumber" : "0,1",
                          "effects" : [

                          ],
                          "start" : 5002,
                          "duration" : 1874,
                          "mediaStart" : 5946,
                          "mediaDuration" : 1874,
                          "scalar" : 1,
                          "metadata" : {
                            "WinSubProjectDisplayName" : "",
                            "clipSpeedAttribute" : false
                          },
                          "animationTracks" : {

                          }
                        },
                        {
                          "id" : 165,
                          "_type" : "AMFile",
                          "src" : 5,
                          "trackNumber" : 1,
                          "attributes" : {
                            "ident" : "Rec 02-03-20_005",
                            "sampleRate" : 44100,
                            "bitDepth" : 16,
                            "gain" : 1.0,
                            "mixToMono" : false
                          },
                            "channelNumber" : "0,1",
                          "effects" : [

                          ],
                          "start" : 6876,
                          "duration" : 124,
                          "mediaStart" : 7848,
                          "mediaDuration" : 124,
                          "scalar" : 1,
                          "metadata" : {
                            "WinSubProjectDisplayName" : "",
                            "clipSpeedAttribute" : false
                          },
                          "animationTracks" : {

                          }
                        },
                        {
                          "id" : 166,
                          "_type" : "AMFile",
                          "src" : 5,
                          "trackNumber" : 1,
                          "attributes" : {
                            "ident" : "Rec 02-03-20_005",
                            "sampleRate" : 44100,
                            "bitDepth" : 16,
                            "gain" : 1.0,
                            "mixToMono" : false
                          },
                            "channelNumber" : "0,1",
                          "effects" : [

                          ],
                          "start" : 7000,
                          "duration" : 287,
                          "mediaStart" : 7980,
                          "mediaDuration" : 287,
                          "scalar" : 1,
                          "metadata" : {
                            "WinSubProjectDisplayName" : "",
                            "clipSpeedAttribute" : false
                          },
                          "animationTracks" : {

                          }
                        },
                        {
                          "id" : 167,
                          "_type" : "AMFile",
                          "src" : 5,
                          "trackNumber" : 1,
                          "attributes" : {
                            "ident" : "Rec 02-03-20_005",
                            "sampleRate" : 44100,
                            "bitDepth" : 16,
                            "gain" : 1.0,
                            "mixToMono" : false
                          },
                            "channelNumber" : "0,1",
                          "effects" : [

                          ],
                          "start" : 7287,
                          "duration" : 266,
                          "mediaStart" : 8281,
                          "mediaDuration" : 266,
                          "scalar" : 1,
                          "metadata" : {
                            "WinSubProjectDisplayName" : "",
                            "clipSpeedAttribute" : false
                          },
                          "animationTracks" : {

                          }
                        },
                        {
                          "id" : 168,
                          "_type" : "AMFile",
                          "src" : 5,
                          "trackNumber" : 1,
                          "attributes" : {
                            "ident" : "Rec 02-03-20_005",
                            "sampleRate" : 44100,
                            "bitDepth" : 16,
                            "gain" : 1.0,
                            "mixToMono" : false
                          },
                            "channelNumber" : "0,1",
                          "effects" : [

                          ],
                          "start" : 7553,
                          "duration" : 258,
                          "mediaStart" : 8578,
                          "mediaDuration" : 258,
                          "scalar" : 1,
                          "metadata" : {
                            "WinSubProjectDisplayName" : "",
                            "clipSpeedAttribute" : false
                          },
                          "animationTracks" : {

                          }
                        }
                    ],
                    "effects" : [
                        {
                          "effectName" : "NoiseReduction",
                          "category" : "categoryAudioEffects",
                          "parameters" : {
                            "denoiserAmount" : 20.0,
                            "denoiserThreshold" : 0.0,
                            "noiseProfile" : "wy93P+yPJkBUPNc+gnV3PoD6Gz8xbytAkbGVP8NEsT881Tg/BFvIP49RsD4GeJc/TGlwPnTfAT8X\r\nS2E/HSptPsgBZz0ND4I99/gmP/5zOT+Sens/SGI4P7sp3j67VfM+8D0dP1SJYT+OkFk/75tpP81/\r\n8T/g3Ys/u3AZQNPJoUCqS5ZAH+vRQKuR1kAHKsg/cyTzQAFE7ECbXSFAOjPNPxlWgEA2dBJAgm6P\r\nQB6m7z9F64ZAOL0NPz4yuz4cgZw+wGx6Ptklkj4WIu0+nC+oPrTLjD5QZaM+3GWHP2DFpz9hHNA+\r\nvBtnPwvAZj+GnLI+haACP9zNMT7+FEY/2PydP70mzz/SnhM/zXdDPzjlWD+MJF9Abg9HQKkCzj/T\r\n1LU/VoXJP4Sypz+XhPc+mK5rP9nnAD/WmTw+QXiAP2O93j6F7BQ+1VYFP8I2+j0hGgY+nqrWPd2a\r\nkD3wraA99WAcPubkiT6+dvY+6KjjPeB+Fz64KQ0+VBwUPnRLFz5mnAI+FEt8PbA1Jz4WNYo9tttb\r\nPczHhT0/GCk9T/+iPQRIqz3JyyI+f803PdihdT2G0rQ9hunaPJGroj2UGKs9s7wKPShlqj28iGU9\r\nx0PwPdITZT6kpSU+2xVlPUg24zwiJ4M9XEmcPZgonj32IME9XY+2PUI/Ej7CVRw+aAcTPUIbwz35\r\nUVI9yERePdZITz1UhtI8GoAtPTqzCj/wUFI+PFehPWDJ0DygThY+n/r6PFxaRD1L7GU98FEtPudM\r\nyD0enDc+TVOpPQ4CHD1jpsw8VKuOPDzm7Dw8wUI9AEKlPDXbvDxB3jI9z3jGPJrMfjxoBsM8WUYM\r\nPdsE7DysNuQ9maNIPbs4ID2LVcs9DhtXPYZYTz2J5wk9EDuIPQrexj2f4eQ8t6ATPdRO9DwtPg89\r\nWN76PPq03TxtZvo85yhYPSQUHD1Dks49RsVLPZTT/TyavjU9VMjAPPF50DxyYOg89EMCPeCRejzS\r\n+yY8VsYyPPXYLz0Sf7085qZRPMhqpDz7AAA8qjrGPM5bij1+Zsc8W9VYPcYoUz0AUME9pJZTPaLR\r\nPz5E2eo8mQwoPaCfTTxxGIU8VOCsPMiGFD6P5oU8HrnpPDsJxTzpFCs8rJskPICdWT3GP/w8QYny\r\nPFQHAD2x10g8pvwXPYnufT2ViHY9aiNhPJmFBj5F0Ho+jL+XPuzuhD7lR0c/B1Q3P0HLOj/W2Bk/\r\nOkrkPpKO9T+H/zFA/lVFPx9DnUCGvr4/A5WYPyqVED6AWYc+MsFEP3pJgDzRBzM/EbW5Pngz4D3Q\r\nSco9ZBf8PfB2sz8qUWY9ob3+P1kZgUCCLm0/DNmhPoiSnj5H1Dk/7GiXPsoyDj7qS1g/gVsfPuuy\r\nAD5EZyE+iX4RPOVVRDyf8AA8UiJDPjY7ND6PlRk8teV3PegE/DzU9ok8KuEWPSlv0TwxpZE8BkgO\r\nPaH/ND1E9Jc8epTiPAjS2D1kP3c9kiVhPI8lJDyTjIc8BSl+PQ8xBD3xkGA8zcgfPB9EojwcBrk7\r\n/5SKOyzFTzwmqDU8DCQXPWQCGzy6wQw8NCYWPATQQTxyuhk9UqWVPENiMTyYnbA73b8SPITfSDuX\r\n3LU7YwgYPDxm1jvcINU7JEeCPNvrRTw+UNw7GnWvO5hQ8Dvelm07tGaaO/kpKj3+OhU9x/MkPNwl\r\n0zsHKJQ7a8ZHPXxseT0j5uo8QHBGPHAFzDzQ5bg7jUq/PLnnnTwhOYo8hKyRPEONnDsSv947891H\r\nO0a5jDvw1no69P6tOsLhuDrQK307QGaBO6irKzvGfP07EMO3OuTe+DnwhL86nxPcOqxnlDpjwC06\r\niz9SObErxTnYjcI5/TS/Oa6AhzlIH/w5aMBgOa9+JDmWe0Q5pvE+Oe4/8ziuA185dSZBOZ0SDTlM\r\nkd44dm4LOQg7Ljn49+g4G7HCOVgGsDgsg8M47undOPMv8TjgO6c4psegOjjahDlM2N84ZbnVOKQX\r\n6Dg68xY5rjnlOG6XzTgguac4VC6zODzBhTgELt04Nn/+OKGZuTglacQ4/7THODc3njiijXk4Pbi+\r\nOHeXjjjGTqE4BgqhOHVsmzj63JU4F9SuOEuDjTgan5w4dfWROAKZjDi3x4w4q3ONOKzekjh9jo04\r\nkAmIOMJDlThSG4s4jU6HODYSlThKdIg4gON7OH13fzia84c4FudxOCiWajjeDIU4wkx+ONcEfjjG\r\nmnI4/oJ6OP2igzgTWII4+SCVOJUHdji/7oA4i/hrOLOVXziWa1w41ONvOLSxTjis5nc4DNVcOPj2\r\ncDhazWQ4yuhuOLvXXTg0F0w4+DlXON1SWTiG7k84xCFdOD7iaDjW7kY4QCxTONZ5VThYGjw4wKVm\r\nOJUSXDgS6zk4dWlNOFVDRDh9+kA4rn1MOMhNWzj8MmI4a0VROL6PUDiZxjU4CihSOJp7TThR/1E4\r\nbHU6OE3hOjjMETw4tTIuOO3eLjhRcyc4jLkxONhMPzg+UCA4CowtOBCiKjjbTzo4+NtEOMc9PjjW\r\n9C44EgJbOF7hMDj/jTU4AoMgOD7PODiCLS84DCVCOIa3PzhVnSI4YH8ZOEgVLjge5TQ4Kp8jOAI7\r\nKjhGfyE4D0kgOFxyKTg2VDE4EoA6OI5TNjiK+SA4RHcgOK8ZGDjLLCk4inogOAn7GDhCBCc4Pnke\r\nOO5CNDgCnCI4LnsgOL9IEThuwhw42G4fOCq5CzjQdRc4Aio1OB8/OzhW5Bk4lsoUOHitFzgAARI4\r\nkrsJOOSiGTjkpCg4mWkqOLQJKzjasTs4DgcoOEyvBjgjVhE4+kkqOG4XLTgiMhI4Uj4hOMpcFjiW\r\nWwk4KBEsOJTSBjgSGxk4dIcIONYTHTjbYx84vwUKOGVWGzhmchU49q8GOKSeGzjMLhg47gvpNw5C\r\n8Dd0XA44EQ/9N//uAjhlgAc4pD79N45RHDgNUv83lN8COFkWFThaXQo42SITOI7i8TdxRhE4okrl\r\nN3Rn9zdNWgQ4gMb8NxWi/Ddusw44zAb4N7xnBDhgXg44ODMVOFRk/zc9Pt83+O8EOPIkDTgyMwY4\r\n2iMHOBo37zeoHgA4lEkUOBBPAjgHcv83mATzN109BTjtI883eHvXN6qfCDgDEvU3XtXXNwwT/zdc\r\nQOI3Cs73N2HGAjhc2e43cDr4N2kt5zdrz9c30Eb+N14Y+jcS7P43llQIOIqn/zcqEdo3zxgBOOAO\r\n+zcSMvc3KM4EOBPC6jfM7gI4flXFN9fN/zcs0OM34ErdN5JW8Dc4d+k3Kt3xN3do1jdrKPk3hXf4\r\nNzxH1jfYdwk4TzPYN+2KAzhKuvI3g+HxN7UTxDd01/U30l/5N7YR1DeaR9s3mAviNzbN2DeChNs3\r\nQTnvN8Qj3DfNSNs3OvDrN47Y5TdGlNA3PbnUN3BW4DevFcc3yDniN1LqBzjgtdg3RtLaN7zKxjfs\r\na88356vSN8mQwzdDIN03PljKN6XHujd6N9k3GHfDN1DjzTdH3fI39qfaN4a1zzeqts03Ja+0N2a4\r\nyjfs/cY3IXQEOH+R3TdjctY3QTPMNy4u1TdGQck3nFDTN0JNzTez+bE3QlbeN2pAyTcYzs83cqK5\r\nN7T6tDeAbOU3BcbON1cS1je6rcU3t9PENyIZ2DdggNo3ZvCzN06kwDcBR8w30ETON8hZzTd2EdE3\r\n9AvENw2vsDd/NdE3ArzYN4eNuTfgTs83PobWN4F8xjdsjL43jODeN2MFsjdoNN03/Cm2N/mr3jfo\r\nmcE3JI62N7cbyzfKje03KceuN4SswjeAgrM3E8fFNzKjzTdsl9E3OSDHN4onvjefJec31qOzN6wN\r\nzDc58ak3u0bAN+BGzje7AL43n4GyN+mXvTdBpsQ3aXCxNzyxwzfcUa03FqLBN9Tq2TfoDrs3aWbA\r\nN9lcojd1mbY3DDKvNyPUsjfYbbU37hebN2xUrzde48U3nOLUN6mu0Tcl7rI3m8GsN84trzciW7A3\r\nfA7UN7Rgzzdfz7U3QkGxN1W3yTfeKJY3VySpN+wRuTdGGaY3ic+kNzj+wjdbhbA3lJC+N8YdpjeE\r\nxMY3baGuN0aukzeMZbY38kCnN1xQqzcnvJg3PpbeN2GDyDfE2pU39JOnN+iqqzeI1Zw3x4+kNz81\r\ntzfcsqQ3rY3ON07RpjfzmKI3MRGzN6YAsTfJwbs39A/ENwT+sTdMCsE30heuN6qqrzfw/aE3tV6s\r\nNxLbtDfEZag355arN1C0ozexeI03f16ON7pspDfUBbw3Ae60NyjfqTe1DMI3Iuu1N6p0tTf3R8o3\r\np46wN5i1sDe4obA3OCOyN0jDnjcvWKY3efakN3bCtjfgFJ83JDfCN//KnDdVB6Y3nKSjNxnN0jfU\r\nNcM3paasN3g+mDcsL683DzG5N8KrsDdqMp03duygN6JqlDer7q83CvevN0K0qzccZ6E3ZqWmNwvJ\r\noTcLvbo3EwGtNxiTuzcr6as3wL6kN4vqhjfp9JM3oEe4N4hIrjcpoZY37OSpNwteqTdIeJE3rJen\r\nN/sBkDe29ZY3qACrN156rzdpKow3PficN1atojfG+po33TGVN+QgmjezH9Y3s0izN/omnjcMP7M3\r\njqKoNw1Ctjcp1Io3xQidN2gKkDeqW5M3cWzAN/aznzdXUpY3c2aZN8bRrzcxE7w359K8N47chzd5\r\nEoE3ktWyN7pxijem3K83bXKBN8CPmDcEX6s3kjKZNwAqnDf4pZ833DyYNxXChDeoUJ43XHGuN5MB\r\nsTex14Q3Wle/N10RjDeQ7p03lUSbNwjalTdzoaY3cAWpN1WrlDeK1qc3vo9/N3DUrDdu5bU39Ryz\r\nN0HXkjdJLoI3vyajN+g3ozf+qZU3GcuMNzCzszcbEqY329WYN6FIbjfLSp03G1+lNz57lzfNnYw3\r\ntDGgN/1HkjePn5I3kYyKNx7+oTd5f4o3J36NN4eEmjcr+rM3d1ujNyX1ujdL0Zc3CbSjNzJcsTc4\r\n1bE39wy4N+E6qjc2GI43hwmNN0EcnTeN8KU3B/+WNwN5tTd8O4U3JHqONxAVuTcVZIg3CregN57j\r\nizd5wKs3P6eVNwOEmDelVrM3UOCbN/cqnzdrspc3CZ+lN8eCpDfjHKM312qSN5jRnDfPWLM3tqCF\r\nN0tKgzfs34U3EMOWN6UQozcLfok3oZyPN0FehDdNrG03C7OlN3V/lzfU4pQ3pQ19N/ZCjzcWd4A3\r\n1BOwN3omozeCXK830g+FN1PLsDdFk5E35qeiN9Q9mTfb4aU3/tKENww5mTfQ04M35d6QNzL9njd/\r\n95Y3QVGZN/v2nTeWSIk3yualN5qkiDd+VXY3hy6WN6XPrDdMu4A3Rl2qN+TFgDcdIp83gz+wN+X0\r\nnDcIxZs3Hr2uNyysfzcGip83sM6MN8S2lTc7VJo36zWHN85PlDdMcak3NFmrN5vBlzeNL4s3Meia\r\nN9hzXDfEpZQ3ZmyuN1TYkDdYk3U3HUinN4/UmzeNhXY36hydN59GnTcN8oI3hvyVNwCikjfDL3c/\r\n7I8mQFQ81z4xXHc+tggcPyJnK0CRsZU/w0SxPzzVOD8TZMg/tYKwPqSGlz9MaXA+dN8BPxdLYT8d\r\nKm0+yAFnPQ0Pgj0l5yY/pDg5P/+Oez8iRjg/5D7ePmY88z60Ph0/9JthP46QWT/vm2k/M4zxP+Dd\r\niz/1YxlAzt2hQKpLlkAf69FAq5HWQAcqyD89IvNAoUvsQJtdIUAdDs0/GVaAQDZ0EkCCbo9AHqbv\r\nP0XrhkCxxA0/PjK7PhyBnD7AbHo+cfKRPhYi7T7ZJ6g+1tCMPlBloz6yYYc//a6nP2Ec0D5EEmc/\r\np6BmP4acsj6FoAI/2r8xPv4URj/Y/J0/vSbPP9KeEz9km0M/OOVYP4wkX0BuD0dAqQLOP4nAtT9W\r\nhck/hLKnP5eE9z6Yrms/2ecAP9aZPD5BeIA/Y73ePuaTFD7VVgU/wjb6PSEaBj6eqtY93ZqQPfCt\r\noD31YBw+5uSJPr529j7oqOM94H4XPrgpDT4qNRQ+dEsXPmacAj4US3w9sDUnPhY1ij2221s9zMeF\r\nPUlOKT1P/6I9BEirPcnLIj5/zTc92KF1PYbStD2G6do8kauiPaR3qz0Umwo9KGWqPRYUZj0Y7O89\r\nQYllPruhJT7bFWU9SDbjPALCgj1cSZw9GrmePfYgwT1dj7Y9wj4SPi53HD40yhI9oQfDPflRUj0K\r\nQ1091khPPbhz0jwagC09OrMKP78kUj48V6E9As/QPKBOFj6f+vo8XFpEPUvsZT3wUS0+I07IPZKX\r\nNz5NU6k9DgIcPWOmzDxUq448PObsPKTAQj0AQqU8Ndu8PKcUMz1i98U8msx+PKOrwjzeMww9a6Xq\r\nPMpi5D2Zo0g9uzggPYtVyz0OG1c9hlhPPYnnCT3gXIg9h7DGPZ/h5Dy3oBM91E70PC0+Dz1Y3vo8\r\n+rTdPDUZ+zznKFg9D9wbPaX2zj2S9ks9lNP9PJq+NT1u48E88XnQPHJg6Dz0QwI94JF6PO44JjxW\r\nxjI89dgvPQhsvTzmplE8MuSkPPsAADyqOsY8zluKPX5mxzxb1Vg9xihTPQBQwT2kllM9otE/PkTZ\r\n6jwP1Sg9yORNPHEYhTxU4Kw8yIYUPo/mhTweuek8OwnFPOkUKzy4lCU8gJ1ZPcY//DxBifI8VAcA\r\nPbHXSDym/Bc9ie59PZWIdj1qI2E8mYUGPkXQej6Mv5c+7O6EPuVHRz8HVDc/Qcs6P9bYGT86SuQ+\r\nko71P4f/MUD+VUU/H0OdQIa+vj8DlZg/KpUQPoBZhz4ywUQ/ekmAPNEHMz8Rtbk+eDPgPdBJyj1k\r\nF/w98HazPypRZj2hvf4/WRmBQIIubT8M2aE+iJKePkfUOT/saJc+yjIOPupLWD+BWx8+67IAPkRn\r\nIT6JfhE85VVEPHrTATxSIkM+Njs0PpUdGjy15Xc96AT8PDnriTwq4RY9KW/RPPzdkTzUXA49GzE1\r\nPSTYlzwyJuE8CNLYPWQ/dz2SJWE8NiwkPJOMhzwFKX49DzEEPfGQYDzmBSA8H0SiPNyguTv/lIo7\r\nLMVPPCaoNTwMJBc9ZAIbPLrBDDw0JhY8DthAPHK6GT0655Q8Q2IxPGpwsTvdvxI8hN9IO4TvtTus\r\nhBc8PGbWO9wg1TskR4I82+tFPLZC2jsada87mFDwO7OdbDu0Zpo7+SkqPf46FT3H8yQ83CXTOwco\r\nlDtrxkc9fGx5PSPm6jxAcEY8cAXMPNDluDuNSr88ueedPCE5ijzV9JA8EZicOxK/3jvz3Uc7RrmM\r\nO/DWejr0/q06f6e4OtArfTtAZoE7qKsrO8Z8/TvRJ7c65N74ObogwDoVd9o6rGeUOj1jLzoQQUg5\r\nUpbGOdiNwjn9NL85x42FOUgf/DlowGA5r34kOZZ7RDmm8T45qunmOK4DXzl1JkE5nRINOUyR3jh2\r\nbgs5CDsuOfj36DgbscI5WAawOCyDwzju6d048y/xOOA7pzimx6A6ONqEOUzY3zhludU4pBfoODrz\r\nFjmuOeU4bpfNOCC5pzhULrM4PMGFOAQu3Tg2f/44oZm5OCVpxDj/tMc4NzeeOKKNeTg9uL44d5eO\r\nOMZOoTgGCqE4dWybOPrclTgX1K44S4ONOBqfnDh19ZE4ApmMOLfHjDirc404rN6SOH2OjTiQCYg4\r\nwkOVOFIbiziNToc4NhKVOEp0iDiA43s4fXd/OJrzhzgW53E4KJZqON4MhTjCTH441wR+OMaacjj+\r\ngno4/aKDOBNYgjj5IJU4lQd2OL/ugDiL+Gs4s5VfOJZrXDjU4284tLFOOKzmdzgM1Vw4+PZwOFrN\r\nZDjK6G44u9ddODQXTDj4OVc43VJZOIbuTzjEIV04PuJoONbuRjhALFM41nlVOFgaPDjApWY4lRJc\r\nOBLrOTh1aU04VUNEOH36QDiufUw4yE1bOPwyYjhrRVE4vo9QOJnGNTgKKFI4mntNOFH/UThsdTo4\r\nTeE6OMwRPDi1Mi447d4uOFFzJziMuTE42Ew/OD5QIDgKjC04EKIqONtPOjj420Q4xz0+ONb0LjgS\r\nAls4XuEwOP+NNTgCgyA4Ps84OIItLzgMJUI4hrc/OFWdIjhgfxk4SBUuOB7lNDgqnyM4AjsqOEZ/\r\nITgPSSA4XHIpODZUMTgSgDo4jlM2OIr5IDhEdyA4rxkYOMssKTiKeiA4CfsYOEIEJzg+eR447kI0\r\nOAKcIjgueyA4v0gROG7CHDjYbh84KrkLONB1FzgCKjU4Hz87OFbkGTiWyhQ4eK0XOAABEjiSuwk4\r\n5KIZOOSkKDiZaSo4tAkrONqxOzgOByg4TK8GOCNWETj6SSo4bhctOCIyEjhSPiE4ylwWOJZbCTgo\r\nESw4lNIGOBIbGTh0hwg41hMdONtjHzi/BQo4ZVYbOGZyFTj2rwY4pJ4bOMwuGDjuC+k3DkLwN3Rc\r\nDjgRD/03/+4COGWABzikPv03jlEcOA1S/zeU3wI4WRYVOFpdCjjZIhM4juLxN3FGETiiSuU3dGf3\r\nN01aBDiAxvw3FaL8N26zDjjMBvg3vGcEOGBeDjg4MxU4VGT/Nz0+3zf47wQ48iQNODIzBjjaIwc4\r\nGjfvN6geADiUSRQ4EE8COAdy/zeYBPM3XT0FOO0jzzd4e9c3qp8IOAMS9Tde1dc3DBP/N1xA4jcK\r\nzvc3YcYCOFzZ7jdwOvg3aS3nN2vP1zfQRv43Xhj6NxLs/jeWVAg4iqf/NyoR2jfPGAE44A77NxIy\r\n9zcozgQ4E8LqN8zuAjh+VcU3183/NyzQ4zfgSt03klbwNzh36Tcq3fE3d2jWN2so+TeFd/g3PEfW\r\nN9h3CThPM9g37YoDOEq68jeD4fE3tRPEN3TX9TfSX/k3thHUN5pH2zeYC+I3Ns3YN4KE2zdBOe83\r\nxCPcN81I2zc68Os3jtjlN0aU0Dc9udQ3cFbgN68VxzfIOeI3UuoHOOC12DdG0to3vMrGN+xrzzfn\r\nq9I3yZDDN0Mg3Tc+WMo3pce6N3o32TcYd8M3UOPNN0fd8jf2p9o3hrXPN6q2zTclr7Q3ZrjKN+z9\r\nxjchdAQ4f5HdN2Ny1jdBM8w3Li7VN0ZByTecUNM3Qk3NN7P5sTdCVt43akDJNxjOzzdyork3tPq0\r\nN4Bs5TcFxs43VxLWN7qtxTe308Q3IhnYN2CA2jdm8LM3TqTANwFHzDfQRM43yFnNN3YR0Tf0C8Q3\r\nDa+wN3810TcCvNg3h425N+BOzzc+htY3gXzGN2yMvjeM4N43YwWyN2g03Tf8KbY3+aveN+iZwTck\r\njrY3txvLN8qN7Tcpx643hKzCN4CCszcTx8U3MqPNN2yX0Tc5IMc3iie+N58l5zfWo7M3rA3MNznx\r\nqTe7RsA34EbON7sAvjefgbI36Ze9N0GmxDdpcLE3PLHDN9xRrTcWosE31OrZN+gOuzdpZsA32Vyi\r\nN3WZtjcMMq83I9SyN9httTfuF5s3bFSvN17jxTec4tQ3qa7RNyXusjebwaw3zi2vNyJbsDd8DtQ3\r\ntGDPN1/PtTdCQbE3VbfJN94oljdXJKk37BG5N0YZpjeJz6Q3OP7CN1uFsDeUkL43xh2mN4TExjdt\r\noa43Rq6TN4xltjfyQKc3XFCrNye8mDc+lt43YYPIN8TalTf0k6c36KqrN4jVnDfHj6Q3PzW3N9yy\r\npDetjc43TtGmN/OYojcxEbM3pgCxN8nBuzf0D8Q3BP6xN0wKwTfSF643qqqvN/D9oTe1Xqw3Etu0\r\nN8RlqDfnlqs3ULSjN7F4jTd/Xo43umykN9QFvDcB7rQ3KN+pN7UMwjci67U3qnS1N/dHyjenjrA3\r\nmLWwN7ihsDc4I7I3SMOeNy9Ypjd59qQ3dsK2N+AUnzckN8I3/8qcN1UHpjecpKM3Gc3SN9Q1wzel\r\npqw3eD6YNywvrzcPMbk3wquwN2oynTd27KA3omqUN6vurzcK9683QrSrNxxnoTdmpaY3C8mhNwu9\r\nujcTAa03GJO7NyvpqzfAvqQ3i+qGN+n0kzegR7g3iEiuNymhljfs5Kk3C16pN0h4kTesl6c3+wGQ\r\nN7b1ljeoAKs3XnqvN2kqjDc9+Jw3Vq2iN8b6mjfdMZU35CCaN7Mf1jezSLM3+iaeNww/szeOoqg3\r\nDUK2NynUijfFCJ03aAqQN6pbkzdxbMA39rOfN1dSljdzZpk3xtGvNzETvDfn0rw3jtyHN3kSgTeS\r\n1bI3unGKN6bcrzdtcoE3wI+YNwRfqzeSMpk3ACqcN/ilnzfcPJg3FcKEN6hQnjdcca43kwGxN7HX\r\nhDdaV783XRGMN5DunTeVRJs3CNqVN3OhpjdwBak3VauUN4rWpze+j383cNSsN27ltTf1HLM3QdeS\r\nN0kugje/JqM36DejN/6plTcZy4w3MLOzNxsSpjfb1Zg3oUhuN8tKnTcbX6U3PnuXN82djDe0MaA3\r\n/UeSN4+fkjeRjIo3Hv6hN3l/ijcnfo03h4SaNyv6szd3W6M3JfW6N0vRlzcJtKM3MlyxNzjVsTf3\r\nDLg34TqqNzYYjjeHCY03QRydN43wpTcH/5Y3A3m1N3w7hTckeo43EBW5NxVkiDcKt6A3nuOLN3nA\r\nqzc/p5U3A4SYN6VWszdQ4Js39yqfN2uylzcJn6U3x4KkN+McozfXapI3mNGcN89Ysze2oIU3S0qD\r\nN+zfhTcQw5Y3pRCjNwt+iTehnI83QV6EN02sbTcLs6U3dX+XN9TilDelDX039kKPNxZ3gDfUE7A3\r\neiajN4JcrzfSD4U3U8uwN0WTkTfmp6I31D2ZN9vhpTf+0oQ3DDmZN9DTgzfl3pA3Mv2eN3/3ljdB\r\nUZk3+/adN5ZIiTfK5qU3mqSIN35VdjeHLpY3pc+sN0y7gDdGXao35MWANx0inzeDP7A35fScNwjF\r\nmzceva43LKx/NwaKnzewzow3xLaVNztUmjfrNYc3zk+UN0xxqTc0Was3m8GXN40vizcx6Jo32HNc\r\nN8SllDdmbK43VNiQN1iTdTcdSKc3j9SbN42FdjfqHJ03n0adNw3ygjeG/JU3AKKSNw==",
                            "noiseTrainingType" : "default"
                          }
                        }
                    ],
                    "start" : 12540,
                    "duration" : 2563,
                    "mediaStart" : 5062,
                    "mediaDuration" : 2563,
                    "scalar" : 1,
                    "metadata" : {
                      "WinSubProjectDisplayName" : "",
                      "clipSpeedAttribute" : false
                    },
                    "animationTracks" : {

                    }
                  },
                  {
                    "id" : 169,
                    "_type" : "StitchedMedia",
                    "minMediaStart" : 0,
                    "attributes" : {
                      "ident" : "tower-arch-04",
                      "gain" : 1.0,
                      "mixToMono" : false
                    },
                    "parameters" : {
                      "volume" : 1.0,
                      "cursorOpacity" : 1.0,
                      "cursorScale" : 1.0
                    },
                    "medias" : [
                        {
                          "id" : 170,
                          "_type" : "AMFile",
                          "src" : 5,
                          "trackNumber" : 1,
                          "attributes" : {
                            "ident" : "Rec 02-03-20_005",
                            "sampleRate" : 44100,
                            "bitDepth" : 16,
                            "gain" : 1.0,
                            "mixToMono" : false
                          },
                            "channelNumber" : "0,1",
                          "effects" : [

                          ],
                          "start" : 0,
                          "duration" : 455,
                          "mediaStart" : 0,
                          "mediaDuration" : 455,
                          "scalar" : 1,
                          "metadata" : {
                            "WinSubProjectDisplayName" : "",
                            "clipSpeedAttribute" : false
                          },
                          "animationTracks" : {

                          }
                        },
                        {
                          "id" : 171,
                          "_type" : "AMFile",
                          "src" : 5,
                          "trackNumber" : 1,
                          "attributes" : {
                            "ident" : "Rec 02-03-20_005",
                            "sampleRate" : 44100,
                            "bitDepth" : 16,
                            "gain" : 1.0,
                            "mixToMono" : false
                          },
                            "channelNumber" : "0,1",
                          "effects" : [

                          ],
                          "start" : 455,
                          "duration" : 26,
                          "mediaStart" : 465,
                          "mediaDuration" : 26,
                          "scalar" : 1,
                          "metadata" : {
                            "WinSubProjectDisplayName" : "",
                            "clipSpeedAttribute" : false
                          },
                          "animationTracks" : {

                          }
                        },
                        {
                          "id" : 172,
                          "_type" : "AMFile",
                          "src" : 5,
                          "trackNumber" : 1,
                          "attributes" : {
                            "ident" : "Rec 02-03-20_005",
                            "sampleRate" : 44100,
                            "bitDepth" : 16,
                            "gain" : 1.0,
                            "mixToMono" : false
                          },
                            "channelNumber" : "0,1",
                          "effects" : [

                          ],
                          "start" : 481,
                          "duration" : 113,
                          "mediaStart" : 505,
                          "mediaDuration" : 113,
                          "scalar" : 1,
                          "metadata" : {
                            "WinSubProjectDisplayName" : "",
                            "clipSpeedAttribute" : false
                          },
                          "animationTracks" : {

                          }
                        },
                        {
                          "id" : 173,
                          "_type" : "AMFile",
                          "src" : 5,
                          "trackNumber" : 1,
                          "attributes" : {
                            "ident" : "Rec 02-03-20_005",
                            "sampleRate" : 44100,
                            "bitDepth" : 16,
                            "gain" : 1.0,
                            "mixToMono" : false
                          },
                            "channelNumber" : "0,1",
                          "effects" : [

                          ],
                          "start" : 594,
                          "duration" : 1177,
                          "mediaStart" : 738,
                          "mediaDuration" : 1177,
                          "scalar" : 1,
                          "metadata" : {
                            "WinSubProjectDisplayName" : "",
                            "clipSpeedAttribute" : false
                          },
                          "animationTracks" : {

                          }
                        },
                        {
                          "id" : 174,
                          "_type" : "AMFile",
                          "src" : 5,
                          "trackNumber" : 1,
                          "attributes" : {
                            "ident" : "Rec 02-03-20_005",
                            "sampleRate" : 44100,
                            "bitDepth" : 16,
                            "gain" : 1.0,
                            "mixToMono" : false
                          },
                            "channelNumber" : "0,1",
                          "effects" : [

                          ],
                          "start" : 1771,
                          "duration" : 882,
                          "mediaStart" : 1947,
                          "mediaDuration" : 882,
                          "scalar" : 1,
                          "metadata" : {
                            "WinSubProjectDisplayName" : "",
                            "clipSpeedAttribute" : false
                          },
                          "animationTracks" : {

                          }
                        },
                        {
                          "id" : 175,
                          "_type" : "AMFile",
                          "src" : 5,
                          "trackNumber" : 1,
                          "attributes" : {
                            "ident" : "Rec 02-03-20_005",
                            "sampleRate" : 44100,
                            "bitDepth" : 16,
                            "gain" : 1.0,
                            "mixToMono" : false
                          },
                            "channelNumber" : "0,1",
                          "effects" : [

                          ],
                          "start" : 2653,
                          "duration" : 331,
                          "mediaStart" : 2849,
                          "mediaDuration" : 331,
                          "scalar" : 1,
                          "metadata" : {
                            "WinSubProjectDisplayName" : "",
                            "clipSpeedAttribute" : false
                          },
                          "animationTracks" : {

                          }
                        },
                        {
                          "id" : 176,
                          "_type" : "AMFile",
                          "src" : 5,
                          "trackNumber" : 1,
                          "attributes" : {
                            "ident" : "Rec 02-03-20_005",
                            "sampleRate" : 44100,
                            "bitDepth" : 16,
                            "gain" : 1.0,
                            "mixToMono" : false
                          },
                            "channelNumber" : "0,1",
                          "effects" : [

                          ],
                          "start" : 2984,
                          "duration" : 91,
                          "mediaStart" : 3238,
                          "mediaDuration" : 91,
                          "scalar" : 1,
                          "metadata" : {
                            "WinSubProjectDisplayName" : "",
                            "clipSpeedAttribute" : false
                          },
                          "animationTracks" : {

                          }
                        },
                        {
                          "id" : 177,
                          "_type" : "AMFile",
                          "src" : 5,
                          "trackNumber" : 1,
                          "attributes" : {
                            "ident" : "Rec 02-03-20_005",
                            "sampleRate" : 44100,
                            "bitDepth" : 16,
                            "gain" : 1.0,
                            "mixToMono" : false
                          },
                            "channelNumber" : "0,1",
                          "effects" : [

                          ],
                          "start" : 3075,
                          "duration" : 193,
                          "mediaStart" : 3415,
                          "mediaDuration" : 193,
                          "scalar" : 1,
                          "metadata" : {
                            "WinSubProjectDisplayName" : "",
                            "clipSpeedAttribute" : false
                          },
                          "animationTracks" : {

                          }
                        },
                        {
                          "id" : 178,
                          "_type" : "AMFile",
                          "src" : 5,
                          "trackNumber" : 1,
                          "attributes" : {
                            "ident" : "Rec 02-03-20_005",
                            "sampleRate" : 44100,
                            "bitDepth" : 16,
                            "gain" : 1.0,
                            "mixToMono" : false
                          },
                            "channelNumber" : "0,1",
                          "effects" : [

                          ],
                          "start" : 3268,
                          "duration" : 71,
                          "mediaStart" : 3770,
                          "mediaDuration" : 71,
                          "scalar" : 1,
                          "metadata" : {
                            "WinSubProjectDisplayName" : "",
                            "clipSpeedAttribute" : false
                          },
                          "animationTracks" : {

                          }
                        },
                        {
                          "id" : 179,
                          "_type" : "AMFile",
                          "src" : 5,
                          "trackNumber" : 1,
                          "attributes" : {
                            "ident" : "Rec 02-03-20_005",
                            "sampleRate" : 44100,
                            "bitDepth" : 16,
                            "gain" : 1.0,
                            "mixToMono" : false
                          },
                            "channelNumber" : "0,1",
                          "effects" : [

                          ],
                          "start" : 3339,
                          "duration" : 516,
                          "mediaStart" : 3867,
                          "mediaDuration" : 516,
                          "scalar" : 1,
                          "metadata" : {
                            "WinSubProjectDisplayName" : "",
                            "clipSpeedAttribute" : false
                          },
                          "animationTracks" : {

                          }
                        },
                        {
                          "id" : 180,
                          "_type" : "AMFile",
                          "src" : 5,
                          "trackNumber" : 1,
                          "attributes" : {
                            "ident" : "Rec 02-03-20_005",
                            "sampleRate" : 44100,
                            "bitDepth" : 16,
                            "gain" : 1.0,
                            "mixToMono" : false
                          },
                            "channelNumber" : "0,1",
                          "effects" : [

                          ],
                          "start" : 3855,
                          "duration" : 133,
                          "mediaStart" : 4421,
                          "mediaDuration" : 133,
                          "scalar" : 1,
                          "metadata" : {
                            "WinSubProjectDisplayName" : "",
                            "clipSpeedAttribute" : false
                          },
                          "animationTracks" : {

                          }
                        },
                        {
                          "id" : 181,
                          "_type" : "AMFile",
                          "src" : 5,
                          "trackNumber" : 1,
                          "attributes" : {
                            "ident" : "Rec 02-03-20_005",
                            "sampleRate" : 44100,
                            "bitDepth" : 16,
                            "gain" : 1.0,
                            "mixToMono" : false
                          },
                            "channelNumber" : "0,1",
                          "effects" : [

                          ],
                          "start" : 3988,
                          "duration" : 615,
                          "mediaStart" : 4592,
                          "mediaDuration" : 615,
                          "scalar" : 1,
                          "metadata" : {
                            "WinSubProjectDisplayName" : "",
                            "clipSpeedAttribute" : false
                          },
                          "animationTracks" : {

                          }
                        },
                        {
                          "id" : 182,
                          "_type" : "AMFile",
                          "src" : 5,
                          "trackNumber" : 1,
                          "attributes" : {
                            "ident" : "Rec 02-03-20_005",
                            "sampleRate" : 44100,
                            "bitDepth" : 16,
                            "gain" : 1.0,
                            "mixToMono" : false
                          },
                            "channelNumber" : "0,1",
                          "effects" : [

                          ],
                          "start" : 4603,
                          "duration" : 399,
                          "mediaStart" : 5339,
                          "mediaDuration" : 399,
                          "scalar" : 1,
                          "metadata" : {
                            "WinSubProjectDisplayName" : "",
                            "clipSpeedAttribute" : false
                          },
                          "animationTracks" : {

                          }
                        },
                        {
                          "id" : 183,
                          "_type" : "AMFile",
                          "src" : 5,
                          "trackNumber" : 1,
                          "attributes" : {
                            "ident" : "Rec 02-03-20_005",
                            "sampleRate" : 44100,
                            "bitDepth" : 16,
                            "gain" : 1.0,
                            "mixToMono" : false
                          },
                            "channelNumber" : "0,1",
                          "effects" : [

                          ],
                          "start" : 5002,
                          "duration" : 1874,
                          "mediaStart" : 5946,
                          "mediaDuration" : 1874,
                          "scalar" : 1,
                          "metadata" : {
                            "WinSubProjectDisplayName" : "",
                            "clipSpeedAttribute" : false
                          },
                          "animationTracks" : {

                          }
                        },
                        {
                          "id" : 184,
                          "_type" : "AMFile",
                          "src" : 5,
                          "trackNumber" : 1,
                          "attributes" : {
                            "ident" : "Rec 02-03-20_005",
                            "sampleRate" : 44100,
                            "bitDepth" : 16,
                            "gain" : 1.0,
                            "mixToMono" : false
                          },
                            "channelNumber" : "0,1",
                          "effects" : [

                          ],
                          "start" : 6876,
                          "duration" : 124,
                          "mediaStart" : 7848,
                          "mediaDuration" : 124,
                          "scalar" : 1,
                          "metadata" : {
                            "WinSubProjectDisplayName" : "",
                            "clipSpeedAttribute" : false
                          },
                          "animationTracks" : {

                          }
                        },
                        {
                          "id" : 185,
                          "_type" : "AMFile",
                          "src" : 5,
                          "trackNumber" : 1,
                          "attributes" : {
                            "ident" : "Rec 02-03-20_005",
                            "sampleRate" : 44100,
                            "bitDepth" : 16,
                            "gain" : 1.0,
                            "mixToMono" : false
                          },
                            "channelNumber" : "0,1",
                          "effects" : [

                          ],
                          "start" : 7000,
                          "duration" : 287,
                          "mediaStart" : 7980,
                          "mediaDuration" : 287,
                          "scalar" : 1,
                          "metadata" : {
                            "WinSubProjectDisplayName" : "",
                            "clipSpeedAttribute" : false
                          },
                          "animationTracks" : {

                          }
                        },
                        {
                          "id" : 186,
                          "_type" : "AMFile",
                          "src" : 5,
                          "trackNumber" : 1,
                          "attributes" : {
                            "ident" : "Rec 02-03-20_005",
                            "sampleRate" : 44100,
                            "bitDepth" : 16,
                            "gain" : 1.0,
                            "mixToMono" : false
                          },
                            "channelNumber" : "0,1",
                          "effects" : [

                          ],
                          "start" : 7287,
                          "duration" : 266,
                          "mediaStart" : 8281,
                          "mediaDuration" : 266,
                          "scalar" : 1,
                          "metadata" : {
                            "WinSubProjectDisplayName" : "",
                            "clipSpeedAttribute" : false
                          },
                          "animationTracks" : {

                          }
                        },
                        {
                          "id" : 187,
                          "_type" : "AMFile",
                          "src" : 5,
                          "trackNumber" : 1,
                          "attributes" : {
                            "ident" : "Rec 02-03-20_005",
                            "sampleRate" : 44100,
                            "bitDepth" : 16,
                            "gain" : 1.0,
                            "mixToMono" : false
                          },
                            "channelNumber" : "0,1",
                          "effects" : [

                          ],
                          "start" : 7553,
                          "duration" : 258,
                          "mediaStart" : 8578,
                          "mediaDuration" : 258,
                          "scalar" : 1,
                          "metadata" : {
                            "WinSubProjectDisplayName" : "",
                            "clipSpeedAttribute" : false
                          },
                          "animationTracks" : {

                          }
                        }
                    ],
                    "effects" : [
                        {
                          "effectName" : "NoiseReduction",
                          "category" : "categoryAudioEffects",
                          "parameters" : {
                            "denoiserAmount" : 20.0,
                            "denoiserThreshold" : 0.0,
                            "noiseProfile" : "wy93P+yPJkBUPNc+gnV3PoD6Gz8xbytAkbGVP8NEsT881Tg/BFvIP49RsD4GeJc/TGlwPnTfAT8X\r\nS2E/HSptPsgBZz0ND4I99/gmP/5zOT+Sens/SGI4P7sp3j67VfM+8D0dP1SJYT+OkFk/75tpP81/\r\n8T/g3Ys/u3AZQNPJoUCqS5ZAH+vRQKuR1kAHKsg/cyTzQAFE7ECbXSFAOjPNPxlWgEA2dBJAgm6P\r\nQB6m7z9F64ZAOL0NPz4yuz4cgZw+wGx6Ptklkj4WIu0+nC+oPrTLjD5QZaM+3GWHP2DFpz9hHNA+\r\nvBtnPwvAZj+GnLI+haACP9zNMT7+FEY/2PydP70mzz/SnhM/zXdDPzjlWD+MJF9Abg9HQKkCzj/T\r\n1LU/VoXJP4Sypz+XhPc+mK5rP9nnAD/WmTw+QXiAP2O93j6F7BQ+1VYFP8I2+j0hGgY+nqrWPd2a\r\nkD3wraA99WAcPubkiT6+dvY+6KjjPeB+Fz64KQ0+VBwUPnRLFz5mnAI+FEt8PbA1Jz4WNYo9tttb\r\nPczHhT0/GCk9T/+iPQRIqz3JyyI+f803PdihdT2G0rQ9hunaPJGroj2UGKs9s7wKPShlqj28iGU9\r\nx0PwPdITZT6kpSU+2xVlPUg24zwiJ4M9XEmcPZgonj32IME9XY+2PUI/Ej7CVRw+aAcTPUIbwz35\r\nUVI9yERePdZITz1UhtI8GoAtPTqzCj/wUFI+PFehPWDJ0DygThY+n/r6PFxaRD1L7GU98FEtPudM\r\nyD0enDc+TVOpPQ4CHD1jpsw8VKuOPDzm7Dw8wUI9AEKlPDXbvDxB3jI9z3jGPJrMfjxoBsM8WUYM\r\nPdsE7DysNuQ9maNIPbs4ID2LVcs9DhtXPYZYTz2J5wk9EDuIPQrexj2f4eQ8t6ATPdRO9DwtPg89\r\nWN76PPq03TxtZvo85yhYPSQUHD1Dks49RsVLPZTT/TyavjU9VMjAPPF50DxyYOg89EMCPeCRejzS\r\n+yY8VsYyPPXYLz0Sf7085qZRPMhqpDz7AAA8qjrGPM5bij1+Zsc8W9VYPcYoUz0AUME9pJZTPaLR\r\nPz5E2eo8mQwoPaCfTTxxGIU8VOCsPMiGFD6P5oU8HrnpPDsJxTzpFCs8rJskPICdWT3GP/w8QYny\r\nPFQHAD2x10g8pvwXPYnufT2ViHY9aiNhPJmFBj5F0Ho+jL+XPuzuhD7lR0c/B1Q3P0HLOj/W2Bk/\r\nOkrkPpKO9T+H/zFA/lVFPx9DnUCGvr4/A5WYPyqVED6AWYc+MsFEP3pJgDzRBzM/EbW5Pngz4D3Q\r\nSco9ZBf8PfB2sz8qUWY9ob3+P1kZgUCCLm0/DNmhPoiSnj5H1Dk/7GiXPsoyDj7qS1g/gVsfPuuy\r\nAD5EZyE+iX4RPOVVRDyf8AA8UiJDPjY7ND6PlRk8teV3PegE/DzU9ok8KuEWPSlv0TwxpZE8BkgO\r\nPaH/ND1E9Jc8epTiPAjS2D1kP3c9kiVhPI8lJDyTjIc8BSl+PQ8xBD3xkGA8zcgfPB9EojwcBrk7\r\n/5SKOyzFTzwmqDU8DCQXPWQCGzy6wQw8NCYWPATQQTxyuhk9UqWVPENiMTyYnbA73b8SPITfSDuX\r\n3LU7YwgYPDxm1jvcINU7JEeCPNvrRTw+UNw7GnWvO5hQ8Dvelm07tGaaO/kpKj3+OhU9x/MkPNwl\r\n0zsHKJQ7a8ZHPXxseT0j5uo8QHBGPHAFzDzQ5bg7jUq/PLnnnTwhOYo8hKyRPEONnDsSv947891H\r\nO0a5jDvw1no69P6tOsLhuDrQK307QGaBO6irKzvGfP07EMO3OuTe+DnwhL86nxPcOqxnlDpjwC06\r\niz9SObErxTnYjcI5/TS/Oa6AhzlIH/w5aMBgOa9+JDmWe0Q5pvE+Oe4/8ziuA185dSZBOZ0SDTlM\r\nkd44dm4LOQg7Ljn49+g4G7HCOVgGsDgsg8M47undOPMv8TjgO6c4psegOjjahDlM2N84ZbnVOKQX\r\n6Dg68xY5rjnlOG6XzTgguac4VC6zODzBhTgELt04Nn/+OKGZuTglacQ4/7THODc3njiijXk4Pbi+\r\nOHeXjjjGTqE4BgqhOHVsmzj63JU4F9SuOEuDjTgan5w4dfWROAKZjDi3x4w4q3ONOKzekjh9jo04\r\nkAmIOMJDlThSG4s4jU6HODYSlThKdIg4gON7OH13fzia84c4FudxOCiWajjeDIU4wkx+ONcEfjjG\r\nmnI4/oJ6OP2igzgTWII4+SCVOJUHdji/7oA4i/hrOLOVXziWa1w41ONvOLSxTjis5nc4DNVcOPj2\r\ncDhazWQ4yuhuOLvXXTg0F0w4+DlXON1SWTiG7k84xCFdOD7iaDjW7kY4QCxTONZ5VThYGjw4wKVm\r\nOJUSXDgS6zk4dWlNOFVDRDh9+kA4rn1MOMhNWzj8MmI4a0VROL6PUDiZxjU4CihSOJp7TThR/1E4\r\nbHU6OE3hOjjMETw4tTIuOO3eLjhRcyc4jLkxONhMPzg+UCA4CowtOBCiKjjbTzo4+NtEOMc9PjjW\r\n9C44EgJbOF7hMDj/jTU4AoMgOD7PODiCLS84DCVCOIa3PzhVnSI4YH8ZOEgVLjge5TQ4Kp8jOAI7\r\nKjhGfyE4D0kgOFxyKTg2VDE4EoA6OI5TNjiK+SA4RHcgOK8ZGDjLLCk4inogOAn7GDhCBCc4Pnke\r\nOO5CNDgCnCI4LnsgOL9IEThuwhw42G4fOCq5CzjQdRc4Aio1OB8/OzhW5Bk4lsoUOHitFzgAARI4\r\nkrsJOOSiGTjkpCg4mWkqOLQJKzjasTs4DgcoOEyvBjgjVhE4+kkqOG4XLTgiMhI4Uj4hOMpcFjiW\r\nWwk4KBEsOJTSBjgSGxk4dIcIONYTHTjbYx84vwUKOGVWGzhmchU49q8GOKSeGzjMLhg47gvpNw5C\r\n8Dd0XA44EQ/9N//uAjhlgAc4pD79N45RHDgNUv83lN8COFkWFThaXQo42SITOI7i8TdxRhE4okrl\r\nN3Rn9zdNWgQ4gMb8NxWi/Ddusw44zAb4N7xnBDhgXg44ODMVOFRk/zc9Pt83+O8EOPIkDTgyMwY4\r\n2iMHOBo37zeoHgA4lEkUOBBPAjgHcv83mATzN109BTjtI883eHvXN6qfCDgDEvU3XtXXNwwT/zdc\r\nQOI3Cs73N2HGAjhc2e43cDr4N2kt5zdrz9c30Eb+N14Y+jcS7P43llQIOIqn/zcqEdo3zxgBOOAO\r\n+zcSMvc3KM4EOBPC6jfM7gI4flXFN9fN/zcs0OM34ErdN5JW8Dc4d+k3Kt3xN3do1jdrKPk3hXf4\r\nNzxH1jfYdwk4TzPYN+2KAzhKuvI3g+HxN7UTxDd01/U30l/5N7YR1DeaR9s3mAviNzbN2DeChNs3\r\nQTnvN8Qj3DfNSNs3OvDrN47Y5TdGlNA3PbnUN3BW4DevFcc3yDniN1LqBzjgtdg3RtLaN7zKxjfs\r\na88356vSN8mQwzdDIN03PljKN6XHujd6N9k3GHfDN1DjzTdH3fI39qfaN4a1zzeqts03Ja+0N2a4\r\nyjfs/cY3IXQEOH+R3TdjctY3QTPMNy4u1TdGQck3nFDTN0JNzTez+bE3QlbeN2pAyTcYzs83cqK5\r\nN7T6tDeAbOU3BcbON1cS1je6rcU3t9PENyIZ2DdggNo3ZvCzN06kwDcBR8w30ETON8hZzTd2EdE3\r\n9AvENw2vsDd/NdE3ArzYN4eNuTfgTs83PobWN4F8xjdsjL43jODeN2MFsjdoNN03/Cm2N/mr3jfo\r\nmcE3JI62N7cbyzfKje03KceuN4SswjeAgrM3E8fFNzKjzTdsl9E3OSDHN4onvjefJec31qOzN6wN\r\nzDc58ak3u0bAN+BGzje7AL43n4GyN+mXvTdBpsQ3aXCxNzyxwzfcUa03FqLBN9Tq2TfoDrs3aWbA\r\nN9lcojd1mbY3DDKvNyPUsjfYbbU37hebN2xUrzde48U3nOLUN6mu0Tcl7rI3m8GsN84trzciW7A3\r\nfA7UN7Rgzzdfz7U3QkGxN1W3yTfeKJY3VySpN+wRuTdGGaY3ic+kNzj+wjdbhbA3lJC+N8YdpjeE\r\nxMY3baGuN0aukzeMZbY38kCnN1xQqzcnvJg3PpbeN2GDyDfE2pU39JOnN+iqqzeI1Zw3x4+kNz81\r\ntzfcsqQ3rY3ON07RpjfzmKI3MRGzN6YAsTfJwbs39A/ENwT+sTdMCsE30heuN6qqrzfw/aE3tV6s\r\nNxLbtDfEZag355arN1C0ozexeI03f16ON7pspDfUBbw3Ae60NyjfqTe1DMI3Iuu1N6p0tTf3R8o3\r\np46wN5i1sDe4obA3OCOyN0jDnjcvWKY3efakN3bCtjfgFJ83JDfCN//KnDdVB6Y3nKSjNxnN0jfU\r\nNcM3paasN3g+mDcsL683DzG5N8KrsDdqMp03duygN6JqlDer7q83CvevN0K0qzccZ6E3ZqWmNwvJ\r\noTcLvbo3EwGtNxiTuzcr6as3wL6kN4vqhjfp9JM3oEe4N4hIrjcpoZY37OSpNwteqTdIeJE3rJen\r\nN/sBkDe29ZY3qACrN156rzdpKow3PficN1atojfG+po33TGVN+QgmjezH9Y3s0izN/omnjcMP7M3\r\njqKoNw1Ctjcp1Io3xQidN2gKkDeqW5M3cWzAN/aznzdXUpY3c2aZN8bRrzcxE7w359K8N47chzd5\r\nEoE3ktWyN7pxijem3K83bXKBN8CPmDcEX6s3kjKZNwAqnDf4pZ833DyYNxXChDeoUJ43XHGuN5MB\r\nsTex14Q3Wle/N10RjDeQ7p03lUSbNwjalTdzoaY3cAWpN1WrlDeK1qc3vo9/N3DUrDdu5bU39Ryz\r\nN0HXkjdJLoI3vyajN+g3ozf+qZU3GcuMNzCzszcbEqY329WYN6FIbjfLSp03G1+lNz57lzfNnYw3\r\ntDGgN/1HkjePn5I3kYyKNx7+oTd5f4o3J36NN4eEmjcr+rM3d1ujNyX1ujdL0Zc3CbSjNzJcsTc4\r\n1bE39wy4N+E6qjc2GI43hwmNN0EcnTeN8KU3B/+WNwN5tTd8O4U3JHqONxAVuTcVZIg3CregN57j\r\nizd5wKs3P6eVNwOEmDelVrM3UOCbN/cqnzdrspc3CZ+lN8eCpDfjHKM312qSN5jRnDfPWLM3tqCF\r\nN0tKgzfs34U3EMOWN6UQozcLfok3oZyPN0FehDdNrG03C7OlN3V/lzfU4pQ3pQ19N/ZCjzcWd4A3\r\n1BOwN3omozeCXK830g+FN1PLsDdFk5E35qeiN9Q9mTfb4aU3/tKENww5mTfQ04M35d6QNzL9njd/\r\n95Y3QVGZN/v2nTeWSIk3yualN5qkiDd+VXY3hy6WN6XPrDdMu4A3Rl2qN+TFgDcdIp83gz+wN+X0\r\nnDcIxZs3Hr2uNyysfzcGip83sM6MN8S2lTc7VJo36zWHN85PlDdMcak3NFmrN5vBlzeNL4s3Meia\r\nN9hzXDfEpZQ3ZmyuN1TYkDdYk3U3HUinN4/UmzeNhXY36hydN59GnTcN8oI3hvyVNwCikjfDL3c/\r\n7I8mQFQ81z4xXHc+tggcPyJnK0CRsZU/w0SxPzzVOD8TZMg/tYKwPqSGlz9MaXA+dN8BPxdLYT8d\r\nKm0+yAFnPQ0Pgj0l5yY/pDg5P/+Oez8iRjg/5D7ePmY88z60Ph0/9JthP46QWT/vm2k/M4zxP+Dd\r\niz/1YxlAzt2hQKpLlkAf69FAq5HWQAcqyD89IvNAoUvsQJtdIUAdDs0/GVaAQDZ0EkCCbo9AHqbv\r\nP0XrhkCxxA0/PjK7PhyBnD7AbHo+cfKRPhYi7T7ZJ6g+1tCMPlBloz6yYYc//a6nP2Ec0D5EEmc/\r\np6BmP4acsj6FoAI/2r8xPv4URj/Y/J0/vSbPP9KeEz9km0M/OOVYP4wkX0BuD0dAqQLOP4nAtT9W\r\nhck/hLKnP5eE9z6Yrms/2ecAP9aZPD5BeIA/Y73ePuaTFD7VVgU/wjb6PSEaBj6eqtY93ZqQPfCt\r\noD31YBw+5uSJPr529j7oqOM94H4XPrgpDT4qNRQ+dEsXPmacAj4US3w9sDUnPhY1ij2221s9zMeF\r\nPUlOKT1P/6I9BEirPcnLIj5/zTc92KF1PYbStD2G6do8kauiPaR3qz0Umwo9KGWqPRYUZj0Y7O89\r\nQYllPruhJT7bFWU9SDbjPALCgj1cSZw9GrmePfYgwT1dj7Y9wj4SPi53HD40yhI9oQfDPflRUj0K\r\nQ1091khPPbhz0jwagC09OrMKP78kUj48V6E9As/QPKBOFj6f+vo8XFpEPUvsZT3wUS0+I07IPZKX\r\nNz5NU6k9DgIcPWOmzDxUq448PObsPKTAQj0AQqU8Ndu8PKcUMz1i98U8msx+PKOrwjzeMww9a6Xq\r\nPMpi5D2Zo0g9uzggPYtVyz0OG1c9hlhPPYnnCT3gXIg9h7DGPZ/h5Dy3oBM91E70PC0+Dz1Y3vo8\r\n+rTdPDUZ+zznKFg9D9wbPaX2zj2S9ks9lNP9PJq+NT1u48E88XnQPHJg6Dz0QwI94JF6PO44JjxW\r\nxjI89dgvPQhsvTzmplE8MuSkPPsAADyqOsY8zluKPX5mxzxb1Vg9xihTPQBQwT2kllM9otE/PkTZ\r\n6jwP1Sg9yORNPHEYhTxU4Kw8yIYUPo/mhTweuek8OwnFPOkUKzy4lCU8gJ1ZPcY//DxBifI8VAcA\r\nPbHXSDym/Bc9ie59PZWIdj1qI2E8mYUGPkXQej6Mv5c+7O6EPuVHRz8HVDc/Qcs6P9bYGT86SuQ+\r\nko71P4f/MUD+VUU/H0OdQIa+vj8DlZg/KpUQPoBZhz4ywUQ/ekmAPNEHMz8Rtbk+eDPgPdBJyj1k\r\nF/w98HazPypRZj2hvf4/WRmBQIIubT8M2aE+iJKePkfUOT/saJc+yjIOPupLWD+BWx8+67IAPkRn\r\nIT6JfhE85VVEPHrTATxSIkM+Njs0PpUdGjy15Xc96AT8PDnriTwq4RY9KW/RPPzdkTzUXA49GzE1\r\nPSTYlzwyJuE8CNLYPWQ/dz2SJWE8NiwkPJOMhzwFKX49DzEEPfGQYDzmBSA8H0SiPNyguTv/lIo7\r\nLMVPPCaoNTwMJBc9ZAIbPLrBDDw0JhY8DthAPHK6GT0655Q8Q2IxPGpwsTvdvxI8hN9IO4TvtTus\r\nhBc8PGbWO9wg1TskR4I82+tFPLZC2jsada87mFDwO7OdbDu0Zpo7+SkqPf46FT3H8yQ83CXTOwco\r\nlDtrxkc9fGx5PSPm6jxAcEY8cAXMPNDluDuNSr88ueedPCE5ijzV9JA8EZicOxK/3jvz3Uc7RrmM\r\nO/DWejr0/q06f6e4OtArfTtAZoE7qKsrO8Z8/TvRJ7c65N74ObogwDoVd9o6rGeUOj1jLzoQQUg5\r\nUpbGOdiNwjn9NL85x42FOUgf/DlowGA5r34kOZZ7RDmm8T45qunmOK4DXzl1JkE5nRINOUyR3jh2\r\nbgs5CDsuOfj36DgbscI5WAawOCyDwzju6d048y/xOOA7pzimx6A6ONqEOUzY3zhludU4pBfoODrz\r\nFjmuOeU4bpfNOCC5pzhULrM4PMGFOAQu3Tg2f/44oZm5OCVpxDj/tMc4NzeeOKKNeTg9uL44d5eO\r\nOMZOoTgGCqE4dWybOPrclTgX1K44S4ONOBqfnDh19ZE4ApmMOLfHjDirc404rN6SOH2OjTiQCYg4\r\nwkOVOFIbiziNToc4NhKVOEp0iDiA43s4fXd/OJrzhzgW53E4KJZqON4MhTjCTH441wR+OMaacjj+\r\ngno4/aKDOBNYgjj5IJU4lQd2OL/ugDiL+Gs4s5VfOJZrXDjU4284tLFOOKzmdzgM1Vw4+PZwOFrN\r\nZDjK6G44u9ddODQXTDj4OVc43VJZOIbuTzjEIV04PuJoONbuRjhALFM41nlVOFgaPDjApWY4lRJc\r\nOBLrOTh1aU04VUNEOH36QDiufUw4yE1bOPwyYjhrRVE4vo9QOJnGNTgKKFI4mntNOFH/UThsdTo4\r\nTeE6OMwRPDi1Mi447d4uOFFzJziMuTE42Ew/OD5QIDgKjC04EKIqONtPOjj420Q4xz0+ONb0LjgS\r\nAls4XuEwOP+NNTgCgyA4Ps84OIItLzgMJUI4hrc/OFWdIjhgfxk4SBUuOB7lNDgqnyM4AjsqOEZ/\r\nITgPSSA4XHIpODZUMTgSgDo4jlM2OIr5IDhEdyA4rxkYOMssKTiKeiA4CfsYOEIEJzg+eR447kI0\r\nOAKcIjgueyA4v0gROG7CHDjYbh84KrkLONB1FzgCKjU4Hz87OFbkGTiWyhQ4eK0XOAABEjiSuwk4\r\n5KIZOOSkKDiZaSo4tAkrONqxOzgOByg4TK8GOCNWETj6SSo4bhctOCIyEjhSPiE4ylwWOJZbCTgo\r\nESw4lNIGOBIbGTh0hwg41hMdONtjHzi/BQo4ZVYbOGZyFTj2rwY4pJ4bOMwuGDjuC+k3DkLwN3Rc\r\nDjgRD/03/+4COGWABzikPv03jlEcOA1S/zeU3wI4WRYVOFpdCjjZIhM4juLxN3FGETiiSuU3dGf3\r\nN01aBDiAxvw3FaL8N26zDjjMBvg3vGcEOGBeDjg4MxU4VGT/Nz0+3zf47wQ48iQNODIzBjjaIwc4\r\nGjfvN6geADiUSRQ4EE8COAdy/zeYBPM3XT0FOO0jzzd4e9c3qp8IOAMS9Tde1dc3DBP/N1xA4jcK\r\nzvc3YcYCOFzZ7jdwOvg3aS3nN2vP1zfQRv43Xhj6NxLs/jeWVAg4iqf/NyoR2jfPGAE44A77NxIy\r\n9zcozgQ4E8LqN8zuAjh+VcU3183/NyzQ4zfgSt03klbwNzh36Tcq3fE3d2jWN2so+TeFd/g3PEfW\r\nN9h3CThPM9g37YoDOEq68jeD4fE3tRPEN3TX9TfSX/k3thHUN5pH2zeYC+I3Ns3YN4KE2zdBOe83\r\nxCPcN81I2zc68Os3jtjlN0aU0Dc9udQ3cFbgN68VxzfIOeI3UuoHOOC12DdG0to3vMrGN+xrzzfn\r\nq9I3yZDDN0Mg3Tc+WMo3pce6N3o32TcYd8M3UOPNN0fd8jf2p9o3hrXPN6q2zTclr7Q3ZrjKN+z9\r\nxjchdAQ4f5HdN2Ny1jdBM8w3Li7VN0ZByTecUNM3Qk3NN7P5sTdCVt43akDJNxjOzzdyork3tPq0\r\nN4Bs5TcFxs43VxLWN7qtxTe308Q3IhnYN2CA2jdm8LM3TqTANwFHzDfQRM43yFnNN3YR0Tf0C8Q3\r\nDa+wN3810TcCvNg3h425N+BOzzc+htY3gXzGN2yMvjeM4N43YwWyN2g03Tf8KbY3+aveN+iZwTck\r\njrY3txvLN8qN7Tcpx643hKzCN4CCszcTx8U3MqPNN2yX0Tc5IMc3iie+N58l5zfWo7M3rA3MNznx\r\nqTe7RsA34EbON7sAvjefgbI36Ze9N0GmxDdpcLE3PLHDN9xRrTcWosE31OrZN+gOuzdpZsA32Vyi\r\nN3WZtjcMMq83I9SyN9httTfuF5s3bFSvN17jxTec4tQ3qa7RNyXusjebwaw3zi2vNyJbsDd8DtQ3\r\ntGDPN1/PtTdCQbE3VbfJN94oljdXJKk37BG5N0YZpjeJz6Q3OP7CN1uFsDeUkL43xh2mN4TExjdt\r\noa43Rq6TN4xltjfyQKc3XFCrNye8mDc+lt43YYPIN8TalTf0k6c36KqrN4jVnDfHj6Q3PzW3N9yy\r\npDetjc43TtGmN/OYojcxEbM3pgCxN8nBuzf0D8Q3BP6xN0wKwTfSF643qqqvN/D9oTe1Xqw3Etu0\r\nN8RlqDfnlqs3ULSjN7F4jTd/Xo43umykN9QFvDcB7rQ3KN+pN7UMwjci67U3qnS1N/dHyjenjrA3\r\nmLWwN7ihsDc4I7I3SMOeNy9Ypjd59qQ3dsK2N+AUnzckN8I3/8qcN1UHpjecpKM3Gc3SN9Q1wzel\r\npqw3eD6YNywvrzcPMbk3wquwN2oynTd27KA3omqUN6vurzcK9683QrSrNxxnoTdmpaY3C8mhNwu9\r\nujcTAa03GJO7NyvpqzfAvqQ3i+qGN+n0kzegR7g3iEiuNymhljfs5Kk3C16pN0h4kTesl6c3+wGQ\r\nN7b1ljeoAKs3XnqvN2kqjDc9+Jw3Vq2iN8b6mjfdMZU35CCaN7Mf1jezSLM3+iaeNww/szeOoqg3\r\nDUK2NynUijfFCJ03aAqQN6pbkzdxbMA39rOfN1dSljdzZpk3xtGvNzETvDfn0rw3jtyHN3kSgTeS\r\n1bI3unGKN6bcrzdtcoE3wI+YNwRfqzeSMpk3ACqcN/ilnzfcPJg3FcKEN6hQnjdcca43kwGxN7HX\r\nhDdaV783XRGMN5DunTeVRJs3CNqVN3OhpjdwBak3VauUN4rWpze+j383cNSsN27ltTf1HLM3QdeS\r\nN0kugje/JqM36DejN/6plTcZy4w3MLOzNxsSpjfb1Zg3oUhuN8tKnTcbX6U3PnuXN82djDe0MaA3\r\n/UeSN4+fkjeRjIo3Hv6hN3l/ijcnfo03h4SaNyv6szd3W6M3JfW6N0vRlzcJtKM3MlyxNzjVsTf3\r\nDLg34TqqNzYYjjeHCY03QRydN43wpTcH/5Y3A3m1N3w7hTckeo43EBW5NxVkiDcKt6A3nuOLN3nA\r\nqzc/p5U3A4SYN6VWszdQ4Js39yqfN2uylzcJn6U3x4KkN+McozfXapI3mNGcN89Ysze2oIU3S0qD\r\nN+zfhTcQw5Y3pRCjNwt+iTehnI83QV6EN02sbTcLs6U3dX+XN9TilDelDX039kKPNxZ3gDfUE7A3\r\neiajN4JcrzfSD4U3U8uwN0WTkTfmp6I31D2ZN9vhpTf+0oQ3DDmZN9DTgzfl3pA3Mv2eN3/3ljdB\r\nUZk3+/adN5ZIiTfK5qU3mqSIN35VdjeHLpY3pc+sN0y7gDdGXao35MWANx0inzeDP7A35fScNwjF\r\nmzceva43LKx/NwaKnzewzow3xLaVNztUmjfrNYc3zk+UN0xxqTc0Was3m8GXN40vizcx6Jo32HNc\r\nN8SllDdmbK43VNiQN1iTdTcdSKc3j9SbN42FdjfqHJ03n0adNw3ygjeG/JU3AKKSNw==",
                            "noiseTrainingType" : "default"
                          }
                        }
                    ],
                    "start" : 15103,
                    "duration" : 4,
                    "mediaStart" : 7621,
                    "mediaDuration" : 4,
                    "scalar" : 1,
                    "metadata" : {
                      "WinSubProjectDisplayName" : "",
                      "clipSpeedAttribute" : false
                    },
                    "animationTracks" : {

                    }
                  },
                  {
                    "id" : 188,
                    "_type" : "StitchedMedia",
                    "minMediaStart" : 0,
                    "attributes" : {
                      "ident" : "tower-arch-04",
                      "gain" : 1.0,
                      "mixToMono" : false
                    },
                    "parameters" : {
                      "volume" : 1.0,
                      "cursorOpacity" : 1.0,
                      "cursorScale" : 1.0
                    },
                    "medias" : [
                        {
                          "id" : 189,
                          "_type" : "AMFile",
                          "src" : 5,
                          "trackNumber" : 1,
                          "attributes" : {
                            "ident" : "Rec 02-03-20_005",
                            "sampleRate" : 44100,
                            "bitDepth" : 16,
                            "gain" : 1.0,
                            "mixToMono" : false
                          },
                            "channelNumber" : "0,1",
                          "effects" : [

                          ],
                          "start" : 0,
                          "duration" : 455,
                          "mediaStart" : 0,
                          "mediaDuration" : 455,
                          "scalar" : 1,
                          "metadata" : {
                            "WinSubProjectDisplayName" : "",
                            "clipSpeedAttribute" : false
                          },
                          "animationTracks" : {

                          }
                        },
                        {
                          "id" : 190,
                          "_type" : "AMFile",
                          "src" : 5,
                          "trackNumber" : 1,
                          "attributes" : {
                            "ident" : "Rec 02-03-20_005",
                            "sampleRate" : 44100,
                            "bitDepth" : 16,
                            "gain" : 1.0,
                            "mixToMono" : false
                          },
                            "channelNumber" : "0,1",
                          "effects" : [

                          ],
                          "start" : 455,
                          "duration" : 26,
                          "mediaStart" : 465,
                          "mediaDuration" : 26,
                          "scalar" : 1,
                          "metadata" : {
                            "WinSubProjectDisplayName" : "",
                            "clipSpeedAttribute" : false
                          },
                          "animationTracks" : {

                          }
                        },
                        {
                          "id" : 191,
                          "_type" : "AMFile",
                          "src" : 5,
                          "trackNumber" : 1,
                          "attributes" : {
                            "ident" : "Rec 02-03-20_005",
                            "sampleRate" : 44100,
                            "bitDepth" : 16,
                            "gain" : 1.0,
                            "mixToMono" : false
                          },
                            "channelNumber" : "0,1",
                          "effects" : [

                          ],
                          "start" : 481,
                          "duration" : 113,
                          "mediaStart" : 505,
                          "mediaDuration" : 113,
                          "scalar" : 1,
                          "metadata" : {
                            "WinSubProjectDisplayName" : "",
                            "clipSpeedAttribute" : false
                          },
                          "animationTracks" : {

                          }
                        },
                        {
                          "id" : 192,
                          "_type" : "AMFile",
                          "src" : 5,
                          "trackNumber" : 1,
                          "attributes" : {
                            "ident" : "Rec 02-03-20_005",
                            "sampleRate" : 44100,
                            "bitDepth" : 16,
                            "gain" : 1.0,
                            "mixToMono" : false
                          },
                            "channelNumber" : "0,1",
                          "effects" : [

                          ],
                          "start" : 594,
                          "duration" : 1177,
                          "mediaStart" : 738,
                          "mediaDuration" : 1177,
                          "scalar" : 1,
                          "metadata" : {
                            "WinSubProjectDisplayName" : "",
                            "clipSpeedAttribute" : false
                          },
                          "animationTracks" : {

                          }
                        },
                        {
                          "id" : 193,
                          "_type" : "AMFile",
                          "src" : 5,
                          "trackNumber" : 1,
                          "attributes" : {
                            "ident" : "Rec 02-03-20_005",
                            "sampleRate" : 44100,
                            "bitDepth" : 16,
                            "gain" : 1.0,
                            "mixToMono" : false
                          },
                            "channelNumber" : "0,1",
                          "effects" : [

                          ],
                          "start" : 1771,
                          "duration" : 882,
                          "mediaStart" : 1947,
                          "mediaDuration" : 882,
                          "scalar" : 1,
                          "metadata" : {
                            "WinSubProjectDisplayName" : "",
                            "clipSpeedAttribute" : false
                          },
                          "animationTracks" : {

                          }
                        },
                        {
                          "id" : 194,
                          "_type" : "AMFile",
                          "src" : 5,
                          "trackNumber" : 1,
                          "attributes" : {
                            "ident" : "Rec 02-03-20_005",
                            "sampleRate" : 44100,
                            "bitDepth" : 16,
                            "gain" : 1.0,
                            "mixToMono" : false
                          },
                            "channelNumber" : "0,1",
                          "effects" : [

                          ],
                          "start" : 2653,
                          "duration" : 331,
                          "mediaStart" : 2849,
                          "mediaDuration" : 331,
                          "scalar" : 1,
                          "metadata" : {
                            "WinSubProjectDisplayName" : "",
                            "clipSpeedAttribute" : false
                          },
                          "animationTracks" : {

                          }
                        },
                        {
                          "id" : 195,
                          "_type" : "AMFile",
                          "src" : 5,
                          "trackNumber" : 1,
                          "attributes" : {
                            "ident" : "Rec 02-03-20_005",
                            "sampleRate" : 44100,
                            "bitDepth" : 16,
                            "gain" : 1.0,
                            "mixToMono" : false
                          },
                            "channelNumber" : "0,1",
                          "effects" : [

                          ],
                          "start" : 2984,
                          "duration" : 91,
                          "mediaStart" : 3238,
                          "mediaDuration" : 91,
                          "scalar" : 1,
                          "metadata" : {
                            "WinSubProjectDisplayName" : "",
                            "clipSpeedAttribute" : false
                          },
                          "animationTracks" : {

                          }
                        },
                        {
                          "id" : 196,
                          "_type" : "AMFile",
                          "src" : 5,
                          "trackNumber" : 1,
                          "attributes" : {
                            "ident" : "Rec 02-03-20_005",
                            "sampleRate" : 44100,
                            "bitDepth" : 16,
                            "gain" : 1.0,
                            "mixToMono" : false
                          },
                            "channelNumber" : "0,1",
                          "effects" : [

                          ],
                          "start" : 3075,
                          "duration" : 193,
                          "mediaStart" : 3415,
                          "mediaDuration" : 193,
                          "scalar" : 1,
                          "metadata" : {
                            "WinSubProjectDisplayName" : "",
                            "clipSpeedAttribute" : false
                          },
                          "animationTracks" : {

                          }
                        },
                        {
                          "id" : 197,
                          "_type" : "AMFile",
                          "src" : 5,
                          "trackNumber" : 1,
                          "attributes" : {
                            "ident" : "Rec 02-03-20_005",
                            "sampleRate" : 44100,
                            "bitDepth" : 16,
                            "gain" : 1.0,
                            "mixToMono" : false
                          },
                            "channelNumber" : "0,1",
                          "effects" : [

                          ],
                          "start" : 3268,
                          "duration" : 71,
                          "mediaStart" : 3770,
                          "mediaDuration" : 71,
                          "scalar" : 1,
                          "metadata" : {
                            "WinSubProjectDisplayName" : "",
                            "clipSpeedAttribute" : false
                          },
                          "animationTracks" : {

                          }
                        },
                        {
                          "id" : 198,
                          "_type" : "AMFile",
                          "src" : 5,
                          "trackNumber" : 1,
                          "attributes" : {
                            "ident" : "Rec 02-03-20_005",
                            "sampleRate" : 44100,
                            "bitDepth" : 16,
                            "gain" : 1.0,
                            "mixToMono" : false
                          },
                            "channelNumber" : "0,1",
                          "effects" : [

                          ],
                          "start" : 3339,
                          "duration" : 516,
                          "mediaStart" : 3867,
                          "mediaDuration" : 516,
                          "scalar" : 1,
                          "metadata" : {
                            "WinSubProjectDisplayName" : "",
                            "clipSpeedAttribute" : false
                          },
                          "animationTracks" : {

                          }
                        },
                        {
                          "id" : 199,
                          "_type" : "AMFile",
                          "src" : 5,
                          "trackNumber" : 1,
                          "attributes" : {
                            "ident" : "Rec 02-03-20_005",
                            "sampleRate" : 44100,
                            "bitDepth" : 16,
                            "gain" : 1.0,
                            "mixToMono" : false
                          },
                            "channelNumber" : "0,1",
                          "effects" : [

                          ],
                          "start" : 3855,
                          "duration" : 133,
                          "mediaStart" : 4421,
                          "mediaDuration" : 133,
                          "scalar" : 1,
                          "metadata" : {
                            "WinSubProjectDisplayName" : "",
                            "clipSpeedAttribute" : false
                          },
                          "animationTracks" : {

                          }
                        },
                        {
                          "id" : 200,
                          "_type" : "AMFile",
                          "src" : 5,
                          "trackNumber" : 1,
                          "attributes" : {
                            "ident" : "Rec 02-03-20_005",
                            "sampleRate" : 44100,
                            "bitDepth" : 16,
                            "gain" : 1.0,
                            "mixToMono" : false
                          },
                            "channelNumber" : "0,1",
                          "effects" : [

                          ],
                          "start" : 3988,
                          "duration" : 615,
                          "mediaStart" : 4592,
                          "mediaDuration" : 615,
                          "scalar" : 1,
                          "metadata" : {
                            "WinSubProjectDisplayName" : "",
                            "clipSpeedAttribute" : false
                          },
                          "animationTracks" : {

                          }
                        },
                        {
                          "id" : 201,
                          "_type" : "AMFile",
                          "src" : 5,
                          "trackNumber" : 1,
                          "attributes" : {
                            "ident" : "Rec 02-03-20_005",
                            "sampleRate" : 44100,
                            "bitDepth" : 16,
                            "gain" : 1.0,
                            "mixToMono" : false
                          },
                            "channelNumber" : "0,1",
                          "effects" : [

                          ],
                          "start" : 4603,
                          "duration" : 399,
                          "mediaStart" : 5339,
                          "mediaDuration" : 399,
                          "scalar" : 1,
                          "metadata" : {
                            "WinSubProjectDisplayName" : "",
                            "clipSpeedAttribute" : false
                          },
                          "animationTracks" : {

                          }
                        },
                        {
                          "id" : 202,
                          "_type" : "AMFile",
                          "src" : 5,
                          "trackNumber" : 1,
                          "attributes" : {
                            "ident" : "Rec 02-03-20_005",
                            "sampleRate" : 44100,
                            "bitDepth" : 16,
                            "gain" : 1.0,
                            "mixToMono" : false
                          },
                            "channelNumber" : "0,1",
                          "effects" : [

                          ],
                          "start" : 5002,
                          "duration" : 1874,
                          "mediaStart" : 5946,
                          "mediaDuration" : 1874,
                          "scalar" : 1,
                          "metadata" : {
                            "WinSubProjectDisplayName" : "",
                            "clipSpeedAttribute" : false
                          },
                          "animationTracks" : {

                          }
                        },
                        {
                          "id" : 203,
                          "_type" : "AMFile",
                          "src" : 5,
                          "trackNumber" : 1,
                          "attributes" : {
                            "ident" : "Rec 02-03-20_005",
                            "sampleRate" : 44100,
                            "bitDepth" : 16,
                            "gain" : 1.0,
                            "mixToMono" : false
                          },
                            "channelNumber" : "0,1",
                          "effects" : [

                          ],
                          "start" : 6876,
                          "duration" : 124,
                          "mediaStart" : 7848,
                          "mediaDuration" : 124,
                          "scalar" : 1,
                          "metadata" : {
                            "WinSubProjectDisplayName" : "",
                            "clipSpeedAttribute" : false
                          },
                          "animationTracks" : {

                          }
                        },
                        {
                          "id" : 204,
                          "_type" : "AMFile",
                          "src" : 5,
                          "trackNumber" : 1,
                          "attributes" : {
                            "ident" : "Rec 02-03-20_005",
                            "sampleRate" : 44100,
                            "bitDepth" : 16,
                            "gain" : 1.0,
                            "mixToMono" : false
                          },
                            "channelNumber" : "0,1",
                          "effects" : [

                          ],
                          "start" : 7000,
                          "duration" : 287,
                          "mediaStart" : 7980,
                          "mediaDuration" : 287,
                          "scalar" : 1,
                          "metadata" : {
                            "WinSubProjectDisplayName" : "",
                            "clipSpeedAttribute" : false
                          },
                          "animationTracks" : {

                          }
                        },
                        {
                          "id" : 205,
                          "_type" : "AMFile",
                          "src" : 5,
                          "trackNumber" : 1,
                          "attributes" : {
                            "ident" : "Rec 02-03-20_005",
                            "sampleRate" : 44100,
                            "bitDepth" : 16,
                            "gain" : 1.0,
                            "mixToMono" : false
                          },
                            "channelNumber" : "0,1",
                          "effects" : [

                          ],
                          "start" : 7287,
                          "duration" : 266,
                          "mediaStart" : 8281,
                          "mediaDuration" : 266,
                          "scalar" : 1,
                          "metadata" : {
                            "WinSubProjectDisplayName" : "",
                            "clipSpeedAttribute" : false
                          },
                          "animationTracks" : {

                          }
                        },
                        {
                          "id" : 206,
                          "_type" : "AMFile",
                          "src" : 5,
                          "trackNumber" : 1,
                          "attributes" : {
                            "ident" : "Rec 02-03-20_005",
                            "sampleRate" : 44100,
                            "bitDepth" : 16,
                            "gain" : 1.0,
                            "mixToMono" : false
                          },
                            "channelNumber" : "0,1",
                          "effects" : [

                          ],
                          "start" : 7553,
                          "duration" : 258,
                          "mediaStart" : 8578,
                          "mediaDuration" : 258,
                          "scalar" : 1,
                          "metadata" : {
                            "WinSubProjectDisplayName" : "",
                            "clipSpeedAttribute" : false
                          },
                          "animationTracks" : {

                          }
                        }
                    ],
                    "effects" : [
                        {
                          "effectName" : "NoiseReduction",
                          "category" : "categoryAudioEffects",
                          "parameters" : {
                            "denoiserAmount" : 20.0,
                            "denoiserThreshold" : 0.0,
                            "noiseProfile" : "wy93P+yPJkBUPNc+gnV3PoD6Gz8xbytAkbGVP8NEsT881Tg/BFvIP49RsD4GeJc/TGlwPnTfAT8X\r\nS2E/HSptPsgBZz0ND4I99/gmP/5zOT+Sens/SGI4P7sp3j67VfM+8D0dP1SJYT+OkFk/75tpP81/\r\n8T/g3Ys/u3AZQNPJoUCqS5ZAH+vRQKuR1kAHKsg/cyTzQAFE7ECbXSFAOjPNPxlWgEA2dBJAgm6P\r\nQB6m7z9F64ZAOL0NPz4yuz4cgZw+wGx6Ptklkj4WIu0+nC+oPrTLjD5QZaM+3GWHP2DFpz9hHNA+\r\nvBtnPwvAZj+GnLI+haACP9zNMT7+FEY/2PydP70mzz/SnhM/zXdDPzjlWD+MJF9Abg9HQKkCzj/T\r\n1LU/VoXJP4Sypz+XhPc+mK5rP9nnAD/WmTw+QXiAP2O93j6F7BQ+1VYFP8I2+j0hGgY+nqrWPd2a\r\nkD3wraA99WAcPubkiT6+dvY+6KjjPeB+Fz64KQ0+VBwUPnRLFz5mnAI+FEt8PbA1Jz4WNYo9tttb\r\nPczHhT0/GCk9T/+iPQRIqz3JyyI+f803PdihdT2G0rQ9hunaPJGroj2UGKs9s7wKPShlqj28iGU9\r\nx0PwPdITZT6kpSU+2xVlPUg24zwiJ4M9XEmcPZgonj32IME9XY+2PUI/Ej7CVRw+aAcTPUIbwz35\r\nUVI9yERePdZITz1UhtI8GoAtPTqzCj/wUFI+PFehPWDJ0DygThY+n/r6PFxaRD1L7GU98FEtPudM\r\nyD0enDc+TVOpPQ4CHD1jpsw8VKuOPDzm7Dw8wUI9AEKlPDXbvDxB3jI9z3jGPJrMfjxoBsM8WUYM\r\nPdsE7DysNuQ9maNIPbs4ID2LVcs9DhtXPYZYTz2J5wk9EDuIPQrexj2f4eQ8t6ATPdRO9DwtPg89\r\nWN76PPq03TxtZvo85yhYPSQUHD1Dks49RsVLPZTT/TyavjU9VMjAPPF50DxyYOg89EMCPeCRejzS\r\n+yY8VsYyPPXYLz0Sf7085qZRPMhqpDz7AAA8qjrGPM5bij1+Zsc8W9VYPcYoUz0AUME9pJZTPaLR\r\nPz5E2eo8mQwoPaCfTTxxGIU8VOCsPMiGFD6P5oU8HrnpPDsJxTzpFCs8rJskPICdWT3GP/w8QYny\r\nPFQHAD2x10g8pvwXPYnufT2ViHY9aiNhPJmFBj5F0Ho+jL+XPuzuhD7lR0c/B1Q3P0HLOj/W2Bk/\r\nOkrkPpKO9T+H/zFA/lVFPx9DnUCGvr4/A5WYPyqVED6AWYc+MsFEP3pJgDzRBzM/EbW5Pngz4D3Q\r\nSco9ZBf8PfB2sz8qUWY9ob3+P1kZgUCCLm0/DNmhPoiSnj5H1Dk/7GiXPsoyDj7qS1g/gVsfPuuy\r\nAD5EZyE+iX4RPOVVRDyf8AA8UiJDPjY7ND6PlRk8teV3PegE/DzU9ok8KuEWPSlv0TwxpZE8BkgO\r\nPaH/ND1E9Jc8epTiPAjS2D1kP3c9kiVhPI8lJDyTjIc8BSl+PQ8xBD3xkGA8zcgfPB9EojwcBrk7\r\n/5SKOyzFTzwmqDU8DCQXPWQCGzy6wQw8NCYWPATQQTxyuhk9UqWVPENiMTyYnbA73b8SPITfSDuX\r\n3LU7YwgYPDxm1jvcINU7JEeCPNvrRTw+UNw7GnWvO5hQ8Dvelm07tGaaO/kpKj3+OhU9x/MkPNwl\r\n0zsHKJQ7a8ZHPXxseT0j5uo8QHBGPHAFzDzQ5bg7jUq/PLnnnTwhOYo8hKyRPEONnDsSv947891H\r\nO0a5jDvw1no69P6tOsLhuDrQK307QGaBO6irKzvGfP07EMO3OuTe+DnwhL86nxPcOqxnlDpjwC06\r\niz9SObErxTnYjcI5/TS/Oa6AhzlIH/w5aMBgOa9+JDmWe0Q5pvE+Oe4/8ziuA185dSZBOZ0SDTlM\r\nkd44dm4LOQg7Ljn49+g4G7HCOVgGsDgsg8M47undOPMv8TjgO6c4psegOjjahDlM2N84ZbnVOKQX\r\n6Dg68xY5rjnlOG6XzTgguac4VC6zODzBhTgELt04Nn/+OKGZuTglacQ4/7THODc3njiijXk4Pbi+\r\nOHeXjjjGTqE4BgqhOHVsmzj63JU4F9SuOEuDjTgan5w4dfWROAKZjDi3x4w4q3ONOKzekjh9jo04\r\nkAmIOMJDlThSG4s4jU6HODYSlThKdIg4gON7OH13fzia84c4FudxOCiWajjeDIU4wkx+ONcEfjjG\r\nmnI4/oJ6OP2igzgTWII4+SCVOJUHdji/7oA4i/hrOLOVXziWa1w41ONvOLSxTjis5nc4DNVcOPj2\r\ncDhazWQ4yuhuOLvXXTg0F0w4+DlXON1SWTiG7k84xCFdOD7iaDjW7kY4QCxTONZ5VThYGjw4wKVm\r\nOJUSXDgS6zk4dWlNOFVDRDh9+kA4rn1MOMhNWzj8MmI4a0VROL6PUDiZxjU4CihSOJp7TThR/1E4\r\nbHU6OE3hOjjMETw4tTIuOO3eLjhRcyc4jLkxONhMPzg+UCA4CowtOBCiKjjbTzo4+NtEOMc9PjjW\r\n9C44EgJbOF7hMDj/jTU4AoMgOD7PODiCLS84DCVCOIa3PzhVnSI4YH8ZOEgVLjge5TQ4Kp8jOAI7\r\nKjhGfyE4D0kgOFxyKTg2VDE4EoA6OI5TNjiK+SA4RHcgOK8ZGDjLLCk4inogOAn7GDhCBCc4Pnke\r\nOO5CNDgCnCI4LnsgOL9IEThuwhw42G4fOCq5CzjQdRc4Aio1OB8/OzhW5Bk4lsoUOHitFzgAARI4\r\nkrsJOOSiGTjkpCg4mWkqOLQJKzjasTs4DgcoOEyvBjgjVhE4+kkqOG4XLTgiMhI4Uj4hOMpcFjiW\r\nWwk4KBEsOJTSBjgSGxk4dIcIONYTHTjbYx84vwUKOGVWGzhmchU49q8GOKSeGzjMLhg47gvpNw5C\r\n8Dd0XA44EQ/9N//uAjhlgAc4pD79N45RHDgNUv83lN8COFkWFThaXQo42SITOI7i8TdxRhE4okrl\r\nN3Rn9zdNWgQ4gMb8NxWi/Ddusw44zAb4N7xnBDhgXg44ODMVOFRk/zc9Pt83+O8EOPIkDTgyMwY4\r\n2iMHOBo37zeoHgA4lEkUOBBPAjgHcv83mATzN109BTjtI883eHvXN6qfCDgDEvU3XtXXNwwT/zdc\r\nQOI3Cs73N2HGAjhc2e43cDr4N2kt5zdrz9c30Eb+N14Y+jcS7P43llQIOIqn/zcqEdo3zxgBOOAO\r\n+zcSMvc3KM4EOBPC6jfM7gI4flXFN9fN/zcs0OM34ErdN5JW8Dc4d+k3Kt3xN3do1jdrKPk3hXf4\r\nNzxH1jfYdwk4TzPYN+2KAzhKuvI3g+HxN7UTxDd01/U30l/5N7YR1DeaR9s3mAviNzbN2DeChNs3\r\nQTnvN8Qj3DfNSNs3OvDrN47Y5TdGlNA3PbnUN3BW4DevFcc3yDniN1LqBzjgtdg3RtLaN7zKxjfs\r\na88356vSN8mQwzdDIN03PljKN6XHujd6N9k3GHfDN1DjzTdH3fI39qfaN4a1zzeqts03Ja+0N2a4\r\nyjfs/cY3IXQEOH+R3TdjctY3QTPMNy4u1TdGQck3nFDTN0JNzTez+bE3QlbeN2pAyTcYzs83cqK5\r\nN7T6tDeAbOU3BcbON1cS1je6rcU3t9PENyIZ2DdggNo3ZvCzN06kwDcBR8w30ETON8hZzTd2EdE3\r\n9AvENw2vsDd/NdE3ArzYN4eNuTfgTs83PobWN4F8xjdsjL43jODeN2MFsjdoNN03/Cm2N/mr3jfo\r\nmcE3JI62N7cbyzfKje03KceuN4SswjeAgrM3E8fFNzKjzTdsl9E3OSDHN4onvjefJec31qOzN6wN\r\nzDc58ak3u0bAN+BGzje7AL43n4GyN+mXvTdBpsQ3aXCxNzyxwzfcUa03FqLBN9Tq2TfoDrs3aWbA\r\nN9lcojd1mbY3DDKvNyPUsjfYbbU37hebN2xUrzde48U3nOLUN6mu0Tcl7rI3m8GsN84trzciW7A3\r\nfA7UN7Rgzzdfz7U3QkGxN1W3yTfeKJY3VySpN+wRuTdGGaY3ic+kNzj+wjdbhbA3lJC+N8YdpjeE\r\nxMY3baGuN0aukzeMZbY38kCnN1xQqzcnvJg3PpbeN2GDyDfE2pU39JOnN+iqqzeI1Zw3x4+kNz81\r\ntzfcsqQ3rY3ON07RpjfzmKI3MRGzN6YAsTfJwbs39A/ENwT+sTdMCsE30heuN6qqrzfw/aE3tV6s\r\nNxLbtDfEZag355arN1C0ozexeI03f16ON7pspDfUBbw3Ae60NyjfqTe1DMI3Iuu1N6p0tTf3R8o3\r\np46wN5i1sDe4obA3OCOyN0jDnjcvWKY3efakN3bCtjfgFJ83JDfCN//KnDdVB6Y3nKSjNxnN0jfU\r\nNcM3paasN3g+mDcsL683DzG5N8KrsDdqMp03duygN6JqlDer7q83CvevN0K0qzccZ6E3ZqWmNwvJ\r\noTcLvbo3EwGtNxiTuzcr6as3wL6kN4vqhjfp9JM3oEe4N4hIrjcpoZY37OSpNwteqTdIeJE3rJen\r\nN/sBkDe29ZY3qACrN156rzdpKow3PficN1atojfG+po33TGVN+QgmjezH9Y3s0izN/omnjcMP7M3\r\njqKoNw1Ctjcp1Io3xQidN2gKkDeqW5M3cWzAN/aznzdXUpY3c2aZN8bRrzcxE7w359K8N47chzd5\r\nEoE3ktWyN7pxijem3K83bXKBN8CPmDcEX6s3kjKZNwAqnDf4pZ833DyYNxXChDeoUJ43XHGuN5MB\r\nsTex14Q3Wle/N10RjDeQ7p03lUSbNwjalTdzoaY3cAWpN1WrlDeK1qc3vo9/N3DUrDdu5bU39Ryz\r\nN0HXkjdJLoI3vyajN+g3ozf+qZU3GcuMNzCzszcbEqY329WYN6FIbjfLSp03G1+lNz57lzfNnYw3\r\ntDGgN/1HkjePn5I3kYyKNx7+oTd5f4o3J36NN4eEmjcr+rM3d1ujNyX1ujdL0Zc3CbSjNzJcsTc4\r\n1bE39wy4N+E6qjc2GI43hwmNN0EcnTeN8KU3B/+WNwN5tTd8O4U3JHqONxAVuTcVZIg3CregN57j\r\nizd5wKs3P6eVNwOEmDelVrM3UOCbN/cqnzdrspc3CZ+lN8eCpDfjHKM312qSN5jRnDfPWLM3tqCF\r\nN0tKgzfs34U3EMOWN6UQozcLfok3oZyPN0FehDdNrG03C7OlN3V/lzfU4pQ3pQ19N/ZCjzcWd4A3\r\n1BOwN3omozeCXK830g+FN1PLsDdFk5E35qeiN9Q9mTfb4aU3/tKENww5mTfQ04M35d6QNzL9njd/\r\n95Y3QVGZN/v2nTeWSIk3yualN5qkiDd+VXY3hy6WN6XPrDdMu4A3Rl2qN+TFgDcdIp83gz+wN+X0\r\nnDcIxZs3Hr2uNyysfzcGip83sM6MN8S2lTc7VJo36zWHN85PlDdMcak3NFmrN5vBlzeNL4s3Meia\r\nN9hzXDfEpZQ3ZmyuN1TYkDdYk3U3HUinN4/UmzeNhXY36hydN59GnTcN8oI3hvyVNwCikjfDL3c/\r\n7I8mQFQ81z4xXHc+tggcPyJnK0CRsZU/w0SxPzzVOD8TZMg/tYKwPqSGlz9MaXA+dN8BPxdLYT8d\r\nKm0+yAFnPQ0Pgj0l5yY/pDg5P/+Oez8iRjg/5D7ePmY88z60Ph0/9JthP46QWT/vm2k/M4zxP+Dd\r\niz/1YxlAzt2hQKpLlkAf69FAq5HWQAcqyD89IvNAoUvsQJtdIUAdDs0/GVaAQDZ0EkCCbo9AHqbv\r\nP0XrhkCxxA0/PjK7PhyBnD7AbHo+cfKRPhYi7T7ZJ6g+1tCMPlBloz6yYYc//a6nP2Ec0D5EEmc/\r\np6BmP4acsj6FoAI/2r8xPv4URj/Y/J0/vSbPP9KeEz9km0M/OOVYP4wkX0BuD0dAqQLOP4nAtT9W\r\nhck/hLKnP5eE9z6Yrms/2ecAP9aZPD5BeIA/Y73ePuaTFD7VVgU/wjb6PSEaBj6eqtY93ZqQPfCt\r\noD31YBw+5uSJPr529j7oqOM94H4XPrgpDT4qNRQ+dEsXPmacAj4US3w9sDUnPhY1ij2221s9zMeF\r\nPUlOKT1P/6I9BEirPcnLIj5/zTc92KF1PYbStD2G6do8kauiPaR3qz0Umwo9KGWqPRYUZj0Y7O89\r\nQYllPruhJT7bFWU9SDbjPALCgj1cSZw9GrmePfYgwT1dj7Y9wj4SPi53HD40yhI9oQfDPflRUj0K\r\nQ1091khPPbhz0jwagC09OrMKP78kUj48V6E9As/QPKBOFj6f+vo8XFpEPUvsZT3wUS0+I07IPZKX\r\nNz5NU6k9DgIcPWOmzDxUq448PObsPKTAQj0AQqU8Ndu8PKcUMz1i98U8msx+PKOrwjzeMww9a6Xq\r\nPMpi5D2Zo0g9uzggPYtVyz0OG1c9hlhPPYnnCT3gXIg9h7DGPZ/h5Dy3oBM91E70PC0+Dz1Y3vo8\r\n+rTdPDUZ+zznKFg9D9wbPaX2zj2S9ks9lNP9PJq+NT1u48E88XnQPHJg6Dz0QwI94JF6PO44JjxW\r\nxjI89dgvPQhsvTzmplE8MuSkPPsAADyqOsY8zluKPX5mxzxb1Vg9xihTPQBQwT2kllM9otE/PkTZ\r\n6jwP1Sg9yORNPHEYhTxU4Kw8yIYUPo/mhTweuek8OwnFPOkUKzy4lCU8gJ1ZPcY//DxBifI8VAcA\r\nPbHXSDym/Bc9ie59PZWIdj1qI2E8mYUGPkXQej6Mv5c+7O6EPuVHRz8HVDc/Qcs6P9bYGT86SuQ+\r\nko71P4f/MUD+VUU/H0OdQIa+vj8DlZg/KpUQPoBZhz4ywUQ/ekmAPNEHMz8Rtbk+eDPgPdBJyj1k\r\nF/w98HazPypRZj2hvf4/WRmBQIIubT8M2aE+iJKePkfUOT/saJc+yjIOPupLWD+BWx8+67IAPkRn\r\nIT6JfhE85VVEPHrTATxSIkM+Njs0PpUdGjy15Xc96AT8PDnriTwq4RY9KW/RPPzdkTzUXA49GzE1\r\nPSTYlzwyJuE8CNLYPWQ/dz2SJWE8NiwkPJOMhzwFKX49DzEEPfGQYDzmBSA8H0SiPNyguTv/lIo7\r\nLMVPPCaoNTwMJBc9ZAIbPLrBDDw0JhY8DthAPHK6GT0655Q8Q2IxPGpwsTvdvxI8hN9IO4TvtTus\r\nhBc8PGbWO9wg1TskR4I82+tFPLZC2jsada87mFDwO7OdbDu0Zpo7+SkqPf46FT3H8yQ83CXTOwco\r\nlDtrxkc9fGx5PSPm6jxAcEY8cAXMPNDluDuNSr88ueedPCE5ijzV9JA8EZicOxK/3jvz3Uc7RrmM\r\nO/DWejr0/q06f6e4OtArfTtAZoE7qKsrO8Z8/TvRJ7c65N74ObogwDoVd9o6rGeUOj1jLzoQQUg5\r\nUpbGOdiNwjn9NL85x42FOUgf/DlowGA5r34kOZZ7RDmm8T45qunmOK4DXzl1JkE5nRINOUyR3jh2\r\nbgs5CDsuOfj36DgbscI5WAawOCyDwzju6d048y/xOOA7pzimx6A6ONqEOUzY3zhludU4pBfoODrz\r\nFjmuOeU4bpfNOCC5pzhULrM4PMGFOAQu3Tg2f/44oZm5OCVpxDj/tMc4NzeeOKKNeTg9uL44d5eO\r\nOMZOoTgGCqE4dWybOPrclTgX1K44S4ONOBqfnDh19ZE4ApmMOLfHjDirc404rN6SOH2OjTiQCYg4\r\nwkOVOFIbiziNToc4NhKVOEp0iDiA43s4fXd/OJrzhzgW53E4KJZqON4MhTjCTH441wR+OMaacjj+\r\ngno4/aKDOBNYgjj5IJU4lQd2OL/ugDiL+Gs4s5VfOJZrXDjU4284tLFOOKzmdzgM1Vw4+PZwOFrN\r\nZDjK6G44u9ddODQXTDj4OVc43VJZOIbuTzjEIV04PuJoONbuRjhALFM41nlVOFgaPDjApWY4lRJc\r\nOBLrOTh1aU04VUNEOH36QDiufUw4yE1bOPwyYjhrRVE4vo9QOJnGNTgKKFI4mntNOFH/UThsdTo4\r\nTeE6OMwRPDi1Mi447d4uOFFzJziMuTE42Ew/OD5QIDgKjC04EKIqONtPOjj420Q4xz0+ONb0LjgS\r\nAls4XuEwOP+NNTgCgyA4Ps84OIItLzgMJUI4hrc/OFWdIjhgfxk4SBUuOB7lNDgqnyM4AjsqOEZ/\r\nITgPSSA4XHIpODZUMTgSgDo4jlM2OIr5IDhEdyA4rxkYOMssKTiKeiA4CfsYOEIEJzg+eR447kI0\r\nOAKcIjgueyA4v0gROG7CHDjYbh84KrkLONB1FzgCKjU4Hz87OFbkGTiWyhQ4eK0XOAABEjiSuwk4\r\n5KIZOOSkKDiZaSo4tAkrONqxOzgOByg4TK8GOCNWETj6SSo4bhctOCIyEjhSPiE4ylwWOJZbCTgo\r\nESw4lNIGOBIbGTh0hwg41hMdONtjHzi/BQo4ZVYbOGZyFTj2rwY4pJ4bOMwuGDjuC+k3DkLwN3Rc\r\nDjgRD/03/+4COGWABzikPv03jlEcOA1S/zeU3wI4WRYVOFpdCjjZIhM4juLxN3FGETiiSuU3dGf3\r\nN01aBDiAxvw3FaL8N26zDjjMBvg3vGcEOGBeDjg4MxU4VGT/Nz0+3zf47wQ48iQNODIzBjjaIwc4\r\nGjfvN6geADiUSRQ4EE8COAdy/zeYBPM3XT0FOO0jzzd4e9c3qp8IOAMS9Tde1dc3DBP/N1xA4jcK\r\nzvc3YcYCOFzZ7jdwOvg3aS3nN2vP1zfQRv43Xhj6NxLs/jeWVAg4iqf/NyoR2jfPGAE44A77NxIy\r\n9zcozgQ4E8LqN8zuAjh+VcU3183/NyzQ4zfgSt03klbwNzh36Tcq3fE3d2jWN2so+TeFd/g3PEfW\r\nN9h3CThPM9g37YoDOEq68jeD4fE3tRPEN3TX9TfSX/k3thHUN5pH2zeYC+I3Ns3YN4KE2zdBOe83\r\nxCPcN81I2zc68Os3jtjlN0aU0Dc9udQ3cFbgN68VxzfIOeI3UuoHOOC12DdG0to3vMrGN+xrzzfn\r\nq9I3yZDDN0Mg3Tc+WMo3pce6N3o32TcYd8M3UOPNN0fd8jf2p9o3hrXPN6q2zTclr7Q3ZrjKN+z9\r\nxjchdAQ4f5HdN2Ny1jdBM8w3Li7VN0ZByTecUNM3Qk3NN7P5sTdCVt43akDJNxjOzzdyork3tPq0\r\nN4Bs5TcFxs43VxLWN7qtxTe308Q3IhnYN2CA2jdm8LM3TqTANwFHzDfQRM43yFnNN3YR0Tf0C8Q3\r\nDa+wN3810TcCvNg3h425N+BOzzc+htY3gXzGN2yMvjeM4N43YwWyN2g03Tf8KbY3+aveN+iZwTck\r\njrY3txvLN8qN7Tcpx643hKzCN4CCszcTx8U3MqPNN2yX0Tc5IMc3iie+N58l5zfWo7M3rA3MNznx\r\nqTe7RsA34EbON7sAvjefgbI36Ze9N0GmxDdpcLE3PLHDN9xRrTcWosE31OrZN+gOuzdpZsA32Vyi\r\nN3WZtjcMMq83I9SyN9httTfuF5s3bFSvN17jxTec4tQ3qa7RNyXusjebwaw3zi2vNyJbsDd8DtQ3\r\ntGDPN1/PtTdCQbE3VbfJN94oljdXJKk37BG5N0YZpjeJz6Q3OP7CN1uFsDeUkL43xh2mN4TExjdt\r\noa43Rq6TN4xltjfyQKc3XFCrNye8mDc+lt43YYPIN8TalTf0k6c36KqrN4jVnDfHj6Q3PzW3N9yy\r\npDetjc43TtGmN/OYojcxEbM3pgCxN8nBuzf0D8Q3BP6xN0wKwTfSF643qqqvN/D9oTe1Xqw3Etu0\r\nN8RlqDfnlqs3ULSjN7F4jTd/Xo43umykN9QFvDcB7rQ3KN+pN7UMwjci67U3qnS1N/dHyjenjrA3\r\nmLWwN7ihsDc4I7I3SMOeNy9Ypjd59qQ3dsK2N+AUnzckN8I3/8qcN1UHpjecpKM3Gc3SN9Q1wzel\r\npqw3eD6YNywvrzcPMbk3wquwN2oynTd27KA3omqUN6vurzcK9683QrSrNxxnoTdmpaY3C8mhNwu9\r\nujcTAa03GJO7NyvpqzfAvqQ3i+qGN+n0kzegR7g3iEiuNymhljfs5Kk3C16pN0h4kTesl6c3+wGQ\r\nN7b1ljeoAKs3XnqvN2kqjDc9+Jw3Vq2iN8b6mjfdMZU35CCaN7Mf1jezSLM3+iaeNww/szeOoqg3\r\nDUK2NynUijfFCJ03aAqQN6pbkzdxbMA39rOfN1dSljdzZpk3xtGvNzETvDfn0rw3jtyHN3kSgTeS\r\n1bI3unGKN6bcrzdtcoE3wI+YNwRfqzeSMpk3ACqcN/ilnzfcPJg3FcKEN6hQnjdcca43kwGxN7HX\r\nhDdaV783XRGMN5DunTeVRJs3CNqVN3OhpjdwBak3VauUN4rWpze+j383cNSsN27ltTf1HLM3QdeS\r\nN0kugje/JqM36DejN/6plTcZy4w3MLOzNxsSpjfb1Zg3oUhuN8tKnTcbX6U3PnuXN82djDe0MaA3\r\n/UeSN4+fkjeRjIo3Hv6hN3l/ijcnfo03h4SaNyv6szd3W6M3JfW6N0vRlzcJtKM3MlyxNzjVsTf3\r\nDLg34TqqNzYYjjeHCY03QRydN43wpTcH/5Y3A3m1N3w7hTckeo43EBW5NxVkiDcKt6A3nuOLN3nA\r\nqzc/p5U3A4SYN6VWszdQ4Js39yqfN2uylzcJn6U3x4KkN+McozfXapI3mNGcN89Ysze2oIU3S0qD\r\nN+zfhTcQw5Y3pRCjNwt+iTehnI83QV6EN02sbTcLs6U3dX+XN9TilDelDX039kKPNxZ3gDfUE7A3\r\neiajN4JcrzfSD4U3U8uwN0WTkTfmp6I31D2ZN9vhpTf+0oQ3DDmZN9DTgzfl3pA3Mv2eN3/3ljdB\r\nUZk3+/adN5ZIiTfK5qU3mqSIN35VdjeHLpY3pc+sN0y7gDdGXao35MWANx0inzeDP7A35fScNwjF\r\nmzceva43LKx/NwaKnzewzow3xLaVNztUmjfrNYc3zk+UN0xxqTc0Was3m8GXN40vizcx6Jo32HNc\r\nN8SllDdmbK43VNiQN1iTdTcdSKc3j9SbN42FdjfqHJ03n0adNw3ygjeG/JU3AKKSNw==",
                            "noiseTrainingType" : "default"
                          }
                        }
                    ],
                    "start" : 15107,
                    "duration" : 177,
                    "mediaStart" : 7629,
                    "mediaDuration" : 177,
                    "scalar" : 1,
                    "metadata" : {
                      "WinSubProjectDisplayName" : "",
                      "clipSpeedAttribute" : false
                    },
                    "animationTracks" : {

                    }
                  }
                ]
              },
              {
                "trackIndex" : 1,
                "medias" : [
                  {
                    "id" : 207,
                    "_type" : "ScreenVMFile",
                    "src" : 3,
                    "trackNumber" : 0,
                    "attributes" : {
                      "ident" : "tower-arch-02"
                    },
                    "parameters" : {
                      "translation0" : {
                        "type" : "double",
                        "defaultValue" : -8.30482349556405e-11,
                        "interp" : "eioe"
                      },
                      "translation1" : {
                        "type" : "double",
                        "defaultValue" : 4.66968685941538e-11,
                        "interp" : "eioe"
                      },
                      "scale0" : {
                        "type" : "double",
                        "defaultValue" : 1.00000000000002,
                        "interp" : "eioe"
                      },
                      "scale1" : {
                        "type" : "double",
                        "defaultValue" : 1.00000000000002,
                        "interp" : "eioe"
                      },
                      "cursorScale" : {
                        "type" : "double",
                        "defaultValue" : 1.0,
                        "interp" : "linr"
                      },
                      "cursorOpacity" : {
                        "type" : "double",
                        "defaultValue" : 1.0,
                        "interp" : "linr"
                      }
                    },
                    "effects" : [

                    ],
                    "start" : 0,
                    "duration" : 354,
                    "mediaStart" : 94,
                    "mediaDuration" : 354,
                    "scalar" : 1,
                    "metadata" : {
                      "AutoAppliedSmartFocus" : "False",
                      "WinSubProjectDisplayName" : "",
                      "clipSpeedAttribute" : false
                    },
                    "animationTracks" : {

                    }
                  },
                  {
                    "id" : 208,
                    "_type" : "ScreenVMFile",
                    "src" : 3,
                    "trackNumber" : 0,
                    "attributes" : {
                      "ident" : "tower-arch-02"
                    },
                    "parameters" : {
                      "translation0" : {
                        "type" : "double",
                        "defaultValue" : -8.30482349556405e-11,
                        "interp" : "eioe"
                      },
                      "translation1" : {
                        "type" : "double",
                        "defaultValue" : 4.66968685941538e-11,
                        "interp" : "eioe"
                      },
                      "scale0" : {
                        "type" : "double",
                        "defaultValue" : 1.00000000000002,
                        "interp" : "eioe"
                      },
                      "scale1" : {
                        "type" : "double",
                        "defaultValue" : 1.00000000000002,
                        "interp" : "eioe"
                      },
                      "cursorScale" : {
                        "type" : "double",
                        "defaultValue" : 1.0,
                        "interp" : "linr"
                      },
                      "cursorOpacity" : {
                        "type" : "double",
                        "defaultValue" : 1.0,
                        "interp" : "linr"
                      }
                    },
                    "effects" : [

                    ],
                    "start" : 354,
                    "duration" : 80,
                    "mediaStart" : 459,
                    "mediaDuration" : 80,
                    "scalar" : 1,
                    "metadata" : {
                      "AutoAppliedSmartFocus" : "False",
                      "WinSubProjectDisplayName" : "",
                      "clipSpeedAttribute" : false
                    },
                    "animationTracks" : {

                    }
                  },
                  {
                    "id" : 209,
                    "_type" : "UnifiedMedia",
                    "video" : 
                        {
                          "id" : 210,
                          "_type" : "ScreenVMFile",
                          "src" : 3,
                          "trackNumber" : 0,
                          "attributes" : {
                            "ident" : "tower-arch-02"
                          },
                          "parameters" : {
                            "translation0" : {
                              "type" : "double",
                              "defaultValue" : -8.30482349556405e-11,
                              "interp" : "eioe"
                            },
                            "translation1" : {
                              "type" : "double",
                              "defaultValue" : 4.66968685941538e-11,
                              "interp" : "eioe"
                            },
                            "scale0" : {
                              "type" : "double",
                              "defaultValue" : 1.00000000000002,
                              "interp" : "eioe"
                            },
                            "scale1" : {
                              "type" : "double",
                              "defaultValue" : 1.00000000000002,
                              "interp" : "eioe"
                            },
                            "cursorScale" : {
                              "type" : "double",
                              "defaultValue" : 1.0,
                              "interp" : "linr"
                            },
                            "cursorOpacity" : {
                              "type" : "double",
                              "defaultValue" : 1.0,
                              "interp" : "linr"
                            }
                          },
                          "effects" : [

                          ],
                          "start" : 434,
                          "duration" : 416,
                          "mediaStart" : 696,
                          "mediaDuration" : 416,
                          "scalar" : 1,
                          "animationTracks" : {

                          }
                        },
                    "audio" : 
                        {
                          "id" : 211,
                          "_type" : "AMFile",
                          "src" : 3,
                          "trackNumber" : 1,
                          "attributes" : {
                            "ident" : "",
                            "sampleRate" : 44100,
                            "bitDepth" : 16,
                            "gain" : 1.0,
                            "mixToMono" : false
                          },
                            "channelNumber" : "0,1",
                          "parameters" : {
                            "volume" : {
                              "type" : "double",
                              "keyframes" : [
                                {
                                  "endTime" : 0,
                                  "time" : 0,
                                  "value" : 1.0,
                                  "duration" : 0
                                },
                                {
                                  "endTime" : 695,
                                  "time" : 695,
                                  "value" : 1.0,
                                  "duration" : 0
                                },
                                {
                                  "endTime" : 696,
                                  "time" : 696,
                                  "value" : 0.0,
                                  "duration" : 0
                                },
                                {
                                  "endTime" : 1112,
                                  "time" : 1112,
                                  "value" : 0.0,
                                  "duration" : 0
                                },
                                {
                                  "endTime" : 1113,
                                  "time" : 1113,
                                  "value" : 1.0,
                                  "duration" : 0
                                }
                              ]
                            }
                          },
                          "effects" : [

                          ],
                          "start" : 434,
                          "duration" : 416,
                          "mediaStart" : 696,
                          "mediaDuration" : 416,
                          "scalar" : 1,
                          "animationTracks" : {

                          }
                        }
,
                    "start" : 434,
                    "duration" : 416,
                    "mediaStart" : 0,
                    "mediaDuration" : 2836,
                    "scalar" : 1,
                    "metadata" : {
                      "AutoAppliedSmartFocus" : "False",
                      "WinSubProjectDisplayName" : "",
                      "clipSpeedAttribute" : false
                    }
                  },
                  {
                    "id" : 212,
                    "_type" : "ScreenVMFile",
                    "src" : 3,
                    "trackNumber" : 0,
                    "attributes" : {
                      "ident" : "tower-arch-02"
                    },
                    "parameters" : {
                      "translation0" : {
                        "type" : "double",
                        "defaultValue" : -8.30482349556405e-11,
                        "interp" : "eioe"
                      },
                      "translation1" : {
                        "type" : "double",
                        "defaultValue" : 4.66968685941538e-11,
                        "interp" : "eioe"
                      },
                      "scale0" : {
                        "type" : "double",
                        "defaultValue" : 1.00000000000002,
                        "interp" : "eioe"
                      },
                      "scale1" : {
                        "type" : "double",
                        "defaultValue" : 1.00000000000002,
                        "interp" : "eioe"
                      },
                      "cursorScale" : {
                        "type" : "double",
                        "defaultValue" : 1.0,
                        "interp" : "linr"
                      },
                      "cursorOpacity" : {
                        "type" : "double",
                        "defaultValue" : 1.0,
                        "interp" : "linr"
                      }
                    },
                    "effects" : [

                    ],
                    "start" : 850,
                    "duration" : 571,
                    "mediaStart" : 1202,
                    "mediaDuration" : 571,
                    "scalar" : 1,
                    "metadata" : {
                      "AutoAppliedSmartFocus" : "False",
                      "WinSubProjectDisplayName" : "",
                      "clipSpeedAttribute" : false
                    },
                    "animationTracks" : {

                    }
                  },
                  {
                    "id" : 213,
                    "_type" : "ScreenVMFile",
                    "src" : 3,
                    "trackNumber" : 0,
                    "attributes" : {
                      "ident" : "tower-arch-02"
                    },
                    "parameters" : {
                      "translation0" : {
                        "type" : "double",
                        "defaultValue" : -8.30482349556405e-11,
                        "interp" : "eioe"
                      },
                      "translation1" : {
                        "type" : "double",
                        "defaultValue" : 4.66968685941538e-11,
                        "interp" : "eioe"
                      },
                      "scale0" : {
                        "type" : "double",
                        "defaultValue" : 1.00000000000002,
                        "interp" : "eioe"
                      },
                      "scale1" : {
                        "type" : "double",
                        "defaultValue" : 1.00000000000002,
                        "interp" : "eioe"
                      },
                      "cursorScale" : {
                        "type" : "double",
                        "defaultValue" : 1.0,
                        "interp" : "linr"
                      },
                      "cursorOpacity" : {
                        "type" : "double",
                        "defaultValue" : 1.0,
                        "interp" : "linr"
                      }
                    },
                    "effects" : [

                    ],
                    "start" : 1421,
                    "duration" : 575,
                    "mediaStart" : 1781,
                    "mediaDuration" : 575,
                    "scalar" : 1,
                    "metadata" : {
                      "AutoAppliedSmartFocus" : "False",
                      "WinSubProjectDisplayName" : "",
                      "clipSpeedAttribute" : false
                    },
                    "animationTracks" : {

                    }
                  },
                  {
                    "id" : 214,
                    "_type" : "ScreenVMFile",
                    "src" : 3,
                    "trackNumber" : 0,
                    "attributes" : {
                      "ident" : "tower-arch-02"
                    },
                    "parameters" : {
                      "translation0" : {
                        "type" : "double",
                        "defaultValue" : -8.30482349556405e-11,
                        "interp" : "eioe"
                      },
                      "translation1" : {
                        "type" : "double",
                        "defaultValue" : 4.66968685941538e-11,
                        "interp" : "eioe"
                      },
                      "scale0" : {
                        "type" : "double",
                        "defaultValue" : 1.00000000000002,
                        "interp" : "eioe"
                      },
                      "scale1" : {
                        "type" : "double",
                        "defaultValue" : 1.00000000000002,
                        "interp" : "eioe"
                      },
                      "cursorScale" : {
                        "type" : "double",
                        "defaultValue" : 1.0,
                        "interp" : "linr"
                      },
                      "cursorOpacity" : {
                        "type" : "double",
                        "defaultValue" : 1.0,
                        "interp" : "linr"
                      }
                    },
                    "effects" : [

                    ],
                    "start" : 1996,
                    "duration" : 116,
                    "mediaStart" : 2487,
                    "mediaDuration" : 116,
                    "scalar" : 1,
                    "metadata" : {
                      "AutoAppliedSmartFocus" : "False",
                      "WinSubProjectDisplayName" : "",
                      "clipSpeedAttribute" : false
                    },
                    "animationTracks" : {

                    }
                  },
                  {
                    "id" : 215,
                    "_type" : "ScreenVMFile",
                    "src" : 3,
                    "trackNumber" : 0,
                    "attributes" : {
                      "ident" : "tower-arch-02"
                    },
                    "parameters" : {
                      "translation0" : {
                        "type" : "double",
                        "defaultValue" : -8.30482349556405e-11,
                        "interp" : "eioe"
                      },
                      "translation1" : {
                        "type" : "double",
                        "defaultValue" : 4.66968685941538e-11,
                        "interp" : "eioe"
                      },
                      "scale0" : {
                        "type" : "double",
                        "defaultValue" : 1.00000000000002,
                        "interp" : "eioe"
                      },
                      "scale1" : {
                        "type" : "double",
                        "defaultValue" : 1.00000000000002,
                        "interp" : "eioe"
                      },
                      "cursorScale" : {
                        "type" : "double",
                        "defaultValue" : 1.0,
                        "interp" : "linr"
                      },
                      "cursorOpacity" : {
                        "type" : "double",
                        "defaultValue" : 1.0,
                        "interp" : "linr"
                      }
                    },
                    "effects" : [

                    ],
                    "start" : 2112,
                    "duration" : 116,
                    "mediaStart" : 2487,
                    "mediaDuration" : 116,
                    "scalar" : 1,
                    "metadata" : {
                      "AutoAppliedSmartFocus" : "False",
                      "WinSubProjectDisplayName" : "",
                      "clipSpeedAttribute" : false
                    },
                    "animationTracks" : {

                    }
                  },
                  {
                    "id" : 216,
                    "_type" : "ScreenVMFile",
                    "src" : 4,
                    "trackNumber" : 0,
                    "attributes" : {
                      "ident" : "tower-arch-03"
                    },
                    "parameters" : {
                      "cursorScale" : {
                        "type" : "double",
                        "defaultValue" : 1.0,
                        "interp" : "linr"
                      },
                      "cursorOpacity" : {
                        "type" : "double",
                        "defaultValue" : 1.0,
                        "interp" : "linr"
                      }
                    },
                    "effects" : [

                    ],
                    "start" : 2228,
                    "duration" : 1015,
                    "mediaStart" : 0,
                    "mediaDuration" : 1015,
                    "scalar" : 1,
                    "metadata" : {
                      "AutoAppliedSmartFocus" : "False",
                      "WinSubProjectDisplayName" : "",
                      "clipSpeedAttribute" : false
                    },
                    "animationTracks" : {

                    }
                  },
                  {
                    "id" : 217,
                    "_type" : "StitchedMedia",
                    "minMediaStart" : 0,
                    "attributes" : {
                      "ident" : "tower-arch-03",
                      "gain" : 1.0,
                      "mixToMono" : false
                    },
                    "parameters" : {
                      "cursorOpacity" : 1.0,
                      "cursorScale" : 1.0
                    },
                    "medias" : [
                        {
                          "id" : 218,
                          "_type" : "ScreenVMFile",
                          "src" : 4,
                          "trackNumber" : 0,
                          "attributes" : {
                            "ident" : "Rec 02-03-20_004"
                          },
                          "parameters" : {
                            "cursorScale" : {
                              "type" : "double",
                              "defaultValue" : 0.0,
                              "interp" : "linr"
                            },
                            "cursorOpacity" : {
                              "type" : "double",
                              "defaultValue" : 0.0,
                              "interp" : "linr"
                            }
                          },
                          "effects" : [

                          ],
                          "start" : 0,
                          "duration" : 1132,
                          "mediaStart" : 0,
                          "mediaDuration" : 1132,
                          "scalar" : 1,
                          "metadata" : {
                            "AutoAppliedSmartFocus" : "False",
                            "WinSubProjectDisplayName" : "",
                            "clipSpeedAttribute" : false
                          },
                          "animationTracks" : {

                          }
                        },
                        {
                          "id" : 219,
                          "_type" : "ScreenIMFile",
                          "src" : 4,
                          "trackNumber" : 0,
                          "trimStartSum" : 0,
                          "attributes" : {
                            "ident" : "Rec 02-03-20_004"
                          },
                          "parameters" : {
                            "cursorOpacity" : 0.0,
                            "cursorScale" : 0.0
                          },
                          "effects" : [

                          ],
                          "start" : 1132,
                          "duration" : 93,
                          "mediaStart" : 1131,
                          "mediaDuration" : 1,
                          "scalar" : 1,
                          "metadata" : {
                            "AutoAppliedSmartFocus" : "False",
                            "WinSubProjectDisplayName" : ""
                          },
                          "animationTracks" : {

                          }
                        },
                        {
                          "id" : 220,
                          "_type" : "ScreenVMFile",
                          "src" : 4,
                          "trackNumber" : 0,
                          "attributes" : {
                            "ident" : "Rec 02-03-20_004"
                          },
                          "parameters" : {
                            "cursorScale" : {
                              "type" : "double",
                              "defaultValue" : 0.0,
                              "interp" : "linr"
                            },
                            "cursorOpacity" : {
                              "type" : "double",
                              "defaultValue" : 0.0,
                              "interp" : "linr"
                            }
                          },
                          "effects" : [

                          ],
                          "start" : 1225,
                          "duration" : 7337,
                          "mediaStart" : 1132,
                          "mediaDuration" : 7337,
                          "scalar" : 1,
                          "metadata" : {
                            "AutoAppliedSmartFocus" : "False",
                            "WinSubProjectDisplayName" : "",
                            "clipSpeedAttribute" : false
                          },
                          "animationTracks" : {

                          }
                        }
                    ],
                    "effects" : [

                    ],
                    "start" : 3243,
                    "duration" : 44,
                    "mediaStart" : 1108,
                    "mediaDuration" : 44,
                    "scalar" : 1,
                    "metadata" : {
                      "AutoAppliedSmartFocus" : "False",
                      "WinSubProjectDisplayName" : "",
                      "clipSpeedAttribute" : false
                    },
                    "animationTracks" : {

                    }
                  },
                  {
                    "id" : 221,
                    "_type" : "StitchedMedia",
                    "minMediaStart" : 0,
                    "attributes" : {
                      "ident" : "tower-arch-03",
                      "gain" : 1.0,
                      "mixToMono" : false
                    },
                    "parameters" : {
                      "cursorOpacity" : 1.0,
                      "cursorScale" : 1.0
                    },
                    "medias" : [
                        {
                          "id" : 222,
                          "_type" : "ScreenVMFile",
                          "src" : 4,
                          "trackNumber" : 0,
                          "attributes" : {
                            "ident" : "Rec 02-03-20_004"
                          },
                          "parameters" : {
                            "cursorScale" : {
                              "type" : "double",
                              "defaultValue" : 0.0,
                              "interp" : "linr"
                            },
                            "cursorOpacity" : {
                              "type" : "double",
                              "defaultValue" : 0.0,
                              "interp" : "linr"
                            }
                          },
                          "effects" : [

                          ],
                          "start" : 0,
                          "duration" : 1550,
                          "mediaStart" : 0,
                          "mediaDuration" : 1550,
                          "scalar" : 1,
                          "metadata" : {
                            "AutoAppliedSmartFocus" : "False",
                            "WinSubProjectDisplayName" : "",
                            "clipSpeedAttribute" : false
                          },
                          "animationTracks" : {

                          }
                        },
                        {
                          "id" : 223,
                          "_type" : "ScreenVMFile",
                          "src" : 4,
                          "trackNumber" : 0,
                          "attributes" : {
                            "ident" : "Rec 02-03-20_004"
                          },
                          "parameters" : {
                            "cursorScale" : {
                              "type" : "double",
                              "defaultValue" : 0.0,
                              "interp" : "linr"
                            },
                            "cursorOpacity" : {
                              "type" : "double",
                              "defaultValue" : 0.0,
                              "interp" : "linr"
                            }
                          },
                          "effects" : [

                          ],
                          "start" : 1550,
                          "duration" : 367,
                          "mediaStart" : 1641,
                          "mediaDuration" : 367,
                          "scalar" : 1,
                          "metadata" : {
                            "AutoAppliedSmartFocus" : "False",
                            "WinSubProjectDisplayName" : "",
                            "clipSpeedAttribute" : false
                          },
                          "animationTracks" : {

                          }
                        },
                        {
                          "id" : 224,
                          "_type" : "ScreenVMFile",
                          "src" : 4,
                          "trackNumber" : 0,
                          "attributes" : {
                            "ident" : "Rec 02-03-20_004"
                          },
                          "parameters" : {
                            "cursorScale" : {
                              "type" : "double",
                              "defaultValue" : 0.0,
                              "interp" : "linr"
                            },
                            "cursorOpacity" : {
                              "type" : "double",
                              "defaultValue" : 0.0,
                              "interp" : "linr"
                            }
                          },
                          "effects" : [

                          ],
                          "start" : 1917,
                          "duration" : 205,
                          "mediaStart" : 2028,
                          "mediaDuration" : 205,
                          "scalar" : 1,
                          "metadata" : {
                            "AutoAppliedSmartFocus" : "False",
                            "WinSubProjectDisplayName" : "",
                            "clipSpeedAttribute" : false
                          },
                          "animationTracks" : {

                          }
                        },
                        {
                          "id" : 225,
                          "_type" : "ScreenVMFile",
                          "src" : 4,
                          "trackNumber" : 0,
                          "attributes" : {
                            "ident" : "Rec 02-03-20_004"
                          },
                          "parameters" : {
                            "cursorScale" : {
                              "type" : "double",
                              "defaultValue" : 0.0,
                              "interp" : "linr"
                            },
                            "cursorOpacity" : {
                              "type" : "double",
                              "defaultValue" : 0.0,
                              "interp" : "linr"
                            }
                          },
                          "effects" : [

                          ],
                          "start" : 2122,
                          "duration" : 5745,
                          "mediaStart" : 2724,
                          "mediaDuration" : 5745,
                          "scalar" : 1,
                          "metadata" : {
                            "AutoAppliedSmartFocus" : "False",
                            "WinSubProjectDisplayName" : "",
                            "clipSpeedAttribute" : false
                          },
                          "animationTracks" : {

                          }
                        }
                    ],
                    "effects" : [

                    ],
                    "start" : 3287,
                    "duration" : 1041,
                    "mediaStart" : 1145,
                    "mediaDuration" : 1041,
                    "scalar" : 1,
                    "metadata" : {
                      "AutoAppliedSmartFocus" : "False",
                      "WinSubProjectDisplayName" : "",
                      "clipSpeedAttribute" : false
                    },
                    "animationTracks" : {

                    }
                  },
                  {
                    "id" : 226,
                    "_type" : "StitchedMedia",
                    "minMediaStart" : 0,
                    "attributes" : {
                      "ident" : "tower-arch-03",
                      "gain" : 1.0,
                      "mixToMono" : false
                    },
                    "parameters" : {
                      "cursorOpacity" : 1.0,
                      "cursorScale" : 1.0
                    },
                    "medias" : [
                        {
                          "id" : 227,
                          "_type" : "ScreenVMFile",
                          "src" : 4,
                          "trackNumber" : 0,
                          "attributes" : {
                            "ident" : "Rec 02-03-20_004"
                          },
                          "parameters" : {
                            "cursorScale" : {
                              "type" : "double",
                              "defaultValue" : 0.0,
                              "interp" : "linr"
                            },
                            "cursorOpacity" : {
                              "type" : "double",
                              "defaultValue" : 0.0,
                              "interp" : "linr"
                            }
                          },
                          "effects" : [

                          ],
                          "start" : 0,
                          "duration" : 1550,
                          "mediaStart" : 0,
                          "mediaDuration" : 1550,
                          "scalar" : 1,
                          "metadata" : {
                            "AutoAppliedSmartFocus" : "False",
                            "WinSubProjectDisplayName" : "",
                            "clipSpeedAttribute" : false
                          },
                          "animationTracks" : {

                          }
                        },
                        {
                          "id" : 228,
                          "_type" : "ScreenVMFile",
                          "src" : 4,
                          "trackNumber" : 0,
                          "attributes" : {
                            "ident" : "Rec 02-03-20_004"
                          },
                          "parameters" : {
                            "cursorScale" : {
                              "type" : "double",
                              "defaultValue" : 0.0,
                              "interp" : "linr"
                            },
                            "cursorOpacity" : {
                              "type" : "double",
                              "defaultValue" : 0.0,
                              "interp" : "linr"
                            }
                          },
                          "effects" : [

                          ],
                          "start" : 1550,
                          "duration" : 367,
                          "mediaStart" : 1641,
                          "mediaDuration" : 367,
                          "scalar" : 1,
                          "metadata" : {
                            "AutoAppliedSmartFocus" : "False",
                            "WinSubProjectDisplayName" : "",
                            "clipSpeedAttribute" : false
                          },
                          "animationTracks" : {

                          }
                        },
                        {
                          "id" : 229,
                          "_type" : "ScreenVMFile",
                          "src" : 4,
                          "trackNumber" : 0,
                          "attributes" : {
                            "ident" : "Rec 02-03-20_004"
                          },
                          "parameters" : {
                            "cursorScale" : {
                              "type" : "double",
                              "defaultValue" : 0.0,
                              "interp" : "linr"
                            },
                            "cursorOpacity" : {
                              "type" : "double",
                              "defaultValue" : 0.0,
                              "interp" : "linr"
                            }
                          },
                          "effects" : [

                          ],
                          "start" : 1917,
                          "duration" : 205,
                          "mediaStart" : 2028,
                          "mediaDuration" : 205,
                          "scalar" : 1,
                          "metadata" : {
                            "AutoAppliedSmartFocus" : "False",
                            "WinSubProjectDisplayName" : "",
                            "clipSpeedAttribute" : false
                          },
                          "animationTracks" : {

                          }
                        },
                        {
                          "id" : 230,
                          "_type" : "ScreenVMFile",
                          "src" : 4,
                          "trackNumber" : 0,
                          "attributes" : {
                            "ident" : "Rec 02-03-20_004"
                          },
                          "parameters" : {
                            "cursorScale" : {
                              "type" : "double",
                              "defaultValue" : 0.0,
                              "interp" : "linr"
                            },
                            "cursorOpacity" : {
                              "type" : "double",
                              "defaultValue" : 0.0,
                              "interp" : "linr"
                            }
                          },
                          "effects" : [

                          ],
                          "start" : 2122,
                          "duration" : 5745,
                          "mediaStart" : 2724,
                          "mediaDuration" : 5745,
                          "scalar" : 1,
                          "metadata" : {
                            "AutoAppliedSmartFocus" : "False",
                            "WinSubProjectDisplayName" : "",
                            "clipSpeedAttribute" : false
                          },
                          "animationTracks" : {

                          }
                        }
                    ],
                    "effects" : [

                    ],
                    "start" : 4328,
                    "duration" : 64,
                    "mediaStart" : 2186,
                    "mediaDuration" : 64,
                    "scalar" : 1,
                    "metadata" : {
                      "AutoAppliedSmartFocus" : "False",
                      "WinSubProjectDisplayName" : "",
                      "clipSpeedAttribute" : false
                    },
                    "animationTracks" : {

                    }
                  },
                  {
                    "id" : 231,
                    "_type" : "StitchedMedia",
                    "minMediaStart" : 0,
                    "attributes" : {
                      "ident" : "tower-arch-03",
                      "gain" : 1.0,
                      "mixToMono" : false
                    },
                    "parameters" : {
                      "cursorOpacity" : 1.0,
                      "cursorScale" : 1.0
                    },
                    "medias" : [
                        {
                          "id" : 232,
                          "_type" : "ScreenVMFile",
                          "src" : 4,
                          "trackNumber" : 0,
                          "attributes" : {
                            "ident" : "Rec 02-03-20_004"
                          },
                          "parameters" : {
                            "cursorScale" : {
                              "type" : "double",
                              "defaultValue" : 0.0,
                              "interp" : "linr"
                            },
                            "cursorOpacity" : {
                              "type" : "double",
                              "defaultValue" : 0.0,
                              "interp" : "linr"
                            }
                          },
                          "effects" : [

                          ],
                          "start" : 0,
                          "duration" : 1550,
                          "mediaStart" : 0,
                          "mediaDuration" : 1550,
                          "scalar" : 1,
                          "metadata" : {
                            "AutoAppliedSmartFocus" : "False",
                            "WinSubProjectDisplayName" : "",
                            "clipSpeedAttribute" : false
                          },
                          "animationTracks" : {

                          }
                        },
                        {
                          "id" : 233,
                          "_type" : "ScreenVMFile",
                          "src" : 4,
                          "trackNumber" : 0,
                          "attributes" : {
                            "ident" : "Rec 02-03-20_004"
                          },
                          "parameters" : {
                            "cursorScale" : {
                              "type" : "double",
                              "defaultValue" : 0.0,
                              "interp" : "linr"
                            },
                            "cursorOpacity" : {
                              "type" : "double",
                              "defaultValue" : 0.0,
                              "interp" : "linr"
                            }
                          },
                          "effects" : [

                          ],
                          "start" : 1550,
                          "duration" : 367,
                          "mediaStart" : 1641,
                          "mediaDuration" : 367,
                          "scalar" : 1,
                          "metadata" : {
                            "AutoAppliedSmartFocus" : "False",
                            "WinSubProjectDisplayName" : "",
                            "clipSpeedAttribute" : false
                          },
                          "animationTracks" : {

                          }
                        },
                        {
                          "id" : 234,
                          "_type" : "ScreenVMFile",
                          "src" : 4,
                          "trackNumber" : 0,
                          "attributes" : {
                            "ident" : "Rec 02-03-20_004"
                          },
                          "parameters" : {
                            "cursorScale" : {
                              "type" : "double",
                              "defaultValue" : 0.0,
                              "interp" : "linr"
                            },
                            "cursorOpacity" : {
                              "type" : "double",
                              "defaultValue" : 0.0,
                              "interp" : "linr"
                            }
                          },
                          "effects" : [

                          ],
                          "start" : 1917,
                          "duration" : 205,
                          "mediaStart" : 2028,
                          "mediaDuration" : 205,
                          "scalar" : 1,
                          "metadata" : {
                            "AutoAppliedSmartFocus" : "False",
                            "WinSubProjectDisplayName" : "",
                            "clipSpeedAttribute" : false
                          },
                          "animationTracks" : {

                          }
                        },
                        {
                          "id" : 235,
                          "_type" : "ScreenVMFile",
                          "src" : 4,
                          "trackNumber" : 0,
                          "attributes" : {
                            "ident" : "Rec 02-03-20_004"
                          },
                          "parameters" : {
                            "cursorScale" : {
                              "type" : "double",
                              "defaultValue" : 0.0,
                              "interp" : "linr"
                            },
                            "cursorOpacity" : {
                              "type" : "double",
                              "defaultValue" : 0.0,
                              "interp" : "linr"
                            }
                          },
                          "effects" : [

                          ],
                          "start" : 2122,
                          "duration" : 5745,
                          "mediaStart" : 2724,
                          "mediaDuration" : 5745,
                          "scalar" : 1,
                          "metadata" : {
                            "AutoAppliedSmartFocus" : "False",
                            "WinSubProjectDisplayName" : "",
                            "clipSpeedAttribute" : false
                          },
                          "animationTracks" : {

                          }
                        }
                    ],
                    "effects" : [

                    ],
                    "start" : 4392,
                    "duration" : 66,
                    "mediaStart" : 2327,
                    "mediaDuration" : 66,
                    "scalar" : 1,
                    "metadata" : {
                      "AutoAppliedSmartFocus" : "False",
                      "WinSubProjectDisplayName" : "",
                      "clipSpeedAttribute" : false
                    },
                    "animationTracks" : {

                    }
                  },
                  {
                    "id" : 236,
                    "_type" : "StitchedMedia",
                    "minMediaStart" : 0,
                    "attributes" : {
                      "ident" : "tower-arch-03",
                      "gain" : 1.0,
                      "mixToMono" : false
                    },
                    "parameters" : {
                      "cursorOpacity" : 1.0,
                      "cursorScale" : 1.0
                    },
                    "medias" : [
                        {
                          "id" : 237,
                          "_type" : "ScreenVMFile",
                          "src" : 4,
                          "trackNumber" : 0,
                          "attributes" : {
                            "ident" : "Rec 02-03-20_004"
                          },
                          "parameters" : {
                            "cursorScale" : {
                              "type" : "double",
                              "defaultValue" : 0.0,
                              "interp" : "linr"
                            },
                            "cursorOpacity" : {
                              "type" : "double",
                              "defaultValue" : 0.0,
                              "interp" : "linr"
                            }
                          },
                          "effects" : [

                          ],
                          "start" : 0,
                          "duration" : 1550,
                          "mediaStart" : 0,
                          "mediaDuration" : 1550,
                          "scalar" : 1,
                          "metadata" : {
                            "AutoAppliedSmartFocus" : "False",
                            "WinSubProjectDisplayName" : "",
                            "clipSpeedAttribute" : false
                          },
                          "animationTracks" : {

                          }
                        },
                        {
                          "id" : 238,
                          "_type" : "ScreenVMFile",
                          "src" : 4,
                          "trackNumber" : 0,
                          "attributes" : {
                            "ident" : "Rec 02-03-20_004"
                          },
                          "parameters" : {
                            "cursorScale" : {
                              "type" : "double",
                              "defaultValue" : 0.0,
                              "interp" : "linr"
                            },
                            "cursorOpacity" : {
                              "type" : "double",
                              "defaultValue" : 0.0,
                              "interp" : "linr"
                            }
                          },
                          "effects" : [

                          ],
                          "start" : 1550,
                          "duration" : 367,
                          "mediaStart" : 1641,
                          "mediaDuration" : 367,
                          "scalar" : 1,
                          "metadata" : {
                            "AutoAppliedSmartFocus" : "False",
                            "WinSubProjectDisplayName" : "",
                            "clipSpeedAttribute" : false
                          },
                          "animationTracks" : {

                          }
                        },
                        {
                          "id" : 239,
                          "_type" : "ScreenVMFile",
                          "src" : 4,
                          "trackNumber" : 0,
                          "attributes" : {
                            "ident" : "Rec 02-03-20_004"
                          },
                          "parameters" : {
                            "cursorScale" : {
                              "type" : "double",
                              "defaultValue" : 0.0,
                              "interp" : "linr"
                            },
                            "cursorOpacity" : {
                              "type" : "double",
                              "defaultValue" : 0.0,
                              "interp" : "linr"
                            }
                          },
                          "effects" : [

                          ],
                          "start" : 1917,
                          "duration" : 205,
                          "mediaStart" : 2028,
                          "mediaDuration" : 205,
                          "scalar" : 1,
                          "metadata" : {
                            "AutoAppliedSmartFocus" : "False",
                            "WinSubProjectDisplayName" : "",
                            "clipSpeedAttribute" : false
                          },
                          "animationTracks" : {

                          }
                        },
                        {
                          "id" : 240,
                          "_type" : "ScreenVMFile",
                          "src" : 4,
                          "trackNumber" : 0,
                          "attributes" : {
                            "ident" : "Rec 02-03-20_004"
                          },
                          "parameters" : {
                            "cursorScale" : {
                              "type" : "double",
                              "defaultValue" : 0.0,
                              "interp" : "linr"
                            },
                            "cursorOpacity" : {
                              "type" : "double",
                              "defaultValue" : 0.0,
                              "interp" : "linr"
                            }
                          },
                          "effects" : [

                          ],
                          "start" : 2122,
                          "duration" : 5745,
                          "mediaStart" : 2724,
                          "mediaDuration" : 5745,
                          "scalar" : 1,
                          "metadata" : {
                            "AutoAppliedSmartFocus" : "False",
                            "WinSubProjectDisplayName" : "",
                            "clipSpeedAttribute" : false
                          },
                          "animationTracks" : {

                          }
                        }
                    ],
                    "effects" : [

                    ],
                    "start" : 4458,
                    "duration" : 1554,
                    "mediaStart" : 2393,
                    "mediaDuration" : 1554,
                    "scalar" : 1,
                    "metadata" : {
                      "AutoAppliedSmartFocus" : "False",
                      "WinSubProjectDisplayName" : "",
                      "clipSpeedAttribute" : false
                    },
                    "animationTracks" : {

                    }
                  },
                  {
                    "id" : 241,
                    "_type" : "StitchedMedia",
                    "minMediaStart" : 0,
                    "attributes" : {
                      "ident" : "tower-arch-03",
                      "gain" : 1.0,
                      "mixToMono" : false
                    },
                    "parameters" : {
                      "cursorOpacity" : 1.0,
                      "cursorScale" : 1.0
                    },
                    "medias" : [
                        {
                          "id" : 242,
                          "_type" : "ScreenVMFile",
                          "src" : 4,
                          "trackNumber" : 0,
                          "attributes" : {
                            "ident" : "Rec 02-03-20_004"
                          },
                          "parameters" : {
                            "cursorScale" : {
                              "type" : "double",
                              "defaultValue" : 0.0,
                              "interp" : "linr"
                            },
                            "cursorOpacity" : {
                              "type" : "double",
                              "defaultValue" : 0.0,
                              "interp" : "linr"
                            }
                          },
                          "effects" : [

                          ],
                          "start" : 0,
                          "duration" : 1550,
                          "mediaStart" : 0,
                          "mediaDuration" : 1550,
                          "scalar" : 1,
                          "metadata" : {
                            "AutoAppliedSmartFocus" : "False",
                            "WinSubProjectDisplayName" : "",
                            "clipSpeedAttribute" : false
                          },
                          "animationTracks" : {

                          }
                        },
                        {
                          "id" : 243,
                          "_type" : "ScreenVMFile",
                          "src" : 4,
                          "trackNumber" : 0,
                          "attributes" : {
                            "ident" : "Rec 02-03-20_004"
                          },
                          "parameters" : {
                            "cursorScale" : {
                              "type" : "double",
                              "defaultValue" : 0.0,
                              "interp" : "linr"
                            },
                            "cursorOpacity" : {
                              "type" : "double",
                              "defaultValue" : 0.0,
                              "interp" : "linr"
                            }
                          },
                          "effects" : [

                          ],
                          "start" : 1550,
                          "duration" : 367,
                          "mediaStart" : 1641,
                          "mediaDuration" : 367,
                          "scalar" : 1,
                          "metadata" : {
                            "AutoAppliedSmartFocus" : "False",
                            "WinSubProjectDisplayName" : "",
                            "clipSpeedAttribute" : false
                          },
                          "animationTracks" : {

                          }
                        },
                        {
                          "id" : 244,
                          "_type" : "ScreenVMFile",
                          "src" : 4,
                          "trackNumber" : 0,
                          "attributes" : {
                            "ident" : "Rec 02-03-20_004"
                          },
                          "parameters" : {
                            "cursorScale" : {
                              "type" : "double",
                              "defaultValue" : 0.0,
                              "interp" : "linr"
                            },
                            "cursorOpacity" : {
                              "type" : "double",
                              "defaultValue" : 0.0,
                              "interp" : "linr"
                            }
                          },
                          "effects" : [

                          ],
                          "start" : 1917,
                          "duration" : 205,
                          "mediaStart" : 2028,
                          "mediaDuration" : 205,
                          "scalar" : 1,
                          "metadata" : {
                            "AutoAppliedSmartFocus" : "False",
                            "WinSubProjectDisplayName" : "",
                            "clipSpeedAttribute" : false
                          },
                          "animationTracks" : {

                          }
                        },
                        {
                          "id" : 245,
                          "_type" : "ScreenVMFile",
                          "src" : 4,
                          "trackNumber" : 0,
                          "attributes" : {
                            "ident" : "Rec 02-03-20_004"
                          },
                          "parameters" : {
                            "cursorScale" : {
                              "type" : "double",
                              "defaultValue" : 0.0,
                              "interp" : "linr"
                            },
                            "cursorOpacity" : {
                              "type" : "double",
                              "defaultValue" : 0.0,
                              "interp" : "linr"
                            }
                          },
                          "effects" : [

                          ],
                          "start" : 2122,
                          "duration" : 2794,
                          "mediaStart" : 2724,
                          "mediaDuration" : 2794,
                          "scalar" : 1,
                          "metadata" : {
                            "AutoAppliedSmartFocus" : "False",
                            "WinSubProjectDisplayName" : "",
                            "clipSpeedAttribute" : false
                          },
                          "animationTracks" : {

                          }
                        },
                        {
                          "id" : 246,
                          "_type" : "ScreenVMFile",
                          "src" : 4,
                          "trackNumber" : 0,
                          "attributes" : {
                            "ident" : "Rec 02-03-20_004"
                          },
                          "parameters" : {
                            "cursorScale" : {
                              "type" : "double",
                              "defaultValue" : 0.0,
                              "interp" : "linr"
                            },
                            "cursorOpacity" : {
                              "type" : "double",
                              "defaultValue" : 0.0,
                              "interp" : "linr"
                            }
                          },
                          "effects" : [

                          ],
                          "start" : 4916,
                          "duration" : 177,
                          "mediaStart" : 5626,
                          "mediaDuration" : 177,
                          "scalar" : 1,
                          "metadata" : {
                            "AutoAppliedSmartFocus" : "False",
                            "WinSubProjectDisplayName" : "",
                            "clipSpeedAttribute" : false
                          },
                          "animationTracks" : {

                          }
                        },
                        {
                          "id" : 247,
                          "_type" : "ScreenVMFile",
                          "src" : 4,
                          "trackNumber" : 0,
                          "attributes" : {
                            "ident" : "Rec 02-03-20_004"
                          },
                          "parameters" : {
                            "cursorScale" : {
                              "type" : "double",
                              "defaultValue" : 0.0,
                              "interp" : "linr"
                            },
                            "cursorOpacity" : {
                              "type" : "double",
                              "defaultValue" : 0.0,
                              "interp" : "linr"
                            }
                          },
                          "effects" : [

                          ],
                          "start" : 5093,
                          "duration" : 60,
                          "mediaStart" : 5877,
                          "mediaDuration" : 60,
                          "scalar" : 1,
                          "metadata" : {
                            "AutoAppliedSmartFocus" : "False",
                            "WinSubProjectDisplayName" : "",
                            "clipSpeedAttribute" : false
                          },
                          "animationTracks" : {

                          }
                        },
                        {
                          "id" : 248,
                          "_type" : "ScreenVMFile",
                          "src" : 4,
                          "trackNumber" : 0,
                          "attributes" : {
                            "ident" : "Rec 02-03-20_004"
                          },
                          "parameters" : {
                            "cursorScale" : {
                              "type" : "double",
                              "defaultValue" : 0.0,
                              "interp" : "linr"
                            },
                            "cursorOpacity" : {
                              "type" : "double",
                              "defaultValue" : 0.0,
                              "interp" : "linr"
                            }
                          },
                          "effects" : [

                          ],
                          "start" : 5153,
                          "duration" : 289,
                          "mediaStart" : 6009,
                          "mediaDuration" : 289,
                          "scalar" : 1,
                          "metadata" : {
                            "AutoAppliedSmartFocus" : "False",
                            "WinSubProjectDisplayName" : "",
                            "clipSpeedAttribute" : false
                          },
                          "animationTracks" : {

                          }
                        },
                        {
                          "id" : 249,
                          "_type" : "ScreenVMFile",
                          "src" : 4,
                          "trackNumber" : 0,
                          "attributes" : {
                            "ident" : "Rec 02-03-20_004"
                          },
                          "parameters" : {
                            "cursorScale" : {
                              "type" : "double",
                              "defaultValue" : 0.0,
                              "interp" : "linr"
                            },
                            "cursorOpacity" : {
                              "type" : "double",
                              "defaultValue" : 0.0,
                              "interp" : "linr"
                            }
                          },
                          "effects" : [

                          ],
                          "start" : 5442,
                          "duration" : 1560,
                          "mediaStart" : 6909,
                          "mediaDuration" : 1560,
                          "scalar" : 1,
                          "metadata" : {
                            "AutoAppliedSmartFocus" : "False",
                            "WinSubProjectDisplayName" : "",
                            "clipSpeedAttribute" : false
                          },
                          "animationTracks" : {

                          }
                        }
                    ],
                    "effects" : [

                    ],
                    "start" : 6012,
                    "duration" : 1568,
                    "mediaStart" : 4429,
                    "mediaDuration" : 1568,
                    "scalar" : 1,
                    "metadata" : {
                      "AutoAppliedSmartFocus" : "False",
                      "WinSubProjectDisplayName" : "",
                      "clipSpeedAttribute" : false
                    },
                    "animationTracks" : {

                    }
                  },
                  {
                    "id" : 250,
                    "_type" : "StitchedMedia",
                    "minMediaStart" : 0,
                    "attributes" : {
                      "ident" : "tower-arch-03",
                      "gain" : 1.0,
                      "mixToMono" : false
                    },
                    "parameters" : {
                      "cursorOpacity" : 1.0,
                      "cursorScale" : 1.0
                    },
                    "medias" : [
                        {
                          "id" : 251,
                          "_type" : "ScreenVMFile",
                          "src" : 4,
                          "trackNumber" : 0,
                          "attributes" : {
                            "ident" : "Rec 02-03-20_004"
                          },
                          "parameters" : {
                            "cursorScale" : {
                              "type" : "double",
                              "defaultValue" : 0.0,
                              "interp" : "linr"
                            },
                            "cursorOpacity" : {
                              "type" : "double",
                              "defaultValue" : 0.0,
                              "interp" : "linr"
                            }
                          },
                          "effects" : [

                          ],
                          "start" : 0,
                          "duration" : 1550,
                          "mediaStart" : 0,
                          "mediaDuration" : 1550,
                          "scalar" : 1,
                          "metadata" : {
                            "AutoAppliedSmartFocus" : "False",
                            "WinSubProjectDisplayName" : "",
                            "clipSpeedAttribute" : false
                          },
                          "animationTracks" : {

                          }
                        },
                        {
                          "id" : 252,
                          "_type" : "ScreenVMFile",
                          "src" : 4,
                          "trackNumber" : 0,
                          "attributes" : {
                            "ident" : "Rec 02-03-20_004"
                          },
                          "parameters" : {
                            "cursorScale" : {
                              "type" : "double",
                              "defaultValue" : 0.0,
                              "interp" : "linr"
                            },
                            "cursorOpacity" : {
                              "type" : "double",
                              "defaultValue" : 0.0,
                              "interp" : "linr"
                            }
                          },
                          "effects" : [

                          ],
                          "start" : 1550,
                          "duration" : 367,
                          "mediaStart" : 1641,
                          "mediaDuration" : 367,
                          "scalar" : 1,
                          "metadata" : {
                            "AutoAppliedSmartFocus" : "False",
                            "WinSubProjectDisplayName" : "",
                            "clipSpeedAttribute" : false
                          },
                          "animationTracks" : {

                          }
                        },
                        {
                          "id" : 253,
                          "_type" : "ScreenVMFile",
                          "src" : 4,
                          "trackNumber" : 0,
                          "attributes" : {
                            "ident" : "Rec 02-03-20_004"
                          },
                          "parameters" : {
                            "cursorScale" : {
                              "type" : "double",
                              "defaultValue" : 0.0,
                              "interp" : "linr"
                            },
                            "cursorOpacity" : {
                              "type" : "double",
                              "defaultValue" : 0.0,
                              "interp" : "linr"
                            }
                          },
                          "effects" : [

                          ],
                          "start" : 1917,
                          "duration" : 205,
                          "mediaStart" : 2028,
                          "mediaDuration" : 205,
                          "scalar" : 1,
                          "metadata" : {
                            "AutoAppliedSmartFocus" : "False",
                            "WinSubProjectDisplayName" : "",
                            "clipSpeedAttribute" : false
                          },
                          "animationTracks" : {

                          }
                        },
                        {
                          "id" : 254,
                          "_type" : "ScreenVMFile",
                          "src" : 4,
                          "trackNumber" : 0,
                          "attributes" : {
                            "ident" : "Rec 02-03-20_004"
                          },
                          "parameters" : {
                            "cursorScale" : {
                              "type" : "double",
                              "defaultValue" : 0.0,
                              "interp" : "linr"
                            },
                            "cursorOpacity" : {
                              "type" : "double",
                              "defaultValue" : 0.0,
                              "interp" : "linr"
                            }
                          },
                          "effects" : [

                          ],
                          "start" : 2122,
                          "duration" : 2794,
                          "mediaStart" : 2724,
                          "mediaDuration" : 2794,
                          "scalar" : 1,
                          "metadata" : {
                            "AutoAppliedSmartFocus" : "False",
                            "WinSubProjectDisplayName" : "",
                            "clipSpeedAttribute" : false
                          },
                          "animationTracks" : {

                          }
                        },
                        {
                          "id" : 255,
                          "_type" : "ScreenVMFile",
                          "src" : 4,
                          "trackNumber" : 0,
                          "attributes" : {
                            "ident" : "Rec 02-03-20_004"
                          },
                          "parameters" : {
                            "cursorScale" : {
                              "type" : "double",
                              "defaultValue" : 0.0,
                              "interp" : "linr"
                            },
                            "cursorOpacity" : {
                              "type" : "double",
                              "defaultValue" : 0.0,
                              "interp" : "linr"
                            }
                          },
                          "effects" : [

                          ],
                          "start" : 4916,
                          "duration" : 177,
                          "mediaStart" : 5626,
                          "mediaDuration" : 177,
                          "scalar" : 1,
                          "metadata" : {
                            "AutoAppliedSmartFocus" : "False",
                            "WinSubProjectDisplayName" : "",
                            "clipSpeedAttribute" : false
                          },
                          "animationTracks" : {

                          }
                        },
                        {
                          "id" : 256,
                          "_type" : "ScreenVMFile",
                          "src" : 4,
                          "trackNumber" : 0,
                          "attributes" : {
                            "ident" : "Rec 02-03-20_004"
                          },
                          "parameters" : {
                            "cursorScale" : {
                              "type" : "double",
                              "defaultValue" : 0.0,
                              "interp" : "linr"
                            },
                            "cursorOpacity" : {
                              "type" : "double",
                              "defaultValue" : 0.0,
                              "interp" : "linr"
                            }
                          },
                          "effects" : [

                          ],
                          "start" : 5093,
                          "duration" : 60,
                          "mediaStart" : 5877,
                          "mediaDuration" : 60,
                          "scalar" : 1,
                          "metadata" : {
                            "AutoAppliedSmartFocus" : "False",
                            "WinSubProjectDisplayName" : "",
                            "clipSpeedAttribute" : false
                          },
                          "animationTracks" : {

                          }
                        },
                        {
                          "id" : 257,
                          "_type" : "ScreenVMFile",
                          "src" : 4,
                          "trackNumber" : 0,
                          "attributes" : {
                            "ident" : "Rec 02-03-20_004"
                          },
                          "parameters" : {
                            "cursorScale" : {
                              "type" : "double",
                              "defaultValue" : 0.0,
                              "interp" : "linr"
                            },
                            "cursorOpacity" : {
                              "type" : "double",
                              "defaultValue" : 0.0,
                              "interp" : "linr"
                            }
                          },
                          "effects" : [

                          ],
                          "start" : 5153,
                          "duration" : 289,
                          "mediaStart" : 6009,
                          "mediaDuration" : 289,
                          "scalar" : 1,
                          "metadata" : {
                            "AutoAppliedSmartFocus" : "False",
                            "WinSubProjectDisplayName" : "",
                            "clipSpeedAttribute" : false
                          },
                          "animationTracks" : {

                          }
                        },
                        {
                          "id" : 258,
                          "_type" : "ScreenVMFile",
                          "src" : 4,
                          "trackNumber" : 0,
                          "attributes" : {
                            "ident" : "Rec 02-03-20_004"
                          },
                          "parameters" : {
                            "cursorScale" : {
                              "type" : "double",
                              "defaultValue" : 0.0,
                              "interp" : "linr"
                            },
                            "cursorOpacity" : {
                              "type" : "double",
                              "defaultValue" : 0.0,
                              "interp" : "linr"
                            }
                          },
                          "effects" : [

                          ],
                          "start" : 5442,
                          "duration" : 1560,
                          "mediaStart" : 6909,
                          "mediaDuration" : 1560,
                          "scalar" : 1,
                          "metadata" : {
                            "AutoAppliedSmartFocus" : "False",
                            "WinSubProjectDisplayName" : "",
                            "clipSpeedAttribute" : false
                          },
                          "animationTracks" : {

                          }
                        }
                    ],
                    "effects" : [

                    ],
                    "start" : 7580,
                    "duration" : 768,
                    "mediaStart" : 6199,
                    "mediaDuration" : 768,
                    "scalar" : 1,
                    "metadata" : {
                      "AutoAppliedSmartFocus" : "False",
                      "WinSubProjectDisplayName" : "",
                      "clipSpeedAttribute" : false
                    },
                    "animationTracks" : {

                    }
                  },
                  {
                    "id" : 259,
                    "_type" : "StitchedMedia",
                    "minMediaStart" : 0,
                    "attributes" : {
                      "ident" : "tower-arch-04",
                      "gain" : 1.0,
                      "mixToMono" : false
                    },
                    "parameters" : {
                      "cursorOpacity" : 1.0,
                      "cursorScale" : 1.0
                    },
                    "medias" : [
                        {
                          "id" : 260,
                          "_type" : "ScreenVMFile",
                          "src" : 5,
                          "trackNumber" : 0,
                          "attributes" : {
                            "ident" : "Rec 02-03-20_005"
                          },
                          "parameters" : {
                            "cursorScale" : {
                              "type" : "double",
                              "defaultValue" : 0.0,
                              "interp" : "linr"
                            },
                            "cursorOpacity" : {
                              "type" : "double",
                              "defaultValue" : 0.0,
                              "interp" : "linr"
                            }
                          },
                          "effects" : [

                          ],
                          "start" : 0,
                          "duration" : 455,
                          "mediaStart" : 0,
                          "mediaDuration" : 455,
                          "scalar" : 1,
                          "metadata" : {
                            "AutoAppliedSmartFocus" : "False",
                            "WinSubProjectDisplayName" : "",
                            "clipSpeedAttribute" : false
                          },
                          "animationTracks" : {

                          }
                        },
                        {
                          "id" : 261,
                          "_type" : "ScreenVMFile",
                          "src" : 5,
                          "trackNumber" : 0,
                          "attributes" : {
                            "ident" : "Rec 02-03-20_005"
                          },
                          "parameters" : {
                            "cursorScale" : {
                              "type" : "double",
                              "defaultValue" : 0.0,
                              "interp" : "linr"
                            },
                            "cursorOpacity" : {
                              "type" : "double",
                              "defaultValue" : 0.0,
                              "interp" : "linr"
                            }
                          },
                          "effects" : [

                          ],
                          "start" : 455,
                          "duration" : 26,
                          "mediaStart" : 465,
                          "mediaDuration" : 26,
                          "scalar" : 1,
                          "metadata" : {
                            "AutoAppliedSmartFocus" : "False",
                            "WinSubProjectDisplayName" : "",
                            "clipSpeedAttribute" : false
                          },
                          "animationTracks" : {

                          }
                        },
                        {
                          "id" : 262,
                          "_type" : "ScreenVMFile",
                          "src" : 5,
                          "trackNumber" : 0,
                          "attributes" : {
                            "ident" : "Rec 02-03-20_005"
                          },
                          "parameters" : {
                            "cursorScale" : {
                              "type" : "double",
                              "defaultValue" : 0.0,
                              "interp" : "linr"
                            },
                            "cursorOpacity" : {
                              "type" : "double",
                              "defaultValue" : 0.0,
                              "interp" : "linr"
                            }
                          },
                          "effects" : [

                          ],
                          "start" : 481,
                          "duration" : 113,
                          "mediaStart" : 505,
                          "mediaDuration" : 113,
                          "scalar" : 1,
                          "metadata" : {
                            "AutoAppliedSmartFocus" : "False",
                            "WinSubProjectDisplayName" : "",
                            "clipSpeedAttribute" : false
                          },
                          "animationTracks" : {

                          }
                        },
                        {
                          "id" : 263,
                          "_type" : "ScreenVMFile",
                          "src" : 5,
                          "trackNumber" : 0,
                          "attributes" : {
                            "ident" : "Rec 02-03-20_005"
                          },
                          "parameters" : {
                            "cursorScale" : {
                              "type" : "double",
                              "defaultValue" : 0.0,
                              "interp" : "linr"
                            },
                            "cursorOpacity" : {
                              "type" : "double",
                              "defaultValue" : 0.0,
                              "interp" : "linr"
                            }
                          },
                          "effects" : [

                          ],
                          "start" : 594,
                          "duration" : 583,
                          "mediaStart" : 738,
                          "mediaDuration" : 583,
                          "scalar" : 1,
                          "metadata" : {
                            "AutoAppliedSmartFocus" : "False",
                            "WinSubProjectDisplayName" : "",
                            "clipSpeedAttribute" : false
                          },
                          "animationTracks" : {

                          }
                        },
                        {
                          "id" : 264,
                          "_type" : "ScreenVMFile",
                          "src" : 5,
                          "trackNumber" : 0,
                          "attributes" : {
                            "ident" : "Rec 02-03-20_005"
                          },
                          "parameters" : {
                            "cursorScale" : {
                              "type" : "double",
                              "defaultValue" : 0.0,
                              "interp" : "linr"
                            },
                            "cursorOpacity" : {
                              "type" : "double",
                              "defaultValue" : 0.0,
                              "interp" : "linr"
                            }
                          },
                          "effects" : [

                          ],
                          "start" : 1177,
                          "duration" : 451,
                          "mediaStart" : 1464,
                          "mediaDuration" : 451,
                          "scalar" : 1,
                          "metadata" : {
                            "AutoAppliedSmartFocus" : "False",
                            "WinSubProjectDisplayName" : "",
                            "clipSpeedAttribute" : false
                          },
                          "animationTracks" : {

                          }
                        },
                        {
                          "id" : 265,
                          "_type" : "ScreenVMFile",
                          "src" : 5,
                          "trackNumber" : 0,
                          "attributes" : {
                            "ident" : "Rec 02-03-20_005"
                          },
                          "parameters" : {
                            "cursorScale" : {
                              "type" : "double",
                              "defaultValue" : 0.0,
                              "interp" : "linr"
                            },
                            "cursorOpacity" : {
                              "type" : "double",
                              "defaultValue" : 0.0,
                              "interp" : "linr"
                            }
                          },
                          "effects" : [

                          ],
                          "start" : 1628,
                          "duration" : 6893,
                          "mediaStart" : 1947,
                          "mediaDuration" : 6893,
                          "scalar" : 1,
                          "metadata" : {
                            "AutoAppliedSmartFocus" : "False",
                            "WinSubProjectDisplayName" : "",
                            "clipSpeedAttribute" : false
                          },
                          "animationTracks" : {

                          }
                        }
                    ],
                    "effects" : [

                    ],
                    "start" : 8348,
                    "duration" : 1831,
                    "mediaStart" : 0,
                    "mediaDuration" : 1831,
                    "scalar" : 1,
                    "metadata" : {
                      "AutoAppliedSmartFocus" : "False",
                      "WinSubProjectDisplayName" : "",
                      "clipSpeedAttribute" : false
                    },
                    "animationTracks" : {

                    }
                  },
                  {
                    "id" : 266,
                    "_type" : "StitchedMedia",
                    "minMediaStart" : 0,
                    "attributes" : {
                      "ident" : "tower-arch-04",
                      "gain" : 1.0,
                      "mixToMono" : false
                    },
                    "parameters" : {
                      "cursorOpacity" : 1.0,
                      "cursorScale" : 1.0
                    },
                    "medias" : [
                        {
                          "id" : 267,
                          "_type" : "ScreenVMFile",
                          "src" : 5,
                          "trackNumber" : 0,
                          "attributes" : {
                            "ident" : "Rec 02-03-20_005"
                          },
                          "parameters" : {
                            "cursorScale" : {
                              "type" : "double",
                              "defaultValue" : 0.0,
                              "interp" : "linr"
                            },
                            "cursorOpacity" : {
                              "type" : "double",
                              "defaultValue" : 0.0,
                              "interp" : "linr"
                            }
                          },
                          "effects" : [

                          ],
                          "start" : 0,
                          "duration" : 455,
                          "mediaStart" : 0,
                          "mediaDuration" : 455,
                          "scalar" : 1,
                          "metadata" : {
                            "AutoAppliedSmartFocus" : "False",
                            "WinSubProjectDisplayName" : "",
                            "clipSpeedAttribute" : false
                          },
                          "animationTracks" : {

                          }
                        },
                        {
                          "id" : 268,
                          "_type" : "ScreenVMFile",
                          "src" : 5,
                          "trackNumber" : 0,
                          "attributes" : {
                            "ident" : "Rec 02-03-20_005"
                          },
                          "parameters" : {
                            "cursorScale" : {
                              "type" : "double",
                              "defaultValue" : 0.0,
                              "interp" : "linr"
                            },
                            "cursorOpacity" : {
                              "type" : "double",
                              "defaultValue" : 0.0,
                              "interp" : "linr"
                            }
                          },
                          "effects" : [

                          ],
                          "start" : 455,
                          "duration" : 26,
                          "mediaStart" : 465,
                          "mediaDuration" : 26,
                          "scalar" : 1,
                          "metadata" : {
                            "AutoAppliedSmartFocus" : "False",
                            "WinSubProjectDisplayName" : "",
                            "clipSpeedAttribute" : false
                          },
                          "animationTracks" : {

                          }
                        },
                        {
                          "id" : 269,
                          "_type" : "ScreenVMFile",
                          "src" : 5,
                          "trackNumber" : 0,
                          "attributes" : {
                            "ident" : "Rec 02-03-20_005"
                          },
                          "parameters" : {
                            "cursorScale" : {
                              "type" : "double",
                              "defaultValue" : 0.0,
                              "interp" : "linr"
                            },
                            "cursorOpacity" : {
                              "type" : "double",
                              "defaultValue" : 0.0,
                              "interp" : "linr"
                            }
                          },
                          "effects" : [

                          ],
                          "start" : 481,
                          "duration" : 113,
                          "mediaStart" : 505,
                          "mediaDuration" : 113,
                          "scalar" : 1,
                          "metadata" : {
                            "AutoAppliedSmartFocus" : "False",
                            "WinSubProjectDisplayName" : "",
                            "clipSpeedAttribute" : false
                          },
                          "animationTracks" : {

                          }
                        },
                        {
                          "id" : 270,
                          "_type" : "ScreenVMFile",
                          "src" : 5,
                          "trackNumber" : 0,
                          "attributes" : {
                            "ident" : "Rec 02-03-20_005"
                          },
                          "parameters" : {
                            "cursorScale" : {
                              "type" : "double",
                              "defaultValue" : 0.0,
                              "interp" : "linr"
                            },
                            "cursorOpacity" : {
                              "type" : "double",
                              "defaultValue" : 0.0,
                              "interp" : "linr"
                            }
                          },
                          "effects" : [

                          ],
                          "start" : 594,
                          "duration" : 1177,
                          "mediaStart" : 738,
                          "mediaDuration" : 1177,
                          "scalar" : 1,
                          "metadata" : {
                            "AutoAppliedSmartFocus" : "False",
                            "WinSubProjectDisplayName" : "",
                            "clipSpeedAttribute" : false
                          },
                          "animationTracks" : {

                          }
                        },
                        {
                          "id" : 271,
                          "_type" : "ScreenVMFile",
                          "src" : 5,
                          "trackNumber" : 0,
                          "attributes" : {
                            "ident" : "Rec 02-03-20_005"
                          },
                          "parameters" : {
                            "cursorScale" : {
                              "type" : "double",
                              "defaultValue" : 0.0,
                              "interp" : "linr"
                            },
                            "cursorOpacity" : {
                              "type" : "double",
                              "defaultValue" : 0.0,
                              "interp" : "linr"
                            }
                          },
                          "effects" : [

                          ],
                          "start" : 1771,
                          "duration" : 882,
                          "mediaStart" : 1947,
                          "mediaDuration" : 882,
                          "scalar" : 1,
                          "metadata" : {
                            "AutoAppliedSmartFocus" : "False",
                            "WinSubProjectDisplayName" : "",
                            "clipSpeedAttribute" : false
                          },
                          "animationTracks" : {

                          }
                        },
                        {
                          "id" : 272,
                          "_type" : "ScreenVMFile",
                          "src" : 5,
                          "trackNumber" : 0,
                          "attributes" : {
                            "ident" : "Rec 02-03-20_005"
                          },
                          "parameters" : {
                            "cursorScale" : {
                              "type" : "double",
                              "defaultValue" : 0.0,
                              "interp" : "linr"
                            },
                            "cursorOpacity" : {
                              "type" : "double",
                              "defaultValue" : 0.0,
                              "interp" : "linr"
                            }
                          },
                          "effects" : [

                          ],
                          "start" : 2653,
                          "duration" : 331,
                          "mediaStart" : 2849,
                          "mediaDuration" : 331,
                          "scalar" : 1,
                          "metadata" : {
                            "AutoAppliedSmartFocus" : "False",
                            "WinSubProjectDisplayName" : "",
                            "clipSpeedAttribute" : false
                          },
                          "animationTracks" : {

                          }
                        },
                        {
                          "id" : 273,
                          "_type" : "ScreenVMFile",
                          "src" : 5,
                          "trackNumber" : 0,
                          "attributes" : {
                            "ident" : "Rec 02-03-20_005"
                          },
                          "parameters" : {
                            "cursorScale" : {
                              "type" : "double",
                              "defaultValue" : 0.0,
                              "interp" : "linr"
                            },
                            "cursorOpacity" : {
                              "type" : "double",
                              "defaultValue" : 0.0,
                              "interp" : "linr"
                            }
                          },
                          "effects" : [

                          ],
                          "start" : 2984,
                          "duration" : 91,
                          "mediaStart" : 3238,
                          "mediaDuration" : 91,
                          "scalar" : 1,
                          "metadata" : {
                            "AutoAppliedSmartFocus" : "False",
                            "WinSubProjectDisplayName" : "",
                            "clipSpeedAttribute" : false
                          },
                          "animationTracks" : {

                          }
                        },
                        {
                          "id" : 274,
                          "_type" : "ScreenVMFile",
                          "src" : 5,
                          "trackNumber" : 0,
                          "attributes" : {
                            "ident" : "Rec 02-03-20_005"
                          },
                          "parameters" : {
                            "cursorScale" : {
                              "type" : "double",
                              "defaultValue" : 0.0,
                              "interp" : "linr"
                            },
                            "cursorOpacity" : {
                              "type" : "double",
                              "defaultValue" : 0.0,
                              "interp" : "linr"
                            }
                          },
                          "effects" : [

                          ],
                          "start" : 3075,
                          "duration" : 193,
                          "mediaStart" : 3415,
                          "mediaDuration" : 193,
                          "scalar" : 1,
                          "metadata" : {
                            "AutoAppliedSmartFocus" : "False",
                            "WinSubProjectDisplayName" : "",
                            "clipSpeedAttribute" : false
                          },
                          "animationTracks" : {

                          }
                        },
                        {
                          "id" : 275,
                          "_type" : "ScreenVMFile",
                          "src" : 5,
                          "trackNumber" : 0,
                          "attributes" : {
                            "ident" : "Rec 02-03-20_005"
                          },
                          "parameters" : {
                            "cursorScale" : {
                              "type" : "double",
                              "defaultValue" : 0.0,
                              "interp" : "linr"
                            },
                            "cursorOpacity" : {
                              "type" : "double",
                              "defaultValue" : 0.0,
                              "interp" : "linr"
                            }
                          },
                          "effects" : [

                          ],
                          "start" : 3268,
                          "duration" : 71,
                          "mediaStart" : 3770,
                          "mediaDuration" : 71,
                          "scalar" : 1,
                          "metadata" : {
                            "AutoAppliedSmartFocus" : "False",
                            "WinSubProjectDisplayName" : "",
                            "clipSpeedAttribute" : false
                          },
                          "animationTracks" : {

                          }
                        },
                        {
                          "id" : 276,
                          "_type" : "ScreenVMFile",
                          "src" : 5,
                          "trackNumber" : 0,
                          "attributes" : {
                            "ident" : "Rec 02-03-20_005"
                          },
                          "parameters" : {
                            "cursorScale" : {
                              "type" : "double",
                              "defaultValue" : 0.0,
                              "interp" : "linr"
                            },
                            "cursorOpacity" : {
                              "type" : "double",
                              "defaultValue" : 0.0,
                              "interp" : "linr"
                            }
                          },
                          "effects" : [

                          ],
                          "start" : 3339,
                          "duration" : 516,
                          "mediaStart" : 3867,
                          "mediaDuration" : 516,
                          "scalar" : 1,
                          "metadata" : {
                            "AutoAppliedSmartFocus" : "False",
                            "WinSubProjectDisplayName" : "",
                            "clipSpeedAttribute" : false
                          },
                          "animationTracks" : {

                          }
                        },
                        {
                          "id" : 277,
                          "_type" : "ScreenVMFile",
                          "src" : 5,
                          "trackNumber" : 0,
                          "attributes" : {
                            "ident" : "Rec 02-03-20_005"
                          },
                          "parameters" : {
                            "cursorScale" : {
                              "type" : "double",
                              "defaultValue" : 0.0,
                              "interp" : "linr"
                            },
                            "cursorOpacity" : {
                              "type" : "double",
                              "defaultValue" : 0.0,
                              "interp" : "linr"
                            }
                          },
                          "effects" : [

                          ],
                          "start" : 3855,
                          "duration" : 133,
                          "mediaStart" : 4421,
                          "mediaDuration" : 133,
                          "scalar" : 1,
                          "metadata" : {
                            "AutoAppliedSmartFocus" : "False",
                            "WinSubProjectDisplayName" : "",
                            "clipSpeedAttribute" : false
                          },
                          "animationTracks" : {

                          }
                        },
                        {
                          "id" : 278,
                          "_type" : "ScreenVMFile",
                          "src" : 5,
                          "trackNumber" : 0,
                          "attributes" : {
                            "ident" : "Rec 02-03-20_005"
                          },
                          "parameters" : {
                            "cursorScale" : {
                              "type" : "double",
                              "defaultValue" : 0.0,
                              "interp" : "linr"
                            },
                            "cursorOpacity" : {
                              "type" : "double",
                              "defaultValue" : 0.0,
                              "interp" : "linr"
                            }
                          },
                          "effects" : [

                          ],
                          "start" : 3988,
                          "duration" : 4248,
                          "mediaStart" : 4592,
                          "mediaDuration" : 4248,
                          "scalar" : 1,
                          "metadata" : {
                            "AutoAppliedSmartFocus" : "False",
                            "WinSubProjectDisplayName" : "",
                            "clipSpeedAttribute" : false
                          },
                          "animationTracks" : {

                          }
                        }
                    ],
                    "effects" : [

                    ],
                    "start" : 10179,
                    "duration" : 1859,
                    "mediaStart" : 2452,
                    "mediaDuration" : 1859,
                    "scalar" : 1,
                    "metadata" : {
                      "AutoAppliedSmartFocus" : "False",
                      "WinSubProjectDisplayName" : "",
                      "clipSpeedAttribute" : false
                    },
                    "animationTracks" : {

                    }
                  },
                  {
                    "id" : 279,
                    "_type" : "StitchedMedia",
                    "minMediaStart" : 0,
                    "attributes" : {
                      "ident" : "tower-arch-04",
                      "gain" : 1.0,
                      "mixToMono" : false
                    },
                    "parameters" : {
                      "cursorOpacity" : 1.0,
                      "cursorScale" : 1.0
                    },
                    "medias" : [
                        {
                          "id" : 280,
                          "_type" : "ScreenVMFile",
                          "src" : 5,
                          "trackNumber" : 0,
                          "attributes" : {
                            "ident" : "Rec 02-03-20_005"
                          },
                          "parameters" : {
                            "cursorScale" : {
                              "type" : "double",
                              "defaultValue" : 0.0,
                              "interp" : "linr"
                            },
                            "cursorOpacity" : {
                              "type" : "double",
                              "defaultValue" : 0.0,
                              "interp" : "linr"
                            }
                          },
                          "effects" : [

                          ],
                          "start" : 0,
                          "duration" : 455,
                          "mediaStart" : 0,
                          "mediaDuration" : 455,
                          "scalar" : 1,
                          "metadata" : {
                            "AutoAppliedSmartFocus" : "False",
                            "WinSubProjectDisplayName" : "",
                            "clipSpeedAttribute" : false
                          },
                          "animationTracks" : {

                          }
                        },
                        {
                          "id" : 281,
                          "_type" : "ScreenVMFile",
                          "src" : 5,
                          "trackNumber" : 0,
                          "attributes" : {
                            "ident" : "Rec 02-03-20_005"
                          },
                          "parameters" : {
                            "cursorScale" : {
                              "type" : "double",
                              "defaultValue" : 0.0,
                              "interp" : "linr"
                            },
                            "cursorOpacity" : {
                              "type" : "double",
                              "defaultValue" : 0.0,
                              "interp" : "linr"
                            }
                          },
                          "effects" : [

                          ],
                          "start" : 455,
                          "duration" : 26,
                          "mediaStart" : 465,
                          "mediaDuration" : 26,
                          "scalar" : 1,
                          "metadata" : {
                            "AutoAppliedSmartFocus" : "False",
                            "WinSubProjectDisplayName" : "",
                            "clipSpeedAttribute" : false
                          },
                          "animationTracks" : {

                          }
                        },
                        {
                          "id" : 282,
                          "_type" : "ScreenVMFile",
                          "src" : 5,
                          "trackNumber" : 0,
                          "attributes" : {
                            "ident" : "Rec 02-03-20_005"
                          },
                          "parameters" : {
                            "cursorScale" : {
                              "type" : "double",
                              "defaultValue" : 0.0,
                              "interp" : "linr"
                            },
                            "cursorOpacity" : {
                              "type" : "double",
                              "defaultValue" : 0.0,
                              "interp" : "linr"
                            }
                          },
                          "effects" : [

                          ],
                          "start" : 481,
                          "duration" : 113,
                          "mediaStart" : 505,
                          "mediaDuration" : 113,
                          "scalar" : 1,
                          "metadata" : {
                            "AutoAppliedSmartFocus" : "False",
                            "WinSubProjectDisplayName" : "",
                            "clipSpeedAttribute" : false
                          },
                          "animationTracks" : {

                          }
                        },
                        {
                          "id" : 283,
                          "_type" : "ScreenVMFile",
                          "src" : 5,
                          "trackNumber" : 0,
                          "attributes" : {
                            "ident" : "Rec 02-03-20_005"
                          },
                          "parameters" : {
                            "cursorScale" : {
                              "type" : "double",
                              "defaultValue" : 0.0,
                              "interp" : "linr"
                            },
                            "cursorOpacity" : {
                              "type" : "double",
                              "defaultValue" : 0.0,
                              "interp" : "linr"
                            }
                          },
                          "effects" : [

                          ],
                          "start" : 594,
                          "duration" : 1177,
                          "mediaStart" : 738,
                          "mediaDuration" : 1177,
                          "scalar" : 1,
                          "metadata" : {
                            "AutoAppliedSmartFocus" : "False",
                            "WinSubProjectDisplayName" : "",
                            "clipSpeedAttribute" : false
                          },
                          "animationTracks" : {

                          }
                        },
                        {
                          "id" : 284,
                          "_type" : "ScreenVMFile",
                          "src" : 5,
                          "trackNumber" : 0,
                          "attributes" : {
                            "ident" : "Rec 02-03-20_005"
                          },
                          "parameters" : {
                            "cursorScale" : {
                              "type" : "double",
                              "defaultValue" : 0.0,
                              "interp" : "linr"
                            },
                            "cursorOpacity" : {
                              "type" : "double",
                              "defaultValue" : 0.0,
                              "interp" : "linr"
                            }
                          },
                          "effects" : [

                          ],
                          "start" : 1771,
                          "duration" : 882,
                          "mediaStart" : 1947,
                          "mediaDuration" : 882,
                          "scalar" : 1,
                          "metadata" : {
                            "AutoAppliedSmartFocus" : "False",
                            "WinSubProjectDisplayName" : "",
                            "clipSpeedAttribute" : false
                          },
                          "animationTracks" : {

                          }
                        },
                        {
                          "id" : 285,
                          "_type" : "ScreenVMFile",
                          "src" : 5,
                          "trackNumber" : 0,
                          "attributes" : {
                            "ident" : "Rec 02-03-20_005"
                          },
                          "parameters" : {
                            "cursorScale" : {
                              "type" : "double",
                              "defaultValue" : 0.0,
                              "interp" : "linr"
                            },
                            "cursorOpacity" : {
                              "type" : "double",
                              "defaultValue" : 0.0,
                              "interp" : "linr"
                            }
                          },
                          "effects" : [

                          ],
                          "start" : 2653,
                          "duration" : 331,
                          "mediaStart" : 2849,
                          "mediaDuration" : 331,
                          "scalar" : 1,
                          "metadata" : {
                            "AutoAppliedSmartFocus" : "False",
                            "WinSubProjectDisplayName" : "",
                            "clipSpeedAttribute" : false
                          },
                          "animationTracks" : {

                          }
                        },
                        {
                          "id" : 286,
                          "_type" : "ScreenVMFile",
                          "src" : 5,
                          "trackNumber" : 0,
                          "attributes" : {
                            "ident" : "Rec 02-03-20_005"
                          },
                          "parameters" : {
                            "cursorScale" : {
                              "type" : "double",
                              "defaultValue" : 0.0,
                              "interp" : "linr"
                            },
                            "cursorOpacity" : {
                              "type" : "double",
                              "defaultValue" : 0.0,
                              "interp" : "linr"
                            }
                          },
                          "effects" : [

                          ],
                          "start" : 2984,
                          "duration" : 91,
                          "mediaStart" : 3238,
                          "mediaDuration" : 91,
                          "scalar" : 1,
                          "metadata" : {
                            "AutoAppliedSmartFocus" : "False",
                            "WinSubProjectDisplayName" : "",
                            "clipSpeedAttribute" : false
                          },
                          "animationTracks" : {

                          }
                        },
                        {
                          "id" : 287,
                          "_type" : "ScreenVMFile",
                          "src" : 5,
                          "trackNumber" : 0,
                          "attributes" : {
                            "ident" : "Rec 02-03-20_005"
                          },
                          "parameters" : {
                            "cursorScale" : {
                              "type" : "double",
                              "defaultValue" : 0.0,
                              "interp" : "linr"
                            },
                            "cursorOpacity" : {
                              "type" : "double",
                              "defaultValue" : 0.0,
                              "interp" : "linr"
                            }
                          },
                          "effects" : [

                          ],
                          "start" : 3075,
                          "duration" : 193,
                          "mediaStart" : 3415,
                          "mediaDuration" : 193,
                          "scalar" : 1,
                          "metadata" : {
                            "AutoAppliedSmartFocus" : "False",
                            "WinSubProjectDisplayName" : "",
                            "clipSpeedAttribute" : false
                          },
                          "animationTracks" : {

                          }
                        },
                        {
                          "id" : 288,
                          "_type" : "ScreenVMFile",
                          "src" : 5,
                          "trackNumber" : 0,
                          "attributes" : {
                            "ident" : "Rec 02-03-20_005"
                          },
                          "parameters" : {
                            "cursorScale" : {
                              "type" : "double",
                              "defaultValue" : 0.0,
                              "interp" : "linr"
                            },
                            "cursorOpacity" : {
                              "type" : "double",
                              "defaultValue" : 0.0,
                              "interp" : "linr"
                            }
                          },
                          "effects" : [

                          ],
                          "start" : 3268,
                          "duration" : 71,
                          "mediaStart" : 3770,
                          "mediaDuration" : 71,
                          "scalar" : 1,
                          "metadata" : {
                            "AutoAppliedSmartFocus" : "False",
                            "WinSubProjectDisplayName" : "",
                            "clipSpeedAttribute" : false
                          },
                          "animationTracks" : {

                          }
                        },
                        {
                          "id" : 289,
                          "_type" : "ScreenVMFile",
                          "src" : 5,
                          "trackNumber" : 0,
                          "attributes" : {
                            "ident" : "Rec 02-03-20_005"
                          },
                          "parameters" : {
                            "cursorScale" : {
                              "type" : "double",
                              "defaultValue" : 0.0,
                              "interp" : "linr"
                            },
                            "cursorOpacity" : {
                              "type" : "double",
                              "defaultValue" : 0.0,
                              "interp" : "linr"
                            }
                          },
                          "effects" : [

                          ],
                          "start" : 3339,
                          "duration" : 516,
                          "mediaStart" : 3867,
                          "mediaDuration" : 516,
                          "scalar" : 1,
                          "metadata" : {
                            "AutoAppliedSmartFocus" : "False",
                            "WinSubProjectDisplayName" : "",
                            "clipSpeedAttribute" : false
                          },
                          "animationTracks" : {

                          }
                        },
                        {
                          "id" : 290,
                          "_type" : "ScreenVMFile",
                          "src" : 5,
                          "trackNumber" : 0,
                          "attributes" : {
                            "ident" : "Rec 02-03-20_005"
                          },
                          "parameters" : {
                            "cursorScale" : {
                              "type" : "double",
                              "defaultValue" : 0.0,
                              "interp" : "linr"
                            },
                            "cursorOpacity" : {
                              "type" : "double",
                              "defaultValue" : 0.0,
                              "interp" : "linr"
                            }
                          },
                          "effects" : [

                          ],
                          "start" : 3855,
                          "duration" : 133,
                          "mediaStart" : 4421,
                          "mediaDuration" : 133,
                          "scalar" : 1,
                          "metadata" : {
                            "AutoAppliedSmartFocus" : "False",
                            "WinSubProjectDisplayName" : "",
                            "clipSpeedAttribute" : false
                          },
                          "animationTracks" : {

                          }
                        },
                        {
                          "id" : 291,
                          "_type" : "ScreenVMFile",
                          "src" : 5,
                          "trackNumber" : 0,
                          "attributes" : {
                            "ident" : "Rec 02-03-20_005"
                          },
                          "parameters" : {
                            "cursorScale" : {
                              "type" : "double",
                              "defaultValue" : 0.0,
                              "interp" : "linr"
                            },
                            "cursorOpacity" : {
                              "type" : "double",
                              "defaultValue" : 0.0,
                              "interp" : "linr"
                            }
                          },
                          "effects" : [

                          ],
                          "start" : 3988,
                          "duration" : 615,
                          "mediaStart" : 4592,
                          "mediaDuration" : 615,
                          "scalar" : 1,
                          "metadata" : {
                            "AutoAppliedSmartFocus" : "False",
                            "WinSubProjectDisplayName" : "",
                            "clipSpeedAttribute" : false
                          },
                          "animationTracks" : {

                          }
                        },
                        {
                          "id" : 292,
                          "_type" : "ScreenVMFile",
                          "src" : 5,
                          "trackNumber" : 0,
                          "attributes" : {
                            "ident" : "Rec 02-03-20_005"
                          },
                          "parameters" : {
                            "cursorScale" : {
                              "type" : "double",
                              "defaultValue" : 0.0,
                              "interp" : "linr"
                            },
                            "cursorOpacity" : {
                              "type" : "double",
                              "defaultValue" : 0.0,
                              "interp" : "linr"
                            }
                          },
                          "effects" : [

                          ],
                          "start" : 4603,
                          "duration" : 399,
                          "mediaStart" : 5339,
                          "mediaDuration" : 399,
                          "scalar" : 1,
                          "metadata" : {
                            "AutoAppliedSmartFocus" : "False",
                            "WinSubProjectDisplayName" : "",
                            "clipSpeedAttribute" : false
                          },
                          "animationTracks" : {

                          }
                        },
                        {
                          "id" : 293,
                          "_type" : "ScreenVMFile",
                          "src" : 5,
                          "trackNumber" : 0,
                          "attributes" : {
                            "ident" : "Rec 02-03-20_005"
                          },
                          "parameters" : {
                            "cursorScale" : {
                              "type" : "double",
                              "defaultValue" : 0.0,
                              "interp" : "linr"
                            },
                            "cursorOpacity" : {
                              "type" : "double",
                              "defaultValue" : 0.0,
                              "interp" : "linr"
                            }
                          },
                          "effects" : [

                          ],
                          "start" : 5002,
                          "duration" : 2894,
                          "mediaStart" : 5946,
                          "mediaDuration" : 2894,
                          "scalar" : 1,
                          "metadata" : {
                            "AutoAppliedSmartFocus" : "False",
                            "WinSubProjectDisplayName" : "",
                            "clipSpeedAttribute" : false
                          },
                          "animationTracks" : {

                          }
                        }
                    ],
                    "effects" : [

                    ],
                    "start" : 12038,
                    "duration" : 460,
                    "mediaStart" : 4543,
                    "mediaDuration" : 460,
                    "scalar" : 1,
                    "metadata" : {
                      "AutoAppliedSmartFocus" : "False",
                      "WinSubProjectDisplayName" : "",
                      "clipSpeedAttribute" : false
                    },
                    "animationTracks" : {

                    }
                  },
                  {
                    "id" : 294,
                    "_type" : "StitchedMedia",
                    "minMediaStart" : 0,
                    "attributes" : {
                      "ident" : "tower-arch-04",
                      "gain" : 1.0,
                      "mixToMono" : false
                    },
                    "parameters" : {
                      "cursorOpacity" : 1.0,
                      "cursorScale" : 1.0
                    },
                    "medias" : [
                        {
                          "id" : 295,
                          "_type" : "ScreenVMFile",
                          "src" : 5,
                          "trackNumber" : 0,
                          "attributes" : {
                            "ident" : "Rec 02-03-20_005"
                          },
                          "parameters" : {
                            "cursorScale" : {
                              "type" : "double",
                              "defaultValue" : 0.0,
                              "interp" : "linr"
                            },
                            "cursorOpacity" : {
                              "type" : "double",
                              "defaultValue" : 0.0,
                              "interp" : "linr"
                            }
                          },
                          "effects" : [

                          ],
                          "start" : 0,
                          "duration" : 455,
                          "mediaStart" : 0,
                          "mediaDuration" : 455,
                          "scalar" : 1,
                          "metadata" : {
                            "AutoAppliedSmartFocus" : "False",
                            "WinSubProjectDisplayName" : "",
                            "clipSpeedAttribute" : false
                          },
                          "animationTracks" : {

                          }
                        },
                        {
                          "id" : 296,
                          "_type" : "ScreenVMFile",
                          "src" : 5,
                          "trackNumber" : 0,
                          "attributes" : {
                            "ident" : "Rec 02-03-20_005"
                          },
                          "parameters" : {
                            "cursorScale" : {
                              "type" : "double",
                              "defaultValue" : 0.0,
                              "interp" : "linr"
                            },
                            "cursorOpacity" : {
                              "type" : "double",
                              "defaultValue" : 0.0,
                              "interp" : "linr"
                            }
                          },
                          "effects" : [

                          ],
                          "start" : 455,
                          "duration" : 26,
                          "mediaStart" : 465,
                          "mediaDuration" : 26,
                          "scalar" : 1,
                          "metadata" : {
                            "AutoAppliedSmartFocus" : "False",
                            "WinSubProjectDisplayName" : "",
                            "clipSpeedAttribute" : false
                          },
                          "animationTracks" : {

                          }
                        },
                        {
                          "id" : 297,
                          "_type" : "ScreenVMFile",
                          "src" : 5,
                          "trackNumber" : 0,
                          "attributes" : {
                            "ident" : "Rec 02-03-20_005"
                          },
                          "parameters" : {
                            "cursorScale" : {
                              "type" : "double",
                              "defaultValue" : 0.0,
                              "interp" : "linr"
                            },
                            "cursorOpacity" : {
                              "type" : "double",
                              "defaultValue" : 0.0,
                              "interp" : "linr"
                            }
                          },
                          "effects" : [

                          ],
                          "start" : 481,
                          "duration" : 113,
                          "mediaStart" : 505,
                          "mediaDuration" : 113,
                          "scalar" : 1,
                          "metadata" : {
                            "AutoAppliedSmartFocus" : "False",
                            "WinSubProjectDisplayName" : "",
                            "clipSpeedAttribute" : false
                          },
                          "animationTracks" : {

                          }
                        },
                        {
                          "id" : 298,
                          "_type" : "ScreenVMFile",
                          "src" : 5,
                          "trackNumber" : 0,
                          "attributes" : {
                            "ident" : "Rec 02-03-20_005"
                          },
                          "parameters" : {
                            "cursorScale" : {
                              "type" : "double",
                              "defaultValue" : 0.0,
                              "interp" : "linr"
                            },
                            "cursorOpacity" : {
                              "type" : "double",
                              "defaultValue" : 0.0,
                              "interp" : "linr"
                            }
                          },
                          "effects" : [

                          ],
                          "start" : 594,
                          "duration" : 1177,
                          "mediaStart" : 738,
                          "mediaDuration" : 1177,
                          "scalar" : 1,
                          "metadata" : {
                            "AutoAppliedSmartFocus" : "False",
                            "WinSubProjectDisplayName" : "",
                            "clipSpeedAttribute" : false
                          },
                          "animationTracks" : {

                          }
                        },
                        {
                          "id" : 299,
                          "_type" : "ScreenVMFile",
                          "src" : 5,
                          "trackNumber" : 0,
                          "attributes" : {
                            "ident" : "Rec 02-03-20_005"
                          },
                          "parameters" : {
                            "cursorScale" : {
                              "type" : "double",
                              "defaultValue" : 0.0,
                              "interp" : "linr"
                            },
                            "cursorOpacity" : {
                              "type" : "double",
                              "defaultValue" : 0.0,
                              "interp" : "linr"
                            }
                          },
                          "effects" : [

                          ],
                          "start" : 1771,
                          "duration" : 882,
                          "mediaStart" : 1947,
                          "mediaDuration" : 882,
                          "scalar" : 1,
                          "metadata" : {
                            "AutoAppliedSmartFocus" : "False",
                            "WinSubProjectDisplayName" : "",
                            "clipSpeedAttribute" : false
                          },
                          "animationTracks" : {

                          }
                        },
                        {
                          "id" : 300,
                          "_type" : "ScreenVMFile",
                          "src" : 5,
                          "trackNumber" : 0,
                          "attributes" : {
                            "ident" : "Rec 02-03-20_005"
                          },
                          "parameters" : {
                            "cursorScale" : {
                              "type" : "double",
                              "defaultValue" : 0.0,
                              "interp" : "linr"
                            },
                            "cursorOpacity" : {
                              "type" : "double",
                              "defaultValue" : 0.0,
                              "interp" : "linr"
                            }
                          },
                          "effects" : [

                          ],
                          "start" : 2653,
                          "duration" : 331,
                          "mediaStart" : 2849,
                          "mediaDuration" : 331,
                          "scalar" : 1,
                          "metadata" : {
                            "AutoAppliedSmartFocus" : "False",
                            "WinSubProjectDisplayName" : "",
                            "clipSpeedAttribute" : false
                          },
                          "animationTracks" : {

                          }
                        },
                        {
                          "id" : 301,
                          "_type" : "ScreenVMFile",
                          "src" : 5,
                          "trackNumber" : 0,
                          "attributes" : {
                            "ident" : "Rec 02-03-20_005"
                          },
                          "parameters" : {
                            "cursorScale" : {
                              "type" : "double",
                              "defaultValue" : 0.0,
                              "interp" : "linr"
                            },
                            "cursorOpacity" : {
                              "type" : "double",
                              "defaultValue" : 0.0,
                              "interp" : "linr"
                            }
                          },
                          "effects" : [

                          ],
                          "start" : 2984,
                          "duration" : 91,
                          "mediaStart" : 3238,
                          "mediaDuration" : 91,
                          "scalar" : 1,
                          "metadata" : {
                            "AutoAppliedSmartFocus" : "False",
                            "WinSubProjectDisplayName" : "",
                            "clipSpeedAttribute" : false
                          },
                          "animationTracks" : {

                          }
                        },
                        {
                          "id" : 302,
                          "_type" : "ScreenVMFile",
                          "src" : 5,
                          "trackNumber" : 0,
                          "attributes" : {
                            "ident" : "Rec 02-03-20_005"
                          },
                          "parameters" : {
                            "cursorScale" : {
                              "type" : "double",
                              "defaultValue" : 0.0,
                              "interp" : "linr"
                            },
                            "cursorOpacity" : {
                              "type" : "double",
                              "defaultValue" : 0.0,
                              "interp" : "linr"
                            }
                          },
                          "effects" : [

                          ],
                          "start" : 3075,
                          "duration" : 193,
                          "mediaStart" : 3415,
                          "mediaDuration" : 193,
                          "scalar" : 1,
                          "metadata" : {
                            "AutoAppliedSmartFocus" : "False",
                            "WinSubProjectDisplayName" : "",
                            "clipSpeedAttribute" : false
                          },
                          "animationTracks" : {

                          }
                        },
                        {
                          "id" : 303,
                          "_type" : "ScreenVMFile",
                          "src" : 5,
                          "trackNumber" : 0,
                          "attributes" : {
                            "ident" : "Rec 02-03-20_005"
                          },
                          "parameters" : {
                            "cursorScale" : {
                              "type" : "double",
                              "defaultValue" : 0.0,
                              "interp" : "linr"
                            },
                            "cursorOpacity" : {
                              "type" : "double",
                              "defaultValue" : 0.0,
                              "interp" : "linr"
                            }
                          },
                          "effects" : [

                          ],
                          "start" : 3268,
                          "duration" : 71,
                          "mediaStart" : 3770,
                          "mediaDuration" : 71,
                          "scalar" : 1,
                          "metadata" : {
                            "AutoAppliedSmartFocus" : "False",
                            "WinSubProjectDisplayName" : "",
                            "clipSpeedAttribute" : false
                          },
                          "animationTracks" : {

                          }
                        },
                        {
                          "id" : 304,
                          "_type" : "ScreenVMFile",
                          "src" : 5,
                          "trackNumber" : 0,
                          "attributes" : {
                            "ident" : "Rec 02-03-20_005"
                          },
                          "parameters" : {
                            "cursorScale" : {
                              "type" : "double",
                              "defaultValue" : 0.0,
                              "interp" : "linr"
                            },
                            "cursorOpacity" : {
                              "type" : "double",
                              "defaultValue" : 0.0,
                              "interp" : "linr"
                            }
                          },
                          "effects" : [

                          ],
                          "start" : 3339,
                          "duration" : 516,
                          "mediaStart" : 3867,
                          "mediaDuration" : 516,
                          "scalar" : 1,
                          "metadata" : {
                            "AutoAppliedSmartFocus" : "False",
                            "WinSubProjectDisplayName" : "",
                            "clipSpeedAttribute" : false
                          },
                          "animationTracks" : {

                          }
                        },
                        {
                          "id" : 305,
                          "_type" : "ScreenVMFile",
                          "src" : 5,
                          "trackNumber" : 0,
                          "attributes" : {
                            "ident" : "Rec 02-03-20_005"
                          },
                          "parameters" : {
                            "cursorScale" : {
                              "type" : "double",
                              "defaultValue" : 0.0,
                              "interp" : "linr"
                            },
                            "cursorOpacity" : {
                              "type" : "double",
                              "defaultValue" : 0.0,
                              "interp" : "linr"
                            }
                          },
                          "effects" : [

                          ],
                          "start" : 3855,
                          "duration" : 133,
                          "mediaStart" : 4421,
                          "mediaDuration" : 133,
                          "scalar" : 1,
                          "metadata" : {
                            "AutoAppliedSmartFocus" : "False",
                            "WinSubProjectDisplayName" : "",
                            "clipSpeedAttribute" : false
                          },
                          "animationTracks" : {

                          }
                        },
                        {
                          "id" : 306,
                          "_type" : "ScreenVMFile",
                          "src" : 5,
                          "trackNumber" : 0,
                          "attributes" : {
                            "ident" : "Rec 02-03-20_005"
                          },
                          "parameters" : {
                            "cursorScale" : {
                              "type" : "double",
                              "defaultValue" : 0.0,
                              "interp" : "linr"
                            },
                            "cursorOpacity" : {
                              "type" : "double",
                              "defaultValue" : 0.0,
                              "interp" : "linr"
                            }
                          },
                          "effects" : [

                          ],
                          "start" : 3988,
                          "duration" : 615,
                          "mediaStart" : 4592,
                          "mediaDuration" : 615,
                          "scalar" : 1,
                          "metadata" : {
                            "AutoAppliedSmartFocus" : "False",
                            "WinSubProjectDisplayName" : "",
                            "clipSpeedAttribute" : false
                          },
                          "animationTracks" : {

                          }
                        },
                        {
                          "id" : 307,
                          "_type" : "ScreenVMFile",
                          "src" : 5,
                          "trackNumber" : 0,
                          "attributes" : {
                            "ident" : "Rec 02-03-20_005"
                          },
                          "parameters" : {
                            "cursorScale" : {
                              "type" : "double",
                              "defaultValue" : 0.0,
                              "interp" : "linr"
                            },
                            "cursorOpacity" : {
                              "type" : "double",
                              "defaultValue" : 0.0,
                              "interp" : "linr"
                            }
                          },
                          "effects" : [

                          ],
                          "start" : 4603,
                          "duration" : 399,
                          "mediaStart" : 5339,
                          "mediaDuration" : 399,
                          "scalar" : 1,
                          "metadata" : {
                            "AutoAppliedSmartFocus" : "False",
                            "WinSubProjectDisplayName" : "",
                            "clipSpeedAttribute" : false
                          },
                          "animationTracks" : {

                          }
                        },
                        {
                          "id" : 308,
                          "_type" : "ScreenVMFile",
                          "src" : 5,
                          "trackNumber" : 0,
                          "attributes" : {
                            "ident" : "Rec 02-03-20_005"
                          },
                          "parameters" : {
                            "cursorScale" : {
                              "type" : "double",
                              "defaultValue" : 0.0,
                              "interp" : "linr"
                            },
                            "cursorOpacity" : {
                              "type" : "double",
                              "defaultValue" : 0.0,
                              "interp" : "linr"
                            }
                          },
                          "effects" : [

                          ],
                          "start" : 5002,
                          "duration" : 1875,
                          "mediaStart" : 5946,
                          "mediaDuration" : 1875,
                          "scalar" : 1,
                          "metadata" : {
                            "AutoAppliedSmartFocus" : "False",
                            "WinSubProjectDisplayName" : "",
                            "clipSpeedAttribute" : false
                          },
                          "animationTracks" : {

                          }
                        },
                        {
                          "id" : 309,
                          "_type" : "ScreenVMFile",
                          "src" : 5,
                          "trackNumber" : 0,
                          "attributes" : {
                            "ident" : "Rec 02-03-20_005"
                          },
                          "parameters" : {
                            "cursorScale" : {
                              "type" : "double",
                              "defaultValue" : 0.0,
                              "interp" : "linr"
                            },
                            "cursorOpacity" : {
                              "type" : "double",
                              "defaultValue" : 0.0,
                              "interp" : "linr"
                            }
                          },
                          "effects" : [

                          ],
                          "start" : 6877,
                          "duration" : 124,
                          "mediaStart" : 7849,
                          "mediaDuration" : 124,
                          "scalar" : 1,
                          "metadata" : {
                            "AutoAppliedSmartFocus" : "False",
                            "WinSubProjectDisplayName" : "",
                            "clipSpeedAttribute" : false
                          },
                          "animationTracks" : {

                          }
                        },
                        {
                          "id" : 310,
                          "_type" : "ScreenVMFile",
                          "src" : 5,
                          "trackNumber" : 0,
                          "attributes" : {
                            "ident" : "Rec 02-03-20_005"
                          },
                          "parameters" : {
                            "cursorScale" : {
                              "type" : "double",
                              "defaultValue" : 0.0,
                              "interp" : "linr"
                            },
                            "cursorOpacity" : {
                              "type" : "double",
                              "defaultValue" : 0.0,
                              "interp" : "linr"
                            }
                          },
                          "effects" : [

                          ],
                          "start" : 7001,
                          "duration" : 287,
                          "mediaStart" : 7981,
                          "mediaDuration" : 287,
                          "scalar" : 1,
                          "metadata" : {
                            "AutoAppliedSmartFocus" : "False",
                            "WinSubProjectDisplayName" : "",
                            "clipSpeedAttribute" : false
                          },
                          "animationTracks" : {

                          }
                        },
                        {
                          "id" : 311,
                          "_type" : "ScreenVMFile",
                          "src" : 5,
                          "trackNumber" : 0,
                          "attributes" : {
                            "ident" : "Rec 02-03-20_005"
                          },
                          "parameters" : {
                            "cursorScale" : {
                              "type" : "double",
                              "defaultValue" : 0.0,
                              "interp" : "linr"
                            },
                            "cursorOpacity" : {
                              "type" : "double",
                              "defaultValue" : 0.0,
                              "interp" : "linr"
                            }
                          },
                          "effects" : [

                          ],
                          "start" : 7288,
                          "duration" : 266,
                          "mediaStart" : 8282,
                          "mediaDuration" : 266,
                          "scalar" : 1,
                          "metadata" : {
                            "AutoAppliedSmartFocus" : "False",
                            "WinSubProjectDisplayName" : "",
                            "clipSpeedAttribute" : false
                          },
                          "animationTracks" : {

                          }
                        },
                        {
                          "id" : 312,
                          "_type" : "ScreenVMFile",
                          "src" : 5,
                          "trackNumber" : 0,
                          "attributes" : {
                            "ident" : "Rec 02-03-20_005"
                          },
                          "parameters" : {
                            "cursorScale" : {
                              "type" : "double",
                              "defaultValue" : 0.0,
                              "interp" : "linr"
                            },
                            "cursorOpacity" : {
                              "type" : "double",
                              "defaultValue" : 0.0,
                              "interp" : "linr"
                            }
                          },
                          "effects" : [

                          ],
                          "start" : 7554,
                          "duration" : 261,
                          "mediaStart" : 8579,
                          "mediaDuration" : 261,
                          "scalar" : 1,
                          "metadata" : {
                            "AutoAppliedSmartFocus" : "False",
                            "WinSubProjectDisplayName" : "",
                            "clipSpeedAttribute" : false
                          },
                          "animationTracks" : {

                          }
                        }
                    ],
                    "effects" : [

                    ],
                    "start" : 12498,
                    "duration" : 2786,
                    "mediaStart" : 5021,
                    "mediaDuration" : 2786,
                    "scalar" : 1,
                    "metadata" : {
                      "AutoAppliedSmartFocus" : "False",
                      "WinSubProjectDisplayName" : "",
                      "clipSpeedAttribute" : false
                    },
                    "animationTracks" : {

                    }
                  }
                ],
                "transitions" : [
                  {
                    "name" : "Fade",
                    "duration" : 7,
                    "trivial" : false,
                    "useAudioPreRoll" : true,
                    "useVisualPreRoll" : true,
                    "leftMedia" : 236,
                    "rightMedia" : 241
                  },
                  {
                    "name" : "Fade",
                    "duration" : 7,
                    "trivial" : false,
                    "useAudioPreRoll" : true,
                    "useVisualPreRoll" : true,
                    "leftMedia" : 250,
                    "rightMedia" : 259
                  },
                  {
                    "name" : "Fade",
                    "duration" : 7,
                    "trivial" : false,
                    "useAudioPreRoll" : true,
                    "useVisualPreRoll" : true,
                    "leftMedia" : 259,
                    "rightMedia" : 266
                  },
                  {
                    "name" : "Fade",
                    "duration" : 7,
                    "trivial" : false,
                    "useAudioPreRoll" : true,
                    "useVisualPreRoll" : true,
                    "leftMedia" : 266,
                    "rightMedia" : 279
                  }
                ]
              },
              {
                "trackIndex" : 2,
                "medias" : [
                ]
              }
            ]
          }
        }
      ]
    },
    "trackAttributes" : [
      {
        "ident" : "",
        "audioMuted" : false,
        "videoHidden" : false,
        "magnetic" : false,
        "metadata" : {
          "IsLocked" : "False",
          "WinTrackHeight" : "56"
        }
      },
      {
        "ident" : "",
        "audioMuted" : false,
        "videoHidden" : false,
        "magnetic" : false,
        "metadata" : {
          "IsLocked" : "False",
          "WinTrackHeight" : "56"
        }
      },
      {
        "ident" : "",
        "audioMuted" : false,
        "videoHidden" : false,
        "magnetic" : false,
        "metadata" : {
          "IsLocked" : "False",
          "WinTrackHeight" : "56"
        }
      }
    ],
    "captionAttributes" : {
      "enabled" : true,
      "fontName" : "Arial",
      "fontSize" : 64,
      "backgroundColor" : [ 0, 0, 0, 191],
      "foregroundColor" : [ 255, 255, 255, 255],
      "lang" : "en",
      "alignment" : 0,
      "defaultFontSize" : true,
      "opacity" : 0.5,
      "backgroundEnabled" : true,
      "backgroundOnlyAroundText" : true
    },
    "backgroundColor" : [ 0, 0, 0, 255]
  },
  "metadata" : {
    "AutoSaveFile" : "C:\\Users\\Ding\\AppData\\Local\\TechSmith\\Camtasia Studio\\19.0\\Auto-Saves\\tower-arch597081d.autosave.tscproj",
    "CanvasZoom" : 85,
    "Date" : "2020-01-30 12:50:36 AM",
    "Fit" : 0,
    "IsAutoSave" : "0",
    "Language" : "ENU",
    "ProfileName" : "MP4 only (up to 1080p)",
    "ProjectDimensionsChanged" : "1",
    "Title" : "Untitled Project",
    "audioNarrationNotes" : "",
    "calloutStyle" : "Basic",
    "canvasDetached" : "False",
    "canvasPositionHeight" : "0",
    "canvasPositionLeft" : "0",
    "canvasPositionTop" : "0",
    "canvasPositionWidth" : "0"
  },
  "audioFormatSampleRate" : 44100
,
  "themeFile" : null

}
