{
  "accessors": [
    {
      "bufferView": 2,
      "componentType": 5126,
      "count": 65532,
      "max": [
        4.3314099311828613,
        5.4262499809265137,
        2.0851099491119385
      ],
      "min": [
        -4.3314099311828613,
        -5.4262499809265137,
        1.4022300243377686
      ],
      "type": "VEC3"
    },
    {
      "bufferView": 2,
      "byteOffset": 786384,
      "componentType": 5126,
      "count": 65532,
      "max": [
        0.99999672174453735,
        0.99987620115280151,
        0.99955296516418457
      ],
      "min": [
        -0.99999672174453735,
        -0.99987620115280151,
        -0.99979013204574585
      ],
      "type": "VEC3"
    },
    {
      "bufferView": 3,
      "componentType": 5126,
      "count": 65532,
      "max": [
        0.9998510479927063,
        0.99982136487960815,
        0.99989283084869385,
        1
      ],
      "min": [
        -0.9998510479927063,
        -0.99995219707489014,
        -0.99964475631713867,
        -1
      ],
      "type": "VEC4"
    },
    {
      "bufferView": 1,
      "componentType": 5126,
      "count": 65532,
      "max": [
        1.0041699409484863,
        1.0008800029754639
      ],
      "min": [
        0,
        -0.23499000072479248
      ],
      "type": "VEC2"
    },
    {
      "bufferView": 0,
      "componentType": 5125,
      "count": 298050,
      "max": [
        65531
      ],
      "min": [
        0
      ],
      "type": "SCALAR"
    },
    {
      "bufferView": 2,
      "byteOffset": 1572768,
      "componentType": 5126,
      "count": 30893,
      "max": [
        4.3314099311828613,
        5.4262499809265137,
        2.0851099491119385
      ],
      "min": [
        -4.3314099311828613,
        -5.4262499809265137,
        1.4022300243377686
      ],
      "type": "VEC3"
    },
    {
      "bufferView": 2,
      "byteOffset": 1943484,
      "componentType": 5126,
      "count": 30893,
      "max": [
        0.99994152784347534,
        0.99987620115280151,
        0.99955296516418457
      ],
      "min": [
        -0.99969220161437988,
        -0.9996151328086853,
        -0.99979013204574585
      ],
      "type": "VEC3"
    },
    {
      "bufferView": 3,
      "byteOffset": 1048512,
      "componentType": 5126,
      "count": 30893,
      "max": [
        0.99990630149841309,
        0.99995219707489014,
        0.99989283084869385,
        1
      ],
      "min": [
        -0.99990630149841309,
        -0.99982136487960815,
        -0.99964475631713867,
        -1
      ],
      "type": "VEC4"
    },
    {
      "bufferView": 1,
      "byteOffset": 524256,
      "componentType": 5126,
      "count": 30893,
      "max": [
        1.0041699409484863,
        1.0008800029754639
      ],
      "min": [
        0,
        -0.37520000338554382
      ],
      "type": "VEC2"
    },
    {
      "bufferView": 0,
      "byteOffset": 1192200,
      "componentType": 5125,
      "count": 118158,
      "max": [
        30892
      ],
      "min": [
        0
      ],
      "type": "SCALAR"
    },
    {
      "bufferView": 2,
      "byteOffset": 2314200,
      "componentType": 5126,
      "count": 1466,
      "max": [
        3.9861800670623779,
        5.0172100067138672,
        2
      ],
      "min": [
        -3.9861800670623779,
        -5.0172100067138672,
        1.9375
      ],
      "type": "VEC3"
    },
    {
      "bufferView": 2,
      "byteOffset": 2331792,
      "componentType": 5126,
      "count": 1466,
      "max": [
        1,
        1,
        1
      ],
      "min": [
        -1,
        -1,
        -1
      ],
      "type": "VEC3"
    },
    {
      "bufferView": 3,
      "byteOffset": 1542800,
      "componentType": 5126,
      "count": 1466,
      "max": [
        0,
        6.7028076955466531e-06,
        1,
        1
      ],
      "min": [
        -1,
        -1,
        0,
        -1
      ],
      "type": "VEC4"
    },
    {
      "bufferView": 1,
      "byteOffset": 771400,
      "componentType": 5126,
      "count": 1466,
      "max": [
        1,
        1
      ],
      "min": [
        0,
        0
      ],
      "type": "VEC2"
    },
    {
      "bufferView": 0,
      "byteOffset": 1664832,
      "componentType": 5125,
      "count": 7008,
      "max": [
        1465
      ],
      "min": [
        0
      ],
      "type": "SCALAR"
    }
  ],
  "asset": {
    "extras": {
      "author": "Kremit (https://sketchfab.com/Kremit)",
      "license": "CC-BY-4.0 (http://creativecommons.org/licenses/by/4.0/)",
      "source": "https://sketchfab.com/models/2c363d45fb824fbcab624e2ad66eed02",
      "title": "Aladdin's Magic Carpet"
    },
    "generator": "Sketchfab-3.20.7",
    "version": "2.0"
  },
  "bufferViews": [
    {
      "buffer": 0,
      "byteLength": 1692864,
      "byteOffset": 0,
      "name": "floatBufferViews",
      "target": 34963
    },
    {
      "buffer": 0,
      "byteLength": 783128,
      "byteOffset": 1692864,
      "byteStride": 8,
      "name": "floatBufferViews",
      "target": 34962
    },
    {
      "buffer": 0,
      "byteLength": 2349384,
      "byteOffset": 2475992,
      "byteStride": 12,
      "name": "floatBufferViews",
      "target": 34962
    },
    {
      "buffer": 0,
      "byteLength": 1566256,
      "byteOffset": 4825376,
      "byteStride": 16,
      "name": "floatBufferViews",
      "target": 34962
    }
  ],
  "buffers": [
    {
      "byteLength": 6391632,
      "uri": "scene.bin"
    }
  ],
  "images": [
    {
      "uri": "textures/TASSELS_baseColor.jpeg"
    },
    {
      "uri": "textures/CARPET_baseColor.jpeg"
    }
  ],
  "materials": [
    {
      "doubleSided": true,
      "emissiveFactor": [
        0,
        0,
        0
      ],
      "name": "CARPET",
      "pbrMetallicRoughness": {
        "baseColorFactor": [
          1,
          1,
          1,
          1
        ],
        "baseColorTexture": {
          "index": 1,
          "texCoord": 0
        },
        "metallicFactor": 0,
        "roughnessFactor": 0.59999999999999998
      }
    },
    {
      "doubleSided": true,
      "emissiveFactor": [
        0,
        0,
        0
      ],
      "name": "TASSELS",
      "pbrMetallicRoughness": {
        "baseColorFactor": [
          1,
          1,
          1,
          1
        ],
        "baseColorTexture": {
          "index": 0,
          "texCoord": 0
        },
        "metallicFactor": 0,
        "roughnessFactor": 0.59999999999999998
      }
    }
  ],
  "meshes": [
    {
      "name": "TASSELS_0",
      "primitives": [
        {
          "attributes": {
            "NORMAL": 1,
            "POSITION": 0,
            "TANGENT": 2,
            "TEXCOORD_0": 3
          },
          "indices": 4,
          "material": 1,
          "mode": 4
        }
      ]
    },
    {
      "name": "TASSELS_0",
      "primitives": [
        {
          "attributes": {
            "NORMAL": 6,
            "POSITION": 5,
            "TANGENT": 7,
            "TEXCOORD_0": 8
          },
          "indices": 9,
          "material": 1,
          "mode": 4
        }
      ]
    },
    {
      "name": "CARPET_0",
      "primitives": [
        {
          "attributes": {
            "NORMAL": 11,
            "POSITION": 10,
            "TANGENT": 12,
            "TEXCOORD_0": 13
          },
          "indices": 14,
          "material": 0,
          "mode": 4
        }
      ]
    }
  ],
  "nodes": [
    {
      "children": [
        1
      ],
      "name": "RootNode (gltf orientation matrix)",
      "rotation": [
        -0.70710678118654746,
        -0,
        -0,
        0.70710678118654757
      ]
    },
    {
      "children": [
        2
      ],
      "name": "RootNode (model correction matrix)"
    },
    {
      "children": [
        3,
        6
      ],
      "name": "Root"
    },
    {
      "children": [
        4,
        5
      ],
      "matrix": [
        1,
        0,
        0,
        0,
        0,
        1,
        0,
        0,
        0,
        0,
        1,
        0,
        0,
        0,
        -1.9624999999999999,
        1
      ],
      "name": "TASSELS"
    },
    {
      "mesh": 0,
      "name": "TASSELS_0"
    },
    {
      "mesh": 1,
      "name": "TASSELS_0"
    },
    {
      "children": [
        7
      ],
      "matrix": [
        1,
        0,
        0,
        0,
        0,
        1,
        0,
        0,
        0,
        0,
        1,
        0,
        0,
        0,
        -1.9624999999999999,
        1
      ],
      "name": "CARPET"
    },
    {
      "mesh": 2,
      "name": "CARPET_0"
    }
  ],
  "samplers": [
    {
      "magFilter": 9729,
      "minFilter": 9987,
      "wrapS": 10497,
      "wrapT": 10497
    }
  ],
  "scene": 0,
  "scenes": [
    {
      "name": "OSG_Scene",
      "nodes": [
        0
      ]
    }
  ],
  "textures": [
    {
      "sampler": 0,
      "source": 0
    },
    {
      "sampler": 0,
      "source": 1
    }
  ]
}

