{
  "accessors": [
    {
      "bufferView": 2,
      "componentType": 5126,
      "count": 608,
      "max": [
        4.7645158767700195,
        4.9291090965270996,
        0.030836999416351318
      ],
      "min": [
        -4.7645149230957031,
        -4.6006498336791992,
        -0.42907500267028809
      ],
      "type": "VEC3"
    },
    {
      "bufferView": 2,
      "byteOffset": 7296,
      "componentType": 5126,
      "count": 608,
      "max": [
        0.99636441469192505,
        0.99519777297973633,
        0.00044116942444816232
      ],
      "min": [
        -0.9952729344367981,
        -0.99542737007141113,
        -0.99998849630355835
      ],
      "type": "VEC3"
    },
    {
      "bufferView": 3,
      "componentType": 5126,
      "count": 608,
      "max": [
        0,
        0,
        0,
        1
      ],
      "min": [
        0,
        0,
        0,
        1
      ],
      "type": "VEC4"
    },
    {
      "bufferView": 1,
      "componentType": 5126,
      "count": 608,
      "max": [
        0,
        0
      ],
      "min": [
        0,
        0
      ],
      "type": "VEC2"
    },
    {
      "bufferView": 0,
      "componentType": 5125,
      "count": 1914,
      "max": [
        607
      ],
      "min": [
        0
      ],
      "type": "SCALAR"
    },
    {
      "bufferView": 2,
      "byteOffset": 14592,
      "componentType": 5126,
      "count": 13708,
      "max": [
        4.7645149230957031,
        4.9291090965270996,
        4.5540981292724609
      ],
      "min": [
        -4.7645149230957031,
        -4.6006488800048828,
        -0.23969000577926636
      ],
      "type": "VEC3"
    },
    {
      "bufferView": 2,
      "byteOffset": 179088,
      "componentType": 5126,
      "count": 13708,
      "max": [
        0.99991965293884277,
        0.99997556209564209,
        0.99999970197677612
      ],
      "min": [
        -0.99939084053039551,
        -0.99964958429336548,
        -0.99993687868118286
      ],
      "type": "VEC3"
    },
    {
      "bufferView": 3,
      "byteOffset": 9728,
      "componentType": 5126,
      "count": 13708,
      "max": [
        0.99987125396728516,
        0.99876326322555542,
        0.99999988079071045,
        1
      ],
      "min": [
        -0.99958157539367676,
        -0.99988186359405518,
        -0.99999833106994629,
        -1
      ],
      "type": "VEC4"
    },
    {
      "bufferView": 1,
      "byteOffset": 4864,
      "componentType": 5126,
      "count": 13708,
      "max": [
        0.99563401937484741,
        0.99905097484588623
      ],
      "min": [
        0.0011180000146850944,
        0.0039059999398887157
      ],
      "type": "VEC2"
    },
    {
      "bufferView": 0,
      "byteOffset": 7656,
      "componentType": 5125,
      "count": 69312,
      "max": [
        13707
      ],
      "min": [
        0
      ],
      "type": "SCALAR"
    }
  ],
  "asset": {
    "extras": {
      "author": "Horniman Museum (https://sketchfab.com/HornimanMuseum)",
      "license": "CC-BY-NC-ND-4.0 (http://creativecommons.org/licenses/by-nc-nd/4.0/)",
      "source": "https://sketchfab.com/models/7361f73f3ea6431cb35fd202e91ee681",
      "title": "Fountain"
    },
    "generator": "Sketchfab-3.29.3",
    "version": "2.0"
  },
  "bufferViews": [
    {
      "buffer": 0,
      "byteLength": 284904,
      "byteOffset": 0,
      "name": "floatBufferViews",
      "target": 34963
    },
    {
      "buffer": 0,
      "byteLength": 114528,
      "byteOffset": 284904,
      "byteStride": 8,
      "name": "floatBufferViews",
      "target": 34962
    },
    {
      "buffer": 0,
      "byteLength": 343584,
      "byteOffset": 399432,
      "byteStride": 12,
      "name": "floatBufferViews",
      "target": 34962
    },
    {
      "buffer": 0,
      "byteLength": 229056,
      "byteOffset": 743016,
      "byteStride": 16,
      "name": "floatBufferViews",
      "target": 34962
    }
  ],
  "buffers": [
    {
      "byteLength": 972072,
      "uri": "scene.bin"
    }
  ],
  "extensionsUsed": [
    "KHR_materials_unlit"
  ],
  "images": [
    {
      "uri": "textures/horniman-fountain_horniman-fountain.jpg_baseColor.jpg"
    },
    {
      "uri": "textures/horniman-fountain_baseColor.jpg"
    }
  ],
  "materials": [
    {
      "doubleSided": true,
      "emissiveFactor": [
        0,
        0,
        0
      ],
      "extensions": {
        "KHR_materials_unlit": {}
      },
      "name": "horniman-fountain",
      "pbrMetallicRoughness": {
        "baseColorFactor": [
          1,
          1,
          1,
          1
        ],
        "baseColorTexture": {
          "index": 1,
          "texCoord": 0
        },
        "metallicFactor": 0,
        "roughnessFactor": 1
      }
    },
    {
      "doubleSided": true,
      "emissiveFactor": [
        0,
        0,
        0
      ],
      "extensions": {
        "KHR_materials_unlit": {}
      },
      "name": "horniman-fountain_horniman-fountain.jpg",
      "pbrMetallicRoughness": {
        "baseColorFactor": [
          1,
          1,
          1,
          1
        ],
        "baseColorTexture": {
          "index": 0,
          "texCoord": 0
        },
        "metallicFactor": 0,
        "roughnessFactor": 1
      }
    }
  ],
  "meshes": [
    {
      "primitives": [
        {
          "attributes": {
            "NORMAL": 1,
            "POSITION": 0,
            "TANGENT": 2,
            "TEXCOORD_0": 3
          },
          "indices": 4,
          "material": 0,
          "mode": 4
        }
      ]
    },
    {
      "primitives": [
        {
          "attributes": {
            "NORMAL": 6,
            "POSITION": 5,
            "TANGENT": 7,
            "TEXCOORD_0": 8
          },
          "indices": 9,
          "material": 1,
          "mode": 4
        }
      ]
    }
  ],
  "nodes": [
    {
      "children": [
        1
      ],
      "name": "RootNode (gltf orientation matrix)",
      "rotation": [
        -0.70710678118654746,
        -0,
        -0,
        0.70710678118654757
      ]
    },
    {
      "children": [
        2
      ],
      "name": "RootNode (model correction matrix)"
    },
    {
      "children": [
        3,
        4
      ],
      "name": "horniman-fountain-edit.obj.cleaner"
    },
    {
      "mesh": 0,
      "name": ""
    },
    {
      "mesh": 1,
      "name": ""
    }
  ],
  "samplers": [
    {
      "magFilter": 9729,
      "minFilter": 9987,
      "wrapS": 10497,
      "wrapT": 10497
    }
  ],
  "scene": 0,
  "scenes": [
    {
      "name": "OSG_Scene",
      "nodes": [
        0
      ]
    }
  ],
  "textures": [
    {
      "sampler": 0,
      "source": 0
    },
    {
      "sampler": 0,
      "source": 1
    }
  ]
}

