{
  "accessors": [
    {
      "bufferView": 2,
      "componentType": 5126,
      "count": 65532,
      "max": [
        7.736299991607666,
        -0.094999998807907104,
        9.051300048828125
      ],
      "min": [
        -10.508600234985352,
        -33.105998992919922,
        -11.003399848937988
      ],
      "type": "VEC3"
    },
    {
      "bufferView": 2,
      "byteOffset": 786384,
      "componentType": 5126,
      "count": 65532,
      "max": [
        1,
        1,
        1
      ],
      "min": [
        -0.99997520446777344,
        -0.99997556209564209,
        -0.99992763996124268
      ],
      "type": "VEC3"
    },
    {
      "bufferView": 3,
      "componentType": 5126,
      "count": 65532,
      "max": [
        0.99999982118606567,
        0.99997985363006592,
        0.99994850158691406,
        1
      ],
      "min": [
        -0.99999988079071045,
        -0.99996697902679443,
        -0.99999254941940308,
        -1
      ],
      "type": "VEC4"
    },
    {
      "bufferView": 1,
      "componentType": 5126,
      "count": 65532,
      "max": [
        0.99199998378753662,
        0.9836999773979187
      ],
      "min": [
        0.0080000003799796104,
        0.010900000110268593
      ],
      "type": "VEC2"
    },
    {
      "bufferView": 0,
      "componentType": 5125,
      "count": 235377,
      "max": [
        65531
      ],
      "min": [
        0
      ],
      "type": "SCALAR"
    },
    {
      "bufferView": 2,
      "byteOffset": 1572768,
      "componentType": 5126,
      "count": 65532,
      "max": [
        6.1104998588562012,
        -14.369600296020508,
        7.3354001045227051
      ],
      "min": [
        -9.6900997161865234,
        -34.619598388671875,
        -10.84220027923584
      ],
      "type": "VEC3"
    },
    {
      "bufferView": 2,
      "byteOffset": 2359152,
      "componentType": 5126,
      "count": 65532,
      "max": [
        1,
        1,
        0.99996387958526611
      ],
      "min": [
        -1,
        -0.99999356269836426,
        -1
      ],
      "type": "VEC3"
    },
    {
      "bufferView": 3,
      "byteOffset": 1048512,
      "componentType": 5126,
      "count": 65532,
      "max": [
        0.99998527765274048,
        0.99999839067459106,
        0.99998593330383301,
        1
      ],
      "min": [
        -0.99999427795410156,
        -0.99999111890792847,
        -0.99999970197677612,
        -1
      ],
      "type": "VEC4"
    },
    {
      "bufferView": 1,
      "byteOffset": 524256,
      "componentType": 5126,
      "count": 65532,
      "max": [
        0.9868999719619751,
        0.98339998722076416
      ],
      "min": [
        0.010900000110268593,
        0.010499999858438969
      ],
      "type": "VEC2"
    },
    {
      "bufferView": 0,
      "byteOffset": 941508,
      "componentType": 5125,
      "count": 222696,
      "max": [
        65531
      ],
      "min": [
        0
      ],
      "type": "SCALAR"
    },
    {
      "bufferView": 2,
      "byteOffset": 3145536,
      "componentType": 5126,
      "count": 65533,
      "max": [
        7.7245001792907715,
        -0.094999998807907104,
        9.1993999481201172
      ],
      "min": [
        -10.438799858093262,
        -33.744098663330078,
        -10.24429988861084
      ],
      "type": "VEC3"
    },
    {
      "bufferView": 2,
      "byteOffset": 3931932,
      "componentType": 5126,
      "count": 65533,
      "max": [
        1,
        1,
        1
      ],
      "min": [
        -1,
        -1,
        -1
      ],
      "type": "VEC3"
    },
    {
      "bufferView": 3,
      "byteOffset": 2097024,
      "componentType": 5126,
      "count": 65533,
      "max": [
        0.99992722272872925,
        0.99999183416366577,
        0.99999368190765381,
        1
      ],
      "min": [
        -0.99999982118606567,
        -0.99992889165878296,
        -1,
        -1
      ],
      "type": "VEC4"
    },
    {
      "bufferView": 1,
      "byteOffset": 1048512,
      "componentType": 5126,
      "count": 65533,
      "max": [
        0.99180001020431519,
        0.98379999399185181
      ],
      "min": [
        0.007799999788403511,
        0.0078999996185302734
      ],
      "type": "VEC2"
    },
    {
      "bufferView": 0,
      "byteOffset": 1832292,
      "componentType": 5125,
      "count": 185448,
      "max": [
        65532
      ],
      "min": [
        0
      ],
      "type": "SCALAR"
    },
    {
      "bufferView": 2,
      "byteOffset": 4718328,
      "componentType": 5126,
      "count": 14611,
      "max": [
        7.0429000854492188,
        -0.95870000123977661,
        9.051300048828125
      ],
      "min": [
        -10.483400344848633,
        -34.532901763916016,
        -10.85420036315918
      ],
      "type": "VEC3"
    },
    {
      "bufferView": 2,
      "byteOffset": 4893660,
      "componentType": 5126,
      "count": 14611,
      "max": [
        1,
        1,
        1
      ],
      "min": [
        -1,
        -1,
        -1
      ],
      "type": "VEC3"
    },
    {
      "bufferView": 3,
      "byteOffset": 3145552,
      "componentType": 5126,
      "count": 14611,
      "max": [
        0.99979597330093384,
        0.9997144341468811,
        0.99995851516723633,
        1
      ],
      "min": [
        -0.99998056888580322,
        -0.99987530708312988,
        -0.99989122152328491,
        -1
      ],
      "type": "VEC4"
    },
    {
      "bufferView": 1,
      "byteOffset": 1572776,
      "componentType": 5126,
      "count": 14611,
      "max": [
        0.98159998655319214,
        0.9836999773979187
      ],
      "min": [
        0.011400000192224979,
        0.013199999928474426
      ],
      "type": "VEC2"
    },
    {
      "bufferView": 0,
      "byteOffset": 2574084,
      "componentType": 5125,
      "count": 25863,
      "max": [
        14610
      ],
      "min": [
        0
      ],
      "type": "SCALAR"
    }
  ],
  "asset": {
    "extras": {
      "author": "3DScan4You.de (https://sketchfab.com/3dscan4you)",
      "license": "CC-BY-4.0 (http://creativecommons.org/licenses/by/4.0/)",
      "source": "https://sketchfab.com/models/a1ec7a2df65d4ff5972c30e79084ef5a",
      "title": "bunch of flowers with vase"
    },
    "generator": "Sketchfab-3.32.2",
    "version": "2.0"
  },
  "bufferViews": [
    {
      "buffer": 0,
      "byteLength": 2677536,
      "byteOffset": 0,
      "name": "floatBufferViews",
      "target": 34963
    },
    {
      "buffer": 0,
      "byteLength": 1689664,
      "byteOffset": 2677536,
      "byteStride": 8,
      "name": "floatBufferViews",
      "target": 34962
    },
    {
      "buffer": 0,
      "byteLength": 5068992,
      "byteOffset": 4367200,
      "byteStride": 12,
      "name": "floatBufferViews",
      "target": 34962
    },
    {
      "buffer": 0,
      "byteLength": 3379328,
      "byteOffset": 9436192,
      "byteStride": 16,
      "name": "floatBufferViews",
      "target": 34962
    }
  ],
  "buffers": [
    {
      "byteLength": 12815520,
      "uri": "scene.bin"
    }
  ],
  "images": [
    {
      "uri": "textures/default_baseColor.jpeg"
    }
  ],
  "materials": [
    {
      "doubleSided": true,
      "emissiveFactor": [
        0,
        0,
        0
      ],
      "name": "default",
      "pbrMetallicRoughness": {
        "baseColorFactor": [
          1,
          1,
          1,
          1
        ],
        "baseColorTexture": {
          "index": 0,
          "texCoord": 0
        },
        "metallicFactor": 0,
        "roughnessFactor": 0.59999999999999998
      }
    }
  ],
  "meshes": [
    {
      "primitives": [
        {
          "attributes": {
            "NORMAL": 1,
            "POSITION": 0,
            "TANGENT": 2,
            "TEXCOORD_0": 3
          },
          "indices": 4,
          "material": 0,
          "mode": 4
        }
      ]
    },
    {
      "primitives": [
        {
          "attributes": {
            "NORMAL": 6,
            "POSITION": 5,
            "TANGENT": 7,
            "TEXCOORD_0": 8
          },
          "indices": 9,
          "material": 0,
          "mode": 4
        }
      ]
    },
    {
      "primitives": [
        {
          "attributes": {
            "NORMAL": 11,
            "POSITION": 10,
            "TANGENT": 12,
            "TEXCOORD_0": 13
          },
          "indices": 14,
          "material": 0,
          "mode": 4
        }
      ]
    },
    {
      "primitives": [
        {
          "attributes": {
            "NORMAL": 16,
            "POSITION": 15,
            "TANGENT": 17,
            "TEXCOORD_0": 18
          },
          "indices": 19,
          "material": 0,
          "mode": 4
        }
      ]
    }
  ],
  "nodes": [
    {
      "children": [
        1
      ],
      "name": "RootNode (gltf orientation matrix)",
      "rotation": [
        -0.70710678118654746,
        -0,
        -0,
        0.70710678118654757
      ]
    },
    {
      "children": [
        2
      ],
      "matrix": [
        0,
        1,
        0,
        0,
        0,
        0,
        -1,
        0,
        -1,
        0,
        0,
        0,
        -0.82171106338500977,
        -16.183603286743164,
        -17.005313873291016,
        1
      ],
      "name": "RootNode (model correction matrix)"
    },
    {
      "children": [
        3,
        4,
        5,
        6
      ],
      "name": "Blumenstrau-LOW-UW.obj.cleaner.materialmerger.gles"
    },
    {
      "mesh": 0,
      "name": ""
    },
    {
      "mesh": 1,
      "name": ""
    },
    {
      "mesh": 2,
      "name": ""
    },
    {
      "mesh": 3,
      "name": ""
    }
  ],
  "samplers": [
    {
      "magFilter": 9729,
      "minFilter": 9987,
      "wrapS": 10497,
      "wrapT": 10497
    }
  ],
  "scene": 0,
  "scenes": [
    {
      "name": "OSG_Scene",
      "nodes": [
        0
      ]
    }
  ],
  "textures": [
    {
      "sampler": 0,
      "source": 0
    }
  ]
}

